<svg xmlns="http://www.w3.org/2000/svg" viewBox="0 0 480 160"><defs><style>.cls-1{fill:#37bef0;}</style></defs><g id="レイヤー_1" data-name="レイヤー 1"><path class="cls-1" d="M84.14,70.72a2,2,0,0,1-2.22,2.22,41.8,41.8,0,0,0-43.19,57.24c1,2.44,2.89,3.9,6.2,2.62,3.82-1.48,3.61-3.76,2.62-6.19a32.28,32.28,0,0,1,42-42c1.77.72,3,1.72,5.49-.72,2.18-2.18,1.43-3.71.71-5.48a32.28,32.28,0,0,1,42-42c2.43,1,4.51,1.42,6.2-2.62,1.78-4.26-.19-5.21-2.62-6.2A41.78,41.78,0,0,0,84.14,70.72Z"/><path class="cls-1" d="M182.82,91.51a2.23,2.23,0,0,0,2.26,2.25h0A28,28,0,0,1,211,111.22a28.15,28.15,0,0,1,0,21c-1,2.44-2,4.3-6.19,2.62s-3.61-3.76-2.62-6.19a18.66,18.66,0,0,0,0-13.9,18.49,18.49,0,0,0-24.06-10.16c-1.78.72-3.52,1.15-5.44-.76s-1.48-3.67-.76-5.44A18.51,18.51,0,0,0,161.8,74.37a18.66,18.66,0,0,0-13.9,0c-2.43,1-4.45,1.69-6.2-2.62-2.11-5.21,2.36-6.31,6.29-7.27a28.41,28.41,0,0,1,17.53,1.14A28,28,0,0,1,180.78,81a28,28,0,0,1,2,10.52Z"/><path class="cls-1" d="M252.48,55.32l-.86.41-1.19.48a.73.73,0,0,0-.46.8,23,23,0,0,0,.64,2.75,6,6,0,0,0,.45-.61.67.67,0,0,1,.27-.23l5.59-3.06a.77.77,0,0,0,.4-.66l0-1.81a.29.29,0,0,0-.45-.24l-.81.43a.29.29,0,0,1-.44-.28l.8-6.51a.78.78,0,0,1,.74-.66h.41a.56.56,0,0,1,.58.59c0,.52,0,1.23,0,1.54a21.19,21.19,0,0,0,.6,5.55l.18.72a.68.68,0,0,1-.15.6l-.54.64a16,16,0,0,1-1.8,1.71c-.13.12-.35.29-.56.46a.66.66,0,0,0-.07,1l1.12.82a.67.67,0,0,0,.82-.06,15.77,15.77,0,0,0,1.2-1.08c.15-.14.44-.45.71-.74a.65.65,0,0,1,1,0c.2.25.42.51.55.64a3.05,3.05,0,0,0,2.11,1.07,2,2,0,0,0,1.68-1.09h0a10.39,10.39,0,0,0,.78-1.86c.12-.37.3-1.07.41-1.52a.58.58,0,0,0-.23-.63l-1.66-1.11a9.12,9.12,0,0,1-.3,1c-.21.52-.51.92-.86.92a.71.71,0,0,1-.59-.35,2.14,2.14,0,0,1-.22-.48s.67-1.09.92-1.52c.58-1,1-1.78,1.41-2.71l.46-1,1.52-1.75-2.77,0c-.46,0-.72.11-.85.45-.22.54-.51,1.22-.85,1.93-.19.41-.89,1.73-.89,1.73s-.25-1.3-.3-1.67-.1-1-.11-1.43,0-1.1,0-1.62a.78.78,0,0,1,.74-.72H266a.75.75,0,0,0,.73-.65l.16-1.3a.57.57,0,0,0-.57-.66h-4.51a.57.57,0,0,1-.58-.66l.42-3.19a.79.79,0,0,1,.13-.33l2-1.06h-4.27a.75.75,0,0,0-.73.66l-.47,3.93a.75.75,0,0,1-.74.65h-3a.76.76,0,0,0-.74.66Z"/><path class="cls-1" d="M242.11,59.21l.72.88c1.44,1.66,4.16,4,11.38,4l9,0a.8.8,0,0,0,.68-.39l1.19-2c.85-1.41,3.33-1.34-.57-1-2.58.22-8.53.7-11.46.7a11.71,11.71,0,0,1-3.88-.5c-.17-.06-.64-.27-1-.45a.94.94,0,0,1-.54-1l.44-3.63a.53.53,0,0,1,.51-.44h2.33a.53.53,0,0,0,.5-.45l.24-1.93a.39.39,0,0,0-.4-.45h-2.32a.4.4,0,0,1-.4-.45l.22-1.82a.53.53,0,0,1,.51-.45h2.64a.52.52,0,0,0,.5-.45l.23-1.87a.39.39,0,0,0-.39-.45H249.1a.39.39,0,0,1-.39-.45l.23-1.87a.52.52,0,0,1,.5-.45h2.83a.53.53,0,0,0,.51-.45l.2-1.65a.39.39,0,0,0-.4-.45h-2.82a.39.39,0,0,1-.4-.45l.18-1.48a.47.47,0,0,1,.09-.22l2.05-1.25H247a.54.54,0,0,0-.52.45l-.3,2.5a.53.53,0,0,1-.51.45H242.2a.53.53,0,0,0-.51.45l-.2,1.65a.39.39,0,0,0,.39.45h3.52a.38.38,0,0,1,.39.45l-.23,1.87a.52.52,0,0,1-.5.45H241a.52.52,0,0,0-.5.45l-.23,1.87a.39.39,0,0,0,.39.45h4.58a.39.39,0,0,1,.4.45L244.82,57c0,.29-.41.4-.54.16l-.93-1.67a.42.42,0,0,1,0-.29l.5-2.45a.54.54,0,0,1,.11-.23c.2-.22.87-.74.87-.75l-3.32-.07a.51.51,0,0,0-.5.42c-.05.23-.1.49-.13.67a36.93,36.93,0,0,1-3.34,9.37c-.1.21-.26.5-.4.74a.41.41,0,0,0,.23.62l2.32.57a.5.5,0,0,0,.54-.26c.13-.22.29-.53.42-.8.28-.6.64-1.45,1.13-2.79C241.82,60,242.11,59.21,242.11,59.21Z"/><path class="cls-1" d="M263.71,40.17a.67.67,0,0,0-.38.9c.22.38.46.83.53,1s.17.41.26.66a.56.56,0,0,0,.8.25l1.36-.7a.67.67,0,0,0,.34-.82,8.62,8.62,0,0,0-.81-1.61.54.54,0,0,0-.69-.2Z"/><path class="cls-1" d="M308.14,46.62h-4.42a.79.79,0,0,0-.76.68L301.35,60.4c-.13,1.09-.72,1.29-1.77,1.29h-.43a.76.76,0,0,0-.74,1l.57,1.64a.6.6,0,0,0,.58.39c3.53-.07,4.57-.58,4.9-3.27l1.64-13.32a.76.76,0,0,1,.16-.38Z"/><path class="cls-1" d="M296.51,47.78l-1.33,10.87a.57.57,0,0,0,.59.67h1.63a.78.78,0,0,0,.76-.67l1.25-10.13a.72.72,0,0,1,.2-.43l2-1h-4.3A.79.79,0,0,0,296.51,47.78Z"/><path class="cls-1" d="M297.86,42a.74.74,0,0,1-.6.31h-6.4c-.08,0-.19,0,0-.14s.77-.36.77-.36a.74.74,0,0,0,.38-1c-.56-1-1-1.64-1.31-2.1a.62.62,0,0,0-.77-.2l-1.85.77a.73.73,0,0,0-.38,1c.37.58.76,1.23,1,1.63a.25.25,0,0,1-.23.36H282.7a.79.79,0,0,0-.76.68l-.13,1.13a.58.58,0,0,0,.59.68h25.34a.78.78,0,0,0,.76-.68l.14-1.13a.58.58,0,0,0-.59-.68h-6.2c-.06,0-.35-.15-.18-.35s1.42-2,1.42-2l2.3-1.24-4.74-.07a.77.77,0,0,0-.67.4A29.75,29.75,0,0,1,297.86,42Z"/><path class="cls-1" d="M292.09,61.68l1.7-13.88a.58.58,0,0,0-.59-.67h-9.59a.78.78,0,0,0-.76.67l-2,16.3a.58.58,0,0,0,.59.67H283a.78.78,0,0,0,.76-.67l.61-5a.8.8,0,0,1,.76-.68h3.68a.59.59,0,0,1,.6.68l-.23,1.81a1,1,0,0,1-1.19,1s-.28,0-.7,0a.78.78,0,0,0-.8.91l.41,1.66a.57.57,0,0,0,.59.44C290.05,64.81,291.78,64.15,292.09,61.68Zm-5.85-12.19h3.68a.59.59,0,0,1,.6.67l-.1.77a.78.78,0,0,1-.76.68H286a.59.59,0,0,1-.59-.68l.09-.77A.79.79,0,0,1,286.24,49.49Zm-1.4,5.92.09-.77a.79.79,0,0,1,.76-.67h3.68a.59.59,0,0,1,.6.67l-.1.77a.78.78,0,0,1-.76.67h-3.68A.58.58,0,0,1,284.84,55.41Z"/><path class="cls-1" d="M329.8,44.75l1.14.72a.75.75,0,0,0,.94,0,23.18,23.18,0,0,0,2.25-2.17.77.77,0,0,1,.56-.25h14.68a.8.8,0,0,0,.76-.68l.15-1.2a.59.59,0,0,0-.6-.67H337a.29.29,0,0,1-.21-.48l.62-.84a1,1,0,0,1,.26-.23l2.48-1.22h-4.86a.78.78,0,0,0-.65.38,23.06,23.06,0,0,1-4.8,5.56A.67.67,0,0,0,329.8,44.75Z"/><path class="cls-1" d="M343.46,63.73a4.18,4.18,0,0,0,1.16-1.91l.33-1a.78.78,0,0,1,.73-.55h1.24a.77.77,0,0,0,.75-.67l.14-1.14a.58.58,0,0,0-.59-.67h-.78a.59.59,0,0,1-.58-.73l.45-2.27a.79.79,0,0,1,.75-.63h.86a.77.77,0,0,0,.75-.67l.13-1a.59.59,0,0,0-.59-.68h-.65a.59.59,0,0,1-.6-.68c.16-1.11.46-3.32.65-4.78a.59.59,0,0,0-.6-.68H333.5a.78.78,0,0,0-.76.68c-.18,1.65-.54,3.78-.72,4.82a.78.78,0,0,1-.75.64h-1.18a.78.78,0,0,0-.75.68l-.13,1a.58.58,0,0,0,.59.67h.83a.59.59,0,0,1,.57.77c-.37,1.38-1.17,4.25-1.68,5.82a.59.59,0,0,0,.49.81l1.44.15a.77.77,0,0,0,.77-.49c.06-.16.13-.31.19-.46a.77.77,0,0,1,.71-.49h8.11a.6.6,0,0,1,.54.88,3.48,3.48,0,0,1-.29.56c-.4.51-1.05.77-2.45.84a.77.77,0,0,0-.68,1l.52,1.29a.58.58,0,0,0,.6.36A6.55,6.55,0,0,0,343.46,63.73ZM342,48.17h1.75a.59.59,0,0,1,.59.69L344,51.13a.79.79,0,0,1-.76.66h-1.79a.58.58,0,0,1-.59-.7l.36-2.27A.79.79,0,0,1,342,48.17Zm-6.12,9.61h-1.71a.59.59,0,0,1-.58-.76l.54-2.27a.79.79,0,0,1,.74-.6h1.81a.59.59,0,0,1,.57.78l-.64,2.28A.79.79,0,0,1,335.84,57.78Zm1.44-6h-1.84a.58.58,0,0,1-.59-.69l.34-2.27a.79.79,0,0,1,.76-.66h1.88a.58.58,0,0,1,.58.71L338,51.15A.78.78,0,0,1,337.28,51.79ZM339.5,57l.56-2.28a.81.81,0,0,1,.75-.59h1.95a.59.59,0,0,1,.58.73l-.46,2.27a.78.78,0,0,1-.75.63h-2.06A.59.59,0,0,1,339.5,57Z"/><path class="cls-1" d="M325.73,51.62l1.08-1.28a.66.66,0,0,0,0-.93,22.28,22.28,0,0,0-2.8-2,.72.72,0,0,0-.91.19l-1,1.21a.64.64,0,0,0,.07,1,22.48,22.48,0,0,1,2.6,2A.71.71,0,0,0,325.73,51.62Z"/><path class="cls-1" d="M322.58,64.65c1.63-2.37,2.84-4.13,4.43-6.87a.63.63,0,0,0-.09-.81l-1-.87a.72.72,0,0,0-1.06.25,47.86,47.86,0,0,1-4.54,6.49.67.67,0,0,0,0,.9l1.51,1.42a1.4,1.4,0,0,0,.53.36.31.31,0,0,1,0-.08,1.4,1.4,0,0,1,.21-.78Z"/><path class="cls-1" d="M325.8,39.21l-1.09,1.18a.65.65,0,0,0,0,1,25.32,25.32,0,0,1,2.09,2,.68.68,0,0,0,1-.06L329,42.06a.69.69,0,0,0,0-1c-.73-.72-1.57-1.44-2.26-2A.69.69,0,0,0,325.8,39.21Z"/><path class="cls-1" d="M369.83,49.64H389.6a.79.79,0,0,0,.76-.67l.15-1.26a.58.58,0,0,0-.59-.68h-23.2a.78.78,0,0,0-.76.71c-.06.84-.14,1.79-.29,3a28.05,28.05,0,0,1-4.24,12.43.62.62,0,0,0,.26,1l1.91.66a.76.76,0,0,0,.86-.34A33.31,33.31,0,0,0,369,51c0-.17.06-.46.1-.72A.8.8,0,0,1,369.83,49.64Z"/><path class="cls-1" d="M388.55,57.18h-7.77a.58.58,0,0,1-.59-.67l.16-1.31a.79.79,0,0,1,.76-.67h6.26a.78.78,0,0,0,.76-.67l.16-1.3a.58.58,0,0,0-.59-.67H371.5a.78.78,0,0,0-.76.67l-.16,1.3a.58.58,0,0,0,.59.67h5a.58.58,0,0,1,.59.67l-.16,1.31a.78.78,0,0,1-.76.67h-6.45a.77.77,0,0,0-.75.68l-.19,1.48a.59.59,0,0,0,.6.67h6.45a.59.59,0,0,1,.59.68l-.52,4.17a.59.59,0,0,0,.6.67h2.26a.79.79,0,0,0,.76-.67l.51-4.17a.78.78,0,0,1,.76-.68h7.76a.78.78,0,0,0,.76-.67l.18-1.48A.58.58,0,0,0,388.55,57.18Z"/><path class="cls-1" d="M367.39,39.74l-.58,4.78a.59.59,0,0,0,.59.68h20.84a.78.78,0,0,0,.75-.68l.49-4a.76.76,0,0,1,.29-.5l1.94-1L386.93,39a.78.78,0,0,0-.76.68l-.28,2.29a.8.8,0,0,1-.76.68h-4.4a.59.59,0,0,1-.6-.68l.24-1.94a.8.8,0,0,1,.29-.51l2.08-1.12-5.07,0a.79.79,0,0,0-.76.68l-.36,2.92a.78.78,0,0,1-.76.68h-4.65a.59.59,0,0,1-.59-.68l.17-1.39A.77.77,0,0,1,371,40l1.94-.93-4.81,0A.79.79,0,0,0,367.39,39.74Z"/><path class="cls-1" d="M268.72,103.32h-1.8a.59.59,0,0,1-.59-.68l.4-3.27a.79.79,0,0,1,.76-.68h1.8a.58.58,0,0,1,.59.68l-.4,3.27A.78.78,0,0,1,268.72,103.32Zm5.83,0h-1.83a.59.59,0,0,1-.6-.68l.41-3.27a.77.77,0,0,1,.75-.68h1.84a.58.58,0,0,1,.59.68l-.4,3.27A.8.8,0,0,1,274.55,103.32Zm6,0h-2a.59.59,0,0,1-.59-.68l.4-3.27a.79.79,0,0,1,.76-.68h2a.58.58,0,0,1,.59.68l-.4,3.27A.78.78,0,0,1,280.56,103.32ZM264,97l-.73,5.68a.78.78,0,0,1-.76.67h-1.34a.78.78,0,0,0-.76.67l-.15,1.2a.58.58,0,0,0,.59.67h25.38a.78.78,0,0,0,.76-.67l.15-1.2a.58.58,0,0,0-.59-.67h-1.38a.59.59,0,0,1-.59-.68l.71-5.83.23,0a2.09,2.09,0,0,0,1.66-.41,6.05,6.05,0,0,0,1.76-3.65.6.6,0,0,0-.32-.64l-1.35-.67a.75.75,0,0,0-1,.45c-.23.64-.59,1.24-1.16,1.24a3.25,3.25,0,0,1-2-1.11c-.13-.12-.39-.39-.6-.61a.48.48,0,0,1,0-.67c.29-.28.69-.68,1-1S285,88.06,285,88.06l1.42-.44s-1.7-1.18-2.45-1.83a.71.71,0,0,0-1,.16c-.38.49-.9,1.14-1.06,1.37s-.67.83-1,1.21a.35.35,0,0,1-.59,0c-.17-.44-.42-1.07-.51-1.39s-.1-.34-.14-.53-.08-.35-.12-.58a.76.76,0,0,1,.75-.88h8.06a.79.79,0,0,0,.76-.68l.17-1.41a.58.58,0,0,0-.59-.68h-4.14c-.4,0-.2-.09,0-.22l.74-.56a.7.7,0,0,0,.16-1,10.65,10.65,0,0,0-1.55-1.39.68.68,0,0,0-.77,0l-1.2.79a.69.69,0,0,0-.18,1.05c.1.1.54.6.85,1,.18.2.24.36-.19.36H280a.59.59,0,0,1-.6-.66c0-.37.08-.78.09-.86l0-.27,1.68-1.09-4,0a.79.79,0,0,0-.81.7c0,.29,0,.55-.05.85,0,.13,0,.37,0,.62a.79.79,0,0,1-.76.75H265a.79.79,0,0,0-.77.75c0,.68,0,1.64,0,2s-.08,1.08-.15,1.7a22.06,22.06,0,0,1-1.75,6.48,10.73,10.73,0,0,1-1.14,2,.62.62,0,0,0,.15.93l1.39.81a.71.71,0,0,0,.89-.2c.19-.24.41-.5.55-.71a14.4,14.4,0,0,0,1.67-3.91c.13-.39.34-1.15.49-1.68a.78.78,0,0,1,.73-.58h2.77a.58.58,0,0,1,.58.73,4.45,4.45,0,0,1-.17.68,1.75,1.75,0,0,1-1.39,1.32h-.71a.77.77,0,0,0-.77.85l.19,1.39a.59.59,0,0,0,.62.5c3-.16,3.94-1,4.41-2.3l.17-.47v0a21.63,21.63,0,0,0,1-4.71.58.58,0,0,0-.59-.67h-5.54a.58.58,0,0,1-.59-.66l.08-.83a.79.79,0,0,1,.76-.69h8.07a.56.56,0,0,1,.58.48c.08.47.19,1.16.27,1.5a15.68,15.68,0,0,0,.77,2.59c.1.25.3.69.44,1a.43.43,0,0,1-.21.54l-.86.44a19.88,19.88,0,0,1-2.09.91l-1,.33a.74.74,0,0,0-.5,1l.79,1.64a.62.62,0,0,0,.84.25l.72-.33c.93-.44,1.77-.88,2.56-1.35l1-.66a.64.64,0,0,1,.84,0l.6.61a15.06,15.06,0,0,0,1.72,1.49l1.07.74H264.71A.79.79,0,0,0,264,97Z"/><path class="cls-1" d="M311,88.42a.72.72,0,0,0-1,.3c-.79,1.44-1.57,3-1.82,3.48s-.33.41-.37,0a7.73,7.73,0,0,1,0-2,46.17,46.17,0,0,1,1.75-7.64,4.48,4.48,0,0,1,.22-.62,14.23,14.23,0,0,1,1.77-1.16H307.4a.77.77,0,0,0-.77.56A61.56,61.56,0,0,0,304.81,90a24.27,24.27,0,0,0,.22,7.86.58.58,0,0,0,.59.46H307a.78.78,0,0,0,.7-.48,85.05,85.05,0,0,1,4.05-8.16.63.63,0,0,0-.15-.83Z"/><path class="cls-1" d="M311.74,104.32l1.83,1a.71.71,0,0,0,.83-.14A23.93,23.93,0,0,0,319,99.35a24.89,24.89,0,0,0,3-9.26c.25-2,.35-4.25.43-6.56v-.4c0-.69,0-1.38,0-1.38l1.6-1.33H320a.78.78,0,0,0-.76.77,86.16,86.16,0,0,1-.46,9,21.2,21.2,0,0,1-3,8.48,17.06,17.06,0,0,1-4,4.55A.66.66,0,0,0,311.74,104.32Z"/><path class="cls-1" d="M333.71,105.12h25.22a.79.79,0,0,0,.76-.68l.21-1.73a.58.58,0,0,0-.59-.67H348.47a.58.58,0,0,1-.59-.68l1.06-8.66a.8.8,0,0,1,.76-.68h8.8a.79.79,0,0,0,.76-.67l.23-1.89a.58.58,0,0,0-.59-.67h-8.8a.58.58,0,0,1-.59-.68l.85-6.92a.75.75,0,0,1,.25-.47l1.65-1.09h-4.52a.78.78,0,0,0-.76.67l-2.59,21.06a.78.78,0,0,1-.76.68h-9.55a.77.77,0,0,0-.75.67l-.22,1.73A.59.59,0,0,0,333.71,105.12Z"/><path class="cls-1" d="M397,80.12a14.54,14.54,0,0,1,.92,1.66.63.63,0,0,0,.88.23l.83-.44a.73.73,0,0,0,.37-.92,13.72,13.72,0,0,0-1-1.8.63.63,0,0,0-.84-.15l-.82.44A.71.71,0,0,0,397,80.12Z"/><path class="cls-1" d="M403.73,80.27a15.82,15.82,0,0,0-1-1.93.65.65,0,0,0-.85-.18l-.8.43a.72.72,0,0,0-.33,1c.31.5.63,1.11,1,1.81a.62.62,0,0,0,.88.24l.71-.38A.77.77,0,0,0,403.73,80.27Z"/><path class="cls-1" d="M379.47,96.19c-.34.58-.75,1.23-1.05,1.7a.27.27,0,0,1-.51-.07c-.06-.67-.13-1.62-.12-2.1,0-1.1.15-2.19.27-3.18a45.1,45.1,0,0,1,2.3-9.89c0-.09.4-.8.54-1.07a.8.8,0,0,1,.13-.19c.25-.25,1.41-1,1.42-1h-3.8a.8.8,0,0,0-.7.47,23.73,23.73,0,0,0-1.24,3.36,44.23,44.23,0,0,0-1.4,6.92c-.85,6.89,0,10.59.63,12.56a.6.6,0,0,0,.69.4l1.59-.3a.78.78,0,0,0,.6-.55,32,32,0,0,1,2.47-6,.62.62,0,0,0-.13-.81l-.66-.51A.72.72,0,0,0,379.47,96.19Z"/><path class="cls-1" d="M422,95.28V95c-.07-2-.53-3.34-2-6l-.05-.09,2.78-5.15v0l.73-1.35a.65.65,0,0,0-.05-.72l-.82-1a.61.61,0,0,0-.47-.21h-6.89a.78.78,0,0,0-.76.67l-3,24.35a.58.58,0,0,0,.59.67h1.64a.79.79,0,0,0,.76-.67L417,84a.77.77,0,0,1,.75-.67h1.45a.6.6,0,0,1,.51.93l-2.65,4.94a.66.66,0,0,0,0,.68c1.5,2.2,2.15,4.15,1.95,5.8-.24,2-1.21,2.48-2.34,2.62a.77.77,0,0,0-.65,1l.58,1.46a.57.57,0,0,0,.68.35c3.07-.62,4.13-1.87,4.6-5.2Z"/><path class="cls-1" d="M422.42,95.92l.72,1a.64.64,0,0,0,.87.14,29.74,29.74,0,0,0,2.78-1.85c.28-.21.84-.67,1.26-1s.57-.15.61,0,.07.37.07.37a.71.71,0,0,1-.23.65c-.36.35-1,.94-1.32,1.26a25.65,25.65,0,0,1-8.49,5.13.72.72,0,0,0-.39,1l.95,1.41a.64.64,0,0,0,.8.18,31.86,31.86,0,0,0,6.21-3.63c.25-.19,1.06-.86,1.75-1.42a.62.62,0,0,1,1.07.45c0,.21,0,.42-.05.6-.26,2.11-1,2.9-2.84,2.9,0,0-.44,0-1,0a.77.77,0,0,0-.79.88l.35,1.72a.57.57,0,0,0,.56.47A6.83,6.83,0,0,0,430,105a5.61,5.61,0,0,0,1.8-3.77,23.92,23.92,0,0,0-.24-6.15,20.05,20.05,0,0,0-1.46-5.13c-.08-.19-.21-.48-.33-.72a.71.71,0,0,1,.23-.84c.36-.29.83-.68,1-.86s.51-.5.71-.7.25-.3.49-.3.22.23.2.57c0,.66-.07,1.74-.08,2.32,0,5.84,1,10.8,2.85,14a.63.63,0,0,0,.91.14l1.81-1.18a.71.71,0,0,0,.25-1,15.28,15.28,0,0,1-2.4-5.37c-.11-.39-.26-1.16-.37-1.67a.76.76,0,0,1,.38-.77c.45-.26,1.1-.63,1.38-.81.54-.35,1-.65,1.49-1a1.19,1.19,0,0,1,.79-.29l1,0-2-2.1a.69.69,0,0,0-.92,0c-.4.34-.73.6-1,.83l-.48.33a.61.61,0,0,1-1-.43c0-.28,0-.55,0-.72,0-.47,0-1.44.05-2.12a.77.77,0,0,1,.76-.73h3.08a.78.78,0,0,0,.76-.67l.16-1.27a.59.59,0,0,0-.6-.67h-3.66a.21.21,0,0,1-.16-.34c.42-.64,1.45-2.38,1.51-2.45s2.63-1.41,2.63-1.41l-4.49,0a.79.79,0,0,0-.89.43c-.36.76-.74,1.49-1.16,2.21-.18.32-.53.88-.76,1.24a.76.76,0,0,1-.64.37h-3.79c-.72,0-.3-.17,0-.32l1-.54a.74.74,0,0,0,.37-.93,20.92,20.92,0,0,0-1.24-2.33.63.63,0,0,0-.83-.2l-1.31.64a.74.74,0,0,0-.37,1c.16.29.32.59.48.94s.44,1.12.59,1.53a.18.18,0,0,1-.18.23h-2.9a.79.79,0,0,0-.76.67l-.15,1.27a.57.57,0,0,0,.59.67h3.53a.64.64,0,0,1,.27,1.2c-.35.26-.67.49-.84.59a21,21,0,0,1-3.23,1.67.74.74,0,0,0-.45.94l.55,1.33a.63.63,0,0,0,.87.28c.67-.32,1.26-.63,1.84-1,.31-.19.89-.58,1.32-.88s.63-.25.72,0a1.78,1.78,0,0,0,.09.24.72.72,0,0,1-.21.78c-.49.44-1.32,1.17-1.78,1.51a17,17,0,0,1-2.32,1.44l-.59.31A.71.71,0,0,0,422.42,95.92Z"/><path class="cls-1" d="M398.22,86.47h-3.39a.67.67,0,0,1-.68-.7c0-.78.1-2,.12-2.43a10.33,10.33,0,0,1,.11-1.23.77.77,0,0,1,.24-.44l1.56-1-4.08,0a.69.69,0,0,0-.68.67c0,1.41-.05,2.82-.1,3.91,0,.14,0,.41,0,.66a.66.66,0,0,1-.67.63h-6.17a.67.67,0,0,0-.67.68V89a.67.67,0,0,0,.67.67h5.84a.68.68,0,0,1,.67.74l-.08.89a21.48,21.48,0,0,1-5.19,12.08.65.65,0,0,0,.1,1l1.69,1a.72.72,0,0,0,.92-.23,26,26,0,0,0,4.89-10.77c.18-.87.46-3,.59-4.09a.67.67,0,0,1,.67-.59h3.68a.67.67,0,0,0,.67-.67V87.15A.67.67,0,0,0,398.22,86.47Z"/><path class="cls-1" d="M263.67,126.64H262.2a.21.21,0,0,0-.21.17l-1.58,7.9a.23.23,0,0,0,0,.18.25.25,0,0,0,.17.08h2.12c2.73,0,4.49-2,4.49-5C267.23,127.84,265.93,126.64,263.67,126.64Zm0,1.2a2,2,0,0,1,2.21,2.16c0,2.29-1.22,3.77-3.1,3.77H262l1.19-5.93Z"/><path class="cls-1" d="M272.73,126.64h-.94a.23.23,0,0,0-.22.17l-1.57,7.9a.2.2,0,0,0,0,.18.23.23,0,0,0,.17.08h.94a.23.23,0,0,0,.22-.18l1.57-7.89a.2.2,0,0,0,0-.18A.23.23,0,0,0,272.73,126.64Z"/><path class="cls-1" d="M279.19,126.49a2.53,2.53,0,0,0-2.68,2.41,2.34,2.34,0,0,0,1.32,2l.92.55c.63.38.87.69.87,1.11a1.3,1.3,0,0,1-1.46,1.26,2.16,2.16,0,0,1-1.85-1,.24.24,0,0,0-.15-.09.21.21,0,0,0-.17,0l-.69.52a.22.22,0,0,0,0,.3,3.27,3.27,0,0,0,2.81,1.49,2.72,2.72,0,0,0,3-2.64,2.24,2.24,0,0,0-1.29-2l-.92-.54c-.61-.36-.91-.63-.91-1.09a1.13,1.13,0,0,1,1.21-1.06,2,2,0,0,1,1.52.78.19.19,0,0,0,.15.08.23.23,0,0,0,.17,0l.61-.56a.24.24,0,0,0,0-.3A3,3,0,0,0,279.19,126.49Z"/><path class="cls-1" d="M288.79,126.49c-2.66,0-4.3,2.71-4.3,5.22,0,2.1,1.16,3.41,3,3.41a3.63,3.63,0,0,0,2.41-1,.21.21,0,0,0,0-.29l-.43-.61a.24.24,0,0,0-.15-.09.21.21,0,0,0-.17.05,2.34,2.34,0,0,1-1.53.66c-1.48,0-1.79-1.22-1.79-2.25,0-1.87,1.14-3.88,2.85-3.88a1.3,1.3,0,0,1,1.14.75.23.23,0,0,0,.15.1.21.21,0,0,0,.17,0l.66-.49a.22.22,0,0,0,.06-.29A2.45,2.45,0,0,0,288.79,126.49Z"/><path class="cls-1" d="M297.13,126.49c-2.43,0-4.07,2.64-4.07,5.1,0,2.18,1.13,3.53,2.95,3.53,2.43,0,4.07-2.64,4.07-5.1C300.08,127.84,299,126.49,297.13,126.49Zm-1.07,7.38c-1.32,0-1.6-1.28-1.6-2.35,0-1.79,1.08-3.78,2.62-3.78,1.32,0,1.6,1.28,1.6,2.35C298.68,131.88,297.61,133.87,296.06,133.87Z"/><path class="cls-1" d="M309.58,126.64h-1a.2.2,0,0,0-.2.12l-2.18,4.39c-.31.61-.62,1.27-.93,1.91,0-.64-.09-1.27-.13-1.83l-.33-4.39a.23.23,0,0,0-.22-.2h-1a.2.2,0,0,0-.16.07.25.25,0,0,0-.06.17l.71,7.89a.23.23,0,0,0,.22.2h1.12a.2.2,0,0,0,.19-.12l4.13-7.89a.24.24,0,0,0,0-.22A.23.23,0,0,0,309.58,126.64Z"/><path class="cls-1" d="M317.43,126.64h-4.35a.22.22,0,0,0-.22.17l-1.58,7.9a.24.24,0,0,0,.05.18.21.21,0,0,0,.17.08H316a.21.21,0,0,0,.21-.18l.16-.79a.2.2,0,0,0,0-.18.23.23,0,0,0-.17-.08h-3.27l.52-2.52h2.71a.22.22,0,0,0,.21-.18l.16-.79a.19.19,0,0,0,0-.18.21.21,0,0,0-.17-.09h-2.63l.42-2.11h3.24a.23.23,0,0,0,.22-.18l.16-.79a.24.24,0,0,0,0-.18A.21.21,0,0,0,317.43,126.64Z"/><path class="cls-1" d="M323.76,126.64H321.6a.22.22,0,0,0-.22.17l-1.58,7.9a.2.2,0,0,0,.05.18.21.21,0,0,0,.17.08H321a.22.22,0,0,0,.22-.18l.63-3.17h1l1.24,3.21a.2.2,0,0,0,.2.14h1a.2.2,0,0,0,.18-.1.2.2,0,0,0,0-.2l-1.29-3.2a2.79,2.79,0,0,0,2.24-2.77C326.44,127.76,326,126.64,323.76,126.64Zm-1.21,1.19h1c1.37,0,1.55.5,1.55,1,0,1-.77,1.61-2.11,1.61h-.91Z"/><path class="cls-1" d="M339.87,126.64h-4.35a.22.22,0,0,0-.22.17l-1.58,7.9a.2.2,0,0,0,0,.18.21.21,0,0,0,.17.08h4.45a.22.22,0,0,0,.22-.18l.16-.79a.2.2,0,0,0,0-.18.21.21,0,0,0-.17-.08h-3.26l.52-2.52h2.7a.23.23,0,0,0,.22-.18l.16-.79a.24.24,0,0,0-.22-.27H336l.42-2.11h3.25a.21.21,0,0,0,.21-.18l.16-.79a.2.2,0,0,0,0-.18A.23.23,0,0,0,339.87,126.64Z"/><path class="cls-1" d="M346.8,126.49c-2.66,0-4.3,2.71-4.3,5.22,0,2.1,1.16,3.41,3,3.41a3.63,3.63,0,0,0,2.41-1,.21.21,0,0,0,0-.29l-.43-.61a.24.24,0,0,0-.15-.09.21.21,0,0,0-.17.05,2.34,2.34,0,0,1-1.53.66c-1.48,0-1.79-1.22-1.79-2.25,0-1.87,1.14-3.88,2.85-3.88a1.3,1.3,0,0,1,1.14.75.23.23,0,0,0,.15.1.21.21,0,0,0,.17,0l.66-.49a.22.22,0,0,0,.06-.29A2.45,2.45,0,0,0,346.8,126.49Z"/><path class="cls-1" d="M358.54,126.64h-.93a.22.22,0,0,0-.22.17l-.63,3.16h-3.12l.63-3.07a.24.24,0,0,0,0-.18.21.21,0,0,0-.17-.08h-.93a.22.22,0,0,0-.22.17l-1.58,7.9a.2.2,0,0,0,.05.18.21.21,0,0,0,.17.08h.93a.22.22,0,0,0,.22-.18l.71-3.56h3.11l-.7,3.48a.24.24,0,0,0,.05.18.21.21,0,0,0,.17.08H357a.21.21,0,0,0,.21-.18l1.58-7.89a.2.2,0,0,0-.05-.18A.21.21,0,0,0,358.54,126.64Z"/><path class="cls-1" d="M364,126.64h-.93a.22.22,0,0,0-.22.17l-1.58,7.9a.2.2,0,0,0,.05.18.21.21,0,0,0,.17.08h.93a.22.22,0,0,0,.22-.18l1.58-7.89a.24.24,0,0,0-.05-.18A.21.21,0,0,0,364,126.64Z"/><path class="cls-1" d="M373.07,126.64h-4.73a.23.23,0,0,0-.22.17l-.16.79a.25.25,0,0,0,.05.19.21.21,0,0,0,.17.08h3.15l-4.83,6.18a.18.18,0,0,0,0,.09l-.12.57a.2.2,0,0,0,0,.18.23.23,0,0,0,.17.08h5.13a.22.22,0,0,0,.22-.17l.17-.79a.23.23,0,0,0-.22-.27h-3.53l4.8-6.19a.13.13,0,0,0,0-.09l.12-.56a.2.2,0,0,0,0-.18A.23.23,0,0,0,373.07,126.64Z"/><path class="cls-1" d="M381.54,126.64h-4.35a.22.22,0,0,0-.22.17l-1.58,7.9a.24.24,0,0,0,.05.18.21.21,0,0,0,.17.08h4.46a.21.21,0,0,0,.21-.18l.16-.79a.2.2,0,0,0,0-.18.23.23,0,0,0-.17-.08H377l.52-2.52h2.71a.22.22,0,0,0,.21-.18l.16-.79a.19.19,0,0,0,0-.18.21.21,0,0,0-.17-.09h-2.63l.42-2.11h3.24a.22.22,0,0,0,.22-.18l.16-.79a.24.24,0,0,0-.05-.18A.21.21,0,0,0,381.54,126.64Z"/><path class="cls-1" d="M391.1,126.64h-.9a.22.22,0,0,0-.22.17l-.84,4.19c-.1.53-.18,1.08-.25,1.63l-.24-.79-1.8-5.06a.22.22,0,0,0-.2-.14h-.94a.22.22,0,0,0-.22.17l-1.58,7.9a.24.24,0,0,0,0,.18.21.21,0,0,0,.17.08h.9a.22.22,0,0,0,.22-.18l.84-4.24c.1-.52.19-1.07.26-1.6l.25.83,1.79,5a.21.21,0,0,0,.2.15h.93a.21.21,0,0,0,.21-.18l1.58-7.89a.2.2,0,0,0,0-.18A.23.23,0,0,0,391.1,126.64Z"/><path class="cls-1" d="M403.16,126.49c-2.65,0-4.29,2.71-4.29,5.22,0,2.1,1.15,3.41,3,3.41a3.59,3.59,0,0,0,2.41-1,.21.21,0,0,0,0-.29l-.43-.61a.22.22,0,0,0-.32,0,2.32,2.32,0,0,1-1.53.66c-1.48,0-1.79-1.22-1.79-2.25,0-1.87,1.15-3.88,2.85-3.88a1.3,1.3,0,0,1,1.14.75.23.23,0,0,0,.15.1.21.21,0,0,0,.17,0l.66-.49a.22.22,0,0,0,.06-.29A2.43,2.43,0,0,0,403.16,126.49Z"/><path class="cls-1" d="M411,126.49c-2.43,0-4.06,2.64-4.06,5.1,0,2.18,1.13,3.53,2.94,3.53,2.44,0,4.07-2.64,4.07-5.1C414,127.84,412.84,126.49,411,126.49ZM410,133.87c-1.32,0-1.6-1.28-1.6-2.35,0-1.79,1.08-3.78,2.62-3.78,1.33,0,1.6,1.28,1.6,2.35C412.57,131.88,411.5,133.87,410,133.87Z"/><path class="cls-1" d="M420.78,126.64H419.7a.21.21,0,0,0-.19.11l-4.29,7.9a.2.2,0,0,0,0,.21.21.21,0,0,0,.19.11h1a.21.21,0,0,0,.2-.12l1.1-2.13h2.55l.2,2.05a.23.23,0,0,0,.22.2h1a.24.24,0,0,0,.17-.07.22.22,0,0,0,.05-.17l-.91-7.9A.22.22,0,0,0,420.78,126.64ZM420,128c0,.33.24,3.55.24,3.55h-1.84S419.66,128.62,420,128Z"/><path class="cls-1" d="M428.56,126.49a2.52,2.52,0,0,0-2.68,2.41,2.34,2.34,0,0,0,1.32,2l.92.55c.63.38.87.69.87,1.11a1.3,1.3,0,0,1-1.47,1.26,2.14,2.14,0,0,1-1.84-1,.24.24,0,0,0-.15-.09.21.21,0,0,0-.17,0l-.69.52a.23.23,0,0,0-.05.3,3.29,3.29,0,0,0,2.82,1.49,2.72,2.72,0,0,0,3-2.64,2.24,2.24,0,0,0-1.29-2l-.92-.54c-.61-.36-.92-.63-.92-1.09a1.13,1.13,0,0,1,1.21-1.06,2,2,0,0,1,1.53.78.19.19,0,0,0,.15.08.25.25,0,0,0,.17,0l.61-.56a.23.23,0,0,0,0-.3A3,3,0,0,0,428.56,126.49Z"/><path class="cls-1" d="M440.18,126.72a.23.23,0,0,0-.17-.08h-5.52a.22.22,0,0,0-.22.17l-.16.81a.2.2,0,0,0,.05.18.19.19,0,0,0,.17.08h2L435,134.71a.24.24,0,0,0,.05.18.21.21,0,0,0,.17.08h.94a.21.21,0,0,0,.21-.18l1.38-6.91h2.11a.21.21,0,0,0,.21-.17l.16-.81A.2.2,0,0,0,440.18,126.72Z"/></g></svg>