<svg xmlns="http://www.w3.org/2000/svg" viewBox="0 0 560 100"><defs><style>.cls-1{fill:#4d4d4d;}</style></defs><g id="レイヤー_1" data-name="レイヤー 1"><path class="cls-1" d="M48.37,15.87c-1,.61-2,1.19-3.3,1.8a93.32,93.32,0,0,0-8.25,4.52C34.06,24,32.21,26,32.21,28.31S34.5,32,39.14,32A56,56,0,0,0,50,30.8L50,35.62a60.67,60.67,0,0,1-10.71.85c-6.63,0-11.65-1.87-11.65-7.68,0-3.71,2.33-6.46,5.52-8.84-1.51-2.86-3.13-6.46-4.64-10l4.21-1.73a80.31,80.31,0,0,0,4.17,9.31c2.46-1.46,4.82-2.65,6.37-3.57a22,22,0,0,0,3.06-2Zm.51-8.29a49.84,49.84,0,0,1,2.69,4.65l-2.73,1.16a40.09,40.09,0,0,0-2.63-4.73Zm4-1.57a46.15,46.15,0,0,1,2.7,4.66l-2.66,1.15a37.21,37.21,0,0,0-2.73-4.69Z"/><path class="cls-1" d="M72.41,24.3a13.85,13.85,0,0,0-.58,3.4c0,2.14,2,3.71,6.84,3.71a46.66,46.66,0,0,0,11.72-1.33l0,4.73A50.64,50.64,0,0,1,78.84,36c-7.65,0-11.49-2.58-11.49-7.2A21.8,21.8,0,0,1,68,23.89ZM69.58,10a84.35,84.35,0,0,0,9.09.41c3.3,0,7.11-.2,9.67-.47v4.52c-2.33.17-6.47.4-9.64.4-3.5,0-6.39-.17-9.12-.37Z"/><path class="cls-1" d="M111.53,8.73a29.85,29.85,0,0,0-.81,3,84.46,84.46,0,0,0-1.61,12.34,16.53,16.53,0,0,0,.13,2.18c.47-1.19,1-2.31,1.48-3.4l2.09,1.63a83.37,83.37,0,0,0-2.39,8.26,10.21,10.21,0,0,0-.2,1.57c0,.37,0,.91.06,1.39l-3.84.27a43.51,43.51,0,0,1-1.31-11,94.2,94.2,0,0,1,1.38-13.33,24.39,24.39,0,0,0,.34-3.3Zm7.81,16.63a11.06,11.06,0,0,0-.4,2.82c0,1.49,1.28,2.38,4.65,2.38a38.27,38.27,0,0,0,8.35-.89l.1,4.56a45.79,45.79,0,0,1-8.62.68c-5.76,0-8.49-2.11-8.49-5.54A21.42,21.42,0,0,1,115.5,25ZM131,10.94v4.35a90.08,90.08,0,0,1-14.32,0l0-4.35A67.44,67.44,0,0,0,131,10.94Z"/><path class="cls-1" d="M146.68,11.25,161.09,10c3.44-.28,7.07-.48,9.43-.58l0,4.35a34,34,0,0,0-6.44.44,10.2,10.2,0,0,0-7,9.42c0,5.54,5.11,7.54,10.77,7.82l-1.55,4.65c-7-.44-13.6-4.25-13.6-11.55a13.4,13.4,0,0,1,4.91-10.37c-2.89.3-9.9,1-13.77,1.9l-.44-4.62C144.76,11.38,146,11.32,146.68,11.25Zm21.89,10.37L166,22.77a26,26,0,0,0-2.63-4.72L165.87,17A45.13,45.13,0,0,1,168.57,21.62ZM172.48,20,170,21.17a30.32,30.32,0,0,0-2.76-4.59l2.46-1.15A51.42,51.42,0,0,1,172.48,20Z"/><path class="cls-1" d="M207,19.75c2.22,2.85,3.23,5.23,3.23,8.09,0,5.06-4.51,8.73-11.82,8.73-5.25,0-9-2.31-9-7.92,0-.81.1-2,.24-3.4a36.35,36.35,0,0,1-6.4-1.12l.24-4.08a28.31,28.31,0,0,0,6.56,1.33c.21-1.5.37-3.06.58-4.59a41.88,41.88,0,0,1-6.64-1.19l.24-3.91A31.34,31.34,0,0,0,191.12,13c.14-1,.21-1.94.27-2.69a20.59,20.59,0,0,0,.07-3l4.68.27c-.27,1.23-.44,2.11-.57,3-.1.58-.2,1.46-.37,2.55a47.47,47.47,0,0,0,6.13-.41l-.14,4a60.22,60.22,0,0,1-6.5.3c-.2,1.5-.4,3.1-.57,4.59h.24a65,65,0,0,0,6.7-.41l-.1,4c-1.89.17-3.84.3-5.9.3h-1.34c-.07,1-.14,1.84-.14,2.45,0,2.75,1.69,4.28,5,4.28,4.64,0,7.2-2.14,7.2-4.93,0-2.27-1.28-4.45-3.43-6.52Z"/><path class="cls-1" d="M244.9,16a18,18,0,0,0-.61,1.73c3.87,1.3,6.43,4.32,6.43,8.27,0,4.72-2.79,9.38-11,10.6l-2.22-3.53c6.43-.72,9.06-4,9.06-7.28a5,5,0,0,0-3.44-4.72,26.1,26.1,0,0,1-7,10.19c.23.89.5,1.7.77,2.52L233,35c-.13-.41-.3-.89-.44-1.36A11.7,11.7,0,0,1,227.45,35c-2.46,0-4.51-1.5-4.51-4.93,0-4.29,3.54-8.84,8.18-11,.1-1.43.2-2.86.34-4.22h-1.08c-1.75,0-4.34-.13-5.89-.2l-.14-3.91a54.37,54.37,0,0,0,6.17.44h1.28l.2-1.8a13.74,13.74,0,0,0,.1-2l4.38.11a12.41,12.41,0,0,0-.47,1.8c-.14.54-.24,1.15-.34,1.8A55.63,55.63,0,0,0,247,9.58l0,3.88a95.81,95.81,0,0,1-11.86,1.22c-.1,1-.2,2-.23,3a21.84,21.84,0,0,1,5-.62h.57c.14-.68.27-1.53.31-2ZM231.76,29.78a47.84,47.84,0,0,1-.71-6.74c-2.49,1.7-4.17,4.29-4.17,6.19,0,1.05.47,1.63,1.55,1.63A7,7,0,0,0,231.76,29.78Zm3-8.44a40.56,40.56,0,0,0,.37,5.58,19.15,19.15,0,0,0,4.21-6.39,15.94,15.94,0,0,0-4.58.75Z"/><path class="cls-1" d="M285.16,11.35c-.8.51-1.58,1-2.32,1.53-1.78,1.26-5.29,4.25-7.37,5.95a11,11,0,0,1,3.13-.38c5.65,0,10,3.57,10,8.47,0,5.3-4,9.52-12.06,9.52-4.65,0-8.15-2.14-8.15-5.51,0-2.72,2.46-5.23,6-5.23,4.11,0,6.61,2.55,7.11,5.74a4.91,4.91,0,0,0,2.73-4.59c0-3-3-5.06-6.91-5.06-5.11,0-8.45,2.75-12,6.83l-3-3.16c2.36-1.94,6.37-5.37,8.35-7s5.32-4.38,7-5.84c-1.71,0-6.29.23-8.05.37a22.16,22.16,0,0,0-2.72.27l-.14-4.38c.95.1,2.09.17,3,.17,1.75,0,8.89-.17,10.78-.34A15.89,15.89,0,0,0,283,8.36Zm-7.54,21.18c-.2-2.18-1.45-3.61-3.27-3.61-1.24,0-2.05.75-2.05,1.6,0,1.26,1.41,2.11,3.37,2.11A17,17,0,0,0,277.62,32.53Z"/><path class="cls-1" d="M307.11,37a63,63,0,0,0-7.24-7.52l3.5-3.06a63.51,63.51,0,0,1,7.35,7.45Z"/><path class="cls-1" d="M332.47,26.38c1.21.85,4,3.09,4.78,3.7L334.92,33a32.47,32.47,0,0,0-2.45-2.65v7.24h-3.88V30.73a24.14,24.14,0,0,1-4.27,4.79,15.39,15.39,0,0,0-2.6-2.86,22.05,22.05,0,0,0,6.06-6.56h-5.11V22.7h5.92V20.09h-6V16.75h3.1a15.42,15.42,0,0,0-1-3.74l2.06-.47h-3.77V9.24h5.65V6.15h3.88V9.24h5.59v3.3h-3.47l2,.37c-.61,1.46-1.14,2.82-1.62,3.84h3.41v3.34h-5.86V22.7H338v3.4h-5.55Zm-4.65-13.84A13.35,13.35,0,0,1,329,16.28l-1.68.47h6.6l-2.22-.47a26.88,26.88,0,0,0,1.24-3.74Zm25.79,8.26h-3.2V37.42h-3.87V20.8h-3.43c0,5.07-.74,12.24-5.19,16.9a9.19,9.19,0,0,0-2.86-2.76c3.87-4.14,4.28-9.92,4.28-14.62V8.53l2.35.68a39.74,39.74,0,0,0,8.56-3l3.2,3a54.33,54.33,0,0,1-10.34,3.13v4.76h10.5Z"/><path class="cls-1" d="M373,7.81a33.59,33.59,0,0,0-.44,4.49c-.17,3.6-.4,11.15-.4,15.33,0,3.4,2,4.49,4.58,4.49,5.52,0,9-3.2,11.41-6.87l3,3.78a17.32,17.32,0,0,1-14.48,7.68c-5.45,0-9-2.41-9-8.16,0-4.52.34-13.36.34-16.25a21.42,21.42,0,0,0-.44-4.55Z"/><path class="cls-1" d="M408.29,14.54c0,2.18,0,4.73.2,7.14.47,4.87,1.48,8.16,3.57,8.16,1.58,0,2.9-3.94,3.54-6.59L419,27.33c-2.22,5.84-4.31,7.92-7,7.92-3.64,0-6.84-3.33-7.78-12.38-.3-3.09-.37-7-.37-9.07a18.9,18.9,0,0,0-.24-3.4l5.12.06A27.74,27.74,0,0,0,408.29,14.54Zm23.17,13.84-4.41,1.7c-.51-5.4-2.29-13.33-5.93-17.47l4.24-1.43C428.53,15.09,431.09,23.21,431.46,28.38Z"/><path class="cls-1" d="M445.79,21.58a21.93,21.93,0,0,0-5.42-3.47l2.19-3a21.41,21.41,0,0,1,5.59,3.2ZM441,35.08a102,102,0,0,0,4.92-11l3.19,2.24c-1.31,3.64-3,7.62-4.51,11Zm6.36-22.41a22.12,22.12,0,0,0-5.49-3.6l2.29-3a24.48,24.48,0,0,1,5.63,3.33Zm22,13.2c-.06,1.36-.16,2.51-.26,3.57h2.66v3.39h-3.1a7.6,7.6,0,0,1-1,3.1,3.42,3.42,0,0,1-2.7,1.53,23.14,23.14,0,0,1-4.24.1,7.73,7.73,0,0,0-1-3.3c1.45.1,2.76.14,3.44.14a1.3,1.3,0,0,0,1.24-.55,3.35,3.35,0,0,0,.44-1H454.69l-.27,1.67-3.84-.31c.43-2.27.94-5.2,1.38-8.32h-2.9V22.23h3.37c.23-1.87.44-3.74.61-5.48-.41.55-.81,1-1.22,1.5a18,18,0,0,0-3.36-2.31,23.36,23.36,0,0,0,5.35-10.06l3.94.81c-.3,1-.64,2-1,3h14.65v3.6H455.12a23.46,23.46,0,0,1-1.31,2.24h16s0,1.16,0,1.64c-.06,1.83-.13,3.5-.23,5h2.56v3.64Zm-13.67,0c-.17,1.22-.33,2.41-.47,3.57h3.17c.13-1.09.27-2.32.4-3.57Zm.44-3.64h3c.07-1.09.17-2.18.24-3.23h-2.9Zm9.26,7.21q.15-1.49.3-3.57H462.2c-.14,1.25-.27,2.48-.41,3.57Zm.51-7.21c0-1,.1-2.08.13-3.23h-3.2c-.07,1.05-.17,2.14-.27,3.23Z"/><path class="cls-1" d="M488,29.74c1.38,2.28,3.9,3.2,7.4,3.33,3.95.17,11.52.07,16-.27a21.61,21.61,0,0,0-1.25,4.08c-4,.2-10.8.27-14.81.1s-6.91-1.12-9.1-3.77c-1.48,1.32-3,2.65-4.78,4.08l-2-4.22a47.39,47.39,0,0,0,4.58-3.13V22.77h-3.87v-3.7H488Zm-2.33-15.26a25.1,25.1,0,0,0-5.42-5.37l3-2.45a27.23,27.23,0,0,1,5.63,5.13Zm13.84-2.55c-.43,8-1.61,15.3-8,19.68a10.78,10.78,0,0,0-2.62-3c5.48-3.64,6.26-9.83,6.56-16.66h-6V8.12H509V9.89c-.3,13.22-.6,17.91-1.68,19.44a3.67,3.67,0,0,1-2.8,1.7,25.61,25.61,0,0,1-4.48.14,9.14,9.14,0,0,0-1.17-3.77c1.58.13,3,.13,3.7.13a1.29,1.29,0,0,0,1.21-.54c.68-.89,1-4.86,1.18-15.06Z"/><path class="cls-1" d="M530,31.75a5.44,5.44,0,1,1-5.45-5.51A5.47,5.47,0,0,1,530,31.75Zm-2.42,0a3,3,0,1,0-3,3A3,3,0,0,0,527.58,31.75Z"/><path class="cls-1" d="M157.66,74.46h17.91V89.83H171.7v-1.3H161.33v1.33h-3.67V77.28l-1.58,2.18c-.58-.82-1.59-2-2.56-3.13v13.6h-3.94V78.64a25.32,25.32,0,0,1-3.41,2.82,15.37,15.37,0,0,0-1.85-3.84,25.08,25.08,0,0,0,8.56-9.52h-7.31V64.46h4V58.21h3.94v6.25h1.38l.7-.17,2.19,1.43a33.19,33.19,0,0,1-3.43,7c.91.72,2.36,2,3.3,2.82Zm18-14.89V63H157.46v-3.4Zm-1.58,4.86v8.5H159.31v-8.5ZM161.33,77.69v2.24h3.33V77.69Zm0,7.58h3.33V83h-3.33Zm9.06-17.81h-7.55V69.9h7.55Zm1.31,10.23h-3.47v2.24h3.47Zm0,7.58V83h-3.47v2.31Z"/><path class="cls-1" d="M215.2,79.32h-7V90h-4.28V79.32h-8.08A16.62,16.62,0,0,1,189,90.23a15.77,15.77,0,0,0-3.6-3,13.84,13.84,0,0,0,6-8H185V75.21h7.14c.1-1.33.14-2.65.14-4V68.71h-6.3V64.63h6.3V58.31h4.24v6.32h7.44V58.24h4.28v6.39h6.13v4.08H208.2v6.5h7Zm-11.28-4.11v-6.5h-7.44v2.52c0,1.33,0,2.65-.1,4Z"/><path class="cls-1" d="M241.43,66.4V70H252V81.46c0,1.94-.41,3.1-1.79,3.71s-3.33.68-6,.68a14.41,14.41,0,0,0-1.35-4c1.69.07,3.67.07,4.21.07s.71-.17.71-.55V73.92h-6.43V90h-4.18v-16h-5.89V85.85h-4V70h9.93V66.4h-13.1V62.46h13.07V58h4.28v4.42h13.36V66.4Z"/><path class="cls-1" d="M273.48,84.15a21.51,21.51,0,0,0,7.74,1c2.4,0,10.85,0,13.71-.1a13.64,13.64,0,0,0-1.55,4H281.19c-6.63,0-11-.91-13.84-5.33a20,20,0,0,1-2.29,6.12,8.39,8.39,0,0,0-2.59-2.45c2.15-3.84,2.35-9.11,2.19-13.7l3.36.2c0,1.29,0,2.62,0,4a12.09,12.09,0,0,0,1.86,3.63V71.71h-6.5V68.17h5.82V65.31h-4.68V61.78h4.68V58.21h3.67v3.57h4.55v3.53h-4.55v2.86h5.05v3.54h-4.44v3.77h4V79h-4Zm5.22-20.57h5.72c-.06-1.77-.13-3.57-.16-5.37H288c0,1.8,0,3.6.1,5.37h3a19.85,19.85,0,0,0-2.6-3.81l2.7-1.42a21.1,21.1,0,0,1,2.9,3.91l-2.4,1.32h2.77V67h-6.17c.17,2.34.44,4.52.74,6.42a29.39,29.39,0,0,0,2-5.06l3.07.81a34.62,34.62,0,0,1-4,9.08c.51,1.46,1,2.31,1.55,2.31s.74-1.32.84-4.25a8.22,8.22,0,0,0,2.73,2c-.54,4.69-1.55,6-4,6-1.42,0-2.6-1-3.51-2.79a19.58,19.58,0,0,1-3.57,3.23,13.91,13.91,0,0,0-2.35-2.78,18.05,18.05,0,0,0,4.51-4.18A58,58,0,0,1,284.66,67h-2.42v9.28l2.32-1.4,1.11,2.89c-2.63,1.81-5.49,3.74-7.88,5.24l-1.68-3.23c.74-.37,1.61-.88,2.59-1.43Z"/><path class="cls-1" d="M333.45,63.21v3.63H303V63.21h7.17a22.32,22.32,0,0,0-2.52-3.74l3.8-1.33a18.83,18.83,0,0,1,3.14,4.42l-1.86.65h9.37a39.06,39.06,0,0,0,2.76-5.14l4.34,1.3c-.81,1.32-1.72,2.65-2.56,3.84ZM318.13,85.92c0,1.73-.34,2.68-1.49,3.26s-2.62.65-4.68.65a13.86,13.86,0,0,0-1.28-3.44c1.25.07,2.6.07,3,0s.54-.14.54-.55v-3h-5.62v6.86h-3.81V69.19h13.31Zm-9.5-13.33V74.7h5.62V72.59Zm5.62,7.31V77.69h-5.62V79.9Zm10.44,3.5H321V69.53h3.67Zm3-14.82h3.94V85.47c0,2-.37,3-1.71,3.64s-3.1.72-5.53.68A14.13,14.13,0,0,0,323,86c1.72.07,3.47.07,4,0s.7-.14.7-.61Z"/><path class="cls-1" d="M347.31,73.88a21.93,21.93,0,0,0-5.42-3.47l2.19-3a21.41,21.41,0,0,1,5.59,3.2Zm-4.81,13.5a100.15,100.15,0,0,0,4.91-11l3.2,2.24c-1.31,3.64-3,7.62-4.51,11ZM348.86,65a22.12,22.12,0,0,0-5.49-3.6l2.29-3a24.48,24.48,0,0,1,5.63,3.33Zm22,13.2c-.06,1.36-.16,2.51-.27,3.57h2.67v3.39h-3.1a7.6,7.6,0,0,1-1,3.1,3.42,3.42,0,0,1-2.7,1.53,23.14,23.14,0,0,1-4.24.1,7.73,7.73,0,0,0-1-3.3c1.45.1,2.76.14,3.44.14a1.3,1.3,0,0,0,1.24-.55,3.35,3.35,0,0,0,.44-1H356.21l-.27,1.67-3.84-.31c.43-2.27.94-5.2,1.38-8.32h-2.9V74.53H354c.23-1.87.44-3.74.6-5.48-.4.55-.8,1-1.21,1.5A18.07,18.07,0,0,0,350,68.24a23.27,23.27,0,0,0,5.36-10.06l3.94.81c-.3,1-.64,2-1,3h14.65v3.6H356.64a23.46,23.46,0,0,1-1.31,2.24h16s0,1.16,0,1.64c-.07,1.83-.13,3.5-.23,5h2.56v3.64Zm-13.67,0c-.17,1.22-.34,2.41-.47,3.57h3.17c.13-1.09.27-2.32.4-3.57Zm.44-3.64h3c.07-1.09.17-2.18.24-3.23H358Zm9.26,7.21q.15-1.48.3-3.57h-3.47c-.13,1.25-.26,2.48-.4,3.57Zm.51-7.21c0-1,.1-2.08.13-3.23h-3.2c-.07,1-.17,2.14-.27,3.23Z"/><path class="cls-1" d="M388.09,72.39v2.85c0,4.29-.61,10.47-3.84,14.31A14.29,14.29,0,0,0,381,86.94c2.79-3.4,3.06-8.2,3.06-11.77V68.85h27.75v3.54Zm22.19-5.48h-26.1V59.4h4v3.91h6.7V58.18h4.25v5.13H406V59.4h4.24Zm2,16.8H402.4v6.22h-4.24V83.71h-9.5V80.17h9.5V77.62h-8.05v-3.4h20.68v3.4H402.4v2.55h9.87Z"/></g></svg>