<svg xmlns="http://www.w3.org/2000/svg" viewBox="0 0 800 40"><defs><style>.cls-1{fill:#00bef1;}</style></defs><g id="レイヤー_1" data-name="レイヤー 1"><path class="cls-1" d="M41.05,22.4a1.42,1.42,0,0,0-2,0v0a17.51,17.51,0,0,1-12.4,5.13,17.33,17.33,0,0,1-6.83-1.38,17.65,17.65,0,0,1-9.34-9.33c-.64-1.52-1-2.77,1.59-3.91S15.33,13,16,14.52a11.71,11.71,0,0,0,6.16,6.16A11.57,11.57,0,0,0,34.82,18.2a11.74,11.74,0,0,0,2.49-3.68,2.86,2.86,0,0,1,5.49,0A11.6,11.6,0,0,0,49,20.68a11.61,11.61,0,0,0,9,0,11.72,11.72,0,0,0,6.17-6.16c.64-1.52,1.22-2.72,3.9-1.59,3.25,1.37,1.76,3.85.44,6a17.83,17.83,0,0,1-8.28,7.27,17.54,17.54,0,0,1-19.14-3.8Z"/><path class="cls-1" d="M120.89,22.4a1.42,1.42,0,0,0-2,0l0,0a17.56,17.56,0,0,1-19.23,3.75,17.6,17.6,0,0,1-9.33-9.33c-.64-1.52-1-2.77,1.58-3.91s3.27.07,3.91,1.59A11.72,11.72,0,0,0,102,20.68a11.61,11.61,0,0,0,9,0,11.6,11.6,0,0,0,6.16-6.16,2.86,2.86,0,0,1,5.49,0,11.74,11.74,0,0,0,2.49,3.68,11.59,11.59,0,0,0,12.69,2.48A11.74,11.74,0,0,0,144,14.52c.64-1.52,1.22-2.72,3.91-1.59,3.25,1.37,1.76,3.85.44,6A17.83,17.83,0,0,1,140,26.21a17.61,17.61,0,0,1-13.57,0,17.24,17.24,0,0,1-5.57-3.76Z"/><path class="cls-1" d="M200.72,22.4a1.42,1.42,0,0,0-2,0v0a17.56,17.56,0,0,1-12.41,5.13,17.32,17.32,0,0,1-6.82-1.38,17.65,17.65,0,0,1-9.34-9.33c-.64-1.52-1-2.77,1.59-3.91s3.27.07,3.91,1.59a11.67,11.67,0,0,0,6.16,6.16A11.58,11.58,0,0,0,197,14.52a2.86,2.86,0,0,1,5.5,0A11.71,11.71,0,0,0,205,18.2a11.59,11.59,0,0,0,12.69,2.48,11.67,11.67,0,0,0,6.16-6.16c.64-1.52,1.23-2.72,3.91-1.59,3.25,1.37,1.76,3.85.44,6a17.83,17.83,0,0,1-8.28,7.27,17.58,17.58,0,0,1-13.56,0,17.28,17.28,0,0,1-5.58-3.76Z"/><path class="cls-1" d="M280.55,22.4a1.42,1.42,0,0,0-2,0v0a17.56,17.56,0,0,1-19.23,3.75A17.6,17.6,0,0,1,250,16.84c-.65-1.52-1-2.77,1.58-3.91s3.27.07,3.91,1.59a11.74,11.74,0,0,0,6.16,6.16,11.57,11.57,0,0,0,12.69-2.48,11.74,11.74,0,0,0,2.49-3.68,2.86,2.86,0,0,1,5.49,0,11.6,11.6,0,0,0,6.16,6.16,11.61,11.61,0,0,0,9,0,11.72,11.72,0,0,0,6.17-6.16c.64-1.52,1.22-2.72,3.91-1.59,3.25,1.37,1.75,3.85.43,6a17.76,17.76,0,0,1-8.27,7.27A17.47,17.47,0,0,1,293,27.55a17.47,17.47,0,0,1-12.4-5.14Z"/><path class="cls-1" d="M360.39,22.4a1.42,1.42,0,0,0-2,0v0a17.58,17.58,0,0,1-19.24,3.75,17.67,17.67,0,0,1-9.33-9.33c-.64-1.52-1-2.77,1.59-3.91s3.26.07,3.9,1.59a11.72,11.72,0,0,0,6.17,6.16,11.57,11.57,0,0,0,12.69-2.48,11.71,11.71,0,0,0,2.48-3.68,2.86,2.86,0,0,1,5.5,0,11.59,11.59,0,0,0,15.17,6.16,11.71,11.71,0,0,0,6.16-6.16c.64-1.52,1.23-2.72,3.91-1.59,3.25,1.37,1.76,3.85.44,6a17.83,17.83,0,0,1-8.28,7.27,17.52,17.52,0,0,1-19.14-3.8Z"/><path class="cls-1" d="M440.22,22.4a1.42,1.42,0,0,0-2,0v0a17.51,17.51,0,0,1-12.4,5.13A17.33,17.33,0,0,1,419,26.17a17.65,17.65,0,0,1-9.34-9.33c-.64-1.52-1-2.77,1.59-3.91s3.27.07,3.91,1.59a11.71,11.71,0,0,0,6.16,6.16,11.58,11.58,0,0,0,15.17-6.16,2.86,2.86,0,0,1,5.5,0,11.6,11.6,0,0,0,6.16,6.16,11.61,11.61,0,0,0,9,0,11.72,11.72,0,0,0,6.17-6.16c.64-1.52,1.22-2.72,3.9-1.59,3.25,1.37,1.76,3.85.44,6a17.83,17.83,0,0,1-8.28,7.27,17.54,17.54,0,0,1-19.14-3.8Z"/><path class="cls-1" d="M520.06,22.4a1.42,1.42,0,0,0-2,0l0,0a17.56,17.56,0,0,1-19.23,3.75,17.6,17.6,0,0,1-9.33-9.33c-.64-1.52-1-2.77,1.58-3.91s3.27.07,3.91,1.59a11.74,11.74,0,0,0,6.16,6.16,11.59,11.59,0,0,0,15.18-6.16,2.86,2.86,0,0,1,5.49,0,11.74,11.74,0,0,0,2.49,3.68,11.55,11.55,0,0,0,8.18,3.39,11.61,11.61,0,0,0,4.51-.91,11.74,11.74,0,0,0,6.16-6.16c.64-1.52,1.22-2.72,3.91-1.59,3.25,1.37,1.76,3.85.43,6a17.76,17.76,0,0,1-8.27,7.27,17.61,17.61,0,0,1-13.57,0,17.24,17.24,0,0,1-5.57-3.76Z"/><path class="cls-1" d="M599.89,22.4a1.42,1.42,0,0,0-2,0v0a17.56,17.56,0,0,1-12.41,5.13,17.32,17.32,0,0,1-6.82-1.38,17.65,17.65,0,0,1-9.34-9.33c-.64-1.52-1-2.77,1.59-3.91s3.26.07,3.91,1.59A11.67,11.67,0,0,0,581,20.68a11.57,11.57,0,0,0,12.69-2.48,11.71,11.71,0,0,0,2.48-3.68,2.86,2.86,0,0,1,5.5,0,11.59,11.59,0,0,0,15.17,6.16A11.67,11.67,0,0,0,623,14.52c.64-1.52,1.23-2.72,3.91-1.59,3.25,1.37,1.76,3.85.44,6A17.83,17.83,0,0,1,619,26.21a17.58,17.58,0,0,1-13.56,0,17.28,17.28,0,0,1-5.58-3.76Z"/><path class="cls-1" d="M679.72,22.4a1.42,1.42,0,0,0-2,0v0a17.56,17.56,0,0,1-19.23,3.75,17.6,17.6,0,0,1-9.33-9.33c-.65-1.52-1-2.77,1.58-3.91s3.27.07,3.91,1.59a11.74,11.74,0,0,0,6.16,6.16,11.57,11.57,0,0,0,12.69-2.48A11.74,11.74,0,0,0,676,14.52a2.86,2.86,0,0,1,5.49,0,11.6,11.6,0,0,0,6.16,6.16,11.61,11.61,0,0,0,9,0,11.72,11.72,0,0,0,6.17-6.16c.64-1.52,1.22-2.72,3.91-1.59,3.25,1.37,1.75,3.85.43,6a17.76,17.76,0,0,1-8.27,7.27,17.47,17.47,0,0,1-6.74,1.34,17.51,17.51,0,0,1-12.41-5.14Z"/><path class="cls-1" d="M759.56,22.4a1.42,1.42,0,0,0-2,0v0a17.58,17.58,0,0,1-19.24,3.75A17.67,17.67,0,0,1,729,16.84c-.64-1.52-1-2.77,1.59-3.91s3.26.07,3.9,1.59a11.72,11.72,0,0,0,6.17,6.16,11.57,11.57,0,0,0,12.69-2.48,11.71,11.71,0,0,0,2.48-3.68,2.86,2.86,0,0,1,5.49,0,11.74,11.74,0,0,0,2.49,3.68,11.59,11.59,0,0,0,12.69,2.48,11.71,11.71,0,0,0,6.16-6.16c.64-1.52,1.23-2.72,3.91-1.59,3.25,1.37,1.76,3.85.44,6a17.83,17.83,0,0,1-8.28,7.27,17.61,17.61,0,0,1-13.57,0,17.24,17.24,0,0,1-5.57-3.76Z"/></g></svg>