<svg xmlns="http://www.w3.org/2000/svg" viewBox="0 0 35 35"><defs><style>.cls-1{fill:#fff;fill-rule:evenodd;}</style></defs><g id="レイヤー_1" data-name="レイヤー 1"><path class="cls-1" d="M32.89,17.49c0,2.08,0,4.17-.07,6.25a10.1,10.1,0,0,1-1.32,5.09,7.69,7.69,0,0,1-5.43,3.71,27.6,27.6,0,0,1-4.26.34c-3.06,0-6.12,0-9.18,0a15.11,15.11,0,0,1-4.77-.61,7.73,7.73,0,0,1-5.39-6.22,24.17,24.17,0,0,1-.35-4.26c-.05-3.05,0-6.1,0-9.14a15.1,15.1,0,0,1,.6-4.77A7.74,7.74,0,0,1,8.93,2.47a24.25,24.25,0,0,1,4.26-.35c3.06-.05,6.12,0,9.18,0a14.76,14.76,0,0,1,4.76.6A7.74,7.74,0,0,1,32.53,9a30.1,30.1,0,0,1,.35,4.26c.06,1.42,0,2.85,0,4.28Zm-2.77-.24h0c0-1.21,0-2.43,0-3.64s-.08-2.34-.2-3.5a5.16,5.16,0,0,0-4.37-4.89,24.06,24.06,0,0,0-4.16-.32q-3.89-.08-7.77,0a28.61,28.61,0,0,0-3.93.26A5,5,0,0,0,5.31,9,9.59,9.59,0,0,0,5,11.19c-.06,2.79-.1,5.58-.09,8.37,0,1.77,0,3.55.2,5.32a5.17,5.17,0,0,0,4.45,4.93,25.46,25.46,0,0,0,4.1.29c2.57,0,5.15,0,7.73,0,1.18,0,2.36-.08,3.53-.2a5.63,5.63,0,0,0,3-1.16A5.74,5.74,0,0,0,30,24.3C30.09,22,30.05,19.6,30.12,17.25Z"/><path class="cls-1" d="M25.41,17.52a7.91,7.91,0,1,1-7.82-7.93A7.88,7.88,0,0,1,25.41,17.52Zm-2.78,0a5.13,5.13,0,1,0-5.16,5.1A5.15,5.15,0,0,0,22.63,17.53Z"/><path class="cls-1" d="M25.75,7.43a1.82,1.82,0,0,1,1.82,1.88,1.86,1.86,0,1,1-1.82-1.88Z"/></g></svg>