<svg xmlns="http://www.w3.org/2000/svg" viewBox="0 0 35 35"><defs><style>.cls-1{fill:#fff;}</style></defs><g id="レイヤー_1" data-name="レイヤー 1"><path class="cls-1" d="M32.88,13.22A30.36,30.36,0,0,0,32.53,9a7.73,7.73,0,0,0-5.4-6.21,15,15,0,0,0-4.76-.61c-3.06,0-6.12,0-9.18,0a24.25,24.25,0,0,0-4.26.35A7.74,7.74,0,0,0,2.72,7.89a15.1,15.1,0,0,0-.6,4.77c0,3-.05,6.09,0,9.14a24.25,24.25,0,0,0,.35,4.26,7.73,7.73,0,0,0,5.39,6.22,14.82,14.82,0,0,0,4.77.6l2.09,0V21h-4V16.33h4V12.9c0-4,2.43-6.15,6-6.15a31.24,31.24,0,0,1,3.59.19V11.1H21.83c-1.93,0-2.3.92-2.3,2.26v3h4.6L23.53,21h-4V32.9h2.28a27.61,27.61,0,0,0,4.26-.35,7.65,7.65,0,0,0,5.43-3.7,10.11,10.11,0,0,0,1.32-5.1c.06-2.08,0-4.16.07-6.24h0C32.89,16.07,32.94,14.64,32.88,13.22Z"/></g></svg>