<svg xmlns="http://www.w3.org/2000/svg" viewBox="0 0 240 30"><defs><style>.cls-1{fill:#00a3df;stroke:#00a3df;stroke-linecap:round;stroke-linejoin:round;stroke-width:0.93px;}</style></defs><g id="レイヤー_1" data-name="レイヤー 1"><path class="cls-1" d="M15.12,7h4.67C22.9,7,25,8.18,25,11.05c0,4.07-3,5.87-7.25,5.87H15.09l-1.32,6.66h-2Zm2.7,8.33c3.42,0,5.22-1.38,5.22-4,0-1.92-1.31-2.72-3.74-2.72H16.75l-1.33,6.74Z"/><path class="cls-1" d="M34.18,7h2l-3,14.92h7l-.34,1.66H30.87Z"/><path class="cls-1" d="M54.48,7h2.26l1.92,16.58h-2l-.86-9.52c-.15-1.76-.32-3.51-.45-5.4h-.1c-.88,1.91-1.73,3.58-2.66,5.4l-4.89,9.52H45.48ZM49.9,16.87h7.27l-.35,1.53H49.51Z"/><path class="cls-1" d="M69.68,17.1,67,7h2l1.13,4.77c.29,1.23.53,2.34.83,3.61h.09c.76-1.24,1.48-2.41,2.27-3.63L76.46,7h2.11L71.65,17.1l-1.31,6.48h-2Z"/></g></svg>