<svg xmlns="http://www.w3.org/2000/svg" viewBox="0 0 240 160"><defs><style>.cls-1{fill:#4d4d4d;}</style></defs><g id="レイヤー_1" data-name="レイヤー 1"><path class="cls-1" d="M38,105.38a1.93,1.93,0,0,1,.34,0c11.65,2.18,23.35.6,35,.56a11.37,11.37,0,0,1,3.7.33c4.65,1.59,9.29,2.69,14.17,1a2.52,2.52,0,0,1,1.66.14c3.87,1.73,7.64.54,11.53.41a30.64,30.64,0,0,0,11.81-2.62c1.54-.67,3.32.25,4.84,1.06,1.32.7,2.74,1.42,4.19,1,7.23-2,14.88-.19,22.08-2.58a12,12,0,0,1,8,.35,7.57,7.57,0,0,0,4,.6c6.55-1.52,12.77.65,19.12,1.41.79.1,1.68.12,1.78,1.16s-.7,1.31-1.46,1.62c-2.48,1-4.94.34-7.3-.33a20.52,20.52,0,0,0-9.69-.57c-2,.38-4.2.67-6-.15-3.59-1.6-7.11-1.11-10.61-.18a35.23,35.23,0,0,1-11,1.1,17.56,17.56,0,0,0-6.36.68,9.09,9.09,0,0,1-7.54-.72,5.11,5.11,0,0,0-6,.13c-2.53,1.71-5.26,2.64-8.26,1-1-.59-2,0-2.86.49a8.26,8.26,0,0,1-8.41,0,7.22,7.22,0,0,0-6.2-.43,8.75,8.75,0,0,1-6,.26c-8.92-3.58-18-1.75-27.08-1.09a14.87,14.87,0,0,1-3.71,0,117.18,117.18,0,0,0-19.5-2c-1.11,0-2.93.28-2.72-1.6.16-1.46,1.72-1.1,2.81-1.11,1.92,0,3.84,0,5.76,0Z"/><path class="cls-1" d="M96.74,56.56c4-.36,7.86.42,11.78.77,3.53.32,5.19,2.29,4.24,5.68a5.53,5.53,0,0,0,.57,4.38c2.19,4.52,2.86,9.3.8,14-.77,1.76-.41,2.55,1.05,3.55,4.51,3.08,6.88,7.64,8.35,12.74.37,1.29.89,2.94-.9,3.43-1.53.43-2-1.08-2.39-2.28-1.62-5.66-4.46-10.3-10.08-12.85-2-.89-1.16-2.39-.29-3.67,2.65-3.95,2.19-8.15.92-12.36-.65-2.15-1.88-3.16-4.53-2.82-5.46.7-11-.26-16.51.16-3.79.29-4.28,2.38-4.57,4.84-.54,4.65-.06,9.18,2.48,13.37,1.7,2.78,1,4.21-2,4.89-5.64,1.29-8.7,4.69-9.4,10.36-.14,1.11.38,3-1.28,3s-1.85-2-1.9-3.46c-.16-4.59,4-10.68,8.83-12.16,2.68-.83,2.45-1.57,1.52-3.86-2.4-5.85-2.54-11.85.65-17.6a4,4,0,0,0,.71-2.48c-.32-5.38,1.49-7.35,6.91-7.65C93.36,56.48,95.05,56.56,96.74,56.56ZM98,64.45v-.12c1.8.09,3.6.22,5.4.23a11.16,11.16,0,0,0,5.57-1.1,1.68,1.68,0,0,0,1-1.93,1.53,1.53,0,0,0-1.48-1.14,86.56,86.56,0,0,0-17.84-.68c-1.62.12-3,.89-3,2.59,0,1.94,1.85,2,3.25,2.11C93.23,64.54,95.6,64.45,98,64.45Z"/><path class="cls-1" d="M82.49,121.84c-4.59-1.82-10,.52-15.2-.85-2.15-.57-4.2.44-6.22,1.19-2.81,1-5.64,1.59-8.56.4-.86-.35-1.84-.75-1.66-1.82s1.35-1.13,2.2-.88c3.27.94,6.21-.12,9.19-1.25a6.46,6.46,0,0,1,3.25-.75c5.25,1.06,10.57-.53,15.78.6,2.28.5,4.49-.38,6.73-.11,1.19.15,2.86.25,2.82,1.81s-1.65,1.09-2.71,1.18Z"/><path class="cls-1" d="M130.57,117.58c4.69.21,9.4.25,14.06.66a112.35,112.35,0,0,0,11.74.53c.93,0,2.35-.07,2.38,1.26s-1.39,1.14-2.33,1.24c-7.63.78-15.21.12-22.79-.72-1.78-.2-3.59,0-5.39-.09-1.11,0-2.56-.07-2.56-1.54s1.39-1.47,2.54-1.45C129,117.49,129.78,117.54,130.57,117.58Z"/><path class="cls-1" d="M78.29,37.19c0,3.48-1.46,6.06-2.81,8.68C74,48.69,72.34,51.44,75,54.58c1,1.16-.16,1.63-1.15,1.52-2.46-.28-3.42-2-3.62-4.23a12.2,12.2,0,0,1,2.24-7.68c2.54-4,4.11-7.9-.07-11.86a1.3,1.3,0,0,1-.06-2.08c.75-.65,1.52-.28,2.18.16A8.25,8.25,0,0,1,78.29,37.19Z"/><path class="cls-1" d="M124.42,48a16,16,0,0,1,2-6.75c1.53-2.84,1.85-5.53-.73-8-.75-.73-1.35-1.69-.44-2.67s1.85-.32,2.72.25c2.86,1.88,4.07,6.16,2.44,10.06s-3.86,7.51-1.75,11.89a1.3,1.3,0,0,1-.42,1.13c-.49.4-1.07.16-1.55-.19C124.78,52.25,124.3,50.24,124.42,48Z"/><path class="cls-1" d="M96.76,35.24c.13,2.39-1,4.36-2.21,6.26-1.58,2.46-2.5,4.87.07,7.27.41.38.87.86.45,1.43s-1,.36-1.56.2a5,5,0,0,1-3.84-4.6,8.49,8.49,0,0,1,1.86-6C93.6,37,94,34.11,92.15,31c-.55-.91-1.42-2.15-.07-3s2.27.41,2.87,1.49C95.93,31.29,96.87,33.11,96.76,35.24Z"/><path class="cls-1" d="M113.47,35.23a12.89,12.89,0,0,1-1.53,6.24c-1.18,2.21-2.41,4.37-1,7a1.31,1.31,0,0,1-.06,1.21c-.49.5-1,.12-1.44-.27A6,6,0,0,1,108,41.71c1.79-3.47,2.65-6.88,1.44-10.69-.3-.95-.41-2.22.92-2.49s1.74.88,2,1.86C112.87,32.23,113.22,34.1,113.47,35.23Z"/><path class="cls-1" d="M121,127.1c-1.81-.64-3.67-.11-5.52.38-3.87,1-7.26-2.11-11.21-1.24-1,.22-.75-1.44.09-1.95a5.37,5.37,0,0,1,4.86-.74,13.91,13.91,0,0,0,9.22.49,7.56,7.56,0,0,1,3.31.41c.84.19,2,.41,1.84,1.57C123.36,127.41,122.09,127.07,121,127.1Z"/></g></svg>