<svg xmlns="http://www.w3.org/2000/svg" viewBox="0 0 240 160"><defs><style>.cls-1{opacity:0.3;}.cls-2{fill:#a1cf85;}.cls-3{fill:#ea5e4c;}.cls-4{fill:#f7b52c;}.cls-5{fill:#5cc4eb;}.cls-6{fill:#4d4d4d;}</style></defs><g id="レイヤー_1" data-name="レイヤー 1"><g class="cls-1"><path class="cls-2" d="M201,87.69c-1.31-.78-3.33-.6-4.43-1.51-1.44-1.2-1.08-3.94-.59-5.47a60.84,60.84,0,0,0,2.56-24.16c-.14-1.49-.28-3.17.69-4.31a1,1,0,0,1,.46-.31,1,1,0,0,1,.59.14l2.59,1.22a11.5,11.5,0,0,1,2.52,1.46A9.57,9.57,0,0,1,207.28,57c4.91,7.55,6.17,17.05,5.07,26-.4,3.24-1.14,6.55-3.07,9.17-.66.9-1.65,1.77-2.75,1.57s-1.64-1.23-2.15-2.14A10,10,0,0,0,201,87.69Z"/><path class="cls-3" d="M171.14,66.11A97.06,97.06,0,0,1,190,53.77c2.52-1.25,5.2-2.42,8-2.38a1.9,1.9,0,0,1,1.24.35,2.06,2.06,0,0,1,.5,1.46,89.59,89.59,0,0,1-.06,17.33,42.88,42.88,0,0,1-1.86,8.31c-.73,2.17-1.44,5.71-4.28,5.61-1.79-.07-2.24-1.9-2.8-3.23a10.14,10.14,0,0,0-2.78-4.3c-3.81-3-9.94-.28-14-2.93a6,6,0,0,1,.33-10.3"/><path class="cls-4" d="M156.63,61.5a6.84,6.84,0,0,1,1.44-3.07c3.52-4.73,9.07-7.63,14.79-9.06s11.68-1.53,17.57-1.62a9.21,9.21,0,0,1,4,.53,3.17,3.17,0,0,1,2,3.18c-9.12,2.65-14.32,7.39-22.07,11.64-3.43,1.89-2.89,1.68-6.76,1.29C167,64.33,156.82,60,156.63,61.5Z"/><path class="cls-5" d="M90.44,65.39c-2.86,4.22-6.85,7.61-9.51,12a6.09,6.09,0,0,0-1.17,4.05c.24,1.35,1.24,2.41,2,3.53a13.17,13.17,0,0,1,2.14,9.92l-10.66,7.22c-1.93,1.31-4.09,3-4,5.37s2.44,3.81,3.59,5.83c2.74,4.83-2,10.66-7,13.08s-11,3.72-14.19,8.29c-1.53,2.21-2.22,5-4.21,6.82s-4.72,2.21-7.33,2.57c-4.77.67-9.66,1.33-14.37.33s-9.31-4-10.83-8.58.3-9.76-.61-14.56c-.55-2.91-2.08-5.53-3.13-8.29A27,27,0,0,1,13.32,89.7c2.74-4.55,6.81-8.2,9.52-12.77,5-8.48,4.9-19.39,11.2-27.2S50.67,40,60,38.93C73.94,37.28,102.72,47.28,90.44,65.39Z"/></g><path class="cls-6" d="M124.32,110.69c-3.42,0-7.29-1.63-11.27-2.58a21.11,21.11,0,0,1-6.48-2.22c-8.4-5.2-6.84-13.53-2.41-18.71,3.07-3.6,7.27-5.34,11.73-6.3,7.34-1.57,14.7-2.34,21.93.74,4.94,2.1,8.8,5.21,9.53,10.86.82,6.38-2.65,10.61-7.62,14C135.29,109.42,130.26,110.3,124.32,110.69Zm-.4-22.58c-3.35-.11-6.46.54-9,2.93-1,.9-1.79,1.91-1.3,3.32a4.43,4.43,0,0,0,3,3,32.15,32.15,0,0,0,5,.82,11.63,11.63,0,0,0,8.85-2.46c2.41-1.78,2.18-4.68-.37-6.27A10.45,10.45,0,0,0,123.92,88.11Zm-20.16,8.61a.9.9,0,0,0-.33.59c-.25,1.33.91,3.14,1.71,4.13a9.69,9.69,0,0,0,5.66,3.5c3.24.6,3.09.56,4.06-2.64a3,3,0,0,0-1.22-3.81,7,7,0,0,1-1.35-1.31c-.4-.52-.59-1.16-1.34-1.21a14.69,14.69,0,0,0-2.39.07,17,17,0,0,1-1.74.13,11.54,11.54,0,0,0-1.53.23A3,3,0,0,0,103.76,96.72Zm39.1,1.53c-.94-.64-2.27-.53-3.34-.81-.76-.21-1.55-.32-2.31-.53a6.09,6.09,0,0,0-5.57.89c-.77.6-1.26,1.08-.69,2,.39.63,1,1.08,1.42,1.7,3.46,5.13,3.62,5.13,8.47,1,.74-.64,3.34-2.78,2.48-3.81A2.22,2.22,0,0,0,142.86,98.25Zm.72-5.3c1.49.34,1.3-.59,1.11-1.34-.78-3-2.85-5-5.43-6.59-1.9-1.14-6,.76-6.34,3a1.31,1.31,0,0,0,.27.85,6.53,6.53,0,0,1,1.17,2.57c.19.88.71,1.13,1.54,1.07A25.52,25.52,0,0,1,143.58,93Zm-15,14.35a.59.59,0,0,0,.05-.23c0-.6-.64-1.39-.92-1.91-.39-.74-.76-1.49-1.09-2.26-.18-.43-.35-.86-.5-1.29s-.5-1-1.18-.93c-1.17.15-2.49,0-3.46.56-.63.34-.38,1.39-.39,2s0,1.34,0,2a11.28,11.28,0,0,0-.12,1.63c.11.89,1,1.17,1.75,1.24a15.48,15.48,0,0,0,4.56-.08C127.7,107.93,128.37,107.77,128.57,107.3ZM113.93,84.84l-.08-.07c-1.23-1-3.7.74-4.75,1.44a12.35,12.35,0,0,0-1.92,1.54,6,6,0,0,0-1.32,2.35.33.33,0,0,0,0,.29c0,.09.17.1.27.12l3.41.36c.86.09,2,.45,2.58-.42s1.6-1.4,2.18-2.3A2.86,2.86,0,0,0,113.93,84.84Zm14.88-2.79a15,15,0,0,0-2.41,0,27.82,27.82,0,0,0-5.16.19c-.73.14-1.5.19-1.32,1.13s.12,2.55,1.93,2.41a32.33,32.33,0,0,1,5.39.07c.54,0,1.09.11,1.63.14a15.62,15.62,0,0,0,1-2.89,2,2,0,0,0,.08-.43.23.23,0,0,0,0-.16.21.21,0,0,0-.11-.1A2.84,2.84,0,0,0,128.81,82.05Z"/><path class="cls-6" d="M94.71,49.75c.73,5-.33,6.64-5.23,8.22-1.73.56-3.5,1-5.21,1.6s-1.63,1.54-.29,2.55c.25.19.53.35.79.53,2.89,2,2.87,4.69-.11,6.64-2,1.35-4.24,2.48-6.24,3.9-2.94,2.08-2.83,3.44.29,5.19,2.62,1.46,5.37,2.71,7.62,4.79,2.86,2.65,2.72,5.49-.56,7.65A31.38,31.38,0,0,1,77,94.47,78.84,78.84,0,0,0,66.2,98a17.24,17.24,0,0,0-2.72,1.45c-2.71,1.88-2.67,3.73.09,5.48a20.07,20.07,0,0,0,5.94,2.34,30.15,30.15,0,0,1,7.62,2.62c2.26,1.29,2.45,3.43.33,4.94a17.09,17.09,0,0,1-9,2.79c-4.18.29-8.37.54-12.55.84a10.1,10.1,0,0,0-1.86.39c-4,1.12-4.3,2.18-1.53,5.23,2.62,2.88,2.43,5.2-.85,7.21-3,1.87-6.21,3.51-9.34,5.21-.76.41-1.73.91-2.33-.09s.41-1.56,1.12-2c2.88-1.66,5.83-3.21,8.7-4.88,2.43-1.41,2.49-2.1.55-4.13-3.8-4-2.95-7.09,2.42-8.77,4.54-1.42,9.25-1.22,13.91-1.36a23.46,23.46,0,0,0,7.87-1.61c.59-.22,1.35-.5,1.41-1.14s-.81-.86-1.35-1.11a33.76,33.76,0,0,0-5.9-1.8,20.73,20.73,0,0,1-7.37-3.2c-3.1-2.31-3.27-5.31-.47-8,1.94-1.87,4.39-2.79,6.84-3.71,4.6-1.74,9.52-2.5,14-4.58,1.61-.75,3.86-1.15,4-3.3.09-2-2-2.68-3.39-3.65-1.66-1.2-3.63-2-5.39-3-4-2.41-4.19-5.52-.6-8.55,2-1.7,4.42-2.79,6.62-4.2,1.91-1.23,1.93-1.77,0-3-1.46-1-2.72-2-2.5-4S82.21,57.57,84,57c2.11-.65,4.29-1.17,6.33-2,2.78-1.18,3-3.27.88-5.39-2.89-2.82-6.78-3.28-10.42-4.28-2.06-.56-4.19-.84-6.28-1.31-.91-.2-2.11-.37-1.85-1.68s1.37-.91,2.18-.75a92.89,92.89,0,0,1,13.37,3.3,15.34,15.34,0,0,1,6.56,4.91Z"/><path class="cls-6" d="M97.08,53.19a1.47,1.47,0,0,1,.59,0A2.24,2.24,0,0,1,99,54c1.11,1.5-1.2,4-2.27,5s-2.15,1.63-3.17,2.5c-1.82,1.57-2,3.21-.82,5.27,2.62,4.34,2,6.17-2.58,8.29-2.43,1.11-2.77,2.21-1.23,4.36.92,1.29,2,2.46,2.91,3.76a8.7,8.7,0,0,1-3.25,13.11A29.8,29.8,0,0,1,81,99a11.11,11.11,0,0,0-2.68,1c-1.87,1-1.9,1.79-.17,3.1,1.07.81,2.2,1.55,3.24,2.4a9.52,9.52,0,0,1,3.43,9.36c-.53,3.55-3,5.43-6.19,6.53a22.12,22.12,0,0,1-7.49,1.09,33.92,33.92,0,0,0-7.79.69c-1.82.42-2.78,1.33-2.11,3.4a4.53,4.53,0,0,1-1.5,4.94,30.12,30.12,0,0,1-12.23,7c-.82.24-1.89.58-2.2-.6s.67-1.46,1.54-1.73A29.58,29.58,0,0,0,57,130.61c1.52-1.25,2.41-2.54,1.65-4.7-.71-2,.35-3.53,2.19-4.46a14.47,14.47,0,0,1,6.91-1.4,35.46,35.46,0,0,0,9-.76c2.6-.64,5.09-1.68,5.61-4.77A7.11,7.11,0,0,0,79.44,107,41.08,41.08,0,0,1,76,104.43c-2.34-2-2.1-4.61.46-6.32a13.89,13.89,0,0,1,5.12-1.81,21.66,21.66,0,0,0,6-2.19,6.2,6.2,0,0,0,2.25-9.48c-1-1.43-2.22-2.7-3.18-4.15-2.1-3.2-1.29-5.86,2.18-7.5s3.62-1.85,1.61-5.19a5.61,5.61,0,0,1,1-7.53c.93-.86,2-1.54,3-2.35.65-.55,2.37-1.92,2.17-2.84a7.79,7.79,0,0,1-.24-.92,1,1,0,0,1,.4-.86A1.09,1.09,0,0,1,97.08,53.19Z"/><path class="cls-6" d="M185.17,46.6a40.89,40.89,0,0,1,8.19.71,27.5,27.5,0,0,1,3.8,1.2c.75.29,1.64,1,2.44.5s1-1.61,1.44-2.26,1.06-1.26,2-.75a1.37,1.37,0,0,1,.63,2c-2.77,3-.08,4.14,1.69,5.7,6,5.31,7.26,12.57,8,20,.63,6.13-.88,12-2.8,17.69a5.67,5.67,0,0,1-.35.89c-.39.7-.81,1.5-1.8,1.06-.83-.37-.66-1.13-.44-1.86.49-1.59.89-3.21,1.43-4.78,2.74-7.94,2.09-15.9-.68-23.55-3-8.17-9.48-12.59-17.91-13.75-11.57-1.59-22,1.2-30.85,9.13a10.58,10.58,0,0,1-1.07.94c-.83.58-1.64,2.12-2.71.81-.94-1.15.42-2,1.19-2.71C165.41,50.15,174.81,46.24,185.17,46.6Z"/><path class="cls-6" d="M163.49,60.64c4.22.13,6.68,2.68,8.5,6a51.39,51.39,0,0,1,2.4,5.16c.4,1,.9,1.17,1.76.66a11.46,11.46,0,0,1,4.07-1.21c7.07-1.18,11.66,2.09,12.35,9.23.25,2.57.68,3.59,3.57,3.62,4.22,0,8.76,4.51,9.63,8.7.17.85.43,1.87-.73,2.17s-1.3-.67-1.56-1.41A10.63,10.63,0,0,0,200.69,89a9.16,9.16,0,0,0-6.92-2.57c-2.9.2-3.26-.2-3.33-3.16a15.09,15.09,0,0,0-1.28-6,6.07,6.07,0,0,0-6.25-3.8,15,15,0,0,0-6.6,1.7c-2.07,1.12-2.9.74-3.81-1.41-.77-1.83-1.55-3.65-2.41-5.42-2.24-4.62-5.37-5.91-10.32-4.46-1.07.31-2.71,1.73-3.27,0s1.6-2,2.82-2.43A30.48,30.48,0,0,1,163.49,60.64Z"/><path class="cls-6" d="M200.48,58.32a90,90,0,0,1-2.8,20.91c-.14.54-.32,1.06-.5,1.59-.28.8-.75,1.57-1.69,1.29s-.78-1.24-.56-2a76.62,76.62,0,0,0,2.65-14.47c.24-3.07.22-6.17.46-9.25.16-2.1-.67-2.12-2.36-1.62A36.36,36.36,0,0,0,184.25,61c-2.95,2.22-6.46,3.78-8.57,7a1.08,1.08,0,0,1-1.65.34,1.17,1.17,0,0,1-.25-1.52,6.43,6.43,0,0,1,1.95-2.66c5.82-4.21,11.27-9,18.26-11.37,6.08-2,6.47-1.75,6.49,4.59Z"/><path class="cls-6" d="M38.29,93.57a4,4,0,0,1-1.9,3.14c-1.15.85-2.34,1.63-3.54,2.42-1.6,1.05-1.49,2.19-.31,3.54,2.15,2.45,2,3.73-.35,6a17.76,17.76,0,0,1-4.32,2.92c-.75.38-1.71,1-2.26-.15-.46-.94.45-1.38,1.11-1.82,1.32-.87,2.68-1.68,4-2.62s1.4-1.8.18-3.1c-2.31-2.47-2-4.6.67-6.61,1.14-.85,2.39-1.55,3.52-2.42,1.34-1,1.33-2.15-.19-3-2.29-1.26-4.65-2.4-7-3.6-.79-.42-2.08-.68-1.44-2,.51-1,1.57-.54,2.32-.15,2.53,1.32,5,2.67,7.51,4.11A3.59,3.59,0,0,1,38.29,93.57Z"/><path class="cls-6" d="M183.88,77.76c-.22.49-.52,1.22-.88,1.92-2.25,4.44-4.95,8.62-7.62,12.81-1.43,2.22-2.81,4.47-4.22,6.7-.52.83-.92,1.63-2,.79a1.69,1.69,0,0,1-.39-2c.56-1.18,1.74-2.36,2.43-3.54,3.46-5.92,6.56-10.3,9.17-15.09A20.8,20.8,0,0,1,182,76.65a1,1,0,0,1,1.45-.38C183.9,76.54,184,77,183.88,77.76Z"/><path class="cls-6" d="M51.48,53a13,13,0,0,1,5.59,1.66c2.49,1.47,2.74,3.6.75,5.67a3.87,3.87,0,0,1-.72.62c-2.77,1.66-4.42,3.53-2.52,7.06.92,1.71-.62,3.86-2.64,4.66-.55.22-1.1.4-1.5-.15A1,1,0,0,1,50.71,71C53,69.67,52.66,68,51.72,66c-.83-1.75,0-3.23,1.19-4.5.38-.39.87-.68,1.29-1.05,1-.89,2.93-1.49,2.59-3-.37-1.74-2.41-1.79-3.91-2.16a20.6,20.6,0,0,0-3.06-.3c-.69-.06-1.61.05-1.64-.91s.86-1,1.58-1C50.16,52.92,50.55,53,51.48,53Z"/><path class="cls-6" d="M116.86,134.48c-.13.79-.46,1.39-1.27,1.43a1.11,1.11,0,0,1-1.27-1.13c0-.9.57-1.31,1.41-1.35S116.74,133.88,116.86,134.48Z"/><path class="cls-6" d="M160.9,124.9a1.52,1.52,0,0,1-1.62,1.54A1.24,1.24,0,0,1,158,125a1.33,1.33,0,0,1,1.49-1.44A1.26,1.26,0,0,1,160.9,124.9Z"/><path class="cls-6" d="M137.49,130.89c-.74-.08-1.2-.46-1.19-1.2a1.36,1.36,0,0,1,1.5-1.47,1.06,1.06,0,0,1,1.09,1.24A1.46,1.46,0,0,1,137.49,130.89Z"/><path class="cls-6" d="M147.64,122.22c.9,0,1.21.5,1.18,1.13a1.59,1.59,0,0,1-1.56,1.67.94.94,0,0,1-1-1.08C146.26,123,147.05,122.58,147.64,122.22Z"/><path class="cls-6" d="M126.18,129.56c-.66-.11-1.16-.45-1.11-1.13a1.38,1.38,0,0,1,1.5-1.33c.64,0,.93.48.87,1.08A1.35,1.35,0,0,1,126.18,129.56Z"/><path class="cls-6" d="M152.19,115.38c.92,0,1.52.36,1.53,1.34s-.55,1.25-1.35,1.29a1.34,1.34,0,0,1-1.57-1.35A1.29,1.29,0,0,1,152.19,115.38Z"/><path class="cls-6" d="M172.9,131.14c0,.83-.35,1.36-1.24,1.39s-1.43-.57-1.4-1.48a1.21,1.21,0,0,1,1.38-1.28A1.18,1.18,0,0,1,172.9,131.14Z"/><path class="cls-6" d="M127.7,144c0,.84-.34,1.37-1.23,1.41a1.22,1.22,0,0,1-1.4-1.27,1.19,1.19,0,0,1,1.26-1.4C127.17,142.74,127.7,143.1,127.7,144Z"/><path class="cls-6" d="M168,116.47a1.65,1.65,0,0,1-1.68,1.38,1.21,1.21,0,0,1-1.48-1.11c-.13-1,.47-1.4,1.37-1.44A1.86,1.86,0,0,1,168,116.47Z"/><path class="cls-6" d="M173.3,126.29c-.86,0-1.36-.37-1.39-1.24s.32-1.52,1.31-1.52,1.26.51,1.25,1.34A1.24,1.24,0,0,1,173.3,126.29Z"/><path class="cls-6" d="M163.1,137.46c-.07,1-.55,1.34-1.41,1.29s-1.2-.61-1.17-1.43a1.16,1.16,0,0,1,1.38-1.23A1.23,1.23,0,0,1,163.1,137.46Z"/><path class="cls-6" d="M137.73,140.19a1.13,1.13,0,0,1,1.18,1.38,1.17,1.17,0,0,1-1.41,1.18,1.26,1.26,0,0,1-1.22-1.42C136.31,140.42,137,140.19,137.73,140.19Z"/><path class="cls-6" d="M147,134.05c.88.06,1.23.55,1.15,1.4a1.15,1.15,0,0,1-1.25,1.13,1.22,1.22,0,0,1-1.29-1.35C145.6,134.31,146.18,134,147,134.05Z"/></g></svg>