<svg xmlns="http://www.w3.org/2000/svg" viewBox="0 0 240 160"><defs><style>.cls-1{opacity:0.3;}.cls-2{fill:#f8c8a8;}.cls-3{fill:#d2cfc3;}.cls-4{fill:#a3716d;}.cls-5{fill:#4d4d4d;}</style></defs><g id="レイヤー_1" data-name="レイヤー 1"><g class="cls-1"><path class="cls-2" d="M156.08,82.23c1.57-1,3.27-2,5.11-1.83,2.18.16,3.9,1.85,5.4,3.43,2.56,2.69,5.19,5.5,6.4,9a26,26,0,0,1,1.07,6.4l.63,7.65c.2,2.35.21,5.13-1.67,6.54a6.92,6.92,0,0,1-3.34,1A196.44,196.44,0,0,1,143,116.12a2.32,2.32,0,0,1-2.65-3.12c.24-3.74.82-7.62.48-11.36-.19-2.15-1-4.21-.57-6.39C141.51,88.77,151,85.25,156.08,82.23Z"/><path class="cls-3" d="M44.87,74a9.53,9.53,0,0,1,.23-4.54A9.73,9.73,0,0,1,47,66.69c8-8.95,16.64-18.34,28.24-21.39a9.55,9.55,0,0,1,3.18-.4,10.09,10.09,0,0,1,4.14,1.61c6.06,3.54,11.49,8.06,16.89,12.56a27.29,27.29,0,0,1,5.71,5.8c2.83,4.34,3,9.83,3,15l.22,19.84c0,2.93-.66,6.77-3.56,7.18-2.48.34-4.28-2.24-5.27-4.54a50.66,50.66,0,0,1-4.1-21.49,17.65,17.65,0,0,0-.3-5.48,4.32,4.32,0,0,0-6.76-3c-4.72,2.76-5.1,9.27-5.24,14.73-.11,3.79,1,15.19-3.36,16.88-1.64.64-4.34-.54-6-.65-3.35-.22-6.72-.07-10.09-.34l-4-.31c-4.31-.34-9.52-.18-11.48-4.66C45.2,91.08,45.71,81.5,44.87,74Z"/><path class="cls-4" d="M124.59,43.78c0,2.57.85,5.76,1,8,.25,3.12-1.9,8.86-1,11.31,1,2.79,5.8,3.7,8.24,3.74,6.77,0,17.21,1.59,23.48-1.51,3.45-1.71,2.08-5.11,1.9-8.8-.39-7.81.68-15.7-6.45-20.76-2.25-1.6-4.8-2.74-7.13-4.22A10.41,10.41,0,0,0,141.78,30a6.07,6.07,0,0,0-5.14,1.33c-2.26,1.77-3.12,4.33-5.5,5.88-2.23,1.46-5.43,1.75-6.31,4.72A6.91,6.91,0,0,0,124.59,43.78Z"/></g><path class="cls-5" d="M77.52,41.89A30.42,30.42,0,0,1,86.25,46c7.34,4.84,14.89,9.34,21.23,15.66,3.4,3.39,7.8,5.79,11.73,8.66.94.68,1.87,1.39,2.73,2.15s1.28,1.63.41,2.72-1.66.77-2.64,0c-6.9-5.09-13.85-10.08-20.33-15.75A93.5,93.5,0,0,0,78.7,46.07c-2-1-3.32-.16-4.77.84-10.8,7.46-21,15.67-31,24.1-1.6,1.34-3.14,2.75-4.75,4.08-.6.49-1.27,1.23-2.13.53s-.55-1.46-.39-2.27c.22-1.12,1.13-1.71,1.9-2.4a406.65,406.65,0,0,1,33-26.11C72.47,43.43,74.48,42,77.52,41.89Z"/><path class="cls-5" d="M79.94,107.7c.58-7,1.41-14.08,3.72-20.81a3.94,3.94,0,0,0-.23-3.79c-2.06-3.57-1.23-7.06,1.91-9.6a7.6,7.6,0,0,1,9.9-.09A7.44,7.44,0,0,1,97,83.14c-1.12,1.78-.76,3-.1,4.7,3.37,8.79,5.39,17.74,1.88,27.06a16.43,16.43,0,0,1-3.72,6.2c-.6.6-1.36,1.15-2.15.6-1-.66-.7-1.66-.12-2.46a24.9,24.9,0,0,0,2.9-4.73c3.81-8.84,1.5-17.31-1.77-25.6-.94-2.36-1.32-4.1.13-6.38a4.73,4.73,0,0,0-1.32-6.79c-2.15-1.59-4.16-.88-6,.73a4,4,0,0,0-.82,5.09,9.11,9.11,0,0,1,.22,7.06c-2,6.35-2.31,13-2.83,19.56a18.21,18.21,0,0,0,1.9,8.75c.48,1.11,1.46,2.58-.16,3.35-1.82.87-2.34-.94-2.91-2.13A21,21,0,0,1,79.94,107.7Z"/><path class="cls-5" d="M59.66,120.36c-.35-3.61.58-6.78,1.54-10,.68-2.21-.88-4.21-1-6.38,0-1.23-.7-2.64.49-3.58s1.94,0,2.94.75a2.5,2.5,0,0,0,3.15-.5c.62-.66,1.22-1.15,2.08-.71a1.78,1.78,0,0,1,.77,2.42c-2,4.64-.84,8.66,1.59,12.88,1.38,2.39,2.17,5.79-.26,8.15s-5.74,2.78-9.09,1.63a27.4,27.4,0,0,1-4.59-1.5c-1.64-.93-3.37-2.65-2.05-4.5C56.92,116.73,57.69,120,59.66,120.36Z"/><path class="cls-5" d="M157.52,77.05c3.85.37,7.07,2.46,10.11,4.79,5.88,4.51,11.31,9.61,17.69,13.47,1,.61,2.14,1.43,1.43,2.76-.84,1.57-2.17.89-3.31.24-6.16-3.55-11.35-8.4-16.92-12.74-.92-.71-1.82-1.44-2.79-2.08-5.72-3.74-6.59-3.79-11.84.52-6.55,5.37-14.13,9.33-20.37,15.11-.8.74-1.79,1.31-2.75.34s-.37-1.95.31-2.79c3-3.68,7.2-5.8,10.94-8.51,4-2.92,8.16-5.73,12-8.91A8.55,8.55,0,0,1,157.52,77.05Z"/><path class="cls-5" d="M157.51,114.05c3.83.09,7.66.09,11.48.29,2.11.11,3-.75,3-2.78-.05-3.48-.11-7-.11-10.43,0-1.37-.12-3.15,1.77-3.22s1.83,1.8,1.85,3.11c.08,3.94.14,7.89,0,11.82-.17,3.62-1.69,5-5.3,4.91a260.43,260.43,0,0,0-27.09.62c-2.62.21-3.86-1.19-3.56-3.49a121.28,121.28,0,0,0,.6-13.19c0-1.33.1-3.14,2.05-3,1.72.13,1.48,1.77,1.46,3-.06,3.25.06,6.52-.27,9.74-.27,2.6.7,3.13,3,3,3.7-.25,7.42-.21,11.12-.29Z"/><path class="cls-5" d="M141.5,28.56a18,18,0,0,1,3.18,1.16C152.36,34,160,38.4,167.28,43.41a18.25,18.25,0,0,1,2.17,1.75c.93.87,2.13,1.88,1.09,3.22s-2.33.33-3.3-.44c-7.05-5.54-15.08-9.52-22.65-14.24-2.83-1.76-5.27-1.71-8,.34-5.62,4.29-11.37,8.43-17.07,12.61-1.08.8-2.31,2.24-3.55.65s.28-2.61,1.34-3.44c6.3-4.94,12.73-9.71,19.4-14.14A8.13,8.13,0,0,1,141.5,28.56Z"/><path class="cls-5" d="M136,67.72c-3-.21-5.2-.29-7.39-.54-3-.35-4.59-1.94-4.31-5.15.26-3,.34-6,.6-9,.11-1.28.47-2.79,2.19-2.5,1.51.25,1.28,1.72,1.23,2.86-.11,2.55-.23,5.1-.45,7.65-.14,1.65.3,2.6,2.13,2.84,7.65,1,15.3.42,22.94,0,1.79-.1,2-1.42,1.92-2.74-.07-2.67-.27-5.33-.3-8,0-1.31-.51-3.21,1.43-3.39,2.19-.21,2.05,1.87,2.12,3.27.17,3.12.14,6.26.15,9.39s-1.54,4.83-4.64,4.91C147.44,67.45,141.32,68.77,136,67.72Z"/><path class="cls-5" d="M44.84,90.32c0-3-.06-6,0-9,0-1.63-.48-4.14,2-4.06,2.24.07,1.5,2.44,1.5,4,0,5.56,0,11.13-.11,16.69-.05,2.11.38,3.35,2.85,3.06,1.32-.16,2.93-.42,3,1.8,0,2.39-1.74,1.7-3,1.77-5.79.29-6.22-.14-6.25-5.83,0-2.78,0-5.57,0-8.35Z"/><path class="cls-5" d="M111,96.63c-.22,2.84.21,5.46-1.18,7.79a2.18,2.18,0,0,1-2.26,1.32c-1-.24-.81-1.38-.71-2.08,1.2-8.25-.63-16.44-.44-24.66,0-1.4-.51-3.5,1.75-3.44,1.83,0,1.6,2,1.68,3.31C110.24,84.89,110.63,90.91,111,96.63Z"/></g></svg>