<svg xmlns="http://www.w3.org/2000/svg" viewBox="0 0 320 250"><defs><style>.cls-1{fill:#caeaf2;}.cls-2{fill:#cee6c3;}.cls-3{fill:#ffbba0;}.cls-4{fill:none;stroke:#fff;stroke-miterlimit:10;stroke-width:5.01px;}.cls-5{fill:#4d4d4d;}.cls-6{fill:gray;}</style></defs><g id="レイヤー_1" data-name="レイヤー 1"><path class="cls-1" d="M245.72,14.6c8.15.67,16.31,1.22,24.49,1.44a13.36,13.36,0,0,1,5.66,1c9.16,4.58-4.33,17.68-7.61,21.91-3.08,4-6.73,7.54-9.52,11.74-2.62,4-4.19,9.16-7.43,12.66-2.46,2.66-6.35,4-9.49,5.87-5.62,3.31-9.53,5.55-13.27,10.64-4.28,5.82-12.66,10.19-17.42,15.64a435.63,435.63,0,0,1-32.35,33.09c-5.49,5.08-12.64,8.76-18.46,13.54a99.89,99.89,0,0,0-16,16.12c-2.41,3.11-4.57,6.41-7.14,9.39A83.73,83.73,0,0,1,125.87,178q-10.31,8.31-21,16.11c-5,3.68-10.61,6.64-15.24,10.84-3.8,3.45-6.34,8-11.62,9.33a34.49,34.49,0,0,1-9.25.59c-21.13,0-36.66,4-51.16-15C9.34,189,3.44,179.05,5.36,165.14c1.43-10.36,3.06-22.49,6.47-32.31,4.17-12,14.92-23.47,22.63-33.38S49.69,79.9,57.3,70.12c8.57-11,17.19-22.07,27.49-31.48C96,28.37,108.37,22.2,123,18a246.47,246.47,0,0,1,35.13-7.5c11.06-1.53,22.91,2.07,34.25,2.07C210.17,13.4,227.93,13.12,245.72,14.6Z"/><path class="cls-2" d="M240.4,188.28c-1,6.93-3.44,13.42-9.56,17.28-6.5,4.11-14.34,1.69-20.3,5.25-2.86,1.7-4.11,5.1-5.56,8.1a39.36,39.36,0,0,1-33.6,21.7,14.63,14.63,0,0,1-7.21-1.26c-4.66-2.42-12-9.21-13.87-14.12-1.22-3.67-4.55-9.69-9.25-8.86-4.43.78-7.43,9.46-9.49,12.89a36.57,36.57,0,0,1-5.85,8,12.26,12.26,0,0,1-8.91,3.68c-12.32-.79-18.36-17.2-29.39-21.39-2.33-.88-7.7-1.92-8-5-.18-1.95,3.27-5.3,4.42-6.82a35.26,35.26,0,0,1,10.8-9.83c5.58-3.39,12-5.15,17.53-8.67,7.84-5,13-13.18,19.18-20.17a132.19,132.19,0,0,1,19.69-17.6c3.17-2.41,6.29-4.5,8.81-7.48a81.57,81.57,0,0,1,8.58-9.26c7.89-6.86,16.54-12.81,24.31-19.81,4.28-3.85,8.27-8,12.33-12.07,6.88-6.88,14-13.54,21.09-20.19,9.46-8.85,19.4-17.4,28.46-26.65,6.94-7.09,8.48-17.12,14.48-24.81a23.45,23.45,0,0,1,13.51-8.58c5.24-1.09,10.47.3,15.39,2,4.73,1.67,6.3,5.1,9.93,8.34,2.29,2,5.39,3.3,6.91,6A11.9,11.9,0,0,1,316.1,44a69.05,69.05,0,0,1-6.43,35.09c-2.24,4.74-5,10.34-9,13.84-3.43,3-8.26,3.86-10.95,7.79-2.5,3.65-2.59,8.8-4.25,13-1.72,4.39-6.51,6.65-8.25,10.52-1.53,3.4-.26,7-.59,10.68-.35,3.94-1.91,7.93-5,10.39-7.77,6.17-19.64.4-28.58,2.34A25.51,25.51,0,0,0,227.1,159c-4.32,6.83-2.68,9.95,1.76,16.13,3,4.14,9.41,2.51,11.39,8.79A10.24,10.24,0,0,1,240.4,188.28Z"/><path class="cls-3" d="M316.1,44a11.9,11.9,0,0,0-1.25-5.08c-1.52-2.66-4.62-3.92-6.91-6-3.63-3.24-5.2-6.67-9.93-8.34-4.92-1.73-10.15-3.12-15.39-2a23.45,23.45,0,0,0-13.51,8.58,54.92,54.92,0,0,0-6.19,11.08c-1.41,3.07-5.32,7.67-2.35,10.76a9.16,9.16,0,0,0,1.33,1.07l1.79,1.26a49.88,49.88,0,0,1,6.44,5.14c2.5,2.45,3.44,6.94.92,9.37-.84.82-1.95,1.29-2.86,2-3.58,2.95-2.51,9.11.91,12.24s8.27,4,12.84,4.84c6.27,1.08,12.44,2.59,18.58,4l.11-.08c4-3.5,6.8-9.1,9-13.84A69.05,69.05,0,0,0,316.1,44Z"/><path class="cls-4" d="M201,103.07c4.59,9.69,11.91,7.51,18.24,4.71a14.69,14.69,0,0,1,4-1.51c2.95-.35,5.59,1.82,7.52,4.09s3.73,4.87,6.5,6c7.18,2.8,17.06,3,23.53,7.12,5.62,3.61,12.5,20.11,12.72,26.78"/><path class="cls-4" d="M258.74,50.66c2.9,2.09,10.2,6.33,12.21,9.3s2.71,7,.73,9c-1,1-2.43,1.11-3.42,2a8.76,8.76,0,0,0-2,3.92,13,13,0,0,0,.66,8.3c2.21,5.38,10.62,4.58,15.35,4.81s8.92,3.8,13.74,4.5c6.36.93,12.56.8,18.88,2.48"/><path class="cls-5" d="M204,60.5c-2.8-2.18-6.53-1.23-10.31-.55a4.19,4.19,0,0,1-3.92-1.54c-1.6-2-2.74-2-5-.56a10.47,10.47,0,0,1-11.45.1c-1.12-.67-2.41-1.82-1.53-3.27,1-1.61,2.07-.23,3.07.35A8.45,8.45,0,0,0,185,53.55c2.73-2.55,3.6-2.51,5.65.65,1.65,2.55,3.65,3.23,6.19,1.5a3.71,3.71,0,0,1,4.87.11c1.66,1.24,3.5,2,5.54.61.78-.55,1.71-.79,2.38.12s.26,1.91-.54,2.65C207.91,60.31,206.45,60.77,204,60.5Z"/><path class="cls-5" d="M69.19,93.44a10.4,10.4,0,0,1-5.76-1.51,1.49,1.49,0,0,1-.78-1.71,1.3,1.3,0,0,1,1.92-.78c4.89,2.49,7.76.34,9.93-4,.87-1.77,2.29-1.65,3.45-.15a11,11,0,0,0,4.81,3.51c2.19.86,4.11.67,5.71-1.32,1.37-1.7,3-1.56,4.18.16A8.6,8.6,0,0,0,98,91.33c1,.25,2,.77,1.67,2.06s-1.48,1.22-2.5,1.1c-2.7-.3-4.49-2.81-6.7-3.37-2-.51-4.42,2.07-7.21,1.32-2.46-.66-4.35-2.69-6.52-3.18s-3,3.47-5.58,3.86Z"/><path class="cls-5" d="M96.73,144.66c-2.88-2.5-5.9-.92-9,.51a2,2,0,0,1-1.32.05c-4.31-1.21-8.36-2.44-12.6,1-1.7,1.36-4.45-.49-6.38-1.91a1.43,1.43,0,0,1-.57-1.78c.43-.94,1.25-.8,2-.55s1.45.59,2.16.9c2.23,1,4,.38,5.07-1.74,1.33-2.62,2.89-3,5.29-1.22,3.79,2.86,5.23,2.7,8.72-.59a1.93,1.93,0,0,1,2.11-.65c2.31,1,4.28,2.79,6.92,3.15.55.08.67.86.44,1.43C99.19,144.37,98.16,144.44,96.73,144.66Z"/><path class="cls-5" d="M174.93,95.81a4.74,4.74,0,0,1-1.79-.43c-2.07-1.57-3.46-.82-5.35.65-2.59,2-5.44.72-7.7-1-1.6-1.24-2.43-1.52-4,.1-2.28,2.33-6.52,2.06-8.89-.12-.67-.62-1.38-1.37-.79-2.3s1.58-.67,2.4-.2c3.08,1.79,5.47,1.34,7.2-2,.81-1.54,2.11-1.45,3.36-.42a35.28,35.28,0,0,0,3.05,2.58c1.86,1.19,3.68,1.54,5.2-.72,1.41-2.09,3.18-2.17,5.13-.6a5.67,5.67,0,0,0,3.07,1.22c1.21.13,3.19-.36,2.89,1.68C178.43,96.1,176.49,95.69,174.93,95.81Z"/><path class="cls-5" d="M49.17,174a7.93,7.93,0,0,1-2.32-.84,2.1,2.1,0,0,0-2.94,0,5.64,5.64,0,0,1-7.15-.07c-1.52-1.13-2.32-.77-3.62.3A7.69,7.69,0,0,1,22.43,172c-.55-.81-1.29-1.83-.33-2.7s1.61.11,2.33.62c4.21,3,5.36,2.9,8.87-1,1.13-1.26,2.28-1.58,3.31-.15,2.16,3,4.43,3.49,7.17.76a2.38,2.38,0,0,1,3.58,0,4.49,4.49,0,0,0,2.55,1.46c1.05.11,2.59-.12,2.39,1.53S50.56,173.83,49.17,174Z"/><path class="cls-5" d="M135.92,39.22c-3.08.2-5-2.6-7.35-3.09-1.75-.36-3.66,3.52-6.6,3.58a8.66,8.66,0,0,1-2.62-.38c-1.26-.38-3-.84-2.48-2.52s2-.76,3.14-.43c2.62.8,4.2-.75,5.76-2.41,2.85-3,3.44-3.08,6-.12,2.26,2.62,4.88,2.1,7.61,1.09,1.1-.4,2.4-1.42,3.11.3.6,1.45-.68,2.19-1.75,2.81A10.45,10.45,0,0,1,135.92,39.22Z"/><path class="cls-6" d="M241.08,102.4v.1c0,.29.35.34.77.34.67,0,1.61,0,2.63,0s2.14,0,3.13,0,1.4.33,1.4.8a2.8,2.8,0,0,1-3.16,2.44,8.19,8.19,0,0,1-1.72-.21.5.5,0,0,1-.36-.49.45.45,0,0,1,.48-.48h.17a6.7,6.7,0,0,0,1.43.19,1.57,1.57,0,0,0,1.7-1.4c0-.2-.11-.3-.46-.3h-.66l-4.28,0c-1.34,0-2.29,0-2.35-.83,0-.23,0-.57,0-.94,0-.63,0-1.37.05-1.89,0-.74,1-.84,2.41-.84a2.74,2.74,0,0,0,.12-.32.42.42,0,0,1,.23-.26.74.74,0,0,1-.51-.71c0-.23,0-.51,0-.8l-.08.06a.57.57,0,0,1-.38.13.69.69,0,0,1-.59-.33l-.06,1.6a.58.58,0,0,1-.64.47c-.31,0-.58-.14-.58-.44v0l.1-1.52c-.56.4-.67.46-.87.46a.51.51,0,0,1-.27-.06c0,2.54-.14,5.93-1.31,7.67a.85.85,0,0,1-.73.41.69.69,0,0,1-.75-.61.51.51,0,0,1,.11-.31c1.06-1.63,1.25-4.64,1.25-7,0-1,0-1.8-.05-2.4v0c0-1,.49-1.6,1.88-1.62h3.29v-.39h0a.79.79,0,0,1,1.58,0h0v.39c2,0,3.87,0,4.69,0a.54.54,0,0,1,.57.54.53.53,0,0,1-.58.52h-2.61c.14.06.25.14.25.23s0,0-.22.36h2.3a.33.33,0,0,1,.37.33c0,.15-.12.3-.38.3h-2.32V96h1.83c.22,0,.31.12.31.26a.27.27,0,0,1-.31.26h-1.83v.42h1.83a.28.28,0,0,1,.32.26c0,.14-.1.26-.32.26h-1.83v.43h2.55c.26,0,.38.15.38.32s-.12.31-.38.31h-4.88a.32.32,0,0,1,.05.18.54.54,0,0,1-.1.26c3.3,0,3.33,0,3.33,1.41,0,1-.15,1.06-2.23,1.06l-3.7,0v.4h7.7a.33.33,0,1,1,0,.66Zm-3.42,3a.58.58,0,0,1,.32-.47,2.17,2.17,0,0,0,1-1.12.55.55,0,0,1,.58-.39c.34,0,.69.2.69.5,0,.67-.93,2.08-1.8,2.08A.71.71,0,0,1,237.66,105.38Zm1.79-11c-.54,0-.73.22-.73.56v1.32a6.22,6.22,0,0,0,2.05-1.88Zm2.21,11.15c-.31,0-.6-.16-.6-.48a2.82,2.82,0,0,0-.21-1,.3.3,0,0,1,0-.12c0-.23.27-.36.56-.36a.73.73,0,0,1,.55.22,2,2,0,0,1,.44,1.14C242.37,105.31,242,105.5,241.66,105.5Zm.09-11.16a.52.52,0,0,1,.11.29c0,.06,0,.29-.77,1.06l0,.65a.44.44,0,0,1,.14-.13A5.44,5.44,0,0,0,243,94.44a.3.3,0,0,1,.07-.1Zm-.66,6.08v.41l3,0c1.4,0,1.62,0,1.66-.29,0,0,0-.09,0-.15Zm4.67-.46c0-.07,0-.11,0-.16s-.18-.27-.53-.27-1,0-1.63,0-1.3,0-1.89,0c-.38,0-.57.12-.58.35V100Zm-1.94,4.89a.44.44,0,0,1-.43-.2,1.2,1.2,0,0,0-.41-.58.22.22,0,0,1-.09-.16c0-.18.34-.32.66-.32a1.19,1.19,0,0,1,1,.83C244.54,104.68,244.14,104.85,243.82,104.85Zm1.08-8.36h-1.69c0,.14,0,.28,0,.42h1.7Zm0,.94h-1.69v0c0,.21.15.37.57.37h1.12Zm0-1.86h-1.2a.4.4,0,0,0-.44.36l0,0h1.66Zm-1-1.23a.45.45,0,0,1,.26.35.32.32,0,0,1-.06.17L244,95h.86l.24-.48a.23.23,0,0,1,.11-.11Zm2.25,10.33a.43.43,0,0,1-.35-.16,1.22,1.22,0,0,0-.53-.44c-.11-.06-.15-.13-.15-.2s.29-.36.56-.36,1,.34,1,.73S246.4,104.67,246.12,104.67Z"/><path class="cls-6" d="M263.93,102.11l-4.19-.06a16.56,16.56,0,0,0,4.69,2.2.63.63,0,0,1,.46.6.82.82,0,0,1-.78.82,16.86,16.86,0,0,1-5.15-2.82l0,2.66v0a.65.65,0,0,1-.72.58c-.36,0-.71-.18-.71-.58v0l0-2.63a15.57,15.57,0,0,1-5.14,2.85.72.72,0,0,1-.76-.69.64.64,0,0,1,.5-.6,14.8,14.8,0,0,0,4.54-2.39l-4,.06h0a.6.6,0,0,1-.64-.61.62.62,0,0,1,.65-.62h4.91v-.77c-.85,0-1.8,0-2.36,0-1.05,0-1.57-.58-1.62-1.35,0-.37,0-.8,0-1.22s0-.86,0-1.2A1.42,1.42,0,0,1,255.21,95h.11a.47.47,0,0,1-.32-.3,4.45,4.45,0,0,0-1-1.2.59.59,0,0,1-.17-.36.71.71,0,0,1,.75-.6c.65,0,1.64,1.29,1.64,1.76a.78.78,0,0,1-.55.7h4.45a10.92,10.92,0,0,0,1-2.11.72.72,0,0,1,.68-.51.79.79,0,0,1,.82.71A6.75,6.75,0,0,1,261.58,95a1.48,1.48,0,0,1,1.42,1.2c0,.37,0,.82,0,1.27s0,.87,0,1.24a1.51,1.51,0,0,1-1.59,1.37c-.65,0-1.64,0-2.47,0v.77h5a.62.62,0,1,1,0,1.23ZM257.6,96c-.68,0-1.35,0-2,0s-.73.52-.73.92h2.68Zm0,2h-2.68c0,1,0,1,2.68,1Zm.84-3.21a.51.51,0,0,1-.52-.41,4.34,4.34,0,0,0-.71-1.39.54.54,0,0,1-.09-.27.65.65,0,0,1,.71-.56c.81,0,1.42,1.65,1.42,1.93A.79.79,0,0,1,258.44,94.81ZM261.69,97c0-.1,0-.21,0-.32,0-.37-.24-.58-.73-.6s-1.29,0-2,0v1Zm-2.75,1v1c.69,0,1.38,0,2,0s.73-.52.73-1Z"/><path class="cls-6" d="M241.17,88.72c-.23.52-1,.29-.72-.36A24.48,24.48,0,0,0,241.79,85a2.14,2.14,0,0,1-1.11-.11c-.39-.16-.32-.86.26-.66a2,2,0,0,0,1.05,0,3.87,3.87,0,0,0,0-.83c0-.44.69-.46.76,0a2.55,2.55,0,0,1,0,.62l.29-.17a.37.37,0,1,1,.3.67,5.16,5.16,0,0,1-.77.3A28.82,28.82,0,0,1,241.17,88.72Zm1.86-.34c-.33-.37.14-1,.54-.57s.85.36,1.74.28a.4.4,0,1,1,.1.79A2.69,2.69,0,0,1,243,88.38Zm.86-2.69c-.4.15-.64-.48-.13-.66a2.79,2.79,0,0,1,1.83,0c.51.18.3.86-.18.7A2.64,2.64,0,0,0,243.89,85.69Z"/><path class="cls-6" d="M250.53,84.83c.64,0,1.13.32,1.16,1.18a4.92,4.92,0,0,1-.26,1.72,1.48,1.48,0,0,1-1.8.92c-.6-.17-.36-.88.11-.77a.72.72,0,0,0,1-.41,3.56,3.56,0,0,0,.24-1.33c0-.47-.16-.69-.51-.66a2.21,2.21,0,0,0-.35,0,11.22,11.22,0,0,1-1.48,3.09c-.37.52-1.16.07-.66-.49a7.52,7.52,0,0,0,1.35-2.5l-.09,0a5.44,5.44,0,0,1-.83.11.37.37,0,1,1,0-.74c.24,0,.47,0,.75,0l.38,0a7.8,7.8,0,0,0,.23-1.22c.06-.5.84-.46.78.06a8.49,8.49,0,0,1-.23,1.08Zm2.8,1.73a2.69,2.69,0,0,0-1.09-1.32c-.37-.21,0-.79.44-.51A3.21,3.21,0,0,1,254,86.19C254.23,86.7,253.54,87,253.33,86.56Z"/><path class="cls-6" d="M257.26,87a1.08,1.08,0,0,1,.61-1.45,1.51,1.51,0,0,1,.66-.07c0-.17,0-.4,0-.62-.64.06-1.28.15-1.67.22-.55.08-.91.18-1.14.22a.39.39,0,1,1-.06-.78l1.12-.16c.38-.06,1.07-.15,1.74-.21V84c0-.47,0-.5,0-.75a.4.4,0,0,1,.8,0,6.44,6.44,0,0,1,0,.74s0,.07,0,.11l.59,0c.37,0,.64,0,1.16,0s.61.83,0,.78-.72,0-1.2,0h-.55c0,.25,0,.49,0,.71s0,.27,0,.44c.68,1.08-.13,2.71-.93,3.36-.52.41-1.18-.14-.52-.61a2.78,2.78,0,0,0,.87-1.13A1,1,0,0,1,257.26,87Zm1.28-.81a.47.47,0,0,0-.48,0,.45.45,0,0,0-.22.58.45.45,0,0,0,.87-.13.34.34,0,0,0,0-.29Z"/><path class="cls-5" d="M296.06,57.74l-5-.09,0,.58h2.9c.9,0,1.33.34,1.36,1,0,.12,0,.38,0,.52,0,.65-.5,1-1.17,1,.7.22,1.42.4,2.21.6.44.11.62.39.62.65a.67.67,0,0,1-.74.65,14.92,14.92,0,0,1-5.17-2.23v1.09h0a.63.63,0,0,1-.7.59.62.62,0,0,1-.68-.59h0v-1a16.15,16.15,0,0,1-5.24,2.24.58.58,0,0,1-.64-.57.67.67,0,0,1,.56-.63,13.87,13.87,0,0,0,5.35-2.24v-.24l-2.24,0c-.37,0-.51.11-.51.31s0,.58,0,.92a.62.62,0,0,1-.69.54c-.65,0-.67-.43-.67-.85,0-1.21,0-1.8,1.53-1.8h2.59l0-.58-4.87.09h0a.56.56,0,0,1-.61-.55.63.63,0,0,1,.63-.64l4.86,0v-.47a.62.62,0,0,1,.68-.61.64.64,0,0,1,.7.61v.47l5,0a.6.6,0,0,1,.61.62.55.55,0,0,1-.59.57Zm0,6.47-5-.1,0,.59H294c.9,0,1.32.34,1.35,1,0,.12,0,.38,0,.52,0,.65-.52,1-1.19,1,.7.23,1.42.42,2.21.62a.7.7,0,0,1,.62.66.68.68,0,0,1-.73.66,16.28,16.28,0,0,1-5.2-2.29l0,1.91h0a.63.63,0,0,1-.7.59.62.62,0,0,1-.68-.59h0l0-1.84a16.69,16.69,0,0,1-5.26,2.31.6.6,0,0,1-.64-.6.67.67,0,0,1,.56-.64,13.67,13.67,0,0,0,5.35-2.3v-.2l-2.24,0c-.37,0-.51.1-.51.3s0,.59,0,.93a.63.63,0,0,1-.69.54c-.65,0-.67-.43-.67-.85,0-1.22,0-1.8,1.53-1.8h2.59l0-.59-4.87.1h0a.55.55,0,0,1-.61-.54.61.61,0,0,1,.63-.62l4.86,0v-.17h0a.62.62,0,0,1,.68-.62.65.65,0,0,1,.7.62h0v.17l5,0a.59.59,0,0,1,.61.6.55.55,0,0,1-.59.56ZM294,59.42c0-.19-.11-.31-.46-.31-.76,0-1.6,0-2.46,0v.24a12.79,12.79,0,0,0,2.13,1.14.67.67,0,0,1,0-.24.45.45,0,0,1,.45-.47h.19c.09,0,.2,0,.2-.17h0Zm0,6.46c0-.18-.11-.3-.46-.3-.76,0-1.61,0-2.47,0v.2a12.2,12.2,0,0,0,2.16,1.17.62.62,0,0,1,0-.23.44.44,0,0,1,.44-.48l.11,0h.07c.09,0,.2,0,.2-.17v-.19Z"/><path class="cls-5" d="M280.71,48.41a.35.35,0,1,1,.22-.66,2.1,2.1,0,0,0,1.05,0,6.17,6.17,0,0,0,.15-.77.36.36,0,0,1,.72.07,2.15,2.15,0,0,1-.1.46,1.36,1.36,0,0,0,.24-.13c.34-.24.82.23.34.59a2.85,2.85,0,0,1-.82.35,19.41,19.41,0,0,1-1.37,2.59c-.28.46-1,.16-.68-.33a16,16,0,0,0,1.26-2.1A2.23,2.23,0,0,1,280.71,48.41ZM282,52.74a.82.82,0,0,1,0-1.55,2.58,2.58,0,0,1,1.47-.15v-.26c0-.2,0-.39,0-.58a2.27,2.27,0,0,1,0-.52.35.35,0,0,1,.69.14,1.73,1.73,0,0,0-.05.36c0,.18,0,.37,0,.6s0,.3,0,.47a2.68,2.68,0,0,1,.93.62c.44.48-.18,1-.55.58a2.39,2.39,0,0,0-.43-.4A1.52,1.52,0,0,1,282,52.74Zm.25-1a.24.24,0,0,0,0,.45.82.82,0,0,0,1.16-.41s0-.06,0-.08A1.49,1.49,0,0,0,282.27,51.73Zm1.7-2.84c-.42,0-.45-.61,0-.66a2.41,2.41,0,0,1,1.41.27c.52.31.12,1-.25.71A2,2,0,0,0,284,48.89Z"/><path class="cls-5" d="M290,52.54c-.71.12-.76-.73-.15-.81a4.1,4.1,0,0,0,2.24-.9c.65-.58.69-1.21.34-1.62a1.93,1.93,0,0,0-2-.33,7.23,7.23,0,0,0-1.1.45c-.34.17-.68.35-1.06.52a.43.43,0,1,1-.37-.77,18.72,18.72,0,0,1,2.39-.9,2.83,2.83,0,0,1,2.73.53c.82.87.52,2-.42,2.75A5.21,5.21,0,0,1,290,52.54Z"/><path class="cls-5" d="M297.48,51.41c-.9,1-1.7.64-1.91-.33a2.49,2.49,0,0,1,.84-2.19,4.1,4.1,0,0,1-.14-.5c0-.15-.12-.51-.15-.67-.13-.64.73-.63.76-.08a5.87,5.87,0,0,0,.08.64,1.36,1.36,0,0,0,0,.17l.15-.09a3.05,3.05,0,0,1,1.31-.32,4.82,4.82,0,0,0,.09-.83c0-.54.79-.48.76.08a6.4,6.4,0,0,1-.11.82,2,2,0,0,1,1.54,1.39c.39,1.42-.54,2.48-1.86,3-.58.22-1-.52-.29-.72,1.32-.4,1.62-1.29,1.44-2a1.37,1.37,0,0,0-1-1,1.87,1.87,0,0,1-.07.22,9.08,9.08,0,0,1-.78,1.56l.1.08a.33.33,0,0,1,0,.47.36.36,0,0,1-.5.08l-.06,0A3.63,3.63,0,0,1,297.48,51.41Zm-.83-1.87a1.69,1.69,0,0,0-.43,1.29c.11.6.47.43.69.21s.23-.27.36-.44A4.41,4.41,0,0,1,296.65,49.54Zm.74-.63a.83.83,0,0,0-.22.14,3.35,3.35,0,0,0,.51.93,5.61,5.61,0,0,0,.6-1.24l0-.11A2.3,2.3,0,0,0,297.39,48.91Z"/><path class="cls-6" d="M207.12,142.23c-1.34,0-2.75,0-4.15,0s-2.8,0-4.18,0a1.81,1.81,0,0,1-2-1.86c-.05-1.16-.06-2.54-.06-4,0-1.74,0-3.52.06-5a1.73,1.73,0,0,1,1.9-1.68c1.33,0,2.73-.05,4.16-.05s2.89,0,4.32.05a1.84,1.84,0,0,1,1.86,1.8c0,1.57.06,3.3.06,5,0,1.37,0,2.69-.06,3.86A1.89,1.89,0,0,1,207.12,142.23Zm.47-6.16c0-1.39,0-2.77-.06-4,0-.88-.34-1-1.08-1.05-1.15,0-2.41,0-3.63,0s-2.44,0-3.51,0c-.87,0-1.11.27-1.13,1.05,0,1.25,0,2.62,0,4s0,2.65,0,3.8c0,.88.34,1,1.29,1.05s2.16,0,3.32,0l3.6,0c.85,0,1.12-.43,1.14-1.09C207.57,138.61,207.59,137.33,207.59,136.07Zm-8.14,3.51a.59.59,0,0,1-.66-.57.62.62,0,0,1,.66-.62h2.64v-2.24h-1.82a.56.56,0,0,1-.64-.55.62.62,0,0,1,.66-.6h1.8v-1.57h-2.24a.58.58,0,0,1-.66-.57.62.62,0,0,1,.66-.61h5.88a.59.59,0,1,1,0,1.18h-2.29V135h1.85a.58.58,0,1,1,0,1.15h-1.85v2.24h2.73a.6.6,0,1,1,0,1.19Zm5.88-1.52a9,9,0,0,0-1-.7.45.45,0,0,1-.28-.4.62.62,0,0,1,.63-.55c.09,0,1.64.49,1.64,1.17a.62.62,0,0,1-.57.63A.64.64,0,0,1,205.33,138.06Z"/><path class="cls-6" d="M212,142.69a.74.74,0,0,1-.78-.72.71.71,0,0,1,.69-.7c2-.27,3.25-1,3.86-2.35a.71.71,0,0,1,.68-.46.8.8,0,0,1,.81.72.71.71,0,0,1-.08.31C215.84,142.38,212,142.69,212,142.69Zm3.51-4.53a1.63,1.63,0,0,1-1.79-1.54c0-.67,0-1.78,0-2.86s0-2.15,0-2.76a1.54,1.54,0,0,1,1.68-1.5c.7,0,1.62,0,2.56,0s1.89,0,2.67,0a1.58,1.58,0,0,1,1.58,1.4c0,.67.05,1.66.05,2.68s0,2.26-.05,3a1.63,1.63,0,0,1-1.66,1.57c-.26,0-.51,0-.77,0,0,.62,0,1.34,0,1.84,0,.84.18,1,1.49,1s1.9-.18,1.9-1.57a.69.69,0,0,1,.72-.72.77.77,0,0,1,.81.83c0,2.65-1.77,2.85-3.51,2.85-1.54,0-2.86-.15-2.86-1.86,0-.42,0-1.57,0-2.41C217.38,138.19,216.4,138.18,215.52,138.16Zm5.33-4.94h-5.77v1.2h5.77Zm0-1.18c0-.23,0-.45,0-.62,0-.4-.22-.63-.72-.66s-1.17,0-1.89,0-1.74,0-2.38,0a.69.69,0,0,0-.71.68c0,.17,0,.37,0,.6Zm-5.75,3.57c0,.23,0,.43,0,.61,0,.5.29.67.73.68.7,0,1.46,0,2.24,0s1.37,0,2,0,.73-.6.73-1.29Z"/><path class="cls-6" d="M202.54,126.27a14.37,14.37,0,0,0-1.62-2.5A1.16,1.16,0,0,1,201,122a18.55,18.55,0,0,0,1.57-1.73.43.43,0,1,1,.68.52c-.38.47-1.19,1.14-1.67,1.61-.32.33-.34.57-.09.88a13,13,0,0,1,1.79,2.51C203.52,126.31,202.78,126.77,202.54,126.27Z"/><path class="cls-6" d="M207.49,126c-.61-1.52,0-3.79.13-4.71a.37.37,0,1,1,.74,0,10.53,10.53,0,0,0-.39,3.14c0,.1.05.08.08,0s.1-.19.13-.25a.3.3,0,0,1,.53.3,4.17,4.17,0,0,0-.45,1.08c0,.21.05.45-.14.62S207.64,126.34,207.49,126Zm2-.55a.38.38,0,1,1,.54-.53c.41.38,1.33.25,1.92.13s.66.69.15.82A3,3,0,0,1,209.54,125.42Zm.43-3.07a.36.36,0,1,1-.1-.71,4.54,4.54,0,0,1,2,0,.38.38,0,1,1-.13.74A3.79,3.79,0,0,0,210,122.35Z"/><path class="cls-6" d="M217.11,123.26a5.39,5.39,0,0,1,1.65.34,1.18,1.18,0,0,0-.11-.81c-.21-.36.48-.65.73-.18a1.91,1.91,0,0,1,.08,1.28,6.25,6.25,0,0,1,1,.65c.48.38,0,1.09-.47.69a5.21,5.21,0,0,0-.84-.62,3.76,3.76,0,0,1-1.45,1.56c-.53.31-.91-.29-.42-.6a3.23,3.23,0,0,0,1.21-1.3,4.94,4.94,0,0,0-1.78-.38,3.72,3.72,0,0,1-1,1.41,1.06,1.06,0,0,1-1.46,0c-.39-.49-.11-1.29.77-1.69a4.62,4.62,0,0,1,1.25-.33c.27-.57.62-1.27.83-1.76,0-.11.07-.17,0-.14a4,4,0,0,1-.9.19.37.37,0,0,1,0-.73,9.14,9.14,0,0,0,1.1-.2c.7-.13,1,.32.66.88s-.63,1.16-.9,1.74Zm-1.8.92c-.2.1-.55.43-.42.62s.36.08.5,0A2.52,2.52,0,0,0,216,124,2.39,2.39,0,0,0,215.31,124.18Z"/><path class="cls-6" d="M178.61,199a.48.48,0,0,1-.34-.13,9,9,0,0,1-.88,2.93.73.73,0,0,1-.66.43.66.66,0,0,1-.67-.63.75.75,0,0,1,.11-.39c1-1.69,1.19-4.35,1.19-6.82,0-1.06,0-2.09-.05-3v0a1.18,1.18,0,0,1,1.21-1.29c.56,0,1.13,0,1.69,0s1.08,0,1.59,0c1.29,0,1.37.8,1.37,1.86,0,1.52-.43,1.57-2.94,1.57l-1.65,0c0,.6,0,1.24,0,1.87a.54.54,0,0,1,.4-.16h.37v-.89a.52.52,0,0,1,.53-.54.52.52,0,0,1,.53.54v.89h.75v-.89a.53.53,0,0,1,.55-.54.53.53,0,0,1,.55.54v.89h.36a.51.51,0,0,1,.55.53.52.52,0,0,1-.55.54h-.36V198h.82a.5.5,0,0,1,.52.52.51.51,0,0,1-.52.53Zm-1,3a.67.67,0,0,1,.29-.51,4.7,4.7,0,0,0,1.37-1.74.49.49,0,0,1,.46-.29.75.75,0,0,1,.73.71c0,.46-1.36,2.48-2.12,2.48A.72.72,0,0,1,177.62,202Zm1.71-5.72H179a.53.53,0,0,1-.43-.19c0,.65-.07,1.29-.15,1.93a.41.41,0,0,1,.23,0h.72Zm-.75-4h2.9c.39,0,.44-.32.44-.56,0-.53,0-.57-1.63-.57-.42,0-.84,0-1.22,0a.48.48,0,0,0-.49.53Zm2.56,4h-.75V198h.75Zm.79,5.08a3.09,3.09,0,0,0-.73-1A.45.45,0,0,1,181,200a.61.61,0,0,1,.61-.57,2.26,2.26,0,0,1,1.45,1.51.73.73,0,0,1-.67.7A.53.53,0,0,1,181.93,201.38Zm.78,1.83a.67.67,0,0,1-.7-.66.7.7,0,0,1,.5-.65,8.15,8.15,0,0,0,2.81-1.68,5.26,5.26,0,0,1-1.25-2.37.64.64,0,0,1,.62-.65.6.6,0,0,1,.57.42,5.85,5.85,0,0,0,.93,1.66,4.82,4.82,0,0,0,1-2.09c0-.17-.11-.26-.34-.26h-.47c-.73,0-1.51,0-2.39,0h0a.56.56,0,0,1-.6-.57.58.58,0,0,1,.6-.6h3.48c.76,0,1.3.4,1.3,1.1a7.51,7.51,0,0,1-1.62,3.34,6.79,6.79,0,0,0,2.52,1.35.68.68,0,0,1,.5.66.78.78,0,0,1-.79.79,6.33,6.33,0,0,1-3.11-1.85A7.75,7.75,0,0,1,182.71,203.21Zm6.22-10.35a.5.5,0,0,1,.56-.52.62.62,0,0,1,.67.54V193c0,1.91-.65,2.22-2,2.22s-1.53-.7-1.53-2c0-.55,0-1.15,0-1.58,0-.19-.06-.45-.53-.45s-.7.06-.7.48a4.74,4.74,0,0,1-1,3.51.74.74,0,0,1-.56.27.72.72,0,0,1-.72-.67.56.56,0,0,1,.2-.42,2.87,2.87,0,0,0,.79-2.42c0-.21,0-.43,0-.67v-.05c0-1.15,1-1.15,1.64-1.15,1.91,0,2.23.07,2.23,1.55,0,.56,0,1.11,0,1.59v.29c0,.2,0,.49.34.49.5,0,.67-.06.67-1v-.19Z"/><path class="cls-6" d="M197.38,192.17h-4.7a.64.64,0,0,1-.67-.69.69.69,0,0,1,.67-.74h11.57a.68.68,0,0,1,.66.72.66.66,0,0,1-.66.71H199v1.89l.22,0a12.4,12.4,0,0,1,3.85,1.85.86.86,0,0,1,.38.71.87.87,0,0,1-.84.86,1,1,0,0,1-.57-.2,15.64,15.64,0,0,0-3-1.83v6.94a.75.75,0,0,1-.81.76.74.74,0,0,1-.79-.76Z"/><path class="cls-6" d="M182.59,182.07a2.36,2.36,0,0,1,.24-.4c.12-.16.08-.15-.06-.11-.57.19-.44.19-1,.39-.25.09-.46.17-.69.23-.67.18-.88-.7-.27-.83.16,0,.61-.12.85-.19s1.05-.24,1.82-.47a10.72,10.72,0,0,1,2.08-.45.46.46,0,0,1,.52.59c-.05.13-.21.29-.75.26a3.12,3.12,0,0,0-1.13.21,2.27,2.27,0,0,0-1,.9,1.71,1.71,0,0,0,1.55,2.69c.8,0,.85.87,0,.87A2.44,2.44,0,0,1,182.59,182.07Zm2.35.51c-.41-.18-.1-.65.27-.52a2.58,2.58,0,0,1,.8.49c.32.34-.16.83-.43.51A2.82,2.82,0,0,0,184.94,182.58Zm.77-.67c-.42-.16-.12-.65.26-.53a2.59,2.59,0,0,1,.8.46c.33.32-.12.83-.4.52A2.75,2.75,0,0,0,185.71,181.91Z"/><path class="cls-6" d="M190.84,184.58c0-.36.06-.57,0-.92,0-.85-1.2-.13-1.41.26a4.09,4.09,0,0,0-.48,1c-.14.6-.31.63-.46.66a.41.41,0,0,1-.45-.6,14.18,14.18,0,0,1,1.22-2.33c.44-.69.84-1.34,1.21-1.94.13-.22.34-.49.42-.64a.41.41,0,0,1,.71.42,2,2,0,0,1-.17.26l-.22.27a9.55,9.55,0,0,0-.81,1c-.2.28-.35.53-.52.78,0,.08,0,.07,0,0,.28-.25,1.6-.61,1.7.69a7.94,7.94,0,0,1,0,.85c0,.68.66.6,1.11.19a2.59,2.59,0,0,0,.7-1.08c.22-.57,1-.17.73.4a3.72,3.72,0,0,1-1,1.28C192.35,185.86,190.83,186,190.84,184.58Z"/><path class="cls-6" d="M198.36,181.55c.64-.06,1.13.32,1.16,1.18a4.73,4.73,0,0,1-.26,1.72,1.48,1.48,0,0,1-1.8.92c-.6-.18-.35-.88.11-.77a.72.72,0,0,0,1-.41,3.4,3.4,0,0,0,.24-1.33c0-.47-.16-.7-.51-.67l-.35,0a11.09,11.09,0,0,1-1.48,3.09c-.36.53-1.16.08-.66-.48a7.52,7.52,0,0,0,1.35-2.5l-.09,0a5.22,5.22,0,0,1-.83.1.37.37,0,1,1,0-.73c.24,0,.47,0,.75,0l.38,0a9.09,9.09,0,0,0,.24-1.22c.05-.5.83-.46.77.06a10.38,10.38,0,0,1-.22,1.08Zm2.8,1.73a2.69,2.69,0,0,0-1.09-1.32c-.37-.21,0-.79.44-.51a3.21,3.21,0,0,1,1.36,1.46C202.06,183.42,201.37,183.76,201.16,183.28Zm-.69-2.37c-.4-.15-.12-.62.24-.51a2.51,2.51,0,0,1,.78.43c.31.3-.1.79-.37.5A2.78,2.78,0,0,0,200.47,180.91Zm.66-.68c-.4-.13-.16-.63.21-.53a2.61,2.61,0,0,1,.8.4c.32.29-.08.79-.36.52A2.34,2.34,0,0,0,201.13,180.23Z"/><path class="cls-6" d="M106.51,216.45v2.89a9.6,9.6,0,0,0,4,.59c1.57,0,3.29-.12,4.69-.22h.07a.66.66,0,0,1,.65.7.77.77,0,0,1-.75.77c-1.08.1-2.28.17-3.47.17-3.17,0-6-.27-7.53-2.36-.49,2-.81,2.26-1.28,2.26a.64.64,0,0,1-.69-.58.82.82,0,0,1,.09-.33,10.94,10.94,0,0,0,1-4.8.59.59,0,0,1,.66-.57.63.63,0,0,1,.69.59c0,.35-.13,1.64-.14,1.77a3.05,3.05,0,0,0,.68,1.09V214h-1.93a.55.55,0,0,1-.6-.56.59.59,0,0,1,.6-.61h1.93v-1.33h-1.46a.58.58,0,0,1-.63-.58.61.61,0,0,1,.63-.63h1.46v-1.54a.65.65,0,0,1,.68-.64.65.65,0,0,1,.71.64v1.54h1.25a.58.58,0,0,1,.61.6.59.59,0,0,1-.61.61h-1.27v1.33h1.62a.56.56,0,0,1,.58.58.57.57,0,0,1-.58.59h-1.62v1.29h1.33a.59.59,0,0,1,0,1.17Zm6.1-4.51a13.37,13.37,0,0,0,.36,3.46,10.69,10.69,0,0,0,.83-2.49.49.49,0,0,1,.52-.4.71.71,0,0,1,.73.64,10.24,10.24,0,0,1-1.53,3.61c.12.2.55.91.78.91s.32-.27.53-.93a.56.56,0,0,1,.54-.44.72.72,0,0,1,.7.67c0,.16-.52,2.14-1.77,2.14-.81,0-1.43-.92-1.65-1.31a5.53,5.53,0,0,1-2.8,1.64.59.59,0,0,1-.63-.57.67.67,0,0,1,.49-.62,5.05,5.05,0,0,0,2.38-1.66,16.12,16.12,0,0,1-.73-4.65h-.57c-.47,0-.54.23-.56.54,0,.64,0,1.49,0,2.43V216c.18-.11.37-.22.52-.33a.51.51,0,0,1,.3-.1.55.55,0,0,1,.52.55.66.66,0,0,1-.32.54,10.13,10.13,0,0,1-3.41,1.62.61.61,0,0,1-.58-.64.6.6,0,0,1,.44-.6,9.86,9.86,0,0,0,1.25-.43v-1.38c0-1.13,0-2.2,0-3.17,0-.65.39-1.33,1.53-1.34l.85,0c0-.68,0-1.34,0-2v0A.65.65,0,0,1,112,208a.62.62,0,0,1,.67.63q0,.94,0,2c.69,0,1.39,0,2.06,0a.63.63,0,0,1,0,1.26Zm1.32-1.68a2.77,2.77,0,0,0-.88-.86.35.35,0,0,1-.18-.33.62.62,0,0,1,.59-.57c.38,0,1.48.7,1.48,1.28a.71.71,0,0,1-.62.7A.48.48,0,0,1,113.93,210.26Z"/><path class="cls-6" d="M120.17,213.57a.77.77,0,0,1-.73.48c-.37,0-.73-.22-.73-.56a.65.65,0,0,1,.1-.32,15.21,15.21,0,0,0,1.33-2.79c0-.18-.18-.2-.32-.2h-1.19a.63.63,0,0,1-.64-.67c0-.7.56-.7,1-.7.61,0,1.41,0,1.73,0,.7,0,1.16.34,1.16,1,0,.31,0,.52-1,2.48h.5a1.14,1.14,0,0,1,1.22,1.26,14.1,14.1,0,0,1-1.26,4.62c1.28,1.41,3.28,1.74,5.36,1.74,1.25,0,2.53-.13,3.71-.19h0a.72.72,0,0,1,.75.73.8.8,0,0,1-.81.77c-1.08.1-2.18.18-3.24.18-2.52,0-4.9-.44-6.48-2.09-.52.77-2,2.32-2.55,2.32a.84.84,0,0,1-.79-.81.73.73,0,0,1,.38-.62,6.64,6.64,0,0,0,2.07-2.05,7.74,7.74,0,0,1-.55-1.23c-.5.69-.74.89-1,.89a.7.7,0,0,1-.7-.67.84.84,0,0,1,.33-.62,3.69,3.69,0,0,0,1.08-1.6.53.53,0,0,1,.54-.34.63.63,0,0,1,.67.57.34.34,0,0,1,0,.14.45.45,0,0,1,0,.11,5.86,5.86,0,0,0,.41,1.41,8.77,8.77,0,0,0,.69-2.86c0-.29-.15-.37-.33-.37Zm10-3.43-2,0v1.33c1,0,2.08.06,2.12,1.41,0,.74.05,1.43.05,2.13s0,1.58-.05,2.44-.7,1.42-1.66,1.48c-.61,0-1.37.05-2.09.05s-1.25,0-1.73,0c-1.13-.06-1.64-.63-1.67-1.56,0-.69,0-1.48,0-2.28s0-1.6,0-2.32a1.29,1.29,0,0,1,1.38-1.29l.59,0c0-.41,0-.91,0-1.32H123.4a.6.6,0,0,1-.64-.62.6.6,0,0,1,.64-.61h6.82a.62.62,0,1,1,0,1.23Zm-5.71,5.57a3.83,3.83,0,0,0,.74-2.71v-.42l-.2,0c-.63,0-.63.05-.63,2.49v.76Zm1.83-3.14a6.33,6.33,0,0,1-.83,3.83.67.67,0,0,1-.54.31.61.61,0,0,1-.53-.31c0,.22,0,.42,0,.62,0,.68.22.71,2.38.71.58,0,1.16,0,1.56,0,.62,0,.71-.17.71-1.42a2.48,2.48,0,0,1-.39,0c-1.22,0-1.7-.34-1.7-1.23,0-.22,0-1.34,0-2.48Zm.7-2.45h-.68c0,.4,0,.89,0,1.31h.7Zm1.12,2.46v2.19c0,.31.2.36.59.36a1.94,1.94,0,0,0,.35,0c0-2.48,0-2.49-.61-2.51Z"/><path class="cls-6" d="M107.14,203.41a.4.4,0,0,1,.63-.5c.65.67,1.89.62,3,.29.63-.18.81.65.2.84C109.5,204.52,107.66,204.16,107.14,203.41Zm.85-3.14c-.6.12-.7-.7,0-.8a8.2,8.2,0,0,1,2.43,0c.64.14.48.93-.14.8A5.77,5.77,0,0,0,108,200.27Z"/><path class="cls-6" d="M115.19,202.9c0-.81,0-1.46.09-2.28,0-.5.08-1.25.06-1.73s.85-.52.83,0-.07,1.22-.11,1.74a22.36,22.36,0,0,0-.13,2.26c0,1.12,1.4,1,2.73,0a.43.43,0,1,1,.53.67C117.7,204.75,115.26,205,115.19,202.9Z"/><path class="cls-6" d="M124.88,200.27a6,6,0,0,1-1.54,3.12c-.58.54-1.22.25-1.56-.42a2.66,2.66,0,0,1,1-3.1,3.17,3.17,0,0,1,3.3-.17,2.29,2.29,0,0,1,.71,3.23A3.22,3.22,0,0,1,125,204.2c-.68.17-.91-.6-.26-.76a2.35,2.35,0,0,0,1.42-.86,1.65,1.65,0,0,0-.42-2.35,1.91,1.91,0,0,0-.94-.31A.37.37,0,0,1,124.88,200.27Zm-1.69.15a2,2,0,0,0-.77,2.17c.11.22.31.34.5.17a4.62,4.62,0,0,0,1.19-2.56.45.45,0,0,1,.07-.24A2.57,2.57,0,0,0,123.19,200.42Z"/><path class="cls-4" d="M160.32,142.1c4,6.41,10.06,5.6,16.77,5.8s14.18,0,20,4.89c2.47,2.05,4.31,4.76,6.36,7.24,10.35,12.52,25.87,19,40.43,23"/><path class="cls-4" d="M136.15,235c-.07-15.21,10.14-36.45,19.87-47.46,9.46-10.72,14.59-25.91,16.38-40.09"/><path class="cls-5" d="M282.72,23.59c1.35-1.6,5.13-4.88,4.43-7.08-2.58-8.18-9.35,2.72-11.11,5.06-3,4-5.92,8-9,11.94C261.28,41,255,48.05,249,55.27c-9.3,11.06-20,20.86-30.72,30.5s-21.86,18.84-32.76,28.29c-13,11.28-24.7,24.05-37.71,35.37-6.24,5.44-12.37,10.9-17.38,17.65a92.32,92.32,0,0,1-31.07,27.2C93,197.61,86.73,201.09,81.41,206c-8.2,7.58-14,16.34-13.35,28.64.11,2.17-.76,5.08.27,7.11,1.53,3,5.54,2.39,6.65-.82s-.76-8.28-.11-11.94a28.24,28.24,0,0,1,5.89-12.52,50.81,50.81,0,0,1,16.31-13.21c12.47-6.59,23.77-14.59,33.16-25.29,4.65-5.29,8.15-11.53,13.61-16.14,15.48-13.1,29.54-27.73,44.52-41.36,11.08-10.09,22.84-19.43,34-29.44,14.25-12.77,28-26,39.67-41.36,4.37-5.77,8.65-11.61,13.18-17.25C277.65,29.39,280.24,26.53,282.72,23.59Z"/></g></svg>