<svg xmlns="http://www.w3.org/2000/svg" viewBox="0 0 240 160"><defs><style>.cls-1{opacity:0.3;}.cls-2{fill:#ea5e4c;}.cls-3{fill:#a3716d;}.cls-4{fill:#ed7952;}.cls-5{fill:#4d4d4d;}</style></defs><g id="レイヤー_1" data-name="レイヤー 1"><g class="cls-1"><path class="cls-2" d="M139.34,46.7c.76,1,1.15,2.26,2,3.2,2.8,3.23,8.08,1.06,12.28,1.87,2.37.46,4.43,1.93,6.71,2.72s5.27.68,6.6-1.34c1.78-2.7,0-7.69,3.09-8.7,1.94-.64,3.7,1.27,4.85,2.95a2.12,2.12,0,0,1,.46,1c0,1-1.17,1.45-2.12,1.77a10.66,10.66,0,0,0-7,11.3c.27,1.89,1.07,3.7,1.07,5.6.05,13.24-22,11.64-27.08,2.81-3.22-5.58.46-7.26,1.41-12,1.17-5.87-3.59-6.12-5.38-12.13A2.42,2.42,0,0,1,139.34,46.7Z"/><path class="cls-3" d="M50.46,49.41c2.74-2.45,5.79-5,9.46-5.23a14.87,14.87,0,0,1,5.85,1.2,74.43,74.43,0,0,1,10,4.56c2.74,1.49,5.77,4,5.15,7a7.92,7.92,0,0,1-1.6,3L70.19,72.28c-6.3,8.46-19.41,16.42-28,7.34C32.39,69.18,41.91,57.06,50.46,49.41Z"/><path class="cls-4" d="M75.77,103.27c2.07-1.29,4.59-1.85,6.41-3.48C86.45,96,85,88.13,89.42,84.53a11.13,11.13,0,0,1,5-2c4.82-.91,10-.71,14.39,1.44s7.93,6.43,8.34,11.32a2.32,2.32,0,0,0,.45,1.47c.56.55,1.49.29,2.24,0a15.6,15.6,0,0,1,18,7.39,7.29,7.29,0,0,1,1,3.92,7.9,7.9,0,0,1-1.18,3.3c-5,8.73-16.78,12.88-26.18,9.25a8.42,8.42,0,0,0-2.42-.72c-1.79-.1-3.34,1.15-4.79,2.21-6.38,4.64-18.35,5.52-25.81,3.93C67,123.65,65.36,109.75,75.77,103.27Z"/></g><path class="cls-5" d="M136.93,63.05a.08.08,0,0,0,0,0,.67.67,0,0,0-.14-.63,1.63,1.63,0,0,0-.54-.39A8,8,0,0,0,132,60.91a31,31,0,0,0-3.74.85c-1.41.29-2.84.51-4.27.7a3.31,3.31,0,0,1-1.33,0,1,1,0,0,1-.34-2,2.92,2.92,0,0,1,1.2-.38,17.45,17.45,0,0,0,3.68-.86,28.12,28.12,0,0,1,3.61-.93,10.18,10.18,0,0,1,3.77-.13c.56.1,2.7,1.24,3.08.7a.54.54,0,0,0-.07-.59,2.3,2.3,0,0,0-.81-.64,7.25,7.25,0,0,0-2.93-.77c-1-.1-2-.4-3-.51-3-.34-5.85.5-8.74,1.07-1,.21-2.38.52-2.71-.79s1.09-1.56,2.07-1.84a23.33,23.33,0,0,1,16.07.8c1.48.66,2.26.52,2.92-1,.79-1.84-.42-2.17-1.68-2.54A7.41,7.41,0,0,1,134.91,50c-1.32-1.54-1.07-4.5-.66-6.34a1.43,1.43,0,0,1,.37-.77,1.11,1.11,0,0,1,1.09-.13c.36.12.69.33,1,.48a1.22,1.22,0,0,0,.65.09,1.17,1.17,0,0,0,.62-.43c.3-.37.5-.82.81-1.18a1.27,1.27,0,0,1,1.26-.5,1.65,1.65,0,0,1,.54.36c2.13,2,3.63,3.76,3,6.8a3.14,3.14,0,0,1-.45,1.18,3.89,3.89,0,0,0-.49.66c-.7,1.53,3.59,1.44,4.29,1.29a1.15,1.15,0,0,0,.91-.77,6.54,6.54,0,0,0,0-1c.07-.79.93-1.26,1.71-1.36a2.67,2.67,0,0,1,3,1.74,4.89,4.89,0,0,0,.24,1.22,2.15,2.15,0,0,0,1.49.91c.76.2,1.53.37,2.31.5a1.23,1.23,0,0,0,.66,0c.29-.13.41-.47.57-.75a2,2,0,0,1,3.66.89c0,.53-.08,1.21.39,1.46a1.08,1.08,0,0,0,.48.08c1.83,0,1.92-1.29,2.68-2.58a9.71,9.71,0,0,0,1.82-4.59c0-2.16,2.38-4,4-5a3.51,3.51,0,0,1,1.21-.56,1.26,1.26,0,0,1,1.23.36c.43.53.29,1.5.92,1.75s1.25-.36,1.74,0a.86.86,0,0,1,.26.36,2.65,2.65,0,0,1-.12,2,6.49,6.49,0,0,0-.38,1.23,3.88,3.88,0,0,1-.63,1.14,10,10,0,0,1-1.45,2,7.82,7.82,0,0,1-1,.76,6.77,6.77,0,0,1-3.33,1.41,2.84,2.84,0,0,0-2.33.93,5.32,5.32,0,0,0-.71,1.48c-.58,1.75-.36,2.72,1.83,2.15,1.32-.34,2.69-.47,4-.74A13.42,13.42,0,0,1,181,57.8a34.37,34.37,0,0,1,3.72,2.25c.91.62,2.24,1.25,2.27,2.52,0,1.88-2,1.33-3.16.82-2.51-1.15-4.15-3.22-7-3.69a22.06,22.06,0,0,0-7.37.49c-1,.16-2,.4-1.61,1.77.42,1.53,2.38.74,3.53.78a17.07,17.07,0,0,1,3.83.59,16.76,16.76,0,0,1,3,.84,13.89,13.89,0,0,1,2.88,2.54,29.73,29.73,0,0,0,3,2.68,1.36,1.36,0,0,1,.23,2.2,1.69,1.69,0,0,1-2.32,0c-1.59-1.22-3.2-2.42-4.7-3.75a7.41,7.41,0,0,0-4.73-2c-1.3-.07-4.23-.41-4.41,1.36-.11,1.1.54,1.5,1.45,1.68a36.93,36.93,0,0,0,3.73.67c3.59.33,5.25,2.75,6.43,5.74.32.81.55,1.7-.43,2.22s-1.68-.3-2-1c-1.5-3.88-4.82-4.62-8.36-5.11-1.23-.17-2.48-.32-2.84,1.14s1.2,1.23,1.91,1.49a9.89,9.89,0,0,1,5.53,4.44c.43.78.77,1.65-.08,2.28s-1.6,0-2.11-.72c-1.05-1.46-2-2.91-3.85-3.6-2.29-.87-4.3-1.69-6.52.58-1.68,1.7-4.27,1.66-6.61,1.28-6.17-1-12.17-2.32-16.81-7.09-1.54-1.58-3.47-.73-5.33-.09-1.41.48-3.52,2.35-4.32.14-.7-1.9,2.09-1.73,3.33-2.48a7.49,7.49,0,0,1,3.13-1c.56-.06,2.38.23,1.73-1-.56-1-2.87-1.09-3.86-1.13a31.89,31.89,0,0,0-8.41,1.21c-.84.2-1.83.26-2.07-.81-.21-.9.67-1.15,1.34-1.47a18.52,18.52,0,0,1,7.12-1.79,23.15,23.15,0,0,1,3.72.14C134.53,63,136.61,63.62,136.93,63.05Zm27.74,2.65,0-.23A11,11,0,0,0,164,59.8c-1.06-2.49-3.49-3.4-5.95-4-1.31-.34-2.54-1.05-3.85-1.39-3.13-.81-6.85-1.17-9.74.58-3.27,2-3.36,5.33-4,8.66a18.66,18.66,0,0,0-.46,5.15c.13,1.54,1,2.18,2.31,2.86a32.57,32.57,0,0,0,12.3,3.77,10.08,10.08,0,0,0,8.54-4.4A13,13,0,0,0,164.67,65.7ZM173,48.28a3.61,3.61,0,0,0,.77-1.17c.14-.36.68-.78.38-1.21a.38.38,0,0,0-.14-.11h-.14a5.57,5.57,0,0,0-.8.22,4,4,0,0,1-.77.1.44.44,0,0,1-.28-.05c-.14-.1-.12-.31-.1-.49a2,2,0,0,0,0-.65.77.77,0,0,0-.14-.38.66.66,0,0,0-.55-.21c-1,.06-1.46,1.23-2,1.9a4.74,4.74,0,0,0-.86,2.13c-.12.77-.11,1.58,1,1.52a7.18,7.18,0,0,0,1.22-.18,7.9,7.9,0,0,0,1-.44A4.49,4.49,0,0,0,173,48.28Zm-31.92-2.13c-.05-.58-.49-2.07-1.24-2.14a.73.73,0,0,0-.58.36c-.38.46-.79,1-1.38,1a3.8,3.8,0,0,1-1-.24.74.74,0,0,0-.88.3.89.89,0,0,0,0,.43c.17,1.18.77,2.89,2,3.27C140.37,49.88,141.28,48.21,141.12,46.15Z"/><path class="cls-5" d="M61.72,43.47a20.61,20.61,0,0,1,5,.69c3.35,1.2,6.19-.79,6.47-4.42a17.8,17.8,0,0,1,.15-2.2c.33-1.7,1.25-3,3.09-3.08s3.38.74,3.75,2.68c.44,2.32,1.25,4,3.76,4.82,1.76.56,2.43,2.26,2.08,4.14-.4,2.12-2.06,2.42-3.84,2.48-.42,0-.84,0-1.26,0-2.1-.12-3.51-.32-1.81,2.68,3.53,6.27-.34,18.72-6.84,22.32C68,75.92,64,78.35,60.73,82.11c-3.95,4.49-12,4.1-17.23-.54-1.76-1.58-2.75-1.19-4.16.05a11.16,11.16,0,0,0-3,4.39,9.76,9.76,0,0,1-2,3.56,3.26,3.26,0,0,1-4.05.68,2.6,2.6,0,0,1-1.29-3.49c.94-2.29.4-3.36-2.07-4.08-2.95-.85-3.2-3.15-.79-5.15,2.24-1.84,5-2.59,7.63-3.73,1.75-.77,2.37-1.66,1.71-3.63a17.21,17.21,0,0,1-.7-5c-.13-4.15,1.89-6.51,6-7,1.7-.2,2.91-.57,3.5-2.47C46.75,48,53.43,43.4,61.72,43.47Zm15.9,14.3c.07-4.73-.5-6.11-2.87-6.55a12.53,12.53,0,0,1-6.31-3.1c-5.44-4.93-20.62.23-21.25,7.43-.32,3.67-2.53,5.55-6.29,5.66a3.37,3.37,0,0,0-3.64,3.39C37,69.05,38.22,73,41.69,76a10.09,10.09,0,0,1,2.2,2.31c3.23,5.18,11.92,5.83,15.71,1a20.49,20.49,0,0,1,8.57-6.74C75.38,69.7,77.08,63.69,77.62,57.77ZM31.35,88a1.58,1.58,0,0,0,1.87-1c1.37-3.17,2.54-6.46,5.69-8.45A.89.89,0,0,0,39,76.93c-.83-.68-1-2.56-2.42-2a92.65,92.65,0,0,0-8.52,4c-.83.43-1.27,1.48.1,1.74C32.61,81.48,32.37,84.47,31.35,88ZM80.17,46c1-.17,2.62.77,3-.59.49-1.73-1.44-1.65-2.5-2.1-2.06-.86-2.53-2.61-2.77-4.57-.09-.69-.15-1.63-1.11-1.65-1.21,0-1.17,1-1.16,1.83.05,2.54-.56,4.74-2.71,6.38-.55.42-1.91.68-1.15,1.79a1.9,1.9,0,0,0,3,.43A7.56,7.56,0,0,1,80.17,46Z"/><path class="cls-5" d="M103.59,107.36c-4.62.63-9.06-2.2-13.6-4.17S85,96.54,85,92.09c0-4.78,2-8.4,6.24-10.5a22.11,22.11,0,0,1,16.92-1.16c7.15,2.31,12,12.45,9.55,19.49C116.09,104.63,110.69,107.64,103.59,107.36Zm-3-25c-3.64.09-7.09.78-10,3.15-3.89,3.14-4.1,12.4.08,14.88,5.46,3.23,11.49,5.17,18,3.86a8.31,8.31,0,0,0,6.7-8C115.16,87.52,109.27,82,100.54,82.38Z"/><path class="cls-5" d="M192.16,118.37c-1.83,2.84-4,3-5.72.28a6.12,6.12,0,0,0-5.61-3,45.08,45.08,0,0,1-22.16-6.39c-1.81-1.11-3-2.52-3-4.39s1.9-2.11,3.23-2.55c7.43-2.46,14.66-1,21.4,2.13,4,1.84,7.5,3.19,11.89,1.6,2.73-1,4,.46,3.32,3.34A49.25,49.25,0,0,1,192.16,118.37Zm-33.79-12.53c6.89,5.47,14.94,6.81,23.19,7.29,2.71.16,4.88.52,6.2,3.27.84,1.74,1.86,1.35,2.44-.41.53-1.59,1.17-3.15,1.66-4.76.21-.66.9-1.37.32-2s-1.45-.17-2,.1c-3.26,1.48-6.06.51-8.9-1.26-5.48-3.43-11.71-3.88-17.94-4A7.07,7.07,0,0,0,158.37,105.84Z"/><path class="cls-5" d="M87.68,130.18c-5-.45-11-2.17-15.35-7.34-4.9-5.81-1.54-18.37,5.53-21.17A9.86,9.86,0,0,1,80,101.1c.81-.11,1.84-.28,2,.88.14.89-.68,1.16-1.38,1.46a12.92,12.92,0,0,0-7.81,13.91,5.87,5.87,0,0,0,1.33,3.17c4.74,5.15,10.8,7.74,17.57,6.54,6.26-1.11,9.93-5.89,11.93-11.86.43-1.26-.07-3.76,1.93-3.29,2.28.53,1,2.81.65,4.29A19.16,19.16,0,0,1,87.68,130.18Z"/><path class="cls-5" d="M122.18,120.25c-4,.35-7.6-2-11.09-4.58-.73-.54-1.62-1.37-.75-2.36s1.54,0,2.2.42c4.18,3,8.61,4.68,13.89,3.51,4.61-1,8.39-4.78,8.85-9.13.6-5.82-1.39-9.32-6.62-11.47-2-.84-4-1.92-6.29-1.87-.77,0-1.48-.31-1.52-1.25s.62-1.32,1.33-1.55a3.37,3.37,0,0,1,1.84-.21c9.15,2.49,14.63,5.6,14.34,15.35-.23,7.49-6.38,13-14.88,13.14Z"/><path class="cls-5" d="M87.17,110.68a1.15,1.15,0,0,0,.82.22,2,2,0,0,0,.69-.3,18.77,18.77,0,0,1,5.2-2,2.8,2.8,0,0,1,1.07-.09,1,1,0,0,1,.83.61c.34.94-.78,1.57-1.56,1.59a6.81,6.81,0,0,0-5.76,2.63c-1.27,1.55-3,.34-3.31-1.56a3.52,3.52,0,0,0-1.21-2.48c-.89-.64-1.6-.77-2.06-1.9a2.28,2.28,0,0,1-.18-1.45,2.41,2.41,0,0,1,1.17-1.27,6.2,6.2,0,0,1,3.72-1.11,1.39,1.39,0,0,1,.87.33.62.62,0,0,1,.06.85,1.06,1.06,0,0,1-.73.18,5,5,0,0,0-2.2.58A1.28,1.28,0,0,0,84,106c-.28.57.55.86.89,1.19A5.71,5.71,0,0,1,86,108.75a9.76,9.76,0,0,0,.65,1.43A1.76,1.76,0,0,0,87.17,110.68Z"/><path class="cls-5" d="M127.3,100.15a2.19,2.19,0,0,1-.12.84c-.49,1.25-1.86,1.88-3,2.64-1,.64-1.89,2.2-3.15,2-.79-.1-1.06-.74-1.68-1.13a9.43,9.43,0,0,0-2.08-.7c-.17-.07-.37-.19-.34-.37a.54.54,0,0,1,.11-.18,2.32,2.32,0,0,1,1.85-.66c.61.07,1.29.53,1.9.42s.91-.49,1.46-.57a3.06,3.06,0,0,0,2.21-1.52c.52-1.13-.62-1.27-1.48-1.58a2.94,2.94,0,0,0-1.26-.26c-.82.07-1.82.91-2.29-.32a1.48,1.48,0,0,1,1-1.78,3,3,0,0,1,2.21.29,14.15,14.15,0,0,0,3.3,1.07,1.8,1.8,0,0,1,.55.15A1.85,1.85,0,0,1,127.3,100.15Z"/><path class="cls-5" d="M49,67.18c.09,1.38-.55,2-1.43,2A1.45,1.45,0,0,1,46,67.65a1.34,1.34,0,0,1,1.31-1.47C48.28,66.09,49,66.45,49,67.18Z"/><path class="cls-5" d="M61.81,67.18c.09,1.38-.56,2-1.44,2a1.45,1.45,0,0,1-1.58-1.56,1.33,1.33,0,0,1,1.31-1.47C61,66.09,61.73,66.45,61.81,67.18Z"/><path class="cls-5" d="M52.07,74.31c.09,1.38-.55,2-1.44,2a1.45,1.45,0,0,1-1.58-1.56,1.33,1.33,0,0,1,1.31-1.47C51.31,73.22,52,73.58,52.07,74.31Z"/><path class="cls-5" d="M61.79,54.89c-.79-.09-1.39-.39-1.48-1.3a1.24,1.24,0,0,1,1.33-1.5,1.5,1.5,0,0,1,1.59,1.38C63.26,54.32,62.62,54.75,61.79,54.89Z"/><path class="cls-5" d="M55.35,62.52c-.79-.09-1.4-.39-1.48-1.29a1.25,1.25,0,0,1,1.33-1.51,1.52,1.52,0,0,1,1.59,1.38C56.82,62,56.17,62.38,55.35,62.52Z"/><path class="cls-5" d="M68.22,61.45c-.08.95-.7,1.19-1.51,1.1-1-.11-1.55-.71-1.3-1.66a1.56,1.56,0,0,1,1.91-1.18C68.15,59.91,68.33,60.66,68.22,61.45Z"/><path class="cls-5" d="M108.73,89.28a.67.67,0,0,1-.17.44,3.23,3.23,0,0,1-.47.51c-.22.16-.46.3-.68.47a7.91,7.91,0,0,0-2,2.49,16.41,16.41,0,0,1-2,3.37c-1.23,1.37-2.72.07-3.11-1.29a3.91,3.91,0,0,0-3.08-3.07,3.21,3.21,0,0,1-2.57-2.9,2.23,2.23,0,0,1,2.56-2.09,1.94,1.94,0,0,0,1.93-.91c.51-.88.57-1.75,1.38-2.47a1.82,1.82,0,0,1,1.56-.6,2.73,2.73,0,0,1,1.37,1.16,14.23,14.23,0,0,0,.57,1.38,3.16,3.16,0,0,0,1.46,1,20.49,20.49,0,0,1,2,1,3.39,3.39,0,0,1,1,.67A1.35,1.35,0,0,1,108.73,89.28Zm-11.42.84a10.23,10.23,0,0,0,1.4.35,6.16,6.16,0,0,1,1.58.74,4.43,4.43,0,0,1,1.24,1.31c.26.43.31.91.58,1.33a.18.18,0,0,0,.08.09c.08,0,.17,0,.23-.1a6.48,6.48,0,0,0,1-1.36,6,6,0,0,1,1.87-2.54c.2-.12.44-.19.64-.32a.59.59,0,0,0,.29-.61.83.83,0,0,0-.51-.42c-.86-.36-2.06-.53-2.66-1.31l-.82-1.07a1,1,0,0,0-.29-.29.79.79,0,0,0-1,.33,8,8,0,0,0-.49,1,2.13,2.13,0,0,1-1.12,1c-.51.16-1.14.05-1.68.18a1.13,1.13,0,0,0-.83.52.79.79,0,0,0,.06.73A1,1,0,0,0,97.31,90.12Z"/></g></svg>