<svg xmlns="http://www.w3.org/2000/svg" viewBox="0 0 240 30"><defs><style>.cls-1{fill:#37bef0;stroke:#37bef0;stroke-linecap:round;stroke-linejoin:round;stroke-width:0.93px;}</style></defs><g id="レイヤー_1" data-name="レイヤー 1"><path class="cls-1" d="M10.31,21l1.44-1.09A5,5,0,0,0,16,22.2c2,0,3.55-1.21,3.55-3.11,0-1.23-.81-2-2.06-2.73l-1.93-1.15A4.53,4.53,0,0,1,13,11.3a4.86,4.86,0,0,1,5.16-4.6A5.93,5.93,0,0,1,22.87,9L21.59,10.2A4.63,4.63,0,0,0,18,8.4a2.82,2.82,0,0,0-3,2.69c0,1.27.93,2,2.14,2.68l1.93,1.14a4.23,4.23,0,0,1,2.48,3.9c0,3-2.38,5.07-5.74,5.07A6.39,6.39,0,0,1,10.31,21Z"/><path class="cls-1" d="M35.1,8.7H30.29L30.63,7H42.22l-.34,1.7H37.07l-3,14.88h-2Z"/><path class="cls-1" d="M53.66,7h2.26l1.92,16.58h-2l-.86-9.52c-.15-1.76-.33-3.51-.46-5.4h-.1c-.88,1.91-1.72,3.58-2.65,5.4l-4.9,9.52H44.65Zm-4.59,9.87h7.28L56,18.4H48.68Z"/><path class="cls-1" d="M68.86,17.1,66.16,7h2l1.14,4.77c.28,1.23.53,2.34.83,3.61h.08C71,14.14,71.71,13,72.5,11.75L75.64,7h2.11L70.82,17.1l-1.3,6.48h-2Z"/></g></svg>