<svg xmlns="http://www.w3.org/2000/svg" viewBox="0 0 240 30"><defs><style>.cls-1{fill:#37bef0;stroke:#37bef0;stroke-linecap:round;stroke-linejoin:round;stroke-width:0.93px;}</style></defs><g id="レイヤー_1" data-name="レイヤー 1"><path class="cls-1" d="M14.19,7h2l-3,14.92h7l-.33,1.66H10.88Z"/><path class="cls-1" d="M34.49,7h2.27l1.91,16.58h-2l-.86-9.52c-.14-1.76-.32-3.51-.45-5.4h-.1c-.88,1.91-1.72,3.58-2.65,5.4l-4.9,9.52H25.49Zm-4.58,9.87h7.27l-.35,1.53H29.52Z"/><path class="cls-1" d="M49.09,7h2l3.77,10.62,1.07,3.47H56c.21-1.64.41-3.58.75-5.29L58.51,7H60.4L57.09,23.58H55.15L51.41,13,50.33,9.43h-.1c-.22,1.71-.46,3.56-.81,5.24l-1.76,8.91H45.77Z"/><path class="cls-1" d="M69.89,7H73c4.6,0,7,2.41,7,6.47,0,6-3.36,10.11-9,10.11H66.57ZM71,22c4.29,0,7-3.44,7-8.38,0-3.11-1.76-5-5.09-5H71.52L68.85,22Z"/><path class="cls-1" d="M86.12,21l1.44-1.09a5,5,0,0,0,4.27,2.33c2,0,3.55-1.21,3.55-3.11,0-1.23-.82-2-2.07-2.73l-1.92-1.15a4.51,4.51,0,0,1-2.55-3.91C88.84,8.81,91,6.7,94,6.7A5.89,5.89,0,0,1,98.68,9L97.4,10.21A4.61,4.61,0,0,0,93.84,8.4a2.82,2.82,0,0,0-3,2.69c0,1.27.93,2,2.15,2.68l1.93,1.14a4.25,4.25,0,0,1,2.48,3.9c0,3-2.38,5.07-5.75,5.07A6.4,6.4,0,0,1,86.12,21Z"/><path class="cls-1" d="M105.21,17.2c0-5.22,3.42-10.5,8.55-10.5a4.67,4.67,0,0,1,4.08,2.45l-1.38,1a3.2,3.2,0,0,0-2.8-1.79c-3.94,0-6.45,4.6-6.45,8.61,0,3,1.27,5.17,4.22,5.17A5.3,5.3,0,0,0,115,20.7l.9,1.27a7.18,7.18,0,0,1-4.77,1.91C107.31,23.88,105.21,21.16,105.21,17.2Z"/><path class="cls-1" d="M130.48,7h2.26l1.92,16.58h-2l-.86-9.52c-.15-1.76-.32-3.51-.45-5.4h-.1c-.88,1.91-1.73,3.58-2.66,5.4l-4.89,9.52h-2.18Zm-4.58,9.87h7.27l-.35,1.53h-7.31Z"/><path class="cls-1" d="M145.07,7h4.67c3.12,0,5.21,1.18,5.21,4.05,0,4.07-3,5.87-7.25,5.87H145l-1.32,6.66h-2Zm2.71,8.33c3.41,0,5.22-1.37,5.22-4,0-1.92-1.32-2.72-3.75-2.72H146.7l-1.32,6.74Z"/><path class="cls-1" d="M164.13,7h9.14l-.33,1.66h-7.2L164.68,14h6.09l-.34,1.66h-6.06l-1.28,6.23h7.43l-.34,1.66h-9.36Z"/></g></svg>