<svg xmlns="http://www.w3.org/2000/svg" viewBox="0 0 240 30"><defs><style>.cls-1{fill:#00a3df;stroke:#00a3df;stroke-linecap:round;stroke-linejoin:round;stroke-width:0.93px;}</style></defs><g id="レイヤー_1" data-name="レイヤー 1"><path class="cls-1" d="M16.22,7h9.14L25,8.66H17.83l-1.14,5.75h6.09l-.33,1.66H16.39l-1.52,7.51h-2Z"/><path class="cls-1" d="M30.65,16.94C30.65,11.89,34,6.7,38.72,6.7c3.69,0,5.73,2.75,5.73,6.94,0,5.06-3.31,10.24-8.07,10.24C32.68,23.88,30.65,21.13,30.65,16.94ZM42.44,13.8c0-3.24-1.19-5.4-3.83-5.4-3.56,0-6,4.5-6,8.39,0,3.23,1.2,5.39,3.83,5.39C40,22.18,42.44,17.68,42.44,13.8Z"/><path class="cls-1" d="M51.81,16.94c0-5.05,3.31-10.24,8.07-10.24,3.69,0,5.72,2.75,5.72,6.94,0,5.06-3.31,10.24-8.07,10.24C53.84,23.88,51.81,21.13,51.81,16.94ZM63.6,13.8c0-3.24-1.2-5.4-3.83-5.4-3.56,0-6,4.5-6,8.39,0,3.23,1.2,5.39,3.83,5.39C61.2,22.18,63.6,17.68,63.6,13.8Z"/><path class="cls-1" d="M75.65,7h3.07c4.6,0,7,2.41,7,6.47,0,6-3.37,10.11-9,10.11H72.34Zm1.13,15c4.29,0,7-3.44,7-8.38,0-3.11-1.76-5-5.09-5H77.28L74.61,22Z"/></g></svg>