<svg xmlns="http://www.w3.org/2000/svg" viewBox="0 0 240 30"><defs><style>.cls-1{fill:#37bef0;stroke:#37bef0;stroke-linecap:round;stroke-linejoin:round;stroke-width:0.93px;}</style></defs><g id="レイヤー_1" data-name="レイヤー 1"><path class="cls-1" d="M10.31,21l1.44-1.09A5,5,0,0,0,16,22.2c2,0,3.55-1.22,3.55-3.11,0-1.23-.81-2-2.06-2.73l-1.93-1.15A4.53,4.53,0,0,1,13,11.3a4.86,4.86,0,0,1,5.16-4.6A5.93,5.93,0,0,1,22.87,9L21.59,10.2A4.63,4.63,0,0,0,18,8.4a2.82,2.82,0,0,0-3,2.69c0,1.27.93,2,2.14,2.68l1.93,1.14a4.23,4.23,0,0,1,2.48,3.9c0,3-2.38,5.07-5.74,5.07A6.39,6.39,0,0,1,10.31,21Z"/><path class="cls-1" d="M32.15,7h2l-1.42,7h7.48l1.41-7h2L40.23,23.58h-2l1.59-7.87H32.36L30.8,23.58h-2Z"/><path class="cls-1" d="M50.34,16.94c0-5.05,3.31-10.24,8.07-10.24,3.69,0,5.73,2.75,5.73,6.94,0,5.06-3.32,10.24-8.08,10.24C52.37,23.88,50.34,21.13,50.34,16.94ZM62.13,13.8c0-3.24-1.19-5.4-3.83-5.4-3.56,0-6,4.5-6,8.39,0,3.23,1.2,5.39,3.83,5.39C59.73,22.18,62.13,17.68,62.13,13.8Z"/><path class="cls-1" d="M74.18,7h4.67c3.12,0,5.2,1.18,5.2,4.05,0,4.07-3,5.87-7.25,5.87H74.15l-1.32,6.66h-2Zm2.71,8.33c3.41,0,5.22-1.38,5.22-4,0-1.92-1.32-2.72-3.75-2.72H75.81l-1.32,6.74Z"/><path class="cls-1" d="M99.46,20c0-5.83,9.2-6.25,9.2-10.52,0-.76-.37-1.41-1.25-1.41-1.44,0-2.56,1.4-2.56,3.37,0,3,2.08,6.65,4.43,8.86a9.55,9.55,0,0,0,3.09,2l-.8,1.55a9.28,9.28,0,0,1-3.65-2.37c-2.58-2.53-4.74-6.65-4.74-10a4.58,4.58,0,0,1,4.36-4.85,2.51,2.51,0,0,1,2.71,2.71c0,5-8.88,6-8.88,10.35A2.47,2.47,0,0,0,104,22.35a6.33,6.33,0,0,0,4.12-2,17.45,17.45,0,0,0,3.84-5.71h1.79a23.26,23.26,0,0,1-4.47,6.65,8.06,8.06,0,0,1-5.66,2.55C101.11,23.88,99.46,22.35,99.46,20Z"/><path class="cls-1" d="M129.27,21l1.44-1.09A5,5,0,0,0,135,22.2c2,0,3.55-1.22,3.55-3.11,0-1.23-.81-2-2.06-2.73l-1.92-1.15A4.52,4.52,0,0,1,132,11.3a4.86,4.86,0,0,1,5.16-4.6A5.91,5.91,0,0,1,141.83,9l-1.28,1.16A4.63,4.63,0,0,0,137,8.4a2.82,2.82,0,0,0-3,2.69c0,1.27.93,2,2.15,2.68l1.93,1.14a4.24,4.24,0,0,1,2.47,3.9c0,3-2.38,5.07-5.74,5.07A6.39,6.39,0,0,1,129.27,21Z"/><path class="cls-1" d="M151.11,7h4.67c3.11,0,5.2,1.18,5.2,4.05,0,4.07-3,5.87-7.25,5.87h-2.66l-1.31,6.66h-2Zm2.7,8.33c3.41,0,5.22-1.38,5.22-4,0-1.92-1.31-2.72-3.74-2.72h-2.55l-1.33,6.74Z"/><path class="cls-1" d="M173.63,7h2.26l1.92,16.58h-2l-.86-9.52c-.15-1.76-.33-3.51-.45-5.4h-.11c-.88,1.9-1.72,3.58-2.65,5.4l-4.9,9.52h-2.17ZM169,16.87h7.28L176,18.4h-7.3Z"/></g></svg>