<svg xmlns="http://www.w3.org/2000/svg" viewBox="0 0 240 30"><defs><style>.cls-1{fill:#00a3df;stroke:#00a3df;stroke-linecap:round;stroke-linejoin:round;stroke-width:0.93px;}</style></defs><g id="レイヤー_1" data-name="レイヤー 1"><path class="cls-1" d="M17.15,8.7H12.34L12.68,7H24.27l-.34,1.7H19.12l-3,14.88h-2Z"/><path class="cls-1" d="M32.25,7h4.54C39.88,7,42,8.1,42,10.87c0,3.71-3.05,5.68-6.75,5.68H32.3l-1.4,7h-2Zm2.87,8C38.28,15,40,13.49,40,11.12c0-1.82-1.27-2.53-3.71-2.53H33.87L32.63,15ZM35,16.16,36.54,15,40,23.58H37.89Z"/><path class="cls-1" d="M51.43,7h9.14l-.34,1.66H53L52,14h6.09l-.34,1.66H51.67l-1.28,6.23h7.42l-.33,1.66H48.12Z"/><path class="cls-1" d="M72.77,7H75L77,23.58h-2l-.86-9.52c-.15-1.76-.33-3.51-.45-5.4h-.11c-.88,1.91-1.72,3.58-2.65,5.4l-4.9,9.52H63.77Zm-4.59,9.87h7.28L75.1,18.4H67.8Z"/><path class="cls-1" d="M83.47,21l1.44-1.09a5,5,0,0,0,4.27,2.33c2,0,3.54-1.21,3.54-3.11,0-1.23-.81-2-2.06-2.73l-1.92-1.15a4.51,4.51,0,0,1-2.55-3.91c0-2.49,2.17-4.6,5.16-4.6A5.89,5.89,0,0,1,96,9L94.75,10.2a4.63,4.63,0,0,0-3.56-1.8,2.82,2.82,0,0,0-3,2.69c0,1.27.93,2,2.15,2.68l1.93,1.14a4.25,4.25,0,0,1,2.48,3.9c0,3-2.38,5.07-5.75,5.07A6.39,6.39,0,0,1,83.47,21Z"/><path class="cls-1" d="M105.24,7h2l-1.9,9.48a9.44,9.44,0,0,0-.23,2c0,2.37,1,3.7,3.35,3.7,1.91,0,3.52-1.4,4.23-5l2-10.16h1.93l-2.06,10.25c-1,4.77-3.26,6.63-6.23,6.63-3.36,0-5.22-1.8-5.22-5.24a13.71,13.71,0,0,1,.26-2.33Z"/><path class="cls-1" d="M126,7h4.54c3.09,0,5.17,1.1,5.17,3.87,0,3.71-3.05,5.68-6.75,5.68h-2.91l-1.4,7h-2Zm2.87,8c3.16,0,4.89-1.47,4.89-3.84,0-1.82-1.27-2.53-3.71-2.53h-2.42L126.42,15Zm-.09,1.2L130.33,15l3.46,8.57h-2.11Z"/><path class="cls-1" d="M145.23,7h9.13L154,8.66h-7.2L145.77,14h6.09l-.34,1.66h-6.06l-1.28,6.23h7.43l-.34,1.66h-9.36Z"/><path class="cls-1" d="M173.12,7h2.34l1.45,9,.55,3.41h.1L179.34,16l4.92-9h2.34l-3.31,16.58h-1.88l1.9-9.35c.32-1.49.8-3.42,1.2-4.86h-.09l-2,3.67-4.89,8.8h-1.1L174.89,13l-.57-3.67h-.09c-.21,1.47-.43,3.38-.71,4.86l-1.88,9.35h-1.83Z"/><path class="cls-1" d="M199.55,7h2.27l1.91,16.58h-2l-.85-9.52c-.15-1.76-.33-3.51-.46-5.4h-.1c-.88,1.91-1.72,3.58-2.65,5.4l-4.9,9.52h-2.18ZM195,16.87h7.28l-.36,1.53h-7.31Z"/><path class="cls-1" d="M214.15,7h4.67c3.11,0,5.2,1.18,5.2,4.05,0,4.07-3,5.87-7.25,5.87h-2.66l-1.31,6.66h-2Zm2.7,8.33c3.41,0,5.22-1.38,5.22-4,0-1.92-1.31-2.72-3.74-2.72h-2.55l-1.33,6.74Z"/></g></svg>