<svg xmlns="http://www.w3.org/2000/svg" viewBox="0 0 240 160"><defs><style>.cls-1{fill:#4d4d4d;}</style></defs><g id="レイヤー_1" data-name="レイヤー 1"><path class="cls-1" d="M153.75,50.28c-12.66.63-23.9-3.46-35.42-5.94-4.9-1.06-9.37-2.92-12.62-7.63C102.12,62.3,91.14,81.81,65,90.36,72.28,93.62,79,97,86.4,98.3c8.69,1.47,16.8,4.58,24.71,8.31,1,.5,2.6.89,1.84,2.47s-2.15.76-3.19.26c-9-4.37-18.54-6.9-28.27-9.1-7.74-1.74-14.78-5.67-22.06-8.8-1.18-.51-2.53-1.3-2.19-2.87.38-1.75,1.95-1.41,3.23-1.3a19,19,0,0,0,8.77-1.73c14.5-5.92,23.62-16.7,29.14-31.13a73,73,0,0,0,4.16-20.25c.09-1.11,0-2.32,1.27-2.8a2.42,2.42,0,0,1,3,1.35c3.7,7.65,11.21,8.5,18.16,10.16,5,1.19,10,2.2,15,3.41a40.07,40.07,0,0,0,16.47.31c.89-.15,1.84-.42,2.46.53a1.87,1.87,0,0,1-.43,2.45c-4.47,4.67-6,10.8-8.33,16.56-.7,1.77-1.5,3.5-2.33,5.22-.41.86-1.12,1.59-2.15,1.15-1.26-.54-1-1.64-.5-2.57C148.23,63.72,149.61,56.8,153.75,50.28Z"/><path class="cls-1" d="M148.78,83.06a23.66,23.66,0,0,1-7.27,16.51,13.21,13.21,0,0,0-3.32,5.57c-3.18,9.21-6.5,18.36-9.78,27.54a8.87,8.87,0,0,1-.47,1.1c-.47.93-1,1.92-2.27,1.34-1-.49-.85-1.52-.55-2.39,1.1-3.23,2.24-6.45,3.39-9.67,2.41-6.81,5.29-13.46,7.24-20.44a9.51,9.51,0,0,1,2.88-4.5c4.79-4.39,6.85-10,7.08-16.38a4.07,4.07,0,0,0-3.15-4.5c-2.39-.74-4.17.43-5.43,2.22A15.66,15.66,0,0,0,134.49,88c-.22,4.44-1.36,5.28-5.67,4.24a15,15,0,0,0-2.67-.39A2.05,2.05,0,0,0,123.92,93a2.39,2.39,0,0,0,.59,2.76c1,1,2,2,3,3a1.37,1.37,0,0,1,.09,1.92,1.34,1.34,0,0,1-1.38.33c-3-.58-6.05-5.53-5.3-8.51s3.42-4.62,7.45-3.56c2.75.72,3-.09,3.28-2.57.59-4.71,1.8-9.3,6.64-11.79C142.57,72.37,149.43,75.79,148.78,83.06Z"/><path class="cls-1" d="M92.78,88.67C92.71,86,94.32,84,97,84c4,0,6.12-2.06,7.45-5.43s3.56-5,7.15-4.87c2.81.1,4.56-1.11,5.1-4,.23-1.27.82-2.48,1.17-3.73,1.45-5.26,4.3-8.68,10.32-8.56A7.87,7.87,0,0,0,133.59,55c2-1.86,4.32-1.9,6.76-1.16.6.18,1.16.5,1.07,1.24a1.07,1.07,0,0,1-1.31.94c-2.88-.55-4.89,1-7.07,2.49s-4.92,1.7-7.52,1.87A3.91,3.91,0,0,0,121.86,63a57.07,57.07,0,0,0-2.74,7.65C118,75,116.34,76.46,112,76.51c-2.75,0-4.15,1.11-5.1,3.64-1.49,3.94-4.21,6.57-8.77,6.63-1.38,0-2.65.3-2.81,2-.07.86,1,2.3-.69,2.36C93.1,91.23,92.91,89.73,92.78,88.67Z"/><path class="cls-1" d="M75.2,53.39c-.17.2-.35.62-.67.78-3.8,1.9-5.28,5.57-6.92,9.1-.35.77-.62,1.59-1.6,1.48-1.16-.14-1.2-1.15-1.33-2.06-.52-3.63-1.34-7-4.9-9.12-1.31-.76-1.37-2.34.29-2.65,4.23-.78,5.39-4,6.59-7.36.4-1.14.43-3,2.26-2.6,1.55.29,1.14,1.86,1.27,3,.18,1.49.32,3,.59,4.46.32,1.74.92,3.3,3,3.58C74.52,52.1,75.23,52.25,75.2,53.39Zm-8.15,4.4c3.4-3.57,3.4-3.57.36-7.71C64.05,53.09,64.05,53.09,67.05,57.79Z"/><path class="cls-1" d="M38.82,92.41c-1.12-.17-1.33-1-1.5-1.94-.6-3.42-1.16-6.7-5.64-7.39a1.67,1.67,0,0,1-.3-3.2c4.08-2,5.67-5.74,7.47-9.41.4-.81.64-1.85,1.75-1.77s1.39,1.19,1.6,2.21c.7,3.35.23,7,2.95,9.81,1,1-.23,1.91-.76,2.59-1.87,2.37-3.76,4.69-4.12,7.85A1.38,1.38,0,0,1,38.82,92.41Zm.62-6.9c.72-1.55,3.14-2.34,2.39-3.64-1-1.79-1.14-3.91-2.29-5.71C36.2,80.91,36.2,80.91,39.44,85.51Z"/><path class="cls-1" d="M178.59,69.28c.62,1.15-1,1.68-2.47,2.73A8.49,8.49,0,0,0,174,74.29a16.92,16.92,0,0,0-2.13,5.82c-.21,1-.41,2.12-1.74,2s-1.11-1.17-1.25-2c-.66-4-.56-8.21-5.21-10.39-1.52-.71-.52-2.76.76-2.94,3.61-.49,4.75-3.31,6.31-5.82.52-.84.89-2,2.16-1.67s1,1.55,1.23,2.49c.54,2.7,1.18,4.7,3.39,6.43A4,4,0,0,1,178.59,69.28ZM171,74c1-2.34,4.78-3.54,1.94-6.77-.5-.56-.83-2.4-1.54-1.43-1,1.32-3.9,1.56-2.78,4.12A40,40,0,0,0,171,74Z"/><path class="cls-1" d="M125.17,104.26c-.74,4.47-2.45,8.66-3.85,12.94-1.63,4.94-3.41,9.83-5.16,14.72a13.69,13.69,0,0,1-1.15,2.45c-.52.87-1.23,1.82-2.38,1.15-.93-.54-.7-1.59-.32-2.44,1.72-3.85,2.84-7.9,4.19-11.88,1.93-5.68,4.19-11.25,5.6-17.11.25-1,.58-2.36,2.09-2C125.26,102.3,125.36,103.29,125.17,104.26Z"/><path class="cls-1" d="M102.74,94.19c.23-5.93,6.19-10,11-7.66,2.12,1.06,2.72,2.71,1.88,4.72a5.34,5.34,0,0,0-.08,4,5.21,5.21,0,0,1-1.16,5.6c-1.55,1.52-3.37.81-5.1.23-.67-.23-1.33-.47-2-.68C103.4,99.23,102.59,98.11,102.74,94.19Zm2.15.65c-.82,3.46,2.57,3.22,4.86,4,1,.35,2.1,1.14,3.06.06a3.05,3.05,0,0,0,.28-3.41,4.55,4.55,0,0,1,0-4.57c.7-1.12.07-1.81-1-2.33C109.72,87.44,104.89,91.16,104.89,94.84Z"/><path class="cls-1" d="M130.68,30c-3.86,4.23-3.86,4.23-7.92.2-.78.93-.39,2.12-.75,3.08-.26.71-.57,1.32-1.44,1.25s-1.15-.74-1.2-1.48a14.22,14.22,0,0,1,1.17-6.44c.6-1.46,1.67-1.62,2.86-.6a8.27,8.27,0,0,1,.95,1.16c2.28,2.89,2.26,2.87,4.53,0,.71-.9,1.24-2.29,2.73-2s1.59,1.67,2,2.79c.48,1.43.92,2.86,1.3,4.32.23.89.28,1.93-.77,2.31s-1.56-.49-2-1.34C131.55,32.21,131.7,30.86,130.68,30Z"/><path class="cls-1" d="M105.21,63.88c-.63-4.27,1.4-7.31,4.33-10a6.17,6.17,0,0,1,6.15-1.33,2.25,2.25,0,0,1,1.7,3.26c-.69,1.57-.92,3.31-1.68,4.76A24.67,24.67,0,0,1,111.65,66c-1.71,1.76-3.8.42-5.69,0C104.8,65.82,105,64.72,105.21,63.88ZM108,62.1c.19.67-.92,2,.68,2.54a1.54,1.54,0,0,0,2-.85c.94-2.44,3.83-3.85,3.58-6.92,0-.66,1.32-1.33.2-2a1.94,1.94,0,0,0-2.26.26C110.57,57.19,107.51,58.4,108,62.1Z"/><path class="cls-1" d="M153.68,32.17c0-.15,0-.3,0-.45V30.65c0-.69,0-1.39,0-2.08-.07-2.26.49-3.94,3.18-4.14,3.27-.23,6.71,1.89,7.24,4.63s-1.26,3.77-3.36,4.55a6.66,6.66,0,0,1-2,.51c-1.91.07-2.59,1-2.44,2.86.09,1,.31,2.57-1.26,2.56S153.69,38,153.63,37s0-1.89,0-2.83C153.59,33.48,153.65,32.82,153.68,32.17Zm2.58-2c0,.72.25,1.73,1.82,1.41,1.29-.27,3.27-.21,3.15-2-.1-1.6-1.76-2.27-3.41-2.3S156.32,28.5,156.26,30.15Z"/><path class="cls-1" d="M150.5,36.26c-1.36-3.45-2.58-7-4.65-10.09-1-1.49-2.43-1.6-3.36,0a38.38,38.38,0,0,0-3.61,9.42c0,.93-.17,1.85.86,2.14.6.17.95-.17,1.2-.68.11-.24.2-.51.32-.75s.17-.63.32-.89a.66.66,0,0,1,.56-.3c.78,0,1.57-.19,2.36-.2s1.45,0,2.17.08a1.33,1.33,0,0,1,.76.19,1.06,1.06,0,0,1,.26.3c.53.83.78,2.95,2.18,2.5C150.76,37.74,150.74,36.89,150.5,36.26Zm-3.92-3.83c0,.27,0,.5-.37.55a11.06,11.06,0,0,1-1.63-.09c-.48,0-1,0-1.47,0-.23,0-.58.1-.67-.21s.13-.62.2-.87a9.85,9.85,0,0,1,.42-1.3c.17-.42.48-1.14,1-1.28a1.11,1.11,0,0,1,1,.48,7.17,7.17,0,0,1,.88,1.19c.15.26.25.54.39.8A2.62,2.62,0,0,1,146.58,32.43Z"/></g></svg>