<svg xmlns="http://www.w3.org/2000/svg" viewBox="0 0 240 160"><defs><style>.cls-1{fill:#4d4d4d;}</style></defs><g id="レイヤー_1" data-name="レイヤー 1"><path class="cls-1" d="M82.36,100.25a13.27,13.27,0,0,0-2.08-.18c-7.36.6-12.39-3.21-16.59-8.67C62.12,89.35,62,87,62.27,84.61c.22-1.87.6-3.72,1-5.57A19,19,0,0,1,82,63.69c4.1-.06,8,.39,11.57,2.58,7.28,4.47,9.49,11.36,8.39,19.28C101,92.83,95.83,97,89.29,99.61,87,100.53,84.45,100.33,82.36,100.25ZM70,87.22c-3.66-7,.06-11.44,5.67-15.54C67.89,72.59,65.39,79.8,70,87.22Zm15.39,9c4,.49,9.18-2,10.69-5.48C92.87,94.11,88.83,94.51,85.39,96.24Zm-18-8.19a8.11,8.11,0,0,0,4,6.07C71.49,90.94,68.25,90.26,67.42,88.05ZM79.64,76.34c-1.36.73-2.66,1.08-3,2.56,0,.16.51.62.58.58C78.37,78.86,79.53,78.25,79.64,76.34Z"/><path class="cls-1" d="M92.19,123.62c3.55,4.35,3.47,4.59-2.14,7.19,1,1.46,2.34,2.92.51,4.68a5.54,5.54,0,0,1-6.8.94c-1-.62-2.07-.3-3.1-.46-2.8-.41-3.53-1.81-1.78-3.9,1.32-1.56.62-2.11-.84-2.51-1.26-.35-2.55-.59-3.83-.89-.9-.21-1.82-.45-2.07-1.49s.47-1.82,1.24-2.47c2.64-2.23,2.61-2.45-.69-3.67-1.45-.54-3-.9-4.43-1.45-2-.74-2.1-1.89-.47-3.19.55-.44,1.58-.6,1.46-1.47s-1.2-1-2-1.24c-1.74-.7-4-.77-3.47-3.77.19-1-1.09-.73-1.7-.76-6.05-.33-12.1-.79-18.15-.84-3,0-6.37-.14-9.81-.28-2.75-.1-2-2.1,0-2.21a108.74,108.74,0,0,1,11.3.12c8.59.36,17.17.94,25.72,1.69a83.21,83.21,0,0,0,17.64-.73c7-.87,13.92-.27,20.89-.39,2.37,0,4.75-.14,7.12-.17.76,0,1.7-.33,1.82,1s-.91,1.1-1.64,1.19c-4,.49-8,.26-12,.35-.77,0-1.77-.39-2.24.53-.59,1.17.7,1.24,1.21,1.75a2.1,2.1,0,0,1,.28,3.08,15.94,15.94,0,0,1-2.32,2.17c-1,.79-2.6,1-1.52,3.06.5.93-.79,1.7-1.72,2C96.56,122.26,94.4,122.91,92.19,123.62ZM80.37,133.79c2.27.72,4.42-.25,6.26,1.27.65.54,2-.21,2.53-1s-.43-1.19-.93-1.66c-1.47-1.41-1.29-2.46.6-3.33.52-.24,1.1-.34,1.63-.57.72-.3,1.8-.3,1.92-1.26s-.89-1.06-1.45-1.51c-2-1.61-1.72-3.31.72-4.15,1.46-.51,3-.74,4.51-1.18.54-.16,1.63-.28,1-1.18-1.12-1.68.14-2.15,1.16-2.82s2.25-1.36,3.3-2.13c1.22-.9,1.25-1.66-.38-2.13-.81-.24-2.36-.25-2-1.29.93-2.91-1.22-1.89-2.29-1.92-8.94-.26-17.78,1.87-26.75,1.06-1.32-.12-3.47-.65-3.8.67s1.94,1.14,3,1.69c2.32,1.18,2.72,2.59,1.15,4.67-.23.31-.65.53-.35,1.12,1.08.37,2.25.74,3.4,1.17,4.61,1.71,5,3.52,1.33,6.86-.08.08,0,.29-.09.63,1.84.54,3.87.65,5.55,1.67C83,130,81.53,131.91,80.37,133.79Z"/><path class="cls-1" d="M137.11,96.68c.87-1.73.71-3.21.84-4.65.19-2.17.68-4.11,3.34-4.41.94-.1,1.17-.74,1.16-1.57-.13-7.5,1.81-14.59,4.16-21.61.89-2.64,1.41-5.4,2.36-8,1.45-4,4.69-4.77,7.82-1.85a2.75,2.75,0,0,0,3.55.53c5.91-3.21,11.13-.42,16.35,2,1.41.65,1.63,2.12,1.47,3.63s-.21,3.26-.34,4.89c-.16,2.14.08,4,2.21,5.3,1.45.89,1.55,2.62,1.45,4.22-.21,3.35-.41,6.71-.71,10-.16,1.81.29,3.07,2.25,3.4a1,1,0,0,1,.46.17c2.17,1.83,3.76,4.13,6.42,5.69s1.52,5.4,1.64,8.31c0,.9-.07,2.07-1.21,2.09-1.38,0-1.24-1.27-1.31-2.22-.12-1.71-.13-3.44-.26-5.15-.08-1.17-.66-2.25-1.91-2.14s-.69,1.42-.7,2.17c0,1.88.17,3.76.2,5.65,0,.73-.09,1.6-1,1.7-1.11.13-1.35-.8-1.42-1.62-.26-3.27-.53-6.54-.65-9.82-.06-1.51-.49-2.43-2.06-2.85-2.35-.64-3.16-2.35-3-4.7.28-3.6.47-7.2.7-10.79a2.63,2.63,0,0,0-1.15-2.77c-1.9-1.13-2.48-3-2.46-5s.08-4.26.21-6.39a2,2,0,0,0-1.4-2.22c-4.52-2-9-3.65-13.83-.86-1.73,1-3.44.28-4.92-1.11-2.1-2-3.42-1.69-4.19,1.14-2.6,9.53-6.56,18.76-6.24,28.93.06,1.75-.7,3.1-2.61,3.27-1.56.14-1.81,1.08-1.88,2.34s-.2,2.61-.4,3.91-.43,2.7-1.94,3.14-2.47-.58-3.4-1.52c-.75-.75-1.5-1.52-2.19-2.33-1.23-1.43-1.73-1-2.13.64a76.9,76.9,0,0,0-2.1,10.09c-.1.93-.08,2.32-1.4,2.2s-1.15-1.51-1.06-2.57a58,58,0,0,1,2.47-11.51c.89-3,3.24-3.5,5.37-1.31C134.75,94.18,135.8,95.31,137.11,96.68Z"/><path class="cls-1" d="M168.77,107.11c-2.06,1.18-3.94,2.36-5.9,3.35s-4.26,1.22-6.24-.36c-.51-.4-1-1-.51-1.68a1.09,1.09,0,0,1,1.55-.2c2,1.12,3.79.46,5.54-.6,2.51-1.52,5.25-2.71,7.21-5a1.14,1.14,0,0,1,1.52-.39,1.21,1.21,0,0,1,.47,1.52c-.21.78-.56,1.54-.74,2.33-.45,2,.36,2.82,2.33,2.48a4.48,4.48,0,0,0,1.39-.47c2.09-1.2,3.94-2.12,5.81.63.81,1.19,2.74.69,4.21.43.84-.15,2-.69,2.24.62.23,1.13-.87,1.46-1.71,1.75-2.13.73-4.44.77-6.11-.61s-2.66-1-4.27-.28C172.31,112.08,169.86,110.78,168.77,107.11Z"/><path class="cls-1" d="M149.32,116.44a5.79,5.79,0,0,1-6.28-.68,2.34,2.34,0,0,0-2.59-.56c-2.7.92-5.2.72-6.81-2.07-.66-1.14-1.32-.54-2-.11a21.63,21.63,0,0,1-7.32,3.31c-.88.19-2,.51-2.34-.6s.72-1.59,1.58-1.74c3.14-.58,5.24-3.13,8.2-4.13,1.9-.65,3.07-.8,3.81,1.34.82,2.35,2.67,2.23,4.42,1.42s3.13-.8,4.44.94C145.59,115.1,147.66,115.32,149.32,116.44Z"/><path class="cls-1" d="M167.39,87.54c0,3.12,0,6.23,0,9.34,0,1.16.28,3-1.4,2.87s-1.26-1.87-1.22-3c.19-5.57.48-11.13.68-16.7.06-1.7.69-3.75-2-4.15a.72.72,0,0,1-.47-1,1.3,1.3,0,0,1,1.14-.8c2.14-.37,3.76,1,3.83,3.39.09,3.35,0,6.71,0,10.07Z"/><path class="cls-1" d="M205.59,118.55a5.21,5.21,0,0,1-6.31,1,3.06,3.06,0,0,0-3.16,0,6.91,6.91,0,0,1-7-.08c-.9-.57-1.45-.28-2.17.24a7.86,7.86,0,0,1-6.35,1.06c-.64-.12-1.4-.37-1.34-1.18s.86-.92,1.51-.82a6.87,6.87,0,0,0,6.14-1.69,2,2,0,0,1,2.73.07c2.25,1.69,4.43,1.25,6.59-.17.78-.52,1.7-1.1,2.48-.46C200.69,118.13,203,118.42,205.59,118.55Z"/><path class="cls-1" d="M66.85,131.06a9.58,9.58,0,0,1-2.2-.55,3.74,3.74,0,0,0-3.5,0,2.84,2.84,0,0,1-2.84.13c-1.77-1.25-3.26-.91-5.09,0s-4.18.43-6.27,0c-.65-.14-1.36-.44-1.15-1.29.16-.67.83-.79,1.41-.67,3,.61,5.8.54,8.35-1.52.67-.54,1.59,0,2.18.61a2.55,2.55,0,0,0,3.71.43,2.7,2.7,0,0,1,3.21,0,9.56,9.56,0,0,0,3.44,1.25c.58.11,1.59-.19,1.61.67,0,1-1,.75-1.71.89A11.08,11.08,0,0,1,66.85,131.06Z"/><path class="cls-1" d="M75,39.57c.32,0,.64-.11,1-.12.82,0,1.85-.14,2,.91s-1,1.08-1.71,1.4-2-.31-2,1.2c.06,1.35,1.09,1.17,2,1.19.6,0,1.22.13,1.4.77.23.82-.4,1.14-1.05,1.38-.5.19-1.25.19-1,1.05a1,1,0,0,0,.92.67c.9.07,2.11-.47,2.37,1A1.14,1.14,0,0,1,78,50.29c-1.23.27-2.83,1.19-3.67-.09a14.44,14.44,0,0,1-2.52-9.27C71.94,39.17,73.78,39.68,75,39.57Z"/><path class="cls-1" d="M55.48,48.87c.12-1.15.18-2.12.35-3.08.1-.57.4-1.1,1.11-1.11s1,.53,1.1,1.11a9.91,9.91,0,0,1-.36,5.07A2,2,0,0,1,54.52,52c-.57-.29-.89-1-1.66-.94-.37.81,0,1.62,0,2.42,0,.61-.18,1.17-.87,1.3a1,1,0,0,1-1.27-.88A23.86,23.86,0,0,1,50,48.37c.11-1.77,1.51-1.85,2.93-1.12C53.73,47.69,54.17,48.75,55.48,48.87Z"/><path class="cls-1" d="M126.94,127.83c-2.47-2-5.79.56-8.66-1.15-.78-.47-1.14.34-1.63.71-2.13,1.61-7.45,1.82-9.57.36-.34-.24-.68-.51-.5-1a1,1,0,0,1,1.22-.55c1.2.22,2.39.54,3.59.76,2,.35,3.75.2,4.93-1.75.5-.8,1.3-1.53,2.21-.72,1.46,1.3,2.9.88,4.56.59,2.26-.4,4.33,1.43,6.69,1,.13,0,.48.34.45.41-.11.28-.29.65-.52.72C128.94,127.45,128.13,127.58,126.94,127.83Z"/><path class="cls-1" d="M47.54,118.09c-2.57-2.56-6.07-.38-9.41-.69a5.52,5.52,0,0,1-3.31-1.47.93.93,0,0,1-.36-1.09.76.76,0,0,1,1.08-.23,7.12,7.12,0,0,0,8.1-.19c.62-.39,1.28,0,1.75.53,1.57,1.66,3.39,1.49,5.2.61a4.63,4.63,0,0,1,4,0c.39.16.71.51.5,1-.11.25-.49.57-.71.54C52.2,116.7,50.3,118.1,47.54,118.09Z"/><path class="cls-1" d="M47.1,53.61c-.16,3.26-2,5.31-4.56,5.25-2.25,0-4.16-2.41-4.24-5.19,0-.68,0-1.39.75-1.63,1-.33,1.27.47,1.56,1.15.19.45.25,1,.44,1.4.35.8.58,1.85,1.76,1.7s1.63-1,1.8-2a6.13,6.13,0,0,0,0-.74c0-1-.5-2.56,1-2.58C47.33,50.9,46.86,52.68,47.1,53.61Z"/><path class="cls-1" d="M149.19,100.29c.27-2.68.5-5.36.83-8,.28-2.26,2.07-3,3.93-3.48a.81.81,0,0,1,1.05.38.74.74,0,0,1-.54,1c-2.21.84-2.26,2.66-2.31,4.62-.05,2.28-.31,4.56-.55,6.83-.1.91.13,2.31-1.23,2.28s-1.06-1.4-1.17-2.32A10.08,10.08,0,0,1,149.19,100.29Z"/><path class="cls-1" d="M34.3,52.12c-2.38,2.56.71,3,1.8,4.2A4,4,0,0,1,34,63c-.68.17-1.37.16-1.7-.56s.18-1.17.75-1.57c2.44-1.75,2.51-2.56-.3-4s-2.13-4.27-.28-5.5C33.24,50.77,34,50.84,34.3,52.12Z"/><path class="cls-1" d="M89.27,37.31a1.17,1.17,0,0,1,1.4.72,1.14,1.14,0,0,1-.83,1.54c-2.64.54-1.89,2.24-1.47,3.88a9.71,9.71,0,0,1,.26,1.19c.11.78.05,1.54-.87,1.76s-1.18-.43-1.42-1.06a15.09,15.09,0,0,1-.63-2.11c-.27-1.25-.51-2.43-2.29-2a1.07,1.07,0,0,1-1.32-.84,1.27,1.27,0,0,1,1-1.47C85.15,38.32,87.22,37.83,89.27,37.31Z"/><path class="cls-1" d="M97.89,53.85c.67.26,1.44.95,2.18.91a1.86,1.86,0,0,0,1.25-.89,3.5,3.5,0,0,1,3-1.49,5.28,5.28,0,0,1,1.53.5,4.32,4.32,0,0,1,1.11.67c.34.3,1,1.21.53,1.67s-1-.15-1.35-.37a2.77,2.77,0,0,0-2.87-.11c-.83.5-.93,1.63-1.77,2.16a2.08,2.08,0,0,1-2.39-.29c-1.36-.94-2.24-.58-2.61,1.13-.15.71-.32,1.87-1.48,1.45-.93-.35-.78-1.34-.59-2.16A4.79,4.79,0,0,1,96,54.36a2.45,2.45,0,0,1,1.48-.59A1.26,1.26,0,0,1,97.89,53.85Z"/><path class="cls-1" d="M66.16,44.88A24.76,24.76,0,0,1,68,46.58a3.37,3.37,0,0,1-.45,5.15c-.81.63-1.79,1.2-2.62.28s.13-1.46.73-2c1.57-1.44.17-2.08-.78-2.78-1.44-1.07-2.23-2.29-.81-3.87.76-.84,1.91-1.81,3-1C68.38,43.48,66.52,44.05,66.16,44.88Z"/><path class="cls-1" d="M115.18,60.63a1.4,1.4,0,0,1,.74.28.63.63,0,0,0,.29.2.42.42,0,0,0,.28-.08,8.14,8.14,0,0,0,1.23-1.12,3.93,3.93,0,0,1,4.06-.92,4.28,4.28,0,0,1,1.3.82,2,2,0,0,1,.63,1.37.85.85,0,0,1-.14.49.45.45,0,0,1-.44.18.81.81,0,0,1-.28-.17c-1.81-1.48-3.73-.53-4.93,1.13a1.3,1.3,0,0,1-1.74.47c-1.34-.81-3.52-.67-3.94,1.13-.07.29-.17.69-.47.69a.61.61,0,0,1-.18,0,1.5,1.5,0,0,1-.81-1.35c0-2,2.27-3.15,4-3.1C114.93,60.61,115.06,60.61,115.18,60.63Z"/></g></svg>