<svg xmlns="http://www.w3.org/2000/svg" viewBox="0 0 240 160"><defs><style>.cls-1{opacity:0.2;}.cls-2{fill:#00a199;}.cls-3{fill:#fbddb9;}.cls-4{fill:#f7b52c;}.cls-5{fill:#4d4d4d;}</style></defs><g id="レイヤー_1" data-name="レイヤー 1"><g class="cls-1"><path class="cls-2" d="M87.13,114l5.94,7.48a7.55,7.55,0,0,0,3.17,2.72,7.53,7.53,0,0,0,4.41-.33l44.43-12.56c8.09-2.29,16.66-4.88,22.11-11.28,5.64-6.62,6.71-15.9,10.5-23.73,3.51-7.23,9.53-15.18,5.87-22.33-1.86-3.64-5.77-5.68-9.44-7.49-4.76-2.35-10.8-4.6-15-1.34-3.14,2.45-3.64,6.9-4.31,10.83a59.54,59.54,0,0,1-12.15,27.16A30.5,30.5,0,0,1,134,91a31.52,31.52,0,0,1-10.11,3.25C115.05,95.74,73.88,97.36,87.13,114Z"/><path class="cls-3" d="M93.46,92.15c1.82-1.62,4.62-.24,6.83.82,11.61,5.59,25.4.11,36.57-6.34,3.71-2.14,7.7-4.85,8.58-9,.56-2.69-.3-5.45-1.14-8.06l-4.47-13.78c-1.09-3.37-2.19-6.82-2.06-10.36s1.75-7.23,4.89-8.87a213.09,213.09,0,0,1,6.45,22.86c-.9-4.09,5.76-6.94,8.66-7.93,4.66-1.58,9.25-1.11,12.42,3.19,2.1,2.84.76,6.35,2.07,8.91,1.84,3.63,5.38,2.29,8.59.8a31.74,31.74,0,0,1,9.77-2.76c2-.23,4.2-.23,5.9.88s2.54,3.68,1.23,5.23A5,5,0,0,1,195.5,69c-7,2.42-14.85,1.69-21.55,4.8-7.71,3.58-12,10.85-16.55,17.52-4.8,7.12-11.3,9.84-18.81,14a94.32,94.32,0,0,1-25.85,9.42C107,116,99.92,118.14,95.53,113,92.37,109.37,89.59,95.6,93.46,92.15Z"/><path class="cls-4" d="M55.61,38.5c3.58-4.75,6.85-9.84,11.36-13.73a4.7,4.7,0,0,1,3.12-1.47c1.8.11,2.87,2,3.65,3.6a151.78,151.78,0,0,0,26.73,39c1.47,1.56,3.1,3.39,2.91,5.53-.28,3.12-4,4.51-7.07,5.1A141.12,141.12,0,0,1,66.37,79c-11.66,0-22.91-1.5-34.43-3.07a6.39,6.39,0,0,1-2.41-.65C18.92,69,52,43.25,55.61,38.5Z"/></g><path class="cls-5" d="M184.83,63.33c2.32-.94,4.18-1.73,6.07-2.44,4-1.51,6.79-.78,7.95,2s-.64,6.17-4,7.78c-3.82,1.82-8,2.26-12,3.5a4.89,4.89,0,0,0-3.59,3.15c-3,7.91-7.47,15.16-10.95,22.87-.86,1.92-3.7,3.07-3.73,4.56s2.13,3.27,2.54,5.32a23.68,23.68,0,0,1,.47,3.54c0,.93-.08,2.06-1.37,2.06-1.12,0-1.23-1-1.28-1.89a13.77,13.77,0,0,0-.95-4.75c-1-2.2-3.21-3.23-5.23-2.13-10,5.46-21,8.11-31.75,11.4-6.6,2-13,4.58-19.57,6.86-1.14.4-1.47.92-1,2.08a10.63,10.63,0,0,1,.68,5c-.06.91-.3,1.8-1.39,1.81s-1-.93-1.11-1.69-.08-1.37-.18-2c-.52-3.52-.7-3.66-4.26-3.42-3.29.23-8.08-2.65-9.58-5.87a75.29,75.29,0,0,0-4.24-8.17A11,11,0,0,1,86,101.24a4.94,4.94,0,0,1,2.62-2.33,2.94,2.94,0,0,0,2-3.11,5.13,5.13,0,0,1,3.77-5c2.31-.81,4.09.3,5.28,2.12,1.81,2.75,4,3.2,7,2.14,7.49-2.63,15.12-4.81,22.71-7.14,5-1.54,9.67-4.26,12.06-9.61,1.3-2.93.59-5.72.06-8.54-.79-4.19-2.05-8.3-2.68-12.51a125.27,125.27,0,0,1-1.32-17.85,6.26,6.26,0,0,1,.83-2.93A4.58,4.58,0,0,1,143,33.86c2.13.12,3.14,1.64,3.55,3.51,1.19,5.44,1.19,11,1.71,16.54.08.76.14,1.53.29,2.27.09.49.25,1.11.84,1.17s.85-.51,1-1a11.72,11.72,0,0,1,4.2-5.69c.94-.7.41-1.75.83-2.57.9-1.74,1.68-3.54,2.52-5.31,1.05-2.22,3-2.76,5.14-2.31a13.61,13.61,0,0,1,4.53,1.69,59.29,59.29,0,0,0,15.8,7.16c3,.85,4,2.79,3.43,5.93C186.36,57.77,185.62,60.23,184.83,63.33ZM93.58,103c3.48-2.77,6.09-2.82,7.22.14s2.42,2.5,4.6,1.54a207.29,207.29,0,0,1,27.11-9.28c.83-.24,1.81-.5,2.21.56s-.47,1.57-1.3,1.85c-1.69.59-3.39,1.15-5.12,1.6a142.27,142.27,0,0,0-22.64,8.11c-3.92,1.8-5,1.62-6.55-2.35-.35-.88-.55-1.94-1.77-1.82s-1.39,1.23-1.48,2.12c-.32,3.33-.29,6.62,1.26,9.75a1.83,1.83,0,0,0,2.64,1.1c11.41-4.11,23.55-5.83,34.81-10.47a40.61,40.61,0,0,1,5.14-1.54,29.49,29.49,0,0,0,14.37-8.46,37.12,37.12,0,0,0,6.3-9.61c2.73-5.72,7.25-9.31,12.94-11.78s12.1-3.46,18.13-5.27A8.61,8.61,0,0,0,196.28,66a2.09,2.09,0,0,0-2.21-3.36,18.43,18.43,0,0,0-1.95.62,194.19,194.19,0,0,1-23.5,8c-1,.25-2.11,1.32-3,0s.44-2,1.22-2.71A12.89,12.89,0,0,0,171,58.7a7.08,7.08,0,0,0-4-6.64c-6.28-3.44-14.24.87-15.15,8.2-.24,1.91-.27,3.76,1.42,5.17.67.56,1.38,1.26.57,2.15s-1.59.32-2.33-.1c-1.75-1-2.5-2.73-3.4-4.38-2.36-4.36-2.18-9.23-2.82-13.92-.49-3.55-.36-7.17-1.11-10.7-.19-.89-.28-2-1.53-2s-1.73.84-2.14,1.87a7.92,7.92,0,0,0-.37,3.54,149.22,149.22,0,0,0,4.17,27.8,17.14,17.14,0,0,1-11.6,20.22c-7.46,2.14-15,3.93-22.26,6.85-5.18,2.1-9.83,2.65-13.55-2.67-1.22-1.74-2.52-1.09-3.19.69A12.76,12.76,0,0,0,93.58,103ZM176.9,76.1a24.31,24.31,0,0,0-8.68,4.34c-3.39,2.6-5.08,6.33-7.11,9.89-3.57,6.25-8,11.65-14.9,14.54C141,107,135.39,108,130.15,110.08c-10.16,4.1-21.17,5.36-31.4,9.27-1.86.71-3.17-.23-3.75-2-.76-2.35-1.7-4.68-1.65-7.21a9.66,9.66,0,0,0-1.82-5.74c-.52-.77-.18-2.64-1.88-2.22-1.46.37-2.09,1.72-2.37,3.09a5.53,5.53,0,0,0,.4,3.5c1.72,3.62,3.43,7.24,5.06,10.89a6,6,0,0,0,4.38,3.61,16.73,16.73,0,0,0,8.37-.17c10.37-3.4,20.43-7.72,31.09-10.28,7.67-1.85,14.61-5.62,21.89-8.52a15.64,15.64,0,0,0,9.38-9c2-4.79,4.57-9.36,6.85-14C175.42,79.7,176,78.15,176.9,76.1Zm-5.47-8.43c9.54-1.93,10.5-2.83,12.56-11.48.06-.25.12-.5.17-.75.39-2.06-.18-3.35-2.46-3.92a45.86,45.86,0,0,1-14-6.22,16.15,16.15,0,0,0-4.5-1.76,2.72,2.72,0,0,0-3.46,1.35c-.62,1-1.54,2.21-1.09,3.27s1.82.23,2.76.18c8.66-.46,14,6.17,11.69,14.53C172.67,64.42,172.05,65.9,171.43,67.67Z"/><path class="cls-5" d="M25.48,70.84c-1.39.22-3.05,2.35-4,.5s1.58-2.17,2.68-3c7.06-5.27,14-10.67,19.76-17.41,6.09-7.13,13.48-13.11,18.74-21,1.84-2.77,3.9-5.4,6-8,1-1.29,2.23-2.08,3.17.24,5.81,14.28,16.07,25.2,26.87,35.72,3.29,3.22,5.93,7.08,9.72,9.82a1.45,1.45,0,0,1,.72,1.54c-.14.54-.68,1-1.15.78-1.85-.81-3,.57-4.41,1.22-1.85.88-3.7,1.77-5.56,2.63-.73.34-1.55.52-2-.34-.57-1,.19-1.56,1-2,2.28-1.32,4.9-2,7.29-3.88C91.75,54.74,78.54,42.54,70,25.64c-.91,7.25-2.31,13.7-3.69,20.16A275.39,275.39,0,0,1,58,75.37c-.47,1.42-.36,1.94,1.22,2.09,3.56.32,7.1,1.08,10.67,0,.88-.28,2-.53,2.42.64s-.71,1.62-1.64,1.84c-5,1.14-9.8,1.29-14.57-1.26-1.92-1-1.34-2-.91-3.27a259.78,259.78,0,0,0,9.16-33.31c.8-4,2.06-7.92,2.24-12-.9-.28-1.06.47-1.37.9C60.29,38,54,43.75,48.32,50.11a166.25,166.25,0,0,1-22.9,20.77Z"/><path class="cls-5" d="M78.32,60.3a64,64,0,0,0-1.5,10.85c-.07,1.36-.18,2.72-.29,4.08-.07.89-.22,1.88-1.35,1.78S74,75.89,74,75c0-1.11,0-2.22,0-3.32a58.23,58.23,0,0,1,1.78-12.39c.32-1.06.64-2.25,2-2.45a2.64,2.64,0,0,1,2.49,1.53c3.18,4.75,6,9.76,9.48,14.28a1.4,1.4,0,0,1-.1,2.08c-1,.72-1.5,0-2.08-.72-2.77-3.28-4.88-7-7.2-10.57C79.85,62.61,79.29,61.78,78.32,60.3Z"/><path class="cls-5" d="M25.42,70.88C31.76,73.27,38,76,45,76c.8,0,2.21-.22,2.12,1.14-.09,1.11-1.38,1.09-2.28,1.2-4.17.52-8.1-.7-12-1.82-2.19-.63-4.31-1.56-6.45-2.37-1.76-.67-2.26-1.71-.88-3.25Z"/><path class="cls-5" d="M53.29,131.19c0,1.19.21,2.52-1.08,2.73s-1.43-1.21-1.61-2.14c-.29-1.39-.63-2.86.4-4.13a.88.88,0,0,1,1.16-.23C53.6,128.42,52.92,130.05,53.29,131.19Z"/><path class="cls-5" d="M182.7,130.37c-.37,1.42.35,3.65-1.63,3.56s-1-2.22-1-3.42-.87-3.49,1.31-3.43C183.25,127.12,182.19,129.32,182.7,130.37Z"/><path class="cls-5" d="M202.07,90.84c-.18,1.34,0,2.68-1.15,3.59a.82.82,0,0,1-1.15-.09c-1.07-1.1-.51-2.36-.31-3.59.17-1,.24-2.27,1.63-2.09S201.94,90.08,202.07,90.84Z"/><path class="cls-5" d="M46.25,131.2c.31-1.16-.55-3.39,1.52-3.29,1.74.08,1.06,2.17,1.11,3.42,0,1.07.16,2.58-1.35,2.57S46.32,132.37,46.25,131.2Z"/><path class="cls-5" d="M193.07,91.42c0-.82,0-1.33,0-1.84.07-.71.29-1.43,1.13-1.44s1.2.6,1.27,1.34a26,26,0,0,1,.12,3c0,.81,0,1.91-1.13,1.94s-1.23-1-1.34-1.84A10.57,10.57,0,0,1,193.07,91.42Z"/><path class="cls-5" d="M155.4,138.89c-.39,1,.06,2.82-1.67,2.93-1.37.08-1.45-1.35-1.19-2.32.31-1.18-.26-3.16,1.72-3.17C155.59,136.33,155.35,137.79,155.4,138.89Z"/><path class="cls-5" d="M181.66,105.09c-.27,1.27.19,3.06-1.53,3.1-1.43,0-1.26-1.57-1.16-2.61s-.35-3,1.33-3.09S181.37,104.17,181.66,105.09Z"/><path class="cls-5" d="M176.1,129.74c-.28,1.19.23,3-1.37,3.22s-1.33-1.49-1.28-2.52c.07-1.2-.2-3,1.47-3.1C176.33,127.23,175.91,128.8,176.1,129.74Z"/><path class="cls-5" d="M183,105c.16-1-.19-2.48,1.25-2.4,1.6.08,1.41,1.66,1.43,2.8s.24,2.64-1.26,2.59C182.57,107.93,183.37,106.05,183,105Z"/><path class="cls-5" d="M147.74,139.69c.13-1.13-.2-2.77,1.42-2.76s1.11,1.59,1.13,2.6.15,2.57-1.24,2.65C147.49,142.26,147.81,140.73,147.74,139.69Z"/><path class="cls-5" d="M125,137.7c0,.94.11,2.1-1.17,2.19-1.11.08-1.2-1-1.37-1.81a1.17,1.17,0,0,1,0-.26c0-1.17-.94-3,.84-3.19S124.66,136.48,125,137.7Z"/><path class="cls-5" d="M117.14,138.37c0-.91,0-2,1.13-1.93,1.66.1,1.44,1.62,1.54,2.75.08.92.09,2.2-1.2,2C117,141.05,117.48,139.41,117.14,138.37Z"/></g></svg>