<?xml version="1.0" encoding="UTF-8" standalone="no"?>
<svg
   xmlns:dc="http://purl.org/dc/elements/1.1/"
   xmlns:cc="http://creativecommons.org/ns#"
   xmlns:rdf="http://www.w3.org/1999/02/22-rdf-syntax-ns#"
   xmlns:svg="http://www.w3.org/2000/svg"
   xmlns="http://www.w3.org/2000/svg"
   xmlns:sodipodi="http://sodipodi.sourceforge.net/DTD/sodipodi-0.dtd"
   xmlns:inkscape="http://www.inkscape.org/namespaces/inkscape"
   viewBox="0 0 324 30"
   version="1.1"
   id="svg15"
   sodipodi:docname="plan_dec_reverse.svg"
   width="324"
   height="30"
   inkscape:version="0.92.4 (5da689c313, 2019-01-14)">
  <metadata
     id="metadata19">
    <rdf:RDF>
      <cc:Work
         rdf:about="">
        <dc:format>image/svg+xml</dc:format>
        <dc:type
           rdf:resource="http://purl.org/dc/dcmitype/StillImage" />
        <dc:title></dc:title>
      </cc:Work>
    </rdf:RDF>
  </metadata>
  <sodipodi:namedview
     pagecolor="#ffffff"
     bordercolor="#666666"
     borderopacity="1"
     objecttolerance="10"
     gridtolerance="10"
     guidetolerance="10"
     inkscape:pageopacity="0"
     inkscape:pageshadow="2"
     inkscape:window-width="1366"
     inkscape:window-height="745"
     id="namedview17"
     showgrid="false"
     inkscape:zoom="1.26"
     inkscape:cx="200"
     inkscape:cy="15"
     inkscape:window-x="-8"
     inkscape:window-y="-8"
     inkscape:window-maximized="1"
     inkscape:current-layer="svg15" />
  <defs
     id="defs4">
    <style
       id="style2">.cls-1{fill:#00a3df;}</style>
  </defs>
  <g
     id="レイヤー_1"
     data-name="レイヤー 1"
     transform="translate(-36.646585)">
    <path
       class="cls-1"
       d="m 326.78,15.32 a 0.91,0.91 0 0 1 1.4,0 19,19 0 0 0 1.34,1.49 18.48,18.48 0 0 0 5.93,4 18.66,18.66 0 0 0 14.52,0 18.37,18.37 0 0 0 5.93,-4 18.37,18.37 0 0 0 4,-5.93 1.91,1.91 0 0 0 -1.13,-2.78 c -1.67,-0.74 -2.33,0.05 -2.78,1.13 a 14.52,14.52 0 0 1 -3.09,4.58 14.63,14.63 0 0 1 -4.58,3.09 14.49,14.49 0 0 1 -11.22,0 14.63,14.63 0 0 1 -4.58,-3.09 14.44,14.44 0 0 1 -3.08,-4.58 c -0.34,-0.79 -0.42,-1.51 -2,-1.51 -1.38,0 -1.62,0.72 -2,1.51 a 14.3,14.3 0 0 1 -3.09,4.58 14.41,14.41 0 0 1 -4.58,3.09 14.29,14.29 0 0 1 -5.6,1.13 A 14.34,14.34 0 0 1 306.56,16.9 14.49,14.49 0 0 1 299,9.23 c -0.45,-1.08 -1,-1.87 -2.78,-1.13 -1.78,0.74 -1.59,1.7 -1.13,2.78 a 18.37,18.37 0 0 0 4,5.93 18.37,18.37 0 0 0 5.93,4 18.66,18.66 0 0 0 14.52,0 18.48,18.48 0 0 0 5.93,-4 19,19 0 0 0 1.31,-1.49 z"
       id="path6"
       inkscape:connector-curvature="0"
       style="fill:#00a3df" />
    <path
       class="cls-1"
       d="m 240.91,15.32 a 0.92,0.92 0 0 1 1.41,0 15.67,15.67 0 0 0 1.34,1.49 18.44,18.44 0 0 0 5.92,4 18.66,18.66 0 0 0 7.27,1.47 18.62,18.62 0 0 0 7.26,-1.47 18.48,18.48 0 0 0 5.93,-4 18.53,18.53 0 0 0 4,-5.93 1.92,1.92 0 0 0 -1.13,-2.78 c -1.68,-0.74 -2.33,0.05 -2.79,1.13 a 14.19,14.19 0 0 1 -3.12,4.58 14.41,14.41 0 0 1 -4.58,3.09 14.29,14.29 0 0 1 -5.6,1.13 14.34,14.34 0 0 1 -5.61,-1.13 14.41,14.41 0 0 1 -4.58,-3.09 14.63,14.63 0 0 1 -3.09,-4.58 c -0.33,-0.79 -0.42,-1.51 -2,-1.51 -1.37,0 -1.62,0.72 -2,1.51 a 14.63,14.63 0 0 1 -3.09,4.58 14.41,14.41 0 0 1 -4.45,3.09 14.34,14.34 0 0 1 -5.62,1.1 14.29,14.29 0 0 1 -5.6,-1.13 14.41,14.41 0 0 1 -4.58,-3.09 14.19,14.19 0 0 1 -3.09,-4.58 c -0.46,-1.08 -1,-1.87 -2.79,-1.13 -1.79,0.74 -1.58,1.7 -1.13,2.78 a 18.53,18.53 0 0 0 4,5.93 18.48,18.48 0 0 0 5.93,4 18.62,18.62 0 0 0 7.26,1.47 18.66,18.66 0 0 0 7.27,-1.47 18.44,18.44 0 0 0 5.92,-4 15.67,15.67 0 0 0 1.34,-1.46 z"
       id="path8"
       inkscape:connector-curvature="0"
       style="fill:#00a3df" />
    <path
       class="cls-1"
       d="m 155.05,15.32 a 0.91,0.91 0 0 1 1.4,0 19,19 0 0 0 1.34,1.49 18.48,18.48 0 0 0 5.93,4 18.66,18.66 0 0 0 14.52,0 18.37,18.37 0 0 0 5.93,-4 18.37,18.37 0 0 0 4,-5.93 A 1.91,1.91 0 0 0 187,8.1 c -1.67,-0.74 -2.33,0.05 -2.78,1.13 a 14.52,14.52 0 0 1 -3.09,4.58 14.63,14.63 0 0 1 -4.58,3.09 14.49,14.49 0 0 1 -11.22,0 14.63,14.63 0 0 1 -4.58,-3.09 14.44,14.44 0 0 1 -3.08,-4.58 c -0.34,-0.79 -0.42,-1.51 -2,-1.51 -1.38,0 -1.62,0.72 -2,1.51 a 14.3,14.3 0 0 1 -3.09,4.58 14.41,14.41 0 0 1 -4.58,3.09 14.29,14.29 0 0 1 -5.6,1.13 14.34,14.34 0 0 1 -5.61,-1.13 14.49,14.49 0 0 1 -7.67,-7.67 c -0.45,-1.08 -1,-1.87 -2.78,-1.13 -1.78,0.74 -1.59,1.7 -1.13,2.78 a 18.37,18.37 0 0 0 4,5.93 18.37,18.37 0 0 0 5.93,4 18.66,18.66 0 0 0 14.52,0 18.48,18.48 0 0 0 5.93,-4 19,19 0 0 0 1.46,-1.49 z"
       id="path10"
       inkscape:connector-curvature="0"
       style="fill:#00a3df" />
    <path
       class="cls-1"
       d="m 69.18,15.32 a 0.92,0.92 0 0 1 1.41,0 15.67,15.67 0 0 0 1.34,1.49 18.44,18.44 0 0 0 5.92,4 18.66,18.66 0 0 0 7.27,1.47 18.62,18.62 0 0 0 7.26,-1.47 18.48,18.48 0 0 0 5.93,-4 18.53,18.53 0 0 0 4,-5.93 1.92,1.92 0 0 0 -1.13,-2.78 C 99.5,7.36 98.85,8.15 98.39,9.23 A 14.19,14.19 0 0 1 95.3,13.81 14.41,14.41 0 0 1 90.72,16.9 14.29,14.29 0 0 1 85.12,18 14.34,14.34 0 0 1 79.51,16.87 14.41,14.41 0 0 1 74.93,13.78 14.63,14.63 0 0 1 71.84,9.2 c -0.33,-0.79 -0.42,-1.51 -2,-1.51 -1.37,0 -1.62,0.72 -1.95,1.51 A 14.63,14.63 0 0 1 64.8,13.78 14.41,14.41 0 0 1 60.22,16.87 14.34,14.34 0 0 1 54.65,18 14.29,14.29 0 0 1 49.05,16.87 14.41,14.41 0 0 1 44.47,13.78 14.19,14.19 0 0 1 41.38,9.2 C 40.92,8.12 40.38,7.33 38.59,8.07 36.8,8.81 37,9.8 37.46,10.88 a 18.53,18.53 0 0 0 4,5.93 18.48,18.48 0 0 0 5.93,4 18.62,18.62 0 0 0 7.26,1.47 18.66,18.66 0 0 0 7.27,-1.47 18.44,18.44 0 0 0 5.92,-4 15.67,15.67 0 0 0 1.34,-1.49 z"
       id="path12"
       inkscape:connector-curvature="0"
       style="fill:#00a3df" />
  </g>
</svg>
