<?xml version="1.0" encoding="UTF-8" standalone="no"?>
<svg
   xmlns:dc="http://purl.org/dc/elements/1.1/"
   xmlns:cc="http://creativecommons.org/ns#"
   xmlns:rdf="http://www.w3.org/1999/02/22-rdf-syntax-ns#"
   xmlns:svg="http://www.w3.org/2000/svg"
   xmlns="http://www.w3.org/2000/svg"
   xmlns:sodipodi="http://sodipodi.sourceforge.net/DTD/sodipodi-0.dtd"
   xmlns:inkscape="http://www.inkscape.org/namespaces/inkscape"
   viewBox="0 0 324 30"
   version="1.1"
   id="svg50"
   sodipodi:docname="plan_dec.svg"
   width="324"
   height="30"
   inkscape:version="0.92.4 (5da689c313, 2019-01-14)">
  <metadata
     id="metadata54">
    <rdf:RDF>
      <cc:Work
         rdf:about="">
        <dc:format>image/svg+xml</dc:format>
        <dc:type
           rdf:resource="http://purl.org/dc/dcmitype/StillImage" />
        <dc:title></dc:title>
      </cc:Work>
    </rdf:RDF>
  </metadata>
  <sodipodi:namedview
     pagecolor="#ffffff"
     bordercolor="#666666"
     borderopacity="1"
     objecttolerance="10"
     gridtolerance="10"
     guidetolerance="10"
     inkscape:pageopacity="0"
     inkscape:pageshadow="2"
     inkscape:window-width="1366"
     inkscape:window-height="745"
     id="namedview52"
     showgrid="false"
     inkscape:zoom="3.0275"
     inkscape:cx="200"
     inkscape:cy="15"
     inkscape:window-x="-8"
     inkscape:window-y="-8"
     inkscape:window-maximized="1"
     inkscape:current-layer="svg50" />
  <defs
     id="defs39">
    <style
       id="style37">.cls-1{fill:#37bef0;}</style>
  </defs>
  <g
     id="レイヤー_1"
     data-name="レイヤー 1"
     transform="translate(-36.602043)">
    <path
       class="cls-1"
       d="m 70.47,14.68 a 0.91,0.91 0 0 1 -1.4,0 19,19 0 0 0 -1.34,-1.49 18.61,18.61 0 0 0 -13.19,-5.47 18.66,18.66 0 0 0 -17.19,11.4 1.91,1.91 0 0 0 1.13,2.78 c 1.67,0.74 2.33,0 2.78,-1.13 a 14.49,14.49 0 0 1 7.67,-7.67 14.43,14.43 0 0 1 18.88,7.67 c 0.33,0.79 0.42,1.51 2,1.51 1.38,0 1.62,-0.72 2,-1.51 a 14.44,14.44 0 0 1 3.08,-4.58 14.63,14.63 0 0 1 4.58,-3.09 14.49,14.49 0 0 1 11.22,0 14.49,14.49 0 0 1 7.67,7.67 c 0.45,1.08 1,1.87 2.78,1.13 1.78,-0.74 1.59,-1.7 1.13,-2.78 a 18.65,18.65 0 0 0 -30.38,-5.93 17.17,17.17 0 0 0 -1.42,1.49 z"
       id="path41"
       inkscape:connector-curvature="0"
       style="fill:#37bef0" />
    <path
       class="cls-1"
       d="m 156.33,14.68 a 0.91,0.91 0 0 1 -1.4,0 17.17,17.17 0 0 0 -1.34,-1.49 18.37,18.37 0 0 0 -5.93,-4 18.68,18.68 0 0 0 -24.45,9.93 1.91,1.91 0 0 0 1.13,2.78 c 1.68,0.74 2.33,0 2.79,-1.13 a 14.33,14.33 0 0 1 3.08,-4.58 14.63,14.63 0 0 1 4.58,-3.09 14.49,14.49 0 0 1 11.22,0 14.49,14.49 0 0 1 7.67,7.67 c 0.33,0.79 0.41,1.51 1.95,1.51 1.38,0 1.63,-0.72 2,-1.51 a 14.49,14.49 0 0 1 7.67,-7.67 14.43,14.43 0 0 1 18.88,7.67 c 0.46,1.08 1,1.87 2.78,1.13 1.78,-0.74 1.59,-1.7 1.13,-2.78 a 18.65,18.65 0 0 0 -30.38,-5.93 19,19 0 0 0 -1.38,1.49 z"
       id="path43"
       inkscape:connector-curvature="0"
       style="fill:#37bef0" />
    <path
       class="cls-1"
       d="m 242.2,14.68 a 0.91,0.91 0 0 1 -1.4,0 19,19 0 0 0 -1.34,-1.49 18.61,18.61 0 0 0 -13.19,-5.47 18.66,18.66 0 0 0 -17.19,11.4 1.91,1.91 0 0 0 1.13,2.78 c 1.67,0.74 2.33,0 2.78,-1.13 a 14.49,14.49 0 0 1 7.67,-7.67 14.43,14.43 0 0 1 18.88,7.67 c 0.33,0.79 0.42,1.51 2,1.51 1.38,0 1.62,-0.72 1.95,-1.51 a 14.49,14.49 0 0 1 7.67,-7.67 14.49,14.49 0 0 1 11.22,0 14.49,14.49 0 0 1 7.62,7.67 c 0.45,1.08 1,1.87 2.78,1.13 1.78,-0.74 1.59,-1.7 1.13,-2.78 a 18.65,18.65 0 0 0 -30.38,-5.93 17.17,17.17 0 0 0 -1.33,1.49 z"
       id="path45"
       inkscape:connector-curvature="0"
       style="fill:#37bef0" />
    <path
       class="cls-1"
       d="m 328.06,14.68 a 0.91,0.91 0 0 1 -1.4,0 17.17,17.17 0 0 0 -1.34,-1.49 18.37,18.37 0 0 0 -5.93,-4 18.68,18.68 0 0 0 -24.45,9.93 1.91,1.91 0 0 0 1.13,2.78 c 1.68,0.74 2.33,0 2.79,-1.13 a 14.33,14.33 0 0 1 3.08,-4.58 14.63,14.63 0 0 1 4.58,-3.09 14.49,14.49 0 0 1 11.22,0 14.49,14.49 0 0 1 7.67,7.67 c 0.33,0.79 0.41,1.51 1.95,1.51 1.38,0 1.63,-0.72 2,-1.51 a 14.49,14.49 0 0 1 7.64,-7.67 14.43,14.43 0 0 1 18.88,7.67 c 0.46,1.08 1,1.87 2.78,1.13 1.78,-0.74 1.59,-1.7 1.13,-2.78 a 18.65,18.65 0 0 0 -30.38,-5.93 19,19 0 0 0 -1.35,1.49 z"
       id="path47"
       inkscape:connector-curvature="0"
       style="fill:#37bef0" />
  </g>
</svg>
