<svg xmlns="http://www.w3.org/2000/svg" viewBox="0 0 480 80"><defs><style>.cls-1,.cls-2{fill:#00a3df;}.cls-2{stroke:#00a3df;stroke-linecap:round;stroke-linejoin:round;stroke-width:1.16px;}</style></defs><g id="レイヤー_1" data-name="レイヤー 1"><path class="cls-1" d="M426.62,33.36a1.22,1.22,0,0,1-1.9,0c-.57-.7-1.18-1.37-1.82-2a25.32,25.32,0,0,0-41.22,8.05,2.6,2.6,0,0,0,1.53,3.78c2.27,1,3.16-.07,3.78-1.54a19.46,19.46,0,0,1,4.19-6.21,19.52,19.52,0,0,1,27.64,0A19.46,19.46,0,0,1,423,41.63c.45,1.07.57,2,2.66,2,1.87,0,2.2-1,2.65-2a19.79,19.79,0,0,1,4.19-6.21,19.57,19.57,0,0,1,31.84,6.21c.62,1.47,1.32,2.54,3.78,1.54s2.15-2.32,1.53-3.78a25.31,25.31,0,0,0-41.22-8A26.54,26.54,0,0,0,426.62,33.36Z"/><path class="cls-1" d="M55.28,33.36a1.22,1.22,0,0,1-1.9,0,26.54,26.54,0,0,0-1.82-2,25.32,25.32,0,0,0-41.22,8.05,2.6,2.6,0,0,0,1.53,3.78c2.28,1,3.16-.07,3.78-1.54a19.55,19.55,0,0,1,31.84-6.21,19.79,19.79,0,0,1,4.19,6.21c.45,1.07.56,2,2.65,2,1.87,0,2.21-1,2.66-2a19.46,19.46,0,0,1,4.19-6.21,19.52,19.52,0,0,1,27.64,0A19.46,19.46,0,0,1,93,41.63c.62,1.47,1.33,2.54,3.78,1.54s2.15-2.32,1.53-3.78a25.31,25.31,0,0,0-41.22-8C56.46,32,55.85,32.66,55.28,33.36Z"/><path class="cls-2" d="M203.58,14.94h5.52c4,0,6.42,1.59,6.42,4.57,0,2.81-2.34,4.67-4.62,5.2l0,.12c2.13.49,3.79,1.83,3.79,4.2,0,4.61-3.67,6.62-8.59,6.62h-6.64Zm2.28,18.78c3.92,0,6.42-1.36,6.42-4.56,0-2.09-1.68-3.53-4.73-3.53H203.9l-1.65,8.09Zm1.35-9.86c3.94,0,5.81-1.65,5.81-4,0-1.89-1.41-3-4.54-3h-2.84l-1.41,7Z"/><path class="cls-2" d="M225.76,14.94h2.46L224.5,33.58h8.72l-.42,2.07H221.62Z"/><path class="cls-2" d="M240.78,27.36c0-6.32,4.13-12.8,10.08-12.8,4.61,0,7.15,3.44,7.15,8.67,0,6.32-4.13,12.8-10.08,12.8C243.32,36,240.78,32.59,240.78,27.36Zm14.73-3.93c0-4.05-1.49-6.75-4.78-6.75-4.45,0-7.45,5.63-7.45,10.48,0,4.05,1.49,6.75,4.78,6.75C252.51,33.91,255.51,28.28,255.51,23.43Z"/><path class="cls-2" d="M264.46,27.68c0-6.58,4.23-13.12,11-13.12a5.87,5.87,0,0,1,5.21,3.07l-1.73,1.29a4.07,4.07,0,0,0-3.61-2.24c-5.2,0-8.37,5.75-8.37,10.76,0,3.69,1.54,6.49,5.52,6.49A5.33,5.33,0,0,0,276,32.67L277.16,27h-4.27l.4-2h6.49l-1.8,9A9.13,9.13,0,0,1,272.11,36C267.12,36,264.46,32.71,264.46,27.68Z"/><path class="cls-1" d="M118,69.05a10.64,10.64,0,0,0,4.38.65c.83,0,6.09,0,7.14,0a7.14,7.14,0,0,0-.73,1.33h-6.59c-4,0-6.09-.63-7.09-3.31a12.52,12.52,0,0,1-1.85,3.71,2.35,2.35,0,0,0-.81-.79c1.6-2.13,2.18-5.12,2.48-7.51l1.13.07c-.11.72-.21,1.49-.38,2.29a5.12,5.12,0,0,0,1.21,2.81l.9-6.4h-3.71l.16-1.19h3.44L118,58.4h-2.75l.16-1.18h2.76l.31-2.2h1.24l-.31,2.2h2.71L122,58.4h-2.7L119,60.67h3l-.17,1.19H119l-.35,2.51h2.58l-.17,1.18h-2.58Zm4.77-10.93H126c.1-1,.22-2,.35-3.1h1.28c-.16,1.08-.28,2.1-.39,3.1H131l-.16,1.15h-3.7a35.52,35.52,0,0,0-.08,5,20.07,20.07,0,0,0,2.18-3.84l1,.29a21.61,21.61,0,0,1-3,5.06c.22,1.16.59,1.82,1.12,1.82s.65-.77,1-2.66a2.62,2.62,0,0,0,.88.64c-.55,2.49-1.05,3.25-2.15,3.25-.87,0-1.47-.71-1.82-1.93a13.13,13.13,0,0,1-2.8,2.23,3.72,3.72,0,0,0-.7-.93A12.23,12.23,0,0,0,126,65.59a30.13,30.13,0,0,1-.07-6.32h-2.07L123,65.39c.72-.36,1.46-.75,2.2-1.15l.24,1c-1.73,1-3.56,2-5,2.74L120,66.91l1.67-.83Zm6.93-.24a9,9,0,0,0-1.44-2.21l1-.49a9.46,9.46,0,0,1,1.48,2.13Z"/><path class="cls-1" d="M140.65,69.91a1.35,1.35,0,0,1-.82,1.25,7.87,7.87,0,0,1-2.54.21A4.5,4.5,0,0,0,137,70.2c.9,0,1.71,0,1.95,0s.35-.09.38-.32l.34-2.4h-4l-.55,3.87h-1.28l1.51-10.7H142Zm10-12.06-.17,1.22h-16l.17-1.22h4.41a10,10,0,0,0-1.3-2.4l1.29-.47a10,10,0,0,1,1.45,2.52l-.93.35H145a26.2,26.2,0,0,0,2.1-2.92l1.34.47c-.6.82-1.32,1.71-2,2.45Zm-10.83,8.59.25-1.8h-4l-.25,1.8Zm-3.33-4.61-.25,1.76h4l.25-1.76Zm7.81,6.34h-1.24l1-7.32h1.25Zm3.48-7.86h1.32l-1.33,9.46c-.12.81-.35,1.17-.92,1.39a9.31,9.31,0,0,1-2.88.23,4.6,4.6,0,0,0-.31-1.28c1.1,0,2.07,0,2.34,0s.41-.09.45-.36Z"/><path class="cls-1" d="M152.88,70.45a64.23,64.23,0,0,0,3.63-5.81l.92.75c-1,1.91-2.35,4.15-3.47,5.84Zm3.66-7.62a10,10,0,0,0-2.74-1.9l.88-1a11,11,0,0,1,2.81,1.8ZM158,58.19a10.81,10.81,0,0,0-2.68-2l.89-.95A10,10,0,0,1,159,57.14ZM168.26,65q-.34,1.64-.6,2.73h1.73l-.17,1.18h-1.89a4.31,4.31,0,0,1-.86,1.85,1.7,1.7,0,0,1-1.31.63,16,16,0,0,1-2.28,0,2.08,2.08,0,0,0-.19-1.11c.93.07,1.74.07,2.08.07a.85.85,0,0,0,.72-.25,3.48,3.48,0,0,0,.58-1.17h-6.69l-.26.82-1.26-.12c.42-1.21.93-2.88,1.42-4.61h-1.65l.17-1.23h1.84c.36-1.3.7-2.57,1-3.69h8.57s-.08.47-.1.61c-.22,1.15-.41,2.16-.58,3.08h1.55L169.88,65Zm-6.87-6.54a16.86,16.86,0,0,1-2.25,2.83,5.88,5.88,0,0,0-1-.76A16.37,16.37,0,0,0,161.84,55l1.29.29c-.3.66-.63,1.31-1,1.94h8.51l-.18,1.23ZM160.53,65c-.26,1-.54,1.89-.78,2.73h2.61c.22-.79.48-1.74.73-2.73Zm1-3.75c-.2.81-.43,1.66-.68,2.52h2.52c.22-.86.41-1.73.58-2.52Zm4.86,6.48c.19-.72.39-1.62.61-2.73h-2.77c-.25,1-.51,1.94-.73,2.73Zm.86-4,.46-2.52h-2.61c-.17.79-.38,1.66-.57,2.52Z"/><path class="cls-1" d="M176.29,61.81,176,64.06c-.3,2.11-1,5.08-2.8,7.08a3.65,3.65,0,0,0-1-.87A11.5,11.5,0,0,0,174.66,64l.48-3.44h14.54l-.17,1.21Zm12.64-2.63H175.45l.49-3.48h1.31L176.94,58h4.64l.42-3h1.39L183,58h4.76l.32-2.27h1.37Zm0,8.45h-5.91l-.54,3.83h-1.39l.54-3.83h-5.62l.17-1.21h5.62l.27-1.93h-4.72l.16-1.15h11.06l-.16,1.15H183.5l-.27,1.93h5.91Z"/><path class="cls-1" d="M208.47,69.86l-.17,1.22H192.15l.17-1.22h2.22l.61-4.32H207l-.61,4.32Zm-12.07-9a10.9,10.9,0,0,1-2.47,4.88,3.16,3.16,0,0,0-1-.83,10.25,10.25,0,0,0,2.47-5.77l.3-2.14h6.7a14.38,14.38,0,0,1,.05-2h1.31a12.91,12.91,0,0,0,0,2h2.88a7.85,7.85,0,0,0-1.54-1.44l1-.58a9.13,9.13,0,0,1,1.78,1.59l-.71.43h2.79l-.17,1.17h-6a13,13,0,0,0,.87,3.26,13.85,13.85,0,0,0,2.63-2.79l1.16.38a17.11,17.11,0,0,1-3.24,3.4,2.77,2.77,0,0,0,2.21,1.5c.46,0,.74-.56,1.05-2.13a2.84,2.84,0,0,0,1,.6c-.53,2.21-1.1,2.81-2.31,2.81a3.79,3.79,0,0,1-3.08-1.93,22.18,22.18,0,0,1-3,1.71,5.69,5.69,0,0,0-.76-1,19,19,0,0,0,3.16-1.71,12.82,12.82,0,0,1-1.06-4.11h-5.61l-.14,1c0,.2,0,.4-.1.61h4.43s-.06.33-.1.49c-.44,2.34-.72,3.3-1.11,3.66a1.47,1.47,0,0,1-1,.41,15,15,0,0,1-1.87,0,2.8,2.8,0,0,0-.16-1c.69.07,1.34.07,1.59.07a.69.69,0,0,0,.52-.14,5.82,5.82,0,0,0,.69-2.34Zm-.6,9h2.26l.45-3.22h-2.25Zm3.93-3.22-.45,3.22h2.27l.45-3.22Zm3.52,0-.45,3.22h2.28l.46-3.22Z"/><path class="cls-1" d="M219.33,55.92a36.28,36.28,0,0,0-1.53,4.95c1-1.84,3.15-4,5.4-4s3.76,2.38,3.23,6.12c-.69,5-4.12,7.14-8.67,8l-.66-1.3c4-.59,7.2-2.14,7.83-6.63.4-2.81-.26-4.83-2.15-4.83-2.21,0-4.72,3.23-5.27,5.57a7.92,7.92,0,0,0-.27,2.18l-1.42.11a23.53,23.53,0,0,1,.22-2.83,50.23,50.23,0,0,1,1.35-5.76c.15-.56.28-1.1.36-1.54Z"/><path class="cls-1" d="M248.17,69.26,248,70.6H231.93l.19-1.34h6.72l2-14h1.41l-.78,5.51h6.71L248,62.13h-6.7l-1,7.13Z"/><path class="cls-1" d="M257.14,56.82c-.13.32-.34.81-.47,1.15-.93,2.58-2,6.31-1.8,9.22.36-.73.87-1.82,1.32-2.7l.73.49c-.61,1.24-1.41,3.06-1.71,3.94a3.27,3.27,0,0,0-.2.79c0,.17,0,.42,0,.6l-1.27.16a19.47,19.47,0,0,1-.14-5.65,48.66,48.66,0,0,1,1.67-7,8.29,8.29,0,0,0,.25-1.17Zm8.85-.27a9.15,9.15,0,0,0-.22,1c-.07.4-.2,1.57-.33,2.65a21.53,21.53,0,0,0,3.18-.45l-.21,1.5c-.89.14-2,.25-3.15.32l-.07.5c-.57,4.11-1,7-5.08,9.26l-1.19-1a8.24,8.24,0,0,0,1.91-1.12c2.14-1.66,2.51-3.67,3-7.1l.06-.43c-.68,0-1.37,0-2,0-.84,0-2.1-.06-2.87-.11l.21-1.44a21.76,21.76,0,0,0,2.83.2c.65,0,1.34,0,2.05,0,.11-1.1.24-2.27.27-2.74a6.89,6.89,0,0,0,0-1Zm1.33,2.25a20.93,20.93,0,0,0-.66-2.54l.91-.27a20.3,20.3,0,0,1,.69,2.49Zm2.13-3.37c.25.67.54,1.77.73,2.49l-.94.3a17.48,17.48,0,0,0-.7-2.5Z"/><path class="cls-1" d="M289,61.38a38.52,38.52,0,0,1-3.31,2.55,8.05,8.05,0,0,0,2.58,4.49,5.36,5.36,0,0,0-1.05,1c-2.23-2-3.11-5.66-3.26-10a18.59,18.59,0,0,1-1.85,1.5c2.91,3,2.25,8.46.6,9.81a2.46,2.46,0,0,1-1.8.69c-.35,0-.79,0-1.26-.06a2.39,2.39,0,0,0-.17-1.22c.54,0,1,.09,1.34.09a1.24,1.24,0,0,0,1.05-.42,5.2,5.2,0,0,0,.95-3.65,23.91,23.91,0,0,1-6.07,3.94,3.48,3.48,0,0,0-.68-1,19.66,19.66,0,0,0,6.62-4.22,8,8,0,0,0-.42-1.4,24.29,24.29,0,0,1-4,2.67,3.68,3.68,0,0,0-.56-.89,2.47,2.47,0,0,1-.91,1.59,2.07,2.07,0,0,1-1,.32,7.93,7.93,0,0,1-1.21,0,2.48,2.48,0,0,0-.18-1.19,6.35,6.35,0,0,0,1,0,1.17,1.17,0,0,0,.59-.15,1.79,1.79,0,0,0,.53-1.22,4.49,4.49,0,0,0-1.1-3.57c.71-1.31,1.46-2.92,2-4.14h-2.36l-2,14.44H272l2.2-15.67h4l.22-.05.79.52c-.75,1.48-1.65,3.32-2.45,4.74a4.94,4.94,0,0,1,1.06,3.85,2.08,2.08,0,0,1-.06.36,19.37,19.37,0,0,0,4.1-2.55,5.64,5.64,0,0,0-.75-1,25.17,25.17,0,0,1-2.68,1.5,4.84,4.84,0,0,0-.68-1,19.32,19.32,0,0,0,4.94-2.95h-4l.17-1.17h2.52a9.32,9.32,0,0,0-.8-2.56l1.14-.38a9.6,9.6,0,0,1,.92,2.68l-.72.26h4l-.65-.24A24.93,24.93,0,0,0,287.07,55l1.23.39c-.62.92-1.3,1.91-1.87,2.62h3l-.17,1.17h-4.16a25.39,25.39,0,0,0,.4,3.71,29.47,29.47,0,0,0,2.76-2.38Z"/><path class="cls-1" d="M299.35,69.19a11.13,11.13,0,0,0,1.56-.21,6.41,6.41,0,0,0,5.26-5.28c.38-2.7-1-4.92-4-5.17a42.24,42.24,0,0,1-1.78,5.13c-1.62,3.66-3.31,5.55-5,5.55s-2.94-1.84-2.52-4.77c.54-3.87,4.48-7.26,8.84-7.26,4.18,0,6.43,3,5.92,6.56S304.32,70,300,70.54ZM299,63.36a33.22,33.22,0,0,0,1.66-4.81,7.45,7.45,0,0,0-6.32,5.76c-.32,2.25.59,3.24,1.36,3.24S297.65,66.37,299,63.36Z"/><path class="cls-1" d="M326.37,57.79l.8.56a4,4,0,0,0-.39.9,21.12,21.12,0,0,1-3.62,6.65,16.68,16.68,0,0,1-7.78,4.81l-1-1.35A14.29,14.29,0,0,0,322,65a16.13,16.13,0,0,0,3.19-5.87h-9.23c-.7,0-1.34,0-1.79.05l.22-1.58c.48,0,1.2.11,1.79.11h9a3.69,3.69,0,0,0,.78-.06c-.28-.68-.69-1.58-1-2.16l1-.41a21.64,21.64,0,0,1,1.11,2.38Zm2-3.15A21.82,21.82,0,0,1,329.53,57l-1.06.43a16.08,16.08,0,0,0-1.14-2.4Z"/><path class="cls-1" d="M345.85,68c-.08.58-.26,2-.27,2.16H344c0-.12.1-.54.16-1h-9.83c-.05.46-.11.9-.11,1H332.7c.05-.21.27-1.55.36-2.18l1.24-8.86c.06-.41.14-1,.16-1.4l1.6,0h9.68c.4,0,1.05,0,1.59,0-.1.45-.17.95-.23,1.4ZM335.76,59.2l-1.21,8.55h9.86l1.2-8.55Z"/><path class="cls-1" d="M364.13,58.69a3.67,3.67,0,0,0,1.2-.16l1.08.72a7.48,7.48,0,0,0-.55,1,21.09,21.09,0,0,1-4.06,6.21,19.35,19.35,0,0,1-7.86,4.9l-1.15-1.19A16.85,16.85,0,0,0,364.29,60h-6.07a21.68,21.68,0,0,1-5.2,4.43l-1.12-.92a18.48,18.48,0,0,0,6.52-6.09,7.74,7.74,0,0,0,.76-1.44l1.58.56c-.36.47-.77,1.08-1,1.41s-.34.5-.52.75Zm1.6-3a22.17,22.17,0,0,1,1.13,2.46l-1,.44a16.8,16.8,0,0,0-1.12-2.49Zm2.08-.72A17.46,17.46,0,0,1,369,57.4l-1,.43a16,16,0,0,0-1.15-2.47Z"/></g></svg>