<svg xmlns="http://www.w3.org/2000/svg" viewBox="0 0 480 80"><defs><style>.cls-1,.cls-2{fill:#37bef0;}.cls-2{stroke:#37bef0;stroke-linecap:round;stroke-linejoin:round;stroke-width:1.16px;}</style></defs><g id="レイヤー_1" data-name="レイヤー 1"><path class="cls-1" d="M426.62,33.36a1.22,1.22,0,0,1-1.9,0c-.57-.7-1.18-1.37-1.82-2a25.32,25.32,0,0,0-41.22,8.05,2.6,2.6,0,0,0,1.53,3.78c2.27,1,3.16-.07,3.78-1.54a19.46,19.46,0,0,1,4.19-6.21,19.52,19.52,0,0,1,27.64,0A19.46,19.46,0,0,1,423,41.63c.45,1.07.57,2,2.66,2,1.87,0,2.2-1,2.65-2a19.79,19.79,0,0,1,4.19-6.21,19.57,19.57,0,0,1,31.84,6.21c.62,1.47,1.32,2.54,3.78,1.54s2.15-2.32,1.53-3.78a25.31,25.31,0,0,0-41.22-8A26.54,26.54,0,0,0,426.62,33.36Z"/><path class="cls-1" d="M55.28,33.36a1.22,1.22,0,0,1-1.9,0,26.54,26.54,0,0,0-1.82-2,25.32,25.32,0,0,0-41.22,8.05,2.6,2.6,0,0,0,1.53,3.78c2.28,1,3.16-.07,3.78-1.54a19.55,19.55,0,0,1,31.84-6.21,19.79,19.79,0,0,1,4.19,6.21c.45,1.07.56,2,2.65,2,1.87,0,2.21-1,2.66-2a19.46,19.46,0,0,1,4.19-6.21,19.52,19.52,0,0,1,27.64,0A19.46,19.46,0,0,1,93,41.63c.62,1.47,1.33,2.54,3.78,1.54s2.15-2.32,1.53-3.78a25.31,25.31,0,0,0-41.22-8C56.46,32,55.85,32.66,55.28,33.36Z"/><path class="cls-2" d="M197.69,15h2.47l4.71,13.27,1.33,4.33h.13c.27-2,.51-4.47.94-6.61l2.2-11h2.36l-4.14,20.71h-2.42l-4.68-13.23L199.25,18h-.13c-.27,2.13-.58,4.44-1,6.54l-2.21,11.13h-2.36Z"/><path class="cls-2" d="M223.7,15h11.42L234.69,17h-9l-1.34,6.7H232l-.43,2.08H224l-1.6,7.78h9.28l-.42,2.07h-11.7Z"/><path class="cls-2" d="M244.09,15h2.5l-.3,11.39c-.12,2.23-.16,4.49-.32,6.73h.13c1-2.24,2-4.51,2.94-6.73L254.22,15h2.22l.28,11.39c.06,2.21,0,4.48,0,6.73h.12c.86-2.25,1.76-4.51,2.63-6.73L264,15h2.4l-8.52,20.71h-3.1L254.56,23c0-1.53,0-3.22.09-4.86h-.13c-.6,1.63-1.32,3.2-2,4.86l-5.64,12.64H243.8Z"/><path class="cls-2" d="M271.51,32.4l1.8-1.37a6.22,6.22,0,0,0,5.33,2.91c2.53,0,4.43-1.52,4.43-3.89,0-1.53-1-2.48-2.57-3.41l-2.41-1.44c-1.77-1.08-3.19-2.54-3.19-4.88,0-3.11,2.72-5.75,6.45-5.75a7.36,7.36,0,0,1,5.85,2.93L285.6,19a5.75,5.75,0,0,0-4.44-2.26,3.53,3.53,0,0,0-3.75,3.37c0,1.59,1.16,2.44,2.68,3.35l2.41,1.42c2,1.16,3.1,2.55,3.1,4.87,0,3.7-3,6.34-7.18,6.34A8,8,0,0,1,271.51,32.4Z"/><path class="cls-1" d="M211.58,64.43a12.31,12.31,0,0,1-3.24,4.23,8.18,8.18,0,0,0,3.4,1.73,5.54,5.54,0,0,0-1,1,8.8,8.8,0,0,1-3.49-2,15,15,0,0,1-3.85,1.89,3.54,3.54,0,0,0-.56-1l-.16,1.12h-1.28l.25-1.75-6.18.72.05-1.19c.51,0,1.09-.09,1.73-.16l.85-6h-1.55l.16-1.12H212.5L212.34,63h-8.43l-1,7.29a13.05,13.05,0,0,0,3.63-1.71A8.76,8.76,0,0,1,205,65.44l.81-.23h-1.55l.15-1.07h6.2l.24,0ZM198.53,69c1.05-.11,2.18-.21,3.31-.34l.16-1.1h-3.26Zm.35-2.45h3.26l.18-1.26h-3.27Zm11.74-5.6H199l.75-5.31h11.59ZM199.37,63l-.17,1.2h3.26l.17-1.2Zm10.25-4.34h-9L200.43,60h9Zm.3-2.15h-9l-.18,1.25h9Zm-3.8,8.67a7.14,7.14,0,0,0,1.4,2.64,10.42,10.42,0,0,0,2.32-2.64Z"/><path class="cls-1" d="M224.2,68.86a22.6,22.6,0,0,0-1.77-2l-.64,4.58h-1.3l.67-4.74a17.92,17.92,0,0,1-3.5,3.48,4.27,4.27,0,0,0-.77-1,15.62,15.62,0,0,0,4.2-4.06h-3.23L218,64h3.51l.27-1.89h-3.57l.16-1.14h8.36l-.16,1.14H223.1L222.83,64h3.35L226,65.13h-3.35l-.06.44c.61.5,2.16,1.92,2.52,2.3ZM227,58h-7.89l.16-1.12h3.31l.26-1.82h1.29l-.25,1.82h3.28ZM220.43,61a9.39,9.39,0,0,0-.34-2.6l1.08-.27a8.76,8.76,0,0,1,.42,2.56Zm3-.29a17.88,17.88,0,0,0,1.26-2.61l1.19.28c-.47.9-1,1.91-1.41,2.56Zm11.08,1.64h-2l-1.27,9h-1.31l1.27-9h-2.69l-.06.45c-.38,2.68-1.23,6.28-4.1,8.79a2.72,2.72,0,0,0-.82-.94c2.6-2.23,3.29-5.35,3.64-7.87l.88-6.27.93.31a28,28,0,0,0,5.23-1.55l.94,1a33.57,33.57,0,0,1-6,1.62l-.45,3.21h6Z"/><path class="cls-1" d="M239.45,63.06a25.42,25.42,0,0,0,1.47-4.59l1,.13a25,25,0,0,1-1.45,4.8Zm3.34-8H244l-2.31,16.43h-1.25Zm1.9,2.63a12.6,12.6,0,0,1,.64,2.52l-1,.47a14.26,14.26,0,0,0-.57-2.65Zm9,12.3c-.09.69-.29,1-.82,1.23a8.28,8.28,0,0,1-2.6.19,6.12,6.12,0,0,0-.22-1.15c.9,0,1.76,0,2,0s.35-.07.39-.31l.18-1.29h-6.49l-.39,2.81h-1.27l1.21-8.58h9Zm2.67-9.13-.14,1h-11.7l.15-1h5.13l.18-1.26h-4.18l.14-1h4.18l.16-1.14h-4.6l.15-1h4.59l.2-1.4H252l-.19,1.4h4.74l-.15,1h-4.74l-.16,1.14h4.29l-.13,1h-4.29l-.18,1.26Zm-3.62,6.83.19-1.37h-6.49l-.19,1.37Zm-6-3.73-.19,1.35h6.49l.19-1.35Z"/><path class="cls-1" d="M266.52,59.8h3.31L269.67,61h-1.88l.84.23c-.44.83-.93,1.69-1.32,2.32h1.78l-.16,1.17h-3.1l-.27,1.95h2.86l-.16,1.13H265.4l-.52,3.66h-1.26l.51-3.66h-2.95l.16-1.13h3l.28-1.95h-3.14l.17-1.17h1.76a8.73,8.73,0,0,0-.43-2.32l.92-.23H261.7l.17-1.16h3.38L265.5,58h-2.73l.16-1.15h2.74l.25-1.82h1.26l-.25,1.82h2.63L269.4,58h-2.63Zm-.23,3.51A23.71,23.71,0,0,0,267.51,61H264a8,8,0,0,1,.5,2.37l-.66.18H267Zm11.19-1.15a19.4,19.4,0,0,1-3,5.93A7.32,7.32,0,0,0,277,70.37a7.43,7.43,0,0,0-1.08,1.09,8.21,8.21,0,0,1-2.34-2.29,13.13,13.13,0,0,1-2.74,2.32,3.63,3.63,0,0,0-.73-.88l-.12.86h-1.22L271,55.84h7l-.49,3.46c-.09.66-.27,1-.87,1.22a11,11,0,0,1-2.84.2,4,4,0,0,0-.25-1.17c1.11,0,2.05,0,2.32,0s.37-.07.4-.29l.31-2.22H272l-.68,4.85h5.12l.24,0Zm-7.36,8.38A12,12,0,0,0,273,68.12,15.51,15.51,0,0,1,271.34,63h-.16ZM272.48,63a13.62,13.62,0,0,0,1.33,4,17.49,17.49,0,0,0,2.11-4Z"/></g></svg>