<svg xmlns="http://www.w3.org/2000/svg" viewBox="0 0 480 80"><defs><style>.cls-1,.cls-2{fill:#37bef0;}.cls-2{stroke:#37bef0;stroke-linecap:round;stroke-linejoin:round;stroke-width:1.16px;}</style></defs><g id="レイヤー_1" data-name="レイヤー 1"><path class="cls-1" d="M426.62,33.36a1.22,1.22,0,0,1-1.9,0c-.57-.7-1.18-1.37-1.82-2a25.32,25.32,0,0,0-41.22,8.05,2.6,2.6,0,0,0,1.53,3.78c2.27,1,3.16-.07,3.78-1.54a19.46,19.46,0,0,1,4.19-6.21,19.52,19.52,0,0,1,27.64,0A19.46,19.46,0,0,1,423,41.63c.45,1.07.57,2,2.66,2,1.87,0,2.2-1,2.65-2a19.79,19.79,0,0,1,4.19-6.21,19.57,19.57,0,0,1,31.84,6.21c.62,1.47,1.32,2.54,3.78,1.54s2.15-2.32,1.53-3.78a25.31,25.31,0,0,0-41.22-8A26.54,26.54,0,0,0,426.62,33.36Z"/><path class="cls-1" d="M55.28,33.36a1.22,1.22,0,0,1-1.9,0,26.54,26.54,0,0,0-1.82-2,25.32,25.32,0,0,0-41.22,8.05,2.6,2.6,0,0,0,1.53,3.78c2.28,1,3.16-.07,3.78-1.54a19.55,19.55,0,0,1,31.84-6.21,19.79,19.79,0,0,1,4.19,6.21c.45,1.07.56,2,2.65,2,1.87,0,2.21-1,2.66-2a19.46,19.46,0,0,1,4.19-6.21,19.52,19.52,0,0,1,27.64,0A19.46,19.46,0,0,1,93,41.63c.62,1.47,1.33,2.54,3.78,1.54s2.15-2.32,1.53-3.78a25.31,25.31,0,0,0-41.22-8C56.46,32,55.85,32.66,55.28,33.36Z"/><path class="cls-2" d="M203.56,2.08h5.84c3.89,0,6.5,1.47,6.5,5.06,0,5.07-3.78,7.32-9.06,7.32h-3.32l-1.64,8.33h-2.46Zm3.38,10.4c4.26,0,6.52-1.72,6.52-5,0-2.39-1.64-3.39-4.68-3.39H205.6l-1.66,8.42Z"/><path class="cls-2" d="M225.65,2.08h2.46l-3.72,18.63h8.72l-.42,2.08H221.51Z"/><path class="cls-2" d="M250.24,2.08h2.82l2.4,20.71h-2.55L251.84,10.9c-.19-2.2-.41-4.39-.57-6.75h-.13c-1.09,2.38-2.15,4.47-3.31,6.75l-6.12,11.89H239Zm-5.73,12.33h9.09l-.45,1.91H244Z"/><path class="cls-2" d="M267.22,2.08h2.46l4.72,13.27,1.33,4.32h.12c.27-2.05.52-4.46.94-6.6l2.2-11h2.37l-4.14,20.71h-2.43L270.11,9.56l-1.34-4.45h-.13c-.27,2.14-.58,4.44-1,6.54l-2.2,11.14h-2.37Z"/><path class="cls-1" d="M177.49,51.52l-.13.95H164.93l.13-.95h1.71l.47-3.33h9.13l-.47,3.33Zm-9.28-7a8.27,8.27,0,0,1-1.91,3.76,2.71,2.71,0,0,0-.75-.63,7.87,7.87,0,0,0,1.9-4.44l.23-1.65h5.16a11.11,11.11,0,0,1,0-1.52h1a11.11,11.11,0,0,0,0,1.52h2.22a5.72,5.72,0,0,0-1.19-1.11l.77-.45A7,7,0,0,1,177,41.27l-.55.34h2.15l-.12.9h-4.6a10.52,10.52,0,0,0,.68,2.51,10.78,10.78,0,0,0,2-2.15l.89.29A13.15,13.15,0,0,1,175,45.78a2.13,2.13,0,0,0,1.7,1.15c.36,0,.57-.43.81-1.63a2.06,2.06,0,0,0,.77.45c-.41,1.71-.85,2.17-1.78,2.17a2.91,2.91,0,0,1-2.37-1.49,17.66,17.66,0,0,1-2.28,1.32,4.46,4.46,0,0,0-.59-.76,14.77,14.77,0,0,0,2.44-1.32,9.62,9.62,0,0,1-.82-3.16h-4.32l-.1.76c0,.15-.05.31-.08.47h3.41s0,.25-.08.38c-.34,1.8-.55,2.54-.85,2.81a1.17,1.17,0,0,1-.8.32,11.65,11.65,0,0,1-1.44,0,2.21,2.21,0,0,0-.12-.81,11.06,11.06,0,0,0,1.23.06.55.55,0,0,0,.4-.11,4.81,4.81,0,0,0,.53-1.81Zm-.47,7h1.74l.34-2.48h-1.73Zm3-2.48-.35,2.48h1.75l.34-2.48Zm2.7,0-.35,2.48h1.76l.35-2.48Z"/><path class="cls-1" d="M186.75,40.79a27.17,27.17,0,0,0-1.18,3.81c.74-1.41,2.43-3.12,4.16-3.12s2.89,1.83,2.48,4.72c-.53,3.81-3.17,5.49-6.67,6.11l-.51-1c3.05-.46,5.55-1.66,6-5.11.31-2.16-.2-3.72-1.65-3.72-1.71,0-3.64,2.49-4.06,4.29a6.07,6.07,0,0,0-.21,1.68l-1.09.08a15.66,15.66,0,0,1,.17-2.18,36.62,36.62,0,0,1,1-4.44c.11-.43.21-.84.27-1.17Z"/><path class="cls-1" d="M209.85,51.07l-.15,1H197.34l.15-1h5.17l1.51-10.77h1.09l-.6,4.25h5.16l-.15,1h-5.16l-.77,5.5Z"/><path class="cls-1" d="M217.65,41.48c-.11.25-.27.63-.36.89a18.83,18.83,0,0,0-1.39,7.1c.28-.57.67-1.4,1-2.08l.55.37c-.46,1-1.08,2.36-1.31,3a2.77,2.77,0,0,0-.16.61c0,.13,0,.32,0,.46L215,52a14.79,14.79,0,0,1-.11-4.36,37.13,37.13,0,0,1,1.28-5.38,6.84,6.84,0,0,0,.2-.9Zm6.81-.21a5.55,5.55,0,0,0-.17.81c-.06.3-.15,1.2-.26,2a16.58,16.58,0,0,0,2.45-.35l-.16,1.15c-.68.11-1.53.19-2.42.25l-.06.39c-.44,3.16-.77,5.41-3.91,7.13l-.91-.81a5.72,5.72,0,0,0,1.46-.86c1.65-1.27,1.94-2.83,2.31-5.46l.05-.33-1.57,0c-.66,0-1.62,0-2.21-.08l.15-1.11a17.81,17.81,0,0,0,2.19.15l1.57,0c.09-.85.19-1.75.21-2.11a5.23,5.23,0,0,0,0-.81Zm1,1.74a18.09,18.09,0,0,0-.5-2l.69-.21a17,17,0,0,1,.54,1.92Zm1.64-2.6c.19.52.42,1.36.56,1.92l-.72.23a13.23,13.23,0,0,0-.54-1.93Z"/><path class="cls-1" d="M243.09,45a30.2,30.2,0,0,1-2.56,2,6.21,6.21,0,0,0,2,3.45,4.64,4.64,0,0,0-.81.79c-1.71-1.51-2.4-4.35-2.51-7.71a13.68,13.68,0,0,1-1.42,1.15c2.24,2.32,1.73,6.52.46,7.56a1.9,1.9,0,0,1-1.39.53c-.26,0-.61,0-1,0a1.94,1.94,0,0,0-.13-.94c.41,0,.76.06,1,.06a1,1,0,0,0,.8-.31,4,4,0,0,0,.73-2.82,18.18,18.18,0,0,1-4.67,3,2.36,2.36,0,0,0-.52-.75,15,15,0,0,0,5.09-3.25,5.33,5.33,0,0,0-.32-1.08,18.37,18.37,0,0,1-3.06,2,3.1,3.1,0,0,0-.43-.68,1.93,1.93,0,0,1-.7,1.23,1.7,1.7,0,0,1-.76.24,5.63,5.63,0,0,1-.93,0,1.93,1.93,0,0,0-.14-.91,4.46,4.46,0,0,0,.81,0,.92.92,0,0,0,.46-.11,1.4,1.4,0,0,0,.41-.94,3.48,3.48,0,0,0-.85-2.75c.54-1,1.12-2.25,1.54-3.19h-1.82l-1.56,11.12H230l1.69-12.06h3.11l.17,0,.61.41c-.58,1.13-1.27,2.55-1.89,3.65a3.76,3.76,0,0,1,.82,3,1.37,1.37,0,0,1-.05.28,14.79,14.79,0,0,0,3.16-2,3.91,3.91,0,0,0-.58-.79,19.53,19.53,0,0,1-2.06,1.15,4.7,4.7,0,0,0-.52-.73,15.17,15.17,0,0,0,3.8-2.28h-3.1l.13-.9h1.94a7.07,7.07,0,0,0-.61-2l.87-.29a6.89,6.89,0,0,1,.71,2.07l-.55.19h3.12l-.5-.18a19.76,19.76,0,0,0,1.35-2.14l.94.31c-.47.71-1,1.47-1.43,2h2.29l-.13.9h-3.2a21.08,21.08,0,0,0,.3,2.86,23.94,23.94,0,0,0,2.13-1.83Z"/><path class="cls-1" d="M257.76,41.59c-.18.27-.45.72-.6,1a22.82,22.82,0,0,1-2.66,4.1,29.94,29.94,0,0,1,3,3.16l-1,1a25.13,25.13,0,0,0-2.83-3.19,20.89,20.89,0,0,1-6,4.48l-.86-.87a19,19,0,0,0,6.12-4.36,31.76,31.76,0,0,0-3.5-2.8l.85-.88c1.08.75,2.53,1.89,3.5,2.74a18.84,18.84,0,0,0,2.4-3.78,8.43,8.43,0,0,0,.43-1Z"/><path class="cls-1" d="M269.15,48.79a16,16,0,0,0,5.35-5.1l.5,1.18a17,17,0,0,1-5.35,4.92A17.19,17.19,0,0,1,263.9,52l-.58-1.13A16.27,16.27,0,0,0,269.15,48.79Zm-.2-4.4-1,.88a23.71,23.71,0,0,0-3-2.9l.91-.85A25.39,25.39,0,0,1,269,44.39Z"/><path class="cls-1" d="M283.08,42.38l1.2.25c-.12.31-.29.71-.39,1A34.37,34.37,0,0,1,282,48a24.09,24.09,0,0,1-2.57,3.82l-1.11-.5A22.13,22.13,0,0,0,281,47.51,23.39,23.39,0,0,0,283.08,42.38Zm3.43.22,1.17-.37a36.68,36.68,0,0,1,1.41,4.38c.38,1.38.81,3.5,1,4.75l-1.29.4a36.58,36.58,0,0,0-.9-4.77A31.27,31.27,0,0,0,286.51,42.6Zm3.88.18-.79.34a13.85,13.85,0,0,0-.86-1.93l.78-.31A13.14,13.14,0,0,1,290.39,42.78Zm1.64-.56-.8.33a11.18,11.18,0,0,0-.88-1.92l.78-.3A14.79,14.79,0,0,1,292,42.22Z"/><path class="cls-1" d="M295.8,45.68c.42,0,1.14.07,1.92.07h7.6c.7,0,1.2,0,1.51-.07L306.64,47c-.28,0-.85-.07-1.48-.07h-7.61c-.76,0-1.5,0-1.94.07Z"/><path class="cls-1" d="M316.53,51a9.11,9.11,0,0,0,1.2-.17,4.93,4.93,0,0,0,4.06-4.06,3.24,3.24,0,0,0-3.09-4,32.05,32.05,0,0,1-1.38,4c-1.24,2.82-2.54,4.27-3.81,4.27s-2.26-1.41-1.94-3.67a7,7,0,0,1,6.8-5.59c3.22,0,4.95,2.27,4.56,5.05s-2.57,4.81-5.91,5.24Zm-.27-4.49a24.59,24.59,0,0,0,1.29-3.71,5.75,5.75,0,0,0-4.87,4.44c-.25,1.74.45,2.5,1.05,2.5S315.23,48.83,316.26,46.52Z"/><path class="cls-1" d="M170.61,69.75a15.16,15.16,0,0,1,3.49-.47c2.74,0,4.7,1.46,4.35,3.91-.3,2.1-1.62,3.69-4.55,4.39a15.69,15.69,0,0,1-2.38.29L171,75.58a13.82,13.82,0,0,0,2.22-.13c1.48-.25,2.73-1,2.92-2.28s-.82-1.91-2.37-1.91a13.75,13.75,0,0,0-3.42.48c-.16,1.43-.3,2.8-.38,3.41-.32,2.21-1.21,2.79-2.36,2.79-1.75,0-4-1.49-3.74-3.39.22-1.56,2.26-3.17,4.58-4.12,0-.41.1-.83.15-1.24l.21-1.5c-.34,0-.67,0-1,0-.81,0-1.7,0-2.47-.09l.27-2.16a20.19,20.19,0,0,0,2.45.14c.32,0,.67,0,1,0,.11-.63.18-1.15.22-1.45a14.71,14.71,0,0,0,.1-1.57h2.45c-.08.32-.27,1.1-.36,1.55s-.16.83-.24,1.28a27.5,27.5,0,0,0,3.37-.67L174.42,67a33.79,33.79,0,0,1-3.48.56c-.09.54-.17,1.08-.24,1.6Zm-2.67,5c.06-.45.16-1.26.26-2.2-1.18.56-2,1.3-2.1,1.93s.69,1,1.16,1S167.85,75.36,167.94,74.75Zm8.8-10.26a31.65,31.65,0,0,1,4,2.5l-1.34,1.84a22.23,22.23,0,0,0-3.92-2.6Z"/><path class="cls-1" d="M200,66.85c-1.07-.06-2.74-.09-5.16-.09-.1.9-.24,1.87-.35,2.64a4.05,4.05,0,0,1,.32,2.47c-.33,2.32-2.11,5.28-6.64,6.5l-1.63-1.91a9.47,9.47,0,0,0,4.65-2,4.38,4.38,0,0,1-.82.09,2.68,2.68,0,0,1-2.63-3.28,4,4,0,0,1,4-3.33,5,5,0,0,1,.7,0l.15-1.19c-2.71,0-5.48.15-7.7.27l.25-2.16c2,0,5.29-.09,7.69-.12a5.14,5.14,0,0,0,.06-.54,11.5,11.5,0,0,0,.06-1.55h2.59c-.09.28-.28,1.24-.34,1.53,0,.14-.06.32-.09.54,1.8,0,4.23,0,5.17,0Zm-8.92,5.69c.74,0,1.48-.56,1.46-2.11a1.08,1.08,0,0,0-1.08-.63,1.59,1.59,0,0,0-1.57,1.4A1.14,1.14,0,0,0,191.1,72.54Z"/><path class="cls-1" d="M219.84,66.85c-1.07-.06-2.74-.09-5.16-.09-.11.9-.24,1.87-.35,2.64a4.05,4.05,0,0,1,.32,2.47c-.33,2.32-2.11,5.28-6.65,6.5l-1.62-1.91a9.47,9.47,0,0,0,4.65-2,4.4,4.4,0,0,1-.83.09,2.68,2.68,0,0,1-2.62-3.28,4,4,0,0,1,4-3.33,4.86,4.86,0,0,1,.69,0l.15-1.19c-2.7,0-5.48.15-7.69.27l.25-2.16c2,0,5.29-.09,7.69-.12a5.14,5.14,0,0,0,.06-.54,11.18,11.18,0,0,0,0-1.55h2.6c-.1.28-.28,1.24-.34,1.53,0,.14-.07.32-.1.54,1.81,0,4.24,0,5.18,0Zm-8.93,5.69c.74,0,1.49-.56,1.47-2.11a1.09,1.09,0,0,0-1.08-.63,1.58,1.58,0,0,0-1.57,1.4A1.13,1.13,0,0,0,210.91,72.54Z"/><path class="cls-1" d="M235.07,65.55c2.7.63,4.28,2.88,3.84,6-.54,3.79-3.54,6-7.35,6.51L230.48,76c4-.34,5.79-2.34,6.1-4.57a3.26,3.26,0,0,0-2.33-3.93A25.79,25.79,0,0,1,231,73.19c.27.37.54.73.82,1.06l-2,1.42a7.9,7.9,0,0,1-.52-.7c-1.39,1.3-2.46,1.91-3.78,1.91-1.48,0-2.67-1.26-2.35-3.57a9.26,9.26,0,0,1,3.43-5.64c-.1-.46-.19-1-.27-1.44a10.42,10.42,0,0,0-.46-1.85l2.45-.72c0,.57.08,1.17.15,1.69.05.34.1.72.17,1.1a10.26,10.26,0,0,1,4.19-1.06c.12-.31.21-.6.3-.87a9.63,9.63,0,0,0,.37-1.69l2.43.23c-.21.49-.49,1.35-.67,1.8Zm-6.76,7.65a17.11,17.11,0,0,1-1.17-3.42,6.29,6.29,0,0,0-1.77,3.35c-.12.87.16,1.42.81,1.42A3.48,3.48,0,0,0,228.31,73.2Zm.77-4.81a15.81,15.81,0,0,0,.86,2.83,24.71,24.71,0,0,0,2.13-3.82A8.06,8.06,0,0,0,229.08,68.39Z"/><path class="cls-1" d="M250.12,69.19c-.91,5.81-1.3,8-1.84,8.62a2,2,0,0,1-1.28.76,11.5,11.5,0,0,1-1.87.07,4.75,4.75,0,0,0-.25-1.91,12.74,12.74,0,0,0,1.3.08.62.62,0,0,0,.55-.27c.28-.38.61-1.91,1.29-6.24h-1.3A16.18,16.18,0,0,1,243,78.75a7.31,7.31,0,0,0-1.4-1.31A14.57,14.57,0,0,0,245,69.37l.39-2.78h-1.83l.27-2h2.71l.38-2.74H249l-.39,2.74h2.67L251.06,66a14.76,14.76,0,0,0,2.27-4.11l2,.4c-.23.59-.49,1.19-.77,1.77h5.6L259.94,66h-6.41a14,14,0,0,1-2.24,2.7,10.75,10.75,0,0,0-1.54-1.37,6.45,6.45,0,0,0,.77-.72h-3.26L247,68.36h3.23Zm9.67,1.49a36.79,36.79,0,0,1-3.1,2.29,6.23,6.23,0,0,0,2.3,3.87,9.44,9.44,0,0,0-1.71,1.8c-2.14-1.73-2.8-4.86-2.9-8.73l-.67.27-1.19,8.5h-2l1.09-7.76-.39.1a8.55,8.55,0,0,0-1-1.78,23.73,23.73,0,0,0,7.8-3.06l1.37,1.12a20.68,20.68,0,0,1-3.1,1.8c0,.7.06,1.4.12,2.07a20,20,0,0,0,2.1-1.86Z"/><path class="cls-1" d="M275.25,64.34a9.13,9.13,0,0,0,1-.07,1.3,1.3,0,0,1,0-.34,2.58,2.58,0,0,1,2.47-2.16,1.84,1.84,0,0,1,1.84,2.16,2.58,2.58,0,0,1-2.45,2.14.9.9,0,0,1-.23,0l-.22.54a21.19,21.19,0,0,1-3.63,6.56,17.22,17.22,0,0,1-7.94,5L264.48,76a14.19,14.19,0,0,0,7.66-4.24A13.59,13.59,0,0,0,275,66.67h-8.4c-.83,0-1.68,0-2.16.07l.36-2.54a20,20,0,0,0,2.13.14Zm4.24-.41a.89.89,0,0,0-.88-1,1.24,1.24,0,0,0-1.19,1,.87.87,0,0,0,.9,1A1.23,1.23,0,0,0,279.49,63.93Z"/><path class="cls-1" d="M298.41,68.54a7.15,7.15,0,0,0-.45.76,15.63,15.63,0,0,1-3.37,5,16,16,0,0,1-7,3.89l-1.52-2a14.4,14.4,0,0,0,6.7-3.15,9.37,9.37,0,0,0,2.29-3.12h-8.7c-.43,0-1.34,0-2.1.09l.33-2.34c.74.07,1.51.11,2.07.11h8.92a4,4,0,0,0,1.34-.18Zm-11.54-5.22a15.25,15.25,0,0,0,1.86.09h6.94a17.89,17.89,0,0,0,2-.09l-.33,2.32c-.48,0-1.33-.06-2-.06h-6.91c-.57,0-1.35,0-1.88.06Z"/><path class="cls-1" d="M310.29,73.08a21,21,0,0,0,7.54-7l1.05,2.54a23.52,23.52,0,0,1-7.6,6.66,22.31,22.31,0,0,1-7,2.54l-1.18-2.37A21.33,21.33,0,0,0,310.29,73.08Zm.82-5.84L309,69.13a30.37,30.37,0,0,0-3.95-3.89l1.94-1.8A31,31,0,0,1,311.11,67.24Z"/></g></svg>