<svg xmlns="http://www.w3.org/2000/svg" viewBox="0 0 480 80"><defs><style>.cls-1{fill:#fff;}.cls-2,.cls-3{fill:#37bef0;}.cls-3{stroke:#37bef0;stroke-linecap:round;stroke-linejoin:round;stroke-width:1.16px;}</style></defs><g id="レイヤー_1" data-name="レイヤー 1"><rect class="cls-1" width="480" height="80"/><path class="cls-2" d="M426.62,33.36a1.22,1.22,0,0,1-1.9,0c-.57-.7-1.18-1.37-1.82-2a25.32,25.32,0,0,0-41.22,8.05,2.6,2.6,0,0,0,1.53,3.78c2.27,1,3.16-.07,3.78-1.54a19.46,19.46,0,0,1,4.19-6.21,19.52,19.52,0,0,1,27.64,0A19.46,19.46,0,0,1,423,41.63c.45,1.07.57,2,2.66,2,1.87,0,2.2-1,2.65-2a19.79,19.79,0,0,1,4.19-6.21,19.57,19.57,0,0,1,31.84,6.21c.62,1.47,1.32,2.54,3.78,1.54s2.15-2.32,1.53-3.78a25.31,25.31,0,0,0-41.22-8A26.54,26.54,0,0,0,426.62,33.36Z"/><path class="cls-2" d="M55.28,33.36a1.22,1.22,0,0,1-1.9,0,26.54,26.54,0,0,0-1.82-2,25.32,25.32,0,0,0-41.22,8.05,2.6,2.6,0,0,0,1.53,3.78c2.28,1,3.16-.07,3.78-1.54a19.55,19.55,0,0,1,31.84-6.21,19.79,19.79,0,0,1,4.19,6.21c.45,1.07.56,2,2.65,2,1.87,0,2.21-1,2.66-2a19.46,19.46,0,0,1,4.19-6.21,19.52,19.52,0,0,1,27.64,0A19.46,19.46,0,0,1,93,41.63c.62,1.47,1.33,2.54,3.78,1.54s2.15-2.32,1.53-3.78a25.31,25.31,0,0,0-41.22-8C56.46,32,55.85,32.66,55.28,33.36Z"/><path class="cls-3" d="M156.59,14.94H159l-3.72,18.64h8.73l-.43,2.07H152.45Z"/><path class="cls-3" d="M174.28,27.36c0-6.32,4.14-12.8,10.09-12.8,4.61,0,7.15,3.44,7.15,8.67,0,6.32-4.14,12.8-10.08,12.8C176.82,36,174.28,32.59,174.28,27.36ZM189,23.43c0-4.05-1.5-6.75-4.79-6.75-4.45,0-7.45,5.63-7.45,10.48,0,4.05,1.5,6.75,4.79,6.75C186,33.91,189,28.28,189,23.43Z"/><path class="cls-3" d="M200.65,27.68c0-6.52,4.27-13.12,10.68-13.12a5.82,5.82,0,0,1,5.1,3.07l-1.73,1.29a4,4,0,0,0-3.5-2.24c-4.92,0-8,5.75-8,10.76,0,3.77,1.58,6.47,5.27,6.47a6.64,6.64,0,0,0,4.39-1.85l1.13,1.58A9,9,0,0,1,208,36C203.27,36,200.65,32.63,200.65,27.68Z"/><path class="cls-3" d="M232.23,14.94h2.83l2.39,20.71h-2.54l-1.08-11.89c-.18-2.2-.4-4.39-.56-6.75h-.13c-1.1,2.38-2.15,4.47-3.31,6.75l-6.12,11.89H221ZM226.5,27.27h9.09l-.44,1.92H226Z"/><path class="cls-3" d="M254.17,17.05h-6l.42-2.11h14.48l-.42,2.11h-6l-3.69,18.6h-2.46Z"/><path class="cls-3" d="M273,14.94h2.45l-4.14,20.71H268.9Z"/><path class="cls-3" d="M284.11,27.36c0-6.32,4.13-12.8,10.08-12.8,4.61,0,7.15,3.44,7.15,8.67,0,6.32-4.13,12.8-10.08,12.8C286.65,36,284.11,32.59,284.11,27.36Zm14.73-3.93c0-4.05-1.49-6.75-4.78-6.75-4.45,0-7.45,5.63-7.45,10.48,0,4.05,1.49,6.75,4.78,6.75C295.84,33.91,298.84,28.28,298.84,23.43Z"/><path class="cls-3" d="M313.91,14.94h2.46l4.72,13.27,1.33,4.33h.12c.27-2.05.52-4.47.94-6.61l2.21-11h2.36l-4.14,20.71h-2.43l-4.67-13.23L315.46,18h-.13c-.27,2.14-.57,4.44-1,6.55l-2.2,11.13h-2.37Z"/><path class="cls-2" d="M120.35,64.32h7.87l-1,6.91h-1.08l.1-.7h-5.76l-.1.75h-1l.83-5.91-.76.92a20.53,20.53,0,0,0-1.34-1.83l-1,6.79h-1.09l.84-6a15,15,0,0,1-2.3,1.87,4.6,4.6,0,0,0-.42-1.06,16.87,16.87,0,0,0,5.09-5.2h-3.82l.15-1.08h2.07l.42-3h1.09l-.41,3H120l.22-.05.56.43a17.59,17.59,0,0,1-2.23,3.35c.47.43,1.39,1.44,1.69,1.79ZM123,69.57l.24-1.7h-2.31l-.24,1.7Zm-1.72-4.25L121,67h2.31l.23-1.63Zm8-7.74-.14,1h-8l.15-1Zm-1.08,2.08-.51,3.65h-6.39l.52-3.65Zm-1.18,1h-4.33l-.25,1.76h4.33Zm-.59,9,.23-1.7h-2.43l-.23,1.7Zm.59-4.25h-2.43L124.34,67h2.43Z"/><path class="cls-2" d="M145.06,66.16h-3.34L141,71.28h-1.15l.72-5.12h-4.41a9.11,9.11,0,0,1-4,5.28,4.27,4.27,0,0,0-.84-.86,7.86,7.86,0,0,0,3.6-4.42h-3.13L132,65h3.31c.15-.65.26-1.32.36-2l.24-1.76H133l.16-1.16h2.92l.44-3.18h1.17l-.44,3.18h4.19l.45-3.2H143l-.45,3.2h3l-.16,1.16h-3L141.89,65h3.34ZM140.73,65l.53-3.76h-4.2L136.81,63c-.09.66-.2,1.33-.35,2Z"/><path class="cls-2" d="M156.82,60.15l-.3,2.14h4.88l-.78,5.55c-.09.68-.3,1-.82,1.22a8.89,8.89,0,0,1-2.69.21,5.07,5.07,0,0,0-.23-1.16c1,0,1.92,0,2.19,0s.35-.09.38-.3l.62-4.42h-3.71l-1.11,7.91H154.1l1.11-7.91h-3.48l-.83,5.91h-1.13l1-7h4.61l.3-2.14h-6.16l.17-1.15h6.14l.31-2.26h1.19L157,59h6.26l-.16,1.15Z"/><path class="cls-2" d="M169.33,69.17a8.43,8.43,0,0,0,3.69.57c.7,0,5.13,0,6,0a5.45,5.45,0,0,0-.62,1.17h-5.56c-3.33,0-5.14-.55-6-2.91a11.1,11.1,0,0,1-1.59,3.26,2,2,0,0,0-.67-.7,14.8,14.8,0,0,0,2.13-6.6l.95.06c-.09.63-.19,1.31-.33,2a4.54,4.54,0,0,0,1,2.47l.79-5.62h-3.13l.15-1.05h2.9l.28-2h-2.32l.14-1h2.33l.27-1.94h1l-.27,1.94h2.28l-.15,1h-2.28l-.28,2h2.55l-.14,1.05h-2.34l-.31,2.2h2.17l-.15,1h-2.17Zm4.07-9.62h2.72c.09-.87.19-1.79.31-2.73h1.08c-.14,1-.25,1.86-.34,2.73h3.18l-.15,1h-3.11a30.61,30.61,0,0,0-.1,4.38,18.37,18.37,0,0,0,1.86-3.38l.84.26a19.43,19.43,0,0,1-2.55,4.45c.17,1,.49,1.6.93,1.6s.55-.68.83-2.34a2.53,2.53,0,0,0,.74.57c-.48,2.18-.9,2.85-1.83,2.85-.73,0-1.24-.62-1.53-1.7a11.08,11.08,0,0,1-2.37,2,3,3,0,0,0-.58-.82,10.57,10.57,0,0,0,2.73-2.27,28.31,28.31,0,0,1,0-5.57h-1.75L173.53,66c.61-.31,1.24-.66,1.86-1l.2.87c-1.46.86-3,1.75-4.23,2.41l-.35-.93c.39-.19.88-.45,1.41-.73Zm5.85-.21a8.44,8.44,0,0,0-1.2-2l.85-.42a8.52,8.52,0,0,1,1.24,1.87Z"/><path class="cls-2" d="M188.71,69.93A1.2,1.2,0,0,1,188,71a6.23,6.23,0,0,1-2.14.19,4.22,4.22,0,0,0-.22-1c.75,0,1.44,0,1.64,0s.3-.08.32-.28l.3-2.11h-3.36l-.48,3.41H183l1.33-9.42h5.53Zm8.51-10.62-.15,1.08h-13.5l.15-1.08h3.73a9.24,9.24,0,0,0-1.09-2.11l1.09-.41A8.92,8.92,0,0,1,188.66,59l-.79.3h4.53a20.25,20.25,0,0,0,1.79-2.57l1.13.42c-.51.73-1.12,1.5-1.66,2.15ZM188,66.87l.23-1.58h-3.36l-.23,1.58Zm-2.79-4.05L185,64.37h3.35l.22-1.55Zm6.56,5.58h-1.05l.91-6.44h1Zm3-6.92h1.11l-1.17,8.33c-.1.71-.3,1-.78,1.22a7.38,7.38,0,0,1-2.43.2,4.52,4.52,0,0,0-.25-1.12c.92,0,1.74,0,2,0s.34-.08.38-.31Z"/><path class="cls-2" d="M199.33,70.41a59.26,59.26,0,0,0,3.09-5.12l.77.66c-.88,1.68-2,3.65-3,5.14Zm3.13-6.71a8.78,8.78,0,0,0-2.3-1.68l.74-.85a8.9,8.9,0,0,1,2.36,1.58Zm1.27-4.09a9.27,9.27,0,0,0-2.25-1.79l.75-.84a8.35,8.35,0,0,1,2.3,1.71Zm8.6,6c-.2,1-.37,1.75-.52,2.4h1.45l-.14,1h-1.6a3.87,3.87,0,0,1-.73,1.64,1.45,1.45,0,0,1-1.11.55,13.87,13.87,0,0,1-1.93,0,1.85,1.85,0,0,0-.15-1c.78.07,1.47.07,1.76.07a.68.68,0,0,0,.61-.23,2.93,2.93,0,0,0,.49-1h-5.64l-.22.73-1.07-.11c.37-1.06.8-2.53,1.23-4h-1.4l.15-1.08h1.55c.31-1.14.61-2.27.84-3.25h7.23l-.09.54c-.19,1-.36,1.9-.5,2.71h1.31l-.16,1.08Zm-5.76-5.76a15.32,15.32,0,0,1-1.91,2.49,6,6,0,0,0-.88-.67A14.67,14.67,0,0,0,207,56.81l1.09.25c-.27.59-.55,1.16-.85,1.71h7.17l-.15,1.08Zm-.76,5.76c-.23.83-.47,1.66-.68,2.4h2.21c.19-.69.41-1.53.62-2.4Zm.87-3.3c-.18.71-.37,1.46-.58,2.22h2.12c.19-.76.35-1.52.5-2.22Zm4.06,5.7c.17-.63.34-1.42.54-2.4h-2.34c-.22.88-.44,1.71-.63,2.4Zm.75-3.48c.12-.67.26-1.4.4-2.22h-2.2c-.14.7-.33,1.46-.49,2.22Z"/><path class="cls-2" d="M219.43,62.8l-.28,2a12.38,12.38,0,0,1-2.4,6.23,3,3,0,0,0-.8-.76A10.45,10.45,0,0,0,218,64.77l.43-3h12.26l-.15,1.06Zm10.67-2.31H218.73l.43-3.06h1.11l-.28,2h3.92l.37-2.61h1.17l-.37,2.61h4l.29-2h1.15Zm0,7.43h-5l-.47,3.38h-1.17l.47-3.38h-4.74l.15-1.06h4.74l.24-1.7h-4l.14-1h9.33l-.14,1h-4.18l-.24,1.7h5Z"/><path class="cls-2" d="M235.17,64.64c.93-.86,2.44-2.63,3.48-3.74s1.84-1.22,2.7-.18,1.71,2.52,2.52,3.6a47.8,47.8,0,0,0,3.19,4L246,69.41c-1-1.13-2.15-2.71-3-3.93s-1.75-2.66-2.34-3.47-.84-.62-1.43,0c-.83.92-2.32,2.67-3.21,3.62-.38.41-.78.89-1.06,1.22l-1-1.22A11.35,11.35,0,0,0,235.17,64.64Z"/><path class="cls-2" d="M256.94,69.3a9.51,9.51,0,0,0,1.32-.19,5.57,5.57,0,0,0,4.46-4.65c.34-2.37-.83-4.32-3.35-4.55a38.9,38.9,0,0,1-1.54,4.52c-1.38,3.22-2.81,4.88-4.21,4.88s-2.46-1.61-2.1-4.2a7.8,7.8,0,0,1,7.5-6.38c3.52,0,5.41,2.6,5,5.77s-2.86,5.5-6.51,6Zm-.27-5.14a29.6,29.6,0,0,0,1.43-4.23A6.46,6.46,0,0,0,252.74,65c-.28,2,.48,2.86,1.13,2.86S255.52,66.81,256.67,64.16Z"/><path class="cls-2" d="M275.76,61.45c-.6,4.3-1.37,7.2-5.53,9.21l-1-1a6.61,6.61,0,0,0,1.45-.7c2.57-1.5,3.22-3.77,3.6-6.42a10.33,10.33,0,0,0,.09-1.14Zm6.36-2.09c-.13.16-.36.4-.49.57a18.68,18.68,0,0,1-4.4,4.38l-.88-.84a13.08,13.08,0,0,0,3.81-3.56h-8.65c-.56,0-1.13,0-1.75.1l.21-1.43a13.47,13.47,0,0,0,1.71.13h8.72a7.09,7.09,0,0,0,1.08-.1Z"/><path class="cls-2" d="M298.13,60.17a8.39,8.39,0,0,0-.48.84,18.74,18.74,0,0,1-3.45,5.45,16.14,16.14,0,0,1-6.66,4.31l-1-1a14.65,14.65,0,0,0,6.62-4,15.49,15.49,0,0,0,3.12-4.94h-5.14a19,19,0,0,1-4.39,3.9l-.94-.83a15.78,15.78,0,0,0,5.53-5.35,5.92,5.92,0,0,0,.65-1.26l1.34.49c-.32.42-.66.94-.86,1.24s-.29.45-.46.67h4.14a2.87,2.87,0,0,0,1-.15Z"/><path class="cls-2" d="M310.07,65.54a18.42,18.42,0,0,0,3.24-3.77L307.39,63l-.66,4.71c-.15,1.09.18,1.44,2,1.44a24.62,24.62,0,0,0,4.81-.46L313.28,70a34.28,34.28,0,0,1-4.81.32c-2.83,0-3.24-.76-3-2.33l.67-4.79c-1.58.32-3,.62-3.6.76l0-1.33c.69-.09,2.17-.36,3.83-.68l.38-2.71a9,9,0,0,0,.1-1.46h1.44a10.86,10.86,0,0,0-.31,1.46l-.35,2.47c2.66-.52,5.4-1.09,6.06-1.23a3.47,3.47,0,0,0,.85-.29l.79.73c-.13.16-.33.43-.47.64A29.67,29.67,0,0,1,311,66.21Z"/><path class="cls-2" d="M331.19,59.47a5.61,5.61,0,0,0-.48.7,24.44,24.44,0,0,1-3.21,4.64,36.45,36.45,0,0,1,3.78,4.73l-1.2,1a29.77,29.77,0,0,0-3.52-4.7A23.57,23.57,0,0,1,320,70.42l-.82-1.06a21.07,21.07,0,0,0,6.92-4.71,17,17,0,0,0,3.14-4.4H323.3c-.54,0-1.38.06-1.55.08l.2-1.45a13,13,0,0,0,1.52.12h5.87a4.07,4.07,0,0,0,1.16-.15Z"/><path class="cls-2" d="M335.9,63.89a22.44,22.44,0,0,0,1.27-4L338,60a23.32,23.32,0,0,1-1.25,4.23Zm2.86-7.07h1.05l-2,14.46h-1Zm1.59,2.32a12,12,0,0,1,.53,2.22l-.85.41a13.45,13.45,0,0,0-.46-2.33ZM347.91,70c-.09.61-.25.91-.7,1.08a6.5,6.5,0,0,1-2.2.18,4.65,4.65,0,0,0-.18-1c.76,0,1.49,0,1.67,0s.3-.07.33-.27l.16-1.14h-5.47l-.35,2.47h-1.06l1.06-7.55h7.61Zm2.3-8-.13.9h-9.87l.13-.9h4.33l.16-1.11H341.3l.12-.86H345l.14-1h-3.88l.13-.9h3.88l.17-1.24h1.11l-.17,1.24h4l-.12.9h-4l-.14,1h3.62l-.12.86h-3.62l-.16,1.11Zm-3.1,6,.17-1.21h-5.47l-.17,1.21Zm-5-3.29-.17,1.19h5.48l.16-1.19Z"/><path class="cls-2" d="M357.46,61h2.8l-.14,1h-1.58l.7.2c-.38.73-.79,1.49-1.13,2.05h1.51l-.15,1h-2.61L356.62,67H359l-.14,1h-2.41L356,71.25H355l.45-3.22h-2.49l.14-1h2.49l.24-1.71h-2.64l.15-1h1.48a8.24,8.24,0,0,0-.35-2.05l.78-.2H353.4l.14-1h2.86l.22-1.56h-2.31l.14-1h2.31l.23-1.6h1.06l-.22,1.6H360l-.14,1h-2.22Zm-.2,3.09a21,21,0,0,0,1-2.07h-3a7.1,7.1,0,0,1,.4,2.09l-.55.16h2.63Zm9.44-1a17.78,17.78,0,0,1-2.57,5.22,6.24,6.24,0,0,0,2.12,2,5.86,5.86,0,0,0-.91,1,6.87,6.87,0,0,1-2-2,11.18,11.18,0,0,1-2.32,2,3.53,3.53,0,0,0-.61-.78l-.11.77h-1l1.94-13.76h5.89l-.43,3c-.08.59-.23.9-.74,1.08a8.93,8.93,0,0,1-2.4.17,3.36,3.36,0,0,0-.2-1c.94,0,1.73,0,2,0s.31-.07.34-.26l.27-2h-3.81l-.6,4.27h4.31l.21-.05Zm-6.25,7.37a10.42,10.42,0,0,0,2.4-2.12,13.85,13.85,0,0,1-1.33-4.49h-.14Zm2-6.61a12.58,12.58,0,0,0,1.11,3.5,15.88,15.88,0,0,0,1.8-3.5Z"/></g></svg>