<?xml version="1.0" encoding="UTF-8" standalone="no"?>
<svg
   xmlns:dc="http://purl.org/dc/elements/1.1/"
   xmlns:cc="http://creativecommons.org/ns#"
   xmlns:rdf="http://www.w3.org/1999/02/22-rdf-syntax-ns#"
   xmlns:svg="http://www.w3.org/2000/svg"
   xmlns="http://www.w3.org/2000/svg"
   xmlns:sodipodi="http://sodipodi.sourceforge.net/DTD/sodipodi-0.dtd"
   xmlns:inkscape="http://www.inkscape.org/namespaces/inkscape"
   viewBox="0 0 240 80"
   version="1.1"
   id="svg11"
   sodipodi:docname="title_dec_white.svg"
   inkscape:version="0.92.4 (5da689c313, 2019-01-14)">
  <metadata
     id="metadata15">
    <rdf:RDF>
      <cc:Work
         rdf:about="">
        <dc:format>image/svg+xml</dc:format>
        <dc:type
           rdf:resource="http://purl.org/dc/dcmitype/StillImage" />
      </cc:Work>
    </rdf:RDF>
  </metadata>
  <sodipodi:namedview
     pagecolor="#ffffff"
     bordercolor="#666666"
     borderopacity="1"
     objecttolerance="10"
     gridtolerance="10"
     guidetolerance="10"
     inkscape:pageopacity="0"
     inkscape:pageshadow="2"
     inkscape:window-width="1366"
     inkscape:window-height="745"
     id="namedview13"
     showgrid="false"
     inkscape:zoom="2.1"
     inkscape:cx="49.761905"
     inkscape:cy="40"
     inkscape:window-x="-8"
     inkscape:window-y="-8"
     inkscape:window-maximized="1"
     inkscape:current-layer="svg11" />
  <defs
     id="defs4">
    <style
       id="style2">.cls-1{fill:#fff;}</style>
  </defs>
  <g
     id="レイヤー_1"
     data-name="レイヤー 1"
     transform="translate(5.6271676)">
    <path
       class="cls-1"
       d="m 55.28,33.36 a 1.22,1.22 0 0 1 -1.9,0 26.54,26.54 0 0 0 -1.82,-2 25.32,25.32 0 0 0 -41.22,8.05 2.6,2.6 0 0 0 1.53,3.78 c 2.28,1 3.16,-0.07 3.78,-1.54 a 19.55,19.55 0 0 1 31.84,-6.21 19.79,19.79 0 0 1 4.19,6.21 c 0.45,1.07 0.56,2 2.65,2 1.87,0 2.21,-1 2.66,-2 a 19.46,19.46 0 0 1 4.19,-6.21 19.52,19.52 0 0 1 27.64,0 19.46,19.46 0 0 1 4.18,6.19 c 0.62,1.47 1.33,2.54 3.78,1.54 2.45,-1 2.15,-2.32 1.53,-3.78 a 25.31,25.31 0 0 0 -41.22,-8 c -0.63,0.61 -1.24,1.27 -1.81,1.97 z"
       id="path6"
       inkscape:connector-curvature="0"
       style="fill:#ffffff" />
    <path
       class="cls-1"
       d="m 175.28,33.36 a 1.22,1.22 0 0 1 -1.9,0 26.54,26.54 0 0 0 -1.82,-2 25.32,25.32 0 0 0 -41.22,8.05 2.6,2.6 0 0 0 1.53,3.78 c 2.28,1 3.16,-0.07 3.78,-1.54 a 19.55,19.55 0 0 1 31.84,-6.21 19.79,19.79 0 0 1 4.19,6.21 c 0.45,1.07 0.56,2 2.65,2 1.87,0 2.21,-1 2.66,-2 a 19.46,19.46 0 0 1 4.19,-6.21 19.52,19.52 0 0 1 27.64,0 19.46,19.46 0 0 1 4.18,6.19 c 0.62,1.47 1.33,2.54 3.78,1.54 2.45,-1 2.15,-2.32 1.53,-3.78 a 25.31,25.31 0 0 0 -41.22,-8 c -0.63,0.61 -1.24,1.27 -1.81,1.97 z"
       id="path8"
       inkscape:connector-curvature="0"
       style="fill:#ffffff" />
  </g>
</svg>
