<svg xmlns="http://www.w3.org/2000/svg" viewBox="0 0 480 80"><defs><style>.cls-1,.cls-2{fill:#00a3df;}.cls-2{stroke:#00a3df;stroke-linecap:round;stroke-linejoin:round;stroke-width:1.16px;}</style></defs><g id="レイヤー_1" data-name="レイヤー 1"><path class="cls-1" d="M426.62,33.36a1.22,1.22,0,0,1-1.9,0c-.57-.7-1.18-1.37-1.82-2a25.32,25.32,0,0,0-41.22,8.05,2.6,2.6,0,0,0,1.53,3.78c2.27,1,3.16-.07,3.78-1.54a19.46,19.46,0,0,1,4.19-6.21,19.52,19.52,0,0,1,27.64,0A19.46,19.46,0,0,1,423,41.63c.45,1.07.57,2,2.66,2,1.87,0,2.2-1,2.65-2a19.79,19.79,0,0,1,4.19-6.21,19.57,19.57,0,0,1,31.84,6.21c.62,1.47,1.32,2.54,3.78,1.54s2.15-2.32,1.53-3.78a25.31,25.31,0,0,0-41.22-8A26.54,26.54,0,0,0,426.62,33.36Z"/><path class="cls-1" d="M55.28,33.36a1.22,1.22,0,0,1-1.9,0,26.54,26.54,0,0,0-1.82-2,25.32,25.32,0,0,0-41.22,8.05,2.6,2.6,0,0,0,1.53,3.78c2.28,1,3.16-.07,3.78-1.54a19.55,19.55,0,0,1,31.84-6.21,19.79,19.79,0,0,1,4.19,6.21c.45,1.07.56,2,2.65,2,1.87,0,2.21-1,2.66-2a19.46,19.46,0,0,1,4.19-6.21,19.52,19.52,0,0,1,27.64,0A19.46,19.46,0,0,1,93,41.63c.62,1.47,1.33,2.54,3.78,1.54s2.15-2.32,1.53-3.78a25.31,25.31,0,0,0-41.22-8C56.46,32,55.85,32.66,55.28,33.36Z"/><path class="cls-2" d="M199.67,27h2.59L203.87,37l.61,3.79h.11l2-3.79L212,27h2.59l-3.67,18.38h-2.08L211,35.06c.36-1.66.9-3.8,1.34-5.4h-.11L210,33.74l-5.42,9.76h-1.22l-1.71-9.76L201,29.66h-.1c-.23,1.64-.48,3.76-.79,5.4L198,45.42h-2Z"/><path class="cls-2" d="M221.89,38.06c0-5.6,3.67-11.35,9-11.35,4.09,0,6.35,3.05,6.35,7.69,0,5.61-3.67,11.36-8.95,11.36C224.15,45.76,221.89,42.71,221.89,38.06ZM235,34.57c0-3.58-1.33-6-4.25-6-3.95,0-6.61,5-6.61,9.3,0,3.59,1.33,6,4.25,6C232.31,43.87,235,38.88,235,34.57Z"/><path class="cls-2" d="M245.69,27h2.23l.76,10.21c.16,2,.32,4,.43,6.06h.11c.94-2,1.93-4.1,2.91-6.06L257.2,27h2.35L250,45.42h-2.6Z"/><path class="cls-2" d="M267.4,27h2.18l-3.67,18.38h-2.18Z"/><path class="cls-2" d="M279.92,27h10.13l-.37,1.84h-8l-1.18,6h6.75l-.37,1.84h-6.72l-1.42,6.9H287l-.37,1.84H276.24Z"/></g></svg>