<svg xmlns="http://www.w3.org/2000/svg" viewBox="0 0 480 80"><defs><style>.cls-1,.cls-2{fill:#00a3df;}.cls-2{stroke:#00a3df;stroke-linecap:round;stroke-linejoin:round;stroke-width:1.16px;}</style></defs><g id="レイヤー_1" data-name="レイヤー 1"><path class="cls-1" d="M426.62,33.36a1.22,1.22,0,0,1-1.9,0c-.57-.7-1.18-1.37-1.82-2a25.32,25.32,0,0,0-41.22,8.05,2.6,2.6,0,0,0,1.53,3.78c2.27,1,3.16-.07,3.78-1.54a19.46,19.46,0,0,1,4.19-6.21,19.52,19.52,0,0,1,27.64,0A19.46,19.46,0,0,1,423,41.63c.45,1.07.57,2,2.66,2,1.87,0,2.2-1,2.65-2a19.79,19.79,0,0,1,4.19-6.21,19.57,19.57,0,0,1,31.84,6.21c.62,1.47,1.32,2.54,3.78,1.54s2.15-2.32,1.53-3.78a25.31,25.31,0,0,0-41.22-8A26.54,26.54,0,0,0,426.62,33.36Z"/><path class="cls-1" d="M55.28,33.36a1.22,1.22,0,0,1-1.9,0,26.54,26.54,0,0,0-1.82-2,25.32,25.32,0,0,0-41.22,8.05,2.6,2.6,0,0,0,1.53,3.78c2.28,1,3.16-.07,3.78-1.54a19.55,19.55,0,0,1,31.84-6.21,19.79,19.79,0,0,1,4.19,6.21c.45,1.07.56,2,2.65,2,1.87,0,2.21-1,2.66-2a19.46,19.46,0,0,1,4.19-6.21,19.52,19.52,0,0,1,27.64,0A19.46,19.46,0,0,1,93,41.63c.62,1.47,1.33,2.54,3.78,1.54s2.15-2.32,1.53-3.78a25.31,25.31,0,0,0-41.22-8C56.46,32,55.85,32.66,55.28,33.36Z"/><path class="cls-2" d="M129.78,27H135c3.45,0,5.77,1.31,5.77,4.49,0,4.51-3.35,6.5-8,6.5h-2.94l-1.46,7.39h-2.18Zm3,9.24c3.78,0,5.79-1.53,5.79-4.46,0-2.13-1.46-3-4.16-3h-2.82l-1.47,7.48Z"/><path class="cls-2" d="M149.1,27h2.18L149.7,34.8H158L159.56,27h2.18l-3.68,18.38h-2.18l1.76-8.72h-8.29l-1.74,8.72h-2.18Z"/><path class="cls-2" d="M167.46,38.06c0-5.6,3.67-11.35,8.95-11.35,4.09,0,6.35,3.05,6.35,7.69,0,5.61-3.68,11.36-8.95,11.36C169.72,45.76,167.46,42.71,167.46,38.06Zm13.08-3.49c0-3.58-1.33-6-4.25-6-3.95,0-6.61,5-6.61,9.3,0,3.59,1.33,6,4.25,6C177.87,43.87,180.54,38.88,180.54,34.57Z"/><path class="cls-2" d="M195.36,28.92H190L190.4,27h12.85l-.38,1.88h-5.33l-3.28,16.5h-2.18Z"/><path class="cls-2" d="M207.3,38.06c0-5.6,3.68-11.35,8.95-11.35,4.1,0,6.35,3.05,6.35,7.69,0,5.61-3.67,11.36-8.95,11.36C209.56,45.76,207.3,42.71,207.3,38.06Zm13.08-3.49c0-3.58-1.33-6-4.25-6-3.94,0-6.6,5-6.6,9.3,0,3.59,1.32,6,4.24,6C217.72,43.87,220.38,38.88,220.38,34.57Z"/><path class="cls-2" d="M238.17,38.35c0-5.84,3.75-11.64,9.76-11.64a5.21,5.21,0,0,1,4.63,2.72L251,30.58a3.58,3.58,0,0,0-3.2-2c-4.61,0-7.43,5.1-7.43,9.55,0,3.27,1.37,5.76,4.9,5.76a4.71,4.71,0,0,0,3.12-1.12l1-5.05h-3.79l.36-1.8h5.76l-1.6,8A8.09,8.09,0,0,1,245,45.76C240.53,45.76,238.17,42.82,238.17,38.35Z"/><path class="cls-2" d="M265.44,27H268l2.12,18.38h-2.26l-.95-10.55c-.16-1.95-.36-3.89-.5-6h-.11c-1,2.11-1.91,4-2.95,6l-5.43,10.55h-2.41Zm-5.08,11h8.06L268,39.68h-8.1Z"/><path class="cls-2" d="M279.8,27H282l-3.3,16.54h7.74l-.37,1.84h-9.92Z"/><path class="cls-2" d="M296.66,27h2.18l-3.3,16.54h7.74l-.37,1.84H293Z"/><path class="cls-2" d="M313.52,27h10.13l-.38,1.84h-8l-1.18,6h6.75l-.37,1.84h-6.72l-1.42,6.9h8.23l-.37,1.84H309.84Z"/><path class="cls-2" d="M331.52,27h5c3.42,0,5.73,1.22,5.73,4.29,0,4.12-3.38,6.3-7.48,6.3h-3.24L330,45.42h-2.18Zm3.19,8.83c3.5,0,5.42-1.64,5.42-4.26,0-2-1.41-2.81-4.12-2.81h-2.68L332,35.87Zm-.1,1.33,1.67-1.28,3.83,9.5h-2.33Z"/><path class="cls-2" d="M351.65,38.24l-3-11.2h2.25l1.26,5.29c.31,1.37.58,2.6.91,4h.1c.85-1.37,1.64-2.67,2.51-4L359.17,27h2.34l-7.68,11.2-1.44,7.18h-2.17Z"/></g></svg>