<svg xmlns="http://www.w3.org/2000/svg" viewBox="0 0 480 80"><defs><style>.cls-1,.cls-2{fill:#00a3df;}.cls-2{stroke:#00a3df;stroke-linecap:round;stroke-linejoin:round;stroke-width:1.16px;}</style></defs><g id="レイヤー_1" data-name="レイヤー 1"><path class="cls-1" d="M426.62,33.36a1.22,1.22,0,0,1-1.9,0c-.57-.7-1.18-1.37-1.82-2a25.32,25.32,0,0,0-41.22,8.05,2.6,2.6,0,0,0,1.53,3.78c2.27,1,3.16-.07,3.78-1.54a19.46,19.46,0,0,1,4.19-6.21,19.52,19.52,0,0,1,27.64,0A19.46,19.46,0,0,1,423,41.63c.45,1.07.57,2,2.66,2,1.87,0,2.2-1,2.65-2a19.79,19.79,0,0,1,4.19-6.21,19.57,19.57,0,0,1,31.84,6.21c.62,1.47,1.32,2.54,3.78,1.54s2.15-2.32,1.53-3.78a25.31,25.31,0,0,0-41.22-8A26.54,26.54,0,0,0,426.62,33.36Z"/><path class="cls-1" d="M55.28,33.36a1.22,1.22,0,0,1-1.9,0,26.54,26.54,0,0,0-1.82-2,25.32,25.32,0,0,0-41.22,8.05,2.6,2.6,0,0,0,1.53,3.78c2.28,1,3.16-.07,3.78-1.54a19.55,19.55,0,0,1,31.84-6.21,19.79,19.79,0,0,1,4.19,6.21c.45,1.07.56,2,2.65,2,1.87,0,2.21-1,2.66-2a19.46,19.46,0,0,1,4.19-6.21,19.52,19.52,0,0,1,27.64,0A19.46,19.46,0,0,1,93,41.63c.62,1.47,1.33,2.54,3.78,1.54s2.15-2.32,1.53-3.78a25.31,25.31,0,0,0-41.22-8C56.46,32,55.85,32.66,55.28,33.36Z"/><path class="cls-2" d="M191.39,14.94h2.83l2.4,20.71h-2.55L193,23.76c-.19-2.19-.41-4.38-.57-6.74h-.13c-1.1,2.37-2.15,4.47-3.31,6.74l-6.12,11.89h-2.72Zm-5.72,12.34h9.09l-.45,1.91h-9.13Z"/><path class="cls-2" d="M209.64,14.94h5.52c4,0,6.42,1.59,6.42,4.58,0,2.81-2.34,4.67-4.62,5.19l0,.13c2.13.48,3.79,1.83,3.79,4.2,0,4.6-3.67,6.61-8.59,6.61H205.5Zm2.28,18.78c3.92,0,6.42-1.35,6.42-4.55,0-2.1-1.68-3.53-4.73-3.53H210l-1.65,8.08Zm1.35-9.85c3.94,0,5.8-1.65,5.8-4,0-1.89-1.4-3-4.53-3H211.7l-1.41,7Z"/><path class="cls-2" d="M231.15,27.36c0-6.32,4.14-12.79,10.08-12.79,4.62,0,7.16,3.43,7.16,8.66,0,6.33-4.14,12.8-10.09,12.8C233.69,36,231.15,32.6,231.15,27.36Zm14.74-3.93c0-4-1.5-6.74-4.79-6.74-4.45,0-7.45,5.63-7.45,10.48,0,4,1.5,6.74,4.79,6.74C242.89,33.91,245.89,28.28,245.89,23.43Z"/><path class="cls-2" d="M260.87,14.94h2.45L261,26.79a11.77,11.77,0,0,0-.29,2.49c0,3,1.31,4.63,4.19,4.63,2.39,0,4.4-1.75,5.29-6.28l2.53-12.69h2.41l-2.57,12.81c-1.18,6-4.07,8.28-7.79,8.28-4.19,0-6.52-2.25-6.52-6.54a17,17,0,0,1,.33-2.92Z"/><path class="cls-2" d="M290.56,17.06h-6l.42-2.12h14.49L299,17.06h-6l-3.7,18.59h-2.45Z"/><path class="cls-1" d="M125.47,69.05a10.4,10.4,0,0,0,4.37.65c.83,0,6.09,0,7.14,0a6.07,6.07,0,0,0-.72,1.33h-6.6c-4,0-6.09-.63-7.08-3.32a12.31,12.31,0,0,1-1.86,3.71,2.44,2.44,0,0,0-.81-.79c1.6-2.12,2.18-5.11,2.48-7.51l1.13.07c-.1.72-.21,1.5-.38,2.29a5.12,5.12,0,0,0,1.21,2.81l.9-6.39h-3.71l.16-1.19h3.45l.32-2.27h-2.76l.16-1.19h2.76l.31-2.2h1.24l-.3,2.2h2.7l-.17,1.19h-2.7l-.32,2.27h3l-.17,1.19h-2.77l-.36,2.5h2.58l-.17,1.19H126Zm4.76-10.93h3.22c.11-1,.22-2,.35-3.1h1.28c-.15,1.08-.28,2.11-.38,3.1h3.76l-.16,1.15h-3.69a34.24,34.24,0,0,0-.09,5,20,20,0,0,0,2.18-3.83l1,.29a21.61,21.61,0,0,1-3,5.06c.22,1.15.6,1.82,1.12,1.82s.65-.78,1-2.67a2.8,2.8,0,0,0,.88.65c-.55,2.48-1,3.24-2.15,3.24-.86,0-1.47-.7-1.82-1.93a13.5,13.5,0,0,1-2.8,2.24,3.6,3.6,0,0,0-.7-.94,11.84,11.84,0,0,0,3.23-2.58,30.8,30.8,0,0,1-.07-6.32h-2.07l-.86,6.13c.72-.36,1.46-.76,2.2-1.16l.24,1c-1.73,1-3.56,2-5,2.74l-.43-1.06c.47-.22,1.05-.5,1.67-.83Zm6.93-.23a9.3,9.3,0,0,0-1.43-2.22l1-.49a9.86,9.86,0,0,1,1.49,2.13Z"/><path class="cls-1" d="M148.53,69.92a1.34,1.34,0,0,1-.82,1.24,7.53,7.53,0,0,1-2.54.22,4.05,4.05,0,0,0-.27-1.17c.9,0,1.71,0,1.95,0s.35-.09.39-.32l.33-2.4h-4l-.54,3.88h-1.28l1.5-10.7h6.56Zm10-12.07-.17,1.22h-16l.17-1.22H147a10.58,10.58,0,0,0-1.31-2.4L147,55a9.67,9.67,0,0,1,1.45,2.52l-.93.34h5.37a23.4,23.4,0,0,0,2.1-2.92l1.34.47c-.6.83-1.32,1.71-1.94,2.45Zm-10.83,8.59.26-1.8h-4l-.25,1.8Zm-3.33-4.61-.25,1.77h4l.25-1.77Zm7.81,6.34H151l1-7.31h1.25Zm3.48-7.85H157l-1.33,9.45c-.11.81-.35,1.17-.92,1.39a9,9,0,0,1-2.88.23,4.88,4.88,0,0,0-.3-1.27c1.09,0,2.06,0,2.34,0s.41-.09.44-.36Z"/><path class="cls-1" d="M161.21,70.46a63.69,63.69,0,0,0,3.63-5.82l.92.76c-1,1.91-2.35,4.14-3.47,5.83Zm3.66-7.62a10.05,10.05,0,0,0-2.74-1.91l.88-1a10.72,10.72,0,0,1,2.81,1.8Zm1.49-4.65a10.86,10.86,0,0,0-2.69-2l.89-1a10.08,10.08,0,0,1,2.74,1.95ZM176.59,65c-.23,1.1-.43,2-.6,2.74h1.73l-.17,1.17h-1.89a4.21,4.21,0,0,1-.85,1.85,1.74,1.74,0,0,1-1.32.63,15.79,15.79,0,0,1-2.28,0,2,2,0,0,0-.19-1.12c.93.07,1.74.07,2.08.07a.81.81,0,0,0,.72-.25,3.3,3.3,0,0,0,.58-1.17h-6.68l-.26.83-1.27-.13c.43-1.21.93-2.88,1.43-4.61H166l.17-1.22H168c.36-1.3.7-2.58,1-3.7h8.58s-.09.47-.11.62c-.21,1.15-.41,2.16-.58,3.08h1.55L178.21,65Zm-6.87-6.54a16.86,16.86,0,0,1-2.25,2.83,6,6,0,0,0-1.05-.76A16.22,16.22,0,0,0,170.17,55l1.3.29c-.31.67-.64,1.32-1,2H179l-.17,1.22ZM168.86,65c-.26,1-.54,1.89-.78,2.74h2.61c.22-.79.48-1.75.73-2.74Zm1-3.75c-.2.81-.43,1.66-.68,2.53h2.53c.21-.87.4-1.73.57-2.53Zm4.86,6.49c.19-.72.39-1.62.62-2.74h-2.78c-.25,1-.51,2-.73,2.74Zm.86-4c.14-.76.3-1.59.46-2.53h-2.61c-.17.8-.38,1.66-.57,2.53Z"/><path class="cls-1" d="M185.07,61.81l-.32,2.25c-.29,2.11-1,5.08-2.79,7.08a3.75,3.75,0,0,0-1-.86,11.51,11.51,0,0,0,2.44-6.23l.48-3.44h14.55l-.17,1.2Zm12.64-2.63H184.23l.49-3.47H186L185.72,58h4.65l.41-3h1.39l-.42,3h4.76l.32-2.27h1.37Zm0,8.45h-5.91l-.54,3.84h-1.39l.54-3.84h-5.62l.17-1.21h5.62l.27-1.92h-4.72l.16-1.16H197.4l-.16,1.16h-5L192,66.42h5.91Z"/><path class="cls-1" d="M216.37,59.36c-.43.25-.92.49-1.48.76-1.27.61-3.92,1.78-5.83,2.93s-3,2.26-3.16,3.61,1.07,2.39,3.88,2.39a27.54,27.54,0,0,0,5.8-.61l-.23,1.62a35.45,35.45,0,0,1-5.7.43c-3.35,0-5.64-1-5.27-3.67.26-1.84,1.64-3.3,3.73-4.63a53.48,53.48,0,0,1-1.82-5.49l1.51-.58a34.53,34.53,0,0,0,1.65,5.28c1.82-1,3.88-1.95,4.93-2.51a8.36,8.36,0,0,0,1.4-.84Z"/><path class="cls-1" d="M229.4,66.48A22.72,22.72,0,0,0,227.5,64l-1,7.42h-1.32l1.11-7.9a25.15,25.15,0,0,1-3.87,5.13,7,7,0,0,0-.53-1.26,23.52,23.52,0,0,0,4.43-5.84h-3.23l.18-1.27h3.48l.41-2.92c-1.08.21-2.16.39-3.18.54a3.85,3.85,0,0,0-.26-1,34,34,0,0,0,7-1.69l.85,1a23.11,23.11,0,0,1-3,.92L228,60.25h3.15L231,61.52h-3.15l-.16,1.08c.59.56,2.3,2.4,2.69,2.85Zm7.21,5a14.56,14.56,0,0,0-.19-1.8c-3,.39-6.11.77-8.31,1L228,69.29c.51-.06,1.08-.11,1.72-.16a130.37,130.37,0,0,0,4.74-13.75l1.46.25c-1.3,4.24-3.23,9.62-4.8,13.35l5.07-.52a27.56,27.56,0,0,0-1.29-4.31l1.32-.39A27,27,0,0,1,238.07,71Z"/><path class="cls-1" d="M253.47,59.47a35.88,35.88,0,0,1-3.78.61c-.28.78-.59,1.61-.89,2.36a61.75,61.75,0,0,1-4,8.18l-1.51-.52a46.5,46.5,0,0,0,4.11-8c.25-.6.48-1.24.72-1.89-.58,0-1.13.05-1.63.05-.79,0-1.44,0-2.06-.07l.14-1.41a15.31,15.31,0,0,0,2.13.13c.59,0,1.23,0,1.92-.07.22-.65.38-1.21.49-1.57a9.65,9.65,0,0,0,.26-1.48l1.73.15c-.18.39-.4,1.06-.53,1.42l-.45,1.32a29.17,29.17,0,0,0,3.5-.65Zm-1.59,6.25a7.08,7.08,0,0,0-.47,1.6c-.12.85.16,1.66,2.7,1.66a20.6,20.6,0,0,0,3.53-.34l-.26,1.46a28.54,28.54,0,0,1-3.48.23c-2.81,0-4.16-.86-3.92-2.63a11.12,11.12,0,0,1,.57-2.11Zm.16-4.34c1-.09,2.13-.14,3.29-.14a27.56,27.56,0,0,1,3.06.14l-.23,1.37a24.49,24.49,0,0,0-3-.22,28.61,28.61,0,0,0-3.33.2Z"/><path class="cls-1" d="M277.05,59.07a59.41,59.41,0,0,1-7.33.76A43.54,43.54,0,0,1,268,64.05a8.9,8.9,0,0,1,5.21-1.55c2.85,0,4.3,1.46,4,3.54-.53,3.72-4.51,5.12-9.83,4.53l-.2-1.43c4,.58,8.13-.14,8.54-3.06.19-1.33-.75-2.34-2.84-2.34a7.68,7.68,0,0,0-5.56,2.12,5.36,5.36,0,0,0-.68.83l-1.26-.48a33.94,33.94,0,0,0,3-6.34h0c-1.2,0-2.35-.08-3.36-.17l.18-1.42a21.57,21.57,0,0,0,3.35.31h.28c.16-.47.27-.87.35-1.17a7.62,7.62,0,0,0,.3-1.48L271,56c-.19.47-.38,1-.54,1.5-.09.27-.19.63-.34,1a45.12,45.12,0,0,0,7.08-.86Z"/><path class="cls-1" d="M288.43,56.57c-.15.31-.4.88-.52,1.21a44.56,44.56,0,0,0-1.82,6.82,18.53,18.53,0,0,0-.2,2.45c.42-.81,1-1.85,1.35-2.55l.7.57a43.35,43.35,0,0,0-1.83,4,5.08,5.08,0,0,0-.2.79l0,.63-1.31.09a21.43,21.43,0,0,1,.15-5.72,53.19,53.19,0,0,1,1.8-7.15,11.54,11.54,0,0,0,.3-1.27Zm2.86,8.65a6.84,6.84,0,0,0-.47,1.64c-.11.81.32,1.6,2.77,1.6a20.57,20.57,0,0,0,4.48-.47l-.2,1.51a24.19,24.19,0,0,1-4.5.36c-3,0-4.18-1-3.95-2.66a11.84,11.84,0,0,1,.58-2.11Zm.31-7.28a31.61,31.61,0,0,0,7.34,0l-.21,1.48a47.07,47.07,0,0,1-7.32,0Z"/><path class="cls-1" d="M306.7,60.16c1.58-.47,5.25-1.77,7.87-1.77,2.95,0,5.07,1.71,4.65,4.7-.6,4.29-5.14,6.36-10.7,6.67l-.42-1.5c4.68-.13,9-1.53,9.54-5.19.26-1.87-.88-3.33-3.3-3.33-2.94,0-7.75,2-9.24,2.52l-.44-1.58C305.32,60.55,306,60.35,306.7,60.16Z"/><path class="cls-1" d="M327.66,59.27c-.17,1.12-.38,2.76-.46,4.22-.13,3,.46,4.95,1.72,4.95.92,0,2-1.84,2.72-3.64l1,1.3c-1.49,3-2.73,4.05-4,4.05-1.68,0-3.06-1.67-2.9-6.3,0-1.55.33-3.71.47-4.76a9.19,9.19,0,0,0,.12-1.58l1.72,0C327.92,58,327.75,58.8,327.66,59.27Zm11.53,7.5-1.54.57c.14-3.2-.44-6.73-1.84-8.82l1.47-.49A16.47,16.47,0,0,1,339.19,66.77Z"/><path class="cls-1" d="M347.37,58c1.19-.11,4.6-.45,7.92-.72,2-.16,3.66-.25,4.86-.31l-.21,1.44a15.31,15.31,0,0,0-3.53.29,7.47,7.47,0,0,0-4.87,5.62c-.49,3.5,2.6,4.59,5.49,4.7l-.73,1.5c-3.28-.13-6.8-1.89-6.24-5.87a8.54,8.54,0,0,1,4.16-6c-1.6.18-6.53.65-8.51,1l.06-1.58C346.46,58.1,347,58.07,347.37,58Z"/></g></svg>