<svg xmlns="http://www.w3.org/2000/svg" viewBox="0 0 480 80"><defs><style>.cls-1,.cls-2{fill:#37bef0;}.cls-2{stroke:#37bef0;stroke-linecap:round;stroke-linejoin:round;stroke-width:1.16px;}</style></defs><g id="レイヤー_1" data-name="レイヤー 1"><path class="cls-1" d="M426.62,33.36a1.22,1.22,0,0,1-1.9,0c-.57-.7-1.18-1.37-1.82-2a25.32,25.32,0,0,0-41.22,8.05,2.6,2.6,0,0,0,1.53,3.78c2.27,1,3.16-.07,3.78-1.54a19.46,19.46,0,0,1,4.19-6.21,19.52,19.52,0,0,1,27.64,0A19.46,19.46,0,0,1,423,41.63c.45,1.07.57,2,2.66,2,1.87,0,2.2-1,2.65-2a19.79,19.79,0,0,1,4.19-6.21,19.57,19.57,0,0,1,31.84,6.21c.62,1.47,1.32,2.54,3.78,1.54s2.15-2.32,1.53-3.78a25.31,25.31,0,0,0-41.22-8A26.54,26.54,0,0,0,426.62,33.36Z"/><path class="cls-1" d="M55.28,33.36a1.22,1.22,0,0,1-1.9,0,26.54,26.54,0,0,0-1.82-2,25.32,25.32,0,0,0-41.22,8.05,2.6,2.6,0,0,0,1.53,3.78c2.28,1,3.16-.07,3.78-1.54a19.55,19.55,0,0,1,31.84-6.21,19.79,19.79,0,0,1,4.19,6.21c.45,1.07.56,2,2.65,2,1.87,0,2.21-1,2.66-2a19.46,19.46,0,0,1,4.19-6.21,19.52,19.52,0,0,1,27.64,0A19.46,19.46,0,0,1,93,41.63c.62,1.47,1.33,2.54,3.78,1.54s2.15-2.32,1.53-3.78a25.31,25.31,0,0,0-41.22-8C56.46,32,55.85,32.66,55.28,33.36Z"/><path class="cls-2" d="M160.92,27.68c0-6.52,4.26-13.12,10.68-13.12a5.82,5.82,0,0,1,5.1,3.07L175,18.92a4,4,0,0,0-3.5-2.24c-4.92,0-8.05,5.75-8.05,10.76,0,3.77,1.57,6.47,5.27,6.47a6.66,6.66,0,0,0,4.39-1.85l1.13,1.58a9,9,0,0,1-6,2.39C163.54,36,160.92,32.63,160.92,27.68Z"/><path class="cls-2" d="M184.82,27.36c0-6.32,4.14-12.8,10.09-12.8,4.61,0,7.15,3.44,7.15,8.67,0,6.32-4.14,12.8-10.08,12.8C187.36,36,184.82,32.59,184.82,27.36Zm14.74-3.93c0-4.05-1.5-6.75-4.79-6.75-4.45,0-7.44,5.63-7.44,10.48,0,4.05,1.49,6.75,4.78,6.75C196.56,33.91,199.56,28.28,199.56,23.43Z"/><path class="cls-2" d="M214.62,14.94h2.47l4.71,13.27,1.33,4.33h.13c.27-2.05.51-4.47.94-6.61l2.2-11h2.37l-4.15,20.71H222.2l-4.68-13.23L216.18,18h-.13c-.27,2.14-.58,4.44-1,6.55l-2.21,11.13h-2.36Z"/><path class="cls-2" d="M244.32,17.05h-6l.42-2.11h14.48l-.42,2.11h-6l-3.7,18.6h-2.46Z"/><path class="cls-2" d="M267.51,14.94h2.83l2.4,20.71h-2.55l-1.08-11.89c-.18-2.2-.4-4.39-.56-6.75h-.13c-1.1,2.38-2.15,4.47-3.31,6.75L259,35.65h-2.72Zm-5.72,12.33h9.09l-.45,1.92H261.3Z"/><path class="cls-2" d="M282.32,27.68c0-6.52,4.27-13.12,10.69-13.12a5.79,5.79,0,0,1,5.09,3.07l-1.73,1.29a4,4,0,0,0-3.5-2.24c-4.92,0-8.05,5.75-8.05,10.76,0,3.77,1.58,6.47,5.27,6.47a6.68,6.68,0,0,0,4.4-1.85l1.12,1.58A9,9,0,0,1,289.66,36C284.94,36,282.32,32.63,282.32,27.68Z"/><path class="cls-2" d="M313.28,17.05h-6l.43-2.11h14.48l-.42,2.11h-6L312,35.65h-2.46Z"/><path class="cls-1" d="M184.87,63.21a14.28,14.28,0,0,1,4-.65c2.59,0,4.26,1.43,4,3.55s-1.85,3.53-4.39,4.13a12,12,0,0,1-2.23.23l-.3-1.42a10.18,10.18,0,0,0,2.11-.13c1.6-.29,3.15-1.13,3.38-2.79.21-1.51-1-2.32-2.74-2.32a12.35,12.35,0,0,0-4,.7c-.18,1.51-.36,3.08-.47,3.85-.23,1.66-.94,2.18-1.89,2.18-1.41,0-3.54-1.35-3.32-3s2.28-3,4.46-3.89l.14-1c.1-.72.22-1.55.35-2.34-.49,0-.95,0-1.32,0a19.82,19.82,0,0,1-2.26-.09l.15-1.37a15.47,15.47,0,0,0,2.25.15c.42,0,.89,0,1.38-.06.15-.93.28-1.71.32-2a6.94,6.94,0,0,0,.07-1.26h1.57c-.08.32-.19.81-.26,1.22s-.2,1.14-.33,1.93a24.64,24.64,0,0,0,3.76-.72l-.18,1.42a36.06,36.06,0,0,1-3.8.61c-.13.85-.27,1.7-.37,2.42Zm-1.94,5c.09-.64.23-1.85.39-3.15-1.54.69-2.74,1.7-2.86,2.51s1,1.51,1.72,1.51C182.59,69.05,182.85,68.74,182.93,68.18Zm8.5-10.48a25.29,25.29,0,0,1,3.71,2.61l-.88,1.16a18.91,18.91,0,0,0-3.63-2.67Z"/><path class="cls-1" d="M202.6,62.08l-1.32,9.38H200l2.21-15.69h6.47l-.89,6.31Zm4-1.08.23-1.64H203L202.75,61Zm-3.29-4.15-.21,1.52H207l.22-1.52Zm2.09,12.07L205.27,70H204l.89-6.32h6.71l-.74,5.24Zm.58-4.1-.42,3h4.23l.42-3Zm8.92,4.82c-.12.88-.4,1.34-1,1.57a12.09,12.09,0,0,1-3.26.23,6,6,0,0,0-.27-1.37c1.16.06,2.33,0,2.7,0s.44-.11.49-.45l1.07-7.56h-5.28l.88-6.31h6.63ZM214.79,61l.23-1.66h-4L210.78,61Zm-3.42-4.18-.21,1.53h4l.21-1.53Z"/><path class="cls-1" d="M225.6,59.27c-.17,1.12-.38,2.75-.46,4.21-.14,3,.45,5,1.72,5,.91,0,2-1.84,2.72-3.64l1,1.29c-1.49,3-2.74,4.06-4,4.06-1.68,0-3.06-1.68-2.9-6.31a47.3,47.3,0,0,1,.47-4.75,10.44,10.44,0,0,0,.12-1.59l1.72,0C225.86,58,225.69,58.8,225.6,59.27Zm11.53,7.49-1.54.58c.14-3.21-.44-6.74-1.84-8.83l1.47-.49A16.49,16.49,0,0,1,237.13,66.76Z"/><path class="cls-1" d="M253.54,55.05a17.47,17.47,0,0,0,7,6.43,7.63,7.63,0,0,0-1,1.16,19.57,19.57,0,0,1-6.74-6.29,27.24,27.24,0,0,1-8.38,6.39,4,4,0,0,0-.68-1.06,24.67,24.67,0,0,0,8.48-6.63Zm-7.29,9.24H257.2l-1,7.17h-1.37l.1-.74h-8.27l-.11.74h-1.31Zm1.14,1.21-.56,4h8.27l.56-4Zm9.3-4.65L256.53,62h-9l.17-1.19Z"/><path class="cls-1" d="M272.3,59.16c-.26.32-.64.81-1,1.24-.08.36-.16.76-.25,1.14a10.31,10.31,0,0,1,6-2.22,3.83,3.83,0,0,1,4.07,4.5c-.48,3.59-3.38,5.5-7.38,6.24l-.46-1.35c3.07-.45,6-1.84,6.39-4.92a2.76,2.76,0,0,0-3-3.15,9.57,9.57,0,0,0-5.93,2.55c-.14.74-.26,1.46-.35,2.09-.23,1.62-.38,2.71-.53,4.31,0,.31-.05.76-.06,1.08h-1.57c0-.25.16-.77.2-1.06.26-1.71.39-2.6.7-4.58,0-.18.08-.41.12-.68-1.05,1.31-2.47,3-3.5,4.21L265,67.32c1.16-1.24,3.61-4,4.7-5.42.12-.58.24-1.15.35-1.71-.82.09-2.4.3-3.54.45l.07-1.5a7.72,7.72,0,0,0,1.17,0c.58,0,1.64-.14,2.58-.28.18-.85.3-1.48.33-1.68a6.4,6.4,0,0,0,.11-1.33l1.71.05c-.15.43-.44,1.44-.74,2.69l.1,0Z"/><path class="cls-1" d="M300.53,56.24c-.08.29-.2.9-.27,1.28-.12.81-.26,1.69-.37,2.49l2-.15c.47,0,1,0,1.41-.09l-.2,1.44h-1.4c-.53,0-1.22,0-2,.09a30.23,30.23,0,0,1-.8,3.75,1.34,1.34,0,0,1-1.51,1,18.21,18.21,0,0,1-2.32-.26l.21-1.27a11,11,0,0,0,1.75.23c.44,0,.63-.07.74-.47.17-.59.41-1.78.6-2.9-1.86.15-4,.34-5.77.52-.27,1.84-.55,3.7-.61,4.38-.22,1.93-.29,2.58,2.81,2.58a37.23,37.23,0,0,0,5.35-.4L299.85,70c-1.2.13-3.41.31-5.21.31-4.13,0-4.39-1-4.08-3.8.09-.78.35-2.65.61-4.43l-1.92.2-1.86.25.06-1.48c.54,0,1.22,0,1.87-.09.46,0,1.17-.11,2-.18l.36-2.48a10.81,10.81,0,0,0,.11-1.5h1.56c-.09.4-.17.88-.25,1.44l-.36,2.4,5.77-.53.36-2.54a11,11,0,0,0,.1-1.33Z"/></g></svg>