<?xml version="1.0" encoding="utf-8"?>
<!-- Generator: Adobe Illustrator 24.1.0, SVG Export Plug-In . SVG Version: 6.00 Build 0)  -->
<svg version="1.1" id="レイヤー_1" xmlns="http://www.w3.org/2000/svg" xmlns:xlink="http://www.w3.org/1999/xlink" x="0px"
	 y="0px" viewBox="0 0 480 80" style="enable-background:new 0 0 480 80;" xml:space="preserve">
<style type="text/css">
	.st0{fill:#00A3DF;}
	.st1{fill:#00A3DF;stroke:#00A3DF;stroke-width:1.1594;stroke-linecap:round;stroke-linejoin:round;stroke-miterlimit:10;}
	.st2{enable-background:new    ;}
</style>
<path class="st0" d="M426.6,33.4c-0.5,0.6-1.4,0.6-1.9,0c-0.6-0.7-1.2-1.4-1.8-2c-2.3-2.3-5-4.1-8-5.4c-3.1-1.3-6.4-2-9.9-2
	c-3.4,0-6.7,0.7-9.9,2c-3,1.3-5.7,3.1-8,5.4s-4.1,5-5.4,8c-0.6,1.5-0.4,2.9,1.5,3.8c2.3,1,3.2-0.1,3.8-1.5c1-2.3,2.4-4.4,4.2-6.2
	c1.8-1.8,3.9-3.2,6.2-4.2c2.4-1,5-1.5,7.6-1.5s5.2,0.5,7.6,1.5c2.3,1,4.4,2.4,6.2,4.2c1.8,1.8,3.2,3.9,4.2,6.2c0.5,1.1,0.6,2,2.7,2
	c1.9,0,2.2-1,2.7-2c1-2.3,2.4-4.4,4.2-6.2c1.8-1.8,3.9-3.2,6.2-4.2c2.4-1,5-1.5,7.6-1.5s5.2,0.5,7.6,1.5c2.3,1,4.4,2.4,6.2,4.2
	c1.8,1.8,3.2,3.9,4.2,6.2c0.6,1.5,1.3,2.5,3.8,1.5c2.6-1.1,2.2-2.3,1.5-3.8c-1.3-3-3.1-5.7-5.4-8s-5-4.1-8-5.4c-3.1-1.3-6.4-2-9.9-2
	c-3.4,0-6.7,0.7-9.9,2c-3,1.3-5.7,3.1-8,5.4C427.8,32,427.2,32.7,426.6,33.4z"/>
<path class="st0" d="M55.3,33.4c-0.5,0.6-1.4,0.6-1.9,0c-0.6-0.7-1.2-1.4-1.8-2c-2.3-2.3-5-4.1-8-5.4c-3.1-1.3-6.4-2-9.9-2
	c-3.4,0-6.7,0.7-9.9,2c-3,1.3-5.7,3.1-8,5.4s-4.1,5-5.4,8c-0.6,1.5-0.4,2.9,1.5,3.8c2.3,1,3.2-0.1,3.8-1.5c1-2.3,2.4-4.4,4.2-6.2
	s3.9-3.2,6.2-4.2c2.4-1,5-1.5,7.6-1.5s5.2,0.5,7.6,1.5c2.3,1,4.4,2.4,6.2,4.2s3.2,3.9,4.2,6.2c0.5,1.1,0.6,2,2.7,2
	c1.9,0,2.2-1,2.7-2c1-2.3,2.4-4.4,4.2-6.2s3.9-3.2,6.2-4.2c2.4-1,5-1.5,7.6-1.5s5.2,0.5,7.6,1.5c2.3,1,4.4,2.4,6.2,4.2
	c1.8,1.8,3.2,3.9,4.2,6.2c0.6,1.5,1.3,2.5,3.8,1.5c2.6-1.1,2.2-2.3,1.5-3.8c-1.3-3-3.1-5.7-5.4-8s-5-4.1-8-5.4c-3.1-1.3-6.4-2-9.9-2
	c-3.4,0-6.7,0.7-9.9,2c-3,1.3-5.7,3.1-8,5.4C56.5,32,55.9,32.7,55.3,33.4z"/>
<g>
	<g>
		<g>
			<path class="st1" d="M129.8,17.1h-6l0.4-2.1h14.5l-0.4,2.1h-6l-3.7,18.6h-2.5L129.8,17.1z"/>
			<path class="st1" d="M146,14.9h5.7c3.9,0,6.5,1.4,6.5,4.8c0,4.6-3.8,7.1-8.4,7.1h-3.6l-1.7,8.8H142L146,14.9z M149.6,24.9
				c4,0,6.1-1.8,6.1-4.8c0-2.3-1.6-3.2-4.6-3.2h-3l-1.6,8C146.5,24.9,149.6,24.9,149.6,24.9z M149.5,26.4l1.9-1.4l4.3,10.7h-2.6
				L149.5,26.4z"/>
			<path class="st1" d="M167.3,14.9h11.4l-0.4,2.1h-9l-1.3,6.7h7.6l-0.4,2.1h-7.6l-1.6,7.8h9.3l-0.4,2.1h-11.7L167.3,14.9z"/>
			<path class="st1" d="M191.3,14.9h2.8l2.4,20.7H194l-1.1-11.9c-0.2-2.2-0.4-4.4-0.6-6.7h-0.1c-1.1,2.4-2.2,4.5-3.3,6.7l-6.1,11.9
				H180L191.3,14.9z M185.6,27.3h9.1l-0.4,1.9h-9.1L185.6,27.3z"/>
			<path class="st1" d="M202,32.4l1.8-1.4c1.2,1.8,3,2.9,5.3,2.9c2.5,0,4.4-1.5,4.4-3.9c0-1.5-1-2.5-2.6-3.4l-2.4-1.4
				c-1.8-1.1-3.2-2.5-3.2-4.9c0-3.1,2.7-5.7,6.4-5.7c2.5,0,4.6,1.2,5.9,2.9L216,19c-1.1-1.3-2.5-2.3-4.4-2.3c-2.3,0-3.8,1.7-3.8,3.4
				c0,1.6,1.2,2.4,2.7,3.3l2.4,1.4c2,1.2,3.1,2.6,3.1,4.9c0,3.7-3,6.3-7.2,6.3C206.1,36,203.7,34.8,202,32.4z"/>
			<path class="st1" d="M226.5,14.9h2.5l-2.4,11.8c-0.2,0.9-0.3,1.7-0.3,2.5c0,3,1.3,4.6,4.2,4.6c2.4,0,4.4-1.7,5.3-6.3l2.5-12.7
				h2.4l-2.6,12.8c-1.2,6-4.1,8.3-7.8,8.3c-4.2,0-6.5-2.3-6.5-6.5c0-0.9,0.1-1.9,0.3-2.9L226.5,14.9z"/>
			<path class="st1" d="M249.8,14.9h5.7c3.9,0,6.5,1.4,6.5,4.8c0,4.6-3.8,7.1-8.4,7.1H250l-1.7,8.8h-2.5L249.8,14.9z M253.4,24.9
				c4,0,6.1-1.8,6.1-4.8c0-2.3-1.6-3.2-4.6-3.2h-3l-1.6,8C250.3,24.9,253.4,24.9,253.4,24.9z M253.3,26.4l1.9-1.4l4.3,10.7h-2.6
				L253.3,26.4z"/>
			<path class="st1" d="M271.1,14.9h11.4l-0.4,2.1h-9l-1.3,6.7h7.6l-0.4,2.1h-7.6l-1.6,7.8h9.3l-0.4,2.1H267L271.1,14.9z"/>
			<path class="st1" d="M300.6,14.9h2.9l1.8,11.2l0.7,4.3h0.1l2.2-4.3l6.2-11.2h2.9l-4.1,20.7H311l2.4-11.7c0.4-1.9,1-4.3,1.5-6.1
				h-0.1l-2.5,4.6l-6.1,11h-1.4l-1.9-11l-0.7-4.6H302c-0.3,1.8-0.5,4.2-0.9,6.1l-2.3,11.7h-2.3L300.6,14.9z"/>
			<path class="st1" d="M331,14.9h2.8l2.4,20.7h-2.5l-1.1-11.9c-0.2-2.2-0.4-4.4-0.6-6.7h-0.1c-1.1,2.4-2.2,4.5-3.3,6.7l-6.1,11.9
				h-2.7L331,14.9z M325.3,27.3h9.1l-0.4,1.9h-9.1L325.3,27.3z"/>
			<path class="st1" d="M346.6,14.9h5.8c3.9,0,6.5,1.5,6.5,5.1c0,5.1-3.8,7.3-9.1,7.3h-3.3l-1.6,8.3h-2.5L346.6,14.9z M349.9,25.3
				c4.3,0,6.5-1.7,6.5-5c0-2.4-1.6-3.4-4.7-3.4h-3.2l-1.7,8.4H349.9z"/>
		</g>
	</g>
</g>
<g>
	<g class="st2">
		<path class="st0" d="M215.8,70.1c0.3,0,0.5-0.3,0.8-2.3c0.2,0.2,0.7,0.4,1,0.5c-0.4,2.4-0.8,3-1.8,3h-1.3c-1.1,0-1.3-0.4-1.2-1.6
			l0.5-3.7h-1.4c-0.7,2.5-1.8,4.4-4.4,5.5c-0.1-0.3-0.4-0.8-0.6-1c0.2-0.1,0.5-0.2,0.7-0.3h-4.8l-0.1,0.8H202l1-6.9
			c-0.3,0.3-0.6,0.6-0.9,0.9c-0.1-0.3-0.5-0.8-0.7-1c1.1-0.9,2.1-2.1,3-3.4h-2.2l0.2-1.1h2.8c0.3-0.6,0.6-1.1,0.9-1.7h-1.3
			c-0.4,0.6-0.9,1.2-1.3,1.6c-0.2-0.2-0.6-0.5-0.9-0.7c1-0.9,1.9-2.3,2.5-3.6l1.2,0.3c-0.2,0.5-0.4,0.9-0.7,1.3h5.2l-0.2,1.1h-3.2
			c-0.3,0.6-0.5,1.2-0.9,1.7h4.1l-0.2,1.1h-4.6c-0.4,0.6-0.8,1.2-1.2,1.7h1.8c0.3-0.5,0.6-1,0.8-1.4l1.2,0.3
			c-0.3,0.4-0.5,0.8-0.8,1.2h2.3l-0.1,1h-2.3l-0.2,1.3h2.1l-0.1,0.9H207l-0.2,1.3h2.1l-0.1,0.9h-2.1l-0.2,1.4h2.5l-0.1,0.6
			c1.4-0.9,2-2.3,2.4-3.9H210l1.4-10.2h6.9l-1.4,10.2H215l-0.5,3.7c-0.1,0.4,0,0.5,0.3,0.5H215.8z M203.5,69.2h1.9l0.2-1.4h-1.9
			L203.5,69.2z M205.9,65.5H204l-0.2,1.3h1.9L205.9,65.5z M206.2,63.2h-1.9l-0.2,1.3h1.9L206.2,63.2z M211.4,64.7h4.5l0.3-1.9h-4.5
			L211.4,64.7z M211.8,61.8h4.5l0.3-1.9h-4.5L211.8,61.8z M212.2,58.8h4.5L217,57h-4.5L212.2,58.8z"/>
		<path class="st0" d="M234,70.2c0.7,0,0.9-0.5,1.3-3c0.3,0.3,0.8,0.5,1.1,0.6c-0.6,2.9-1,3.7-2.6,3.7h-2.6c-1.6,0-2-0.4-1.8-1.9
			l0.9-6.4h-3.3c-0.9,3.9-2.2,6.9-6.9,8.3c-0.1-0.3-0.4-0.9-0.7-1.1c4.4-1.3,5.4-3.8,6.2-7.2h-4.8l0.2-1.3h7.2l1-6.8h1.3l-1,6.8h7.4
			l-0.2,1.3h-5.1l-0.9,6.3c-0.1,0.6,0,0.7,0.7,0.7H234z M224.9,60.8c-0.2-1.2-0.8-3.1-1.5-4.5l1.3-0.5c0.7,1.4,1.4,3.2,1.6,4.4
			L224.9,60.8z M236.5,56.2c-1,1.5-2.2,3.4-3.1,4.6l-1.1-0.5c0.9-1.2,2.2-3.2,2.9-4.6L236.5,56.2z"/>
		<path class="st0" d="M241.6,56.9h2l1.5,7.1c0.2,0.9,0.4,1.8,0.5,2.8h0.1c0.4-0.9,0.9-1.8,1.3-2.8l3.5-7.1h2l-1.9,13.2h-1.6l1-7.3
			c0.2-1.1,0.5-2.7,0.8-3.9h-0.1l-1.5,3l-3.5,6.9h-1.1l-1.5-6.9l-0.6-3h-0.1c-0.1,1.2-0.2,2.8-0.3,3.9l-1,7.3h-1.5L241.6,56.9z"/>
		<path class="st0" d="M261.9,66h-4.8l-1.8,4h-1.7l6.3-13.2h1.9l2.6,13.2h-1.8L261.9,66z M261.7,64.7l-0.3-2
			c-0.3-1.5-0.5-2.9-0.7-4.5h-0.1c-0.6,1.5-1.3,3-1.9,4.5l-0.9,2H261.7z"/>
		<path class="st0" d="M269.1,56.9h3.8c3,0,4.8,1,4.4,3.9c-0.4,2.8-2.6,4.1-5.4,4.1h-2.2l-0.7,5.2h-1.7L269.1,56.9z M271.8,63.5
			c2.3,0,3.5-0.8,3.8-2.7c0.3-1.9-0.8-2.5-3.1-2.5h-1.9l-0.7,5.3H271.8z"/>
	</g>
</g>
</svg>
