<svg xmlns="http://www.w3.org/2000/svg" viewBox="0 0 480 80"><defs><style>.cls-1,.cls-2{fill:#00a3df;}.cls-2{stroke:#00a3df;stroke-linecap:round;stroke-linejoin:round;stroke-width:1.16px;}</style></defs><g id="レイヤー_1" data-name="レイヤー 1"><path class="cls-1" d="M426.62,33.36a1.22,1.22,0,0,1-1.9,0c-.57-.7-1.18-1.37-1.82-2a25.32,25.32,0,0,0-41.22,8.05,2.6,2.6,0,0,0,1.53,3.78c2.27,1,3.16-.07,3.78-1.54a19.46,19.46,0,0,1,4.19-6.21,19.52,19.52,0,0,1,27.64,0A19.46,19.46,0,0,1,423,41.63c.45,1.07.57,2,2.66,2,1.87,0,2.2-1,2.65-2a19.79,19.79,0,0,1,4.19-6.21,19.57,19.57,0,0,1,31.84,6.21c.62,1.47,1.32,2.54,3.78,1.54s2.15-2.32,1.53-3.78a25.31,25.31,0,0,0-41.22-8A26.54,26.54,0,0,0,426.62,33.36Z"/><path class="cls-1" d="M55.28,33.36a1.22,1.22,0,0,1-1.9,0,26.54,26.54,0,0,0-1.82-2,25.32,25.32,0,0,0-41.22,8.05,2.6,2.6,0,0,0,1.53,3.78c2.28,1,3.16-.07,3.78-1.54a19.55,19.55,0,0,1,31.84-6.21,19.79,19.79,0,0,1,4.19,6.21c.45,1.07.56,2,2.65,2,1.87,0,2.21-1,2.66-2a19.46,19.46,0,0,1,4.19-6.21,19.52,19.52,0,0,1,27.64,0A19.46,19.46,0,0,1,93,41.63c.62,1.47,1.33,2.54,3.78,1.54s2.15-2.32,1.53-3.78a25.31,25.31,0,0,0-41.22-8C56.46,32,55.85,32.66,55.28,33.36Z"/><path class="cls-2" d="M135.18,14.94h2.45l-4.14,20.71H131Z"/><path class="cls-2" d="M146.92,14.94h2.46l4.72,13.27,1.32,4.33h.13c.27-2.05.52-4.47.94-6.61l2.2-11h2.37l-4.14,20.71h-2.43l-4.68-13.23L148.47,18h-.13c-.27,2.14-.58,4.44-1,6.55l-2.2,11.13h-2.37Z"/><path class="cls-2" d="M170.24,14.94h11.42L181.23,17h-9l-1.42,7.17h7.61L178,26.27h-7.57l-1.9,9.38h-2.46Z"/><path class="cls-2" d="M185.6,27.36c0-6.32,4.13-12.8,10.08-12.8,4.61,0,7.15,3.44,7.15,8.67,0,6.32-4.13,12.8-10.08,12.8C188.14,36,185.6,32.59,185.6,27.36Zm14.73-3.93c0-4.05-1.49-6.75-4.78-6.75-4.45,0-7.45,5.63-7.45,10.48,0,4.05,1.49,6.75,4.78,6.75C197.33,33.91,200.33,28.28,200.33,23.43Z"/><path class="cls-2" d="M212.71,14.94h5.68c3.86,0,6.46,1.37,6.46,4.83,0,4.64-3.81,7.1-8.43,7.1h-3.64L211,35.65h-2.46Zm3.59,10c3.95,0,6.12-1.85,6.12-4.8,0-2.27-1.59-3.17-4.64-3.17h-3l-1.55,8Zm-.1,1.5,1.88-1.45,4.32,10.71h-2.63Z"/><path class="cls-2" d="M234,14.94h2.92l1.81,11.19.69,4.27h.12l2.22-4.27,6.15-11.19h2.93l-4.14,20.71h-2.34L246.75,24c.4-1.87,1-4.28,1.5-6.08h-.12l-2.49,4.6-6.11,11h-1.38l-1.92-11-.71-4.6h-.12c-.26,1.84-.54,4.24-.89,6.08l-2.34,11.68h-2.3Z"/><path class="cls-2" d="M264.37,14.94h2.83l2.4,20.71h-2.55L266,23.76c-.18-2.2-.4-4.39-.56-6.75h-.13c-1.1,2.38-2.15,4.47-3.31,6.75l-6.12,11.89h-2.72Zm-5.72,12.33h9.09l-.45,1.92h-9.13Z"/><path class="cls-2" d="M283.63,17.05h-6l.42-2.11h14.48l-.42,2.11h-6l-3.69,18.6h-2.46Z"/><path class="cls-2" d="M299.82,14.94h2.45l-4.14,20.71h-2.46Z"/><path class="cls-2" d="M308.2,27.36c0-6.32,4.14-12.8,10.08-12.8,4.62,0,7.16,3.44,7.16,8.67,0,6.32-4.14,12.8-10.09,12.8C310.74,36,308.2,32.59,308.2,27.36Zm14.74-3.93c0-4.05-1.5-6.75-4.79-6.75-4.45,0-7.45,5.63-7.45,10.48,0,4.05,1.5,6.75,4.79,6.75C319.94,33.91,322.94,28.28,322.94,23.43Z"/><path class="cls-2" d="M335.32,14.94h2.47l4.71,13.27,1.33,4.33H344c.27-2.05.52-4.47.94-6.61l2.21-11h2.36l-4.14,20.71h-2.43l-4.67-13.23L336.87,18h-.12c-.27,2.14-.58,4.44-1,6.55l-2.2,11.13h-2.36Z"/><path class="cls-1" d="M217.14,70.08c.34,0,.45-.27.78-2.35a3.18,3.18,0,0,0,1,.47c-.45,2.42-.84,3-1.83,3h-1.26c-1.12,0-1.34-.36-1.16-1.6l.51-3.68h-1.35c-.68,2.54-1.76,4.43-4.42,5.55a3.43,3.43,0,0,0-.6-1,7.6,7.6,0,0,0,.71-.31h-4.83l-.12.83H203.4l1-6.93c-.32.3-.63.59-.94.86a8.29,8.29,0,0,0-.68-1,15.07,15.07,0,0,0,3-3.38h-2.24l.16-1.1h2.75a18.3,18.3,0,0,0,.87-1.71H206a11.59,11.59,0,0,1-1.35,1.6,5.88,5.88,0,0,0-.92-.72,11.07,11.07,0,0,0,2.51-3.6l1.16.29a14,14,0,0,1-.69,1.33h5.17l-.15,1.1h-3.17c-.26.57-.54,1.15-.86,1.71h4.09l-.15,1.1h-4.56a19.81,19.81,0,0,1-1.2,1.74h1.82a9.21,9.21,0,0,0,.76-1.44l1.19.26c-.27.41-.55.82-.8,1.18h2.29l-.13,1h-2.35l-.18,1.3h2.11l-.13.93h-2.11l-.19,1.34h2.11l-.13.91h-2.11l-.2,1.43h2.47l-.09.63a6.28,6.28,0,0,0,2.44-3.86h-1.3l1.43-10.17h6.92L218.3,65.93h-1.89l-.52,3.68c0,.39,0,.47.28.47Zm-12.28-.92h1.85l.2-1.43h-1.86Zm2.37-3.68h-1.86l-.19,1.34H207Zm.31-2.23h-1.85l-.19,1.3h1.86Zm5.2,1.49h4.48l.27-1.89H213Zm.42-3h4.48l.27-1.87h-4.49Zm.41-3h4.49l.26-1.84h-4.49Z"/><path class="cls-1" d="M236.17,70.17c.71,0,.89-.45,1.35-3a3.1,3.1,0,0,0,1.14.59c-.57,2.9-1,3.68-2.55,3.68h-2.6c-1.59,0-2-.43-1.76-2l.89-6.36h-3.31c-.9,3.93-2.21,6.87-6.91,8.34a3.35,3.35,0,0,0-.67-1.13c4.38-1.26,5.4-3.8,6.17-7.21h-4.79l.18-1.27h7.24l1-6.83h1.33l-1,6.83h7.41l-.18,1.27H234l-.89,6.35c-.08.59,0,.72.73.72Zm-9.1-9.37a16.67,16.67,0,0,0-1.5-4.47l1.27-.45a14.88,14.88,0,0,1,1.56,4.42Zm11.64-4.61a46.15,46.15,0,0,1-3.14,4.56l-1.06-.45a30.92,30.92,0,0,0,2.92-4.62Z"/><path class="cls-1" d="M242.47,63.05a25.67,25.67,0,0,0,1.47-4.59l1,.12a24.88,24.88,0,0,1-1.45,4.81Zm3.34-8h1.24l-2.3,16.42H243.5Zm1.9,2.63a12.6,12.6,0,0,1,.64,2.52l-1,.47a14.26,14.26,0,0,0-.57-2.65Zm9,12.3c-.09.68-.29,1-.82,1.22a7.91,7.91,0,0,1-2.6.2,6.12,6.12,0,0,0-.22-1.15c.9,0,1.76,0,2,0s.35-.07.38-.31l.19-1.3h-6.49l-.4,2.81H247.5l1.21-8.57h9Zm2.67-9.13-.14,1h-11.7l.15-1h5.13l.18-1.26h-4.18l.14-1h4.18l.16-1.13h-4.6l.15-1h4.59l.2-1.4H255l-.19,1.4h4.74l-.15,1h-4.74l-.16,1.13h4.29l-.14,1h-4.28l-.18,1.26Zm-3.62,6.82.19-1.37h-6.49l-.19,1.37Zm-6-3.72-.19,1.35h6.49l.19-1.35Z"/><path class="cls-1" d="M267.64,59.79H271l-.16,1.15h-1.88l.83.24c-.44.83-.92,1.69-1.31,2.32h1.78l-.16,1.17H267l-.28,2h2.87l-.16,1.13h-2.87L266,71.41h-1.26l.51-3.66h-2.95l.16-1.13h2.95l.28-2h-3.14l.16-1.17h1.77a9.14,9.14,0,0,0-.43-2.32l.92-.24h-2.15l.16-1.15h3.39l.25-1.78h-2.74l.16-1.16h2.74l.26-1.81h1.26l-.25,1.81h2.63L270.52,58h-2.63Zm-.22,3.51a21.84,21.84,0,0,0,1.21-2.36h-3.51a7.77,7.77,0,0,1,.49,2.38l-.65.18h3.12Zm11.19-1.15a19.4,19.4,0,0,1-3,5.93,7.29,7.29,0,0,0,2.52,2.28,8.41,8.41,0,0,0-1.07,1.08,8,8,0,0,1-2.34-2.28A13.18,13.18,0,0,1,272,71.48a3.82,3.82,0,0,0-.72-.88l-.12.86H269.9l2.19-15.63h7l-.48,3.46c-.1.66-.27,1-.88,1.22a11,11,0,0,1-2.84.2,3.41,3.41,0,0,0-.25-1.17c1.12,0,2.05,0,2.33,0s.37-.08.4-.29l.31-2.22h-4.52l-.69,4.85h5.12l.24-.06Zm-7.36,8.38a12,12,0,0,0,2.83-2.42A15.51,15.51,0,0,1,272.47,63h-.16ZM273.61,63a13.62,13.62,0,0,0,1.33,4,17.89,17.89,0,0,0,2.11-4Z"/></g></svg>