<svg xmlns="http://www.w3.org/2000/svg" viewBox="0 0 240 80"><defs><style>.cls-1{fill:#fff;}</style></defs><g id="レイヤー_1" data-name="レイヤー 1"><path class="cls-1" d="M44.46,34.87A1,1,0,0,1,43.34,36a21.43,21.43,0,0,0-2.27-.12A21.17,21.17,0,0,0,21.46,65a2.17,2.17,0,0,0,3.14,1.32c1.93-.75,1.83-1.9,1.32-3.13a16.36,16.36,0,0,1,21.3-21.3c.89.37,1.54.88,2.77-.36s.73-1.88.37-2.77a16.35,16.35,0,0,1,9-21.3,16.49,16.49,0,0,1,12.3,0c1.23.5,2.28.72,3.14-1.32s-.1-2.64-1.33-3.14a21.17,21.17,0,0,0-29,21.87Z"/><path class="cls-1" d="M94.45,45.4a1.14,1.14,0,0,0,1.14,1.15h0a14.17,14.17,0,0,1,13.13,8.84,14.24,14.24,0,0,1,0,10.66c-.5,1.23-1,2.18-3.14,1.33s-1.83-1.91-1.33-3.14a9.42,9.42,0,0,0,0-7,9.27,9.27,0,0,0-2-3.09,9.15,9.15,0,0,0-3.09-2.06,9.45,9.45,0,0,0-7,0,2.22,2.22,0,0,1-2.76-.39A2.19,2.19,0,0,1,89,48.91a9.45,9.45,0,0,0,0-7,9.15,9.15,0,0,0-2.06-3.09,9.3,9.3,0,0,0-3.09-2.06,9.52,9.52,0,0,0-7,0c-1.23.5-2.25.86-3.14-1.32-1.07-2.64,1.19-3.2,3.18-3.69a14.46,14.46,0,0,1,8.89.58,14.17,14.17,0,0,1,8.76,13.1Z"/><path class="cls-1" d="M129.74,27.07l-.44.21-.6.24a.39.39,0,0,0-.24.41,12.14,12.14,0,0,0,.33,1.39s.15-.2.23-.31a.37.37,0,0,1,.13-.12L132,27.34a.37.37,0,0,0,.2-.33l0-.92A.15.15,0,0,0,132,26l-.41.22a.15.15,0,0,1-.23-.14l.41-3.3a.39.39,0,0,1,.37-.33h.21a.28.28,0,0,1,.29.3c0,.26,0,.62,0,.77a10.94,10.94,0,0,0,.3,2.82l.09.36a.36.36,0,0,1-.07.31l-.28.32a8.67,8.67,0,0,1-.91.87l-.28.23a.33.33,0,0,0,0,.53l.56.41a.33.33,0,0,0,.42,0c.17-.14.41-.35.61-.54l.35-.38a.33.33,0,0,1,.5,0l.28.33a1.57,1.57,0,0,0,1.07.54,1,1,0,0,0,.85-.55h0a5,5,0,0,0,.4-.94c.06-.19.15-.54.2-.77a.28.28,0,0,0-.11-.32l-.84-.56s-.09.34-.15.49-.26.47-.44.47a.37.37,0,0,1-.3-.18.82.82,0,0,1-.11-.25l.47-.76c.29-.5.49-.9.71-1.37l.23-.5.77-.88-1.4,0c-.23,0-.36.06-.43.23s-.26.62-.43,1l-.45.87s-.13-.66-.15-.84a6.51,6.51,0,0,1-.06-.73c0-.21,0-.55,0-.82a.38.38,0,0,1,.37-.36h2.27a.39.39,0,0,0,.37-.33l.08-.66a.28.28,0,0,0-.29-.33h-2.28a.28.28,0,0,1-.29-.34l.21-1.62a.35.35,0,0,1,.06-.16l1-.54h-2.17a.39.39,0,0,0-.37.33l-.23,2a.4.4,0,0,1-.38.34H130.8a.39.39,0,0,0-.37.33Z"/><path class="cls-1" d="M124.49,29l.36.45c.73.84,2.11,2,5.76,2l4.54,0a.43.43,0,0,0,.35-.2l.6-1c.43-.71,1.68-.67-.29-.51-1.3.12-4.32.36-5.81.36a5.89,5.89,0,0,1-2-.26l-.53-.22a.49.49,0,0,1-.28-.51l.23-1.84a.26.26,0,0,1,.25-.23h1.18a.27.27,0,0,0,.26-.23l.12-1a.19.19,0,0,0-.2-.22h-1.18a.2.2,0,0,1-.2-.23l.11-.92a.27.27,0,0,1,.26-.23h1.34a.26.26,0,0,0,.25-.23l.12-.94a.2.2,0,0,0-.2-.23H128a.19.19,0,0,1-.2-.23l.11-.95a.28.28,0,0,1,.26-.23h1.43a.27.27,0,0,0,.26-.22l.1-.84a.2.2,0,0,0-.2-.23h-1.43a.19.19,0,0,1-.2-.22l.09-.75a.21.21,0,0,1,0-.11l1-.64H127a.27.27,0,0,0-.26.23L126.56,20a.26.26,0,0,1-.25.22h-1.78a.27.27,0,0,0-.26.23l-.1.84a.19.19,0,0,0,.2.22h1.78a.2.2,0,0,1,.2.23l-.12.95a.26.26,0,0,1-.25.23h-2a.27.27,0,0,0-.26.23l-.12.94a.2.2,0,0,0,.2.23h2.33a.2.2,0,0,1,.2.23l-.42,3.41c0,.14-.21.2-.28.08l-.47-.85a.26.26,0,0,1,0-.15l.25-1.24a.24.24,0,0,1,.06-.11c.1-.12.44-.38.44-.39l-1.68,0a.28.28,0,0,0-.26.21c0,.12,0,.25-.06.34a18.77,18.77,0,0,1-1.69,4.75c-.05.1-.14.25-.21.37a.22.22,0,0,0,.12.32l1.18.29a.25.25,0,0,0,.27-.13,3.93,3.93,0,0,0,.21-.41,14.8,14.8,0,0,0,.58-1.42Z"/><path class="cls-1" d="M135.43,19.4a.33.33,0,0,0-.19.45c.1.2.23.42.26.5a3.26,3.26,0,0,1,.13.33.29.29,0,0,0,.41.13l.69-.36a.33.33,0,0,0,.17-.41,4.81,4.81,0,0,0-.41-.82.28.28,0,0,0-.35-.1Z"/><path class="cls-1" d="M157.93,22.67h-2.24a.39.39,0,0,0-.38.34l-.82,6.64c-.06.56-.36.66-.89.66h-.22a.38.38,0,0,0-.38.48l.29.83a.32.32,0,0,0,.3.2c1.79,0,2.31-.29,2.48-1.66l.83-6.75a.46.46,0,0,1,.08-.19Z"/><path class="cls-1" d="M152,23.25l-.68,5.51a.3.3,0,0,0,.3.34h.83a.41.41,0,0,0,.39-.34l.63-5.13a.37.37,0,0,1,.1-.22l1-.51h-2.18A.4.4,0,0,0,152,23.25Z"/><path class="cls-1" d="M152.73,20.32a.4.4,0,0,1-.31.16h-3.24s-.1,0,0-.07.39-.18.39-.18a.38.38,0,0,0,.19-.51c-.28-.49-.5-.83-.66-1.06a.32.32,0,0,0-.39-.1l-.94.39a.36.36,0,0,0-.19.52c.18.29.38.62.5.83s0,.18-.12.18h-2.9a.41.41,0,0,0-.39.34l-.07.58a.3.3,0,0,0,.3.34h12.84a.42.42,0,0,0,.39-.34l.07-.58a.3.3,0,0,0-.3-.34h-3.14s-.18-.08-.09-.18.72-1,.72-1l1.16-.63-2.4,0a.4.4,0,0,0-.34.2A17.68,17.68,0,0,1,152.73,20.32Z"/><path class="cls-1" d="M149.8,30.3l.86-7a.29.29,0,0,0-.3-.34H145.5a.41.41,0,0,0-.38.34l-1,8.26a.29.29,0,0,0,.3.34h.79a.4.4,0,0,0,.39-.34L145.9,29a.39.39,0,0,1,.38-.34h1.87a.3.3,0,0,1,.3.34l-.12.91a.52.52,0,0,1-.6.5h-.36a.38.38,0,0,0-.4.45l.21.85a.3.3,0,0,0,.3.22C148.77,31.88,149.65,31.55,149.8,30.3Zm-3-6.18h1.87a.29.29,0,0,1,.29.34l0,.39a.41.41,0,0,1-.39.34h-1.86a.29.29,0,0,1-.3-.34l.05-.39A.39.39,0,0,1,146.84,24.12Zm-.71,3,.05-.39a.39.39,0,0,1,.38-.34h1.87a.3.3,0,0,1,.3.34l0,.39a.4.4,0,0,1-.39.34h-1.86A.3.3,0,0,1,146.13,27.12Z"/><path class="cls-1" d="M168.91,21.72l.57.36a.38.38,0,0,0,.48,0A11.32,11.32,0,0,0,171.1,21a.39.39,0,0,1,.28-.13h7.44a.39.39,0,0,0,.38-.34l.08-.6a.3.3,0,0,0-.3-.35h-6.45a.14.14,0,0,1-.1-.24l.31-.42a.37.37,0,0,1,.13-.12l1.26-.62h-2.46a.38.38,0,0,0-.33.2,11.7,11.7,0,0,1-2.43,2.81A.34.34,0,0,0,168.91,21.72Z"/><path class="cls-1" d="M175.83,31.33a2.18,2.18,0,0,0,.58-1c0-.11.11-.33.17-.52a.39.39,0,0,1,.37-.27h.62a.41.41,0,0,0,.39-.35l.07-.57a.3.3,0,0,0-.3-.34h-.4A.3.3,0,0,1,177,28l.23-1.15a.4.4,0,0,1,.38-.32h.43a.41.41,0,0,0,.39-.34l.06-.51a.3.3,0,0,0-.3-.34h-.33a.3.3,0,0,1-.3-.35c.08-.56.23-1.68.33-2.42a.3.3,0,0,0-.3-.34h-6.85a.41.41,0,0,0-.39.34c-.09.83-.27,1.91-.36,2.44a.4.4,0,0,1-.38.33h-.6a.39.39,0,0,0-.38.34l-.06.51a.29.29,0,0,0,.3.34h.41a.3.3,0,0,1,.29.39c-.19.7-.59,2.15-.85,2.95a.3.3,0,0,0,.25.41l.73.07a.38.38,0,0,0,.39-.24c0-.08.07-.16.09-.23a.4.4,0,0,1,.36-.25h4.12A.3.3,0,0,1,175,30a1.36,1.36,0,0,1-.15.28c-.2.26-.53.39-1.24.43a.38.38,0,0,0-.34.5l.26.66a.31.31,0,0,0,.3.18A3.33,3.33,0,0,0,175.83,31.33Zm-.77-7.88H176a.3.3,0,0,1,.3.35L176.09,25a.41.41,0,0,1-.39.34h-.91a.29.29,0,0,1-.29-.36l.18-1.15A.4.4,0,0,1,175.06,23.45ZM172,28.32h-.86a.3.3,0,0,1-.3-.38l.28-1.16a.39.39,0,0,1,.37-.3h.92a.31.31,0,0,1,.29.4L172.34,28A.42.42,0,0,1,172,28.32Zm.73-3h-.93a.3.3,0,0,1-.3-.36l.18-1.15a.39.39,0,0,1,.38-.33H173a.3.3,0,0,1,.3.36l-.2,1.15A.4.4,0,0,1,172.69,25.29Zm1.13,2.64.28-1.15a.41.41,0,0,1,.38-.3h1a.29.29,0,0,1,.29.37L175.53,28a.4.4,0,0,1-.38.32h-1A.3.3,0,0,1,173.82,27.93Z"/><path class="cls-1" d="M166.84,25.2l.55-.65a.33.33,0,0,0,0-.47,11.32,11.32,0,0,0-1.43-1,.35.35,0,0,0-.46.1l-.51.61a.34.34,0,0,0,0,.49,11.34,11.34,0,0,1,1.32,1A.35.35,0,0,0,166.84,25.2Z"/><path class="cls-1" d="M165.25,31.8c.82-1.2,1.44-2.09,2.24-3.48a.3.3,0,0,0-.05-.41l-.51-.44a.36.36,0,0,0-.53.13,24.05,24.05,0,0,1-2.3,3.28.34.34,0,0,0,0,.46l.76.72a.75.75,0,0,0,.27.18s0,0,0,0c0-.23,0-.28.11-.39Z"/><path class="cls-1" d="M166.88,18.91l-.55.6a.33.33,0,0,0,0,.48c.39.33.76.69,1.06,1a.34.34,0,0,0,.49,0l.6-.61a.34.34,0,0,0,0-.48c-.37-.36-.79-.73-1.15-1A.35.35,0,0,0,166.88,18.91Z"/><path class="cls-1" d="M189.18,24.2h10a.4.4,0,0,0,.38-.34l.08-.64a.3.3,0,0,0-.3-.35H187.61a.41.41,0,0,0-.39.36c0,.43-.07.91-.14,1.51a14.24,14.24,0,0,1-2.15,6.3.31.31,0,0,0,.13.48l1,.34a.38.38,0,0,0,.43-.17,16.91,16.91,0,0,0,2.29-6.79c0-.09,0-.24.05-.37A.39.39,0,0,1,189.18,24.2Z"/><path class="cls-1" d="M198.67,28h-3.94a.3.3,0,0,1-.3-.35l.08-.66a.42.42,0,0,1,.39-.34h3.17a.39.39,0,0,0,.38-.34l.08-.65a.3.3,0,0,0-.3-.35H190a.42.42,0,0,0-.39.35l-.08.65a.3.3,0,0,0,.3.34h2.52a.29.29,0,0,1,.3.34l-.08.66a.4.4,0,0,1-.38.35H189a.39.39,0,0,0-.38.34l-.09.75a.29.29,0,0,0,.3.34H192a.29.29,0,0,1,.3.34l-.26,2.12a.3.3,0,0,0,.3.34h1.15a.4.4,0,0,0,.38-.34l.26-2.12a.41.41,0,0,1,.39-.34h3.93a.39.39,0,0,0,.38-.34l.1-.75A.3.3,0,0,0,198.67,28Z"/><path class="cls-1" d="M188,19.18l-.3,2.42a.3.3,0,0,0,.3.34h10.56a.39.39,0,0,0,.38-.34l.25-2a.35.35,0,0,1,.14-.25l1-.52-2.41,0a.4.4,0,0,0-.39.34l-.14,1.17a.42.42,0,0,1-.39.34H194.7a.3.3,0,0,1-.3-.34l.12-1a.46.46,0,0,1,.15-.26l1.05-.57h-2.56a.4.4,0,0,0-.39.34l-.18,1.49a.42.42,0,0,1-.39.34h-2.35a.29.29,0,0,1-.3-.34l.08-.71a.45.45,0,0,1,.16-.27l1-.47h-2.44A.4.4,0,0,0,188,19.18Z"/><path class="cls-1" d="M138,51.39h-.92a.3.3,0,0,1-.3-.35l.21-1.65a.4.4,0,0,1,.38-.35h.91a.3.3,0,0,1,.3.35l-.2,1.65A.4.4,0,0,1,138,51.39Zm2.95,0H140a.3.3,0,0,1-.3-.35l.2-1.65a.4.4,0,0,1,.38-.35h.93a.3.3,0,0,1,.3.35L141.3,51A.4.4,0,0,1,140.92,51.39Zm3,0h-1a.3.3,0,0,1-.3-.35l.2-1.65a.42.42,0,0,1,.39-.35h1a.3.3,0,0,1,.3.35l-.2,1.65A.42.42,0,0,1,144,51.39Zm-8.41-3.22-.37,2.88a.42.42,0,0,1-.39.34h-.68a.39.39,0,0,0-.38.34l-.08.61a.3.3,0,0,0,.3.34h12.86a.4.4,0,0,0,.38-.34l.08-.61a.3.3,0,0,0-.3-.34h-.7A.3.3,0,0,1,146,51l.36-2.95.12,0a1.06,1.06,0,0,0,.84-.21,3,3,0,0,0,.89-1.85.3.3,0,0,0-.16-.32l-.68-.34a.39.39,0,0,0-.51.23c-.11.32-.3.63-.58.63a1.69,1.69,0,0,1-1-.56l-.3-.31a.24.24,0,0,1,0-.34c.14-.14.35-.35.51-.53s.74-.85.74-.85l.73-.23s-.87-.59-1.25-.92a.35.35,0,0,0-.5.08l-.53.69c-.12.15-.34.42-.51.61a.16.16,0,0,1-.29,0,7.12,7.12,0,0,1-.26-.7,2.68,2.68,0,0,1-.07-.27c0-.07,0-.18-.07-.3a.39.39,0,0,1,.38-.44h4.09a.4.4,0,0,0,.38-.34l.09-.72a.3.3,0,0,0-.3-.34H146c-.2,0-.1,0,0-.11l.38-.29a.36.36,0,0,0,.08-.51,5,5,0,0,0-.79-.7.35.35,0,0,0-.39,0l-.6.4a.35.35,0,0,0-.1.54c.05,0,.28.3.44.48s.12.19-.1.19h-1.23a.3.3,0,0,1-.3-.34c0-.19,0-.39,0-.43l0-.14.85-.55-2,0a.39.39,0,0,0-.4.35c0,.15,0,.28,0,.43s0,.19,0,.32a.39.39,0,0,1-.38.38h-5.33a.39.39,0,0,0-.38.38c0,.34,0,.83,0,1s-.05.55-.08.86a10.91,10.91,0,0,1-.89,3.28,5,5,0,0,1-.58,1,.32.32,0,0,0,.08.47l.7.41a.38.38,0,0,0,.46-.1l.28-.36a7.62,7.62,0,0,0,.84-2c.07-.2.17-.59.25-.85a.38.38,0,0,1,.37-.29h1.4a.3.3,0,0,1,.3.37,3.19,3.19,0,0,1-.09.34.89.89,0,0,1-.7.67h-.37a.4.4,0,0,0-.39.43l.1.71a.3.3,0,0,0,.32.25c1.54-.08,2-.49,2.23-1.16L140,46h0a10.84,10.84,0,0,0,.5-2.39.3.3,0,0,0-.3-.34h-2.8a.29.29,0,0,1-.3-.33l0-.42a.39.39,0,0,1,.38-.35h4.09a.3.3,0,0,1,.3.24c0,.24.09.59.13.76a8,8,0,0,0,.39,1.31c.05.13.15.35.22.5a.22.22,0,0,1-.1.28l-.44.22a8.11,8.11,0,0,1-1.06.46l-.5.17a.38.38,0,0,0-.26.5l.41.83a.3.3,0,0,0,.42.13l.36-.17a14.3,14.3,0,0,0,1.3-.68l.51-.34a.33.33,0,0,1,.43,0l.3.31a7.46,7.46,0,0,0,.87.75l.55.38h-9.52A.39.39,0,0,0,135.55,48.17Z"/><path class="cls-1" d="M159.36,43.84a.36.36,0,0,0-.52.15c-.41.73-.8,1.54-.93,1.76s-.17.21-.19,0a4.9,4.9,0,0,1,0-1,24.22,24.22,0,0,1,.89-3.87,2.83,2.83,0,0,1,.11-.31,8.24,8.24,0,0,1,.9-.58h-2.07a.39.39,0,0,0-.39.28,30.24,30.24,0,0,0-.92,4.41,12.17,12.17,0,0,0,.11,4,.29.29,0,0,0,.3.23h.7a.39.39,0,0,0,.35-.24,43.15,43.15,0,0,1,2.06-4.14.31.31,0,0,0-.08-.41Z"/><path class="cls-1" d="M159.76,51.9l.92.52a.35.35,0,0,0,.42-.07,12.17,12.17,0,0,0,2.34-3A12.7,12.7,0,0,0,165,44.69c.13-1,.18-2.16.22-3.33v-.2c0-.35,0-.7,0-.7l.81-.67h-2.1a.38.38,0,0,0-.38.39,40.88,40.88,0,0,1-.24,4.55,10.58,10.58,0,0,1-1.5,4.3,8.9,8.9,0,0,1-2.05,2.31A.34.34,0,0,0,159.76,51.9Z"/><path class="cls-1" d="M170.88,52.3h12.78A.39.39,0,0,0,184,52l.11-.88a.3.3,0,0,0-.3-.34h-5.49a.3.3,0,0,1-.3-.34L178.6,46a.41.41,0,0,1,.39-.34h4.45a.42.42,0,0,0,.39-.35l.11-1a.29.29,0,0,0-.3-.34h-4.45a.29.29,0,0,1-.3-.34l.43-3.51a.34.34,0,0,1,.13-.24l.83-.55H178a.39.39,0,0,0-.38.34L176.3,50.4a.41.41,0,0,1-.39.34h-4.84a.4.4,0,0,0-.38.34l-.11.88A.3.3,0,0,0,170.88,52.3Z"/><path class="cls-1" d="M202.93,39.64a7.77,7.77,0,0,1,.47.84.31.31,0,0,0,.44.11l.42-.22a.37.37,0,0,0,.19-.47,6.29,6.29,0,0,0-.52-.91.32.32,0,0,0-.42-.08l-.41.23A.37.37,0,0,0,202.93,39.64Z"/><path class="cls-1" d="M206.36,39.71a8.09,8.09,0,0,0-.53-1,.33.33,0,0,0-.43-.1l-.41.22a.36.36,0,0,0-.16.5c.15.25.32.56.49.91a.31.31,0,0,0,.44.13l.36-.2A.4.4,0,0,0,206.36,39.71Z"/><path class="cls-1" d="M194.06,47.78c-.17.29-.37.62-.53.86a.13.13,0,0,1-.25,0c0-.34-.07-.82-.06-1.06,0-.56.07-1.11.13-1.62a22.66,22.66,0,0,1,1.17-5c0-.05.2-.41.27-.54a.36.36,0,0,1,.07-.1,7,7,0,0,1,.72-.5h-1.93a.39.39,0,0,0-.35.24,11,11,0,0,0-.63,1.7,23.49,23.49,0,0,0-.71,3.51,14.53,14.53,0,0,0,.32,6.36.29.29,0,0,0,.35.2l.8-.15a.42.42,0,0,0,.31-.28,15.6,15.6,0,0,1,1.25-3,.32.32,0,0,0-.07-.41l-.33-.26A.37.37,0,0,0,194.06,47.78Z"/><path class="cls-1" d="M215.59,47.32v-.14a5.82,5.82,0,0,0-1-3l0,0,1.4-2.61h0l.37-.68a.33.33,0,0,0,0-.37l-.42-.51a.33.33,0,0,0-.24-.1h-3.49a.39.39,0,0,0-.38.34l-1.52,12.33a.3.3,0,0,0,.3.34h.83a.39.39,0,0,0,.38-.34l1.35-10.93a.39.39,0,0,1,.38-.34h.73a.31.31,0,0,1,.26.47l-1.34,2.5a.34.34,0,0,0,0,.35,4.47,4.47,0,0,1,1,2.94c-.13,1-.62,1.26-1.19,1.33a.38.38,0,0,0-.33.49l.29.74a.3.3,0,0,0,.35.18c1.55-.31,2.09-1,2.33-2.63Z"/><path class="cls-1" d="M215.82,47.64l.37.52a.31.31,0,0,0,.44.07A14.39,14.39,0,0,0,218,47.3l.64-.52c.19-.16.28-.07.3,0a1.52,1.52,0,0,1,0,.19.38.38,0,0,1-.11.33l-.67.63a12.91,12.91,0,0,1-4.31,2.6.37.37,0,0,0-.2.53l.49.71a.32.32,0,0,0,.41.09,16.55,16.55,0,0,0,3.14-1.83l.89-.73a.32.32,0,0,1,.54.24c0,.1,0,.21,0,.3-.13,1.07-.52,1.47-1.44,1.47l-.49,0a.4.4,0,0,0-.4.45l.18.87a.3.3,0,0,0,.28.24,3.5,3.5,0,0,0,2.34-.66,2.84,2.84,0,0,0,.91-1.91,12,12,0,0,0-.12-3.11,10.12,10.12,0,0,0-.74-2.6l-.17-.37a.37.37,0,0,1,.12-.42l.52-.44.36-.35c.08-.09.12-.15.25-.15s.11.11.1.29,0,.88,0,1.17a14.26,14.26,0,0,0,1.44,7.09.32.32,0,0,0,.46.07l.92-.6a.35.35,0,0,0,.12-.5,7.86,7.86,0,0,1-1.21-2.72c-.05-.2-.13-.59-.18-.85a.37.37,0,0,1,.19-.39l.69-.41c.28-.17.5-.33.76-.51a.56.56,0,0,1,.4-.15h.49l-1-1.07a.35.35,0,0,0-.47,0c-.2.17-.37.3-.53.42l-.24.16a.31.31,0,0,1-.51-.21c0-.15,0-.28,0-.37s0-.73,0-1.07a.39.39,0,0,1,.38-.37h1.57a.39.39,0,0,0,.38-.34l.08-.64a.3.3,0,0,0-.3-.34h-1.86a.11.11,0,0,1-.08-.18c.21-.32.74-1.2.77-1.24s1.33-.71,1.33-.71l-2.27,0a.41.41,0,0,0-.46.22c-.18.39-.37.76-.58,1.12-.09.16-.27.44-.39.63a.41.41,0,0,1-.32.19h-1.92c-.37,0-.16-.09,0-.17l.52-.27a.38.38,0,0,0,.19-.47,12.12,12.12,0,0,0-.63-1.18.31.31,0,0,0-.42-.1l-.67.32a.37.37,0,0,0-.18.5c.08.14.16.3.24.47s.22.57.3.78a.1.1,0,0,1-.09.12h-1.47a.41.41,0,0,0-.39.34l-.07.64a.29.29,0,0,0,.3.34h1.78c.33,0,.42.4.14.61l-.42.3a11.5,11.5,0,0,1-1.64.84.39.39,0,0,0-.23.48l.28.67a.31.31,0,0,0,.44.14,10.37,10.37,0,0,0,.94-.5c.15-.09.44-.29.66-.44s.32-.13.37,0a1.11,1.11,0,0,0,0,.13.35.35,0,0,1-.1.39c-.25.22-.67.59-.9.77a10,10,0,0,1-1.18.73l-.3.15A.37.37,0,0,0,215.82,47.64Z"/><path class="cls-1" d="M203.56,42.85h-1.71a.34.34,0,0,1-.35-.35c0-.4.05-1,.06-1.23a5.13,5.13,0,0,1,.06-.63.4.4,0,0,1,.12-.22l.79-.53h-2.06a.35.35,0,0,0-.35.34c0,.71,0,1.43-.05,2,0,.07,0,.21,0,.33a.34.34,0,0,1-.34.32h-3.13a.35.35,0,0,0-.34.34v.93a.34.34,0,0,0,.34.34h3a.34.34,0,0,1,.34.38l0,.45a10.85,10.85,0,0,1-2.63,6.12.33.33,0,0,0,0,.51l.86.49a.37.37,0,0,0,.46-.12,13,13,0,0,0,2.48-5.45c.09-.45.23-1.54.3-2.08a.34.34,0,0,1,.34-.3h1.86a.34.34,0,0,0,.34-.34v-.93A.34.34,0,0,0,203.56,42.85Z"/><path class="cls-1" d="M135.4,63.2h-.74a.12.12,0,0,0-.11.09l-.8,4s0,.07,0,.09a.09.09,0,0,0,.08,0h1.07a2.27,2.27,0,0,0,2.28-2.55A1.59,1.59,0,0,0,135.4,63.2Zm0,.61a1,1,0,0,1,1.11,1.09c0,1.16-.61,1.91-1.57,1.91h-.38l.6-3Z"/><path class="cls-1" d="M140,63.2h-.47a.12.12,0,0,0-.11.09l-.8,4a.1.1,0,0,0,0,.09.11.11,0,0,0,.09,0h.47a.11.11,0,0,0,.11-.09l.8-4a.1.1,0,0,0,0-.09A.1.1,0,0,0,140,63.2Z"/><path class="cls-1" d="M143.27,63.13a1.28,1.28,0,0,0-1.36,1.22,1.2,1.2,0,0,0,.67,1l.46.28c.32.18.45.34.45.56a.66.66,0,0,1-.75.64,1.08,1.08,0,0,1-.93-.52.12.12,0,0,0-.08,0,.08.08,0,0,0-.08,0l-.35.26a.11.11,0,0,0,0,.15,1.68,1.68,0,0,0,1.43.76,1.38,1.38,0,0,0,1.5-1.34,1.14,1.14,0,0,0-.65-1l-.47-.27c-.31-.18-.46-.32-.46-.55a.57.57,0,0,1,.61-.54,1,1,0,0,1,.77.4.2.2,0,0,0,.08,0,.1.1,0,0,0,.08,0l.31-.28a.11.11,0,0,0,0-.15A1.54,1.54,0,0,0,143.27,63.13Z"/><path class="cls-1" d="M148.13,63.13A2.47,2.47,0,0,0,146,65.77a1.53,1.53,0,0,0,1.53,1.73A1.81,1.81,0,0,0,148.7,67a.1.1,0,0,0,0-.15l-.21-.31a.12.12,0,0,0-.08,0,.1.1,0,0,0-.09,0,1.16,1.16,0,0,1-.77.33c-.75,0-.91-.62-.91-1.13,0-1,.58-2,1.44-2a.65.65,0,0,1,.58.38l.08,0a.1.1,0,0,0,.09,0l.33-.25a.11.11,0,0,0,0-.15A1.24,1.24,0,0,0,148.13,63.13Z"/><path class="cls-1" d="M152.35,63.13c-1.23,0-2,1.33-2,2.58s.57,1.79,1.49,1.79c1.23,0,2.06-1.34,2.06-2.59C153.85,63.81,153.28,63.13,152.35,63.13Zm-.54,3.73c-.67,0-.81-.65-.81-1.19,0-.9.55-1.91,1.33-1.91s.81.65.81,1.19C153.14,65.85,152.6,66.86,151.81,66.86Z"/><path class="cls-1" d="M158.66,63.2h-.51a.11.11,0,0,0-.1.06L157,65.48c-.16.32-.32.65-.47,1,0-.32,0-.64-.07-.92l-.17-2.23a.1.1,0,0,0-.11-.1h-.48a.09.09,0,0,0-.08,0,.07.07,0,0,0,0,.08l.36,4a.1.1,0,0,0,.11.1h.56a.1.1,0,0,0,.1-.06l2.09-4a.11.11,0,0,0,0-.11A.12.12,0,0,0,158.66,63.2Z"/><path class="cls-1" d="M162.64,63.2h-2.21a.12.12,0,0,0-.11.09l-.8,4a.14.14,0,0,0,0,.09.09.09,0,0,0,.08,0h2.26a.12.12,0,0,0,.11-.09l.08-.4a.1.1,0,0,0,0-.09.1.1,0,0,0-.09,0h-1.65l.26-1.28H162a.11.11,0,0,0,.11-.09l.08-.4a.1.1,0,0,0,0-.09.1.1,0,0,0-.09,0H160.7l.21-1.08h1.65a.11.11,0,0,0,.11-.09l.08-.4a.11.11,0,0,0,0-.09A.09.09,0,0,0,162.64,63.2Z"/><path class="cls-1" d="M165.84,63.2h-1.09a.12.12,0,0,0-.11.09l-.8,4a.1.1,0,0,0,0,.09.11.11,0,0,0,.09,0h.47a.11.11,0,0,0,.11-.09l.32-1.6h.53l.63,1.62a.1.1,0,0,0,.1.07h.51a.11.11,0,0,0,.09,0,.09.09,0,0,0,0-.1l-.65-1.62a1.41,1.41,0,0,0,1.13-1.41C167.2,63.77,167,63.2,165.84,63.2Zm-.61.61h.5c.69,0,.78.25.78.5,0,.51-.39.81-1.07.81H165Z"/><path class="cls-1" d="M174,63.2h-2.2a.12.12,0,0,0-.11.09l-.8,4a.1.1,0,0,0,0,.09.11.11,0,0,0,.09,0h2.26a.12.12,0,0,0,.11-.09l.08-.4a.1.1,0,0,0,0-.09.12.12,0,0,0-.09,0h-1.65l.26-1.28h1.37a.12.12,0,0,0,.11-.09l.08-.4a.1.1,0,0,0,0-.09.11.11,0,0,0-.09,0h-1.33l.21-1.08h1.64a.1.1,0,0,0,.11-.09l.08-.4a.1.1,0,0,0,0-.09A.1.1,0,0,0,174,63.2Z"/><path class="cls-1" d="M177.51,63.13a2.46,2.46,0,0,0-2.17,2.64,1.53,1.53,0,0,0,1.53,1.73,1.81,1.81,0,0,0,1.22-.49.12.12,0,0,0,0-.15l-.22-.31a.1.1,0,0,0-.08,0,.08.08,0,0,0-.08,0,1.16,1.16,0,0,1-.78.33c-.75,0-.9-.62-.9-1.13,0-1,.58-2,1.44-2a.65.65,0,0,1,.58.38.13.13,0,0,0,.07,0,.1.1,0,0,0,.09,0l.34-.25a.14.14,0,0,0,0-.15A1.26,1.26,0,0,0,177.51,63.13Z"/><path class="cls-1" d="M183.47,63.2H183a.12.12,0,0,0-.11.09l-.32,1.6H181l.32-1.56a.1.1,0,0,0,0-.09.11.11,0,0,0-.09,0h-.47a.11.11,0,0,0-.11.09l-.8,4a.1.1,0,0,0,0,.09.1.1,0,0,0,.09,0h.47a.12.12,0,0,0,.11-.09l.36-1.81h1.58l-.36,1.77a.1.1,0,0,0,0,.09.12.12,0,0,0,.09,0h.48a.13.13,0,0,0,.11-.09l.8-4a.16.16,0,0,0,0-.09A.09.09,0,0,0,183.47,63.2Z"/><path class="cls-1" d="M186.23,63.2h-.47a.11.11,0,0,0-.11.09l-.8,4a.1.1,0,0,0,0,.09.1.1,0,0,0,.09,0h.47a.12.12,0,0,0,.11-.09l.8-4a.1.1,0,0,0,0-.09A.11.11,0,0,0,186.23,63.2Z"/><path class="cls-1" d="M190.82,63.2h-2.39a.12.12,0,0,0-.11.09l-.08.4a.1.1,0,0,0,0,.09.1.1,0,0,0,.09,0h1.59L187.5,67s0,0,0,0l-.06.29a.11.11,0,0,0,0,.09.09.09,0,0,0,.08,0h2.6a.11.11,0,0,0,.11-.09l.09-.4a.11.11,0,0,0,0-.09.09.09,0,0,0-.08,0h-1.79l2.43-3.14a.05.05,0,0,0,0,0l.06-.29a.1.1,0,0,0,0-.09A.1.1,0,0,0,190.82,63.2Z"/><path class="cls-1" d="M195.11,63.2h-2.2a.12.12,0,0,0-.11.09l-.8,4a.1.1,0,0,0,0,.09.12.12,0,0,0,.09,0h2.26a.12.12,0,0,0,.11-.09l.08-.4a.1.1,0,0,0,0-.09.11.11,0,0,0-.09,0H192.8l.26-1.28h1.37a.12.12,0,0,0,.11-.09l.08-.4a.1.1,0,0,0,0-.09.11.11,0,0,0-.09,0h-1.33l.21-1.08H195a.1.1,0,0,0,.11-.09l.08-.4a.1.1,0,0,0,0-.09A.1.1,0,0,0,195.11,63.2Z"/><path class="cls-1" d="M200,63.2h-.46a.12.12,0,0,0-.11.09L199,65.41c-.05.27-.09.55-.12.82l-.12-.39-.91-2.57a.12.12,0,0,0-.11-.07h-.47a.11.11,0,0,0-.11.09l-.8,4a.1.1,0,0,0,0,.09.1.1,0,0,0,.09,0h.45a.11.11,0,0,0,.11-.09l.43-2.15c.05-.26.09-.54.13-.81l.13.42.9,2.56a.12.12,0,0,0,.11.07h.47a.12.12,0,0,0,.11-.09l.8-4a.16.16,0,0,0,0-.09A.09.09,0,0,0,200,63.2Z"/><path class="cls-1" d="M206.07,63.13a2.46,2.46,0,0,0-2.18,2.64,1.53,1.53,0,0,0,1.53,1.73,1.81,1.81,0,0,0,1.22-.49.11.11,0,0,0,0-.15l-.22-.31a.1.1,0,0,0-.07,0,.09.09,0,0,0-.09,0,1.16,1.16,0,0,1-.78.33c-.74,0-.9-.62-.9-1.13,0-1,.58-2,1.44-2a.65.65,0,0,1,.58.38.18.18,0,0,0,.07,0,.09.09,0,0,0,.09,0l.34-.25a.12.12,0,0,0,0-.15A1.24,1.24,0,0,0,206.07,63.13Z"/><path class="cls-1" d="M210.05,63.13c-1.23,0-2.06,1.33-2.06,2.58s.57,1.79,1.49,1.79c1.23,0,2.06-1.34,2.06-2.59C211.54,63.81,211,63.13,210.05,63.13Zm-.54,3.73c-.67,0-.81-.65-.81-1.19,0-.9.54-1.91,1.32-1.91s.82.65.82,1.19C210.84,65.85,210.29,66.86,209.51,66.86Z"/><path class="cls-1" d="M215,63.2h-.54a.11.11,0,0,0-.1.06l-2.17,4a.11.11,0,0,0,0,.11.12.12,0,0,0,.1,0h.52a.11.11,0,0,0,.1-.06l.56-1.08h1.29l.1,1a.12.12,0,0,0,.11.1h.5a.09.09,0,0,0,.08,0,.11.11,0,0,0,0-.08l-.47-4A.1.1,0,0,0,215,63.2Zm-.42.69c0,.17.12,1.8.12,1.8h-.93S214.42,64.2,214.57,63.89Z"/><path class="cls-1" d="M218.93,63.13a1.27,1.27,0,0,0-1.35,1.22,1.18,1.18,0,0,0,.67,1l.46.28c.32.18.44.34.44.56a.66.66,0,0,1-.74.64,1.1,1.1,0,0,1-.94-.52.08.08,0,0,0-.07,0,.1.1,0,0,0-.09,0l-.35.26a.12.12,0,0,0,0,.15,1.67,1.67,0,0,0,1.43.76,1.38,1.38,0,0,0,1.49-1.34,1.14,1.14,0,0,0-.65-1l-.46-.27c-.31-.18-.47-.32-.47-.55a.57.57,0,0,1,.62-.54,1,1,0,0,1,.77.4.2.2,0,0,0,.08,0,.11.11,0,0,0,.08,0l.31-.28a.11.11,0,0,0,0-.15A1.52,1.52,0,0,0,218.93,63.13Z"/><path class="cls-1" d="M224.82,63.24a.1.1,0,0,0-.09,0h-2.79a.11.11,0,0,0-.11.09l-.08.41a.1.1,0,0,0,0,.09.1.1,0,0,0,.09,0h1l-.69,3.46s0,.07,0,.09a.09.09,0,0,0,.08,0h.48a.12.12,0,0,0,.11-.09l.69-3.5h1.07a.12.12,0,0,0,.11-.09l.08-.41A.1.1,0,0,0,224.82,63.24Z"/></g></svg>