<svg xmlns="http://www.w3.org/2000/svg" viewBox="0 0 200 200"><defs><style>.cls-1{fill:#a6cde8;}.cls-2{fill:#4d4d4d;}.cls-3{fill:#fff;}.cls-4,.cls-6{fill:#3e3a39;}.cls-5{fill:#f7b52c;}.cls-6{stroke:#fff;stroke-miterlimit:10;stroke-width:1.06px;}</style></defs><g id="レイヤー_1" data-name="レイヤー 1"><path class="cls-1" d="M182.82,179.92c-6,5.83-15.14,8.34-23.57,10.31q-11.66,2.72-23.36,5.28c-23.69,5.2-50,2.13-74.2,2.45-13,.18-29.33-2.35-39.46-11.31C-3.61,163.8,5.94,132.85,2.68,103.07a128,128,0,0,1,.41-30.33C4.44,63,9.69,56.55,14.5,48.05c2.74-4.85,3.94-10.53,7.22-15,3.1-4.26,7.77-7.07,12.36-9.65C56.76,10.62,83.31-.57,109.88,1,129,2.19,161.23,12.52,175,26.53c8,8.17,12.27,19.26,15.55,30.23A159.8,159.8,0,0,1,196.91,105c-.25,17.27-4.81,33.86-6.2,51.14-.54,6.74-.94,13.81-4.48,19.57A21.36,21.36,0,0,1,182.82,179.92Z"/><path class="cls-2" d="M27,151a2.22,2.22,0,0,1,1.28-3,3.17,3.17,0,0,1,1.38-.14c0-.35,0-.83-.05-1.3-1.34.13-2.67.32-3.5.45-1.16.18-1.91.38-2.39.46-1.07.2-1.39-1.4-.13-1.61.64-.12,1.68-.23,2.36-.34s2.24-.3,3.65-.43v-.29c0-1-.08-1.06-.08-1.57a.84.84,0,0,1,1.68,0c0,.37,0,1.11-.07,1.54,0,.08,0,.16,0,.24.46,0,.88-.05,1.23-.05h2.43c1.35,0,1.28,1.73,0,1.64s-1.52-.1-2.51-.12c-.37,0-.75,0-1.17,0q0,.76,0,1.47c0,.22,0,.56.05.91,1.43,2.24-.27,5.63-2,7-1.07.85-2.46-.28-1.07-1.28A5.61,5.61,0,0,0,30,152.24,2,2,0,0,1,27,151Zm2.69-1.68a1,1,0,0,0-1-.06,1,1,0,0,0-.47,1.21,1,1,0,0,0,1.84-.27.75.75,0,0,0-.09-.61A2.2,2.2,0,0,0,29.69,149.36Z"/><path class="cls-2" d="M45.21,148.83c-.8-.59-1.22-.56-1.89,0A20.45,20.45,0,0,1,41,150.59c-1.05.63-2.21-.83-.92-1.5.4-.21,1.61-1,2.43-1.52a2.72,2.72,0,0,1,3.62.05,58.79,58.79,0,0,0,6.49,4.56c1,.53.2,2.21-1,1.6C49.6,152.82,47.07,150.21,45.21,148.83ZM47.55,147c-.85-.36-.21-1.37.57-1.09a5.53,5.53,0,0,1,1.69,1c.65.7-.32,1.71-.88,1.06A6.58,6.58,0,0,0,47.55,147Zm1.54-1.47c-.87-.34-.25-1.36.54-1.1a5.13,5.13,0,0,1,1.71,1c.67.67-.27,1.73-.85,1.09A5.67,5.67,0,0,0,49.09,145.55Z"/><path class="cls-2" d="M60.88,147.68a5.44,5.44,0,0,1,.51-.83c.25-.34.17-.32-.13-.23-1.2.39-.93.39-2,.8a11.57,11.57,0,0,1-1.44.48c-1.41.39-1.82-1.45-.54-1.72.33-.08,1.26-.26,1.77-.39.79-.19,2.18-.51,3.81-1a22.24,22.24,0,0,1,4.37-.94c1-.06,1.27.72,1.09,1.23-.09.27-.45.59-1.57.53a6.86,6.86,0,0,0-2.38.45,4.59,4.59,0,0,0-2,1.87c-1.41,2.35-.34,5.72,3.25,5.59,1.68-.07,1.78,1.82.08,1.81C60.8,155.33,59.13,150.9,60.88,147.68Z"/><path class="cls-2" d="M79.84,146.77a12.61,12.61,0,0,1-3.24,6.48c-1.23,1.14-2.57.51-3.28-.86-1-2,.07-5,2.21-6.46a6.69,6.69,0,0,1,6.92-.36,4.73,4.73,0,0,1,1.48,6.72,6.71,6.71,0,0,1-3.9,2.64c-1.41.37-1.91-1.25-.53-1.57a5,5,0,0,0,3-1.79,3.47,3.47,0,0,0-.88-4.9,4.21,4.21,0,0,0-2-.64A.82.82,0,0,1,79.84,146.77Zm-3.56.3c-1.49,1.15-2.29,3.28-1.61,4.52.24.46.65.7,1,.35a9.63,9.63,0,0,0,2.48-5.33,1.18,1.18,0,0,1,.15-.5A5.37,5.37,0,0,0,76.28,147.07Z"/><path class="cls-2" d="M90.77,155a.42.42,0,0,1-.41.48.47.47,0,0,1-.44-.47c0-1.37,0-3,0-4.77,0-2.38,0-4.85.05-6.75a1.76,1.76,0,0,1,1.81-1.91h.79c.56,0,1,0,1.63,0a.42.42,0,1,1,0,.83h-.06c-.1,0-.54-.05-2.21-.05a1.09,1.09,0,0,0-1.13,1.19c0,1.05-.07,2.5-.07,4.06,0,2.5,0,5.3.07,7.35Z"/><path class="cls-2" d="M102.55,154.88c2.87-2,3.75-4.85,3.09-6.7-.44-1.25-1.64-1.32-2.75-.66a10.46,10.46,0,0,1-1.55.74.88.88,0,1,1-.5-1.67c.42-.14.93-.32,1.38-.51,1.63-.72,4-.66,4.83,1.18,1.24,2.68-.13,6.47-3.33,8.82C102.67,156.87,101.61,155.56,102.55,154.88Zm-.33-11.44c-.91-.51-.24-1.76.88-1.25a10.79,10.79,0,0,0,2.48.7c1.31.23.78,1.84-.4,1.62A10.3,10.3,0,0,1,102.22,143.44Z"/><path class="cls-2" d="M120.08,149.07a11.84,11.84,0,0,1,3.47.71,2.59,2.59,0,0,0-.23-1.68c-.44-.76,1-1.36,1.53-.37a3.9,3.9,0,0,1,.16,2.65,13.15,13.15,0,0,1,2.2,1.37c1,.78-.08,2.25-1,1.42a11.42,11.42,0,0,0-1.74-1.3,7.88,7.88,0,0,1-3,3.25c-1.12.66-1.93-.59-.88-1.23a6.78,6.78,0,0,0,2.52-2.71,10.13,10.13,0,0,0-3.72-.8,7.65,7.65,0,0,1-2,2.93,2.23,2.23,0,0,1-3.06,0c-.82-1-.23-2.69,1.62-3.5a9.07,9.07,0,0,1,2.62-.69c.56-1.2,1.3-2.66,1.75-3.66.09-.23.14-.36-.1-.29a8.68,8.68,0,0,1-1.89.38.76.76,0,0,1,0-1.52,20.36,20.36,0,0,0,2.31-.4c1.45-.29,2.09.66,1.37,1.83s-1.31,2.41-1.88,3.61ZM116.31,151c-.41.21-1.16.88-.89,1.28s.77.18,1,0a5.56,5.56,0,0,0,1.33-1.72A5.72,5.72,0,0,0,116.31,151Z"/><path class="cls-2" d="M133.15,154.69c-.48,1.07-2.18.61-1.51-.75a48.49,48.49,0,0,0,2.8-6.95,4.57,4.57,0,0,1-2.33-.22c-.82-.36-.66-1.81.54-1.38a4.33,4.33,0,0,0,2.21.1,7.2,7.2,0,0,0,0-1.73c-.06-.91,1.44-1,1.6-.08a4.54,4.54,0,0,1,0,1.28c.22-.11.42-.23.61-.34a.76.76,0,1,1,.62,1.38,10.94,10.94,0,0,1-1.62.64A63,63,0,0,1,133.15,154.69ZM137,154c-.69-.77.3-2,1.13-1.18s1.79.75,3.67.59a.83.83,0,1,1,.21,1.65A5.73,5.73,0,0,1,137,154Zm1.8-5.59c-.83.31-1.32-1-.27-1.37a5.93,5.93,0,0,1,3.84.08c1.08.38.64,1.79-.36,1.45A5.7,5.7,0,0,0,138.84,148.38Z"/><path class="cls-2" d="M153.48,152.9c0-.74.12-1.19.08-1.91-.08-1.77-2.51-.27-3,.53a8.65,8.65,0,0,0-1,2.18c-.28,1.23-.64,1.31-1,1.36a.84.84,0,0,1-.94-1.23,28,28,0,0,1,2.56-4.85c.93-1.44,1.76-2.8,2.55-4,.27-.45.7-1,.88-1.33a.86.86,0,0,1,1.48.86,3.89,3.89,0,0,1-.36.56l-.47.55a22,22,0,0,0-1.7,2.13c-.41.59-.73,1.1-1.08,1.63-.12.16-.07.13,0,0,.58-.51,3.35-1.26,3.57,1.44.05.63-.08,1.17-.08,1.76,0,1.43,1.38,1.25,2.33.4a5.42,5.42,0,0,0,1.45-2.24.88.88,0,1,1,1.54.83,7.78,7.78,0,0,1-2,2.66C156.65,155.57,153.45,155.92,153.48,152.9Z"/><path class="cls-2" d="M166.87,142.85c0-.34.2-.48.4-.48a.47.47,0,0,1,.47.46c0,1.38,0,3,0,4.77,0,2.38,0,4.85-.05,6.75a1.77,1.77,0,0,1-1.82,1.91c-.39,0-.72,0-1.06,0s-.88,0-1.36,0a.41.41,0,0,1-.43-.42.43.43,0,0,1,.43-.43h.07a20.72,20.72,0,0,0,2.2.05,1.09,1.09,0,0,0,1.14-1.19c0-1,.05-2.24.05-3.63,0-2.61-.05-5.62-.07-7.78Z"/><path class="cls-2" d="M37.07,173.1v2.77a.67.67,0,0,1-.74.64.66.66,0,0,1-.73-.64V173.1H34.2a.65.65,0,0,1-.72-.64.69.69,0,0,1,.72-.7h1.4v-.4l0-2.77a15.25,15.25,0,0,1-3.37,4.54.8.8,0,0,1-.58.24.75.75,0,0,1-.64-.35L31,175.86a.73.73,0,0,1-.78.73.7.7,0,0,1-.75-.72h0l.16-7.4c-1,1.33-1.46,1.57-1.81,1.57a.7.7,0,0,1-.48-1.26A14.82,14.82,0,0,0,31,163a.71.71,0,0,1,.68-.51.87.87,0,0,1,.9.78,12.09,12.09,0,0,1-1.38,2.9l-.12,6.19a.69.69,0,0,1,.2-.22,14.34,14.34,0,0,0,3.89-5l-2.72.05h0a.65.65,0,0,1-.72-.67.71.71,0,0,1,.73-.72h3.12v-2.72a.7.7,0,0,1,.76-.69.71.71,0,0,1,.78.69v2.72h3.57a.68.68,0,0,1,.7.7.65.65,0,0,1-.68.69h0l-3.2-.05a15.43,15.43,0,0,0,4.19,4.55.77.77,0,0,1,.34.64.81.81,0,0,1-.79.8,1.06,1.06,0,0,1-.64-.26A17,17,0,0,1,37,168.6l0,2.74v.42h1.42a.67.67,0,1,1,0,1.34Z"/><path class="cls-2" d="M43.74,174.18a.86.86,0,0,1,.14-.45,5.29,5.29,0,0,0,.59-2,.52.52,0,0,1,.5-.55.56.56,0,0,1,.58.63c0,.65-.4,3-1.24,3A.57.57,0,0,1,43.74,174.18Zm5.18-4.74c.27,0,1.41.05,1.41,1.61,0,2.77-.38,5-2.83,5-1,0-1.57-.18-1.57-.82a.64.64,0,0,1,.62-.69.58.58,0,0,1,.18,0,3.9,3.9,0,0,0,.88.13c.61,0,1.15-.32,1.28-2a.43.43,0,0,1-.34.18.32.32,0,0,1-.32-.29,6.28,6.28,0,0,0-.52-1.25.28.28,0,0,1-.05-.17.32.32,0,0,1,.35-.28c.5,0,.9,1.14.93,1.25,0-.33,0-.64,0-.85,0-.62-.08-.68-1.21-.68H46.09a1.31,1.31,0,0,1-1.47-1.34c0-.63,0-1.6,0-2.56s0-1.91,0-2.44a1.42,1.42,0,0,1,1.47-1.49h3.79a.54.54,0,0,1,.53.58.61.61,0,0,1-.61.63H48.31v1.05h1.08a.54.54,0,0,1,.59.55.55.55,0,0,1-.59.56H48.31v1.07h1.08a.55.55,0,1,1,0,1.1H48.31v1.11Zm-3.13,4.14v-.06c0-.24,0-.51,0-.77,0-.48,0-.93,0-1.12v-.06a.38.38,0,0,1,.37-.42c.22,0,.54,0,.54,2.06,0,.25,0,.79-.51.79A.38.38,0,0,1,45.79,173.58Zm1.29-9.6-.7,0c-.24,0-.43.12-.45.51,0,.14,0,.33,0,.54h1.17Zm0,2.18H45.91v1.07h1.17Zm0,2.17H45.91c0,.23,0,.44,0,.61a.47.47,0,0,0,.5.5h.65Zm0,4.74a6.94,6.94,0,0,0-.31-1.5c0-.07,0-.12,0-.16a.35.35,0,0,1,.37-.36.41.41,0,0,1,.38.28A6,6,0,0,1,47.9,173a.46.46,0,0,1-.45.49A.39.39,0,0,1,47.07,173.07Zm7.66-6v1H56c.82,0,1.4.45,1.46,1.08a7.87,7.87,0,0,1,0,.88c0,.25,0,.52,0,.75-.05.72-.6,1.23-1.56,1.26-.25,0-.56,0-.84,0a6.12,6.12,0,0,0,2.83,2.8.78.78,0,0,1,.45.67.79.79,0,0,1-.77.8c-.71,0-2.56-1.45-3.49-3.46a5.48,5.48,0,0,1-3.87,3.62.78.78,0,0,1-.73-.77.67.67,0,0,1,.48-.64,4.66,4.66,0,0,0,3-3c-1.76,0-2.42,0-2.42-1.94,0-.32,0-.64,0-.89A1.26,1.26,0,0,1,52,168.09h1.36v-1H52.24a.53.53,0,0,1-.52-.42l-.52.53a.71.71,0,0,1-.52.22.73.73,0,0,1-.72-.68.63.63,0,0,1,.26-.5,12.36,12.36,0,0,0,2.46-3,1.42,1.42,0,0,1,1.22-.73,1.78,1.78,0,0,1,1.31.67,20.51,20.51,0,0,0,2.84,2.75.79.79,0,0,1-.47,1.41c-.32,0-.46-.14-1.18-.86v0a.58.58,0,0,1-.56.61Zm-2.8,3c0,.77,0,.89,1.36.89a11.32,11.32,0,0,0,.08-1.8C52,169.17,51.93,169.17,51.93,170.08Zm3.91-4.23c-.61-.65-1.19-1.33-1.64-1.87a.33.33,0,0,0-.25-.13.22.22,0,0,0-.21.13,19.39,19.39,0,0,1-1.33,1.87Zm-1.14,4.32c0,.26-.06.53-.09.8,1.52,0,1.53,0,1.53-1,0-.77,0-.81-1.42-.81C54.72,169.66,54.7,170.08,54.7,170.17Z"/><path class="cls-2" d="M62.73,176.18c-1.11.59-1.91-.88-.87-1.4a15.47,15.47,0,0,0,5-4.24,10.39,10.39,0,0,0-1.92-1c-.86-.3-.26-1.73.86-1.29a13.65,13.65,0,0,1,2,1,20.61,20.61,0,0,0,2-3.75c.56-1.34,2.19-.48,1.68.54a36.41,36.41,0,0,1-2.32,4.05,7,7,0,0,1,1.6,1.46.91.91,0,0,1-.18,1.26.74.74,0,0,1-1.13-.12,7.83,7.83,0,0,0-1.3-1.22A17.78,17.78,0,0,1,62.73,176.18Z"/><path class="cls-2" d="M77,174a.83.83,0,0,1,0-1.66c2.65,0,7.69,0,10.4,0,1.2,0,.93,1.7,0,1.67C84.32,173.87,79.85,173.87,77,174Zm1.85-5.36a.8.8,0,1,1,.1-1.6c1.74,0,4.38,0,6.29,0a.8.8,0,1,1-.08,1.6C83.47,168.62,80.51,168.62,78.84,168.59Z"/><path class="cls-2" d="M100.45,173.05a.71.71,0,1,1,0,1.41c-2.35-.08-5.55-.09-7.66,0a.71.71,0,1,1,0-1.42c1.07,0,2.64-.07,4.26-.07.19-.72.41-1.63.49-2.13,0-.24,0-.38-.32-.38-.67,0-1.76,0-2.82,0a.69.69,0,1,1-.11-1.37c1.41,0,2.87,0,3.67,0a1.21,1.21,0,0,1,1.2,1.62c-.16.7-.37,1.53-.58,2.22C99.18,173,99.84,173,100.45,173.05Z"/><path class="cls-2" d="M105.47,171.14a.77.77,0,0,1-.85-.77.81.81,0,0,1,.85-.81h10a.79.79,0,1,1,0,1.58Z"/><path class="cls-2" d="M123.93,164.6a5,5,0,0,0,.67-.28c.88-.53,1.75.8.56,1.39a9.38,9.38,0,0,1-1.76.53,14.64,14.64,0,0,1-.77,1.61,2.33,2.33,0,0,1,2.69,1.4c.66-.34,1.33-.68,2-.95a13.6,13.6,0,0,0,1.25-.59.85.85,0,1,1,.89,1.44,17.23,17.23,0,0,1-1.73.66c-.67.25-1.39.57-2,.88a12.76,12.76,0,0,1,0,1.76,1,1,0,0,1-.85,1c-.4,0-.76-.29-.72-.91,0-.34,0-.71,0-1l-.42.24c-2,1.28-1.75,2.24-.85,2.69a5.11,5.11,0,0,0,3.17-.13c1.41-.44,1.86,1.29.38,1.68-.94.24-3.12.48-4.37-.23-2.16-1.21-1.77-3.37,1.13-5.28.22-.14.48-.32.78-.49-.43-1.35-1.67-1.19-2.71,0l-.06.07a3.21,3.21,0,0,1-.37.41c-.88.79-2-.13-1.09-1a7.74,7.74,0,0,0,1.3-1.51,11.91,11.91,0,0,0,.75-1.42,3.17,3.17,0,0,1-2-.18c-1.15-.57-.37-2.08.75-1.32a2.56,2.56,0,0,0,1.5,0,1.75,1.75,0,0,1,.24,0,6.12,6.12,0,0,0,.18-1.35c.06-1,1.57-.86,1.6-.08a2.91,2.91,0,0,1-.13.93Z"/><path class="cls-2" d="M133.91,176.56a.77.77,0,0,1-.81-.75.72.72,0,0,1,.72-.72c2.08-.29,3.41-1.09,4.05-2.45a.76.76,0,0,1,.72-.48.83.83,0,0,1,.84.75.76.76,0,0,1-.08.32C137.93,176.24,133.91,176.56,133.91,176.56Zm3.68-4.71a1.69,1.69,0,0,1-1.87-1.6c0-.7-.05-1.85-.05-3s0-2.24.05-2.87a1.62,1.62,0,0,1,1.76-1.57c.74,0,1.7,0,2.69,0s2,0,2.8,0a1.67,1.67,0,0,1,1.67,1.46c0,.7,0,1.73,0,2.78s0,2.36,0,3.14a1.7,1.7,0,0,1-1.75,1.63c-.27,0-.54,0-.81,0,0,.64,0,1.39,0,1.9,0,.88.2,1.09,1.57,1.09s2-.19,2-1.63a.72.72,0,0,1,.76-.76.8.8,0,0,1,.84.87c0,2.75-1.85,3-3.68,3-1.61,0-3-.16-3-1.94,0-.43,0-1.63,0-2.49C139.55,171.89,138.52,171.87,137.59,171.85Zm5.61-5.13h-6.07V168h6.07Zm0-1.24c0-.24,0-.46,0-.64,0-.41-.23-.65-.75-.68s-1.24,0-2,0c-.9,0-1.82,0-2.5,0a.73.73,0,0,0-.75.7c0,.18,0,.38,0,.62Zm-6,3.72c0,.24,0,.45,0,.64,0,.51.31.69.77.7.74,0,1.54.05,2.35.05s1.44,0,2.13-.05.77-.62.77-1.34Z"/><path class="cls-2" d="M159.21,173.73c1.17-1,1.12-2.56.21-3.17a4.23,4.23,0,0,0-4.18.27,3.57,3.57,0,0,0-1.34,1.2c-.58.85-2.18-.1-1.19-1.07a58.41,58.41,0,0,0,4.84-5.17c.17-.23,0-.16-.11-.1a13.17,13.17,0,0,1-2.69.82c-1.27.27-1.51-1.31-.42-1.44a23.93,23.93,0,0,0,3.52-.79c1.28-.37,2.34.77,1.54,1.67-.51.57-1.15,1.2-1.79,1.79s-1.28,1.17-1.86,1.73a4.93,4.93,0,0,1,4.5-.05c2.3,1.38,1.55,4.2-.13,5.41a5.27,5.27,0,0,1-5.3.4c-1.7-1.1-.94-3.09.94-3.15a2.26,2.26,0,0,1,2.53,2.16A2.16,2.16,0,0,0,159.21,173.73Zm-3.41-.48c-.7.06-.73.72-.22,1a2.86,2.86,0,0,0,1.34.24C156.94,173.74,156.51,173.18,155.8,173.25Z"/><path class="cls-3" d="M124.7,38.91c-.21-.21-.37-.35-.51-.5a8.3,8.3,0,0,0-.54-.64,2.62,2.62,0,0,0-.53-.33c-.09,0-.25-.06-.29-.13-.2-.36-.59-.41-.9-.59s-.64-.28-1-.43a6.27,6.27,0,0,0-1.13-.62c-.76-.2-1.34-.73-2.06-1-.42-.15-.81-.39-1.23-.56s-.87-.29-1.3-.42c-.16,0-.34,0-.5-.06-.34-.08-.67-.19-1-.25s-.57,0-.85-.07-.79-.08-1.18-.12a3.42,3.42,0,0,1-.45,0c-.24-.06-.48-.16-.72-.21-.39-.08-.78-.15-1.17-.19a3.25,3.25,0,0,1-1-.08,4.39,4.39,0,0,0-1,0c-.64-.06-1.27-.14-1.9-.24s-1.14-.27-1.72-.33-1.1,0-1.65,0a4.22,4.22,0,0,0-1.66-.05s0,0-.06,0l-1,0H99l-.89,0-.22,0-1.54,0a.23.23,0,0,0-.12,0c-.58.29-1.24.12-1.85.33a4.57,4.57,0,0,1-1.28,0,5.11,5.11,0,0,0-1.52.16,6.23,6.23,0,0,1-1,.22,11.45,11.45,0,0,0-1.67.31c-.32.1-.57.35-.92.1,0,0-.08,0-.12,0-.51.15-1,.33-1.54.46a7.2,7.2,0,0,0-1.85,1c-.16.1-.36.13-.53.22a8.76,8.76,0,0,1-1.11.63,2.59,2.59,0,0,0-1.17.67.25.25,0,0,1-.09,0,3.35,3.35,0,0,0-1.2.72,2,2,0,0,1-.34.23c-.59.36-1.19.71-1.77,1.1s-1,.75-1.53,1.13a.34.34,0,0,0-.09.08,5.21,5.21,0,0,1-1.51,1.41c-.4.32-.92.56-1.16,1s-.77.62-1,1.06a11.06,11.06,0,0,1-.79.9c-.51.63-1,1.25-1.5,1.92-.35.52-.59,1.1-.89,1.64,0,.08-.06.2-.12.21-.38.1-.47.44-.64.72s-.21.48-.33.71c-.31.57-.19,1.28-.63,1.82A2.33,2.33,0,0,0,67.56,52,4.45,4.45,0,0,1,67.07,53a4.19,4.19,0,0,0-.23.68,1.47,1.47,0,0,0-.13.66.51.51,0,0,1-.12.61.3.3,0,0,0-.08.16c-.07.29-.13.57-.18.86s-.14.8-.18,1.2a.78.78,0,0,1-.15.51c-.29.36-.23.48.11.64a.84.84,0,0,0-.24.84.58.58,0,0,1,0,.22c-.06.27-.19.54.08.79a.14.14,0,0,1,0,.11,3.45,3.45,0,0,0-.31.85c-.07.48-.33.92-.43,1.4s-.08,1.11-.19,1.65a7.48,7.48,0,0,0-.29,1A8.62,8.62,0,0,1,64.34,67c0,.06,0,.15,0,.18s.05.33,0,.5a3.37,3.37,0,0,0-.12.48L63.94,70c0,.3-.13.6-.16.9-.05.56-.08,1.13-.12,1.69,0,.27-.16.52,0,.81a1.42,1.42,0,0,1,.09.61c-.05.46-.16.91-.24,1.36,0,.07-.05.14,0,.19.19.33.06.69.07,1s0,1,0,1.45c0,.22-.44.46-.66.39a1.4,1.4,0,0,0-.53-.08c-.46,0-.91.11-1.37.16-.17,0-.35,0-.52,0a6.84,6.84,0,0,1-2,0h-.13c-.63,0-1.27.07-1.9.15-.34,0-.67.21-1,.27-.54.09-1.08.15-1.63.2-.35,0-.71,0-1.07,0s-.45,0-.46-.45-.08-1-.13-1.47c0-.27-.12-.53-.13-.8s.07-.37.06-.55c0-.52-.08-1-.1-1.56,0-.27,0-.54.05-.81s0-.37,0-.56.13-.48,0-.61,0-.43,0-.63a.76.76,0,0,1,0-.16l0-2.26c0-.31,0-.62,0-.92.06-.77.15-1.55.25-2.32,0-.37.16-.72.19-1.08a5.12,5.12,0,0,1,0-.79c.17-.88.06-1.79.29-2.68a6.62,6.62,0,0,0,.08-1.27.58.58,0,0,0,0-.18c-.06-.13-.13-.25-.2-.38a.38.38,0,0,0-.25-.19c-.36-.08-.72-.31-1.07,0-.08.06-.09.21-.17.26a1.22,1.22,0,0,0-.4.85c-.09.44-.13.89-.2,1.34a.85.85,0,0,0,0,.35A3.34,3.34,0,0,1,50.33,64c0,.14-.1.28-.11.42s0,.5,0,.78l.22.14a2.17,2.17,0,0,0-.27.4c-.11.33-.2.67-.28,1a1.86,1.86,0,0,0,0,.34c0,.28,0,.56,0,.84a2.87,2.87,0,0,0,0,.41c0,.18.11.45,0,.53-.23.23-.09.4,0,.55a.61.61,0,0,1,0,.83A.59.59,0,0,0,50,71a1.55,1.55,0,0,0,.23.21l-.12,0a3.86,3.86,0,0,0-.16.48c0,.17,0,.36-.08.52a3.18,3.18,0,0,0-.06,1.47,1.86,1.86,0,0,1,0,.41c0,.61-.06,1.22-.09,1.83,0,0,0,.08,0,.12,0,.38.1.76.14,1.14a2.72,2.72,0,0,1,0,.57,6.24,6.24,0,0,0,.22,1.49c0,.36,0,.47-.4.56-.09,0-.2,0-.28,0-.25.16-.49.34-.73.52,0,0,0,.09,0,.12.06.21.13.41.19.61s.07.31.13.45a1,1,0,0,0,.26.39,1.2,1.2,0,0,0,1.12.08.77.77,0,0,1,.58,0,1,1,0,0,0,1.4-.33.47.47,0,0,1,.23-.25,3,3,0,0,1,.61-.12c.33,0,.67,0,1,0s.5-.06.75-.09a2.11,2.11,0,0,0,.25,0c.38-.1.75-.24,1.13-.3a13.82,13.82,0,0,1,1.58-.11c.59,0,1.18,0,1.76,0a14.59,14.59,0,0,0,2-.08,10.5,10.5,0,0,1,1.94-.15h.49a3.6,3.6,0,0,0-.38.68,3.3,3.3,0,0,0-.22.86,4.55,4.55,0,0,0,.09.73c0,.14-.06.3,0,.43a8.54,8.54,0,0,1,.34,1,2.12,2.12,0,0,0,.4.89,4.37,4.37,0,0,0,1.22,1.24,4.1,4.1,0,0,0,.88.47c.56.25,1.13.48,1.7.71a3.75,3.75,0,0,0,.71.25c.71.16,1.42.3,2.13.44a10.81,10.81,0,0,0,3.21.2,1,1,0,0,1,.34,0,2.09,2.09,0,0,0,.34.08,8.28,8.28,0,0,1,1.79.1c.75.14,1.53.17,2.3.26.45.05.89.11,1.33.18s.8.12,1.19.2a.33.33,0,0,1,.19.24.35.35,0,0,1-.21.22c-.2,0-.42,0-.63.1a.42.42,0,0,0-.22.13,1,1,0,0,1-1,.32c-.6-.07-1.2-.13-1.8-.16s-1.11,0-1.67,0c-.09,0-.24,0-.25.1-.1.44-.33.16-.53.11s-.49-.35-.82-.11a1.2,1.2,0,0,1-1.07.24c-.07,0-.25.07-.26.13-.08.42-.27.21-.46.09s-.35-.15-.39-.11c-.45.48-1.41.39-1.47,1.3,0,0,0,0,0,0a1.26,1.26,0,0,0,.05,1.51,2.28,2.28,0,0,0,1,.79c.39.1.76.24,1.14.33a6,6,0,0,0,1,.13c.37,0,.75.1,1.13.12.54,0,1.09,0,1.64,0s1.33,0,2,.07,1.23.19,1.84.31a7.65,7.65,0,0,1,.75.18,2.49,2.49,0,0,0,.34.24,10.14,10.14,0,0,1,2.53.83,10.48,10.48,0,0,0,1.75.75c.17.08.21.27,0,.37a4.6,4.6,0,0,0-.55.25,2.17,2.17,0,0,1-1.18.33,1.14,1.14,0,0,0-.34.15c-.29.12-.59.23-.88.36s-.56.28-.84.43-.49.19-.59.37c-.19.37-.5.69-.4,1.22a2.76,2.76,0,0,0,1.52,2,10.13,10.13,0,0,0,1.2.44,2.49,2.49,0,0,1,.28.15,1.7,1.7,0,0,0,1.17.2,1.19,1.19,0,0,1,.72,0,4.43,4.43,0,0,0,1.17.37,1.23,1.23,0,0,1,.29.13l.61.28a2.24,2.24,0,0,1,.47.21c.22.19.4.44.62.64a.81.81,0,0,1-.15,1.29c-.45.29-.87.62-1.31.93a1.34,1.34,0,0,1-.53.3,2.19,2.19,0,0,0-1.06.26,2.52,2.52,0,0,1-.43.32c-.23.1-.58,0-.52.45,0,0,0,0-.06.06s-.35.2-.27.48,0,.41.06.6a3.75,3.75,0,0,0,.37.68c.23.35.45.75,1,.61,0,0,.13,0,.17.07a.63.63,0,0,0,.86.07.66.66,0,0,0,.86.16.53.53,0,0,1,.34-.09c.36.07.72.2,1.08.28s.67.1,1,.16a4.16,4.16,0,0,0,1.25.28c.49-.07.8.27,1.19.38.66.19,1.26.61,2,.75.17,0,.21.1.11.26-.26.44-.5.89-.76,1.33s-.47.76-.72,1.14a.64.64,0,0,0,0,.87c.08.1.07.26.12.38a1.34,1.34,0,0,0,.22.36c.06.07.16.1.23.17s.15.19.24.28l.46.43c.09.08.21.24.26.22.27-.09.44.11.64.18a.94.94,0,0,1,.44.19,1.37,1.37,0,0,0,1.12.64s.08.06.13.07.17.08.24.06a4,4,0,0,0,1.16-.55,9.87,9.87,0,0,1,1-.66,4.12,4.12,0,0,1,.58-.38c.3-.13.63-.2.87-.28a3.84,3.84,0,0,0,.56-.06,2.9,2.9,0,0,0,.62-.23c.49-.24,1-.51,1.46-.76l.62-.29c0-.06.12-.27.25-.34s.5-.49.42-.73-.23-.58-.33-.87-.2-.54-.28-.81c-.13-.47-.67-.65-.79-1.17a1.16,1.16,0,0,1,.33-1.22c.36-.29.66-.64,1-.91a2.3,2.3,0,0,1,1-.54,5.45,5.45,0,0,0,1.47-.35c.1,0,.21,0,.31-.06l.66-.15c.12,0,.24,0,.36,0l1-.19s0,0,0,0a3.71,3.71,0,0,1,.63-.24c.35-.08.7-.09,1-.17s.76-.2,1.14-.31l.12,0a2.58,2.58,0,0,0,.39,0,1.59,1.59,0,0,1,.3-.06,1,1,0,0,0,.75-.22s.19,0,.28,0a1.48,1.48,0,0,0,.21,0,6.63,6.63,0,0,0,1-.24c.31-.13.8,0,.86-.5.35.14.35.14.51-.27l.4-.22c.15-.07.34-.23.45-.19.27.09.34-.07.45-.21a4.68,4.68,0,0,1,.53-.71,1.14,1.14,0,0,0,.19-1.57,4.91,4.91,0,0,0-1.59-1.34c-.28-.14-.47-.41-.84-.46s-.43-.33-.67-.47-.76-.4-1.15-.59a1,1,0,0,0-.25,0,.66.66,0,0,1-.15,0l-.72-.5a4.74,4.74,0,0,1-.74-.6c-.24-.26-.15-.53.18-.69s.52-.25.78-.36.33-.11.49-.18a2.71,2.71,0,0,0,1-.39c.38-.35,1,0,1.28-.47,0,0,.06,0,.09,0a2.35,2.35,0,0,0,.37,0c.29-.09.58-.19.87-.27a.48.48,0,0,1,.23,0,1.36,1.36,0,0,0,1,0,4.2,4.2,0,0,1,1-.17l.84-.12a2.12,2.12,0,0,1,.43-.06c.53,0,1,0,1.28-.62.25.23.45.11.63-.08s.47-.54.74-.77.53-.28.75-.47a7.61,7.61,0,0,0,.92-1c.09-.11,0-.34,0-.52a.77.77,0,0,0-.5-.93.53.53,0,0,1-.12-.1c-.16-.14-.32-.3-.49-.43a3.38,3.38,0,0,0-.47-.3c-.11-.06-.24-.17-.33-.14-.35.11-.61-.16-.93-.16a2.88,2.88,0,0,1-.72-.05c-.23-.06-.44-.2-.66-.28s-.64-.16-.93-.28-.73-.37-1.09-.56a4.53,4.53,0,0,1-.46-.3.22.22,0,0,1,0-.19,1.31,1.31,0,0,1,.4-.44,10.28,10.28,0,0,1,1-.38c.15-.07.28-.17.43-.25s.4,0,.52-.14a.55.55,0,0,1,.52-.1c.23,0,.52.22.66-.17,0,0,.13-.05.19-.05.36.05.69,0,.87-.29a1.57,1.57,0,0,0,1.4-.28l.2.16c.23-.1.47-.31.64-.27.39.1.67-.14,1-.22.67-.16,1.29-.55,2-.31.05,0,.11,0,.16,0a3.31,3.31,0,0,1,1.71-.08h.06c.44,0,.89,0,1.32-.12a1.41,1.41,0,0,0,1.21-.73.29.29,0,0,1,.28-.1.56.56,0,0,0,.73-.17c.19-.19.36-.4.56-.59a.19.19,0,0,1,.18,0c.14.2.3.14.43,0s.66-.26.73-.67c0,0,.1-.07.15-.1a2.11,2.11,0,0,0,.73-1.67.14.14,0,0,1,0-.06c0-.13,0-.25-.05-.38a4.49,4.49,0,0,0-.1-.64c-.12-.4-.53-.49-.82-.73a1,1,0,0,1-.14-.2.62.62,0,0,1,.2-.1c.38,0,.76,0,1.13,0s.9.06,1.35.08,1,0,1.54,0a1.89,1.89,0,0,1,1,.12.91.91,0,0,0,.5.06c.44,0,.88-.07,1.32-.09.16,0,.32.09.48.1l2.2.07,2.72.06a6.66,6.66,0,0,1,.78,0,9.93,9.93,0,0,0,1.17.21,6.35,6.35,0,0,0,2.56-.26c.17-.07.24-.13.23-.31a.64.64,0,0,1,.09-.41c.3-.42.2-.69-.31-.81-.14,0-.33-.06-.4-.15a1.8,1.8,0,0,0-.94-.59,7,7,0,0,0-1.67-.38c-.69-.08-1.4,0-2.11-.06-.52,0-1.05-.1-1.58-.11s-1.12,0-1.69,0l-1.57,0h-.25c-.59-.06-1.17-.14-1.76-.17s-1.31-.06-2-.08-1.29,0-1.93,0a5.8,5.8,0,0,0-.81.16.25.25,0,0,1-.17,0,.48.48,0,0,0-.76.11.92.92,0,0,0-.87-.17.7.7,0,0,1-.35,0c-.22,0-.42-.11-.6.1,0,0-.15,0-.21,0s-.19-.1-.28-.13c-.26-.06-.52-.1-.78-.15a.36.36,0,0,1-.3-.47c0-.24,0-.49.07-.73.1-.78.23-1.56.31-2.34.06-.48.06-1,.09-1.44,0-.74.09-1.49.15-2.23,0-.54.07-1.09.12-1.63s.11-.81.13-1.21,0-1,0-1.57,0-1.1.07-1.64a10.44,10.44,0,0,1,.11-2.37.48.48,0,0,0,0-.12c0-.55-.05-1.09-.06-1.63s0-.82,0-1.23-.06-.82-.08-1.24c0-.12.07-.25.05-.37-.06-.4-.14-.8-.21-1.2l-.21-1c-.06-.29-.13-.58-.19-.88-.1-.47-.19-1-.29-1.43-.07-.31-.16-.61-.24-.91l-.24-1a.22.22,0,0,0,0-.08c-.13-.28-.26-.57-.41-.84a3.92,3.92,0,0,0-.67-1.32s0-.15,0-.23a3.41,3.41,0,0,0-.27-1.13,5.72,5.72,0,0,1-.57-1.23c-.18-.48-.17-1-.56-1.43a1.51,1.51,0,0,1-.35-.63,2.27,2.27,0,0,0-1-1.35c0-.1.09-.21.06-.26a3.52,3.52,0,0,1-.44-.65,2.51,2.51,0,0,0-.49-.71,2.48,2.48,0,0,0-.3-.25s-.1-.09-.1-.14c0-.54-.44-.84-.68-1.25-.13-.23-.32-.43-.46-.66C125.42,39.34,125.27,38.78,124.7,38.91ZM52.87,54h-.09c-.08.23-.17.45-.23.69a2.64,2.64,0,0,0-.06.63c0,.33.31.63.1,1,0,0,0,.13.1.18a1.53,1.53,0,0,0,1.43.23c.05,0,.09-.08.11-.13s.18-.38.25-.57c.16-.52.33-1,.45-1.56a5.49,5.49,0,0,0,0-.91c0-.07.07-.14.1-.21s.15-.25.21-.38.05-.22.1-.33c.17-.36.38-.71.53-1.09.22-.57.42-1.15.62-1.72a5.06,5.06,0,0,1,.36-1.14,5.05,5.05,0,0,0,.51-1.37c.14-.4.44-.76.38-1.22v0c.23-.43.47-.86.68-1.29.36-.73.67-1.49,1.06-2.2a14.93,14.93,0,0,1,.93-1.41c.36-.54.71-1.1,1.09-1.62.26-.34.57-.64.86-1s.83-.87,1.24-1.32a14.59,14.59,0,0,1,1-1.17c.61-.55,1.26-1,1.9-1.56.23-.19.45-.41.69-.61s.36-.28.53-.44l1-.85.13-.08c.33-.22.66-.43,1-.67s.8-.62,1.21-.93l.06,0c.25-.19.5-.37.75-.57s.49-.47.77-.66.73-.43,1.09-.65a4.29,4.29,0,0,1,1.33-.8,1.21,1.21,0,0,0,.32-.11c.5-.26,1-.54,1.5-.79.73-.37,1.47-.7,2.19-1.07.28-.15.61-.14.86-.38s1.07-.42.93-1.17c0,0,0-.05.06-.07.12-.28,0-.43-.31-.46a8.49,8.49,0,0,0-2.1.24c-.71.33-1.4.69-2.1,1a3.18,3.18,0,0,1-.66.34,10.13,10.13,0,0,0-1.8.91c-.55.23-1,.62-1.58.87a1.56,1.56,0,0,0-.74.49.24.24,0,0,1-.12.1,2.55,2.55,0,0,0-1.1.79.9.9,0,0,1-.28.2c-.18.11-.38.19-.55.31l-1,.74-.31.2-.64.49a12.47,12.47,0,0,0-1,.74,8.31,8.31,0,0,1-1.23,1.14,7.11,7.11,0,0,0-.62.46l-1.35,1.16c-.14.12-.31.22-.45.35s-.41.42-.59.64-.4.61-.64.88-.72.78-1.08,1.17l-.54.54L59,39.2c-.16.18-.32.36-.47.55a.42.42,0,0,0-.1.2c0,.17,0,.4-.08.48a3.45,3.45,0,0,0-.72,1c-.19.35-.55.62-.52,1.08,0,0-.09.11-.13.16a1.1,1.1,0,0,0-.18.26c-.08.2-.13.42-.21.63l-.37.93c-.08.19-.14.38-.23.63.12.16,0,.3-.19.46a1,1,0,0,0-.23.43,2.2,2.2,0,0,0,.06.5.69.69,0,0,1,0,.32c-.08.27-.18.53-.28.79s-.18.44-.27.66c-.24.58-.76,1-.82,1.69,0,0,0,.07-.07.1a6,6,0,0,0-.37.77A6.84,6.84,0,0,1,53.48,52c-.24.41-.11.94-.5,1.28,0,0,0,.12-.06.18a4.09,4.09,0,0,1-.12.41Zm54.24-33.85a1.23,1.23,0,0,1-.38.08c-.42-.05-.83-.13-1.24-.2-.19,0-.39-.07-.59-.09a3.1,3.1,0,0,0-1.25,0c-.2.06-.49,0-.63.07a1,1,0,0,1-.6.18,5.45,5.45,0,0,0-.58.14,7.72,7.72,0,0,1-.93.2,6.66,6.66,0,0,1-.77,0,14.67,14.67,0,0,1-2.48,0,1.36,1.36,0,0,0-.51.1,3.56,3.56,0,0,1-.58.19c-.28,0-.56,0-.84,0s-.64.14-1,.18a14.93,14.93,0,0,1-2,.35,6,6,0,0,0-.74,0,5.36,5.36,0,0,1-.94.18,1.63,1.63,0,0,0-1.43.44.17.17,0,0,1-.1.06l-1.17.29a3.26,3.26,0,0,0-.44.15,5.16,5.16,0,0,1-.81.34c-.37.07-.76,0-1.14.08a3.25,3.25,0,0,0-.74.2c-.15.06-.23.59-.13.73a2.2,2.2,0,0,1,.15.31.87.87,0,0,0,1,.66,5.84,5.84,0,0,0,.73,0,7.91,7.91,0,0,0,1.37-.27c.53-.17,1-.47,1.54-.64a10.58,10.58,0,0,1,1.85-.43,14.57,14.57,0,0,1,1.75,0c.33,0,.68.08,1-.19a.32.32,0,0,1,.2-.07c.52-.11,1-.22,1.57-.31a2.41,2.41,0,0,1,1-.12.72.72,0,0,0,.54-.14.34.34,0,0,1,.39-.11c.29.08.58.19.89.26a2,2,0,0,0,.55,0,2.32,2.32,0,0,0,.46-.07l1-.18.6-.12a10.33,10.33,0,0,0,1.26-.14,5.75,5.75,0,0,1,2-.14c.36,0,.72.16,1.08.19a2.17,2.17,0,0,0,1.21,0,.14.14,0,0,1,.09,0c.35.24.72,0,1.07.06a.69.69,0,0,0,.28,0,11,11,0,0,1,1.6-.21,6.3,6.3,0,0,1,1.18.23,1.57,1.57,0,0,0,.53,0c.41-.06.81-.17,1.22-.2.23,0,.3-.1.31-.31l-.38-.21a1.33,1.33,0,0,1,.29-.17c.2,0,.3-.12.21-.35,0-.07,0-.18.06-.24-.23-.07-.51-.13-.78-.23s-.62-.29-.94-.41c-.13-.05-.31,0-.42-.05a2.36,2.36,0,0,0-1.17-.2c-.19,0-.33,0-.38.24,0,.05-.16.11-.2.09-.44-.25-.89-.07-1.34-.08a.17.17,0,0,0-.12,0c-.2.23-.34.11-.51-.06s-.33-.18-.39.11a.82.82,0,0,1-.1.17Zm40,40.67.12.13c.19.19.35.26.61,0a2.29,2.29,0,0,0,.57-1,1.3,1.3,0,0,0,0-.78,1.38,1.38,0,0,1-.08-1.09.17.17,0,0,0,0-.12,2.13,2.13,0,0,1-.11-1.12,14.69,14.69,0,0,0-.17-2.19c-.05-.45-.13-.89-.21-1.33-.13-.74-.28-1.47-.43-2.21,0-.09-.09-.18-.11-.28a7.94,7.94,0,0,0-.13-.83c-.11-.37-.27-.71-.4-1.07s-.19-.63-.3-.93,0-.81-.25-1.17c0,0,.05-.11.06-.13a1.31,1.31,0,0,1-.26-.3c-.1-.29-.17-.59-.26-.87-.16-.45-.32-.89-.49-1.33a.54.54,0,0,0-.11-.18,2.5,2.5,0,0,1-.46-.65c-.15-.58-.73-.82-.95-1.34,0,0-.07,0-.1-.06a1.08,1.08,0,0,0-1.08.29.65.65,0,0,0-.28.68,4.18,4.18,0,0,0,.17.78c.1.25.31.46.4.71.18.52.27,1.06.47,1.57a12.38,12.38,0,0,1,.56,1.79c.12.56.49,1.06.41,1.67a.1.1,0,0,0,0,.09c.3.35.16.81.31,1.2.08.2.14.41.21.62s.25.68.4,1a.94.94,0,0,1,.16.62c0,.19-.06.46.24.57a.21.21,0,0,1,.08.15,1.44,1.44,0,0,0,0,1c.07.32-.12.68.13,1,0,0,0,.16,0,.24a2.07,2.07,0,0,0,0,.35c0,.54,0,1.08,0,1.62a8.6,8.6,0,0,0,.15.86c0,.18,0,.43.08.52a1,1,0,0,1,.34.76s0,0,.08,0l.12-.21c0,.15-.12.27-.11.38a8.49,8.49,0,0,0,.22.82Zm-9.61-27.57-.17-.23c-.1-.13-.24-.24-.27-.38-.09-.46-.49-.63-.77-.92-.07-.07-.12-.22-.19-.23-.35,0-.61-.16-.69-.55,0,0,0,0-.07,0-.45-.23-.95-.31-1.29-.76a3.71,3.71,0,0,0-1-.68c-.38-.24-.75-.5-1.14-.73a1.94,1.94,0,0,0-1-.42,1.42,1.42,0,0,1-.62-.2,6.29,6.29,0,0,0-1.51-.76,4.85,4.85,0,0,1-.87-.33c-.34-.15-.68-.29-1-.45s-.4-.3-.67-.12a.22.22,0,0,1-.21,0c-.33-.15-.51.06-.66.28s-.29.5,0,.75a.22.22,0,0,1,0,.14,1,1,0,0,0,.6.84c.47.26,1,.44,1.48.66s.94.42,1.4.65.84.5,1.28.72.77.21,1,.58c0,0,.07,0,.11.05.23.13.46.27.69.39s.34.3.59.21a1.42,1.42,0,0,0,1.09.7.73.73,0,0,0,.71.53.11.11,0,0,1,.08.07c.13.28.56.31.57.68.42,0,.5.51.87.62s.42.38.73.18c0,0,.09,0,.11,0,.23.3.32.13.38-.12l.06,0c-.05.24.16.24.29.32.06-.11.13-.22.18-.33s0-.14,0-.19.09-.25.17-.29c.25-.12.23-.27.08-.42A4.38,4.38,0,0,0,137.51,33.29Zm10.8,37.11h.1a4.08,4.08,0,0,1-.17-.83c0-.54.1-1.09.1-1.64s-.08-1.33-.15-2a2.12,2.12,0,0,0-.21-.66,2.15,2.15,0,0,0-.35-.5.63.63,0,0,0-.31-.17c-.08,0-.18.05-.27.06a1.23,1.23,0,0,0-1,1.1c0,.54-.08,1.08-.11,1.61a1.47,1.47,0,0,0,0,.63,2.74,2.74,0,0,1,.16,1.23c0,.82,0,1.64,0,2.45,0,0,0,.06,0,.1,0,.29.1.58.14.87,0,.06,0,.13-.07.2a.43.43,0,0,0,0,.19c0,.22,0,.43.08.65s.06.17.08.26a1.35,1.35,0,0,1,.1.54,2.16,2.16,0,0,0,.16,1.52c.09.21.2.4.48.38a.71.71,0,0,0,.61-.56.55.55,0,0,1,.29-.49.4.4,0,0,0,.16-.18A7.36,7.36,0,0,0,148.4,74c0-.6,0-1.2,0-1.79a5,5,0,0,0,0-.67C148.39,71.14,148.35,70.77,148.31,70.4ZM127.09,34.49c.2-.14.28-.31.08-.52l-.75-.77c-.08-.09-.14-.24-.24-.29-.38-.19-.78-.36-1.16-.54-.12,0-.23-.14-.35-.19a9.48,9.48,0,0,1-1.06-.37A5.56,5.56,0,0,0,122,31.4c-.4-.09-.82-.12-1.22-.2-.23,0-.46-.12-.69-.18l-1.5-.34a3.75,3.75,0,0,1-.33.52.53.53,0,0,0-.08.66c.06.12.08.27.15.38s.26.5.46.59a15,15,0,0,0,1.51.54,16.3,16.3,0,0,1,2.44.58c.74.37,1.53.64,2.28,1a2.69,2.69,0,0,0,1.52.38C127.12,35.24,127.27,35.05,127.09,34.49ZM109.29,27a10.59,10.59,0,0,1-1.13-.33,3.58,3.58,0,0,0-1.75-.07,1.54,1.54,0,0,1-.74,0,1.6,1.6,0,0,0-1.08,0,.84.84,0,0,1-.47,0c-.27-.09-.52-.19-.78,0a.27.27,0,0,1-.16,0,1.59,1.59,0,0,0-.5.07,2.57,2.57,0,0,1-2,.22.31.31,0,0,0-.23,0c-.7.55-.75.78-.39,1.56,0,.08.12.14.14.21.06.38.34.42.64.42a8.81,8.81,0,0,1,.89,0,7.58,7.58,0,0,0,1.9-.21c.5-.06,1-.19,1.49-.21.71,0,1.43,0,2.14,0a10.9,10.9,0,0,0,1.14-.07,3.51,3.51,0,0,0,.53-.15.87.87,0,0,0,.47-1A5.5,5.5,0,0,1,109.29,27ZM59,74.91a1.92,1.92,0,0,1-.08-.3c0-.33,0-.67,0-1,0-.11-.13-.26-.09-.31a1.6,1.6,0,0,0,.21-.9c0-.25.12-.49.15-.74s0-.38,0-.57c.08-.51.19-1,.25-1.53s0-1,.11-1.48c.11-.67.28-1.32.41-2,.08-.4-.27-.63-.42-1,0,0-.08,0-.12,0A3.25,3.25,0,0,0,59,65a1.37,1.37,0,0,0-.45,0c-.42.06-.49.42-.57.74-.14.6-.25,1.22-.37,1.84-.08.42-.15.85-.23,1.28s-.17.85-.22,1.28c-.08.6-.15,1.21-.19,1.82,0,.16.16.33.18.51,0,.4,0,.8,0,1.21a1.22,1.22,0,0,0,0,.47,4.84,4.84,0,0,0,.36.72.58.58,0,0,0,.22.22A1,1,0,0,0,59,74.91Zm78.56-27.19-.05,0a3,3,0,0,0-.06-.79,10.81,10.81,0,0,0-.57-1.19,4.27,4.27,0,0,0-.3-.51,5.75,5.75,0,0,0-.46-.64,5.89,5.89,0,0,1-.42-.45c-.14-.22-.23-.47-.35-.7a.53.53,0,0,0-.15-.15,1.84,1.84,0,0,1-.22-.17c-.22-.25-.4-.53-.63-.75s-.57-.45-.85-.68a1.23,1.23,0,0,0-1.09-.05c-.15.11-.24.32-.4.4a.41.41,0,0,0-.22.5,5.29,5.29,0,0,0,.54,1.06c.29.43.62.83.95,1.23a9.91,9.91,0,0,0,.9,1c.14.14.31.22.27.46,0,0,.08.07.12.11s.4.33.44.53a.64.64,0,0,0,.14.39.94.94,0,0,1,.23.33,2.72,2.72,0,0,0,.91,1.32,1.52,1.52,0,0,0,.42.31,1.5,1.5,0,0,0,.51,0l.47-.93Zm2,15.75s0,.07,0,.11a3.53,3.53,0,0,0,.54,0c.52,0,.65-.11.67-.51s.11-.76.12-1.14a8.47,8.47,0,0,0,0-1.13c-.06-.43-.2-.85-.22-1.28s0-1.11,0-1.67c0-.27-.18-.56-.14-.81a1.28,1.28,0,0,0-.17-.82,1.83,1.83,0,0,0-1.34-.93.39.39,0,0,0-.47.28.33.33,0,0,1-.2.2c-.28.07-.32.26-.3.5s.08.79.09,1.18c0,.59,0,1.19,0,1.79a5.31,5.31,0,0,0,.08.67l.15.84.15.94a1.48,1.48,0,0,1,0,.21,1.63,1.63,0,0,0,.06.45,2.84,2.84,0,0,0,.42.66A3.23,3.23,0,0,0,139.57,63.47Zm9,38.09a5.74,5.74,0,0,0,0-.83,1,1,0,0,0-.25-.57,3.83,3.83,0,0,0-1.09-.8,11.84,11.84,0,0,1-1.3-.88c-.4-.23-.68-.64-1.22-.66a.81.81,0,0,0-.87.41,7.51,7.51,0,0,1-.66.83c-.3.33-.64.64-1,1a2.31,2.31,0,0,1-.56.44,1.42,1.42,0,0,0-.76.63,1.05,1.05,0,0,0,.44,1.45c.14,0,.33,0,.47,0s.34,0,.41-.23c.26.31.52.1.67,0,.36-.37.9-.59,1-1.17a.21.21,0,0,1,.1-.11.68.68,0,0,0,.45-.6l.49-.11A10.32,10.32,0,0,1,146,101c.18.15.28.33.42.09a2.64,2.64,0,0,1,.64.43.74.74,0,0,0,.86.18ZM91,29.63c0-.32-.36-.61-.58-.48s-.45,0-.66-.1a1.45,1.45,0,0,0-.26-.07c-.38,0-.74.14-1.14.12a9,9,0,0,0-1.52.22l-2.22.28c-.42,0-.86.06-1.28.15a1,1,0,0,0-.58.32,1.14,1.14,0,0,0-.13,1.08A1.17,1.17,0,0,0,84,32l1.45-.27c.49-.07,1-.11,1.46-.18s.75-.19,1.13-.23c.68-.07,1.36-.1,2-.15.2,0,.39-.08.19-.36l.4.19.73-1.24Zm-27.4,20a2.53,2.53,0,0,1,.37-.18c.24-.08.13-.35.21-.43s.27-.5.43-.68c.48-.51.49-1.3,1.09-1.72,0,0,0-.05,0-.08.15-.32.31-.63.46-.94.26-.52.74-.91.8-1.52,0-.07.12-.12.17-.19a1.77,1.77,0,0,0,.51-1.17,1.1,1.1,0,0,0-.34-.79,1.24,1.24,0,0,0-.92-.47.69.69,0,0,0-.48.25c-.33.37-.47.87-.88,1.19a.35.35,0,0,0-.09.16,1.27,1.27,0,0,1-.48.82c-.09.06-.12.23-.18.35s0,.17-.1.22a3,3,0,0,0-.65,1.08c-.16.31-.15.72-.49.94a.25.25,0,0,0-.08.14c-.06.26-.12.53-.17.8a.83.83,0,0,0,0,.27,1.74,1.74,0,0,1,0,.64.69.69,0,0,0,.17.74s.09.1.1.15C63.14,49.51,63.33,49.59,63.62,49.64Zm13.8-14.92c0-.29,0-.49-.33-.93s-.83-.6-1.18-.34l-.89.71a2.53,2.53,0,0,1-.26.22c-.27.16-.55.29-.82.45a1.57,1.57,0,0,0-.55.37,5.32,5.32,0,0,1-1.53,1.27l-.61.39c-.28.18-.41.57-.82.57a1.38,1.38,0,0,0-.08.45c0,.07.1.14.11.21.05.31.07.61.11.92a.48.48,0,0,0,.63.42,2,2,0,0,0,.56-.24,14.76,14.76,0,0,0,1.7-1.07,19.16,19.16,0,0,1,1.64-1.34A9.8,9.8,0,0,0,76,36.2c.27-.22.52-.48.77-.72.09-.08.15-.24.25-.26C77.3,35.15,77.43,35,77.42,34.72ZM49.76,90.93a.36.36,0,0,1,.34-.49.92.92,0,0,1,.77.36c.45.49.88,1,1.29,1.52a1.33,1.33,0,0,0,1,.51c.66,0,1-.45.8-1a2,2,0,0,0-.45-.6c-.36-.36-.74-.71-1.09-1.08a.71.71,0,0,1-.22-.38.68.68,0,0,0-.42-.57,2.27,2.27,0,0,1-.41-.41c-.05-.06-.07-.16-.13-.21s-.31-.3-.48-.3a3.17,3.17,0,0,0-.85.15c-.06,0-.11.13-.13.21a2.2,2.2,0,0,1-.06.37,5.91,5.91,0,0,1-.39.8c0,.07-.21.06-.31.1s-.11.1-.17.13l-.24.12a2.55,2.55,0,0,0-.37.19,1.89,1.89,0,0,1-1.06.21s-.06-.05-.1-.08A1.34,1.34,0,0,0,46,90c-.6.07-.65.11-.49.67a.3.3,0,0,1,0,.1,1.4,1.4,0,0,0,.6,1.27,2.15,2.15,0,0,0,1.59.37c.17,0,.44-.13.47-.25s.15-.26.35-.25a.42.42,0,0,0,.23-.13Zm89.8-2c-.23.59-.45,1.17-.68,1.75a.42.42,0,0,1-.11.15,2.15,2.15,0,0,0-.8,1.2s0,.11-.05.11c-.38,0-.44.37-.59.61h-.1c-.32-.14-.37-.1-.41.22,0,.08-.12.15-.2.21-.25.17-.6.28-.72.51a3.59,3.59,0,0,0-.3,1.19.38.38,0,0,0,.24.48c.18.06.33.19.51.26a.53.53,0,0,0,.33,0c.07,0,.12-.12.2-.14.37-.12.52-.43.68-.74s.09-.46.23-.57.5-.44.41-.87l.28.16c.07-.11.16-.19.21-.29a6.68,6.68,0,0,1,1.06-1.48c.24-.25.32-.26.55,0s.55.57.84.85c.05,0,.19.09.21.07.2-.22.31,0,.44.09s.35.2.51,0a.37.37,0,0,1,.2-.13c.38,0,.43-.18.36-.57a2.27,2.27,0,0,0-.49-.92c-.17-.22-.31-.45-.49-.65a9.88,9.88,0,0,0-.74-.71,5.39,5.39,0,0,0-.86-.67A1.81,1.81,0,0,0,139.56,89Zm-3.13-13.09a6.39,6.39,0,0,1,.09.68.85.85,0,0,0,.7.72,1,1,0,0,1,.34.09c.35.17.53.14.76-.17.1-.14.14-.33.26-.44.44-.38.27-.9.27-1.35a3.89,3.89,0,0,1,0-.69c.11-.6.17-1.21.22-1.82a6.5,6.5,0,0,0,0-1.32,2.35,2.35,0,0,0-.41-.93,3.25,3.25,0,0,0-.61-.46.57.57,0,0,0-.87.27c0,.12-.17.21-.26.3s-.13.09-.15.15a4.9,4.9,0,0,0-.2,2,2.13,2.13,0,0,0,.1,1.06s0,.06,0,.09C136.59,74.69,136.51,75.3,136.43,75.89ZM66,105.54c.35-.42.12-.68-.18-.92-.06-.06-.14-.13-.15-.21,0-.3-.28-.41-.47-.59a.63.63,0,0,1-.25-.34.53.53,0,0,0-.37-.42,2,2,0,0,1-.3-.21l-.87-.59a2.37,2.37,0,0,0-.36-.17c-.18-.11-.38-.23-.57,0l-2.16,2.24c-.15.15-.32.27-.46.42s-.56.31-.48.71.12.51.18.73a3,3,0,0,0,.49.18.42.42,0,0,0,.33,0,2.21,2.21,0,0,0,.77-.72c0-.11.17-.18.24-.29s.23-.42.35-.63.09-.18.13-.18c.33,0,.4-.2.46-.42a.86.86,0,0,1,.3,0,2.16,2.16,0,0,1,.86.26,3.79,3.79,0,0,1,.61.7c.06.07.18.09.27.13a1.44,1.44,0,0,0,.32.48c.09.11.23.19.29.31s.18.21.32,0,.13-.07.27-.13l-.12.27c.55.21.69-.29,1.08-.53ZM62,55h-.08c-.08-.15-.16-.29-.25-.43s-.12-.23-.19-.24c-.38,0-.76-.07-1.14-.09a.12.12,0,0,0-.09.08c-.1.18-.26.33-.37.51a3.82,3.82,0,0,0-.36,1c-.1.29-.05.66-.21.9a2.34,2.34,0,0,0-.46,1.78c0,.07,0,.16-.06.19a2,2,0,0,1,.14.38,2.63,2.63,0,0,0,.26,1.13c.22.41.43.79,1,.63a2.53,2.53,0,0,0,.23-.26c.11-.19.36-.24.39-.54.07-.66.2-1.31.33-2a3.8,3.8,0,0,1,.24-.5,3.75,3.75,0,0,0,.24-.6C61.74,56.28,61.87,55.61,62,55ZM54.23,35.16c-.07-.12-.11-.3-.21-.35a8.88,8.88,0,0,0-1.3-.58c-.93-.3-1.88-.57-2.81-.86a.5.5,0,0,1-.22-.16.76.76,0,0,0-1,0,1.26,1.26,0,0,0,.22,1.37,3.4,3.4,0,0,0,1.25.65,9.07,9.07,0,0,1,1.21.41c.67.26,1.33.55,2,.8a.53.53,0,0,0,.68-.34.72.72,0,0,1,.17-.22A.42.42,0,0,0,54.23,35.16ZM48.91,45c-.15-.26,0-.35.13-.41s.18-.32.16-.48A.47.47,0,0,0,49,43.8c-.14-.09-.35-.08-.49-.17a.64.64,0,0,0-.73-.1.23.23,0,0,1-.18,0,2.13,2.13,0,0,0-1.29-.36l-.16,0a8.42,8.42,0,0,0-2.45-.27,1,1,0,0,0-.31.1l.11.26a1.55,1.55,0,0,0-.19.49,1.57,1.57,0,0,0,1,1c.6.06,1.21.07,1.81.17a7.52,7.52,0,0,0,2.17.1A2.94,2.94,0,0,1,48.91,45Zm-6.83,14.9c-.21,0-.41,0-.6,0s-.54,0-.8,0a7.63,7.63,0,0,0-.82,0,5.47,5.47,0,0,1-1,.12,8.86,8.86,0,0,0-1.36.07,2.22,2.22,0,0,1-.05.67c0,.17-.07.33.12.45a3.12,3.12,0,0,1,.41.33.74.74,0,0,0,1,.08.46.46,0,0,1,.13-.08c.74-.05,1.41-.39,2.15-.46a.4.4,0,0,0,.24-.14c.14-.19.27-.41.4-.61Z"/><path class="cls-4" d="M124.7,38.91c.57-.13.72.43,1,.85.14.23.33.43.46.66.24.41.69.71.68,1.25,0,0,.06.11.1.14a2.48,2.48,0,0,1,.3.25,2.51,2.51,0,0,1,.49.71,3.52,3.52,0,0,0,.44.65s0,.16-.06.26a2.27,2.27,0,0,1,1,1.35,1.51,1.51,0,0,0,.35.63c.39.41.38,1,.56,1.43a5.72,5.72,0,0,0,.57,1.23,3.41,3.41,0,0,1,.27,1.13c0,.08,0,.19,0,.23a3.92,3.92,0,0,1,.67,1.32c.15.27.28.56.41.84a.22.22,0,0,1,0,.08l.24,1c.08.3.17.6.24.91.1.48.19,1,.29,1.43.06.3.13.59.19.88l.21,1c.07.4.15.8.21,1.2,0,.12-.05.25-.05.37,0,.42.06.83.08,1.24s0,.82,0,1.23,0,1.08.06,1.63a.48.48,0,0,1,0,.12,10.44,10.44,0,0,0-.11,2.37c0,.54-.07,1.09-.07,1.64s0,1,0,1.57-.1.8-.13,1.21-.09,1.09-.12,1.63c-.06.74-.11,1.49-.15,2.23,0,.48,0,1-.09,1.44-.08.78-.21,1.56-.31,2.34,0,.24,0,.49-.07.73a.36.36,0,0,0,.3.47c.26,0,.52.09.78.15.09,0,.18.1.28.13s.18,0,.21,0c.18-.21.38-.15.6-.1a.7.7,0,0,0,.35,0,.92.92,0,0,1,.87.17.48.48,0,0,1,.76-.11.25.25,0,0,0,.17,0,5.8,5.8,0,0,1,.81-.16c.64,0,1.29,0,1.93,0s1.32,0,2,.08,1.17.11,1.76.17h.25l1.57,0c.57,0,1.13,0,1.69,0s1.06.09,1.58.11c.71,0,1.42,0,2.11.06a7,7,0,0,1,1.67.38,1.8,1.8,0,0,1,.94.59c.07.09.26.11.4.15.51.12.61.39.31.81a.64.64,0,0,0-.09.41c0,.18-.06.24-.23.31a6.35,6.35,0,0,1-2.56.26,9.93,9.93,0,0,1-1.17-.21,6.66,6.66,0,0,0-.78,0l-2.72-.06-2.2-.07c-.16,0-.32-.1-.48-.1-.44,0-.88.07-1.32.09a.91.91,0,0,1-.5-.06,1.89,1.89,0,0,0-1-.12c-.51,0-1,0-1.54,0s-.9-.07-1.35-.08-.75,0-1.13,0a.62.62,0,0,0-.2.1,1,1,0,0,0,.14.2c.29.24.7.33.82.73a4.49,4.49,0,0,1,.1.64c0,.13,0,.25.05.38a.14.14,0,0,0,0,.06,2.11,2.11,0,0,1-.73,1.67c-.05,0-.14.06-.15.1-.07.41-.49.44-.73.67s-.29.19-.43,0a.19.19,0,0,0-.18,0c-.2.19-.37.4-.56.59a.56.56,0,0,1-.73.17.29.29,0,0,0-.28.1,1.41,1.41,0,0,1-1.21.73c-.43.08-.88.08-1.32.12h-.06a3.31,3.31,0,0,0-1.71.08s-.11,0-.16,0c-.73-.24-1.35.15-2,.31-.32.08-.6.32-1,.22-.17,0-.41.17-.64.27l-.2-.16a1.57,1.57,0,0,1-1.4.28c-.18.31-.51.34-.87.29-.06,0-.18,0-.19.05-.14.39-.43.21-.66.17a.55.55,0,0,0-.52.1c-.12.1-.37.07-.52.14s-.28.18-.43.25a10.28,10.28,0,0,0-1,.38,1.31,1.31,0,0,0-.4.44.22.22,0,0,0,0,.19,4.53,4.53,0,0,0,.46.3c.36.19.71.4,1.09.56s.62.17.93.28.43.22.66.28a2.88,2.88,0,0,0,.72.05c.32,0,.58.27.93.16.09,0,.22.08.33.14a3.38,3.38,0,0,1,.47.3c.17.13.33.29.49.43a.53.53,0,0,0,.12.1.77.77,0,0,1,.5.93c0,.18,0,.41,0,.52a7.61,7.61,0,0,1-.92,1c-.22.19-.52.28-.75.47s-.49.51-.74.77-.38.31-.63.08c-.25.6-.75.64-1.28.62a2.12,2.12,0,0,0-.43.06l-.84.12a4.2,4.2,0,0,0-1,.17,1.36,1.36,0,0,1-1,0,.48.48,0,0,0-.23,0c-.29.08-.58.18-.87.27a2.35,2.35,0,0,1-.37,0s-.08,0-.09,0c-.32.44-.9.12-1.28.47a2.71,2.71,0,0,1-1,.39c-.16.07-.33.11-.49.18s-.52.23-.78.36-.42.43-.18.69a4.74,4.74,0,0,0,.74.6l.72.5a.66.66,0,0,0,.15,0,1,1,0,0,1,.25,0c.39.19.78.38,1.15.59s.43.44.67.47.56.32.84.46a4.91,4.91,0,0,1,1.59,1.34,1.14,1.14,0,0,1-.19,1.57,4.68,4.68,0,0,0-.53.71c-.11.14-.18.3-.45.21-.11,0-.3.12-.45.19l-.4.22c-.16.41-.16.41-.51.27-.06.55-.55.37-.86.5a6.63,6.63,0,0,1-1,.24,1.48,1.48,0,0,1-.21,0c-.09,0-.23,0-.28,0a1,1,0,0,1-.75.22,1.59,1.59,0,0,0-.3.06,2.58,2.58,0,0,1-.39,0l-.12,0c-.38.11-.76.23-1.14.31s-.7.09-1,.17a3.71,3.71,0,0,0-.63.24s0,0,0,0l-1,.19c-.12,0-.24,0-.36,0l-.66.15c-.1,0-.21,0-.31.06a5.45,5.45,0,0,1-1.47.35,2.3,2.3,0,0,0-1,.54c-.37.27-.67.62-1,.91a1.16,1.16,0,0,0-.33,1.22c.12.52.66.7.79,1.17.08.27.18.54.28.81s.23.58.33.87-.2.62-.42.73-.21.28-.25.34l-.62.29c-.49.25-1,.52-1.46.76a2.9,2.9,0,0,1-.62.23,3.84,3.84,0,0,1-.56.06c-.24.08-.57.15-.87.28a4.12,4.12,0,0,0-.58.38,9.87,9.87,0,0,0-1,.66,4,4,0,0,1-1.16.55c-.07,0-.16,0-.24-.06s-.09-.08-.13-.07a1.37,1.37,0,0,1-1.12-.64.94.94,0,0,0-.44-.19c-.2-.07-.37-.27-.64-.18,0,0-.17-.14-.26-.22l-.46-.43c-.09-.09-.15-.2-.24-.28s-.17-.1-.23-.17a1.34,1.34,0,0,1-.22-.36c-.05-.12,0-.28-.12-.38a.64.64,0,0,1,0-.87c.25-.38.49-.75.72-1.14s.5-.89.76-1.33c.1-.16.06-.22-.11-.26-.7-.14-1.3-.56-2-.75-.39-.11-.7-.45-1.19-.38a4.16,4.16,0,0,1-1.25-.28c-.33-.06-.67-.09-1-.16s-.72-.21-1.08-.28a.53.53,0,0,0-.34.09.66.66,0,0,1-.86-.16.63.63,0,0,1-.86-.07s-.12-.09-.17-.07c-.54.14-.76-.26-1-.61a3.75,3.75,0,0,1-.37-.68c-.06-.19,0-.41-.06-.6s.11-.36.27-.48.06,0,.06-.06c-.06-.43.29-.35.52-.45a2.52,2.52,0,0,0,.43-.32,2.19,2.19,0,0,1,1.06-.26,1.34,1.34,0,0,0,.53-.3c.44-.31.86-.64,1.31-.93a.81.81,0,0,0,.15-1.29c-.22-.2-.4-.45-.62-.64a2.24,2.24,0,0,0-.47-.21l-.61-.28a1.23,1.23,0,0,0-.29-.13,4.43,4.43,0,0,1-1.17-.37,1.19,1.19,0,0,0-.72,0,1.7,1.7,0,0,1-1.17-.2,2.49,2.49,0,0,0-.28-.15,10.13,10.13,0,0,1-1.2-.44,2.76,2.76,0,0,1-1.52-2c-.1-.53.21-.85.4-1.22.1-.18.39-.26.59-.37s.55-.3.84-.43.59-.24.88-.36a1.14,1.14,0,0,1,.34-.15A2.17,2.17,0,0,0,85.46,98a4.6,4.6,0,0,1,.55-.25c.17-.1.13-.29,0-.37a10.48,10.48,0,0,1-1.75-.75,10.14,10.14,0,0,0-2.53-.83,2.49,2.49,0,0,1-.34-.24,7.65,7.65,0,0,0-.75-.18c-.61-.12-1.22-.25-1.84-.31s-1.32-.06-2-.07-1.1,0-1.64,0c-.38,0-.76-.07-1.13-.12a6,6,0,0,1-1-.13c-.38-.09-.75-.23-1.14-.33a2.28,2.28,0,0,1-1-.79,1.26,1.26,0,0,1-.05-1.51s0,0,0,0c.06-.91,1-.82,1.47-1.3,0,0,.27,0,.39.11s.38.33.46-.09c0-.06.19-.15.26-.13a1.2,1.2,0,0,0,1.07-.24c.33-.24.55.06.82.11s.43.33.53-.11c0,0,.16-.09.25-.1.56,0,1.11,0,1.67,0s1.2.09,1.8.16a1,1,0,0,0,1-.32.42.42,0,0,1,.22-.13c.21-.05.43-.05.63-.1a.35.35,0,0,0,.21-.22.33.33,0,0,0-.19-.24c-.39-.08-.79-.14-1.19-.2s-.88-.13-1.33-.18c-.77-.09-1.55-.12-2.3-.26a8.28,8.28,0,0,0-1.79-.1,2.09,2.09,0,0,1-.34-.08,1,1,0,0,0-.34,0,10.81,10.81,0,0,1-3.21-.2c-.71-.14-1.42-.28-2.13-.44a3.75,3.75,0,0,1-.71-.25c-.57-.23-1.14-.46-1.7-.71a4.1,4.1,0,0,1-.88-.47,4.37,4.37,0,0,1-1.22-1.24,2.12,2.12,0,0,1-.4-.89,8.54,8.54,0,0,0-.34-1c0-.13,0-.29,0-.43a4.55,4.55,0,0,1-.09-.73,3.3,3.3,0,0,1,.22-.86,3.6,3.6,0,0,1,.38-.68H63.6a10.5,10.5,0,0,0-1.94.15,14.59,14.59,0,0,1-2,.08c-.58,0-1.17,0-1.76,0a13.82,13.82,0,0,0-1.58.11c-.38.06-.75.2-1.13.3a2.11,2.11,0,0,1-.25,0c-.25,0-.5.07-.75.09s-.67,0-1,0a3,3,0,0,0-.61.12.47.47,0,0,0-.23.25,1,1,0,0,1-1.4.33.77.77,0,0,0-.58,0A1.2,1.2,0,0,1,49.26,82a1,1,0,0,1-.26-.39c-.06-.14-.08-.3-.13-.45s-.13-.4-.19-.61c0,0,0-.1,0-.12.24-.18.48-.36.73-.52.08,0,.19,0,.28,0,.36-.09.43-.2.4-.56a6.24,6.24,0,0,1-.22-1.49,2.72,2.72,0,0,0,0-.57c0-.38-.09-.76-.14-1.14,0,0,0-.08,0-.12,0-.61.07-1.22.09-1.83a1.86,1.86,0,0,0,0-.41,3.18,3.18,0,0,1,.06-1.47c0-.16,0-.35.08-.52a3.86,3.86,0,0,1,.16-.48l.12,0A1.55,1.55,0,0,1,50,71a.59.59,0,0,1-.09-.74.61.61,0,0,0,0-.83c-.12-.15-.26-.32,0-.55.08-.08,0-.35,0-.53a2.87,2.87,0,0,1,0-.41c0-.28,0-.56,0-.84a1.86,1.86,0,0,1,0-.34c.08-.34.17-.68.28-1a2.17,2.17,0,0,1,.27-.4l-.22-.14c0-.28,0-.53,0-.78s.09-.28.11-.42a3.34,3.34,0,0,0,.14-1.69.85.85,0,0,1,0-.35c.07-.45.11-.9.2-1.34a1.22,1.22,0,0,1,.4-.85c.08-.05.09-.2.17-.26.35-.31.71-.08,1.07,0a.38.38,0,0,1,.25.19c.07.13.14.25.2.38a.58.58,0,0,1,0,.18,6.62,6.62,0,0,1-.08,1.27c-.23.89-.12,1.8-.29,2.68a5.12,5.12,0,0,0,0,.79c0,.36-.15.71-.19,1.08-.1.77-.19,1.55-.25,2.32,0,.3,0,.61,0,.92l0,2.26a.76.76,0,0,0,0,.16c0,.2-.15.38,0,.63s0,.4,0,.61,0,.37,0,.56-.06.54-.05.81c0,.52.08,1,.1,1.56,0,.18-.08.37-.06.55s.1.53.13.8c0,.49.12,1,.13,1.47s.06.49.46.45.72,0,1.07,0c.55,0,1.09-.11,1.63-.2.35-.06.68-.23,1-.27.63-.08,1.27-.1,1.9-.15h.13a6.84,6.84,0,0,0,2,0c.17,0,.35,0,.52,0,.46-.05.91-.12,1.37-.16a1.4,1.4,0,0,1,.53.08c.22.07.65-.17.66-.39,0-.48,0-1,0-1.45s.12-.71-.07-1c0,0,0-.12,0-.19.08-.45.19-.9.24-1.36a1.42,1.42,0,0,0-.09-.61c-.11-.29,0-.54,0-.81,0-.56.07-1.13.12-1.69,0-.3.11-.6.16-.9l.3-1.86a3.37,3.37,0,0,1,.12-.48c0-.17.16-.33,0-.5s0-.12,0-.18a8.62,8.62,0,0,0,.39-1.71,7.48,7.48,0,0,1,.29-1c.11-.54.08-1.11.19-1.65s.36-.92.43-1.4a3.45,3.45,0,0,1,.31-.85.14.14,0,0,0,0-.11c-.27-.25-.14-.52-.08-.79a.58.58,0,0,0,0-.22.84.84,0,0,1,.24-.84c-.34-.16-.4-.28-.11-.64a.78.78,0,0,0,.15-.51c0-.4.11-.8.18-1.2s.11-.57.18-.86a.3.3,0,0,1,.08-.16.51.51,0,0,0,.12-.61,1.47,1.47,0,0,1,.13-.66,4.19,4.19,0,0,1,.23-.68A4.45,4.45,0,0,0,67.56,52a2.33,2.33,0,0,1,.55-1.16c.44-.54.32-1.25.63-1.82.12-.23.2-.49.33-.71s.26-.62.64-.72c.06,0,.09-.13.12-.21.3-.54.54-1.12.89-1.64.46-.67,1-1.29,1.5-1.92a11.06,11.06,0,0,0,.79-.9c.26-.44.75-.61,1-1.06s.76-.65,1.16-1a5.21,5.21,0,0,0,1.51-1.41.34.34,0,0,1,.09-.08c.51-.38,1-.78,1.53-1.13s1.18-.74,1.77-1.1a2,2,0,0,0,.34-.23,3.35,3.35,0,0,1,1.2-.72.25.25,0,0,0,.09,0,2.59,2.59,0,0,1,1.17-.67A8.76,8.76,0,0,0,84,34.85c.17-.09.37-.12.53-.22a7.2,7.2,0,0,1,1.85-1c.52-.13,1-.31,1.54-.46,0,0,.1,0,.12,0,.35.25.6,0,.92-.1a11.45,11.45,0,0,1,1.67-.31,6.23,6.23,0,0,0,1-.22,5.11,5.11,0,0,1,1.52-.16,4.57,4.57,0,0,0,1.28,0c.61-.21,1.27,0,1.85-.33a.23.23,0,0,1,.12,0l1.54,0,.22,0,.89,0h.34l1,0s0,0,.06,0a4.22,4.22,0,0,1,1.66.05c.55,0,1.11,0,1.65,0s1.14.24,1.72.33,1.26.18,1.9.24a4.39,4.39,0,0,1,1,0,3.25,3.25,0,0,0,1,.08c.39,0,.78.11,1.17.19.24,0,.48.15.72.21a3.42,3.42,0,0,0,.45,0c.39,0,.78.09,1.18.12s.57,0,.85.07.66.17,1,.25c.16,0,.34,0,.5.06.43.13.87.26,1.3.42s.81.41,1.23.56c.72.25,1.3.78,2.06,1a6.27,6.27,0,0,1,1.13.62c.31.15.65.25,1,.43s.7.23.9.59c0,.07.2.08.29.13a2.62,2.62,0,0,1,.53.33,8.3,8.3,0,0,1,.54.64C124.33,38.56,124.49,38.7,124.7,38.91ZM112.53,78.45a2,2,0,0,1,1.09-.34,2.38,2.38,0,0,0,.59,0,4.87,4.87,0,0,1,2.18.08c.07,0,.17.08.23,0a2.61,2.61,0,0,1,1.7.07,1.51,1.51,0,0,0,.6,0c.4-.06.8-.2,1.21-.24a8.35,8.35,0,0,1,1,.06c.43,0,.86,0,1.28,0a20.85,20.85,0,0,0,2.49.08c.75-.06,1.47.12,2.21.09s1.61.09,2.42.15c.27,0,.33-.11.33-.33a1.88,1.88,0,0,1,0-.41c.07-.45.19-.89.23-1.34.06-.69.07-1.38.11-2.07s.07-1.29.11-1.94.11-1.25.17-1.88c0-.4.11-.81.12-1.21a20.5,20.5,0,0,1,0-2.6,8.68,8.68,0,0,0,.13-1.25c0-.22-.12-.53.21-.67,0,0,0,0,0-.06,0-.29-.09-.58-.12-.87a3.84,3.84,0,0,1,0-.48c0-.07,0-.14,0-.21a8.68,8.68,0,0,0-.12-1.35c-.12-.5.29-1-.08-1.5v0c0-.53,0-1.07,0-1.61a2.68,2.68,0,0,0,0-.4c-.06-.34-.15-.67-.2-1-.12-.79-.22-1.58-.34-2.36,0-.07-.07-.13-.09-.2-.07-.29-.14-.58-.2-.87a2.21,2.21,0,0,0,0-.37c-.1-.27-.23-.53-.33-.79s-.26-.74-.4-1.1-.32-.54-.31-.8a.52.52,0,0,0-.22-.49.71.71,0,0,1-.19-.31c-.17-.46-.34-.91-.5-1.37l-.23-.66a6.45,6.45,0,0,0-.32-.87,4.57,4.57,0,0,0-.48-.86c-.41-.51-.71-1.11-1.07-1.66-.1-.17-.24-.32-.34-.49-.42-.7-.81-1.41-1.26-2.08-.22-.33-.39-.72-.82-.9-.19-.07-.26-.4-.43-.56-.33-.29-.7-.55-1-.81s-.7-.5-1-.76c-.14-.11-.23-.29-.38-.37-.38-.2-.77-.35-1.16-.54-.24-.11-.47-.27-.73-.38s-.55-.17-.81-.28-.73-.37-1.11-.54c-.23-.1-.48-.15-.71-.25s-.23-.22-.37-.26a8.41,8.41,0,0,0-.87-.19l-1.84-.42c-.06,0-.11-.06-.17-.08a2.48,2.48,0,0,0-.39-.1c-.72-.07-1.44-.11-2.16-.19s-1.56-.22-2.33-.32l-2.6-.33c-.38-.05-.77-.11-1.16-.15-.54-.07-1.09-.15-1.64-.2s-1,0-1.45-.08a6.44,6.44,0,0,0-2,.06.72.72,0,0,0-.25.14c-.28,0-.54-.08-.81-.1s-.71,0-1.07,0a5.34,5.34,0,0,1-.69,0,2.42,2.42,0,0,0-1.24.22,1.89,1.89,0,0,1-1.84.15.44.44,0,0,0-.16,0c-.5,0-1,0-1.51.09a11.19,11.19,0,0,0-1.27.31l-1.24.34c-.46.13-.92.24-1.37.4s-.7.31-1.06.46l-.87.36c-.25.09-.5.17-.75.28a12.38,12.38,0,0,0-1.16.56c-.43.23-1,.19-1.32.58a2,2,0,0,1-.41.28,7,7,0,0,0-1.28.78c-.37.35-.8.63-1.2.94l-1.57,1.26c-.25.2-.51.39-.75.61s-.44.47-.68.69-.65.55-.93.86-.55.71-.82,1.07a14.3,14.3,0,0,0-1.39,1.7c-.21.36-.37.74-.59,1.09s-.18.47-.3.69c-.22.4-.48.77-.69,1.18s-.3.72-.46,1.08a5.24,5.24,0,0,1-.4.92,2.51,2.51,0,0,0-.56,1.36,1.86,1.86,0,0,1-.15.65,5.56,5.56,0,0,0-.41,1,16.7,16.7,0,0,1-.49,1.61c-.09.31-.22.61-.31.92s-.2.86-.34,1.29c-.18.59-.4,1.18-.61,1.77a.81.81,0,0,0,0,.15c0,.29-.06.58-.12.87-.12.62-.26,1.24-.4,1.86a2.76,2.76,0,0,1-.08.27c-.07.24-.15.47-.21.71s-.08.45-.12.68-.12.62-.18.92a3.91,3.91,0,0,1-.25,1.12,2.51,2.51,0,0,0-.25,1.21c-.08.12-.21.24-.19.28.21.36,0,.73,0,1.08A11.5,11.5,0,0,1,66,70.79c-.08.49-.15,1-.22,1.47a2.78,2.78,0,0,0-.08.49,3.44,3.44,0,0,1-.07,1.53.26.26,0,0,0,0,.15c.08.37.33.72.06,1.1,0,0,0,.1,0,.16-.08.54-.16,1.08-.26,1.62,0,.2.13.71.28.73.49.07,1,.15,1.48.19s.68-.06,1,0c.55,0,1.09.1,1.64.15a.8.8,0,0,0,.15,0,5.38,5.38,0,0,1,1.32-.1,15.77,15.77,0,0,0,3.22.05.92.92,0,0,1,.5,0c.5.29,1,0,1.37-.06.2.07.37.19.52.17.69-.08,1.39.22,2.06-.1a.16.16,0,0,1,.15,0,23,23,0,0,0,3.52.08l.13,0c.29,0,.59,0,.88-.06L85,78.14a3.07,3.07,0,0,0,.52-.14v.11c.08,0,.16.12.24.12.56,0,1.12-.08,1.68-.08s1.36,0,2,0a.57.57,0,0,0,.18,0,7.22,7.22,0,0,1,.79-.13c.45,0,.91,0,1.36,0,.7,0,1.41-.09,2.11-.08q1.35,0,2.7.15c.5,0,1-.12,1.51.26,0,0,.06,0,.09,0,.22,0,.44-.07.65-.13a.44.44,0,0,1,.61.29l.28-.38a3.89,3.89,0,0,1-.72,0c-.54-.13-1.07-.3-1.59-.47a6.73,6.73,0,0,1-.91-.39,7,7,0,0,1-.81-.52c-.27-.21-.53-.44-.78-.66s-.18-.32-.43-.28c-.06,0-.16-.19-.23-.29s-.06-.17-.12-.23a4,4,0,0,1-.5-.41,2.59,2.59,0,0,1-.53-.93,1.07,1.07,0,0,1,.36-1.19.37.37,0,0,1,.29,0c.27.13.53.28.8.43h.06c.31-.21.36.1.49.25s.36.47.56.68.44.36.65.55a3.34,3.34,0,0,0,.35.4c.17.12.38.17.56.28a4.07,4.07,0,0,0,2.38.59,3.12,3.12,0,0,1,.91.08A2.24,2.24,0,0,0,102,76c.26-.1.49-.31.76-.4s.62-.06.74-.43c0,0,0,0,.08,0l.9-.68s.07-.11.12-.13a1.56,1.56,0,0,0,.87-.62c0-.07.17-.1.26-.14.28-.12.62-.19.64-.53l.54-.14a2.32,2.32,0,0,1,.21.77,4.11,4.11,0,0,1-.37,1.75c-.2.35-.35.72-.77.86a2.22,2.22,0,0,0-.53.19c-.27.19-.5.44-.78.62s-.68.65-1.21.58c-.06,0-.12,0-.17.07l-.64.26a4.5,4.5,0,0,1-.49.14.65.65,0,0,0,.37.15c.72,0,1.44,0,2.15,0s1.51.09,2.27.13c.11,0,.23,0,.33,0s.26.11.39.11a1.58,1.58,0,0,0,.42-.09l0,0c.11.32.28.06.42,0,.06.24.31.35.46.17.4-.47,1-.13,1.41-.31,0,0,.11.1.13.13a1.35,1.35,0,0,1,.29-.09c.42,0,.85,0,1.27-.06C112.26,78.28,112.43,78.12,112.53,78.45ZM130,81.26a1.07,1.07,0,0,1-.36.1c-.3,0-.6-.07-.9-.11a6,6,0,0,0-1.63-.13c-.62.09-1.22-.25-1.82,0,0,0-.07,0-.11,0a4.17,4.17,0,0,0-.49-.08c-.28,0-.57,0-.85,0a4.91,4.91,0,0,0-1.53,0,4.14,4.14,0,0,1-.61,0h-.3c-.22,0-.43,0-.64,0-.58,0-1.15-.12-1.73-.13-.34,0-.69.11-1,.11a9.76,9.76,0,0,0-1.52-.09c-.47.06-.94-.29-1.39.05,0,0-.1,0-.15,0-.32,0-.64-.05-1,0a9.72,9.72,0,0,1-1.18.14c-.38,0-.75.31-1.12,0,0,0-.06,0-.09,0a1.43,1.43,0,0,1-.82,0c-.17,0-.36.06-.55.06-.5,0-1,0-1.51,0s-1,0-1.43-.07l-.91,0a4.94,4.94,0,0,1-1,0,6.44,6.44,0,0,0-2-.06l-1,0a9.41,9.41,0,0,0-1.19,0,4.25,4.25,0,0,1-1.55,0,1.5,1.5,0,0,0-1.14,0,.26.26,0,0,1-.15,0l-1.38-.26h-.15c-.31,0-.62,0-.93,0-.81,0-1.62-.09-2.43-.1s-1.58.05-2.37.07c-.33,0-.65,0-1,0s-.74.08-1.11.08a13.64,13.64,0,0,0-2,0c-.6.09-1.19-.22-1.78,0,0,0-.1,0-.15,0H83.7c-.16,0-.31.07-.47.07-.59,0-1.18.07-1.77.07s-1-.06-1.47-.08a10.29,10.29,0,0,0-1.11,0c-.42,0-.85.09-1.28.12-.62,0-1.24,0-1.86,0s-1.46,0-2.19-.07a2,2,0,0,1-.41-.09,1,1,0,0,0-.24,0c-.83,0-1.65,0-2.47,0s-1.47-.08-2.21-.1a2.84,2.84,0,0,0-.92.06,2.51,2.51,0,0,0-1.19.78,2.65,2.65,0,0,0-.81,1.27,1.58,1.58,0,0,0,0,.75,1.76,1.76,0,0,0,.39.57,2.32,2.32,0,0,0,.43.4,6.46,6.46,0,0,0,1.08.74,12,12,0,0,0,1.54.49A9.2,9.2,0,0,0,70,86c.8.12,1.61.18,2.41.27a2,2,0,0,1,.24,0v0l-.34,0a.56.56,0,0,0,.9.17c.08-.07.19-.18.25-.16a2.93,2.93,0,0,0,1.25,0,6.42,6.42,0,0,1,1.51.07l2.11.18a1.52,1.52,0,0,1,.21,0c.38.07.76.13,1.14.21a4.19,4.19,0,0,1,.47.14.72.72,0,0,0,.33,0h.87a.58.58,0,0,1,.19,0l1.54.32c.22,0,.46,0,.58.29,0,.06.17.07.26.09s.23,0,.3.08a8,8,0,0,1,.66.64s0,.13,0,.2c-.09.35-.17.69-.28,1a2,2,0,0,1-.86,1,3.23,3.23,0,0,1-.85.25l-.69.21a4.61,4.61,0,0,1-1.6.46,2,2,0,0,0-.83.14,1.8,1.8,0,0,1-1.33-.08,2.09,2.09,0,0,0-.36-.07l-.6-.06a6.05,6.05,0,0,0-.95,0,15.6,15.6,0,0,1-1.8.15,7,7,0,0,0-1.94.39.4.4,0,0,0-.35.49c.07.26.33.29.58.25a1.81,1.81,0,0,1,1.17.11.52.52,0,0,0,.25,0,3,3,0,0,1,1.37,0,.8.8,0,0,0,.21,0c.55,0,1.09-.08,1.64-.07s1.34.12,2,.11a8.14,8.14,0,0,1,2,.42c.46.1.88.33,1.34.45s.73.39,1.2.38c.24,0,.5.23.75.36a.36.36,0,0,1,.15.15c.08.19.22.21.4.23s.58.05.7.21a.69.69,0,0,0,.65.27l.52.42a1.43,1.43,0,0,0,.27.23c.28.12.4.4.64.57a2.84,2.84,0,0,1,.62,1s0,.08,0,.11c0,.34-.33.45-.53.64a1.81,1.81,0,0,1-.55.4c-.42.16-.86.25-1.29.39a1.54,1.54,0,0,0-.31.21,2.36,2.36,0,0,1-.4.24c-.25.07-.53.06-.77.15a11.55,11.55,0,0,0-1.13.52,3.94,3.94,0,0,0-.48.34,1.57,1.57,0,0,0,.46.28c.49.12,1,.18,1.47.29s1,.23,1.43.35A7.14,7.14,0,0,1,88,102a4.14,4.14,0,0,1,1.06.47c.21.17.49.24.53.57.44-.16.61.16.81.39a6.07,6.07,0,0,0,.59.73,4.25,4.25,0,0,1,.82.93,1.62,1.62,0,0,1-.14,1.68,2,2,0,0,0-.27.38,2.13,2.13,0,0,1-1.19,1.11,1.46,1.46,0,0,0-.33.24c-.07.06-.13.16-.21.17a4.11,4.11,0,0,0-1.23.44l-.73.42.1.1c.72.07,1.45.12,2.17.21.18,0,.35.15.54.18s.53,0,.79.07.64.14,1,.22.71.17,1,.27a8,8,0,0,1,.82.29c.19.07.37.2.56.26s.44.09.65.17a3.68,3.68,0,0,1,.57.26c.64.31,1.27.61,1.89,1a.65.65,0,0,1,.26.44,1.74,1.74,0,0,1-.69,1.42.88.88,0,0,0-.22.25c-.37.54-.72,1.1-1.09,1.64-.23.33-.21.52.13.72s.67.35,1,.54a.63.63,0,0,0,.77-.12,3.33,3.33,0,0,1,.39-.24v.28l1-.56a4.31,4.31,0,0,1,1.26-.5c.39-.08.89-.07,1.09-.58,0-.09.18-.13.28-.18.27-.16.56-.3.82-.48s.2-.38.08-.59a6.52,6.52,0,0,1-.48-.8,3.82,3.82,0,0,1-.5-1.84c0-.23.11-.5-.11-.72,0,0,0-.12,0-.18l.33-.55c.08-.15.12-.35.25-.43a4.7,4.7,0,0,1,1.31-.77c.35-.11.38-.63.82-.53.1-.32.43-.26.6-.24a2.63,2.63,0,0,0,1.09-.23c.23-.06.45-.17.67-.21s.41-.17.59-.21a3.64,3.64,0,0,1,1,.06l.39-.19c.2-.1.42-.18.61-.3.38-.27.54-.3.87-.1a3.89,3.89,0,0,1,2.19-.59s.08-.07.13-.11c.21-.14.34-.43.68-.28a.75.75,0,0,0,.47,0c.15,0,.28-.16.43-.21a4.66,4.66,0,0,1,1-.27,1.69,1.69,0,0,0,.76-.37c.27-.18.56-.33.91-.53l-.49-.34c-.25-.18-.5-.36-.76-.53s-.28-.09-.37-.18-.3-.15-.38-.05l-.77-.06,0-.27-.62.06c0-.11,0-.15,0-.17.16-.33.16-.32-.19-.38a1.32,1.32,0,0,1-.59-.15,7.5,7.5,0,0,1-1-1,5.88,5.88,0,0,1-.9-1.58,1.56,1.56,0,0,1,.14-1.46,3.66,3.66,0,0,1,1.54-1.15c.15-.06.32-.08.48-.13a2.7,2.7,0,0,0,.5-.18,2.06,2.06,0,0,1,1.67-.31l.21-.41.23.29,0-.3c.18,0,.39,0,.46,0a.79.79,0,0,1,.51-.28,4.43,4.43,0,0,0,.69-.19l0,.22.53-.36c.11.23.26.26.48.08a.8.8,0,0,1,.52-.18.46.46,0,0,0,.43-.09s.15,0,.21-.07c.27-.21.58.28.84-.05a.53.53,0,0,0,.79-.41c.16,0,.29.07.38,0,.5-.22,1-.44,1.46-.69a.34.34,0,0,0,.17-.29c0-.09-.14-.21-.24-.25a2.34,2.34,0,0,0-.59-.09c-.67,0-1.25-.44-1.93-.43,0,0,0,0-.05,0-.53-.29-1.07-.57-1.6-.88a6.62,6.62,0,0,1-.64-.44,1.24,1.24,0,0,1-.29-.2c-.06-.06-.08-.15-.14-.21a3.33,3.33,0,0,1-.85-1.68c-.1-.48,0-.7.35-.91a1.27,1.27,0,0,0,.12-.1c.31-.2.74-.15,1-.51,0,0,.08,0,.12,0a.37.37,0,0,0,.18,0c.27-.18.52-.4.81-.56a3.21,3.21,0,0,1,.7-.24s.13,0,.16-.06a1.36,1.36,0,0,1,.8-.42,1.22,1.22,0,0,0,.4-.15,1,1,0,0,1,.76-.13,2.54,2.54,0,0,0,.87,0c.16,0,.3-.2.46-.21.35,0,.71,0,1.07,0,.09,0,.13-.11.21-.19s.14-.14.18-.13a1.86,1.86,0,0,0,1.2-.25l.46-.18.44-.14c.17,0,.36-.22.51,0a.2.2,0,0,0,.17,0,5.11,5.11,0,0,1,.64-.27c.32-.12.54-.15.7,0l.83,0a.71.71,0,0,0,.21,0,.49.49,0,0,1,.68.15.78.78,0,0,0,0-.15l1.25-.29a2.4,2.4,0,0,0,.38-.12l1.06-.44c.1,0,.17-.16.28-.23.39-.24.8-.46,1.18-.72a.83.83,0,0,0,.34-.41c0-.11-.15-.29-.27-.37s-.51-.23-.76-.37a6.09,6.09,0,0,0-1.1-.42,8.46,8.46,0,0,1-1.25-.52,6,6,0,0,1-.62-.41s-.12,0-.19,0l-.29-.07Zm-30.07-3c.22,0,.44.23.7.08.07,0,.08-.17.13-.26-.13,0-.27-.12-.37-.09A2,2,0,0,0,99.92,78.3Z"/><path class="cls-4" d="M52.87,54l-.07-.13a4.09,4.09,0,0,0,.12-.41c0-.06,0-.14.06-.18.39-.34.26-.87.5-1.28a6.84,6.84,0,0,0,.33-1.22,6,6,0,0,1,.37-.77s.06-.06.07-.1c.06-.66.58-1.11.82-1.69.09-.22.19-.43.27-.66s.2-.52.28-.79a.69.69,0,0,0,0-.32,2.2,2.2,0,0,1-.06-.5,1,1,0,0,1,.23-.43c.15-.16.31-.3.19-.46.09-.25.15-.44.23-.63l.37-.93c.08-.21.13-.43.21-.63a1.1,1.1,0,0,1,.18-.26s.13-.11.13-.16c0-.46.33-.73.52-1.08a3.45,3.45,0,0,1,.72-1c.09-.08,0-.31.08-.48a.42.42,0,0,1,.1-.2c.15-.19.31-.37.47-.55l1.12-1.14.54-.54c.36-.39.74-.76,1.08-1.17s.41-.59.64-.88.38-.43.59-.64.31-.23.45-.35l1.35-1.16a7.11,7.11,0,0,1,.62-.46,8.31,8.31,0,0,0,1.23-1.14,12.47,12.47,0,0,1,1-.74l.64-.49.31-.2,1-.74c.17-.12.37-.2.55-.31a.9.9,0,0,0,.28-.2,2.55,2.55,0,0,1,1.1-.79.24.24,0,0,0,.12-.1,1.56,1.56,0,0,1,.74-.49c.54-.25,1-.64,1.58-.87a10.13,10.13,0,0,1,1.8-.91,3.18,3.18,0,0,0,.66-.34c.7-.35,1.39-.71,2.1-1a8.49,8.49,0,0,1,2.1-.24c.3,0,.43.18.31.46,0,0-.06.05-.06.07.14.75-.56.82-.93,1.17s-.58.23-.86.38c-.72.37-1.46.7-2.19,1.07-.51.25-1,.53-1.5.79a1.21,1.21,0,0,1-.32.11,4.29,4.29,0,0,0-1.33.8c-.36.22-.74.41-1.09.65s-.51.45-.77.66-.5.38-.75.57l-.06,0c-.41.31-.8.63-1.21.93s-.64.45-1,.67l-.13.08-1,.85c-.17.16-.36.29-.53.44s-.46.42-.69.61c-.64.52-1.29,1-1.9,1.56a14.59,14.59,0,0,0-1,1.17c-.41.45-.83.88-1.24,1.32s-.6.61-.86,1c-.38.52-.73,1.08-1.09,1.62a14.93,14.93,0,0,0-.93,1.41c-.39.71-.7,1.47-1.06,2.2-.21.43-.45.86-.68,1.29v0c.06.46-.24.82-.38,1.22a5.05,5.05,0,0,1-.51,1.37,5.06,5.06,0,0,0-.36,1.14c-.2.57-.4,1.15-.62,1.72-.15.38-.36.73-.53,1.09,0,.11-.06.22-.1.33s-.14.25-.21.38-.1.14-.1.21a5.49,5.49,0,0,1,0,.91c-.12.53-.29,1-.45,1.56-.07.19-.16.38-.25.57s-.06.12-.11.13a1.53,1.53,0,0,1-1.43-.23s-.12-.15-.1-.18c.21-.36-.08-.66-.1-1a2.64,2.64,0,0,1,.06-.63c.06-.24.15-.46.23-.69Z"/><path class="cls-4" d="M107.11,20.19l.27.24a.82.82,0,0,0,.1-.17c.06-.29.24-.25.39-.11s.31.29.51.06a.17.17,0,0,1,.12,0c.45,0,.9-.17,1.34.08,0,0,.19,0,.2-.09,0-.22.19-.25.38-.24a2.36,2.36,0,0,1,1.17.2c.11.07.29,0,.42.05.32.12.62.29.94.41s.55.16.78.23c0,.06-.09.17-.06.24.09.23,0,.3-.21.35a1.33,1.33,0,0,0-.29.17l.38.21c0,.21-.08.29-.31.31-.41,0-.81.14-1.22.2a1.57,1.57,0,0,1-.53,0,6.3,6.3,0,0,0-1.18-.23,11,11,0,0,0-1.6.21.69.69,0,0,1-.28,0c-.35-.1-.72.18-1.07-.06a.14.14,0,0,0-.09,0,2.17,2.17,0,0,1-1.21,0c-.36,0-.72-.15-1.08-.19a5.75,5.75,0,0,0-2,.14,10.33,10.33,0,0,1-1.26.14l-.6.12-1,.18a2.32,2.32,0,0,1-.46.07,2,2,0,0,1-.55,0c-.31-.07-.6-.18-.89-.26a.34.34,0,0,0-.39.11.72.72,0,0,1-.54.14,2.41,2.41,0,0,0-1,.12c-.53.09-1.05.2-1.57.31a.32.32,0,0,0-.2.07c-.28.27-.63.2-1,.19a14.57,14.57,0,0,0-1.75,0,10.58,10.58,0,0,0-1.85.43c-.53.17-1,.47-1.54.64a7.91,7.91,0,0,1-1.37.27,5.84,5.84,0,0,1-.73,0,.87.87,0,0,1-1-.66,2.2,2.2,0,0,0-.15-.31c-.1-.14,0-.67.13-.73a3.25,3.25,0,0,1,.74-.2c.38-.05.77,0,1.14-.08a5.16,5.16,0,0,0,.81-.34,3.26,3.26,0,0,1,.44-.15l1.17-.29a.17.17,0,0,0,.1-.06,1.63,1.63,0,0,1,1.43-.44,5.36,5.36,0,0,0,.94-.18,6,6,0,0,1,.74,0,14.93,14.93,0,0,0,2-.35c.32,0,.64-.14,1-.18s.56,0,.84,0a3.56,3.56,0,0,0,.58-.19,1.36,1.36,0,0,1,.51-.1,14.67,14.67,0,0,0,2.48,0,6.66,6.66,0,0,0,.77,0,7.72,7.72,0,0,0,.93-.2,5.45,5.45,0,0,1,.58-.14A1,1,0,0,0,103,20c.14-.11.43,0,.63-.07a3.1,3.1,0,0,1,1.25,0c.2,0,.4.06.59.09.41.07.82.15,1.24.2A1.23,1.23,0,0,0,107.11,20.19Z"/><path class="cls-4" d="M147.12,60.86l-.4.24a8.49,8.49,0,0,1-.22-.82c0-.11.11-.23.11-.38l-.12.21s-.08,0-.08,0a1,1,0,0,0-.34-.76c-.1-.09-.06-.34-.08-.52a8.6,8.6,0,0,1-.15-.86c0-.54,0-1.08,0-1.62a2.07,2.07,0,0,1,0-.35c0-.08.06-.2,0-.24-.25-.31-.06-.67-.13-1a1.44,1.44,0,0,1,0-1,.21.21,0,0,0-.08-.15c-.3-.11-.28-.38-.24-.57a.94.94,0,0,0-.16-.62c-.15-.33-.27-.67-.4-1s-.13-.42-.21-.62c-.15-.39,0-.85-.31-1.2a.1.1,0,0,1,0-.09c.08-.61-.29-1.11-.41-1.67a12.38,12.38,0,0,0-.56-1.79c-.2-.51-.29-1-.47-1.57-.09-.25-.3-.46-.4-.71a4.18,4.18,0,0,1-.17-.78.65.65,0,0,1,.28-.68,1.08,1.08,0,0,1,1.08-.29s.09,0,.1.06c.22.52.8.76.95,1.34a2.5,2.5,0,0,0,.46.65.54.54,0,0,1,.11.18c.17.44.33.88.49,1.33.09.28.16.58.26.87a1.31,1.31,0,0,0,.26.3s-.08.11-.06.13c.23.36.11.79.25,1.17s.19.62.3.93.29.7.4,1.07a7.94,7.94,0,0,1,.13.83c0,.1.1.19.11.28.15.74.3,1.47.43,2.21.08.44.16.88.21,1.33a14.69,14.69,0,0,1,.17,2.19,2.13,2.13,0,0,0,.11,1.12.17.17,0,0,1,0,.12,1.38,1.38,0,0,0,.08,1.09,1.3,1.3,0,0,1,0,.78,2.29,2.29,0,0,1-.57,1c-.26.23-.42.16-.61,0Z"/><path class="cls-4" d="M137.51,33.29a4.38,4.38,0,0,1,.46.33c.15.15.17.3-.08.42-.08,0-.12.19-.17.29s0,.13,0,.19-.12.22-.18.33c-.13-.08-.34-.08-.29-.32l-.06,0c-.06.25-.15.42-.38.12,0,0-.09,0-.11,0-.31.2-.49-.1-.73-.18s-.45-.59-.87-.62c0-.37-.44-.4-.57-.68a.11.11,0,0,0-.08-.07.73.73,0,0,1-.71-.53,1.42,1.42,0,0,1-1.09-.7c-.25.09-.4-.12-.59-.21s-.46-.26-.69-.39c0,0-.1,0-.11-.05-.24-.37-.67-.4-1-.58s-.84-.49-1.28-.72-.93-.44-1.4-.65-1-.4-1.48-.66a1,1,0,0,1-.6-.84.22.22,0,0,0,0-.14c-.3-.25-.18-.51,0-.75s.33-.43.66-.28a.22.22,0,0,0,.21,0c.27-.18.46,0,.67.12s.68.3,1,.45a4.85,4.85,0,0,0,.87.33,6.29,6.29,0,0,1,1.51.76,1.42,1.42,0,0,0,.62.2,1.94,1.94,0,0,1,1,.42c.39.23.76.49,1.14.73a3.71,3.71,0,0,1,1,.68c.34.45.84.53,1.29.76,0,0,.07,0,.07,0,.08.39.34.51.69.55.07,0,.12.16.19.23.28.29.68.46.77.92,0,.14.17.25.27.38Z"/><path class="cls-4" d="M148.31,70.4c0,.37.08.74.11,1.11a5,5,0,0,1,0,.67c0,.59,0,1.19,0,1.79a7.36,7.36,0,0,1-.29,1.19.4.4,0,0,1-.16.18.55.55,0,0,0-.29.49.71.71,0,0,1-.61.56c-.28,0-.39-.17-.48-.38a2.16,2.16,0,0,1-.16-1.52,1.35,1.35,0,0,0-.1-.54c0-.09-.06-.17-.08-.26s-.06-.43-.08-.65a.43.43,0,0,1,0-.19c0-.07.08-.14.07-.2,0-.29-.09-.58-.14-.87,0,0,0-.07,0-.1,0-.81,0-1.63,0-2.45a2.74,2.74,0,0,0-.16-1.23,1.47,1.47,0,0,1,0-.63c0-.53.1-1.07.11-1.61a1.23,1.23,0,0,1,1-1.1c.09,0,.19-.08.27-.06a.63.63,0,0,1,.31.17,2.15,2.15,0,0,1,.35.5,2.12,2.12,0,0,1,.21.66c.07.66.14,1.32.15,2s-.1,1.1-.1,1.64a4.08,4.08,0,0,0,.17.83Z"/><path class="cls-4" d="M127.09,34.49c.18.56,0,.75-.53.83a2.69,2.69,0,0,1-1.52-.38c-.75-.35-1.54-.62-2.28-1a16.3,16.3,0,0,0-2.44-.58,15,15,0,0,1-1.51-.54c-.2-.09-.32-.38-.46-.59s-.09-.26-.15-.38a.53.53,0,0,1,.08-.66,3.75,3.75,0,0,0,.33-.52l1.5.34c.23.06.46.14.69.18.4.08.82.11,1.22.2a5.56,5.56,0,0,1,1.59.41,9.48,9.48,0,0,0,1.06.37c.12,0,.23.14.35.19.38.18.78.35,1.16.54.1.05.16.2.24.29l.75.77C127.37,34.18,127.29,34.35,127.09,34.49Z"/><path class="cls-4" d="M109.29,27a5.5,5.5,0,0,0,.1.59.87.87,0,0,1-.47,1,3.51,3.51,0,0,1-.53.15,10.9,10.9,0,0,1-1.14.07c-.71,0-1.43-.08-2.14,0-.5,0-1,.15-1.49.21a7.58,7.58,0,0,1-1.9.21,8.81,8.81,0,0,0-.89,0c-.3,0-.58,0-.64-.42,0-.07-.1-.13-.14-.21-.36-.78-.31-1,.39-1.56a.31.31,0,0,1,.23,0,2.57,2.57,0,0,0,2-.22,1.59,1.59,0,0,1,.5-.07.27.27,0,0,0,.16,0c.26-.21.51-.11.78,0a.84.84,0,0,0,.47,0,1.6,1.6,0,0,1,1.08,0,1.54,1.54,0,0,0,.74,0,3.58,3.58,0,0,1,1.75.07A10.59,10.59,0,0,0,109.29,27Z"/><path class="cls-4" d="M59,74.91a1,1,0,0,1-1.22.15.58.58,0,0,1-.22-.22,4.84,4.84,0,0,1-.36-.72,1.22,1.22,0,0,1,0-.47c0-.41,0-.81,0-1.21,0-.18-.19-.35-.18-.51,0-.61.11-1.22.19-1.82,0-.43.15-.85.22-1.28s.15-.86.23-1.28c.12-.62.23-1.24.37-1.84.08-.32.15-.68.57-.74A1.37,1.37,0,0,1,59,65a3.25,3.25,0,0,1,.42.11s.1,0,.12,0c.15.32.5.55.42,1-.13.67-.3,1.32-.41,2-.07.48-.05,1-.11,1.48s-.17,1-.25,1.53c0,.19,0,.38,0,.57s-.12.49-.15.74a1.6,1.6,0,0,1-.21.9s.08.2.09.31c0,.33,0,.67,0,1A1.92,1.92,0,0,0,59,74.91Z"/><path class="cls-4" d="M137.59,47.72l.13.62-.47.93a1.5,1.5,0,0,1-.51,0,1.52,1.52,0,0,1-.42-.31,2.72,2.72,0,0,1-.91-1.32.94.94,0,0,0-.23-.33.64.64,0,0,1-.14-.39c0-.2-.28-.36-.44-.53s-.12-.08-.12-.11c0-.24-.13-.32-.27-.46a9.91,9.91,0,0,1-.9-1c-.33-.4-.66-.8-.95-1.23a5.29,5.29,0,0,1-.54-1.06A.41.41,0,0,1,132,42c.16-.08.25-.29.4-.4a1.23,1.23,0,0,1,1.09.05c.28.23.59.43.85.68s.41.5.63.75a1.84,1.84,0,0,0,.22.17.53.53,0,0,1,.15.15c.12.23.21.48.35.7a5.89,5.89,0,0,0,.42.45,5.75,5.75,0,0,1,.46.64,4.27,4.27,0,0,1,.3.51,10.81,10.81,0,0,1,.57,1.19,3,3,0,0,1,.06.79Z"/><path class="cls-4" d="M139.57,63.47a3.23,3.23,0,0,1-.58-.42,2.84,2.84,0,0,1-.42-.66,1.63,1.63,0,0,1-.06-.45,1.48,1.48,0,0,0,0-.21l-.15-.94L138.2,60a5.31,5.31,0,0,1-.08-.67c0-.6,0-1.2,0-1.79,0-.39-.05-.79-.09-1.18s0-.43.3-.5a.33.33,0,0,0,.2-.2.39.39,0,0,1,.47-.28,1.83,1.83,0,0,1,1.34.93,1.28,1.28,0,0,1,.17.82c0,.25.13.54.14.81,0,.56,0,1.12,0,1.67s.16.85.22,1.28a8.47,8.47,0,0,1,0,1.13c0,.38-.09.76-.12,1.14s-.15.51-.67.51a3.53,3.53,0,0,1-.54,0S139.56,63.46,139.57,63.47Z"/><path class="cls-4" d="M148.55,101.56l-.62.14a.74.74,0,0,1-.86-.18,2.64,2.64,0,0,0-.64-.43c-.14.24-.24.06-.42-.09a10.32,10.32,0,0,0-1.06-.71l-.49.11a.68.68,0,0,1-.45.6.21.21,0,0,0-.1.11c-.15.58-.69.8-1,1.17-.15.15-.41.36-.67,0-.07.21-.16.33-.41.23s-.33,0-.47,0a1.05,1.05,0,0,1-.44-1.45,1.42,1.42,0,0,1,.76-.63,2.31,2.31,0,0,0,.56-.44c.33-.31.67-.62,1-1a7.51,7.51,0,0,0,.66-.83.81.81,0,0,1,.87-.41c.54,0,.82.43,1.22.66a11.84,11.84,0,0,0,1.3.88,3.83,3.83,0,0,1,1.09.8,1,1,0,0,1,.25.57A5.74,5.74,0,0,1,148.55,101.56Z"/><path class="cls-4" d="M91,29.63l.4.16L90.69,31l-.4-.19c.2.28,0,.34-.19.36-.68.05-1.36.08-2,.15-.38,0-.75.17-1.13.23s-1,.11-1.46.18L84,32a1.17,1.17,0,0,1-1.37-.88,1.14,1.14,0,0,1,.13-1.08,1,1,0,0,1,.58-.32c.42-.09.86-.1,1.28-.15l2.22-.28a9,9,0,0,1,1.52-.22c.4,0,.76-.11,1.14-.12a1.45,1.45,0,0,1,.26.07c.21.06.38.26.66.1S91,29.31,91,29.63Z"/><path class="cls-4" d="M63.62,49.64c-.29,0-.48-.13-.48-.42,0,0-.07-.1-.1-.15a.69.69,0,0,1-.17-.74,1.74,1.74,0,0,0,0-.64.83.83,0,0,1,0-.27c0-.27.11-.54.17-.8a.25.25,0,0,1,.08-.14c.34-.22.33-.63.49-.94a3,3,0,0,1,.65-1.08c.06-.05.07-.15.1-.22s.09-.29.18-.35a1.27,1.27,0,0,0,.48-.82.35.35,0,0,1,.09-.16c.41-.32.55-.82.88-1.19a.69.69,0,0,1,.48-.25,1.24,1.24,0,0,1,.92.47,1.1,1.1,0,0,1,.34.79,1.77,1.77,0,0,1-.51,1.17c0,.07-.16.12-.17.19-.06.61-.54,1-.8,1.52-.15.31-.31.62-.46.94,0,0,0,.07,0,.08-.6.42-.61,1.21-1.09,1.72-.16.18-.21.48-.43.68s0,.35-.21.43A2.53,2.53,0,0,0,63.62,49.64Z"/><path class="cls-4" d="M77.42,34.72c0,.23-.12.43-.45.5-.1,0-.16.18-.25.26-.25.24-.5.5-.77.72a9.8,9.8,0,0,1-.85.58,19.16,19.16,0,0,0-1.64,1.34,14.76,14.76,0,0,1-1.7,1.07,2,2,0,0,1-.56.24.48.48,0,0,1-.63-.42c0-.31-.06-.61-.11-.92,0-.07-.11-.14-.11-.21a1.38,1.38,0,0,1,.08-.45c.41,0,.54-.39.82-.57l.61-.39a5.32,5.32,0,0,0,1.53-1.27,1.57,1.57,0,0,1,.55-.37c.27-.16.55-.29.82-.45a2.53,2.53,0,0,0,.26-.22l.89-.71c.35-.26,1,0,1.18.34S77.47,34.43,77.42,34.72Z"/><path class="cls-4" d="M49.76,90.93l-1,.81a.42.42,0,0,1-.23.13c-.2,0-.29,0-.35.25s-.3.23-.47.25A2.15,2.15,0,0,1,46.12,92a1.4,1.4,0,0,1-.6-1.27.3.3,0,0,0,0-.1c-.16-.56-.11-.6.49-.67a1.34,1.34,0,0,1,1.07.5s.06.07.1.08a1.89,1.89,0,0,0,1.06-.21,2.55,2.55,0,0,1,.37-.19l.24-.12c.06,0,.11-.1.17-.13s.27,0,.31-.1a5.91,5.91,0,0,0,.39-.8,2.2,2.2,0,0,0,.06-.37c0-.08.07-.19.13-.21a3.17,3.17,0,0,1,.85-.15c.17,0,.33.19.48.3s.08.15.13.21a2.27,2.27,0,0,0,.41.41.68.68,0,0,1,.42.57.71.71,0,0,0,.22.38c.35.37.73.72,1.09,1.08a2,2,0,0,1,.45.6c.25.57-.14,1.07-.8,1a1.33,1.33,0,0,1-1-.51c-.41-.52-.84-1-1.29-1.52a.92.92,0,0,0-.77-.36A.36.36,0,0,0,49.76,90.93Z"/><path class="cls-4" d="M139.56,89a1.81,1.81,0,0,1,.72.08,5.39,5.39,0,0,1,.86.67,9.88,9.88,0,0,1,.74.71c.18.2.32.43.49.65a2.27,2.27,0,0,1,.49.92c.07.39,0,.53-.36.57a.37.37,0,0,0-.2.13c-.16.23-.33.21-.51,0s-.24-.31-.44-.09c0,0-.16,0-.21-.07-.29-.28-.57-.56-.84-.85s-.31-.25-.55,0a6.68,6.68,0,0,0-1.06,1.48c-.05.1-.14.18-.21.29l-.28-.16c.09.43-.13.64-.41.87s-.14.38-.23.57-.31.62-.68.74c-.08,0-.13.13-.2.14a.53.53,0,0,1-.33,0c-.18-.07-.33-.2-.51-.26a.38.38,0,0,1-.24-.48,3.59,3.59,0,0,1,.3-1.19c.12-.23.47-.34.72-.51.08-.06.19-.13.2-.21,0-.32.09-.36.41-.22h.1c.15-.24.21-.58.59-.61,0,0,0-.07.05-.11a2.15,2.15,0,0,1,.8-1.2.42.42,0,0,0,.11-.15C139.11,90.15,139.33,89.57,139.56,89Z"/><path class="cls-4" d="M136.43,75.89c.08-.59.16-1.2.25-1.81,0,0,0-.07,0-.09a2.13,2.13,0,0,1-.1-1.06,4.9,4.9,0,0,1,.2-2c0-.06.1-.09.15-.15s.22-.18.26-.3a.57.57,0,0,1,.87-.27,3.25,3.25,0,0,1,.61.46,2.35,2.35,0,0,1,.41.93,6.5,6.5,0,0,1,0,1.32c-.05.61-.11,1.22-.22,1.82a3.89,3.89,0,0,0,0,.69c0,.45.17,1-.27,1.35-.12.11-.16.3-.26.44-.23.31-.41.34-.76.17a1,1,0,0,0-.34-.09.85.85,0,0,1-.7-.72A6.39,6.39,0,0,0,136.43,75.89Z"/><path class="cls-4" d="M66,105.54l.53,0c-.39.24-.53.74-1.08.53l.12-.27c-.14.06-.23.08-.27.13s-.22.15-.32,0-.2-.2-.29-.31a1.44,1.44,0,0,1-.32-.48c-.09,0-.21-.06-.27-.13a3.79,3.79,0,0,0-.61-.7,2.16,2.16,0,0,0-.86-.26.86.86,0,0,0-.3,0c-.06.22-.13.46-.46.42,0,0-.09.12-.13.18s-.23.43-.35.63-.19.18-.24.29a2.21,2.21,0,0,1-.77.72.42.42,0,0,1-.33,0,3,3,0,0,1-.49-.18c-.06-.22-.13-.47-.18-.73s.29-.5.48-.71.31-.27.46-.42l2.16-2.24c.19-.19.39-.07.57,0a2.37,2.37,0,0,1,.36.17l.87.59a2,2,0,0,0,.3.21.53.53,0,0,1,.37.42.63.63,0,0,0,.25.34c.19.18.44.29.47.59,0,.08.09.15.15.21C66.11,104.86,66.34,105.12,66,105.54Z"/><path class="cls-4" d="M62,55c-.14.66-.27,1.33-.42,2a3.75,3.75,0,0,1-.24.6,3.8,3.8,0,0,0-.24.5c-.13.65-.26,1.3-.33,2,0,.3-.28.35-.39.54a2.53,2.53,0,0,1-.23.26c-.53.16-.74-.22-1-.63a2.63,2.63,0,0,1-.26-1.13,2,2,0,0,0-.14-.38s.08-.12.06-.19a2.34,2.34,0,0,1,.46-1.78c.16-.24.11-.61.21-.9a3.82,3.82,0,0,1,.36-1c.11-.18.27-.33.37-.51a.12.12,0,0,1,.09-.08c.38,0,.76,0,1.14.09.07,0,.14.15.19.24s.17.28.25.43Z"/><path class="cls-4" d="M54.23,35.16a.42.42,0,0,1,0,.74.72.72,0,0,0-.17.22.53.53,0,0,1-.68.34c-.68-.25-1.34-.54-2-.8a9.07,9.07,0,0,0-1.21-.41,3.4,3.4,0,0,1-1.25-.65,1.26,1.26,0,0,1-.22-1.37.76.76,0,0,1,1,0,.5.5,0,0,0,.22.16c.93.29,1.88.56,2.81.86a8.88,8.88,0,0,1,1.3.58C54.12,34.86,54.16,35,54.23,35.16Z"/><path class="cls-4" d="M48.91,45a2.94,2.94,0,0,0-.63,0,7.52,7.52,0,0,1-2.17-.1c-.6-.1-1.21-.11-1.81-.17a1.57,1.57,0,0,1-1-1,1.55,1.55,0,0,1,.19-.49L43.36,43a1,1,0,0,1,.31-.1,8.42,8.42,0,0,1,2.45.27l.16,0a2.13,2.13,0,0,1,1.29.36.23.23,0,0,0,.18,0,.64.64,0,0,1,.73.1c.14.09.35.08.49.17a.47.47,0,0,1,.23.32c0,.16.1.4-.16.48S48.76,44.75,48.91,45Z"/><path class="cls-4" d="M42.08,59.91l-.23.37c-.13.2-.26.42-.4.61a.4.4,0,0,1-.24.14c-.74.07-1.41.41-2.15.46a.46.46,0,0,0-.13.08.74.74,0,0,1-1-.08,3.12,3.12,0,0,0-.41-.33c-.19-.12-.16-.28-.12-.45a2.22,2.22,0,0,0,.05-.67A8.86,8.86,0,0,1,38.85,60a5.47,5.47,0,0,0,1-.12,7.63,7.63,0,0,1,.82,0c.26,0,.53,0,.8,0S41.87,59.89,42.08,59.91Z"/><path class="cls-5" d="M112.53,78.45c-.1-.33-.27-.17-.47-.14-.42.06-.85,0-1.27.06a1.35,1.35,0,0,0-.29.09s-.1-.14-.13-.13c-.45.18-1-.16-1.41.31-.15.18-.4.07-.46-.17-.14,0-.31.29-.42,0l0,0a1.58,1.58,0,0,1-.42.09c-.13,0-.25-.09-.39-.11s-.22,0-.33,0c-.76,0-1.51-.11-2.27-.13s-1.43,0-2.15,0a.65.65,0,0,1-.37-.15,4.5,4.5,0,0,0,.49-.14l.64-.26s.11-.07.17-.07c.53.07.84-.32,1.21-.58s.51-.43.78-.62a2.22,2.22,0,0,1,.53-.19c.42-.14.57-.51.77-.86a4.11,4.11,0,0,0,.37-1.75,2.32,2.32,0,0,0-.21-.77l-.54.14c0,.34-.36.41-.64.53-.09,0-.22.07-.26.14a1.56,1.56,0,0,1-.87.62s-.08.1-.12.13l-.9.68s-.07,0-.08,0c-.12.37-.46.34-.74.43s-.5.3-.76.4a2.24,2.24,0,0,1-1.38,0,3.12,3.12,0,0,0-.91-.08,4.07,4.07,0,0,1-2.38-.59c-.18-.11-.39-.16-.56-.28a3.34,3.34,0,0,1-.35-.4c-.21-.19-.45-.35-.65-.55s-.37-.45-.56-.68-.18-.46-.49-.25h-.06c-.27-.15-.53-.3-.8-.43a.37.37,0,0,0-.29,0,1.07,1.07,0,0,0-.36,1.19,2.59,2.59,0,0,0,.53.93,4,4,0,0,0,.5.41c.06.06.07.16.12.23s.17.3.23.29c.25,0,.3.16.43.28s.51.45.78.66a7,7,0,0,0,.81.52,6.73,6.73,0,0,0,.91.39c.52.17,1.05.34,1.59.47a3.89,3.89,0,0,0,.72,0l-.28.38a.44.44,0,0,0-.61-.29c-.21.06-.43.09-.65.13,0,0-.08,0-.09,0-.46-.38-1-.21-1.51-.26Q95.31,78,94,78c-.7,0-1.41.07-2.11.08-.45,0-.91,0-1.36,0a7.22,7.22,0,0,0-.79.13.57.57,0,0,1-.18,0c-.69,0-1.37,0-2,0s-1.12.06-1.68.08c-.08,0-.16-.08-.24-.12V78a3.07,3.07,0,0,1-.52.14l-1.38.16c-.29,0-.59,0-.88.06l-.13,0a23,23,0,0,1-3.52-.08.16.16,0,0,0-.15,0c-.67.32-1.37,0-2.06.1-.15,0-.32-.1-.52-.17-.42.1-.87.35-1.37.06a.92.92,0,0,0-.5,0,15.77,15.77,0,0,1-3.22-.05,5.38,5.38,0,0,0-1.32.1.8.8,0,0,1-.15,0c-.55,0-1.09-.12-1.64-.15-.33,0-.67.06-1,0s-1-.12-1.48-.19c-.15,0-.32-.53-.28-.73.1-.54.18-1.08.26-1.62,0-.06,0-.12,0-.16.27-.38,0-.73-.06-1.1a.26.26,0,0,1,0-.15,3.44,3.44,0,0,0,.07-1.53,2.78,2.78,0,0,1,.08-.49c.07-.49.14-1,.22-1.47a11.5,11.5,0,0,0,.22-1.74c0-.35.21-.72,0-1.08,0,0,.11-.16.19-.28a2.51,2.51,0,0,1,.25-1.21,3.91,3.91,0,0,0,.25-1.12c.06-.3.13-.61.18-.92s.07-.46.12-.68.14-.47.21-.71a2.76,2.76,0,0,0,.08-.27c.14-.62.28-1.24.4-1.86.06-.29.08-.58.12-.87a.81.81,0,0,1,0-.15c.21-.59.43-1.18.61-1.77.14-.43.22-.86.34-1.29s.22-.61.31-.92a16.7,16.7,0,0,0,.49-1.61,5.56,5.56,0,0,1,.41-1,1.86,1.86,0,0,0,.15-.65,2.51,2.51,0,0,1,.56-1.36,5.24,5.24,0,0,0,.4-.92c.16-.36.28-.74.46-1.08s.47-.78.69-1.18c.12-.22.18-.47.3-.69s.38-.73.59-1.09a14.3,14.3,0,0,1,1.39-1.7c.27-.36.52-.74.82-1.07s.63-.57.93-.86.44-.48.68-.69.5-.41.75-.61l1.57-1.26c.4-.31.83-.59,1.2-.94A7,7,0,0,1,82,38.48a2,2,0,0,0,.41-.28c.36-.39.89-.35,1.32-.58a12.38,12.38,0,0,1,1.16-.56c.25-.11.5-.19.75-.28l.87-.36c.36-.15.7-.34,1.06-.46s.91-.27,1.37-.4l1.24-.34a11.19,11.19,0,0,1,1.27-.31c.5-.07,1-.06,1.51-.09a.44.44,0,0,1,.16,0,1.89,1.89,0,0,0,1.84-.15,2.42,2.42,0,0,1,1.24-.22,5.34,5.34,0,0,0,.69,0c.36,0,.71,0,1.07,0s.53.06.81.1A.72.72,0,0,1,99,34.4a6.44,6.44,0,0,1,2-.06c.48,0,1,0,1.45.08s1.1.13,1.64.2c.39,0,.78.1,1.16.15l2.6.33c.77.1,1.55.23,2.33.32s1.44.12,2.16.19a2.48,2.48,0,0,1,.39.1c.06,0,.11.07.17.08l1.84.42a8.41,8.41,0,0,1,.87.19c.14,0,.23.2.37.26s.48.15.71.25c.38.17.73.37,1.11.54s.55.17.81.28.49.27.73.38c.39.19.78.34,1.16.54.15.08.24.26.38.37.34.26.69.5,1,.76s.72.52,1,.81c.17.16.24.49.43.56.43.18.6.57.82.9.45.67.84,1.38,1.26,2.08.1.17.24.32.34.49.36.55.66,1.15,1.07,1.66a4.57,4.57,0,0,1,.48.86,6.45,6.45,0,0,1,.32.87l.23.66c.16.46.33.91.5,1.37a.71.71,0,0,0,.19.31.52.52,0,0,1,.22.49c0,.26.2.53.31.8s.26.73.4,1.1.23.52.33.79a2.21,2.21,0,0,1,0,.37c.06.29.13.58.2.87,0,.07.08.13.09.2.12.78.22,1.57.34,2.36.05.33.14.66.2,1a2.68,2.68,0,0,1,0,.4c0,.54,0,1.08,0,1.61v0c.37.48,0,1,.08,1.5a8.68,8.68,0,0,1,.12,1.35c0,.07,0,.14,0,.21a3.84,3.84,0,0,0,0,.48c0,.29.08.58.12.87,0,0,0,.06,0,.06-.33.14-.22.45-.21.67a8.68,8.68,0,0,1-.13,1.25,20.5,20.5,0,0,0,0,2.6c0,.4-.08.81-.12,1.21-.06.63-.12,1.26-.17,1.88s-.07,1.29-.11,1.94-.05,1.38-.11,2.07c0,.45-.16.89-.23,1.34a1.88,1.88,0,0,0,0,.41c0,.22-.06.36-.33.33-.81-.06-1.62-.17-2.42-.15s-1.46-.15-2.21-.09a20.85,20.85,0,0,1-2.49-.08c-.42,0-.85,0-1.28,0a8.35,8.35,0,0,0-1-.06c-.41,0-.81.18-1.21.24a1.51,1.51,0,0,1-.6,0,2.61,2.61,0,0,0-1.7-.07c-.06,0-.16,0-.23,0a4.87,4.87,0,0,0-2.18-.08,2.38,2.38,0,0,1-.59,0A2,2,0,0,0,112.53,78.45ZM91.13,64.88l-.08,0a3.07,3.07,0,0,0-.42.38c-.19.23-.11.62-.44.79,0,0,0,.07,0,.09-.2.25-.4.5-.61.74a.24.24,0,0,1-.36,0s-.1,0-.13.07a2.47,2.47,0,0,1-.44.47,4.71,4.71,0,0,1-1,.51c-.37.12-.78.12-1.16.22-.62.16-1.24.34-1.85.55a4.5,4.5,0,0,1-3-.06c-.4-.14-.93-.11-1.14-.62,0,0-.07,0-.11-.06a11.8,11.8,0,0,1-1.11-.73,3.34,3.34,0,0,1-.88-.92,12.21,12.21,0,0,1-.6-1.13,6.11,6.11,0,0,1-.57-1.31c0-.1-.13-.18-.14-.28a1.32,1.32,0,0,0-.3-.93.5.5,0,0,1-.1-.22c-.09-.38-.17-.77-.25-1.15s-.11-.62-.16-.92a2,2,0,0,1-.11-.66.69.69,0,0,0-.14-.54,1,1,0,0,0-.6-.36.58.58,0,0,0-.77.65c.08.67.15,1.34.23,2a1.6,1.6,0,0,0,0,.21c.11.51.21,1,.34,1.53a2.32,2.32,0,0,1,.19.94c0,.07.08.16.12.25a3.25,3.25,0,0,1,.18.43,6.08,6.08,0,0,0,.16.74c.12.3.42.5.43.85,0,0,.06.06.08.09a2.08,2.08,0,0,1,.26.42c0,.18,0,.42.07.54a8.88,8.88,0,0,0,1.2,1.32c.25.22.66.22.94.5a4.52,4.52,0,0,0,.87.61,3.27,3.27,0,0,0,.56.35c.4.18.82.33,1.23.48a3.49,3.49,0,0,0,1.41.42,2.16,2.16,0,0,1,.44,0,3.06,3.06,0,0,0,2-.36,2.18,2.18,0,0,1,.63-.18,5.22,5.22,0,0,0,.78-.19c.47-.18.92-.41,1.39-.58a5.11,5.11,0,0,0,1.27-.41,10.24,10.24,0,0,0,1.79-1.51c.31-.34.54-.73.83-1.07.13-.16.12-.43.23-.63s.33-.45.47-.69.39-.49.26-.84a.14.14,0,0,1,0-.11l.73-.92a.27.27,0,0,0,0-.15c0-.42.33-.65.6-.88a1.71,1.71,0,0,0,.59-1.18c0-.17-.37-.45-.48-.35a.5.5,0,0,1-.84-.07s-.1,0-.18,0c.16.41-.73.29-.33.78l-.43.26c-.11.2-.15.39-.26.47a.68.68,0,0,0-.31.53.31.31,0,0,1-.07.18c-.15,0-.25,0-.3.07a.7.7,0,0,0-.15.25c0,.09,0,.25-.08.28C91.2,64.07,91.2,64.49,91.13,64.88Zm15.19-2.7a2.23,2.23,0,0,0,.05.36,1.45,1.45,0,0,0,.41.69c.51.61,1,1.27,1.44,1.9a.59.59,0,0,0,.17.18c.36.21.74.4,1.1.62.15.09.27.3.44.33.46.1.82.53,1.34.41.32.39.89.1,1.23.44l2,0A1.74,1.74,0,0,0,115,67a13.23,13.23,0,0,0,1.35-.56,11,11,0,0,0,1.28-.86c.16-.13.26-.45.41-.47.4,0,.59-.38.9-.52.09,0,.14-.15.21-.23s.21-.37.36-.41a1.86,1.86,0,0,0,1.05-.94c0-.09.14-.22.22-.21a.89.89,0,0,0,.82-.54,6.18,6.18,0,0,0,.39-1,.37.37,0,0,0,0-.25l-.46-1.11a6.86,6.86,0,0,1-.24-.77,2.74,2.74,0,0,1,0-.48c-.12,0-.22,0-.27,0-.25-.19-.28,0-.33.18s-.14.45-.22.68l-.12,0,.18-.82c-.13,0-.22.06-.24.12a9.83,9.83,0,0,0-.3,1c-.08.36.09.75-.15,1.09,0,0,0,.09,0,.12a1.6,1.6,0,0,1-.23.38c-.13.13-.32.2-.31.44,0,0-.09.09-.15.12a5.85,5.85,0,0,0-.79.4,7,7,0,0,0-.7.63l-.64.54-.38.31c-.06.11-.14.27-.23.41s-.18.18-.26.28a1.68,1.68,0,0,0-.2.27l-.06-.67c-.13.07-.24.15-.36.2-.5.21-1,.41-1.52.63a2.71,2.71,0,0,1-1.23.14,2.55,2.55,0,0,1-1.5-.37c-.37-.28-.8-.43-1.17-.68a6,6,0,0,1-1.26-1.15,8.39,8.39,0,0,1-.65-1.1c-.18-.3-.39-.59-.58-.88a.37.37,0,0,1,0-.15.76.76,0,0,0-.56-.56c-.58,0-.64,0-.83.67A1.44,1.44,0,0,0,106.32,62.18Zm-8.4,8.09.27,0c.08.34.08.71.48.87.14.06.24.2.37.28a5.12,5.12,0,0,0,.58.28,2.22,2.22,0,0,0,.49.18c.27,0,.63.15.8,0A5.64,5.64,0,0,1,102,71.4a1.79,1.79,0,0,0,.44-.27,5.46,5.46,0,0,1,.83-.77,1.53,1.53,0,0,0,.91-1.08,2.69,2.69,0,0,1,0-.4c.06-.18,0-.26-.17-.33l-.59-.28c-.3.06-.51.09-.73.15a.27.27,0,0,0-.17.14.73.73,0,0,1-.6.62.71.71,0,0,0-.36.17,1.62,1.62,0,0,1-.94.42.83.83,0,0,1-1-.36c-.26-.77-.48-1.54-.74-2.3-.06-.18-.09-.49-.44-.27-.06,0-.18,0-.26,0s-.22-.12-.33-.17a.41.41,0,0,0-.63.3c-.08.27,0,.61-.47.63a.49.49,0,0,0,.07.16,6.56,6.56,0,0,1,.62.67.76.76,0,0,1,.14.51,4.5,4.5,0,0,1-.23.77C97.75,69.75,97.89,69.89,97.92,70.27Z"/><path class="cls-3" d="M130,81.26l.85.06.29.07c.07,0,.14,0,.19,0a6,6,0,0,0,.62.41,8.46,8.46,0,0,0,1.25.52,6.09,6.09,0,0,1,1.1.42c.25.14.52.22.76.37s.29.26.27.37a.83.83,0,0,1-.34.41c-.38.26-.79.48-1.18.72-.11.07-.18.19-.28.23l-1.06.44a2.4,2.4,0,0,1-.38.12l-1.25.29a.78.78,0,0,1,0,.15.49.49,0,0,0-.68-.15.71.71,0,0,1-.21,0l-.83,0c-.16-.13-.38-.1-.7,0a5.11,5.11,0,0,0-.64.27.2.2,0,0,1-.17,0c-.15-.27-.34-.09-.51,0l-.44.14-.46.18a1.86,1.86,0,0,1-1.2.25s-.14.07-.18.13-.12.19-.21.19c-.36,0-.72,0-1.07,0-.16,0-.3.2-.46.21a2.54,2.54,0,0,1-.87,0,1,1,0,0,0-.76.13,1.22,1.22,0,0,1-.4.15,1.36,1.36,0,0,0-.8.42s-.11,0-.16.06a3.21,3.21,0,0,0-.7.24c-.29.16-.54.38-.81.56a.37.37,0,0,1-.18,0s-.11,0-.12,0c-.23.36-.66.31-1,.51a1.27,1.27,0,0,1-.12.1c-.36.21-.45.43-.35.91a3.33,3.33,0,0,0,.85,1.68c.06.06.08.15.14.21a1.24,1.24,0,0,0,.29.2,6.62,6.62,0,0,0,.64.44c.53.31,1.07.59,1.6.88,0,0,0,0,.05,0,.68,0,1.26.4,1.93.43a2.34,2.34,0,0,1,.59.09c.1,0,.23.16.24.25a.34.34,0,0,1-.17.29c-.48.25-1,.47-1.46.69-.09,0-.22,0-.38,0a.53.53,0,0,1-.79.41c-.26.33-.57-.16-.84.05-.06,0-.16,0-.21.07a.46.46,0,0,1-.43.09.8.8,0,0,0-.52.18c-.22.18-.37.15-.48-.08l-.53.36,0-.22a4.43,4.43,0,0,1-.69.19.79.79,0,0,0-.51.28c-.07.07-.28,0-.46,0l0,.3-.23-.29-.21.41a2.06,2.06,0,0,0-1.67.31,2.7,2.7,0,0,1-.5.18c-.16,0-.33.07-.48.13A3.66,3.66,0,0,0,111,98.87a1.56,1.56,0,0,0-.14,1.46,5.88,5.88,0,0,0,.9,1.58,7.5,7.5,0,0,0,1,1,1.32,1.32,0,0,0,.59.15c.35.06.35,0,.19.38,0,0,0,.06,0,.17l.62-.06,0,.27.77.06c.08-.1.21-.13.38.05s.25.11.37.18.51.35.76.53l.49.34c-.35.2-.64.35-.91.53a1.69,1.69,0,0,1-.76.37,4.66,4.66,0,0,0-1,.27c-.15,0-.28.18-.43.21a.75.75,0,0,1-.47,0c-.34-.15-.47.14-.68.28,0,0-.08.1-.13.11a3.89,3.89,0,0,0-2.19.59c-.33-.2-.49-.17-.87.1-.19.12-.41.2-.61.3l-.39.19a3.64,3.64,0,0,0-1-.06c-.18,0-.37.17-.59.21s-.44.15-.67.21a2.63,2.63,0,0,1-1.09.23c-.17,0-.5-.08-.6.24-.44-.1-.47.42-.82.53a4.7,4.7,0,0,0-1.31.77c-.13.08-.17.28-.25.43l-.33.55c0,.06-.07.16,0,.18.22.22.13.49.11.72a3.82,3.82,0,0,0,.5,1.84,6.52,6.52,0,0,0,.48.8c.12.21.15.44-.08.59s-.55.32-.82.48c-.1,0-.25.09-.28.18-.2.51-.7.5-1.09.58a4.31,4.31,0,0,0-1.26.5l-1,.56v-.28a3.33,3.33,0,0,0-.39.24.63.63,0,0,1-.77.12c-.33-.19-.67-.36-1-.54s-.36-.39-.13-.72c.37-.54.72-1.1,1.09-1.64a.88.88,0,0,1,.22-.25A1.74,1.74,0,0,0,98.1,113a.65.65,0,0,0-.26-.44c-.62-.34-1.25-.64-1.89-1a3.68,3.68,0,0,0-.57-.26c-.21-.08-.44-.09-.65-.17s-.37-.19-.56-.26a8,8,0,0,0-.82-.29c-.34-.1-.7-.18-1-.27s-.63-.17-1-.22-.53,0-.79-.07-.36-.16-.54-.18c-.72-.09-1.45-.14-2.17-.21l-.1-.1.73-.42a4.11,4.11,0,0,1,1.23-.44c.08,0,.14-.11.21-.17a1.46,1.46,0,0,1,.33-.24,2.13,2.13,0,0,0,1.19-1.11,2,2,0,0,1,.27-.38,1.62,1.62,0,0,0,.14-1.68,4.25,4.25,0,0,0-.82-.93,6.07,6.07,0,0,1-.59-.73c-.2-.23-.37-.55-.81-.39,0-.33-.32-.4-.53-.57A4.14,4.14,0,0,0,88,102a7.14,7.14,0,0,0-1.25-.31c-.48-.12-1-.25-1.43-.35s-1-.17-1.47-.29a1.57,1.57,0,0,1-.46-.28,3.94,3.94,0,0,1,.48-.34A11.55,11.55,0,0,1,85,99.93c.24-.09.52-.08.77-.15a2.36,2.36,0,0,0,.4-.24,1.54,1.54,0,0,1,.31-.21c.43-.14.87-.23,1.29-.39a1.81,1.81,0,0,0,.55-.4c.2-.19.5-.3.53-.64,0,0,.05-.09,0-.11a2.84,2.84,0,0,0-.62-1c-.24-.17-.36-.45-.64-.57a1.43,1.43,0,0,1-.27-.23l-.52-.42a.69.69,0,0,1-.65-.27c-.12-.16-.45-.18-.7-.21s-.32,0-.4-.23a.36.36,0,0,0-.15-.15c-.25-.13-.51-.37-.75-.36-.47,0-.8-.28-1.2-.38s-.88-.35-1.34-.45a8.14,8.14,0,0,0-2-.42c-.66,0-1.33-.1-2-.11s-1.09,0-1.64.07a.8.8,0,0,1-.21,0,3,3,0,0,0-1.37,0,.52.52,0,0,1-.25,0A1.81,1.81,0,0,0,73,92.87c-.25,0-.51,0-.58-.25a.4.4,0,0,1,.35-.49,7,7,0,0,1,1.94-.39,15.6,15.6,0,0,0,1.8-.15,6.05,6.05,0,0,1,.95,0l.6.06a2.09,2.09,0,0,1,.36.07,1.8,1.8,0,0,0,1.33.08,2,2,0,0,1,.83-.14,4.61,4.61,0,0,0,1.6-.46l.69-.21a3.23,3.23,0,0,0,.85-.25,2,2,0,0,0,.86-1c.11-.34.19-.68.28-1,0-.07,0-.17,0-.2a8,8,0,0,0-.66-.64c-.07-.06-.2-.05-.3-.08s-.23,0-.26-.09c-.12-.26-.36-.24-.58-.29l-1.54-.32a.58.58,0,0,0-.19,0h-.87a.72.72,0,0,1-.33,0,4.19,4.19,0,0,0-.47-.14c-.38-.08-.76-.14-1.14-.21a1.52,1.52,0,0,0-.21,0l-2.11-.18a6.42,6.42,0,0,0-1.51-.07,2.93,2.93,0,0,1-1.25,0c-.06,0-.17.09-.25.16a.56.56,0,0,1-.9-.17l.34,0v0a2,2,0,0,0-.24,0c-.8-.09-1.61-.15-2.41-.27a9.2,9.2,0,0,1-1.22-.33,12,12,0,0,1-1.54-.49,6.46,6.46,0,0,1-1.08-.74,2.32,2.32,0,0,1-.43-.4,1.76,1.76,0,0,1-.39-.57,1.58,1.58,0,0,1,0-.75,2.65,2.65,0,0,1,.81-1.27,2.51,2.51,0,0,1,1.19-.78,2.84,2.84,0,0,1,.92-.06c.74,0,1.47.09,2.21.1s1.64,0,2.47,0a1,1,0,0,1,.24,0,2,2,0,0,0,.41.09c.73,0,1.46.1,2.19.07s1.24,0,1.86,0c.43,0,.86-.1,1.28-.12a10.29,10.29,0,0,1,1.11,0c.49,0,1,.08,1.47.08s1.18,0,1.77-.07c.16,0,.31-.06.47-.07H85s.11,0,.15,0c.59-.27,1.18,0,1.78,0a13.64,13.64,0,0,1,2,0c.37,0,.74-.07,1.11-.08s.64,0,1,0c.79,0,1.58-.08,2.37-.07s1.62.07,2.43.1c.31,0,.62,0,.93,0h.15L98.3,81a.26.26,0,0,0,.15,0,1.5,1.5,0,0,1,1.14,0,4.25,4.25,0,0,0,1.55,0,9.41,9.41,0,0,1,1.19,0l1,0a6.44,6.44,0,0,1,2,.06,4.94,4.94,0,0,0,1,0l.91,0c.47,0,1,.07,1.43.07s1,0,1.51,0c.19,0,.38-.11.55-.06a1.43,1.43,0,0,0,.82,0s.07,0,.09,0c.37.3.74,0,1.12,0a9.72,9.72,0,0,0,1.18-.14c.32,0,.64,0,1,0,0,0,.12,0,.15,0,.45-.34.92,0,1.39-.05a9.76,9.76,0,0,1,1.52.09c.34,0,.69-.12,1-.11.58,0,1.15.09,1.73.13.21,0,.42,0,.64,0h.3a4.14,4.14,0,0,0,.61,0,4.91,4.91,0,0,1,1.53,0c.28,0,.57,0,.85,0a4.17,4.17,0,0,1,.49.08s.08.07.11,0c.6-.24,1.2.1,1.82,0a6,6,0,0,1,1.63.13c.3,0,.6.1.9.11A1.07,1.07,0,0,0,130,81.26Zm-22.77,2.28a.77.77,0,0,0-.24-.1c-.32,0-.64,0-1,0a10.6,10.6,0,0,0-2,.36,2.22,2.22,0,0,1-.78.14,3.76,3.76,0,0,0-1.16-.07c-.58.06-1.18.06-1.76.09-.16,0-.31,0-.47,0a5.44,5.44,0,0,0-1,0c-.18,0-.37.11-.56.17s-.28.15-.44,0-.11,0-.15,0a2.34,2.34,0,0,1-1.4.31,9.32,9.32,0,0,0-1.4,0c-.34,0-.68.08-1,.11s-.94-.21-1.4,0a.27.27,0,0,1-.12,0,1.46,1.46,0,0,0-.36,0,1.52,1.52,0,0,0-.51.16c-.26.17-.7.19-.7.64,0,.3-.08.66.31.85.08,0,.11.15.17.22.27.35.53.72,1,.72s1.14,0,1.71,0q1.25,0,2.49-.15c.63,0,1.25-.13,1.88-.18s1-.05,1.52-.09,1.28-.16,1.91-.22c.45,0,.89,0,1.33-.08.73-.05,1.46-.13,2.19-.18a4.56,4.56,0,0,0,.64,0,8.92,8.92,0,0,1,2.87,0,1.18,1.18,0,0,1-.37.34l-1.21.55-.85.37c-.23.1-.47.18-.71.27l-1.25.45c-.46.17-.91.36-1.36.55-.2.08-.32.36-.61.2,0,0-.09.08-.15.1-.3.12-.62.35-.91.32a1.35,1.35,0,0,0-1.2.4.28.28,0,0,1-.17.12l-.88.19c-.07,0-.11.11-.17.14a2.57,2.57,0,0,1-.73.35,1.36,1.36,0,0,0-.79.34,5.12,5.12,0,0,1-.62.53.51.51,0,0,0-.15.6.56.56,0,0,0,.32.34.56.56,0,0,1,.4.61.72.72,0,0,1,.2.14,2.48,2.48,0,0,0,1.25.52c.44.09.93-.07,1.32.26,0,0,0,0,.06,0,.33,0,.66.09,1,.16a4.38,4.38,0,0,1,1.66.39A5.51,5.51,0,0,0,104,95a2.79,2.79,0,0,1-1.34,1c-.21.09-.48.1-.57.38,0,.05-.16.05-.24.08l-1,.37a2.38,2.38,0,0,0-.45.23c-.13.09-.25.22-.38.33a5.43,5.43,0,0,0-.9.75,1.69,1.69,0,0,1-.48.41.58.58,0,0,0-.25.88c.61.66,1,1.52,2,1.82.24-.22.46-.24.58,0a1.51,1.51,0,0,0,.22.28c.51.42.52.42.2.87a1.21,1.21,0,0,1-.16.16c-.19.18-.49.33-.56.56-.12.41-.45.56-.73.81a1.72,1.72,0,0,0-.77,1.46,1.84,1.84,0,0,1,.47.18,3,3,0,0,1,.33.44.35.35,0,0,1,.06.14c0,.27.57.62.79.46a5.67,5.67,0,0,0,.74-.64c.3-.3.55-.64.85-.93s.81-.64,1.14-1a10.13,10.13,0,0,0,.88-1.26,2.41,2.41,0,0,0,.27-.56,2.45,2.45,0,0,0,.14-.64,1.35,1.35,0,0,0-.1-.67c-.32-.64-1-.8-1.59-1.13a10.22,10.22,0,0,0-1.47-.58c.07-.11.08-.16.11-.17.49-.24,1-.48,1.47-.7s.87-.3,1.26-.53a20.51,20.51,0,0,0,1.73-1.2,9.74,9.74,0,0,0,.83-.74.9.9,0,0,0,.21-.31,1.91,1.91,0,0,0-.84-2.12c-.2-.1-.42-.2-.59-.3a3.71,3.71,0,0,0-1.68-.72c-.07,0-.13-.08-.2-.12a.81.81,0,0,0-.2-.14c-.28-.06-.57-.09-.85-.15l-.81-.2v-.08l.2,0a3,3,0,0,0,.42-.06c.51-.16,1-.32,1.53-.5a2.24,2.24,0,0,0,1-.41c.13-.13.39-.27.53-.22s.4,0,.57-.13.57-.28.86-.42a4.84,4.84,0,0,1,.49-.18,11.58,11.58,0,0,0,1.34-.41,12.25,12.25,0,0,0,1.25-.76l.12,0,.44-.23c.06,0,.12-.15.16-.14.4.14.6-.25.89-.37a1.35,1.35,0,0,0,.64-.53,2.07,2.07,0,0,0,.33-1.44,1.65,1.65,0,0,0-.87-1.3c-.2-.09-.46-.07-.64-.19s-.17,0-.23,0,0,0-.06,0l-.07-.18a5.49,5.49,0,0,1-.92-.31,2.68,2.68,0,0,0-1.42-.24,3.05,3.05,0,0,1-.85-.11C107.59,83.39,107.38,83.34,107.22,83.54Z"/><path class="cls-3" d="M99.92,78.3a2,2,0,0,1,.46-.27c.1,0,.24.06.37.09,0,.09-.06.22-.13.26C100.36,78.53,100.14,78.34,99.92,78.3Z"/><path class="cls-4" d="M91.13,64.88c.07-.39.07-.81.49-1,.06,0,0-.19.08-.28a.7.7,0,0,1,.15-.25c.05,0,.15,0,.3-.07a.31.31,0,0,0,.07-.18.68.68,0,0,1,.31-.53c.11-.08.15-.27.26-.47l.43-.26c-.4-.49.49-.37.33-.78.08,0,.16,0,.18,0a.5.5,0,0,0,.84.07c.11-.1.49.18.48.35a1.71,1.71,0,0,1-.59,1.18c-.27.23-.59.46-.6.88a.27.27,0,0,1,0,.15l-.73.92a.14.14,0,0,0,0,.11c.13.35-.11.59-.26.84s-.34.45-.47.69-.1.47-.23.63c-.29.34-.52.73-.83,1.07a10.24,10.24,0,0,1-1.79,1.51,5.11,5.11,0,0,1-1.27.41c-.47.17-.92.4-1.39.58a5.22,5.22,0,0,1-.78.19,2.18,2.18,0,0,0-.63.18,3.06,3.06,0,0,1-2,.36,2.16,2.16,0,0,0-.44,0,3.49,3.49,0,0,1-1.41-.42c-.41-.15-.83-.3-1.23-.48a3.27,3.27,0,0,1-.56-.35,4.52,4.52,0,0,1-.87-.61c-.28-.28-.69-.28-.94-.5a8.88,8.88,0,0,1-1.2-1.32c-.09-.12,0-.36-.07-.54a2.08,2.08,0,0,0-.26-.42s-.07-.06-.08-.09c0-.35-.31-.55-.43-.85a6.08,6.08,0,0,1-.16-.74,3.25,3.25,0,0,0-.18-.43c0-.09-.13-.18-.12-.25a2.32,2.32,0,0,0-.19-.94c-.13-.5-.23-1-.34-1.53a1.6,1.6,0,0,1,0-.21c-.08-.68-.15-1.35-.23-2a.58.58,0,0,1,.77-.65,1,1,0,0,1,.6.36.69.69,0,0,1,.14.54,2,2,0,0,0,.11.66c0,.3.1.61.16.92s.16.77.25,1.15a.5.5,0,0,0,.1.22,1.32,1.32,0,0,1,.3.93c0,.1.13.18.14.28a6.11,6.11,0,0,0,.57,1.31,12.21,12.21,0,0,0,.6,1.13,3.34,3.34,0,0,0,.88.92,11.8,11.8,0,0,0,1.11.73s.09,0,.11.06c.21.51.74.48,1.14.62a4.5,4.5,0,0,0,3,.06c.61-.21,1.23-.39,1.85-.55.38-.1.79-.1,1.16-.22a4.71,4.71,0,0,0,1-.51,2.47,2.47,0,0,0,.44-.47s.12-.08.13-.07a.24.24,0,0,0,.36,0c.21-.24.41-.49.61-.74,0,0,0-.09,0-.09.33-.17.25-.56.44-.79a3.07,3.07,0,0,1,.42-.38Z"/><path class="cls-4" d="M106.32,62.18a1.44,1.44,0,0,1-.23-1.38c.19-.64.25-.66.83-.67a.76.76,0,0,1,.56.56.37.37,0,0,0,0,.15c.19.29.4.58.58.88a8.39,8.39,0,0,0,.65,1.1A6,6,0,0,0,110,64c.37.25.8.4,1.17.68a2.55,2.55,0,0,0,1.5.37,2.71,2.71,0,0,0,1.23-.14c.5-.22,1-.42,1.52-.63.12,0,.23-.13.36-.2l.06.67a1.68,1.68,0,0,1,.2-.27c.08-.1.18-.18.26-.28s.17-.3.23-.41l.38-.31.64-.54a7,7,0,0,1,.7-.63,5.85,5.85,0,0,1,.79-.4c.06,0,.15-.08.15-.12,0-.24.18-.31.31-.44a1.6,1.6,0,0,0,.23-.38s0-.09,0-.12c.24-.34.07-.73.15-1.09a9.83,9.83,0,0,1,.3-1c0-.06.11-.1.24-.12l-.18.82.12,0c.08-.23.15-.45.22-.68s.08-.37.33-.18c0,0,.15,0,.27,0a2.74,2.74,0,0,0,0,.48,6.86,6.86,0,0,0,.24.77l.46,1.11a.37.37,0,0,1,0,.25,6.18,6.18,0,0,1-.39,1,.89.89,0,0,1-.82.54c-.08,0-.17.12-.22.21a1.86,1.86,0,0,1-1.05.94c-.15,0-.24.27-.36.41s-.12.19-.21.23c-.31.14-.5.49-.9.52-.15,0-.25.34-.41.47a11,11,0,0,1-1.28.86A13.23,13.23,0,0,1,115,67a1.74,1.74,0,0,1-.5.12l-2,0c-.34-.34-.91,0-1.23-.44-.52.12-.88-.31-1.34-.41-.17,0-.29-.24-.44-.33-.36-.22-.74-.41-1.1-.62a.59.59,0,0,1-.17-.18c-.48-.63-.93-1.29-1.44-1.9a1.45,1.45,0,0,1-.41-.69A2.23,2.23,0,0,1,106.32,62.18Z"/><path class="cls-4" d="M97.92,70.27c0-.38-.17-.52-.58-.6a4.5,4.5,0,0,0,.23-.77.76.76,0,0,0-.14-.51,6.56,6.56,0,0,0-.62-.67.49.49,0,0,1-.07-.16c.42,0,.39-.36.47-.63a.41.41,0,0,1,.63-.3c.11.05.21.12.33.17s.2.08.26,0c.35-.22.38.09.44.27.26.76.48,1.53.74,2.3a.83.83,0,0,0,1,.36,1.62,1.62,0,0,0,.94-.42.71.71,0,0,1,.36-.17.73.73,0,0,0,.6-.62.27.27,0,0,1,.17-.14c.22-.06.43-.09.73-.15l.59.28c.16.07.23.15.17.33a2.69,2.69,0,0,0,0,.4,1.53,1.53,0,0,1-.91,1.08,5.46,5.46,0,0,0-.83.77,1.79,1.79,0,0,1-.44.27,5.64,5.64,0,0,0-1.08.52c-.17.13-.53,0-.8,0a2.22,2.22,0,0,1-.49-.18,5.12,5.12,0,0,1-.58-.28c-.13-.08-.23-.22-.37-.28-.4-.16-.4-.53-.48-.87Z"/><path class="cls-6" d="M107.22,83.54c.16-.2.37-.15.61-.09a3.05,3.05,0,0,0,.85.11,2.68,2.68,0,0,1,1.42.24,5.49,5.49,0,0,0,.92.31l.07.18s0,0,.06,0,.08-.15.23,0,.44.1.64.19a1.65,1.65,0,0,1,.87,1.3,2.07,2.07,0,0,1-.33,1.44,1.35,1.35,0,0,1-.64.53c-.29.12-.49.51-.89.37,0,0-.1.1-.16.14l-.44.23-.12,0a12.25,12.25,0,0,1-1.25.76,11.58,11.58,0,0,1-1.34.41,4.84,4.84,0,0,0-.49.18c-.29.14-.56.3-.86.42s-.32.21-.57.13-.4.09-.53.22a2.24,2.24,0,0,1-1,.41c-.51.18-1,.34-1.53.5a3,3,0,0,1-.42.06l-.2,0v.08l.81.2c.28.06.57.09.85.15a.81.81,0,0,1,.2.14c.07,0,.13.12.2.12a3.71,3.71,0,0,1,1.68.72c.17.1.39.2.59.3a1.91,1.91,0,0,1,.84,2.12.9.9,0,0,1-.21.31,9.74,9.74,0,0,1-.83.74,20.51,20.51,0,0,1-1.73,1.2c-.39.23-.85.34-1.26.53s-1,.46-1.47.7c0,0,0,.06-.11.17a10.22,10.22,0,0,1,1.47.58c.56.33,1.27.49,1.59,1.13a1.35,1.35,0,0,1,.1.67,2.45,2.45,0,0,1-.14.64,2.41,2.41,0,0,1-.27.56,10.13,10.13,0,0,1-.88,1.26c-.33.38-.77.66-1.14,1s-.55.63-.85.93a5.67,5.67,0,0,1-.74.64c-.22.16-.79-.19-.79-.46a.35.35,0,0,0-.06-.14,3,3,0,0,0-.33-.44,1.84,1.84,0,0,0-.47-.18,1.72,1.72,0,0,1,.77-1.46c.28-.25.61-.4.73-.81.07-.23.37-.38.56-.56a1.21,1.21,0,0,0,.16-.16c.32-.45.31-.45-.2-.87a1.51,1.51,0,0,1-.22-.28c-.12-.2-.34-.18-.58,0-1-.3-1.37-1.16-2-1.82a.58.58,0,0,1,.25-.88,1.69,1.69,0,0,0,.48-.41,5.43,5.43,0,0,1,.9-.75c.13-.11.25-.24.38-.33a2.38,2.38,0,0,1,.45-.23l1-.37c.08,0,.22,0,.24-.08.09-.28.36-.29.57-.38A2.79,2.79,0,0,0,104,95a5.51,5.51,0,0,1-1.1-.39,4.38,4.38,0,0,0-1.66-.39c-.32-.07-.65-.11-1-.16,0,0,0,0-.06,0-.39-.33-.88-.17-1.32-.26a2.48,2.48,0,0,1-1.25-.52.72.72,0,0,0-.2-.14.56.56,0,0,0-.4-.61.56.56,0,0,1-.32-.34.51.51,0,0,1,.15-.6,5.12,5.12,0,0,0,.62-.53,1.36,1.36,0,0,1,.79-.34,2.57,2.57,0,0,0,.73-.35c.06,0,.1-.12.17-.14l.88-.19a.28.28,0,0,0,.17-.12,1.35,1.35,0,0,1,1.2-.4c.29,0,.61-.2.91-.32.06,0,.13-.11.15-.1.29.16.41-.12.61-.2.45-.19.9-.38,1.36-.55l1.25-.45c.24-.09.48-.17.71-.27l.85-.37,1.21-.55a1.18,1.18,0,0,0,.37-.34,8.92,8.92,0,0,0-2.87,0,4.56,4.56,0,0,1-.64,0c-.73,0-1.46.13-2.19.18-.44,0-.88,0-1.33.08-.63.06-1.27.16-1.91.22s-1,0-1.52.09-1.25.14-1.88.18q-1.24.11-2.49.15c-.57,0-1.14,0-1.71,0s-.77-.37-1-.72c-.06-.07-.09-.19-.17-.22-.39-.19-.3-.55-.31-.85,0-.45.44-.47.7-.64a1.52,1.52,0,0,1,.51-.16,1.46,1.46,0,0,1,.36,0,.27.27,0,0,0,.12,0c.46-.23.93,0,1.4,0s.68-.1,1-.11a9.32,9.32,0,0,1,1.4,0,2.34,2.34,0,0,0,1.4-.31s.12,0,.15,0,.28,0,.44,0,.38-.13.56-.17a5.44,5.44,0,0,1,1,0c.16,0,.31,0,.47,0,.58,0,1.18,0,1.76-.09a3.76,3.76,0,0,1,1.16.07,2.22,2.22,0,0,0,.78-.14,10.6,10.6,0,0,1,2-.36c.31,0,.63,0,1,0A.77.77,0,0,1,107.22,83.54Z"/></g></svg>