<svg xmlns="http://www.w3.org/2000/svg" viewBox="0 0 120 120"><defs><style>.cls-1{fill:#f8c8a8;}.cls-2{fill:#dcb14e;}.cls-3{fill:#ca885d;}.cls-4{fill:#f39f61;}.cls-5{fill:#2e3659;}.cls-6{fill:#3e3a39;}.cls-7{fill:#1a1a1a;}.cls-8{fill:#ed7952;}.cls-9{fill:#ca6749;}.cls-10{fill:none;stroke:#2e3659;stroke-miterlimit:10;stroke-width:0.33px;}.cls-11{fill:#4d4d4d;}</style></defs><g id="レイヤー_1" data-name="レイヤー 1"><path class="cls-1" d="M109.22,109.14C95.93,123.2,70.66,119.93,52.76,119c-13.29-.69-46.37,3.66-49.16-15.2A16.35,16.35,0,0,1,6.47,92.66c1.89-2.9,4.52-5.6,4.83-9,.25-2.83-1.16-5.52-2.52-8C6.17,70.81,2,65.6.72,60.35c-1.6-6.56,0-15.43,0-22.2,0-12-1.1-24.27,11.11-31.25C23.07.44,40-2.63,52.06,2.8c14.7,6.62,30.56,10,44,19.34C116.21,36.09,120,54.69,120,77.52c0,7.73-2.2,16.19-5.34,23.33A29.08,29.08,0,0,1,109.22,109.14Z"/><path class="cls-2" d="M92.27,44.18s3-4.24,4.79-3.26,5.57,6.46,5.57,6.46L105.16,58,103,56.47,94.91,53.2l-2.64-9"/><path class="cls-3" d="M54.8,60.88S67.73,45.17,68.53,43.59s8.22-12.77,12.57-9.83S92.27,44.18,92.27,44.18l2.64,9s-3.15,2.4-6.45,5.06-15.65,15.56-17,15.34-5.18-2.78-8.24-3.29-6.63-2.55-7.14-3.82A49.77,49.77,0,0,1,54.8,60.88Z"/><path class="cls-4" d="M70.09,75.66S87.53,58.22,90.34,56.75s3.83-6.68,7.37-3.13,11.49,8.66,13.37,11,2.6,5.17,2.35,6.45-3.82,6.37-9.43,6.37-7.65-.26-12.24-.26S70.09,75.66,70.09,75.66Z"/><path class="cls-5" d="M72.17,73.4,73.5,72l1.72-1.77c.75-.77,1.38-1.41,2-2l1.51-1.38c.65-.59,1.32-1.2,2-1.81a6.32,6.32,0,0,0,.64-.72,6.86,6.86,0,0,1,.91-1,25.05,25.05,0,0,0,1.86-1.69l.9-.87.31-.3A6.31,6.31,0,0,1,86,60c.41-.33.84-.65,1.26-1l1.14-.86c.29-.22.57-.46.85-.69s.68-.56,1-.83a8.29,8.29,0,0,1,1.23-.77,17.41,17.41,0,0,1,1.63-.72l.32-.14a3.07,3.07,0,0,1,1.51-.33,1.18,1.18,0,0,1,.25,0,1.5,1.5,0,0,0,.41,0,5.25,5.25,0,0,1,2.7.62,10.53,10.53,0,0,0,1.06.41,5.88,5.88,0,0,1,1.85,1.15l.16.14a17.82,17.82,0,0,0,2,1.39,7.84,7.84,0,0,1,1.55,1.39l.25.27a7.79,7.79,0,0,1,.65.77,7.83,7.83,0,0,0,.89,1A25,25,0,0,1,109.48,65c.31.38.61.75.93,1.12l.65.79c.28.35.57.69.86,1a.61.61,0,0,0,.43.25.43.43,0,0,0,.35-.15c.46-.44.43-.57.13-.93l-.47-.55a16.38,16.38,0,0,1-1.42-1.81A15,15,0,0,0,109,62.38l-.78-.8a24.21,24.21,0,0,1-2.42-2.71,3.3,3.3,0,0,0-.75-.74c-.3-.23-.6-.43-.91-.64s-.83-.57-1.23-.89a12.72,12.72,0,0,0-3-1.92l-.52-.22a11.15,11.15,0,0,0-1.77-.68,2.08,2.08,0,0,1-1.48-1.28c-.43-.89-.92-1.77-1.38-2.62-.26-.47-.53-.94-.78-1.42-.11-.21-.21-.43-.3-.64s-.24-.53-.38-.77-.42-.67-.63-1l-.48-.72a1.77,1.77,0,0,1-.25-.67.79.79,0,0,1,.15-.61l.21-.22a12.77,12.77,0,0,1,1.39-1.36c.34-.28.72-.53,1.08-.78s.71-.48,1-.74a1.32,1.32,0,0,1,1.23-.22,3.81,3.81,0,0,1,1.39.71l.44.29a7.31,7.31,0,0,1,2.91,3.57c.27.65.59,1.29,1,2a.46.46,0,0,0,.6.28.78.78,0,0,0,.48-.46.9.9,0,0,0-.07-.71l-.25-.46-.19-.34c-.14-.26-.27-.53-.4-.79a17,17,0,0,0-1-1.73,7.68,7.68,0,0,0-1.45-1.61,7,7,0,0,0-2.26-1.42c-.24-.08-.48-.18-.71-.28s-.58-.23-.87-.32a.78.78,0,0,0-.5.08,10.19,10.19,0,0,0-1.17.77,19,19,0,0,0-2.34,2,7.25,7.25,0,0,1-1,.77,5.2,5.2,0,0,0-.47.35l-.14.1-.27-.36c-.11-.13-.19-.24-.28-.36l-.46-.66a16.07,16.07,0,0,0-1-1.34c-.79-.92-1.64-1.83-2.47-2.7l-.36-.38a6.48,6.48,0,0,0-1-.85c-.39-.29-.8-.56-1.21-.83l-.94-.64c-.21-.15-.42-.3-.62-.46s-.4-.32-.61-.46a5.37,5.37,0,0,0-.93-.54,14.49,14.49,0,0,0-1.52-.49,1.63,1.63,0,0,0-.87,0,24,24,0,0,0-2.57.88,4,4,0,0,0-1,.53,5.19,5.19,0,0,0-.62.62l-.31.34L74,36c-.25.26-.5.52-.77.77l-1,.91-1,.88-.07.06a1.11,1.11,0,0,0-.48.73.46.46,0,0,1-.18.28l-.06.06c-.21.22-.43.44-.64.67-.51.52-1,1-1.49,1.62-.1.11-.22.21-.33.31-.29.24-.46.4-.42.7v.11l-.09.06-.22.12a1,1,0,0,0-.32.22c-.35.42-.69.86-1,1.29l-.26.35c-.08.1-.14.21-.21.31a1.7,1.7,0,0,1-.54.64,4.65,4.65,0,0,0-1.32,1.33c-.18.23-.37.46-.57.68-.58.64-1.1,1.35-1.61,2l-.54.74L60,52.11l-.74,1-.24.32c-.38.52-.78,1-1.19,1.56s-1,1.19-1.52,1.76l-.63.73a.64.64,0,0,0-.06.87.77.77,0,0,0,.23.28.81.81,0,0,0,.3-.14,1.93,1.93,0,0,0,.45-.49,2.12,2.12,0,0,1,.38-.46A7.3,7.3,0,0,0,58,56.33c.33-.42.69-.82,1-1.2a13,13,0,0,0,1.54-1.91,1.72,1.72,0,0,1,.4-.45l.24-.23a4.77,4.77,0,0,0,.41-.54,9.65,9.65,0,0,1,1-1.46c.51-.56,1-1.18,1.43-1.78l.55-.73.21-.27a4,4,0,0,1,.4-.52l.27-.28a17.27,17.27,0,0,0,2.54-3.1,2,2,0,0,1,.32-.38l1-1L70.83,41a3.17,3.17,0,0,0,.28-.34l.11-.15c.15-.19.29-.39.43-.59a12.54,12.54,0,0,1,1-1.28c.61-.61,1.27-1.19,1.92-1.74.2-.18.4-.36.61-.53a4.94,4.94,0,0,1,.45-.35A3.06,3.06,0,0,0,76,35.8,5.84,5.84,0,0,1,77.71,35l.44-.14a3.35,3.35,0,0,1,2.77.47,21.82,21.82,0,0,1,2,1.35l.63.44a6.58,6.58,0,0,1,.89.71c.49.47,1,1,1.44,1.44l.22.24.42.41c.36.37.74.75,1.08,1.16s.71.93,1,1.39.65.89,1,1.32a1.63,1.63,0,0,1,.49,1.36c-.05.27.08.44.4.52a1,1,0,0,1,.56.36,26.52,26.52,0,0,1,2.1,3.59c.24.49.51,1,.77,1.45s.36.64.53,1,.25.5.36.75.11.23.16.35l0,.1-.28.29-.11,0a.73.73,0,0,0-.31-.07,1.79,1.79,0,0,0-.67.19l-.26.11c-.9.34-1.71.68-2.46,1a2.86,2.86,0,0,0-.52.38l-.33.27-.62.42a11.45,11.45,0,0,0-1.06.77c-.4.33-.78.68-1.15,1s-.85.77-1.3,1.13a2.35,2.35,0,0,1-.32.23,1.17,1.17,0,0,0-.6.64.34.34,0,0,1-.2.19,4.43,4.43,0,0,0-1.45,1.11c-.19.2-.39.4-.61.59a5.43,5.43,0,0,0-.61.65,4.2,4.2,0,0,1-1.17,1,.48.48,0,0,0-.21.27.91.91,0,0,1-.48.74l-.08.06c-.28.21-.5.4-.69.57s-.3.3-.45.45a4.68,4.68,0,0,1-1,.85,12.09,12.09,0,0,0-2.35,2c-.23.23-.45.46-.68.68-.82.8-1.62,1.65-2.39,2.47l-1,1.07-.1.1a1.5,1.5,0,0,0-.24.27.61.61,0,0,0,.14.72A.48.48,0,0,0,72.17,73.4Z"/><path class="cls-5" d="M96.17,72.28c-.15.33-.27.53-.35.75a.55.55,0,0,1-.59.42c-.31,0-.39-.27-.45-.49a1.94,1.94,0,0,1,0-.72A11.16,11.16,0,0,1,95,71c.11-.46.3-.61.75-.47s.66-.09.9-.35a1.33,1.33,0,0,1,.38-.34.57.57,0,0,1,.78.48,1.58,1.58,0,0,1,0,.65c-.12.53-.27,1.06-.43,1.58s-.23.43-.84.44Z"/><path class="cls-5" d="M104,67.92a3.07,3.07,0,0,0,1.35.12.78.78,0,0,1,.93.77,20.76,20.76,0,0,1,0,2.09c0,.3-.23.41-.51.25a1.53,1.53,0,0,1-.37-.35c-.1-.11-.17-.24-.38-.53a1.89,1.89,0,0,1-.25.46c-.32.34-.68.26-.86-.18a.58.58,0,0,1,0-.19c0-.69,0-1.38-.06-2.07A1.21,1.21,0,0,1,104,67.92Z"/><path class="cls-5" d="M84.67,48.83A5.41,5.41,0,0,1,84.18,51c-.08.12-.14.29-.26.36-.28.16-.58.36-.92.15a.8.8,0,0,1-.34-.8c.09-.8.16-1.61.24-2.41a.89.89,0,1,1,1.77,0A5.94,5.94,0,0,1,84.67,48.83Z"/><path class="cls-6" d="M80.92,69.57c.65,0,1,.36.84.85a7.46,7.46,0,0,1-.26.8c-.17.43-.35.85-.55,1.26-.07.15-.17.37-.3.4a2.56,2.56,0,0,0-1.06.32.48.48,0,0,1-.3-.23,3.18,3.18,0,0,1-.08-1c0-.4.2-.8.28-1.2s.17-.52.48-.51.41-.2.57-.39A1.43,1.43,0,0,1,80.92,69.57Z"/><path class="cls-6" d="M87.22,74.39a4.2,4.2,0,0,1-.32-.29,2.47,2.47,0,0,1-.21-.27,5.64,5.64,0,0,1-.74.91c-.35.3-.72.12-.69-.34a6.15,6.15,0,0,1,.45-2.3l1,.21c.14-.15.29-.34.46-.51a.58.58,0,0,1,1,.2,2,2,0,0,1-.19,1.27C87.79,73.69,87.81,74.21,87.22,74.39Z"/><path class="cls-5" d="M60.92,66.44a2,2,0,0,1,0-1.87l.39-1.11c.15-.41.27-.5.73-.47s.85.27.88.62a4.65,4.65,0,0,1-.22,2.06.39.39,0,0,1-.14.21A3,3,0,0,1,60.92,66.44Z"/><path class="cls-5" d="M65.85,53.27A1.6,1.6,0,0,1,66,55a10.27,10.27,0,0,1-1.34,2.08.47.47,0,0,1-.63.18.49.49,0,0,1-.27-.61c.12-.42.24-.83.39-1.24s.48-1.08.69-1.62S65.07,53.26,65.85,53.27Z"/><path class="cls-5" d="M75,52.25c.26-.52.14-1.39.93-1.82a.93.93,0,0,1,.9,0,.72.72,0,0,1,.32.86c-.19.59-.4,1.18-.62,1.77a.64.64,0,0,1-.91.31A1,1,0,0,1,75,52.25Z"/><path class="cls-5" d="M75.75,44.6c.06-.34.13-.68.2-1s.18-.81.24-1.21.21-.62.59-.65.58.14.77.52a1.19,1.19,0,0,1-.12,1.21,2,2,0,0,0-.32,1,1.73,1.73,0,0,1-.29.77.55.55,0,0,1-.69.23.52.52,0,0,1-.36-.62c0-.06,0-.13,0-.19Z"/><path class="cls-5" d="M97.13,64.89c0-.31-.08-.65-.08-1,0-.63,0-1.27,0-1.9,0-.24,0-.56.3-.58a1.58,1.58,0,0,1,.78.24,1.19,1.19,0,0,1,.43.46.68.68,0,0,1,.12.52,8.73,8.73,0,0,1-.6,1.92C97.8,65.05,97.82,65.1,97.13,64.89Z"/><path class="cls-6" d="M72.52,64.13c0,.14-.13.41-.24.66s-.3.53-.44.8-.5.58-.81.48a1,1,0,0,1-.45-.86c0-.17.07-.34.1-.51.08-.47.17-.94.24-1.41s.2-.55.66-.46A1.23,1.23,0,0,1,72.52,64.13Z"/><path class="cls-5" d="M79.44,57.78c.2-.74.35-1.42.58-2.07a.75.75,0,0,1,1-.38c.06,0,.16.05.17.09a3,3,0,0,1,.21,1.29,5.58,5.58,0,0,1-.87,1.36.73.73,0,0,1-.09.08.54.54,0,0,1-.7.16C79.61,58.22,79.54,58,79.44,57.78Z"/><path class="cls-5" d="M68.37,57c1.12,0,1.33.54,1,1.46-.24.62-.75.84-1.15,1.24-.19.2-.45.09-.54-.18a3.85,3.85,0,0,1,.2-2.3A.37.37,0,0,1,68.37,57Z"/><path class="cls-5" d="M89.56,65.77c0-.47,0-.84.08-1.21a1.21,1.21,0,0,1,1.51-.7.86.86,0,0,1,.26.61,2.41,2.41,0,0,1-1,1.9.48.48,0,0,1-.78-.24A1.74,1.74,0,0,1,89.56,65.77Z"/><path class="cls-5" d="M102.36,51.07l.77.11c.59.1.79.49.69,1.09a4.77,4.77,0,0,1-.68,1.33.62.62,0,0,1-.75.24A3.74,3.74,0,0,1,102.36,51.07Z"/><path class="cls-5" d="M70.09,50.45l-.44-.11a1.77,1.77,0,0,1-.1-1.63,8.1,8.1,0,0,0,.23-.88c.08-.3.23-.49.61-.42s.63.18.7.53a.75.75,0,0,1,0,.33A4.76,4.76,0,0,1,70.09,50.45Z"/><path class="cls-5" d="M95.19,47.13a1.7,1.7,0,0,1,.69-1.66.69.69,0,0,1,.89,0,.63.63,0,0,1,.18.85,8.77,8.77,0,0,0-.39,1,.88.88,0,0,1-.74.57.45.45,0,0,1-.39-.17A2.87,2.87,0,0,1,95.19,47.13Z"/><path class="cls-5" d="M103.91,62.15c0,.66.37,1.15.9,1.08a5.47,5.47,0,0,0,1-.3c.09,0,.21-.24.18-.32a14,14,0,0,0-.52-1.41.48.48,0,0,0-.36-.24A1.54,1.54,0,0,0,103.91,62.15Z"/><path class="cls-7" d="M28.33,27a5.48,5.48,0,0,0,.6.07,8.45,8.45,0,0,1,2.72.6c.23.1.45.22.68.33a13.35,13.35,0,0,1,2.06,1.23c.4.3.76.66,1.13,1s.46.45.7.66.29.36.14.62a.27.27,0,0,1-.14.14,5.63,5.63,0,0,0-1.37.83,7.14,7.14,0,0,1-1.39.86l-.14.08A18.33,18.33,0,0,1,30.42,35a4.23,4.23,0,0,1-2.4.36c-.3,0-.61,0-.92,0a.54.54,0,0,0-.16,0,1.63,1.63,0,0,0,.14.18c.36.31.73.6,1.08.91s.76.7,1.14,1a4.1,4.1,0,0,0,.47.35,1,1,0,0,1,.23.18.29.29,0,0,1-.1.44,5.63,5.63,0,0,1-3,.86,9.3,9.3,0,0,1-1.67-.07,7,7,0,0,1-1.61-.46,14.21,14.21,0,0,1-1.4-.72,2.64,2.64,0,0,1-1.07-1L21,37c-.18,0-.23.14-.28.26-.13.31-.27.62-.39.94a7.86,7.86,0,0,1-1.07,1.92l-.12.19c-.15.25-.27.31-.54.21a2.65,2.65,0,0,1-1.34-1,4.51,4.51,0,0,1-.48-.82c-.19-.42-.44-.81-.65-1.22s-.5-1-.69-1.52-.29-1-.42-1.55c-.07-.28-.11-.56-.17-.84,0-.11,0-.21-.09-.36-.12,0-.22,0-.31.09-.69.32-1.36.67-2.05,1a6.47,6.47,0,0,1-1.23.37.89.89,0,0,1-.47-.08.26.26,0,0,1-.11-.17.18.18,0,0,1,.11-.14c.46-.19.92-.35,1.38-.54s1-.46,1.55-.7c.18-.08.35-.18.59-.31a1.53,1.53,0,0,0-.31-.16,9.94,9.94,0,0,1-2-.83,8.42,8.42,0,0,1-1.19-.7,6.09,6.09,0,0,1-1.3-1.43,4,4,0,0,1-.8-1.95,2.36,2.36,0,0,0-.1-.38c-.09-.33,0-.41.31-.45.18,0,.35-.05.53-.06l2-.05.36,0-.43-.72a5.7,5.7,0,0,1-.76-2,2.14,2.14,0,0,1,.2-1.31c.21-.42.36-.87.56-1.3.13-.26.3-.51.45-.76a.19.19,0,0,1,.27-.05,3,3,0,0,1,.62.37c.57.5,1.12,1,1.69,1.56q.32.28.66.54c.17.12.29.05.29-.16a1,1,0,0,0,0-.17,3.6,3.6,0,0,1,.24-2.22c.13-.31.27-.63.43-.93A4.31,4.31,0,0,1,17.16,18a8.54,8.54,0,0,1,1.11-.69c.28-.16.53-.37.81-.54a3.22,3.22,0,0,1,.51-.21L20.93,16a.27.27,0,0,1,.37.11,4.52,4.52,0,0,1,.25.49,7.24,7.24,0,0,1,.49,2c.06.59.19,1.17.29,1.76a1.13,1.13,0,0,0,.08.19,2.27,2.27,0,0,0,.38-.25c.34-.31.67-.64,1-.95a.65.65,0,0,1,.18-.15c.23-.14.46-.29.7-.42a5.56,5.56,0,0,0,.9-.55,1.41,1.41,0,0,1,.5-.22c.55-.17,1.09-.34,1.64-.48a4.61,4.61,0,0,1,1-.13c.7,0,1.4-.05,2.1-.06.33,0,.48.13.49.43a9.69,9.69,0,0,1-.49,3.86c-.13.33-.21.67-.34,1a25.24,25.24,0,0,1-1.53,3.24,6.76,6.76,0,0,1-.49.7C28.35,26.74,28.26,26.85,28.33,27Zm-12,4.43a.84.84,0,0,0-.19-.12c-.19-.07-.38-.11-.57-.17-.64-.2-1.29-.37-1.91-.61a9.2,9.2,0,0,1-1.4-.71A14.76,14.76,0,0,1,11.07,29a.65.65,0,0,1-.18-.22.33.33,0,0,1,0-.24.26.26,0,0,1,.23,0,3.53,3.53,0,0,1,.59.35A9.36,9.36,0,0,0,15,30.37c.49.13,1,.3,1.44.46a1.27,1.27,0,0,0,.18.06c.06,0,.16,0,.18-.05a.26.26,0,0,0,0-.21c0-.07-.09-.12-.14-.18s-.39-.42-.57-.63-.29-.36-.46-.52a5.19,5.19,0,0,1-1-1.46c-.31-.67-.58-1.37-.93-2s-.67-1.62-1-2.43a.23.23,0,0,1,.09-.31.24.24,0,0,1,.31.1.42.42,0,0,1,.08.21,4.36,4.36,0,0,0,.41,1.28c.35.82.76,1.61,1.09,2.43a8.82,8.82,0,0,0,1.71,2.6,2.44,2.44,0,0,0,.34.23,2.6,2.6,0,0,0,0-.28c.07-.92.11-1.84.19-2.75a9.53,9.53,0,0,1,.33-2.05c.09-.3.18-.6.26-.91.2-.74.37-1.49.6-2.22s.46-1.18.7-1.77c0-.11.11-.19.22-.13a.3.3,0,0,1,.13.23.85.85,0,0,1-.12.37,3.6,3.6,0,0,0-.43,1.1s0,.08,0,.12c-.14.48-.3,1-.43,1.45s-.27,1-.39,1.53A11.3,11.3,0,0,0,17.49,26c-.11.88-.16,1.77-.24,2.65a6.78,6.78,0,0,0,0,1.8c0,.27.19.34.41.2a6.34,6.34,0,0,0,.6-.41l1.92-1.55a25.92,25.92,0,0,0,2.75-2.59c.48-.52.94-1.07,1.39-1.63s1-1.32,1.49-2c.35-.48.67-1,1-1.47.08-.11.17-.18.31-.13a.26.26,0,0,1,.17.29,1,1,0,0,1-.13.4c-.26.41-.53.83-.83,1.23-.72.95-1.44,1.9-2.19,2.83-.51.62-1,1.22-1.61,1.79s-1,.93-1.49,1.38-1,.88-1.57,1.3c-.36.29-.74.55-1.11.82a3.22,3.22,0,0,0-.29.26,1,1,0,0,0,.61.16c.62,0,1.24.08,1.87.08a24.87,24.87,0,0,0,2.86-.06c.71-.09,1.44-.08,2.16-.12.46,0,.92-.09,1.38-.14a14.42,14.42,0,0,0,2.44-.31.22.22,0,0,1,.29.13.39.39,0,0,1-.26.56,3.53,3.53,0,0,1-.65.11l-2.06.22c-.37,0-.74.07-1.11.09-.88,0-1.75.09-2.63.12-.71,0-1.43,0-2.14,0s-1.42-.06-2.13-.09a2.91,2.91,0,0,0-.38,0,2.13,2.13,0,0,0,.23.28c.15.16.32.3.47.45s.33.36.52.51a8.32,8.32,0,0,0,1.33,1c.18.1.35.23.53.34.4.25.8.5,1.21.73a2.61,2.61,0,0,0,.92.34.52.52,0,0,1,.45.34c.05.17-.06.32-.21.27a8.74,8.74,0,0,1-1.33-.47,13.57,13.57,0,0,1-1.31-.81c-.45-.3-.92-.57-1.34-.9s-1.06-1-1.58-1.44a1.19,1.19,0,0,0-.55-.35,1.17,1.17,0,0,0,0,.32c0,.23.11.47.17.7a11.51,11.51,0,0,1,.54,2.9c0,.14.06.29-.07.4-.21-.1-.23-.13-.27-.4s-.12-.8-.21-1.19c-.2-.83-.42-1.64-.63-2.46a2.26,2.26,0,0,0-.13-.33.23.23,0,0,0-.31-.11c-.08,0-.15.09-.23.13l-1.13.67c-.22.12-.26.17-.2.42.15.66.27,1.33.46,2A15.64,15.64,0,0,0,16.28,37c.17.4.42.76.62,1.15s.22.53.37.77a2.17,2.17,0,0,0,1,1c.31.13.43.1.62-.18a8.71,8.71,0,0,0,1.08-2c.15-.47.35-.92.53-1.38.09-.25.24-.27.4-.07a3.7,3.7,0,0,1,.38.53,2.3,2.3,0,0,0,1.2,1.12,14.27,14.27,0,0,0,1.38.63,14.34,14.34,0,0,0,1.72.41,8.59,8.59,0,0,0,1,.08,6,6,0,0,0,1.94-.44,1.6,1.6,0,0,0,.72-.43L29,37.87l-1.42-1.21c-.52-.44-1.05-.87-1.58-1.3,0,0-.07-.06-.08-.1a.55.55,0,0,1,0-.3c.05-.12.17-.14.31-.13s.52.05.78.08.46.05.68.05a4.34,4.34,0,0,0,1,0,6.71,6.71,0,0,0,1.66-.49c.66-.31,1.29-.66,1.91-1,.39-.23.74-.53,1.13-.73a21,21,0,0,0,2.09-1.38c.15-.11.16-.18,0-.32a8,8,0,0,0-1.84-1.53c-.51-.3-1-.56-1.55-.86a7.45,7.45,0,0,0-2.34-.84,2.54,2.54,0,0,1-.48-.09,2.32,2.32,0,0,0-1.33,0c-.3.07-.45-.14-.39-.41a1.17,1.17,0,0,1,.16-.36c.27-.43.57-.84.8-1.29A27.25,27.25,0,0,0,29.8,23a21.22,21.22,0,0,0,.83-2.56,7.73,7.73,0,0,0,.19-2c0-.33,0-.34-.35-.38a9.19,9.19,0,0,0-2.16.05,6.49,6.49,0,0,0-.88.16c-.44.11-.89.24-1.33.38a3.8,3.8,0,0,0-.78.33,7.94,7.94,0,0,0-.91.6c-.36.28-.71.58-1.06.88a4.06,4.06,0,0,0-.93,1.05.35.35,0,0,1-.27.14c-.12,0-.19-.11-.18-.24a10.22,10.22,0,0,0-.27-1.91c-.06-.38-.09-.76-.15-1.14a4.29,4.29,0,0,0-.4-1.45c-.14-.28-.24-.34-.55-.27a1.93,1.93,0,0,0-.52.2c-.55.28-1.1.55-1.63.86a6,6,0,0,0-1.3.9A6,6,0,0,0,16,20.2a3.88,3.88,0,0,0-.38,2.39c.07.34.13.67.19,1,0,.13,0,.27-.09.35s-.26,0-.36-.07l-1.31-1.1-1.21-1.12a3.17,3.17,0,0,0-.56-.4c-.26-.15-.44-.06-.57.2a9.74,9.74,0,0,0-.6,1.46,1.79,1.79,0,0,0-.11,1c.07.27.13.56.22.82a4.79,4.79,0,0,0,1.18,2,.25.25,0,0,1,.08.32.27.27,0,0,1-.29.16c-.33,0-.66,0-1,0-.61,0-1.23.07-1.84.12a2.83,2.83,0,0,0-.37.09c0,.19.08.35.14.51a5.52,5.52,0,0,0,.41,1,6.78,6.78,0,0,0,.74,1,4.74,4.74,0,0,0,1.52,1.22c.76.38,1.53.73,2.28,1.11a1,1,0,0,0,1.06,0l.35-.18.8-.5S16.33,31.49,16.36,31.44Z"/><path class="cls-8" d="M16.36,31.44s0,.11-.07.13l-.8.5-.35.18a1,1,0,0,1-1.06,0c-.75-.38-1.52-.73-2.28-1.11A4.74,4.74,0,0,1,10.28,30a6.78,6.78,0,0,1-.74-1,5.52,5.52,0,0,1-.41-1c-.06-.16-.09-.32-.14-.51a2.83,2.83,0,0,1,.37-.09c.61-.05,1.23-.09,1.84-.12.33,0,.66,0,1,0a.27.27,0,0,0,.29-.16.25.25,0,0,0-.08-.32,4.79,4.79,0,0,1-1.18-2c-.09-.26-.15-.55-.22-.82a1.79,1.79,0,0,1,.11-1,9.74,9.74,0,0,1,.6-1.46c.13-.26.31-.35.57-.2a3.17,3.17,0,0,1,.56.4l1.21,1.12,1.31,1.1c.1.08.22.16.36.07s.12-.22.09-.35c-.06-.34-.12-.67-.19-1A3.88,3.88,0,0,1,16,20.2a6,6,0,0,1,1.15-1.67,6,6,0,0,1,1.3-.9c.53-.31,1.08-.58,1.63-.86a1.93,1.93,0,0,1,.52-.2c.31-.07.41,0,.55.27a4.29,4.29,0,0,1,.4,1.45c.06.38.09.76.15,1.14A10.22,10.22,0,0,1,22,21.34c0,.13.06.24.18.24a.35.35,0,0,0,.27-.14,4.06,4.06,0,0,1,.93-1.05c.35-.3.7-.6,1.06-.88a7.94,7.94,0,0,1,.91-.6,3.8,3.8,0,0,1,.78-.33c.44-.14.89-.27,1.33-.38a6.49,6.49,0,0,1,.88-.16A9.19,9.19,0,0,1,30.47,18c.33,0,.34.05.35.38a7.73,7.73,0,0,1-.19,2A21.22,21.22,0,0,1,29.8,23a27.25,27.25,0,0,1-1.32,2.65c-.23.45-.53.86-.8,1.29a1.17,1.17,0,0,0-.16.36c-.06.27.09.48.39.41a2.32,2.32,0,0,1,1.33,0,2.54,2.54,0,0,0,.48.09,7.45,7.45,0,0,1,2.34.84c.51.3,1,.56,1.55.86A8,8,0,0,1,35.45,31c.13.14.12.21,0,.32a21,21,0,0,1-2.09,1.38c-.39.2-.74.5-1.13.73-.62.36-1.25.71-1.91,1a6.71,6.71,0,0,1-1.66.49,4.34,4.34,0,0,1-1,0c-.22,0-.45,0-.68-.05s-.52,0-.78-.08-.26,0-.31.13a.55.55,0,0,0,0,.3s.05.07.08.1c.53.43,1.06.86,1.58,1.3L29,37.87l.34.28a1.6,1.6,0,0,1-.72.43,6,6,0,0,1-1.94.44,8.59,8.59,0,0,1-1-.08,14.34,14.34,0,0,1-1.72-.41,14.27,14.27,0,0,1-1.38-.63,2.3,2.3,0,0,1-1.2-1.12,3.7,3.7,0,0,0-.38-.53c-.16-.2-.31-.18-.4.07-.18.46-.38.91-.53,1.38a8.71,8.71,0,0,1-1.08,2c-.19.28-.31.31-.62.18a2.17,2.17,0,0,1-1-1c-.15-.24-.24-.51-.37-.77s-.45-.75-.62-1.15a15.64,15.64,0,0,1-.64-1.73c-.19-.65-.31-1.32-.46-2-.06-.25,0-.3.2-.42l1.13-.67c.08,0,.15-.1.23-.13a.23.23,0,0,1,.31.11,2.26,2.26,0,0,1,.13.33c.21.82.43,1.63.63,2.46.09.39.14.79.21,1.19s.06.3.27.4c.13-.11.08-.26.07-.4a11.51,11.51,0,0,0-.54-2.9c-.06-.23-.13-.47-.17-.7a1.17,1.17,0,0,1,0-.32,1.19,1.19,0,0,1,.55.35c.52.48,1,1,1.58,1.44s.89.6,1.34.9a13.57,13.57,0,0,0,1.31.81,8.74,8.74,0,0,0,1.33.47c.15,0,.26-.1.21-.27a.52.52,0,0,0-.45-.34,2.61,2.61,0,0,1-.92-.34c-.41-.23-.81-.48-1.21-.73-.18-.11-.35-.24-.53-.34a8.32,8.32,0,0,1-1.33-1c-.19-.15-.34-.34-.52-.51s-.32-.29-.47-.45a2.13,2.13,0,0,1-.23-.28,2.91,2.91,0,0,1,.38,0c.71,0,1.42.08,2.13.09s1.43,0,2.14,0c.88,0,1.75-.08,2.63-.12.37,0,.74-.06,1.11-.09l2.06-.22a3.53,3.53,0,0,0,.65-.11.39.39,0,0,0,.26-.56.22.22,0,0,0-.29-.13,14.42,14.42,0,0,1-2.44.31c-.46.05-.92.11-1.38.14-.72,0-1.45,0-2.16.12a24.87,24.87,0,0,1-2.86.06c-.63,0-1.25,0-1.87-.08a1,1,0,0,1-.61-.16,3.22,3.22,0,0,1,.29-.26c.37-.27.75-.53,1.11-.82.53-.42,1.06-.85,1.57-1.3s1-.89,1.49-1.38,1.1-1.17,1.61-1.79c.75-.93,1.47-1.88,2.19-2.83.3-.4.57-.82.83-1.23a1,1,0,0,0,.13-.4.26.26,0,0,0-.17-.29c-.14-.05-.23,0-.31.13-.33.49-.65,1-1,1.47-.48.68-1,1.35-1.49,2s-.91,1.11-1.39,1.63a25.92,25.92,0,0,1-2.75,2.59l-1.92,1.55a6.34,6.34,0,0,1-.6.41c-.22.14-.36.07-.41-.2a6.78,6.78,0,0,1,0-1.8c.08-.88.13-1.77.24-2.65a11.3,11.3,0,0,1,.29-1.38q.18-.76.39-1.53c.13-.49.29-1,.43-1.45,0,0,0-.08,0-.12a3.6,3.6,0,0,1,.43-1.1.85.85,0,0,0,.12-.37.3.3,0,0,0-.13-.23c-.11-.06-.18,0-.22.13-.24.59-.51,1.17-.7,1.77s-.4,1.48-.6,2.22c-.08.31-.17.61-.26.91A9.53,9.53,0,0,0,17,26.89c-.08.91-.12,1.83-.19,2.75a2.6,2.6,0,0,1,0,.28,2.44,2.44,0,0,1-.34-.23,8.82,8.82,0,0,1-1.71-2.6c-.33-.82-.74-1.61-1.09-2.43a4.36,4.36,0,0,1-.41-1.28.42.42,0,0,0-.08-.21.24.24,0,0,0-.31-.1.23.23,0,0,0-.09.31c.34.81.59,1.65,1,2.43s.62,1.36.93,2a5.19,5.19,0,0,0,1,1.46c.17.16.3.35.46.52s.38.42.57.63.12.11.14.18a.26.26,0,0,1,0,.21s-.12.05-.18.05a1.27,1.27,0,0,1-.18-.06c-.48-.16-1-.33-1.44-.46a9.36,9.36,0,0,1-3.26-1.52,3.53,3.53,0,0,0-.59-.35.26.26,0,0,0-.23,0,.33.33,0,0,0,0,.24.65.65,0,0,0,.18.22,14.76,14.76,0,0,0,1.22.85,9.2,9.2,0,0,0,1.4.71c.62.24,1.27.41,1.91.61.19.06.38.1.57.17A.84.84,0,0,1,16.36,31.44Z"/><path class="cls-7" d="M52.63,32.88c.11-.16.19-.24.24-.32a21,21,0,0,1,2.13-3c.1-.11.18-.23.27-.34a.46.46,0,0,1,.66-.13,2.89,2.89,0,0,1,.52.53,4.8,4.8,0,0,1,.52.83c.17.36.29.74.43,1.12.06.13.11.27.16.4a.53.53,0,0,1,.07.2A8.39,8.39,0,0,1,57.71,34c-.06.43-.1.86-.2,1.28a2.69,2.69,0,0,1-.27.67c-.14.26-.11.35.21.37s.56,0,.81,0,.77.17,1.14.27.62.18.92.28a6.65,6.65,0,0,1,1.84.87c.19.14.4.27.59.4s.12.21,0,.35a9.57,9.57,0,0,1-.95.83c-.34.25-.61.55-1,.79s-.8.56-1.22.82a13.6,13.6,0,0,1-2.8,1.18c-.36.12-.72.26-1.09.4,0,.17,0,.35-.08.52a1.75,1.75,0,0,1-.83,1.15,2.92,2.92,0,0,1-1.22.53l-.08,0c-.46.14-.58.25-.51.59s.21.77.32,1.16.17.6.26.9a.23.23,0,0,1-.17.27.34.34,0,0,1-.39,0,.54.54,0,0,1-.16-.22c-.14-.57-.27-1.14-.42-1.71,0-.17-.07-.39-.22-.46a1.45,1.45,0,0,0-.65.08,2.18,2.18,0,0,1-1.34,0c-.22-.09-.33,0-.48.19s-.45.63-.7.94a6.13,6.13,0,0,1-2.62,1.74,11.67,11.67,0,0,1-3.26.74,1.49,1.49,0,0,1-.52-.07.23.23,0,0,1-.15-.17,4.07,4.07,0,0,1,.22-1.87,7.08,7.08,0,0,1,1.35-2.28c.17-.22.33-.45.49-.67-.15-.15-.32-.11-.5-.07a4.77,4.77,0,0,1-1.76.06,2.82,2.82,0,0,1-1.68-.82,5.65,5.65,0,0,1-1.13-1.68c-.15-.35-.34-.69-.46-1a7.43,7.43,0,0,1-.25-1.06c0-.15.06-.22.31-.29l1.79-.5.31-.1A6.46,6.46,0,0,1,42.48,38a8,8,0,0,0,.94-.32c.18-.07.21-.17.15-.28s-.24-.39-.34-.59a9.87,9.87,0,0,1-.67-2.25c-.05-.21-.08-.43-.14-.64a5.74,5.74,0,0,1-.15-1.71,2.84,2.84,0,0,1,.1-.49,19,19,0,0,1,.69-2.58c.2-.51.32-1,.5-1.53s.28-.74.42-1.11a2.68,2.68,0,0,0,.07-.27c.08-.24.23-.34.54-.33A1.84,1.84,0,0,1,45,26a6.83,6.83,0,0,1,1.81.75c.74.46,1.5.89,2.23,1.35a7.42,7.42,0,0,1,2.42,2.37,6.73,6.73,0,0,1,1,2.19C52.46,32.7,52.53,32.76,52.63,32.88Zm2.93-3a1.81,1.81,0,0,0-.19.17c-.41.54-.83,1.07-1.22,1.61a12.26,12.26,0,0,0-.67,1.09l-.65,1.2c-.06.11-.15.26-.32.24a1,1,0,0,1-.37-.19s0-.09,0-.14c-.11-.39-.21-.8-.35-1.18a12.28,12.28,0,0,0-.62-1.39c-.2-.38-.49-.71-.71-1.07a4.58,4.58,0,0,0-1.37-1.33c-.58-.43-1.26-.77-1.86-1.17a10.51,10.51,0,0,0-1.53-.92,4,4,0,0,0-.69-.24c-.27-.07-.38,0-.47.21-.26.7-.54,1.39-.75,2.08s-.43,1.52-.59,2.27a9.41,9.41,0,0,0-.2,1.65,5.17,5.17,0,0,0,.17,1.17c.08.4.2.79.28,1.2a6.43,6.43,0,0,0,.7,1.89.58.58,0,0,0,.44.3,1.85,1.85,0,0,1,.31.11.2.2,0,0,1,0,.09,1.09,1.09,0,0,1-.08.15c-.21.37-.34.44-.84.48a1.68,1.68,0,0,0-.36.08l-.94.27a22.29,22.29,0,0,0-2.88.89c-.39.16-.44.23-.38.52a.57.57,0,0,0,0,.14,11.55,11.55,0,0,0,1,2.12,3.4,3.4,0,0,0,1.2,1.15.79.79,0,0,0,.28.12c.38.05.77.12,1.17.14a5.44,5.44,0,0,0,1.71-.32,2.41,2.41,0,0,1,.52-.11c.27,0,.39.11.29.31a1.88,1.88,0,0,1-.12.18l-.53.69c-.25.35-.46.71-.74,1.05a3.92,3.92,0,0,0-.85,1.48,3.43,3.43,0,0,0-.24,1.46c0,.21.07.26.38.24a5.07,5.07,0,0,0,.56-.05,9.63,9.63,0,0,0,3.3-1.2,4.23,4.23,0,0,0,1.15-1,9.26,9.26,0,0,0,1-1.51,2.09,2.09,0,0,1,.36,0,5.45,5.45,0,0,1,.61.2A2,2,0,0,0,51.86,45c.29-.09.37-.18.34-.39s-.1-.32-.13-.48a10.12,10.12,0,0,0-.76-2.53c0-.07-.09-.12-.14-.2a1.76,1.76,0,0,0-.2.13c-.19.21-.37.43-.57.64-.56.61-1.09,1.24-1.7,1.82-.76.72-1.59,1.42-2.4,2.11-.3.26-.64.5-1,.74s-.45.15-.56,0,0-.26.22-.4l.07,0a2.69,2.69,0,0,0,.88-.6c.57-.48,1.13-1,1.68-1.47s.92-.82,1.33-1.26.85-1,1.27-1.48c.1-.13.22-.26.19-.42h-.27c-.61,0-1.23.06-1.83.07a12.88,12.88,0,0,1-3.45-.34c-.44-.1-.88-.21-1.3-.33a2.76,2.76,0,0,1-.59-.22.53.53,0,0,1-.21-.18c-.07-.11,0-.21.18-.22a1.35,1.35,0,0,1,.35,0l.59.16c.53.14,1,.29,1.59.4a11.43,11.43,0,0,0,1.21.15,5.85,5.85,0,0,0,.73,0c.8,0,1.61,0,2.41,0l.69-.06c.31-.05.38-.14.29-.35-.24-.57-.48-1.14-.73-1.7s-.47-1-.69-1.47a4,4,0,0,0-.51-1,1.77,1.77,0,0,1-.26-.41c-.21-.44-.4-.89-.61-1.33l-.58-1.15-.5-1c-.31-.64-.61-1.28-.91-1.92a.94.94,0,0,1-.17-.66c.28-.09.39,0,.46.14.18.35.36.69.52,1,.31.63.59,1.27.91,1.89s.63,1.16,1,1.74.71,1.3,1,1.95.62,1.23.91,1.85c.2.42.39.84.58,1.26,0,.09.07.22.23.18s.19-.16.26-.25.2-.33.31-.5a10.5,10.5,0,0,0,.87-1.45c.23-.51.43-1,.63-1.53a6.23,6.23,0,0,0,.32-.88c.11-.43.16-.86.26-1.29,0-.09.1-.24.15-.24a.61.61,0,0,1,.33.06.21.21,0,0,1,.1.18,3.71,3.71,0,0,1-.08.73c-.17.62-.38,1.25-.57,1.87a3.89,3.89,0,0,1-.19.42,9.81,9.81,0,0,1-.5,1.1c-.42.72-.88,1.44-1.32,2.16a1.23,1.23,0,0,0-.08.25c.22,0,.4,0,.57-.06q1.09-.27,2.19-.57c.64-.16,1.27-.35,1.91-.51.3-.07.35,0,.43.25-.15.07-.3.16-.46.22l-1,.33a2.6,2.6,0,0,1-.47.16,24.92,24.92,0,0,1-3,.69c-.28,0-.35.13-.29.33s.18.46.25.69A11.72,11.72,0,0,1,53,44.45a.19.19,0,0,0,.17.14,2.86,2.86,0,0,0,.86-.23A2.11,2.11,0,0,0,55,43.25a1,1,0,0,0-.1-.72c-.09-.23.06-.36.4-.37a2.31,2.31,0,0,0,1-.18c.36-.17.74-.3,1.12-.44a7.52,7.52,0,0,0,2.21-1.16,1.43,1.43,0,0,1,.24-.16,2.92,2.92,0,0,0,.8-.61,2,2,0,0,1,.49-.38,1.83,1.83,0,0,0,.64-.55c.17-.21.18-.25,0-.37a10.58,10.58,0,0,0-2.56-1.1l-.69-.2a3.53,3.53,0,0,0-.65-.11c-.43,0-.86,0-1.29,0s-.42-.13-.31-.41.19-.51.3-.76A4.31,4.31,0,0,0,57,33.11c0-.16-.08-.31-.09-.47a5.23,5.23,0,0,0-.8-2.32A.91.91,0,0,0,55.56,29.84Z"/><path class="cls-9" d="M55.56,29.84a.91.91,0,0,1,.5.48,5.23,5.23,0,0,1,.8,2.32c0,.16.07.31.09.47a4.31,4.31,0,0,1-.31,2.57c-.11.25-.21.51-.3.76s0,.39.31.41.86,0,1.29,0a3.53,3.53,0,0,1,.65.11l.69.2a10.58,10.58,0,0,1,2.56,1.1c.23.12.22.16,0,.37a1.83,1.83,0,0,1-.64.55,2,2,0,0,0-.49.38,2.92,2.92,0,0,1-.8.61,1.43,1.43,0,0,0-.24.16,7.52,7.52,0,0,1-2.21,1.16c-.38.14-.76.27-1.12.44a2.31,2.31,0,0,1-1,.18c-.34,0-.49.14-.4.37a1,1,0,0,1,.1.72A2.11,2.11,0,0,1,54,44.36a2.86,2.86,0,0,1-.86.23.19.19,0,0,1-.17-.14,11.72,11.72,0,0,0-.83-2.53c-.07-.23-.17-.46-.25-.69s0-.3.29-.33a24.92,24.92,0,0,0,3-.69,2.6,2.6,0,0,0,.47-.16l1-.33c.16-.06.31-.15.46-.22-.08-.28-.13-.32-.43-.25-.64.16-1.27.35-1.91.51s-1.46.39-2.19.57c-.17,0-.35,0-.57.06a1.23,1.23,0,0,1,.08-.25c.44-.72.9-1.44,1.32-2.16a9.81,9.81,0,0,0,.5-1.1,3.89,3.89,0,0,0,.19-.42c.19-.62.4-1.25.57-1.87a3.71,3.71,0,0,0,.08-.73.21.21,0,0,0-.1-.18.61.61,0,0,0-.33-.06c-.05,0-.13.15-.15.24-.1.43-.15.86-.26,1.29a6.23,6.23,0,0,1-.32.88c-.2.51-.4,1-.63,1.53A10.5,10.5,0,0,1,52,39c-.11.17-.2.34-.31.5s-.16.22-.26.25-.19-.09-.23-.18c-.19-.42-.38-.84-.58-1.26-.29-.62-.59-1.24-.91-1.85s-.69-1.3-1-1.95-.65-1.15-1-1.74-.6-1.26-.91-1.89c-.16-.34-.34-.68-.52-1-.07-.14-.18-.23-.46-.14a.94.94,0,0,0,.17.66c.3.64.6,1.28.91,1.92l.5,1L48,34.42c.21.44.4.89.61,1.33a1.77,1.77,0,0,0,.26.41,4,4,0,0,1,.51,1c.22.5.46,1,.69,1.47s.49,1.13.73,1.7c.09.21,0,.3-.29.35l-.69.06c-.8,0-1.61,0-2.41,0a5.85,5.85,0,0,1-.73,0,11.43,11.43,0,0,1-1.21-.15c-.54-.11-1.06-.26-1.59-.4L43.29,40a1.35,1.35,0,0,0-.35,0c-.17,0-.25.11-.18.22a.53.53,0,0,0,.21.18,2.76,2.76,0,0,0,.59.22c.42.12.86.23,1.3.33a12.88,12.88,0,0,0,3.45.34c.6,0,1.22,0,1.83-.07h.27c0,.16-.09.29-.19.42-.42.5-.82,1-1.27,1.48s-.87.85-1.33,1.26-1.11,1-1.68,1.47a2.69,2.69,0,0,1-.88.6l-.07,0c-.24.14-.32.29-.22.4s.34.13.56,0,.67-.48,1-.74c.81-.69,1.64-1.39,2.4-2.11.61-.58,1.14-1.21,1.7-1.82.2-.21.38-.43.57-.64a1.76,1.76,0,0,1,.2-.13c0,.08.12.13.14.2a10.12,10.12,0,0,1,.76,2.53c0,.16.11.31.13.48s-.05.3-.34.39a2,2,0,0,1-1.38.06,5.45,5.45,0,0,0-.61-.2,2.09,2.09,0,0,0-.36,0,9.26,9.26,0,0,1-1,1.51,4.23,4.23,0,0,1-1.15,1,9.63,9.63,0,0,1-3.3,1.2,5.07,5.07,0,0,1-.56.05c-.31,0-.34,0-.38-.24a3.43,3.43,0,0,1,.24-1.46,3.92,3.92,0,0,1,.85-1.48c.28-.34.49-.7.74-1.05l.53-.69a1.88,1.88,0,0,0,.12-.18c.1-.2,0-.34-.29-.31a2.41,2.41,0,0,0-.52.11,5.44,5.44,0,0,1-1.71.32c-.4,0-.79-.09-1.17-.14a.79.79,0,0,1-.28-.12,3.4,3.4,0,0,1-1.2-1.15,11.55,11.55,0,0,1-1-2.12.57.57,0,0,1,0-.14c-.06-.29,0-.36.38-.52a22.29,22.29,0,0,1,2.88-.89l.94-.27a1.68,1.68,0,0,1,.36-.08c.5,0,.63-.11.84-.48a1.09,1.09,0,0,0,.08-.15.2.2,0,0,0,0-.09,1.85,1.85,0,0,0-.31-.11.58.58,0,0,1-.44-.3,6.43,6.43,0,0,1-.7-1.89c-.08-.41-.2-.8-.28-1.2A5.17,5.17,0,0,1,43,32.73a9.41,9.41,0,0,1,.2-1.65c.16-.75.36-1.51.59-2.27s.49-1.38.75-2.08c.09-.23.2-.28.47-.21a4,4,0,0,1,.69.24,10.51,10.51,0,0,1,1.53.92c.6.4,1.28.74,1.86,1.17a4.58,4.58,0,0,1,1.37,1.33c.22.36.51.69.71,1.07a12.28,12.28,0,0,1,.62,1.39c.14.38.24.79.35,1.18,0,0,0,.11,0,.14a1,1,0,0,0,.37.19c.17,0,.26-.13.32-.24l.65-1.2a12.26,12.26,0,0,1,.67-1.09c.39-.54.81-1.07,1.22-1.61A1.81,1.81,0,0,1,55.56,29.84Z"/><path class="cls-10" d="M21.24,50.3s-1,12.43,7.88,9.67-3.18-8.76-3.68-4.22S35.56,67.35,45,63.43"/><path class="cls-11" d="M54.84,109a1.18,1.18,0,0,1-1.32,1.1,1.16,1.16,0,0,1-1.3-1.1v0l.11-8.94c-2.21,4-3,4-3.4,4a1.34,1.34,0,0,1-1.35-1.22A1.24,1.24,0,0,1,48,102a23.13,23.13,0,0,0,4.34-6.48v-.3l-2.67.06h0a1.09,1.09,0,0,1-1.21-1.11,1.19,1.19,0,0,1,1.24-1.21H52.3l0-2.35c-.94.19-2.16.38-2.37.38a1.19,1.19,0,0,1-1.19-1.25,1,1,0,0,1,1-1.1,20.68,20.68,0,0,0,6.26-1.54,1.12,1.12,0,0,1,.43-.08,1.24,1.24,0,0,1,1.16,1.24c0,.73-.37,1-2.69,1.75,0,.57,0,1.65-.06,3h2A1.15,1.15,0,0,1,58,94.1a1.1,1.1,0,0,1-1.16,1.14h0l-2,0v2.43a1.41,1.41,0,0,1,.35,0c.67,0,2.64,1.83,3.13,2.48a1.24,1.24,0,0,1,.3.81,1.3,1.3,0,0,1-1.25,1.27,1.16,1.16,0,0,1-.94-.54,14,14,0,0,0-1.59-1.84c0,4,.13,9.18.13,9.18Zm2.13.67a1.24,1.24,0,0,1-1.29-1.19,1.22,1.22,0,0,1,.7-1c5.59-3.16,6.43-8.64,6.43-14.82,0-1.46,0-2.94-.09-4.45v-.06a1.27,1.27,0,0,1,2.54,0c0,.64,0,1.27,0,1.89,0,.89,0,1.78-.06,2.67a1.27,1.27,0,0,1,0,.35,21.79,21.79,0,0,0,.24,3.27,30,30,0,0,0,3.73-4,1.11,1.11,0,0,1,.86-.43,1.45,1.45,0,0,1,1.41,1.37,1.47,1.47,0,0,1-.44,1,38,38,0,0,1-5,4.54,13.91,13.91,0,0,0,5.51,7.85,1.4,1.4,0,0,1-.7,2.62c-1.27,0-5-3.29-6.48-9.26C62.62,107.28,57.89,109.65,57,109.65Zm.87-11.31a1.67,1.67,0,0,1,.16-.67,8.29,8.29,0,0,0,.62-3.3,9.15,9.15,0,0,0-.11-1.32,1,1,0,0,1,0-.24,1.05,1.05,0,0,1,1.16-1c1.35,0,1.35,1.27,1.35,2.7,0,2-.3,4.91-2,4.91A1,1,0,0,1,57.84,98.34Z"/></g></svg>