<svg xmlns="http://www.w3.org/2000/svg" viewBox="0 0 200 200"><defs><style>.cls-1{fill:#f5c4d9;}.cls-2{fill:#4d4d4d;}.cls-3{fill:#b6d2ee;}.cls-4,.cls-5{fill:none;stroke-miterlimit:10;stroke-width:1.22px;}.cls-4{stroke:#2e3659;}.cls-5{stroke:#3e3a39;}.cls-6{fill:#2e3659;}.cls-7{fill:#fff;}.cls-8{fill:#f2acc9;}.cls-9{fill:#eb72a5;}.cls-10{fill:#ef8b74;}.cls-11{fill:#3e3a39;}.cls-12{fill:#fff000;}.cls-13{fill:#f2a5b5;}.cls-14{fill:#f8c8d1;}.cls-15{fill:#e9e695;}</style></defs><g id="レイヤー_1" data-name="レイヤー 1"><path class="cls-1" d="M176.46,190.58c-7.1,3-15.18,4.27-23,4.83-22.6,1.62-45.26,2.6-67.92,2.6-17.77,0-38.13,3.89-54.69-4.61C6.47,180.9,4,145.49,1.13,121.6c-1.68-14,.61-25.55,1.79-39.21S1.88,55.77,5.63,42c1.93-7.09,4-14.41,8.66-20C20.05,15.05,28.9,11.72,37.43,9,71.14-1.88,115-1,148.93,8.05c16.31,4.34,24.32,14.41,32.61,29,11.05,19.47,4,36.18,6,56.79,2.35,23.64,15.75,50.87,9,74.72C193.33,180,185.73,186.71,176.46,190.58Z"/><path class="cls-2" d="M97.37,145.22a17.29,17.29,0,0,0,6.63,5.55,1.37,1.37,0,0,1,.87,1.2,1.74,1.74,0,0,1-1.74,1.59c-.87,0-3.36-1.5-6-4.5a2.13,2.13,0,0,1,.12.6c.06,1.35.12,3.12.12,4.65,0,.45,0,.87,0,1.26a3,3,0,0,1-3,2.85c-1.05.06-2.1.09-3.12.09s-2.07,0-3.06-.09c-1.89-.12-3-1.2-3.09-2.79,0-.45,0-.9,0-1.38,0-1.53.06-3.12.12-4.38a1.93,1.93,0,0,1,.09-.6c-1.53,1.8-5,4.95-6.3,4.95a1.36,1.36,0,0,1-1.38-1.32,1.44,1.44,0,0,1,.84-1.26A19.13,19.13,0,0,0,85,145.22l-5,0a1.16,1.16,0,0,1-1.29-1.14,1.24,1.24,0,0,1,1.29-1.26l6.36.06c.3-.6.6-1.23.87-1.86l-3.72,0h0A1.1,1.1,0,0,1,82.19,140a1.19,1.19,0,0,1,1.26-1.17H88c.18-.51.33-1.05.48-1.56H81.92a1.16,1.16,0,0,1-1.29-1.14,1.23,1.23,0,0,1,1.29-1.23h7.2c.15-.63.24-1.23.36-1.86a1.35,1.35,0,0,1,1.38-1.17,1.45,1.45,0,0,1,1.56,1.32,15.7,15.7,0,0,1-.36,1.71h8.28a1.19,1.19,0,1,1,0,2.37H91.4c-.15.51-.3,1-.48,1.56h7.89a1.13,1.13,0,1,1,0,2.25l-3.9,0c.3.66.63,1.26,1,1.86l6.6-.06a1.2,1.2,0,1,1,0,2.4Zm-9.24,0a23.83,23.83,0,0,1-1.5,2.34c.66-.33,1.35-.45,4.47-.45,4,0,4.17.06,5,.57a29.75,29.75,0,0,1-1.71-2.46Zm-.63,8.37c0,.51,0,1,0,1.38.06,1.2,1,1.2,3.78,1.2,2.37,0,3.48,0,3.54-1.23v-1.35Zm7.32-2.13c0-.36,0-.66,0-.93-.06-1.29-.72-1.29-3.63-1.29-3.45,0-3.6,0-3.6,2.22ZM90.14,141c-.27.63-.51,1.29-.81,1.89h3.72c-.3-.63-.6-1.23-.84-1.86Z"/><path class="cls-2" d="M116.24,148.59a12.71,12.71,0,0,1-3.23,6.48c-1.24,1.14-2.58.51-3.28-.87-1-2,.06-5,2.2-6.45a6.69,6.69,0,0,1,6.92-.36,4.74,4.74,0,0,1,1.49,6.72,6.71,6.71,0,0,1-3.91,2.64c-1.41.37-1.9-1.25-.53-1.57a5,5,0,0,0,3-1.79,3.45,3.45,0,0,0-.88-4.9,4.17,4.17,0,0,0-2-.64A.82.82,0,0,1,116.24,148.59Zm-3.55.3c-1.49,1.15-2.29,3.28-1.62,4.51.24.47.66.71,1.06.36a9.63,9.63,0,0,0,2.48-5.33,1.05,1.05,0,0,1,.14-.5A5.26,5.26,0,0,0,112.69,148.89Z"/><path class="cls-2" d="M41.11,176.6v2.77a.75.75,0,0,1-1.48,0V176.6H38.24a.65.65,0,0,1-.72-.64.69.69,0,0,1,.72-.7h1.39v-.4l0-2.77a15.25,15.25,0,0,1-3.37,4.54.8.8,0,0,1-.58.24.75.75,0,0,1-.64-.35L35,179.35a.73.73,0,0,1-.78.74.71.71,0,0,1-.76-.72v0l.16-7.39c-1,1.33-1.45,1.57-1.8,1.57a.74.74,0,0,1-.76-.71.77.77,0,0,1,.28-.56A14.78,14.78,0,0,0,35,166.47a.71.71,0,0,1,.68-.51.87.87,0,0,1,.9.78,12.09,12.09,0,0,1-1.38,2.9l-.12,6.19a.69.69,0,0,1,.2-.22,14.46,14.46,0,0,0,3.89-5l-2.72.05h0a.65.65,0,0,1-.72-.67.71.71,0,0,1,.73-.72H39.6v-2.72a.7.7,0,0,1,.76-.69.71.71,0,0,1,.78.69v2.72h3.57a.68.68,0,0,1,.7.7.65.65,0,0,1-.69.69h0l-3.2-.05a15.43,15.43,0,0,0,4.19,4.55.77.77,0,0,1,.34.64.81.81,0,0,1-.79.8,1.06,1.06,0,0,1-.64-.26,16.82,16.82,0,0,1-3.55-4.26l0,2.74v.42h1.42a.67.67,0,1,1,0,1.34Z"/><path class="cls-2" d="M47.78,177.67a.86.86,0,0,1,.14-.44,5.29,5.29,0,0,0,.59-2,.52.52,0,0,1,.5-.55.55.55,0,0,1,.57.62c0,.66-.4,3-1.23,3A.58.58,0,0,1,47.78,177.67ZM53,172.94c.27,0,1.41,0,1.41,1.61,0,2.77-.38,5-2.83,5-1,0-1.57-.17-1.57-.81a.64.64,0,0,1,.62-.69.62.62,0,0,1,.18,0,3.83,3.83,0,0,0,.88.12c.61,0,1.15-.32,1.28-2a.43.43,0,0,1-.34.18.32.32,0,0,1-.32-.29,6.28,6.28,0,0,0-.52-1.25.29.29,0,0,1,0-.18c0-.16.16-.27.35-.27.5,0,.9,1.14.93,1.25,0-.34,0-.64,0-.85,0-.62-.08-.69-1.21-.69l-1.65,0a1.31,1.31,0,0,1-1.47-1.34c0-.63,0-1.6,0-2.56s0-1.91,0-2.44a1.42,1.42,0,0,1,1.47-1.49h3.79a.55.55,0,0,1,.53.58.61.61,0,0,1-.61.62H52.35v1.06h1.08a.54.54,0,0,1,.59.54.55.55,0,0,1-.59.57H52.35v1.07h1.08a.55.55,0,1,1,0,1.1H52.35v1.11Zm-3.14,4.14V177c0-.24,0-.51,0-.77,0-.48,0-.93,0-1.12v-.06a.37.37,0,0,1,.37-.42c.22,0,.54,0,.54,2.06,0,.24,0,.79-.51.79A.39.39,0,0,1,49.82,177.08Zm1.3-9.6h-.7c-.24,0-.44.13-.45.52,0,.14,0,.33,0,.54h1.17Zm0,2.18H50v1.07h1.17Zm0,2.17H50c0,.23,0,.43,0,.61a.47.47,0,0,0,.49.5h.66Zm0,4.74a6.94,6.94,0,0,0-.31-1.5.61.61,0,0,1,0-.16.35.35,0,0,1,.37-.36.41.41,0,0,1,.38.27,6.16,6.16,0,0,1,.42,1.65.46.46,0,0,1-.45.48A.38.38,0,0,1,51.11,176.57Zm7.66-6v1h1.28c.82,0,1.4.45,1.46,1.07a7.87,7.87,0,0,1,0,.88c0,.26,0,.53,0,.76-.05.72-.6,1.23-1.56,1.26-.25,0-.56,0-.85,0a6.19,6.19,0,0,0,2.84,2.8.77.77,0,0,1,.45.67.79.79,0,0,1-.77.8c-.71,0-2.56-1.46-3.49-3.46A5.47,5.47,0,0,1,54.27,180a.77.77,0,0,1-.72-.77.66.66,0,0,1,.48-.64,4.66,4.66,0,0,0,3-3c-1.76,0-2.42,0-2.42-1.94,0-.32,0-.64,0-.9a1.26,1.26,0,0,1,1.39-1.15h1.36v-1H56.28a.53.53,0,0,1-.52-.42l-.53.53a.69.69,0,0,1-.51.22.73.73,0,0,1-.72-.68.63.63,0,0,1,.26-.5,12.55,12.55,0,0,0,2.46-3,1.42,1.42,0,0,1,1.22-.73,1.78,1.78,0,0,1,1.31.67,20.51,20.51,0,0,0,2.84,2.75.81.81,0,0,1,.3.59.82.82,0,0,1-.77.82c-.32,0-.46-.14-1.18-.86v0a.58.58,0,0,1-.56.61Zm-2.8,3c0,.76,0,.89,1.36.89a11.39,11.39,0,0,0,.08-1.81C56,172.66,56,172.66,56,173.58Zm3.91-4.23c-.61-.66-1.19-1.33-1.64-1.87a.33.33,0,0,0-.25-.13.22.22,0,0,0-.21.13,20.72,20.72,0,0,1-1.33,1.87Zm-1.14,4.32c0,.26-.06.53-.1.8,1.52,0,1.54,0,1.54-1,0-.77,0-.82-1.42-.82C58.76,173.16,58.74,173.58,58.74,173.67Z"/><path class="cls-2" d="M66.77,179.68c-1.11.59-1.91-.89-.87-1.4a15.47,15.47,0,0,0,5-4.24,9.79,9.79,0,0,0-1.92-1c-.86-.3-.26-1.73.86-1.3a16,16,0,0,1,2,1,20.21,20.21,0,0,0,2-3.74c.56-1.35,2.19-.48,1.68.54a36.41,36.41,0,0,1-2.32,4.05,7,7,0,0,1,1.6,1.46.91.91,0,0,1-.18,1.26.74.74,0,0,1-1.13-.12,7.43,7.43,0,0,0-1.3-1.22A17.89,17.89,0,0,1,66.77,179.68Z"/><path class="cls-2" d="M81,177.45a.83.83,0,0,1,0-1.66c2.66,0,7.7,0,10.41,0,1.2,0,.93,1.7,0,1.67C88.36,177.37,83.89,177.37,81,177.45Zm1.86-5.36a.8.8,0,1,1,.1-1.6c1.74,0,4.38,0,6.29,0a.8.8,0,1,1-.08,1.6C87.51,172.12,84.55,172.12,82.88,172.09Z"/><path class="cls-2" d="M104.48,176.55a.71.71,0,1,1,0,1.41c-2.35-.08-5.55-.09-7.67,0a.71.71,0,1,1,0-1.42c1.07,0,2.64-.07,4.25-.07.2-.72.42-1.63.5-2.13.05-.24,0-.38-.32-.38-.67,0-1.76,0-2.82,0a.69.69,0,1,1-.11-1.38c1.41,0,2.87,0,3.67,0a1.21,1.21,0,0,1,1.2,1.62c-.16.7-.37,1.53-.58,2.22C103.22,176.52,103.88,176.54,104.48,176.55Z"/><path class="cls-2" d="M109.5,174.64a.77.77,0,0,1-.84-.77.81.81,0,0,1,.84-.81h10.06a.79.79,0,1,1,0,1.58Z"/><path class="cls-2" d="M128,168.1a3.94,3.94,0,0,0,.67-.29c.88-.52,1.75.8.56,1.4a9.62,9.62,0,0,1-1.76.53,16.71,16.71,0,0,1-.77,1.61,2.34,2.34,0,0,1,2.69,1.39c.66-.33,1.33-.67,2-.94a12.37,12.37,0,0,0,1.24-.59.85.85,0,1,1,.9,1.44c-.51.25-.88.33-1.73.65-.67.26-1.39.58-2,.88a12.93,12.93,0,0,1,0,1.77,1,1,0,0,1-.85,1c-.4,0-.77-.29-.72-.91,0-.34,0-.71,0-1l-.41.24c-2,1.28-1.75,2.24-.85,2.68a5,5,0,0,0,3.17-.12c1.41-.44,1.86,1.29.38,1.68-.94.24-3.12.48-4.37-.23-2.16-1.21-1.77-3.37,1.12-5.28.23-.14.48-.32.79-.5-.43-1.34-1.67-1.18-2.71,0a.17.17,0,0,1-.06.06,3.4,3.4,0,0,1-.37.42c-.88.78-2-.13-1.09-1a8,8,0,0,0,1.3-1.51,11.91,11.91,0,0,0,.75-1.42,3.17,3.17,0,0,1-2-.18c-1.16-.57-.37-2.08.75-1.33a2.47,2.47,0,0,0,1.5,0l.24,0a6,6,0,0,0,.18-1.34c.06-1,1.57-.86,1.6-.08a3,3,0,0,1-.13.93Z"/><path class="cls-2" d="M138,180.06a.77.77,0,0,1-.81-.75.72.72,0,0,1,.72-.72c2.08-.29,3.4-1.09,4-2.45a.76.76,0,0,1,.72-.48.83.83,0,0,1,.84.75.76.76,0,0,1-.08.32C142,179.74,138,180.06,138,180.06Zm3.68-4.71a1.7,1.7,0,0,1-1.87-1.6c0-.7,0-1.85,0-3s0-2.25,0-2.87a1.62,1.62,0,0,1,1.76-1.57c.74,0,1.7,0,2.69,0s2,0,2.8,0a1.67,1.67,0,0,1,1.67,1.46c0,.7,0,1.73,0,2.78s0,2.36,0,3.14a1.72,1.72,0,0,1-1.75,1.63c-.27,0-.54,0-.82,0,0,.65,0,1.4,0,1.91,0,.88.2,1.09,1.57,1.09s2-.19,2-1.63a.72.72,0,0,1,.76-.76.8.8,0,0,1,.84.87c0,2.75-1.85,3-3.68,3-1.62,0-3-.16-3-1.94,0-.43,0-1.63,0-2.5C143.59,175.38,142.56,175.37,141.63,175.35Zm5.61-5.13h-6.07v1.24h6.07Zm0-1.24c0-.24,0-.46,0-.64,0-.41-.23-.65-.75-.69s-1.24,0-2,0-1.82,0-2.5,0a.74.74,0,0,0-.75.71c0,.17,0,.38,0,.62Zm-6,3.72c0,.24,0,.44,0,.64,0,.51.31.68.77.7.74,0,1.54.05,2.35.05s1.44,0,2.13-.05.77-.62.77-1.34Z"/><path class="cls-2" d="M163.25,177.23c1.17-1,1.12-2.57.21-3.17a4.2,4.2,0,0,0-4.18.27,3.57,3.57,0,0,0-1.34,1.2c-.58.85-2.18-.1-1.19-1.07a58.41,58.41,0,0,0,4.84-5.17c.17-.23,0-.16-.12-.1a12.82,12.82,0,0,1-2.68.82c-1.27.27-1.51-1.32-.42-1.44a25.29,25.29,0,0,0,3.52-.79c1.28-.37,2.34.77,1.54,1.67-.51.57-1.15,1.2-1.8,1.79s-1.28,1.17-1.85,1.73a4.93,4.93,0,0,1,4.5-.05c2.3,1.38,1.55,4.19-.13,5.41a5.27,5.27,0,0,1-5.3.4c-1.7-1.1-.94-3.09.94-3.15a2.27,2.27,0,0,1,2.53,2.16A2.27,2.27,0,0,0,163.25,177.23Zm-3.41-.48c-.7.06-.73.72-.22,1A3,3,0,0,0,161,178C161,177.24,160.55,176.68,159.84,176.75Z"/><path class="cls-3" d="M43.55,76.3s4.43,2.5,12.61.1S75.4,64.7,75.4,64.7s4.71,9.19,10.48,8.23,8.85-7.54,8.85-7.54,8.94,9,15.68,7.54,13.44-9.63,13.44-9.63-.15,14.06,7.39,7.49,6-11.57,6-11.57,9.19,10.83,14.48,13.23,15.39,10.1,15.39,10.1-11.56,1.26-18.28,3.85c-7.26,2.8-10,7-17.31,7.7-11,1.06-23.61-3.85-34.63-4.33-14.13-.62-25.9,2.92-31.26,2.4C50.77,90.73,43.55,76.3,43.55,76.3Z"/><path class="cls-4" d="M137.29,59.22s9.19,10.83,14.48,13.23,15.39,10.1,15.39,10.1"/><path class="cls-5" d="M43.55,76.3s4.43,2.5,12.61.1S75.4,64.7,75.4,64.7"/><path class="cls-6" d="M118.5,76.25a1.76,1.76,0,0,1-.24.33.49.49,0,0,1-.3.14.35.35,0,0,0-.31.22c-.09.16-.28.22-.37.12-.15.32-.15.32-.3.12,0,.06,0,.11,0,.16a.23.23,0,0,1-.14.21,3.59,3.59,0,0,0-.53.39l-.23.19,0-.08c-.23.12-.43.31-.68.23,0,.2-.14.23-.22.17s-.29,0-.43.08a1,1,0,0,1-.24,0l-.15,0-.36,0a.61.61,0,0,0-.13,0c-.1,0-.19.08-.28,0s-.08,0-.13,0h-.52s0,0,0,0-.19.09-.31.06a.75.75,0,0,0-.36,0,.4.4,0,0,1-.15,0c-.09,0-.18-.12-.27,0s-.07,0-.11,0a1.62,1.62,0,0,1-.22,0l-.36-.08a.33.33,0,0,1-.28.08,2.88,2.88,0,0,0-.59,0c-.13,0-.26,0-.39,0a2.58,2.58,0,0,1-.39,0,3.87,3.87,0,0,1-.49-.05.29.29,0,0,0-.13,0,.35.35,0,0,1-.33,0c-.07,0-.17,0-.25,0s-.26-.11-.4-.14a6,6,0,0,0-.61-.09s-.1,0-.16.06-.13.07-.15-.07a.1.1,0,0,0,0,0l-.32-.05s-.07,0-.1,0-.3,0-.44-.17-.08,0-.13,0a2.75,2.75,0,0,1-.41-.11c-.12,0-.23-.1-.35-.13s-.1-.16-.2-.17a2.71,2.71,0,0,1-.63-.24c-.12,0-.24-.15-.36-.21l-.47-.22c-.18-.1-.36-.23-.54-.34s-.42-.23-.63-.36-.21-.17-.32-.24a1.88,1.88,0,0,0-.23-.16l-.47-.26a.94.94,0,0,0-.15-.06c-.17,0-.3-.16-.43-.3s-.36-.36-.55-.52-.39-.24-.52-.52c0-.07-.12-.08-.18-.13a1.81,1.81,0,0,1-.35-.33,2.86,2.86,0,0,1-.23-.43.16.16,0,0,0,0-.08c-.26-.12-.4-.43-.57-.71a4.91,4.91,0,0,0-.39-.51c-.06,0-.13,0-.16.18s-.09.29-.25.18-.16.11-.23.19-.08.16-.13.23-.07,0-.09,0l-.22.44c-.16-.12-.18.11-.22.21a1.28,1.28,0,0,0,0,.38.8.8,0,0,0-.16.16q-.15.26-.3.54c0,.08,0,.25-.14.17s0,0,0,0-.13.28-.2.42-.15.43-.26.48-.2.47-.41.45c0,0,0,.05,0,.08l-.35.58s-.06.09-.09.09-.28.25-.46.21-.08,0-.12.07a.72.72,0,0,1-.2.09l-.24.16s-.06.08-.1.09l-.31.13-.38.21-.17.08s-.06,0-.07,0-.14.13-.23.16-.42.16-.62.26a2.08,2.08,0,0,1-.42.26,2.15,2.15,0,0,1-.51,0c-.18,0-.34.12-.53.06s-.26.11-.4,0a0,0,0,0,0,0,0c-.15.16-.23,0-.32-.16l-.16.2c-.07-.09-.14-.24-.24,0,0,0-.1,0-.16,0h-.14l-.31,0a1,1,0,0,1-.24,0l-.27-.16c-.12.14-.3.08-.48,0a1,1,0,0,0-.39,0s0,0-.06,0c-.18-.2-.38-.1-.57-.13s-.26-.08-.39-.1a1.46,1.46,0,0,1-.45-.1,1.24,1.24,0,0,0-.43,0c-.06,0-.12-.1-.18-.11s-.32,0-.48-.08-.33-.17-.48-.12-.33-.18-.5-.06c0,0-.06,0-.09-.05a4.84,4.84,0,0,1-.51-.14c-.18-.06-.35-.16-.53-.24l-.15,0-.55-.18s0-.07-.07-.11-.26,0-.4,0-.29-.14-.44-.21a1.5,1.5,0,0,0-.22-.11c-.2-.07-.39-.12-.59-.2s-.26-.13-.39-.17-.32-.2-.52-.17-.19-.12-.29-.17l-.37-.17c-.09-.05-.18-.13-.27-.19s0,0,0,0-.28-.09-.42-.15a1.76,1.76,0,0,1-.37-.17,4,4,0,0,1-.54-.4,1,1,0,0,0-.42-.32s0,0,0,0c-.13-.18-.25-.37-.38-.54s-.08,0-.13-.06c-.21-.23-.44-.47-.66-.72-.07-.09-.13-.22-.2-.32a.3.3,0,0,0-.08-.08,2,2,0,0,1-.16-.14L74.13,72c-.14-.18-.27-.36-.41-.56,0,0,0-.15-.08-.21s-.14-.17-.2-.26-.14-.19-.3,0-.17.08-.26.13a.2.2,0,0,0-.1.12c0,.16-.06.33-.1.49a2,2,0,0,1-.09.2c0,.08,0,.18,0,.21a1.7,1.7,0,0,0-.24.73s0,.06,0,.06-.11.21-.14.35-.14.33-.17.5-.27.34-.32.62c0,.13-.15.22-.18.35s-.21.4-.22.68a.66.66,0,0,1-.15.27,6.32,6.32,0,0,0-.47.68.9.9,0,0,1-.21.36s-.08,0-.11.06a1.25,1.25,0,0,0-.16.22c-.07.12-.15.25-.23.36s-.17.16-.25.25l-.06.08c-.19.18-.37.37-.57.53a.72.72,0,0,1-.24.1l-.5.23-.46.19c-.14,0-.29.07-.43.11L67,79l-.44.1-.21.08-.7.15a.35.35,0,0,0-.11,0,1.08,1.08,0,0,1-.71.17,2.23,2.23,0,0,0-.5.07,1.51,1.51,0,0,1-.76,0s-.11,0-.16,0h-.5c-.16,0-.31,0-.47,0l-.94,0a.67.67,0,0,1-.33-.1s-.1,0-.14,0a2.39,2.39,0,0,1-.21-.13c-.09,0-.17-.12-.28-.06s-.12,0-.18,0-.13-.09-.19-.11-.21,0-.3-.15-.14-.06-.22-.08a1.12,1.12,0,0,1-.5-.18.3.3,0,0,0-.27-.08c-.11,0-.21,0-.26-.17a.11.11,0,0,0-.1-.07.61.61,0,0,1-.49-.31S58,78,57.93,78c-.23,0-.35-.35-.57-.37a.14.14,0,0,1-.11-.05,3.51,3.51,0,0,0-.61-.51.14.14,0,0,1,0-.08c0-.12,0-.11-.09-.14s-.12-.07-.13-.13-.15-.22-.21-.34,0,0,0,0l-.33-.43.09-.24c-.36.08-.45-.31-.59-.62s-.21-.34-.3-.52a3,3,0,0,1-.35-1.06c0-.15.08-.31.19-.29a3.56,3.56,0,0,1,.89.24,2.48,2.48,0,0,0,1.29.12c.32,0,.64,0,1,0l.39,0h.13c.05,0,.11,0,.14-.05a.48.48,0,0,1,.32-.15,2.14,2.14,0,0,0,.47-.15,1.92,1.92,0,0,0,.37-.15.51.51,0,0,1,.4,0s.11-.06.16-.09l.31-.14a.39.39,0,0,1,.45.13c.18-.19.37-.38.55-.58a1.57,1.57,0,0,0,.33-.35c.13-.28.36-.29.53-.43a1.88,1.88,0,0,1,.55-.27s0,0,0,0c.11-.33.37-.32.54-.52a5,5,0,0,1,.6-.53c.18-.14.36-.26.54-.39,0,0,0,0,0,0,.12-.19.3-.2.45-.3s.08-.13.13-.22.13,0,.18-.17a1.85,1.85,0,0,1,.21-.33,1.48,1.48,0,0,1,.13-.21l.35-.34c.13-.11.25-.24.38-.34s.23-.15.34-.23a1.29,1.29,0,0,0,.15-.17,2.14,2.14,0,0,1,.67-.67c.11,0,.21-.19.3-.3s.24-.29.36-.42.15-.15.22-.23a.72.72,0,0,0,.14-.2.69.69,0,0,1,.4-.43s0,0,0,0c0-.31.24-.27.3-.52s.22-.38.42-.34c0,0,.11,0,.14,0s.06-.12.09-.16l.26-.43a.88.88,0,0,1,.12-.15c.07-.09.16-.14.23-.24s.12-.18.22-.21.15-.14.22-.22a1.5,1.5,0,0,0,.2-.23,1.76,1.76,0,0,0,.14-.23.69.69,0,0,0,.1-.19c0-.07,0-.16.08-.22a1,1,0,0,1,.17-.18s.1-.05.12-.1.16-.33.32-.32c.24-.34.38.09.56.16a1.15,1.15,0,0,1,.35.24.34.34,0,0,1,.08.09s0,.1.08.1.22.21.32.33.12.11.17.1.22,0,.31.16.17.08.25.12l.28.2c.2.17.4.37.61.53s.39.21.57.36a1.72,1.72,0,0,1,.44.38,1.34,1.34,0,0,0,.21.2s0,0,.06,0c.06.18.14.27.29.21s0,0,0,0,.2.19.32.24.1.14.16.23c.12-.13.25,0,.38,0l.63.39s.05,0,.08,0,.22.08.26.3a1.81,1.81,0,0,1,.52.07,2.36,2.36,0,0,1,.49.31l.07.06a1.39,1.39,0,0,1,.59.25c.12.06.26.16.41.09s0,0,.07,0a1.11,1.11,0,0,0,.19.09c.2.07.41.06.59.27,0,0,.06,0,.09,0l.27.07s0,0,0,0,.25,0,.37.07a5.88,5.88,0,0,0,.73.14c.14,0,.32,0,.43.1s.34-.07.44.18c0,0,0,0,0,0,.17-.16.34,0,.51,0h0c.14-.14.28-.09.43,0s0,0,.08,0l.69,0,.5,0s0,0,0,0c.23.18.47,0,.7,0a.26.26,0,0,1,.13.06l.2,0a.21.21,0,0,1,.08,0l.56-.11.43-.11a1.62,1.62,0,0,1,.22,0,.74.74,0,0,0,.14,0h0c.22,0,.42-.29.65,0,0,0,.12,0,.12,0s.11-.19.18-.2a1.3,1.3,0,0,1,.26,0c.25-.15.48-.44.79-.46h0c.05-.23.21-.13.31-.22a2.56,2.56,0,0,1,.35-.22s.08-.06.1,0,.14,0,.2-.11a.75.75,0,0,1,.19-.17,1.44,1.44,0,0,1,.4-.22c.22,0,.33-.32.52-.42l.4-.2s0,0,0,0a.43.43,0,0,1,.41-.26,0,0,0,0,0,0,0c.06-.17.13-.11.2,0l.07-.12c.06-.16.13-.31.28-.31s0,0,.07-.08.07-.11.11-.12.31-.23.45-.4a3,3,0,0,1,.28-.33s.07,0,.13,0l.11-.28.23-.16h0c0-.22.13-.26.2-.38s.12-.11.17-.17.09-.11.09-.16a.41.41,0,0,1,.16-.32.89.89,0,0,0,.29-.38.83.83,0,0,1,.27-.39c.07,0,.2,0,.29.09a3,3,0,0,1,.4.33,1.09,1.09,0,0,1,.05.14l.09-.09a4.72,4.72,0,0,0,.16.45c.06.12.13.22.2.35.08-.06.1,0,.15.16a1.22,1.22,0,0,0,.33.59s0,.11.09.15a.68.68,0,0,1,.26.38s.06,0,.08,0a.51.51,0,0,1,.23.38.18.18,0,0,0,.09.13.85.85,0,0,1,.41.23c.15.11.27.31.42.37s.29.33.46.47l.29.2.35.28s.09,0,.12.07l.15.18a.41.41,0,0,1,.39.25,1.06,1.06,0,0,1,.66,0l.57.26c.06,0,.14,0,.2,0,.24.08.47.18.71.25s.25.11.27.42l.09-.24c0-.09.09-.15.17-.06a.07.07,0,0,0,.07,0c.19-.09.36,0,.54.1l.54.22.15,0s0,0,0,0c.2.22.44.08.65.14a1.58,1.58,0,0,0,.53,0c.21,0,.42.06.62-.09a.17.17,0,0,1,.18,0c.15.08.29-.07.42,0a.22.22,0,0,0,.27-.07.14.14,0,0,1,.15,0c.09.07.16.08.24,0s.07,0,.1,0l.82,0s0,0,.06-.05l.12,0s.08,0,.11,0a.3.3,0,0,1,.27,0,.42.42,0,0,0,.28-.08c.17-.15.38-.1.56-.21a1.73,1.73,0,0,1,.31-.14,1.56,1.56,0,0,1,.33-.14c.19,0,.33-.21.49-.31s.29-.11.43-.17l.11,0a3,3,0,0,0,.39-.14,1.67,1.67,0,0,0,.23-.12,1.16,1.16,0,0,1,.36-.22c.22,0,.37-.33.6-.23,0,0,.08-.06.09-.11,0-.22.21-.18.3-.28s.06,0,.1.08l.09-.18a.33.33,0,0,1,.28-.22c.1,0,.2-.14.27-.25s.15-.3.31-.21.07,0,.09-.1l.18-.43s.06.12.08.11.08-.06.11-.1.07-.11.11-.17.12-.13.14-.22a.86.86,0,0,1,.26-.48.53.53,0,0,1,.15-.08l0-.28.11.09.11-.17.24-.39s0-.11.06-.1.16-.22.29-.18.07-.12.11-.2.15-.31.25-.49v.3h.05l0-.13c0-.11,0-.25.13-.23s.05-.07.06-.11a2.33,2.33,0,0,1,.61-.83.24.24,0,0,0,.06-.08c0-.23.17-.23.28-.27s.21-.14.28-.35.08-.36.22-.43a.1.1,0,0,0,0-.06c0-.23.1-.46.14-.69a1,1,0,0,1,.35-.41c.26-.06.4.18.56.39.05.06.08.21.18.18s.09.11.1.19c0,.31.22.42.35.6a3.19,3.19,0,0,1,.52.82c.06.15.14.39.31.43h0c.13.16.25.33.39.49l.48.52c0,.05.08.12.13.16l.48.4s0,0,0,0c.07.3.31.29.43.52.15-.11.2-.08.29.21a.46.46,0,0,1,.45.07.69.69,0,0,0,.44.2.46.46,0,0,1,.42.25.14.14,0,0,0,.1.07c.2,0,.39.1.58,0,0,0,0,0,0,0l.41.2a2.51,2.51,0,0,0,.27,0c.09,0,.18.08.27.1a.55.55,0,0,0,.25,0,2,2,0,0,1,.91-.08c.06,0,.13-.07.2,0s.06.06.09.08a1.8,1.8,0,0,0,.21-.08,2.11,2.11,0,0,0,.23-.19s.08,0,.1,0a.65.65,0,0,0,.57-.09s0-.06.07-.05l.45-.1a5.27,5.27,0,0,0,.68-.19c.15-.06.33,0,.44-.19h0a1.53,1.53,0,0,0,.68-.35,4.39,4.39,0,0,1,.36-.28l.35-.3.43-.41.59-.56a.52.52,0,0,0,.1-.18l.23-.26a1.37,1.37,0,0,1,.16-.18.14.14,0,0,1,.11,0c.16,0,.29-.19.26-.43h.22s.05-.05.06-.08.08-.35.24-.35c0-.24.26-.13.32-.33a0,0,0,0,1,0,0c0-.36.32-.41.38-.72,0,0,0,0,.07-.07s.05,0,.07,0q.26-.27.51-.57a.93.93,0,0,0,.15-.26.79.79,0,0,1,.29-.33,3.47,3.47,0,0,0,.33-.41.53.53,0,0,0,.14-.33.41.41,0,0,1,.15-.23.85.85,0,0,0,.22-.37c0-.05.09-.06.11-.08a4.94,4.94,0,0,0,.19-.49,2.09,2.09,0,0,0,0-.36l0,0a3,3,0,0,1,.23-.27c.1-.11.2,0,.3,0s.3.4.41.65a2.2,2.2,0,0,0,.22.52.9.9,0,0,1,.11.4.52.52,0,0,0,.18.37.71.71,0,0,1,.14.26c.06.14.1.3.15.44a1.08,1.08,0,0,0,.11.3,2.84,2.84,0,0,1,.28.58l0,.06c.24.19.3.57.42.88,0,.07,0,.16.09.19a.57.57,0,0,1,.17.39,2.14,2.14,0,0,0,.16.39,1.7,1.7,0,0,0,.24.39s0,.14.06.2.16.24.22.37a5.64,5.64,0,0,1,.36.74.77.77,0,0,0,.22.37,1.92,1.92,0,0,1,.18.32c.07.13.11.3.24.34a0,0,0,0,1,0,0c0,.31.24.32.34.5a6.56,6.56,0,0,0,.35.59,4.58,4.58,0,0,0,.42.46c0,.06.08.14.13.21a1.94,1.94,0,0,1,.15.24.8.8,0,0,1,.08.17c.14.16.25.36.38.42s.13.32.28.23,0,0,.05.06a5.16,5.16,0,0,0,.57.72q.13.2.27.36c.07.08.17.11.22.2a.41.41,0,0,0,.34.24.26.26,0,0,1,.12.09c.1.16.24.25.3.45,0,0,0,0,.06,0s.27.17.43.15c0,0,0,0,0,0a.33.33,0,0,0,.42.23c.16,0,.19.12.24.22s.12.1.19.11a.7.7,0,0,1,.19.06,1.79,1.79,0,0,1,.28.2l.3.26c.07.06.15.09.22.15s.07.12.13.2a1.23,1.23,0,0,1,.24.26,1.09,1.09,0,0,1-.05.59,1.43,1.43,0,0,1-.44.55c-.06,0-.08.19-.13.28s-.05,0-.07,0-.1.12-.16.17-.08.1-.12.11a1.25,1.25,0,0,0-.62.4c-.08.09-.19.18-.28.17s-.3.16-.44.26-.11.25-.23.12-.08.08-.12.09a5.67,5.67,0,0,1-.58,0c-.25,0-.51,0-.76,0s-.68,0-1-.09a.86.86,0,0,1-.48-.18c-.17-.18-.38,0-.54-.22s-.07,0-.1,0-.24-.06-.34-.21c-.1,0-.21.06-.3-.13s-.13-.07-.21-.08a1,1,0,0,1-.47-.28,1.85,1.85,0,0,0-.34-.23c-.27-.21-.53-.44-.79-.65l-.26-.2s0,0,0,0a1.27,1.27,0,0,0-.38-.49,2.86,2.86,0,0,1-.31-.42l-.34-.51a.19.19,0,0,1,0-.1c0-.13,0-.22-.13-.22a.1.1,0,0,1,0,0l-.27-.58-.06-.11a3.36,3.36,0,0,1-.16-.33l-.15-.34a4.9,4.9,0,0,0-.49-.83s-.06.06-.06.1a2.21,2.21,0,0,1-.33.8,6.07,6.07,0,0,1-.43.8,3.25,3.25,0,0,1-.39.62,3.78,3.78,0,0,0-.44.62,1.08,1.08,0,0,1-.16.2s-.05,0-.08,0a.5.5,0,0,1-.3.33,1.22,1.22,0,0,0-.32.2c-.15.13-.29.3-.45.42a3.37,3.37,0,0,1-.38.19c-.14.09-.27.21-.41.3a1.22,1.22,0,0,1-.24.1c-.14,0-.27.09-.31.24a2.43,2.43,0,0,0-.37.21c-.15.12-.31.08-.46.11l-.45.11-.56.15-.18.07-.17,0c-.05,0-.11,0-.15,0-.21.25-.46.13-.69.17l-.5.07h-.29l-.12,0a.61.61,0,0,1-.1.07,2.82,2.82,0,0,0-.57.15,3.16,3.16,0,0,1-.72.18,1.09,1.09,0,0,1-.5.07c-.38-.12-.74.1-1.12,0a2.3,2.3,0,0,0-.37,0,.79.79,0,0,1-.16-.08c-.11.18-.29.1-.44.12a2.83,2.83,0,0,1-.64-.06c-.22,0-.44-.14-.66-.18a2.47,2.47,0,0,0-.39,0,7.12,7.12,0,0,1-1.07-.14l-.65-.18c-.08,0-.17,0-.26-.08s-.18-.11-.27-.16l-.17-.06c-.11,0-.22-.09-.33-.12a.08.08,0,0,0-.08,0l-.18.44a2.22,2.22,0,0,1-.4.71s0,0,0,0c0,.21-.22.22-.3.37s-.06.08-.08.07-.15.09-.19.2a.87.87,0,0,1-.15.25c-.14.15-.3.28-.43.43a3.53,3.53,0,0,0-.21.32c-.16.23-.32.47-.49.69s-.23.27-.34.39-.18.09-.24.24a.83.83,0,0,1-.41.45,1.8,1.8,0,0,0-.19.2C118.58,76.44,118.52,76.43,118.5,76.25Zm18.79-17a.88.88,0,0,1-.06.27c-.09.13-.21.23-.31.35s-.2,0-.25.19-.08.19-.18.15-.05,0-.06.09a1.19,1.19,0,0,1-.59.74s-.05.05-.06.08c-.08.23-.25.33-.36.51s-.14.17-.2.26-.17.31-.27.35-.2.22-.28.36a1.11,1.11,0,0,1-.18.19l-.61.38-.27.17c-.08,0-.15.08-.23.14l-.27.2-.15.1a2.39,2.39,0,0,1-.42.31,2.8,2.8,0,0,1-.62.2c-.22,0-.44.06-.66.11s-.46.13-.69.19l-.67.17c-.15,0-.31,0-.47,0s-.36.17-.55.12a3.18,3.18,0,0,0-.62,0s-.11,0-.15,0-.17,0-.22-.09c-.17.13-.35,0-.52,0s-.19-.07-.28-.09-.25,0-.37-.06-.51-.13-.77-.21a.18.18,0,0,1-.09-.08.47.47,0,0,1-.17,0l-.24-.14-.4-.18c-.07,0-.14-.11-.21-.09s-.3-.14-.45-.21a4,4,0,0,1-.54-.4,2.2,2.2,0,0,1-.3-.31c-.15-.17-.27-.42-.43-.5a1.78,1.78,0,0,1-.27-.21c-.17-.14-.27-.39-.44-.53s-.16-.27-.25-.37a2.72,2.72,0,0,1-.25-.32,6.51,6.51,0,0,0-.51-.64,1.27,1.27,0,0,1-.2-.34c0-.17-.11-.26-.24-.25s0,0,0,0c-.05-.19-.11-.15-.18,0a1.26,1.26,0,0,1-.13.17l-.1-.11-.19.68-.12-.14a1.34,1.34,0,0,0-.2.56s0,0,0,0c-.13.18-.26.37-.4.55a1.26,1.26,0,0,1-.2.2c-.06.09-.1.21-.17.3a5.37,5.37,0,0,1-.37.44c-.1.11-.24.18-.3.33a2.16,2.16,0,0,1-.35.55l-.27.38a2.29,2.29,0,0,1-.17.23c-.11.12-.22.21-.32.33a4,4,0,0,0-.29.43,3.39,3.39,0,0,1-.2.28c0,.05-.11.05-.16.1a3.67,3.67,0,0,1-.27.38c-.16.15-.28.4-.51.34,0,0-.08,0-.12.07a1.53,1.53,0,0,1-.29.18.35.35,0,0,0-.25.23c-.08.19-.34.34-.44.29-.15.2-.3.39-.51.41s-.25,0-.32.05a.61.61,0,0,1-.43.26s0,0-.06,0a3.33,3.33,0,0,1-.32.24c-.13.07-.26.09-.39.15s-.42.27-.64.39a2.5,2.5,0,0,1-.5.23c-.2,0-.42,0-.62.1h0l-.39.12-.18,0a3.31,3.31,0,0,0-.54.06c-.17.06-.34,0-.52,0s-.28-.07-.38,0c-.28.18-.56.11-.84.16a1.82,1.82,0,0,1-.56-.09.11.11,0,0,0-.1,0c-.18.17-.37,0-.55.06,0,0,0,0,0,0s-.11-.07-.14,0a.43.43,0,0,1-.44,0,2.13,2.13,0,0,0-.45-.13l0,0c-.14,0-.23-.2-.4-.11s-.23-.12-.35-.18-.06,0-.1,0a.56.56,0,0,1-.41-.13,1,1,0,0,0-.29-.11c-.13,0-.28,0-.39-.09s-.26-.05-.38-.14a.76.76,0,0,0-.16-.06l-.26-.09a2.5,2.5,0,0,0-.25-.09.79.79,0,0,0-.22,0v-.12h-.38a.08.08,0,0,1-.07,0c-.07-.15-.18-.09-.27-.11s-.2-.16-.32-.07h0c0-.14-.1-.1-.14-.15s-.21,0-.31-.09-.4-.36-.65-.41-.21-.2-.32-.3l-.59-.51s0-.05-.07-.05c-.2,0-.26-.38-.47-.35-.06-.19-.2-.26-.31-.37a1.5,1.5,0,0,1-.15-.25l-.1-.11-.08,0-.28-.43a1,1,0,0,0-.1-.17.38.38,0,0,0-.09-.09s-.09,0-.11,0-.23-.29-.34-.44,0-.1-.07-.1-.16-.3-.31-.35-.08-.09-.11-.09a.77.77,0,0,0-.56.59.53.53,0,0,1-.16.24c-.11.11-.27.21-.32.38a4.4,4.4,0,0,1-.37.68s-.07.06-.1.1l-.06-.15c0,.1-.08.24-.13.25a.75.75,0,0,0-.32.21c-.11.09-.25.11-.37.23a2.39,2.39,0,0,1-.47.31l-.49.31a.57.57,0,0,0-.14.13,2.26,2.26,0,0,1-.13.2c-.06.09-.13.17-.2.26v0s-.12,0-.13,0c-.15.33-.42.35-.62.53a3.12,3.12,0,0,1-.47.34,1.11,1.11,0,0,1-.43.19,1.59,1.59,0,0,0-.49.17,1.07,1.07,0,0,0-.22.15c-.16.1-.35.07-.49.24a.83.83,0,0,1-.32.17c-.11,0-.23.13-.36.06s-.08,0-.12,0l-.22.11s0,0,0,0l-.17,0-.17,0-.43,0-.22,0-.27,0a1,1,0,0,0-.17,0,1.12,1.12,0,0,1-.63,0,2.27,2.27,0,0,1-.35,0c-.1,0-.23.08-.36.07H86.1l-.23,0-.31,0c-.17,0-.36-.13-.52.07a0,0,0,0,1-.05,0l-.51-.08-.56-.13c-.15,0-.3,0-.44-.06s-.27.06-.39-.07-.17,0-.26,0a2.91,2.91,0,0,1-.59-.1c-.15,0-.29-.11-.44-.15s-.15,0-.22,0a2.72,2.72,0,0,1-.57-.23c-.11,0-.25,0-.31-.19s-.18-.21-.31-.14c0-.2-.13-.09-.22-.11a2.86,2.86,0,0,1-.53-.2l-.12,0L78.73,67c-.09,0-.19-.07-.28-.13a5.84,5.84,0,0,1-.53-.33,2,2,0,0,0-.32-.22,1,1,0,0,1-.54-.48.14.14,0,0,0-.08-.06c-.24.07-.42-.16-.61-.3s-.63-.54-1-.74-.37-.29-.55-.43-.13-.07-.19-.12c-.23-.2-.44-.42-.68-.59a4,4,0,0,1-.55-.4,3.27,3.27,0,0,0-.59-.43.39.39,0,0,0-.39,0,1.6,1.6,0,0,0-.55.64.2.2,0,0,1-.06.09c-.17.19-.33.38-.5.56l-.39.44c-.08.09-.18.16-.27.25s-.13.18-.2.26-.24.26-.35.41-.26.37-.4.55-.15.09-.16.16c-.07.32-.28.41-.41.64a1.94,1.94,0,0,1-.33.37l-.44.41s0,.08,0,.1l-.55.49-.22.19a2,2,0,0,0-.2.21,1.74,1.74,0,0,1-.19.26c-.1.1-.21.16-.31.26s-.25.3-.38.44-.21.19-.3.31a1.26,1.26,0,0,1-.5.52,2.11,2.11,0,0,0-.27.18.25.25,0,0,0,0,.07c-.09.09-.16.23-.25.26a1.72,1.72,0,0,0-.5.36c-.17.16-.32.35-.49.51s-.29.23-.44.35a2.8,2.8,0,0,1-.38.32c-.25.13-.45.4-.73.47s-.44.33-.67.43-.35.32-.56.36a4.37,4.37,0,0,0-.55.24,3.2,3.2,0,0,1-.43.17,1.16,1.16,0,0,0-.18,0,1.38,1.38,0,0,1-.61.29c-.16,0-.31.07-.47.09s-.61,0-.91.08-.66.11-1,.14a3.75,3.75,0,0,1-.67,0,2.41,2.41,0,0,1-.37-.07.24.24,0,0,0-.24.21c0,.11,0,.24.1.32a.46.46,0,0,1,.24.41c.15.19.27.38.41.54a5.4,5.4,0,0,0,.42.41l.42.37.1-.07a.75.75,0,0,0,.07.18c0,.06.08.14.13.16a3.86,3.86,0,0,1,.55.17,3.25,3.25,0,0,1,.37.3c.1.08.18.27.3.13,0,0,.08.1.1.09s.26,0,.35.16.06,0,.07,0,.23,0,.33,0,.25.19.4.2a2.3,2.3,0,0,1,.35.1,1.59,1.59,0,0,0,.3.06h.25l.13,0a2.67,2.67,0,0,0,.36.14,1.11,1.11,0,0,0,.26,0c.08,0,.17,0,.24,0a1.79,1.79,0,0,1,.86,0,2.26,2.26,0,0,0,.82,0c.1,0,.22-.08.29.16,0-.24.08-.2.17-.15a.14.14,0,0,0,.09,0,3.49,3.49,0,0,1,.89-.21c.16,0,.33-.12.49-.18a2.7,2.7,0,0,1,.28,0l.32-.07a1.1,1.1,0,0,0,.18,0l.46-.21c.2-.08.41-.17.62-.24,0,0,.07,0,.11,0a1.11,1.11,0,0,1,.16-.12c.12,0,.24-.07.36-.13a2.39,2.39,0,0,0,.34-.21c.17-.12.31-.36.53-.3,0,0,.06,0,.08-.06a1.4,1.4,0,0,1,.14-.22c.17-.11.36-.1.49-.34a1.76,1.76,0,0,1,.25-.34l.24-.41.36-.57c.08-.13.17-.26.24-.4a1.08,1.08,0,0,0,.08-.19.38.38,0,0,0,.12-.18,1.47,1.47,0,0,0,.08-.3,2.81,2.81,0,0,1,.38-1.11c.06-.09.09-.17.18-.16s.13-.08.11-.23l-.07.07,0,0,.23-.48a.85.85,0,0,1,0-.21c.06-.12.06-.29.17-.38a.57.57,0,0,0,.13-.27c.07-.3.14-.61.2-.91a1.06,1.06,0,0,0,0-.25c0-.19-.07-.4.06-.56v0c0-.23.07-.31.22-.28a.24.24,0,0,0,.12,0c.1,0,.17,0,.23.15l.07.11.28.42.1.13.27.38s0,.1,0,.16.15,0,.17.24.5.31.51.76c.11.1.24.16.3.29s.18.29.33.31l0,.28c.07,0,.14,0,.19.08s.19.3.29.44.07.08.09.07.08.07.11.13a.88.88,0,0,0,.12.19c.06.07.13.12.18.19s.1.17.16.21.34.16.49.27a3.34,3.34,0,0,1,.37.38.1.1,0,0,0,.09,0c.07,0,.13,0,.19.06s.39.22.59.34a.57.57,0,0,1,.1.11l.27.14s0,0,0,0,.18,0,.26,0a.55.55,0,0,1,.28.07c.17.09.33.22.5.32s.26,0,.36.15,0,0,.07,0,.21,0,.24.15.31,0,.41.23a.08.08,0,0,0,.09.06c.14,0,.27-.09.38.09h0a.26.26,0,0,1,.33,0,1.71,1.71,0,0,0,.4.21,2,2,0,0,0,.36,0l.17.36c.08-.07.12-.26.25-.15l.06.17s.07-.08.1-.08l.77.08s0,.07.07.11h.17c.09,0,.2,0,.26.12.18-.11.33.09.49.1s.21.06.3,0a.22.22,0,0,1,.25.1c.06.08.14.15.22,0a.13.13,0,0,1,.13,0,1.55,1.55,0,0,1,.21,0c.08,0,.17,0,.23.07a.45.45,0,0,0,.37.07.19.19,0,0,1,.15,0c.16.08.31.21.48.06a.13.13,0,0,1,.13,0c.12.12.24,0,.37,0a.55.55,0,0,1,.18,0l.35.14.39.1v-.12l.41,0a2.31,2.31,0,0,0,.37,0c.25,0,.5-.09.75-.12l.55,0a2.76,2.76,0,0,0,.4-.06l.48-.09.39-.09c0-.12.14-.13.26-.11a.18.18,0,0,0,.16,0c.15-.1.29-.23.44-.35,0,.17.09.18.18.08s.1-.14.15-.2l.16-.13-.07.39,0,0a1.32,1.32,0,0,0,.12-.2c0-.08,0-.18.14-.14s.09-.05.09-.06,0-.13.1-.15.07,0,.07,0c.07-.25.24-.31.38-.41a.58.58,0,0,1,.17,0,2.59,2.59,0,0,0,.24-.33,2.22,2.22,0,0,0,.1-.39h0v.3h0l.1-.49c.12.14.25.1.31,0s0-.38.17-.49a1,1,0,0,0,.15-.31l.12,0c0-.08.07-.16.1-.25s.06-.24.18-.2.08,0,.1-.08c.11-.21.21-.45.34-.66a3.34,3.34,0,0,0,.42-.69c0-.14.11-.09.16,0l.07-.15a1.75,1.75,0,0,1,.16-.36,1.07,1.07,0,0,0,.22-.56c.06-.26.09-.54.14-.81a.68.68,0,0,1,0-.12c.17-.07.31-.31.53-.1a1.49,1.49,0,0,1,.47.81s.09,0,.11,0,.24.34.35.52.16.3.25.45a1.65,1.65,0,0,0,.15.25s0,0,.06,0l.15.28a2.57,2.57,0,0,0,.21.37,4,4,0,0,0,1.06,1,3.21,3.21,0,0,1,.41.34c0,.05.07.14.15.09s.08.06.08.1.06.09.11.1a.18.18,0,0,1,.1,0,3.79,3.79,0,0,0,.39.31,3.43,3.43,0,0,0,.52.23,1.23,1.23,0,0,0,.19,0,.28.28,0,0,1,.15.06c.07.06.13.15.2.21a1.67,1.67,0,0,0,.16.12.34.34,0,0,1,.15.07s.07.09.11.11a1.36,1.36,0,0,0,.35.16,1.06,1.06,0,0,0,.31,0s.1.13.16.15a1,1,0,0,1,.47.28s0,0,.07,0,.27,0,.4.08l.36.23s.1,0,.14,0,.26.06.34.25h0a.73.73,0,0,1,.46,0l.34.15c0-.07.09-.23.18,0,0,0,0,0,.06,0s.26.14.4,0a0,0,0,0,1,.05,0c.13.09.31,0,.39.22,0,0,0,0,0,0s.19.05.24.24a2.46,2.46,0,0,1,.08-.3.31.31,0,0,1,.05-.1c.08.11.17,0,.25,0a2.11,2.11,0,0,1,.33.18c.09-.1.17-.15.28-.08s.2,0,.3,0v0l0,.11s.06-.12.09-.12a1.1,1.1,0,0,1,.57,0c.13.06.25,0,.37.08s.07,0,.11,0,.19-.08.28,0,.37-.06.56,0,.38-.1.56,0,.32,0,.48,0l.21,0c.38,0,.77-.15,1.13,0,0-.08,0-.17.08-.17a.89.89,0,0,1,.28,0,5.09,5.09,0,0,0,.78,0,2.15,2.15,0,0,0,.58-.26c.24-.11.48-.25.72-.39a4.81,4.81,0,0,0,.41-.27l.48-.38a.59.59,0,0,1,.14-.06l.25,0s.13,0,.16,0a.78.78,0,0,0,.06-.23,1.7,1.7,0,0,0,.19-.18c0-.05.06-.13.1-.17s.31-.24.46-.34a1.51,1.51,0,0,1,.29-.13v-.12l.16-.15.18-.23c.08-.09.15-.2.23-.29a.53.53,0,0,1,.15-.11s.06,0,.08,0a2.77,2.77,0,0,0,.31-.45,1.36,1.36,0,0,1,.32-.35l.08-.09c.07-.06.14-.08.16-.13a1,1,0,0,1,.41-.57.38.38,0,0,0,.18-.34c.13,0,.13,0,.19-.27a.05.05,0,0,1,0-.05,1.41,1.41,0,0,0,.28-.89c0-.19-.07-.42.12-.54l0,.06.23,0s.08,0,.1,0c.19-.17.35,0,.44.15.16.31.41.33.61.48a1.37,1.37,0,0,0,.46.14l.13,0,.41.27h0a1.1,1.1,0,0,1,.57,0,3.46,3.46,0,0,0,.46,0,1.39,1.39,0,0,1,.74.15,0,0,0,0,0,.05,0c.09-.14.18-.08.28,0s.06,0,.1,0l.56,0s.09,0,.13,0a.3.3,0,0,0,.34,0c.09,0,.21-.09.28,0s.2,0,.29,0a1.57,1.57,0,0,0,.29,0l.17,0c.05,0,.12,0,.14,0s.16,0,.23,0,0-.09.06-.1.13.06.18,0,.22-.08.33-.12a.76.76,0,0,1,.2-.06l.16,0,.2,0a1.38,1.38,0,0,0,.29,0,3.89,3.89,0,0,1,.42-.19,4.16,4.16,0,0,1,.61,0s.09,0,.11,0,.17-.11.27,0,.13,0,.16,0,.28-.1.42-.12a.44.44,0,0,0,.2,0c.09,0,.17-.12.26-.15s.4-.13.59-.21.4,0,.6-.1.29,0,.4-.18,0,0,.05,0l.3,0c0-.06.06-.13.09-.14s.29-.1.43-.17.25.05.24-.23c0,0,0,0,0,0l.44-.32a.75.75,0,0,1,.13-.06,1,1,0,0,0,.36-.43c0-.08.13-.1.2-.14l.06,0c.09-.06.16-.22.29-.15s.06,0,.08,0l0-.17c.16-.08.33-.11.4-.38,0,0,0,0,0,0l.24-.14c0-.12,0-.27.08-.29s.11-.23.14-.33a1.12,1.12,0,0,0,.16-.13,1.37,1.37,0,0,0,.13-.2l.09-.13.37-.51a.57.57,0,0,0,.11-.22c0-.22,0-.45,0-.68a1.4,1.4,0,0,1,.18-.76c.08-.13.2-.28.33-.23a1.18,1.18,0,0,1,.28.27,4.28,4.28,0,0,1,.26.42.45.45,0,0,1,.08.22c0,.25.13.38.17.59s.19.24.14.47l0,0,.05-.1a2.38,2.38,0,0,0,.12.35c.05.1.11.19.17.29a5.3,5.3,0,0,1,.27.59c0,.09.08.16.11.24s.06.22.17.2,0,0,0,.05l.14.42c0,.06.06.1.08.15a.87.87,0,0,1,.09.11,1.18,1.18,0,0,0,.36.45.64.64,0,0,1,.25.36l0,0L142,69l.27.4h0c.18.13.36.26.54.37l.49.28a.58.58,0,0,1,.1.12c.1.09.18.24.27.16s.09.11.13.12l.53.15.09,0c.13.06.25.15.37.19s.38.09.57.14c0,0,.05,0,.05,0s.09,0,.14,0a.74.74,0,0,1,.21,0c.08,0,.16.07.24.08s.1-.09.15-.09.32,0,.47,0l.49,0c.1,0,.23,0,.3-.08a.79.79,0,0,1,.44-.23.62.62,0,0,0,.22-.1c.06,0,.1-.16.15-.16.21,0,.33-.27.5-.4s.13-.31.05-.37l-.31-.2c-.11-.08-.23-.15-.34-.24s-.16-.2-.28-.21a.47.47,0,0,1-.18-.12c-.15-.14-.34-.18-.48-.36h0c-.14,0-.14-.1-.11-.27-.08,0-.16.06-.21,0a1.57,1.57,0,0,1-.33-.26l-.53-.51c-.06,0-.14-.09-.2-.15s-.26-.33-.4-.49-.39-.45-.57-.7a1.68,1.68,0,0,0-.27-.37,4.66,4.66,0,0,1-.62-.69,2.84,2.84,0,0,1-.16-.35.15.15,0,0,0,0-.06.91.91,0,0,1-.34-.51l-.05-.06a4.32,4.32,0,0,1-.4-.53c-.15-.25-.27-.53-.42-.79s-.2-.29-.29-.44A3.78,3.78,0,0,1,142,62c-.13-.27-.24-.56-.35-.84,0-.07,0-.17-.08-.2a2.46,2.46,0,0,1-.5-1c0-.11-.09-.21-.13-.32l-.09-.22c-.05-.1-.09-.2-.14-.29s-.11-.17-.15-.26c-.17-.34-.31-.69-.49-1a.59.59,0,0,1-.14-.33s0-.06,0-.09l-.33-.65a.69.69,0,0,0-.14-.24c-.06,0-.2-.11-.21-.08a4.41,4.41,0,0,1-.25.43c-.08.12-.13.27-.21.4s-.17.13-.18.21c0,.23-.18.23-.25.37a.75.75,0,0,1-.09.15,3.14,3.14,0,0,0-.31.32c-.16.22-.31.48-.46.72A1.7,1.7,0,0,1,137.29,59.22Z"/><path class="cls-7" d="M137.29,59.22a1.7,1.7,0,0,0,.19-.19c.15-.24.3-.5.46-.72a3.14,3.14,0,0,1,.31-.32.75.75,0,0,0,.09-.15c.07-.14.22-.14.25-.37,0-.08.13-.13.18-.21s.13-.28.21-.4a4.41,4.41,0,0,0,.25-.43s.15,0,.21.08a.69.69,0,0,1,.14.24l.33.65s0,.06,0,.09a.59.59,0,0,0,.14.33c.18.32.32.67.49,1,0,.09.1.17.15.26s.09.19.14.29l.09.22c0,.11.09.21.13.32a2.46,2.46,0,0,0,.5,1s0,.13.08.2c.11.28.22.57.35.84a3.78,3.78,0,0,0,.26.43c.09.15.2.28.29.44s.27.54.42.79a4.32,4.32,0,0,0,.4.53l.05.06a.91.91,0,0,0,.34.51.15.15,0,0,1,0,.06,2.84,2.84,0,0,0,.16.35,4.66,4.66,0,0,0,.62.69,1.68,1.68,0,0,1,.27.37c.18.25.38.47.57.7s.27.33.4.49.14.1.2.15l.53.51a1.57,1.57,0,0,0,.33.26s.13,0,.21,0c0,.17,0,.3.11.27h0c.14.18.33.22.48.36a.47.47,0,0,0,.18.12c.12,0,.19.13.28.21s.23.16.34.24l.31.2c.08.06,0,.3-.05.37s-.29.37-.5.4c-.05,0-.09.12-.15.16a.62.62,0,0,1-.22.1.79.79,0,0,0-.44.23c-.07.08-.2.06-.3.08l-.49,0c-.15,0-.31,0-.47,0s-.1.09-.15.09-.16-.07-.24-.08a.74.74,0,0,0-.21,0c-.05,0-.11.08-.14,0s0,0-.05,0c-.19,0-.38-.08-.57-.14s-.24-.13-.37-.19l-.09,0-.53-.15s-.07-.07-.13-.12-.17-.07-.27-.16a.58.58,0,0,0-.1-.12l-.49-.28c-.18-.11-.36-.24-.54-.37h0L142,69l-.09.11,0,0a.64.64,0,0,0-.25-.36,1.18,1.18,0,0,1-.36-.45.87.87,0,0,0-.09-.11s-.06-.09-.08-.15l-.14-.42s0-.05,0-.05-.12-.1-.17-.2-.07-.15-.11-.24a5.3,5.3,0,0,0-.27-.59c-.06-.1-.12-.19-.17-.29a2.38,2.38,0,0,1-.12-.35l-.05.1,0,0c.05-.23-.1-.32-.14-.47s-.18-.34-.17-.59a.45.45,0,0,0-.08-.22,4.28,4.28,0,0,0-.26-.42,1.18,1.18,0,0,0-.28-.27c-.13,0-.25.1-.33.23a1.4,1.4,0,0,0-.18.76c0,.23,0,.46,0,.68a.57.57,0,0,1-.11.22l-.37.51-.09.13a1.37,1.37,0,0,1-.13.2,1.12,1.12,0,0,1-.16.13c0,.1,0,.28-.14.33s-.05.17-.08.29l-.24.14s0,0,0,0c-.07.27-.24.3-.4.38l0,.17s-.06.07-.08,0-.2.09-.29.15l-.06,0c-.07,0-.16.06-.2.14a1,1,0,0,1-.36.43.75.75,0,0,0-.13.06l-.44.32s0,0,0,0c0,.28-.15.19-.24.23s-.29.11-.43.17-.05.08-.09.14l-.3,0s0,0-.05,0-.27.12-.4.18-.4,0-.6.1-.39.13-.59.21-.17.12-.26.15a.44.44,0,0,1-.2,0c-.14,0-.29,0-.42.12s-.12,0-.16,0-.18-.15-.27,0-.07,0-.11,0a4.16,4.16,0,0,0-.61,0,3.89,3.89,0,0,0-.42.19,1.38,1.38,0,0,1-.29,0l-.2,0-.16,0a.76.76,0,0,0-.2.06c-.11,0-.22.09-.33.12s-.1,0-.18,0,0,.08-.06.1-.14.18-.23,0-.09,0-.14,0l-.17,0a1.57,1.57,0,0,1-.29,0c-.09,0-.19,0-.29,0s-.19,0-.28,0a.3.3,0,0,1-.34,0s-.09,0-.13,0l-.56,0s-.08,0-.1,0-.19-.14-.28,0a0,0,0,0,1-.05,0,1.39,1.39,0,0,0-.74-.15,3.46,3.46,0,0,1-.46,0,1.1,1.1,0,0,0-.57,0h0l-.41-.27-.13,0a1.37,1.37,0,0,1-.46-.14c-.2-.15-.45-.17-.61-.48-.09-.16-.25-.32-.44-.15,0,0-.06,0-.1,0l-.23,0,0-.06c-.19.12-.11.35-.12.54a1.41,1.41,0,0,1-.28.89.05.05,0,0,0,0,.05c-.06.22-.06.22-.19.27a.38.38,0,0,1-.18.34,1,1,0,0,0-.41.57s-.09.07-.16.13l-.08.09a1.36,1.36,0,0,0-.32.35,2.77,2.77,0,0,1-.31.45s-.06,0-.08,0a.53.53,0,0,0-.15.11c-.08.09-.15.2-.23.29l-.18.23-.16.15v.12a1.51,1.51,0,0,0-.29.13c-.15.1-.31.22-.46.34s-.06.12-.1.17a1.7,1.7,0,0,1-.19.18.78.78,0,0,1-.06.23s-.11,0-.16,0l-.25,0a.59.59,0,0,0-.14.06l-.48.38a4.81,4.81,0,0,1-.41.27c-.24.14-.48.28-.72.39a2.15,2.15,0,0,1-.58.26,5.09,5.09,0,0,1-.78,0,.89.89,0,0,0-.28,0s0,.09-.08.17c-.36-.2-.75-.06-1.13,0l-.21,0c-.16,0-.31,0-.48,0s-.37.06-.56,0-.37.12-.56,0-.18,0-.28,0-.08,0-.11,0-.24,0-.37-.08a1.1,1.1,0,0,0-.57,0s-.06.07-.09.12l0-.11v0c-.1,0-.21,0-.3,0s-.19,0-.28.08a2.11,2.11,0,0,0-.33-.18c-.08,0-.17.08-.25,0a.31.31,0,0,0-.05.1,2.46,2.46,0,0,0-.08.3c0-.19-.1-.33-.24-.24s0,0,0,0c-.08-.25-.26-.13-.39-.22a0,0,0,0,0-.05,0c-.14.09-.26-.07-.4,0s0,0-.06,0c-.09-.2-.14,0-.18,0l-.34-.15a.73.73,0,0,0-.46,0h0c-.08-.19-.22-.19-.34-.25s-.09,0-.14,0l-.36-.23c-.13-.09-.26-.17-.4-.08s-.05,0-.07,0a1,1,0,0,0-.47-.28c-.06,0-.11-.11-.16-.15a1.06,1.06,0,0,1-.31,0,1.36,1.36,0,0,1-.35-.16s-.07-.08-.11-.11a.34.34,0,0,0-.15-.07,1.67,1.67,0,0,1-.16-.12c-.07-.06-.13-.15-.2-.21a.28.28,0,0,0-.15-.06,1.23,1.23,0,0,1-.19,0,3.43,3.43,0,0,1-.52-.23,3.79,3.79,0,0,1-.39-.31.18.18,0,0,0-.1,0s-.1,0-.11-.1-.07-.11-.08-.1-.1,0-.15-.09a3.21,3.21,0,0,0-.41-.34,4,4,0,0,1-1.06-1,2.57,2.57,0,0,1-.21-.37l-.15-.28s-.05,0-.06,0a1.65,1.65,0,0,1-.15-.25c-.09-.15-.16-.3-.25-.45s-.23-.35-.35-.52-.08,0-.11,0a1.49,1.49,0,0,0-.47-.81c-.22-.21-.36,0-.53.1a.68.68,0,0,0,0,.12c0,.27-.08.55-.14.81a1.07,1.07,0,0,1-.22.56,1.75,1.75,0,0,0-.16.36l-.07.15c0-.12-.11-.17-.16,0a3.34,3.34,0,0,1-.42.69c-.13.21-.23.45-.34.66,0,0-.07.09-.1.08s-.14.11-.18.2-.07.17-.1.25l-.12,0a1,1,0,0,1-.15.31c-.15.11-.1.34-.17.49s-.19.17-.31,0l-.1.49h0v-.3h0a2.22,2.22,0,0,1-.1.39,2.59,2.59,0,0,1-.24.33.58.58,0,0,0-.17,0c-.14.1-.31.16-.38.41,0,0,0,0-.07,0s-.11,0-.1.15-.07.07-.09.06-.11.06-.14.14a1.32,1.32,0,0,1-.12.2l0,0,.07-.39-.16.13c0,.06-.09.14-.15.2s-.16.09-.18-.08c-.15.12-.29.25-.44.35a.18.18,0,0,1-.16,0c-.12,0-.22,0-.26.11l-.39.09-.48.09a2.76,2.76,0,0,1-.4.06l-.55,0c-.25,0-.5.09-.75.12a2.31,2.31,0,0,1-.37,0l-.41,0v.12l-.39-.1-.35-.14a.55.55,0,0,0-.18,0c-.13,0-.25.08-.37,0a.13.13,0,0,0-.13,0c-.17.15-.32,0-.48-.06a.19.19,0,0,0-.15,0,.45.45,0,0,1-.37-.07c-.06-.06-.15,0-.23-.07a1.55,1.55,0,0,0-.21,0,.13.13,0,0,0-.13,0c-.08.12-.16,0-.22,0a.22.22,0,0,0-.25-.1c-.09,0-.2,0-.3,0s-.31-.21-.49-.1c-.06-.17-.17-.11-.26-.12h-.17s0-.1-.07-.11l-.77-.08s-.06,0-.1.08l-.06-.17c-.13-.11-.17.08-.25.15l-.17-.36a2,2,0,0,1-.36,0,1.71,1.71,0,0,1-.4-.21.26.26,0,0,0-.33,0h0c-.11-.18-.24-.11-.38-.09a.08.08,0,0,1-.09-.06c-.1-.21-.26-.14-.41-.23s-.12-.2-.24-.15-.06,0-.07,0-.25-.07-.36-.15-.33-.23-.5-.32a.55.55,0,0,0-.28-.07c-.08,0-.17-.13-.26,0s0,0,0,0l-.27-.14a.57.57,0,0,0-.1-.11c-.2-.12-.4-.22-.59-.34s-.12-.11-.19-.06a.1.1,0,0,1-.09,0,3.34,3.34,0,0,0-.37-.38c-.15-.11-.33-.17-.49-.27s-.1-.15-.16-.21-.12-.12-.18-.19a.88.88,0,0,1-.12-.19c0-.06,0-.2-.11-.13s-.06,0-.09-.07-.19-.3-.29-.44-.12,0-.19-.08l0-.28c-.15,0-.24-.13-.33-.31s-.19-.19-.3-.29c0-.45-.35-.44-.51-.76s0-.22-.17-.24,0-.13,0-.16l-.27-.38-.1-.13-.28-.42-.07-.11c-.06-.12-.13-.2-.23-.15a.24.24,0,0,1-.12,0c-.15,0-.21,0-.22.28v0c-.13.16-.06.37-.06.56a1.06,1.06,0,0,1,0,.25c-.06.3-.13.61-.2.91a.57.57,0,0,1-.13.27c-.11.09-.11.26-.17.38a.85.85,0,0,0,0,.21l-.23.48,0,0,.07-.07c0,.15,0,.23-.11.23s-.12.07-.18.16a2.81,2.81,0,0,0-.38,1.11,1.47,1.47,0,0,1-.08.3.38.38,0,0,1-.12.18,1.08,1.08,0,0,1-.08.19c-.07.14-.16.27-.24.4l-.36.57-.24.41a1.76,1.76,0,0,0-.25.34c-.13.24-.32.23-.49.34a1.4,1.4,0,0,0-.14.22s0,.06-.08.06c-.22-.06-.36.18-.53.3a2.39,2.39,0,0,1-.34.21c-.12.06-.24.08-.36.13a1.11,1.11,0,0,0-.16.12s-.08,0-.11,0c-.21.07-.42.16-.62.24l-.46.21a1.1,1.1,0,0,1-.18,0l-.32.07a2.7,2.7,0,0,0-.28,0c-.16.06-.33.19-.49.18a3.49,3.49,0,0,0-.89.21.14.14,0,0,1-.09,0c-.09,0-.17-.09-.17.15-.07-.24-.19-.19-.29-.16a2.26,2.26,0,0,1-.82,0,1.79,1.79,0,0,0-.86,0c-.07,0-.16,0-.24,0a1.11,1.11,0,0,1-.26,0,2.67,2.67,0,0,1-.36-.14l-.13,0H61a1.59,1.59,0,0,1-.3-.06,2.3,2.3,0,0,0-.35-.1c-.15,0-.27-.15-.4-.2s-.22-.17-.33,0-.06,0-.07,0-.2-.22-.35-.16,0-.05-.1-.09c-.12.14-.2,0-.3-.13a3.25,3.25,0,0,0-.37-.3,3.86,3.86,0,0,0-.55-.17c-.05,0-.09-.1-.13-.16a.75.75,0,0,1-.07-.18l-.1.07-.42-.37a5.4,5.4,0,0,1-.42-.41c-.14-.16-.26-.35-.41-.54a.46.46,0,0,0-.24-.41c-.13-.08-.1-.21-.1-.32a.24.24,0,0,1,.24-.21,2.41,2.41,0,0,0,.37.07,3.75,3.75,0,0,0,.67,0c.33,0,.66-.1,1-.14s.61-.05.91-.08.31-.08.47-.09a1.38,1.38,0,0,0,.61-.29,1.16,1.16,0,0,1,.18,0,3.2,3.2,0,0,0,.43-.17,4.37,4.37,0,0,1,.55-.24c.21,0,.36-.27.56-.36s.43-.37.67-.43.48-.34.73-.47a2.8,2.8,0,0,0,.38-.32c.15-.12.3-.22.44-.35s.32-.35.49-.51a1.72,1.72,0,0,1,.5-.36c.09,0,.16-.17.25-.26a.25.25,0,0,1,0-.07,2.11,2.11,0,0,1,.27-.18,1.26,1.26,0,0,0,.5-.52c.09-.12.2-.2.3-.31s.25-.31.38-.44.21-.16.31-.26a1.74,1.74,0,0,0,.19-.26,2,2,0,0,1,.2-.21l.22-.19.55-.49s0-.09,0-.1l.44-.41a1.94,1.94,0,0,0,.33-.37c.13-.23.34-.32.41-.64,0-.07.11-.1.16-.16s.26-.38.4-.55.23-.27.35-.41.13-.18.2-.26.19-.16.27-.25l.39-.44c.17-.18.33-.37.5-.56a.2.2,0,0,0,.06-.09,1.6,1.6,0,0,1,.55-.64.39.39,0,0,1,.39,0,3.27,3.27,0,0,1,.59.43,4,4,0,0,0,.55.4c.24.17.45.39.68.59.06,0,.13.07.19.12s.36.31.55.43.64.51,1,.74.37.37.61.3a.14.14,0,0,1,.08.06,1,1,0,0,0,.54.48,2,2,0,0,1,.32.22,5.84,5.84,0,0,0,.53.33c.09.06.19.08.28.13l.79.45.12,0a2.86,2.86,0,0,0,.53.2c.09,0,.18-.09.22.11.13-.07.24-.07.31.14s.2.14.31.19a2.72,2.72,0,0,0,.57.23c.07,0,.15,0,.22,0s.29.12.44.15a2.91,2.91,0,0,0,.59.1c.09,0,.18-.06.26,0s.26,0,.39.07.29,0,.44.06l.56.13.51.08a0,0,0,0,0,.05,0c.16-.2.35,0,.52-.07l.31,0,.23,0h.56c.13,0,.26-.11.36-.07a2.27,2.27,0,0,0,.35,0,1.12,1.12,0,0,0,.63,0,1,1,0,0,1,.17,0l.27,0,.22,0,.43,0,.17,0,.17,0s0,0,0,0l.22-.11s.09,0,.12,0,.25,0,.36-.06a.83.83,0,0,0,.32-.17c.14-.17.33-.14.49-.24a1.07,1.07,0,0,1,.22-.15,1.59,1.59,0,0,1,.49-.17,1.11,1.11,0,0,0,.43-.19,3.12,3.12,0,0,0,.47-.34c.2-.18.47-.2.62-.53,0,0,.09,0,.13,0v0c.07-.09.14-.17.2-.26a2.26,2.26,0,0,0,.13-.2.57.57,0,0,1,.14-.13l.49-.31a2.39,2.39,0,0,0,.47-.31c.12-.12.26-.14.37-.23a.75.75,0,0,1,.32-.21s.08-.15.13-.25l.06.15s.08-.06.1-.1a4.4,4.4,0,0,0,.37-.68c0-.17.21-.27.32-.38a.53.53,0,0,0,.16-.24.77.77,0,0,1,.56-.59s.07.08.11.09.15.35.31.35,0,.07.07.1.22.3.34.44.07,0,.11,0a.38.38,0,0,1,.09.09,1,1,0,0,1,.1.17l.28.43.08,0,.1.11a1.5,1.5,0,0,0,.15.25c.11.11.25.18.31.37.21,0,.27.36.47.35,0,0,0,0,.07.05l.59.51c.11.1.21.27.32.3s.43.3.65.41.21,0,.31.09.14,0,.14.15h0c.12-.09.21,0,.32.07s.2,0,.27.11a.08.08,0,0,0,.07,0h.38v.12a.79.79,0,0,1,.22,0,2.5,2.5,0,0,1,.25.09l.26.09a.76.76,0,0,1,.16.06c.12.09.26,0,.38.14s.26.06.39.09a1,1,0,0,1,.29.11.56.56,0,0,0,.41.13s.07,0,.1,0,.26.23.35.18.26.07.4.11l0,0a2.13,2.13,0,0,1,.45.13.43.43,0,0,0,.44,0s.09,0,.14,0,0,0,0,0c.18-.06.37.11.55-.06a.11.11,0,0,1,.1,0,1.82,1.82,0,0,0,.56.09c.28,0,.56,0,.84-.16.1-.07.25,0,.38,0s.35,0,.52,0a3.31,3.31,0,0,1,.54-.06l.18,0,.39-.12h0c.2-.15.42,0,.62-.1a2.5,2.5,0,0,0,.5-.23c.22-.12.43-.27.64-.39s.26-.08.39-.15a3.33,3.33,0,0,0,.32-.24s0,0,.06,0a.61.61,0,0,0,.43-.26c.07-.08.21,0,.32-.05s.36-.21.51-.41c.1,0,.36-.1.44-.29a.35.35,0,0,1,.25-.23,1.53,1.53,0,0,0,.29-.18s.08-.08.12-.07c.23.06.35-.19.51-.34a3.67,3.67,0,0,0,.27-.38s.12,0,.16-.1a3.39,3.39,0,0,0,.2-.28,4,4,0,0,1,.29-.43c.1-.12.21-.21.32-.33a2.29,2.29,0,0,0,.17-.23l.27-.38a2.16,2.16,0,0,0,.35-.55c.06-.15.2-.22.3-.33a5.37,5.37,0,0,0,.37-.44c.07-.09.11-.21.17-.3a1.26,1.26,0,0,0,.2-.2c.14-.18.27-.37.4-.55,0,0,0,0,0,0a1.34,1.34,0,0,1,.2-.56l.12.14.19-.68.1.11a1.26,1.26,0,0,0,.13-.17c.07-.12.13-.16.18,0,0,0,0,0,0,0s.19.08.24.25a1.27,1.27,0,0,0,.2.34,6.51,6.51,0,0,1,.51.64,2.72,2.72,0,0,0,.25.32c.09.1.15.29.25.37s.27.39.44.53a1.78,1.78,0,0,0,.27.21c.16.08.28.33.43.5a2.2,2.2,0,0,0,.3.31,4,4,0,0,0,.54.4c.15.07.27.25.45.21s.14.06.21.09l.4.18.24.14a.47.47,0,0,0,.17,0,.18.18,0,0,0,.09.08c.26.08.51.15.77.21s.25,0,.37.06.18.07.28.09.35.11.52,0c0,.14.12.16.22.09s.1,0,.15,0a3.18,3.18,0,0,1,.62,0c.19,0,.37-.07.55-.12s.32,0,.47,0l.67-.17c.23-.06.46-.14.69-.19s.44-.06.66-.11a2.8,2.8,0,0,0,.62-.2,2.39,2.39,0,0,0,.42-.31l.15-.1.27-.2c.08-.06.15-.09.23-.14l.27-.17.61-.38a1.11,1.11,0,0,0,.18-.19c.08-.14.13-.3.28-.36s.18-.23.27-.35.13-.17.2-.26.28-.28.36-.51c0,0,0-.07.06-.08a1.19,1.19,0,0,0,.59-.74s0-.1.06-.09.15-.06.18-.15.17-.11.25-.19.22-.22.31-.35A.88.88,0,0,0,137.29,59.22Z"/><path class="cls-6" d="M144.46,34.2a3.55,3.55,0,0,0,.58-.83c.81-2.08,2.51-3.51,4-5A15.74,15.74,0,0,1,155.24,25a17.28,17.28,0,0,1,6.61-.68,14.62,14.62,0,0,1,4,.95A22.82,22.82,0,0,1,169,26.87a8.92,8.92,0,0,1,3.34,3.2,21.17,21.17,0,0,1,2.42,4.35A15.08,15.08,0,0,1,175,43.7c-.23.71-.5,1.41-.76,2.12a1.53,1.53,0,0,1-2.69.58c-1.27-1.21-2.59-2.37-3.88-3.56-.82-.76-1.59-1.57-2.44-2.29A17.87,17.87,0,0,0,157.9,37a15.79,15.79,0,0,0-8.1-.19,9.22,9.22,0,0,0-4.42,2,2.15,2.15,0,0,0-.55.85,1.08,1.08,0,0,1-1.42.81c-.3-.08-.64,0-.95-.11s-.75-.18-.76-.3c-.06-.92-.89-.93-1.41-1.17-1.87-.88-3.79-1.65-5.7-2.44-1-.42-2-.86-3.08-1.18-.89-.27-1.83-.39-2.74-.57-1.2-.24-2.39-.47-3.59-.69-.39-.07-.8-.14-1.2-.18-1.23-.09-2.46-.25-3.69-.23-2.72,0-5.45.09-8.16.33a8.19,8.19,0,0,0-2.58,1.15c-.44.21-.82.42-1.29,0a1,1,0,0,1-.21-1.28,20.13,20.13,0,0,1,5.67-8.53,16.79,16.79,0,0,1,5-3.17,15.05,15.05,0,0,1,3.88-1.31c2.69-.3,5.37-1.13,8.12-.21,1.49.5,3,.86,4.53,1.38a5.81,5.81,0,0,1,1.4,1.06c1,.74,2,1.44,2.91,2.24a12.13,12.13,0,0,1,3,4.56c.3.7.74,1.34,1,2.05a21.28,21.28,0,0,1,.55,2.26Zm-34.29-1.07.21.15a7.46,7.46,0,0,1,1.53-.57c1.12-.18,2.25-.29,3.38-.37a31.52,31.52,0,0,1,4.65-.15c3,.27,6,.33,8.89,1.23,1.37.42,2.78.7,4.13,1.16,1.8.6,3.59,1.27,5.35,2,1.14.46,2.21,1.07,3.34,1.54s1.26.28,1.22-.84a21.46,21.46,0,0,0-1.75-6.88c-1.41-3.64-4.25-5.76-7.52-7.45C129.87,21,126,21.51,122,22.31a15.91,15.91,0,0,0-5.8,2.86,13.12,13.12,0,0,0-2.79,2.51A46.47,46.47,0,0,0,110.54,32,4.76,4.76,0,0,0,110.17,33.13ZM172,45.83a4.21,4.21,0,0,0,.65-.94A23,23,0,0,0,173.8,40a13.74,13.74,0,0,0-2.42-8.66,13.32,13.32,0,0,0-7-5.25,12.57,12.57,0,0,0-5.85-.42,14.87,14.87,0,0,0-7.64,3.3A27.53,27.53,0,0,0,147,33.08a24.08,24.08,0,0,0-2,3.7.63.63,0,0,0,0,.54c.09.09.37.06.53,0a28.84,28.84,0,0,0,2.75-1.13,10,10,0,0,1,5.6-.74,26.7,26.7,0,0,1,4.6.81,13.76,13.76,0,0,1,4.94,2c1.28,1,2.62,1.87,3.86,2.89a30.9,30.9,0,0,1,2.39,2.33C170.42,44.21,171.16,45,172,45.83Z"/><path class="cls-6" d="M57.53,44c.37-.77.73-1.55,1.12-2.31a9.59,9.59,0,0,1,3.5-3.4A8.72,8.72,0,0,1,68.53,37c1.8.24,3.73.06,5.41,1.07A16.13,16.13,0,0,1,76,39.26a37.26,37.26,0,0,1,4,3.54,11.53,11.53,0,0,1,1.68,3,22,22,0,0,1,1.49,3.71c.39,1.45,1.14,2.87.74,4.62a6,6,0,0,1-.83-.64A31.2,31.2,0,0,0,81,51a25.2,25.2,0,0,0-3.93-3.16,17,17,0,0,0-7.62-2.78c-1.68-.11-3.35-.41-5-.4a16.22,16.22,0,0,0-3.25.68c-.27.06-.53.16-.81.21a1.08,1.08,0,0,0-1,1c-.15.86-.45,1-1.27.64-1.06-.52-2.06-1.16-3.12-1.68-2-1-4-1.94-6-2.8-1.86-.78-3.78-1.47-5.7-2.12A12,12,0,0,0,40.46,40,43.76,43.76,0,0,0,34,39.7a19.73,19.73,0,0,0-4.84,1.16c-1.5.48-2.93,1.15-4.39,1.76-.58.24-1.15.52-1.76.8-.44-1.4.4-2.2.91-3.1s1.22-2.06,1.88-3.06,1.47-2.14,2.24-3.18a16.39,16.39,0,0,1,1.82-2.23,8,8,0,0,1,4.61-1.94,25.6,25.6,0,0,1,5,0,13.56,13.56,0,0,1,5.41,1.57c1.23.61,2.51,1.15,3.72,1.79a6,6,0,0,1,1.51,1.14c1.52,1.61,3,3.22,4.47,4.92a27.53,27.53,0,0,1,2.23,3.39A6.07,6.07,0,0,1,57.19,44ZM25.16,40.83l.17.13a3.76,3.76,0,0,0,.48-.13,35.76,35.76,0,0,1,5.09-1.7,27.17,27.17,0,0,1,7.78-.48,32.36,32.36,0,0,1,4.57.7,28.2,28.2,0,0,1,3,.84c.74.24,1.48.49,2.21.76.33.12.64.27,1,.42.83.38,1.65.75,2.47,1.14,1,.49,2.07,1,3.12,1.45.19.08.48-.09.72-.15a2.49,2.49,0,0,0-.21-.67c-.92-1.33-1.83-2.68-2.82-4a17.82,17.82,0,0,0-7.24-6c-1-.42-2-1.07-3-1.4a14.55,14.55,0,0,0-8.29-.42,6.72,6.72,0,0,0-3.35,1.52,24,24,0,0,0-1.95,2.42c-.93,1.28-1.82,2.58-2.69,3.89C25.74,39.7,25.47,40.28,25.16,40.83Zm33.45,3.76.24.15a16.12,16.12,0,0,1,3-1.07,37.07,37.07,0,0,1,4.35-.25,8.24,8.24,0,0,1,1.49,0c1.06.14,2.13.3,3.18.53a29.67,29.67,0,0,1,3.84,1,12.52,12.52,0,0,1,2.63,1.45c1.11.74,2.15,1.58,3.23,2.36a9.68,9.68,0,0,0,1,.53c0-.39.07-.62,0-.77a22.78,22.78,0,0,0-2-3.92A27.73,27.73,0,0,0,76,40.79a9.52,9.52,0,0,0-2.37-1.5,14.32,14.32,0,0,0-5.68-1,7.58,7.58,0,0,0-4.37.87,14.58,14.58,0,0,0-3.25,2.48A14.06,14.06,0,0,0,58.61,44.59Z"/><path class="cls-7" d="M25.16,40.83c.31-.55.58-1.13.93-1.66.87-1.31,1.76-2.61,2.69-3.89a24,24,0,0,1,1.95-2.42,6.72,6.72,0,0,1,3.35-1.52,14.55,14.55,0,0,1,8.29.42c1.05.33,2,1,3,1.4a17.82,17.82,0,0,1,7.24,6c1,1.28,1.9,2.63,2.82,4a2.49,2.49,0,0,1,.21.67c-.24.06-.53.23-.72.15-1.05-.45-2.08-1-3.12-1.45-.82-.39-1.64-.76-2.47-1.14-.32-.15-.63-.3-1-.42-.73-.27-1.47-.52-2.21-.76a28.2,28.2,0,0,0-3-.84,32.36,32.36,0,0,0-4.57-.7,27.17,27.17,0,0,0-7.78.48,35.76,35.76,0,0,0-5.09,1.7,3.76,3.76,0,0,1-.48.13Z"/><path class="cls-7" d="M58.61,44.59a14.06,14.06,0,0,1,1.7-3,14.58,14.58,0,0,1,3.25-2.48,7.58,7.58,0,0,1,4.37-.87,14.32,14.32,0,0,1,5.68,1A9.52,9.52,0,0,1,76,40.79a27.73,27.73,0,0,1,3.6,3.83,22.78,22.78,0,0,1,2,3.92c.08.15,0,.38,0,.77a9.68,9.68,0,0,1-1-.53c-1.08-.78-2.12-1.62-3.23-2.36A12.52,12.52,0,0,0,74.69,45a29.67,29.67,0,0,0-3.84-1c-1-.23-2.12-.39-3.18-.53a8.24,8.24,0,0,0-1.49,0,37.07,37.07,0,0,0-4.35.25,16.12,16.12,0,0,0-3,1.07Z"/><path class="cls-7" d="M110.17,33.13a4.76,4.76,0,0,1,.37-1.14,46.47,46.47,0,0,1,2.91-4.31,13.12,13.12,0,0,1,2.79-2.51,15.91,15.91,0,0,1,5.8-2.86c3.92-.8,7.83-1.3,11.56.62,3.27,1.69,6.11,3.81,7.52,7.45a21.46,21.46,0,0,1,1.75,6.88c0,1.12-.17,1.28-1.22.84s-2.2-1.08-3.34-1.54c-1.76-.71-3.55-1.38-5.35-2-1.35-.46-2.76-.74-4.13-1.16-2.89-.9-5.91-1-8.89-1.23a31.52,31.52,0,0,0-4.65.15c-1.13.08-2.26.19-3.38.37a7.46,7.46,0,0,0-1.53.57Z"/><path class="cls-7" d="M172,45.83c-.83-.85-1.57-1.62-2.33-2.38a30.9,30.9,0,0,0-2.39-2.33c-1.24-1-2.58-1.92-3.86-2.89a13.76,13.76,0,0,0-4.94-2,26.7,26.7,0,0,0-4.6-.81,10,10,0,0,0-5.6.74,28.84,28.84,0,0,1-2.75,1.13c-.16.07-.44.1-.53,0a.63.63,0,0,1,0-.54,24.08,24.08,0,0,1,2-3.7A27.53,27.53,0,0,1,150.84,29a14.87,14.87,0,0,1,7.64-3.3,12.57,12.57,0,0,1,5.85.42,13.32,13.32,0,0,1,7,5.25A13.74,13.74,0,0,1,173.8,40a23,23,0,0,1-1.16,4.87A4.21,4.21,0,0,1,172,45.83Z"/><path class="cls-6" d="M61.46,77.15c-.19,1-.35,2-.53,2.88a3.12,3.12,0,0,1-1,1.48s-.09.08-.1.12c-.07.31-.33.45-.54.64a.28.28,0,0,0-.08.21s.1.09.17.11a1.05,1.05,0,0,1,.9,1.34.94.94,0,0,0,0,.37c.05.54.11,1.08.17,1.62a6,6,0,0,0,.14.74,2.64,2.64,0,0,1-.29,2.19c-.46.72-.87,1.47-1.31,2.2a3.8,3.8,0,0,1-1.51,1.49c-.49.24-.93.57-1.43.79a9.71,9.71,0,0,1-1.33.39,3.38,3.38,0,0,0-.48.11.5.5,0,0,0-.25.32,4.42,4.42,0,0,1-1.17,2.42A3.63,3.63,0,0,1,50.81,98c-.43.08-.83.32-1.26.38a5.21,5.21,0,0,1-1.89-.07,13.48,13.48,0,0,1-1.86-.61,6,6,0,0,1-1.31-.72c-.42-.31-.75-.72-1.16-1a.88.88,0,0,0-.64-.13c-.19,0-.35.24-.54.33a4.88,4.88,0,0,1-.91.31,3.74,3.74,0,0,1-1.85,0,14,14,0,0,1-1.46-.32c-.33-.13-.74-.16-1-.49-.07-.08-.22-.08-.34-.13a2.81,2.81,0,0,1-.78-.37c-.23-.22-.59-.28-.7-.64,0-.11-.24-.16-.38-.23-.45-.24-.58-.73-.84-1.12a2.44,2.44,0,0,1-.36-1.54c0-.07-.14-.23-.21-.23a2,2,0,0,1-1.55-.59,10.62,10.62,0,0,1-1.46-1.61c-.47-.68-1.05-1.3-1.52-2A5.4,5.4,0,0,1,28,85.59a10.66,10.66,0,0,1-.32-2.39,4,4,0,0,1,.56-2,3.21,3.21,0,0,0,.27-1.93,2.86,2.86,0,0,1,.36-2,6.34,6.34,0,0,0,.5-1.19.67.67,0,0,1,.13-.21c.33-.32.66-.64,1-.95.17-.15.14-.22,0-.32a.49.49,0,0,1-.25-.35,11.89,11.89,0,0,1,1.17-5.57c.43-.84,1.06-1.59,1.58-2.4a4.4,4.4,0,0,1,2.8-1.76,7.41,7.41,0,0,1,1.7-.09,12.72,12.72,0,0,1,1.5.16.61.61,0,0,0,.58-.21,7.84,7.84,0,0,1,1.54-1.45,2.22,2.22,0,0,1,1.42-.5c.07,0,.15-.09.23-.1a15.75,15.75,0,0,1,1.67-.17,18.17,18.17,0,0,1,2.09.09,7.05,7.05,0,0,1,2.55.53c.24.12.52.17.76.28a3.32,3.32,0,0,1,.5.33s0,.08.08.09c.79.21,1.21.89,1.79,1.36a9.66,9.66,0,0,1,1.45,1.62,6.17,6.17,0,0,1,.81,1.38,1.34,1.34,0,0,0,1,.73,10.17,10.17,0,0,1,1.89.61,11.78,11.78,0,0,1,1.84,1.1,4.26,4.26,0,0,1,1.54,2,11,11,0,0,1,.54,1.55,15.44,15.44,0,0,1,.26,2A10.4,10.4,0,0,1,61.46,77.15Zm-26,2.52c.32.59.57,1.12.86,1.63.4.69.83,1.37,1.23,2.06a6.46,6.46,0,0,1,.91,1.91c.15.73.31,1.46.41,2.2.06.44.15.54.59.48a3.69,3.69,0,0,1,.81,0c.09,0,.17.16.27.17.36,0,.74,0,1.1,0a4.88,4.88,0,0,1,2.45.56,6,6,0,0,0,1.2.63,2,2,0,0,0,1.06.25,6.38,6.38,0,0,0,1.68-.71c.86-.5,1.7-1,2.51-1.63a4.22,4.22,0,0,0,.87-.87c.44-.55.84-1.13,1.25-1.7a6.74,6.74,0,0,0,.55-.84c.27-.49.45-1,1-1.32.07,0,.11-.18.12-.28q0-.42,0-.84a.61.61,0,0,0,0-.27c-.12-.27-.26-.54-.38-.81-.32-.67-.27-1.46-.71-2.08a2,2,0,0,1-.31-.43c-.18-.51-.34-1-.48-1.54a10,10,0,0,0-.2-1,3.6,3.6,0,0,1-.14-2,.32.32,0,0,0-.21-.37,3.27,3.27,0,0,1-.51-.41,3.28,3.28,0,0,0-.5-.42,6.3,6.3,0,0,1-1.78-1.1s-.08,0-.11,0a2.46,2.46,0,0,1-.45-.25.48.48,0,0,0-.65-.08,10.77,10.77,0,0,1-1.14.65,9.39,9.39,0,0,1-1.59.63,18.23,18.23,0,0,1-2.45.45c-.73.07-1.47,0-2.2,0-.05,0-.1,0-.14-.07a4.9,4.9,0,0,0-.61-.21c-.26,0-.36.11-.29.35a4.58,4.58,0,0,1-.22,2.74,11.77,11.77,0,0,1-1.78,3,4.79,4.79,0,0,1-1,.91A6.69,6.69,0,0,1,35.48,79.67Zm19-9.47c-.36.33-.36.33-.11.76a1.76,1.76,0,0,0,.09.2c.27.44.31,1,.8,1.33a1.63,1.63,0,0,1,.34.3,7.48,7.48,0,0,1,1.54,2.55c.07.26.15.51.23.76.28.92.58,1.84.85,2.77a3.94,3.94,0,0,1,0,2.28,1.31,1.31,0,0,0,0,.28l.11.06a4.54,4.54,0,0,0,.8-1A9.45,9.45,0,0,0,60,75.86c-.06-.6-.14-1.21-.26-1.81a4.91,4.91,0,0,0-.4-1,8.65,8.65,0,0,0-.69-1.27,5,5,0,0,0-1.74-1.49c-.13-.08-.23-.23-.38-.29-.33-.14-.68-.23-1-.36s-.58,0-.62.36a3.21,3.21,0,0,1-.07.36ZM31.43,74.39a6.54,6.54,0,0,0,.65-.34c.25-.16.57-.27.62-.65a6.11,6.11,0,0,1,.17-.74,2.78,2.78,0,0,1,1.37-2,7.76,7.76,0,0,1,2-.88c.12,0,.23-.21.32-.34a6.72,6.72,0,0,1,.8-1.08c.6-.53,1.26-1,1.91-1.47.22-.16.48-.27.69-.43s.15-.31-.08-.37c-.65-.16-1.31-.33-2-.46a3.68,3.68,0,0,0-1.23-.12,4.07,4.07,0,0,0-2.75,1.57,5.48,5.48,0,0,1-.58.82,4.27,4.27,0,0,0-1,1.46,8.92,8.92,0,0,0-.82,3.33c0,.51.14,1-.12,1.53C31.39,74.29,31.42,74.34,31.43,74.39Zm16-6.39a1,1,0,0,0-.11-.27,3.73,3.73,0,0,0-.45-.44,3.49,3.49,0,0,0-2.5-.64,4.92,4.92,0,0,0-2.1.44c-.13.08-.3.11-.43.19-.56.32-1.13.61-1.65,1s-1.13.85-1.67,1.3a.61.61,0,0,0-.25.36c0,.1.15.25.27.3.52.23,1.05.46,1.59.64a1.58,1.58,0,0,0,.78,0c1.09-.22,2.19-.47,3.28-.72a10.65,10.65,0,0,0,2-.63c.43-.18.83-.33,1-.82A7.06,7.06,0,0,1,47.47,68ZM35.09,88.29a.91.91,0,0,0,.25,1.25,1.79,1.79,0,0,1,.13.14.85.85,0,0,0,1.41-.12,1.55,1.55,0,0,0,.2-.32,2.28,2.28,0,0,0,.24-.84,8.28,8.28,0,0,0-.43-2.83c-.22-.54-.41-1.1-.66-1.63a8.79,8.79,0,0,0-.75-1.3,3.26,3.26,0,0,0-1.54-1.32c-.52-.19-.66-.15-.83.38a2.11,2.11,0,0,0-.11.74c0,.43.15.85.15,1.28a1.17,1.17,0,0,0,.48.91.41.41,0,0,1,0,.71c-.08.06-.19.17-.18.23a4.45,4.45,0,0,0,.24.81c.18.45.42.88.56,1.34a.7.7,0,0,0,.67.54Zm9.14-25.06a11.79,11.79,0,0,0-1.64.26,3.54,3.54,0,0,0-1.68,1.29.28.28,0,0,0,.06.48c.15.09.27.24.43.32a1,1,0,0,0,.5.1c.31-.05.62-.17.94-.22s.88-.13,1.33-.18a3.05,3.05,0,0,1,1.53,0l.76.29a3.79,3.79,0,0,1,.74.33,4,4,0,0,0,2,.8,6.13,6.13,0,0,1,2.54,1.05c.08,0,.12.15.2.2a6.85,6.85,0,0,0,.79.44c.19.08.3,0,.21-.23a1.87,1.87,0,0,0-.34-.6,23.55,23.55,0,0,0-2.54-2.65,5.8,5.8,0,0,0-2.87-1.31ZM43.42,94.1l-.11.08a2.25,2.25,0,0,0,.19.45,4.63,4.63,0,0,0,1.37,1.16,8.92,8.92,0,0,0,1.32.8,8.08,8.08,0,0,0,2.74.65,1.62,1.62,0,0,0,.54,0,3.92,3.92,0,0,0,2.4-1.54A2.83,2.83,0,0,0,52.6,94c0-.41,0-.82,0-1.22,0-.13-.06-.26-.25-.17a.38.38,0,0,1-.21,0h-2a.58.58,0,0,0-.62.48,3.86,3.86,0,0,1-.35.87,1.8,1.8,0,0,1-1.86,1c-.57-.07-1.15-.18-1.71-.3s-1-.25-1.55-.39A4.59,4.59,0,0,1,43.42,94.1Zm-6.35-22a2.18,2.18,0,0,0-.55-.75c-.31-.26-.59-.32-.87,0s-.37.53-.56.79a6.8,6.8,0,0,0-1,2.34,9.89,9.89,0,0,0-.25,2.17A5.84,5.84,0,0,0,34,78a.56.56,0,0,0,.91.32,5.67,5.67,0,0,0,1.06-1,23.25,23.25,0,0,0,1.42-2.09,3.94,3.94,0,0,0,.59-2.2,1.66,1.66,0,0,0-.09-.64,4.17,4.17,0,0,0-.54-.67ZM59.27,87.7c-.07-.71-.12-1.35-.21-2-.06-.41-.24-.8-.27-1.2a1.63,1.63,0,0,0-1.35-1.31c-.17,0-.52,0-.54.28a12.4,12.4,0,0,0,0,1.61,10.78,10.78,0,0,1,.18,1.69,5.48,5.48,0,0,1-1.19,3.46,15.13,15.13,0,0,1-1.76,1.64.57.57,0,0,0-.17.64c.14.23.34.12.51.06.68-.24,1.37-.48,2-.75a2.32,2.32,0,0,0,.64-.49,6.68,6.68,0,0,0,.49-.57,2.17,2.17,0,0,0,.24-.29c.26-.46.53-.91.76-1.38S59.08,88.15,59.27,87.7Zm-24.77,3-.09.08A4.81,4.81,0,0,0,35.25,93a5.47,5.47,0,0,0,2.61,1.85,7.94,7.94,0,0,0,1.28.3,4.1,4.1,0,0,0,2,.1.79.79,0,0,0,.63-1.11.41.41,0,0,1,0-.21c.08-.37,0-.48-.32-.64a11.46,11.46,0,0,1-1.23-.7,4.7,4.7,0,0,0-1.66-.86c-.1,0-.2-.17-.28-.27a1.34,1.34,0,0,1-.13-.27l.06.13a3.32,3.32,0,0,1-.51.23,1.85,1.85,0,0,1-1.42-.1,1.85,1.85,0,0,0-.42-.11,4.91,4.91,0,0,1-.68-.22A4.53,4.53,0,0,1,34.5,90.75ZM55,84.53a3.79,3.79,0,0,1-.26.59c-.26.42-.53.84-.82,1.24-.18.24-.41.46-.6.7a4.74,4.74,0,0,1-.78,1,9.72,9.72,0,0,1-2,1.31,18.7,18.7,0,0,0-2.16,1.26.34.34,0,0,0,0,.28.76.76,0,0,0,.82.42c1-.13,1.93-.16,2.9-.24a1.68,1.68,0,0,0,.65-.09,8.66,8.66,0,0,0,1.24-.92,4.09,4.09,0,0,0,.68-.86,6,6,0,0,0,.59-1,4.32,4.32,0,0,0,.23-1A3.42,3.42,0,0,0,55,84.53Zm-8.79,8.86,0-.08.5.06a1,1,0,0,0,.82-.36c.18-.16.07-.35,0-.53a.14.14,0,0,1,0-.09.48.48,0,0,0-.32-.56,7.86,7.86,0,0,0-.86-.28c-.1,0-.28,0-.29-.09-.05-.32-.33-.38-.55-.48l-1.19-.48c-.3-.11-.55-.34-.9-.31,0,0-.06,0-.1-.07a8,8,0,0,0-1.21-.51c-.51-.14-1.06-.17-1.58-.28a1,1,0,0,0-1.07.2s-.14,0-.21,0l-.39.13c.09.11.15.26.26.32.67.4,1.35.78,2,1.15s1.38.74,2.09,1.07,1.14.46,1.71.69ZM53.52,73a11.36,11.36,0,0,0,0,1.54c0,.44.25.87.32,1.31a6.62,6.62,0,0,0,.83,2.19,5.56,5.56,0,0,1,.25.61c.08.2.16.41.22.61.14.43.28.86.41,1.29a3.38,3.38,0,0,1,.2.92c0,.58.46.32.69.46l.06,0c.19.1.28,0,.33-.16a4.67,4.67,0,0,0,0-2.91l-.6-1.82a15.81,15.81,0,0,0-.51-1.56c-.16-.34-.08-.8-.53-1-.2-.1-.31-.39-.47-.58a6,6,0,0,1-.64-.69A.48.48,0,0,0,53.52,73ZM29.06,82.25a1.32,1.32,0,0,0-.1.3,4.9,4.9,0,0,0,.33,2.57,20.05,20.05,0,0,0,1.23,2.09,8.76,8.76,0,0,0,.94,1.17c.48.54,1,1.05,1.49,1.57a1.22,1.22,0,0,0,.35.14,2.63,2.63,0,0,0,.06-.49c0-.08-.1-.15-.15-.23a2.12,2.12,0,0,1-.29-.38,15.6,15.6,0,0,1-.8-1.83,22.58,22.58,0,0,1-.54-2.3,1.61,1.61,0,0,0-.68-.8c-.33-.12-.71-.14-.93-.48Zm2.35.53a2,2,0,0,0,0-.26c0-.41,0-.82.08-1.22s.17-.85.18-1.28a.54.54,0,0,1,.28-.51l.55-.37c.24-.17.23-.36.12-.61a3.42,3.42,0,0,1-.28-.89c-.06-.47-.06-.94-.08-1.42,0-.27-.12-.4-.4-.32a1.93,1.93,0,0,0-.38.19,2.51,2.51,0,0,0-1.29,1.53,5.31,5.31,0,0,0,0,1.13,8.62,8.62,0,0,0,.47,2.89A2.18,2.18,0,0,0,31.41,82.78ZM52.82,71a8.52,8.52,0,0,0-.22-.84.43.43,0,0,0-.37-.18c-.45,0-.59-.09-.64-.55a.39.39,0,0,0-.11-.22c-.21-.25-.43-.51-.67-.75s-.27-.33-.37-.3c-.34.08-.51-.15-.75-.29a.32.32,0,0,0-.45.22c-.12.37-.25.75-.41,1.12s-.11.49.21.66.48.21.71.33a4.08,4.08,0,0,1,.63.31c.52.33,1,.69,1.55,1a.29.29,0,0,0,.27,0,3,3,0,0,0,.45-.34A1.73,1.73,0,0,0,52.82,71Z"/><path class="cls-8" d="M35.48,79.67a6.69,6.69,0,0,0,.93-.46,4.79,4.79,0,0,0,1-.91,11.77,11.77,0,0,0,1.78-3,4.58,4.58,0,0,0,.22-2.74c-.07-.24,0-.38.29-.35a4.9,4.9,0,0,1,.61.21s.09.07.14.07c.73,0,1.47,0,2.2,0A18.23,18.23,0,0,0,45.14,72a9.39,9.39,0,0,0,1.59-.63,10.77,10.77,0,0,0,1.14-.65.48.48,0,0,1,.65.08A2.46,2.46,0,0,0,49,71s.09,0,.11,0a6.3,6.3,0,0,0,1.78,1.1,3.28,3.28,0,0,1,.5.42,3.27,3.27,0,0,0,.51.41.32.32,0,0,1,.21.37,3.6,3.6,0,0,0,.14,2,10,10,0,0,1,.2,1c.14.52.3,1,.48,1.54a2,2,0,0,0,.31.43c.44.62.39,1.41.71,2.08.12.27.26.54.38.81a.61.61,0,0,1,0,.27q0,.42,0,.84c0,.1,0,.25-.12.28-.56.28-.74.83-1,1.32a6.74,6.74,0,0,1-.55.84c-.41.57-.81,1.15-1.25,1.7a4.22,4.22,0,0,1-.87.87c-.81.58-1.65,1.13-2.51,1.63a6.38,6.38,0,0,1-1.68.71,2,2,0,0,1-1.06-.25,6,6,0,0,1-1.2-.63,4.88,4.88,0,0,0-2.45-.56c-.36,0-.74,0-1.1,0-.1,0-.18-.16-.27-.17a3.69,3.69,0,0,0-.81,0c-.44.06-.53,0-.59-.48-.1-.74-.26-1.47-.41-2.2a6.46,6.46,0,0,0-.91-1.91c-.4-.69-.83-1.37-1.23-2.06C36.05,80.79,35.8,80.26,35.48,79.67ZM45.38,75a2.64,2.64,0,0,0,0,.63A2.17,2.17,0,0,0,46.61,77a20.14,20.14,0,0,0,2.15.73,1.45,1.45,0,0,0,1.39-.41,2.06,2.06,0,0,0,.71-2.1.42.42,0,0,1,0-.25c.18-.49.13-.75-.28-1s-.92-.6-1.39-.87c-1.05-.61-1.66-.73-2.59,0A3.31,3.31,0,0,0,45.38,75Zm-3.29,1.73a2.75,2.75,0,0,0-2.51,1.14.34.34,0,0,0-.08.17c-.08.33-.17.65-.24,1a.78.78,0,0,0,.28.76c.21.19.41.4.6.6s.57.63.87.91A1.41,1.41,0,0,0,43.07,81a2.67,2.67,0,0,1,.62-.75,2.77,2.77,0,0,0,.86-1.37.5.5,0,0,0,0-.36A2.88,2.88,0,0,0,42.09,76.68ZM52,82.35a.83.83,0,0,0-.26-.93.76.76,0,0,1-.32-.52,1.78,1.78,0,0,0-.17-.4,2.1,2.1,0,0,0-1-.84,1.73,1.73,0,0,0-2,.08,8.46,8.46,0,0,0-.86.7c-.26.27-.6.55-.44,1a3.17,3.17,0,0,0,1.36,1.69,5.2,5.2,0,0,0,1.35.56,1.33,1.33,0,0,0,.79,0,6,6,0,0,0,1-.5A1,1,0,0,0,52,82.35Zm-8.31,3.48A2.64,2.64,0,0,0,44,87.09a.82.82,0,0,0,.41.43,5.46,5.46,0,0,0,1.2.19A2.59,2.59,0,0,0,47.25,87c.24-.18.53-.28.78-.45a2.11,2.11,0,0,0,.39-.4c.06-.07.09-.17.16-.23a.33.33,0,0,0,.07-.47,3.63,3.63,0,0,0-2.34-1.78,1.49,1.49,0,0,0-.91,0A3,3,0,0,0,43.65,85.83Z"/><path class="cls-9" d="M54.52,70.2l.31.14A3.21,3.21,0,0,0,54.9,70c0-.37.26-.5.62-.36s.69.22,1,.36c.15.06.25.21.38.29a5,5,0,0,1,1.74,1.49A8.65,8.65,0,0,1,59.35,73a4.91,4.91,0,0,1,.4,1c.12.6.2,1.21.26,1.81a9.45,9.45,0,0,1-.85,4.66,4.54,4.54,0,0,1-.8,1l-.11-.06a1.31,1.31,0,0,1,0-.28,3.94,3.94,0,0,0,0-2.28c-.27-.93-.57-1.85-.85-2.77-.08-.25-.16-.5-.23-.76a7.48,7.48,0,0,0-1.54-2.55,1.63,1.63,0,0,0-.34-.3c-.49-.31-.53-.89-.8-1.33a1.76,1.76,0,0,1-.09-.2C54.16,70.53,54.16,70.53,54.52,70.2Z"/><path class="cls-9" d="M31.43,74.39s0-.1,0-.12c.26-.5.08-1,.12-1.53a8.92,8.92,0,0,1,.82-3.33,4.27,4.27,0,0,1,1-1.46,5.48,5.48,0,0,0,.58-.82,4.07,4.07,0,0,1,2.75-1.57,3.68,3.68,0,0,1,1.23.12c.66.13,1.32.3,2,.46.23.06.27.22.08.37s-.47.27-.69.43c-.65.48-1.31.94-1.91,1.47a6.72,6.72,0,0,0-.8,1.08c-.09.13-.2.31-.32.34a7.76,7.76,0,0,0-2,.88,2.78,2.78,0,0,0-1.37,2,6.11,6.11,0,0,0-.17.74c-.05.38-.37.49-.62.65A6.54,6.54,0,0,1,31.43,74.39Z"/><path class="cls-10" d="M47.47,68a7.06,7.06,0,0,0-.3.73c-.15.49-.55.64-1,.82a10.65,10.65,0,0,1-2,.63c-1.09.25-2.19.5-3.28.72a1.58,1.58,0,0,1-.78,0c-.54-.18-1.07-.41-1.59-.64-.12,0-.27-.2-.27-.3a.61.61,0,0,1,.25-.36c.54-.45,1.09-.9,1.67-1.3s1.09-.66,1.65-1c.13-.08.3-.11.43-.19a4.92,4.92,0,0,1,2.1-.44,3.49,3.49,0,0,1,2.5.64,3.73,3.73,0,0,1,.45.44A1,1,0,0,1,47.47,68Z"/><path class="cls-10" d="M35.09,88.29l-.19,0a.7.7,0,0,1-.67-.54c-.14-.46-.38-.89-.56-1.34a4.45,4.45,0,0,1-.24-.81c0-.06.1-.17.18-.23a.41.41,0,0,0,0-.71,1.17,1.17,0,0,1-.48-.91c0-.43-.13-.85-.15-1.28a2.11,2.11,0,0,1,.11-.74c.17-.53.31-.57.83-.38a3.26,3.26,0,0,1,1.54,1.32,8.79,8.79,0,0,1,.75,1.3c.25.53.44,1.09.66,1.63a8.28,8.28,0,0,1,.43,2.83,2.28,2.28,0,0,1-.24.84,1.55,1.55,0,0,1-.2.32.85.85,0,0,1-1.41.12,1.79,1.79,0,0,0-.13-.14A.91.91,0,0,1,35.09,88.29Z"/><path class="cls-8" d="M44.23,63.23l3,.38a5.8,5.8,0,0,1,2.87,1.31,23.55,23.55,0,0,1,2.54,2.65,1.87,1.87,0,0,1,.34.6c.09.2,0,.31-.21.23a6.85,6.85,0,0,1-.79-.44c-.08,0-.12-.15-.2-.2a6.13,6.13,0,0,0-2.54-1.05,4,4,0,0,1-2-.8,3.79,3.79,0,0,0-.74-.33l-.76-.29a3.05,3.05,0,0,0-1.53,0c-.45,0-.89.1-1.33.18s-.63.17-.94.22a1,1,0,0,1-.5-.1c-.16-.08-.28-.23-.43-.32a.28.28,0,0,1-.06-.48,3.54,3.54,0,0,1,1.68-1.29A11.79,11.79,0,0,1,44.23,63.23Z"/><path class="cls-9" d="M43.42,94.1a4.59,4.59,0,0,0,.6.27c.51.14,1,.28,1.55.39s1.14.23,1.71.3a1.8,1.8,0,0,0,1.86-1,3.86,3.86,0,0,0,.35-.87.58.58,0,0,1,.62-.48h2a.38.38,0,0,0,.21,0c.19-.09.24,0,.25.17,0,.4,0,.81,0,1.22a2.83,2.83,0,0,1-.73,1.65,3.92,3.92,0,0,1-2.4,1.54,1.62,1.62,0,0,1-.54,0,8.08,8.08,0,0,1-2.74-.65,8.92,8.92,0,0,1-1.32-.8,4.63,4.63,0,0,1-1.37-1.16,2.25,2.25,0,0,1-.19-.45Z"/><path class="cls-10" d="M37.07,72.07l.28-.32a4.17,4.17,0,0,1,.54.67,1.66,1.66,0,0,1,.09.64,3.94,3.94,0,0,1-.59,2.2A23.25,23.25,0,0,1,36,77.35a5.67,5.67,0,0,1-1.06,1A.56.56,0,0,1,34,78a5.84,5.84,0,0,1-.15-1.38,9.89,9.89,0,0,1,.25-2.17,6.8,6.8,0,0,1,1-2.34c.19-.26.35-.55.56-.79s.56-.24.87,0A2.18,2.18,0,0,1,37.07,72.07Z"/><path class="cls-8" d="M59.27,87.7c-.19.45-.37.94-.6,1.41s-.5.92-.76,1.38a2.17,2.17,0,0,1-.24.29,6.68,6.68,0,0,1-.49.57,2.32,2.32,0,0,1-.64.49c-.67.27-1.36.51-2,.75-.17.06-.37.17-.51-.06a.57.57,0,0,1,.17-.64,15.13,15.13,0,0,0,1.76-1.64,5.48,5.48,0,0,0,1.19-3.46,10.78,10.78,0,0,0-.18-1.69,12.4,12.4,0,0,1,0-1.61c0-.3.37-.29.54-.28a1.63,1.63,0,0,1,1.35,1.31c0,.4.21.79.27,1.2C59.15,86.35,59.2,87,59.27,87.7Z"/><path class="cls-8" d="M34.5,90.75a4.53,4.53,0,0,0,.61.34,4.91,4.91,0,0,0,.68.22,1.85,1.85,0,0,1,.42.11,1.85,1.85,0,0,0,1.42.1,3.32,3.32,0,0,0,.51-.23l-.06-.13a1.34,1.34,0,0,0,.13.27c.08.1.18.25.28.27a4.7,4.7,0,0,1,1.66.86,11.46,11.46,0,0,0,1.23.7c.32.16.4.27.32.64a.41.41,0,0,0,0,.21.79.79,0,0,1-.63,1.11,4.1,4.1,0,0,1-2-.1,7.94,7.94,0,0,1-1.28-.3A5.47,5.47,0,0,1,35.25,93a4.81,4.81,0,0,1-.84-2.14Z"/><path class="cls-10" d="M55,84.53a3.42,3.42,0,0,1,.42,2.65,4.32,4.32,0,0,1-.23,1,6,6,0,0,1-.59,1,4.09,4.09,0,0,1-.68.86,8.66,8.66,0,0,1-1.24.92,1.68,1.68,0,0,1-.65.09c-1,.08-1.94.11-2.9.24a.76.76,0,0,1-.82-.42.34.34,0,0,1,0-.28,18.7,18.7,0,0,1,2.16-1.26,9.72,9.72,0,0,0,2-1.31,4.74,4.74,0,0,0,.78-1c.19-.24.42-.46.6-.7.29-.4.56-.82.82-1.24A3.79,3.79,0,0,0,55,84.53Z"/><path class="cls-9" d="M46.17,93.39,45,92.91c-.57-.23-1.15-.43-1.71-.69s-1.4-.7-2.09-1.07-1.37-.75-2-1.15c-.11-.06-.17-.21-.26-.32l.39-.13c.07,0,.18,0,.21,0a1,1,0,0,1,1.07-.2c.52.11,1.07.14,1.58.28a8,8,0,0,1,1.21.51s.07.07.1.07c.35,0,.6.2.9.31l1.19.48c.22.1.5.16.55.48,0,.05.19.06.29.09a7.86,7.86,0,0,1,.86.28.48.48,0,0,1,.32.56.14.14,0,0,0,0,.09c.07.18.18.37,0,.53a1,1,0,0,1-.82.36l-.5-.06Z"/><path class="cls-8" d="M53.52,73a.48.48,0,0,1,.54.21,6,6,0,0,0,.64.69c.16.19.27.48.47.58.45.22.37.68.53,1a15.81,15.81,0,0,1,.51,1.56l.6,1.82a4.67,4.67,0,0,1,0,2.91c0,.16-.14.26-.33.16l-.06,0c-.23-.14-.7.12-.69-.46a3.38,3.38,0,0,0-.2-.92c-.13-.43-.27-.86-.41-1.29-.06-.2-.14-.41-.22-.61a5.56,5.56,0,0,0-.25-.61,6.62,6.62,0,0,1-.83-2.19c-.07-.44-.28-.87-.32-1.31A11.36,11.36,0,0,1,53.52,73Z"/><path class="cls-8" d="M29.06,82.25,30,83.58c.22.34.6.36.93.48a1.61,1.61,0,0,1,.68.8,22.58,22.58,0,0,0,.54,2.3,15.6,15.6,0,0,0,.8,1.83,2.12,2.12,0,0,0,.29.38c0,.08.15.15.15.23a2.63,2.63,0,0,1-.06.49A1.22,1.22,0,0,1,33,90c-.5-.52-1-1-1.49-1.57a8.76,8.76,0,0,1-.94-1.17,20.05,20.05,0,0,1-1.23-2.09A4.9,4.9,0,0,1,29,82.55,1.32,1.32,0,0,1,29.06,82.25Z"/><path class="cls-8" d="M31.41,82.78a2.18,2.18,0,0,1-.75-1.14,8.62,8.62,0,0,1-.47-2.89,5.31,5.31,0,0,1,0-1.13,2.51,2.51,0,0,1,1.29-1.53,1.93,1.93,0,0,1,.38-.19c.28-.08.39,0,.4.32,0,.48,0,1,.08,1.42a3.42,3.42,0,0,0,.28.89c.11.25.12.44-.12.61l-.55.37a.54.54,0,0,0-.28.51c0,.43-.13.85-.18,1.28s-.05.81-.08,1.22A2,2,0,0,1,31.41,82.78Z"/><path class="cls-8" d="M52.82,71a1.73,1.73,0,0,1-.17.21,3,3,0,0,1-.45.34.29.29,0,0,1-.27,0c-.52-.33-1-.69-1.55-1a4.08,4.08,0,0,0-.63-.31c-.23-.12-.47-.21-.71-.33s-.35-.34-.21-.66.29-.75.41-1.12a.32.32,0,0,1,.45-.22c.24.14.41.37.75.29.1,0,.26.18.37.3s.46.5.67.75a.39.39,0,0,1,.11.22c0,.46.19.57.64.55a.43.43,0,0,1,.37.18A8.52,8.52,0,0,1,52.82,71Z"/><path class="cls-11" d="M45.38,75a3.31,3.31,0,0,1,1.24-1.9c.93-.74,1.54-.62,2.59,0,.47.27.94.56,1.39.87s.46.55.28,1a.42.42,0,0,0,0,.25,2.06,2.06,0,0,1-.71,2.1,1.45,1.45,0,0,1-1.39.41A20.14,20.14,0,0,1,46.61,77a2.17,2.17,0,0,1-1.19-1.4A2.64,2.64,0,0,1,45.38,75Zm3.32,1.49c.5.07.64,0,.63-.56a1.9,1.9,0,0,0,0-.25,3.67,3.67,0,0,1,0-.66.35.35,0,0,0-.18-.43c-.29-.17-.57-.37-.87-.51a.87.87,0,0,0-.57,0,1.44,1.44,0,0,0-.48,1.42A2,2,0,0,0,48.7,76.44Z"/><path class="cls-11" d="M42.09,76.68a2.88,2.88,0,0,1,2.46,1.87.5.5,0,0,1,0,.36,2.77,2.77,0,0,1-.86,1.37,2.67,2.67,0,0,0-.62.75,1.41,1.41,0,0,1-2.06.22c-.3-.28-.58-.61-.87-.91s-.39-.41-.6-.6a.78.78,0,0,1-.28-.76c.07-.34.16-.66.24-1a.34.34,0,0,1,.08-.17A2.75,2.75,0,0,1,42.09,76.68Zm-1.2,2c-.1.27.06.47.27.67s.31.32.46.49c.35.42.55.45.94.08.24-.24.51-.52.41-.88a1.35,1.35,0,0,0-1.31-1C41.13,77.94,41,78.12,40.89,78.64Z"/><path class="cls-11" d="M52,82.35a1,1,0,0,1-.5.87,6,6,0,0,1-1,.5,1.33,1.33,0,0,1-.79,0,5.2,5.2,0,0,1-1.35-.56,3.17,3.17,0,0,1-1.36-1.69c-.16-.46.18-.74.44-1a8.46,8.46,0,0,1,.86-.7,1.73,1.73,0,0,1,2-.08,2.1,2.1,0,0,1,1,.84,1.78,1.78,0,0,1,.17.4.76.76,0,0,0,.32.52A.83.83,0,0,1,52,82.35Zm-2.74-1.6-.08-.12a2.37,2.37,0,0,0-.32.39.49.49,0,0,0,0,.37c.34.34.7.66,1.07,1a.26.26,0,0,0,.28,0c.06,0,.06-.19,0-.28a2.76,2.76,0,0,0-.16-.51A1.25,1.25,0,0,0,49.22,80.75Z"/><path class="cls-11" d="M43.65,85.83a3,3,0,0,1,1.75-2.14,1.49,1.49,0,0,1,.91,0,3.63,3.63,0,0,1,2.34,1.78.33.33,0,0,1-.07.47c-.07.06-.1.16-.16.23a2.11,2.11,0,0,1-.39.4c-.25.17-.54.27-.78.45a2.59,2.59,0,0,1-1.66.68,5.46,5.46,0,0,1-1.2-.19.82.82,0,0,1-.41-.43A2.64,2.64,0,0,1,43.65,85.83Zm1.7-.22a3.43,3.43,0,0,0,.08.56.49.49,0,0,0,.78.27L46.8,86c.18-.11.19-.26.05-.39a3.2,3.2,0,0,0-.61-.43C45.76,84.94,45.47,85.09,45.35,85.61Z"/><path class="cls-12" d="M48.7,76.44a2,2,0,0,1-1.52-1A1.44,1.44,0,0,1,47.66,74a.87.87,0,0,1,.57,0c.3.14.58.34.87.51a.35.35,0,0,1,.18.43,3.67,3.67,0,0,0,0,.66,1.9,1.9,0,0,1,0,.25C49.34,76.39,49.2,76.51,48.7,76.44Z"/><path class="cls-12" d="M40.89,78.64c.06-.52.24-.7.77-.69A1.35,1.35,0,0,1,43,79c.1.36-.17.64-.41.88-.39.37-.59.34-.94-.08-.15-.17-.3-.33-.46-.49S40.79,78.91,40.89,78.64Z"/><path class="cls-12" d="M49.22,80.75a1.25,1.25,0,0,1,.8.8,2.76,2.76,0,0,1,.16.51c0,.09,0,.24,0,.28a.26.26,0,0,1-.28,0c-.37-.31-.73-.63-1.07-1a.49.49,0,0,1,0-.37,2.37,2.37,0,0,1,.32-.39Z"/><path class="cls-12" d="M45.35,85.61c.12-.52.41-.67.89-.42a3.2,3.2,0,0,1,.61.43c.14.13.13.28-.05.39l-.59.43a.49.49,0,0,1-.78-.27A3.43,3.43,0,0,1,45.35,85.61Z"/><path class="cls-6" d="M64.31,118.08c-1.29-.08-2.43-.12-3.58-.21a3.75,3.75,0,0,1-1.95-.94c-.05,0-.1-.1-.16-.1-.38,0-.59-.33-.86-.55a.34.34,0,0,0-.27-.07c-.05,0-.09.14-.1.22a1.3,1.3,0,0,1-1.49,1.31,1.21,1.21,0,0,0-.45.07c-.65.15-1.3.3-1.94.47a9,9,0,0,0-.88.28,3.19,3.19,0,0,1-2.7,0c-1-.45-1.92-.82-2.88-1.25a4.66,4.66,0,0,1-2-1.6c-.36-.55-.83-1-1.17-1.61a10.71,10.71,0,0,1-.68-1.55,3.63,3.63,0,0,0-.21-.58.64.64,0,0,0-.43-.25,5.31,5.31,0,0,1-3.12-1,4.41,4.41,0,0,1-2-2.28c-.16-.51-.52-1-.65-1.47a6.06,6.06,0,0,1-.22-2.32,15.83,15.83,0,0,1,.45-2.34,7,7,0,0,1,.68-1.71c.3-.55.75-1,1.06-1.57a1,1,0,0,0,.06-.79c-.07-.23-.35-.39-.48-.61a5.48,5.48,0,0,1-.52-1.06,4.52,4.52,0,0,1-.27-2.25,15.78,15.78,0,0,1,.17-1.82c.1-.42.07-.92.43-1.28.09-.09.07-.28.11-.42a3.3,3.3,0,0,1,.33-1c.22-.31.24-.75.66-1,.13,0,.16-.31.23-.49.22-.59.78-.82,1.22-1.19a2.94,2.94,0,0,1,1.81-.68c.09,0,.27-.21.25-.29a2.42,2.42,0,0,1,.48-2,12.76,12.76,0,0,1,1.72-2c.76-.68,1.42-1.48,2.18-2.15a6.22,6.22,0,0,1,1.76-1.23A12.25,12.25,0,0,1,51.69,78a4.87,4.87,0,0,1,2.57.36,4.06,4.06,0,0,0,2.39,0,3.36,3.36,0,0,1,2.49.12,7.4,7.4,0,0,0,1.52.42.66.66,0,0,1,.27.12c.45.36.89.71,1.32,1.07.21.18.28.14.38-.11a.6.6,0,0,1,.39-.36,14.58,14.58,0,0,1,6.94.55c1.09.4,2.1,1,3.16,1.55a5.29,5.29,0,0,1,2.57,3.13,8.17,8.17,0,0,1,.38,2,14.25,14.25,0,0,1,0,1.85.77.77,0,0,0,.35.68,9.78,9.78,0,0,1,2,1.63,2.81,2.81,0,0,1,.83,1.65c0,.09.13.17.15.26a17.73,17.73,0,0,1,.47,2,21.74,21.74,0,0,1,.21,2.55,8.48,8.48,0,0,1-.23,3.17c-.12.32-.13.66-.23,1a4.35,4.35,0,0,1-.32.65s-.09.07-.1.11c-.13,1-.89,1.61-1.37,2.39a12,12,0,0,1-1.74,2,8.18,8.18,0,0,1-1.55,1.19,1.65,1.65,0,0,0-.73,1.38,13.61,13.61,0,0,1-.44,2.39,14.2,14.2,0,0,1-1,2.4,5.13,5.13,0,0,1-2.23,2.19,14.27,14.27,0,0,1-1.79.9,17,17,0,0,1-2.43.63A14.68,14.68,0,0,1,64.31,118.08ZM57.2,86.92c-.67.47-1.27.87-1.84,1.3-.79.59-1.54,1.22-2.32,1.81a8.18,8.18,0,0,1-2.17,1.41c-.87.29-1.73.6-2.61.84-.52.13-.64.26-.5.78a4.14,4.14,0,0,1,.1,1c0,.11-.17.23-.16.35,0,.45.1.89.12,1.34a5.93,5.93,0,0,1-.31,3.06,7.79,7.79,0,0,0-.57,1.55,2.54,2.54,0,0,0-.14,1.34,7.81,7.81,0,0,0,1.13,1.93c.74,1,1.54,1.89,2.36,2.79a5.57,5.57,0,0,0,1.19.92c.74.45,1.51.84,2.27,1.25a9.33,9.33,0,0,0,1.1.54,3.13,3.13,0,0,1,1.77,1c.05.08.23.11.35.1.34,0,.68-.1,1-.16a1.07,1.07,0,0,0,.32-.08c.32-.19.62-.4.93-.6.76-.48,1.73-.55,2.42-1.18a2,2,0,0,1,.47-.44c.59-.3,1.19-.57,1.8-.83a9.15,9.15,0,0,0,1.15-.39,4.47,4.47,0,0,1,2.35-.48.39.39,0,0,0,.42-.31,3.42,3.42,0,0,1,.41-.68,3.46,3.46,0,0,0,.43-.67,7.74,7.74,0,0,1,1.06-2.34s0-.09,0-.14a2.68,2.68,0,0,1,.22-.58.58.58,0,0,0,0-.8,13.06,13.06,0,0,1-1-1.29,10.94,10.94,0,0,1-1-1.83,21.23,21.23,0,0,1-.92-2.9,24.34,24.34,0,0,1-.38-2.68c0-.05,0-.12,0-.18a4.05,4.05,0,0,0,.16-.77c0-.32-.18-.41-.46-.3a5.56,5.56,0,0,1-3.37.17,14.2,14.2,0,0,1-3.94-1.7A5.82,5.82,0,0,1,57.9,88,7.76,7.76,0,0,1,57.2,86.92Zm14.48,21.64c-.47-.39-.47-.39-1,0l-.23.14c-.49.4-1.19.54-1.5,1.18a1.41,1.41,0,0,1-.3.46,9,9,0,0,1-2.86,2.27c-.3.12-.59.26-.88.4-1.08.49-2.15,1-3.24,1.47a4.86,4.86,0,0,1-2.77.33,1,1,0,0,0-.34,0l0,.14a5.66,5.66,0,0,0,1.3.82,11.49,11.49,0,0,0,5.79.31,18.21,18.21,0,0,0,2.16-.6,5.56,5.56,0,0,0,1.17-.64,11.57,11.57,0,0,0,1.45-1A6.34,6.34,0,0,0,72,111.49c.07-.18.24-.32.29-.51.12-.42.18-.86.28-1.29s-.08-.71-.54-.7l-.44,0ZM63,81.18c.18.26.33.51.51.73s.42.66.89.66a7,7,0,0,1,.92.09A3.39,3.39,0,0,1,67.89,84a9.61,9.61,0,0,1,1.37,2.25c0,.15.29.25.46.35a7.68,7.68,0,0,1,1.44.79c.74.65,1.4,1.38,2.08,2.09.23.24.4.54.64.78s.4.12.43-.16c.09-.82.2-1.64.25-2.46a4.49,4.49,0,0,0,0-1.51A5,5,0,0,0,72.18,83a6.28,6.28,0,0,1-1.09-.58,5.26,5.26,0,0,0-1.92-1A11.11,11.11,0,0,0,65,81c-.63,0-1.24.33-1.88.09C63.09,81.11,63,81.15,63,81.18ZM73.24,99.66c.09-.06.23-.09.31-.18a3.43,3.43,0,0,0,.46-.62,4.27,4.27,0,0,0,.4-3.13,6.09,6.09,0,0,0-.87-2.48c-.12-.15-.18-.34-.3-.49-.47-.63-.92-1.28-1.44-1.86S70.58,89.67,70,89.07a.79.79,0,0,0-.48-.24c-.12,0-.28.23-.32.38-.2.67-.4,1.34-.54,2a2,2,0,0,0,.08,1c.44,1.3.91,2.58,1.38,3.87a13.64,13.64,0,0,0,1.08,2.29c.29.49.53,1,1.15,1.06C72.61,99.46,72.91,99.57,73.24,99.66ZM46.67,87.79a1.13,1.13,0,0,0-1.48.49,1.3,1.3,0,0,1-.15.18,1,1,0,0,0,.37,1.7,1.79,1.79,0,0,0,.42.2,3,3,0,0,0,1.06.16,10.45,10.45,0,0,0,3.36-1c.63-.36,1.27-.67,1.88-1.06a10.49,10.49,0,0,0,1.47-1.11A4.06,4.06,0,0,0,55,85.31c.14-.67.08-.83-.6-1a2.84,2.84,0,0,0-.92,0c-.51.1-1,.32-1.52.39a1.49,1.49,0,0,0-1,.72c-.26.37-.53.39-.86.09-.08-.09-.23-.21-.31-.18a6.52,6.52,0,0,0-.94.41c-.53.29-1,.65-1.55.89a.86.86,0,0,0-.54.9C46.68,87.61,46.67,87.68,46.67,87.79ZM78.53,95A16,16,0,0,0,78,93a4.33,4.33,0,0,0-1.83-1.84c-.23-.15-.43-.14-.57.15a4.56,4.56,0,0,0-.33.56,1.2,1.2,0,0,0,0,.62c.1.38.3.74.41,1.11.17.53.29,1.06.43,1.59a3.94,3.94,0,0,1,.23,1.86l-.24,1a6.23,6.23,0,0,1-.28,1,4.93,4.93,0,0,0-.67,2.54,7.33,7.33,0,0,1-.88,3.24c0,.1-.16.17-.2.28a7.13,7.13,0,0,0-.41,1c-.07.24.08.35.31.22a2.88,2.88,0,0,0,.68-.51,32.7,32.7,0,0,0,2.82-3.5,7.07,7.07,0,0,0,1.13-3.69C78.53,97.45,78.53,96.27,78.53,95ZM40.92,98.81l-.12-.12a4.4,4.4,0,0,0-.52.3,5.65,5.65,0,0,0-1.19,1.85,9.18,9.18,0,0,0-.76,1.73A9.86,9.86,0,0,0,38,106a2,2,0,0,0,.12.65,4.86,4.86,0,0,0,2.24,2.68,3.55,3.55,0,0,0,2.12.63c.5-.07,1-.15,1.48-.25.16,0,.31-.11.16-.32a.56.56,0,0,1-.07-.26l-.33-2.41A.69.69,0,0,0,43,106a5.27,5.27,0,0,1-1.12-.29,2.2,2.2,0,0,1-1.54-2.1c0-.71,0-1.42.1-2.13s.13-1.3.23-1.94A5.68,5.68,0,0,1,40.92,98.81ZM66.68,87.66a2.55,2.55,0,0,0,.82-.78c.27-.42.3-.77-.12-1.06s-.7-.37-1-.56a8.36,8.36,0,0,0-3-.84,11.94,11.94,0,0,0-2.67,0,7.36,7.36,0,0,0-1.65.4A.68.68,0,0,0,58.77,86a7.11,7.11,0,0,0,1.32,1.14,28.58,28.58,0,0,0,2.76,1.4,4.78,4.78,0,0,0,2.77.37,2.09,2.09,0,0,0,.76-.21,5.87,5.87,0,0,0,.73-.76Zm-15.52,29.4c.85-.2,1.62-.36,2.37-.57.48-.13.93-.42,1.42-.51a2,2,0,0,0,1.38-1.84c0-.21-.06-.64-.42-.62a14.12,14.12,0,0,0-1.95.3,15.28,15.28,0,0,1-2,.48,6.68,6.68,0,0,1-4.39-.92,17,17,0,0,1-2.27-1.87.67.67,0,0,0-.8-.1c-.26.2-.09.42,0,.62.4.79.79,1.59,1.23,2.36a2.86,2.86,0,0,0,.69.7c.24.19.52.34.77.51a3.22,3.22,0,0,0,.39.25c.6.24,1.19.5,1.8.7S50.58,116.9,51.16,117.06ZM43.59,87.45l-.11-.08A5.9,5.9,0,0,0,41,88.71a6.76,6.76,0,0,0-1.84,3.46A12.19,12.19,0,0,0,39,93.78a5,5,0,0,0,.18,2.4,1,1,0,0,0,1.45.59.46.46,0,0,1,.25-.08c.46,0,.58-.07.72-.48a15.26,15.26,0,0,1,.66-1.62,5.43,5.43,0,0,0,.79-2.14c0-.13.17-.27.29-.38a1.21,1.21,0,0,1,.3-.2L43.5,92a4.32,4.32,0,0,1-.36-.58,2.28,2.28,0,0,1-.09-1.74,2.35,2.35,0,0,0,.06-.54,8,8,0,0,1,.16-.85A7,7,0,0,1,43.59,87.45Zm10.75,23.88a5.32,5.32,0,0,1-.77-.22c-.54-.25-1.09-.52-1.62-.8-.33-.18-.62-.43-.94-.62a6.19,6.19,0,0,1-1.32-.8,12.22,12.22,0,0,1-1.91-2.25,20.57,20.57,0,0,0-1.87-2.42.37.37,0,0,0-.34,0,.92.92,0,0,0-.38,1.06c.31,1.15.5,2.32.74,3.48a1.92,1.92,0,0,0,.22.78,11.21,11.21,0,0,0,1.3,1.37,5.75,5.75,0,0,0,1.15.69,7.13,7.13,0,0,0,1.31.55,5.42,5.42,0,0,0,1.27.13A4.25,4.25,0,0,0,54.34,111.33ZM42.21,102l.1,0v.62a1.24,1.24,0,0,0,.57.94c.22.19.43,0,.64-.08a.2.2,0,0,1,.11,0,.59.59,0,0,0,.63-.47,9.55,9.55,0,0,0,.21-1.09c0-.12,0-.35.06-.36.39-.12.41-.46.49-.75.15-.5.27-1,.4-1.52s.33-.72.24-1.14c0,0,.06-.08.07-.13a10.83,10.83,0,0,0,.43-1.55c.09-.65.05-1.31.09-2a1.23,1.23,0,0,0-.4-1.26c-.05,0,0-.17-.06-.25s-.15-.3-.22-.46c-.12.13-.29.23-.35.37-.37.88-.74,1.76-1.08,2.65s-.68,1.8-1,2.72c-.23.71-.38,1.44-.57,2.17Zm25.87,5.75a14.6,14.6,0,0,0-1.88.19c-.53.12-1,.43-1.54.59a8.13,8.13,0,0,0-2.53,1.35,5.3,5.3,0,0,1-.7.4c-.23.13-.47.26-.71.37-.5.23-1,.47-1.5.69a4.23,4.23,0,0,1-1.09.4c-.71.07-.32.6-.44.9,0,0,0,.06,0,.08-.09.24,0,.34.24.37a5.74,5.74,0,0,0,3.54-.43l2.12-1a18.84,18.84,0,0,0,1.81-.87c.39-.24,1-.21,1.15-.8.09-.26.43-.43.63-.66a9.28,9.28,0,0,1,.75-.89A.6.6,0,0,0,68.08,107.79Zm-15-28.26a1.36,1.36,0,0,0-.38-.08,5.91,5.91,0,0,0-3.06.8,24.44,24.44,0,0,0-2.35,1.81A12.36,12.36,0,0,0,46,83.39c-.57.67-1.12,1.37-1.67,2.06a1.48,1.48,0,0,0-.12.45,4.14,4.14,0,0,0,.61,0c.09,0,.17-.15.25-.23a3.16,3.16,0,0,1,.42-.4A19.53,19.53,0,0,1,47.58,84c.87-.4,1.8-.69,2.71-1a1.92,1.92,0,0,0,.87-.95c.08-.42.05-.88.43-1.21Zm-.28,2.93h.32c.5,0,1-.09,1.5-.1s1.06.08,1.58,0a.68.68,0,0,1,.67.26c.18.2.36.4.53.61s.47.22.75,0a4.12,4.12,0,0,1,1-.47c.56-.15,1.13-.23,1.71-.33.33,0,.47-.21.33-.53a2.39,2.39,0,0,0-.29-.44,3.12,3.12,0,0,0-2.06-1.32,5.93,5.93,0,0,0-1.38.14,10.54,10.54,0,0,0-3.43,1A2.65,2.65,0,0,0,52.78,82.46Zm17.61,24.16a6,6,0,0,0,1-.4.54.54,0,0,0,.17-.47c-.1-.54,0-.73.56-.87a.5.5,0,0,0,.25-.15c.28-.31.55-.62.81-.94.13-.15.35-.39.31-.5-.15-.4.1-.64.22-1a.39.39,0,0,0-.32-.52A14.05,14.05,0,0,1,72,101.5c-.41-.12-.61-.06-.77.36s-.19.61-.29.92a5.37,5.37,0,0,1-.27.8c-.33.69-.69,1.36-1,2a.4.4,0,0,0,0,.34,3.7,3.7,0,0,0,.48.49A1.61,1.61,0,0,0,70.39,106.62Z"/><path class="cls-8" d="M57.2,86.92A7.76,7.76,0,0,0,57.9,88a5.82,5.82,0,0,0,1.27,1.11,14.2,14.2,0,0,0,3.94,1.7,5.56,5.56,0,0,0,3.37-.17c.28-.11.47,0,.46.3a4.05,4.05,0,0,1-.16.77c0,.06-.06.13,0,.18a24.34,24.34,0,0,0,.38,2.68,21.23,21.23,0,0,0,.92,2.9,10.94,10.94,0,0,0,1,1.83,13.06,13.06,0,0,0,1,1.29.58.58,0,0,1,0,.8,2.68,2.68,0,0,0-.22.58s0,.11,0,.14a7.74,7.74,0,0,0-1.06,2.34,3.46,3.46,0,0,1-.43.67,3.42,3.42,0,0,0-.41.68.39.39,0,0,1-.42.31,4.47,4.47,0,0,0-2.35.48,9.15,9.15,0,0,1-1.15.39c-.61.26-1.21.53-1.8.83a2,2,0,0,0-.47.44c-.69.63-1.66.7-2.42,1.18-.31.2-.61.41-.93.6a1.07,1.07,0,0,1-.32.08c-.34.06-.68.12-1,.16-.12,0-.3,0-.35-.1a3.13,3.13,0,0,0-1.77-1,9.33,9.33,0,0,1-1.1-.54c-.76-.41-1.53-.8-2.27-1.25a5.57,5.57,0,0,1-1.19-.92c-.82-.9-1.62-1.83-2.36-2.79a7.81,7.81,0,0,1-1.13-1.93,2.54,2.54,0,0,1,.14-1.34,7.79,7.79,0,0,1,.57-1.55,5.93,5.93,0,0,0,.31-3.06c0-.45-.1-.89-.12-1.34,0-.12.16-.24.16-.35a4.14,4.14,0,0,0-.1-1c-.14-.52,0-.65.5-.78.88-.24,1.74-.55,2.61-.84A8.18,8.18,0,0,0,53,90c.78-.59,1.53-1.22,2.32-1.81C55.93,87.79,56.53,87.39,57.2,86.92Zm7.27,11.29a3.11,3.11,0,0,0-.75.14A2.62,2.62,0,0,0,62.2,100a24.71,24.71,0,0,0-.55,2.72,1.77,1.77,0,0,0,.72,1.62,2.5,2.5,0,0,0,2.66.54.54.54,0,0,1,.31,0c.61.14.92,0,1.21-.5s.58-1.21.84-1.82c.57-1.38.63-2.13-.42-3.14A3.93,3.93,0,0,0,64.47,98.21Zm-2.62-3.73c.07-1.4-.82-2.16-1.77-2.87a.49.49,0,0,0-.21-.08c-.41,0-.83-.1-1.24-.13a.93.93,0,0,0-.88.46c-.2.28-.42.55-.64.82s-.67.78-1,1.2a1.73,1.73,0,0,0,.59,2.47,3.26,3.26,0,0,1,1,.63,3.33,3.33,0,0,0,1.79.83.6.6,0,0,0,.44,0A3.48,3.48,0,0,0,61.85,94.48Zm-5.34,12.87a1,1,0,0,0,1.1-.46.92.92,0,0,1,.57-.48,1.66,1.66,0,0,0,.47-.26,2.57,2.57,0,0,0,.87-1.29,2.12,2.12,0,0,0-.42-2.44,10.77,10.77,0,0,0-1-.93c-.37-.28-.76-.64-1.3-.38A3.86,3.86,0,0,0,55,103a6.83,6.83,0,0,0-.48,1.73,1.69,1.69,0,0,0,.1,1,7.21,7.21,0,0,0,.77,1.15A1.16,1.16,0,0,0,56.51,107.35ZM51,97.8a3.24,3.24,0,0,0-1.47.6,1,1,0,0,0-.46.57,6.1,6.1,0,0,0-.05,1.48,3.13,3.13,0,0,0,1.09,1.91c.25.26.42.6.66.87a2.86,2.86,0,0,0,.55.42c.09.06.22.08.3.16a.4.4,0,0,0,.59,0A4.4,4.4,0,0,0,54,100.69a1.76,1.76,0,0,0-.12-1.1A3.61,3.61,0,0,0,51,97.8Z"/><path class="cls-9" d="M71.68,108.56l-.13.4.44,0c.46,0,.65.24.54.7s-.16.87-.28,1.29c0,.19-.22.33-.29.51a6.34,6.34,0,0,1-1.53,2.34,11.57,11.57,0,0,1-1.45,1,5.56,5.56,0,0,1-1.17.64,18.21,18.21,0,0,1-2.16.6,11.49,11.49,0,0,1-5.79-.31,5.66,5.66,0,0,1-1.3-.82l0-.14a1,1,0,0,1,.34,0,4.86,4.86,0,0,0,2.77-.33c1.09-.47,2.16-1,3.24-1.47.29-.14.58-.28.88-.4a9,9,0,0,0,2.86-2.27,1.41,1.41,0,0,0,.3-.46c.31-.64,1-.78,1.5-1.18l.23-.14C71.21,108.17,71.21,108.17,71.68,108.56Z"/><path class="cls-9" d="M63,81.18c.05,0,.11-.07.14-.06.64.24,1.25-.06,1.88-.09a11.11,11.11,0,0,1,4.17.47,5.26,5.26,0,0,1,1.92,1,6.28,6.28,0,0,0,1.09.58,5,5,0,0,1,2.34,3.1,4.49,4.49,0,0,1,0,1.51c0,.82-.16,1.64-.25,2.46,0,.28-.23.36-.43.16s-.41-.54-.64-.78c-.68-.71-1.34-1.44-2.08-2.09a7.68,7.68,0,0,0-1.44-.79c-.17-.1-.41-.2-.46-.35A9.61,9.61,0,0,0,67.89,84a3.39,3.39,0,0,0-2.59-1.35,7,7,0,0,0-.92-.09c-.47,0-.65-.38-.89-.66S63.16,81.44,63,81.18Z"/><path class="cls-10" d="M73.24,99.66c-.33-.09-.63-.2-.93-.25-.62-.11-.86-.57-1.15-1.06a13.64,13.64,0,0,1-1.08-2.29c-.47-1.29-.94-2.57-1.38-3.87a2,2,0,0,1-.08-1c.14-.68.34-1.35.54-2,0-.15.2-.36.32-.38a.79.79,0,0,1,.48.24c.62.6,1.26,1.19,1.84,1.83s1,1.23,1.44,1.86c.12.15.18.34.3.49a6.09,6.09,0,0,1,.87,2.48,4.27,4.27,0,0,1-.4,3.13,3.43,3.43,0,0,1-.46.62C73.47,99.57,73.33,99.6,73.24,99.66Z"/><path class="cls-10" d="M46.67,87.79c0-.11,0-.18,0-.24a.86.86,0,0,1,.54-.9c.54-.24,1-.6,1.55-.89a6.52,6.52,0,0,1,.94-.41c.08,0,.23.09.31.18.33.3.6.28.86-.09a1.49,1.49,0,0,1,1-.72c.52-.07,1-.29,1.52-.39a2.84,2.84,0,0,1,.92,0c.68.12.74.28.6,1a4.06,4.06,0,0,1-1.36,2.07,10.49,10.49,0,0,1-1.47,1.11c-.61.39-1.25.7-1.88,1.06a10.45,10.45,0,0,1-3.36,1,3,3,0,0,1-1.06-.16,1.79,1.79,0,0,1-.42-.2,1,1,0,0,1-.37-1.7,1.3,1.3,0,0,0,.15-.18A1.13,1.13,0,0,1,46.67,87.79Z"/><path class="cls-8" d="M78.53,95c0,1.29,0,2.47,0,3.64a7.07,7.07,0,0,1-1.13,3.69,32.7,32.7,0,0,1-2.82,3.5,2.88,2.88,0,0,1-.68.51c-.23.13-.38,0-.31-.22a7.13,7.13,0,0,1,.41-1c0-.11.16-.18.2-.28a7.33,7.33,0,0,0,.88-3.24A4.93,4.93,0,0,1,75.74,99a6.23,6.23,0,0,0,.28-1l.24-1A3.94,3.94,0,0,0,76,95.22c-.14-.53-.26-1.06-.43-1.59-.11-.37-.31-.73-.41-1.11a1.2,1.2,0,0,1,0-.62,4.56,4.56,0,0,1,.33-.56c.14-.29.34-.3.57-.15A4.33,4.33,0,0,1,78,93,16,16,0,0,1,78.53,95Z"/><path class="cls-9" d="M40.92,98.81a5.68,5.68,0,0,0-.24.77c-.1.64-.18,1.29-.23,1.94s-.1,1.42-.1,2.13a2.2,2.2,0,0,0,1.54,2.1A5.27,5.27,0,0,0,43,106a.69.69,0,0,1,.67.67l.33,2.41a.56.56,0,0,0,.07.26c.15.21,0,.29-.16.32-.49.1-1,.18-1.48.25a3.55,3.55,0,0,1-2.12-.63,4.86,4.86,0,0,1-2.24-2.68A2,2,0,0,1,38,106a9.86,9.86,0,0,1,.37-3.42,9.18,9.18,0,0,1,.76-1.73A5.65,5.65,0,0,1,40.28,99a4.4,4.4,0,0,1,.52-.3Z"/><path class="cls-10" d="M66.68,87.66l.43.29a5.87,5.87,0,0,1-.73.76,2.09,2.09,0,0,1-.76.21,4.78,4.78,0,0,1-2.77-.37,28.58,28.58,0,0,1-2.76-1.4A7.11,7.11,0,0,1,58.77,86,.68.68,0,0,1,59,84.86a7.36,7.36,0,0,1,1.65-.4,11.94,11.94,0,0,1,2.67,0,8.36,8.36,0,0,1,3,.84c.34.19.72.34,1,.56s.39.64.12,1.06A2.55,2.55,0,0,1,66.68,87.66Z"/><path class="cls-8" d="M51.16,117.06c-.58-.16-1.2-.31-1.8-.51s-1.2-.46-1.8-.7a3.22,3.22,0,0,1-.39-.25c-.25-.17-.53-.32-.77-.51a2.86,2.86,0,0,1-.69-.7c-.44-.77-.83-1.57-1.23-2.36-.1-.2-.27-.42,0-.62a.67.67,0,0,1,.8.1,17,17,0,0,0,2.27,1.87,6.68,6.68,0,0,0,4.39.92,15.28,15.28,0,0,0,2-.48,14.12,14.12,0,0,1,1.95-.3c.36,0,.41.41.42.62A2,2,0,0,1,55,116c-.49.09-.94.38-1.42.51C52.78,116.7,52,116.86,51.16,117.06Z"/><path class="cls-8" d="M43.59,87.45a7,7,0,0,0-.32.8,8,8,0,0,0-.16.85,2.35,2.35,0,0,1-.06.54,2.28,2.28,0,0,0,.09,1.74,4.32,4.32,0,0,0,.36.58l.15-.09a1.21,1.21,0,0,0-.3.2c-.12.11-.28.25-.29.38a5.43,5.43,0,0,1-.79,2.14,15.26,15.26,0,0,0-.66,1.62c-.14.41-.26.52-.72.48a.46.46,0,0,0-.25.08,1,1,0,0,1-1.45-.59,5,5,0,0,1-.18-2.4,12.19,12.19,0,0,1,.16-1.61A6.76,6.76,0,0,1,41,88.71a5.9,5.9,0,0,1,2.47-1.34Z"/><path class="cls-10" d="M54.34,111.33a4.25,4.25,0,0,1-3.16.93,5.42,5.42,0,0,1-1.27-.13,7.13,7.13,0,0,1-1.31-.55,5.75,5.75,0,0,1-1.15-.69,11.21,11.21,0,0,1-1.3-1.37,1.92,1.92,0,0,1-.22-.78c-.24-1.16-.43-2.33-.74-3.48a.92.92,0,0,1,.38-1.06.37.37,0,0,1,.34,0,20.57,20.57,0,0,1,1.87,2.42,12.22,12.22,0,0,0,1.91,2.25,6.19,6.19,0,0,0,1.32.8c.32.19.61.44.94.62.53.28,1.08.55,1.62.8A5.32,5.32,0,0,0,54.34,111.33Z"/><path class="cls-9" d="M42.21,102l.39-1.55c.19-.73.34-1.46.57-2.17.29-.92.63-1.82,1-2.72s.71-1.77,1.08-2.65c.06-.14.23-.24.35-.37.07.16.15.31.22.46s0,.21.06.25a1.23,1.23,0,0,1,.4,1.26c0,.66,0,1.32-.09,2a10.83,10.83,0,0,1-.43,1.55c0,.05-.08.09-.07.13.09.42-.15.76-.24,1.14s-.25,1-.4,1.52c-.08.29-.1.63-.49.75-.05,0,0,.24-.06.36a9.55,9.55,0,0,1-.21,1.09.59.59,0,0,1-.63.47.2.2,0,0,0-.11,0c-.21.11-.42.27-.64.08a1.24,1.24,0,0,1-.57-.94v-.62Z"/><path class="cls-8" d="M68.08,107.79a.6.6,0,0,1-.17.68,9.28,9.28,0,0,0-.75.89c-.2.23-.54.4-.63.66-.19.59-.76.56-1.15.8a18.84,18.84,0,0,1-1.81.87l-2.12,1a5.74,5.74,0,0,1-3.54.43c-.2,0-.33-.13-.24-.37,0,0,0-.05,0-.08.12-.3-.27-.83.44-.9a4.23,4.23,0,0,0,1.09-.4c.5-.22,1-.46,1.5-.69.24-.11.48-.24.71-.37a5.3,5.3,0,0,0,.7-.4,8.13,8.13,0,0,1,2.53-1.35c.52-.16,1-.47,1.54-.59A14.6,14.6,0,0,1,68.08,107.79Z"/><path class="cls-8" d="M53.06,79.53l-1.47,1.3c-.38.33-.35.79-.43,1.21a1.92,1.92,0,0,1-.87.95c-.91.32-1.84.61-2.71,1a19.53,19.53,0,0,0-2.1,1.27,3.16,3.16,0,0,0-.42.4c-.08.08-.16.21-.25.23a4.14,4.14,0,0,1-.61,0,1.48,1.48,0,0,1,.12-.45c.55-.69,1.1-1.39,1.67-2.06a12.36,12.36,0,0,1,1.28-1.33,24.44,24.44,0,0,1,2.35-1.81,5.91,5.91,0,0,1,3.06-.8A1.36,1.36,0,0,1,53.06,79.53Z"/><path class="cls-8" d="M52.78,82.46a2.65,2.65,0,0,1,1.28-1.09,10.54,10.54,0,0,1,3.43-1,5.93,5.93,0,0,1,1.38-.14,3.12,3.12,0,0,1,2.06,1.32,2.39,2.39,0,0,1,.29.44c.14.32,0,.48-.33.53-.58.1-1.15.18-1.71.33a4.12,4.12,0,0,0-1,.47c-.28.17-.51.22-.75,0s-.35-.41-.53-.61a.68.68,0,0,0-.67-.26c-.52.06-1,0-1.58,0s-1,.07-1.5.1Z"/><path class="cls-8" d="M70.39,106.62a1.61,1.61,0,0,1-.28-.17,3.7,3.7,0,0,1-.48-.49.4.4,0,0,1,0-.34c.32-.68.68-1.35,1-2a5.37,5.37,0,0,0,.27-.8c.1-.31.18-.62.29-.92s.36-.48.77-.36a14.05,14.05,0,0,0,1.43.32.39.39,0,0,1,.32.52c-.12.31-.37.55-.22,1,0,.11-.18.35-.31.5-.26.32-.53.63-.81.94a.5.5,0,0,1-.25.15c-.55.14-.66.33-.56.87a.54.54,0,0,1-.17.47A6,6,0,0,1,70.39,106.62Z"/><path class="cls-11" d="M64.47,98.21A3.93,3.93,0,0,1,67,99.42c1,1,1,1.76.42,3.14-.26.61-.53,1.22-.84,1.82s-.6.64-1.21.5a.54.54,0,0,0-.31,0,2.5,2.5,0,0,1-2.66-.54,1.77,1.77,0,0,1-.72-1.62A24.71,24.71,0,0,1,62.2,100a2.62,2.62,0,0,1,1.52-1.67A3.11,3.11,0,0,1,64.47,98.21Zm-1.28,4.26c0,.62.15.76.77.68a2.63,2.63,0,0,0,.3-.08,3.78,3.78,0,0,1,.8-.12.46.46,0,0,0,.49-.29c.16-.38.36-.75.48-1.14a.93.93,0,0,0,0-.7,1.74,1.74,0,0,0-1.79-.36A2.39,2.39,0,0,0,63.19,102.47Z"/><path class="cls-11" d="M61.85,94.48A3.48,3.48,0,0,1,60,97.76a.6.6,0,0,1-.44,0A3.33,3.33,0,0,1,57.74,97a3.26,3.26,0,0,0-1-.63,1.73,1.73,0,0,1-.59-2.47c.3-.42.65-.8,1-1.2s.44-.54.64-.82a.93.93,0,0,1,.88-.46c.41,0,.83.08,1.24.13a.49.49,0,0,1,.21.08C61,92.32,61.92,93.08,61.85,94.48Zm-2.56-1.15c-.33-.08-.56.14-.77.43a7.91,7.91,0,0,1-.52.63c-.45.49-.46.74,0,1.15.32.26.7.55,1.13.37a1.66,1.66,0,0,0,1.07-1.76C60.18,93.51,59.94,93.31,59.29,93.33Z"/><path class="cls-11" d="M56.51,107.35a1.16,1.16,0,0,1-1.13-.48,7.21,7.21,0,0,1-.77-1.15,1.69,1.69,0,0,1-.1-1A6.83,6.83,0,0,1,55,103a3.86,3.86,0,0,1,1.83-1.91c.54-.26.93.1,1.3.38a10.77,10.77,0,0,1,1,.93,2.12,2.12,0,0,1,.42,2.44,2.57,2.57,0,0,1-.87,1.29,1.66,1.66,0,0,1-.47.26.92.92,0,0,0-.57.48A1,1,0,0,1,56.51,107.35ZM58,103.77l.13-.12a2.8,2.8,0,0,0-.52-.32c-.13,0-.39-.06-.45,0a16.3,16.3,0,0,0-1,1.45.35.35,0,0,0,.06.34c.07.06.24,0,.35,0a3.24,3.24,0,0,0,.6-.27A1.57,1.57,0,0,0,58,103.77Z"/><path class="cls-11" d="M51,97.8a3.61,3.61,0,0,1,2.88,1.79,1.76,1.76,0,0,1,.12,1.1,4.4,4.4,0,0,1-1.79,3.12.4.4,0,0,1-.59,0c-.08-.08-.21-.1-.3-.16a2.86,2.86,0,0,1-.55-.42c-.24-.27-.41-.61-.66-.87A3.13,3.13,0,0,1,49,100.45,6.1,6.1,0,0,1,49.06,99a1,1,0,0,1,.46-.57A3.24,3.24,0,0,1,51,97.8Zm.53,2a5,5,0,0,0-.66.18.6.6,0,0,0-.21,1c.2.23.42.43.61.66s.35.19.48,0a4,4,0,0,0,.44-.81C52.4,100.23,52.17,99.9,51.52,99.83Z"/><path class="cls-12" d="M63.19,102.47a2.39,2.39,0,0,1,1-2,1.74,1.74,0,0,1,1.79.36.93.93,0,0,1,0,.7c-.12.39-.32.76-.48,1.14a.46.46,0,0,1-.49.29,3.78,3.78,0,0,0-.8.12,2.63,2.63,0,0,1-.3.08C63.34,103.23,63.18,103.09,63.19,102.47Z"/><path class="cls-12" d="M59.29,93.33c.65,0,.89.18,1,.82a1.66,1.66,0,0,1-1.07,1.76c-.43.18-.81-.11-1.13-.37-.51-.41-.5-.66,0-1.15a7.91,7.91,0,0,0,.52-.63C58.73,93.47,59,93.25,59.29,93.33Z"/><path class="cls-12" d="M58,103.77a1.57,1.57,0,0,1-.84,1.1,3.24,3.24,0,0,1-.6.27c-.11,0-.28.06-.35,0a.35.35,0,0,1-.06-.34,16.3,16.3,0,0,1,1-1.45c.06-.08.32-.07.45,0a2.8,2.8,0,0,1,.52.32Z"/><path class="cls-12" d="M51.52,99.83c.65.07.88.4.66,1a4,4,0,0,1-.44.81c-.13.2-.31.21-.48,0s-.41-.43-.61-.66a.6.6,0,0,1,.21-1A5,5,0,0,1,51.52,99.83Z"/><path class="cls-6" d="M104.39,79.39a12.72,12.72,0,0,0-.57-2.07,8.34,8.34,0,0,1-.31-5.44c.15-.8.39-1.59.59-2.38a4.91,4.91,0,0,1,.15-.51c.47-1.28,1-1.43,2-.5.81.78,1.57,1.62,2.39,2.47.1-.08.26-.15.3-.26a23,23,0,0,0,1.38-4.28A9.42,9.42,0,0,1,116,76c0,.53,0,1.06-.1,1.59-.07.84.2,1.09,1,1,1.09-.14,2.18-.29,3.27-.41a8.37,8.37,0,0,1,6,1.81.82.82,0,0,1,.18,1.37A12.69,12.69,0,0,1,125,82.51c-.54.49-.53.48-.12,1.12a1.31,1.31,0,0,1,.21.76c-.35,2.18-1.32,3.87-3.55,4.63-.76.26-1.49.64-2.35,1a6.11,6.11,0,0,0,.6.9c1.28,1.35,1.41,3.07,1.48,4.77a23.23,23.23,0,0,1-.27,2.86,6.44,6.44,0,0,1-.89,2.47c-.37.68-.85,1-1.75.39a11.13,11.13,0,0,1-1-.86,4.19,4.19,0,0,0-.62-.33c-.07.32-.13.54-.16.77-.1.79-.67,1.12-1.34.66a9.73,9.73,0,0,1-3.66-3.79,5.57,5.57,0,0,0-.44-.72,11.89,11.89,0,0,1-1.62,1.63,16.48,16.48,0,0,1-2.63,1.39,9.32,9.32,0,0,1-4,1,3.91,3.91,0,0,1-.84,0,1.45,1.45,0,0,1-1.08-2c0-.1.11-.18.15-.28.29-.72.12-1-.63-1a4.42,4.42,0,0,1-.63,0c-1.21-.17-1.53-.68-1.11-1.84.25-.66.6-1.28.85-2a12.34,12.34,0,0,1,2-3.39,1.84,1.84,0,0,0,.13-.44,4.49,4.49,0,0,0-1-.19c-1.32,0-2.63.15-3.94.2a4.13,4.13,0,0,1-1.27-.12,1.19,1.19,0,0,1-.78-2A18.15,18.15,0,0,1,96,86.71c-.22-.57-.8-.67-1.24-.93-.92-.54-1-.73-.59-1.69,0-.13.1-.26.14-.4.51-2,2-3,3.78-3.71A15.89,15.89,0,0,1,104.39,79.39Zm7-10.32A7.78,7.78,0,0,0,110.1,72a2,2,0,0,0,.25,1.71.65.65,0,0,1-.24.94,1.4,1.4,0,0,1-1,.09,2,2,0,0,1-.7-.77c-.49-.74-.94-1.51-1.43-2.26a5.35,5.35,0,0,0-.66-.83c-.6-.62-.94-.55-1.21.23-.11.33-.15.68-.28,1a8.15,8.15,0,0,0,0,5.45c.37,1.11.82,2.2,1.27,3.29.16.39.46.72.64,1.1.08.16,0,.52,0,.55a1.09,1.09,0,0,1-.67,0c-.1,0-.18-.21-.24-.34a2,2,0,0,0-1.74-1.06,14.34,14.34,0,0,0-5,.43,5.06,5.06,0,0,0-3,1.92c-.55.73-.49,1,.37,1.46.41.2.87.32,1.28.53a.85.85,0,0,1,.41,1.31c-.22.44-.49.86-.81,1.41.35.15.65.39,1,.38,1,0,2-.15,3-.28s2.16-.4,3.25-.53a2.42,2.42,0,0,1,1.23.26c.55.28.6.75.17,1.23a5.45,5.45,0,0,1-.74.61A11.66,11.66,0,0,0,101,95.18c-.31.87-.17,1.06.79,1a6.9,6.9,0,0,1,1.28-.06c.94.11,1.17.62.73,1.46-.29.54-.53,1.12-.89,1.89a6.73,6.73,0,0,0,1.56-.23,25,25,0,0,0,3.46-1.65,5,5,0,0,0,2.8-4.76c0-.43,0-.85,0-1.28s.16-.73.59-.77a.87.87,0,0,1,.92.59,2.73,2.73,0,0,1,.14.63c.12,1.17.28,2.34.32,3.51a5.62,5.62,0,0,0,2,3.75c.12.11.38.09.62.14a5.07,5.07,0,0,0,.19-.67c.06-.49.07-1,.67-1.21s1,.24,1.38.62c.18.17.29.41.45.59s.43.44.63.64c.65-.27.73-.79.84-1.26A10.63,10.63,0,0,0,119.6,94,4.53,4.53,0,0,0,118,91c-.74-.6-1.52-1.16-2.27-1.75a1,1,0,0,1-.4-1.4c.33-.51.78-.37,1.24-.2a6,6,0,0,0,1,.33,2.89,2.89,0,0,0,1.27,0,7.84,7.84,0,0,0,3.21-1.6,2.59,2.59,0,0,0,1-1.55c-1.19-.59-1.19-.59-1.18-1.6.88-.92,2.19-1.42,2.88-2.81a13,13,0,0,0-1.32-.55,11.29,11.29,0,0,0-5.39,0,24.9,24.9,0,0,1-2.84.41c-.94.09-1.4-.38-1.41-1.31a4.81,4.81,0,0,1,.07-.53c.09-1,.22-2,.27-3a8.13,8.13,0,0,0-.92-4.64A4.28,4.28,0,0,0,111.35,69.07Z"/><path class="cls-13" d="M111.35,69.07a4.28,4.28,0,0,1,1.79,1.79,8.13,8.13,0,0,1,.92,4.64c0,1-.18,2-.27,3a4.81,4.81,0,0,0-.07.53c0,.93.47,1.4,1.41,1.31a24.9,24.9,0,0,0,2.84-.41,11.29,11.29,0,0,1,5.39,0,13,13,0,0,1,1.32.55c-.69,1.39-2,1.89-2.88,2.81,0,1,0,1,1.18,1.6a2.59,2.59,0,0,1-1,1.55A7.84,7.84,0,0,1,118.8,88a2.89,2.89,0,0,1-1.27,0,6,6,0,0,1-1-.33c-.46-.17-.91-.31-1.24.2a1,1,0,0,0,.4,1.4c.75.59,1.53,1.15,2.27,1.75a4.53,4.53,0,0,1,1.65,3,10.63,10.63,0,0,1-.11,4.13c-.11.47-.19,1-.84,1.26-.2-.2-.42-.41-.63-.64s-.27-.42-.45-.59c-.38-.38-.76-.81-1.38-.62s-.61.72-.67,1.21a5.07,5.07,0,0,1-.19.67c-.24,0-.5,0-.62-.14a5.62,5.62,0,0,1-2-3.75c0-1.17-.2-2.34-.32-3.51a2.73,2.73,0,0,0-.14-.63.87.87,0,0,0-.92-.59c-.43,0-.58.38-.59.77s0,.85,0,1.28a5,5,0,0,1-2.8,4.76,25,25,0,0,1-3.46,1.65,6.73,6.73,0,0,1-1.56.23c.36-.77.6-1.35.89-1.89.44-.84.21-1.35-.73-1.46a6.9,6.9,0,0,0-1.28.06c-1,.08-1.1-.11-.79-1a11.66,11.66,0,0,1,4.18-5.39,5.45,5.45,0,0,0,.74-.61c.43-.48.38-1-.17-1.23a2.42,2.42,0,0,0-1.23-.26c-1.09.13-2.16.38-3.25.53s-2,.24-3,.28c-.3,0-.6-.23-1-.38.32-.55.59-1,.81-1.41a.85.85,0,0,0-.41-1.31c-.41-.21-.87-.33-1.28-.53-.86-.41-.92-.73-.37-1.46a5.06,5.06,0,0,1,3-1.92,14.34,14.34,0,0,1,5-.43,2,2,0,0,1,1.74,1.06c.06.13.14.31.24.34a1.09,1.09,0,0,0,.67,0c.07,0,.1-.39,0-.55-.18-.38-.48-.71-.64-1.1-.45-1.09-.9-2.18-1.27-3.29a8.15,8.15,0,0,1,0-5.45c.13-.33.17-.68.28-1,.27-.78.61-.85,1.21-.23a5.35,5.35,0,0,1,.66.83c.49.75.94,1.52,1.43,2.26a2,2,0,0,0,.7.77,1.4,1.4,0,0,0,1-.09.65.65,0,0,0,.24-.94A2,2,0,0,1,110.1,72,7.78,7.78,0,0,1,111.35,69.07Zm-2.21,14.42a1,1,0,0,0-1-1c-.34,0-.62.13-.61.57s.44,1,.95.91C108.77,83.92,109,83.61,109.14,83.49ZM112,86.25a.83.83,0,0,0-.85-.81.58.58,0,0,0-.54.66.68.68,0,0,0,.81.63C111.71,86.65,111.89,86.37,112,86.25Zm0-3.86a1.91,1.91,0,0,0-.23.59.56.56,0,0,0,.68.62c.34,0,.61-.21.59-.6A.89.89,0,0,0,112,82.39Zm-1.8,4.48a4.17,4.17,0,0,0-1-.48c-.34,0-.47.23-.43.55s.3.7.69.63C109.68,87.53,109.86,87.21,110.21,86.87Z"/><ellipse class="cls-14" cx="110.88" cy="85.01" rx="4.52" ry="4.5" transform="translate(-5.26 7.34) rotate(-3.7)"/><path class="cls-15" d="M109.9,85.19c-.15.13-.37.44-.65.5-.51.12-.93-.35-1-.9s.27-.55.61-.58A1,1,0,0,1,109.9,85.19Z"/><path class="cls-15" d="M112,86.25c-.14.12-.32.4-.58.48a.68.68,0,0,1-.81-.63.58.58,0,0,1,.54-.66A.83.83,0,0,1,112,86.25Z"/><path class="cls-15" d="M113.69,85.07c-.14.12-.33.39-.58.48a.68.68,0,0,1-.81-.63.56.56,0,0,1,.54-.66A.83.83,0,0,1,113.69,85.07Z"/><path class="cls-15" d="M111.57,83.61c0,.4-.32,1-.65,1s-.71-.14-.62-1.05S111.27,82.75,111.57,83.61Z"/><path class="cls-15" d="M110.21,86.87c.39.74-.53.66-.76.7-.39.07-.63-.23-.69-.63A.75.75,0,0,1,110.21,86.87Z"/><path class="cls-6" d="M145.37,82.86c.94.09,1.69.13,2.42.23a7.19,7.19,0,0,1,2.25.64,17.22,17.22,0,0,1-2,3.78A5.7,5.7,0,0,1,146.35,89c-.78.45-1.52,1-2.33,1.4a8.91,8.91,0,0,1-5.55.73c-.6-.11-1.22-.2-1.83-.27a.88.88,0,0,0-.51.08,1.36,1.36,0,0,1-1,0l-3.44-.86c.29-.8.29-1.68.51-2.51a6.85,6.85,0,0,1,2-3.35c1.12-1,2.13-2.21,3.19-3.31a7.85,7.85,0,0,1,2.14-1.34,10.36,10.36,0,0,1,5.8-1,9.67,9.67,0,0,1,1.68.36.63.63,0,0,1,.28,1.15,12,12,0,0,0-1.57,2.19A5.17,5.17,0,0,0,145.37,82.86Zm.42-2.82c-.35-.07-.56-.12-.77-.15a9.54,9.54,0,0,0-3,.12,7.76,7.76,0,0,0-2.75,1c-1.38.86-2.28,2.19-3.46,3.25-.56.51-.82,1.32-1.59,1.63a.1.1,0,0,0,0,0,4.58,4.58,0,0,0-1,3.37c.79.18,1.58.41,2.38.52,1.36.18,2.72.28,4.08.43A6.35,6.35,0,0,0,142.3,90a14.22,14.22,0,0,0,3.77-2,4.37,4.37,0,0,0,1.14-1.17c.47-.72.9-1.47,1.33-2.21a12.51,12.51,0,0,0-3.81-.33,2.27,2.27,0,0,1-.78,0,.61.61,0,0,1-.29-1C144.35,82.18,145,81.17,145.79,80Z"/><path class="cls-13" d="M145.79,80c-.77,1.13-1.44,2.14-2.13,3.13a.61.61,0,0,0,.29,1,2.27,2.27,0,0,0,.78,0,12.51,12.51,0,0,1,3.81.33c-.43.74-.86,1.49-1.33,2.21a4.37,4.37,0,0,1-1.14,1.17,14.22,14.22,0,0,1-3.77,2,6.35,6.35,0,0,1-2.67.33c-1.36-.15-2.72-.25-4.08-.43-.8-.11-1.59-.34-2.38-.52a4.58,4.58,0,0,1,1-3.37.1.1,0,0,1,0,0c.77-.31,1-1.12,1.59-1.63,1.18-1.06,2.08-2.39,3.46-3.25a7.76,7.76,0,0,1,2.75-1,9.54,9.54,0,0,1,3-.12C145.23,79.92,145.44,80,145.79,80Z"/><path class="cls-6" d="M86.32,114.46a12.26,12.26,0,0,0-1.6,1.43A8.42,8.42,0,0,1,80,118.56c-.79.22-1.6.35-2.4.52a4.71,4.71,0,0,1-.52.09c-1.36.14-1.73-.28-1.32-1.57.34-1.07.75-2.12,1.15-3.23-.11-.05-.24-.17-.36-.16a23.08,23.08,0,0,0-4.45.65,9.43,9.43,0,0,1,6.07-9.28c.48-.21,1-.42,1.47-.61.78-.3.89-.65.42-1.36-.61-.91-1.23-1.82-1.82-2.76a8.38,8.38,0,0,1-1-6.15c.12-.66.48-.93,1.15-.76a13.11,13.11,0,0,1,1.68.63c.68.28.67.26,1.06-.38a1.24,1.24,0,0,1,.59-.52,5.26,5.26,0,0,1,5.72,1.14c.56.57,1.22,1,1.95,1.66a5.86,5.86,0,0,0,.54-.94c.65-1.74,2.14-2.62,3.63-3.43a24.06,24.06,0,0,1,2.69-1,6.22,6.22,0,0,1,2.61-.28c.77,0,1.24.33,1.12,1.4a11.34,11.34,0,0,1-.35,1.23,3,3,0,0,0,0,.7c.31-.08.54-.12.76-.19.76-.26,1.3.11,1.19.91a9.8,9.8,0,0,1-1.8,5,6.11,6.11,0,0,0-.44.71,11.5,11.5,0,0,1,2.17.74,15.13,15.13,0,0,1,2.4,1.74,9.29,9.29,0,0,1,2.7,3.11,3.72,3.72,0,0,1,.33.77,1.44,1.44,0,0,1-1.28,1.84c-.11,0-.21,0-.32,0-.77.05-.94.33-.62,1a6,6,0,0,1,.26.58c.38,1.16.06,1.67-1.16,1.8-.7.08-1.42,0-2.12.1a12.28,12.28,0,0,1-3.92-.26,1.58,1.58,0,0,0-.45.08,4.49,4.49,0,0,0,.26,1c.62,1.15,1.29,2.29,1.92,3.44a4.29,4.29,0,0,1,.45,1.19,1.19,1.19,0,0,1-1.42,1.57,15.75,15.75,0,0,1-1.88-.4c-.42.46-.25,1-.29,1.53-.08,1.07-.21,1.22-1.25,1.28a3.15,3.15,0,0,0-.43,0c-2,.42-3.58-.43-5-1.76A16.06,16.06,0,0,1,86.32,114.46ZM74,112.76a7.93,7.93,0,0,0,3.12-.14,2,2,0,0,0,1.43-1,.65.65,0,0,1,1-.19,1.32,1.32,0,0,1,.51.84,1.91,1.91,0,0,1-.38,1c-.45.77-.94,1.51-1.4,2.28a5.6,5.6,0,0,0-.45,1c-.3.81-.08,1.09.74,1,.34,0,.68-.16,1-.19a8.11,8.11,0,0,0,4.91-2.36c.85-.82,1.62-1.72,2.4-2.6.28-.31.44-.73.71-1.06.1-.13.44-.27.5-.22a1.09,1.09,0,0,1,.29.6c0,.11-.1.26-.19.37a2,2,0,0,0-.19,2,14.18,14.18,0,0,0,2.58,4.28,5.06,5.06,0,0,0,3,1.83c.91.17,1.16,0,1.15-1,0-.46-.1-.92-.09-1.38,0-.66.33-1,1-1,.49,0,1,.06,1.62.11,0-.38.07-.76-.08-1a28.81,28.81,0,0,0-1.56-2.54c-.62-.91-1.31-1.77-1.91-2.7a2.36,2.36,0,0,1-.3-1.21c0-.62.4-.87,1-.69a5.75,5.75,0,0,1,.88.39,11.65,11.65,0,0,0,6.68,1.38c.91-.11,1-.31.52-1.15a6.74,6.74,0,0,1-.61-1.12c-.31-.89,0-1.32,1-1.3.62,0,1.25,0,2.1,0a7.14,7.14,0,0,0-.89-1.3,26.21,26.21,0,0,0-3-2.38,5,5,0,0,0-5.51-.41c-.37.21-.75.4-1.14.58a.68.68,0,0,1-1-.19.84.84,0,0,1,.13-1.08,2.49,2.49,0,0,1,.5-.41c1-.62,2-1.28,3-1.83a5.6,5.6,0,0,0,2.46-3.48c.06-.15-.08-.38-.14-.62a4.59,4.59,0,0,0-.68.13c-.48.16-1,.39-1.38-.07s-.23-1-.06-1.51c.08-.24.24-.44.33-.67s.21-.58.3-.85a1.47,1.47,0,0,0-1.5-.19,10.61,10.61,0,0,0-3.76,1.72,4.54,4.54,0,0,0-2,2.81c-.22.93-.37,1.87-.57,2.81-.15.65-.58,1-1.09,1s-.67-.54-.72-1a5.31,5.31,0,0,0-.15-1.06,2.94,2.94,0,0,0-.51-1.15,8,8,0,0,0-2.85-2.19A2.58,2.58,0,0,0,83,95.37c0,1.32,0,1.32-.91,1.76-1.21-.39-2.24-1.34-3.79-1.34a12.3,12.3,0,0,0,.08,1.43A11.43,11.43,0,0,0,80.8,102a26.67,26.67,0,0,1,1.62,2.36,1.16,1.16,0,0,1-.56,1.85,3.67,3.67,0,0,1-.5.17c-.93.35-1.88.68-2.8,1.07a8.18,8.18,0,0,0-3.75,2.87A4.29,4.29,0,0,0,74,112.76Z"/><path class="cls-13" d="M74,112.76a4.29,4.29,0,0,1,.81-2.4,8.18,8.18,0,0,1,3.75-2.87c.92-.39,1.87-.72,2.8-1.07a3.67,3.67,0,0,0,.5-.17,1.16,1.16,0,0,0,.56-1.85A26.67,26.67,0,0,0,80.8,102a11.43,11.43,0,0,1-2.41-4.82,12.3,12.3,0,0,1-.08-1.43c1.55,0,2.58.95,3.79,1.34.91-.44.91-.44.91-1.76a2.58,2.58,0,0,1,1.83.18,8,8,0,0,1,2.85,2.19,2.94,2.94,0,0,1,.51,1.15,5.31,5.31,0,0,1,.15,1.06c.05.48.12,1,.72,1s.94-.32,1.09-1c.2-.94.35-1.88.57-2.81a4.54,4.54,0,0,1,2-2.81,10.61,10.61,0,0,1,3.76-1.72,1.47,1.47,0,0,1,1.5.19c-.09.27-.18.57-.3.85s-.25.43-.33.67c-.17.5-.39,1,.06,1.51s.9.23,1.38.07a4.59,4.59,0,0,1,.68-.13c.06.24.2.47.14.62a5.6,5.6,0,0,1-2.46,3.48c-1,.55-2,1.21-3,1.83a2.49,2.49,0,0,0-.5.41.84.84,0,0,0-.13,1.08.68.68,0,0,0,1,.19c.39-.18.77-.37,1.14-.58a5,5,0,0,1,5.51.41,26.21,26.21,0,0,1,3,2.38,7.14,7.14,0,0,1,.89,1.3c-.85,0-1.48,0-2.1,0-.94,0-1.29.41-1,1.3a6.74,6.74,0,0,0,.61,1.12c.5.84.39,1-.52,1.15a11.65,11.65,0,0,1-6.68-1.38,5.75,5.75,0,0,0-.88-.39c-.62-.18-1,.07-1,.69a2.36,2.36,0,0,0,.3,1.21c.6.93,1.29,1.79,1.91,2.7a28.81,28.81,0,0,1,1.56,2.54c.15.26.06.64.08,1-.64-.05-1.13-.11-1.62-.11-.67,0-1,.29-1,1,0,.46.09.92.09,1.38,0,.95-.24,1.15-1.15,1a5.06,5.06,0,0,1-3-1.83A14.18,14.18,0,0,1,88,114a2,2,0,0,1,.19-2c.09-.11.21-.26.19-.37a1.09,1.09,0,0,0-.29-.6c-.06,0-.4.09-.5.22-.27.33-.43.75-.71,1.06-.78.88-1.55,1.78-2.4,2.6a8.11,8.11,0,0,1-4.91,2.36c-.34,0-.68.15-1,.19-.82.11-1-.17-.74-1a5.6,5.6,0,0,1,.45-1c.46-.77,1-1.51,1.4-2.28a1.91,1.91,0,0,0,.38-1,1.32,1.32,0,0,0-.51-.84.65.65,0,0,0-1,.19,2,2,0,0,1-1.43,1A7.93,7.93,0,0,1,74,112.76Zm13.9-4.38a1,1,0,0,0-.44,1.32c.17.3.4.51.79.3a.85.85,0,0,0,.39-1.25C88.46,108.53,88.08,108.47,87.9,108.38Zm1.21-3.81a.83.83,0,0,0-.35,1.12.57.57,0,0,0,.83.2.7.7,0,0,0,.21-1A1.89,1.89,0,0,0,89.11,104.57Zm-3.46,1.72a1.85,1.85,0,0,0,.64-.05.64.64,0,0,0-.55-1.15A.89.89,0,0,0,85.65,106.29Zm4.82-.35a4.45,4.45,0,0,0,0,1.12c.11.33.42.33.69.14s.49-.57.26-.89S90.93,106.1,90.47,105.94Z"/><ellipse class="cls-14" cx="88.5" cy="106.15" rx="4.5" ry="4.52" transform="translate(-41.11 58.16) rotate(-29.86)"/><path class="cls-15" d="M89.1,107c.18.09.55.15.74.37a.86.86,0,0,1-.4,1.25c-.39.2-.61,0-.79-.3A1,1,0,0,1,89.1,107Z"/><path class="cls-15" d="M89.11,104.57a1.89,1.89,0,0,1,.69.31.7.7,0,0,1-.21,1,.57.57,0,0,1-.83-.2A.83.83,0,0,1,89.11,104.57Z"/><path class="cls-15" d="M87.32,103.61a2,2,0,0,1,.69.3.69.69,0,0,1-.21,1,.56.56,0,0,1-.83-.19A.83.83,0,0,1,87.32,103.61Z"/><path class="cls-15" d="M87,106.15c.34-.19,1-.16,1.22.13s.18.69-.68,1S86.3,106.8,87,106.15Z"/><path class="cls-15" d="M90.47,105.94c.49-.68.83.18,1,.37s.07.67-.26.89A.74.74,0,0,1,90.47,105.94Z"/></g></svg>