<svg xmlns="http://www.w3.org/2000/svg" viewBox="0 0 120 120"><defs><style>.cls-1{fill:#dddbd2;}.cls-2{fill:#4d4d4d;}.cls-12,.cls-3{fill:#2e3659;}.cls-3{stroke:#2e3659;stroke-miterlimit:10;stroke-width:0.74px;}.cls-4{fill:#b28146;}.cls-5{fill:#583d14;}.cls-6{fill:#888;}.cls-7{fill:#fbddb9;}.cls-8{fill:#595757;}.cls-9{fill:#3e3a39;}.cls-10{fill:#946134;}.cls-11{fill:#604c3f;}.cls-13{fill:#fff;}.cls-14{fill:#d7e487;}</style></defs><g id="レイヤー_1" data-name="レイヤー 1"><path class="cls-1" d="M76.24,119.55c-11.37,0-22.75.42-34.13.45a121.81,121.81,0,0,1-16.76-.72A49.6,49.6,0,0,1,17,117.43a26.78,26.78,0,0,1-7.24-3.7c-1.4-.94-2-2.68-3.09-3.94a18.56,18.56,0,0,1-3.47-5.36,22.18,22.18,0,0,1-1-3.6c-.63-3.07-1.2-6.17-1.84-9.24A37,37,0,0,1,0,83.65V51.49C0,45.55-.3,39.38,1.47,33.67A55.61,55.61,0,0,1,4.71,25a55.71,55.71,0,0,1,5.31-8,30.3,30.3,0,0,1,3-3.64A29.92,29.92,0,0,1,17.86,9.7,94.92,94.92,0,0,1,29.58,2.94,35.79,35.79,0,0,1,38.18.19c2.82-.48,5.3.1,8.11.1C69.94.29,96.15,1.53,104.94,29c.91,2.83,1.51,5.79,2.88,8.42s3.46,4.83,5.19,7.25c8.9,12.41,8.29,37.9,3.78,51.91-1.51,4.7-4.12,8.39-6.57,12.58-2,3.39-3.28,5.08-7.07,6.82C94.75,119.79,85.27,119.55,76.24,119.55Z"/><path class="cls-2" d="M21.11,106.23c0,.5,0,.77,0,1.2,0,1.23-.59,2.24-2.85,1.81-1.31-.26-.78-1.91.13-1.59.59.21,1.36.31,1.34-.54s-.06-2.61-.1-4.29A17.5,17.5,0,0,1,15,107.7c-1.2.85-1.9-.67-1-1.2a13.69,13.69,0,0,0,4.84-5l-3.78.13a.74.74,0,1,1,0-1.47c1.44-.06,3-.1,4.57-.11,0-.92-.06-1.68-.08-2.1a.71.71,0,1,1,1.4-.06c0,.44,0,1.23,0,2.14h2.39a.76.76,0,1,1,0,1.52c-.75,0-1.54-.06-2.34-.06C21,103.19,21,105,21.11,106.23Z"/><path class="cls-2" d="M27.55,103.62a.7.7,0,0,1-.68-.77.74.74,0,0,1,.68-.81h8a.71.71,0,0,1,.65.8.71.71,0,0,1-.65.78Z"/><path class="cls-2" d="M39.23,106.92c2.13-1.06,3.41-3.52,3.28-6.58a.75.75,0,1,1,1.48-.13,9,9,0,0,1-4,8.1A.81.81,0,1,1,39.23,106.92Zm7.56.57c-.94.52-2,.1-1.86-1.28s.2-5.25.2-6.19c0-1.17,1.46-1.15,1.44,0,0,.62-.16,4.85-.17,5.39,0,.36.16.39.43.21a9.71,9.71,0,0,0,3.21-4c.52-1.07,1.82-.19,1.31.8A12.08,12.08,0,0,1,46.79,107.49Z"/><path class="cls-2" d="M56.31,104.15a4.74,4.74,0,0,0-1.79-.82c-.87-.16-.59-1.68.46-1.45a6.59,6.59,0,0,1,2.1.8.91.91,0,0,1,.33,1.2A.7.7,0,0,1,56.31,104.15Zm0,5a.86.86,0,1,1-.48-1.64c2.87-.87,6.06-4.39,7.58-7.58.47-1,1.91-.33,1.28.93C62.85,104.55,59.57,108,56.31,109.17ZM58,101.3a5.14,5.14,0,0,0-1.57-1.23.75.75,0,0,1,.73-1.32,8.07,8.07,0,0,1,1.92,1.33.93.93,0,0,1,.07,1.25A.72.72,0,0,1,58,101.3Z"/><path class="cls-2" d="M68.31,103.62a.69.69,0,0,1-.67-.77.74.74,0,0,1,.67-.81h8a.71.71,0,0,1,.66.8.71.71,0,0,1-.66.78Z"/><path class="cls-2" d="M81.06,108.61c-1,.44-1.54-1.13-.46-1.55a12.21,12.21,0,0,0,6-6c.13-.27.08-.53-.24-.53-.91,0-2.9.06-4.16.1-.87,0-.93-1.51,0-1.56S85.39,99,86.85,99c1.3,0,2,.91,1.47,2a25.2,25.2,0,0,1-1.6,2.72,15.28,15.28,0,0,1,3.69,3.17c.57.9-.51,2.15-1.18,1.2a15.71,15.71,0,0,0-3.37-3.21A12.25,12.25,0,0,1,81.06,108.61Zm8.37-8.88a5.39,5.39,0,0,0-1-1.17c-.66-.48,0-1.29.66-.89a4.79,4.79,0,0,1,1.26,1.21C90.78,99.65,89.8,100.44,89.43,99.73Zm1.74-.91a5.67,5.67,0,0,0-1-1.14.56.56,0,1,1,.62-.94A5.12,5.12,0,0,1,92,97.92C92.51,98.67,91.56,99.51,91.17,98.82Z"/><path class="cls-2" d="M97.84,102.13A5.16,5.16,0,0,0,95.7,101c-.86-.23-.5-1.84.6-1.51a8.8,8.8,0,0,1,2.53,1.22A1,1,0,0,1,99,102,.72.72,0,0,1,97.84,102.13Zm-.9,6.61a.9.9,0,1,1-.49-1.73c2.9-.81,5.81-4.13,7.26-7.26.46-1,2-.32,1.31.94C103.24,104.29,100.26,107.57,96.94,108.74Z"/><path class="cls-3" d="M49.91,40.56l2,.35c.2,0,.41,0,.61,0a1,1,0,0,0,1.13-.46c.15-.21.24-.45.39-.67.48-.74,1-1.47,1.46-2.2a25.4,25.4,0,0,1,2.37-3,6.59,6.59,0,0,1,2.64-1.77,9.32,9.32,0,0,1,.91-.23,1.27,1.27,0,0,0,.2-.09,5.76,5.76,0,0,0-.4-.43,5.62,5.62,0,0,1-1.89-3.53,15,15,0,0,1-.1-4A3.9,3.9,0,0,1,60,22.71c.29-.41.52-.88.79-1.31A5.48,5.48,0,0,1,61.87,20c.43-.36.81-.76,1.24-1.18a1.19,1.19,0,0,0-.23-.26c-.34-.26-.67-.52-1-.75a1.54,1.54,0,0,1-.66-.94.47.47,0,0,1,.48-.64,6.25,6.25,0,0,1,1.78,0,.74.74,0,0,0,.75-.19,3.75,3.75,0,0,1,1.17-.62c.5-.21,1-.5,1.48-.73a3.43,3.43,0,0,1,.9-.35A29.66,29.66,0,0,1,70.87,14a8.89,8.89,0,0,1,1.84.22,1,1,0,0,0,.24,0,2.89,2.89,0,0,1,1.89.48,5.45,5.45,0,0,0,.77.37,3.33,3.33,0,0,1,1.24.89,10.17,10.17,0,0,1,1.67,2.39,7.52,7.52,0,0,1,.71,4.86,7.11,7.11,0,0,1-1,2.46c-.18.27-.34.56-.51.83a.35.35,0,0,0,0,.48,1.54,1.54,0,0,1,.2,1.92,2.45,2.45,0,0,1-1.69,1.29c-.24.05-.48.08-.72.11s-.36.1-.38.35A.48.48,0,0,1,75,31a9.13,9.13,0,0,1-1.79,2.3c-.49.43-1,.77-1.58,1.15l-.19.14c.12.25.23.48.35.7a.47.47,0,0,0,.19.15,19.44,19.44,0,0,1,.57,5.06,7,7,0,0,1-.41.88,15.72,15.72,0,0,0-.88,2.75c-.19.68-.39,1.35-.6,2a15.74,15.74,0,0,1-1.07,2.71c-.33.62-.68,1.24-1,1.87a2.11,2.11,0,0,0-.1.62,3.87,3.87,0,0,0,.59.09,3.55,3.55,0,0,1,1.73.37c.48.2.94.43,1.39.66s.7.4,1,.61l.91.54a8.55,8.55,0,0,1,2.32,2c.22.27.28.27.57.07a6.41,6.41,0,0,1,1.61-.76,11.31,11.31,0,0,1,5.11,0A14.54,14.54,0,0,1,88,56.41a19,19,0,0,1,2.6,1.74,5,5,0,0,0,1.55.78,9.71,9.71,0,0,0,4.31.58,22,22,0,0,0,2.27-.41l.63-.12a8.79,8.79,0,0,0,1.52-.43,2.85,2.85,0,0,1,1.91,0,4.23,4.23,0,0,0,.78.19c.52.08.63.29.43.78a12.43,12.43,0,0,1-1,2,2,2,0,0,0-.15.33c-.37.92-.68,1.87-1.12,2.74a6.39,6.39,0,0,1-2.41,2.59,10.4,10.4,0,0,1-2.62,1.1c-.65.18-1.29.39-2,.55a7.83,7.83,0,0,1-1.08.17,5.88,5.88,0,0,1-2-.1,8,8,0,0,1-1.39-.44q-1.34-.6-2.64-1.26a15.82,15.82,0,0,1-1.68-1,6.29,6.29,0,0,1-.78-.77A10.81,10.81,0,0,1,83,62.34a7.32,7.32,0,0,0-.65-1,10.78,10.78,0,0,0-1.61-1.83,6.1,6.1,0,0,0-2-1.28,3,3,0,0,0-.42-.07c.06.26.11.45.15.65a8.46,8.46,0,0,1,0,2.75,18.8,18.8,0,0,1-1.77,5.73,15.4,15.4,0,0,1-2.08,3.43,8.16,8.16,0,0,1-.7.74.73.73,0,0,0-.26.69,3.94,3.94,0,0,1,0,.77c0,.79-.09,1.59-.14,2.39a25,25,0,0,1-.52,3.95c-.19.93-.45,1.84-.7,2.76-.18.61-.42,1.2-.6,1.81-.1.36-.13.75-.22,1.11-.19.79-.41,1.58-.61,2.37-.06.25-.1.5-.17.75s-.24.41-.62.27a8.38,8.38,0,0,0-1.23-.25,3.93,3.93,0,0,0-.49,0c-.39,0-.51-.15-.48-.54,0-.57.08-1.13.12-1.7s.1-.86.12-1.29c0-1.05,0-2.09.08-3.13,0-.48,0-.95.07-1.43,0-.7,0-1.41.06-2.11,0-.55.08-1.11.12-1.66q0-.2,0-.42c-.21,0-.27.17-.34.28a17.07,17.07,0,0,1-1.9,2.17l-.29.34c-.29.29-.57.58-.86.86l-.71.68c-.44.39-.87.8-1.33,1.18-.91.75-1.8,1.52-2.75,2.23a11.63,11.63,0,0,1-1.62.91,2.64,2.64,0,0,0-.85.55.27.27,0,0,1-.2.11c-.3,0-.45.2-.61.41-.34.44-.68.88-1,1.3s-.4.32-.74.11A12.42,12.42,0,0,1,54,86c-.39-.32-.4-.61-.09-1,.49-.68,1-1.36,1.48-2,.14-.2.23-.43.38-.63s.3-.33.45-.5a2,2,0,0,0,.26-.25c.67-1,1.33-2.07,2-3.11.22-.33.46-.64.7-1,.82-1.06,1.63-2.13,2.47-3.18a.52.52,0,0,0,.07-.65,6.77,6.77,0,0,1-.63-2c-.09-.5-.15-1-.24-1.56l-.6-.06a16.4,16.4,0,0,1-3.4-.55c-.68-.18-1.37-.33-2-.51-.49-.14-1-.3-1.47-.46-.83-.29-1.66-.59-2.49-.87-.41-.14-.84-.24-1.25-.35a1.62,1.62,0,0,1-.64-.25.6.6,0,0,0-.38-.08,6.78,6.78,0,0,1-2.41-.31,1.71,1.71,0,0,1-1.19-1,1.31,1.31,0,0,0-.45-.49,16.86,16.86,0,0,1-3-2.67c-.28-.35-.6-.66-.89-1s-.26-.27-.59-.14c-.49.19-1,.4-1.48.58-.79.27-2.9.87-2.9.87s-.19.73-.06.79a8.37,8.37,0,0,1-.27,1.51c-.09.27-1,3.88-1.15,4.14a5.52,5.52,0,0,0-.2,1.42c-.06.59-.26,1.11-.3,1.69,0,.38-.38.3-.76.29-.69,0-2.41,0-2.3-.47a.53.53,0,0,0,0-.37,11.29,11.29,0,0,1-.05-2.3c0-.09.11-1,.09-1.1a22.87,22.87,0,0,1,.13-6,10.73,10.73,0,0,1,.79-2.65,11.21,11.21,0,0,0-1.45.85.52.52,0,0,0-.23.45c0,.24-1.24,5.39-1.38,6-.06.28-.47,1.74-.91,1.69a19.31,19.31,0,0,1-2.4-.37c-.44-.1-.57-.36-.4-.76a5.14,5.14,0,0,0,.31-.91c.06-.23.49-7.17.66-7.8a19.37,19.37,0,0,1,2.58-4.09,6.43,6.43,0,0,1,2.44-1.77,10.56,10.56,0,0,0,1.31-.53A7.87,7.87,0,0,1,34,52.25c.68-.13,1.35-.31,2-.49a.72.72,0,0,0,.37-.36,6.83,6.83,0,0,0,.87-2.34,4.5,4.5,0,0,0,0-1,.6.6,0,0,0-.24-.31c-.25-.16-.51-.3-.77-.45l-1.13-.7a8.2,8.2,0,0,1-.87-.5c-.55-.41-1.09-.85-1.6-1.3a.84.84,0,0,0-.72-.26,3,3,0,0,0-1.28.5,7.27,7.27,0,0,1-1.84.94,6.93,6.93,0,0,1-3,.56,13.09,13.09,0,0,1-1.82-.38c-.26-.07-.51-.18-.77-.26a5.09,5.09,0,0,1-1.64-1.1,4.7,4.7,0,0,1-.51-.58,2.32,2.32,0,0,1-.34-1.86,4.05,4.05,0,0,1,.12-.47,6.78,6.78,0,0,1,1-2.08,14.43,14.43,0,0,1,1.51-2.05c.6-.72,1.26-1.38,1.81-2.12a9,9,0,0,1,.82-.91c.89-.92,1.77-1.83,2.65-2.76.72-.75,1.43-1.52,2.14-2.28.17-.17.36-.33.52-.51s.33-.39.52-.62c-.15-.12-.25-.22-.37-.3A2.91,2.91,0,0,1,30.22,27c-.12-.28,0-.42.28-.4l1.09.1a1.19,1.19,0,0,0,.79-.27A4.94,4.94,0,0,0,32,26a5.56,5.56,0,0,1-.93-1.18,1.77,1.77,0,0,1-.26-1c0-.35.08-.7.12-1.05a.46.46,0,0,1,.42-.42,4.28,4.28,0,0,1,2,.12,7.33,7.33,0,0,1,1.52.67,3.45,3.45,0,0,1,.95,1c.2.31.25.32.59.17.62-.27,1.23-.58,1.86-.81a4.74,4.74,0,0,1,1.49-.38c.34,0,.67-.09,1-.12a8.21,8.21,0,0,1,2.21.21c.39.07.78.13,1.16.23a1.16,1.16,0,0,1,.43.27c.15.13.26.32.41.46a2.16,2.16,0,0,1,.61,1.21l.18.83A3.55,3.55,0,0,1,45.65,28l-.4,1.36a2.59,2.59,0,0,0-.06.45c.19,0,.36.07.53.08l2,.11c.52,0,1,.05,1.55.1a1.61,1.61,0,0,1,1.35.7.8.8,0,0,1,.08.8,2.66,2.66,0,0,1-1.14,1.29l-1.59.9-.15.07,0,.08a1.52,1.52,0,0,0,.28.09l2.13.3c.75.11.89.39.52,1a.88.88,0,0,1-.24.27c-.42.3-.85.58-1.28.86l-.31.22.48.24c.22.1.45.18.66.3s.34.39.11.66-.39.41-.59.62l-.31.32.72.37c.34.17.37.19.25.57S50.05,40.25,49.91,40.56Zm10.88,27c.35.35.36.37.37.66a3.35,3.35,0,0,0,.25,1.5.29.29,0,0,1,0,.24,2.51,2.51,0,0,0,0,1.36A16.59,16.59,0,0,0,62,73.2a1.66,1.66,0,0,0,.29.47,3.07,3.07,0,0,0,.25.26.42.42,0,0,1,0,.64,2.87,2.87,0,0,0-.89.88l-1.79,2.37c-.34.47-.68.94-1,1.42s-.66,1-1,1.5-.62,1-.9,1.45-.28.68.14,1.15l.08.09a1,1,0,0,0,1.4.27,6.89,6.89,0,0,0,1-.53c.71-.5,1.39-1,2.08-1.55.33-.26.62-.57,1-.81a18.93,18.93,0,0,0,2.37-2.1c.94-.89,1.79-1.89,2.67-2.85a2.26,2.26,0,0,0,.53-.9,1.63,1.63,0,0,1,.38-.57,6.33,6.33,0,0,1,1.41-1,26.6,26.6,0,0,0,2.57-1.64,11.05,11.05,0,0,0,2.8-3.29c.31-.56.57-1.14.86-1.71a16.79,16.79,0,0,0,1.84-6.82,3.23,3.23,0,0,0-.23-1.56,8.55,8.55,0,0,0-1.15-1.95,10,10,0,0,0-2.3-2.16c-.49-.32-1-.6-1.48-.93a8.09,8.09,0,0,0-1.66-.84,1.7,1.7,0,0,0-.31-.06c0,.21,0,.4-.07.58a2.73,2.73,0,0,1,0,.41c-.32,1.26-.62,2.52-1,3.78-.2.71-.49,1.38-.67,2.09-.35,1.42-.67,2.85-1,4.28a.68.68,0,0,1-.38.52,6.11,6.11,0,0,1-2,.63,9.88,9.88,0,0,1-2.43,0c-.94-.12-1.88-.25-2.82-.33A16.35,16.35,0,0,1,57,63.64c-.67-.22-1.34-.41-2-.6-.27-.07-.33,0-.36.27a4,4,0,0,1-.16.92,3.56,3.56,0,0,1-1.67,1.91,4.81,4.81,0,0,1-1.76.62,2,2,0,0,0-.41.13,3.43,3.43,0,0,0,.34.17l.66.19c.91.3,1.81.64,2.74.88,1.32.35,2.66.64,4,.91a18.6,18.6,0,0,0,2,.25c.48,0,.55,0,.52-.52,0-.25-.06-.51-.07-.77A2.45,2.45,0,0,1,60.79,67.51ZM53.12,45.43c-.45-.11-1.33-.32-1.77-.44a1.93,1.93,0,0,0-.47-.08c-.27,0-.54,0-.81,0a5,5,0,0,1-2-.42A5.88,5.88,0,0,0,46.19,44c-.85-.06-.69-.23-.7-.79,0-1.07,0-2.14,0-3.21,0-.77-.07-1.55-.09-2.32,0-.47,0-1,0-1.42a2.94,2.94,0,0,0-.08-.43,3.57,3.57,0,0,0-.28.28,12.75,12.75,0,0,1-.81,1.12,16.73,16.73,0,0,1-1.6,1.55c-.77.64-1.57,1.25-2.4,1.81s-1.69,1-2.53,1.54c-.29.18-.57.39-.87.59.1.17.19.29.26.42.17.33.35.66.5,1s.13.5.22.74a.91.91,0,0,1,0,.74,3.41,3.41,0,0,0,.64.49,17,17,0,0,0,2.16.81,40,40,0,0,0,6.31,1.35c.6.06,1.19.09,1.78.13.23,0,.36-.09.46-.32A5.77,5.77,0,0,1,49.72,47a3,3,0,0,1,1.87-1,21.06,21.06,0,0,1,2.1-.23m.36,1a.27.27,0,0,1-.15-.13.63.63,0,0,0-.74-.27,9.79,9.79,0,0,0-2.25.52,2.28,2.28,0,0,0-1.22,1.38s0,0,0,.12h.42q.82-.07,1.65-.18a3.3,3.3,0,0,0,.83-.16,15.2,15.2,0,0,0,1.76-.74Zm.85.31A15.48,15.48,0,0,0,56.56,46a5,5,0,0,0,1.8-1.84.65.65,0,0,1,.13-.16,3,3,0,0,1,1.87-.87c.38,0,.76,0,1.14,0,.56,0,1.13-.12,1.69-.18a13.88,13.88,0,0,0,2.56-.46,1.08,1.08,0,0,0,.87-.76c0-.15.11-.3.15-.46.09-.31.15-.62.25-.93a4.39,4.39,0,0,0,.19-1.44c0-.59,0-1.19.05-1.78,0-.13.06-.28.23-.3s.27.15.29.34a1,1,0,0,1,0,.24c0,.16,0,.32,0,.48,0,.75,0,1.49,0,2.24a1.89,1.89,0,0,1-.11.47c-.06.23-.15.46-.22.69a12.14,12.14,0,0,0-.36,1.17.76.76,0,0,1-.6.58c-.75.18-1.5.36-2.26.51-.44.09-.89.11-1.33.19s-.47.21-.42.51c.12.72.25,1.44.38,2.16,0,.29.1.35.4.36.59,0,1.19,0,1.78,0s.94-.11,1.41-.15a1.37,1.37,0,0,0,.88-.37c.17-.19.37-.36.54-.55.65-.71,1.3-1.42,1.93-2.14.35-.4.67-.82,1-1.24A4.16,4.16,0,0,0,71.82,40a8.52,8.52,0,0,0-.31-3.37c-.2-.61-.44-1.21-.67-1.87-.09,0-.22,0-.35.08a5.23,5.23,0,0,1-1.76.23h-.16a4.43,4.43,0,0,1-1.88-.23c-.13,0-.27-.06-.4-.09a.31.31,0,0,0-.37.18,3.57,3.57,0,0,1-1.26,1.3,2.33,2.33,0,0,1-1.29.44,1,1,0,0,1-1-.44,2.07,2.07,0,0,1-.28-.75,3.3,3.3,0,0,1,.25-1.91,3.81,3.81,0,0,0,.14-.44,1.25,1.25,0,0,0-.31,0,5,5,0,0,0-3,1.12,13.06,13.06,0,0,0-2.36,2.62,37.37,37.37,0,0,0-2.63,4,1.39,1.39,0,0,1-1.68.72,1.75,1.75,0,0,0-.4,0,.72.72,0,0,0-.67.37,3.2,3.2,0,0,0-.35,1.89.75.75,0,0,0,.57.71l1.14.42,1.27.36c.31-.59.7-1.13,1-1.7.49-.8,1-1.58,1.47-2.39s1-1.81,1.49-2.71a4.14,4.14,0,0,1,.53-.66c.06-.06.22-.1.27-.06A.35.35,0,0,1,59,38a1.22,1.22,0,0,1-.18.36c-.09.15-.2.29-.29.44-.49.91-1,1.83-1.47,2.72q-1.24,2.1-2.56,4.14a.76.76,0,0,0,0,.83Zm22.4,9.25c.21.38.4.7.57,1a.4.4,0,0,0,.36.2,5.65,5.65,0,0,1,1,.26,6.92,6.92,0,0,1,2.06,1.49c.5.51,1,1.08,1.4,1.64a5,5,0,0,1,.56.88,12.51,12.51,0,0,0,1.51,2.45,6.4,6.4,0,0,0,2,1.85c.84.4,1.65.87,2.48,1.29a12.64,12.64,0,0,0,1.42.61,5.4,5.4,0,0,0,2.52.3,12.52,12.52,0,0,0,2.68-.67l.35-.11a8.21,8.21,0,0,0,2.9-1.32,7,7,0,0,0,2.31-2.94.66.66,0,0,0,0-.21l-1,.49c-.19.11-.41.23-.6.06a.58.58,0,0,1-.13-.6s0,0,0,0c.35-.17.69-.29,1-.47a4.28,4.28,0,0,0,.83-.64A11.08,11.08,0,0,0,103,60a1.44,1.44,0,0,0,.1-.27l-.48.16-.65.23a15.75,15.75,0,0,0-2.21.8,1.07,1.07,0,0,1-.27.09c-.22,0-.31,0-.4-.23s0-.44.12-.51a2.89,2.89,0,0,1,.86-.35,14.74,14.74,0,0,0,1.94-.55c.11,0,.25,0,.24-.24a1.7,1.7,0,0,0-1,0c-.45.14-.9.29-1.36.41s-1.07.28-1.61.42a4.9,4.9,0,0,1-.89.24c-.83,0-1.66.06-2.48,0a8.42,8.42,0,0,1-2.62-.57A8.23,8.23,0,0,1,90,58.45a15,15,0,0,0-3.3-2.06,12.74,12.74,0,0,0-3.46-1.12,10.56,10.56,0,0,0-4.51.21A3.17,3.17,0,0,0,77.3,56.34ZM63.9,20.87h-.46a11.61,11.61,0,0,1-1.18,0,.81.81,0,0,0-.77.34,11.67,11.67,0,0,0-1.07,1.68,5.32,5.32,0,0,0-.68,2.23c0,.61-.07,1.22,0,1.82a7.21,7.21,0,0,0,.53,2.9A5.93,5.93,0,0,0,62,32.08a9.52,9.52,0,0,0,1.65,1,7.34,7.34,0,0,0,1,.47c.52.19,1.06.33,1.59.48a7,7,0,0,0,3.7.18,5.61,5.61,0,0,0,1.81-.69,10.59,10.59,0,0,0,1.4-1.1A6,6,0,0,0,74.37,31a3,3,0,0,0,.28-.7c.07-.32.16-.45.47-.5l.57-.09a2.75,2.75,0,0,0,1.78-1.1.9.9,0,0,0,.14-1,2,2,0,0,0-1-.87.6.6,0,0,0-.71.25,1.32,1.32,0,0,1-.39.39c-.49.29-1,.54-1.51.79a.78.78,0,0,1-.26,0,4.1,4.1,0,0,1,0-2.36l-.53-.34c-.31-.2-.72-.25-.91-.63,0,0,0,0,0,0a4.54,4.54,0,0,1-.38.38c-.14.1-.31.16-.46.25-.65.38-.75.33-.87-.42A2.55,2.55,0,0,0,70,23.81l-.22,0-1.57.44c-.27.08-.37,0-.43-.26,0-.12,0-.24,0-.36s-.08-.3-.35-.3-.24,0-.36,0l-.93.08a.31.31,0,0,1-.36-.26c0-.22-.1-.45-.13-.67s0-.38,0-.57a.27.27,0,0,0-.35-.25l-.2,0c-.38.13-.76.28-1.15.39-.1,0-.27,0-.33,0a.55.55,0,0,1-.08-.37c0-.08.08-.16.13-.24Zm15,.69a6,6,0,0,0-.4-2.16,5.62,5.62,0,0,1-.25-.56,8,8,0,0,0-1.7-2.59,5.47,5.47,0,0,0-2.61-1.5,10.9,10.9,0,0,0-5-.3,7,7,0,0,0-2.13.64,4.09,4.09,0,0,1-.7.33,5.36,5.36,0,0,0-1.31.71,1.1,1.1,0,0,0-.39.44.31.31,0,0,1-.41.22,2.68,2.68,0,0,0-.27-.07c-.46-.07-.91-.14-1.37-.18a1.36,1.36,0,0,0-.48.09.32.32,0,0,0-.16.52,1,1,0,0,0,.23.22l1.19.85.9.63c.32.22.63.46,1,.67s.79.44,1.14.71c1,.78,2.09,1.39,3.15,2.07.41.26.81.54,1.23.79.78.46,1.56.93,2.36,1.35a2,2,0,0,1,.66.59c0,.06.06.15.12.2a5.87,5.87,0,0,0,1.53,1,.88.88,0,0,0,.59.08,1.38,1.38,0,0,1,.94,0,.28.28,0,0,0,.36-.11c.08-.11.16-.21.24-.33s.33-.52.49-.79A6.48,6.48,0,0,0,78.87,21.56ZM58,48.32c.09,0,.18.13.27.19a7.51,7.51,0,0,0,1.69.87l1.07.38c.78.27,1.55.55,2.34.81A11.77,11.77,0,0,0,65.9,51c.46,0,.92.06,1.38.11a.48.48,0,0,0,.48-.24c.17-.28.35-.55.5-.84a23.09,23.09,0,0,0,1.25-2.42c.46-1.15.81-2.35,1.2-3.54.07-.22.11-.45.16-.68l-.08,0-.21.26c-.39.49-.76,1-1.17,1.46s-1.07,1.12-1.59,1.69a1.81,1.81,0,0,1-1.47.65c-.34,0-.68,0-1,0s-.9.09-1.34.08a3.58,3.58,0,0,1-1.49-.15.9.9,0,0,0-.4,0c-.19,0-.37,0-.56.06a3.27,3.27,0,0,1-2.35-.6.28.28,0,0,0-.37,0,1.88,1.88,0,0,0-.23.16c-.36.27-.73.53-1.11.76Zm-1.2-.22-.59.29c-.52.23-1,.5-1.53.75a19.63,19.63,0,0,1-1.8.84,12,12,0,0,1-1.76.46c-.59.11-1.18.16-1.77.23-.26,0-.37.11-.37.35,0,.65,0,1.3,0,1.95s.1,1.34.15,2c0,0,0,.09,0,.11.29.34.23.77.3,1.16s.15.85.24,1.28c.06.25.16.48.47.54a6.07,6.07,0,0,0,3-.14.58.58,0,0,0,.45-.52c0-.13,0-.27,0-.4,0-.51,0-1,0-1.54a22.08,22.08,0,0,0-.2-3.25,6.66,6.66,0,0,1-.12-.76c0-.32.16-.45.46-.34l.11,0,1.8.85a9.2,9.2,0,0,0,2.42.91,2.05,2.05,0,0,1,.38.16c.21.09.41.21.63.28.75.25,1.51.5,2.28.72a6.41,6.41,0,0,0,2.09.2,5.6,5.6,0,0,0,2.63-.91,3.37,3.37,0,0,0,1.24-1.3c-.22-.36-.22-.36-.48-.39-.59-.06-1.18-.14-1.78-.19A11.55,11.55,0,0,1,62,50.82c-1-.38-1.94-.76-2.9-1.17a14.13,14.13,0,0,1-1.41-.8ZM26.11,35.25l.47.09c.33.07.67.11,1,.21.58.2,1.11.56,1.71.73a1.74,1.74,0,0,1,.47.31l.31.25c.52.4,1.06.77,1.53,1.21A7.24,7.24,0,0,1,33,39.6,5.33,5.33,0,0,1,33.88,43a.33.33,0,0,0,.48.34c.2-.09.4-.2.6-.31l2.51-1.49c.34-.19.69-.37,1-.57l1.13-.71,1.27-.88c.3-.22.58-.48.89-.69a.9.9,0,0,0,.45-1c-.13-.62-.22-1.24-.38-1.86a4.38,4.38,0,0,0-1.5-2.12,7.4,7.4,0,0,0-1.58-1.06c-.77-.39-1.53-.81-2.32-1.15a14.29,14.29,0,0,0-1.83-.55,11.83,11.83,0,0,0-1.53-.39,16,16,0,0,0-1.7-.13,1.15,1.15,0,0,0-.94.37c-1.25,1.32-2.52,2.62-3.79,3.92ZM38.7,29.09a1.56,1.56,0,0,0,1.27.23c.4-.11.78-.23,1.17-.36a1.1,1.1,0,0,0,.65-.45c.1-.17.32-.16.51,0a.3.3,0,0,1,.1.42,5.55,5.55,0,0,0-.24.64c-.09.33-.15.67-.24,1a2.6,2.6,0,0,0,.2,1.82c.12.3.24.32.48.11s.37-.36.57-.53a4.35,4.35,0,0,0,1.35-2.22c.17-.65.37-1.3.59-1.94a3.81,3.81,0,0,0,.11-2.09,4,4,0,0,0-.33-.95,4,4,0,0,0-.67-.81.66.66,0,0,0-.46-.2,1.53,1.53,0,0,1-1-.15,4.08,4.08,0,0,0-1.92-.23,11.07,11.07,0,0,0-2.59.66,11.92,11.92,0,0,0-3,1.59A9.47,9.47,0,0,1,33,26.77a3.79,3.79,0,0,1-1.63.27c-.15,0-.34,0-.37.16s.1.23.16.34,0,0,.06.06a4.16,4.16,0,0,0,2.23,1.09,13.75,13.75,0,0,0,2.79.28,6.2,6.2,0,0,0,2.38-.39,4.54,4.54,0,0,0,1.54-.88.31.31,0,0,1,.47,0c.1.15.06.3-.14.39-.5.26-1,.5-1.52.76A1.7,1.7,0,0,0,38.7,29.09ZM28.52,45.52a2.65,2.65,0,0,1,.45-.35,4.78,4.78,0,0,0,1.51-.93.61.61,0,0,0,.25-.39,4.44,4.44,0,0,0-.1-1.45,6.29,6.29,0,0,0-1.26-2.26,4.79,4.79,0,0,0-1-1c-.33-.22-.69-.41-1-.62a8.35,8.35,0,0,0-2.61-.86,1,1,0,0,0-.25,0,.47.47,0,0,0-.47.23c-.27.37-.61.7-.88,1.07s-.54.53-.63.92a.79.79,0,0,1-.15.24,7.8,7.8,0,0,0-.46.71c-.28.59-.75,1.1-.68,1.83a0,0,0,0,1,0,0,1.72,1.72,0,0,0,.57,1.78,5.21,5.21,0,0,0,2.2,1.25A5.66,5.66,0,0,0,26,46c.26,0,.52-.13.68.13A3.61,3.61,0,0,1,28.52,45.52Zm24.94,13.1c-.08,0-.12,0-.16,0l-.28,0a6.41,6.41,0,0,1-2.58.11.86.86,0,0,0-.16,0A.21.21,0,0,0,50,59c0,.2,0,.4.07.6.07.51.15,1,.2,1.53a2.22,2.22,0,0,0,.07.67c.13.27,0,.42-.34.4a4.73,4.73,0,0,0-.65,0,5.69,5.69,0,0,0-1.72.69,5.47,5.47,0,0,0-2.14,1.7.75.75,0,0,0,0,.87,1.16,1.16,0,0,0,.72.55,7,7,0,0,0,2.36.37c.34,0,.68,0,1-.06a5.73,5.73,0,0,0,3.24-1,3.73,3.73,0,0,0,1-1.32,1.64,1.64,0,0,0,.16-1A10.28,10.28,0,0,0,53.79,62a.47.47,0,0,0-.18-.29.67.67,0,0,1-.25-.76A9,9,0,0,0,53.46,58.62ZM73.19,72.14l-.38.29c-.32.23-.63.48-1,.68-.52.3-1.06.59-1.61.86a1.83,1.83,0,0,0-1.18,1.61,18.67,18.67,0,0,0-.17,2.59c0,.15,0,.3,0,.45,0,1.71,0,3.42,0,5.13,0,.13,0,.27,0,.4a.27.27,0,0,0,.28.29l1.18,0a.62.62,0,0,0,.61-.44,20.93,20.93,0,0,0,1-2.75c.18-.68.41-1.35.56-2s.31-1.6.41-2.41c.15-1.19.26-2.4.37-3.6A7.08,7.08,0,0,0,73.19,72.14ZM33.09,44.42s0,.08.07.1a9.22,9.22,0,0,0,2.34,1.73c.45.27.93.5,1.39.76.3.18.59.38.89.57a10.28,10.28,0,0,0,.91.53c.3.15.49.49.86.52.05,0,.09.06.13.08a6.08,6.08,0,0,0,.61.33,20.93,20.93,0,0,0,2.45.74,21.48,21.48,0,0,0,3.75.38c.9,0,1.81-.06,2.72-.11.29,0,.59,0,.88-.08a9.17,9.17,0,0,0,2.83-.69c.78-.34,1.53-.75,2.3-1.11a17.27,17.27,0,0,0,2.36-1.27,9.56,9.56,0,0,0,.82-.6.36.36,0,0,0,.13-.3,3.7,3.7,0,0,0-.28-.57l-.36.28c-.54.42-1,.87-1.61,1.24S55,47.68,54.37,48a6.49,6.49,0,0,1-2.18.75,5.21,5.21,0,0,0-.69,0A14.49,14.49,0,0,1,48,49a14.13,14.13,0,0,1-1.46-.11c-.72-.11-1.45-.23-2.16-.39-1.17-.26-2.34-.55-3.51-.85a15.27,15.27,0,0,1-1.74-.55,12.33,12.33,0,0,1-1.42-.68c-.39-.2-.74-.45-1.12-.65a7.16,7.16,0,0,1-1.82-1.36c-.5-.5-.5-.51-1.19-.28A.79.79,0,0,0,33.09,44.42Zm16.53-6.84-.52-.24c-.23-.1-.48-.18-.71-.29s-.33-.19-.28-.58l1.46-.8a1.61,1.61,0,0,0,.82-.93l-1.2-.16c-.66-.1-1.31-.22-2-.29a2.18,2.18,0,0,0-1.13.08c-.34.14-.36.18-.32.54,0,.18,0,.36.06.53A12.78,12.78,0,0,1,46,37.67c0,.55,0,1.11,0,1.66s0,1,.06,1.42,0,1.09,0,1.63a4,4,0,0,1,0,.6c0,.27,0,.45.28.53l1.82.56c.42.12.48,0,.46-.4a6.25,6.25,0,0,1,0-1.06,6.18,6.18,0,0,1,.84-2.6,2.18,2.18,0,0,0,.17-.4l-.43-.17-.41-.18a.4.4,0,0,1-.13-.71c.19-.19.4-.36.6-.55S49.47,37.76,49.62,37.58ZM31.53,29.67l.47,0a5.23,5.23,0,0,1,.68.07c.82.17,1.65.34,2.46.55a10,10,0,0,1,2.37.84l1.6.88a7.75,7.75,0,0,1,2.82,2.45,1.79,1.79,0,0,1,.34.55c.2.69.36,1.39.55,2.08a4.16,4.16,0,0,0,.17.48c.32-.35.6-.62.85-.92s.52-.69.76-1a.4.4,0,0,0,0-.45,7.88,7.88,0,0,0-1.36-2c-.21-.25-.34-.22-.52.07s-.51.37-.74,0c-.11-.19-.21-.41-.31-.61a3.09,3.09,0,0,1-.29-2.36,7.73,7.73,0,0,0,.18-.89l-.45.09-1.18.3a2.72,2.72,0,0,1-1.81-.32,1,1,0,0,0-.54-.09A12.85,12.85,0,0,1,34,29.23c-.5-.08-1-.24-1.5-.36-.11,0-.27-.06-.34,0A1.87,1.87,0,0,0,31.53,29.67ZM31.39,44a3.07,3.07,0,0,0,1.46-.3.56.56,0,0,0,.37-.49,5.4,5.4,0,0,0,.06-.89,4.59,4.59,0,0,0-1.06-2.84,10.41,10.41,0,0,0-1.1-1.19A9.29,9.29,0,0,0,28,36.18a6.28,6.28,0,0,0-1.91-.51.67.67,0,0,0-.6.26c-.19.25-.39.48-.58.73a6.08,6.08,0,0,0-.37.53c.57.16,1.08.28,1.58.44a6.76,6.76,0,0,1,3.05,1.63,2.61,2.61,0,0,1,.73,1,.19.19,0,0,0,.06.1c.33.09.43.4.59.65a4.33,4.33,0,0,1,.77,2.52A3.27,3.27,0,0,0,31.39,44ZM48.4,52h.05v-.78a.88.88,0,0,0,0-.28c0-.07-.08-.18-.12-.18a.41.41,0,0,0-.24.11s0,.12-.06.19c-.12.49-.23,1-.37,1.46-.36,1.24-.76,2.48-1.1,3.74-.16.6-.24,1.22-.34,1.83-.05.32-.09.64-.12,1a.85.85,0,0,0,.47.94c.44.22.87.45,1.31.66a8.36,8.36,0,0,0,.83.32c.24.09.49.15.73.23s.28,0,.3-.2a.49.49,0,0,0,0-.17c-.18-.87-.22-1.76-.47-2.63-.18-.64-.24-1.32-.38-2-.09-.45-.14-.91-.21-1.36a8.33,8.33,0,0,1-.17-.84C48.44,53.3,48.43,52.63,48.4,52ZM45,34.76c.07-.14.13-.21.12-.28a.49.49,0,0,1,.43-.52,11.2,11.2,0,0,1,1.81-.57.66.66,0,0,0,.26-.11,12.25,12.25,0,0,0,1.6-1,3.15,3.15,0,0,0,.85-1,.43.43,0,0,0-.23-.69,2.31,2.31,0,0,0-.62-.18,28.67,28.67,0,0,0-3.82-.19.44.44,0,0,0-.47.3,5.25,5.25,0,0,1-1.07,1.62c-.38.39-.39.38-.11.78a2.18,2.18,0,0,1,.11.27.59.59,0,0,0,.14.23,2.07,2.07,0,0,1,.64.77C44.74,34.43,44.87,34.56,45,34.76ZM32.29,22.58v.05h-.37c-.35,0-.46.11-.5.46a7.12,7.12,0,0,0-.07.92,1.09,1.09,0,0,0,.12.47,7.1,7.1,0,0,0,1.28,1.56.48.48,0,0,0,.65.08,7.73,7.73,0,0,1,.75-.4,5.83,5.83,0,0,0,1.38-.92c.2-.16.22-.28.07-.49a5.58,5.58,0,0,0-.56-.64,4,4,0,0,0-1.76-.87Zm30,24-.19-1c-.08-.46-.14-.93-.23-1.4-.05-.28-.09-.3-.38-.3h-.73a2.4,2.4,0,0,0-1.63.63.65.65,0,0,0-.28.6,1.71,1.71,0,0,0,1.39,1.49c.17,0,.34.08.52.1A4.49,4.49,0,0,0,62.26,46.54Zm7.5-23.29-.61-.42L67.86,22l-1-.7L65.19,20.2c-.4-.27-.81-.52-1.21-.81-.24-.18-.29-.19-.51,0s-.48.44-.71.67a2.94,2.94,0,0,0-.19.29,4.68,4.68,0,0,0,1.41,0,3.11,3.11,0,0,1,.32,0c.25,0,.37.15.29.4a2.41,2.41,0,0,1-.15.33c0,.1-.08.21-.13.36l1.18-.15c.45,0,.57.06.55.51,0,.27,0,.54,0,.81s.07.38.38.38a5.85,5.85,0,0,0,.73,0c.22,0,.43-.07.65-.08s.4,0,.41.38c0,.14,0,.29,0,.47A4.29,4.29,0,0,0,69.76,23.25ZM31,71h0c0,.28,0,.57,0,.85s.07.33.35.35c.51,0,1,0,1.54,0,.33,0,.42-.09.47-.43s.11-.69.15-1a.7.7,0,0,0,0-.25c0-.19-.1-.29-.31-.27h-.37L31.4,70c-.24,0-.3,0-.32.3S31.05,70.75,31,71ZM65.47,34.58l-.2-.13a11,11,0,0,1-2.12-.9c-.17-.1-.28,0-.36.14a2.75,2.75,0,0,0-.26,1.74.6.6,0,0,0,.42.5,1.06,1.06,0,0,0,.8,0,4,4,0,0,0,1.48-1A2.5,2.5,0,0,0,65.47,34.58Zm-15,9.71a.72.72,0,0,0,0-.19,5,5,0,0,1,.1-1.77c0-.1.07-.23,0-.31s0-.36.12-.51l.17-.24a2.12,2.12,0,0,0-.87-.2.56.56,0,0,0-.67.4,5.68,5.68,0,0,0-.32,2.35.46.46,0,0,0,.33.47A1.57,1.57,0,0,0,50.51,44.29Zm20.29,41-.52,0c-.38,0-.76,0-1.14,0s-.46.08-.49.4c-.06.48-.09,1-.13,1.46a.24.24,0,0,0,.22.29c.36.05.72.12,1.08.15s.37,0,.47-.32c.18-.55.34-1.11.51-1.67A1,1,0,0,0,70.8,85.26ZM56.15,83.12c-.16.17-.28.29-.39.43-.33.45-.65.92-1,1.38-.45.62-.44.61.19,1,.42.29.63.19,1-.08a1.34,1.34,0,0,0,.2-.21c.31-.4.63-.8.93-1.22a.3.3,0,0,0,0-.29C56.79,83.82,56.49,83.5,56.15,83.12Zm-28-16.6c-.72,0-1.41,0-2.09,0-.29,0-.35,0-.44.29s-.15.52-.22.78-.05.35.23.4q.82.15,1.68.24c.32,0,.45-.09.54-.43S28,67,28.14,66.52ZM36.2,43.05l-1,.45c-.29.13-.32.31-.06.5s.79.57,1.19.85a1.87,1.87,0,0,0,.38.24.31.31,0,0,0,.25,0c.05,0,.06-.15.06-.22a.77.77,0,0,0-.08-.19c-.18-.42-.37-.84-.57-1.25A3.6,3.6,0,0,0,36.2,43.05Zm39-16.25c-.43-.17-.7-.59-1.2-.69a4.85,4.85,0,0,0,0,1.32A2.64,2.64,0,0,0,75.24,26.8ZM70.78,24a1.83,1.83,0,0,0,.26.9,2,2,0,0,0,.82-.35A1.74,1.74,0,0,0,70.78,24ZM24.14,37.17s-.07.07-.07.09,0,.05.06.08.07-.05.08-.08S24.17,37.21,24.14,37.17Z"/><path class="cls-4" d="M60.79,67.51a2.45,2.45,0,0,0,0,.49c0,.26.06.52.07.77,0,.49,0,.56-.52.52a18.6,18.6,0,0,1-2-.25c-1.34-.27-2.68-.56-4-.91-.93-.24-1.83-.58-2.74-.88l-.66-.19a3.43,3.43,0,0,1-.34-.17,2,2,0,0,1,.41-.13,4.81,4.81,0,0,0,1.76-.62,3.56,3.56,0,0,0,1.67-1.91,4,4,0,0,0,.16-.92c0-.27.09-.34.36-.27.68.19,1.35.38,2,.6a16.35,16.35,0,0,0,3.45.75c.94.08,1.88.21,2.82.33a9.88,9.88,0,0,0,2.43,0,6.11,6.11,0,0,0,2-.63.68.68,0,0,0,.38-.52c.32-1.43.64-2.86,1-4.28.18-.71.47-1.38.67-2.09.34-1.26.64-2.52,1-3.78a2.73,2.73,0,0,0,0-.41c0-.18.05-.37.07-.58a1.7,1.7,0,0,1,.31.06,8.09,8.09,0,0,1,1.66.84c.48.33,1,.61,1.48.93a10,10,0,0,1,2.3,2.16,8.55,8.55,0,0,1,1.15,1.95,3.23,3.23,0,0,1,.23,1.56,16.79,16.79,0,0,1-1.84,6.82c-.29.57-.55,1.15-.86,1.71a11.05,11.05,0,0,1-2.8,3.29,26.6,26.6,0,0,1-2.57,1.64,6.33,6.33,0,0,0-1.41,1,1.63,1.63,0,0,0-.38.57,2.26,2.26,0,0,1-.53.9c-.88,1-1.73,2-2.67,2.85a18.93,18.93,0,0,1-2.37,2.1c-.35.24-.64.55-1,.81-.69.53-1.37,1-2.08,1.55a6.89,6.89,0,0,1-1,.53,1,1,0,0,1-1.4-.27L57,83.34c-.42-.47-.45-.59-.14-1.15s.59-1,.9-1.45.64-1,1-1.5.67-.95,1-1.42l1.79-2.37a2.87,2.87,0,0,1,.89-.88.42.42,0,0,0,0-.64,3.07,3.07,0,0,1-.25-.26A1.66,1.66,0,0,1,62,73.2a16.59,16.59,0,0,1-.5-1.93,2.51,2.51,0,0,1,0-1.36.29.29,0,0,0,0-.24,3.35,3.35,0,0,1-.25-1.5C61.15,67.88,61.14,67.86,60.79,67.51Z"/><path class="cls-4" d="M49,61.61c-.05.07-.06.1-.08.11-.51.22-1,.41-1.52.66a5.75,5.75,0,0,0-2.35,1.88c-.2.32-.29.33-.62.11a14,14,0,0,1-2.38-2.1c-.3-.31-.61-.61-.89-.94s-.21-.34.12-.52A12,12,0,0,0,43.68,59c.19-.18.2-.33,0-.49s-.24-.17-.38,0-.34.31-.5.48a7.24,7.24,0,0,1-2.31,1.48c-.14.06-.26.15-.4.21-.41.2-.82.41-1.25.57-1,.38-2.06.73-3.09,1.08a.85.85,0,0,1-.32,0c-.35,0-.36,0-.38.36a8.19,8.19,0,0,1-.16,1.78c-.2.8-.41,1.6-.61,2.4-.13.48-.26,1-.38,1.45s-.19.71-.3,1.06-.23.36-.56.31c-.53-.08-1.83,0-2.11-.62a1.4,1.4,0,0,1-.08-.67c0-.76.31-5.07.35-5.68a24.29,24.29,0,0,1,2-5.26c.2-.34.53-.65.69-1,.55-1.19,2.49-4.05,2.67-4.35a.53.53,0,0,0,.06-.1,12.45,12.45,0,0,1,.63-1.67,1.29,1.29,0,0,0,.13-.82.16.16,0,0,1,0-.12c.19-.2.12-.43.12-.65,0-.38.15-.46.48-.26s.54.37.82.53a10.91,10.91,0,0,0,3.53,1.31,17.91,17.91,0,0,0,3.43.36h1.37a1.08,1.08,0,0,1,.25,0,7,7,0,0,1-.16,1c-.17.57-.4,1.12-.58,1.69s-.46,1.42-.63,2.14a13,13,0,0,0-.56,3.56.43.43,0,0,1,0,.16.86.86,0,0,0,.43,1c.37.25.78.45,1.17.66l.55.25a2.92,2.92,0,0,0,1.1.4A1.52,1.52,0,0,1,49,61.61Z"/><path class="cls-5" d="M77.3,56.34a3.17,3.17,0,0,1,1.42-.86,10.56,10.56,0,0,1,4.51-.21,12.74,12.74,0,0,1,3.46,1.12A15,15,0,0,1,90,58.45a8.23,8.23,0,0,0,2.29,1.2,8.42,8.42,0,0,0,2.62.57c.82,0,1.65,0,2.48,0a4.9,4.9,0,0,0,.89-.24c.54-.14,1.08-.27,1.61-.42s.91-.27,1.36-.41a1.7,1.7,0,0,1,1,0c0,.2-.13.21-.24.24a14.74,14.74,0,0,1-1.94.55,2.89,2.89,0,0,0-.86.35c-.16.07-.19.3-.12.51s.18.28.4.23a1.07,1.07,0,0,0,.27-.09,15.75,15.75,0,0,1,2.21-.8l.65-.23.48-.16a1.44,1.44,0,0,1-.1.27,11.08,11.08,0,0,1-1.42,2,4.28,4.28,0,0,1-.83.64c-.29.18-.63.3-1,.47,0,0,0,0,0,0a.58.58,0,0,0,.13.6c.19.17.41.05.6-.06l1-.49a.66.66,0,0,1,0,.21,7,7,0,0,1-2.31,2.94,8.21,8.21,0,0,1-2.9,1.32l-.35.11a12.52,12.52,0,0,1-2.68.67,5.4,5.4,0,0,1-2.52-.3,12.64,12.64,0,0,1-1.42-.61c-.83-.42-1.64-.89-2.48-1.29a6.4,6.4,0,0,1-2-1.85,12.51,12.51,0,0,1-1.51-2.45,5,5,0,0,0-.56-.88c-.45-.56-.9-1.13-1.4-1.64a6.92,6.92,0,0,0-2.06-1.49,5.65,5.65,0,0,0-1-.26.4.4,0,0,1-.36-.2C77.7,57,77.51,56.72,77.3,56.34Z"/><path class="cls-6" d="M54.45,62.39c0-.48-.31-3.63-.27-4.1,0-.12,0-.24,0-.36,0-.3,0-.6,0-.89v-.69c0-1,0-1.9,0-2.85,0-.38-.08-.75-.1-1.13a.51.51,0,0,1,.1-.32s.19,0,.29.07l.42.22c.44.21.87.44,1.33.62.77.29,1.56.54,2.33.82a17.06,17.06,0,0,0,2.85,1,6.82,6.82,0,0,0,3.53,0A5.31,5.31,0,0,0,68,52.33a.53.53,0,0,1,.57-.34c.34,0,.68,0,1,.07s.57.25.56.69a4.24,4.24,0,0,1-.11.88c-.41,1.51-.79,3-1.26,4.51-.29.94-.55,1.9-.75,2.86-.15.71-.32,1.4-.5,2.1a1,1,0,0,1-.61.61,6,6,0,0,1-2,.49,11.48,11.48,0,0,1-2.27-.09c-1.28-.15-2.56-.3-3.82-.51-.72-.13-1.42-.38-2.12-.57-.24-.06-.48-.11-.71-.19C55.54,62.69,54.86,62.54,54.45,62.39Z"/><path class="cls-7" d="M63.9,20.87l-.37.66c-.05.08-.13.16-.13.24a.55.55,0,0,0,.08.37c.06.07.23.06.33,0,.39-.11.77-.26,1.15-.39l.2,0a.27.27,0,0,1,.35.25c0,.19,0,.38,0,.57s.08.45.13.67a.31.31,0,0,0,.36.26l.93-.08c.12,0,.24,0,.36,0s.31.05.35.3,0,.24,0,.36c.06.28.16.34.43.26l1.57-.44.22,0a2.55,2.55,0,0,1,.56,1.24c.12.75.22.8.87.42.15-.09.32-.15.46-.25a4.54,4.54,0,0,0,.38-.38s0,0,0,0c.19.38.6.43.91.63l.53.34a4.1,4.1,0,0,0,0,2.36.78.78,0,0,0,.26,0c.51-.25,1-.5,1.51-.79a1.32,1.32,0,0,0,.39-.39.6.6,0,0,1,.71-.25,2,2,0,0,1,1,.87.9.9,0,0,1-.14,1,2.75,2.75,0,0,1-1.78,1.1l-.57.09c-.31.05-.4.18-.47.5a3,3,0,0,1-.28.7,6,6,0,0,1-1.24,1.51,10.59,10.59,0,0,1-1.4,1.1,5.61,5.61,0,0,1-1.81.69,7,7,0,0,1-3.7-.18c-.53-.15-1.07-.29-1.59-.48a7.34,7.34,0,0,1-1-.47,9.52,9.52,0,0,1-1.65-1,5.93,5.93,0,0,1-1.77-2.23A7.21,7.21,0,0,1,59.7,27c0-.6,0-1.21,0-1.82a5.32,5.32,0,0,1,.68-2.23,11.67,11.67,0,0,1,1.07-1.68.81.81,0,0,1,.77-.34,11.61,11.61,0,0,0,1.18,0Zm3.95,9.34a1.33,1.33,0,0,1,0-.2c0-.12.06-.27-.1-.31s-.19,0-.28.07c-.28.16-.55.34-.84.49a3.45,3.45,0,0,1-.64.22c-.16,0-.34,0-.51.06s-.39.11-.58.16a1.35,1.35,0,0,1-1.5-.54,2.26,2.26,0,0,0-.23-.29c-.05-.06-.15-.07-.26-.11a1.36,1.36,0,0,0,.53,1.06,1.75,1.75,0,0,0,1.71.47,4.14,4.14,0,0,0,1.57-.64.21.21,0,0,1,.11,0C67.22,30.62,67.5,30.36,67.85,30.21Zm-2.42-2.76c0-.37,0-.42-.31-.48a4,4,0,0,1-.7-.18c-.31-.11-.34-.3-.07-.49s.45-.25.66-.39a.42.42,0,0,0,.19-.23.35.35,0,0,0-.15-.26.39.39,0,0,0-.3,0c-.34.23-.67.46-1,.71a.47.47,0,0,0-.11.29.77.77,0,0,0,.27.65A1.87,1.87,0,0,0,65.43,27.45Zm5.07-1.06c0-.17-.08-.3-.13-.43a2.39,2.39,0,0,1-.15-.37c-.07-.37-.36-.56-.61-.78a.41.41,0,0,0-.3-.09c-.4.11-.8.23-1.19.37a.22.22,0,0,0-.1.34c.08.15.21.15.35.08l.27-.17a.77.77,0,0,1,1.16.33,2.29,2.29,0,0,1,.12.59c0,.16,0,.32.06.48a.17.17,0,0,0,.31.08A2.13,2.13,0,0,0,70.5,26.39Zm-5.37-2.6a1.54,1.54,0,0,0-.49-1,.66.66,0,0,0-.46-.11,5.57,5.57,0,0,0-.79.17,1.14,1.14,0,0,0-.4.19.34.34,0,0,0-.05.28c0,.11.15.14.27.07a.88.88,0,0,1,.21-.12,3.12,3.12,0,0,1,.73-.18c.38,0,.51.12.57.49,0,.13,0,.27.06.4a.27.27,0,0,0,.18.12s.11-.07.14-.13A.65.65,0,0,0,65.13,23.79Z"/><path class="cls-8" d="M78.87,21.56a6.48,6.48,0,0,1-1,3.48c-.16.27-.32.53-.49.79s-.16.22-.24.33a.28.28,0,0,1-.36.11,1.38,1.38,0,0,0-.94,0,.88.88,0,0,1-.59-.08,5.87,5.87,0,0,1-1.53-1c-.06-.05-.07-.14-.12-.2a2,2,0,0,0-.66-.59c-.8-.42-1.58-.89-2.36-1.35-.42-.25-.82-.53-1.23-.79-1.06-.68-2.16-1.29-3.15-2.07-.35-.27-.77-.46-1.14-.71s-.64-.45-1-.67l-.9-.63L62,17.37a1,1,0,0,1-.23-.22.32.32,0,0,1,.16-.52,1.36,1.36,0,0,1,.48-.09c.46,0,.91.11,1.37.18a2.68,2.68,0,0,1,.27.07.31.31,0,0,0,.41-.22,1.1,1.1,0,0,1,.39-.44,5.36,5.36,0,0,1,1.31-.71,4.09,4.09,0,0,0,.7-.33A7,7,0,0,1,69,14.45a10.9,10.9,0,0,1,5,.3,5.47,5.47,0,0,1,2.61,1.5,8,8,0,0,1,1.7,2.59,5.62,5.62,0,0,0,.25.56A6,6,0,0,1,78.87,21.56Z"/><path class="cls-4" d="M26.11,35.25l.56-.6c1.27-1.3,2.54-2.6,3.79-3.92a1.15,1.15,0,0,1,.94-.37,16,16,0,0,1,1.7.13,11.83,11.83,0,0,1,1.53.39,14.29,14.29,0,0,1,1.83.55c.79.34,1.55.76,2.32,1.15a7.4,7.4,0,0,1,1.58,1.06,4.38,4.38,0,0,1,1.5,2.12c.16.62.25,1.24.38,1.86a.9.9,0,0,1-.45,1c-.31.21-.59.47-.89.69l-1.27.88-1.13.71c-.34.2-.69.38-1,.57L35,43c-.2.11-.4.22-.6.31a.33.33,0,0,1-.48-.34A5.33,5.33,0,0,0,33,39.6a7.24,7.24,0,0,0-1.36-1.55c-.47-.44-1-.81-1.53-1.21l-.31-.25a1.74,1.74,0,0,0-.47-.31c-.6-.17-1.13-.53-1.71-.73-.32-.1-.66-.14-1-.21ZM37.44,37c.44,0,.63-.12,1-.61.12-.18.22-.37.07-.56s-.33-.4-.64-.35a1,1,0,0,0-.8,1.23C37.12,36.94,37.15,37,37.44,37ZM30.32,32.3a.44.44,0,0,0,.24.43c.16.09.34.17.5,0a2,2,0,0,0,.45-.51.46.46,0,0,0,0-.36,2.12,2.12,0,0,0-.33-.41.27.27,0,0,0-.37,0A1.15,1.15,0,0,0,30.32,32.3Z"/><path class="cls-5" d="M38.7,29.09a1.7,1.7,0,0,1,.29-.2c.51-.26,1-.5,1.52-.76.2-.09.24-.24.14-.39a.31.31,0,0,0-.47,0,4.54,4.54,0,0,1-1.54.88,6.2,6.2,0,0,1-2.38.39,13.75,13.75,0,0,1-2.79-.28,4.16,4.16,0,0,1-2.23-1.09s0,0-.06-.06S31,27.3,31,27.2s.22-.16.37-.16A3.79,3.79,0,0,0,33,26.77a9.47,9.47,0,0,0,2.22-1.18,11.92,11.92,0,0,1,3-1.59,11.07,11.07,0,0,1,2.59-.66,4.08,4.08,0,0,1,1.92.23,1.53,1.53,0,0,0,1,.15.66.66,0,0,1,.46.2,4,4,0,0,1,.67.81,4,4,0,0,1,.33.95,3.81,3.81,0,0,1-.11,2.09c-.22.64-.42,1.29-.59,1.94a4.35,4.35,0,0,1-1.35,2.22c-.2.17-.37.36-.57.53s-.36.19-.48-.11a2.6,2.6,0,0,1-.2-1.82c.09-.32.15-.66.24-1a5.55,5.55,0,0,1,.24-.64.3.3,0,0,0-.1-.42c-.19-.13-.41-.14-.51,0a1.1,1.1,0,0,1-.65.45c-.39.13-.77.25-1.17.36A1.56,1.56,0,0,1,38.7,29.09Z"/><path class="cls-4" d="M28.52,45.52a3.61,3.61,0,0,0-1.8.6c-.16-.26-.42-.14-.68-.13a5.66,5.66,0,0,1-2.12-.31,5.21,5.21,0,0,1-2.2-1.25,1.72,1.72,0,0,1-.57-1.78,0,0,0,0,0,0,0c-.07-.73.4-1.24.68-1.83a7.8,7.8,0,0,1,.46-.71.79.79,0,0,0,.15-.24c.09-.39.42-.62.63-.92s.61-.7.88-1.07a.47.47,0,0,1,.47-.23,1,1,0,0,1,.25,0,8.35,8.35,0,0,1,2.61.86c.35.21.71.4,1,.62a4.79,4.79,0,0,1,1,1,6.29,6.29,0,0,1,1.26,2.26,4.44,4.44,0,0,1,.1,1.45.61.61,0,0,1-.25.39,4.78,4.78,0,0,1-1.51.93A2.65,2.65,0,0,0,28.52,45.52Zm-1.93-2.37a.59.59,0,0,0-.68-.65,1.08,1.08,0,0,0-.68,1.09c0,.15.1.27.26.25a4.82,4.82,0,0,0,.85-.22A.46.46,0,0,0,26.59,43.15Zm-3.67-1.51,0,.24a.4.4,0,0,0,.6.34.82.82,0,0,0,.34-.37.71.71,0,0,0-.16-.82.33.33,0,0,0-.49-.09C23,41.09,23,41.38,22.92,41.64Z"/><path class="cls-4" d="M28.24,66.19c-.34-.3-1.94.11-2.49,0-.32-.1.57-6.49.62-6.74a.44.44,0,0,1,.05-.15c.28-.57.56-1.14.85-1.7a10.1,10.1,0,0,1,1.45-2.2,6.37,6.37,0,0,1,2.58-1.84,15.93,15.93,0,0,1,3.58-.9c.27,0,.54-.1.9-.17a2,2,0,0,1-.16.41c-.4.67-.8,1.33-1.22,2s-.78,1.14-1.15,1.72a4.94,4.94,0,0,0-.52,1,2.78,2.78,0,0,1-.68,1A16.44,16.44,0,0,1,29.86,60S28.37,65.8,28.24,66.19Z"/><path class="cls-9" d="M53.46,58.62c0,.79.31,3.26.33,3.37A10.28,10.28,0,0,1,54,63.06a1.64,1.64,0,0,1-.16,1,3.73,3.73,0,0,1-1,1.32,5.73,5.73,0,0,1-3.24,1c-.34,0-.68,0-1,.06A7,7,0,0,1,46.2,66a1.16,1.16,0,0,1-.72-.55.75.75,0,0,1,0-.87,5.47,5.47,0,0,1,2.14-1.7,5.69,5.69,0,0,1,1.72-.69,4.73,4.73,0,0,1,.65,0c.3,0,.47-.13.34-.4a2.22,2.22,0,0,1-.07-.67c0-.51-.13-1-.2-1.53,0-.2-.05-.4-.07-.6a.21.21,0,0,1,.25-.25.86.86,0,0,1,.16,0A6.41,6.41,0,0,0,53,58.63l.28,0S53.38,58.6,53.46,58.62Z"/><path class="cls-4" d="M73.19,72.14a7.08,7.08,0,0,1,.06,1.08c-.11,1.2-.22,2.41-.37,3.6-.1.81-.24,1.61-.41,2.41s-.38,1.36-.56,2a20.93,20.93,0,0,1-1,2.75.62.62,0,0,1-.61.44l-1.18,0a.27.27,0,0,1-.28-.29c0-.13,0-.27,0-.4,0-1.71,0-3.42,0-5.13,0-.15,0-.3,0-.45a18.67,18.67,0,0,1,.17-2.59A1.83,1.83,0,0,1,70.23,74c.55-.27,1.09-.56,1.61-.86.34-.2.65-.45,1-.68Z"/><path class="cls-10" d="M33.09,44.42a.79.79,0,0,1,.51-.31c.69-.23.69-.22,1.19.28a7.16,7.16,0,0,0,1.82,1.36c.38.2.73.45,1.12.65a12.33,12.33,0,0,0,1.42.68,15.27,15.27,0,0,0,1.74.55c1.17.3,2.34.59,3.51.85.71.16,1.44.28,2.16.39A14.13,14.13,0,0,0,48,49a14.49,14.49,0,0,0,3.48-.16,5.21,5.21,0,0,1,.69,0A6.49,6.49,0,0,0,54.37,48c.64-.34,1.3-.67,1.91-1.07s1.07-.82,1.61-1.24l.36-.28a3.7,3.7,0,0,1,.28.57.36.36,0,0,1-.13.3,9.56,9.56,0,0,1-.82.6,17.27,17.27,0,0,1-2.36,1.27c-.77.36-1.52.77-2.3,1.11a9.17,9.17,0,0,1-2.83.69c-.29,0-.59.07-.88.08-.91.05-1.82.14-2.72.11a21.48,21.48,0,0,1-3.75-.38A20.93,20.93,0,0,1,40.29,49a6.08,6.08,0,0,1-.61-.33s-.08-.08-.13-.08c-.37,0-.56-.37-.86-.52a10.28,10.28,0,0,1-.91-.53c-.3-.19-.59-.39-.89-.57-.46-.26-.94-.49-1.39-.76a9.22,9.22,0,0,1-2.34-1.73S33.12,44.46,33.09,44.42Z"/><path class="cls-5" d="M49.62,37.58c-.15.18-.25.31-.36.42s-.41.36-.6.55a.4.4,0,0,0,.13.71l.41.18.43.17a2.18,2.18,0,0,1-.17.4,6.18,6.18,0,0,0-.84,2.6,6.25,6.25,0,0,0,0,1.06c0,.45,0,.52-.46.4l-1.82-.56c-.25-.08-.32-.26-.28-.53a4,4,0,0,0,0-.6c0-.54,0-1.09,0-1.63s0-.94-.06-1.42-.06-1.11,0-1.66a12.78,12.78,0,0,0-.12-2.23c0-.17,0-.35-.06-.53,0-.36,0-.4.32-.54a2.18,2.18,0,0,1,1.13-.08c.66.07,1.31.19,2,.29l1.2.16a1.61,1.61,0,0,1-.82.93l-1.46.8c0,.39,0,.44.28.58s.48.19.71.29Z"/><path class="cls-10" d="M31.53,29.67a1.87,1.87,0,0,1,.64-.8c.07-.06.23,0,.34,0,.51.12,1,.28,1.5.36a12.85,12.85,0,0,0,3.61.12,1,1,0,0,1,.54.09,2.72,2.72,0,0,0,1.81.32l1.18-.3.45-.09a7.73,7.73,0,0,1-.18.89,3.09,3.09,0,0,0,.29,2.36c.1.2.2.42.31.61.23.38.5.38.74,0s.31-.32.52-.07a7.88,7.88,0,0,1,1.36,2,.4.4,0,0,1,0,.45c-.24.36-.49.72-.76,1s-.53.57-.85.92a4.16,4.16,0,0,1-.17-.48c-.19-.69-.35-1.39-.55-2.08a1.79,1.79,0,0,0-.34-.55,7.75,7.75,0,0,0-2.82-2.45l-1.6-.88a10,10,0,0,0-2.37-.84c-.81-.21-1.64-.38-2.46-.55a5.23,5.23,0,0,0-.68-.07Z"/><path class="cls-10" d="M31.39,44a3.27,3.27,0,0,1,0-.54A4.33,4.33,0,0,0,30.58,41c-.16-.25-.26-.56-.59-.65a.19.19,0,0,1-.06-.1,2.61,2.61,0,0,0-.73-1,6.76,6.76,0,0,0-3.05-1.63c-.5-.16-1-.28-1.58-.44a6.08,6.08,0,0,1,.37-.53c.19-.25.39-.48.58-.73a.67.67,0,0,1,.6-.26,6.28,6.28,0,0,1,1.91.51,9.29,9.29,0,0,1,3.09,2.13,10.41,10.41,0,0,1,1.1,1.19,4.59,4.59,0,0,1,1.06,2.84,5.4,5.4,0,0,1-.06.89.56.56,0,0,1-.37.49A3.07,3.07,0,0,1,31.39,44Z"/><path class="cls-6" d="M48.4,52c0,.68,0,1.35.09,2a8.33,8.33,0,0,0,.17.84c.07.45.12.91.21,1.36.14.66.2,1.34.38,2,.25.87.29,1.76.47,2.63a.49.49,0,0,1,0,.17c0,.2-.11.26-.3.2s-.49-.14-.73-.23a8.36,8.36,0,0,1-.83-.32c-.44-.21-.87-.44-1.31-.66a.85.85,0,0,1-.47-.94c0-.33.07-.65.12-1,.1-.61.18-1.23.34-1.83.34-1.26.74-2.5,1.1-3.74.14-.48.25-1,.37-1.46,0-.07,0-.15.06-.19a.41.41,0,0,1,.24-.11s.1.11.12.18a.88.88,0,0,1,0,.28V52Z"/><path class="cls-4" d="M45,34.76c-.14-.2-.27-.33-.36-.49A2.07,2.07,0,0,0,44,33.5a.59.59,0,0,1-.14-.23,2.18,2.18,0,0,0-.11-.27c-.28-.4-.27-.39.11-.78a5.25,5.25,0,0,0,1.07-1.62.44.44,0,0,1,.47-.3,28.67,28.67,0,0,1,3.82.19,2.31,2.31,0,0,1,.62.18.43.43,0,0,1,.23.69,3.15,3.15,0,0,1-.85,1,12.25,12.25,0,0,1-1.6,1,.66.66,0,0,1-.26.11,11.2,11.2,0,0,0-1.81.57.49.49,0,0,0-.43.52C45.14,34.55,45.08,34.62,45,34.76Z"/><path class="cls-4" d="M32.29,22.58l1,.23a4,4,0,0,1,1.76.87,5.58,5.58,0,0,1,.56.64c.15.21.13.33-.07.49a5.83,5.83,0,0,1-1.38.92,7.73,7.73,0,0,0-.75.4.48.48,0,0,1-.65-.08,7.1,7.1,0,0,1-1.28-1.56,1.09,1.09,0,0,1-.12-.47,7.12,7.12,0,0,1,.07-.92c0-.35.15-.44.5-.46h.37Z"/><path class="cls-7" d="M62.26,46.54a4.49,4.49,0,0,1-1.53.11c-.18,0-.35-.08-.52-.1a1.71,1.71,0,0,1-1.39-1.49.65.65,0,0,1,.28-.6,2.4,2.4,0,0,1,1.63-.63h.73c.29,0,.33,0,.38.3.09.47.15.94.23,1.4Z"/><path class="cls-11" d="M69.76,23.25a4.29,4.29,0,0,1-1.54.4c0-.18,0-.33,0-.47,0-.34-.06-.4-.41-.38s-.43.06-.65.08a5.85,5.85,0,0,1-.73,0c-.31,0-.37-.06-.38-.38s0-.54,0-.81c0-.45-.1-.56-.55-.51l-1.18.15c0-.15.09-.26.13-.36a2.41,2.41,0,0,0,.15-.33c.08-.25,0-.4-.29-.4a3.11,3.11,0,0,0-.32,0,4.68,4.68,0,0,1-1.41,0,2.94,2.94,0,0,1,.19-.29c.23-.23.48-.44.71-.67s.27-.19.51,0c.4.29.81.54,1.21.81l1.63,1.07,1,.7,1.29.86Z"/><path class="cls-9" d="M31,71c0-.22,0-.44,0-.65s.08-.32.32-.3l1.48.18h.37c.21,0,.3.08.31.27a.7.7,0,0,1,0,.25c0,.35-.09.69-.15,1s-.14.43-.47.43c-.52,0-1,0-1.54,0-.28,0-.33-.07-.35-.35s0-.57,0-.85Z"/><path class="cls-7" d="M65.47,34.58a2.5,2.5,0,0,1-.24.34,4,4,0,0,1-1.48,1,1.06,1.06,0,0,1-.8,0,.6.6,0,0,1-.42-.5,2.75,2.75,0,0,1,.26-1.74c.08-.16.19-.24.36-.14a11,11,0,0,0,2.12.9Z"/><path class="cls-7" d="M50.51,44.29a1.57,1.57,0,0,1-1.09,0,.46.46,0,0,1-.33-.47,5.68,5.68,0,0,1,.32-2.35.56.56,0,0,1,.67-.4,2.12,2.12,0,0,1,.87.2l-.17.24c-.12.15-.24.29-.12.51s0,.21,0,.31a5,5,0,0,0-.1,1.77A.72.72,0,0,1,50.51,44.29Z"/><path class="cls-9" d="M70.8,85.26a1,1,0,0,1,0,.25c-.17.56-.33,1.12-.51,1.67-.1.32-.15.36-.47.32s-.72-.1-1.08-.15a.24.24,0,0,1-.22-.29c0-.49.07-1,.13-1.46,0-.32.17-.41.49-.4s.76,0,1.14,0Z"/><path class="cls-9" d="M56.15,83.12c.34.38.64.7.92,1a.3.3,0,0,1,0,.29c-.3.42-.62.82-.93,1.22a1.34,1.34,0,0,1-.2.21c-.34.27-.55.37-1,.08-.63-.42-.64-.41-.19-1,.34-.46.66-.93,1-1.38C55.87,83.41,56,83.29,56.15,83.12Z"/><path class="cls-9" d="M28.14,66.52c-.11.45-.19.87-.3,1.28s-.22.46-.54.43q-.86-.09-1.68-.24c-.28,0-.3-.12-.23-.4s.14-.52.22-.78.15-.3.44-.29C26.73,66.53,27.42,66.52,28.14,66.52Z"/><path class="cls-11" d="M75.24,26.8a2.64,2.64,0,0,1-1.22.63,4.85,4.85,0,0,1,0-1.32C74.54,26.21,74.81,26.63,75.24,26.8Z"/><path class="cls-11" d="M70.78,24a1.74,1.74,0,0,1,1.08.55,2,2,0,0,1-.82.35A1.83,1.83,0,0,1,70.78,24Z"/><path class="cls-12" d="M67.85,30.21c-.35.15-.63.41-1,.4a.21.21,0,0,0-.11,0,4.14,4.14,0,0,1-1.57.64,1.75,1.75,0,0,1-1.71-.47,1.36,1.36,0,0,1-.53-1.06c.11,0,.21,0,.26.11a2.26,2.26,0,0,1,.23.29,1.35,1.35,0,0,0,1.5.54c.19-.05.38-.12.58-.16s.35,0,.51-.06a3.45,3.45,0,0,0,.64-.22c.29-.15.56-.33.84-.49.09,0,.2-.1.28-.07s.11.19.1.31A1.33,1.33,0,0,0,67.85,30.21Z"/><path class="cls-12" d="M65.43,27.45a1.87,1.87,0,0,1-1.51-.38.77.77,0,0,1-.27-.65.47.47,0,0,1,.11-.29c.32-.25.65-.48,1-.71a.39.39,0,0,1,.3,0,.35.35,0,0,1,.15.26.42.42,0,0,1-.19.23c-.21.14-.46.24-.66.39s-.24.38.07.49a4,4,0,0,0,.7.18C65.4,27,65.44,27.08,65.43,27.45Z"/><path class="cls-12" d="M70.5,26.39a2.13,2.13,0,0,1-.21.43.17.17,0,0,1-.31-.08c0-.16,0-.32-.06-.48a2.29,2.29,0,0,0-.12-.59.77.77,0,0,0-1.16-.33l-.27.17c-.14.07-.27.07-.35-.08a.22.22,0,0,1,.1-.34c.39-.14.79-.26,1.19-.37a.41.41,0,0,1,.3.09c.25.22.54.41.61.78a2.39,2.39,0,0,0,.15.37C70.42,26.09,70.45,26.22,70.5,26.39Z"/><path class="cls-12" d="M65.13,23.79a.65.65,0,0,1,0,.22c0,.06-.1.13-.14.13a.27.27,0,0,1-.18-.12c0-.13,0-.27-.06-.4-.06-.37-.19-.51-.57-.49a3.12,3.12,0,0,0-.73.18.88.88,0,0,0-.21.12c-.12.07-.23,0-.27-.07a.34.34,0,0,1,.05-.28,1.14,1.14,0,0,1,.4-.19,5.57,5.57,0,0,1,.79-.17.66.66,0,0,1,.46.11A1.54,1.54,0,0,1,65.13,23.79Z"/><path class="cls-9" d="M37.44,37c-.29,0-.32,0-.4-.29a1,1,0,0,1,.8-1.23c.31-.05.48.15.64.35s.05.38-.07.56C38.07,36.85,37.88,37,37.44,37Zm.09-.64a.57.57,0,0,0,.11-.12s0-.05,0-.08a.48.48,0,0,0-.11.09S37.5,36.28,37.53,36.33Z"/><path class="cls-9" d="M30.32,32.3a1.15,1.15,0,0,1,.46-.83.27.27,0,0,1,.37,0,2.12,2.12,0,0,1,.33.41.46.46,0,0,1,0,.36,2,2,0,0,1-.45.51c-.16.13-.34,0-.5,0A.44.44,0,0,1,30.32,32.3Z"/><path class="cls-9" d="M26.59,43.15a.46.46,0,0,1-.25.47,4.82,4.82,0,0,1-.85.22c-.16,0-.23-.1-.26-.25a1.08,1.08,0,0,1,.68-1.09A.59.59,0,0,1,26.59,43.15Z"/><path class="cls-9" d="M22.92,41.64c0-.26,0-.55.32-.7a.33.33,0,0,1,.49.09.71.71,0,0,1,.16.82.82.82,0,0,1-.34.37.4.4,0,0,1-.6-.34Z"/><path class="cls-13" d="M37.53,36.33s-.06-.1-.05-.11a.48.48,0,0,1,.11-.09s.06.07,0,.08A.57.57,0,0,1,37.53,36.33Z"/><path class="cls-8" d="M56.82,48.1l-.59.29c-.52.23-1,.5-1.53.75a19.63,19.63,0,0,1-1.8.84,12,12,0,0,1-1.76.46c-.59.11-1.18.16-1.77.23-.26,0-.37.11-.37.35,0,.65,0,1.3,0,1.95s.1,1.34.15,2c0,0,0,.09,0,.11.29.34.23.77.3,1.16s.15.85.24,1.28c.06.25.16.48.47.54a6.07,6.07,0,0,0,3-.14.58.58,0,0,0,.45-.52c0-.13,0-.27,0-.4,0-.51,0-1,0-1.54a22.08,22.08,0,0,0-.2-3.25,6.66,6.66,0,0,1-.12-.76c0-.32.16-.45.46-.34l.11,0,1.8.85a9.2,9.2,0,0,0,2.42.91,2.05,2.05,0,0,1,.38.16c.21.09.41.21.63.28.75.25,1.51.5,2.28.72a6.41,6.41,0,0,0,2.09.2,5.6,5.6,0,0,0,2.63-.91,3.37,3.37,0,0,0,1.24-1.3c-.22-.36-.22-.36-.48-.39-.59-.06-1.18-.14-1.78-.19A11.55,11.55,0,0,1,62,50.82c-1-.38-1.94-.76-2.9-1.17a14.13,14.13,0,0,1-1.41-.8Z"/><path class="cls-4" d="M53.12,45.43c-.45-.11-1.33-.32-1.77-.44a1.93,1.93,0,0,0-.47-.08c-.27,0-.54,0-.81,0a5,5,0,0,1-2-.42A5.88,5.88,0,0,0,46.19,44c-.85-.06-.69-.23-.7-.79,0-1.07,0-2.14,0-3.21,0-.77-.07-1.55-.09-2.32,0-.47,0-1,0-1.42a2.94,2.94,0,0,0-.08-.43,3.57,3.57,0,0,0-.28.28,12.75,12.75,0,0,1-.81,1.12,16.73,16.73,0,0,1-1.6,1.55c-.77.64-1.57,1.25-2.4,1.81s-1.69,1-2.53,1.54c-.29.18-.57.39-.87.59.1.17.19.29.26.42.17.33.35.66.5,1s.13.5.22.74a.91.91,0,0,1,0,.74,3.41,3.41,0,0,0,.64.49,17,17,0,0,0,2.16.81,40,40,0,0,0,6.31,1.35c.6.06,1.19.09,1.78.13.23,0,.36-.09.46-.32A5.77,5.77,0,0,1,49.72,47a3,3,0,0,1,1.87-1,21.06,21.06,0,0,1,2.1-.23"/><path class="cls-14" d="M54.9,47.09A15.48,15.48,0,0,0,56.56,46a5,5,0,0,0,1.8-1.84.65.65,0,0,1,.13-.16,3,3,0,0,1,1.87-.87c.38,0,.76,0,1.14,0,.56,0,1.13-.12,1.69-.18a13.88,13.88,0,0,0,2.56-.46,1.08,1.08,0,0,0,.87-.76c0-.15.11-.3.15-.46.09-.31.15-.62.25-.93a4.39,4.39,0,0,0,.19-1.44c0-.59,0-1.19.05-1.78,0-.13.06-.28.23-.3s.27.15.29.34a1,1,0,0,1,0,.24c0,.16,0,.32,0,.48,0,.75,0,1.49,0,2.24a1.89,1.89,0,0,1-.11.47c-.06.23-.15.46-.22.69a12.14,12.14,0,0,0-.36,1.17.76.76,0,0,1-.6.58c-.75.18-1.5.36-2.26.51-.44.09-.89.11-1.33.19s-.47.21-.42.51c.12.72.25,1.44.38,2.16,0,.29.1.35.4.36.59,0,1.19,0,1.78,0s.94-.11,1.41-.15a1.37,1.37,0,0,0,.88-.37c.17-.19.37-.36.54-.55.65-.71,1.3-1.42,1.93-2.14.35-.4.67-.82,1-1.24A4.16,4.16,0,0,0,71.82,40a8.52,8.52,0,0,0-.31-3.37c-.2-.61-.44-1.21-.67-1.87-.09,0-.22,0-.35.08a5.23,5.23,0,0,1-1.76.23h-.16a4.43,4.43,0,0,1-1.88-.23c-.13,0-.27-.06-.4-.09a.31.31,0,0,0-.37.18,3.57,3.57,0,0,1-1.26,1.3,2.33,2.33,0,0,1-1.29.44,1,1,0,0,1-1-.44,2.07,2.07,0,0,1-.28-.75,3.3,3.3,0,0,1,.25-1.91,3.81,3.81,0,0,0,.14-.44,1.25,1.25,0,0,0-.31,0,5,5,0,0,0-3,1.12,13.06,13.06,0,0,0-2.36,2.62,37.37,37.37,0,0,0-2.63,4,1.39,1.39,0,0,1-1.68.72,1.75,1.75,0,0,0-.4,0,.72.72,0,0,0-.67.37,3.2,3.2,0,0,0-.35,1.89.75.75,0,0,0,.57.71l1.14.42,1.27.36c.31-.59.7-1.13,1-1.7.49-.8,1-1.58,1.47-2.39s1-1.81,1.49-2.71a4.14,4.14,0,0,1,.53-.66c.06-.06.22-.1.27-.06A.35.35,0,0,1,59,38a1.22,1.22,0,0,1-.18.36c-.09.15-.2.29-.29.44-.49.91-1,1.83-1.47,2.72q-1.24,2.1-2.56,4.14a.76.76,0,0,0,0,.83Z"/><path class="cls-14" d="M58,48.32c.09,0,.18.13.27.19a7.51,7.51,0,0,0,1.69.87l1.07.38c.78.27,1.55.55,2.34.81A11.77,11.77,0,0,0,65.9,51c.46,0,.92.06,1.38.11a.48.48,0,0,0,.48-.24c.17-.28.35-.55.5-.84a23.09,23.09,0,0,0,1.25-2.42c.46-1.15.81-2.35,1.2-3.54.07-.22.11-.45.16-.68l-.08,0-.21.26c-.39.49-.76,1-1.17,1.46s-1.07,1.12-1.59,1.69a1.81,1.81,0,0,1-1.47.65c-.34,0-.68,0-1,0s-.9.09-1.34.08a3.58,3.58,0,0,1-1.49-.15.9.9,0,0,0-.4,0c-.19,0-.37,0-.56.06a3.27,3.27,0,0,1-2.35-.6.28.28,0,0,0-.37,0,1.88,1.88,0,0,0-.23.16c-.36.27-.73.53-1.11.76Z"/></g></svg>