<svg xmlns="http://www.w3.org/2000/svg" viewBox="0 0 120 120"><defs><style>.cls-1{fill:#d2cfc3;}.cls-2{fill:#2e3659;}.cls-3{fill:#fff;}.cls-4{fill:#ea5e4c;}.cls-5{fill:#8a5f50;}.cls-6{fill:#4d4d4d;}</style></defs><g id="レイヤー_1" data-name="レイヤー 1"><path class="cls-1" d="M108.3,107.93c-.74.73-1.5,1.43-2.27,2.13a29.35,29.35,0,0,1-6.37,4.6c-17.6,8.68-39.35,4.21-58.11,4-8.33-.06-22.92-1.52-28.07-9C7.87,101.62.68,92.83.27,82.71-.08,74,0,65.19.08,56.43c.13-11.84.28-21,8.31-30.73,5.23-6.32,11.93-11.25,18.55-16.11A40.23,40.23,0,0,1,35.58,4.3C42.51,1.53,50.3,2.79,57.74,2.22,63.43,1.79,69,.27,74.72,0c12-.51,32.15,7,37,18.81,6.36,15.55,8,32.53,8.25,49.19.12,9,.55,21.43-3.64,29.54A40.79,40.79,0,0,1,108.3,107.93Z"/><path class="cls-2" d="M68.6,76a3.78,3.78,0,0,0-.36-.6,7.79,7.79,0,0,1-1.19-1.9,5.26,5.26,0,0,1-.43-4c.34-1.09.14-1.9.94-2.8a18.61,18.61,0,0,1,2.54-2.13,12.72,12.72,0,0,1,1.59-1c.31-.18.63-.33,1.06-.55-.48-.38-.85-.7-1.24-1a12,12,0,0,1-1.92-2,6.45,6.45,0,0,1-1.5-4.3,1.29,1.29,0,0,0-.1-.51A5,5,0,0,1,67.86,53a7.78,7.78,0,0,1,.61-2.49,6,6,0,0,1,2.8-3.29,11.45,11.45,0,0,1,3.64-1.28,5.2,5.2,0,0,0,.67-.21,3.39,3.39,0,0,0,.09-.74,12.46,12.46,0,0,1,.42-3.33c.13-.72.32-1.43.51-2.14.1-.42.28-.75.8-.81.22,0,.42-.26.62-.42a.74.74,0,0,1,1.18.06,1.45,1.45,0,0,0,.43.36,11.4,11.4,0,0,0,2,.83,32.66,32.66,0,0,1,3.39,1.25c.73.26,1.47.51,2.19.79a.69.69,0,0,1,.44,1c-.31.88-.6,1.75-.91,2.63-.38,1.07-.78,2.15-1.17,3.23.37.65.78,1.33,1.14,2a3.6,3.6,0,0,1,.38,1.93c-.09,1.18-.22,2.35-.31,3.52a4.4,4.4,0,0,1-.71,2.19,29.08,29.08,0,0,1-1.65,2.54,6.12,6.12,0,0,1-2.08,1.9,3.85,3.85,0,0,0-.38.23l.08.18c.44.12.89.27,1.34.35a2.94,2.94,0,0,1,1.29.57,9.91,9.91,0,0,0,1,.61c.39.23.77.48,1.17.68.86.44,1.27.28,1.67,1.06a9.37,9.37,0,0,1,.45,2.6,6.76,6.76,0,0,1,0,1.62c-.08.61-.25,1.22-.38,1.83a5.16,5.16,0,0,1-.43,1.47,7,7,0,0,0-.28.92,2.42,2.42,0,0,1-.27.5c-.29.43-.26.58.22.78a1.83,1.83,0,0,0,1.72,0,5.55,5.55,0,0,1,2.16-.54,3.43,3.43,0,0,1,2.23.54c.29.21.67.24.91.57.08.1.4.06.6,0,.66-.12,1.31-.3,2-.39a5.53,5.53,0,0,1,3.46.51,7.17,7.17,0,0,1,2.16,1.7,3.92,3.92,0,0,1,.56,1.34.42.42,0,0,1-.39.56.5.5,0,0,1-.56-.41,4.91,4.91,0,0,0-.1-.77,1.83,1.83,0,0,0-.9-1,6.21,6.21,0,0,0-2-1,6.61,6.61,0,0,0-1.45-.22,4.31,4.31,0,0,0-2.69.78c-.32.26-.51.2-.77-.12A3.65,3.65,0,0,0,91,76.45a2.39,2.39,0,0,0-1.56.85.49.49,0,0,1-.65.11,7.82,7.82,0,0,1-.72-.45,1.31,1.31,0,0,0-1.76,0c-.23.17-.44.36-.67.52s-.62.39-.92.58l-.18.09a1.94,1.94,0,0,0-1.23,2.24,1.76,1.76,0,0,1,0,.51.84.84,0,0,1-.16.31c-.1-.06-.28-.11-.3-.19a8,8,0,0,1-.22-1.19c0-.42-.07-.51-.49-.47s-1,.2-1.53.26a13.42,13.42,0,0,1-3.16.27,14.12,14.12,0,0,1-1.69-.36,16.39,16.39,0,0,1-1.7-.46,26.12,26.12,0,0,1-2.57-1,21.34,21.34,0,0,1-1.87-1.15.54.54,0,0,0-.24-.09,3.61,3.61,0,0,0-3.31,1.5c-.52.81-.72.83-1.39.1a3,3,0,0,0-3.49-.69,5.91,5.91,0,0,0-1.17.67.79.79,0,0,1-.9.11A4.91,4.91,0,0,0,56,78.15a5.48,5.48,0,0,0-2.71,1.42L52.8,80a.4.4,0,0,1-.58.07.42.42,0,0,1-.16-.57,4,4,0,0,1,.71-1,5.62,5.62,0,0,1,3-1.35,6.24,6.24,0,0,1,2.88.19,1.38,1.38,0,0,0,1.1-.14,4.69,4.69,0,0,1,4.06-.45,10.15,10.15,0,0,1,1.12.61.53.53,0,0,0,.67,0,6.6,6.6,0,0,1,2.48-1.21C68.2,76.12,68.34,76.05,68.6,76Zm9.1,2.85c1.06-.15,2-.26,3-.44A5.42,5.42,0,0,0,84,76.55a3.82,3.82,0,0,1,1.51-1.07,1.62,1.62,0,0,0,.79-.8,16,16,0,0,0,1-2.25,11.58,11.58,0,0,0,.67-3,2.36,2.36,0,0,1,.08-.45,2.64,2.64,0,0,0-.91-2.62c-.78-.59-1.62-1.08-2.43-1.62a5.23,5.23,0,0,0-3.12-.9c-.59,0-1.17,0-1.76-.06a2.18,2.18,0,0,0-.57,0,17.22,17.22,0,0,1-3,.44A3.58,3.58,0,0,1,74.72,64a2,2,0,0,0-1.62,0,9.33,9.33,0,0,0-3.81,2.84c-.31.36-.64.71-.91,1.09a7.35,7.35,0,0,0-.81,2.18,2.81,2.81,0,0,0,.05,1.6,6.53,6.53,0,0,0,.75,1.78,8.53,8.53,0,0,0,2.27,2.55,16.16,16.16,0,0,0,5.11,2.31C76.41,78.57,77.09,78.68,77.7,78.8Zm8-24.51a4.71,4.71,0,0,0-2.66-4.86,7.82,7.82,0,0,0-3-1,3.5,3.5,0,0,0-2.63.33,2.32,2.32,0,0,1-.37.13c-.6.25-1.2.49-1.79.75-.93.41-1.56,1.28-2.49,1.71-.31.14-.61.3-.92.45a1.2,1.2,0,0,0-.39.2c-.49.57-1,1.14-1.44,1.75a3,3,0,0,0-.49,1.05,5.1,5.1,0,0,0,0,2.63,4.32,4.32,0,0,0,.83,1.88c.43.45.9.87,1.3,1.35a7.83,7.83,0,0,0,2.76,1.86,3.81,3.81,0,0,0,1.58.26A11.4,11.4,0,0,0,78,62.58a7.44,7.44,0,0,0,4.77-2.39,10.88,10.88,0,0,1,.84-.82A3.07,3.07,0,0,0,84,59,8.59,8.59,0,0,0,85.75,54.29ZM77,45.37a1.42,1.42,0,0,0,.35.11c.51,0,1,.06,1.55.09a7.94,7.94,0,0,1,3.31.83c.53.29,1.07.56,1.59.85s.65.16.78-.36c.08-.29.16-.58.25-.87.35-1.15.71-2.31,1.05-3.46,0,0,0-.08-.06-.17a81.14,81.14,0,0,0-7.7-2.8A20.6,20.6,0,0,0,77,45.37Zm3.15,1.91v-.19A23.3,23.3,0,0,0,77.38,47a17.8,17.8,0,0,0-3.08.49,6.58,6.58,0,0,0-4.62,3.35A4.34,4.34,0,0,0,69,52.72l1.42-1.48a2.74,2.74,0,0,1,.58-.5c.43-.23.9-.41,1.35-.62a.92.92,0,0,0,.35-.27,5.31,5.31,0,0,1,2.76-1.69,6.33,6.33,0,0,0,1.37-.55,2.36,2.36,0,0,1,1.09-.39,4.64,4.64,0,0,1,1.74.06A1.85,1.85,0,0,0,80.14,47.28Z"/><path class="cls-3" d="M77.7,78.8c-.61-.12-1.29-.23-2-.41a16.16,16.16,0,0,1-5.11-2.31,8.53,8.53,0,0,1-2.27-2.55,6.53,6.53,0,0,1-.75-1.78,2.81,2.81,0,0,1-.05-1.6A7.35,7.35,0,0,1,68.38,68c.27-.38.6-.73.91-1.09A9.33,9.33,0,0,1,73.1,64a2,2,0,0,1,1.62,0,3.58,3.58,0,0,0,1.59.19,17.22,17.22,0,0,0,3-.44,2.18,2.18,0,0,1,.57,0c.59,0,1.17.08,1.76.06a5.23,5.23,0,0,1,3.12.9c.81.54,1.65,1,2.43,1.62A2.64,2.64,0,0,1,88.05,69a2.36,2.36,0,0,0-.08.45,11.58,11.58,0,0,1-.67,3,16,16,0,0,1-1,2.25,1.62,1.62,0,0,1-.79.8A3.82,3.82,0,0,0,84,76.55a5.42,5.42,0,0,1-3.36,1.81C79.73,78.54,78.76,78.65,77.7,78.8Z"/><path class="cls-3" d="M85.75,54.29A8.59,8.59,0,0,1,84,59a3.07,3.07,0,0,1-.34.38,10.88,10.88,0,0,0-.84.82A7.44,7.44,0,0,1,78,62.58a11.4,11.4,0,0,1-1.93.21,3.81,3.81,0,0,1-1.58-.26,7.83,7.83,0,0,1-2.76-1.86c-.4-.48-.87-.9-1.3-1.35a4.32,4.32,0,0,1-.83-1.88,5.1,5.1,0,0,1,0-2.63,3,3,0,0,1,.49-1.05c.45-.61,1-1.18,1.44-1.75a1.2,1.2,0,0,1,.39-.2c.31-.15.61-.31.92-.45.93-.43,1.56-1.3,2.49-1.71.59-.26,1.19-.5,1.79-.75a2.32,2.32,0,0,0,.37-.13,3.5,3.5,0,0,1,2.63-.33,7.82,7.82,0,0,1,3,1A4.71,4.71,0,0,1,85.75,54.29ZM79.16,54a9.51,9.51,0,0,0,1.26-.3,4.48,4.48,0,0,0,1-.59c.16-.12.39-.27.24-.52a.64.64,0,0,0-.69-.37c-.28.05-.55.13-.82.19l-1.76.4a1.25,1.25,0,0,0-.19,0c-.33.13-.38.36-.15.65A1.41,1.41,0,0,0,79.16,54Zm-5.6-1L73.08,53c-.26,0-.52,0-.55.31a.8.8,0,0,0,.25.54,1.4,1.4,0,0,0,1.06.4,2.22,2.22,0,0,0,1.68-.5.51.51,0,0,0-.24-.9,1.38,1.38,0,0,0-1,0A4.65,4.65,0,0,1,73.56,53Zm1,4a2.28,2.28,0,0,0,2.78.4c.2-.15.36-.33.26-.6a.52.52,0,0,0-.56-.34,15.42,15.42,0,0,1-1.8,0C74.84,56.42,74.7,56.63,74.6,57Zm3-2.17a.5.5,0,0,0,0-.18.77.77,0,0,0-1-.44,1.15,1.15,0,0,0,0,1.58.67.67,0,0,0,.52.1C77.57,55.78,77.62,55.35,77.64,54.85Z"/><path class="cls-4" d="M77,45.37a20.6,20.6,0,0,1,1.12-5.78,81.14,81.14,0,0,1,7.7,2.8c0,.09.07.14.06.17-.34,1.15-.7,2.31-1.05,3.46-.09.29-.17.58-.25.87-.13.52-.32.61-.78.36s-1.06-.56-1.59-.85a7.94,7.94,0,0,0-3.31-.83c-.52,0-1,0-1.55-.09A1.42,1.42,0,0,1,77,45.37Z"/><path class="cls-5" d="M80.14,47.28a1.85,1.85,0,0,1-.47,0,4.64,4.64,0,0,0-1.74-.06,2.36,2.36,0,0,0-1.09.39,6.33,6.33,0,0,1-1.37.55,5.31,5.31,0,0,0-2.76,1.69.92.92,0,0,1-.35.27c-.45.21-.92.39-1.35.62a2.74,2.74,0,0,0-.58.5L69,52.72a4.34,4.34,0,0,1,.67-1.93,6.58,6.58,0,0,1,4.62-3.35A17.8,17.8,0,0,1,77.38,47a23.3,23.3,0,0,1,2.76.14Z"/><path class="cls-2" d="M50.39,14.48c.23-.16.42-.26.58-.39a9.34,9.34,0,0,1,3.82-1.8,8.43,8.43,0,0,1,2.46-.1,7.12,7.12,0,0,1,3.6,1.3A5.55,5.55,0,0,1,62.74,16a4.42,4.42,0,0,1,.44,2.15,8.49,8.49,0,0,0,.12,1.45c.32,0,.64,0,1-.09a7.22,7.22,0,0,1,2.45.19,1.85,1.85,0,0,0,.74,0,7.21,7.21,0,0,1,3.69-.1c.47.12,1,.12,1.44.22a8.17,8.17,0,0,1,2.52,1,4.19,4.19,0,0,1,1.73,2.34,4.5,4.5,0,0,1,0,3.05A2.9,2.9,0,0,1,75.26,28a20.41,20.41,0,0,0-1.81,1.15,5.15,5.15,0,0,1-1,.44,5.22,5.22,0,0,1-2.53.44,1.7,1.7,0,0,0-.39,0,.52.52,0,0,0-.15.06c-.35.87-.65,1.75-1,2.59a4.29,4.29,0,0,1-1.6,1.7c-.43.3-.91.52-1.36.8a3.85,3.85,0,0,1-2.35.38,6.24,6.24,0,0,1-3-.89c-.26-.16-.5-.35-.76-.54-.3.44-.57.81-.81,1.19a5.53,5.53,0,0,1-1.57,1.36q-.57.41-1.17.75a5.16,5.16,0,0,1-2.41.91,5.51,5.51,0,0,1-3.43-.69s-.08,0-.15,0a.8.8,0,0,0-.23.18A9.3,9.3,0,0,1,47.32,40a15.71,15.71,0,0,1-2.72,1.85,4.92,4.92,0,0,1-3.68.59,4.1,4.1,0,0,1-2.75-2.11l-.11-.22S38,40,37.93,40a1.53,1.53,0,0,0-.39.14,18,18,0,0,1-4.17,1.83,8.72,8.72,0,0,1-2.56.39,16.18,16.18,0,0,1-5-.58,15.57,15.57,0,0,1-2.9-1.09A2.85,2.85,0,0,1,21.41,39a6.79,6.79,0,0,0-.39-.87,2.09,2.09,0,0,1-.15-1.24,14.07,14.07,0,0,0,.06-2,3.63,3.63,0,0,1,.88-2.28,13.78,13.78,0,0,1,4-3.28c.43-.26.84-.55,1.31-.85a4.85,4.85,0,0,0-.37-.43,3,3,0,0,1-1-1.41,1.6,1.6,0,0,1,.42-1.81,6.91,6.91,0,0,1,.79-.64,2.37,2.37,0,0,1,2-.33c0-.3,0-.52-.08-.74-.11-.6-.25-1.2-.35-1.81a3.13,3.13,0,0,1,.22-1.54,1.16,1.16,0,0,1,.81-.73c.5-.19.46-.2.48-.76a4.6,4.6,0,0,1,1.58-3.54,4,4,0,0,1,1.67-.88A10.64,10.64,0,0,1,36,13.53,3.92,3.92,0,0,1,39,14.79c.27.3.55.58.84.86a2.47,2.47,0,0,0,.44.23,7.38,7.38,0,0,1,2-2.32,5.11,5.11,0,0,1,3.43-1.45,6.28,6.28,0,0,1,3,.72,6.7,6.7,0,0,1,1.16,1C50,14,50.14,14.22,50.39,14.48Zm-1,21.19.64.58a4.27,4.27,0,0,0,.83.77,3.89,3.89,0,0,0,3.38,0,10.24,10.24,0,0,0,1.56-.85A15.93,15.93,0,0,0,57.45,35a2.21,2.21,0,0,0,.42-.7,4,4,0,0,0,.25-2.06c0-.58.1-.77.74-1,.18.28.37.57.54.87A5.17,5.17,0,0,0,60,33.21a4.52,4.52,0,0,0,4.28,1.27,4.32,4.32,0,0,0,3.35-2.82c.16-.44.32-.88.51-1.31a1.06,1.06,0,0,0,0-1,.55.55,0,0,1,.19-.73.65.65,0,0,1,.82,0,1.71,1.71,0,0,0,1.74.32,11.71,11.71,0,0,0,3.67-1.71,2,2,0,0,0,.66-.74,6.12,6.12,0,0,0,.54-1.36,3.06,3.06,0,0,0-1-3.28,5.09,5.09,0,0,0-2.55-1.24c-1.17-.18-2.36-.27-3.54-.34a5.51,5.51,0,0,0-1.25.2c-.48.09-1,.36-1.47.08-.06,0-.16,0-.25,0a8.45,8.45,0,0,0-2.93.55,3.52,3.52,0,0,1-1.18.19.38.38,0,0,1-.37-.53,1.32,1.32,0,0,1,.18-.33A4,4,0,0,0,62,17.72,5.24,5.24,0,0,0,61,15a3.39,3.39,0,0,0-1.93-1.49,15.38,15.38,0,0,0-2.5-.43,5.53,5.53,0,0,0-2.55.44c-.77.35-1.47.82-2.21,1.24a1.94,1.94,0,0,0-1,1.21,1.17,1.17,0,0,1-.74.81c-.67-.1-.78-.5-.72-1.06a2.1,2.1,0,0,0-.64-1.68,4,4,0,0,0-4-.8c-.44.19-.83.49-1.26.71A4.93,4.93,0,0,0,41.56,16a4.78,4.78,0,0,0-.36,1.27c-.1.46-.41.66-.83.44a2.91,2.91,0,0,1-.73-.59c-.62-.66-1.22-1.35-1.84-2a2.19,2.19,0,0,0-1.53-.7,6.63,6.63,0,0,0-2.68.44,4.15,4.15,0,0,0-2.35,4.32c0,.19,0,.37,0,.62a3.3,3.3,0,0,1-.84.09,1.36,1.36,0,0,0-1,.19c.33,1.52.64,3,1,4.45-.66.32-.67.33-1,.17a1.59,1.59,0,0,0-2.24.47,1.18,1.18,0,0,0-.32,1.22A2.6,2.6,0,0,0,29,28.24a11.3,11.3,0,0,1,1.47.37c.25.07.47.21.43.54a.88.88,0,0,1-.83.2,8.09,8.09,0,0,1-1.38-.22,1.57,1.57,0,0,0-1.33.24c-.78.54-1.54,1.12-2.36,1.61a8.2,8.2,0,0,0-1.74,1.53,3.94,3.94,0,0,0-1.14,2.88c0,.68.06,1.36.11,2a2.86,2.86,0,0,0,1.58,2.32,11.56,11.56,0,0,0,2.76,1.08,16.32,16.32,0,0,0,4.11.38,11.23,11.23,0,0,0,5-1.41c.19-.1.39-.17.57-.28a4.24,4.24,0,0,0,1.62-1.08.56.56,0,0,1,1,.08c.12.24.17.52.27.78a2.93,2.93,0,0,0,2.05,2,3.64,3.64,0,0,0,2.37-.22,19.57,19.57,0,0,0,4.64-3,1.81,1.81,0,0,0,.7-1.51A1,1,0,0,1,49.43,35.67Z"/><path class="cls-2" d="M46.14,72.94A1.34,1.34,0,0,1,45,71.34a2.48,2.48,0,0,1,1.57-1.81,1.87,1.87,0,0,1,.55-.18,1.18,1.18,0,0,1,1.18,1.28,3.54,3.54,0,0,1-1.38,2.07A6,6,0,0,1,46.14,72.94Zm-.27-1.4v.18c0,.32.13.44.43.36a1.31,1.31,0,0,0,.35-.19,2.09,2.09,0,0,0,.93-1.27c.08-.41-.09-.61-.5-.66a.64.64,0,0,0-.71.33C46.14,70.68,45.78,71,45.87,71.54Z"/><path class="cls-2" d="M52.44,61.35a1.58,1.58,0,0,1-.28.87,5.93,5.93,0,0,1-1,1.43,1.09,1.09,0,0,1-1.66-.09A2.09,2.09,0,0,1,49,62.7a2.64,2.64,0,0,1,.79-2.5,1.92,1.92,0,0,1,2.49.61A1.94,1.94,0,0,1,52.44,61.35Zm-2.61,1h0a2.73,2.73,0,0,0,0,.41c.09.44.33.51.68.24a4.27,4.27,0,0,0,1-1.25.6.6,0,0,0,0-.52.87.87,0,0,0-.78-.5.71.71,0,0,0-.68.53C50,61.63,49.92,62,49.83,62.36Z"/><path class="cls-2" d="M30,60.55a4.29,4.29,0,0,1-.34.94,8.57,8.57,0,0,1-.79,1.2,1.22,1.22,0,0,1-1.53.39,1.32,1.32,0,0,1-.69-1.6,3,3,0,0,1,.76-1.59,1.52,1.52,0,0,1,2.2-.1A3.62,3.62,0,0,1,30,60.55ZM27.56,62c.17,0,.28,0,.33,0,.72-.52.64-.51,1-1.3,0-.09-.08-.32-.19-.41s-.27,0-.4.07a.5.5,0,0,0-.22.21c-.35.55-.15.38-.48.94A1.59,1.59,0,0,0,27.56,62Z"/><path class="cls-2" d="M33.51,63.79c.18-.65-.07-.65.8-1.12a.78.78,0,0,0,.19-.24,1.27,1.27,0,0,1,1.38-.65,1.4,1.4,0,0,1,1,1.2c.07.67,0,.36-.2,1a5.07,5.07,0,0,1-.56.91,1.38,1.38,0,0,1-1.64.64C33.92,65.33,33.57,64.75,33.51,63.79Zm.92.08c.07.32.06.63.37.74s.51-.14.65-.38.17.14.32-.25a2.93,2.93,0,0,0,.16-.93.42.42,0,0,0-.43-.46c-.24,0-.46,0-.52.33,0,.14-.17.24-.23.37C34.55,63.77,34.63,63.39,34.43,63.87Z"/><path class="cls-2" d="M42.16,57.14a2.31,2.31,0,0,0,1.21-1A.78.78,0,0,0,43.16,55c0-.17.14-.22.33-.18.43.07.73.29.74.63a2.13,2.13,0,0,1-.14.9,3,3,0,0,1-1.6,1.53A1.38,1.38,0,0,1,42,58c-.7,0-1.08-.3-1-.83a2.67,2.67,0,0,1,.7-1.18,3.33,3.33,0,0,1,.51-.48.61.61,0,0,1,.67-.07c.25.12.17.28.08.42s-.26.26-.36.39S42,56.72,42.16,57.14Z"/><path class="cls-2" d="M18.05,65.72a2.25,2.25,0,0,0,1.22-1,.79.79,0,0,0-.22-1.22c0-.17.15-.22.34-.18.42.07.72.29.74.63a2.13,2.13,0,0,1-.15.9,3,3,0,0,1-1.59,1.54,1.42,1.42,0,0,1-.55.11c-.7,0-1.07-.3-1-.83a2.58,2.58,0,0,1,.7-1.18,4.56,4.56,0,0,1,.5-.48.62.62,0,0,1,.68-.07c.25.12.17.28.07.42s-.25.26-.35.4S17.93,65.3,18.05,65.72Z"/><path class="cls-3" d="M49.43,35.67a1,1,0,0,0-.51.9,1.81,1.81,0,0,1-.7,1.51,19.57,19.57,0,0,1-4.64,3,3.64,3.64,0,0,1-2.37.22,2.93,2.93,0,0,1-2.05-2c-.1-.26-.15-.54-.27-.78a.56.56,0,0,0-1-.08,4.24,4.24,0,0,1-1.62,1.08c-.18.11-.38.18-.57.28a11.23,11.23,0,0,1-5,1.41,16.32,16.32,0,0,1-4.11-.38,11.56,11.56,0,0,1-2.76-1.08,2.86,2.86,0,0,1-1.58-2.32c-.05-.68-.1-1.36-.11-2a3.94,3.94,0,0,1,1.14-2.88A8.2,8.2,0,0,1,25,31c.82-.49,1.58-1.07,2.36-1.61a1.57,1.57,0,0,1,1.33-.24,8.09,8.09,0,0,0,1.38.22.88.88,0,0,0,.83-.2c0-.33-.18-.47-.43-.54A11.3,11.3,0,0,0,29,28.24a2.6,2.6,0,0,1-2.13-1.84,1.18,1.18,0,0,1,.32-1.22,1.59,1.59,0,0,1,2.24-.47c.28.16.29.15,1-.17-.31-1.46-.62-2.93-1-4.45a1.36,1.36,0,0,1,1-.19,3.3,3.3,0,0,0,.84-.09c0-.25,0-.43,0-.62a4.15,4.15,0,0,1,2.35-4.32,6.63,6.63,0,0,1,2.68-.44,2.19,2.19,0,0,1,1.53.7c.62.67,1.22,1.36,1.84,2a2.91,2.91,0,0,0,.73.59c.42.22.73,0,.83-.44A4.78,4.78,0,0,1,41.56,16,4.93,4.93,0,0,1,43.46,14c.43-.22.82-.52,1.26-.71a4,4,0,0,1,4,.8,2.1,2.1,0,0,1,.64,1.68c-.06.56.05,1,.72,1.06a1.17,1.17,0,0,0,.74-.81,1.94,1.94,0,0,1,1-1.21c.74-.42,1.44-.89,2.21-1.24a5.53,5.53,0,0,1,2.55-.44,15.38,15.38,0,0,1,2.5.43A3.39,3.39,0,0,1,61,15a5.24,5.24,0,0,1,1,2.71,4,4,0,0,1-.55,2.69,1.32,1.32,0,0,0-.18.33.38.38,0,0,0,.37.53,3.52,3.52,0,0,0,1.18-.19,8.45,8.45,0,0,1,2.93-.55c.09,0,.19,0,.25,0,.51.28,1,0,1.47-.08a5.51,5.51,0,0,1,1.25-.2c1.18.07,2.37.16,3.54.34a5.09,5.09,0,0,1,2.55,1.24,3.06,3.06,0,0,1,1,3.28,6.12,6.12,0,0,1-.54,1.36,2,2,0,0,1-.66.74A11.71,11.71,0,0,1,71,28.94a1.71,1.71,0,0,1-1.74-.32.65.65,0,0,0-.82,0,.55.55,0,0,0-.19.73,1.06,1.06,0,0,1,0,1c-.19.43-.35.87-.51,1.31a4.32,4.32,0,0,1-3.35,2.82A4.52,4.52,0,0,1,60,33.21a5.17,5.17,0,0,1-.64-1.16c-.17-.3-.36-.59-.54-.87-.64.25-.78.44-.74,1a4,4,0,0,1-.25,2.06,2.21,2.21,0,0,1-.42.7,15.93,15.93,0,0,1-1.61,1.23,10.24,10.24,0,0,1-1.56.85,3.89,3.89,0,0,1-3.38,0,4.27,4.27,0,0,1-.83-.77Z"/><path class="cls-3" d="M45.87,71.54c-.09-.53.27-.86.5-1.25a.64.64,0,0,1,.71-.33c.41.05.58.25.5.66a2.09,2.09,0,0,1-.93,1.27,1.31,1.31,0,0,1-.35.19c-.3.08-.43,0-.43-.36Z"/><path class="cls-2" d="M36.25,51.84A1.46,1.46,0,0,1,35,50.1a2.69,2.69,0,0,1,1.71-2,2.64,2.64,0,0,1,.6-.2,1.29,1.29,0,0,1,1.28,1.4,3.82,3.82,0,0,1-1.49,2.24A5.75,5.75,0,0,1,36.25,51.84ZM36,50.31v.2c0,.35.15.48.47.39a1.09,1.09,0,0,0,.38-.21,2.27,2.27,0,0,0,1-1.38c.08-.44-.11-.66-.55-.72a.7.7,0,0,0-.77.36C36.25,49.38,35.86,49.75,36,50.31Z"/><path class="cls-3" d="M36,50.31c-.1-.56.29-.93.55-1.36a.7.7,0,0,1,.77-.36c.44.06.63.28.55.72a2.27,2.27,0,0,1-1,1.38,1.09,1.09,0,0,1-.38.21c-.32.09-.47,0-.47-.39Z"/><path class="cls-3" d="M49.83,62.36c.09-.36.15-.73.27-1.08a.71.71,0,0,1,.68-.53.87.87,0,0,1,.78.5.6.6,0,0,1,0,.52,4.27,4.27,0,0,1-1,1.25c-.35.27-.59.2-.68-.24a2.73,2.73,0,0,1,0-.41Z"/><path class="cls-2" d="M64.88,46.05a1.47,1.47,0,0,1-.28.86,5.91,5.91,0,0,1-1,1.44,1.08,1.08,0,0,1-1.65-.1,2.18,2.18,0,0,1-.43-.86,2.65,2.65,0,0,1,.8-2.5,1.93,1.93,0,0,1,2.49.62A2.14,2.14,0,0,1,64.88,46.05Zm-2.61,1h0a2.69,2.69,0,0,0,0,.4c.09.44.34.52.68.24a4.35,4.35,0,0,0,1-1.25.59.59,0,0,0,0-.52.85.85,0,0,0-.77-.5.73.73,0,0,0-.69.53C62.43,46.32,62.36,46.69,62.27,47.06Z"/><path class="cls-3" d="M62.27,47.06c.09-.37.16-.74.27-1.09a.73.73,0,0,1,.69-.53.85.85,0,0,1,.77.5.59.59,0,0,1,0,.52,4.35,4.35,0,0,1-1,1.25c-.34.28-.59.2-.68-.24a2.69,2.69,0,0,1,0-.4Z"/><path class="cls-2" d="M59.78,59a1.53,1.53,0,0,1-.28.87,5.86,5.86,0,0,1-1,1.43,1.08,1.08,0,0,1-1.65-.1,2,2,0,0,1-.43-.85,2.67,2.67,0,0,1,.77-2.48.62.62,0,0,1,.17-.11,2,2,0,0,1,2.35.7A2.25,2.25,0,0,1,59.78,59Zm-2.61,1h0a2.69,2.69,0,0,0,0,.4c.09.45.33.52.68.24a4.23,4.23,0,0,0,.95-1.24.59.59,0,0,0,0-.53.87.87,0,0,0-.78-.5.74.74,0,0,0-.68.53C57.32,59.25,57.26,59.62,57.17,60Z"/><path class="cls-3" d="M57.17,60c.09-.37.15-.74.27-1.09a.74.74,0,0,1,.68-.53.87.87,0,0,1,.78.5.59.59,0,0,1,0,.53,4.23,4.23,0,0,1-.95,1.24c-.35.28-.59.21-.68-.24a2.69,2.69,0,0,1,0-.4Z"/><path class="cls-2" d="M28.25,50.62a1.61,1.61,0,0,1-.29.9A5.84,5.84,0,0,1,26.87,53a1.12,1.12,0,0,1-1.71-.1,2.19,2.19,0,0,1-.44-.89,2.74,2.74,0,0,1,.8-2.56.5.5,0,0,1,.17-.11,2,2,0,0,1,2.43.72A2,2,0,0,1,28.25,50.62Zm-2.7,1h0a3,3,0,0,0,0,.43c.09.45.35.53.7.24a4.28,4.28,0,0,0,1-1.29.61.61,0,0,0,0-.54.87.87,0,0,0-.8-.51.73.73,0,0,0-.71.54C25.71,50.91,25.64,51.29,25.55,51.66Z"/><path class="cls-3" d="M25.55,51.66c.09-.37.16-.75.28-1.12a.73.73,0,0,1,.71-.54.87.87,0,0,1,.8.51.61.61,0,0,1,0,.54,4.28,4.28,0,0,1-1,1.29c-.35.29-.61.21-.7-.24a3,3,0,0,1,0-.43Z"/><path class="cls-2" d="M57.87,52a1.61,1.61,0,0,1-.29.9,3.54,3.54,0,0,1-.92,1,1.12,1.12,0,0,1-1.71-.1,2.09,2.09,0,0,1-.44-.88,1.88,1.88,0,0,1,.62-2.1.67.67,0,0,1,.18-.11,2,2,0,0,1,2.43.72A2,2,0,0,1,57.87,52Zm-2.53.58h0a3,3,0,0,0,0,.42c.09.45.34.53.7.24s.55-.35.82-.82a.64.64,0,0,0,0-.54.88.88,0,0,0-.81-.51.72.72,0,0,0-.7.54C55.32,52.29,55.43,52.2,55.34,52.58Z"/><path class="cls-3" d="M55.34,52.58c.09-.38,0-.29.11-.66a.72.72,0,0,1,.7-.54.88.88,0,0,1,.81.51.64.64,0,0,1,0,.54c-.27.47-.38.47-.82.82s-.61.21-.7-.24a3,3,0,0,1,0-.42Z"/><path class="cls-2" d="M26.42,69.92a1.61,1.61,0,0,1-.29.9,3.25,3.25,0,0,1-.91,1,1.12,1.12,0,0,1-1.72-.1,2.35,2.35,0,0,1-.44-.88,1.9,1.9,0,0,1,.63-2.1.54.54,0,0,1,.18-.11,2,2,0,0,1,2.43.72A2.42,2.42,0,0,1,26.42,69.92Zm-2.53.58h0c0,.14,0,.28,0,.42.1.46.35.53.71.25s.54-.36.82-.83a.68.68,0,0,0,0-.54.9.9,0,0,0-.81-.51.74.74,0,0,0-.71.54C23.88,70.21,24,70.12,23.89,70.5Z"/><path class="cls-3" d="M23.89,70.5c.1-.38,0-.29.11-.66a.74.74,0,0,1,.71-.54.9.9,0,0,1,.81.51.68.68,0,0,1,0,.54c-.28.47-.39.47-.82.83s-.61.21-.71-.25c0-.14,0-.28,0-.42Z"/><path class="cls-2" d="M37,72.55a1.5,1.5,0,0,1-.29.89,3.4,3.4,0,0,1-.91,1,1.12,1.12,0,0,1-1.71-.1,2.21,2.21,0,0,1-.45-.89,1.89,1.89,0,0,1,.63-2.09.57.57,0,0,1,.18-.12,2,2,0,0,1,2.43.73A2.42,2.42,0,0,1,37,72.55Zm-2.52.57h0c0,.14,0,.29,0,.43.1.45.35.53.71.24s.54-.35.82-.82a.64.64,0,0,0,0-.54.91.91,0,0,0-.81-.52.75.75,0,0,0-.71.55C34.49,72.83,34.6,72.75,34.51,73.12Z"/><path class="cls-3" d="M34.51,73.12c.09-.37,0-.29.1-.65a.75.75,0,0,1,.71-.55.91.91,0,0,1,.81.52.64.64,0,0,1,0,.54c-.28.47-.39.47-.82.82s-.61.21-.71-.24c0-.14,0-.29,0-.43Z"/><path class="cls-3" d="M27.56,62a1.59,1.59,0,0,1,.05-.49c.33-.56.13-.39.48-.94a.5.5,0,0,1,.22-.21c.13-.06.32-.13.4-.07s.23.32.19.41c-.37.79-.29.78-1,1.3C27.84,62.07,27.73,62,27.56,62Z"/><path class="cls-3" d="M34.43,63.87c.2-.48.12-.1.32-.58.06-.13.2-.23.23-.37.06-.32.28-.34.52-.33a.42.42,0,0,1,.43.46,2.93,2.93,0,0,1-.16.93c-.15.39-.11-.12-.32.25s-.33.49-.65.38S34.5,64.19,34.43,63.87Z"/><path class="cls-2" d="M79.16,54A1.41,1.41,0,0,1,78,53.49c-.23-.29-.18-.52.15-.65a1.25,1.25,0,0,1,.19,0l1.76-.4c.27-.06.54-.14.82-.19a.64.64,0,0,1,.69.37c.15.25-.08.4-.24.52a4.48,4.48,0,0,1-1,.59A9.51,9.51,0,0,1,79.16,54Z"/><path class="cls-2" d="M73.56,53a4.65,4.65,0,0,0,.72-.18,1.38,1.38,0,0,1,1,0,.51.51,0,0,1,.24.9,2.22,2.22,0,0,1-1.68.5,1.4,1.4,0,0,1-1.06-.4.8.8,0,0,1-.25-.54c0-.26.29-.33.55-.31Z"/><path class="cls-2" d="M74.6,57c.1-.39.24-.6.68-.56a15.42,15.42,0,0,0,1.8,0,.52.52,0,0,1,.56.34c.1.27-.06.45-.26.6A2.28,2.28,0,0,1,74.6,57Z"/><path class="cls-2" d="M77.64,54.85c0,.5-.07.93-.57,1.06a.67.67,0,0,1-.52-.1,1.15,1.15,0,0,1,0-1.58.77.77,0,0,1,1,.44A.5.5,0,0,1,77.64,54.85Z"/><path class="cls-2" d="M54,26.86a2.28,2.28,0,0,1-1.15-.42,2.47,2.47,0,0,1-.68-.6,1.46,1.46,0,0,1-.32-.91c0-.16,0-.3.23-.33s.48.08.51.25a1.37,1.37,0,0,0,.94,1c.5.22.77,0,1.12-.33.2-.19.36-.42.57-.59a.55.55,0,0,1,.45-.12.37.37,0,0,1,.3.42,1.32,1.32,0,0,1-.19.49,3.19,3.19,0,0,1-1.28,1A3.74,3.74,0,0,1,54,26.86Z"/><path class="cls-2" d="M43,27.8a1.54,1.54,0,0,1-.53,1.13,2.85,2.85,0,0,1-.47.45,3.9,3.9,0,0,1-1,.47.92.92,0,0,1-.68-.16,3.11,3.11,0,0,1-1-1,1.29,1.29,0,0,1-.11-.55c0-.17.26-.25.44-.11a6.35,6.35,0,0,1,.82.82c.09.11.16.18.31.14a2.08,2.08,0,0,0,1.18-.83,2.28,2.28,0,0,0,.28-.59c.08-.19.3-.38.45-.36a.45.45,0,0,1,.31.48Z"/><path class="cls-2" d="M50.13,29.88A1.52,1.52,0,0,1,49.59,31a2.55,2.55,0,0,1-.47.46,3.43,3.43,0,0,1-1,.46.88.88,0,0,1-.68-.16,2.93,2.93,0,0,1-1-1,1.25,1.25,0,0,1-.1-.55c0-.17.25-.25.43-.1a6.28,6.28,0,0,1,.82.81c.1.12.16.18.31.14a2.1,2.1,0,0,0,1.19-.83,2.68,2.68,0,0,0,.28-.59c.07-.19.29-.38.45-.35a.45.45,0,0,1,.31.48A.66.66,0,0,0,50.13,29.88Z"/><path class="cls-6" d="M59.73,88.57c1.29,0,2.59,0,3.91,0,1.51,0,2.4.72,2.4,1.78a2.81,2.81,0,0,1-.56,1.56,32.09,32.09,0,0,1-3.65,4.51,25.57,25.57,0,0,0,8.75,3.92,1.34,1.34,0,0,1,1.16,1.32A1.39,1.39,0,0,1,70.26,103,23.08,23.08,0,0,1,60.11,98c-.9.81-1.81,1.6-2.76,2.33a.87.87,0,0,1,.41-.06,15.72,15.72,0,0,1,5.15,1.81,1.38,1.38,0,0,1,.62,1.16,1.26,1.26,0,0,1-1.18,1.3,1.28,1.28,0,0,1-.81-.3,15.56,15.56,0,0,0-4.19-1.92,1,1,0,0,1-.81-.94,1.18,1.18,0,0,1,.19-.6c-3.67,2.65-6.48,3.38-6.77,3.38a1.35,1.35,0,0,1-1.33-1.32,1.25,1.25,0,0,1,.95-1.19,26.21,26.21,0,0,0,8.74-5.21,20.16,20.16,0,0,1-2.7-3.11,29.76,29.76,0,0,1-4.31,3.68,1.83,1.83,0,0,1-1,.35A1.31,1.31,0,0,1,49,96.16a1.18,1.18,0,0,1,.65-1,26.38,26.38,0,0,0,8-8.13,1.18,1.18,0,0,1,1-.54,1.48,1.48,0,0,1,1.49,1.27,1.11,1.11,0,0,1-.25.65Zm3.1,21.27a22.46,22.46,0,0,0-7.8-2.75c-.7-.11-1-.54-1-1a1.4,1.4,0,0,1,1.46-1.3A22.77,22.77,0,0,1,64,107.44a1.66,1.66,0,0,1,.92,1.4,1.27,1.27,0,0,1-1.27,1.27A1.61,1.61,0,0,1,62.83,109.84ZM63,91c0-.33-.06-.33-3.35-.33H58.14c-.3.35-.63.73-1,1.08A16.71,16.71,0,0,0,60,94.89C61.56,93.24,63,91.35,63,91Z"/></g></svg>