<svg xmlns="http://www.w3.org/2000/svg" viewBox="0 0 60 60"><defs><style>.cls-1{fill:#a6cde8;}.cls-2{fill:#4d4d4d;}</style></defs><g id="レイヤー_1" data-name="レイヤー 1"><rect class="cls-1" width="60" height="60" rx="13.25"/><path class="cls-2" d="M29.16,18.66c1.35,0,2.71-.06,4.08-.06,1.58,0,2.51.77,2.51,1.86a3,3,0,0,1-.59,1.64,34,34,0,0,1-3.8,4.7,26.58,26.58,0,0,0,9.12,4.08,1.42,1.42,0,0,1,1.21,1.38,1.45,1.45,0,0,1-1.55,1.43,24.12,24.12,0,0,1-10.58-5.15c-.93.85-1.89,1.66-2.88,2.42a1.13,1.13,0,0,1,.43-.05,16.49,16.49,0,0,1,5.37,1.88A1.44,1.44,0,0,1,33.13,34a1.31,1.31,0,0,1-1.24,1.36,1.39,1.39,0,0,1-.84-.31,15.84,15.84,0,0,0-4.37-2,1,1,0,0,1-.84-1,1.2,1.2,0,0,1,.2-.62C22.21,34.2,19.28,35,19,35a1.39,1.39,0,0,1-1.38-1.38,1.32,1.32,0,0,1,1-1.24,27.26,27.26,0,0,0,9.12-5.43,20.82,20.82,0,0,1-2.82-3.24,30.5,30.5,0,0,1-4.5,3.83,1.91,1.91,0,0,1-1,.37A1.37,1.37,0,0,1,18,26.57a1.22,1.22,0,0,1,.67-1.07A27.51,27.51,0,0,0,27,17a1.18,1.18,0,0,1,1-.56,1.53,1.53,0,0,1,1.55,1.32,1.11,1.11,0,0,1-.26.67ZM32.4,40.85A23.67,23.67,0,0,0,24.26,38a1.06,1.06,0,0,1-1-1,1.45,1.45,0,0,1,1.52-1.35,23.61,23.61,0,0,1,8.9,2.76,1.74,1.74,0,0,1,1,1.46,1.33,1.33,0,0,1-1.33,1.33A1.73,1.73,0,0,1,32.4,40.85Zm.14-19.71c0-.34-.06-.34-3.49-.34H27.5c-.31.37-.65.76-1,1.13a16.77,16.77,0,0,0,2.92,3.32C31.08,23.53,32.54,21.56,32.54,21.14Z"/></g></svg>