<svg xmlns="http://www.w3.org/2000/svg" viewBox="0 0 60 60"><defs><style>.cls-1{fill:#dddbd2;}.cls-2{fill:#4d4d4d;}</style></defs><g id="レイヤー_1" data-name="レイヤー 1"><rect class="cls-1" width="60" height="60" rx="13.25"/><path class="cls-2" d="M8.16,40.53a1.35,1.35,0,0,1-1.3-1.26,1,1,0,0,1,.6-.89,11.44,11.44,0,0,0,3.16-2.46c0-1.07.05-2,.05-2.89v-1c0-.61-.28-.68-1.09-.68H8.66c-.45,0-1.3,0-1.3-1a1,1,0,0,1,1-1.06c.85,0,1.52,0,2.3,0,1.51.05,2.22.71,2.22,2.22s0,3,0,4.52C14.31,38,16.74,38.45,20,38.45c2.36,0,4.94-.26,6.74-.41h.11A1.11,1.11,0,0,1,28,39.18a1.16,1.16,0,0,1-1.18,1.16c-1.47.14-3.64.28-5.82.28-5.5,0-7.23-.8-9.29-2.91C10.55,39,9.09,40.53,8.16,40.53ZM11.05,25A7.08,7.08,0,0,0,8.73,23a.83.83,0,0,1-.47-.74,1.21,1.21,0,0,1,1.2-1.06c.71,0,3.67,1.82,3.67,3a1.38,1.38,0,0,1-1.28,1.33A.92.92,0,0,1,11.05,25Zm13.33,8.13H21.54v3.33a1,1,0,0,1-2,0V33.15H16.79c0,1.07,0,2.18,0,3.29v0a.94.94,0,0,1-1,.95,1,1,0,0,1-1-1c0-1.4,0-2.77,0-4.11,0-1.83,0-3.57,0-5.21,0-1.44.78-2.15,2.43-2.15l1.89,0a5.35,5.35,0,0,0-.85-.42.6.6,0,0,1-.42-.57,1.07,1.07,0,0,1,1-.95,4.83,4.83,0,0,1,1.68.76,10.11,10.11,0,0,0,2-1.25c0-.07-.07-.1-.21-.1-1.68,0-4.89,0-6.76.12h0a.82.82,0,0,1-.8-.9.86.86,0,0,1,.83-.94c2.48-.08,5.39-.08,7.7-.08,1.44,0,2.25.69,2.25,1.45S25,23.49,22,24.93c3.62,0,4.4.11,4.4,3.07,0,3.88,0,5,.09,6.24v.21a2.47,2.47,0,0,1-2.55,2.72c-.78,0-1.7-.21-1.7-1.18a.83.83,0,0,1,.78-.9.75.75,0,0,1,.21,0,1.73,1.73,0,0,0,.5.07c.37,0,.66-.23.66-1.25Zm-4.85-3.31H16.79c0,.55,0,1.11,0,1.7h2.76Zm0-3.21c-2.5,0-2.71,0-2.71.78l0,.83h2.74Zm4.83,1.61c0-.31,0-.6,0-.83a.73.73,0,0,0-.8-.76c-.66,0-1.33,0-2,0v1.61Zm-2.82,1.6v1.7H24.4c0-.54,0-1.13,0-1.7Z"/><path class="cls-2" d="M43.59,35.16v4.73a1,1,0,0,1-1.16,1,1,1,0,0,1-1.13-1V35.16H32.36a1,1,0,0,1-1.13-1A1.1,1.1,0,0,1,32.36,33H35.6c0-.78,0-1.65.07-3.33a2.28,2.28,0,0,1,2.6-2.27h3V24.71H37.54a21.29,21.29,0,0,1-2.89,3.6,1.52,1.52,0,0,1-1,.45,1.17,1.17,0,0,1-1.18-1.12,1.11,1.11,0,0,1,.4-.82,17.94,17.94,0,0,0,4.28-6.48,1.1,1.1,0,0,1,1-.71,1.31,1.31,0,0,1,1.35,1.16,4.62,4.62,0,0,1-.78,1.84H49.21a1,1,0,1,1,0,2.08H43.59v2.72c1.44,0,2.91,0,4.32,0a1.11,1.11,0,0,1,1.19,1.06,1,1,0,0,1-1.16,1h0c-1.37,0-2.88-.05-4.32-.05V33h7a1.06,1.06,0,0,1,1.09,1.09,1,1,0,0,1-1.09,1ZM41.3,29.51H39c-.8,0-1,.4-1,.9,0,.73,0,1.75-.07,2.62H41.3Z"/></g></svg>