<svg xmlns="http://www.w3.org/2000/svg" viewBox="0 0 120 120"><defs><style>.cls-1{fill:#cce9f9;}.cls-2{fill:#2e3659;}.cls-3{fill:#fbddb9;}.cls-4{fill:#6373b6;}.cls-5{fill:#b28146;}.cls-6{fill:#2ca6e0;}.cls-7{fill:#9ed8f5;}.cls-8{fill:#00a199;}.cls-9{fill:#75bbd3;}.cls-10{fill:#3e3a39;}.cls-11{fill:#a3716d;}.cls-12{fill:none;}.cls-13{fill:#4d4d4d;}</style></defs><g id="レイヤー_1" data-name="レイヤー 1"><path class="cls-1" d="M114.3,112.15a22.91,22.91,0,0,1-7.25,4.33c-12.7,5-27.27,3.18-40.6,3.18-8.85,0-17.7-.3-26.55-.29-5.83,0-11.91.83-17.4-1.5C12.29,113.54-3.28,102.33,5.29,89.28,6.54,87.37,8.36,85.75,9,83.55c.83-3-.73-6-2-8.76C2.63,65.5-1.76,50.91.72,40.66c1.48-6.13,5.46-13,8.64-18.45C22.92-.81,45.13.2,69.18.2c14.16,0,32.35-2.36,43.19,9,9.17,9.63,9.68,27.1,3.63,38.48-1.92,3.63-4.51,6.94-5.75,10.85C105,75.14,128.19,99.28,114.3,112.15Z"/><path class="cls-2" d="M39.57,62.85c-.65.41-1.32.8-1.94,1.25-.26.19-.41.31-.77.17a8.33,8.33,0,0,0-1.34-.22,1.49,1.49,0,0,1-1.24-1.69.91.91,0,0,1,.22-.49,5.73,5.73,0,0,1,2-1.53,17,17,0,0,0,5.16-3.54c.4-.39.86-.72,1.29-1.08l-.18-.23-.59.1c-1.06.24-2.15.4-3.18.74a8.5,8.5,0,0,1-3.61.26c-.66-.06-1.31-.23-2-.34a20,20,0,0,1-5.7-1.8,1.38,1.38,0,0,0-1,0C25.33,55,24,55.57,22.56,56a15.33,15.33,0,0,1-2.54.44c-.63.08-1.27.1-1.9.13A3.46,3.46,0,0,0,16,57.81a6.37,6.37,0,0,1-2.83,1.47,3.19,3.19,0,0,1-2.46-1.16c-.26-.47-.09-.91.44-1.35a1.8,1.8,0,0,0,.54-.72c.2-.49,0-.76-.52-1-1.13-.45-2.4-.64-3.31-1.56A3.23,3.23,0,0,1,6.63,51a1.72,1.72,0,0,1,.85-1.47,9.56,9.56,0,0,1,2.18-.68.22.22,0,0,1,.18,0c.78.51,1.65.23,2.47.33s1.87.2,2.81.3c.75.07,1.5.14,2.25.24a1.58,1.58,0,0,1,.46.17l4.05-1.52c.33-.12.68-.22,1-.34,1.06-.37.79-1.25.28-1.83a3,3,0,0,0-.89-.57,3.28,3.28,0,0,1-1.63-3.29c0-.25,0-.5,0-.75a9,9,0,0,1,.09-1.88,12.18,12.18,0,0,1,1.86-4,3,3,0,0,1,1-.88,1.13,1.13,0,0,0,.67-1.15c0-.59-.15-1.17-.14-1.76a5.91,5.91,0,0,1,.21-1.73A10.08,10.08,0,0,1,26,26.64a9.24,9.24,0,0,1,3.39-3,1.27,1.27,0,0,1,1.35.09A2.58,2.58,0,0,1,32,27a1,1,0,0,0,.09.65c0,.08.43.1.45.06a2.21,2.21,0,0,1,1-1.15c.48-.27.73-.92,1.13-1.35a18.69,18.69,0,0,1,1.78-1.78,5.08,5.08,0,0,1,1.63-.92,1.76,1.76,0,0,1,1.33.18,1.69,1.69,0,0,1,.66,2,5.82,5.82,0,0,1-.57,1.25,2.27,2.27,0,0,0,0,1.7,1.17,1.17,0,0,0,.74,0c.67-.39,1.27-.92,2-1.28,1-.54,1.64-1.58,2.7-2.06.53-.24,1-.6,1.55-.84a1.42,1.42,0,0,1,1.48.83,15.81,15.81,0,0,1-.12,1.67c0,.25,0,.51,0,.76s0,.62,0,1.06a3.69,3.69,0,0,0,.87-.24,10.26,10.26,0,0,0,3.52-2.57,2.17,2.17,0,0,1,1.17-.66c1.75-.44,1.76-.42,3,.92a7.78,7.78,0,0,1,1,1.19,3.93,3.93,0,0,1,.6,1.56,9,9,0,0,1,0,2.64c-.21,1.23-.64,2.43-1,3.65-.05.18-.07.37-.11.57.19,0,.4.16.53.1s.64-.4.62-.46c-.38-.85.31-1.18.75-1.62s.67-.56,1-.86a6.87,6.87,0,0,1,2.2-1.36,2,2,0,0,1,.34-.12c.29-.1,5.57-3.31,7.06-4.19.88-.52,1.71-1.15,2.64-1.6s5.26-2.68,5.79-3.56a9.57,9.57,0,0,1,3.21-2.51,4.57,4.57,0,0,1,2.63,1c.76.58,1,.67,1.9.14a1.87,1.87,0,0,1,2.69.42,2.33,2.33,0,0,1,0,2.5A6.3,6.3,0,0,1,85.14,25c-1,.42-6.15,2.85-7.52,3.5-.56.27-3.53,2.63-4.57,3.28-.62.39-1.26.77-1.85,1.2-.43.31-.1.59.16.73s.86.29,1.23.51a13.35,13.35,0,0,1,2.14,1.48c.76.69.67.7,1.57.15,1.18-.72,7.88-4.4,9.2-4.61,3-.18,4.62-.83,5-2.1.65-2.41,2.64-3.17,5-2.54A1.84,1.84,0,0,0,97,26.46a5.73,5.73,0,0,1,3.19-.77,2,2,0,0,1,1.71,1.74,2.25,2.25,0,0,1-1.17,2.15c-1.17.83-2.43,1.53-3.65,2.3l-4,2.61-5,3.19-2.7,1.71c-.93.59-4.36,2.78-5.14,3.3l-.49.28c-.44.25-.86.48-.88,1.1,0,.43-.29.64-.77.76a6.34,6.34,0,0,0-1.41.78c-1.15.65-7.58,3.43-8.41,3.79L65,50.89c-.63.29-1.28.54-1.9.85C60.84,52.82,58.64,54,56.41,55a21.5,21.5,0,0,1-4.56,1.85c-1.15.23-1.46,1.06-1.89,1.71a19.73,19.73,0,0,1-2.59,3.37c-1.34,1.29-2.59,2.67-3.9,4a3.09,3.09,0,0,1-3.12.54,1.1,1.1,0,0,1-.74-1.07c0-.52.1-1,.14-1.55,0-.28,0-.55,0-.83ZM47,50.53a8.51,8.51,0,0,0,0,.88,2.64,2.64,0,0,1-.63,2.11c-.79.95-1.5,2-2.3,2.91a15.08,15.08,0,0,1-2.18,2.33A18.42,18.42,0,0,1,39,60.48c-.93.5-1.91.93-2.84,1.43-.16.08-.21.35-.3.54.18.08.39.27.55.24a10.49,10.49,0,0,0,1.31-.42c.87-.3,1.61-1,2.64-.81a1.57,1.57,0,0,1,1.17,1.76c-.16.44-.24.91-.42,1.34s.09.59.43.55a1.78,1.78,0,0,0,.78-.35,26.54,26.54,0,0,0,2.37-2,38.89,38.89,0,0,0,3-3.32,30.52,30.52,0,0,0,2-3.16c.36-.59.63-1.24,1-1.86a18.38,18.38,0,0,1,1-1.67.79.79,0,0,1,.71-.21,1.08,1.08,0,0,1,.46.68c.05.22-.11.47-.17.71s-.18.72-.28,1.09c1.29-.46,2.45-.87,3.6-1.3.46-.18.89-.41,1.34-.62l3.45-1.71c.42-.2.84-.41,1.24-.65a11.66,11.66,0,0,1,1.08-.7c.72-.33,1.49-.52,2.18-.88,1-.53,1.38-.6,1-1.78a10.3,10.3,0,0,1-.28-1.86,2.78,2.78,0,0,0-.25-1c-.72-1.31-1.42-2.63-2.23-3.88a16.22,16.22,0,0,0-2.07-2.53,8.31,8.31,0,0,1-1.75-2.84,6.51,6.51,0,0,0-.37-.65,4.94,4.94,0,0,1-2.79,2,11.87,11.87,0,0,1-.75,1.82,3.52,3.52,0,0,0-.45,1.19,8.55,8.55,0,0,1-.77,2.16c-.68,1.22-1.44,2.39-2.23,3.54-.64,1-1.35,1.88-2.08,2.78-.39.48-.93.83-1.32,1.31A2.39,2.39,0,0,1,47,50.53Zm4.72-6.74a3.86,3.86,0,0,1,.28-.73c.34-.56.76-1.09,1-1.68s.34-1.06.55-1.57c.29-.72.67-1.41.92-2.14.47-1.39.9-2.79,1.3-4.19a27.1,27.1,0,0,0,.9-3.49,5,5,0,0,0-.43-3.51,1.66,1.66,0,0,0-2.75-.4,11.79,11.79,0,0,0-1.4,2.12,4.24,4.24,0,0,0-.45,1.15c-.29,1.27-.53,2.56-.8,3.84-.12.57-.4,1.69-.4,1.69s.48,1.79.55,2.39c.09.77-.85,6.17-1.46,6.75-1,.94-6.06,2.36-7.25,2.44s-5.91.74-6,.79c-.65.55-1.31,1.1-1.91,1.7a.93.93,0,0,0-.27.79,2.19,2.19,0,0,0,1.58,1.41,11.7,11.7,0,0,0,4.13,0c1.94-.27,3.93-.34,5.63-1.47,1-.69,2-1.44,3-2.22.48-.39.81-1,1.31-1.34a2.7,2.7,0,0,0,.78-1C50.85,44.61,51,43.85,51.71,43.79Zm13.94-7.36a.81.81,0,0,1-1-.67c-.16-.51.26-.69.58-.84.82-.38,1.67-.69,2.48-1.08.16-.08.34-.5.28-.59-.67-.94-1.38-1.85-2.11-2.74a.5.5,0,0,0-.48-.11,18,18,0,0,0-4.71,2.87c-.23.24-.48.45-.73.68a6,6,0,0,1,.68.65c.49.6,1,1.22,1.42,1.83a23.5,23.5,0,0,0,2.1,2.63,7.94,7.94,0,0,1,1.75,2.25c.22.45.41.92.66,1.36a7.26,7.26,0,0,1,1,3.52,4.39,4.39,0,0,0,.18,1.25.59.59,0,0,0,.5.33,12.14,12.14,0,0,0,4.11-1.62c.4-.31,1-.3,1.49-.55.89-.5,1.74-1.08,2.6-1.65.61-.4.65-.59.27-1.2a26.82,26.82,0,0,1-2.23-4.41,4.36,4.36,0,0,0-4.91-3.23,19,19,0,0,0-3.47,1A1.66,1.66,0,0,0,65.65,36.43ZM46.41,25l-.2-.07c-.44.35-.89.69-1.32,1s-.9.88-1.4,1.26c-.66.51-1.36,1-2.06,1.45a15.45,15.45,0,0,1-1.56.95.8.8,0,0,1-.66,0,2.37,2.37,0,0,1-1.43-2.37c.11-.88.34-1.74.5-2.6a.84.84,0,0,0,0-.47.37.37,0,0,0-.33,0,17.3,17.3,0,0,0-1.63,1.31c-.34.33-.56.78-.87,1.14s-.54.44-.78.7c-.67.74-1.27,1.57-2,2.25a1.25,1.25,0,0,1-1.91-.14,2.71,2.71,0,0,1-.5-2.32c.06-.63,0-1.27,0-2a2.87,2.87,0,0,0-.72.27A11.37,11.37,0,0,0,28,26.65a9.72,9.72,0,0,0-1.42,1.84,20.59,20.59,0,0,0-1,2.41,3.26,3.26,0,0,0-.1,2.28.52.52,0,0,0,.43.24c.93-.17,1.85-.43,2.78-.55,1.6-.21,3.22-.35,4.83-.49,1.06-.1,2.14-.07,3.2-.21,1.49-.21,3-.69,4.45-.76a12.25,12.25,0,0,1,6.11,1.28c.63.3,1.23.68,1.9,1.06.06-.23.13-.42.17-.62.3-1.37.61-2.75.9-4.12a3.46,3.46,0,0,0,0-.72,4.83,4.83,0,0,0-.69.33,2.48,2.48,0,0,0-.41.39,1.38,1.38,0,0,1-1.83.19,2.22,2.22,0,0,1-1-2.23C46.3,26.32,46.35,25.66,46.41,25ZM76.14,37.74c.67,1.53,1.24,2.86,1.85,4.17.06.14.44.29.54.22.58-.36,1.11-.79,1.67-1.19s.89-.57,1.31-.88A15.83,15.83,0,0,1,84,38.29c1.57-.75,2.89-1.87,4.36-2.76.8-.49,1.56-1.05,2.36-1.56,1.14-.73,2.29-1.42,3.43-2.14l3.11-2c.86-.56,1.71-1.11,2.54-1.7.19-.13,1.54-.54,1.06-1.1A4.07,4.07,0,0,0,98,26.82c-.87.37-2.12,1.77-2.43,1.62a3.24,3.24,0,0,0-2.67-.22,2.31,2.31,0,0,0-1.38,1.64,6.63,6.63,0,0,1-3.34,2.25c-1.16.11-3.8.45-4.8,1.27C82.89,33.75,78.08,36.61,76.14,37.74ZM45.72,38a2,2,0,0,0-1.12-2.07,5.89,5.89,0,0,0-1.07-.37,7.39,7.39,0,0,0-3.07-.11c-1.05.19-2.12.29-3.17.51a2.25,2.25,0,0,0-1,.57c-.22.19-.3.52-.48.76-.67.83-1.32,1.7-2.06,2.47S32.17,41.2,31.38,42a2.11,2.11,0,0,0-.29.56,2,2,0,0,0,.64.15c2.15-.25,4.31-.45,6.44-.82,1.8-.31,3.56-.78,5.33-1.23S45.76,39.48,45.72,38Zm-33,19.56c.32,0,.5.06.6,0a6.34,6.34,0,0,0,1.66-1.08,4.85,4.85,0,0,1,4.15-1.69,10.63,10.63,0,0,0,2.76-.5c.73-.18,1.43-.45,2.15-.68l2-.66a7.39,7.39,0,0,1-1.94-3.48c0-.07-.36-.17-.5-.12-1,.36-2,.72-3,1.14a6.65,6.65,0,0,1-4.06.76c-1.09-.23-2.19-.38-3.29-.55s-2.13-.28-3.2-.45a1.46,1.46,0,0,0-1.6,1.05c-.15.84.3,1.39,1.28,1.72,1.14.39,2.25.82,3.37,1.27a1.07,1.07,0,0,1,.76,1.14,1.68,1.68,0,0,1-.48,1.25A8.17,8.17,0,0,0,12.67,57.51ZM85.22,21a2.33,2.33,0,0,1-1.32.14c-.41-.26-1.08-.26-1.48-.54a1.34,1.34,0,0,0-1.8.09c-.71.65-1,.88-1.67,1.56a40.39,40.39,0,0,1-4,2.88A17.37,17.37,0,0,0,71.26,27a31.26,31.26,0,0,1-3.57,1.92c-.63.33-.71.59-.15,1a5.32,5.32,0,0,1,1.64,2,.7.7,0,0,0,.64.22c.84-.58,1.64-1.22,2.45-1.84a11.7,11.7,0,0,1,1-.75c1.58-1,3.17-2,4.74-3a11.74,11.74,0,0,1,4-2A8.51,8.51,0,0,0,83.54,24a17.13,17.13,0,0,0,2.79-.89C87.72,22,88.11,19.55,85.22,21ZM34.29,47l-.15-.13c-1.63.17-3.25.34-4.88.48A5.76,5.76,0,0,1,28,47.26c-.69-.09-1.38-.23-2.07-.34-.32-.05-.49.06-.42.42a10,10,0,0,0,1.94,4.52A4.74,4.74,0,0,0,28.79,53,18.67,18.67,0,0,0,35,54.7a15,15,0,0,0,5.93-.29,5.29,5.29,0,0,0,2.93-2.13c-.5.08-1,.28-1.44.34-1.45.16-2.91.19-4.34.42a4.9,4.9,0,0,1-5.26-2.3,1.92,1.92,0,0,1,.29-2.67C33.47,47.7,33.88,47.35,34.29,47ZM31,37l-.09-.23a1.87,1.87,0,0,0-.52,0,9.57,9.57,0,0,0-3.77,1.53,2.89,2.89,0,0,0-1.34,3.25,1.71,1.71,0,0,0,.35.55s.22-.08.31-.15c.61-.56,1.22-1.12,1.81-1.7Q29.34,38.64,31,37Zm-3.53,5.55c1.23.56,1.68.38,2.21-.64a4.22,4.22,0,0,1,.72-.87c.2-.22.45-.41.66-.63.72-.76,1.46-1.5,2.13-2.3a16.53,16.53,0,0,0,1.14-1.72l-.16-.2a3.7,3.7,0,0,0-1.07.47,13.56,13.56,0,0,0-2.16,2.37,25.25,25.25,0,0,1-2.79,2.88C27.9,42.14,27.69,42.33,27.42,42.58Z"/><path class="cls-2" d="M55.72,61.35c-.37-1.12.33-2.05.78-3,.19-.39.86-.56,1.33-.82a4,4,0,0,1,3.85.16,14.15,14.15,0,0,0,1.89.67c.85.27,1.1.81.65,1.53A12.18,12.18,0,0,1,63.45,61c-.42.57-.37.74.26,1a15.15,15.15,0,0,1,4,2.83c.36.34.48.43.85-.08a13.71,13.71,0,0,1,2.28-2.41,23.59,23.59,0,0,1,2.75-1.85,10.74,10.74,0,0,1,1.21-.64c.33-.16,1.09.4,1.09.81,0,1.43-.08,2.86-.09,4.29,0,1,0,2,.07,3,0,.66-.45.89-1,.93-1.28.09-2.56.09-3.84.15a13.81,13.81,0,0,0-1.82.14,1.74,1.74,0,0,0-.82.42c-1.37,1.18-2.7,2.41-4.06,3.59-.34.29-.38.53-.12.85a5,5,0,0,1,.93,3.69,1.74,1.74,0,0,1-1,1.12,5.23,5.23,0,0,1-3.51.57,3.67,3.67,0,0,1-2-.72,1.62,1.62,0,0,1-.52-1.59c0-.25.11-.5.17-.74.11-.43-.09-.58-.49-.59-.87,0-1.75,0-2.61-.12a5.81,5.81,0,0,1-4.37-2.76c-.36-.54-.7-1.09-1-1.64-.24-.38-.3-.68.19-1a2.75,2.75,0,0,0,.81-1.05c.07-.13-.12-.5-.29-.62a6.93,6.93,0,0,0-.93-.37c-1.41-.66-1.24-.48-1.5-1.89A26.11,26.11,0,0,1,55.72,61.35Zm-5.13,5.89,1.85.76c.2.09.54.17.56.3a1.13,1.13,0,0,1-.18.8c-.39.48-.88.88-1.27,1.37a1.06,1.06,0,0,0-.06.73,1.76,1.76,0,0,0,.38.58,5.55,5.55,0,0,0,4.18,2.61,9.58,9.58,0,0,0,4-.59,8.28,8.28,0,0,0,1.69-.62,44.7,44.7,0,0,0,3.76-2.8,26.34,26.34,0,0,0,1.9-2,1,1,0,0,1,.6-.28c1,0,2.08,0,3.13,0,.48,0,.62-.28.45-.66A8,8,0,0,0,70.79,66c-.28-.39-.29-.91.12-1.1A4,4,0,0,1,74,64.53a4.12,4.12,0,0,0-.1.65s.17.07.26.1a2.45,2.45,0,0,0,.23-.62c0-.67,0-1.34,0-2a8,8,0,0,0-.1-1L73.19,62s0,0,0,0c-1,.88-2.06,1.73-3,2.67a5.62,5.62,0,0,0-1.19,1.78c-.29.69-.42.9-1,.55-1.07-.6-2.09-1.28-3.13-1.93A15.17,15.17,0,0,0,62.4,63.7a14.48,14.48,0,0,0-3-.7,3.37,3.37,0,0,0-1.73.09c-1.07.43-2.07,1-3.11,1.57,0,0-.22-.11-.34-.07a2.94,2.94,0,0,0-.92.41C52.39,65.71,51.52,66.46,50.59,67.24Zm10.29,11,.1-.16A11.11,11.11,0,0,0,62.62,78c.5-.11,1.19-.13,1.22-.86a3,3,0,0,0-.81-2.5.74.74,0,0,0-.62-.1c-.53.18-1,.47-1.56.63a1.81,1.81,0,0,0-1.07,2.34C60,77.85,60.51,78,60.88,78.26ZM59.37,58.34a7.77,7.77,0,0,0-1.72,1,1.91,1.91,0,0,0-.29,1.35c0,.11.67.23,1,.27.64.07,1.29.09,1.94.11A2.49,2.49,0,0,0,61.41,61a2.17,2.17,0,0,0,.86-.79c.22-.33.37-.84-.12-1A27.91,27.91,0,0,0,59.37,58.34Z"/><path class="cls-2" d="M53.08,17.24c-.72.82-1.35,1.58-2,2.29-.84.87-1.71,1.78-3.06,1.72a1.63,1.63,0,0,1-.89-.57c-.07-.08,0-.49.17-.6.32-.23.72-.34,1.06-.54a6,6,0,0,0,1.26-.87c1-1,1.84-2.09,2.71-3.16a1.28,1.28,0,0,0,.16-.76c0-.39,0-.82.48-.81s1.18-.23,1.44.47a22.1,22.1,0,0,0,.7,2.13,6.25,6.25,0,0,0,1.23,1.71c.55.54.7.76.32,1.27a.87.87,0,0,1-1.25.12A15.74,15.74,0,0,1,53.7,18,8.66,8.66,0,0,1,53.08,17.24Z"/><path class="cls-2" d="M81.58,55.92A3.56,3.56,0,0,1,79.4,54.5c-.33-.41-.62-.86-.93-1.28s-.43-.32-.75,0A5.53,5.53,0,0,1,72.59,55c-.4-.08-.71-.64-1-1,0,0,.3-.45.47-.46.44,0,.88.12,1.31.13a2.74,2.74,0,0,0,1.15-.09,6,6,0,0,0,3-2.47,1.13,1.13,0,0,1,1.85,0c.8,1.1,1.66,2.16,2.51,3.23.09.12.29.16.4.28s.48.43.46.63a.75.75,0,0,1-.83.69A1.09,1.09,0,0,1,81.58,55.92Z"/><path class="cls-2" d="M29.41,70.66c-.36.34-.65.65-1,.93a3.66,3.66,0,0,1-.78.52,15.52,15.52,0,0,1-1.83.68,1.17,1.17,0,0,1-1.41-.85c-.09-.35,0-.66.46-.63a3.91,3.91,0,0,0,2.87-1.22c.49-.42.94-.88,1.4-1.33s1.4-.18,1.77.62a17.41,17.41,0,0,0,1.3,2.5,5.1,5.1,0,0,0,1.51,1.29c.27.18.67.22.48.61a1.69,1.69,0,0,1-.78.76c-.2.09-.57-.06-.81-.2a6.67,6.67,0,0,1-2.88-3.17C29.67,71,29.56,70.9,29.41,70.66Z"/><path class="cls-2" d="M106,26.06c-.13.28-.32.53-.48.8-.27-.24-.77-.48-.76-.71.07-1.7-1.19-2.09-2.4-2.56-.07,0-.16,0-.24-.06-.36-.16-.8-.26-.71-.81s.58-.49.94-.43A5,5,0,0,1,105.5,24,4.76,4.76,0,0,1,106,26.06Z"/><path class="cls-2" d="M109.61,24.24a3.46,3.46,0,0,1-.67,2.2c-.09.16-.5.15-.75.22-.06-.26-.25-.61-.15-.77A2.37,2.37,0,0,0,107,22.54c-.18-.07-.34-.16-.51-.24a.51.51,0,0,1-.19-.84.8.8,0,0,1,.63-.3A3.43,3.43,0,0,1,109.61,24.24Z"/><path class="cls-3" d="M47,50.53a2.39,2.39,0,0,0,1.86-1.06c.39-.48.93-.83,1.32-1.31.73-.9,1.44-1.82,2.08-2.78.79-1.15,1.55-2.32,2.23-3.54a8.55,8.55,0,0,0,.77-2.16,3.52,3.52,0,0,1,.45-1.19,11.87,11.87,0,0,0,.75-1.82,4.94,4.94,0,0,0,2.79-2,6.51,6.51,0,0,1,.37.65,8.31,8.31,0,0,0,1.75,2.84,16.22,16.22,0,0,1,2.07,2.53c.81,1.25,1.51,2.57,2.23,3.88a2.78,2.78,0,0,1,.25,1,10.3,10.3,0,0,0,.28,1.86c.43,1.18.07,1.25-1,1.78-.69.36-1.46.55-2.18.88a11.66,11.66,0,0,0-1.08.7c-.4.24-.82.45-1.24.65l-3.45,1.71c-.45.21-.88.44-1.34.62-1.15.43-2.31.84-3.6,1.3.1-.37.18-.73.28-1.09s.22-.49.17-.71a1.08,1.08,0,0,0-.46-.68.79.79,0,0,0-.71.21,18.38,18.38,0,0,0-1,1.67c-.33.62-.6,1.27-1,1.86a30.52,30.52,0,0,1-2,3.16,38.89,38.89,0,0,1-3,3.32,26.54,26.54,0,0,1-2.37,2,1.78,1.78,0,0,1-.78.35c-.34,0-.64,0-.43-.55s.26-.9.42-1.34a1.57,1.57,0,0,0-1.17-1.76c-1-.15-1.77.51-2.64.81a10.49,10.49,0,0,1-1.31.42c-.16,0-.37-.16-.55-.24.09-.19.14-.46.3-.54.93-.5,1.91-.93,2.84-1.43a18.42,18.42,0,0,0,2.88-1.72,15.08,15.08,0,0,0,2.18-2.33c.8-1,1.51-2,2.3-2.91A2.64,2.64,0,0,0,47,51.41,8.51,8.51,0,0,1,47,50.53Z"/><path class="cls-4" d="M65.65,36.43a1.66,1.66,0,0,1,.48-.3,19,19,0,0,1,3.47-1,4.36,4.36,0,0,1,4.91,3.23,26.82,26.82,0,0,0,2.23,4.41c.38.61.34.8-.27,1.2-.86.57-1.71,1.15-2.6,1.65-.46.25-4,2-5.6,2.17a.59.59,0,0,1-.5-.33,4.39,4.39,0,0,1-.18-1.25,7.26,7.26,0,0,0-1-3.52c-.25-.44-.44-.91-.66-1.36a7.94,7.94,0,0,0-1.75-2.25,23.5,23.5,0,0,1-2.1-2.63c-.47-.61-.93-1.23-1.42-1.83A6,6,0,0,0,60,34c.25-.23.5-.44.73-.68A18,18,0,0,1,65.4,30.4a.5.5,0,0,1,.48.11c.73.89,1.44,1.8,2.11,2.74.06.09-.12.51-.28.59-.81.39-1.66.7-2.48,1.08-.32.15-.74.33-.58.84A.81.81,0,0,0,65.65,36.43Z"/><path class="cls-5" d="M46.41,25c-.06.65-.11,1.31-.18,2a2.22,2.22,0,0,0,1,2.23A1.38,1.38,0,0,0,49.07,29a2.48,2.48,0,0,1,.41-.39,4.83,4.83,0,0,1,.69-.33,3.46,3.46,0,0,1,0,.72c-.29,1.37-.6,2.75-.9,4.12,0,.2-.11.39-.17.62-.67-.38-1.27-.76-1.9-1.06a12.25,12.25,0,0,0-6.11-1.28c-1.49.07-3,.55-4.45.76-1.06.14-2.14.11-3.2.21-1.61.14-3.23.28-4.83.49-.93.12-1.85.38-2.78.55a.52.52,0,0,1-.43-.24,3.26,3.26,0,0,1,.1-2.28,20.59,20.59,0,0,1,1-2.41A9.72,9.72,0,0,1,28,26.65a11.37,11.37,0,0,1,1.56-1.29,2.87,2.87,0,0,1,.72-.27c0,.75.05,1.39,0,2a2.71,2.71,0,0,0,.5,2.32,1.25,1.25,0,0,0,1.91.14c.73-.68,1.33-1.51,2-2.25.24-.26.55-.44.78-.7s.53-.81.87-1.14a17.3,17.3,0,0,1,1.63-1.31.37.37,0,0,1,.33,0,.84.84,0,0,1,0,.47c-.16.86-.39,1.72-.5,2.6a2.37,2.37,0,0,0,1.43,2.37.8.8,0,0,0,.66,0,15.45,15.45,0,0,0,1.56-.95c.7-.47,1.4-.94,2.06-1.45.5-.38.93-.85,1.4-1.26s.88-.7,1.32-1Z"/><path class="cls-6" d="M48.76,36.52a2.84,2.84,0,0,0-1.29-2,10.36,10.36,0,0,0-4.59-1.48,17.43,17.43,0,0,0-3.68.15l-3.07.48a39.72,39.72,0,0,0-4.21.41,33.78,33.78,0,0,0-4.25.52A6.49,6.49,0,0,0,23.1,38a7.55,7.55,0,0,0-.85,4.34c.07,1.32.13,1.8,1.6,2.09l4.14.86a13.8,13.8,0,0,0,4.71-.13c.91-.12,1.8-.39,2.71-.49,1.15-.14,2.31-.18,3.46-.25s2.35-.09,3.53-.18c.6-.05,1.2-.25,1.8-.31,2.14-.22,3.33-1.63,4.21-3.39A6.16,6.16,0,0,0,48.76,36.52Zm-1.43,2.27a2.82,2.82,0,0,1-1.7,2.84,22.75,22.75,0,0,1-4.71,1.53c-2.09.44-4.23.65-6.35,1a37.75,37.75,0,0,1-7.66.32,3.4,3.4,0,0,1-3.25-2.91,4.76,4.76,0,0,1,.23-3,5.35,5.35,0,0,1,2.47-2.17c.38-.15.73-.41,1.12-.55a12.42,12.42,0,0,1,2.25-.76c1.09-.2,2.2-.25,3.29-.36.49,0,2.68.07,3.25,0H38.5c1.66-.23,3.89-.83,5.54-.36a5.34,5.34,0,0,1,3.22,3C47.45,37.79,47.31,38.33,47.33,38.79Z"/><path class="cls-7" d="M45.72,38c0,1.53-.52,2.24-2.22,2.68s-3.53.92-5.33,1.23c-2.13.37-4.29.57-6.44.82a2,2,0,0,1-.64-.15,2.11,2.11,0,0,1,.29-.56c.79-.77,1.65-1.46,2.4-2.26s1.39-1.64,2.06-2.47c.18-.24.26-.57.48-.76a2.25,2.25,0,0,1,1-.57c1.05-.22,2.12-.32,3.17-.51a7.39,7.39,0,0,1,3.07.11,5.89,5.89,0,0,1,1.07.37A2,2,0,0,1,45.72,38Z"/><path class="cls-3" d="M12.67,57.51a8.17,8.17,0,0,1,.64-.89,1.68,1.68,0,0,0,.48-1.25A1.07,1.07,0,0,0,13,54.23c-1.12-.45-2.23-.88-3.37-1.27-1-.33-1.43-.88-1.28-1.72A1.46,1.46,0,0,1,10,50.19c1.07.17,2.13.29,3.2.45s2.2.32,3.29.55a6.65,6.65,0,0,0,4.06-.76c1-.42,2-.78,3-1.14.14,0,.49.05.5.12A7.39,7.39,0,0,0,26,52.89l-2,.66c-.72.23-1.42.5-2.15.68a10.63,10.63,0,0,1-2.76.5,4.85,4.85,0,0,0-4.15,1.69,6.34,6.34,0,0,1-1.66,1.08C13.17,57.57,13,57.51,12.67,57.51Z"/><path class="cls-3" d="M34.29,47c-.41.37-.82.72-1.22,1.09a1.92,1.92,0,0,0-.29,2.67A4.9,4.9,0,0,0,38,53c1.43-.23,2.89-.26,4.34-.42.48-.06.94-.26,1.44-.34a5.29,5.29,0,0,1-2.93,2.13A15,15,0,0,1,35,54.7,18.67,18.67,0,0,1,28.79,53a4.74,4.74,0,0,1-1.39-1.17,10,10,0,0,1-1.94-4.52c-.07-.36.1-.47.42-.42.69.11,1.38.25,2.07.34a5.76,5.76,0,0,0,1.31.07c1.63-.14,3.25-.31,4.88-.48Z"/><path class="cls-7" d="M31,37q-1.62,1.61-3.25,3.2c-.59.58-1.2,1.14-1.81,1.7-.09.07-.29.17-.31.15a1.71,1.71,0,0,1-.35-.55,2.89,2.89,0,0,1,1.34-3.25,9.57,9.57,0,0,1,3.77-1.53,1.87,1.87,0,0,1,.52,0Z"/><path class="cls-7" d="M27.42,42.58c.27-.25.48-.44.68-.64a25.25,25.25,0,0,0,2.79-2.88,13.56,13.56,0,0,1,2.16-2.37,3.7,3.7,0,0,1,1.07-.47l.16.2a16.53,16.53,0,0,1-1.14,1.72c-.67.8-1.41,1.54-2.13,2.3-.21.22-.46.41-.66.63a4.22,4.22,0,0,0-.72.87C29.1,43,28.65,43.14,27.42,42.58Z"/><path class="cls-8" d="M49.94,67c.94-.78,1.4-1.13,2.3-1.84.26-.2,2.51-2.63,4.6-2.41a15.47,15.47,0,0,1,3.67-.12c1,.16.94.7,1.89,1.07a15.17,15.17,0,0,1,2.37,1.42c1,.65,2.06,1.33,3.13,1.93.62.35.75.14,1-.55a5.62,5.62,0,0,1,1.19-1.78c1-.94,2-1.79,3-2.67,0,0,0,0,0,0l1.12-.33a8,8,0,0,1,.1,1c0,1.44-.09,2.89-.07,4.35a.93.93,0,0,1-.06.41.86.86,0,0,1-.52.34c-1.89.59-3.79.27-5.73.31a1,1,0,0,0-.6.28,26.34,26.34,0,0,1-1.9,2,44.7,44.7,0,0,1-3.76,2.8,8.28,8.28,0,0,1-1.69.62,9.58,9.58,0,0,1-4,.59,5.55,5.55,0,0,1-4.18-2.61,1.76,1.76,0,0,1-.38-.58,1.06,1.06,0,0,1,.06-.73c.39-.49.88-.89,1.27-1.37C53,68.9,50.61,67.27,49.94,67Zm6.43-1.24c-.39.07-.88.09-1,.67a4.82,4.82,0,0,0-.18,1.35,1.44,1.44,0,0,0,.5.86c.06.07.57-.16.68-.36a10.62,10.62,0,0,0,.68-1.67C57.23,66.08,57,65.77,56.37,65.76Z"/><path class="cls-9" d="M60.88,78.26c-.37-.25-.89-.41-1.1-.76a1.81,1.81,0,0,1,1.07-2.34c.53-.16,1-.45,1.56-.63a.74.74,0,0,1,.62.1,3,3,0,0,1,.81,2.5c0,.73-.72.75-1.22.86A11.11,11.11,0,0,1,61,78.1Z"/><path class="cls-9" d="M59.37,58.34a27.91,27.91,0,0,1,2.78.81c.49.19.34.7.12,1a2.17,2.17,0,0,1-.86.79,2.49,2.49,0,0,1-1.06.06c-.65,0-1.3,0-1.94-.11-.38,0-1-.16-1-.27a1.91,1.91,0,0,1,.29-1.35A7.77,7.77,0,0,1,59.37,58.34Z"/><path class="cls-10" d="M56.37,65.76c.62,0,.86.32.68.85a10.62,10.62,0,0,1-.68,1.67c-.11.2-.62.43-.68.36a1.44,1.44,0,0,1-.5-.86,4.82,4.82,0,0,1,.18-1.35C55.49,65.85,56,65.83,56.37,65.76Z"/><path class="cls-11" d="M51.71,43.79a3.86,3.86,0,0,1,.28-.73c.34-.56.76-1.09,1-1.68s.34-1.06.55-1.57c.29-.72.67-1.41.92-2.14.47-1.39.9-2.79,1.3-4.19a27.1,27.1,0,0,0,.9-3.49,5,5,0,0,0-.43-3.51,1.66,1.66,0,0,0-2.75-.4,11.79,11.79,0,0,0-1.4,2.12,4.24,4.24,0,0,0-.45,1.15c-.29,1.27-.53,2.56-.8,3.84-.12.57-.4,1.69-.4,1.69s.48,1.79.55,2.39c.09.77-.85,6.17-1.46,6.75-1,.94-6.06,2.36-7.25,2.44s-5.91.74-6,.79c-.65.55-1.31,1.1-1.91,1.7a.93.93,0,0,0-.27.79,2.19,2.19,0,0,0,1.58,1.41,11.7,11.7,0,0,0,4.13,0c1.94-.27,3.93-.34,5.63-1.47,1-.69,2-1.44,3-2.22.48-.39.81-1,1.31-1.34a2.7,2.7,0,0,0,.78-1C50.85,44.61,51,43.85,51.71,43.79Z"/><path class="cls-3" d="M76.14,37.74c.67,1.53,1.24,2.86,1.85,4.17.06.14.44.29.54.22.58-.36,1.11-.79,1.67-1.19s.89-.57,1.31-.88A15.83,15.83,0,0,1,84,38.29c1.57-.75,2.89-1.87,4.36-2.76.8-.49,1.56-1.05,2.36-1.56,1.14-.73,2.29-1.42,3.43-2.14l3.11-2c.86-.56,1.71-1.11,2.54-1.7.19-.13,1.54-.54,1.06-1.1A4.07,4.07,0,0,0,98,26.82c-.87.37-2.12,1.77-2.43,1.62a3.24,3.24,0,0,0-2.67-.22,2.31,2.31,0,0,0-1.38,1.64,6.63,6.63,0,0,1-3.34,2.25c-1.16.11-3.8.45-4.8,1.27C82.89,33.75,78.08,36.61,76.14,37.74Z"/><path class="cls-3" d="M85.22,21a2.33,2.33,0,0,1-1.32.14c-.41-.26-1.08-.26-1.48-.54a1.34,1.34,0,0,0-1.8.09c-.71.65-1,.88-1.67,1.56a40.39,40.39,0,0,1-4,2.88A17.37,17.37,0,0,0,71.26,27a31.26,31.26,0,0,1-3.57,1.92c-.63.33-.71.59-.15,1a5.32,5.32,0,0,1,1.64,2,.7.7,0,0,0,.64.22c.84-.58,1.64-1.22,2.45-1.84a11.7,11.7,0,0,1,1-.75c1.58-1,3.17-2,4.74-3a11.74,11.74,0,0,1,4-2A8.51,8.51,0,0,0,83.54,24a17.13,17.13,0,0,0,2.79-.89C87.72,22,88.11,19.55,85.22,21Z"/><path class="cls-12" d="M10.88,58.38H11"/><path class="cls-13" d="M70.5,107.38a1,1,0,0,1,1,1.14c0,1.35-1.27,1.37-2.24,1.37A19.47,19.47,0,0,1,60.65,108a20.4,20.4,0,0,1-8.13,2.32,1.22,1.22,0,0,1-1.24-1.22A1.1,1.1,0,0,1,52.47,108a16.27,16.27,0,0,0,5.88-1.43,10,10,0,0,1-2.16-2.16c-3,2.49-5.83,3.92-6.56,3.92a1.07,1.07,0,0,1-1.1-1.08,1.12,1.12,0,0,1,.75-1,23.12,23.12,0,0,0,7.7-5.65l.16-.16-1.06,0c-2.16-.08-2.91-1-3-2.54,0-.84,0-1.78,0-2.73s0-1.86,0-2.56C53.2,90,55.33,90,58,90c.21-.83.27-.91.35-1H50a1,1,0,0,1-1.11-1A1.09,1.09,0,0,1,50,86.76H70.12a1.1,1.1,0,0,1,0,2.19H60.67a.83.83,0,0,1,.16.54,1,1,0,0,1,0,.24c0,.08,0,.14-.06.22,1.46,0,2.86,0,4,.08a2.52,2.52,0,0,1,2.7,2.32c0,.78,0,1.78,0,2.75s0,2,0,2.7c-.06,1.62-1,2.49-2.84,2.57-1.35,0-2.94.08-4.59.08H59a1,1,0,0,1,.35.67.79.79,0,0,1-.11.41l4.7-.06c1.48,0,2.21.79,2.21,1.65s-.54,1.56-3,3.37a22.46,22.46,0,0,0,6.8.89h.65ZM65.13,94.59H55.41v1.19h9.72Zm0-1.89c-.08-.94-.57-.94-4.8-.94s-4.86,0-4.86,1V93h9.69Zm0,4.64H55.44v.33c0,.86.24.89,5.21.89,3.94,0,4.37,0,4.45-.92Zm-2.43,6.24c0-.11-.14-.16-.25-.16h-.1c-.14,0-2.54,0-4.21,0a8.86,8.86,0,0,0,2.4,2C61.56,104.82,62.7,103.87,62.7,103.58Z"/></g></svg>