<svg xmlns="http://www.w3.org/2000/svg" viewBox="0 0 60 60"><defs><style>.cls-1{fill:#cce9f9;}.cls-2{fill:#4d4d4d;}</style></defs><g id="レイヤー_1" data-name="レイヤー 1"><rect class="cls-1" width="60" height="60" rx="13.25"/><path class="cls-2" d="M40.39,38.28a1.08,1.08,0,0,1,1,1.19c0,1.4-1.33,1.43-2.34,1.43a20.34,20.34,0,0,1-9-2,21.09,21.09,0,0,1-8.48,2.42,1.26,1.26,0,0,1-1.29-1.26,1.14,1.14,0,0,1,1.24-1.13,17.29,17.29,0,0,0,6.14-1.49,10.71,10.71,0,0,1-2.26-2.25c-3.18,2.59-6.08,4.08-6.84,4.08a1.12,1.12,0,0,1-1.15-1.13,1.19,1.19,0,0,1,.79-1.1,23.89,23.89,0,0,0,8-5.88l.17-.17c-.37,0-.73,0-1.1,0-2.25-.08-3-1.07-3.1-2.64,0-.88,0-1.86,0-2.85s0-1.94,0-2.67c.09-2.68,2.31-2.68,5-2.68.23-.87.29-.95.37-1.06H19A1.06,1.06,0,0,1,17.82,18,1.13,1.13,0,0,1,19,16.77H40a1.15,1.15,0,0,1,0,2.29H30.15a.89.89,0,0,1,.17.56.72.72,0,0,1,0,.25c0,.09,0,.14-.06.23,1.52,0,3,0,4.2.08a2.62,2.62,0,0,1,2.81,2.42c0,.82.06,1.86.06,2.87s0,2-.06,2.82c-.05,1.69-1,2.59-3,2.67-1.41.06-3.07.09-4.79.09H28.35a1,1,0,0,1,.36.7.83.83,0,0,1-.11.42l4.9-.05c1.55,0,2.31.81,2.31,1.72s-.57,1.63-3.19,3.51a23.32,23.32,0,0,0,7.1.93h.67Zm-5.6-13.34H24.66v1.24H34.79Zm0-2c-.08-1-.59-1-5-1s-5.06,0-5.06,1.07v.26h10.1Zm0,4.84H24.69v.34c0,.9.25.93,5.43.93,4.11,0,4.56,0,4.64-1Zm-2.53,6.5c0-.11-.14-.17-.25-.17h-.12c-.14,0-2.64.06-4.39.06A9.18,9.18,0,0,0,30,36.26C31.08,35.61,32.26,34.62,32.26,34.31Z"/></g></svg>