<svg xmlns="http://www.w3.org/2000/svg" viewBox="0 0 60 60"><defs><style>.cls-1{fill:#f9dbe8;}.cls-2{fill:#4d4d4d;}</style></defs><g id="レイヤー_1" data-name="レイヤー 1"><rect class="cls-1" width="60" height="60" rx="13.25"/><path class="cls-2" d="M35.24,28.43a16.36,16.36,0,0,0,6.22,5.21,1.27,1.27,0,0,1,.82,1.12,1.63,1.63,0,0,1-1.63,1.5c-.82,0-3.15-1.41-5.6-4.23a2.3,2.3,0,0,1,.11.57c.05,1.26.11,2.92.11,4.36,0,.42,0,.82,0,1.18a2.84,2.84,0,0,1-2.81,2.68c-1,0-2,.08-2.93.08s-1.94,0-2.87-.08c-1.78-.12-2.85-1.13-2.9-2.62,0-.42,0-.85,0-1.3,0-1.43.06-2.92.11-4.11a1.73,1.73,0,0,1,.09-.56c-1.44,1.69-4.65,4.65-5.91,4.65a1.29,1.29,0,0,1-1.3-1.24,1.36,1.36,0,0,1,.79-1.19,18,18,0,0,0,6.14-6l-4.73,0a1.09,1.09,0,0,1-1.21-1.07,1.16,1.16,0,0,1,1.21-1.18l6,.05c.29-.56.57-1.15.82-1.74l-3.49,0h0a1,1,0,0,1-1.15-1,1.12,1.12,0,0,1,1.18-1.1h4.28c.17-.48.31-1,.45-1.46H20.74a1.1,1.1,0,0,1-1.21-1.07,1.16,1.16,0,0,1,1.21-1.15H27.5c.14-.6.23-1.16.34-1.75a1.26,1.26,0,0,1,1.29-1.1,1.36,1.36,0,0,1,1.47,1.24,13.92,13.92,0,0,1-.34,1.61H38A1.11,1.11,0,1,1,38,21H29.64c-.14.48-.28,1-.45,1.46h7.4a1.06,1.06,0,1,1,0,2.11l-3.66,0c.29.62.6,1.18.91,1.74L40,26.21a1.13,1.13,0,1,1,0,2.25Zm-8.67,0a22.17,22.17,0,0,1-1.41,2.2c.62-.31,1.27-.43,4.2-.43,3.74,0,3.91.06,4.64.54-.56-.73-1.09-1.49-1.6-2.31ZM26,36.28c0,.48,0,.93,0,1.3.06,1.13.9,1.13,3.55,1.13,2.22,0,3.26,0,3.32-1.16V36.28Zm6.87-2c0-.34,0-.62,0-.88,0-1.21-.67-1.21-3.4-1.21-3.24,0-3.38,0-3.38,2.09Zm-4.39-9.8c-.26.59-.48,1.21-.76,1.77h3.49c-.28-.59-.56-1.15-.79-1.74Z"/></g></svg>