<svg xmlns="http://www.w3.org/2000/svg" viewBox="0 0 120 120"><defs><style>.cls-1{fill:#33b5e5;}.cls-2{fill:#4d4d4d;}.cls-3{fill:#fff;}.cls-4,.cls-6{fill:#3e3a39;}.cls-5{fill:#f7b52c;}.cls-6{stroke:#fff;stroke-miterlimit:10;stroke-width:0.57px;}</style></defs><g id="レイヤー_1" data-name="レイヤー 1"><path class="cls-1" d="M111.32,108.68c-3.71,3.54-9.33,5.06-14.51,6.25q-7.19,1.65-14.38,3.21c-14.58,3.16-30.77,1.3-45.67,1.49-8,.1-18.06-1.43-24.29-6.87C-3.44,98.89,2.44,80.1.44,62A76.28,76.28,0,0,1,.69,43.62c.83-5.91,4.06-9.83,7-15,1.69-2.94,2.43-6.39,4.44-9.13,1.91-2.58,4.78-4.29,7.61-5.86C33.72,5.91,50.06-.88,66.42.09c11.76.7,31.6,7,40.07,15.48,4.93,5,7.55,11.69,9.57,18.35A96,96,0,0,1,120,63.19c-.16,10.48-3,20.55-3.82,31-.33,4.09-.58,8.38-2.75,11.88A13.47,13.47,0,0,1,111.32,108.68Z"/><path class="cls-2" d="M35.51,80.9a2,2,0,0,1,1.17-2.74A2.86,2.86,0,0,1,37.93,78c0-.32,0-.76,0-1.19-1.23.12-2.44.3-3.2.41-1,.16-1.74.35-2.17.43a.75.75,0,1,1-.12-1.48c.58-.1,1.53-.2,2.14-.31s2.05-.27,3.33-.39v-.26c0-.91-.07-1-.07-1.43a.77.77,0,0,1,1.53,0,13.58,13.58,0,0,1,0,1.4c0,.08,0,.15,0,.22.43,0,.8,0,1.13,0,.71,0,1.22,0,2.22,0,1.22,0,1.16,1.58,0,1.49s-1.39-.09-2.3-.1l-1.06,0c0,.46,0,.92,0,1.34,0,.2,0,.51,0,.83,1.3,2-.25,5.14-1.8,6.38-1,.78-2.25-.26-1-1.16A5.23,5.23,0,0,0,38.21,82,1.86,1.86,0,0,1,35.51,80.9ZM38,79.37a1,1,0,0,0-.93-.06.9.9,0,0,0-.43,1.11.87.87,0,0,0,1.68-.25.67.67,0,0,0-.08-.55A1.9,1.9,0,0,0,38,79.37Z"/><path class="cls-2" d="M52.13,78.89c-.73-.54-1.11-.51-1.72,0a20,20,0,0,1-2.16,1.63c-1,.57-2-.75-.85-1.37.36-.19,1.47-.86,2.22-1.39a2.49,2.49,0,0,1,3.3,0,53.17,53.17,0,0,0,5.93,4.16c.95.48.17,2-1,1.46C56.13,82.52,53.82,80.14,52.13,78.89Zm2.13-1.65c-.77-.34-.19-1.26.53-1a4.63,4.63,0,0,1,1.53.93c.6.64-.29,1.56-.8,1A5.75,5.75,0,0,0,54.26,77.24Zm1.4-1.35c-.79-.3-.22-1.24.5-1a4.84,4.84,0,0,1,1.56.87c.62.62-.25,1.58-.77,1A5.22,5.22,0,0,0,55.66,75.89Z"/><path class="cls-2" d="M66.43,77.84a4.58,4.58,0,0,1,.47-.76c.23-.31.16-.29-.12-.21a19.07,19.07,0,0,0-1.84.73,13.6,13.6,0,0,1-1.32.44.83.83,0,1,1-.49-1.58c.31-.07,1.15-.23,1.62-.35.71-.17,2-.46,3.47-.89a20.25,20.25,0,0,1,4-.86.86.86,0,0,1,1,1.13c-.08.24-.4.54-1.43.48a6,6,0,0,0-2.17.41,4.19,4.19,0,0,0-1.87,1.71c-1.29,2.14-.31,5.21,3,5.09,1.54-.06,1.62,1.67.08,1.65A4.64,4.64,0,0,1,66.43,77.84Z"/><path class="cls-2" d="M83.74,77a11.56,11.56,0,0,1-2.95,5.92c-1.13,1-2.35.47-3-.79-.92-1.81.06-4.53,2-5.88a6.08,6.08,0,0,1,6.31-.34A4.32,4.32,0,0,1,87.47,82a6,6,0,0,1-3.56,2.41c-1.28.34-1.74-1.14-.48-1.43a4.55,4.55,0,0,0,2.71-1.63,3.15,3.15,0,0,0-.8-4.47,3.8,3.8,0,0,0-1.81-.59A.75.75,0,0,1,83.74,77Zm-3.25.28c-1.35,1-2.08,3-1.47,4.12.22.42.6.64,1,.32a8.75,8.75,0,0,0,2.27-4.86.86.86,0,0,1,.13-.45A4.86,4.86,0,0,0,80.49,77.28Z"/><path class="cls-2" d="M25.43,103.17c0,.31-.18.44-.37.44a.42.42,0,0,1-.4-.42c0-1.26,0-2.78,0-4.35,0-2.18,0-4.43,0-6.17a1.6,1.6,0,0,1,1.65-1.73c.25,0,.48,0,.72,0,.51,0,1,0,1.49,0a.38.38,0,1,1,0,.76h-.06c-.09,0-.49,0-2,0a1,1,0,0,0-1,1.08c0,1-.06,2.28-.06,3.71,0,2.27.05,4.83.06,6.7Z"/><path class="cls-2" d="M36.19,103c2.62-1.84,3.42-4.42,2.82-6.12-.41-1.14-1.5-1.19-2.51-.59a9.56,9.56,0,0,1-1.41.67.8.8,0,1,1-.46-1.52c.38-.13.85-.29,1.26-.47,1.49-.66,3.63-.6,4.41,1.08,1.12,2.44-.12,5.9-3,8C36.3,104.85,35.33,103.66,36.19,103Zm-.3-10.44c-.83-.47-.22-1.61.8-1.14A9.67,9.67,0,0,0,39,92.1c1.2.21.72,1.68-.36,1.48A9.24,9.24,0,0,1,35.89,92.6Z"/><path class="cls-2" d="M52.19,97.74a11.24,11.24,0,0,1,3.17.64,2.36,2.36,0,0,0-.21-1.53c-.41-.69.91-1.24,1.39-.34a3.65,3.65,0,0,1,.15,2.43,11.45,11.45,0,0,1,2,1.24c.92.72-.07,2.06-.9,1.3a10,10,0,0,0-1.6-1.18,7.14,7.14,0,0,1-2.77,3c-1,.6-1.75-.54-.8-1.12a6.23,6.23,0,0,0,2.3-2.47,9.06,9.06,0,0,0-3.4-.73,7,7,0,0,1-1.87,2.67,2,2,0,0,1-2.79,0c-.74-.93-.2-2.45,1.48-3.2a8.19,8.19,0,0,1,2.39-.62c.51-1.1,1.19-2.43,1.59-3.35.09-.2.14-.32-.08-.26a8.43,8.43,0,0,1-1.73.35.7.7,0,0,1,0-1.39c.58,0,1.47-.25,2.1-.36,1.33-.27,1.92.6,1.26,1.66s-1.2,2.21-1.73,3.3Zm-3.43,1.75c-.38.19-1.07.81-.82,1.17s.7.16,1,0a5.17,5.17,0,0,0,1.21-1.56A4.39,4.39,0,0,0,48.76,99.49Z"/><path class="cls-2" d="M64.12,102.87c-.44,1-2,.55-1.37-.69a44.42,44.42,0,0,0,2.55-6.34,4.27,4.27,0,0,1-2.13-.2c-.74-.32-.6-1.65.5-1.26a3.89,3.89,0,0,0,2,.09,6.44,6.44,0,0,0,0-1.58c-.06-.83,1.31-.87,1.46-.07a4.15,4.15,0,0,1,0,1.17c.21-.1.38-.21.56-.31a.7.7,0,1,1,.57,1.26,9.94,9.94,0,0,1-1.48.58A56.77,56.77,0,0,1,64.12,102.87Zm3.55-.66c-.63-.7.28-1.85,1-1.08s1.63.69,3.34.54a.76.76,0,1,1,.19,1.5A5.18,5.18,0,0,1,67.67,102.21Zm1.65-5.1c-.76.28-1.21-.92-.25-1.25a5.39,5.39,0,0,1,3.51.07c1,.35.58,1.64-.34,1.33A5.13,5.13,0,0,0,69.32,97.11Z"/><path class="cls-2" d="M82.68,101.23c0-.67.11-1.08.08-1.74-.08-1.62-2.3-.24-2.7.49a7.29,7.29,0,0,0-.92,2c-.27,1.13-.59,1.2-.88,1.24a.77.77,0,0,1-.86-1.12,26.72,26.72,0,0,1,2.33-4.43c.85-1.31,1.61-2.55,2.33-3.69.24-.41.64-.92.8-1.21a.79.79,0,0,1,1.36.79,4.51,4.51,0,0,1-.34.51l-.42.49a21.5,21.5,0,0,0-1.55,1.95c-.38.54-.67,1-1,1.49-.11.14-.06.11,0,0,.53-.46,3.05-1.15,3.26,1.32,0,.57-.08,1.06-.08,1.6,0,1.3,1.26,1.14,2.12.37a4.86,4.86,0,0,0,1.33-2c.42-1.09,2-.34,1.4.75a7.06,7.06,0,0,1-1.84,2.43C85.58,103.67,82.65,104,82.68,101.23Z"/><path class="cls-2" d="M94.91,92.06c0-.31.17-.44.36-.44a.44.44,0,0,1,.43.43c0,1.25,0,2.77,0,4.35,0,2.17,0,4.42,0,6.16A1.61,1.61,0,0,1,94,104.3H91.81a.37.37,0,0,1-.39-.38.39.39,0,0,1,.39-.4h.06a17.68,17.68,0,0,0,2,0,1,1,0,0,0,1-1.08c0-.88,0-2,0-3.32,0-2.38,0-5.12-.06-7.09Z"/><path class="cls-3" d="M72.58,20.55c-.12-.11-.21-.18-.28-.26a3.44,3.44,0,0,0-.3-.35,1.12,1.12,0,0,0-.28-.18s-.14,0-.16-.07c-.11-.2-.32-.22-.48-.32s-.35-.15-.52-.23A3.05,3.05,0,0,0,70,18.8c-.41-.11-.72-.39-1.12-.53-.23-.08-.44-.21-.66-.3s-.47-.16-.71-.23c-.08,0-.18,0-.27,0s-.36-.1-.54-.13a3.42,3.42,0,0,0-.46,0l-.64-.07a1.94,1.94,0,0,1-.24,0c-.13,0-.26-.09-.39-.12l-.63-.09a2.09,2.09,0,0,1-.55,0,2.61,2.61,0,0,0-.56,0c-.35,0-.69-.08-1-.13s-.62-.15-.93-.18-.6,0-.89,0a2.28,2.28,0,0,0-.9,0h-.76l-.48,0h-.12l-.83,0h-.07c-.32.16-.67.07-1,.19a2.67,2.67,0,0,1-.69,0,2.75,2.75,0,0,0-.82.09,3.52,3.52,0,0,1-.52.12,6.5,6.5,0,0,0-.9.16c-.18.06-.31.19-.5.06a.09.09,0,0,0-.07,0l-.83.25a3.78,3.78,0,0,0-1,.51c-.09.05-.2.07-.29.12a5.11,5.11,0,0,1-.6.34,1.46,1.46,0,0,0-.64.36s0,0,0,0a1.77,1.77,0,0,0-.65.38.91.91,0,0,1-.19.13c-.31.2-.64.38-1,.59s-.56.41-.83.61c0,0,0,0,0,.05a2.83,2.83,0,0,1-.82.76c-.21.18-.5.3-.63.52s-.41.34-.56.58a4.75,4.75,0,0,1-.42.49c-.28.34-.56.68-.81,1a9.5,9.5,0,0,0-.48.89s0,.1-.07.11c-.2.05-.26.24-.34.39a3.26,3.26,0,0,0-.18.38c-.17.31-.11.7-.35,1a1.23,1.23,0,0,0-.29.62,2.4,2.4,0,0,1-.27.59,2.17,2.17,0,0,0-.12.36.68.68,0,0,0-.07.36.29.29,0,0,1-.07.33.15.15,0,0,0,0,.09c0,.15-.07.31-.1.46s-.07.43-.1.65a.43.43,0,0,1-.08.28c-.15.19-.12.26.06.34a.47.47,0,0,0-.13.46.26.26,0,0,1,0,.12c0,.14-.1.29,0,.42a.1.1,0,0,1,0,.07,1.68,1.68,0,0,0-.17.46c0,.25-.18.5-.23.75s-.05.6-.11.9a3.77,3.77,0,0,0-.15.56,6.22,6.22,0,0,1-.21.93s0,.08,0,.09,0,.18,0,.27l-.06.26c-.06.34-.11.67-.17,1,0,.16-.06.32-.08.48,0,.31,0,.62-.07.92,0,.15-.08.28,0,.44a.74.74,0,0,1,.05.33c0,.25-.09.49-.13.74,0,0,0,.07,0,.1s0,.37,0,.56,0,.53,0,.79-.24.24-.36.21a.71.71,0,0,0-.29-.05c-.25,0-.49.07-.74.09h-.28a3.83,3.83,0,0,1-1.07,0h-.06c-.35,0-.69,0-1,.08s-.37.11-.56.14-.58.08-.88.11-.39,0-.58,0-.24,0-.25-.24a7.2,7.2,0,0,0-.07-.8c0-.14-.06-.29-.07-.43s0-.2,0-.3c0-.28,0-.56,0-.85a3.37,3.37,0,0,1,0-.44c0-.1,0-.2,0-.3s.07-.26,0-.33,0-.23,0-.34,0-.06,0-.08c0-.41,0-.82,0-1.23,0-.17,0-.33,0-.5,0-.42.09-.83.14-1.25,0-.2.09-.39.1-.59a3,3,0,0,1,0-.43c.09-.47,0-1,.15-1.44a3.16,3.16,0,0,0,.05-.69.36.36,0,0,0,0-.1,2.12,2.12,0,0,1-.11-.21.3.3,0,0,0-.14-.1c-.19,0-.39-.17-.58,0s0,.11-.09.14a.66.66,0,0,0-.21.46c-.05.24-.08.49-.11.73a.41.41,0,0,0,0,.19,1.87,1.87,0,0,1-.08.91,2,2,0,0,0-.06.23c0,.13,0,.27,0,.42l.11.08a1.91,1.91,0,0,0-.14.21,5.62,5.62,0,0,0-.15.55.55.55,0,0,0,0,.18c0,.16,0,.31,0,.46a1.66,1.66,0,0,0,0,.22c0,.1.06.25,0,.29s-.05.22,0,.29a.35.35,0,0,1,0,.46.32.32,0,0,0,0,.4,1.5,1.5,0,0,0,.13.11h-.07c0,.09-.06.18-.08.26s0,.2-.05.29a1.76,1.76,0,0,0,0,.79,1.62,1.62,0,0,1,0,.22c0,.33,0,.66-.05,1,0,0,0,0,0,.07,0,.21,0,.41.07.62a1,1,0,0,1,0,.3,3.11,3.11,0,0,0,.12.81c0,.2,0,.26-.21.3s-.11,0-.15,0-.27.19-.4.29,0,0,0,.06.07.22.1.33,0,.17.07.24a.46.46,0,0,0,.14.21.66.66,0,0,0,.61,0,.41.41,0,0,1,.31,0,.53.53,0,0,0,.76-.18.2.2,0,0,1,.12-.13,1.3,1.3,0,0,1,.33-.07l.55,0,.4-.05H35a6.06,6.06,0,0,1,.61-.16,6.07,6.07,0,0,1,.85-.06c.32,0,.64,0,1,0a7.6,7.6,0,0,0,1.07,0,5.31,5.31,0,0,1,1-.08h.27a2.32,2.32,0,0,0-.21.37,2,2,0,0,0-.12.46,2.73,2.73,0,0,0,.05.4c0,.07,0,.16,0,.23a4.17,4.17,0,0,1,.18.57,1.32,1.32,0,0,0,.22.48,2.48,2.48,0,0,0,.66.67,2,2,0,0,0,.48.25c.3.14.61.27.92.39a2.46,2.46,0,0,0,.38.14l1.16.23a5.91,5.91,0,0,0,1.73.11.63.63,0,0,1,.19,0,1.16,1.16,0,0,0,.18,0,4.56,4.56,0,0,1,1,.06c.41.07.83.09,1.24.14.25,0,.49.06.73.09l.64.11a.19.19,0,0,1,.1.13.16.16,0,0,1-.11.12c-.11,0-.23,0-.34.05a.23.23,0,0,0-.12.08.56.56,0,0,1-.52.17c-.32,0-.65-.07-1-.09s-.6,0-.9,0c0,0-.13,0-.13,0-.06.24-.18.09-.29.06s-.27-.19-.45-.06a.64.64,0,0,1-.57.13.2.2,0,0,0-.15.07c0,.23-.14.11-.24,0s-.19-.08-.22-.06c-.24.26-.76.21-.79.71,0,0,0,0,0,0a.69.69,0,0,0,0,.82,1.26,1.26,0,0,0,.56.43c.21,0,.41.13.62.18a3.92,3.92,0,0,0,.51.07c.2,0,.4,0,.61.06h.89c.36,0,.71,0,1.07,0s.66.11,1,.17l.41.1a1.76,1.76,0,0,0,.18.13,5.71,5.71,0,0,1,1.38.45,6.67,6.67,0,0,0,.94.41c.1,0,.11.14,0,.19s-.21.07-.3.14a1.18,1.18,0,0,1-.63.18.46.46,0,0,0-.19.08A4.89,4.89,0,0,0,50,53l-.45.23c-.11.06-.27.1-.32.2s-.27.37-.21.66a1.47,1.47,0,0,0,.82,1,4.57,4.57,0,0,0,.65.24l.15.08a.87.87,0,0,0,.63.11.65.65,0,0,1,.39,0,2.5,2.5,0,0,0,.64.2,1,1,0,0,1,.15.07l.33.15a1,1,0,0,1,.26.12c.12.1.21.23.33.34a.44.44,0,0,1-.08.7l-.71.5a.75.75,0,0,1-.28.17,1.06,1.06,0,0,0-.58.14,1.7,1.7,0,0,1-.23.17c-.12.05-.32,0-.28.24l0,0c-.08.06-.18.11-.14.25s0,.23,0,.33a1.9,1.9,0,0,0,.2.37c.13.19.24.4.54.33,0,0,.07,0,.09,0a3.63,3.63,0,0,1,.93.12.31.31,0,0,1,.18-.05c.2,0,.39.11.59.16l.54.08a2.14,2.14,0,0,0,.67.15c.27,0,.44.15.65.21.36.1.68.33,1.06.41.09,0,.11.05.06.13l-.41.73c-.12.21-.26.41-.39.61a.35.35,0,0,0,0,.48s0,.13.07.2a1.28,1.28,0,0,0,.11.2s.1.05.13.09.08.1.13.15l.25.23c.05,0,.11.13.14.12s.24.06.35.09a.66.66,0,0,1,.24.11.7.7,0,0,0,.6.34s0,0,.07,0,.1,0,.13,0a2.43,2.43,0,0,0,.63-.3,5.21,5.21,0,0,1,.55-.36,2.82,2.82,0,0,1,.31-.21l.48-.15a1.32,1.32,0,0,0,.3,0,1.85,1.85,0,0,0,.33-.12l.8-.41.33-.16a.39.39,0,0,1,.14-.19c.12-.06.26-.26.22-.39s-.12-.31-.18-.47-.1-.29-.14-.44-.37-.35-.43-.63a.61.61,0,0,1,.17-.66c.2-.16.36-.35.56-.5a1.29,1.29,0,0,1,.57-.29,2.75,2.75,0,0,0,.8-.19.9.9,0,0,1,.16,0l.36-.08a1.36,1.36,0,0,1,.2,0l.53-.1s0,0,0,0a2,2,0,0,1,.34-.14c.19,0,.38,0,.57-.08l.61-.17s0,0,.07,0l.21,0s.11,0,.16,0a.56.56,0,0,0,.41-.12s.1,0,.15,0a.4.4,0,0,0,.11,0,3,3,0,0,0,.54-.13c.17-.07.44,0,.47-.27.19.08.19.08.27-.14l.22-.12c.08,0,.19-.13.25-.11s.18,0,.24-.11a2.12,2.12,0,0,1,.29-.38.62.62,0,0,0,.1-.85,2.62,2.62,0,0,0-.86-.73c-.15-.08-.26-.22-.46-.25s-.23-.18-.36-.25-.41-.22-.62-.32a.59.59,0,0,0-.14,0,.13.13,0,0,1-.08,0l-.38-.26a3.29,3.29,0,0,1-.41-.33c-.13-.14-.08-.29.1-.37l.42-.2.27-.09a1.62,1.62,0,0,0,.52-.21c.21-.2.52,0,.69-.26,0,0,0,0,0,0l.21,0,.46-.14a.21.21,0,0,1,.13,0,.77.77,0,0,0,.56,0,1.9,1.9,0,0,1,.53-.09l.45-.07a1,1,0,0,1,.23,0c.29,0,.56,0,.7-.34.13.13.24.07.34,0a5.18,5.18,0,0,1,.4-.41c.12-.11.29-.16.4-.26a4.1,4.1,0,0,0,.5-.52c0-.06,0-.19,0-.28a.42.42,0,0,0-.28-.5l-.06-.06a3,3,0,0,0-.27-.23l-.25-.16c-.06,0-.13-.09-.18-.08s-.33-.09-.5-.09a1.26,1.26,0,0,1-.39,0,3.88,3.88,0,0,1-.36-.15c-.17-.06-.34-.09-.5-.16a5.43,5.43,0,0,1-.59-.3l-.25-.16s0-.09,0-.1.13-.2.22-.24a4.71,4.71,0,0,1,.52-.21.88.88,0,0,0,.23-.14c.09,0,.22,0,.29-.07a.29.29,0,0,1,.28,0c.12,0,.28.12.35-.1,0,0,.07,0,.11,0a.41.41,0,0,0,.47-.16.89.89,0,0,0,.76-.15l.11.09c.12-.06.25-.17.34-.15s.37-.08.54-.12c.36-.09.7-.3,1.09-.17a.14.14,0,0,0,.09,0,1.79,1.79,0,0,1,.92,0h0c.23,0,.48,0,.71-.06a.78.78,0,0,0,.66-.4.16.16,0,0,1,.15,0,.3.3,0,0,0,.39-.09l.3-.32s.09,0,.1,0,.16.07.24,0,.35-.14.39-.36c0,0,0,0,.08-.06a1.12,1.12,0,0,0,.4-.9,0,0,0,0,1,0,0l0-.21a2,2,0,0,0-.06-.34c-.06-.22-.28-.27-.44-.39a1.25,1.25,0,0,1-.08-.12.31.31,0,0,1,.12,0c.2,0,.4,0,.61,0s.48,0,.72,0h.84a1,1,0,0,1,.55.06.59.59,0,0,0,.27,0l.72-.05c.08,0,.17.05.26.05l1.19,0,1.47,0,.42,0a5,5,0,0,0,.64.11,3.41,3.41,0,0,0,1.38-.14c.09,0,.13-.07.12-.17a.42.42,0,0,1,0-.22c.16-.22.11-.37-.17-.44-.07,0-.17,0-.21-.08a1.06,1.06,0,0,0-.51-.32,3.54,3.54,0,0,0-.9-.2c-.38-.05-.76,0-1.14,0s-.57,0-.86-.06l-.91,0-.85,0h-.14c-.32,0-.63-.07-1-.09l-1.07,0c-.35,0-.7,0-1,0a2.29,2.29,0,0,0-.44.09.18.18,0,0,1-.1,0,.26.26,0,0,0-.41.07.5.5,0,0,0-.47-.1.41.41,0,0,1-.19,0c-.12,0-.23-.06-.32.06a.26.26,0,0,1-.12,0,1,1,0,0,1-.15-.07l-.42-.08a.2.2,0,0,1-.16-.26c0-.13,0-.26,0-.39,0-.42.12-.84.17-1.27,0-.25,0-.51,0-.77s.06-.81.08-1.21,0-.59.07-.89.06-.43.07-.65,0-.57,0-.85,0-.6,0-.89a6.1,6.1,0,0,1,.06-1.28s0,0,0-.07l0-.88c0-.22,0-.44,0-.66s0-.45,0-.67c0-.07,0-.14,0-.2,0-.22-.07-.44-.11-.66L77,29.91c0-.16-.06-.32-.1-.48s-.1-.51-.16-.77-.08-.33-.12-.5-.09-.37-.14-.56c0,0,0,0,0-.05s-.14-.3-.22-.45-.16-.52-.37-.71c0,0,0-.08,0-.13a2,2,0,0,0-.15-.61,2.83,2.83,0,0,1-.31-.66c-.1-.26-.09-.56-.3-.78a.77.77,0,0,1-.19-.34,1.19,1.19,0,0,0-.52-.73c0-.06,0-.11,0-.14a1.45,1.45,0,0,1-.24-.35,1.4,1.4,0,0,0-.26-.39c0-.05-.12-.08-.17-.13s0-.05,0-.08c0-.29-.24-.46-.37-.68s-.17-.23-.25-.35S72.88,20.49,72.58,20.55ZM33.7,28.75h-.05a3.3,3.3,0,0,0-.13.37,2.07,2.07,0,0,0,0,.35c0,.17.17.34.06.53,0,0,0,.07.05.1a.79.79,0,0,0,.77.12s.05,0,.06-.07a1.69,1.69,0,0,0,.13-.31c.09-.28.19-.56.25-.84a4,4,0,0,0,0-.49.31.31,0,0,1,0-.12,1.28,1.28,0,0,0,.11-.2c0-.06,0-.12.06-.18s.2-.39.28-.59.24-.62.34-.93a3,3,0,0,1,.2-.62,3.31,3.31,0,0,0,.28-.74c.07-.22.23-.41.2-.66v0c.12-.23.25-.46.36-.7.2-.39.37-.8.57-1.19s.34-.51.51-.76.38-.59.59-.88.31-.34.46-.51l.67-.71c.2-.21.36-.45.57-.64s.69-.56,1-.84l.37-.33.29-.24.52-.46.07-.05.53-.35.65-.51h0c.14-.1.28-.2.41-.31s.27-.25.42-.35.39-.24.59-.36a2.5,2.5,0,0,1,.72-.43.49.49,0,0,0,.17-.06l.81-.43,1.19-.58c.15-.08.33-.07.47-.2s.57-.23.5-.64l0,0c.06-.15,0-.23-.17-.24a2.5,2.5,0,0,0-.72,0,2,2,0,0,0-.42.08c-.38.17-.75.37-1.13.56a1.35,1.35,0,0,1-.36.18,4.94,4.94,0,0,0-1,.5c-.3.12-.56.33-.86.47a.9.9,0,0,0-.4.26.07.07,0,0,1-.06,0,1.47,1.47,0,0,0-.6.44s-.1.07-.15.11l-.3.16-.55.4L42,16l-.34.26a6,6,0,0,0-.55.4,4.29,4.29,0,0,1-.66.62,3,3,0,0,0-.34.25l-.73.63-.25.19a3.59,3.59,0,0,0-.32.35c-.12.15-.21.33-.34.47s-.39.43-.59.63l-.29.29-.6.63a3.58,3.58,0,0,0-.26.29.24.24,0,0,0-.06.11c0,.09,0,.22,0,.26a1.87,1.87,0,0,0-.39.53c-.1.19-.29.33-.28.58,0,0,0,.06-.07.09a1.21,1.21,0,0,0-.1.14c0,.11-.07.23-.11.34s-.14.34-.2.5-.08.21-.12.35,0,.16-.11.24a.6.6,0,0,0-.12.24.83.83,0,0,0,0,.27,1.09,1.09,0,0,1,0,.18c0,.14-.1.28-.16.42s-.09.24-.14.36c-.14.31-.41.55-.45.91,0,0,0,0,0,.06a3.75,3.75,0,0,0-.19.41,3.37,3.37,0,0,1-.19.66c-.13.22-.05.51-.26.7a.25.25,0,0,0,0,.09,1.58,1.58,0,0,1-.06.23ZM63.06,10.42c-.09,0-.15.06-.21.05l-.67-.11-.32,0a1.73,1.73,0,0,0-.68,0c-.11,0-.26,0-.34,0a.58.58,0,0,1-.33.1c-.1,0-.21.05-.31.07a4.48,4.48,0,0,1-.5.11,3,3,0,0,1-.42,0,8.56,8.56,0,0,1-1.34,0,.69.69,0,0,0-.28.05,2.33,2.33,0,0,1-.31.11c-.15,0-.31,0-.45,0s-.35.07-.53.09a6.48,6.48,0,0,1-1.07.19h-.4a3.06,3.06,0,0,1-.51.1.85.85,0,0,0-.77.24l-.06,0-.63.16-.24.08a2.14,2.14,0,0,1-.44.18c-.2,0-.41,0-.61.05a1.4,1.4,0,0,0-.4.11c-.08,0-.12.31-.07.39a.89.89,0,0,1,.08.17.47.47,0,0,0,.55.36c.13,0,.27,0,.39,0a4.74,4.74,0,0,0,.75-.15c.28-.09.55-.25.83-.34a5,5,0,0,1,1-.24,7.53,7.53,0,0,1,.95,0c.18,0,.36,0,.52-.11a.28.28,0,0,1,.11,0l.84-.16a1.38,1.38,0,0,1,.57-.07.37.37,0,0,0,.29-.07c.08-.07.13-.09.21-.06l.48.14a1.58,1.58,0,0,0,.31,0l.24,0,.53-.1.33-.06c.22,0,.46,0,.68-.08a3.23,3.23,0,0,1,1.07-.08c.2,0,.39.09.58.11a1.34,1.34,0,0,0,.66,0h0c.19.13.39,0,.58,0,0,0,.1,0,.15,0a5.2,5.2,0,0,1,.87-.12,3.53,3.53,0,0,1,.63.13.94.94,0,0,0,.29,0c.22,0,.44-.09.66-.11s.16,0,.17-.16l-.2-.12a.49.49,0,0,1,.15-.09c.11,0,.16-.06.11-.19s0-.1,0-.13-.28-.07-.43-.13-.33-.15-.5-.22-.17,0-.23,0a1.28,1.28,0,0,0-.64-.11c-.1,0-.17,0-.2.13s-.09.06-.11.05c-.23-.14-.48,0-.72-.05l-.07,0c-.11.13-.18.07-.28,0s-.17-.1-.21.06,0,.06,0,.09Zm21.65,22,.07.07c.1.1.18.14.32,0a1.17,1.17,0,0,0,.31-.55.68.68,0,0,0,0-.42.72.72,0,0,1-.05-.59.09.09,0,0,0,0-.07,1.14,1.14,0,0,1-.06-.61,7.81,7.81,0,0,0-.09-1.18c0-.24-.07-.48-.11-.72-.08-.4-.15-.8-.23-1.2a1,1,0,0,1-.07-.15,3.5,3.5,0,0,0-.07-.45,5.71,5.71,0,0,0-.21-.58c-.06-.17-.11-.34-.17-.5s0-.44-.13-.63c0,0,0-.06,0-.08s-.12-.1-.14-.16-.09-.31-.14-.47-.17-.48-.26-.72a.36.36,0,0,0-.07-.1c-.08-.11-.21-.22-.24-.35-.08-.31-.4-.44-.52-.72,0,0,0,0-.05,0a.62.62,0,0,0-.59.16.37.37,0,0,0-.15.37,2.84,2.84,0,0,0,.09.42c.06.14.17.25.22.39s.15.57.26.84a8,8,0,0,1,.3,1c.06.3.26.57.22.9,0,0,0,0,0,.05.16.18.09.44.17.65s.07.22.11.33.14.37.22.55a.47.47,0,0,1,.08.33c0,.11,0,.26.13.31s0,.07,0,.08a.8.8,0,0,0,0,.53c0,.18-.06.37.07.54,0,0,0,.09,0,.13s0,.13,0,.19c0,.29,0,.58,0,.88a3.69,3.69,0,0,0,.08.46c0,.1,0,.24,0,.28a.56.56,0,0,1,.19.41s0,0,0,0l.07-.11c0,.08-.07.15-.06.2a2.74,2.74,0,0,0,.12.45Zm-5.2-14.92-.1-.13c0-.07-.13-.13-.14-.21,0-.24-.27-.34-.41-.49s-.07-.12-.11-.13-.33-.09-.37-.29l0,0a1.64,1.64,0,0,1-.7-.42,2.06,2.06,0,0,0-.53-.36c-.2-.13-.41-.27-.62-.39a1,1,0,0,0-.52-.23.81.81,0,0,1-.33-.11,3.15,3.15,0,0,0-.82-.41,4.52,4.52,0,0,1-.47-.18l-.55-.25c-.12-.05-.22-.16-.36-.06a.17.17,0,0,1-.12,0c-.17-.08-.27,0-.36.15s-.15.27,0,.41,0,.05,0,.07a.55.55,0,0,0,.32.46c.26.14.53.24.8.36s.51.22.76.35.46.27.69.39.42.11.55.31c0,0,0,0,.06,0s.25.15.38.21.17.16.31.11a.77.77,0,0,0,.59.38.42.42,0,0,0,.39.29s0,0,0,0,.3.16.31.36c.23,0,.27.28.47.34s.23.21.4.1c0,0,0,0,.05,0s.18.07.21-.06h0c0,.13.09.14.16.18l.1-.18s0-.07,0-.1,0-.14.1-.16.12-.14,0-.22A1.3,1.3,0,0,0,79.51,17.52ZM85.36,37.6h0a2.42,2.42,0,0,1-.1-.45c0-.3.06-.6.06-.89s0-.72-.08-1.08a1.18,1.18,0,0,0-.12-.36,1.16,1.16,0,0,0-.18-.27.46.46,0,0,0-.17-.09s-.1,0-.15,0a.68.68,0,0,0-.56.6c0,.29,0,.58,0,.87a.64.64,0,0,0,0,.34,1.53,1.53,0,0,1,.08.67c0,.44,0,.88,0,1.32,0,0,0,0,0,.06s0,.31.08.47,0,.07,0,.11a.38.38,0,0,0,0,.1c0,.12,0,.23,0,.35s0,.1,0,.14.08.21,0,.29a1.25,1.25,0,0,0,.09.83c0,.11.11.22.26.2a.37.37,0,0,0,.33-.3.29.29,0,0,1,.16-.26s.08-.06.09-.1a5.08,5.08,0,0,0,.15-.65c0-.32,0-.64,0-1,0-.12,0-.24,0-.36S85.38,37.8,85.36,37.6ZM73.87,18.16c.11-.07.15-.16,0-.28l-.4-.41c-.05,0-.08-.13-.13-.16-.21-.11-.42-.19-.63-.29s-.13-.08-.19-.1a3.51,3.51,0,0,1-.57-.21,3.37,3.37,0,0,0-.87-.22c-.21,0-.44-.06-.66-.11l-.37-.09-.81-.19a2.68,2.68,0,0,1-.18.28.31.31,0,0,0,0,.36c0,.07,0,.15.09.21a.89.89,0,0,0,.25.32c.26.12.54.19.81.29a7.66,7.66,0,0,1,1.32.31c.4.2.83.35,1.24.54a1.45,1.45,0,0,0,.82.2C73.88,18.57,74,18.47,73.87,18.16Zm-9.64-4.07c-.18-.05-.4-.09-.61-.17a1.92,1.92,0,0,0-.95,0,.77.77,0,0,1-.4,0,.89.89,0,0,0-.58,0,.53.53,0,0,1-.25,0c-.15,0-.29-.11-.43,0h-.08a.86.86,0,0,0-.28,0,1.36,1.36,0,0,1-1.08.11.15.15,0,0,0-.13,0c-.37.3-.4.42-.21.84,0,0,.07.08.08.12,0,.2.18.22.34.22h.49a4.37,4.37,0,0,0,1-.11c.27,0,.54-.11.81-.12s.77,0,1.16,0c.21,0,.41,0,.62,0a1.47,1.47,0,0,0,.28-.08.48.48,0,0,0,.26-.52A2,2,0,0,1,64.23,14.09ZM37,40a.47.47,0,0,1,0-.16c0-.18,0-.36,0-.54s-.07-.14-.05-.17a.85.85,0,0,0,.12-.49c0-.13.06-.26.08-.4s0-.2,0-.31c0-.27.1-.55.14-.83s0-.53.06-.8.15-.71.22-1.07-.15-.34-.23-.51c0,0,0,0-.06,0a2,2,0,0,0-.23-.06.71.71,0,0,0-.25,0c-.22,0-.26.23-.3.4-.08.33-.14.66-.2,1s-.09.46-.13.69-.09.46-.12.69-.08.66-.1,1c0,.09.09.18.09.28s0,.43,0,.65a.76.76,0,0,0,0,.26,3.6,3.6,0,0,0,.2.39.32.32,0,0,0,.12.11A.51.51,0,0,0,37,40ZM79.55,25.33h0a1.5,1.5,0,0,0,0-.43,4.85,4.85,0,0,0-.31-.65A1.48,1.48,0,0,0,79,24c-.08-.12-.16-.24-.25-.35s-.17-.15-.22-.24a3.37,3.37,0,0,1-.19-.38.3.3,0,0,0-.08-.08l-.13-.1a4.23,4.23,0,0,0-.34-.4,4.14,4.14,0,0,0-.46-.37.68.68,0,0,0-.59,0c-.08.06-.13.17-.21.22a.22.22,0,0,0-.12.27,2.35,2.35,0,0,0,.29.57c.16.24.34.45.52.67a5.07,5.07,0,0,0,.48.56c.08.08.17.12.15.25s0,0,.06.06.22.17.24.28,0,.15.08.21a.52.52,0,0,1,.12.18,1.52,1.52,0,0,0,.5.72.87.87,0,0,0,.22.17.94.94,0,0,0,.28,0l.25-.5Zm1.07,8.52a.21.21,0,0,0,0,.06l.29,0c.28,0,.35-.06.37-.27s0-.41.06-.62a6.08,6.08,0,0,0,0-.61c0-.24-.1-.46-.12-.7s0-.6,0-.9c0-.15-.1-.3-.08-.44A.67.67,0,0,0,81,30a1,1,0,0,0-.73-.51.21.21,0,0,0-.25.16.17.17,0,0,1-.11.11c-.15,0-.17.13-.16.27s0,.42,0,.63,0,.65,0,1a2.2,2.2,0,0,0,0,.36c0,.16.06.31.08.46s.06.34.08.51a.45.45,0,0,1,0,.11.93.93,0,0,0,0,.24,1.76,1.76,0,0,0,.23.37A1.66,1.66,0,0,0,80.62,33.85Zm4.86,20.62a2.26,2.26,0,0,0,0-.45.49.49,0,0,0-.13-.31,2.27,2.27,0,0,0-.59-.44,5.7,5.7,0,0,1-.7-.47c-.22-.13-.38-.35-.67-.36a.45.45,0,0,0-.47.22,3,3,0,0,1-.35.45c-.17.18-.35.35-.53.52a1.13,1.13,0,0,1-.3.24.69.69,0,0,0-.41.34.56.56,0,0,0,.24.78c.07,0,.17,0,.25,0s.19,0,.22-.13c.14.17.28.06.36,0s.49-.32.57-.64a.1.1,0,0,1,.06,0,.36.36,0,0,0,.24-.33l.27-.06c.17.12.38.23.57.38s.15.18.23.05a1.56,1.56,0,0,1,.34.24.4.4,0,0,0,.47.09ZM54.35,15.53c0-.17-.2-.33-.32-.26s-.24,0-.36,0a.57.57,0,0,0-.14,0,5.87,5.87,0,0,1-.62.07,4.77,4.77,0,0,0-.82.12l-1.2.15a5.4,5.4,0,0,0-.69.08.53.53,0,0,0-.32.17.7.7,0,0,0,.67,1.06l.79-.14.79-.1c.21,0,.41-.1.61-.12l1.11-.09c.11,0,.21,0,.1-.19l.22.1.39-.67ZM39.51,26.37a1,1,0,0,1,.21-.1c.13-.05.06-.19.11-.24s.14-.27.23-.36c.26-.28.26-.71.59-.93a.08.08,0,0,0,0,0c.09-.17.17-.34.25-.51s.4-.49.44-.82c0,0,.06-.06.08-.1a.94.94,0,0,0,.28-.64.6.6,0,0,0-.18-.42.69.69,0,0,0-.5-.26.42.42,0,0,0-.26.14c-.18.2-.25.47-.48.64a.15.15,0,0,0,0,.09.72.72,0,0,1-.26.44c-.06,0-.07.13-.1.19s0,.1,0,.12a1.57,1.57,0,0,0-.36.59c-.09.17-.08.38-.26.51a.13.13,0,0,0,0,.07l-.09.43a.38.38,0,0,0,0,.15c0,.11,0,.24,0,.34a.36.36,0,0,0,.09.4s0,.06,0,.08C39.26,26.3,39.36,26.33,39.51,26.37ZM47,18.29c0-.16,0-.27-.19-.5s-.44-.33-.63-.19l-.49.39-.14.12c-.14.08-.3.15-.44.24a.93.93,0,0,0-.3.2,2.91,2.91,0,0,1-.83.69l-.33.21c-.15.1-.22.31-.44.3a.83.83,0,0,0,0,.25s.05.07.06.11,0,.33.05.5a.27.27,0,0,0,.34.23,1.07,1.07,0,0,0,.31-.13,9.54,9.54,0,0,0,.92-.58,10.47,10.47,0,0,1,.89-.73,3.37,3.37,0,0,0,.46-.31c.15-.12.28-.26.42-.39s.08-.13.13-.14A.27.27,0,0,0,47,18.29ZM32,48.71a.19.19,0,0,1,.18-.26.48.48,0,0,1,.42.19c.25.27.48.55.7.83a.71.71,0,0,0,.53.27c.36,0,.57-.24.44-.55a1.11,1.11,0,0,0-.25-.32l-.59-.59a.41.41,0,0,1-.12-.2.35.35,0,0,0-.22-.31,1.25,1.25,0,0,1-.23-.23s0-.08-.07-.11-.17-.16-.26-.16a1.48,1.48,0,0,0-.46.08s-.06.07-.07.11a.64.64,0,0,1,0,.2,3.55,3.55,0,0,1-.21.44s-.11,0-.17,0l-.09.07-.13.07a.63.63,0,0,0-.2.1,1.08,1.08,0,0,1-.58.11l-.05,0a.7.7,0,0,0-.58-.27c-.33,0-.35.06-.26.36,0,0,0,0,0,.05a.77.77,0,0,0,.33.69,1.13,1.13,0,0,0,.86.2c.09,0,.24-.07.26-.13s.08-.14.19-.14a.21.21,0,0,0,.12-.07Zm48.61-1.05c-.12.32-.25.63-.37,1a.21.21,0,0,1-.06.08,1.16,1.16,0,0,0-.43.65s0,.06,0,.06c-.2,0-.24.2-.32.33h-.06c-.17-.08-.19-.06-.22.12s-.06.08-.1.11-.33.15-.39.28a2,2,0,0,0-.17.64.22.22,0,0,0,.13.26c.1,0,.18.11.28.14a.36.36,0,0,0,.18,0s.06-.07.1-.08a.66.66,0,0,0,.37-.4c0-.1.06-.25.13-.31a.44.44,0,0,0,.22-.47l.15.08a1.58,1.58,0,0,0,.12-.15,3.43,3.43,0,0,1,.57-.8c.13-.14.17-.14.3,0l.45.46s.1,0,.12,0,.17,0,.23,0,.19.11.28,0a.15.15,0,0,1,.11-.07c.2,0,.23-.1.19-.31a1.09,1.09,0,0,0-.26-.5c-.09-.12-.17-.24-.27-.35a3.68,3.68,0,0,0-.4-.39A2.6,2.6,0,0,0,81,47.7,1,1,0,0,0,80.62,47.66Zm-1.7-7.09a2.93,2.93,0,0,1,0,.37.47.47,0,0,0,.38.39.45.45,0,0,1,.19.05.27.27,0,0,0,.41-.09,1.36,1.36,0,0,1,.13-.24c.25-.21.15-.49.15-.73a2.26,2.26,0,0,1,0-.37c.06-.33.09-.66.12-1a3.47,3.47,0,0,0,0-.72,1.24,1.24,0,0,0-.22-.5,1.4,1.4,0,0,0-.33-.24.3.3,0,0,0-.47.14c0,.06-.09.11-.14.16s-.07.05-.08.08A2.71,2.71,0,0,0,79,39a1.1,1.1,0,0,0,0,.57s0,0,0,.05C79,39.92,79,40.25,78.92,40.57Zm-38.12,16c.18-.23.06-.37-.1-.5s-.08-.07-.08-.11-.15-.22-.26-.32-.12-.11-.13-.18a.28.28,0,0,0-.2-.23l-.17-.11-.47-.33s-.13-.05-.19-.09-.2-.12-.31,0l-1.17,1.21-.25.23c-.1.12-.3.17-.26.39s.07.27.1.39a2.24,2.24,0,0,0,.26.1.27.27,0,0,0,.18,0c.15-.12.33-.2.42-.39a1.83,1.83,0,0,1,.13-.16,3.72,3.72,0,0,0,.19-.34s0-.1.07-.09c.18,0,.22-.12.25-.23a.34.34,0,0,1,.16,0,1.23,1.23,0,0,1,.47.14,2.5,2.5,0,0,1,.33.38s.1,0,.15.07a.73.73,0,0,0,.17.26,1.29,1.29,0,0,1,.16.17c0,.11.09.11.17,0s.07,0,.14-.07l-.06.15c.3.12.37-.16.59-.29ZM38.64,29.24h0L38.46,29c0-.05-.06-.12-.1-.13l-.61-.05s0,0-.06,0a2,2,0,0,1-.19.28,1.92,1.92,0,0,0-.2.55c-.06.16,0,.36-.11.49a1.24,1.24,0,0,0-.25,1s0,.09,0,.1a1,1,0,0,1,.07.21,1.43,1.43,0,0,0,.14.61c.12.22.24.43.52.34a.83.83,0,0,0,.13-.14c.06-.1.19-.13.21-.29a9.38,9.38,0,0,1,.18-1.06,1.34,1.34,0,0,1,.13-.27,2.19,2.19,0,0,0,.12-.33C38.5,30,38.57,29.6,38.64,29.24ZM34.43,18.52c0-.06-.06-.16-.11-.18a4.82,4.82,0,0,0-.7-.31c-.51-.17-1-.31-1.53-.47a.47.47,0,0,1-.12-.09.41.41,0,0,0-.53,0,.67.67,0,0,0,.12.74,1.66,1.66,0,0,0,.67.35,5.16,5.16,0,0,1,.66.23c.36.14.72.3,1.09.43a.28.28,0,0,0,.36-.18.29.29,0,0,1,.1-.12A.23.23,0,0,0,34.43,18.52Zm-2.88,5.34c-.08-.14,0-.19.07-.22s.1-.17.09-.26a.32.32,0,0,0-.12-.18c-.08,0-.19,0-.27-.09a.35.35,0,0,0-.4-.05.1.1,0,0,1-.09,0,1.25,1.25,0,0,0-.7-.19l-.09,0a4.53,4.53,0,0,0-1.32-.14.55.55,0,0,0-.17,0l.06.15c-.05.11-.11.19-.1.26a.85.85,0,0,0,.55.54c.32,0,.65,0,1,.09a3.54,3.54,0,0,0,1.17,0A2.35,2.35,0,0,1,31.55,23.86Zm-3.69,8.06-.33,0c-.15,0-.29,0-.44,0s-.29,0-.44,0a3.19,3.19,0,0,1-.54.07,6.11,6.11,0,0,0-.74,0,1,1,0,0,1,0,.37.19.19,0,0,0,.07.24,1.24,1.24,0,0,1,.22.18.41.41,0,0,0,.52,0s.05,0,.07,0c.4,0,.77-.21,1.16-.25a.19.19,0,0,0,.13-.07c.08-.11.15-.23.22-.34Z"/><path class="cls-4" d="M72.58,20.55c.3-.06.39.24.53.47s.18.23.25.35.37.39.37.68c0,0,0,.06,0,.08s.12.08.17.13a1.4,1.4,0,0,1,.26.39,1.45,1.45,0,0,0,.24.35s0,.08,0,.14a1.19,1.19,0,0,1,.52.73.77.77,0,0,0,.19.34c.21.22.2.52.3.78a2.83,2.83,0,0,0,.31.66,2,2,0,0,1,.15.61s0,.1,0,.13c.21.19.24.47.37.71s.15.3.22.45,0,0,0,.05c0,.19.09.38.14.56s.09.33.12.5.11.52.16.77.07.32.1.48l.12.54c0,.22.08.44.11.66,0,.06,0,.13,0,.2,0,.22,0,.45,0,.67s0,.44,0,.66l0,.88s0,0,0,.07a6.1,6.1,0,0,0-.06,1.28c0,.29,0,.59,0,.89s0,.57,0,.85,0,.44-.07.65,0,.59-.07.89,0,.8-.08,1.21,0,.52,0,.77c0,.43-.12.85-.17,1.27,0,.13,0,.26,0,.39a.2.2,0,0,0,.16.26l.42.08a1,1,0,0,0,.15.07.26.26,0,0,0,.12,0c.09-.12.2-.08.32-.06a.41.41,0,0,0,.19,0,.5.5,0,0,1,.47.1.26.26,0,0,1,.41-.07.18.18,0,0,0,.1,0,2.29,2.29,0,0,1,.44-.09c.34,0,.69,0,1,0l1.07,0c.32,0,.63.06,1,.09h.14l.85,0,.91,0c.29,0,.57,0,.86.06s.76,0,1.14,0a3.54,3.54,0,0,1,.9.2,1.06,1.06,0,0,1,.51.32s.14.06.21.08c.28.07.33.22.17.44a.42.42,0,0,0,0,.22c0,.1,0,.13-.12.17a3.41,3.41,0,0,1-1.38.14,5,5,0,0,1-.64-.11l-.42,0-1.47,0L83,43.7c-.09,0-.18-.05-.26-.05l-.72.05a.59.59,0,0,1-.27,0,1,1,0,0,0-.55-.06h-.84c-.24,0-.48,0-.72,0s-.41,0-.61,0a.31.31,0,0,0-.12,0,1.25,1.25,0,0,0,.08.12c.16.12.38.17.44.39a2,2,0,0,1,.06.34l0,.21a0,0,0,0,0,0,0,1.12,1.12,0,0,1-.4.9s-.08,0-.08.06c0,.22-.27.24-.39.36s-.16.11-.24,0-.08,0-.1,0l-.3.32a.3.3,0,0,1-.39.09.16.16,0,0,0-.15,0,.78.78,0,0,1-.66.4c-.23,0-.48,0-.71.06h0a1.79,1.79,0,0,0-.92,0,.14.14,0,0,1-.09,0c-.39-.13-.73.08-1.09.17-.17,0-.32.18-.54.12s-.22.09-.34.15L73,47.34a.89.89,0,0,1-.76.15.41.41,0,0,1-.47.16s-.1,0-.11,0c-.07.22-.23.12-.35.1a.29.29,0,0,0-.28,0c-.07.06-.2,0-.29.07a.88.88,0,0,1-.23.14,4.71,4.71,0,0,0-.52.21c-.09,0-.15.15-.22.24s0,.08,0,.1l.25.16a5.43,5.43,0,0,0,.59.3c.16.07.33.1.5.16a3.88,3.88,0,0,0,.36.15,1.26,1.26,0,0,0,.39,0c.17,0,.31.15.5.09s.12,0,.18.08l.25.16a3,3,0,0,1,.27.23l.06.06a.42.42,0,0,1,.28.5c0,.09,0,.22,0,.28a4.1,4.1,0,0,1-.5.52c-.11.1-.28.15-.4.26a5.18,5.18,0,0,0-.4.41c-.1.11-.21.17-.34,0-.14.33-.41.35-.7.34a1,1,0,0,0-.23,0l-.45.07a1.9,1.9,0,0,0-.53.09.77.77,0,0,1-.56,0,.21.21,0,0,0-.13,0l-.46.14-.21,0s0,0,0,0c-.17.24-.48.06-.69.26a1.62,1.62,0,0,1-.52.21l-.27.09-.42.2c-.18.08-.23.23-.1.37a3.29,3.29,0,0,0,.41.33l.38.26a.13.13,0,0,0,.08,0,.59.59,0,0,1,.14,0c.21.1.42.2.62.32s.24.24.36.25.31.17.46.25a2.62,2.62,0,0,1,.86.73.62.62,0,0,1-.1.85,2.12,2.12,0,0,0-.29.38c-.06.08-.1.16-.24.11s-.17.07-.25.11l-.22.12c-.08.22-.08.22-.27.14,0,.3-.3.2-.47.27a3,3,0,0,1-.54.13.4.4,0,0,1-.11,0s-.12,0-.15,0a.56.56,0,0,1-.41.12s-.11,0-.16,0l-.21,0s0,0-.07,0l-.61.17c-.19,0-.38,0-.57.08a2,2,0,0,0-.34.14s0,0,0,0l-.53.1a1.36,1.36,0,0,0-.2,0l-.36.08a.9.9,0,0,0-.16,0,2.75,2.75,0,0,1-.8.19,1.29,1.29,0,0,0-.57.29c-.2.15-.36.34-.56.5a.61.61,0,0,0-.17.66c.06.28.35.37.43.63s.09.29.14.44.13.31.18.47-.1.33-.22.39a.39.39,0,0,0-.14.19l-.33.16-.8.41a1.85,1.85,0,0,1-.33.12,1.32,1.32,0,0,1-.3,0l-.48.15a2.82,2.82,0,0,0-.31.21,5.21,5.21,0,0,0-.55.36,2.43,2.43,0,0,1-.63.3s-.09,0-.13,0,0,0-.07,0a.7.7,0,0,1-.6-.34.66.66,0,0,0-.24-.11c-.11,0-.2-.14-.35-.09s-.09-.08-.14-.12l-.25-.23s-.08-.11-.13-.15-.09-.06-.13-.09a1.28,1.28,0,0,1-.11-.2c0-.07,0-.15-.07-.2a.35.35,0,0,1,0-.48c.13-.2.27-.4.39-.61l.41-.73c0-.08,0-.12-.06-.13-.38-.08-.7-.31-1.06-.41-.21-.06-.38-.24-.65-.21a2.14,2.14,0,0,1-.67-.15L53.62,60c-.2-.05-.39-.12-.59-.16a.31.31,0,0,0-.18.05,3.63,3.63,0,0,0-.93-.12s-.07,0-.09,0c-.3.07-.41-.14-.54-.33a1.9,1.9,0,0,1-.2-.37c0-.1,0-.22,0-.33s.06-.19.14-.25l0,0c0-.23.16-.19.28-.24a1.7,1.7,0,0,0,.23-.17,1.06,1.06,0,0,1,.58-.14.75.75,0,0,0,.28-.17l.71-.5a.44.44,0,0,0,.08-.7c-.12-.11-.21-.24-.33-.34a1,1,0,0,0-.26-.12l-.33-.15a1,1,0,0,0-.15-.07,2.5,2.5,0,0,1-.64-.2.65.65,0,0,0-.39,0,.87.87,0,0,1-.63-.11l-.15-.08a4.57,4.57,0,0,1-.65-.24,1.47,1.47,0,0,1-.82-1c-.06-.29.11-.46.21-.66s.21-.14.32-.2L50,53a4.89,4.89,0,0,1,.48-.2.46.46,0,0,1,.19-.08,1.18,1.18,0,0,0,.63-.18c.09-.07.21-.08.3-.14s.08-.15,0-.19a6.67,6.67,0,0,1-.94-.41,5.71,5.71,0,0,0-1.38-.45,1.76,1.76,0,0,1-.18-.13l-.41-.1c-.33-.06-.66-.13-1-.17s-.71,0-1.07,0h-.89c-.21,0-.41,0-.61-.06a3.92,3.92,0,0,1-.51-.07c-.21-.05-.41-.13-.62-.18a1.26,1.26,0,0,1-.56-.43.69.69,0,0,1,0-.82s0,0,0,0c0-.5.55-.45.79-.71,0,0,.15,0,.22.06s.2.18.24,0a.2.2,0,0,1,.15-.07.64.64,0,0,0,.57-.13c.18-.13.3,0,.45.06s.23.18.29-.06c0,0,.08,0,.13,0,.3,0,.6,0,.9,0s.66.05,1,.09a.56.56,0,0,0,.52-.17.23.23,0,0,1,.12-.08c.11,0,.23,0,.34-.05a.16.16,0,0,0,.11-.12.19.19,0,0,0-.1-.13l-.64-.11c-.24,0-.48-.07-.73-.09-.41-.05-.83-.07-1.24-.14a4.56,4.56,0,0,0-1-.06,1.16,1.16,0,0,1-.18,0,.63.63,0,0,0-.19,0,5.91,5.91,0,0,1-1.73-.11l-1.16-.23a2.46,2.46,0,0,1-.38-.14c-.31-.12-.62-.25-.92-.39a2,2,0,0,1-.48-.25,2.48,2.48,0,0,1-.66-.67,1.32,1.32,0,0,1-.22-.48,4.17,4.17,0,0,0-.18-.57c0-.07,0-.16,0-.23a2.73,2.73,0,0,1-.05-.4,2,2,0,0,1,.12-.46,2.32,2.32,0,0,1,.21-.37H39.5a5.31,5.31,0,0,0-1,.08,7.6,7.6,0,0,1-1.07,0c-.32,0-.64,0-1,0a6.07,6.07,0,0,0-.85.06,6.06,6.06,0,0,0-.61.16h-.14l-.4.05-.55,0a1.3,1.3,0,0,0-.33.07.2.2,0,0,0-.12.13.53.53,0,0,1-.76.18.41.41,0,0,0-.31,0,.66.66,0,0,1-.61,0,.46.46,0,0,1-.14-.21c0-.07,0-.16-.07-.24s-.07-.22-.1-.33,0,0,0-.06.26-.2.4-.29.1,0,.15,0,.23-.1.21-.3a3.11,3.11,0,0,1-.12-.81,1,1,0,0,0,0-.3c0-.21-.05-.41-.07-.62,0,0,0,0,0-.07,0-.33,0-.66.05-1a1.62,1.62,0,0,0,0-.22,1.76,1.76,0,0,1,0-.79c0-.09,0-.19.05-.29s0-.17.08-.26h.07a1.5,1.5,0,0,1-.13-.11.32.32,0,0,1,0-.4.35.35,0,0,0,0-.46c-.06-.07-.14-.17,0-.29s0-.19,0-.29a1.66,1.66,0,0,1,0-.22c0-.15,0-.3,0-.46a.55.55,0,0,1,0-.18,5.62,5.62,0,0,1,.15-.55,1.91,1.91,0,0,1,.14-.21l-.11-.08c0-.15,0-.29,0-.42a2,2,0,0,1,.06-.23,1.87,1.87,0,0,0,.08-.91.41.41,0,0,1,0-.19c0-.24.06-.49.11-.73a.66.66,0,0,1,.21-.46c.05,0,.05-.1.09-.14s.39,0,.58,0a.3.3,0,0,1,.14.1,2.12,2.12,0,0,0,.11.21.36.36,0,0,1,0,.1,3.16,3.16,0,0,1-.05.69c-.12.47-.06,1-.15,1.44a3,3,0,0,0,0,.43c0,.2-.08.39-.1.59-.05.42-.1.83-.14,1.25,0,.17,0,.33,0,.5,0,.41,0,.82,0,1.23,0,0,0,0,0,.08s-.08.21,0,.34,0,.22,0,.33,0,.2,0,.3a3.37,3.37,0,0,0,0,.44c0,.29,0,.57,0,.85,0,.1,0,.2,0,.3s.05.29.07.43a7.2,7.2,0,0,1,.07.8c0,.22,0,.26.25.24s.39,0,.58,0,.59-.06.88-.11.37-.12.56-.14.68-.06,1-.08h.06a3.83,3.83,0,0,0,1.07,0H38c.25,0,.49-.07.74-.09a.71.71,0,0,1,.29.05c.12,0,.35-.09.36-.21s0-.53,0-.79.07-.38,0-.56,0-.07,0-.1c0-.25.1-.49.13-.74a.74.74,0,0,0-.05-.33c-.06-.16,0-.29,0-.44,0-.3,0-.61.07-.92,0-.16.06-.32.08-.48.06-.34.11-.67.17-1l.06-.26c0-.09.09-.18,0-.27s0-.06,0-.09a6.22,6.22,0,0,0,.21-.93,3.77,3.77,0,0,1,.15-.56c.06-.3,0-.6.11-.9s.19-.5.23-.75a1.68,1.68,0,0,1,.17-.46.1.1,0,0,0,0-.07c-.14-.13-.07-.28,0-.42a.26.26,0,0,0,0-.12.47.47,0,0,1,.13-.46c-.18-.08-.21-.15-.06-.34a.43.43,0,0,0,.08-.28c0-.22.06-.43.1-.65s.06-.31.1-.46a.15.15,0,0,1,0-.09.29.29,0,0,0,.07-.33.68.68,0,0,1,.07-.36,2.17,2.17,0,0,1,.12-.36,2.4,2.4,0,0,0,.27-.59,1.23,1.23,0,0,1,.29-.62c.24-.29.18-.68.35-1a3.26,3.26,0,0,1,.18-.38c.08-.15.14-.34.34-.39,0,0,0-.07.07-.11a9.5,9.5,0,0,1,.48-.89c.25-.36.53-.7.81-1a4.75,4.75,0,0,0,.42-.49c.15-.24.41-.33.56-.58s.42-.34.63-.52a2.83,2.83,0,0,0,.82-.76s0,0,0-.05c.27-.2.54-.42.83-.61s.64-.39,1-.59a.91.91,0,0,0,.19-.13,1.77,1.77,0,0,1,.65-.38s0,0,0,0A1.46,1.46,0,0,1,50,18.7a5.11,5.11,0,0,0,.6-.34c.09-.05.2-.07.29-.12a3.78,3.78,0,0,1,1-.51l.83-.25a.09.09,0,0,1,.07,0c.19.13.32,0,.5-.06a6.5,6.5,0,0,1,.9-.16,3.52,3.52,0,0,0,.52-.12,2.75,2.75,0,0,1,.82-.09,2.67,2.67,0,0,0,.69,0c.33-.12.68,0,1-.19h.07l.83,0h.12l.48,0h.76a2.28,2.28,0,0,1,.9,0c.29,0,.59,0,.89,0s.62.13.93.18.68.1,1,.13a2.61,2.61,0,0,1,.56,0,2.09,2.09,0,0,0,.55,0l.63.09c.13,0,.26.09.39.12a1.94,1.94,0,0,0,.24,0l.64.07a3.42,3.42,0,0,1,.46,0c.18,0,.36.09.54.13s.19,0,.27,0c.24.07.48.14.71.23s.43.22.66.3c.4.14.71.42,1.12.53a3.05,3.05,0,0,1,.61.34c.17.08.36.14.52.23s.37.12.48.32c0,0,.11,0,.16.07a1.12,1.12,0,0,1,.28.18,3.44,3.44,0,0,1,.3.35C72.37,20.37,72.46,20.44,72.58,20.55ZM66,42a1.06,1.06,0,0,1,.59-.19,1.12,1.12,0,0,0,.32,0,2.62,2.62,0,0,1,1.18,0s.09,0,.12,0a1.45,1.45,0,0,1,.92,0,.7.7,0,0,0,.32,0c.22,0,.44-.11.66-.13a3.27,3.27,0,0,1,.54,0h.69a12.18,12.18,0,0,0,1.35,0c.4,0,.79.06,1.19,0a9.5,9.5,0,0,1,1.31.08c.15,0,.18-.06.18-.18a1.61,1.61,0,0,1,0-.22c0-.24.1-.49.12-.73s0-.75.06-1.12l.06-1,.09-1c0-.22.06-.43.06-.65a13.25,13.25,0,0,1,0-1.41,5.08,5.08,0,0,0,.07-.67c0-.12-.07-.29.11-.37,0,0,0,0,0,0,0-.16,0-.32-.06-.47a1.13,1.13,0,0,1,0-.26s0-.08,0-.12a4.28,4.28,0,0,0-.07-.72c-.06-.28.16-.56,0-.82h0v-.87a1.7,1.7,0,0,0,0-.22c0-.18-.08-.36-.11-.54l-.18-1.28s0-.07,0-.11-.07-.31-.11-.47a1.36,1.36,0,0,0,0-.2c0-.15-.12-.28-.18-.43s-.14-.4-.22-.59-.17-.29-.16-.43a.3.3,0,0,0-.12-.27.37.37,0,0,1-.1-.17c-.1-.25-.19-.49-.28-.74l-.12-.36A3.75,3.75,0,0,0,74,25a2.09,2.09,0,0,0-.26-.46,9.38,9.38,0,0,1-.58-.91L73,23.38c-.22-.37-.43-.76-.68-1.13-.12-.17-.21-.38-.44-.48s-.14-.22-.23-.3-.38-.3-.57-.44l-.57-.41c-.07-.06-.12-.16-.2-.21s-.42-.18-.63-.28l-.39-.21c-.14-.06-.3-.09-.44-.16s-.4-.19-.6-.28-.26-.09-.39-.14-.12-.12-.2-.14-.31-.07-.47-.11l-1-.22-.1,0a1.05,1.05,0,0,0-.21-.06l-1.17-.1c-.42-.05-.84-.12-1.26-.18L62,18.31l-.63-.08c-.3,0-.59-.08-.89-.1s-.53,0-.79-.05a3.77,3.77,0,0,0-1.06,0,.74.74,0,0,0-.13.08l-.44-.05a5.61,5.61,0,0,0-.58,0,2.3,2.3,0,0,1-.37,0,1.29,1.29,0,0,0-.67.12,1,1,0,0,1-1,.09.15.15,0,0,0-.09,0c-.27,0-.54,0-.81.05a5.35,5.35,0,0,0-.69.17l-.67.19a6.25,6.25,0,0,0-.74.21c-.2.07-.39.17-.58.25l-.47.19c-.13.06-.27.1-.4.15s-.43.19-.64.31-.51.1-.71.31a1.25,1.25,0,0,1-.22.16,3.27,3.27,0,0,0-.69.42c-.2.19-.44.34-.65.51s-.57.45-.85.68l-.41.32c-.13.12-.24.26-.36.38s-.36.3-.51.47-.29.38-.44.57a8.15,8.15,0,0,0-.75.92c-.12.2-.21.41-.32.6s-.1.25-.17.37-.26.42-.37.64-.16.39-.25.58a2.45,2.45,0,0,1-.22.5,1.44,1.44,0,0,0-.3.73,1.11,1.11,0,0,1-.08.36,2.81,2.81,0,0,0-.22.51,8.18,8.18,0,0,1-.27.88c0,.16-.12.33-.16.49s-.11.47-.19.7-.22.64-.33,1c0,0,0,0,0,.08a3.55,3.55,0,0,1-.06.47l-.21,1a.78.78,0,0,1-.05.14c0,.13-.08.26-.11.39s0,.24-.07.37l-.09.49a2.27,2.27,0,0,1-.14.61,1.47,1.47,0,0,0-.14.65c0,.07-.11.13-.1.16.11.19,0,.39,0,.58a4.94,4.94,0,0,1-.12.94l-.12.8c0,.09,0,.18,0,.26a1.79,1.79,0,0,1,0,.83.11.11,0,0,0,0,.08c0,.2.18.39,0,.6,0,0,0,0,0,.08,0,.3-.09.59-.15.88,0,.11.08.39.16.4.26,0,.53.08.8.1s.36,0,.54,0,.59,0,.89.08l.08,0a3,3,0,0,1,.72-.05,8.44,8.44,0,0,0,1.74,0,.48.48,0,0,1,.27,0c.27.15.51,0,.74,0s.2.1.28.09c.37,0,.75.11,1.12-.06h.08a11.06,11.06,0,0,0,1.91.05h.06l.48,0,.75-.09a1.47,1.47,0,0,0,.28-.08v.06s.09.07.13.07l.91-.05,1.11,0,.1,0c.14,0,.28-.06.43-.07l.73,0c.38,0,.77-.05,1.15,0a14.44,14.44,0,0,1,1.46.08c.27,0,.57-.07.81.13,0,0,0,0,0,0l.35-.07a.24.24,0,0,1,.33.16l.16-.21a2.37,2.37,0,0,1-.39,0l-.87-.26a5.16,5.16,0,0,1-.49-.21,4,4,0,0,1-.43-.28l-.43-.36c-.07-.06-.1-.17-.23-.15s-.08-.1-.12-.16,0-.09-.07-.12A2,2,0,0,1,55.8,40a1.46,1.46,0,0,1-.29-.5.58.58,0,0,1,.2-.64.22.22,0,0,1,.16,0c.14.07.28.16.43.23h0c.17-.11.2,0,.27.14s.19.25.3.37l.35.29c.07.07.12.16.19.22s.21.09.31.15A2.21,2.21,0,0,0,59,40.6a2,2,0,0,1,.49,0,1.2,1.2,0,0,0,.75,0c.14,0,.27-.17.41-.21s.34,0,.4-.24l.05,0,.48-.37s0-.06.07-.07a.79.79,0,0,0,.47-.33s.09-.06.14-.08.33-.1.35-.29l.29-.07a1.25,1.25,0,0,1,.11.41,2.08,2.08,0,0,1-.2.95c-.1.19-.19.39-.42.47a.94.94,0,0,0-.28.1c-.15.1-.27.24-.42.34s-.37.35-.66.31c0,0-.06,0-.09,0l-.35.14-.26.08a.5.5,0,0,0,.2.08h1.16c.41,0,.82.05,1.23.07.06,0,.12,0,.18,0s.14.06.21.06a1,1,0,0,0,.23-.05h0c.06.17.15,0,.23,0,0,.13.16.19.24.09.22-.25.52-.07.77-.16,0,0,.06.05.07.06a.53.53,0,0,1,.16,0c.22,0,.46,0,.68,0S65.94,41.78,66,42Zm9.45,1.52a.46.46,0,0,1-.2.05c-.16,0-.32,0-.48-.05a3.39,3.39,0,0,0-.89-.08c-.33.05-.66-.13-1,0,0,0,0,0-.06,0l-.27,0c-.15,0-.3,0-.45,0a2.63,2.63,0,0,0-.84,0,1.71,1.71,0,0,1-.32,0h-.17l-.34,0c-.32,0-.63-.07-.94-.07s-.37.06-.56.06a4.52,4.52,0,0,0-.82-.05c-.25,0-.51-.16-.75,0,0,0-.06,0-.09,0a4.35,4.35,0,0,0-.51,0,3.61,3.61,0,0,1-.64.08c-.21,0-.41.16-.61,0h0a.74.74,0,0,1-.44,0c-.09,0-.2,0-.3,0l-.82,0-.77,0-.49,0a2,2,0,0,1-.55,0,3.78,3.78,0,0,0-1.06,0l-.57,0a4.68,4.68,0,0,0-.65,0,2.37,2.37,0,0,1-.84,0,.81.81,0,0,0-.61,0,.14.14,0,0,1-.09,0l-.74-.14H57c-.43,0-.87-.06-1.31-.06s-.86,0-1.29,0c-.17,0-.35,0-.52,0s-.4,0-.6,0a6.62,6.62,0,0,0-1.09,0c-.33,0-.65-.12-1,0,0,0-.05,0-.08,0h-.71a2.17,2.17,0,0,0-.25,0l-1,0c-.26,0-.53,0-.8,0l-.59,0c-.24,0-.47,0-.7.07s-.67,0-1,0a11.63,11.63,0,0,1-1.18,0,.79.79,0,0,1-.22,0l-.14,0-1.33,0c-.4,0-.8,0-1.19-.06a1.64,1.64,0,0,0-.5,0,1.31,1.31,0,0,0-.65.42,1.46,1.46,0,0,0-.44.68.93.93,0,0,0,0,.41.81.81,0,0,0,.21.31,2.39,2.39,0,0,0,.23.22,3.83,3.83,0,0,0,.59.4,5.72,5.72,0,0,0,.83.26,4,4,0,0,0,.66.18c.44.07.87.1,1.31.15h.13v0l-.18,0a.31.31,0,0,0,.49.09s.1-.1.13-.09a1.38,1.38,0,0,0,.67,0,4.51,4.51,0,0,1,.82,0l1.14.1.12,0,.61.11.26.08a.36.36,0,0,0,.18,0h.47l.1,0,.83.18c.12,0,.25,0,.32.15s.09,0,.14.05.13,0,.16,0a4,4,0,0,1,.36.35s0,.07,0,.11-.09.37-.15.56a1.08,1.08,0,0,1-.46.55,1.81,1.81,0,0,1-.47.13l-.37.12a2.58,2.58,0,0,1-.86.25,1.2,1.2,0,0,0-.46.07.92.92,0,0,1-.71,0l-.2,0-.33,0a2.91,2.91,0,0,0-.51,0,7.93,7.93,0,0,1-1,.08,4,4,0,0,0-1,.21.22.22,0,0,0-.19.27c0,.14.17.15.31.13a1,1,0,0,1,.64.06.18.18,0,0,0,.13,0,1.68,1.68,0,0,1,.74,0l.12,0c.29,0,.59,0,.88,0s.73.06,1.09.06a4.67,4.67,0,0,1,1.1.22c.24.06.47.19.72.25s.39.21.65.21.27.12.41.19a.18.18,0,0,1,.07.08.23.23,0,0,0,.22.13c.14,0,.31,0,.38.11a.34.34,0,0,0,.35.14l.29.24a.81.81,0,0,0,.14.12c.15.07.22.22.35.31a1.45,1.45,0,0,1,.33.52s0,0,0,.06c0,.18-.18.24-.29.34a.89.89,0,0,1-.3.22c-.22.08-.46.14-.7.21-.06,0-.11.08-.17.11a.67.67,0,0,1-.21.13c-.14,0-.29,0-.42.09a3.71,3.71,0,0,0-.61.28,1.75,1.75,0,0,0-.26.18,1.17,1.17,0,0,0,.25.15l.79.16c.26,0,.52.12.78.19a3.08,3.08,0,0,1,.68.17,2.36,2.36,0,0,1,.57.25c.11.09.26.13.29.31.24-.09.33.09.44.21a4.24,4.24,0,0,0,.31.4,2.13,2.13,0,0,1,.45.5.88.88,0,0,1-.08.91.9.9,0,0,0-.14.2,1.13,1.13,0,0,1-.65.6,1.09,1.09,0,0,0-.17.13s-.08.09-.12.1a1.94,1.94,0,0,0-.66.24,4,4,0,0,0-.4.22l0,.05c.4,0,.79.07,1.18.12.1,0,.19.08.29.1s.29,0,.43,0l.52.12c.19,0,.38.09.57.15a3.89,3.89,0,0,1,.44.16l.3.14c.12,0,.24.05.36.09a2.73,2.73,0,0,1,.31.14c.34.17.68.33,1,.52a.35.35,0,0,1,.14.23.94.94,0,0,1-.38.77l-.12.14c-.2.29-.38.59-.59.89s-.11.28.07.38l.54.29a.33.33,0,0,0,.42-.06,1.93,1.93,0,0,1,.21-.13v.15l.53-.3a2.42,2.42,0,0,1,.69-.27c.21,0,.48,0,.59-.32,0,0,.1-.06.15-.09l.44-.26c.13-.08.11-.21,0-.32a5.08,5.08,0,0,1-.27-.43,2,2,0,0,1-.26-1c0-.12.05-.27-.07-.39s0-.07,0-.1l.18-.3c0-.08.06-.18.13-.23a3,3,0,0,1,.71-.42c.19,0,.2-.34.44-.28.06-.17.24-.14.33-.13a1.45,1.45,0,0,0,.59-.12A2.53,2.53,0,0,1,63,58c.12,0,.22-.09.32-.11a2.38,2.38,0,0,1,.54,0l.21-.1a3.41,3.41,0,0,0,.33-.17c.21-.14.29-.16.47,0A2.14,2.14,0,0,1,66,57.27s0,0,.07-.06.18-.23.37-.15a.42.42,0,0,0,.25,0c.08,0,.15-.09.24-.12a2.64,2.64,0,0,1,.55-.15.86.86,0,0,0,.41-.19c.14-.1.3-.18.49-.29l-.26-.18-.42-.29c-.06,0-.15-.05-.2-.1s-.16-.08-.2,0l-.42,0,0-.15-.34,0a.41.41,0,0,1,0-.1c.09-.17.09-.17-.1-.2a.75.75,0,0,1-.32-.08,4.16,4.16,0,0,1-.56-.55,2.84,2.84,0,0,1-.48-.85.82.82,0,0,1,.07-.79,1.9,1.9,0,0,1,.83-.62,2.5,2.5,0,0,1,.26-.07,1.57,1.57,0,0,0,.28-.1,1.14,1.14,0,0,1,.9-.17l.11-.22.13.16v-.17c.09,0,.21,0,.25,0a.49.49,0,0,1,.27-.15,1.78,1.78,0,0,0,.38-.1l0,.12.29-.19c.06.12.14.13.26,0a.44.44,0,0,1,.28-.1.23.23,0,0,0,.23,0s.09,0,.12,0,.31.15.45,0a.29.29,0,0,0,.43-.22c.08,0,.16,0,.21,0l.79-.37a.18.18,0,0,0,.09-.16.21.21,0,0,0-.13-.13.86.86,0,0,0-.32-.05c-.36,0-.68-.24-1-.24l0,0-.87-.47a4.15,4.15,0,0,1-.34-.24.5.5,0,0,1-.16-.11s-.05-.08-.08-.11a1.8,1.8,0,0,1-.46-.91.4.4,0,0,1,.19-.5s0,0,.07,0,.4-.08.52-.27h.06s.08,0,.1,0,.29-.22.44-.3a1.55,1.55,0,0,1,.38-.13s.07,0,.09,0a.7.7,0,0,1,.43-.23.83.83,0,0,0,.22-.08.58.58,0,0,1,.41-.07,1.47,1.47,0,0,0,.47,0c.09,0,.16-.11.25-.12s.38,0,.58,0c0,0,.07-.06.11-.1s.07-.08.1-.07a1,1,0,0,0,.65-.14l.24-.09.25-.08c.09,0,.19-.12.27,0s.07,0,.09,0L74.6,46c.17-.07.29-.08.38,0l.45,0s.08,0,.11,0a.28.28,0,0,1,.37.08c0-.06,0-.08,0-.07l.68-.16.21-.07.57-.24c.05,0,.09-.08.15-.12s.43-.25.64-.39a.42.42,0,0,0,.18-.22c0-.06-.08-.16-.14-.2s-.28-.13-.42-.2a3.8,3.8,0,0,0-.59-.23,4.43,4.43,0,0,1-.68-.28,2.44,2.44,0,0,1-.33-.23l-.1,0-.16,0Zm-16.28-1.6c.12,0,.24.12.38,0s.05-.09.07-.14a.53.53,0,0,0-.2-.05A1,1,0,0,0,59.16,41.88Z"/><path class="cls-4" d="M33.7,28.75l0-.07a1.58,1.58,0,0,0,.06-.23.25.25,0,0,1,0-.09c.21-.19.13-.48.26-.7a3.37,3.37,0,0,0,.19-.66,3.75,3.75,0,0,1,.19-.41s0,0,0-.06c0-.36.31-.6.45-.91,0-.12.1-.24.14-.36s.11-.28.16-.42a1.09,1.09,0,0,0,0-.18.83.83,0,0,1,0-.27.6.6,0,0,1,.12-.24c.08-.08.17-.15.11-.24s.08-.24.12-.35.14-.33.2-.5.07-.23.11-.34a1.21,1.21,0,0,1,.1-.14s.07-.06.07-.09c0-.25.18-.39.28-.58a1.87,1.87,0,0,1,.39-.53s0-.17,0-.26a.24.24,0,0,1,.06-.11,3.58,3.58,0,0,1,.26-.29l.6-.63.29-.29c.2-.2.4-.41.59-.63s.22-.32.34-.47a3.59,3.59,0,0,1,.32-.35l.25-.19.73-.63a3,3,0,0,1,.34-.25,4.29,4.29,0,0,0,.66-.62,6,6,0,0,1,.55-.4L42,16l.17-.11.55-.4.3-.16s.11-.07.15-.11a1.47,1.47,0,0,1,.6-.44.07.07,0,0,0,.06,0,.9.9,0,0,1,.4-.26c.3-.14.56-.35.86-.47a4.94,4.94,0,0,1,1-.5,1.35,1.35,0,0,0,.36-.18c.38-.19.75-.39,1.13-.56a2,2,0,0,1,.42-.08,2.5,2.5,0,0,1,.72,0c.16,0,.23.09.17.24l0,0c.07.41-.3.45-.5.64s-.32.12-.47.2l-1.19.58-.81.43a.49.49,0,0,1-.17.06,2.5,2.5,0,0,0-.72.43c-.2.12-.4.22-.59.36s-.28.24-.42.35-.27.21-.41.31h0l-.65.51-.53.35-.07.05-.52.46-.29.24-.37.33c-.34.28-.7.55-1,.84s-.37.43-.57.64l-.67.71c-.15.17-.32.33-.46.51s-.39.59-.59.88-.36.5-.51.76-.37.8-.57,1.19c-.11.24-.24.47-.36.7v0c0,.25-.13.44-.2.66a3.31,3.31,0,0,1-.28.74,3,3,0,0,0-.2.62c-.1.31-.21.62-.34.93s-.19.39-.28.59,0,.12-.06.18a1.28,1.28,0,0,1-.11.2.31.31,0,0,0,0,.12,4,4,0,0,1,0,.49c-.06.28-.16.56-.25.84a1.69,1.69,0,0,1-.13.31s0,.07-.06.07a.79.79,0,0,1-.77-.12s-.06-.08-.05-.1c.11-.19,0-.36-.06-.53a2.07,2.07,0,0,1,0-.35,3.3,3.3,0,0,1,.13-.37Z"/><path class="cls-4" d="M63.06,10.42l.14.13s0-.06,0-.09.13-.13.21-.06.17.16.28,0l.07,0c.24,0,.49-.09.72.05,0,0,.1,0,.11-.05s.1-.14.2-.13a1.28,1.28,0,0,1,.64.11c.06,0,.16,0,.23,0s.33.16.5.22.3.09.43.13,0,.09,0,.13,0,.16-.11.19a.49.49,0,0,0-.15.09l.2.12c0,.11,0,.15-.17.16s-.44.08-.66.11a.94.94,0,0,1-.29,0,3.53,3.53,0,0,0-.63-.13,5.2,5.2,0,0,0-.87.12c-.05,0-.11,0-.15,0-.19-.05-.39.1-.58,0h0a1.34,1.34,0,0,1-.66,0c-.19,0-.38-.09-.58-.11a3.23,3.23,0,0,0-1.07.08c-.22.05-.46.05-.68.08l-.33.06-.53.1-.24,0a1.58,1.58,0,0,1-.31,0l-.48-.14c-.08,0-.13,0-.21.06a.37.37,0,0,1-.29.07,1.38,1.38,0,0,0-.57.07l-.84.16a.28.28,0,0,0-.11,0c-.16.15-.34.11-.52.11a7.53,7.53,0,0,0-.95,0,5,5,0,0,0-1,.24c-.28.09-.55.25-.83.34a4.74,4.74,0,0,1-.75.15c-.12,0-.26,0-.39,0a.47.47,0,0,1-.55-.36.89.89,0,0,0-.08-.17c-.05-.08,0-.36.07-.39a1.4,1.4,0,0,1,.4-.11c.2,0,.41,0,.61-.05a2.14,2.14,0,0,0,.44-.18l.24-.08.63-.16.06,0a.85.85,0,0,1,.77-.24,3.06,3.06,0,0,0,.51-.1h.4a6.48,6.48,0,0,0,1.07-.19c.18,0,.35-.08.53-.09s.3,0,.45,0a2.33,2.33,0,0,0,.31-.11.69.69,0,0,1,.28-.05,8.56,8.56,0,0,0,1.34,0,3,3,0,0,0,.42,0,4.48,4.48,0,0,0,.5-.11c.1,0,.21-.06.31-.07a.58.58,0,0,0,.33-.1c.08-.06.23,0,.34,0a1.73,1.73,0,0,1,.68,0l.32,0,.67.11C62.91,10.48,63,10.44,63.06,10.42Z"/><path class="cls-4" d="M84.71,32.44l-.21.13a2.74,2.74,0,0,1-.12-.45s.05-.12.06-.2l-.07.11s0,0,0,0a.56.56,0,0,0-.19-.41s0-.18,0-.28a3.69,3.69,0,0,1-.08-.46c0-.3,0-.59,0-.88,0-.06,0-.13,0-.19s0-.11,0-.13c-.13-.17,0-.36-.07-.54a.8.8,0,0,1,0-.53s0-.07,0-.08-.15-.2-.13-.31a.47.47,0,0,0-.08-.33c-.08-.18-.15-.37-.22-.55s-.07-.22-.11-.33,0-.47-.17-.65c0,0,0,0,0-.05,0-.33-.16-.6-.22-.9a8,8,0,0,0-.3-1c-.11-.27-.16-.56-.26-.84s-.16-.25-.22-.39a2.84,2.84,0,0,1-.09-.42.37.37,0,0,1,.15-.37.62.62,0,0,1,.59-.16s.05,0,.05,0c.12.28.44.41.52.72,0,.13.16.24.24.35a.36.36,0,0,1,.07.1c.09.24.18.48.26.72s.08.32.14.47.08.1.14.16,0,.06,0,.08c.13.19.06.42.13.63s.11.33.17.5a5.71,5.71,0,0,1,.21.58,3.5,3.5,0,0,1,.07.45,1,1,0,0,0,.07.15c.08.4.15.8.23,1.2,0,.24.08.48.11.72a7.81,7.81,0,0,1,.09,1.18,1.14,1.14,0,0,0,.06.61.09.09,0,0,1,0,.07.72.72,0,0,0,.05.59.68.68,0,0,1,0,.42,1.17,1.17,0,0,1-.31.55c-.14.13-.22.09-.32,0Z"/><path class="cls-4" d="M79.51,17.52a1.3,1.3,0,0,1,.25.18c.08.08.09.16,0,.22s-.07.1-.1.16,0,.07,0,.1l-.1.18c-.07,0-.18-.05-.16-.18h0c0,.13-.08.22-.21.06s0,0-.05,0c-.17.11-.27-.06-.4-.1s-.24-.32-.47-.34c0-.2-.24-.21-.31-.36s0,0,0,0a.42.42,0,0,1-.39-.29.77.77,0,0,1-.59-.38c-.14.05-.22-.06-.31-.11s-.26-.14-.38-.21-.05,0-.06,0c-.13-.2-.36-.21-.55-.31s-.45-.27-.69-.39-.5-.24-.76-.35-.54-.22-.8-.36a.55.55,0,0,1-.32-.46s0-.06,0-.07-.1-.28,0-.41.19-.23.36-.15a.17.17,0,0,0,.12,0c.14-.1.24,0,.36.06l.55.25a4.52,4.52,0,0,0,.47.18,3.15,3.15,0,0,1,.82.41.81.81,0,0,0,.33.11,1,1,0,0,1,.52.23c.21.12.42.26.62.39a2.06,2.06,0,0,1,.53.36,1.64,1.64,0,0,0,.7.42l0,0c0,.2.18.27.37.29s.07.09.11.13.36.25.41.49c0,.08.09.14.14.21Z"/><path class="cls-4" d="M85.36,37.6c0,.2,0,.4,0,.6s0,.24,0,.36c0,.33,0,.65,0,1a5.08,5.08,0,0,1-.15.65s-.06.07-.09.1a.29.29,0,0,0-.16.26.37.37,0,0,1-.33.3c-.15,0-.21-.09-.26-.2a1.25,1.25,0,0,1-.09-.83c0-.08,0-.19,0-.29s0-.09,0-.14,0-.23,0-.35a.38.38,0,0,1,0-.1s0-.08,0-.11,0-.32-.08-.47,0,0,0-.06c0-.44,0-.88,0-1.32a1.53,1.53,0,0,0-.08-.67.64.64,0,0,1,0-.34c0-.29,0-.58,0-.87a.68.68,0,0,1,.56-.6s.11,0,.15,0a.46.46,0,0,1,.17.09,1.16,1.16,0,0,1,.18.27,1.18,1.18,0,0,1,.12.36c0,.36.07.72.08,1.08s-.05.59-.06.89a2.42,2.42,0,0,0,.1.45Z"/><path class="cls-4" d="M73.87,18.16c.1.31,0,.41-.29.45a1.45,1.45,0,0,1-.82-.2c-.41-.19-.84-.34-1.24-.54a7.66,7.66,0,0,0-1.32-.31c-.27-.1-.55-.17-.81-.29a.89.89,0,0,1-.25-.32c0-.06,0-.14-.09-.21a.31.31,0,0,1,0-.36,2.68,2.68,0,0,0,.18-.28l.81.19.37.09c.22.05.45.06.66.11a3.37,3.37,0,0,1,.87.22,3.51,3.51,0,0,0,.57.21c.06,0,.12.07.19.1s.42.18.63.29c.05,0,.08.11.13.16l.4.41C74,18,74,18.09,73.87,18.16Z"/><path class="cls-4" d="M64.23,14.09a2,2,0,0,0,.06.32.48.48,0,0,1-.26.52,1.47,1.47,0,0,1-.28.08c-.21,0-.41,0-.62,0-.39,0-.77,0-1.16,0s-.54.09-.81.12a4.37,4.37,0,0,1-1,.11h-.49c-.16,0-.31,0-.34-.22,0,0-.06-.08-.08-.12-.19-.42-.16-.54.21-.84a.15.15,0,0,1,.13,0,1.36,1.36,0,0,0,1.08-.11.86.86,0,0,1,.28,0H61c.14-.12.28-.06.43,0a.53.53,0,0,0,.25,0,.89.89,0,0,1,.58,0,.77.77,0,0,0,.4,0,1.92,1.92,0,0,1,.95,0C63.83,14,64.05,14,64.23,14.09Z"/><path class="cls-4" d="M37,40a.51.51,0,0,1-.66.08.32.32,0,0,1-.12-.11,3.6,3.6,0,0,1-.2-.39.76.76,0,0,1,0-.26c0-.22,0-.44,0-.65s-.09-.19-.09-.28c0-.33.06-.66.1-1s.08-.46.12-.69.08-.46.13-.69.12-.67.2-1c0-.17.08-.37.3-.4a.71.71,0,0,1,.25,0,2,2,0,0,1,.23.06s0,0,.06,0c.08.17.27.29.23.51s-.17.71-.22,1.07,0,.54-.06.8-.1.56-.14.83c0,.11,0,.21,0,.31s-.07.27-.08.4a.85.85,0,0,1-.12.49s.05.11.05.17,0,.36,0,.54A.47.47,0,0,0,37,40Z"/><path class="cls-4" d="M79.55,25.33l.07.33-.25.5a.94.94,0,0,1-.28,0,.87.87,0,0,1-.22-.17,1.52,1.52,0,0,1-.5-.72.52.52,0,0,0-.12-.18c-.07-.06-.06-.13-.08-.21s-.15-.19-.24-.28-.06-.05-.06-.06-.07-.17-.15-.25a5.07,5.07,0,0,1-.48-.56c-.18-.22-.36-.43-.52-.67a2.35,2.35,0,0,1-.29-.57.22.22,0,0,1,.12-.27c.08,0,.13-.16.21-.22a.68.68,0,0,1,.59,0,4.14,4.14,0,0,1,.46.37,4.23,4.23,0,0,1,.34.4l.13.1a.3.3,0,0,1,.08.08,3.37,3.37,0,0,0,.19.38c0,.09.15.15.22.24s.17.23.25.35a1.48,1.48,0,0,1,.16.27,4.85,4.85,0,0,1,.31.65,1.5,1.5,0,0,1,0,.43Z"/><path class="cls-4" d="M80.62,33.85a1.66,1.66,0,0,1-.31-.22,1.76,1.76,0,0,1-.23-.37.93.93,0,0,1,0-.24.45.45,0,0,0,0-.11c0-.17-.05-.34-.08-.51s0-.3-.08-.46a2.2,2.2,0,0,1,0-.36c0-.32,0-.64,0-1s0-.42,0-.63,0-.24.16-.27a.17.17,0,0,0,.11-.11.21.21,0,0,1,.25-.16A1,1,0,0,1,81,30a.67.67,0,0,1,.09.44c0,.14.07.29.08.44,0,.3,0,.6,0,.9s.09.46.12.7a6.08,6.08,0,0,1,0,.61c0,.21,0,.41-.06.62s-.09.27-.37.27l-.29,0A.21.21,0,0,1,80.62,33.85Z"/><path class="cls-4" d="M85.48,54.47l-.33.07a.4.4,0,0,1-.47-.09,1.56,1.56,0,0,0-.34-.24c-.08.13-.14,0-.23-.05s-.4-.26-.57-.38l-.27.06a.36.36,0,0,1-.24.33.1.1,0,0,0-.06,0c-.08.32-.37.43-.57.64s-.22.19-.36,0c0,.12-.09.18-.22.13s-.18,0-.25,0a.56.56,0,0,1-.24-.78.69.69,0,0,1,.41-.34,1.13,1.13,0,0,0,.3-.24c.18-.17.36-.34.53-.52a3,3,0,0,0,.35-.45.45.45,0,0,1,.47-.22c.29,0,.45.23.67.36a5.7,5.7,0,0,0,.7.47,2.27,2.27,0,0,1,.59.44.49.49,0,0,1,.13.31A2.26,2.26,0,0,1,85.48,54.47Z"/><path class="cls-4" d="M54.35,15.53l.21.09-.39.67-.22-.1c.11.15,0,.18-.1.19l-1.11.09c-.2,0-.4.09-.61.12l-.79.1-.79.14a.7.7,0,0,1-.67-1.06.53.53,0,0,1,.32-.17,5.4,5.4,0,0,1,.69-.08l1.2-.15a4.77,4.77,0,0,1,.82-.12,5.87,5.87,0,0,0,.62-.07.57.57,0,0,1,.14,0c.12,0,.21.14.36,0S54.32,15.36,54.35,15.53Z"/><path class="cls-4" d="M39.51,26.37c-.15,0-.25-.07-.26-.24,0,0,0-.05,0-.08a.36.36,0,0,1-.09-.4c0-.1,0-.23,0-.34a.38.38,0,0,1,0-.15l.09-.43a.13.13,0,0,1,0-.07c.18-.13.17-.34.26-.51a1.57,1.57,0,0,1,.36-.59s0-.08,0-.12,0-.15.1-.19a.72.72,0,0,0,.26-.44.15.15,0,0,1,0-.09c.23-.17.3-.44.48-.64a.42.42,0,0,1,.26-.14.69.69,0,0,1,.5.26.6.6,0,0,1,.18.42.94.94,0,0,1-.28.64s-.08.06-.08.1c0,.33-.3.54-.44.82s-.16.34-.25.51a.08.08,0,0,1,0,0c-.33.22-.33.65-.59.93-.09.09-.11.26-.23.36s0,.19-.11.24A1,1,0,0,0,39.51,26.37Z"/><path class="cls-4" d="M47,18.29a.27.27,0,0,1-.25.27c-.05,0-.09.1-.13.14s-.27.27-.42.39a3.37,3.37,0,0,1-.46.31,10.47,10.47,0,0,0-.89.73,9.54,9.54,0,0,1-.92.58,1.07,1.07,0,0,1-.31.13.27.27,0,0,1-.34-.23c0-.17,0-.33-.05-.5s-.06-.07-.06-.11a.83.83,0,0,1,0-.25c.22,0,.29-.2.44-.3l.33-.21a2.91,2.91,0,0,0,.83-.69.93.93,0,0,1,.3-.2c.14-.09.3-.16.44-.24l.14-.12.49-.39c.19-.14.52,0,.63.19S47,18.13,47,18.29Z"/><path class="cls-4" d="M32,48.71l-.54.44a.21.21,0,0,1-.12.07c-.11,0-.16,0-.19.14s-.17.12-.26.13a1.13,1.13,0,0,1-.86-.2.77.77,0,0,1-.33-.69s0,0,0-.05c-.09-.3-.07-.33.26-.36a.7.7,0,0,1,.58.27l.05,0a1.08,1.08,0,0,0,.58-.11.63.63,0,0,1,.2-.1l.13-.07.09-.07c.06,0,.15,0,.17,0a3.55,3.55,0,0,0,.21-.44.64.64,0,0,0,0-.2s0-.1.07-.11a1.48,1.48,0,0,1,.46-.08c.09,0,.18.1.26.16s0,.08.07.11a1.25,1.25,0,0,0,.23.23.35.35,0,0,1,.22.31.41.41,0,0,0,.12.2l.59.59a1.11,1.11,0,0,1,.25.32c.13.31-.08.58-.44.55a.71.71,0,0,1-.53-.27c-.22-.28-.45-.56-.7-.83a.48.48,0,0,0-.42-.19A.19.19,0,0,0,32,48.71Z"/><path class="cls-4" d="M80.62,47.66a1,1,0,0,1,.39,0,2.6,2.6,0,0,1,.46.36,3.68,3.68,0,0,1,.4.39c.1.11.18.23.27.35a1.09,1.09,0,0,1,.26.5c0,.21,0,.28-.19.31a.15.15,0,0,0-.11.07c-.09.12-.18.11-.28,0s-.12-.16-.23,0-.09,0-.12,0L81,49.15c-.13-.14-.17-.14-.3,0a3.43,3.43,0,0,0-.57.8,1.58,1.58,0,0,1-.12.15L79.88,50a.44.44,0,0,1-.22.47c-.07.06-.08.21-.13.31a.66.66,0,0,1-.37.4s-.06.07-.1.08a.36.36,0,0,1-.18,0c-.1,0-.18-.11-.28-.14a.22.22,0,0,1-.13-.26,2,2,0,0,1,.17-.64c.06-.13.25-.18.39-.28s.1-.07.1-.11.05-.2.22-.12h.06c.08-.13.12-.32.32-.33,0,0,0,0,0-.06a1.16,1.16,0,0,1,.43-.65.21.21,0,0,0,.06-.08C80.37,48.29,80.5,48,80.62,47.66Z"/><path class="cls-4" d="M78.92,40.57c0-.32.09-.65.14-1,0,0,0,0,0-.05A1.1,1.1,0,0,1,79,39a2.71,2.71,0,0,1,.11-1.09s0-.05.08-.08.12-.1.14-.16a.3.3,0,0,1,.47-.14,1.4,1.4,0,0,1,.33.24,1.24,1.24,0,0,1,.22.5,3.47,3.47,0,0,1,0,.72c0,.33-.06.66-.12,1a2.26,2.26,0,0,0,0,.37c0,.24.1.52-.15.73a1.36,1.36,0,0,0-.13.24.27.27,0,0,1-.41.09.45.45,0,0,0-.19-.05.47.47,0,0,1-.38-.39A2.93,2.93,0,0,0,78.92,40.57Z"/><path class="cls-4" d="M40.8,56.62h.29c-.22.13-.29.41-.59.29l.06-.15c-.07,0-.12,0-.14.07s-.12.09-.17,0a1.29,1.29,0,0,0-.16-.17.73.73,0,0,1-.17-.26c-.05,0-.12,0-.15-.07a2.5,2.5,0,0,0-.33-.38A1.23,1.23,0,0,0,39,55.8a.34.34,0,0,0-.16,0c0,.11-.07.24-.25.23,0,0-.05.06-.07.09a3.72,3.72,0,0,1-.19.34,1.83,1.83,0,0,0-.13.16c-.09.19-.27.27-.42.39a.27.27,0,0,1-.18,0,2.24,2.24,0,0,1-.26-.1c0-.12-.07-.25-.1-.39s.16-.27.26-.39l.25-.23,1.17-1.21c.11-.1.21,0,.31,0s.14.06.19.09l.47.33.17.11a.28.28,0,0,1,.2.23c0,.07.08.13.13.18s.24.16.26.32.05.08.08.11S41,56.39,40.8,56.62Z"/><path class="cls-4" d="M38.64,29.24c-.07.36-.14.72-.23,1.08a2.19,2.19,0,0,1-.12.33,1.34,1.34,0,0,0-.13.27A9.38,9.38,0,0,0,38,32c0,.16-.15.19-.21.29a.83.83,0,0,1-.13.14c-.28.09-.4-.12-.52-.34a1.43,1.43,0,0,1-.14-.61,1,1,0,0,0-.07-.21s0-.06,0-.1a1.24,1.24,0,0,1,.25-1c.08-.13.05-.33.11-.49a1.92,1.92,0,0,1,.2-.55,2,2,0,0,0,.19-.28s0,0,.06,0l.61.05s.07.08.1.13l.14.23Z"/><path class="cls-4" d="M34.43,18.52a.23.23,0,0,1,0,.41.29.29,0,0,0-.1.12.28.28,0,0,1-.36.18c-.37-.13-.73-.29-1.09-.43a5.16,5.16,0,0,0-.66-.23,1.66,1.66,0,0,1-.67-.35.67.67,0,0,1-.12-.74.41.41,0,0,1,.53,0,.47.47,0,0,0,.12.09c.51.16,1,.3,1.53.47a4.82,4.82,0,0,1,.7.31S34.39,18.46,34.43,18.52Z"/><path class="cls-4" d="M31.55,23.86a2.35,2.35,0,0,0-.34,0,3.54,3.54,0,0,1-1.17,0c-.33-.05-.66-.06-1-.09a.85.85,0,0,1-.55-.54c0-.07,0-.15.1-.26l-.06-.15a.55.55,0,0,1,.17,0,4.53,4.53,0,0,1,1.32.14l.09,0a1.25,1.25,0,0,1,.7.19.1.1,0,0,0,.09,0,.35.35,0,0,1,.4.05c.08.05.19.05.27.09a.32.32,0,0,1,.12.18c0,.09.05.21-.09.26S31.47,23.72,31.55,23.86Z"/><path class="cls-4" d="M27.86,31.92l-.13.2c-.07.11-.14.23-.22.34a.19.19,0,0,1-.13.07c-.39,0-.76.22-1.16.25,0,0,0,0-.07,0a.41.41,0,0,1-.52,0,1.24,1.24,0,0,0-.22-.18.19.19,0,0,1-.07-.24,1,1,0,0,0,0-.37,6.11,6.11,0,0,1,.74,0,3.19,3.19,0,0,0,.54-.07c.15,0,.3,0,.44,0s.29,0,.44,0Z"/><path class="cls-5" d="M66,42c0-.18-.15-.09-.26-.08s-.46,0-.68,0a.53.53,0,0,0-.16,0s0-.07-.07-.06c-.25.09-.55-.09-.77.16-.08.1-.21,0-.24-.09-.08,0-.17.15-.23,0h0a1,1,0,0,1-.23.05c-.07,0-.14-.05-.21-.06s-.12,0-.18,0c-.41,0-.82-.06-1.23-.07H60.56a.5.5,0,0,1-.2-.08l.26-.08.35-.14s.06,0,.09,0c.29,0,.46-.18.66-.31s.27-.24.42-.34a.94.94,0,0,1,.28-.1c.23-.08.32-.28.42-.47a2.08,2.08,0,0,0,.2-.95,1.25,1.25,0,0,0-.11-.41l-.29.07c0,.19-.2.22-.35.29s-.12,0-.14.08a.79.79,0,0,1-.47.33s0,0-.07.07l-.48.37-.05,0c-.06.2-.24.18-.4.24s-.27.16-.41.21a1.2,1.2,0,0,1-.75,0,2,2,0,0,0-.49,0,2.21,2.21,0,0,1-1.28-.32c-.1-.06-.22-.09-.31-.15s-.12-.15-.19-.22l-.35-.29c-.11-.12-.2-.25-.3-.37s-.1-.25-.27-.14h0c-.15-.07-.29-.16-.43-.23a.22.22,0,0,0-.16,0,.58.58,0,0,0-.2.64,1.46,1.46,0,0,0,.29.5,2,2,0,0,0,.27.23s0,.08.07.12.09.17.12.16.16.09.23.15l.43.36a4,4,0,0,0,.43.28,5.16,5.16,0,0,0,.49.21l.87.26a2.37,2.37,0,0,0,.39,0l-.16.21a.24.24,0,0,0-.33-.16l-.35.07s0,0,0,0c-.24-.2-.54-.11-.81-.13a14.44,14.44,0,0,0-1.46-.08c-.38,0-.77,0-1.15,0l-.73,0c-.15,0-.29.05-.43.07l-.1,0-1.11,0-.91.05s-.08,0-.13-.07v-.06a1.47,1.47,0,0,1-.28.08l-.75.09-.48,0h-.06a11.06,11.06,0,0,1-1.91-.05h-.08c-.37.17-.75,0-1.12.06-.08,0-.17-.06-.28-.09s-.47.18-.74,0a.48.48,0,0,0-.27,0,8.44,8.44,0,0,1-1.74,0,3,3,0,0,0-.72.05l-.08,0c-.3,0-.59-.07-.89-.08s-.36,0-.54,0-.54-.06-.8-.1c-.08,0-.18-.29-.16-.4.06-.29.1-.58.15-.88,0,0,0-.06,0-.08.15-.21,0-.4,0-.6a.11.11,0,0,1,0-.08,1.79,1.79,0,0,0,0-.83c0-.08,0-.17,0-.26l.12-.8a4.94,4.94,0,0,0,.12-.94c0-.19.11-.39,0-.58,0,0,.06-.09.1-.16a1.47,1.47,0,0,1,.14-.65,2.27,2.27,0,0,0,.14-.61l.09-.49c0-.13,0-.25.07-.37s.07-.26.11-.39a.78.78,0,0,0,.05-.14l.21-1A3.55,3.55,0,0,0,41.9,32s0-.06,0-.08c.11-.32.23-.64.33-1s.12-.47.19-.7.11-.33.16-.49a8.18,8.18,0,0,0,.27-.88,2.81,2.81,0,0,1,.22-.51,1.11,1.11,0,0,0,.08-.36,1.44,1.44,0,0,1,.3-.73,2.45,2.45,0,0,0,.22-.5c.09-.19.15-.4.25-.58s.25-.43.37-.64.1-.26.17-.37.2-.4.32-.6a8.15,8.15,0,0,1,.75-.92c.15-.19.28-.4.44-.57s.34-.31.51-.47.23-.26.36-.38l.41-.32c.28-.23.56-.46.85-.68s.45-.32.65-.51a3.27,3.27,0,0,1,.69-.42,1.25,1.25,0,0,0,.22-.16c.2-.21.49-.19.71-.31s.42-.21.64-.31.27-.09.4-.15l.47-.19c.19-.08.38-.18.58-.25a6.25,6.25,0,0,1,.74-.21l.67-.19a5.35,5.35,0,0,1,.69-.17c.27,0,.54,0,.81-.05a.15.15,0,0,1,.09,0,1,1,0,0,0,1-.09,1.29,1.29,0,0,1,.67-.12,2.3,2.3,0,0,0,.37,0,5.61,5.61,0,0,1,.58,0l.44.05a.74.74,0,0,1,.13-.08,3.77,3.77,0,0,1,1.06,0c.26,0,.53,0,.79.05s.59.07.89.1l.63.08,1.4.18c.42.06.84.13,1.26.18l1.17.1a1.05,1.05,0,0,1,.21.06l.1,0,1,.22c.16,0,.32.06.47.11s.13.11.2.14.26.08.39.14.39.2.6.28.3.1.44.16l.39.21c.21.1.43.18.63.28s.13.15.2.21L71,21c.19.14.39.28.57.44s.13.26.23.3.32.31.44.48c.25.37.46.76.68,1.13l.19.26a9.38,9.38,0,0,0,.58.91A2.09,2.09,0,0,1,74,25a3.75,3.75,0,0,1,.17.47l.12.36c.09.25.18.49.28.74a.37.37,0,0,0,.1.17.3.3,0,0,1,.12.27c0,.14.11.28.16.43s.15.39.22.59.13.28.18.43a1.36,1.36,0,0,1,0,.2c0,.16.07.32.11.47s0,.07,0,.11l.18,1.28c0,.18.08.36.11.54a1.7,1.7,0,0,1,0,.22v.87h0c.2.26,0,.54,0,.82a4.28,4.28,0,0,1,.07.72s0,.08,0,.12a1.13,1.13,0,0,0,0,.26c0,.15,0,.31.06.47,0,0,0,0,0,0-.18.08-.12.25-.11.37a5.08,5.08,0,0,1-.07.67,13.25,13.25,0,0,0,0,1.41c0,.22,0,.43-.06.65l-.09,1-.06,1c0,.37,0,.75-.06,1.12s-.08.49-.12.73a1.61,1.61,0,0,0,0,.22c0,.12,0,.19-.18.18a9.5,9.5,0,0,0-1.31-.08c-.4,0-.79-.09-1.19,0a12.18,12.18,0,0,1-1.35,0h-.69a3.27,3.27,0,0,0-.54,0c-.22,0-.44.1-.66.13a.7.7,0,0,1-.32,0,1.45,1.45,0,0,0-.92,0s-.08,0-.12,0a2.62,2.62,0,0,0-1.18,0,1.12,1.12,0,0,1-.32,0A1.06,1.06,0,0,0,66,42ZM54.4,34.61l0,0a2.29,2.29,0,0,0-.23.21c-.1.12-.06.33-.23.42,0,0,0,0,0,.05a4.23,4.23,0,0,1-.33.41.13.13,0,0,1-.19,0s0,0-.07,0a1.2,1.2,0,0,1-.24.26,2.34,2.34,0,0,1-.55.27c-.21.07-.43.07-.63.12s-.68.19-1,.3a2.43,2.43,0,0,1-1.64,0c-.22-.08-.51-.06-.62-.34l-.06,0a6.17,6.17,0,0,1-.6-.39,1.78,1.78,0,0,1-.48-.51,5,5,0,0,1-.32-.6,3.07,3.07,0,0,1-.31-.72c0-.05-.07-.09-.08-.14a.68.68,0,0,0-.16-.51.22.22,0,0,1,0-.12c-.05-.2-.1-.41-.14-.62l-.09-.5a1.13,1.13,0,0,1-.06-.36.38.38,0,0,0-.07-.29.53.53,0,0,0-.32-.19.31.31,0,0,0-.42.35l.12,1.09,0,.12c.06.27.11.55.18.83a1.4,1.4,0,0,1,.11.5s0,.09.06.14a1.6,1.6,0,0,1,.1.23,2.57,2.57,0,0,0,.08.4c.07.16.23.27.24.46,0,0,0,0,0,0a1.42,1.42,0,0,1,.14.23c0,.09,0,.23,0,.29a4.92,4.92,0,0,0,.65.72c.14.11.36.12.51.27a3.28,3.28,0,0,0,.47.33,3,3,0,0,0,.3.19l.67.25A1.72,1.72,0,0,0,50,38h.24a1.66,1.66,0,0,0,1.11-.2.9.9,0,0,1,.34-.09c.14,0,.29-.06.42-.11s.5-.22.75-.31a2.93,2.93,0,0,0,.69-.22,5.41,5.41,0,0,0,1-.82c.17-.19.29-.39.45-.58s.07-.24.12-.34.18-.24.26-.37.21-.27.14-.46a.06.06,0,0,1,0-.06l.4-.5a.19.19,0,0,0,0-.08c0-.23.18-.35.33-.47a1,1,0,0,0,.31-.64c0-.09-.2-.24-.25-.19a.28.28,0,0,1-.46,0h-.09c.08.22-.4.15-.19.42l-.23.14c-.06.11-.08.21-.14.26a.34.34,0,0,0-.16.29.41.41,0,0,1,0,.09c-.08,0-.14,0-.17,0a.29.29,0,0,0-.08.13s0,.14,0,.16C54.44,34.18,54.44,34.4,54.4,34.61Zm8.23-1.46a1.11,1.11,0,0,0,0,.19.81.81,0,0,0,.22.38c.28.33.53.69.79,1a.41.41,0,0,0,.09.1c.19.11.4.21.59.33s.15.17.24.18c.25,0,.44.29.73.22.17.22.48.06.66.24l1.06,0a.77.77,0,0,0,.26-.07,6.74,6.74,0,0,0,.74-.3,5.25,5.25,0,0,0,.69-.47c.09-.06.14-.24.22-.25s.32-.2.49-.28.08-.08.11-.12.12-.2.2-.23a1,1,0,0,0,.56-.5s.08-.12.12-.12a.49.49,0,0,0,.45-.29,2.78,2.78,0,0,0,.21-.57s0-.09,0-.13l-.25-.6c0-.14-.1-.28-.14-.42a2.46,2.46,0,0,1,0-.26c-.06,0-.11,0-.14,0s-.15,0-.18.1l-.12.36h-.06l.09-.44c-.07,0-.11,0-.13.07a5,5,0,0,0-.16.55c0,.19.05.4-.08.59,0,0,0,0,0,.06a.88.88,0,0,1-.12.21c-.07.07-.18.1-.17.23s0,0-.08.07a3.42,3.42,0,0,0-.43.21,4.14,4.14,0,0,0-.38.35l-.34.29-.21.17c0,.06-.07.14-.12.22s-.1.1-.15.15l-.1.15,0-.37-.2.11-.82.34a1.53,1.53,0,0,1-.67.08,1.4,1.4,0,0,1-.81-.2c-.2-.15-.43-.24-.63-.37a3.08,3.08,0,0,1-.68-.62,3.93,3.93,0,0,1-.35-.6c-.1-.16-.22-.31-.32-.47a.22.22,0,0,1,0-.08A.4.4,0,0,0,63,32c-.32,0-.35,0-.45.37A.77.77,0,0,0,62.63,33.15Zm-4.55,4.38h.15c0,.19,0,.38.25.47s.13.11.21.15l.31.16a1.22,1.22,0,0,0,.27.09c.14,0,.34.08.43,0a2.62,2.62,0,0,1,.58-.29.72.72,0,0,0,.24-.14,2.55,2.55,0,0,1,.45-.42.82.82,0,0,0,.49-.58,1.64,1.64,0,0,1,0-.22c0-.1,0-.14-.09-.18l-.32-.15-.4.08s-.09,0-.09.08a.39.39,0,0,1-.33.33.32.32,0,0,0-.19.1.9.9,0,0,1-.51.22.45.45,0,0,1-.56-.2c-.13-.41-.26-.83-.4-1.24,0-.1-.05-.27-.23-.14s-.1,0-.15,0-.11-.06-.18-.09a.23.23,0,0,0-.34.16c0,.15,0,.33-.25.35,0,0,0,.06,0,.08a3.7,3.7,0,0,1,.33.36.42.42,0,0,1,.08.28,3.31,3.31,0,0,1-.12.42C58,37.25,58.06,37.32,58.08,37.53Z"/><path class="cls-3" d="M75.44,43.48l.46,0,.16,0,.1,0a2.44,2.44,0,0,0,.33.23,4.43,4.43,0,0,0,.68.28,3.8,3.8,0,0,1,.59.23c.14.07.29.12.42.2s.15.14.14.2a.42.42,0,0,1-.18.22c-.21.14-.43.26-.64.39s-.1.1-.15.12l-.57.24-.21.07-.68.16s0,0,0,.07a.28.28,0,0,0-.37-.08s-.08,0-.11,0L75,46c-.09-.07-.21-.06-.38,0l-.35.14s-.08,0-.09,0-.18-.05-.27,0l-.25.08-.24.09a1,1,0,0,1-.65.14s-.08,0-.1.07-.07.1-.11.1c-.2,0-.39,0-.58,0s-.16.11-.25.12a1.47,1.47,0,0,1-.47,0,.58.58,0,0,0-.41.07.83.83,0,0,1-.22.08.7.7,0,0,0-.43.23s-.06,0-.09,0a1.55,1.55,0,0,0-.38.13c-.15.08-.29.2-.44.3s-.06,0-.1,0h-.06c-.12.19-.36.16-.52.27s0,0-.07,0a.4.4,0,0,0-.19.5,1.8,1.8,0,0,0,.46.91s0,.08.08.11a.5.5,0,0,0,.16.11,4.15,4.15,0,0,0,.34.24l.87.47,0,0c.37,0,.69.22,1,.24a.86.86,0,0,1,.32.05.21.21,0,0,1,.13.13.18.18,0,0,1-.09.16l-.79.37s-.13,0-.21,0a.29.29,0,0,1-.43.22c-.14.17-.31-.09-.45,0s-.09,0-.12,0a.23.23,0,0,1-.23,0,.44.44,0,0,0-.28.1c-.12.09-.2.08-.26,0l-.29.19,0-.12a1.78,1.78,0,0,1-.38.1.49.49,0,0,0-.27.15s-.16,0-.25,0V52l-.13-.16-.11.22a1.14,1.14,0,0,0-.9.17,1.57,1.57,0,0,1-.28.1,2.5,2.5,0,0,0-.26.07,1.9,1.9,0,0,0-.83.62.82.82,0,0,0-.07.79,2.84,2.84,0,0,0,.48.85,4.16,4.16,0,0,0,.56.55.75.75,0,0,0,.32.08c.19,0,.19,0,.1.2a.41.41,0,0,0,0,.1l.34,0,0,.15.42,0s.11-.07.2,0,.14.06.2.1l.42.29.26.18c-.19.11-.35.19-.49.29a.86.86,0,0,1-.41.19A2.64,2.64,0,0,0,67,57c-.09,0-.16.1-.24.12a.42.42,0,0,1-.25,0c-.19-.08-.26.08-.37.15s0,.06-.07.06a2.14,2.14,0,0,0-1.19.32c-.18-.11-.26-.09-.47,0a3.41,3.41,0,0,1-.33.17l-.21.1a2.38,2.38,0,0,0-.54,0c-.1,0-.2.09-.32.11a2.53,2.53,0,0,0-.36.12,1.45,1.45,0,0,1-.59.12c-.09,0-.27,0-.33.13-.24-.06-.25.23-.44.28a3,3,0,0,0-.71.42c-.07,0-.09.15-.13.23l-.18.3s0,.09,0,.1.08.27.07.39a2,2,0,0,0,.26,1,5.08,5.08,0,0,0,.27.43c.06.11.08.24,0,.32l-.44.26s-.14,0-.15.09c-.11.28-.38.28-.59.32a2.42,2.42,0,0,0-.69.27l-.53.3v-.15a1.93,1.93,0,0,0-.21.13.33.33,0,0,1-.42.06l-.54-.29c-.18-.1-.19-.21-.07-.38s.39-.6.59-.89l.12-.14a.94.94,0,0,0,.38-.77.35.35,0,0,0-.14-.23c-.34-.19-.68-.35-1-.52a2.73,2.73,0,0,0-.31-.14c-.12,0-.24,0-.36-.09l-.3-.14a3.89,3.89,0,0,0-.44-.16c-.19-.06-.38-.1-.57-.15l-.52-.12c-.14,0-.29,0-.43,0S53.9,59,53.8,59c-.39-.05-.78-.08-1.18-.12l0-.05a4,4,0,0,1,.4-.22,1.94,1.94,0,0,1,.66-.24s.08-.06.12-.1a1.09,1.09,0,0,1,.17-.13,1.13,1.13,0,0,0,.65-.6.9.9,0,0,1,.14-.2.88.88,0,0,0,.08-.91,2.13,2.13,0,0,0-.45-.5,4.24,4.24,0,0,1-.31-.4c-.11-.12-.2-.3-.44-.21,0-.18-.18-.22-.29-.31a2.36,2.36,0,0,0-.57-.25,3.08,3.08,0,0,0-.68-.17c-.26-.07-.52-.14-.78-.19l-.79-.16a1.17,1.17,0,0,1-.25-.15,1.75,1.75,0,0,1,.26-.18,3.71,3.71,0,0,1,.61-.28c.13-.05.28-.05.42-.09a.67.67,0,0,0,.21-.13c.06,0,.11-.09.17-.11.24-.07.48-.13.7-.21a.89.89,0,0,0,.3-.22c.11-.1.27-.16.29-.34,0,0,0-.05,0-.06a1.45,1.45,0,0,0-.33-.52c-.13-.09-.2-.24-.35-.31a.81.81,0,0,1-.14-.12l-.29-.24a.34.34,0,0,1-.35-.14c-.07-.09-.24-.1-.38-.11a.23.23,0,0,1-.22-.13.18.18,0,0,0-.07-.08c-.14-.07-.28-.2-.41-.19s-.43-.16-.65-.21-.48-.19-.72-.25a4.67,4.67,0,0,0-1.1-.22c-.36,0-.73,0-1.09-.06s-.59,0-.88,0l-.12,0a1.68,1.68,0,0,0-.74,0,.18.18,0,0,1-.13,0,1,1,0,0,0-.64-.06c-.14,0-.27,0-.31-.13a.22.22,0,0,1,.19-.27,4,4,0,0,1,1-.21,7.93,7.93,0,0,0,1-.08,2.91,2.91,0,0,1,.51,0l.33,0,.2,0a.92.92,0,0,0,.71,0,1.2,1.2,0,0,1,.46-.07,2.58,2.58,0,0,0,.86-.25l.37-.12a1.81,1.81,0,0,0,.47-.13,1.08,1.08,0,0,0,.46-.55c.06-.19.1-.38.15-.56s0-.09,0-.11a4,4,0,0,0-.36-.35s-.11,0-.16,0-.12,0-.14-.05-.2-.13-.32-.15l-.83-.18-.1,0h-.47a.36.36,0,0,1-.18,0l-.26-.08-.61-.11-.12,0-1.14-.1a4.51,4.51,0,0,0-.82,0,1.38,1.38,0,0,1-.67,0s-.09,0-.13.09a.31.31,0,0,1-.49-.09l.18,0v0h-.13c-.44-.05-.87-.08-1.31-.15a4,4,0,0,1-.66-.18,5.72,5.72,0,0,1-.83-.26,3.83,3.83,0,0,1-.59-.4,2.39,2.39,0,0,1-.23-.22.81.81,0,0,1-.21-.31.93.93,0,0,1,0-.41,1.46,1.46,0,0,1,.44-.68,1.31,1.31,0,0,1,.65-.42,1.64,1.64,0,0,1,.5,0c.39,0,.79,0,1.19.06l1.33,0,.14,0a.79.79,0,0,0,.22,0,11.63,11.63,0,0,0,1.18,0c.34,0,.68,0,1,0s.46-.06.7-.07l.59,0c.27,0,.54,0,.8,0l1,0a2.17,2.17,0,0,1,.25,0h.71s.06,0,.08,0c.32-.14.64,0,1,0a6.62,6.62,0,0,1,1.09,0c.2,0,.4,0,.6,0s.35,0,.52,0c.43,0,.86,0,1.29,0s.88,0,1.31.06h.59l.74.14a.14.14,0,0,0,.09,0,.81.81,0,0,1,.61,0,2.37,2.37,0,0,0,.84,0,4.68,4.68,0,0,1,.65,0l.57,0a3.78,3.78,0,0,1,1.06,0,2,2,0,0,0,.55,0l.49,0,.77,0,.82,0c.1,0,.21-.06.3,0a.74.74,0,0,0,.44,0h0c.2.16.4,0,.61,0a3.61,3.61,0,0,0,.64-.08,4.35,4.35,0,0,1,.51,0s.07,0,.09,0c.24-.18.5,0,.75,0a4.52,4.52,0,0,1,.82.05c.19,0,.37-.07.56-.06s.62,0,.94.07l.34,0H71a1.71,1.71,0,0,0,.32,0,2.63,2.63,0,0,1,.84,0c.15,0,.3,0,.45,0l.27,0s0,0,.06,0c.32-.13.65.05,1,0a3.39,3.39,0,0,1,.89.08c.16,0,.32.05.48.05A.46.46,0,0,0,75.44,43.48ZM63.11,44.72a.3.3,0,0,0-.13-.06l-.51,0a6.54,6.54,0,0,0-1.09.19A1.08,1.08,0,0,1,61,45a2.21,2.21,0,0,0-.63,0c-.32,0-.64,0-.95.05-.09,0-.17,0-.26,0a3.13,3.13,0,0,0-.53,0l-.3.09c-.09,0-.15.08-.24,0a.11.11,0,0,0-.08,0,1.33,1.33,0,0,1-.76.17,4.83,4.83,0,0,0-.76,0c-.19,0-.37,0-.55.06s-.51-.11-.76,0a.07.07,0,0,1-.06,0,1.41,1.41,0,0,0-.2,0,.61.61,0,0,0-.27.08c-.15.09-.39.1-.38.34s0,.36.16.47c0,0,.06.08.1.12.14.19.28.39.56.39H56c.45,0,.9,0,1.35-.08s.68-.07,1-.1.55,0,.82-.05.69-.08,1-.12l.72,0,1.18-.1a2.08,2.08,0,0,0,.35,0,4.75,4.75,0,0,1,1.55,0,.68.68,0,0,1-.2.18l-.65.3-.46.2-.39.15-.67.24-.74.3c-.11,0-.18.19-.33.11s-.05,0-.08.05A1.26,1.26,0,0,1,60,48a.68.68,0,0,0-.64.21.23.23,0,0,1-.1.07l-.47.1s-.06.06-.1.08a1.53,1.53,0,0,1-.39.18.74.74,0,0,0-.43.19c-.11.1-.21.2-.33.29s-.1.22-.08.32a.29.29,0,0,0,.17.19.3.3,0,0,1,.22.32l.11.08a1.26,1.26,0,0,0,.67.28c.24.05.5,0,.71.14h0l.53.09a2.41,2.41,0,0,1,.9.21,2.75,2.75,0,0,0,.59.21,1.48,1.48,0,0,1-.72.53c-.12.05-.26.06-.32.21s-.08,0-.12,0l-.54.2a1.36,1.36,0,0,0-.24.13c-.08,0-.14.12-.21.17a3.32,3.32,0,0,0-.49.41,1.09,1.09,0,0,1-.26.22.32.32,0,0,0-.14.48c.33.36.56.82,1.08,1,.13-.12.25-.13.31,0a.44.44,0,0,0,.12.15c.28.23.28.23.11.48l-.09.08c-.1.1-.27.18-.3.3s-.25.31-.39.44a.94.94,0,0,0-.43.79,1.28,1.28,0,0,1,.26.1,1.5,1.5,0,0,1,.18.24.21.21,0,0,1,0,.07c0,.15.31.34.43.25a3.26,3.26,0,0,0,.4-.34c.16-.16.3-.35.46-.51s.44-.35.62-.55a6.32,6.32,0,0,0,.47-.68,1.11,1.11,0,0,0,.15-.31,1,1,0,0,0,.07-.34.62.62,0,0,0,0-.36c-.17-.35-.56-.43-.86-.61a6.2,6.2,0,0,0-.79-.32c0-.06,0-.08.06-.09l.79-.38a5.79,5.79,0,0,0,.68-.29,9.84,9.84,0,0,0,.94-.65,4.16,4.16,0,0,0,.45-.4.34.34,0,0,0,.11-.17A1,1,0,0,0,62.69,50l-.31-.16a1.81,1.81,0,0,0-.91-.39s-.07,0-.11-.07a.34.34,0,0,0-.11-.07c-.15,0-.31-.06-.46-.09l-.44-.1v0l.11,0a1,1,0,0,0,.23,0l.83-.27a1.26,1.26,0,0,0,.54-.22c.07-.07.21-.15.29-.12s.21,0,.3-.07a5.08,5.08,0,0,0,.47-.23l.27-.1a5.94,5.94,0,0,0,.72-.21,6.92,6.92,0,0,0,.68-.42l.06,0,.24-.12s.06-.08.08-.08c.22.08.33-.13.49-.2a.76.76,0,0,0,.35-.29,1.16,1.16,0,0,0,.17-.78.89.89,0,0,0-.47-.7c-.11-.05-.25,0-.35-.1s-.09,0-.12,0,0,0,0,0l0-.1a3.7,3.7,0,0,1-.5-.16,1.47,1.47,0,0,0-.77-.14,1.46,1.46,0,0,1-.46-.06C63.31,44.63,63.2,44.61,63.11,44.72Z"/><path class="cls-3" d="M59.16,41.88a1,1,0,0,1,.25-.15.53.53,0,0,1,.2.05s0,.12-.07.14S59.28,41.9,59.16,41.88Z"/><path class="cls-4" d="M54.4,34.61c0-.21,0-.43.27-.56,0,0,0-.11,0-.16a.29.29,0,0,1,.08-.13s.09,0,.17,0a.41.41,0,0,0,0-.09.34.34,0,0,1,.16-.29c.06-.05.08-.15.14-.26l.23-.14c-.21-.27.27-.2.19-.42h.09a.28.28,0,0,0,.46,0s.26.1.25.19a1,1,0,0,1-.31.64c-.15.12-.32.24-.33.47a.19.19,0,0,1,0,.08l-.4.5a.06.06,0,0,0,0,.06c.07.19-.06.32-.14.46s-.19.24-.26.37,0,.25-.12.34-.28.39-.45.58a5.41,5.41,0,0,1-1,.82,2.93,2.93,0,0,1-.69.22c-.25.09-.49.22-.75.31s-.28.07-.42.11a.9.9,0,0,0-.34.09,1.66,1.66,0,0,1-1.11.2H50a1.72,1.72,0,0,1-.76-.23l-.67-.25a3,3,0,0,1-.3-.19,3.28,3.28,0,0,1-.47-.33c-.15-.15-.37-.16-.51-.27A4.92,4.92,0,0,1,46.6,36c-.05-.06,0-.2,0-.29a1.42,1.42,0,0,0-.14-.23s0,0,0,0c0-.19-.17-.3-.24-.46a2.57,2.57,0,0,1-.08-.4,1.6,1.6,0,0,0-.1-.23s-.07-.1-.06-.14a1.4,1.4,0,0,0-.11-.5c-.07-.28-.12-.56-.18-.83l0-.12-.12-1.09a.31.31,0,0,1,.42-.35.53.53,0,0,1,.32.19.38.38,0,0,1,.07.29,1.13,1.13,0,0,0,.06.36l.09.5c0,.21.09.42.14.62a.22.22,0,0,0,0,.12.68.68,0,0,1,.16.51s.07.09.08.14a3.07,3.07,0,0,0,.31.72,5,5,0,0,0,.32.6,1.78,1.78,0,0,0,.48.51,6.17,6.17,0,0,0,.6.39l.06,0c.11.28.4.26.62.34a2.43,2.43,0,0,0,1.64,0c.32-.11.66-.21,1-.3s.42-.05.63-.12a2.34,2.34,0,0,0,.55-.27,1.2,1.2,0,0,0,.24-.26s.06,0,.07,0a.13.13,0,0,0,.19,0,4.23,4.23,0,0,0,.33-.41s0,0,0-.05c.17-.09.13-.3.23-.42a2.29,2.29,0,0,1,.23-.21Z"/><path class="cls-4" d="M62.63,33.15a.77.77,0,0,1-.13-.74c.1-.35.13-.36.45-.37a.4.4,0,0,1,.3.31.22.22,0,0,0,0,.08c.1.16.22.31.32.47a3.93,3.93,0,0,0,.35.6,3.08,3.08,0,0,0,.68.62c.2.13.43.22.63.37a1.4,1.4,0,0,0,.81.2,1.53,1.53,0,0,0,.67-.08l.82-.34.2-.11,0,.37.1-.15c0-.05.11-.1.15-.15s.09-.16.12-.22l.21-.17.34-.29a4.14,4.14,0,0,1,.38-.35A3.42,3.42,0,0,1,69.5,33s.08-.05.08-.07.1-.16.17-.23a.88.88,0,0,0,.12-.21s0,0,0-.06c.13-.19,0-.4.08-.59a5,5,0,0,1,.16-.55s.06-.06.13-.07l-.09.44h.06l.12-.36c0-.09,0-.2.18-.1s.08,0,.14,0a2.46,2.46,0,0,0,0,.26c0,.14.09.28.14.42l.25.6s0,.1,0,.13a2.78,2.78,0,0,1-.21.57.49.49,0,0,1-.45.29s-.09.07-.12.12a1,1,0,0,1-.56.5c-.08,0-.13.15-.2.23s-.06.1-.11.12-.27.26-.49.28-.13.19-.22.25a5.25,5.25,0,0,1-.69.47,6.74,6.74,0,0,1-.74.3.77.77,0,0,1-.26.07l-1.06,0c-.18-.18-.49,0-.66-.24-.29.07-.48-.17-.73-.22-.09,0-.15-.13-.24-.18s-.4-.22-.59-.33a.41.41,0,0,1-.09-.1c-.26-.34-.51-.7-.79-1a.81.81,0,0,1-.22-.38A1.11,1.11,0,0,1,62.63,33.15Z"/><path class="cls-4" d="M58.08,37.53c0-.21-.09-.28-.31-.32a3.31,3.31,0,0,0,.12-.42.42.42,0,0,0-.08-.28,3.7,3.7,0,0,0-.33-.36s0,0,0-.08c.23,0,.21-.2.25-.35a.23.23,0,0,1,.34-.16c.07,0,.12.07.18.09s.12.05.15,0,.2,0,.23.14c.14.41.27.83.4,1.24a.45.45,0,0,0,.56.2.9.9,0,0,0,.51-.22.32.32,0,0,1,.19-.1.39.39,0,0,0,.33-.33s.06-.07.09-.08l.4-.08.32.15c.08,0,.12.08.09.18a1.64,1.64,0,0,0,0,.22.82.82,0,0,1-.49.58,2.55,2.55,0,0,0-.45.42.72.72,0,0,1-.24.14,2.62,2.62,0,0,0-.58.29c-.09.06-.29,0-.43,0a1.22,1.22,0,0,1-.27-.09l-.31-.16c-.08,0-.13-.12-.21-.15s-.21-.28-.25-.47Z"/><path class="cls-6" d="M63.11,44.72c.09-.11.2-.09.33-.06a1.46,1.46,0,0,0,.46.06,1.47,1.47,0,0,1,.77.14,3.7,3.7,0,0,0,.5.16l0,.1s0,0,0,0,0-.07.12,0,.24,0,.35.1a.89.89,0,0,1,.47.7,1.16,1.16,0,0,1-.17.78.76.76,0,0,1-.35.29c-.16.07-.27.28-.49.2,0,0,0,.06-.08.08l-.24.12-.06,0a6.92,6.92,0,0,1-.68.42,5.94,5.94,0,0,1-.72.21l-.27.1a5.08,5.08,0,0,1-.47.23c-.09,0-.17.11-.3.07s-.22,0-.29.12a1.26,1.26,0,0,1-.54.22l-.83.27a1,1,0,0,1-.23,0l-.11,0v0l.44.1c.15,0,.31,0,.46.09a.34.34,0,0,1,.11.07s.07.07.11.07a1.81,1.81,0,0,1,.91.39l.31.16a1,1,0,0,1,.46,1.14.34.34,0,0,1-.11.17,4.16,4.16,0,0,1-.45.4,9.84,9.84,0,0,1-.94.65,5.79,5.79,0,0,1-.68.29l-.79.38s0,0-.06.09a6.2,6.2,0,0,1,.79.32c.3.18.69.26.86.61a.62.62,0,0,1,0,.36,1,1,0,0,1-.07.34,1.11,1.11,0,0,1-.15.31,6.32,6.32,0,0,1-.47.68c-.18.2-.42.36-.62.55s-.3.35-.46.51a3.26,3.26,0,0,1-.4.34c-.12.09-.43-.1-.43-.25a.21.21,0,0,0,0-.07A1.5,1.5,0,0,0,59,56.6a1.28,1.28,0,0,0-.26-.1.94.94,0,0,1,.43-.79c.14-.13.32-.21.39-.44s.2-.2.3-.3l.09-.08c.17-.25.17-.25-.11-.48a.44.44,0,0,1-.12-.15c-.06-.11-.18-.1-.31,0-.52-.16-.75-.62-1.08-1a.32.32,0,0,1,.14-.48,1.09,1.09,0,0,0,.26-.22,3.32,3.32,0,0,1,.49-.41c.07,0,.13-.12.21-.17a1.36,1.36,0,0,1,.24-.13l.54-.2s.12,0,.12,0,.2-.16.32-.21a1.48,1.48,0,0,0,.72-.53,2.75,2.75,0,0,1-.59-.21,2.41,2.41,0,0,0-.9-.21l-.53-.09h0c-.21-.18-.47-.09-.71-.14a1.26,1.26,0,0,1-.67-.28l-.11-.08a.3.3,0,0,0-.22-.32.29.29,0,0,1-.17-.19c0-.1-.06-.23.08-.32s.22-.19.33-.29a.74.74,0,0,1,.43-.19,1.53,1.53,0,0,0,.39-.18s.06-.07.1-.08l.47-.1a.23.23,0,0,0,.1-.07A.68.68,0,0,1,60,48a1.26,1.26,0,0,0,.5-.18s.07-.06.08-.05.22-.07.33-.11l.74-.3.67-.24.39-.15.46-.2.65-.3a.68.68,0,0,0,.2-.18,4.75,4.75,0,0,0-1.55,0,2.08,2.08,0,0,1-.35,0l-1.18.1-.72,0c-.35,0-.69.09-1,.12s-.55,0-.82.05-.68.08-1,.1-.9.06-1.35.08h-.92c-.28,0-.42-.2-.56-.39,0,0-.06-.1-.1-.12-.21-.11-.16-.3-.16-.47s.23-.25.38-.34a.61.61,0,0,1,.27-.08,1.41,1.41,0,0,1,.2,0,.07.07,0,0,0,.06,0c.25-.12.51,0,.76,0s.36-.06.55-.06a4.83,4.83,0,0,1,.76,0,1.33,1.33,0,0,0,.76-.17.11.11,0,0,1,.08,0c.09.07.15,0,.24,0l.3-.09a3.13,3.13,0,0,1,.53,0c.09,0,.17,0,.26,0,.31,0,.63,0,.95-.05A2.21,2.21,0,0,1,61,45a1.08,1.08,0,0,0,.42-.08,6.54,6.54,0,0,1,1.09-.19l.51,0A.3.3,0,0,1,63.11,44.72Z"/></g></svg>