<svg xmlns="http://www.w3.org/2000/svg" viewBox="0 0 200 200"><defs><style>.cls-1{fill:#d2cfc3;}.cls-2{fill:#4d4d4d;}.cls-3{fill:#2e3659;}.cls-4{fill:#fff;}.cls-5{fill:#ea5e4c;}.cls-6{fill:#8a5f50;}</style></defs><g id="レイヤー_1" data-name="レイヤー 1"><path class="cls-1" d="M179.54,178.57q-1.83,1.78-3.73,3.49a47.24,47.24,0,0,1-10.46,7.56c-28.91,14.29-64.64,6.93-95.45,6.68-13.69-.11-37.66-2.51-46.12-14.76-9.22-13.35-21-27.8-21.71-44.46-.58-14.4-.47-28.81-.31-43.22C2,74.39,2.22,59.29,15.41,43.33,24,32.93,35,24.82,45.88,16.83c4.49-3.3,9-6.63,14.2-8.7,11.38-4.56,24.18-2.49,36.4-3.42C105.83,4,115,1.5,124.37,1.1,144,.26,177.18,12.65,185.1,32c10.44,25.59,13.18,53.5,13.54,80.91.2,14.82.91,35.24-6,48.58A67.44,67.44,0,0,1,179.54,178.57Z"/><path class="cls-2" d="M92.11,134.81c1.44,0,2.88-.06,4.35-.06,1.68,0,2.67.81,2.67,2a3.18,3.18,0,0,1-.63,1.74,35.73,35.73,0,0,1-4,5,28.31,28.31,0,0,0,9.72,4.35,1.5,1.5,0,0,1,1.29,1.47,1.55,1.55,0,0,1-1.65,1.53c-.78,0-6.09-1.32-11.28-5.49-1,.9-2,1.77-3.06,2.58a1,1,0,0,1,.45-.06,17.54,17.54,0,0,1,5.73,2,1.53,1.53,0,0,1,.69,1.29A1.4,1.4,0,0,1,95,152.6a1.45,1.45,0,0,1-.9-.33,17,17,0,0,0-4.65-2.13,1.07,1.07,0,0,1-.9-1,1.32,1.32,0,0,1,.21-.66c-4.08,2.94-7.2,3.75-7.53,3.75a1.49,1.49,0,0,1-1.47-1.47,1.4,1.4,0,0,1,1-1.32,29.17,29.17,0,0,0,9.72-5.79,22.44,22.44,0,0,1-3-3.45,33.32,33.32,0,0,1-4.8,4.08,2,2,0,0,1-1.11.39,1.46,1.46,0,0,1-1.47-1.38,1.31,1.31,0,0,1,.72-1.14,29.32,29.32,0,0,0,8.88-9,1.28,1.28,0,0,1,1.11-.6,1.63,1.63,0,0,1,1.65,1.41,1.2,1.2,0,0,1-.27.72Zm3.45,23.64a25.19,25.19,0,0,0-8.67-3.06,1.14,1.14,0,0,1-1.11-1.11,1.55,1.55,0,0,1,1.62-1.44,25.19,25.19,0,0,1,9.48,2.94,1.84,1.84,0,0,1,1,1.56,1.41,1.41,0,0,1-1.41,1.41A1.77,1.77,0,0,1,95.56,158.45Zm.15-21c0-.36-.06-.36-3.72-.36H90.34c-.33.39-.69.81-1,1.2a18.1,18.1,0,0,0,3.12,3.54C94.15,140,95.71,137.9,95.71,137.45Z"/><path class="cls-2" d="M117.45,148.59a12.55,12.55,0,0,1-3.23,6.48c-1.23,1.14-2.58.51-3.28-.87-1-2,.06-5,2.21-6.45a6.67,6.67,0,0,1,6.91-.36,4.73,4.73,0,0,1,1.49,6.72,6.71,6.71,0,0,1-3.9,2.64c-1.41.37-1.91-1.25-.53-1.57a5,5,0,0,0,3-1.79,3.47,3.47,0,0,0-.88-4.9,4.21,4.21,0,0,0-2-.64A.79.79,0,0,1,117.45,148.59Zm-3.55.3c-1.49,1.15-2.29,3.28-1.62,4.51.24.47.66.71,1.06.36a9.63,9.63,0,0,0,2.48-5.33,1.18,1.18,0,0,1,.15-.5A5.37,5.37,0,0,0,113.9,148.89Z"/><path class="cls-2" d="M42.32,176.6v2.77a.74.74,0,0,1-1.47,0V176.6H39.46a.64.64,0,0,1-.72-.64.69.69,0,0,1,.72-.7h1.39v-.4l0-2.77a15.29,15.29,0,0,1-3.38,4.54.79.79,0,0,1-.58.24.75.75,0,0,1-.64-.35l0,2.83a.74.74,0,0,1-.79.74.7.7,0,0,1-.75-.72v0l.16-7.39c-1,1.33-1.46,1.57-1.81,1.57a.73.73,0,0,1-.75-.71.79.79,0,0,1,.27-.56,14.78,14.78,0,0,0,3.65-5.79.72.72,0,0,1,.69-.51.87.87,0,0,1,.89.78,12.36,12.36,0,0,1-1.37,2.9l-.13,6.19a.87.87,0,0,1,.21-.22,14.58,14.58,0,0,0,3.89-5l-2.72.05h0A.65.65,0,0,1,37,170a.71.71,0,0,1,.74-.72h3.12v-2.72a.69.69,0,0,1,.75-.69.71.71,0,0,1,.78.69v2.72h3.57a.68.68,0,0,1,.71.7.66.66,0,0,1-.69.69h0l-3.2-.05a15.32,15.32,0,0,0,4.2,4.55.76.76,0,0,1,.33.64.8.8,0,0,1-.78.8,1,1,0,0,1-.64-.26,17.05,17.05,0,0,1-3.56-4.26l0,2.74v.42h1.43a.67.67,0,1,1,0,1.34Z"/><path class="cls-2" d="M49,177.67a1,1,0,0,1,.14-.44,5.46,5.46,0,0,0,.6-2,.51.51,0,0,1,.49-.55.55.55,0,0,1,.58.62c0,.66-.4,3-1.23,3A.58.58,0,0,1,49,177.67Zm5.19-4.73c.27,0,1.4,0,1.4,1.61,0,2.77-.38,5-2.83,5-1,0-1.57-.17-1.57-.81a.65.65,0,0,1,.63-.69.52.52,0,0,1,.17,0,3.9,3.9,0,0,0,.88.12c.61,0,1.16-.32,1.28-2a.41.41,0,0,1-.33.18c-.15,0-.27-.08-.32-.29a6.85,6.85,0,0,0-.53-1.25.37.37,0,0,1-.05-.18c0-.16.16-.27.35-.27.5,0,.9,1.14.93,1.25,0-.34,0-.64,0-.85,0-.62-.08-.69-1.22-.69l-1.65,0a1.31,1.31,0,0,1-1.47-1.34c0-.63,0-1.6,0-2.56s0-1.91,0-2.44a1.42,1.42,0,0,1,1.47-1.49h3.8a.54.54,0,0,1,.52.58.6.6,0,0,1-.6.62H53.57v1.06h1.07a.54.54,0,0,1,.59.54.55.55,0,0,1-.59.57H53.57v1.07h1.07a.55.55,0,1,1,0,1.1H53.57v1.11ZM51,177.08V177c0-.24,0-.51,0-.77,0-.48,0-.93,0-1.12v-.06a.38.38,0,0,1,.37-.42c.22,0,.55,0,.55,2.06,0,.24,0,.79-.52.79A.38.38,0,0,1,51,177.08Zm1.3-9.6h-.71c-.24,0-.43.13-.45.52,0,.14,0,.33,0,.54h1.17Zm0,2.18H51.17v1.07h1.17Zm0,2.17H51.17c0,.23,0,.43,0,.61a.48.48,0,0,0,.5.5h.66Zm0,4.74a7,7,0,0,0-.3-1.5.73.73,0,0,1,0-.16.35.35,0,0,1,.37-.36.42.42,0,0,1,.39.27,6.11,6.11,0,0,1,.41,1.65.45.45,0,0,1-.45.48A.38.38,0,0,1,52.32,176.57Zm7.67-6v1h1.28a1.33,1.33,0,0,1,1.45,1.07,5.92,5.92,0,0,1,0,.88c0,.26,0,.53,0,.76-.05.72-.59,1.23-1.55,1.26-.26,0-.56,0-.85,0a6.17,6.17,0,0,0,2.83,2.8.75.75,0,0,1,.45.67.78.78,0,0,1-.77.8c-.7,0-2.56-1.46-3.49-3.46A5.48,5.48,0,0,1,55.49,180a.77.77,0,0,1-.72-.77.65.65,0,0,1,.48-.64,4.62,4.62,0,0,0,3-3c-1.76,0-2.41,0-2.41-1.94,0-.32,0-.64,0-.9a1.28,1.28,0,0,1,1.4-1.15h1.36v-1H57.49a.51.51,0,0,1-.51-.42l-.53.53a.71.71,0,0,1-.51.22.72.72,0,0,1-.72-.68.64.64,0,0,1,.25-.5,12.58,12.58,0,0,0,2.47-3,1.42,1.42,0,0,1,1.21-.73,1.78,1.78,0,0,1,1.32.67,21,21,0,0,0,2.83,2.75.78.78,0,0,1,.3.59.82.82,0,0,1-.76.82c-.32,0-.47-.14-1.19-.86v0a.58.58,0,0,1-.56.61Zm-2.8,3c0,.76,0,.89,1.36.89a11.39,11.39,0,0,0,.08-1.81C57.22,172.66,57.19,172.66,57.19,173.58Zm3.9-4.23c-.61-.66-1.18-1.33-1.63-1.87a.35.35,0,0,0-.26-.13.22.22,0,0,0-.21.13,22.86,22.86,0,0,1-1.32,1.87ZM60,173.67c0,.26-.06.53-.09.8,1.52,0,1.54,0,1.54-1,0-.77,0-.82-1.43-.82C60,173.16,60,173.58,60,173.67Z"/><path class="cls-2" d="M68,179.68a.83.83,0,1,1-.86-1.4,15.57,15.57,0,0,0,5-4.24,10.13,10.13,0,0,0-1.93-1c-.86-.3-.25-1.73.87-1.3a16,16,0,0,1,2,1,20.14,20.14,0,0,0,2-3.74c.56-1.35,2.2-.48,1.68.54a36.41,36.41,0,0,1-2.32,4.05,7,7,0,0,1,1.6,1.46.91.91,0,0,1-.17,1.26.75.75,0,0,1-1.14-.12,7.09,7.09,0,0,0-1.3-1.22A17.66,17.66,0,0,1,68,179.68Z"/><path class="cls-2" d="M82.24,177.45a.83.83,0,0,1,0-1.66c2.66,0,7.7,0,10.4,0,1.2,0,.93,1.7,0,1.67C89.57,177.37,85.1,177.37,82.24,177.45Zm1.86-5.36a.8.8,0,1,1,.09-1.6c1.75,0,4.39,0,6.29,0a.8.8,0,1,1-.08,1.6C88.72,172.12,85.76,172.12,84.1,172.09Z"/><path class="cls-2" d="M105.7,176.55a.71.71,0,1,1,0,1.41c-2.36-.08-5.56-.09-7.67,0a.71.71,0,1,1,0-1.42c1.07,0,2.64-.07,4.26-.07.19-.72.42-1.63.5-2.13,0-.24,0-.38-.32-.38-.68,0-1.77,0-2.82,0a.69.69,0,1,1-.11-1.38c1.4,0,2.86,0,3.66,0a1.21,1.21,0,0,1,1.2,1.62c-.16.7-.37,1.53-.57,2.22C104.43,176.52,105.09,176.54,105.7,176.55Z"/><path class="cls-2" d="M110.72,174.64a.77.77,0,0,1-.85-.77.81.81,0,0,1,.85-.81h10a.79.79,0,1,1,0,1.58Z"/><path class="cls-2" d="M129.19,168.1a4.79,4.79,0,0,0,.67-.29c.88-.52,1.74.8.56,1.4a9.62,9.62,0,0,1-1.76.53,16.71,16.71,0,0,1-.77,1.61,2.34,2.34,0,0,1,2.69,1.39c.65-.33,1.33-.67,1.95-.94a12.47,12.47,0,0,0,1.25-.59.85.85,0,1,1,.9,1.44c-.52.25-.89.33-1.73.65-.68.26-1.4.58-2,.88a12.89,12.89,0,0,1,0,1.77,1,1,0,0,1-.85,1c-.4,0-.77-.29-.72-.91,0-.34,0-.71,0-1l-.42.24c-2,1.28-1.74,2.24-.85,2.68a5,5,0,0,0,3.17-.12c1.41-.44,1.86,1.29.39,1.68-.95.24-3.12.48-4.37-.23-2.16-1.21-1.78-3.37,1.12-5.28.22-.14.48-.32.78-.5-.43-1.34-1.66-1.18-2.7,0l-.07.06a3.45,3.45,0,0,1-.36.42c-.88.78-2-.13-1.09-1a8,8,0,0,0,1.29-1.51,12,12,0,0,0,.76-1.42,3.2,3.2,0,0,1-2-.18c-1.15-.57-.37-2.08.75-1.33a2.5,2.5,0,0,0,1.51,0l.24,0a6.62,6.62,0,0,0,.17-1.34c.07-1,1.57-.86,1.61-.08a3.26,3.26,0,0,1-.13.93Z"/><path class="cls-2" d="M139.17,180.06a.77.77,0,0,1-.82-.75.72.72,0,0,1,.72-.72c2.08-.29,3.41-1.09,4.05-2.45a.77.77,0,0,1,.72-.48.83.83,0,0,1,.85.75.76.76,0,0,1-.08.32C143.18,179.74,139.17,180.06,139.17,180.06Zm3.68-4.71a1.7,1.7,0,0,1-1.87-1.6c0-.7,0-1.85,0-3s0-2.25,0-2.87a1.62,1.62,0,0,1,1.76-1.57c.73,0,1.69,0,2.68,0s2,0,2.81,0a1.65,1.65,0,0,1,1.66,1.46c0,.7.05,1.73.05,2.78s0,2.36-.05,3.14a1.7,1.7,0,0,1-1.74,1.63c-.28,0-.55,0-.82,0,0,.65,0,1.4,0,1.91,0,.88.19,1.09,1.57,1.09,1.23,0,2-.19,2-1.63a.71.71,0,0,1,.75-.76.81.81,0,0,1,.85.87c0,2.75-1.86,3-3.68,3-1.62,0-3-.16-3-1.94,0-.43,0-1.63,0-2.5C144.8,175.38,143.78,175.37,142.85,175.35Zm5.6-5.13h-6.07v1.24h6.07Zm0-1.24c0-.24,0-.46,0-.64,0-.41-.22-.65-.75-.69s-1.23,0-2,0-1.82,0-2.49,0a.73.73,0,0,0-.75.71c0,.17,0,.38,0,.62Zm-6,3.72c0,.24,0,.44,0,.64,0,.51.3.68.76.7.74,0,1.54.05,2.36.05s1.44,0,2.13-.05.76-.62.76-1.34Z"/><path class="cls-2" d="M164.47,177.23c1.16-1,1.12-2.57.2-3.17a4.18,4.18,0,0,0-4.17.27,3.6,3.6,0,0,0-1.35,1.2c-.57.85-2.17-.1-1.18-1.07a58.37,58.37,0,0,0,4.83-5.17c.18-.23,0-.16-.11-.1A13.17,13.17,0,0,1,160,170c-1.26.27-1.5-1.32-.42-1.44a25.44,25.44,0,0,0,3.53-.79c1.28-.37,2.33.77,1.53,1.67-.51.57-1.15,1.2-1.79,1.79s-1.28,1.17-1.86,1.73a4.93,4.93,0,0,1,4.5-.05c2.31,1.38,1.55,4.19-.13,5.41a5.27,5.27,0,0,1-5.3.4c-1.69-1.1-.94-3.09.95-3.15a2.27,2.27,0,0,1,2.53,2.16A2.33,2.33,0,0,0,164.47,177.23Zm-3.41-.48c-.71.06-.74.72-.23,1a3,3,0,0,0,1.35.24C162.19,177.24,161.76,176.68,161.06,176.75Z"/><path class="cls-3" d="M117.93,116.58a5.53,5.53,0,0,0-.57-1,11.82,11.82,0,0,1-1.92-3.07,8.48,8.48,0,0,1-.71-6.45c.56-1.76.24-3.06,1.52-4.52a30,30,0,0,1,4.1-3.44,22.32,22.32,0,0,1,2.57-1.57c.5-.29,1-.53,1.72-.88-.78-.63-1.38-1.13-2-1.59a19.22,19.22,0,0,1-3.09-3.22,10.29,10.29,0,0,1-2.42-6.94,2.06,2.06,0,0,0-.17-.81c-.54-1.21-.24-2.44-.22-3.68a12.83,12.83,0,0,1,1-4,9.76,9.76,0,0,1,4.51-5.3A18.63,18.63,0,0,1,128.13,68a8.44,8.44,0,0,0,1.08-.34,6,6,0,0,0,.15-1.2,20.22,20.22,0,0,1,.67-5.37c.21-1.16.52-2.31.82-3.46.17-.67.45-1.2,1.29-1.3.36,0,.69-.42,1-.68a1.19,1.19,0,0,1,1.9.1,2.29,2.29,0,0,0,.7.58A18.39,18.39,0,0,0,139,57.7a54.34,54.34,0,0,1,5.48,2c1.18.42,2.37.82,3.53,1.29a1.1,1.1,0,0,1,.71,1.59c-.49,1.41-1,2.83-1.47,4.24-.61,1.74-1.25,3.47-1.88,5.21.59,1.06,1.25,2.16,1.83,3.31a5.75,5.75,0,0,1,.62,3.11c-.15,1.9-.35,3.79-.51,5.68a7.16,7.16,0,0,1-1.14,3.54c-.91,1.35-1.64,2.85-2.67,4.1a9.87,9.87,0,0,1-3.35,3.07c-.22.1-.41.24-.62.36l.13.29c.72.2,1.44.44,2.17.58a4.58,4.58,0,0,1,2.08.91,14.24,14.24,0,0,0,1.7,1c.63.37,1.24.77,1.89,1.1,1.38.7,2,.44,2.69,1.71a15.18,15.18,0,0,1,.73,4.19,10.45,10.45,0,0,1,0,2.62c-.12,1-.4,2-.6,3a8.25,8.25,0,0,1-.7,2.38,10.29,10.29,0,0,0-.45,1.49,4,4,0,0,1-.44.81c-.46.68-.41.92.35,1.26a3,3,0,0,0,2.77.06,9.22,9.22,0,0,1,3.51-.88,5.48,5.48,0,0,1,3.58.88c.48.33,1.1.38,1.48.92.12.16.65.1,1,0,1.06-.19,2.11-.48,3.17-.62a8.94,8.94,0,0,1,5.59.82,11.85,11.85,0,0,1,3.49,2.74,6.24,6.24,0,0,1,.9,2.18.68.68,0,0,1-.62.9.82.82,0,0,1-.91-.67,10,10,0,0,0-.15-1.24,3,3,0,0,0-1.46-1.59,10.09,10.09,0,0,0-5.64-1.93,6.84,6.84,0,0,0-4.34,1.26c-.51.42-.82.32-1.24-.2-1.63-2-3.78-2.2-6.08-1.79a4,4,0,0,0-2.53,1.37.8.8,0,0,1-1.05.18,12.33,12.33,0,0,1-1.15-.72,2.13,2.13,0,0,0-2.86,0c-.37.27-.7.58-1.08.84s-1,.63-1.49.94l-.27.14a3.12,3.12,0,0,0-2,3.62,2.92,2.92,0,0,1,.07.83c0,.17-.16.33-.25.49-.17-.1-.46-.17-.49-.3a12.72,12.72,0,0,1-.36-1.92c-.06-.68-.11-.83-.79-.77-.83.09-1.65.33-2.48.42a21.77,21.77,0,0,1-5.09.44,23.69,23.69,0,0,1-2.73-.58,25.75,25.75,0,0,1-2.74-.74,40.58,40.58,0,0,1-4.15-1.7,33.43,33.43,0,0,1-3-1.85.76.76,0,0,0-.39-.15c-2.13,0-4.08.46-5.35,2.43-.84,1.3-1.16,1.34-2.23.16-1.59-1.76-3.57-1.87-5.64-1.11a8.16,8.16,0,0,0-1.9,1.08,1.31,1.31,0,0,1-1.45.17,8,8,0,0,0-5.1-.54,8.84,8.84,0,0,0-4.38,2.31l-.75.73a.65.65,0,0,1-.93.12.69.69,0,0,1-.27-.93,6.86,6.86,0,0,1,1.15-1.6,9.14,9.14,0,0,1,4.8-2.17,10.21,10.21,0,0,1,4.66.3,2.17,2.17,0,0,0,1.78-.23c2.07-1.07,4.25-1.63,6.55-.72a16.93,16.93,0,0,1,1.82,1,.84.84,0,0,0,1.07,0,10.56,10.56,0,0,1,4-2C117.3,116.84,117.52,116.74,117.93,116.58Zm14.71,4.6c1.7-.25,3.26-.43,4.8-.71a8.78,8.78,0,0,0,5.42-2.92,6,6,0,0,1,2.44-1.73,2.52,2.52,0,0,0,1.27-1.3,24,24,0,0,0,1.55-3.64c.38-1.62,1.15-3.14,1.08-4.87a4.81,4.81,0,0,1,.14-.72,4.26,4.26,0,0,0-1.48-4.23c-1.24-1-2.61-1.74-3.91-2.62a8.45,8.45,0,0,0-5-1.45c-.94,0-1.88-.07-2.83-.1a4.15,4.15,0,0,0-.93,0,28,28,0,0,1-4.76.71,5.53,5.53,0,0,1-2.55-.31,3.25,3.25,0,0,0-2.63,0,15.12,15.12,0,0,0-6.15,4.59,19.16,19.16,0,0,0-1.47,1.77,11.57,11.57,0,0,0-1.3,3.52,4.37,4.37,0,0,0,.08,2.58,10.54,10.54,0,0,0,1.21,2.87,13.88,13.88,0,0,0,3.66,4.12,26.4,26.4,0,0,0,8.25,3.73C130.55,120.8,131.65,121,132.64,121.18Zm13-39.59c.21-4.33-1.58-6.18-4.29-7.83a12.87,12.87,0,0,0-4.85-1.61,5.68,5.68,0,0,0-4.25.54,3.74,3.74,0,0,1-.59.21c-1,.4-1.94.79-2.9,1.21-1.5.67-2.51,2.07-4,2.76-.5.23-1,.48-1.49.72a1.82,1.82,0,0,0-.63.34c-.8.92-1.6,1.84-2.32,2.82a4.6,4.6,0,0,0-.79,1.69,8.17,8.17,0,0,0,.06,4.25,7,7,0,0,0,1.33,3c.7.72,1.45,1.4,2.1,2.17a12.5,12.5,0,0,0,4.47,3,5.88,5.88,0,0,0,2.55.42,19.44,19.44,0,0,0,3.12-.33c3-.48,5.68-1.46,7.69-3.87a18.58,18.58,0,0,1,1.35-1.31,4.13,4.13,0,0,0,.56-.62A14,14,0,0,0,145.63,81.59ZM131.48,67.21a2.75,2.75,0,0,0,.56.16l2.51.15a12.71,12.71,0,0,1,5.34,1.35c.86.46,1.73.9,2.58,1.36s1,.27,1.25-.57c.12-.47.27-.94.41-1.41q.84-2.79,1.7-5.59s-.05-.13-.1-.27c-4-1.79-8.24-3.14-12.44-4.53C132.6,59.12,131.85,63.05,131.48,67.21Zm5.09,3.08V70a37.23,37.23,0,0,0-4.46-.23,28.63,28.63,0,0,0-5,.79A10.65,10.65,0,0,0,119.68,76a7,7,0,0,0-1.09,3.12c.86-.9,1.57-1.65,2.29-2.39a4.54,4.54,0,0,1,1-.81c.7-.38,1.45-.66,2.17-1a1.48,1.48,0,0,0,.56-.42A8.52,8.52,0,0,1,129,71.71a10,10,0,0,0,2.22-.9,3.81,3.81,0,0,1,1.74-.62,7.59,7.59,0,0,1,2.81.09A2.83,2.83,0,0,0,136.57,70.29Z"/><path class="cls-4" d="M132.64,121.18c-1-.2-2.09-.38-3.16-.66a26.4,26.4,0,0,1-8.25-3.73,13.88,13.88,0,0,1-3.66-4.12,10.54,10.54,0,0,1-1.21-2.87,4.37,4.37,0,0,1-.08-2.58,11.57,11.57,0,0,1,1.3-3.52,19.16,19.16,0,0,1,1.47-1.77,15.12,15.12,0,0,1,6.15-4.59,3.25,3.25,0,0,1,2.63,0,5.53,5.53,0,0,0,2.55.31,28,28,0,0,0,4.76-.71,4.15,4.15,0,0,1,.93,0c1,0,1.89.12,2.83.1a8.45,8.45,0,0,1,5,1.45c1.3.88,2.67,1.67,3.91,2.62a4.26,4.26,0,0,1,1.48,4.23,4.81,4.81,0,0,0-.14.72c.07,1.73-.7,3.25-1.08,4.87a24,24,0,0,1-1.55,3.64,2.52,2.52,0,0,1-1.27,1.3,6,6,0,0,0-2.44,1.73,8.78,8.78,0,0,1-5.42,2.92C135.9,120.75,134.34,120.93,132.64,121.18Z"/><path class="cls-4" d="M145.63,81.59a14,14,0,0,1-2.89,7.6,4.13,4.13,0,0,1-.56.62,18.58,18.58,0,0,0-1.35,1.31c-2,2.41-4.73,3.39-7.69,3.87a19.44,19.44,0,0,1-3.12.33,5.88,5.88,0,0,1-2.55-.42,12.5,12.5,0,0,1-4.47-3c-.65-.77-1.4-1.45-2.1-2.17a7,7,0,0,1-1.33-3,8.17,8.17,0,0,1-.06-4.25,4.6,4.6,0,0,1,.79-1.69c.72-1,1.52-1.9,2.32-2.82a1.82,1.82,0,0,1,.63-.34c.49-.24,1-.49,1.49-.72,1.5-.69,2.51-2.09,4-2.76,1-.42,1.93-.81,2.9-1.21a3.74,3.74,0,0,0,.59-.21,5.68,5.68,0,0,1,4.25-.54,12.87,12.87,0,0,1,4.85,1.61C144.05,75.41,145.84,77.26,145.63,81.59ZM135,81.13a14,14,0,0,0,2-.48,7,7,0,0,0,1.59-1c.27-.19.63-.44.4-.85a1.06,1.06,0,0,0-1.13-.59c-.44.07-.88.2-1.32.3l-2.84.65a1.45,1.45,0,0,0-.3.06c-.54.2-.61.56-.26,1A2.26,2.26,0,0,0,135,81.13Zm-9.05-1.6-.76-.09c-.43,0-.85.08-.9.5a1.25,1.25,0,0,0,.41.87,2.23,2.23,0,0,0,1.71.65,3.49,3.49,0,0,0,2.7-.82.82.82,0,0,0-.37-1.45,2.3,2.3,0,0,0-1.63,0A5.86,5.86,0,0,1,125.94,79.53ZM127.63,86a3.65,3.65,0,0,0,4.48.64c.33-.24.58-.52.43-1a.84.84,0,0,0-.91-.54,28.22,28.22,0,0,1-2.91,0C128,85,127.78,85.37,127.63,86Zm4.91-3.51a1,1,0,0,0,0-.29,1.25,1.25,0,0,0-1.68-.71,1.87,1.87,0,0,0-.08,2.56,1.08,1.08,0,0,0,.84.15C132.41,84,132.49,83.31,132.54,82.5Z"/><path class="cls-5" d="M131.48,67.21c.37-4.16,1.12-8.09,1.81-9.35,4.2,1.39,8.43,2.74,12.44,4.53.05.14.11.22.1.27q-.86,2.81-1.7,5.59c-.14.47-.29.94-.41,1.41-.21.84-.51,1-1.25.57s-1.72-.9-2.58-1.36a12.71,12.71,0,0,0-5.34-1.35L132,67.37A2.75,2.75,0,0,1,131.48,67.21Z"/><path class="cls-6" d="M136.57,70.29a2.83,2.83,0,0,1-.77,0,7.59,7.59,0,0,0-2.81-.09,3.81,3.81,0,0,0-1.74.62,10,10,0,0,1-2.22.9,8.52,8.52,0,0,0-4.47,2.73,1.48,1.48,0,0,1-.56.42c-.72.35-1.47.63-2.17,1a4.54,4.54,0,0,0-1,.81c-.72.74-1.43,1.49-2.29,2.39A7,7,0,0,1,119.68,76a10.65,10.65,0,0,1,7.47-5.41,28.63,28.63,0,0,1,5-.79,37.23,37.23,0,0,1,4.46.23Z"/><path class="cls-3" d="M88.53,17.32c.38-.25.68-.42.94-.63a15.42,15.42,0,0,1,6.16-2.91,13.25,13.25,0,0,1,4-.15,11.55,11.55,0,0,1,5.82,2.1,9,9,0,0,1,3,4,7.16,7.16,0,0,1,.7,3.48,15.2,15.2,0,0,0,.19,2.33c.53,0,1-.05,1.54-.13a11.23,11.23,0,0,1,4,.3,2.81,2.81,0,0,0,1.19,0,11.62,11.62,0,0,1,6-.17c.75.2,1.55.2,2.32.36a13.38,13.38,0,0,1,4.07,1.66,6.84,6.84,0,0,1,2.79,3.79,7.14,7.14,0,0,1-.07,4.91,4.7,4.7,0,0,1-2.45,3,33.57,33.57,0,0,0-2.93,1.86,7.53,7.53,0,0,1-1.59.7,8.45,8.45,0,0,1-4.09.72,3.22,3.22,0,0,0-.62,0,1,1,0,0,0-.25.09c-.56,1.42-1,2.84-1.67,4.19A6.87,6.87,0,0,1,115,49.54c-.7.48-1.47.84-2.2,1.28a6.29,6.29,0,0,1-3.8.63A10.14,10.14,0,0,1,104.1,50c-.41-.27-.81-.57-1.23-.87-.48.7-.92,1.3-1.31,1.92A8.71,8.71,0,0,1,99,53.24a21.6,21.6,0,0,1-1.88,1.22,8.33,8.33,0,0,1-3.89,1.47c-1.9,0-3.85,0-5.54-1.11a.89.89,0,0,0-.25,0c-.1.08-.29.15-.36.28-.83,1.5-2.32,2.31-3.52,3.41a24.37,24.37,0,0,1-4.4,3,7.91,7.91,0,0,1-5.94,1A6.64,6.64,0,0,1,68.81,59c-.07-.12-.12-.25-.19-.36s-.1-.09-.21-.17a3.07,3.07,0,0,0-.62.22c-2,1.44-4.45,2.08-6.73,3a13.62,13.62,0,0,1-4.14.63,25.78,25.78,0,0,1-8-.94,24.58,24.58,0,0,1-4.68-1.75A4.57,4.57,0,0,1,41.74,57a13.74,13.74,0,0,0-.63-1.41,3.37,3.37,0,0,1-.24-2,23.58,23.58,0,0,0,.1-3.15,5.74,5.74,0,0,1,1.42-3.68,22.66,22.66,0,0,1,6.45-5.31c.7-.4,1.36-.87,2.12-1.36a5.09,5.09,0,0,0-.6-.69,5,5,0,0,1-1.66-2.29,2.59,2.59,0,0,1,.68-2.92,10.49,10.49,0,0,1,1.28-1,3.85,3.85,0,0,1,3.28-.53c-.06-.49-.08-.84-.14-1.19-.18-1-.4-1.95-.55-2.93A5,5,0,0,1,53.59,26a2,2,0,0,1,1.31-1.19c.8-.31.74-.31.78-1.21a7.48,7.48,0,0,1,2.55-5.73,6.52,6.52,0,0,1,2.69-1.42,17.67,17.67,0,0,1,4.44-.66,6.4,6.4,0,0,1,4.75,2c.43.48.89.95,1.36,1.39a3.15,3.15,0,0,0,.72.37,11.51,11.51,0,0,1,3.18-3.74A8.17,8.17,0,0,1,80.9,13.5a9.89,9.89,0,0,1,4.75,1.17,10.37,10.37,0,0,1,1.88,1.58C87.86,16.55,88.14,16.9,88.53,17.32ZM87,51.54l1,.94a6.46,6.46,0,0,0,1.35,1.23,6.26,6.26,0,0,0,5.46,0,17.91,17.91,0,0,0,2.51-1.37,25.18,25.18,0,0,0,2.6-2,3.33,3.33,0,0,0,.68-1.12,6.52,6.52,0,0,0,.41-3.33c-.07-.94.15-1.25,1.19-1.65.28.45.6.92.87,1.4a8.61,8.61,0,0,0,1,1.87,7.26,7.26,0,0,0,6.91,2,7,7,0,0,0,5.41-4.55c.26-.71.52-1.42.82-2.11a1.78,1.78,0,0,0,0-1.59.87.87,0,0,1,.3-1.17,1,1,0,0,1,1.33,0,2.79,2.79,0,0,0,2.8.52,19.48,19.48,0,0,0,5.93-2.77,3.26,3.26,0,0,0,1.07-1.2,10.1,10.1,0,0,0,.87-2.19A5,5,0,0,0,128,29.23a8.19,8.19,0,0,0-4.12-2c-1.9-.28-3.82-.43-5.73-.54a8.31,8.31,0,0,0-2,.31c-.78.15-1.55.59-2.37.13a.8.8,0,0,0-.41,0,13.66,13.66,0,0,0-4.72.88,5.79,5.79,0,0,1-1.91.3c-.48,0-.72-.38-.6-.84a1.93,1.93,0,0,1,.29-.55,6.4,6.4,0,0,0,.88-4.33,8.35,8.35,0,0,0-1.61-4.38,5.42,5.42,0,0,0-3.11-2.4,25.49,25.49,0,0,0-4-.7,8.88,8.88,0,0,0-4.11.71c-1.26.57-2.39,1.33-3.58,2a3.21,3.21,0,0,0-1.67,2A1.85,1.85,0,0,1,88,21.05c-1.09-.15-1.26-.8-1.17-1.71a3.38,3.38,0,0,0-1-2.71,6.4,6.4,0,0,0-6.41-1.29c-.71.3-1.34.79-2,1.14a8.1,8.1,0,0,0-3.07,3.34,7.4,7.4,0,0,0-.58,2.06c-.17.74-.67,1.06-1.34.71a4.45,4.45,0,0,1-1.18-.95c-1-1.07-2-2.18-3-3.26a3.49,3.49,0,0,0-2.47-1.13,10.48,10.48,0,0,0-4.32.71c-2.6,1-4,3.84-3.8,7,0,.29,0,.59,0,1a4.77,4.77,0,0,1-1.35.14,2.16,2.16,0,0,0-1.61.32l1.53,7.18c-1.06.51-1.08.53-1.54.27-1.42-.8-2.43-.53-3.62.76a2,2,0,0,0-.52,2,4.24,4.24,0,0,0,3.44,3,16.23,16.23,0,0,1,2.38.59c.4.11.76.34.7.88a1.47,1.47,0,0,1-1.34.32A15.22,15.22,0,0,1,53.45,41a2.49,2.49,0,0,0-2.15.37c-1.26.88-2.49,1.81-3.81,2.6a12.8,12.8,0,0,0-2.81,2.48,6.41,6.41,0,0,0-1.85,4.65c0,1.09.11,2.19.19,3.28a4.58,4.58,0,0,0,2.56,3.75A18.25,18.25,0,0,0,50,59.87a25.65,25.65,0,0,0,6.63.61A17.89,17.89,0,0,0,64.8,58.2c.3-.16.62-.28.93-.44A7,7,0,0,0,68.34,56a.89.89,0,0,1,1.62.13,12.47,12.47,0,0,1,.44,1.26,4.73,4.73,0,0,0,3.31,3.21,5.93,5.93,0,0,0,3.83-.35A31.4,31.4,0,0,0,85,55.43,2.9,2.9,0,0,0,86.16,53,1.55,1.55,0,0,1,87,51.54Z"/><path class="cls-3" d="M81.67,111.71a2.17,2.17,0,0,1-1.89-2.58,4,4,0,0,1,2.54-2.93,4.12,4.12,0,0,1,.88-.29A1.93,1.93,0,0,1,85.12,108a5.74,5.74,0,0,1-2.23,3.33A8.26,8.26,0,0,1,81.67,111.71Zm-.43-2.26v.29c0,.52.21.71.7.58a1.63,1.63,0,0,0,.56-.31A3.33,3.33,0,0,0,84,108c.13-.65-.15-1-.81-1.06a1,1,0,0,0-1.14.53C81.67,108.06,81.09,108.61,81.24,109.45Z"/><path class="cls-3" d="M91.84,93a2.51,2.51,0,0,1-.45,1.41,9.64,9.64,0,0,1-1.7,2.31A1.74,1.74,0,0,1,87,96.56a3.39,3.39,0,0,1-.69-1.38,4.33,4.33,0,0,1,1.29-4,3.11,3.11,0,0,1,4,1A3,3,0,0,1,91.84,93Zm-4.21,1.64h.06a4.77,4.77,0,0,0,0,.66c.14.71.54.83,1.09.38a6.9,6.9,0,0,0,1.55-2,1,1,0,0,0,.05-.85,1.43,1.43,0,0,0-1.26-.8,1.15,1.15,0,0,0-1.1.86C87.88,93.45,87.77,94.05,87.63,94.64Z"/><path class="cls-3" d="M55.54,91.71A8.1,8.1,0,0,1,55,93.23a15.44,15.44,0,0,1-1.29,1.93,1.93,1.93,0,0,1-2.46.63,2.12,2.12,0,0,1-1.12-2.59,4.82,4.82,0,0,1,1.23-2.55,2.46,2.46,0,0,1,3.55-.18A6.31,6.31,0,0,1,55.54,91.71Zm-3.87,2.41c.28,0,.45,0,.54,0,1.16-.83,1-.82,1.62-2.09.07-.16-.13-.53-.31-.67s-.43,0-.63.11a.81.81,0,0,0-.36.35c-.57.89-.25.6-.78,1.51A2.45,2.45,0,0,0,51.67,94.12Z"/><path class="cls-3" d="M61.28,96.94c.29-1-.12-1.06,1.29-1.81a1,1,0,0,0,.3-.39,2,2,0,0,1,2.23-1,2.25,2.25,0,0,1,1.7,1.94c.12,1.08,0,.57-.32,1.53a8.12,8.12,0,0,1-.91,1.47,2.22,2.22,0,0,1-2.65,1C61.94,99.43,61.38,98.49,61.28,96.94Zm1.49.13c.11.51.09,1,.59,1.19s.83-.22,1-.62c.35-.59.27.23.52-.4a4.67,4.67,0,0,0,.26-1.49A.68.68,0,0,0,64.5,95c-.39,0-.75,0-.85.53,0,.21-.27.38-.36.6C63,96.91,63.09,96.29,62.77,97.07Z"/><path class="cls-3" d="M75.24,86.2a3.72,3.72,0,0,0,2-1.55,1.27,1.27,0,0,0-.36-2c.06-.27.24-.35.54-.29.69.12,1.18.47,1.2,1a3.64,3.64,0,0,1-.23,1.46,4.88,4.88,0,0,1-2.58,2.47,2.31,2.31,0,0,1-.88.19c-1.13,0-1.74-.49-1.61-1.34a4.3,4.3,0,0,1,1.14-1.92,7.46,7.46,0,0,1,.81-.77,1,1,0,0,1,1.09-.11c.4.19.27.45.12.68s-.41.41-.57.64C75.57,85.14,75,85.53,75.24,86.2Z"/><path class="cls-3" d="M36.33,100.06a3.65,3.65,0,0,0,2-1.55,1.28,1.28,0,0,0-.35-2c.06-.27.24-.35.54-.3.69.12,1.17.48,1.19,1a3.43,3.43,0,0,1-.23,1.45,4.81,4.81,0,0,1-2.57,2.48,2.4,2.4,0,0,1-.89.18c-1.13,0-1.73-.48-1.61-1.33a4.39,4.39,0,0,1,1.14-1.92,6.71,6.71,0,0,1,.82-.77,1,1,0,0,1,1.08-.11c.4.19.28.45.12.68s-.41.41-.57.64C36.65,99,36.13,99.38,36.33,100.06Z"/><path class="cls-4" d="M87,51.54A1.55,1.55,0,0,0,86.16,53,2.9,2.9,0,0,1,85,55.43a31.4,31.4,0,0,1-7.48,4.83,5.93,5.93,0,0,1-3.83.35A4.73,4.73,0,0,1,70.4,57.4,12.47,12.47,0,0,0,70,56.14.89.89,0,0,0,68.34,56a7,7,0,0,1-2.61,1.75c-.31.16-.63.28-.93.44a17.89,17.89,0,0,1-8.14,2.28A25.65,25.65,0,0,1,50,59.87a18.25,18.25,0,0,1-4.45-1.75A4.58,4.58,0,0,1,43,54.37c-.08-1.09-.16-2.19-.19-3.28a6.41,6.41,0,0,1,1.85-4.65A12.8,12.8,0,0,1,47.49,44c1.32-.79,2.55-1.72,3.81-2.6A2.49,2.49,0,0,1,53.45,41a15.22,15.22,0,0,0,2.23.35A1.47,1.47,0,0,0,57,41c.06-.54-.3-.77-.7-.88a16.23,16.23,0,0,0-2.38-.59,4.24,4.24,0,0,1-3.44-3,2,2,0,0,1,.52-2c1.19-1.29,2.2-1.56,3.62-.76.46.26.48.24,1.54-.27l-1.53-7.18a2.16,2.16,0,0,1,1.61-.32,4.77,4.77,0,0,0,1.35-.14c0-.4,0-.7,0-1-.19-3.14,1.2-6,3.8-7a10.48,10.48,0,0,1,4.32-.71,3.49,3.49,0,0,1,2.47,1.13c1,1.08,2,2.19,3,3.26a4.45,4.45,0,0,0,1.18.95c.67.35,1.17,0,1.34-.71a7.4,7.4,0,0,1,.58-2.06,8.1,8.1,0,0,1,3.07-3.34c.69-.35,1.32-.84,2-1.14a6.4,6.4,0,0,1,6.41,1.29,3.38,3.38,0,0,1,1,2.71c-.09.91.08,1.56,1.17,1.71a1.85,1.85,0,0,0,1.18-1.3,3.21,3.21,0,0,1,1.67-2c1.19-.67,2.32-1.43,3.58-2a8.88,8.88,0,0,1,4.11-.71,25.49,25.49,0,0,1,4,.7,5.42,5.42,0,0,1,3.11,2.4,8.35,8.35,0,0,1,1.61,4.38,6.4,6.4,0,0,1-.88,4.33,1.93,1.93,0,0,0-.29.55c-.12.46.12.87.6.84a5.79,5.79,0,0,0,1.91-.3,13.66,13.66,0,0,1,4.72-.88.8.8,0,0,1,.41,0c.82.46,1.59,0,2.37-.13a8.31,8.31,0,0,1,2-.31c1.91.11,3.83.26,5.73.54a8.19,8.19,0,0,1,4.12,2,5,5,0,0,1,1.62,5.29,10.1,10.1,0,0,1-.87,2.19,3.26,3.26,0,0,1-1.07,1.2,19.48,19.48,0,0,1-5.93,2.77,2.79,2.79,0,0,1-2.8-.52,1,1,0,0,0-1.33,0,.87.87,0,0,0-.3,1.17,1.78,1.78,0,0,1,0,1.59c-.3.69-.56,1.4-.82,2.11A7,7,0,0,1,111,49.61a7.26,7.26,0,0,1-6.91-2,8.61,8.61,0,0,1-1-1.87c-.27-.48-.59-.95-.87-1.4-1,.4-1.26.71-1.19,1.65a6.52,6.52,0,0,1-.41,3.33,3.33,3.33,0,0,1-.68,1.12,25.18,25.18,0,0,1-2.6,2,17.91,17.91,0,0,1-2.51,1.37,6.26,6.26,0,0,1-5.46,0A6.46,6.46,0,0,1,88,52.48Z"/><path class="cls-4" d="M81.24,109.45c-.15-.84.43-1.39.81-2a1,1,0,0,1,1.14-.53c.66.08.94.41.81,1.06A3.33,3.33,0,0,1,82.5,110a1.63,1.63,0,0,1-.56.31c-.49.13-.7-.06-.7-.58Z"/><path class="cls-3" d="M65.71,77.64a2.35,2.35,0,0,1-2-2.81,4.36,4.36,0,0,1,2.76-3.18,4.17,4.17,0,0,1,1-.32,2.1,2.1,0,0,1,2.08,2.26A6.19,6.19,0,0,1,67,77.21,10.31,10.31,0,0,1,65.71,77.64Zm-.47-2.46v.32c0,.56.23.77.76.63a2,2,0,0,0,.62-.34,3.66,3.66,0,0,0,1.63-2.23c.14-.71-.17-1.06-.89-1.15a1.11,1.11,0,0,0-1.24.58C65.71,73.67,65.08,74.26,65.24,75.18Z"/><path class="cls-4" d="M65.24,75.18c-.16-.92.47-1.51.88-2.19a1.11,1.11,0,0,1,1.24-.58c.72.09,1,.44.89,1.15a3.66,3.66,0,0,1-1.63,2.23,2,2,0,0,1-.62.34c-.53.14-.76-.07-.76-.63Z"/><path class="cls-4" d="M87.63,94.64c.14-.59.25-1.19.44-1.75a1.15,1.15,0,0,1,1.1-.86,1.43,1.43,0,0,1,1.26.8,1,1,0,0,1-.05.85,6.9,6.9,0,0,1-1.55,2c-.55.45-1,.33-1.09-.38a4.77,4.77,0,0,1,0-.66Z"/><path class="cls-3" d="M111.93,68.29a2.48,2.48,0,0,1-.45,1.4,9.69,9.69,0,0,1-1.7,2.32,1.75,1.75,0,0,1-2.67-.16,3.37,3.37,0,0,1-.68-1.38,4.32,4.32,0,0,1,1.28-4,3.12,3.12,0,0,1,4,1A3.07,3.07,0,0,1,111.93,68.29Zm-4.21,1.63.06,0c0,.22,0,.44,0,.66.15.71.54.83,1.09.38a6.86,6.86,0,0,0,1.55-2,1,1,0,0,0,0-.85,1.4,1.4,0,0,0-1.26-.8,1.14,1.14,0,0,0-1.1.85C108,68.74,107.86,69.34,107.72,69.92Z"/><path class="cls-4" d="M107.72,69.92c.14-.58.25-1.18.44-1.75a1.14,1.14,0,0,1,1.1-.85,1.4,1.4,0,0,1,1.26.8,1,1,0,0,1,0,.85,6.86,6.86,0,0,1-1.55,2c-.55.45-.94.33-1.09-.38,0-.22,0-.44,0-.66Z"/><path class="cls-3" d="M103.69,89.17a2.4,2.4,0,0,1-.44,1.4,9.71,9.71,0,0,1-1.7,2.31,1.74,1.74,0,0,1-2.67-.15,3.46,3.46,0,0,1-.69-1.38,4.3,4.3,0,0,1,1.24-4,1.31,1.31,0,0,1,.28-.17,3.18,3.18,0,0,1,3.79,1.13A3.45,3.45,0,0,1,103.69,89.17Zm-4.2,1.63.06,0a4.63,4.63,0,0,0,0,.65c.15.72.54.83,1.1.39a6.83,6.83,0,0,0,1.54-2,1,1,0,0,0,0-.85,1.4,1.4,0,0,0-1.26-.8,1.15,1.15,0,0,0-1.1.85C99.73,89.62,99.63,90.22,99.49,90.8Z"/><path class="cls-4" d="M99.49,90.8c.14-.58.24-1.18.43-1.75a1.15,1.15,0,0,1,1.1-.85,1.4,1.4,0,0,1,1.26.8,1,1,0,0,1,0,.85,6.83,6.83,0,0,1-1.54,2c-.56.44-1,.33-1.1-.39a4.63,4.63,0,0,1,0-.65Z"/><path class="cls-3" d="M52.79,75.67a2.56,2.56,0,0,1-.47,1.45,9.64,9.64,0,0,1-1.76,2.4,1.81,1.81,0,0,1-2.76-.16,3.56,3.56,0,0,1-.71-1.43,4.47,4.47,0,0,1,1.28-4.15,1.41,1.41,0,0,1,.29-.18,3.29,3.29,0,0,1,3.92,1.17A3.7,3.7,0,0,1,52.79,75.67Zm-4.36,1.69.06,0c0,.23,0,.46,0,.68.15.74.56.86,1.13.4a7.06,7.06,0,0,0,1.6-2.09,1,1,0,0,0,0-.87,1.45,1.45,0,0,0-1.3-.83,1.19,1.19,0,0,0-1.14.88C48.68,76.14,48.58,76.76,48.43,77.36Z"/><path class="cls-4" d="M48.43,77.36c.15-.6.25-1.22.45-1.81A1.19,1.19,0,0,1,50,74.67a1.45,1.45,0,0,1,1.3.83,1,1,0,0,1,0,.87,7.06,7.06,0,0,1-1.6,2.09c-.57.46-1,.34-1.13-.4,0-.22,0-.45,0-.68Z"/><path class="cls-3" d="M100.6,77.9a2.48,2.48,0,0,1-.46,1.45A5.53,5.53,0,0,1,98.65,81a1.8,1.8,0,0,1-2.76-.16,3.5,3.5,0,0,1-.71-1.43,3.06,3.06,0,0,1,1-3.39,1,1,0,0,1,.29-.18,2.64,2.64,0,0,1,4.12,2.07Zm-4.08.93.07,0a5.07,5.07,0,0,0,0,.68c.15.74.56.86,1.14.4s.88-.57,1.32-1.33a1,1,0,0,0,0-.88,1.43,1.43,0,0,0-1.3-.82,1.18,1.18,0,0,0-1.14.88C96.5,78.37,96.67,78.23,96.52,78.83Z"/><path class="cls-4" d="M96.52,78.83c.15-.6,0-.46.18-1a1.18,1.18,0,0,1,1.14-.88,1.43,1.43,0,0,1,1.3.82,1,1,0,0,1,0,.88c-.44.76-.62.76-1.32,1.33s-1,.34-1.14-.4a5.07,5.07,0,0,1,0-.68Z"/><path class="cls-3" d="M49.84,106.84a2.58,2.58,0,0,1-.47,1.45,5.5,5.5,0,0,1-1.48,1.64,1.81,1.81,0,0,1-2.76-.16,3.58,3.58,0,0,1-.72-1.43,3.06,3.06,0,0,1,1-3.39,1.08,1.08,0,0,1,.29-.18,3.26,3.26,0,0,1,3.92,1.17A3.7,3.7,0,0,1,49.84,106.84Zm-4.08.93.06,0a3.82,3.82,0,0,0,0,.68c.15.74.56.86,1.13.4s.88-.57,1.32-1.33a1,1,0,0,0,0-.88,1.45,1.45,0,0,0-1.3-.83,1.19,1.19,0,0,0-1.14.89C45.73,107.3,45.9,107.17,45.76,107.77Z"/><path class="cls-4" d="M45.76,107.77c.14-.6,0-.47.17-1a1.19,1.19,0,0,1,1.14-.89,1.45,1.45,0,0,1,1.3.83,1,1,0,0,1,0,.88c-.44.76-.62.76-1.32,1.33s-1,.34-1.13-.4a3.82,3.82,0,0,1,0-.68Z"/><path class="cls-3" d="M67,111.08a2.61,2.61,0,0,1-.47,1.45A5.5,5.5,0,0,1,65,114.17a1.81,1.81,0,0,1-2.76-.17,3.61,3.61,0,0,1-.72-1.42,3.07,3.07,0,0,1,1-3.39,1.08,1.08,0,0,1,.29-.18A2.66,2.66,0,0,1,67,111.08Zm-4.08.93.06,0a3.89,3.89,0,0,0,0,.68c.15.73.56.86,1.13.39s.88-.56,1.32-1.32a1,1,0,0,0,0-.88,1.45,1.45,0,0,0-1.3-.83,1.19,1.19,0,0,0-1.14.88C62.86,111.54,63,111.4,62.89,112Z"/><path class="cls-4" d="M62.89,112c.14-.61,0-.47.17-1.06a1.19,1.19,0,0,1,1.14-.88,1.45,1.45,0,0,1,1.3.83,1,1,0,0,1,0,.88c-.44.76-.61.76-1.32,1.32s-1,.34-1.13-.39a3.89,3.89,0,0,1,0-.68Z"/><path class="cls-4" d="M51.67,94.12a2.45,2.45,0,0,1,.08-.8c.53-.91.21-.62.78-1.51a.81.81,0,0,1,.36-.35c.2-.09.52-.2.63-.11s.38.51.31.67c-.58,1.27-.46,1.26-1.62,2.09C52.12,94.17,52,94.12,51.67,94.12Z"/><path class="cls-4" d="M62.77,97.07c.32-.78.18-.16.52-.93.09-.22.32-.39.36-.6.1-.51.46-.55.85-.53a.68.68,0,0,1,.69.74,4.67,4.67,0,0,1-.26,1.49c-.25.63-.17-.19-.52.4-.22.4-.53.8-1,.62S62.88,97.58,62.77,97.07Z"/><path class="cls-3" d="M135,81.13a2.26,2.26,0,0,1-1.84-.82c-.35-.48-.28-.84.26-1a1.45,1.45,0,0,1,.3-.06l2.84-.65c.44-.1.88-.23,1.32-.3a1.06,1.06,0,0,1,1.13.59c.23.41-.13.66-.4.85a7,7,0,0,1-1.59,1A14,14,0,0,1,135,81.13Z"/><path class="cls-3" d="M125.94,79.53a5.86,5.86,0,0,0,1.16-.29,2.3,2.3,0,0,1,1.63,0,.82.82,0,0,1,.37,1.45,3.49,3.49,0,0,1-2.7.82,2.23,2.23,0,0,1-1.71-.65,1.25,1.25,0,0,1-.41-.87c0-.42.47-.54.9-.5Z"/><path class="cls-3" d="M127.63,86c.15-.64.39-1,1.09-.9a28.22,28.22,0,0,0,2.91,0,.84.84,0,0,1,.91.54c.15.45-.1.73-.43,1A3.65,3.65,0,0,1,127.63,86Z"/><path class="cls-3" d="M132.54,82.5c0,.81-.13,1.5-.93,1.71a1.08,1.08,0,0,1-.84-.15,1.87,1.87,0,0,1,.08-2.56,1.25,1.25,0,0,1,1.68.71A1,1,0,0,1,132.54,82.5Z"/><path class="cls-3" d="M94.32,37.31a3.65,3.65,0,0,1-1.85-.67,4.11,4.11,0,0,1-1.1-1,2.47,2.47,0,0,1-.51-1.47c0-.26.06-.49.38-.54s.77.13.82.41a2.22,2.22,0,0,0,1.51,1.65c.81.36,1.25,0,1.82-.54.31-.31.57-.67.91-1A.91.91,0,0,1,97,34c.26.09.58.31.49.69a2,2,0,0,1-.31.79,5.12,5.12,0,0,1-2.06,1.59A5,5,0,0,1,94.32,37.31Z"/><path class="cls-3" d="M76.56,38.83a2.52,2.52,0,0,1-.86,1.82,4.82,4.82,0,0,1-.76.74,6.2,6.2,0,0,1-1.61.75,1.48,1.48,0,0,1-1.09-.26,5,5,0,0,1-1.63-1.66,2.08,2.08,0,0,1-.17-.89c0-.27.41-.41.71-.17a10.13,10.13,0,0,1,1.31,1.31c.16.19.26.3.5.23a3.38,3.38,0,0,0,1.92-1.34,4,4,0,0,0,.45-1c.12-.31.47-.62.73-.58a.74.74,0,0,1,.5.78Z"/><path class="cls-3" d="M88.11,42.18A2.52,2.52,0,0,1,87.25,44a4.82,4.82,0,0,1-.76.74,6.2,6.2,0,0,1-1.61.75,1.48,1.48,0,0,1-1.09-.26,5,5,0,0,1-1.63-1.66,2.08,2.08,0,0,1-.17-.89c0-.27.41-.41.7-.17A10.21,10.21,0,0,1,84,43.82c.16.19.26.3.5.23a3.33,3.33,0,0,0,1.92-1.34,4,4,0,0,0,.45-1c.12-.31.47-.62.73-.58a.74.74,0,0,1,.5.78Z"/></g></svg>