<svg xmlns="http://www.w3.org/2000/svg" viewBox="0 0 203.14 45.14"><defs><style>.cls-1{fill:#faff57;}.cls-2{fill:#4d4d4d;}</style></defs><g id="レイヤー_1" data-name="レイヤー 1"><circle class="cls-1" cx="22.33" cy="22.85" r="19.81"/><circle class="cls-1" cx="42.14" cy="22.85" r="19.81"/><circle class="cls-1" cx="61.95" cy="22.85" r="19.81"/><circle class="cls-1" cx="81.76" cy="22.85" r="19.81"/><circle class="cls-1" cx="101.57" cy="22.85" r="19.81"/><circle class="cls-1" cx="121.38" cy="22.85" r="19.81"/><circle class="cls-1" cx="141.18" cy="22.85" r="19.81"/><circle class="cls-1" cx="160.99" cy="22.85" r="19.81"/><circle class="cls-1" cx="180.8" cy="22.85" r="19.81"/><path class="cls-2" d="M22.86,22.23a12.5,12.5,0,0,1,3-.42c2.43,0,4.35,1.3,4.35,3.48,0,1.87-1,3.28-3.49,3.9a13.73,13.73,0,0,1-2.08.26l-.73-2a11.66,11.66,0,0,0,1.95-.11c1.28-.22,2.3-.88,2.3-2s-1-1.7-2.33-1.7a11.36,11.36,0,0,0-3,.43c0,1.27.08,2.49.08,3,0,2-.72,2.48-1.75,2.48-1.55,0-3.74-1.33-3.74-3,0-1.39,1.62-2.82,3.55-3.66,0-.37,0-.74,0-1.11V20.4l-.85,0c-.72,0-1.52,0-2.21-.08l0-1.92a16,16,0,0,0,2.19.13l.91,0c0-.56,0-1,0-1.3s-.07-1.1-.11-1.39h2.17c0,.29-.09,1-.12,1.38s0,.73,0,1.13a21,21,0,0,0,2.91-.59l0,2c-.9.2-2,.37-3,.49,0,.48,0,1,0,1.43Zm-1.75,4.45c0-.4,0-1.12,0-2-1,.5-1.62,1.16-1.62,1.72s.73.93,1.15.93S21.11,27.22,21.11,26.68Zm6.53-9.13a36.08,36.08,0,0,1,3.89,2.23l-1,1.63a23.35,23.35,0,0,0-3.81-2.3Z"/><path class="cls-2" d="M48.14,19.65c-1,0-2.45-.08-4.59-.08,0,.8,0,1.67,0,2.35a3.94,3.94,0,0,1,.6,2.2c0,2.06-1.22,4.69-5.09,5.77L37.38,28.2a7.29,7.29,0,0,0,3.88-1.81,3.38,3.38,0,0,1-.72.08,2.8,2.8,0,0,1-2.74-2.91,3,3,0,0,1,3.17-3,4,4,0,0,1,.62.05V19.59c-2.4,0-4.85.12-6.8.24l-.05-1.92c1.81,0,4.69-.08,6.82-.12a3.33,3.33,0,0,0,0-.48,11,11,0,0,0-.14-1.37h2.3c0,.25-.09,1.1-.11,1.36s0,.29,0,.48c1.6,0,3.76,0,4.6,0Zm-7.22,5.06c.66,0,1.25-.5,1-1.87a1.11,1.11,0,0,0-1-.56,1.22,1.22,0,0,0,0,2.43Z"/><path class="cls-2" d="M65.26,19.65c-1,0-2.45-.08-4.59-.08,0,.8,0,1.67,0,2.35a3.94,3.94,0,0,1,.6,2.2c0,2.06-1.22,4.69-5.09,5.77L54.5,28.2a7.29,7.29,0,0,0,3.88-1.81,3.38,3.38,0,0,1-.72.08,2.8,2.8,0,0,1-2.74-2.91,3,3,0,0,1,3.17-3,4,4,0,0,1,.62.05V19.59c-2.4,0-4.85.12-6.8.24l0-1.92c1.81,0,4.69-.08,6.82-.12a3.33,3.33,0,0,0,0-.48,11,11,0,0,0-.14-1.37h2.3c-.05.25-.09,1.1-.11,1.36s0,.29,0,.48c1.6,0,3.76,0,4.6,0ZM58,24.71c.66,0,1.25-.5,1-1.87a1.11,1.11,0,0,0-1-.56,1.22,1.22,0,0,0,0,2.43Z"/><path class="cls-2" d="M78.14,18.5a5.22,5.22,0,0,1,4.16,5.34c0,3.37-2.4,5.29-5.71,5.78L75.37,27.8c3.49-.31,4.85-2.08,4.85-4.07a3.4,3.4,0,0,0-2.56-3.49,19.36,19.36,0,0,1-2.15,5.05c.29.33.58.65.87.94l-1.59,1.26a7.72,7.72,0,0,1-.54-.62,4.14,4.14,0,0,1-3.12,1.7c-1.31,0-2.53-1.12-2.53-3.17a6.92,6.92,0,0,1,2.34-5c-.15-.42-.29-.85-.42-1.28a11.94,11.94,0,0,0-.64-1.65L72,16.82c.1.51.22,1,.35,1.5.08.31.18.64.29,1a8.23,8.23,0,0,1,3.59-.95c.06-.27.11-.52.16-.76a9.25,9.25,0,0,0,.11-1.51l2.19.21c-.13.43-.27,1.2-.37,1.6Zm-5,6.8a17.63,17.63,0,0,1-1.48-3,4.87,4.87,0,0,0-1.15,3c0,.76.32,1.26.9,1.26S72.52,26,73.1,25.3ZM73.18,21a15.57,15.57,0,0,0,1.12,2.51,19,19,0,0,0,1.41-3.39A6.1,6.1,0,0,0,73.18,21Z"/><path class="cls-2" d="M90.71,15.84a26.21,26.21,0,0,1-1.28,3.09V30.15H87.62V22c-.32.43-.65.86-1,1.25a11.68,11.68,0,0,0-1.06-2,16.74,16.74,0,0,0,3.31-6Zm6.49,4.05a17.31,17.31,0,0,0,3.9,6.42,7.94,7.94,0,0,0-1.42,1.47,13,13,0,0,1-1.28-1.7v1.41H96.25v2.58H94.39V27.49H92.3V26a11.53,11.53,0,0,1-1.43,1.81,7.76,7.76,0,0,0-1.36-1.44,16.33,16.33,0,0,0,4-6.5H90.35V18.08h4V15.31h1.86v2.77h4.42v1.81ZM94.39,25.8V21.73a20.72,20.72,0,0,1-2,4.07Zm3.83,0a24.44,24.44,0,0,1-2-4.18V25.8Z"/><path class="cls-2" d="M102.81,28.76a7.57,7.57,0,0,0,.8-3.52l1,.21a7.71,7.71,0,0,1-.89,3.84Zm12.31-3a6,6,0,0,0,3,2.94,7.12,7.12,0,0,0-1.2,1.51,6.86,6.86,0,0,1-3-3.38,7,7,0,0,1-3.56,3.42,6.13,6.13,0,0,0-.93-1.12,1.19,1.19,0,0,1-.2.45,1.28,1.28,0,0,1-1,.56,6,6,0,0,1-1.41,0,3.61,3.61,0,0,0-.39-1.47,8.45,8.45,0,0,0,1,.06.48.48,0,0,0,.43-.21,3.78,3.78,0,0,0,.27-1.39l-.51.19a9.78,9.78,0,0,0-.72-2.06l.75-.26a9.93,9.93,0,0,1,.55,1.3c0-.48.06-1.07.09-1.76h-4.57V15.83h5.89v1.53h-1.72v.88h1.4v.85a10.21,10.21,0,0,0,3.49-3.84h1.63a10.32,10.32,0,0,0,3.76,3.6,11.16,11.16,0,0,0-1,1.63,7.57,7.57,0,0,1-1-.73v.88h-1.6v.86h2.87v4.23Zm-9.5-.23a15,15,0,0,1,.16,2.93l-.86.11a19,19,0,0,0-.11-3Zm-.32-8.13v.88h1.09v-.88Zm0,2.32v1h1.09v-1Zm0,3.4h1.09v-1H105.3Zm1.4,2.25a13,13,0,0,1,.52,2.58l-.83.18a12.38,12.38,0,0,0-.49-2.6Zm3.23-2.25s0,.41,0,.62a38.59,38.59,0,0,1-.38,5,5.65,5.65,0,0,0,2.94-3H110.2V21.49h2.72v-.86h-1.63v-.87a8.67,8.67,0,0,1-1.23.91,9.72,9.72,0,0,0-.75-1.37v.38h-1.4v1h1.4v1.44h-1.4v1Zm2.9,1.26a8.6,8.6,0,0,0,.09-1.42v-.05h-1.17v1.47Zm2.72-5.17a11.19,11.19,0,0,1-1.87-2.27,12.32,12.32,0,0,1-1.77,2.27Zm-1,3.7v.06a13.41,13.41,0,0,1-.06,1.41h1.31V22.87Z"/><path class="cls-2" d="M133.1,17a13.17,13.17,0,0,0-.66,1.43,22.75,22.75,0,0,1-2.16,4.35,40.14,40.14,0,0,1,3.81,3.52l-1.65,1.84a31.7,31.7,0,0,0-3.53-3.52,20.06,20.06,0,0,1-6,4.95L121.11,28a17.48,17.48,0,0,0,6.08-4.72,40,40,0,0,0-4.29-3l1.38-1.65c1.28.8,2.93,1.92,4.23,2.88a17.57,17.57,0,0,0,1.76-3.79,12.69,12.69,0,0,0,.38-1.47Z"/><path class="cls-2" d="M138.07,25.75c.63.05,1.38.11,2,.11h9.19a17.32,17.32,0,0,0,1.76-.11V28.2a15.84,15.84,0,0,0-1.76-.1h-9.19c-.62,0-1.41,0-2,.1Zm1.35-7.83a17,17,0,0,0,1.87.1h6.63a17.18,17.18,0,0,0,1.77-.1v2.32c-.46,0-1.21-.06-1.77-.06H141.3c-.6,0-1.34,0-1.88.06Z"/><path class="cls-2" d="M166,27.05c.42,0,1.16,0,1.57-.07v2.07c-.32,0-1.1-.05-1.52-.05h-8.43c-.58,0-1,0-1.59.05V27c.43,0,1,.08,1.59.08h5.18c.23-1.37.58-3.64.63-4.53h-4.32c-.52,0-1.14,0-1.61.08V20.48c.42.05,1.16.1,1.59.1h4.1a3.89,3.89,0,0,0,1.2-.18l1.53.76a5.33,5.33,0,0,0-.16.67c-.12.94-.54,3.7-.78,5.22Z"/><path class="cls-2" d="M172.41,21.38c.57.05,1.74.1,2.57.1h8.6c.74,0,1.46-.07,1.87-.1v2.51c-.38,0-1.2-.08-1.87-.08H175c-.91,0-2,0-2.57.08Z"/></g></svg>