<svg xmlns="http://www.w3.org/2000/svg" viewBox="0 0 60 60"><defs><style>.cls-1{fill:#fad7c0;}.cls-2{fill:#4d4d4d;}</style></defs><g id="レイヤー_1" data-name="レイヤー 1"><rect class="cls-1" width="60" height="60" rx="13.25"/><path class="cls-2" d="M24.07,39.94a1.24,1.24,0,0,1-1.38,1.16,1.21,1.21,0,0,1-1.35-1.16v0l.11-9.32c-2.31,4.16-3.1,4.19-3.55,4.19a1.39,1.39,0,0,1-1.41-1.26,1.29,1.29,0,0,1,.43-.91,24.18,24.18,0,0,0,4.53-6.75v-.31l-2.79.05h0a1.13,1.13,0,0,1-1.26-1.15,1.25,1.25,0,0,1,1.29-1.27h2.76l-.06-2.45c-1,.2-2.25.4-2.47.4a1.24,1.24,0,0,1-1.24-1.3,1.08,1.08,0,0,1,1-1.15,21.21,21.21,0,0,0,6.53-1.61,1.42,1.42,0,0,1,.45-.08,1.29,1.29,0,0,1,1.21,1.3c0,.76-.39,1.09-2.81,1.82,0,.6,0,1.72-.06,3.07h2.08a1.2,1.2,0,0,1,1.24,1.24,1.14,1.14,0,0,1-1.21,1.18h0l-2.13,0v2.53a1.51,1.51,0,0,1,.36-.06c.71,0,2.76,1.92,3.27,2.59a1.37,1.37,0,0,1,.31.85,1.36,1.36,0,0,1-1.3,1.32,1.21,1.21,0,0,1-1-.56,16,16,0,0,0-1.66-1.92c0,4.2.14,9.58.14,9.58Zm2.22.71a1.29,1.29,0,0,1-1.35-1.24,1.28,1.28,0,0,1,.73-1.1c5.83-3.29,6.7-9,6.7-15.45,0-1.52,0-3.07-.08-4.65v-.06a1.32,1.32,0,0,1,2.64,0c0,.67,0,1.32,0,2,0,.93,0,1.85-.06,2.78a1.46,1.46,0,0,1,0,.37,22.23,22.23,0,0,0,.26,3.41,31.87,31.87,0,0,0,3.88-4.14,1.16,1.16,0,0,1,.9-.45,1.51,1.51,0,0,1,1.47,1.43,1.53,1.53,0,0,1-.45,1,39.15,39.15,0,0,1-5.24,4.73,14.44,14.44,0,0,0,5.74,8.2,1.46,1.46,0,0,1-.73,2.73c-1.32,0-5.18-3.44-6.76-9.66C32.17,38.17,27.25,40.65,26.29,40.65Zm.9-11.8a1.87,1.87,0,0,1,.17-.7A8.61,8.61,0,0,0,28,24.71a12.05,12.05,0,0,0-.11-1.38.69.69,0,0,1,0-.25A1.11,1.11,0,0,1,29.08,22c1.4,0,1.4,1.32,1.4,2.82,0,2.08-.3,5.12-2.13,5.12A1.08,1.08,0,0,1,27.19,28.85Z"/></g></svg>