<svg xmlns="http://www.w3.org/2000/svg" viewBox="0 0 120 120"><defs><style>.cls-1{fill:#f5c4d9;}.cls-2{fill:#b6d2ee;}.cls-3,.cls-4{fill:none;stroke-miterlimit:10;stroke-width:0.79px;}.cls-3{stroke:#2e3659;}.cls-4{stroke:#3e3a39;}.cls-5{fill:#2e3659;}.cls-6{fill:#fff;}.cls-7{fill:#f2acc9;}.cls-8{fill:#eb72a5;}.cls-9{fill:#ef8b74;}.cls-10{fill:#3e3a39;}.cls-11{fill:#fff000;}.cls-12{fill:#f2a5b5;}.cls-13{fill:#f8c8d1;}.cls-14{fill:#e9e695;}.cls-15{fill:#4d4d4d;}</style></defs><g id="レイヤー_1" data-name="レイヤー 1"><path class="cls-1" d="M106.67,115a45.22,45.22,0,0,1-14,2.94c-13.7,1-27.44,1.57-41.18,1.57-10.77,0-23.12,2.36-33.16-2.79C3.6,109.09,2.1,87.61.36,73.12c-1-8.52.37-15.5,1.08-23.79S.81,33.19,3.09,24.83c1.17-4.29,2.41-8.74,5.25-12.15,3.49-4.19,8.86-6.21,14-7.88,20.44-6.58,47-6,67.61-.56,9.88,2.63,14.74,8.74,19.77,17.59,6.7,11.81,2.41,22,3.65,34.44,1.42,14.35,9.55,30.86,5.46,45.33C116.9,108.56,112.29,112.61,106.67,115Z"/><path class="cls-2" d="M22.75,51.09s2.86,1.61,8.12.06,12.39-7.53,12.39-7.53,3,5.92,6.75,5.3,5.7-4.86,5.7-4.86,5.76,5.79,10.1,4.86,8.66-6.21,8.66-6.21-.1,9.06,4.76,4.83,3.89-7.45,3.89-7.45,5.92,7,9.33,8.52,9.91,6.51,9.91,6.51-7.45.8-11.77,2.47c-4.68,1.81-6.44,4.5-11.15,5-7.07.69-15.21-2.48-22.31-2.79C48,59.36,40.45,61.65,37,61.31,27.4,60.38,22.75,51.09,22.75,51.09Z"/><path class="cls-3" d="M83.12,40.09s5.92,7,9.33,8.52,9.91,6.51,9.91,6.51"/><path class="cls-4" d="M22.75,51.09s2.86,1.61,8.12.06,12.39-7.53,12.39-7.53"/><path class="cls-5" d="M71,51.06a.87.87,0,0,1-.15.21.33.33,0,0,1-.2.09.22.22,0,0,0-.2.14c-.06.1-.17.14-.23.08-.1.21-.1.21-.2.08,0,0,0,.07,0,.1a.14.14,0,0,1-.09.13,2,2,0,0,0-.34.26l-.15.12,0-.06c-.14.09-.27.21-.43.16,0,.12-.09.14-.14.11s-.19,0-.28.05h-.25l-.23,0-.09,0c-.06,0-.12,0-.18,0s0,0-.08,0h-.36c-.06.11-.12.06-.2,0a.62.62,0,0,0-.23,0s-.07,0-.1,0-.11-.08-.17,0,0,0-.07,0h-.14a.74.74,0,0,1-.23,0,.23.23,0,0,1-.19,0,1.64,1.64,0,0,0-.38,0h-.25l-.25,0-.32,0h-.08a.23.23,0,0,1-.21,0s-.11,0-.16,0a2.67,2.67,0,0,0-.26-.09,2.63,2.63,0,0,0-.39-.06s-.07,0-.11,0-.08,0-.09,0v0l-.2,0s-.05,0-.07,0-.2,0-.28-.11-.06,0-.09,0l-.26-.07a2.09,2.09,0,0,0-.23-.08c-.05,0-.06-.11-.13-.12a1.63,1.63,0,0,1-.4-.15,1.42,1.42,0,0,1-.23-.14,2.75,2.75,0,0,1-.3-.14c-.12-.06-.24-.15-.35-.22s-.28-.14-.41-.23-.13-.1-.2-.15l-.15-.1-.31-.17a.18.18,0,0,0-.09,0c-.11,0-.19-.1-.28-.19a3.7,3.7,0,0,0-.36-.33c-.11-.1-.25-.16-.33-.34s-.08-.05-.12-.08a1.52,1.52,0,0,1-.22-.22,1.73,1.73,0,0,1-.15-.27l0-.06c-.17-.07-.26-.28-.37-.45a3.69,3.69,0,0,0-.25-.34s-.08,0-.1.12-.06.19-.17.12-.09.07-.14.12a1.19,1.19,0,0,1-.09.15s0,0-.06,0l-.14.28c-.1-.07-.11.08-.14.14a1.07,1.07,0,0,0,0,.25s-.08.06-.1.1a3.9,3.9,0,0,0-.19.35s0,.16-.1.11v0l-.13.27c-.06.11-.1.28-.17.31S56,51,55.9,51a.17.17,0,0,1,0,0l-.23.38a.15.15,0,0,1,0,.06c-.11,0-.19.15-.3.13s0,0-.07.05l-.14.06-.15.1-.07.06-.2.08-.24.13-.11,0s0,0,0,0-.1.08-.15.1-.27.1-.4.17a2,2,0,0,1-.27.17,1.22,1.22,0,0,1-.33,0c-.11,0-.22.08-.35,0s-.16.08-.25,0h0c-.09.1-.14,0-.2-.11l-.1.13c-.05-.06-.09-.16-.16,0s-.06,0-.1,0h-.29l-.15,0-.18-.11c-.08.1-.19.05-.3,0a1.13,1.13,0,0,0-.26,0s0,0,0,0-.24-.06-.37-.08a2.17,2.17,0,0,1-.24-.07.8.8,0,0,1-.3-.06,1.17,1.17,0,0,0-.27,0s-.08-.06-.12-.07l-.3,0c-.11,0-.22-.11-.32-.09s-.21-.11-.32,0,0,0-.06,0a3,3,0,0,1-.32-.09,3.49,3.49,0,0,1-.34-.15.38.38,0,0,0-.1,0l-.35-.12s0,0,0-.07-.17,0-.26,0l-.28-.13a1,1,0,0,0-.15-.07l-.37-.13L46,51.18c-.11,0-.21-.13-.34-.11S45.5,51,45.44,51l-.24-.11a1.88,1.88,0,0,1-.18-.12l0,0-.27-.1a1.28,1.28,0,0,1-.24-.11,1.67,1.67,0,0,1-.35-.26.58.58,0,0,0-.27-.2h0l-.25-.35s-.05,0-.08,0l-.42-.47A2.26,2.26,0,0,1,43,49l0-.06-.11-.08-.36-.49L42.18,48s0-.1,0-.14L42,47.68c-.09-.12-.09-.12-.19,0s-.11.05-.17.09-.06,0-.06.07,0,.22-.07.32a.52.52,0,0,1-.06.13.53.53,0,0,1,0,.14,1,1,0,0,0-.16.46s0,0,0,0-.07.14-.09.23-.09.21-.11.32-.18.22-.21.4-.1.14-.12.22-.13.26-.14.44-.06.12-.09.18a2.83,2.83,0,0,0-.3.44,1.28,1.28,0,0,1-.14.23l-.07,0a.64.64,0,0,0-.1.13,2,2,0,0,1-.16.24l-.15.16s0,0,0,.05a3.92,3.92,0,0,1-.37.34.39.39,0,0,1-.16.07l-.31.14-.3.13-.28.07c-.09,0-.18.07-.27.09l-.28.07-.14.05-.45.1-.07,0a.77.77,0,0,1-.46.11,1.22,1.22,0,0,0-.32,0,.91.91,0,0,1-.49,0h-.43l-.3,0-.6,0a.39.39,0,0,1-.21-.06s-.07,0-.1,0a.66.66,0,0,1-.13-.08c-.06,0-.11-.08-.18,0s-.08,0-.12,0-.08-.05-.12-.06-.14,0-.19-.1-.09,0-.14,0-.24,0-.33-.12a.19.19,0,0,0-.17,0c-.07,0-.13,0-.17-.11s0,0-.06,0a.35.35,0,0,1-.31-.21s-.05,0-.08,0-.22-.23-.37-.24a.09.09,0,0,1-.07,0,2.28,2.28,0,0,0-.39-.32.07.07,0,0,1,0-.06c0-.07,0-.06-.06-.08a.18.18,0,0,1-.08-.09c0-.11-.1-.14-.14-.22l0,0c-.07-.09-.14-.19-.22-.28l.07-.15c-.24,0-.29-.21-.39-.4a3.54,3.54,0,0,0-.19-.33,2,2,0,0,1-.22-.69c0-.1.05-.2.12-.19a3,3,0,0,1,.57.15,1.48,1.48,0,0,0,.83.09,4.28,4.28,0,0,1,.62,0l.25,0h.08s.07,0,.09,0a.3.3,0,0,1,.21-.1,1.71,1.71,0,0,0,.3-.09,1.22,1.22,0,0,0,.24-.1.31.31,0,0,1,.25,0s.07,0,.11,0l.2-.09a.23.23,0,0,1,.28.08l.36-.37a.93.93,0,0,0,.21-.23c.09-.18.23-.18.35-.28a1.14,1.14,0,0,1,.35-.17l0,0c.07-.21.23-.2.35-.33a2,2,0,0,1,.38-.34l.34-.26h0c.07-.13.19-.14.28-.2s.06-.08.09-.14.08,0,.12-.11a.92.92,0,0,1,.13-.21.67.67,0,0,1,.09-.14l.22-.22.24-.22.22-.14a.52.52,0,0,0,.1-.11,1.26,1.26,0,0,1,.43-.43c.08,0,.13-.13.2-.2l.22-.27s.1-.09.15-.15A.43.43,0,0,0,39,44.2a.44.44,0,0,1,.26-.27h0c0-.2.16-.18.2-.34a.25.25,0,0,1,.27-.22s.07,0,.08,0a.64.64,0,0,0,.06-.1l.17-.28.08-.1.15-.15c0-.06.07-.12.14-.14s.09-.09.14-.14l.13-.14.09-.16a1.27,1.27,0,0,0,.07-.12s0-.1,0-.14a.63.63,0,0,1,.11-.12s.06,0,.07-.06.11-.21.21-.21c.15-.21.24.06.36.11a1.07,1.07,0,0,1,.22.15l.06.06a.18.18,0,0,0,0,.07c.09,0,.14.13.2.21s.08.07.11.06.14,0,.2.11.11,0,.16.08a.71.71,0,0,1,.18.12c.14.11.26.24.4.34s.25.14.36.23a1.13,1.13,0,0,1,.29.25.8.8,0,0,0,.13.13l0,0c0,.12.09.18.19.14l0,0c.05.12.13.13.21.16s.06.09.1.15.16,0,.25,0l.4.25s0,0,.06,0,.14.05.16.19a1.15,1.15,0,0,1,.33,0,1.32,1.32,0,0,1,.32.2s0,0,.05,0a1,1,0,0,1,.38.16c.08,0,.17.11.26.06s0,0,0,0L47,45c.13,0,.27,0,.38.17s0,0,.06,0l.17,0,0,0c.08,0,.16,0,.24,0a2.44,2.44,0,0,0,.47.09c.09,0,.2,0,.28.07s.21,0,.28.12h0c.12-.1.22,0,.33,0h0a.23.23,0,0,1,.27,0s0,0,.06,0l.44,0,.32,0h0c.15.11.31,0,.46,0s.06,0,.08,0l.13,0h.05l.36-.07.28-.07h.14l.09,0h0c.14,0,.27-.19.42,0,0,0,.07,0,.07,0a.15.15,0,0,1,.12-.13l.17,0c.15-.1.31-.29.51-.3h0c0-.14.14-.08.2-.13a1.82,1.82,0,0,1,.23-.15s0,0,.06,0,.09,0,.13-.07L54,44.4a.67.67,0,0,1,.26-.14c.14,0,.22-.21.33-.27l.26-.13,0,0a.27.27,0,0,1,.27-.17l0,0c0-.11.08-.07.12,0l0-.07c0-.11.08-.2.18-.2s0,0,0-.05.05-.07.07-.08.21-.15.29-.26l.19-.21s0,0,.08,0l.07-.18.15-.1h0c0-.14.09-.16.14-.24s.07-.07.1-.11a.17.17,0,0,0,.06-.11.25.25,0,0,1,.11-.2c.06-.08.14-.12.18-.25a.6.6,0,0,1,.18-.25s.13,0,.18.06a2.65,2.65,0,0,1,.26.21s0,.06,0,.09l.06-.06c0,.11.07.21.11.3s.08.14.12.22.07,0,.1.1a.78.78,0,0,0,.21.38s0,.08.06.1a.44.44,0,0,1,.17.24s0,0,.05,0a.37.37,0,0,1,.15.25.11.11,0,0,0,0,.08.59.59,0,0,1,.27.14c.09.08.17.2.27.24s.19.22.29.3l.19.14c.08,0,.15.12.23.18l.08,0,.09.12a.28.28,0,0,1,.26.16.61.61,0,0,1,.42,0c.12.05.24.12.36.16s.09,0,.14,0,.3.12.45.16.16.07.17.27c0-.08.05-.12.06-.16s.06-.09.11,0,0,0,0,0,.24,0,.35.06l.36.15H63c.13.15.28.06.42.1a1,1,0,0,0,.34,0,.62.62,0,0,0,.4,0,.13.13,0,0,1,.12,0c.09.06.19,0,.27,0a.14.14,0,0,0,.17,0s.07,0,.1,0a.09.09,0,0,0,.15,0h.59s0,0,0,0h.07s.06,0,.07,0,.11,0,.18,0a.26.26,0,0,0,.17,0c.12-.1.25-.06.37-.14a1.19,1.19,0,0,1,.2-.08,1,1,0,0,1,.21-.09c.12,0,.21-.14.32-.2a1.28,1.28,0,0,1,.27-.11l.07,0a1.84,1.84,0,0,0,.25-.09l.15-.08c.08-.05.16-.13.24-.14s.23-.21.38-.14,0,0,.06-.08.13-.11.19-.18,0,0,.06.06l.06-.12a.23.23,0,0,1,.18-.14.39.39,0,0,0,.18-.16c.06-.09.1-.2.2-.14s0,0,.06-.06.07-.19.11-.28,0,.08,0,.07,0,0,.08-.06l.06-.11s.08-.09.09-.14a.57.57,0,0,1,.17-.31.33.33,0,0,1,.1-.06l0-.18.07.06.08-.11.15-.25s0-.07,0-.07.1-.13.19-.11,0-.08.07-.13l.16-.32v.2h0a.29.29,0,0,0,0-.09c0-.07,0-.16.08-.14s0,0,0-.08a1.44,1.44,0,0,1,.39-.53l0,0c0-.15.1-.15.18-.17s.13-.09.17-.23S72,40,72.13,40l0,0,.09-.45a.59.59,0,0,1,.23-.26c.16,0,.25.11.36.25s0,.13.11.11.06.08.07.12c0,.21.14.28.22.4a2.23,2.23,0,0,1,.34.52c0,.1.09.26.2.28h0l.25.32c.1.12.21.22.32.33a1,1,0,0,0,.08.11l.31.25s0,0,0,0c0,.19.2.19.27.33.1-.07.13,0,.19.14a.3.3,0,0,1,.29,0,.56.56,0,0,0,.29.14.29.29,0,0,1,.27.15.07.07,0,0,0,.06.05c.13,0,.25.06.38,0h0a2.06,2.06,0,0,0,.26.12.55.55,0,0,0,.17,0,.64.64,0,0,0,.18.06.3.3,0,0,0,.16,0,1.31,1.31,0,0,1,.59,0s.08,0,.13,0l0,0,.14,0,.15-.13.06,0a.44.44,0,0,0,.37,0s0,0,0,0l.29-.07a3.17,3.17,0,0,0,.44-.12c.09,0,.21,0,.28-.12h0a.94.94,0,0,0,.44-.23l.23-.18.23-.19.27-.26.38-.36s0-.08.07-.12a1.07,1.07,0,0,1,.14-.16,1.31,1.31,0,0,1,.11-.12.1.1,0,0,1,.07,0c.1,0,.18-.12.16-.28h.15l0-.06c0-.09,0-.22.15-.22,0-.16.17-.08.21-.22h0c0-.23.21-.26.25-.47l0,0h0l.33-.37a.54.54,0,0,0,.09-.17.56.56,0,0,1,.19-.21,2.65,2.65,0,0,0,.21-.26.3.3,0,0,0,.09-.22.36.36,0,0,1,.1-.15.53.53,0,0,0,.14-.23s.06,0,.07-.05.09-.21.12-.32a1.6,1.6,0,0,0,0-.23l0,0A.9.9,0,0,1,84.4,37c.06-.07.12,0,.19,0s.19.26.27.42a1.22,1.22,0,0,0,.14.33.81.81,0,0,1,.07.26.34.34,0,0,0,.11.24.34.34,0,0,1,.09.17c0,.09.07.19.1.28s0,.13.07.19a2.12,2.12,0,0,1,.18.37s0,0,0,0,.19.36.27.56c0,0,0,.1.06.12a.41.41,0,0,1,.11.25,1.09,1.09,0,0,0,.1.25,1.27,1.27,0,0,0,.15.26s0,.09,0,.12l.15.24a4.23,4.23,0,0,1,.23.48.48.48,0,0,0,.14.24s.07.14.12.21.07.19.15.21h0c0,.2.15.21.22.32s.14.27.22.39a3.71,3.71,0,0,0,.27.29l.08.13a.86.86,0,0,1,.1.16.48.48,0,0,1,0,.11c.09.1.16.23.25.27s.08.2.18.15,0,0,0,0a3.49,3.49,0,0,0,.37.47,2,2,0,0,0,.17.23s.11.07.14.13a.29.29,0,0,0,.22.16.09.09,0,0,1,.08.06,1,1,0,0,1,.19.28.05.05,0,0,0,0,0c.1,0,.18.11.28.09a0,0,0,0,1,0,0,.21.21,0,0,0,.27.15c.1,0,.12.08.15.14s.08.06.13.07l.12,0,.18.12.19.18a1.1,1.1,0,0,1,.14.09.49.49,0,0,1,.08.13.66.66,0,0,1,.16.17.66.66,0,0,1,0,.37.94.94,0,0,1-.28.36s-.06.12-.09.18,0,0,0,0a1.14,1.14,0,0,0-.11.11s0,.07-.07.07a.77.77,0,0,0-.4.26c0,.06-.13.12-.19.11s-.19.1-.28.17-.07.15-.15.07,0,.05-.07.06a2.43,2.43,0,0,1-.38,0h-.48q-.33,0-.66-.06a.49.49,0,0,1-.31-.11c-.11-.12-.24,0-.35-.14s0,0-.06,0-.16,0-.22-.14-.14,0-.19-.08-.09,0-.14-.05a.67.67,0,0,1-.3-.18,1.82,1.82,0,0,0-.23-.15l-.5-.42-.17-.13,0,0a.76.76,0,0,0-.24-.31,3.16,3.16,0,0,1-.2-.27l-.22-.33a.14.14,0,0,1,0-.07c0-.08,0-.13-.09-.14l0,0c0-.13-.11-.25-.17-.37l0-.08c0-.07-.07-.13-.1-.21s-.06-.14-.1-.22a3.6,3.6,0,0,0-.31-.54s0,.05,0,.07a2,2,0,0,1-.21.52,3.57,3.57,0,0,1-.29.51,1.5,1.5,0,0,1-.25.4,3.13,3.13,0,0,0-.28.4.64.64,0,0,1-.1.13s0,0,0,0a.33.33,0,0,1-.19.21.74.74,0,0,0-.21.13,3.58,3.58,0,0,1-.29.27c-.08.06-.17.08-.25.13s-.17.13-.26.19a.94.94,0,0,1-.15.06c-.09,0-.18.06-.21.16a1.57,1.57,0,0,0-.23.13c-.1.08-.2.05-.3.08l-.29.07L80.3,48l-.12,0-.1,0s-.08,0-.1,0c-.14.17-.3.09-.45.12l-.32,0H79s0,0-.07,0a2.12,2.12,0,0,0-.36.1,2,2,0,0,1-.47.12.71.71,0,0,1-.32,0c-.24-.07-.48.07-.72,0a1,1,0,0,0-.24,0s-.06,0-.1,0-.19.06-.28.07a1.39,1.39,0,0,1-.41,0c-.15,0-.29-.08-.43-.11a2.11,2.11,0,0,0-.25,0c-.12,0-.24,0-.35,0a1.86,1.86,0,0,1-.34-.06c-.14,0-.28-.08-.42-.12a.64.64,0,0,1-.17,0l-.17-.1-.11,0L73.53,48s0,0,0,0-.08.19-.12.28a1.4,1.4,0,0,1-.26.45l0,0c0,.14-.13.15-.19.24s0,.05,0,0-.09.06-.12.14a.86.86,0,0,1-.1.16c-.09.09-.19.17-.28.27a1.48,1.48,0,0,0-.13.21c-.11.15-.21.3-.32.44l-.22.26s-.11,0-.15.15a.52.52,0,0,1-.27.29,1.54,1.54,0,0,0-.12.13C71.07,51.18,71,51.17,71,51.06Zm12.1-11a.53.53,0,0,1,0,.17,2.2,2.2,0,0,1-.2.23s-.13,0-.16.12,0,.12-.11.1,0,0,0,0a.76.76,0,0,1-.38.48.09.09,0,0,0,0,.06c-.05.14-.16.21-.23.32l-.13.17c-.06.08-.11.2-.17.22s-.13.15-.19.23a.47.47,0,0,1-.11.13c-.13.09-.27.16-.4.24l-.17.11-.15.09-.17.14-.1.06a1.65,1.65,0,0,1-.27.19,1.47,1.47,0,0,1-.4.14c-.14,0-.28,0-.42.06l-.45.13-.42.11c-.11,0-.21,0-.31,0s-.23.11-.36.08a1.71,1.71,0,0,0-.39,0s-.07,0-.1,0-.11,0-.14-.06c-.11.09-.23,0-.34,0l-.18-.06a1.81,1.81,0,0,1-.23,0l-.5-.14s0,0-.06,0-.08,0-.11,0l-.15-.08-.26-.12s-.09-.07-.14-.06-.19-.09-.28-.14a1.45,1.45,0,0,1-.35-.26,1.19,1.19,0,0,1-.2-.19c-.09-.11-.17-.27-.27-.32a1.24,1.24,0,0,1-.18-.14c-.11-.09-.17-.25-.28-.34s-.1-.17-.16-.24a1.66,1.66,0,0,1-.16-.21c-.1-.15-.22-.27-.33-.41a.61.61,0,0,1-.13-.22c0-.11-.07-.17-.15-.16a0,0,0,0,1,0,0c0-.13-.07-.1-.12,0a.76.76,0,0,0-.08.11l-.07-.07-.12.43-.08-.08a.86.86,0,0,0-.13.36v0c-.09.12-.17.25-.26.36a.53.53,0,0,1-.13.13,1.18,1.18,0,0,1-.11.19,2.15,2.15,0,0,1-.23.28c-.07.08-.16.12-.2.22a1.23,1.23,0,0,1-.22.35l-.18.25-.11.15c-.06.07-.14.13-.2.21a2,2,0,0,0-.19.28,1.09,1.09,0,0,1-.13.17s-.07,0-.1.07a2.49,2.49,0,0,1-.17.24c-.11.1-.19.26-.33.23s-.06,0-.08,0a.58.58,0,0,1-.18.11.25.25,0,0,0-.17.15c0,.13-.22.22-.28.19-.1.13-.19.25-.33.26s-.16,0-.2,0a.43.43,0,0,1-.28.16s0,0,0,0l-.21.15a2.6,2.6,0,0,0-.25.1l-.41.25a1.12,1.12,0,0,1-.32.14c-.13,0-.27,0-.4.07h0l-.25.07-.13,0a1.32,1.32,0,0,0-.34,0c-.11,0-.22,0-.33,0s-.18,0-.25,0-.36.06-.54.1a1.13,1.13,0,0,1-.36-.06.06.06,0,0,0-.07,0c-.11.1-.24,0-.35,0s0,0,0,0-.06,0-.09,0a.28.28,0,0,1-.28,0,1.4,1.4,0,0,0-.29-.09v0c-.09,0-.15-.13-.25-.08s-.15-.07-.23-.11l-.06,0a.35.35,0,0,1-.27-.08.62.62,0,0,0-.19-.07.71.71,0,0,1-.25-.06c-.08-.07-.17,0-.24-.09l-.1,0-.18-.06L61,45.5l-.15,0v-.08h-.25a.05.05,0,0,1,0,0c-.05-.09-.12,0-.17-.07s-.14-.1-.21,0h0c0-.09-.06-.06-.09-.1s-.13,0-.2,0-.25-.23-.41-.27-.14-.13-.21-.19l-.38-.33s0,0-.05,0-.16-.25-.3-.23-.13-.16-.2-.24a1.12,1.12,0,0,1-.1-.16l-.06-.07s0,0-.05,0L58,43.26l-.06-.11a.18.18,0,0,0-.07,0s-.05,0-.07,0l-.21-.28s0-.06,0-.06-.1-.2-.2-.23,0-.06-.07-.06a.5.5,0,0,0-.36.39.4.4,0,0,1-.1.15c-.07.07-.18.13-.21.24a3.61,3.61,0,0,1-.23.44s-.05,0-.07.06l0-.09c0,.06-.05.15-.09.16a.57.57,0,0,0-.2.13c-.07.06-.16.08-.24.15a1.43,1.43,0,0,1-.3.2l-.32.2a.3.3,0,0,0-.08.08,1.1,1.1,0,0,0-.09.14l-.13.16v0s-.08,0-.09,0c-.1.21-.27.22-.4.34a1.66,1.66,0,0,1-.3.22.7.7,0,0,1-.28.12,1.05,1.05,0,0,0-.46.2c-.1.07-.22,0-.31.17a.58.58,0,0,1-.21.1c-.07,0-.14.09-.23,0a.12.12,0,0,0-.08,0l-.13.08h0l-.11,0-.11,0-.28,0-.14,0a.86.86,0,0,0-.17,0h-.11a.69.69,0,0,1-.4,0,1.85,1.85,0,0,1-.23,0c-.07,0-.15.06-.24.05a2.09,2.09,0,0,0-.25,0h-.11l-.15,0-.2,0c-.11,0-.22-.09-.33,0h0l-.33-.06-.36-.07a2.74,2.74,0,0,1-.28,0c-.09,0-.18,0-.26,0s-.11,0-.16,0a1.59,1.59,0,0,1-.38-.06c-.1,0-.19-.07-.29-.1s-.09,0-.13,0a1.69,1.69,0,0,1-.37-.15c-.07,0-.17,0-.21-.12s-.11-.14-.19-.09c0-.13-.09-.06-.14-.07a2,2,0,0,1-.34-.13s-.06,0-.08,0l-.51-.28c-.06,0-.12,0-.18-.09l-.35-.21a1,1,0,0,0-.2-.15.59.59,0,0,1-.35-.3.09.09,0,0,0,0,0c-.16,0-.27-.1-.39-.19s-.41-.35-.63-.48-.23-.19-.35-.28a.91.91,0,0,1-.13-.08,5,5,0,0,0-.43-.37c-.12-.09-.24-.16-.36-.26a1.61,1.61,0,0,0-.38-.28.23.23,0,0,0-.24,0,1,1,0,0,0-.36.41s0,0,0,.06l-.32.36-.25.28-.17.17-.14.16-.22.26-.26.36s-.09.06-.1.11-.18.26-.27.41a.91.91,0,0,1-.21.23l-.28.27s0,0,0,.06l-.35.32a.81.81,0,0,0-.14.12.86.86,0,0,0-.13.14,1.11,1.11,0,0,1-.12.16c-.07.07-.14.1-.2.17a3.47,3.47,0,0,0-.25.29,1.21,1.21,0,0,0-.19.2.92.92,0,0,1-.32.33.63.63,0,0,0-.18.12s0,0,0,0a.66.66,0,0,1-.16.17,1.18,1.18,0,0,0-.32.23c-.11.1-.2.22-.31.33l-.28.22a1.55,1.55,0,0,1-.25.21c-.16.08-.29.26-.47.3s-.28.21-.43.28-.23.2-.36.23a2.83,2.83,0,0,0-.36.16l-.27.1-.12,0a.94.94,0,0,1-.39.19c-.1,0-.2,0-.3.05s-.4,0-.59.06-.43.07-.64.09a3.09,3.09,0,0,1-.43,0,1,1,0,0,1-.24-.05.16.16,0,0,0-.15.14c0,.07,0,.16.06.21a.31.31,0,0,1,.16.26c.09.12.17.24.26.35a3.31,3.31,0,0,0,.27.26l.27.24.06,0a1.17,1.17,0,0,0,.05.11s.05.09.08.1a3.58,3.58,0,0,1,.35.11,1.5,1.5,0,0,1,.24.2c.07.05.12.17.2.08s0,.06.07.06.16,0,.22.1,0,0,0,0,.15,0,.22,0,.16.11.25.12a2,2,0,0,1,.23.07l.2,0h.16l.08,0a1.57,1.57,0,0,0,.23.09,1,1,0,0,0,.17,0s.11,0,.15,0a1.32,1.32,0,0,1,.56,0,1.37,1.37,0,0,0,.53,0c.06,0,.14-.05.18.11,0-.16,0-.13.11-.1h.06a2.79,2.79,0,0,1,.57-.14c.11,0,.21-.08.32-.11a1.13,1.13,0,0,1,.18,0l.2,0a.5.5,0,0,0,.12,0l.29-.13.41-.16.06,0,.11-.08a2.09,2.09,0,0,0,.23-.08,1.35,1.35,0,0,0,.22-.14c.11-.07.2-.23.34-.19a.07.07,0,0,0,0,0s.06-.11.09-.14.24-.06.32-.22a1.77,1.77,0,0,1,.16-.22l.15-.26.23-.37a2.26,2.26,0,0,0,.16-.26s0-.08.05-.12a.44.44,0,0,0,.08-.11,1.17,1.17,0,0,0,.05-.2,1.93,1.93,0,0,1,.25-.72s0-.1.11-.1.08,0,.07-.14l0,0,0,0,.15-.31s0-.11,0-.13,0-.19.11-.24a.49.49,0,0,0,.08-.18c0-.2.09-.39.13-.59a.86.86,0,0,0,0-.16c0-.12,0-.25,0-.36s0,0,0,0,0-.2.15-.18h.07c.07,0,.11,0,.15.09a.35.35,0,0,0,0,.08l.18.27.06.08.17.24s0,.07,0,.11.09,0,.1.16.33.19.34.48c.07.07.15.1.19.19s.12.18.21.2l0,.18s.09,0,.12,0,.13.19.19.28.05.06.06.05,0,0,.07.09a.83.83,0,0,0,.08.12,1.31,1.31,0,0,1,.11.12s.07.11.11.13.21.1.31.18a1.81,1.81,0,0,1,.24.24s0,0,0,0,.09,0,.13,0,.25.14.38.22a.22.22,0,0,1,.06.07l.17.09s0,0,0,0,.11,0,.17,0a.34.34,0,0,1,.17,0,3.53,3.53,0,0,1,.32.21c.08.05.17,0,.24.09h0c.08,0,.14,0,.15.09s.2,0,.27.15a.08.08,0,0,0,.06,0c.09,0,.17-.06.25.06h0a.2.2,0,0,1,.22,0,1,1,0,0,0,.25.14.93.93,0,0,0,.24,0l.1.23c.05,0,.08-.16.17-.1l0,.12s0-.06.07-.06l.49.06s0,0,0,.07h.11c.06,0,.13,0,.17.08.11-.08.21,0,.31.06s.14,0,.2,0a.14.14,0,0,1,.16.07c0,.05.08.1.14,0a.08.08,0,0,1,.08,0,.5.5,0,0,1,.13,0,.42.42,0,0,1,.16,0,.24.24,0,0,0,.23,0,.11.11,0,0,1,.1,0c.1.06.2.13.31,0a.06.06,0,0,1,.08,0c.08.07.16,0,.24,0h.12l.22.1.25.06v-.08l.26,0,.24,0,.48-.08c.12,0,.24,0,.36,0l.25,0,.31-.06.25-.06c0-.08.1-.08.17-.07a.14.14,0,0,0,.11,0l.28-.23c0,.11.06.12.12.06l.09-.14.1-.08,0,.25,0,0,.08-.12c0-.06,0-.12.09-.1s.06,0,.06,0,0-.08.06-.09l0,0c0-.16.15-.2.24-.26s.06,0,.11,0a1.39,1.39,0,0,0,.15-.22,1,1,0,0,0,.07-.25h0v.19h0l.07-.32c.07.09.15.07.19,0s0-.25.11-.32a.75.75,0,0,0,.1-.2l.07,0,.07-.16c0-.07,0-.16.11-.14s.05,0,.07,0,.14-.3.22-.43a2,2,0,0,0,.27-.45c0-.08.07,0,.1,0a.41.41,0,0,0,0-.09c0-.08.05-.19.1-.23a.67.67,0,0,0,.14-.37c0-.17.06-.34.09-.52,0,0,0-.07,0-.07s.2-.2.34-.07a.94.94,0,0,1,.31.52s.05,0,.07,0a3.78,3.78,0,0,1,.22.33c.06.09.11.2.16.29a1.4,1.4,0,0,0,.1.16s0,0,0,0l.09.18c.05.08.09.17.14.24a4.89,4.89,0,0,0,.37.41,2.34,2.34,0,0,0,.31.24l.27.22s0,.09.09.06a.14.14,0,0,1,.06.07c0,.08,0,.06.07.06L60,50a1.64,1.64,0,0,0,.25.21,2.33,2.33,0,0,0,.33.14.59.59,0,0,0,.13,0,.38.38,0,0,1,.1,0,1.66,1.66,0,0,0,.13.14l.1.08a.18.18,0,0,1,.09,0l.08.08a.88.88,0,0,0,.22.1.67.67,0,0,0,.2,0s.06.09.1.1a.62.62,0,0,1,.3.18l.05,0c.09-.06.17,0,.26,0l.23.15.09,0c.08,0,.17,0,.22.16h0a.52.52,0,0,1,.3,0l.21.1s.07-.15.12,0h0c.09,0,.17.09.26,0s0,0,0,0,.2,0,.25.14h0c.09-.06.12,0,.15.15a1.67,1.67,0,0,1,0-.19l0-.07c0,.07.11,0,.16,0a1.55,1.55,0,0,1,.22.12c.06-.07.11-.1.18,0a.41.41,0,0,0,.19,0v0l0,.07s0-.08.06-.08a.93.93,0,0,1,.37,0c.08,0,.16,0,.24,0s.05,0,.07,0,.12,0,.18,0,.24,0,.36,0,.24-.06.36,0,.21,0,.31,0l.13,0c.25,0,.5-.1.73,0,0,0,0-.11.05-.11a.55.55,0,0,1,.18,0,2.9,2.9,0,0,0,.51,0,1.73,1.73,0,0,0,.37-.16c.16-.08.31-.17.46-.26L69.8,51l.3-.25a.32.32,0,0,1,.09,0l.17,0s.08,0,.1,0a.42.42,0,0,0,0-.15.65.65,0,0,0,.12-.11s0-.09.07-.11a2,2,0,0,1,.29-.22.77.77,0,0,1,.19-.08V50a.46.46,0,0,0,.1-.1l.12-.14a1.39,1.39,0,0,1,.15-.19.31.31,0,0,1,.09-.07s0,0,.05,0a2.16,2.16,0,0,0,.21-.29.76.76,0,0,1,.2-.23.2.2,0,0,0,0,0s.09-.05.1-.09a.63.63,0,0,1,.27-.37.24.24,0,0,0,.12-.21c.08,0,.08,0,.11-.18l0,0A.89.89,0,0,0,73,47.4c0-.12,0-.27.07-.35l0,0,.15,0h.07c.11-.11.22,0,.28.1s.26.21.39.31a.79.79,0,0,0,.3.08l.08,0,.27.18h0a.67.67,0,0,1,.37,0c.1,0,.2,0,.3,0a.87.87,0,0,1,.47.1s0,0,0,0,.12,0,.19,0,0,0,.06,0h.36a.1.1,0,0,1,.09,0,.22.22,0,0,0,.22,0,.2.2,0,0,1,.18,0c.06,0,.12,0,.18,0l.19,0,.11,0s.07,0,.09,0,.1,0,.15,0,0-.06,0-.07.09,0,.12,0a1.72,1.72,0,0,0,.21-.07l.13,0h.24a1.09,1.09,0,0,0,.18,0c.09,0,.18-.11.27-.12a1.7,1.7,0,0,1,.39,0s.06,0,.08,0,.11-.07.17,0a.09.09,0,0,0,.1,0c.08-.1.18-.07.27-.08a.27.27,0,0,0,.13,0,1.51,1.51,0,0,0,.17-.1l.38-.13c.13,0,.26,0,.39-.06s.18,0,.26-.12h0l.19,0a.23.23,0,0,1,.06-.09l.27-.1c.06,0,.17,0,.16-.16h0l.29-.21s0,0,.08,0a.59.59,0,0,0,.23-.28c0-.05.09-.06.13-.09h0c.06,0,.11-.15.19-.1s0,0,0,0l0-.1c.1-.06.22-.07.26-.25h0l.16-.09c0-.08,0-.18,0-.19s.07-.15.09-.21l.11-.08.08-.13.06-.09c.08-.11.16-.21.24-.33a.33.33,0,0,0,.07-.13,3.4,3.4,0,0,0,0-.45,1,1,0,0,1,.11-.49c0-.08.13-.18.22-.14a.55.55,0,0,1,.17.17,2.53,2.53,0,0,1,.18.27.25.25,0,0,1,0,.14c0,.16.08.25.11.38s.13.16.09.3l0,0,0-.07c0,.08,0,.16.08.23l.1.18a3.26,3.26,0,0,1,.18.38c0,.06,0,.11.07.16s0,.14.11.13,0,0,0,0,.06.18.1.27a.31.31,0,0,0,.05.1.18.18,0,0,1,0,.07.87.87,0,0,0,.24.29.4.4,0,0,1,.16.23l0,0,0-.06.18.25h0l.35.24.31.18s0,0,.07.07.11.16.17.11l.08.07.35.1,0,0,.24.12.37.08,0,0c0,.09.06,0,.09,0h.13c.06,0,.11.05.16.05s.07-.05.1-.05h.3l.31,0c.07,0,.15,0,.2-.05a.52.52,0,0,1,.28-.15.27.27,0,0,0,.14-.07s.07-.1.1-.1.21-.17.32-.25.08-.21,0-.24l-.2-.14a1.7,1.7,0,0,1-.22-.15c-.06-.05-.11-.13-.18-.13a.42.42,0,0,1-.12-.08c-.1-.09-.22-.12-.31-.23h0c-.09,0-.09-.07-.07-.18s-.11,0-.14,0a1.46,1.46,0,0,1-.21-.16l-.34-.33-.13-.1-.26-.31c-.12-.15-.25-.3-.36-.46a1,1,0,0,0-.18-.23,3.55,3.55,0,0,1-.4-.45,1,1,0,0,1-.1-.23l0,0a.59.59,0,0,1-.22-.32s0,0,0,0a3,3,0,0,1-.26-.34c-.09-.16-.17-.35-.27-.51s-.12-.19-.18-.29a2.46,2.46,0,0,1-.17-.27l-.23-.54c0-.05,0-.11,0-.13a1.55,1.55,0,0,1-.32-.67l-.09-.21a1.21,1.21,0,0,0,0-.14L85.34,40a.86.86,0,0,1-.1-.16c-.11-.22-.2-.45-.32-.65a.49.49,0,0,1-.08-.21.15.15,0,0,0,0-.07l-.21-.41a.61.61,0,0,0-.09-.16s-.13-.07-.14-.05a2.54,2.54,0,0,1-.16.28c0,.08-.09.18-.13.26S84,38.91,84,39s-.12.15-.16.24a.7.7,0,0,1-.06.09c-.06.08-.14.13-.2.21l-.3.46A.71.71,0,0,1,83.12,40.09Z"/><path class="cls-6" d="M83.12,40.09a.71.71,0,0,0,.12-.13l.3-.46c.06-.08.14-.13.2-.21a.7.7,0,0,0,.06-.09c0-.09.14-.09.16-.24s.08-.08.12-.13.08-.18.13-.26a2.54,2.54,0,0,0,.16-.28s.1,0,.14.05a.61.61,0,0,1,.09.16l.21.41a.15.15,0,0,1,0,.07.49.49,0,0,0,.08.21c.12.2.21.43.32.65a.86.86,0,0,0,.1.16l.09.19a1.21,1.21,0,0,1,0,.14l.09.21a1.55,1.55,0,0,0,.32.67s0,.08,0,.13l.23.54a2.46,2.46,0,0,0,.17.27c.06.1.13.19.18.29s.18.35.27.51a3,3,0,0,0,.26.34s0,0,0,0a.59.59,0,0,0,.22.32l0,0a1,1,0,0,0,.1.23,3.55,3.55,0,0,0,.4.45,1,1,0,0,1,.18.23c.11.16.24.31.36.46l.26.31.13.1.34.33a1.46,1.46,0,0,0,.21.16s.08,0,.14,0,0,.19.07.18h0c.09.11.21.14.31.23a.42.42,0,0,0,.12.08c.07,0,.12.08.18.13a1.7,1.7,0,0,0,.22.15l.2.14s0,.19,0,.24-.19.23-.32.25-.06.08-.1.1a.27.27,0,0,1-.14.07.52.52,0,0,0-.28.15c-.05.05-.13,0-.2.05l-.31,0h-.3s-.07.06-.1.05-.1,0-.16-.05h-.13s-.07.05-.09,0l0,0L88,47.59l-.24-.12,0,0-.35-.1-.08-.07c-.06,0-.11-.05-.17-.11s0-.06-.07-.07l-.31-.18-.35-.24h0l-.18-.25,0,.06,0,0a.4.4,0,0,0-.16-.23.87.87,0,0,1-.24-.29.18.18,0,0,0,0-.07.31.31,0,0,1-.05-.1c0-.09-.07-.18-.1-.27s0,0,0,0-.08-.07-.11-.13-.05-.1-.07-.16a3.26,3.26,0,0,0-.18-.38l-.1-.18c0-.07,0-.15-.08-.23l0,.07,0,0c0-.14-.06-.2-.09-.3s-.12-.22-.11-.38a.25.25,0,0,0,0-.14,2.53,2.53,0,0,0-.18-.27.55.55,0,0,0-.17-.17c-.09,0-.17.06-.22.14a1,1,0,0,0-.11.49,3.4,3.4,0,0,1,0,.45.33.33,0,0,1-.07.13c-.08.12-.16.22-.24.33l-.06.09-.08.13-.11.08c0,.06,0,.18-.09.21s0,.11,0,.19l-.16.09h0c0,.18-.16.19-.26.25l0,.1s0,0,0,0-.13.06-.19.1h0s-.1,0-.13.09a.59.59,0,0,1-.23.28s-.06,0-.08,0l-.29.21h0c0,.18-.1.13-.16.16l-.27.1a.23.23,0,0,0-.06.09l-.19,0h0c-.08.11-.18.07-.26.12s-.26,0-.39.06l-.38.13a1.51,1.51,0,0,1-.17.1.27.27,0,0,1-.13,0c-.09,0-.19,0-.27.08a.09.09,0,0,1-.1,0c-.06-.07-.11-.1-.17,0s0,0-.08,0a1.7,1.7,0,0,0-.39,0c-.09,0-.18.09-.27.12a1.09,1.09,0,0,1-.18,0h-.24l-.13,0a1.72,1.72,0,0,1-.21.07s-.06,0-.12,0,0,.06,0,.07-.09.11-.15,0-.06,0-.09,0l-.11,0-.19,0c-.06,0-.12,0-.18,0a.2.2,0,0,0-.18,0,.22.22,0,0,1-.22,0,.1.1,0,0,0-.09,0H76s-.05,0-.06,0-.13-.09-.19,0,0,0,0,0a.87.87,0,0,0-.47-.1c-.1,0-.2,0-.3,0a.67.67,0,0,0-.37,0h0l-.27-.18-.08,0a.79.79,0,0,1-.3-.08c-.13-.1-.29-.12-.39-.31s-.17-.21-.28-.1h-.07l-.15,0,0,0c-.12.08-.07.23-.07.35a.89.89,0,0,1-.19.57l0,0c0,.14,0,.14-.11.18a.24.24,0,0,1-.12.21.63.63,0,0,0-.27.37s0,.05-.1.09a.2.2,0,0,1,0,0,.76.76,0,0,0-.2.23,2.16,2.16,0,0,1-.21.29s0,0-.05,0a.31.31,0,0,0-.09.07,1.39,1.39,0,0,0-.15.19l-.12.14a.46.46,0,0,1-.1.1V50a.77.77,0,0,0-.19.08,2,2,0,0,0-.29.22s0,.08-.07.11a.65.65,0,0,1-.12.11.42.42,0,0,1,0,.15s-.07,0-.1,0l-.17,0a.32.32,0,0,0-.09,0l-.3.25-.27.17c-.15.09-.3.18-.46.26a1.73,1.73,0,0,1-.37.16,2.9,2.9,0,0,1-.51,0,.55.55,0,0,0-.18,0s0,.06-.05.11c-.23-.13-.48,0-.73,0l-.13,0c-.1,0-.2,0-.31,0s-.24,0-.36,0-.24.08-.36,0-.12,0-.18,0,0,0-.07,0-.16,0-.24,0a.93.93,0,0,0-.37,0s0,0-.06.08l0-.07v0a.41.41,0,0,1-.19,0c-.07-.05-.12,0-.18,0a1.55,1.55,0,0,0-.22-.12s-.11,0-.16,0l0,.07a1.67,1.67,0,0,0,0,.19c0-.12-.06-.21-.15-.15h0c-.05-.16-.17-.08-.25-.14s0,0,0,0-.17,0-.26,0h0c0-.13-.09,0-.12,0l-.21-.1a.52.52,0,0,0-.3,0h0c0-.11-.14-.11-.22-.16l-.09,0-.23-.15c-.09,0-.17-.11-.26,0l-.05,0a.62.62,0,0,0-.3-.18s-.07-.07-.1-.1a.67.67,0,0,1-.2,0,.88.88,0,0,1-.22-.1l-.08-.08a.18.18,0,0,0-.09,0l-.1-.08a1.66,1.66,0,0,1-.13-.14.38.38,0,0,0-.1,0,.59.59,0,0,1-.13,0,2.33,2.33,0,0,1-.33-.14A1.64,1.64,0,0,1,60,50l-.06,0s-.07,0-.07-.06a.14.14,0,0,0-.06-.07s-.06,0-.09-.06l-.27-.22a2.34,2.34,0,0,1-.31-.24,4.89,4.89,0,0,1-.37-.41c0-.07-.09-.16-.14-.24l-.09-.18s0,0,0,0a1.4,1.4,0,0,1-.1-.16c-.05-.09-.1-.2-.16-.29a3.78,3.78,0,0,0-.22-.33s0,0-.07,0a.94.94,0,0,0-.31-.52c-.14-.13-.23,0-.34.07s0,0,0,.07c0,.18,0,.35-.09.52a.67.67,0,0,1-.14.37s-.07.15-.1.23a.41.41,0,0,1,0,.09c0-.07-.07-.1-.1,0a2,2,0,0,1-.27.45c-.08.13-.15.29-.22.43s0,0-.07,0-.08.07-.11.14l-.07.16-.07,0a.75.75,0,0,1-.1.2c-.09.07-.07.22-.11.32s-.12.1-.19,0l-.07.32h0v-.19h0a1,1,0,0,1-.07.25,1.39,1.39,0,0,1-.15.22c-.05,0-.08,0-.11,0s-.2.1-.24.26l0,0s-.07,0-.06.09,0,0-.06,0-.07,0-.09.1l-.08.12,0,0,0-.25-.1.08-.09.14c-.06.06-.11,0-.12-.06l-.28.23a.14.14,0,0,1-.11,0c-.07,0-.14,0-.17.07l-.25.06-.31.06-.25,0c-.12,0-.24,0-.36,0l-.48.08-.24,0-.26,0v.08l-.25-.06-.22-.1H51c-.08,0-.16,0-.24,0a.06.06,0,0,0-.08,0c-.11.09-.21,0-.31,0a.11.11,0,0,0-.1,0,.24.24,0,0,1-.23,0,.42.42,0,0,0-.16,0,.5.5,0,0,0-.13,0,.08.08,0,0,0-.08,0c-.06.08-.1,0-.14,0a.14.14,0,0,0-.16-.07c-.06,0-.13,0-.2,0s-.2-.14-.31-.06c0-.12-.11-.08-.17-.08h-.11s0-.07,0-.07L48,51.22s0,0-.07.06l0-.12c-.09-.06-.12.06-.17.1l-.1-.23a.93.93,0,0,1-.24,0,1,1,0,0,1-.25-.14.2.2,0,0,0-.22,0h0c-.08-.12-.16-.07-.25-.06a.08.08,0,0,1-.06,0c-.07-.13-.17-.09-.27-.15s-.07-.13-.15-.09h0c-.07-.1-.16,0-.24-.09a3.53,3.53,0,0,0-.32-.21.34.34,0,0,0-.17,0c-.06,0-.12-.08-.17,0s0,0,0,0L45.07,50A.22.22,0,0,0,45,50c-.13-.08-.26-.14-.38-.22s-.08-.07-.13,0,0,0,0,0a1.81,1.81,0,0,0-.24-.24c-.1-.08-.21-.11-.31-.18s-.07-.09-.11-.13a1.31,1.31,0,0,0-.11-.12.83.83,0,0,1-.08-.12s0-.14-.07-.09,0,0-.06-.05-.12-.19-.19-.28-.08,0-.12,0l0-.18c-.09,0-.15-.09-.21-.2s-.12-.12-.19-.19c0-.29-.23-.28-.34-.48s0-.15-.1-.16,0-.09,0-.11l-.17-.24-.06-.08-.18-.27a.35.35,0,0,1,0-.08c0-.07-.08-.12-.15-.09H41.6c-.1,0-.14,0-.15.18s0,0,0,0,0,.24,0,.36a.86.86,0,0,1,0,.16c0,.2-.08.39-.13.59a.49.49,0,0,1-.08.18c-.07,0-.07.16-.11.24s0,.08,0,.13l-.15.31,0,0,0,0c0,.09,0,.14-.07.14s-.08.05-.11.1a1.93,1.93,0,0,0-.25.72,1.17,1.17,0,0,1-.05.2.44.44,0,0,1-.08.11s0,.09-.05.12a2.26,2.26,0,0,1-.16.26l-.23.37-.15.26a1.77,1.77,0,0,0-.16.22c-.08.16-.21.15-.32.22s-.06.1-.09.14a.07.07,0,0,1,0,0c-.14,0-.23.12-.34.19a1.35,1.35,0,0,1-.22.14,2.09,2.09,0,0,1-.23.08l-.11.08-.06,0-.41.16-.29.13a.5.5,0,0,1-.12,0l-.2,0a1.13,1.13,0,0,0-.18,0c-.11,0-.21.12-.32.11a2.79,2.79,0,0,0-.57.14h-.06c-.06,0-.11-.06-.11.1,0-.16-.12-.13-.18-.11a1.37,1.37,0,0,1-.53,0,1.32,1.32,0,0,0-.56,0s-.1,0-.15,0a1,1,0,0,1-.17,0,1.57,1.57,0,0,1-.23-.09l-.08,0H34l-.2,0a2,2,0,0,0-.23-.07c-.09,0-.17-.1-.25-.12s-.15-.12-.22,0,0,0,0,0-.13-.14-.22-.1,0,0-.07-.06-.13,0-.2-.08a1.5,1.5,0,0,0-.24-.2A3.58,3.58,0,0,0,32,51.6s-.06-.06-.08-.1a1.17,1.17,0,0,1-.05-.11l-.06,0-.27-.24a3.31,3.31,0,0,1-.27-.26c-.09-.11-.17-.23-.26-.35a.31.31,0,0,0-.16-.26c-.08,0-.06-.14-.06-.21a.16.16,0,0,1,.15-.14,1,1,0,0,0,.24.05,3.09,3.09,0,0,0,.43,0c.21,0,.42-.07.64-.09s.39,0,.59-.06.2-.05.3-.05a.94.94,0,0,0,.39-.19l.12,0,.27-.1a2.83,2.83,0,0,1,.36-.16c.13,0,.23-.17.36-.23s.28-.24.43-.28.31-.22.47-.3a1.55,1.55,0,0,0,.25-.21l.28-.22c.11-.11.2-.23.31-.33a1.18,1.18,0,0,1,.32-.23.66.66,0,0,0,.16-.17s0,0,0,0a.63.63,0,0,1,.18-.12.92.92,0,0,0,.32-.33,1.21,1.21,0,0,1,.19-.2,3.47,3.47,0,0,1,.25-.29c.06-.07.13-.1.2-.17a1.11,1.11,0,0,0,.12-.16.86.86,0,0,1,.13-.14.81.81,0,0,1,.14-.12l.35-.32s0-.06,0-.06l.28-.27a.91.91,0,0,0,.21-.23c.09-.15.22-.21.27-.41s.07-.07.1-.11l.26-.36.22-.26.14-.16.17-.17.25-.28.32-.36s0,0,0-.06a1,1,0,0,1,.36-.41.23.23,0,0,1,.24,0,1.61,1.61,0,0,1,.38.28c.12.1.24.17.36.26a5,5,0,0,1,.43.37.91.91,0,0,0,.13.08c.12.09.23.2.35.28s.42.33.63.48.23.23.39.19a.09.09,0,0,1,0,0,.59.59,0,0,0,.35.3,1,1,0,0,1,.2.15l.35.21c.06,0,.12,0,.18.09l.51.28s0,0,.08,0a2,2,0,0,0,.34.13s.11-.06.14.07c.08-.05.15-.05.19.09s.14.09.21.12a1.69,1.69,0,0,0,.37.15s.09,0,.13,0,.19.08.29.1a1.59,1.59,0,0,0,.38.06c.05,0,.11,0,.16,0s.17,0,.26,0a2.74,2.74,0,0,0,.28,0l.36.07.33.06h0c.11-.13.22,0,.33,0l.2,0,.15,0h.11a2.09,2.09,0,0,1,.25,0c.09,0,.17-.07.24-.05a1.85,1.85,0,0,0,.23,0,.69.69,0,0,0,.4,0h.11a.86.86,0,0,1,.17,0l.14,0,.28,0,.11,0,.11,0h0l.13-.08a.12.12,0,0,1,.08,0c.09,0,.16,0,.23,0a.58.58,0,0,0,.21-.1c.09-.12.21-.1.31-.17a1.05,1.05,0,0,1,.46-.2.7.7,0,0,0,.28-.12,1.66,1.66,0,0,0,.3-.22c.13-.12.3-.13.4-.34,0,0,.06,0,.09,0v0l.13-.16a1.1,1.1,0,0,1,.09-.14.3.3,0,0,1,.08-.08l.32-.2a1.43,1.43,0,0,0,.3-.2c.08-.07.17-.09.24-.15a.57.57,0,0,1,.2-.13s.06-.1.09-.16l0,.09s0,0,.07-.06a3.61,3.61,0,0,0,.23-.44c0-.11.14-.17.21-.24a.4.4,0,0,0,.1-.15.5.5,0,0,1,.36-.39s0,0,.07.06.1.23.2.23,0,0,0,.06l.21.28s0,0,.07,0a.18.18,0,0,1,.07,0l.06.11.18.28s0,0,.05,0l.06.07a1.12,1.12,0,0,0,.1.16c.07.08.16.12.2.24s.18.23.3.23,0,0,.05,0l.38.33c.07.06.13.17.21.19s.27.19.41.27.14,0,.2,0,.09,0,.09.1h0c.07-.06.14,0,.21,0s.12,0,.17.07a.05.05,0,0,0,0,0h.25v.08l.15,0,.15.06.18.06.1,0c.07.06.16,0,.24.09a.71.71,0,0,0,.25.06.62.62,0,0,1,.19.07.35.35,0,0,0,.27.08l.06,0c.08,0,.17.15.23.11s.16,0,.25.08v0a1.4,1.4,0,0,1,.29.09.28.28,0,0,0,.28,0s.06,0,.09,0,0,0,0,0,.24.07.35,0a.06.06,0,0,1,.07,0,1.13,1.13,0,0,0,.36.06c.18,0,.36,0,.54-.1s.16,0,.25,0,.22,0,.33,0a1.32,1.32,0,0,1,.34,0l.13,0,.25-.07h0c.13-.1.27,0,.4-.07a1.12,1.12,0,0,0,.32-.14l.41-.25a2.6,2.6,0,0,1,.25-.1l.21-.15s0,0,0,0a.43.43,0,0,0,.28-.16c0-.06.13,0,.2,0s.23-.13.33-.26c.06,0,.23-.06.28-.19a.25.25,0,0,1,.17-.15.58.58,0,0,0,.18-.11s0-.05.08,0,.22-.13.33-.23a2.49,2.49,0,0,0,.17-.24s.07,0,.1-.07a1.09,1.09,0,0,0,.13-.17,2,2,0,0,1,.19-.28c.06-.08.14-.14.2-.21l.11-.15.18-.25a1.23,1.23,0,0,0,.22-.35c0-.1.13-.14.2-.22a2.15,2.15,0,0,0,.23-.28,1.18,1.18,0,0,0,.11-.19.53.53,0,0,0,.13-.13c.09-.11.17-.24.26-.36v0a.86.86,0,0,1,.13-.36l.08.08.12-.43.07.07a.76.76,0,0,1,.08-.11c0-.08.09-.11.12,0a0,0,0,0,0,0,0c.08,0,.12.05.15.16a.61.61,0,0,0,.13.22c.11.14.23.26.33.41a1.66,1.66,0,0,0,.16.21c.06.07.09.19.16.24s.17.25.28.34a1.24,1.24,0,0,0,.18.14c.1,0,.18.21.27.32a1.19,1.19,0,0,0,.2.19,1.45,1.45,0,0,0,.35.26c.09.05.17.16.28.14s.09,0,.14.06l.26.12.15.08s.07,0,.11,0,0,0,.06,0l.5.14a1.81,1.81,0,0,0,.23,0l.18.06c.11,0,.23.08.34,0,0,.09.07.1.14.06s.06,0,.1,0a1.71,1.71,0,0,1,.39,0c.13,0,.24,0,.36-.08s.2,0,.31,0l.42-.11.45-.13c.14,0,.28,0,.42-.06a1.47,1.47,0,0,0,.4-.14,1.65,1.65,0,0,0,.27-.19l.1-.06.17-.14.15-.09.17-.11c.13-.08.27-.15.4-.24a.47.47,0,0,0,.11-.13c.06-.08.09-.19.19-.23s.11-.14.17-.22l.13-.17c.07-.11.18-.18.23-.32a.09.09,0,0,1,0-.06.76.76,0,0,0,.38-.48s0-.06,0,0,.1,0,.11-.1.11-.07.16-.12a2.2,2.2,0,0,0,.2-.23A.53.53,0,0,0,83.12,40.09Z"/><path class="cls-5" d="M81.22,23.65a2.45,2.45,0,0,0,.38-.53,9.52,9.52,0,0,1,2.59-3.21,10,10,0,0,1,4-2.2,11.24,11.24,0,0,1,4.26-.44,9.28,9.28,0,0,1,2.57.62,13.3,13.3,0,0,1,2,1A5.82,5.82,0,0,1,99.16,21a14.32,14.32,0,0,1,1.56,2.8,9.85,9.85,0,0,1,.2,6c-.15.46-.32.91-.49,1.37a1,1,0,0,1-1.74.37c-.81-.78-1.66-1.53-2.5-2.29-.52-.49-1-1-1.57-1.48a11.55,11.55,0,0,0-4.74-2.28,10.16,10.16,0,0,0-5.22-.13,6.09,6.09,0,0,0-2.85,1.3,1.47,1.47,0,0,0-.35.55.69.69,0,0,1-.91.52c-.2-.05-.41,0-.61-.07s-.49-.11-.49-.19c0-.59-.58-.6-.91-.75-1.21-.57-2.44-1.07-3.67-1.58-.66-.27-1.31-.54-2-.75A14.86,14.86,0,0,0,71.12,24l-2.31-.45c-.26,0-.52-.09-.78-.11-.79-.06-1.58-.16-2.37-.15-1.75,0-3.51.06-5.26.21a5.54,5.54,0,0,0-1.66.74c-.28.14-.53.28-.83,0a.67.67,0,0,1-.14-.82,13,13,0,0,1,3.65-5.49,11.08,11.08,0,0,1,3.24-2.05A10.15,10.15,0,0,1,67.15,15c1.74-.19,3.47-.73,5.23-.14,1,.33,2,.56,2.92.9a3.86,3.86,0,0,1,.91.68c.62.48,1.27.92,1.87,1.44a7.81,7.81,0,0,1,2,2.94c.19.45.48.86.64,1.32A11.38,11.38,0,0,1,81,23.62ZM59.14,23l.14.09a5.8,5.8,0,0,1,1-.37c.72-.11,1.45-.18,2.18-.23a19.93,19.93,0,0,1,3-.1,27.74,27.74,0,0,1,5.73.79c.88.27,1.78.46,2.66.75,1.16.39,2.31.82,3.44,1.28.73.29,1.42.69,2.15,1s.82.18.79-.54a14,14,0,0,0-1.13-4.44,9.21,9.21,0,0,0-4.84-4.79c-2.41-1.24-4.92-.92-7.44-.4a10.23,10.23,0,0,0-3.74,1.84,8.69,8.69,0,0,0-1.8,1.62,29.19,29.19,0,0,0-1.87,2.77A2.57,2.57,0,0,0,59.14,23ZM99,31.15a2.67,2.67,0,0,0,.42-.61,14.64,14.64,0,0,0,.75-3.14,8.89,8.89,0,0,0-1.56-5.58A8.58,8.58,0,0,0,94,18.44a8.13,8.13,0,0,0-3.77-.27,9.63,9.63,0,0,0-4.92,2.13,17.17,17.17,0,0,0-2.47,2.64,14.77,14.77,0,0,0-1.31,2.38.36.36,0,0,0,0,.35c.05,0,.23,0,.34,0,.59-.23,1.2-.44,1.77-.73a6.47,6.47,0,0,1,3.6-.48,17.3,17.3,0,0,1,3,.52,9.11,9.11,0,0,1,3.19,1.28c.82.63,1.68,1.2,2.49,1.86a19.67,19.67,0,0,1,1.53,1.5C97.94,30.1,98.42,30.6,99,31.15Z"/><path class="cls-5" d="M31.75,30.26c.24-.5.48-1,.73-1.49a6.3,6.3,0,0,1,2.25-2.19,5.64,5.64,0,0,1,4.11-.81,8.54,8.54,0,0,1,3.48.68,12,12,0,0,1,1.36.78,23.24,23.24,0,0,1,2.56,2.29,7.27,7.27,0,0,1,1.08,1.91,13.94,13.94,0,0,1,1,2.38,5.79,5.79,0,0,1,.48,3,3.46,3.46,0,0,1-.54-.41,18.82,18.82,0,0,0-1.36-1.58,17,17,0,0,0-2.53-2A11,11,0,0,0,39.42,31c-1.07-.08-2.15-.27-3.23-.26a10.29,10.29,0,0,0-2.08.44c-.18,0-.35.1-.52.13a.71.71,0,0,0-.63.65c-.09.56-.29.67-.81.42-.69-.34-1.33-.76-2-1.09-1.29-.62-2.57-1.24-3.88-1.8s-2.43-.95-3.67-1.37a7.64,7.64,0,0,0-1.83-.38,27.6,27.6,0,0,0-4.16-.2,12.76,12.76,0,0,0-3.12.74c-1,.31-1.89.75-2.83,1.14-.37.15-.74.33-1.13.51-.28-.9.26-1.42.59-2s.79-1.32,1.21-2,.94-1.38,1.44-2.05a11.67,11.67,0,0,1,1.17-1.44,5.2,5.2,0,0,1,3-1.25,17,17,0,0,1,3.19,0,8.94,8.94,0,0,1,3.49,1c.79.4,1.61.74,2.39,1.15a3.9,3.9,0,0,1,1,.74c1,1,2,2.07,2.88,3.17a20,20,0,0,1,1.44,2.18,3.88,3.88,0,0,1,.28.79Zm-20.84-2,.11.09c.1,0,.21,0,.31-.09a22.93,22.93,0,0,1,3.28-1.09,17.53,17.53,0,0,1,5-.31,22.85,22.85,0,0,1,2.95.45,18.64,18.64,0,0,1,1.9.55c.47.14.95.31,1.42.48.21.08.41.18.62.27l1.59.74c.67.31,1.33.64,2,.93.12,0,.31-.06.46-.09a1.36,1.36,0,0,0-.13-.43c-.6-.86-1.18-1.74-1.82-2.56A11.47,11.47,0,0,0,24,23.31c-.67-.28-1.28-.69-2-.9a9.34,9.34,0,0,0-5.34-.28,4.33,4.33,0,0,0-2.15,1,14.56,14.56,0,0,0-1.26,1.56c-.6.83-1.17,1.66-1.74,2.51C11.28,27.52,11.11,27.89,10.91,28.24Zm21.54,2.42.15.1a10.77,10.77,0,0,1,1.92-.69,23.77,23.77,0,0,1,2.8-.16,6.14,6.14,0,0,1,1,0c.69.1,1.38.2,2,.34a20.36,20.36,0,0,1,2.47.65,8.79,8.79,0,0,1,1.7.93c.71.48,1.38,1,2.08,1.53a6.21,6.21,0,0,0,.65.34c0-.26,0-.4,0-.5A15.75,15.75,0,0,0,46,30.68a18.5,18.5,0,0,0-2.31-2.46,6.4,6.4,0,0,0-1.53-1,9.32,9.32,0,0,0-3.66-.67,5,5,0,0,0-2.81.56,9.13,9.13,0,0,0-2.09,1.6A9,9,0,0,0,32.45,30.66Z"/><path class="cls-6" d="M10.91,28.24c.2-.35.37-.72.59-1.06.57-.85,1.14-1.68,1.74-2.51a14.56,14.56,0,0,1,1.26-1.56,4.33,4.33,0,0,1,2.15-1,9.34,9.34,0,0,1,5.34.28c.68.21,1.29.62,2,.9a11.47,11.47,0,0,1,4.66,3.87c.64.82,1.22,1.7,1.82,2.56a1.36,1.36,0,0,1,.13.43c-.15,0-.34.14-.46.09-.68-.29-1.34-.62-2-.93l-1.59-.74c-.21-.09-.41-.19-.62-.27-.47-.17-.95-.34-1.42-.48a18.64,18.64,0,0,0-1.9-.55,22.85,22.85,0,0,0-2.95-.45,17.53,17.53,0,0,0-5,.31,22.93,22.93,0,0,0-3.28,1.09c-.1,0-.21.06-.31.09Z"/><path class="cls-6" d="M32.45,30.66a9,9,0,0,1,1.1-1.92,9.13,9.13,0,0,1,2.09-1.6,5,5,0,0,1,2.81-.56,9.32,9.32,0,0,1,3.66.67,6.4,6.4,0,0,1,1.53,1A18.5,18.5,0,0,1,46,30.68a15.75,15.75,0,0,1,1.27,2.53c.05.1,0,.24,0,.5a6.21,6.21,0,0,1-.65-.34c-.7-.51-1.37-1-2.08-1.53a8.79,8.79,0,0,0-1.7-.93,20.36,20.36,0,0,0-2.47-.65c-.67-.14-1.36-.24-2-.34a6.14,6.14,0,0,0-1,0,23.77,23.77,0,0,0-2.8.16,10.77,10.77,0,0,0-1.92.69Z"/><path class="cls-6" d="M59.14,23a2.57,2.57,0,0,1,.24-.74,29.19,29.19,0,0,1,1.87-2.77,8.69,8.69,0,0,1,1.8-1.62A10.23,10.23,0,0,1,66.79,16c2.52-.52,5-.84,7.44.4a9.21,9.21,0,0,1,4.84,4.79,14,14,0,0,1,1.13,4.44c0,.72-.11.82-.79.54s-1.42-.7-2.15-1c-1.13-.46-2.28-.89-3.44-1.28-.88-.29-1.78-.48-2.66-.75a27.74,27.74,0,0,0-5.73-.79,19.93,19.93,0,0,0-3,.1c-.73.05-1.46.12-2.18.23a5.8,5.8,0,0,0-1,.37Z"/><path class="cls-6" d="M99,31.15c-.53-.55-1-1-1.5-1.54a19.67,19.67,0,0,0-1.53-1.5c-.81-.66-1.67-1.23-2.49-1.86A9.11,9.11,0,0,0,90.24,25a17.3,17.3,0,0,0-3-.52,6.47,6.47,0,0,0-3.6.48c-.57.29-1.18.5-1.77.73-.11,0-.29.06-.34,0a.36.36,0,0,1,0-.35,14.77,14.77,0,0,1,1.31-2.38,17.17,17.17,0,0,1,2.47-2.64,9.63,9.63,0,0,1,4.92-2.13,8.13,8.13,0,0,1,3.77.27,8.58,8.58,0,0,1,4.54,3.38,8.89,8.89,0,0,1,1.56,5.58,14.64,14.64,0,0,1-.75,3.14A2.67,2.67,0,0,1,99,31.15Z"/><path class="cls-5" d="M34.29,51.64c-.13.66-.23,1.26-.35,1.85a2,2,0,0,1-.62,1,.16.16,0,0,0-.07.07c0,.2-.21.29-.34.41a.28.28,0,0,0-.06.14s.07.06.11.07a.68.68,0,0,1,.59.86.65.65,0,0,0,0,.24l.12,1a3.55,3.55,0,0,0,.09.47,1.71,1.71,0,0,1-.19,1.41c-.3.47-.56.95-.85,1.42a2.3,2.3,0,0,1-1,1c-.31.15-.6.37-.91.51a7.78,7.78,0,0,1-.86.25,1.83,1.83,0,0,0-.32.07.35.35,0,0,0-.16.2,2.79,2.79,0,0,1-.75,1.57,2.31,2.31,0,0,1-1.32.89c-.28,0-.54.2-.81.24a3.18,3.18,0,0,1-1.23,0,8.7,8.7,0,0,1-1.19-.39,3.92,3.92,0,0,1-.85-.47c-.26-.19-.48-.46-.74-.66a.58.58,0,0,0-.41-.09c-.13,0-.23.16-.35.22a4.1,4.1,0,0,1-.59.2,2.52,2.52,0,0,1-1.19,0c-.31-.09-.64-.1-.94-.21s-.48-.1-.64-.32c0,0-.14,0-.21-.08a1.85,1.85,0,0,1-.51-.24c-.15-.14-.38-.18-.45-.41,0-.07-.16-.11-.24-.15-.3-.16-.38-.47-.54-.72a1.49,1.49,0,0,1-.23-1,.23.23,0,0,0-.14-.15,1.24,1.24,0,0,1-1-.38,7.12,7.12,0,0,1-.94-1c-.3-.44-.67-.83-1-1.27a3.73,3.73,0,0,1-.52-1,7.23,7.23,0,0,1-.21-1.54,2.59,2.59,0,0,1,.36-1.31A2.06,2.06,0,0,0,13.06,53a1.85,1.85,0,0,1,.23-1.29,3.94,3.94,0,0,0,.32-.76.42.42,0,0,1,.09-.14l.64-.61c.11-.1.09-.14,0-.21a.31.31,0,0,1-.16-.23,7.64,7.64,0,0,1,.75-3.58,17.09,17.09,0,0,1,1-1.54,2.77,2.77,0,0,1,1.8-1.14,4.46,4.46,0,0,1,1.1-.06c.32,0,.64.06,1,.1a.4.4,0,0,0,.38-.13,5.13,5.13,0,0,1,1-.94,1.53,1.53,0,0,1,.92-.32c.05,0,.1,0,.15-.06.36,0,.72-.1,1.08-.11a12.12,12.12,0,0,1,1.34.06,4.41,4.41,0,0,1,1.64.34c.16.08.34.11.5.18a2.11,2.11,0,0,1,.31.21s0,.06.06.06c.5.13.77.57,1.15.88a6.18,6.18,0,0,1,.94,1,4.93,4.93,0,0,1,.52.89.85.85,0,0,0,.67.47,6.33,6.33,0,0,1,1.21.39,7.19,7.19,0,0,1,1.19.71,2.75,2.75,0,0,1,1,1.31,8.44,8.44,0,0,1,.35,1,9.38,9.38,0,0,1,.16,1.31A7.32,7.32,0,0,1,34.29,51.64ZM17.56,53.26c.2.38.36.72.55,1.05s.53.88.79,1.33a4.3,4.3,0,0,1,.59,1.22c.09.48.2,1,.26,1.42,0,.28.09.35.38.31a2.27,2.27,0,0,1,.52,0c.06,0,.11.1.17.11.24,0,.48,0,.71,0a3.11,3.11,0,0,1,1.58.36,4.32,4.32,0,0,0,.77.4,1.28,1.28,0,0,0,.69.17,4,4,0,0,0,1.08-.47c.55-.32,1.09-.67,1.62-1a3,3,0,0,0,.56-.56c.28-.36.53-.73.8-1.1A5.07,5.07,0,0,0,29,56c.17-.32.28-.67.65-.85,0,0,.07-.12.07-.18s0-.36,0-.54a.47.47,0,0,0,0-.17c-.07-.18-.16-.35-.24-.53-.21-.43-.17-.94-.46-1.34a1.26,1.26,0,0,1-.2-.27c-.11-.33-.22-.66-.31-1a4.7,4.7,0,0,0-.13-.63,2.32,2.32,0,0,1-.09-1.25.2.2,0,0,0-.13-.24,2,2,0,0,1-.33-.26,2,2,0,0,0-.32-.27,4.16,4.16,0,0,1-1.15-.71s0,0-.07,0a1.35,1.35,0,0,1-.29-.16.31.31,0,0,0-.42,0,6.58,6.58,0,0,1-.73.42,6.73,6.73,0,0,1-1,.4,9.54,9.54,0,0,1-1.58.29,13.46,13.46,0,0,1-1.42,0s-.06,0-.09,0a1.87,1.87,0,0,0-.4-.13c-.16,0-.22.06-.18.22A2.94,2.94,0,0,1,20,50.43a7.53,7.53,0,0,1-1.15,2,3.11,3.11,0,0,1-.67.58A3.64,3.64,0,0,1,17.56,53.26Zm12.26-6.1c-.24.22-.24.22-.08.49a.75.75,0,0,1,.06.13c.18.28.2.66.52.86a.64.64,0,0,1,.21.19,4.86,4.86,0,0,1,1,1.64c0,.17.09.33.14.49.19.59.38,1.19.55,1.79a2.51,2.51,0,0,1,0,1.46.62.62,0,0,0,0,.19l.07,0a3.23,3.23,0,0,0,.51-.62,6.08,6.08,0,0,0,.55-3,11.78,11.78,0,0,0-.17-1.17,3.31,3.31,0,0,0-.25-.66,6.53,6.53,0,0,0-.45-.82,3.23,3.23,0,0,0-1.12-.95c-.09-.05-.15-.15-.24-.19s-.44-.15-.66-.23-.37,0-.4.23c0,.07,0,.14,0,.23ZM15,49.86c.15-.08.29-.14.41-.22s.37-.17.4-.42a3.57,3.57,0,0,1,.11-.47,1.81,1.81,0,0,1,.88-1.26A5.37,5.37,0,0,1,18,46.92c.08,0,.15-.13.21-.22a4.4,4.4,0,0,1,.51-.69c.39-.35.82-.64,1.23-.95.14-.1.31-.17.45-.28s.09-.2-.05-.23c-.42-.11-.85-.22-1.27-.3a2.39,2.39,0,0,0-.79-.08,2.66,2.66,0,0,0-1.78,1,2.94,2.94,0,0,1-.37.53,2.78,2.78,0,0,0-.63.94A5.86,5.86,0,0,0,15,48.8a2.33,2.33,0,0,1-.07,1S14.94,49.83,15,49.86Zm10.33-4.11a1,1,0,0,0-.08-.18,1.92,1.92,0,0,0-.29-.28,2.23,2.23,0,0,0-1.6-.42,3.17,3.17,0,0,0-1.36.29c-.09.05-.19.07-.28.12-.35.2-.72.4-1.06.63s-.72.55-1.08.84a.37.37,0,0,0-.15.23c0,.06.1.16.17.19.34.15.67.3,1,.42a.94.94,0,0,0,.5,0c.71-.14,1.41-.3,2.12-.46a7.13,7.13,0,0,0,1.26-.41c.28-.12.53-.21.63-.53C25.13,46.06,25.21,45.91,25.28,45.75Zm-8,13.06a.58.58,0,0,0,.16.8l.09.09a.53.53,0,0,0,.9-.07,1,1,0,0,0,.14-.21,1.51,1.51,0,0,0,.15-.54,5.63,5.63,0,0,0-.28-1.82c-.14-.35-.27-.71-.43-1.05a4.67,4.67,0,0,0-.48-.84,2.16,2.16,0,0,0-1-.85c-.34-.12-.42-.1-.53.25a1.31,1.31,0,0,0-.08.48c0,.27.1.54.1.82a.82.82,0,0,0,.31.59c.17.16.17.3,0,.45s-.13.11-.12.15a3.13,3.13,0,0,0,.16.52c.11.29.27.57.36.87a.45.45,0,0,0,.43.34Zm5.89-16.14a7.26,7.26,0,0,0-1.06.17,2.31,2.31,0,0,0-1.08.83.18.18,0,0,0,0,.31c.1.06.17.16.27.2a.62.62,0,0,0,.32.07c.21,0,.41-.11.61-.14s.57-.08.86-.12a2,2,0,0,1,1,0l.5.19a2,2,0,0,1,.47.21,2.65,2.65,0,0,0,1.28.51,4,4,0,0,1,1.64.68c.05,0,.08.1.13.13a4.16,4.16,0,0,0,.51.28c.12,0,.19,0,.13-.15a1.83,1.83,0,0,0-.21-.39,16.53,16.53,0,0,0-1.65-1.7,3.65,3.65,0,0,0-1.84-.84Zm-.52,19.88-.07.05a1.57,1.57,0,0,0,.12.3,3.13,3.13,0,0,0,.88.74,5.69,5.69,0,0,0,.85.52,5.33,5.33,0,0,0,1.77.42,1.3,1.3,0,0,0,.34,0,2.56,2.56,0,0,0,1.55-1,1.93,1.93,0,0,0,.47-1.07c0-.26,0-.52,0-.79,0-.08,0-.16-.16-.1a.32.32,0,0,1-.14,0H27a.35.35,0,0,0-.39.31,3,3,0,0,1-.23.56,1.15,1.15,0,0,1-1.2.66c-.37-.05-.74-.12-1.1-.19l-1-.25A3.26,3.26,0,0,1,22.67,62.55Zm-4.1-14.19a1.39,1.39,0,0,0-.34-.48c-.21-.17-.39-.21-.57,0s-.23.34-.36.51a4.39,4.39,0,0,0-.64,1.51,6.51,6.51,0,0,0-.16,1.39,3.8,3.8,0,0,0,.1.89.36.36,0,0,0,.59.21,4.42,4.42,0,0,0,.68-.61,15.18,15.18,0,0,0,.91-1.35A2.45,2.45,0,0,0,19.16,49a.93.93,0,0,0-.06-.41,2.3,2.3,0,0,0-.34-.43ZM32.88,58.43c-.05-.45-.08-.87-.14-1.27a7.82,7.82,0,0,1-.17-.78,1.06,1.06,0,0,0-.87-.84c-.11,0-.34,0-.35.18a7.09,7.09,0,0,0,0,1,7,7,0,0,1,.11,1.1,3.43,3.43,0,0,1-.77,2.22,8.11,8.11,0,0,1-1.13,1.06.36.36,0,0,0-.1.41c.08.15.21.08.32,0,.44-.16.89-.31,1.32-.49a1.48,1.48,0,0,0,.41-.31,2.76,2.76,0,0,0,.31-.37.9.9,0,0,0,.16-.18c.17-.3.34-.59.49-.89S32.75,58.72,32.88,58.43Zm-16,2-.05.05a3.11,3.11,0,0,0,.53,1.38A3.64,3.64,0,0,0,19.09,63a5.74,5.74,0,0,0,.82.19,2.86,2.86,0,0,0,1.27.07.51.51,0,0,0,.4-.72.23.23,0,0,1,0-.14c.05-.23,0-.3-.21-.41a6.18,6.18,0,0,1-.79-.45A3,3,0,0,0,19.49,61c-.07,0-.13-.11-.18-.18a.53.53,0,0,1-.08-.17l0,.08a1.61,1.61,0,0,1-.33.15,1.22,1.22,0,0,1-.92-.06,1.2,1.2,0,0,0-.27-.08,3.19,3.19,0,0,1-.44-.13C17.17,60.56,17.05,60.47,16.92,60.4Zm13.18-4a2.34,2.34,0,0,1-.17.38c-.17.27-.34.54-.53.8s-.26.29-.38.45a3.56,3.56,0,0,1-.5.63,6.64,6.64,0,0,1-1.31.84,11.51,11.51,0,0,0-1.39.82.2.2,0,0,0,0,.17.48.48,0,0,0,.53.27c.62-.08,1.24-.1,1.86-.15a.93.93,0,0,0,.42-.06,5.16,5.16,0,0,0,.8-.59,2.59,2.59,0,0,0,.44-.55,3.56,3.56,0,0,0,.38-.65,2.8,2.8,0,0,0,.15-.65A2.23,2.23,0,0,0,30.1,56.39Zm-5.66,5.7,0-.05.33,0a.61.61,0,0,0,.52-.23c.12-.1.05-.22,0-.34v-.06a.31.31,0,0,0-.2-.36,5.22,5.22,0,0,0-.56-.18c-.06,0-.18,0-.18,0,0-.22-.21-.25-.36-.31l-.77-.31c-.19-.08-.35-.22-.57-.2,0,0,0,0-.07,0a6.37,6.37,0,0,0-.77-.33c-.34-.09-.69-.11-1-.18s-.48-.09-.68.13c0,0-.09,0-.14,0l-.25.09c.06.07.1.16.17.2.43.26.87.51,1.31.74s.89.48,1.35.69.73.3,1.1.44ZM29.17,49a8.31,8.31,0,0,0,0,1c0,.29.16.56.21.85a4.46,4.46,0,0,0,.53,1.41,2.71,2.71,0,0,1,.17.39c.05.13.1.26.14.4s.18.55.26.83a1.74,1.74,0,0,1,.13.59c0,.37.3.21.45.29l0,0c.12.06.18,0,.21-.11a3,3,0,0,0,0-1.87L30.9,51.6a8.52,8.52,0,0,0-.33-1c-.1-.22,0-.51-.34-.65-.13-.07-.19-.25-.3-.38a4.2,4.2,0,0,1-.41-.44A.33.33,0,0,0,29.17,49ZM13.42,54.92a1.59,1.59,0,0,0-.07.2,3.11,3.11,0,0,0,.22,1.65,10.69,10.69,0,0,0,.79,1.34,6.26,6.26,0,0,0,.6.76c.31.35.64.68,1,1a.63.63,0,0,0,.22.09c0-.1,0-.21,0-.31s-.06-.1-.1-.15a1.14,1.14,0,0,1-.18-.25,8.81,8.81,0,0,1-.52-1.18A14.49,14.49,0,0,1,15,56.6a1.09,1.09,0,0,0-.43-.52c-.22-.07-.46-.08-.61-.3S13.63,55.23,13.42,54.92Zm1.51.34c0-.09,0-.12,0-.16,0-.27,0-.53.05-.79s.11-.55.12-.83a.35.35,0,0,1,.18-.33l.35-.23c.16-.11.15-.23.08-.39a2.3,2.3,0,0,1-.18-.58c0-.3,0-.61-.05-.91s-.08-.26-.26-.21L15,51a1.69,1.69,0,0,0-.83,1,4.39,4.39,0,0,0,0,.73,5.63,5.63,0,0,0,.31,1.86A1.36,1.36,0,0,0,14.93,55.26ZM28.72,47.7a4,4,0,0,0-.14-.55.29.29,0,0,0-.24-.11c-.29,0-.38-.06-.41-.36a.37.37,0,0,0-.07-.14l-.43-.48c-.07-.08-.18-.21-.24-.2-.22.06-.33-.09-.48-.18a.21.21,0,0,0-.3.14,6.18,6.18,0,0,1-.26.72c-.09.21-.07.32.14.43l.46.21a3.73,3.73,0,0,1,.4.2l1,.66a.23.23,0,0,0,.18,0,1.58,1.58,0,0,0,.29-.22Z"/><path class="cls-7" d="M17.56,53.26a3.64,3.64,0,0,0,.59-.3,3.11,3.11,0,0,0,.67-.58,7.53,7.53,0,0,0,1.15-2,2.94,2.94,0,0,0,.14-1.76c0-.16,0-.25.18-.22a1.87,1.87,0,0,1,.4.13s.06,0,.09,0a13.46,13.46,0,0,0,1.42,0,9.54,9.54,0,0,0,1.58-.29,6.73,6.73,0,0,0,1-.4,6.58,6.58,0,0,0,.73-.42.31.31,0,0,1,.42,0,1.35,1.35,0,0,0,.29.16s.06,0,.07,0a4.16,4.16,0,0,0,1.15.71,2,2,0,0,1,.32.27,2,2,0,0,0,.33.26.2.2,0,0,1,.13.24,2.32,2.32,0,0,0,.09,1.25,4.7,4.7,0,0,1,.13.63c.09.34.2.67.31,1a1.26,1.26,0,0,0,.2.27c.29.4.25.91.46,1.34.08.18.17.35.24.53a.47.47,0,0,1,0,.17c0,.18,0,.36,0,.54s0,.16-.07.18c-.37.18-.48.53-.65.85a5.07,5.07,0,0,1-.36.54c-.27.37-.52.74-.8,1.1a3,3,0,0,1-.56.56c-.53.37-1.07.72-1.62,1a4,4,0,0,1-1.08.47,1.28,1.28,0,0,1-.69-.17,4.32,4.32,0,0,1-.77-.4,3.11,3.11,0,0,0-1.58-.36c-.23,0-.47,0-.71,0-.06,0-.11-.1-.17-.11a2.27,2.27,0,0,0-.52,0c-.29,0-.34,0-.38-.31-.06-.47-.17-.94-.26-1.42a4.3,4.3,0,0,0-.59-1.22c-.26-.45-.54-.88-.79-1.33S17.76,53.64,17.56,53.26Zm6.37-3a1.71,1.71,0,0,0,0,.4,1.39,1.39,0,0,0,.76.91A14,14,0,0,0,26.1,52a.93.93,0,0,0,.9-.27,1.32,1.32,0,0,0,.46-1.35.29.29,0,0,1,0-.16.48.48,0,0,0-.18-.67c-.29-.2-.59-.38-.89-.56-.68-.39-1.07-.47-1.67,0A2,2,0,0,0,23.93,50.22Zm-2.12,1.12a1.75,1.75,0,0,0-1.62.73.37.37,0,0,0-.05.11c-.05.21-.11.42-.15.63a.49.49,0,0,0,.18.49l.39.39c.18.2.36.4.56.59a.9.9,0,0,0,1.32-.15,1.86,1.86,0,0,1,.4-.48,1.72,1.72,0,0,0,.55-.88.31.31,0,0,0,0-.23A1.85,1.85,0,0,0,21.81,51.34ZM28.17,55a.56.56,0,0,0-.17-.61.45.45,0,0,1-.21-.33.85.85,0,0,0-.11-.26,1.34,1.34,0,0,0-.61-.54,1.11,1.11,0,0,0-1.3.06,4,4,0,0,0-.55.45c-.17.17-.39.35-.29.65a2,2,0,0,0,.88,1.08,3.74,3.74,0,0,0,.87.37.89.89,0,0,0,.51,0,3.92,3.92,0,0,0,.65-.32A.62.62,0,0,0,28.17,55Zm-5.35,2.24A1.63,1.63,0,0,0,23,58a.49.49,0,0,0,.26.27,3,3,0,0,0,.78.13A1.65,1.65,0,0,0,25.13,58c.16-.11.35-.18.51-.29a2.06,2.06,0,0,0,.25-.26s.06-.11.1-.14A.21.21,0,0,0,26,57a2.3,2.3,0,0,0-1.51-1.14.89.89,0,0,0-.58,0A1.89,1.89,0,0,0,22.82,57.23Z"/><path class="cls-8" d="M29.82,47.16l.2.09c0-.09,0-.16,0-.23,0-.24.17-.32.4-.23s.44.14.66.23.15.14.24.19a3.23,3.23,0,0,1,1.12.95,6.53,6.53,0,0,1,.45.82,3.31,3.31,0,0,1,.25.66,11.78,11.78,0,0,1,.17,1.17,6.08,6.08,0,0,1-.55,3,3.23,3.23,0,0,1-.51.62l-.07,0a.62.62,0,0,1,0-.19,2.51,2.51,0,0,0,0-1.46c-.17-.6-.36-1.2-.55-1.79-.05-.16-.1-.32-.14-.49a4.86,4.86,0,0,0-1-1.64.64.64,0,0,0-.21-.19c-.32-.2-.34-.58-.52-.86a.75.75,0,0,0-.06-.13C29.58,47.38,29.58,47.38,29.82,47.16Z"/><path class="cls-8" d="M15,49.86s0-.06,0-.08a2.33,2.33,0,0,0,.07-1,5.86,5.86,0,0,1,.53-2.15,2.78,2.78,0,0,1,.63-.94,2.94,2.94,0,0,0,.37-.53,2.66,2.66,0,0,1,1.78-1,2.39,2.39,0,0,1,.79.08c.42.08.85.19,1.27.3.14,0,.17.14.05.23s-.31.18-.45.28c-.41.31-.84.6-1.23.95a4.4,4.4,0,0,0-.51.69c-.06.09-.13.21-.21.22a5.37,5.37,0,0,0-1.27.57,1.81,1.81,0,0,0-.88,1.26,3.57,3.57,0,0,0-.11.47c0,.25-.23.32-.4.42S15.1,49.78,15,49.86Z"/><path class="cls-9" d="M25.28,45.75c-.07.16-.15.31-.2.46-.1.32-.35.41-.63.53a7.13,7.13,0,0,1-1.26.41c-.71.16-1.41.32-2.12.46a.94.94,0,0,1-.5,0c-.35-.12-.68-.27-1-.42-.07,0-.18-.13-.17-.19a.37.37,0,0,1,.15-.23c.36-.29.71-.58,1.08-.84s.71-.43,1.06-.63c.09-.05.19-.07.28-.12a3.17,3.17,0,0,1,1.36-.29,2.23,2.23,0,0,1,1.6.42,1.92,1.92,0,0,1,.29.28A1,1,0,0,1,25.28,45.75Z"/><path class="cls-9" d="M17.3,58.81l-.12,0a.45.45,0,0,1-.43-.34c-.09-.3-.25-.58-.36-.87a3.13,3.13,0,0,1-.16-.52s.07-.11.12-.15.18-.29,0-.45a.82.82,0,0,1-.31-.59c0-.28-.08-.55-.1-.82a1.31,1.31,0,0,1,.08-.48c.11-.35.19-.37.53-.25a2.16,2.16,0,0,1,1,.85A4.67,4.67,0,0,1,18,56c.16.34.29.7.43,1.05a5.63,5.63,0,0,1,.28,1.82,1.51,1.51,0,0,1-.15.54,1,1,0,0,1-.14.21.53.53,0,0,1-.9.07l-.09-.09A.58.58,0,0,1,17.3,58.81Z"/><path class="cls-7" d="M23.19,42.67l1.9.25a3.65,3.65,0,0,1,1.84.84,16.53,16.53,0,0,1,1.65,1.7,1.83,1.83,0,0,1,.21.39c.06.13,0,.2-.13.15a4.16,4.16,0,0,1-.51-.28s-.08-.1-.13-.13a4,4,0,0,0-1.64-.68,2.65,2.65,0,0,1-1.28-.51,2,2,0,0,0-.47-.21l-.5-.19a2,2,0,0,0-1,0c-.29,0-.58.07-.86.12s-.4.11-.61.14a.62.62,0,0,1-.32-.07c-.1,0-.17-.14-.27-.2a.18.18,0,0,1,0-.31,2.31,2.31,0,0,1,1.08-.83A7.26,7.26,0,0,1,23.19,42.67Z"/><path class="cls-8" d="M22.67,62.55a3.26,3.26,0,0,0,.38.18l1,.25c.36.07.73.14,1.1.19a1.15,1.15,0,0,0,1.2-.66,3,3,0,0,0,.23-.56.35.35,0,0,1,.39-.31h1.28a.32.32,0,0,0,.14,0c.12-.06.16,0,.16.1,0,.27,0,.53,0,.79a1.93,1.93,0,0,1-.47,1.07,2.56,2.56,0,0,1-1.55,1,1.3,1.3,0,0,1-.34,0,5.33,5.33,0,0,1-1.77-.42,5.69,5.69,0,0,1-.85-.52,3.13,3.13,0,0,1-.88-.74,1.57,1.57,0,0,1-.12-.3Z"/><path class="cls-9" d="M18.57,48.36l.19-.2a2.3,2.3,0,0,1,.34.43.93.93,0,0,1,.06.41,2.45,2.45,0,0,1-.38,1.42,15.18,15.18,0,0,1-.91,1.35,4.42,4.42,0,0,1-.68.61.36.36,0,0,1-.59-.21,3.8,3.8,0,0,1-.1-.89,6.51,6.51,0,0,1,.16-1.39,4.39,4.39,0,0,1,.64-1.51c.13-.17.23-.36.36-.51s.36-.16.57,0A1.39,1.39,0,0,1,18.57,48.36Z"/><path class="cls-7" d="M32.88,58.43c-.13.29-.25.61-.39.91s-.32.59-.49.89a.9.9,0,0,1-.16.18,2.76,2.76,0,0,1-.31.37,1.48,1.48,0,0,1-.41.31c-.43.18-.88.33-1.32.49-.11,0-.24.11-.32,0a.36.36,0,0,1,.1-.41,8.11,8.11,0,0,0,1.13-1.06,3.43,3.43,0,0,0,.77-2.22,7,7,0,0,0-.11-1.1,7.09,7.09,0,0,1,0-1c0-.2.24-.19.35-.18a1.06,1.06,0,0,1,.87.84,7.82,7.82,0,0,0,.17.78C32.8,57.56,32.83,58,32.88,58.43Z"/><path class="cls-7" d="M16.92,60.4c.13.07.25.16.39.22a3.19,3.19,0,0,0,.44.13,1.2,1.2,0,0,1,.27.08,1.22,1.22,0,0,0,.92.06,1.61,1.61,0,0,0,.33-.15l0-.08a.53.53,0,0,0,.08.17c.05.07.11.16.18.18a3,3,0,0,1,1.07.55,6.18,6.18,0,0,0,.79.45c.21.11.26.18.21.41a.23.23,0,0,0,0,.14.51.51,0,0,1-.4.72,2.86,2.86,0,0,1-1.27-.07,5.74,5.74,0,0,1-.82-.19,3.64,3.64,0,0,1-1.69-1.19,3.11,3.11,0,0,1-.53-1.38Z"/><path class="cls-9" d="M30.1,56.39a2.23,2.23,0,0,1,.27,1.71,2.8,2.8,0,0,1-.15.65,3.56,3.56,0,0,1-.38.65,2.59,2.59,0,0,1-.44.55,5.16,5.16,0,0,1-.8.59.93.93,0,0,1-.42.06c-.62,0-1.24.07-1.86.15a.48.48,0,0,1-.53-.27.2.2,0,0,1,0-.17,11.51,11.51,0,0,1,1.39-.82,6.64,6.64,0,0,0,1.31-.84A3.56,3.56,0,0,0,29,58c.12-.16.27-.29.38-.45s.36-.53.53-.8A2.34,2.34,0,0,0,30.1,56.39Z"/><path class="cls-8" d="M24.44,62.09l-.78-.31c-.37-.14-.74-.27-1.1-.44s-.91-.45-1.35-.69-.88-.48-1.31-.74c-.07,0-.11-.13-.17-.2l.25-.09c.05,0,.11,0,.14,0,.2-.22.43-.18.68-.13s.69.09,1,.18a6.37,6.37,0,0,1,.77.33s0,0,.07,0c.22,0,.38.12.57.2l.77.31c.15.06.32.09.36.31,0,0,.12,0,.18,0a5.22,5.22,0,0,1,.56.18.31.31,0,0,1,.2.36v.06c.05.12.12.24,0,.34a.61.61,0,0,1-.52.23l-.33,0Z"/><path class="cls-7" d="M29.17,49a.33.33,0,0,1,.35.14,4.2,4.2,0,0,0,.41.44c.11.13.17.31.3.38.3.14.24.43.34.65a8.52,8.52,0,0,1,.33,1l.39,1.17a3,3,0,0,1,0,1.87c0,.11-.09.17-.21.11l0,0c-.15-.08-.45.08-.45-.29a1.74,1.74,0,0,0-.13-.59c-.08-.28-.17-.56-.26-.83s-.09-.27-.14-.4a2.71,2.71,0,0,0-.17-.39,4.46,4.46,0,0,1-.53-1.41c-.05-.29-.18-.56-.21-.85A8.31,8.31,0,0,1,29.17,49Z"/><path class="cls-7" d="M13.42,54.92c.21.31.4.58.58.86s.39.23.61.3a1.09,1.09,0,0,1,.43.52,14.49,14.49,0,0,0,.35,1.48,8.81,8.81,0,0,0,.52,1.18,1.14,1.14,0,0,0,.18.25c0,.05.1.1.1.15s0,.21,0,.31a.63.63,0,0,1-.22-.09c-.33-.33-.66-.66-1-1a6.26,6.26,0,0,1-.6-.76,10.69,10.69,0,0,1-.79-1.34,3.11,3.11,0,0,1-.22-1.65A1.59,1.59,0,0,1,13.42,54.92Z"/><path class="cls-7" d="M14.93,55.26a1.36,1.36,0,0,1-.48-.73,5.63,5.63,0,0,1-.31-1.86,4.39,4.39,0,0,1,0-.73A1.69,1.69,0,0,1,15,51l.25-.12c.18,0,.25,0,.26.21s0,.61.05.91a2.3,2.3,0,0,0,.18.58c.07.16.08.28-.08.39l-.35.23a.35.35,0,0,0-.18.33c0,.28-.09.55-.12.83s0,.52-.05.79C15,55.14,14.94,55.17,14.93,55.26Z"/><path class="cls-7" d="M28.72,47.7l-.11.13a1.58,1.58,0,0,1-.29.22.23.23,0,0,1-.18,0l-1-.66a3.73,3.73,0,0,0-.4-.2L26.29,47c-.21-.11-.23-.22-.14-.43a6.18,6.18,0,0,0,.26-.72.21.21,0,0,1,.3-.14c.15.09.26.24.48.18.06,0,.17.12.24.2l.43.48a.37.37,0,0,1,.07.14c0,.3.12.37.41.36a.29.29,0,0,1,.24.11A4,4,0,0,1,28.72,47.7Z"/><path class="cls-10" d="M23.93,50.22a2,2,0,0,1,.8-1.22c.6-.48,1-.4,1.67,0,.3.18.6.36.89.56a.48.48,0,0,1,.18.67.29.29,0,0,0,0,.16A1.32,1.32,0,0,1,27,51.73a.93.93,0,0,1-.9.27,14,14,0,0,1-1.38-.47,1.39,1.39,0,0,1-.76-.91A1.71,1.71,0,0,1,23.93,50.22Zm2.14,1c.32,0,.41,0,.41-.36a.76.76,0,0,0,0-.16,3.12,3.12,0,0,1,0-.43.23.23,0,0,0-.11-.27,6.48,6.48,0,0,0-.57-.33.46.46,0,0,0-.36,0,.91.91,0,0,0-.31.91A1.27,1.27,0,0,0,26.07,51.18Z"/><path class="cls-10" d="M21.81,51.34a1.85,1.85,0,0,1,1.59,1.2.31.31,0,0,1,0,.23,1.72,1.72,0,0,1-.55.88,1.86,1.86,0,0,0-.4.48.9.9,0,0,1-1.32.15c-.2-.19-.38-.39-.56-.59l-.39-.39a.49.49,0,0,1-.18-.49c0-.21.1-.42.15-.63a.37.37,0,0,1,.05-.11A1.75,1.75,0,0,1,21.81,51.34ZM21,52.6c-.07.17,0,.3.17.43s.2.2.3.31c.22.27.35.29.6,0s.33-.33.27-.56a.88.88,0,0,0-.85-.68C21.19,52.15,21.07,52.26,21,52.6Z"/><path class="cls-10" d="M28.17,55a.62.62,0,0,1-.33.56,3.92,3.92,0,0,1-.65.32.89.89,0,0,1-.51,0,3.74,3.74,0,0,1-.87-.37,2,2,0,0,1-.88-1.08c-.1-.3.12-.48.29-.65a4,4,0,0,1,.55-.45,1.11,1.11,0,0,1,1.3-.06,1.34,1.34,0,0,1,.61.54.85.85,0,0,1,.11.26.45.45,0,0,0,.21.33A.56.56,0,0,1,28.17,55ZM26.4,54l0-.08a1,1,0,0,0-.2.25c0,.07-.06.2,0,.24.21.22.45.42.68.62A.19.19,0,0,0,27,55a.26.26,0,0,0,0-.18,3.18,3.18,0,0,0-.1-.33A.8.8,0,0,0,26.4,54Z"/><path class="cls-10" d="M22.82,57.23a1.89,1.89,0,0,1,1.12-1.38.89.89,0,0,1,.58,0A2.3,2.3,0,0,1,26,57a.21.21,0,0,1,0,.31s-.06.1-.1.14a2.06,2.06,0,0,1-.25.26c-.16.11-.35.18-.51.29a1.65,1.65,0,0,1-1.06.44,3,3,0,0,1-.78-.13A.49.49,0,0,1,23,58,1.63,1.63,0,0,1,22.82,57.23Zm1.09-.14a2.23,2.23,0,0,0,.05.36.31.31,0,0,0,.5.17c.13-.09.26-.19.39-.27s.12-.18,0-.26a3.6,3.6,0,0,0-.4-.28C24.18,56.65,24,56.75,23.91,57.09Z"/><path class="cls-11" d="M26.07,51.18a1.27,1.27,0,0,1-1-.67.91.91,0,0,1,.31-.91.46.46,0,0,1,.36,0,6.48,6.48,0,0,1,.57.33.23.23,0,0,1,.11.27,3.12,3.12,0,0,0,0,.43.76.76,0,0,1,0,.16C26.48,51.15,26.39,51.22,26.07,51.18Z"/><path class="cls-11" d="M21,52.6c0-.34.15-.45.49-.45a.88.88,0,0,1,.85.68c.06.23-.11.41-.27.56s-.38.22-.6,0c-.1-.11-.19-.21-.3-.31S21,52.77,21,52.6Z"/><path class="cls-11" d="M26.4,54a.8.8,0,0,1,.52.51,3.18,3.18,0,0,1,.1.33A.26.26,0,0,1,27,55a.19.19,0,0,1-.19,0c-.23-.2-.47-.4-.68-.62,0,0,0-.17,0-.24a1,1,0,0,1,.2-.25Z"/><path class="cls-11" d="M23.91,57.09c.08-.34.27-.44.57-.28a3.6,3.6,0,0,1,.4.28c.09.08.08.18,0,.26s-.26.18-.39.27a.31.31,0,0,1-.5-.17A2.23,2.23,0,0,1,23.91,57.09Z"/><path class="cls-5" d="M36.12,78c-.83,0-1.57-.07-2.3-.13a2.43,2.43,0,0,1-1.26-.6s-.07-.07-.1-.07a1.1,1.1,0,0,1-.56-.35.22.22,0,0,0-.17,0s-.06.09-.07.14a.84.84,0,0,1-1,.85.75.75,0,0,0-.29,0l-1.25.31a2.81,2.81,0,0,0-.56.18,2.07,2.07,0,0,1-1.74,0c-.61-.29-1.24-.53-1.85-.81a2.84,2.84,0,0,1-1.32-1c-.24-.35-.54-.67-.76-1a8.18,8.18,0,0,1-.44-1,1.49,1.49,0,0,0-.14-.37.4.4,0,0,0-.27-.17,3.41,3.41,0,0,1-2-.66,3,3,0,0,1-1.3-1.48c-.1-.32-.33-.61-.41-.94a3.94,3.94,0,0,1-.14-1.49,10.86,10.86,0,0,1,.28-1.51,5.27,5.27,0,0,1,.44-1.1c.2-.36.48-.66.69-1a.69.69,0,0,0,0-.51c-.05-.15-.23-.25-.32-.39a3.64,3.64,0,0,1-.33-.69,2.93,2.93,0,0,1-.17-1.44,11.49,11.49,0,0,1,.1-1.18c.07-.27.05-.59.28-.82.06-.06.05-.19.08-.28a2,2,0,0,1,.21-.65c.14-.2.15-.49.42-.61.08,0,.11-.21.15-.32.14-.38.51-.53.79-.77A1.91,1.91,0,0,1,22,57.61c.06,0,.17-.14.16-.19a1.59,1.59,0,0,1,.31-1.28,8.57,8.57,0,0,1,1.11-1.3c.49-.43.91-1,1.4-1.38a4.17,4.17,0,0,1,1.14-.79A7.69,7.69,0,0,1,28,52.18a3,3,0,0,1,1.64.23,2.64,2.64,0,0,0,1.55,0,2.22,2.22,0,0,1,1.6.07,3.94,3.94,0,0,0,1,.27.61.61,0,0,1,.18.09l.85.68c.13.12.18.09.24-.07a.38.38,0,0,1,.25-.23,9.29,9.29,0,0,1,4.47.36,21.09,21.09,0,0,1,2,1,3.43,3.43,0,0,1,1.66,2,5.24,5.24,0,0,1,.25,1.31,9.49,9.49,0,0,1,0,1.19.51.51,0,0,0,.22.44,5.93,5.93,0,0,1,1.29,1.05,1.81,1.81,0,0,1,.54,1.07s.08.1.1.16a11.65,11.65,0,0,1,.3,1.3,12.8,12.8,0,0,1,.13,1.64,5.41,5.41,0,0,1-.15,2c-.07.2-.08.43-.14.63a3.29,3.29,0,0,1-.21.42s-.06,0-.06.07c-.09.64-.58,1-.89,1.54a7.32,7.32,0,0,1-1.12,1.3,5,5,0,0,1-1,.77,1.06,1.06,0,0,0-.46.89A8.9,8.9,0,0,1,42,74a9.56,9.56,0,0,1-.67,1.54,3.32,3.32,0,0,1-1.44,1.41,8.37,8.37,0,0,1-1.16.58,11.53,11.53,0,0,1-1.56.41A8,8,0,0,1,36.12,78ZM31.54,57.93c-.43.3-.82.56-1.19.83s-1,.79-1.49,1.17a5,5,0,0,1-1.4.91c-.55.19-1.11.39-1.68.54-.33.09-.41.17-.32.5a2.32,2.32,0,0,1,.06.64c0,.08-.1.16-.1.23,0,.29.07.58.08.87a3.8,3.8,0,0,1-.2,2,4.76,4.76,0,0,0-.36,1,1.55,1.55,0,0,0-.1.86,5.18,5.18,0,0,0,.73,1.24c.48.62,1,1.22,1.52,1.8a3.66,3.66,0,0,0,.77.59c.48.29,1,.54,1.46.8a4.68,4.68,0,0,0,.71.35,2.07,2.07,0,0,1,1.14.66s.15.07.22.06.44-.06.66-.1a.72.72,0,0,0,.21,0l.59-.38c.49-.32,1.12-.36,1.56-.77a2,2,0,0,1,.3-.28c.38-.19.77-.37,1.16-.53a6.65,6.65,0,0,0,.75-.26,2.92,2.92,0,0,1,1.51-.31c.14,0,.21,0,.27-.19a1.68,1.68,0,0,1,.27-.44,2.89,2.89,0,0,0,.27-.44,5.21,5.21,0,0,1,.68-1.5s0-.06,0-.09a1.35,1.35,0,0,1,.14-.37.37.37,0,0,0,0-.52,9.94,9.94,0,0,1-.62-.83,6.79,6.79,0,0,1-.65-1.18,13.15,13.15,0,0,1-.6-1.87,16.54,16.54,0,0,1-.24-1.72s0-.08,0-.12a2.11,2.11,0,0,0,.1-.5c0-.2-.11-.26-.29-.19a3.58,3.58,0,0,1-2.17.11,9.38,9.38,0,0,1-2.54-1.09,4,4,0,0,1-.82-.72A5,5,0,0,1,31.54,57.93Zm9.32,13.94c-.3-.25-.3-.25-.61,0,0,0-.1.06-.14.1-.32.25-.77.34-1,.76A1.12,1.12,0,0,1,39,73a5.84,5.84,0,0,1-1.85,1.46l-.56.26c-.7.31-1.39.64-2.09.94a3.1,3.1,0,0,1-1.78.22.83.83,0,0,0-.22,0l0,.09a3.59,3.59,0,0,0,.84.53,7.33,7.33,0,0,0,3.72.2,13,13,0,0,0,1.39-.39,3.72,3.72,0,0,0,.76-.41,6.86,6.86,0,0,0,.93-.67,4.05,4.05,0,0,0,1-1.51c0-.11.15-.21.18-.32.08-.28.12-.56.19-.84s-.06-.45-.35-.45h-.29Zm-5.6-17.64c.12.17.21.33.33.47s.27.42.58.42.39,0,.59.06a2.21,2.21,0,0,1,1.67.88,6.11,6.11,0,0,1,.88,1.45c0,.09.19.16.3.22a4.82,4.82,0,0,1,.92.51,17.07,17.07,0,0,1,1.34,1.35c.15.15.26.34.41.5s.26.08.28-.1c.06-.53.13-1.06.16-1.59a2.62,2.62,0,0,0,0-1,3.23,3.23,0,0,0-1.5-2,4.19,4.19,0,0,1-.7-.37,3.22,3.22,0,0,0-1.24-.62,7,7,0,0,0-2.69-.3c-.4,0-.79.21-1.2,0C35.33,54.19,35.3,54.22,35.26,54.23Zm6.61,11.9a.78.78,0,0,0,.2-.11,2.5,2.5,0,0,0,.55-2.42,3.88,3.88,0,0,0-.56-1.6c-.07-.09-.11-.22-.19-.31-.3-.41-.59-.82-.93-1.2s-.78-.79-1.18-1.17a.47.47,0,0,0-.31-.16c-.08,0-.18.15-.21.24a12,12,0,0,0-.34,1.31,1.27,1.27,0,0,0,0,.61c.29.84.6,1.67.9,2.5a8.2,8.2,0,0,0,.69,1.47c.19.32.34.61.74.68A4.87,4.87,0,0,1,41.87,66.13ZM24.76,58.49a.72.72,0,0,0-1,.32l-.1.11A.67.67,0,0,0,24,60a1,1,0,0,0,.27.13,1.78,1.78,0,0,0,.68.1,6.42,6.42,0,0,0,2.17-.62c.4-.23.82-.43,1.2-.68a6.09,6.09,0,0,0,.95-.72,2.59,2.59,0,0,0,.88-1.33c.09-.43,0-.53-.39-.61a2,2,0,0,0-.59,0c-.33.06-.65.2-1,.25a1,1,0,0,0-.67.47c-.17.23-.34.25-.55.05s-.15-.13-.2-.11a4.14,4.14,0,0,0-.61.26c-.34.19-.65.42-1,.58a.55.55,0,0,0-.36.58Zm20.52,4.63a10.28,10.28,0,0,0-.37-1.26,2.74,2.74,0,0,0-1.18-1.18c-.15-.1-.28-.09-.36.09a2.32,2.32,0,0,0-.21.37.69.69,0,0,0,0,.4c.06.24.19.47.26.71s.19.68.28,1a2.42,2.42,0,0,1,.14,1.19q-.06.32-.15.63a3.07,3.07,0,0,1-.18.61,3.17,3.17,0,0,0-.43,1.64,4.9,4.9,0,0,1-.56,2.09c0,.06-.11.11-.14.18a4.77,4.77,0,0,0-.26.66c-.05.16,0,.23.2.14a2,2,0,0,0,.44-.32,21.85,21.85,0,0,0,1.81-2.26,4.5,4.5,0,0,0,.73-2.38C45.28,64.71,45.28,64,45.28,63.12ZM21.06,65.59,21,65.51a2.27,2.27,0,0,0-.34.19,3.72,3.72,0,0,0-.76,1.19A5.85,5.85,0,0,0,19.39,68a6,6,0,0,0-.24,2.2,1.48,1.48,0,0,0,.07.42,3.19,3.19,0,0,0,1.45,1.72,2.3,2.3,0,0,0,1.37.41c.32,0,.63-.1.95-.16.1,0,.2-.07.1-.21a.29.29,0,0,1,0-.16c-.08-.52-.15-1-.22-1.56a.45.45,0,0,0-.43-.43,3.06,3.06,0,0,1-.72-.19,1.41,1.41,0,0,1-1-1.35c0-.45,0-.91.07-1.37s.08-.83.14-1.25A2.81,2.81,0,0,1,21.06,65.59ZM37.64,58.4a1.67,1.67,0,0,0,.53-.49c.18-.28.2-.5-.07-.69s-.45-.23-.67-.36a5.31,5.31,0,0,0-1.93-.54,7.61,7.61,0,0,0-1.72,0,5.06,5.06,0,0,0-1.07.26.45.45,0,0,0-.16.75,4.9,4.9,0,0,0,.85.73,18.54,18.54,0,0,0,1.78.9,3.09,3.09,0,0,0,1.78.23,1.11,1.11,0,0,0,.49-.13,3.14,3.14,0,0,0,.47-.49Zm-10,18.94c.55-.13,1-.23,1.53-.37.31-.08.6-.27.91-.32A1.3,1.3,0,0,0,31,75.46c0-.14,0-.42-.27-.4a11,11,0,0,0-1.26.19,8.88,8.88,0,0,1-1.31.31A4.34,4.34,0,0,1,25.32,75a10.59,10.59,0,0,1-1.46-1.2.44.44,0,0,0-.52-.07c-.16.13-.06.27,0,.4.26.51.51,1,.79,1.52a1.61,1.61,0,0,0,.45.45,5.25,5.25,0,0,0,.49.33c.09,0,.16.12.25.16.39.16.77.32,1.16.45S27.28,77.24,27.65,77.34ZM22.78,58.27l-.08-.05a3.86,3.86,0,0,0-1.59.86,4.4,4.4,0,0,0-1.18,2.23,8.94,8.94,0,0,0-.11,1,3.36,3.36,0,0,0,.12,1.54.63.63,0,0,0,.94.38.3.3,0,0,1,.16,0c.29,0,.37,0,.46-.31a10.36,10.36,0,0,1,.43-1,3.53,3.53,0,0,0,.5-1.38c0-.08.12-.17.19-.24a1,1,0,0,1,.2-.14l-.1.06a2.06,2.06,0,0,1-.23-.37,1.41,1.41,0,0,1-.06-1.12,2,2,0,0,0,0-.34,5,5,0,0,1,.1-.56A5.49,5.49,0,0,1,22.78,58.27ZM29.7,73.65a3.89,3.89,0,0,1-.49-.14c-.36-.16-.71-.33-1.05-.52s-.4-.27-.61-.4a4,4,0,0,1-.85-.51,8.15,8.15,0,0,1-1.22-1.45,13.86,13.86,0,0,0-1.21-1.56.21.21,0,0,0-.22,0,.58.58,0,0,0-.24.68c.19.74.32,1.5.47,2.24a1.27,1.27,0,0,0,.14.5,7,7,0,0,0,.84.88,3.75,3.75,0,0,0,.74.45,4.26,4.26,0,0,0,.85.36,3.68,3.68,0,0,0,.82.08A2.74,2.74,0,0,0,29.7,73.65Zm-7.81-6,.06,0v.4a.82.82,0,0,0,.37.6c.14.12.28,0,.41,0h.07a.39.39,0,0,0,.41-.3,5.55,5.55,0,0,0,.13-.71c0-.08,0-.22,0-.23.25-.08.27-.3.32-.48s.17-.66.25-1,.22-.47.16-.74c0,0,0,0,.05-.08a7,7,0,0,0,.27-1c.06-.41,0-.84.06-1.27a.8.8,0,0,0-.26-.81s0-.11,0-.16-.09-.19-.14-.29c-.08.08-.18.14-.22.23-.25.57-.48,1.14-.7,1.71s-.44,1.16-.63,1.75-.24.93-.36,1.4S22,67.34,21.89,67.67Zm16.66,3.7a9.54,9.54,0,0,0-1.21.12c-.34.08-.66.28-1,.38a5.51,5.51,0,0,0-1.62.87,4,4,0,0,1-.45.26l-.46.24-1,.44a2.7,2.7,0,0,1-.7.26c-.46,0-.2.38-.28.58,0,0,0,0,0,0-.06.16,0,.22.16.24a3.66,3.66,0,0,0,2.28-.28l1.36-.65a11.45,11.45,0,0,0,1.17-.56c.25-.15.62-.14.74-.51.06-.17.28-.28.41-.43a4.39,4.39,0,0,1,.48-.57A.37.37,0,0,0,38.55,71.37Zm-9.67-18.2a.79.79,0,0,0-.25-.05,3.66,3.66,0,0,0-2,.52,14.07,14.07,0,0,0-1.51,1.16,8.43,8.43,0,0,0-.83.86c-.37.43-.72.88-1.07,1.32-.06.08-.05.19-.08.29a2.54,2.54,0,0,0,.39,0c.06,0,.11-.09.16-.14a2.29,2.29,0,0,1,.27-.27,12.5,12.5,0,0,1,1.36-.81,18.21,18.21,0,0,1,1.74-.65,1.28,1.28,0,0,0,.56-.61c.06-.27,0-.57.28-.78Zm-.18,1.89h.2l1-.06a8.68,8.68,0,0,0,1,0,.45.45,0,0,1,.43.17l.34.39c.15.18.3.15.48,0a2.9,2.9,0,0,1,.67-.31c.36-.09.74-.14,1.11-.2.21,0,.3-.14.21-.35a1.73,1.73,0,0,0-.19-.28,2,2,0,0,0-1.33-.85,3.81,3.81,0,0,0-.88.09,6.57,6.57,0,0,0-2.21.66A1.62,1.62,0,0,0,28.7,55.06ZM40,70.62a6.11,6.11,0,0,0,.64-.26.35.35,0,0,0,.1-.3c-.06-.35,0-.47.36-.56a.44.44,0,0,0,.16-.1l.53-.6c.08-.1.22-.25.19-.33-.09-.25.07-.41.15-.61a.25.25,0,0,0-.21-.34,7.18,7.18,0,0,1-.92-.2c-.26-.08-.39,0-.49.23s-.13.4-.19.59a4,4,0,0,1-.18.52c-.21.44-.44.87-.65,1.31a.24.24,0,0,0,0,.22,2.34,2.34,0,0,0,.31.32Z"/><path class="cls-7" d="M31.54,57.93a5,5,0,0,0,.45.68,4,4,0,0,0,.82.72,9.38,9.38,0,0,0,2.54,1.09,3.58,3.58,0,0,0,2.17-.11c.18-.07.3,0,.29.19a2.11,2.11,0,0,1-.1.5s0,.08,0,.12a16.54,16.54,0,0,0,.24,1.72,13.15,13.15,0,0,0,.6,1.87,6.79,6.79,0,0,0,.65,1.18,9.94,9.94,0,0,0,.62.83.37.37,0,0,1,0,.52,1.35,1.35,0,0,0-.14.37s0,.07,0,.09a5.21,5.21,0,0,0-.68,1.5,2.89,2.89,0,0,1-.27.44,1.68,1.68,0,0,0-.27.44c-.06.14-.13.2-.27.19a2.92,2.92,0,0,0-1.51.31,6.65,6.65,0,0,1-.75.26c-.39.16-.78.34-1.16.53a2,2,0,0,0-.3.28c-.44.41-1.07.45-1.56.77l-.59.38a.72.72,0,0,1-.21,0c-.22,0-.44.08-.66.1s-.19,0-.22-.06A2.07,2.07,0,0,0,30,72.23a4.68,4.68,0,0,1-.71-.35c-.49-.26-1-.51-1.46-.8a3.66,3.66,0,0,1-.77-.59c-.53-.58-1-1.18-1.52-1.8a5.18,5.18,0,0,1-.73-1.24,1.55,1.55,0,0,1,.1-.86,4.76,4.76,0,0,1,.36-1,3.8,3.8,0,0,0,.2-2c0-.29-.07-.58-.08-.87,0-.07.1-.15.1-.23a2.32,2.32,0,0,0-.06-.64c-.09-.33,0-.41.32-.5.57-.15,1.13-.35,1.68-.54a5,5,0,0,0,1.4-.91c.5-.38,1-.79,1.49-1.17S31.11,58.23,31.54,57.93Zm4.69,7.27a2.5,2.5,0,0,0-.49.09,1.68,1.68,0,0,0-1,1.07,17.14,17.14,0,0,0-.36,1.76,1.15,1.15,0,0,0,.47,1,1.64,1.64,0,0,0,1.72.35.31.31,0,0,1,.19,0c.4.09.6,0,.78-.33A12.39,12.39,0,0,0,38.1,68c.37-.89.41-1.37-.26-2A2.52,2.52,0,0,0,36.23,65.2Zm-1.69-2.4A2.15,2.15,0,0,0,33.4,61a.34.34,0,0,0-.14-.05l-.8-.09a.62.62,0,0,0-.57.3c-.12.18-.27.36-.41.53s-.43.5-.62.77A1.11,1.11,0,0,0,31.24,64a2.17,2.17,0,0,1,.65.41,2.14,2.14,0,0,0,1.15.53.37.37,0,0,0,.29,0A2.26,2.26,0,0,0,34.54,62.8ZM31.1,71.09a.66.66,0,0,0,.7-.3.59.59,0,0,1,.37-.31,1.11,1.11,0,0,0,.3-.17,1.59,1.59,0,0,0,.56-.83,1.35,1.35,0,0,0-.26-1.57,7.22,7.22,0,0,0-.64-.6c-.24-.18-.48-.41-.83-.24a2.44,2.44,0,0,0-1.18,1.23,4.15,4.15,0,0,0-.31,1.11,1,1,0,0,0,.07.62,4.6,4.6,0,0,0,.49.75A.76.76,0,0,0,31.1,71.09Zm-3.56-6.15a2.1,2.1,0,0,0-.95.38.62.62,0,0,0-.29.37,3.78,3.78,0,0,0,0,1,2,2,0,0,0,.7,1.23c.16.17.27.39.43.57a1.87,1.87,0,0,0,.35.26c.06,0,.14.06.19.1a.26.26,0,0,0,.38,0,2.82,2.82,0,0,0,1.15-2,1.2,1.2,0,0,0-.07-.71A2.33,2.33,0,0,0,27.54,64.94Z"/><path class="cls-8" d="M40.86,71.87l-.08.26h.29c.29,0,.41.16.35.45s-.11.56-.19.84c0,.11-.14.21-.18.32a4.05,4.05,0,0,1-1,1.51,6.86,6.86,0,0,1-.93.67,3.72,3.72,0,0,1-.76.41,13,13,0,0,1-1.39.39,7.33,7.33,0,0,1-3.72-.2,3.59,3.59,0,0,1-.84-.53l0-.09a.83.83,0,0,1,.22,0,3.1,3.1,0,0,0,1.78-.22c.7-.3,1.39-.63,2.09-.94l.56-.26A5.84,5.84,0,0,0,39,73a1.12,1.12,0,0,0,.19-.29c.2-.42.65-.51,1-.76,0,0,.1-.06.14-.1C40.56,71.62,40.56,71.62,40.86,71.87Z"/><path class="cls-8" d="M35.26,54.23s.07,0,.1,0c.41.16.8,0,1.2,0a7,7,0,0,1,2.69.3,3.22,3.22,0,0,1,1.24.62,4.19,4.19,0,0,0,.7.37,3.23,3.23,0,0,1,1.5,2,2.62,2.62,0,0,1,0,1c0,.53-.1,1.06-.16,1.59,0,.18-.14.23-.28.1s-.26-.35-.41-.5a17.07,17.07,0,0,0-1.34-1.35,4.82,4.82,0,0,0-.92-.51c-.11-.06-.27-.13-.3-.22a6.11,6.11,0,0,0-.88-1.45,2.21,2.21,0,0,0-1.67-.88c-.2,0-.4-.06-.59-.06s-.42-.23-.58-.42S35.38,54.4,35.26,54.23Z"/><path class="cls-9" d="M41.87,66.13a4.87,4.87,0,0,0-.6-.16c-.4-.07-.55-.36-.74-.68a8.2,8.2,0,0,1-.69-1.47c-.3-.83-.61-1.66-.9-2.5a1.27,1.27,0,0,1,0-.61,12,12,0,0,1,.34-1.31c0-.09.13-.23.21-.24a.47.47,0,0,1,.31.16c.4.38.81.76,1.18,1.17s.63.79.93,1.2c.08.09.12.22.19.31a3.88,3.88,0,0,1,.56,1.6A2.5,2.5,0,0,1,42.07,66,.78.78,0,0,1,41.87,66.13Z"/><path class="cls-9" d="M24.76,58.49v-.15a.55.55,0,0,1,.36-.58c.34-.16.65-.39,1-.58a4.14,4.14,0,0,1,.61-.26c.05,0,.14.06.2.11s.38.18.55-.05a1,1,0,0,1,.67-.47c.33,0,.65-.19,1-.25a2,2,0,0,1,.59,0c.44.08.48.18.39.61a2.59,2.59,0,0,1-.88,1.33,6.09,6.09,0,0,1-.95.72c-.38.25-.8.45-1.2.68a6.42,6.42,0,0,1-2.17.62,1.78,1.78,0,0,1-.68-.1A1,1,0,0,1,24,60a.67.67,0,0,1-.24-1.09l.1-.11A.72.72,0,0,1,24.76,58.49Z"/><path class="cls-7" d="M45.28,63.12c0,.83,0,1.59,0,2.34a4.5,4.5,0,0,1-.73,2.38,21.85,21.85,0,0,1-1.81,2.26,2,2,0,0,1-.44.32c-.15.09-.25,0-.2-.14a4.77,4.77,0,0,1,.26-.66c0-.07.11-.12.14-.18a4.9,4.9,0,0,0,.56-2.09,3.17,3.17,0,0,1,.43-1.64,3.07,3.07,0,0,0,.18-.61q.09-.31.15-.63a2.42,2.42,0,0,0-.14-1.19c-.09-.35-.17-.69-.28-1s-.2-.47-.26-.71a.69.69,0,0,1,0-.4,2.32,2.32,0,0,1,.21-.37c.08-.18.21-.19.36-.09a2.74,2.74,0,0,1,1.18,1.18A10.28,10.28,0,0,1,45.28,63.12Z"/><path class="cls-8" d="M21.06,65.59a2.81,2.81,0,0,0-.16.49c-.06.42-.11.83-.14,1.25s-.07.92-.07,1.37a1.41,1.41,0,0,0,1,1.35,3.06,3.06,0,0,0,.72.19.45.45,0,0,1,.43.43c.07.52.14,1,.22,1.56a.29.29,0,0,0,0,.16c.1.14,0,.19-.1.21-.32.06-.63.12-.95.16a2.3,2.3,0,0,1-1.37-.41,3.19,3.19,0,0,1-1.45-1.72,1.48,1.48,0,0,1-.07-.42,6,6,0,0,1,.24-2.2,5.85,5.85,0,0,1,.49-1.12,3.72,3.72,0,0,1,.76-1.19,2.27,2.27,0,0,1,.34-.19Z"/><path class="cls-9" d="M37.64,58.4l.28.19a3.14,3.14,0,0,1-.47.49,1.11,1.11,0,0,1-.49.13A3.09,3.09,0,0,1,35.18,59a18.54,18.54,0,0,1-1.78-.9,4.9,4.9,0,0,1-.85-.73.45.45,0,0,1,.16-.75,5.06,5.06,0,0,1,1.07-.26,7.61,7.61,0,0,1,1.72,0,5.31,5.31,0,0,1,1.93.54c.22.13.46.22.67.36s.25.41.07.69A1.67,1.67,0,0,1,37.64,58.4Z"/><path class="cls-7" d="M27.65,77.34c-.37-.1-.77-.2-1.16-.33s-.77-.29-1.16-.45c-.09,0-.16-.11-.25-.16a5.25,5.25,0,0,1-.49-.33,1.61,1.61,0,0,1-.45-.45c-.28-.49-.53-1-.79-1.52-.07-.13-.17-.27,0-.4a.44.44,0,0,1,.52.07A10.59,10.59,0,0,0,25.32,75a4.34,4.34,0,0,0,2.82.59,8.88,8.88,0,0,0,1.31-.31,11,11,0,0,1,1.26-.19c.23,0,.26.26.27.4a1.3,1.3,0,0,1-.89,1.19c-.31,0-.6.24-.91.32C28.69,77.11,28.2,77.21,27.65,77.34Z"/><path class="cls-7" d="M22.78,58.27a5.49,5.49,0,0,0-.21.51,5,5,0,0,0-.1.56,2,2,0,0,1,0,.34,1.41,1.41,0,0,0,.06,1.12,2.06,2.06,0,0,0,.23.37l.1-.06a1,1,0,0,0-.2.14c-.07.07-.18.16-.19.24a3.53,3.53,0,0,1-.5,1.38,10.36,10.36,0,0,0-.43,1c-.09.26-.17.33-.46.31a.3.3,0,0,0-.16,0,.63.63,0,0,1-.94-.38,3.36,3.36,0,0,1-.12-1.54,8.94,8.94,0,0,1,.11-1,4.4,4.4,0,0,1,1.18-2.23,3.86,3.86,0,0,1,1.59-.86Z"/><path class="cls-9" d="M29.7,73.65a2.74,2.74,0,0,1-2,.6,3.68,3.68,0,0,1-.82-.08,4.26,4.26,0,0,1-.85-.36,3.75,3.75,0,0,1-.74-.45,7,7,0,0,1-.84-.88,1.27,1.27,0,0,1-.14-.5c-.15-.74-.28-1.5-.47-2.24a.58.58,0,0,1,.24-.68.21.21,0,0,1,.22,0,13.86,13.86,0,0,1,1.21,1.56,8.15,8.15,0,0,0,1.22,1.45,4,4,0,0,0,.85.51c.21.13.4.28.61.4s.69.36,1.05.52A3.89,3.89,0,0,0,29.7,73.65Z"/><path class="cls-8" d="M21.89,67.67c.08-.33.17-.67.25-1s.22-.94.36-1.4.41-1.17.63-1.75.45-1.14.7-1.71c0-.09.14-.15.22-.23.05.1.1.19.14.29s0,.14,0,.16a.8.8,0,0,1,.26.81c0,.43,0,.86-.06,1.27a7,7,0,0,1-.27,1s-.05.06-.05.08c.06.27-.1.49-.16.74s-.16.65-.25,1-.07.4-.32.48c0,0,0,.15,0,.23a5.55,5.55,0,0,1-.13.71.39.39,0,0,1-.41.3h-.07c-.13.07-.27.17-.41,0a.82.82,0,0,1-.37-.6v-.4Z"/><path class="cls-7" d="M38.55,71.37a.37.37,0,0,1-.11.44,4.39,4.39,0,0,0-.48.57c-.13.15-.35.26-.41.43-.12.37-.49.36-.74.51a11.45,11.45,0,0,1-1.17.56l-1.36.65a3.66,3.66,0,0,1-2.28.28c-.13,0-.22-.08-.16-.24,0,0,0,0,0,0,.08-.2-.18-.53.28-.58a2.7,2.7,0,0,0,.7-.26l1-.44.46-.24a4,4,0,0,0,.45-.26,5.51,5.51,0,0,1,1.62-.87c.34-.1.66-.3,1-.38A9.54,9.54,0,0,1,38.55,71.37Z"/><path class="cls-7" d="M28.88,53.17l-.95.84c-.25.21-.22.51-.28.78a1.28,1.28,0,0,1-.56.61,18.21,18.21,0,0,0-1.74.65,12.5,12.5,0,0,0-1.36.81,2.29,2.29,0,0,0-.27.27s-.1.13-.16.14a2.54,2.54,0,0,1-.39,0c0-.1,0-.21.08-.29.35-.44.7-.89,1.07-1.32a8.43,8.43,0,0,1,.83-.86,14.07,14.07,0,0,1,1.51-1.16,3.66,3.66,0,0,1,2-.52A.79.79,0,0,1,28.88,53.17Z"/><path class="cls-7" d="M28.7,55.06a1.62,1.62,0,0,1,.82-.7,6.57,6.57,0,0,1,2.21-.66,3.81,3.81,0,0,1,.88-.09,2,2,0,0,1,1.33.85,1.73,1.73,0,0,1,.19.28c.09.21,0,.31-.21.35-.37.06-.75.11-1.11.2a2.9,2.9,0,0,0-.67.31c-.18.11-.33.14-.48,0l-.34-.39a.45.45,0,0,0-.43-.17,8.68,8.68,0,0,1-1,0l-1,.06Z"/><path class="cls-7" d="M40,70.62l-.18-.11a2.34,2.34,0,0,1-.31-.32.24.24,0,0,1,0-.22c.21-.44.44-.87.65-1.31a4,4,0,0,0,.18-.52c.06-.19.12-.39.19-.59s.23-.31.49-.23a7.18,7.18,0,0,0,.92.2.25.25,0,0,1,.21.34c-.08.2-.24.36-.15.61,0,.08-.11.23-.19.33l-.53.6a.44.44,0,0,1-.16.1c-.35.09-.42.21-.36.56a.35.35,0,0,1-.1.3A6.11,6.11,0,0,1,40,70.62Z"/><path class="cls-10" d="M36.23,65.2a2.52,2.52,0,0,1,1.61.78c.67.65.63,1.13.26,2a12.39,12.39,0,0,1-.54,1.17c-.18.35-.38.42-.78.33a.31.31,0,0,0-.19,0,1.64,1.64,0,0,1-1.72-.35,1.15,1.15,0,0,1-.47-1,17.14,17.14,0,0,1,.36-1.76,1.68,1.68,0,0,1,1-1.07A2.5,2.5,0,0,1,36.23,65.2Zm-.83,2.74c0,.4.09.5.5.44l.19,0a3.12,3.12,0,0,1,.52-.08.28.28,0,0,0,.31-.19c.1-.24.23-.48.31-.73a.63.63,0,0,0,0-.45,1.12,1.12,0,0,0-1.15-.23A1.52,1.52,0,0,0,35.4,67.94Z"/><path class="cls-10" d="M34.54,62.8a2.26,2.26,0,0,1-1.21,2.11.37.37,0,0,1-.29,0,2.14,2.14,0,0,1-1.15-.53,2.17,2.17,0,0,0-.65-.41,1.11,1.11,0,0,1-.38-1.59c.19-.27.42-.51.62-.77s.29-.35.41-.53a.62.62,0,0,1,.57-.3l.8.09a.34.34,0,0,1,.14.05A2.15,2.15,0,0,1,34.54,62.8Zm-1.65-.74c-.22-.06-.37.09-.5.28s-.22.27-.33.4c-.3.32-.3.48,0,.74s.45.36.73.24a1.05,1.05,0,0,0,.68-1.13C33.46,62.17,33.31,62.05,32.89,62.06Z"/><path class="cls-10" d="M31.1,71.09a.76.76,0,0,1-.73-.31,4.6,4.6,0,0,1-.49-.75,1,1,0,0,1-.07-.62,4.15,4.15,0,0,1,.31-1.11,2.44,2.44,0,0,1,1.18-1.23c.35-.17.59.06.83.24a7.22,7.22,0,0,1,.64.6A1.35,1.35,0,0,1,33,69.48a1.59,1.59,0,0,1-.56.83,1.11,1.11,0,0,1-.3.17.59.59,0,0,0-.37.31A.66.66,0,0,1,31.1,71.09Zm1-2.31.09-.07a1.31,1.31,0,0,0-.33-.21c-.09,0-.25,0-.29,0-.24.3-.45.61-.66.93a.27.27,0,0,0,0,.23.31.31,0,0,0,.23,0,1.84,1.84,0,0,0,.38-.17A1,1,0,0,0,32.07,68.78Z"/><path class="cls-10" d="M27.54,64.94a2.33,2.33,0,0,1,1.86,1.15,1.2,1.2,0,0,1,.07.71,2.82,2.82,0,0,1-1.15,2,.26.26,0,0,1-.38,0c-.05,0-.13-.06-.19-.1a1.87,1.87,0,0,1-.35-.26c-.16-.18-.27-.4-.43-.57a2,2,0,0,1-.7-1.23,3.78,3.78,0,0,1,0-1,.62.62,0,0,1,.29-.37A2.1,2.1,0,0,1,27.54,64.94Zm.34,1.3a2.9,2.9,0,0,0-.42.12.39.39,0,0,0-.14.64l.4.42c.11.13.22.12.31,0a2.69,2.69,0,0,0,.28-.53C28.45,66.5,28.3,66.29,27.88,66.24Z"/><path class="cls-11" d="M35.4,67.94a1.52,1.52,0,0,1,.66-1.29,1.12,1.12,0,0,1,1.15.23.63.63,0,0,1,0,.45c-.08.25-.21.49-.31.73a.28.28,0,0,1-.31.19,3.12,3.12,0,0,0-.52.08l-.19,0C35.49,68.44,35.39,68.34,35.4,67.94Z"/><path class="cls-11" d="M32.89,62.06c.42,0,.57.11.61.53a1.05,1.05,0,0,1-.68,1.13c-.28.12-.52-.07-.73-.24s-.33-.42,0-.74c.11-.13.23-.26.33-.4S32.67,62,32.89,62.06Z"/><path class="cls-11" d="M32.07,68.78a1,1,0,0,1-.54.71,1.84,1.84,0,0,1-.38.17.31.31,0,0,1-.23,0,.27.27,0,0,1,0-.23c.21-.32.42-.63.66-.93,0-.05.2,0,.29,0a1.31,1.31,0,0,1,.33.21Z"/><path class="cls-11" d="M27.88,66.24c.42.05.57.26.43.65a2.69,2.69,0,0,1-.28.53c-.09.12-.2.13-.31,0l-.4-.42a.39.39,0,0,1,.14-.64A2.9,2.9,0,0,1,27.88,66.24Z"/><path class="cls-5" d="M61.93,53.08a6.85,6.85,0,0,0-.37-1.33,5.42,5.42,0,0,1-.19-3.51c.09-.51.25-1,.37-1.53,0-.11.06-.22.1-.33.31-.82.65-.92,1.28-.32s1,1,1.54,1.59c.07,0,.17-.1.2-.17a14,14,0,0,0,.88-2.75,6.07,6.07,0,0,1,3.65,6.14c0,.34,0,.68-.07,1,0,.54.13.7.67.63.7-.09,1.4-.19,2.11-.26a5.33,5.33,0,0,1,3.84,1.16.53.53,0,0,1,.12.88,9.13,9.13,0,0,1-.85.79c-.35.31-.34.31-.08.72a.8.8,0,0,1,.14.49,3.38,3.38,0,0,1-2.29,3c-.49.17-1,.41-1.51.66a4.86,4.86,0,0,0,.39.58,4.4,4.4,0,0,1,1,3.07,14.3,14.3,0,0,1-.17,1.84A4.12,4.12,0,0,1,72.06,67c-.23.44-.54.63-1.13.25a7.76,7.76,0,0,1-.61-.55,2.37,2.37,0,0,0-.4-.21c0,.2-.08.35-.1.49-.07.51-.44.72-.87.43A6.26,6.26,0,0,1,66.6,65c-.08-.16-.19-.3-.29-.46a7.85,7.85,0,0,1-1,1,10.51,10.51,0,0,1-1.69.9,6.21,6.21,0,0,1-2.56.68,3.32,3.32,0,0,1-.55,0,.93.93,0,0,1-.69-1.27c0-.06.07-.12.09-.18.19-.46.08-.64-.4-.64a2.75,2.75,0,0,1-.41,0c-.78-.11-1-.43-.71-1.18.15-.43.38-.83.54-1.25a8,8,0,0,1,1.27-2.19s0-.13.08-.29a3,3,0,0,0-.63-.12c-.84,0-1.69.1-2.54.13a2.75,2.75,0,0,1-.81-.07.78.78,0,0,1-.51-1.27,10.24,10.24,0,0,1,.77-1c-.14-.38-.52-.44-.8-.61-.6-.34-.64-.46-.38-1.08l.09-.26a3.46,3.46,0,0,1,2.43-2.39A10.33,10.33,0,0,1,61.93,53.08Zm4.48-6.64a5.24,5.24,0,0,0-.8,1.84,1.28,1.28,0,0,0,.16,1.11.41.41,0,0,1-.15.6.9.9,0,0,1-.64.06,1.43,1.43,0,0,1-.45-.49c-.31-.48-.6-1-.91-1.46a3.69,3.69,0,0,0-.43-.53c-.39-.4-.61-.36-.78.14-.07.22-.1.44-.18.65a5.28,5.28,0,0,0,0,3.51c.24.72.53,1.42.82,2.13.11.25.3.46.42.71,0,.09,0,.33,0,.35a.79.79,0,0,1-.43,0c-.07,0-.12-.14-.16-.22a1.25,1.25,0,0,0-1.11-.68,9.15,9.15,0,0,0-3.21.27,3.3,3.3,0,0,0-1.92,1.24c-.35.47-.31.67.24.94.27.13.56.2.83.34a.55.55,0,0,1,.26.85c-.14.28-.31.54-.52.9.22.1.42.26.61.25.64,0,1.28-.1,1.91-.19s1.4-.25,2.1-.33a1.56,1.56,0,0,1,.79.16c.36.18.38.49.11.79a3.77,3.77,0,0,1-.48.4,7.5,7.5,0,0,0-2.69,3.47c-.2.56-.11.68.51.63a3.76,3.76,0,0,1,.82,0c.61.07.76.4.48.94-.19.35-.35.72-.58,1.22a4.52,4.52,0,0,0,1-.15,16.84,16.84,0,0,0,2.23-1.06A3.26,3.26,0,0,0,66,61.72a7.48,7.48,0,0,1,0-.82c0-.25.1-.47.38-.5a.56.56,0,0,1,.59.38,1.86,1.86,0,0,1,.08.41c.08.75.19,1.5.21,2.26a3.66,3.66,0,0,0,1.31,2.41c.08.08.24.06.4.09a2.18,2.18,0,0,0,.12-.43c0-.32.05-.66.43-.77s.65.15.89.39a3.47,3.47,0,0,1,.29.38c.13.15.28.29.41.42a1,1,0,0,0,.54-.82,6.76,6.76,0,0,0,.07-2.65,3,3,0,0,0-1.06-1.94c-.48-.39-1-.75-1.47-1.13a.67.67,0,0,1-.25-.9c.21-.33.5-.24.79-.13a3.16,3.16,0,0,0,.66.21,1.86,1.86,0,0,0,.81,0,5.24,5.24,0,0,0,2.07-1,1.65,1.65,0,0,0,.63-1c-.77-.38-.77-.38-.77-1,.58-.59,1.42-.92,1.86-1.81a7.93,7.93,0,0,0-.85-.36,7.4,7.4,0,0,0-3.47,0c-.6.12-1.22.21-1.83.27s-.9-.24-.91-.85c0-.11,0-.22,0-.34.06-.64.14-1.27.17-1.92a5.14,5.14,0,0,0-.59-3A2.68,2.68,0,0,0,66.41,46.44Z"/><path class="cls-12" d="M66.41,46.44a2.68,2.68,0,0,1,1.16,1.15,5.14,5.14,0,0,1,.59,3c0,.65-.11,1.28-.17,1.92,0,.12,0,.23,0,.34,0,.61.31.91.91.85s1.23-.15,1.83-.27a7.4,7.4,0,0,1,3.47,0,7.93,7.93,0,0,1,.85.36c-.44.89-1.28,1.22-1.86,1.81,0,.65,0,.65.77,1a1.65,1.65,0,0,1-.63,1,5.24,5.24,0,0,1-2.07,1,1.86,1.86,0,0,1-.81,0,3.16,3.16,0,0,1-.66-.21c-.29-.11-.58-.2-.79.13a.67.67,0,0,0,.25.9c.49.38,1,.74,1.47,1.13a3,3,0,0,1,1.06,1.94,6.76,6.76,0,0,1-.07,2.65,1,1,0,0,1-.54.82c-.13-.13-.28-.27-.41-.42a3.47,3.47,0,0,0-.29-.38c-.24-.24-.49-.52-.89-.39s-.39.45-.43.77A2.18,2.18,0,0,1,69,66c-.16,0-.32,0-.4-.09a3.66,3.66,0,0,1-1.31-2.41c0-.76-.13-1.51-.21-2.26a1.86,1.86,0,0,0-.08-.41.56.56,0,0,0-.59-.38c-.28,0-.38.25-.38.5a7.48,7.48,0,0,0,0,.82,3.26,3.26,0,0,1-1.8,3.07A16.84,16.84,0,0,1,62,65.85,4.52,4.52,0,0,1,61,66c.23-.5.39-.87.58-1.22.28-.54.13-.87-.48-.94a3.76,3.76,0,0,0-.82,0c-.62,0-.71-.07-.51-.63a7.5,7.5,0,0,1,2.69-3.47,3.77,3.77,0,0,0,.48-.4c.27-.3.25-.61-.11-.79a1.56,1.56,0,0,0-.79-.16c-.7.08-1.4.24-2.1.33s-1.27.16-1.91.19c-.19,0-.39-.15-.61-.25.21-.36.38-.62.52-.9a.55.55,0,0,0-.26-.85c-.27-.14-.56-.21-.83-.34-.55-.27-.59-.47-.24-.94a3.3,3.3,0,0,1,1.92-1.24,9.15,9.15,0,0,1,3.21-.27,1.25,1.25,0,0,1,1.11.68c0,.08.09.2.16.22a.79.79,0,0,0,.43,0s.06-.26,0-.35c-.12-.25-.31-.46-.42-.71-.29-.71-.58-1.41-.82-2.13a5.28,5.28,0,0,1,0-3.51c.08-.21.11-.43.18-.65.17-.5.39-.54.78-.14a3.69,3.69,0,0,1,.43.53c.31.48.6,1,.91,1.46a1.43,1.43,0,0,0,.45.49.9.9,0,0,0,.64-.06.41.41,0,0,0,.15-.6,1.28,1.28,0,0,1-.16-1.11A5.24,5.24,0,0,1,66.41,46.44ZM65,55.72a.61.61,0,0,0-.63-.63c-.22,0-.41.08-.4.37s.29.66.61.58S64.89,55.8,65,55.72Zm1.87,1.78a.54.54,0,0,0-.55-.52.36.36,0,0,0-.35.42.44.44,0,0,0,.52.41A1.22,1.22,0,0,0,66.86,57.5Zm0-2.49a1.5,1.5,0,0,0-.15.38.36.36,0,0,0,.44.4c.22,0,.4-.13.38-.39A.58.58,0,0,0,66.84,55ZM65.68,57.9a2.42,2.42,0,0,0-.65-.31c-.23,0-.31.15-.28.35s.19.45.44.41S65.45,58.12,65.68,57.9Z"/><ellipse class="cls-13" cx="66.11" cy="56.7" rx="2.91" ry="2.9" transform="translate(-3.52 4.39) rotate(-3.7)"/><path class="cls-14" d="M65.48,56.81c-.1.09-.24.29-.42.33a.55.55,0,0,1-.61-.58c0-.29.18-.36.4-.37A.6.6,0,0,1,65.48,56.81Z"/><path class="cls-14" d="M66.86,57.5a1.22,1.22,0,0,1-.38.31A.44.44,0,0,1,66,57.4a.36.36,0,0,1,.35-.42A.54.54,0,0,1,66.86,57.5Z"/><path class="cls-14" d="M67.92,56.74a1.29,1.29,0,0,1-.37.31.43.43,0,0,1-.52-.41.37.37,0,0,1,.34-.43A.55.55,0,0,1,67.92,56.74Z"/><path class="cls-14" d="M66.55,55.8c0,.25-.2.65-.41.67s-.46-.09-.4-.68S66.37,55.24,66.55,55.8Z"/><path class="cls-14" d="M65.68,57.9c.25.47-.34.42-.49.45s-.41-.15-.44-.41A.48.48,0,0,1,65.68,57.9Z"/><path class="cls-5" d="M88.32,55.32c.61,0,1.09.08,1.57.14a4.69,4.69,0,0,1,1.44.42,11,11,0,0,1-1.26,2.43,3.72,3.72,0,0,1-1.11,1c-.51.29-1,.64-1.5.9a5.72,5.72,0,0,1-3.58.47c-.39-.07-.78-.13-1.18-.18a.65.65,0,0,0-.33.06.89.89,0,0,1-.66,0c-.74-.19-1.47-.38-2.21-.55.18-.52.18-1.09.33-1.62a4.47,4.47,0,0,1,1.25-2.16c.72-.67,1.37-1.42,2.06-2.13a4.92,4.92,0,0,1,1.38-.86,6.67,6.67,0,0,1,3.73-.62,8,8,0,0,1,1.08.23.41.41,0,0,1,.18.75,7.4,7.4,0,0,0-1,1.41C88.44,55.1,88.4,55.19,88.32,55.32Zm.27-1.82-.49-.1a5.83,5.83,0,0,0-1.91.08,4.9,4.9,0,0,0-1.78.68,17.55,17.55,0,0,0-2.22,2.09c-.36.33-.53.85-1,1a0,0,0,0,0,0,0,2.93,2.93,0,0,0-.67,2.17c.51.11,1,.27,1.53.34.87.11,1.76.17,2.63.27a4,4,0,0,0,1.72-.21,9.1,9.1,0,0,0,2.43-1.32,2.74,2.74,0,0,0,.73-.75c.3-.47.58-.95.86-1.43a8.15,8.15,0,0,0-2.46-.21,1.41,1.41,0,0,1-.5,0c-.31-.1-.37-.38-.18-.65C87.67,54.87,88.1,54.23,88.59,53.5Z"/><path class="cls-12" d="M88.59,53.5c-.49.73-.92,1.37-1.36,2-.19.27-.13.55.18.65a1.41,1.41,0,0,0,.5,0,8.15,8.15,0,0,1,2.46.21c-.28.48-.56,1-.86,1.43a2.74,2.74,0,0,1-.73.75,9.1,9.1,0,0,1-2.43,1.32,4,4,0,0,1-1.72.21c-.87-.1-1.76-.16-2.63-.27-.51-.07-1-.23-1.53-.34a2.93,2.93,0,0,1,.67-2.17,0,0,0,0,1,0,0c.49-.2.66-.72,1-1a17.55,17.55,0,0,1,2.22-2.09,4.9,4.9,0,0,1,1.78-.68,5.83,5.83,0,0,1,1.91-.08Z"/><path class="cls-5" d="M50.3,75.67a7.51,7.51,0,0,0-1,.91,5.37,5.37,0,0,1-3,1.72c-.51.15-1,.23-1.55.34a3.43,3.43,0,0,1-.34.06c-.87.09-1.11-.18-.85-1s.49-1.37.75-2.08c-.08,0-.16-.11-.23-.1a13.81,13.81,0,0,0-2.87.42A6.07,6.07,0,0,1,45,70l.95-.4c.51-.19.58-.42.27-.87s-.79-1.18-1.16-1.78a5.38,5.38,0,0,1-.66-4c.08-.43.31-.6.74-.49a7.05,7.05,0,0,1,1.08.41c.44.17.43.17.68-.25a.85.85,0,0,1,.39-.34A3.38,3.38,0,0,1,51,63c.36.37.79.68,1.25,1.07a4.52,4.52,0,0,0,.36-.6,4.38,4.38,0,0,1,2.34-2.22,14.17,14.17,0,0,1,1.72-.65,4,4,0,0,1,1.69-.18c.49,0,.8.21.72.9a7.84,7.84,0,0,1-.23.79,2.12,2.12,0,0,0,0,.45c.2,0,.35-.07.49-.12.49-.17.83.07.76.59a6.27,6.27,0,0,1-1.15,3.19,4,4,0,0,0-.29.46,7.66,7.66,0,0,1,1.4.47,10.51,10.51,0,0,1,1.55,1.12,6.12,6.12,0,0,1,1.74,2,2.78,2.78,0,0,1,.21.5A.92.92,0,0,1,62.71,72a1.27,1.27,0,0,1-.2,0c-.5,0-.61.21-.4.65a2.43,2.43,0,0,1,.16.37c.25.75,0,1.08-.74,1.16-.46,0-.92,0-1.37.06A7.62,7.62,0,0,1,57.64,74c-.06,0-.13,0-.29,0a2.67,2.67,0,0,0,.16.62c.41.75.84,1.48,1.24,2.22a2.77,2.77,0,0,1,.29.77.76.76,0,0,1-.91,1,10,10,0,0,1-1.21-.26c-.27.3-.17.66-.19,1,0,.68-.14.78-.81.82l-.27,0a3.45,3.45,0,0,1-3.22-1.13A10.44,10.44,0,0,1,50.3,75.67Zm-7.94-1.1a5,5,0,0,0,2-.09,1.28,1.28,0,0,0,.92-.64.42.42,0,0,1,.61-.12.87.87,0,0,1,.33.54,1.3,1.3,0,0,1-.24.62c-.29.5-.61,1-.9,1.47a3.23,3.23,0,0,0-.3.62c-.18.52,0,.7.48.63.22,0,.44-.11.66-.12A5.25,5.25,0,0,0,49.09,76c.55-.53,1-1.1,1.55-1.67.18-.2.28-.47.45-.68s.29-.18.33-.14a.65.65,0,0,1,.18.38c0,.07-.06.17-.12.24a1.27,1.27,0,0,0-.12,1.3A9,9,0,0,0,53,78.14,3.23,3.23,0,0,0,55,79.31c.59.12.75,0,.74-.62,0-.3-.06-.6-.06-.89s.21-.62.65-.62.63,0,1,.07a1.65,1.65,0,0,0-.05-.65c-.3-.56-.65-1.11-1-1.64s-.85-1.14-1.23-1.73a1.51,1.51,0,0,1-.2-.78c0-.4.26-.56.66-.45a3.53,3.53,0,0,1,.56.25,7.51,7.51,0,0,0,4.31.89c.59-.07.66-.2.33-.74a3.85,3.85,0,0,1-.39-.72c-.2-.58,0-.85.63-.84.4,0,.8,0,1.35,0a4.45,4.45,0,0,0-.57-.84,18.89,18.89,0,0,0-1.94-1.53,3.23,3.23,0,0,0-3.55-.26c-.24.13-.48.26-.73.37s-.47.12-.61-.12a.54.54,0,0,1,.08-.7,2,2,0,0,1,.32-.26c.64-.4,1.27-.82,1.94-1.18a3.64,3.64,0,0,0,1.59-2.24c0-.1-.06-.24-.1-.4a3.34,3.34,0,0,0-.43.08c-.31.11-.62.25-.89,0s-.15-.65,0-1c0-.15.15-.28.21-.42s.14-.38.2-.55a1,1,0,0,0-1-.13,7.1,7.1,0,0,0-2.42,1.11,3,3,0,0,0-1.27,1.81c-.13.6-.24,1.21-.36,1.81-.09.42-.37.67-.7.63s-.43-.35-.47-.66a3.84,3.84,0,0,0-.09-.68,2,2,0,0,0-.33-.75,5.18,5.18,0,0,0-1.84-1.4,1.64,1.64,0,0,0-1.17-.12c0,.85,0,.85-.59,1.14-.78-.25-1.45-.87-2.44-.87a6.46,6.46,0,0,0,0,.92,7.36,7.36,0,0,0,1.55,3.11,16.37,16.37,0,0,1,1,1.52.75.75,0,0,1-.36,1.19c-.11.05-.22.07-.33.11-.6.23-1.21.43-1.8.69A5.27,5.27,0,0,0,42.88,73,2.76,2.76,0,0,0,42.36,74.57Z"/><path class="cls-12" d="M42.36,74.57A2.76,2.76,0,0,1,42.88,73a5.27,5.27,0,0,1,2.42-1.85c.59-.26,1.2-.46,1.8-.69.11,0,.22-.06.33-.11a.75.75,0,0,0,.36-1.19,16.37,16.37,0,0,0-1-1.52,7.36,7.36,0,0,1-1.55-3.11,6.46,6.46,0,0,1,0-.92c1,0,1.66.62,2.44.87.58-.29.58-.29.59-1.14a1.64,1.64,0,0,1,1.17.12,5.18,5.18,0,0,1,1.84,1.4,2,2,0,0,1,.33.75,3.84,3.84,0,0,1,.09.68c0,.31.08.61.47.66s.61-.21.7-.63c.12-.6.23-1.21.36-1.81a3,3,0,0,1,1.27-1.81,7.1,7.1,0,0,1,2.42-1.11,1,1,0,0,1,1,.13c-.06.17-.12.36-.2.55s-.16.27-.21.42c-.11.33-.25.67,0,1s.58.15.89,0a3.34,3.34,0,0,1,.43-.08c0,.16.13.3.1.4a3.64,3.64,0,0,1-1.59,2.24c-.67.36-1.3.78-1.94,1.18a2,2,0,0,0-.32.26.54.54,0,0,0-.08.7c.14.24.38.22.61.12s.49-.24.73-.37a3.23,3.23,0,0,1,3.55.26A18.89,18.89,0,0,1,61.74,70a4.45,4.45,0,0,1,.57.84c-.55,0-1,0-1.35,0-.6,0-.83.26-.63.84a3.85,3.85,0,0,0,.39.72c.33.54.26.67-.33.74a7.51,7.51,0,0,1-4.31-.89,3.53,3.53,0,0,0-.56-.25c-.4-.11-.66,0-.66.45a1.51,1.51,0,0,0,.2.78c.38.59.83,1.14,1.23,1.73s.7,1.08,1,1.64a1.65,1.65,0,0,1,.05.65c-.41,0-.73-.06-1-.07s-.64.19-.65.62.06.59.06.89c0,.61-.15.74-.74.62A3.23,3.23,0,0,1,53,78.14a9,9,0,0,1-1.66-2.76,1.27,1.27,0,0,1,.12-1.3c.06-.07.14-.17.12-.24a.65.65,0,0,0-.18-.38s-.26.05-.33.14-.27.48-.45.68c-.5.57-1,1.14-1.55,1.67a5.25,5.25,0,0,1-3.16,1.53c-.22,0-.44.09-.66.12-.53.07-.66-.11-.48-.63a3.23,3.23,0,0,1,.3-.62c.29-.5.61-1,.9-1.47a1.3,1.3,0,0,0,.24-.62.87.87,0,0,0-.33-.54.42.42,0,0,0-.61.12,1.28,1.28,0,0,1-.92.64A5,5,0,0,1,42.36,74.57Zm9-2.82a.62.62,0,0,0-.28.85c.11.19.26.33.51.19a.54.54,0,0,0,.25-.8C51.67,71.85,51.43,71.81,51.31,71.75Zm.78-2.45a.55.55,0,0,0-.23.72.37.37,0,0,0,.54.12.44.44,0,0,0,.13-.65A1.11,1.11,0,0,0,52.09,69.3Zm-2.23,1.11a1.21,1.21,0,0,0,.41,0,.36.36,0,0,0,.17-.57.37.37,0,0,0-.52-.17A.59.59,0,0,0,49.86,70.41ZM53,70.18a2.74,2.74,0,0,0,0,.72c.07.22.27.21.44.09s.32-.37.17-.57S53.27,70.28,53,70.18Z"/><ellipse class="cls-13" cx="51.7" cy="70.32" rx="2.9" ry="2.91" transform="translate(-28.15 35.08) rotate(-29.86)"/><path class="cls-14" d="M52.08,70.83a1.09,1.09,0,0,1,.48.24.54.54,0,0,1-.25.8c-.25.13-.4,0-.51-.19A.62.62,0,0,1,52.08,70.83Z"/><path class="cls-14" d="M52.09,69.3a1.11,1.11,0,0,1,.44.19.44.44,0,0,1-.13.65.37.37,0,0,1-.54-.12A.55.55,0,0,1,52.09,69.3Z"/><path class="cls-14" d="M50.94,68.68a1.11,1.11,0,0,1,.44.19.44.44,0,0,1-.13.65.37.37,0,0,1-.54-.12A.53.53,0,0,1,50.94,68.68Z"/><path class="cls-14" d="M50.7,70.32c.22-.13.67-.11.79.08s.11.44-.44.65S50.28,70.73,50.7,70.32Z"/><path class="cls-14" d="M53,70.18c.31-.44.53.12.62.24s0,.43-.17.57A.48.48,0,0,1,53,70.18Z"/><path class="cls-15" d="M65.56,97.94a15.6,15.6,0,0,0,6,5,1.24,1.24,0,0,1,.79,1.08,1.57,1.57,0,0,1-1.57,1.43c-.78,0-3-1.35-5.37-4a2.08,2.08,0,0,1,.11.54c0,1.22.11,2.81.11,4.19,0,.4,0,.78,0,1.13a2.72,2.72,0,0,1-2.7,2.56c-1,.06-1.89.08-2.81.08s-1.86,0-2.75-.08a2.62,2.62,0,0,1-2.78-2.51c0-.4,0-.81,0-1.24,0-1.38.06-2.81.11-3.94a1.85,1.85,0,0,1,.08-.54C53.3,103.2,50.23,106,49,106a1.22,1.22,0,0,1-1.24-1.18,1.31,1.31,0,0,1,.76-1.14,17.09,17.09,0,0,0,5.88-5.77l-4.53,0a1,1,0,0,1-1.16-1,1.11,1.11,0,0,1,1.16-1.14l5.72.06c.27-.54.54-1.11.78-1.68l-3.35,0h0a1,1,0,0,1-1.11-1,1.08,1.08,0,0,1,1.13-1h4.11c.16-.46.29-1,.43-1.41H51.66a1,1,0,0,1-1.16-1,1.11,1.11,0,0,1,1.16-1.11h6.48c.13-.57.21-1.11.32-1.67a1.21,1.21,0,0,1,1.24-1.06,1.3,1.3,0,0,1,1.4,1.19,15,15,0,0,1-.32,1.54h7.45a1.07,1.07,0,1,1,0,2.13h-8c-.14.46-.27,1-.43,1.41h7.09a1,1,0,1,1,0,2l-3.5,0a18.87,18.87,0,0,0,.86,1.68l5.94-.06a1.08,1.08,0,1,1,0,2.16Zm-8.32,0a19.23,19.23,0,0,1-1.35,2.1c.6-.3,1.22-.4,4-.4,3.59,0,3.75,0,4.45.51-.54-.7-1.05-1.43-1.54-2.21Zm-.56,7.53c0,.46,0,.89,0,1.24.06,1.08.87,1.08,3.41,1.08,2.13,0,3.13,0,3.18-1.11v-1.21Zm6.58-1.92c0-.32,0-.59,0-.84-.06-1.16-.65-1.16-3.27-1.16-3.1,0-3.24,0-3.24,2Zm-4.21-9.39c-.24.56-.46,1.16-.73,1.7h3.35c-.27-.57-.54-1.11-.75-1.68Z"/></g></svg>