<svg xmlns="http://www.w3.org/2000/svg" viewBox="0 0 200 200"><defs><style>.cls-1{fill:#cce9f9;}.cls-2{fill:#4d4d4d;}.cls-3{fill:#2e3659;}.cls-4{fill:#fbddb9;}.cls-5{fill:#6373b6;}.cls-6{fill:#b28146;}.cls-7{fill:#2ca6e0;}.cls-8{fill:#9ed8f5;}.cls-9{fill:#00a199;}.cls-10{fill:#75bbd3;}.cls-11{fill:#3e3a39;}.cls-12{fill:#a3716d;}.cls-13{fill:none;}</style></defs><g id="レイヤー_1" data-name="レイヤー 1"><path class="cls-1" d="M189.68,185.64a37.91,37.91,0,0,1-12,7.13c-21,8.31-45,5.23-67,5.23-14.61,0-29.21-.5-43.82-.48-9.63,0-19.66,1.38-28.72-2.46C21.34,187.93-4.35,169.47,9.79,148c2.07-3.15,5.06-5.82,6.08-9.44,1.37-4.86-1.2-9.84-3.34-14.42C5.4,108.86-1.85,84.85,2.24,68c2.44-10.07,9-21.46,14.27-30.35C38.87-.27,75.53,1.39,115.22,1.39c23.36,0,53.38-3.88,71.27,14.86,15.13,15.85,16,44.6,6,63.34C189.31,85.55,185,91,183,97.44,174.31,124.73,212.59,164.46,189.68,185.64Z"/><path class="cls-2" d="M104.08,155.72a1.15,1.15,0,0,1,1.11,1.26c0,1.5-1.41,1.53-2.49,1.53a21.66,21.66,0,0,1-9.57-2.13,22.6,22.6,0,0,1-9,2.58,1.35,1.35,0,0,1-1.38-1.35,1.22,1.22,0,0,1,1.32-1.2,18.36,18.36,0,0,0,6.54-1.59,11.35,11.35,0,0,1-2.4-2.4c-3.39,2.76-6.48,4.35-7.29,4.35a1.19,1.19,0,0,1-1.23-1.2,1.27,1.27,0,0,1,.84-1.17,25.62,25.62,0,0,0,8.55-6.27l.18-.18-1.17,0c-2.4-.09-3.24-1.14-3.3-2.82,0-.93,0-2,0-3s0-2.07,0-2.85c.09-2.85,2.46-2.85,5.37-2.85.24-.93.3-1,.39-1.14H81.25A1.13,1.13,0,0,1,80,134.06a1.2,1.2,0,0,1,1.23-1.26h22.41a1.22,1.22,0,0,1,0,2.43H93.16a1,1,0,0,1,.18.6.83.83,0,0,1,0,.27c0,.09,0,.15-.06.24,1.62,0,3.18.06,4.47.09a2.79,2.79,0,0,1,3,2.58c0,.87.06,2,.06,3.06s0,2.16-.06,3c-.06,1.8-1.11,2.76-3.15,2.85-1.5.06-3.27.09-5.1.09H91.24a1.09,1.09,0,0,1,.39.75.85.85,0,0,1-.12.45l5.22-.06c1.65,0,2.46.87,2.46,1.83s-.6,1.74-3.39,3.75a25.1,25.1,0,0,0,7.56,1h.72Zm-6-14.22H87.31v1.32h10.8Zm0-2.1c-.09-1.05-.63-1.05-5.34-1.05s-5.4,0-5.4,1.14v.27H98.11Zm0,5.16H87.34v.36c0,1,.27,1,5.79,1,4.38,0,4.86,0,5-1Zm-2.7,6.93c0-.12-.15-.18-.27-.18H95c-.15,0-2.82.06-4.68.06A9.86,9.86,0,0,0,93,153.56C94.15,152.87,95.41,151.82,95.41,151.49Z"/><path class="cls-2" d="M117.45,148.59a12.55,12.55,0,0,1-3.23,6.48c-1.23,1.14-2.58.51-3.28-.87-1-2,.06-5,2.21-6.45a6.67,6.67,0,0,1,6.91-.36,4.74,4.74,0,0,1,1.49,6.72,6.71,6.71,0,0,1-3.9,2.64c-1.41.37-1.91-1.25-.53-1.57a5,5,0,0,0,3-1.79,3.47,3.47,0,0,0-.88-4.9,4.21,4.21,0,0,0-2-.64A.79.79,0,0,1,117.45,148.59Zm-3.55.3c-1.49,1.15-2.29,3.28-1.62,4.51.24.47.66.71,1.06.36a9.63,9.63,0,0,0,2.48-5.33,1.18,1.18,0,0,1,.15-.5A5.37,5.37,0,0,0,113.9,148.89Z"/><path class="cls-2" d="M42.32,176.6v2.77a.74.74,0,0,1-1.47,0V176.6H39.46a.64.64,0,0,1-.72-.64.69.69,0,0,1,.72-.7h1.39v-.4l0-2.77a15.29,15.29,0,0,1-3.38,4.54.79.79,0,0,1-.58.24.75.75,0,0,1-.64-.35l0,2.83a.74.74,0,0,1-.79.74.7.7,0,0,1-.75-.72v0l.16-7.39c-1,1.33-1.46,1.57-1.81,1.57a.73.73,0,0,1-.75-.71.79.79,0,0,1,.27-.56,14.78,14.78,0,0,0,3.65-5.79.72.72,0,0,1,.69-.51.87.87,0,0,1,.89.78,12.36,12.36,0,0,1-1.37,2.9l-.13,6.19a.87.87,0,0,1,.21-.22,14.58,14.58,0,0,0,3.89-5l-2.72.05h0A.65.65,0,0,1,37,170a.71.71,0,0,1,.74-.72h3.12v-2.72a.69.69,0,0,1,.75-.69.71.71,0,0,1,.78.69v2.72h3.57a.68.68,0,0,1,.71.7.66.66,0,0,1-.69.69h0l-3.2-.05a15.32,15.32,0,0,0,4.2,4.55.76.76,0,0,1,.33.64.8.8,0,0,1-.78.8,1,1,0,0,1-.64-.26,17.05,17.05,0,0,1-3.56-4.26l0,2.74v.42h1.43a.67.67,0,1,1,0,1.34Z"/><path class="cls-2" d="M49,177.67a1,1,0,0,1,.14-.44,5.46,5.46,0,0,0,.6-2,.51.51,0,0,1,.49-.55.55.55,0,0,1,.58.62c0,.66-.4,3-1.23,3A.58.58,0,0,1,49,177.67Zm5.19-4.73c.27,0,1.4,0,1.4,1.61,0,2.77-.38,5-2.83,5-1,0-1.57-.17-1.57-.81a.65.65,0,0,1,.63-.69.52.52,0,0,1,.17,0,3.9,3.9,0,0,0,.88.12c.61,0,1.16-.32,1.28-2a.41.41,0,0,1-.33.18c-.15,0-.27-.08-.32-.29a6.85,6.85,0,0,0-.53-1.25.37.37,0,0,1-.05-.18c0-.16.16-.27.35-.27.5,0,.9,1.14.93,1.25,0-.34,0-.64,0-.85,0-.62-.08-.69-1.22-.69l-1.65,0a1.31,1.31,0,0,1-1.47-1.34c0-.63,0-1.6,0-2.56s0-1.91,0-2.44a1.42,1.42,0,0,1,1.47-1.49h3.8a.54.54,0,0,1,.52.58.6.6,0,0,1-.6.62H53.57v1.06h1.07a.54.54,0,0,1,.59.54.55.55,0,0,1-.59.57H53.57v1.07h1.07a.55.55,0,1,1,0,1.1H53.57v1.11ZM51,177.08V177c0-.24,0-.51,0-.77,0-.48,0-.93,0-1.12v-.06a.38.38,0,0,1,.37-.42c.22,0,.55,0,.55,2.06,0,.24,0,.79-.52.79A.38.38,0,0,1,51,177.08Zm1.3-9.6h-.71c-.24,0-.43.13-.45.52,0,.14,0,.33,0,.54h1.17Zm0,2.18H51.17v1.07h1.17Zm0,2.17H51.17c0,.23,0,.43,0,.61a.48.48,0,0,0,.5.5h.66Zm0,4.74a7,7,0,0,0-.3-1.5.73.73,0,0,1,0-.16.35.35,0,0,1,.37-.36.42.42,0,0,1,.39.27,6.11,6.11,0,0,1,.41,1.65.45.45,0,0,1-.45.48A.38.38,0,0,1,52.32,176.57Zm7.67-6v1h1.28a1.33,1.33,0,0,1,1.45,1.07,5.92,5.92,0,0,1,0,.88c0,.26,0,.53,0,.76-.05.72-.59,1.23-1.55,1.26-.26,0-.56,0-.85,0a6.17,6.17,0,0,0,2.83,2.8.75.75,0,0,1,.45.67.78.78,0,0,1-.77.8c-.7,0-2.56-1.46-3.49-3.46A5.48,5.48,0,0,1,55.49,180a.77.77,0,0,1-.72-.77.65.65,0,0,1,.48-.64,4.62,4.62,0,0,0,3-3c-1.76,0-2.41,0-2.41-1.94,0-.32,0-.64,0-.9a1.27,1.27,0,0,1,1.4-1.15h1.36v-1H57.49a.51.51,0,0,1-.51-.42l-.53.53a.71.71,0,0,1-.51.22.72.72,0,0,1-.72-.68.64.64,0,0,1,.25-.5,12.58,12.58,0,0,0,2.47-3,1.42,1.42,0,0,1,1.21-.73,1.78,1.78,0,0,1,1.32.67,21,21,0,0,0,2.83,2.75.78.78,0,0,1,.3.59.82.82,0,0,1-.76.82c-.32,0-.47-.14-1.19-.86v0a.58.58,0,0,1-.56.61Zm-2.8,3c0,.76,0,.89,1.36.89a11.39,11.39,0,0,0,.08-1.81C57.22,172.66,57.19,172.66,57.19,173.58Zm3.9-4.23c-.61-.66-1.18-1.33-1.63-1.87a.35.35,0,0,0-.26-.13.22.22,0,0,0-.21.13,22.86,22.86,0,0,1-1.32,1.87ZM60,173.67c0,.26-.06.53-.09.8,1.52,0,1.53,0,1.53-1,0-.77,0-.82-1.42-.82C60,173.16,60,173.58,60,173.67Z"/><path class="cls-2" d="M68,179.68a.83.83,0,1,1-.86-1.4,15.44,15.44,0,0,0,5-4.24,9.79,9.79,0,0,0-1.92-1c-.86-.3-.25-1.73.87-1.3a15.35,15.35,0,0,1,2,1,19.64,19.64,0,0,0,2-3.74c.56-1.35,2.19-.48,1.68.54a36.41,36.41,0,0,1-2.32,4.05,7,7,0,0,1,1.6,1.46.91.91,0,0,1-.17,1.26.75.75,0,0,1-1.14-.12,7.09,7.09,0,0,0-1.3-1.22A17.66,17.66,0,0,1,68,179.68Z"/><path class="cls-2" d="M82.24,177.45a.83.83,0,0,1,0-1.66c2.66,0,7.7,0,10.4,0,1.2,0,.93,1.7,0,1.67C89.57,177.37,85.1,177.37,82.24,177.45Zm1.86-5.36a.8.8,0,1,1,.09-1.6c1.75,0,4.39,0,6.29,0a.8.8,0,1,1-.08,1.6C88.72,172.12,85.76,172.12,84.1,172.09Z"/><path class="cls-2" d="M105.7,176.55a.71.71,0,1,1,0,1.41c-2.36-.08-5.56-.09-7.67,0a.71.71,0,1,1,0-1.42c1.07,0,2.64-.07,4.26-.07.19-.72.42-1.63.5-2.13,0-.24,0-.38-.33-.38-.67,0-1.76,0-2.81,0a.69.69,0,1,1-.11-1.38c1.4,0,2.86,0,3.66,0a1.21,1.21,0,0,1,1.2,1.62c-.16.7-.37,1.53-.57,2.22C104.43,176.52,105.09,176.54,105.7,176.55Z"/><path class="cls-2" d="M110.72,174.64a.77.77,0,0,1-.85-.77.81.81,0,0,1,.85-.81h10a.79.79,0,1,1,0,1.58Z"/><path class="cls-2" d="M129.18,168.1a4.47,4.47,0,0,0,.68-.29c.88-.52,1.74.8.56,1.4a9.62,9.62,0,0,1-1.76.53,16.71,16.71,0,0,1-.77,1.61,2.34,2.34,0,0,1,2.69,1.39c.65-.33,1.33-.67,1.95-.94a12.47,12.47,0,0,0,1.25-.59.85.85,0,1,1,.9,1.44c-.52.25-.89.33-1.73.65-.68.26-1.4.58-2,.88a12.89,12.89,0,0,1,0,1.77,1,1,0,0,1-.85,1c-.4,0-.77-.29-.72-.91,0-.34,0-.71,0-1l-.42.24c-2,1.28-1.74,2.24-.85,2.68a5,5,0,0,0,3.17-.12c1.41-.44,1.86,1.29.39,1.68-.95.24-3.12.48-4.37-.23-2.16-1.21-1.78-3.37,1.12-5.28.22-.14.48-.32.78-.5-.43-1.34-1.66-1.18-2.7,0l-.07.06a3.45,3.45,0,0,1-.36.42c-.88.78-2-.13-1.09-1a8,8,0,0,0,1.29-1.51,12,12,0,0,0,.76-1.42,3.2,3.2,0,0,1-2-.18c-1.15-.57-.37-2.08.75-1.33a2.5,2.5,0,0,0,1.51,0l.24,0a6.62,6.62,0,0,0,.17-1.34c.07-1,1.57-.86,1.6-.08a2.94,2.94,0,0,1-.12.93Z"/><path class="cls-2" d="M139.17,180.06a.77.77,0,0,1-.82-.75.72.72,0,0,1,.72-.72c2.08-.29,3.41-1.09,4.05-2.45a.77.77,0,0,1,.72-.48.83.83,0,0,1,.85.75.76.76,0,0,1-.08.32C143.18,179.74,139.17,180.06,139.17,180.06Zm3.68-4.71a1.72,1.72,0,0,1-1.88-1.6c0-.7,0-1.85,0-3s0-2.25,0-2.87a1.64,1.64,0,0,1,1.77-1.57c.73,0,1.69,0,2.68,0s2,0,2.81,0a1.65,1.65,0,0,1,1.66,1.46c0,.7.05,1.73.05,2.78s0,2.36-.05,3.14a1.7,1.7,0,0,1-1.74,1.63c-.28,0-.55,0-.82,0,0,.65,0,1.4,0,1.91,0,.88.19,1.09,1.57,1.09,1.23,0,2-.19,2-1.63a.71.71,0,0,1,.75-.76.81.81,0,0,1,.85.87c0,2.75-1.86,3-3.68,3-1.62,0-3-.16-3-1.94,0-.43,0-1.63,0-2.5C144.8,175.38,143.78,175.37,142.85,175.35Zm5.6-5.13h-6.07v1.24h6.07Zm0-1.24c0-.24,0-.46,0-.64,0-.41-.22-.65-.75-.69s-1.23,0-2,0-1.82,0-2.49,0a.73.73,0,0,0-.75.71c0,.17,0,.38,0,.62Zm-6,3.72c0,.24,0,.44,0,.64,0,.51.3.68.76.7.74,0,1.54.05,2.36.05s1.44,0,2.13-.05.76-.62.76-1.34Z"/><path class="cls-2" d="M164.47,177.23c1.16-1,1.12-2.57.2-3.17a4.18,4.18,0,0,0-4.17.27,3.6,3.6,0,0,0-1.35,1.2c-.57.85-2.18-.1-1.18-1.07a58.37,58.37,0,0,0,4.83-5.17c.18-.23,0-.16-.11-.1A13.17,13.17,0,0,1,160,170c-1.26.27-1.5-1.32-.42-1.44a25.44,25.44,0,0,0,3.53-.79c1.28-.37,2.33.77,1.53,1.67-.51.57-1.15,1.2-1.79,1.79s-1.28,1.17-1.86,1.73a4.93,4.93,0,0,1,4.5-.05c2.31,1.38,1.55,4.19-.13,5.41a5.27,5.27,0,0,1-5.3.4c-1.69-1.1-.94-3.09.95-3.15a2.27,2.27,0,0,1,2.53,2.16A2.33,2.33,0,0,0,164.47,177.23Zm-3.41-.48c-.71.06-.74.72-.23,1a3,3,0,0,0,1.35.24C162.19,177.24,161.76,176.68,161.06,176.75Z"/><path class="cls-3" d="M72.82,89c-.92.58-1.88,1.13-2.77,1.78-.37.27-.58.45-1.09.25A13,13,0,0,0,67,90.69a2.1,2.1,0,0,1-1.77-2.4,1.28,1.28,0,0,1,.32-.71,8.25,8.25,0,0,1,2.8-2.18,24.56,24.56,0,0,0,7.39-5.06c.56-.56,1.22-1,1.83-1.53l-.25-.34c-.29,0-.57.09-.85.15-1.52.34-3.07.57-4.54,1a12.37,12.37,0,0,1-5.16.38c-.94-.1-1.87-.34-2.81-.5A28.09,28.09,0,0,1,55.86,77a1.9,1.9,0,0,0-1.37,0c-2,.72-4,1.6-6,2.25a19.81,19.81,0,0,1-3.63.62c-.89.12-1.8.15-2.7.2a4.9,4.9,0,0,0-3,1.73,8.91,8.91,0,0,1-4,2.09c-.92.25-3-.83-3.51-1.65s-.13-1.31.63-1.93a2.59,2.59,0,0,0,.77-1c.29-.7,0-1.08-.75-1.4-1.61-.64-3.42-.91-4.72-2.23A4.61,4.61,0,0,1,25.77,72,2.45,2.45,0,0,1,27,69.91a13.74,13.74,0,0,1,3.11-1,.42.42,0,0,1,.27,0c1.1.73,2.35.33,3.52.48,1.33.17,2.67.28,4,.42,1.07.11,2.15.2,3.22.35a2.09,2.09,0,0,1,.65.24l5.78-2.17c.48-.18,1-.32,1.46-.49,1.51-.53,1.13-1.78.4-2.61a4.25,4.25,0,0,0-1.27-.81,4.71,4.71,0,0,1-2.32-4.71c0-.35,0-.71,0-1.07A14,14,0,0,1,46,55.89a17.35,17.35,0,0,1,2.67-5.71A4.06,4.06,0,0,1,50,48.92a1.62,1.62,0,0,0,1-1.64c-.05-.84-.21-1.68-.2-2.52a8.49,8.49,0,0,1,.29-2.47,14.9,14.9,0,0,1,2.43-5A13.4,13.4,0,0,1,58.33,33a1.86,1.86,0,0,1,1.93.13,3.69,3.69,0,0,1,1.68,4.66,1.38,1.38,0,0,0,.13.93c0,.12.62.15.64.09a3.16,3.16,0,0,1,1.5-1.65c.68-.38,1.05-1.3,1.62-1.93a25.27,25.27,0,0,1,2.54-2.53,7,7,0,0,1,2.33-1.32,2.56,2.56,0,0,1,1.9.25,2.44,2.44,0,0,1,1,2.8,8.29,8.29,0,0,1-.83,1.79,3.24,3.24,0,0,0,0,2.43,1.54,1.54,0,0,0,1.06,0c1-.56,1.8-1.31,2.78-1.83,1.45-.77,2.33-2.25,3.85-2.93.76-.35,1.45-.86,2.22-1.2.6-.28,2.06.51,2.1,1.17a19.32,19.32,0,0,1-.16,2.39c0,.36.05.72.06,1.09s0,.88,0,1.51a5.25,5.25,0,0,0,1.24-.34c1.83-1,3.71-1.93,5-3.68a3.16,3.16,0,0,1,1.67-.94c2.5-.62,2.51-.59,4.3,1.32a10.81,10.81,0,0,1,1.48,1.7,5.71,5.71,0,0,1,.86,2.22,13.24,13.24,0,0,1,.05,3.77c-.31,1.77-.92,3.48-1.4,5.22-.07.25-.09.53-.15.82.27,0,.57.22.76.14.34-.15.92-.57.88-.65-.54-1.22.45-1.7,1.07-2.32.44-.45,1-.81,1.42-1.23a9.79,9.79,0,0,1,3.15-2l.47-.17c.42-.14,8-4.73,10.09-6,1.26-.75,2.45-1.65,3.77-2.29s7.51-3.84,8.27-5.09c.59-1,3.93-3.62,4.6-3.59a6.66,6.66,0,0,1,3.75,1.37c1.09.84,1.49,1,2.72.2a2.66,2.66,0,0,1,3.83.61,3.3,3.3,0,0,1-.06,3.56,8.9,8.9,0,0,1-4.51,3.33c-1.5.6-8.79,4.08-10.73,5-.81.38-5.06,3.76-6.54,4.69-.89.56-1.79,1.1-2.64,1.71-.61.44-.14.84.23,1,.55.31,1.22.4,1.76.73a19.11,19.11,0,0,1,3.06,2.11c1.07,1,1,1,2.24.22,1.68-1,11.26-6.3,13.13-6.6,4.35-.25,6.6-1.17,7.1-3,.94-3.44,3.78-4.54,7.11-3.63a2.61,2.61,0,0,0,2.22-.16,8.08,8.08,0,0,1,4.56-1.09,2.76,2.76,0,0,1,2.44,2.47,3.24,3.24,0,0,1-1.66,3.08c-1.67,1.19-3.48,2.19-5.22,3.29-1.94,1.23-3.86,2.49-5.79,3.73L142.1,53q-1.92,1.24-3.85,2.46c-1.33.83-6.23,4-7.34,4.7-.22.15-.46.28-.69.41-.64.35-1.24.68-1.27,1.57,0,.62-.42.91-1.09,1.08a9.32,9.32,0,0,0-2,1.11c-1.64.93-10.84,4.91-12,5.43-1.59.69-3.17,1.42-4.76,2.13-.9.4-1.81.77-2.7,1.2-3.16,1.55-6.3,3.17-9.49,4.66a30.64,30.64,0,0,1-6.52,2.64c-1.63.33-2.07,1.51-2.7,2.45A28.14,28.14,0,0,1,84,87.68c-1.91,1.84-3.7,3.81-5.58,5.69a4.38,4.38,0,0,1-4.45.77,1.55,1.55,0,0,1-1-1.53c0-.74.14-1.47.19-2.21,0-.39,0-.79,0-1.19ZM83.43,71.38a10.52,10.52,0,0,0,0,1.26,3.77,3.77,0,0,1-.9,3c-1.12,1.36-2.15,2.81-3.28,4.17a24,24,0,0,1-3.11,3.33A27.8,27.8,0,0,1,72,85.6c-1.33.72-2.72,1.33-4.06,2-.22.12-.29.5-.43.77.26.12.55.39.78.34a14.15,14.15,0,0,0,1.88-.6c1.24-.42,2.3-1.36,3.77-1.15a2.22,2.22,0,0,1,1.66,2.51c-.22.63-.33,1.3-.59,1.92s.13.84.61.78a2.46,2.46,0,0,0,1.12-.49,38.56,38.56,0,0,0,3.38-2.85,56.14,56.14,0,0,0,4.25-4.74,46.32,46.32,0,0,0,2.92-4.51c.52-.85.91-1.78,1.38-2.66a22.21,22.21,0,0,1,1.36-2.38,1.07,1.07,0,0,1,1-.31,1.53,1.53,0,0,1,.66,1c.07.3-.16.67-.24,1-.13.51-.26,1-.39,1.56,1.83-.66,3.49-1.25,5.13-1.87a19.38,19.38,0,0,0,1.91-.88l4.94-2.43c.6-.3,1.2-.6,1.77-.93a17.24,17.24,0,0,1,1.55-1c1-.46,2.12-.73,3.11-1.25,1.45-.75,2-.85,1.35-2.54a14.46,14.46,0,0,1-.4-2.66,4.19,4.19,0,0,0-.35-1.37c-1-1.87-2-3.76-3.19-5.54a22.83,22.83,0,0,0-3-3.62,11.83,11.83,0,0,1-2.5-4.05,7.51,7.51,0,0,0-.52-.93,7.07,7.07,0,0,1-4,2.86,14.83,14.83,0,0,1-1.07,2.6,5,5,0,0,0-.64,1.7A11.62,11.62,0,0,1,94.12,59c-1,1.73-2.06,3.41-3.17,5.05C90,65.4,89,66.72,88,68c-.55.68-1.32,1.19-1.88,1.87A3.4,3.4,0,0,1,83.43,71.38Zm6.74-9.63a7.07,7.07,0,0,1,.39-1c.49-.81,1.09-1.56,1.51-2.4s.49-1.51.78-2.25c.42-1,1-2,1.32-3.06.67-2,1.28-4,1.86-6a38.05,38.05,0,0,0,1.28-5,7.14,7.14,0,0,0-.61-5,2.37,2.37,0,0,0-3.93-.58,16.91,16.91,0,0,0-2,3,6,6,0,0,0-.64,1.64c-.41,1.82-.76,3.66-1.15,5.49-.16.81-.57,2.41-.57,2.41s.68,2.55.79,3.41c.13,1.1-1.22,8.82-2.09,9.65-1.43,1.34-8.66,3.37-10.35,3.48-1.53.09-8.45,1.05-8.55,1.14-.93.77-1.87,1.56-2.73,2.41a1.38,1.38,0,0,0-.38,1.14,3.13,3.13,0,0,0,2.26,2,17,17,0,0,0,5.9,0c2.76-.39,5.62-.49,8-2.1,1.48-1,2.89-2.06,4.27-3.18.69-.56,1.16-1.4,1.88-1.91a3.79,3.79,0,0,0,1.1-1.45C88.94,62.93,89.16,61.85,90.17,61.75Zm19.92-10.51a1.15,1.15,0,0,1-1.44-1c-.23-.72.37-1,.83-1.19,1.17-.54,2.38-1,3.54-1.54.23-.11.49-.72.4-.85-1-1.34-2-2.64-3-3.92a.75.75,0,0,0-.69-.14c-2.33,1.21-4.81,2.19-6.72,4.1-.34.33-.7.64-1,1a12.21,12.21,0,0,1,1,.93c.69.86,1.35,1.75,2,2.62A35.57,35.57,0,0,0,108,55a11.19,11.19,0,0,1,2.5,3.2c.32.65.59,1.32.94,1.94a10.34,10.34,0,0,1,1.46,5,6.35,6.35,0,0,0,.26,1.79c.06.22.53.53.72.47,2-.64,4.12-1,5.86-2.32.57-.45,1.48-.42,2.14-.79,1.27-.72,2.48-1.54,3.7-2.35.88-.58.93-.84.39-1.72a37.57,37.57,0,0,1-3.18-6.3,6.61,6.61,0,0,0-2.61-3.66,6.78,6.78,0,0,0-4.4-1,27.05,27.05,0,0,0-5,1.46A2.37,2.37,0,0,0,110.09,51.24ZM82.6,34.93l-.29-.1c-.63.5-1.27,1-1.88,1.51s-1.29,1.24-2,1.79c-1,.73-2,1.4-2.94,2.07a25.53,25.53,0,0,1-2.23,1.36,1.13,1.13,0,0,1-1,0c-1.12-.69-2.25-1.62-2-3.38.15-1.25.48-2.48.72-3.72a1.19,1.19,0,0,0-.06-.65c0-.08-.38-.14-.47-.06a24.76,24.76,0,0,0-2.33,1.87,19.81,19.81,0,0,0-1.24,1.62c-.33.37-.78.63-1.11,1-1,1.06-1.82,2.24-2.87,3.21a1.77,1.77,0,0,1-2.73-.2c-.91-1-.8-2.11-.7-3.3.07-.91,0-1.82,0-2.89a4.34,4.34,0,0,0-1,.38,17.24,17.24,0,0,0-2.23,1.85,13.83,13.83,0,0,0-2,2.62,27.63,27.63,0,0,0-1.48,3.44,4.64,4.64,0,0,0-.15,3.26.72.72,0,0,0,.62.34c1.33-.23,2.63-.6,4-.78,2.29-.3,4.59-.5,6.9-.71,1.52-.13,3.06-.09,4.56-.3,2.13-.29,4.23-1,6.37-1.08a17.58,17.58,0,0,1,8.73,1.83c.89.44,1.74,1,2.71,1.52.09-.33.17-.61.24-.89.43-2,.87-3.92,1.28-5.89a5,5,0,0,0,0-1c-.33.16-.67.28-1,.47a3.89,3.89,0,0,0-.59.56,2,2,0,0,1-2.61.28,3.15,3.15,0,0,1-1.45-3.18C82.45,36.8,82.51,35.87,82.6,34.93Zm42.47,18.19c1,2.18,1.77,4.08,2.64,6a.85.85,0,0,0,.77.32c.82-.52,1.59-1.13,2.38-1.7.62-.43,1.27-.82,1.88-1.27a24.45,24.45,0,0,1,3.49-2.52c2.26-1.07,4.13-2.68,6.23-3.94,1.15-.7,2.24-1.51,3.38-2.23,1.62-1,3.27-2,4.9-3.06s3-1.89,4.44-2.85c1.22-.8,2.44-1.58,3.62-2.43.27-.19,2.21-.78,1.51-1.57a5.72,5.72,0,0,0-4.07-.3c-1.24.52-3,2.53-3.47,2.31a4.65,4.65,0,0,0-3.82-.31,3.33,3.33,0,0,0-2,2.33c-.13.68-3.3,3.09-4.76,3.23-1.65.16-5.43.64-6.86,1.81C134.71,47.42,127.84,51.5,125.07,53.12Zm-43.45.29A2.8,2.8,0,0,0,80,50.46a7.49,7.49,0,0,0-1.53-.53,10.43,10.43,0,0,0-4.38-.15c-1.5.26-3,.41-4.53.72a3.29,3.29,0,0,0-1.39.81c-.3.28-.42.75-.69,1.09-1,1.19-1.88,2.42-2.93,3.53s-2.3,2.14-3.43,3.22a2.63,2.63,0,0,0-.41.8,2.84,2.84,0,0,0,.91.23c3.07-.36,6.16-.65,9.2-1.18,2.56-.43,5.09-1.11,7.61-1.76S81.67,55.6,81.62,53.41Zm-47.22,28c.47,0,.71.08.86,0a9.74,9.74,0,0,0,2.36-1.55,7,7,0,0,1,5.94-2.42,14.67,14.67,0,0,0,3.94-.71c1-.25,2-.64,3.07-1l2.9-.94a10.55,10.55,0,0,1-2.76-5c0-.1-.52-.24-.73-.17-1.46.51-2.92,1-4.35,1.62-1.86.78-3.7,1.55-5.8,1.09-1.56-.33-3.13-.55-4.7-.79s-3.05-.4-4.56-.65a2.1,2.1,0,0,0-2.29,1.51c-.22,1.2.43,2,1.83,2.46,1.62.55,3.21,1.17,4.8,1.81A1.52,1.52,0,0,1,36,78.31a2.43,2.43,0,0,1-.68,1.78A9.44,9.44,0,0,0,34.4,81.36ZM138,29.16a3.34,3.34,0,0,1-1.89.2c-.57-.37-1.53-.38-2.1-.77a1.89,1.89,0,0,0-2.57.13c-1,.93-1.41,1.25-2.39,2.23a56.68,56.68,0,0,1-5.77,4.11,24.91,24.91,0,0,0-5.22,2.71,43.76,43.76,0,0,1-5.1,2.75c-.89.47-1,.84-.22,1.41a7.5,7.5,0,0,1,2.35,2.87c.11.22.75.44.91.32,1.21-.83,2.35-1.75,3.51-2.64.47-.36.92-.75,1.41-1.07,2.25-1.43,4.53-2.82,6.78-4.25,1.81-1.16,3.55-2.46,5.75-2.87a12.28,12.28,0,0,0,2.15-.77c.69-.28,3.43-.79,4-1.27C141.61,30.56,142.16,27.14,138,29.16ZM65.28,66.32l-.21-.19c-2.32.24-4.64.49-7,.69a8.48,8.48,0,0,1-1.88-.11c-1-.13-2-.32-2.94-.48-.46-.07-.71.08-.62.6a14.45,14.45,0,0,0,2.79,6.46,6.59,6.59,0,0,0,2,1.67c2.74,1.51,5.82,1.89,8.82,2.39a21.62,21.62,0,0,0,8.47-.42,7.61,7.61,0,0,0,4.19-3c-.71.12-1.38.4-2.07.48-2,.23-4.14.28-6.18.6a7,7,0,0,1-7.52-3.29,2.73,2.73,0,0,1,.42-3.81C64.11,67.34,64.7,66.84,65.28,66.32ZM60.51,52.1l-.12-.32a2.78,2.78,0,0,0-.75-.08,13.78,13.78,0,0,0-5.38,2.18,4.12,4.12,0,0,0-1.91,4.65,2.16,2.16,0,0,0,.5.79s.31-.11.43-.22c.87-.8,1.75-1.6,2.59-2.43C57.43,55.16,59,53.63,60.51,52.1Zm-5,7.93c1.76.8,2.4.55,3.16-.92a6.59,6.59,0,0,1,1-1.24c.3-.32.65-.58,1-.9,1-1.09,2.08-2.14,3-3.29a25.35,25.35,0,0,0,1.64-2.44l-.24-.3a5.73,5.73,0,0,0-1.53.67A19.18,19.18,0,0,0,60.43,55a35.2,35.2,0,0,1-4,4.12Z"/><path class="cls-3" d="M95.9,86.84c-.53-1.6.46-2.93,1.11-4.26.27-.57,1.24-.81,1.9-1.18,1.88-1.05,3.69-.61,5.51.23a21,21,0,0,0,2.69,1c1.21.37,1.57,1.15.93,2.18-.33.55-.72,1.07-1.1,1.59-.6.82-.53,1,.38,1.47a21.49,21.49,0,0,1,5.69,4c.51.48.69.61,1.22-.12a19.61,19.61,0,0,1,3.25-3.44,34.89,34.89,0,0,1,3.92-2.64,16.79,16.79,0,0,1,1.73-.91c.48-.23,1.57.57,1.56,1.15,0,2-.11,4.08-.12,6.13,0,1.41.07,2.82.1,4.22,0,.95-.65,1.28-1.38,1.33-1.82.13-3.66.14-5.48.22a22.75,22.75,0,0,0-2.61.2,2.62,2.62,0,0,0-1.17.6c-1.94,1.69-3.85,3.44-5.8,5.13-.48.41-.54.75-.17,1.21a7.17,7.17,0,0,1,1.34,5.28,2.53,2.53,0,0,1-1.36,1.6,7.51,7.51,0,0,1-5,.81,5.37,5.37,0,0,1-2.88-1,2.35,2.35,0,0,1-.74-2.28c.06-.36.16-.71.24-1.06.16-.61-.12-.82-.7-.84-1.24,0-2.49-.07-3.73-.18A8.27,8.27,0,0,1,89,103.32c-.52-.76-1-1.55-1.49-2.34-.34-.54-.42-1,.27-1.41a3.89,3.89,0,0,0,1.17-1.5c.1-.18-.17-.71-.42-.88a7.87,7.87,0,0,0-1.33-.54c-2-.93-1.77-.68-2.13-2.69C88.14,90.79,91.92,88.75,95.9,86.84Zm-7.33,8.42,2.63,1.08c.3.12.79.25.82.43a1.69,1.69,0,0,1-.26,1.14c-.56.69-1.26,1.27-1.81,2a1.39,1.39,0,0,0-.09,1,2.62,2.62,0,0,0,.53.82c1.49,2.06,3.37,3.56,6,3.73a13.61,13.61,0,0,0,5.75-.85,11,11,0,0,0,2.42-.88,65.6,65.6,0,0,0,5.37-4,35.73,35.73,0,0,0,2.71-2.91,1.43,1.43,0,0,1,.86-.4c1.49,0,3,0,4.47,0,.69,0,.89-.4.65-.94a11.94,11.94,0,0,0-1.18-2.09c-.4-.56-.42-1.3.17-1.56a5.69,5.69,0,0,1,4.38-.46,9,9,0,0,0-.14.92s.25.1.38.15a3,3,0,0,0,.32-.89c.06-.95.07-1.91.07-2.87,0-.46-.1-.92-.15-1.38l-1.6.46-.06.06c-1.45,1.27-3,2.47-4.32,3.82a8.11,8.11,0,0,0-1.69,2.55c-.41,1-.6,1.27-1.48.77-1.53-.85-3-1.83-4.48-2.75a21.32,21.32,0,0,0-3.38-2,20.22,20.22,0,0,0-4.3-1,4.89,4.89,0,0,0-2.47.12c-1.53.62-3,1.48-4.44,2.26-.08,0-.31-.17-.49-.12a4.32,4.32,0,0,0-1.31.59C91.14,93.07,89.9,94.14,88.57,95.26ZM103.27,111l.14-.22a16.52,16.52,0,0,0,2.34-.16c.71-.15,1.71-.18,1.75-1.22a4.29,4.29,0,0,0-1.16-3.57,1,1,0,0,0-.89-.14c-.76.25-1.47.66-2.23.89-1.23.38-2.2,2.24-1.52,3.34C102,110.41,102.73,110.64,103.27,111Zm-2.15-28.45a10.81,10.81,0,0,0-2.46,1.38,2.67,2.67,0,0,0-.42,1.92c0,.16,1,.33,1.5.39.91.1,1.84.13,2.77.16A3.59,3.59,0,0,0,104,86.3a3.1,3.1,0,0,0,1.23-1.13c.32-.47.53-1.2-.17-1.47C103.89,83.23,102.62,83,101.12,82.54Z"/><path class="cls-3" d="M92.13,23.83c-1,1.17-1.93,2.26-2.91,3.27-1.21,1.25-2.45,2.55-4.38,2.46-.44,0-.92-.46-1.27-.82-.11-.1.05-.7.25-.84a16.38,16.38,0,0,1,1.5-.78,8,8,0,0,0,1.81-1.25c1.35-1.45,2.62-3,3.87-4.51a1.85,1.85,0,0,0,.23-1.09c0-.55.07-1.17.69-1.16s1.67-.32,2,.67.54,2.1,1,3a9,9,0,0,0,1.75,2.45c.78.77,1,1.08.46,1.8a1.23,1.23,0,0,1-1.78.18A20.64,20.64,0,0,1,93,25,10.84,10.84,0,0,1,92.13,23.83Z"/><path class="cls-3" d="M132.83,79.09a5.08,5.08,0,0,1-3.11-2c-.47-.59-.88-1.22-1.33-1.83s-.61-.45-1.07,0c-2,2-4.42,3.15-7.32,2.55-.58-.11-1-.91-1.47-1.43,0,0,.42-.64.67-.66.62,0,1.25.17,1.87.2a3.82,3.82,0,0,0,1.63-.14,8.55,8.55,0,0,0,4.23-3.53,1.62,1.62,0,0,1,2.64,0c1.14,1.57,2.37,3.09,3.58,4.61.14.18.42.24.58.4s.67.63.65.91a1.1,1.1,0,0,1-1.19,1A2.25,2.25,0,0,1,132.83,79.09Z"/><path class="cls-3" d="M58.31,100.14c-.51.49-.92.93-1.38,1.32a4.67,4.67,0,0,1-1.12.75,24.08,24.08,0,0,1-2.61,1,1.69,1.69,0,0,1-2-1.21c-.12-.52,0-1,.66-.9a5.65,5.65,0,0,0,4.1-1.75c.7-.6,1.35-1.26,2-1.9s2-.26,2.53.88a25.82,25.82,0,0,0,1.86,3.58,7.24,7.24,0,0,0,2.15,1.84c.39.25,1,.31.69.87a2.42,2.42,0,0,1-1.11,1.08,1.62,1.62,0,0,1-1.17-.28,9.62,9.62,0,0,1-4.11-4.53A6.31,6.31,0,0,0,58.31,100.14Z"/><path class="cls-3" d="M167.73,36.43a10.16,10.16,0,0,1-.69,1.14c-.38-.33-1.1-.68-1.08-1,.1-2.44-1.7-3-3.42-3.67-.11,0-.24,0-.35-.08-.51-.23-1.14-.37-1-1.15s.83-.7,1.35-.63A7.19,7.19,0,0,1,167,33.47,6.6,6.6,0,0,1,167.73,36.43Z"/><path class="cls-3" d="M172.88,33.83a4.92,4.92,0,0,1-1,3.14c-.12.23-.7.22-1.07.32-.08-.38-.36-.87-.21-1.11a3.36,3.36,0,0,0-1.54-4.77l-.73-.35a.73.73,0,0,1-.27-1.2,1.12,1.12,0,0,1,.9-.43A4.92,4.92,0,0,1,172.88,33.83Z"/><path class="cls-4" d="M83.43,71.38a3.4,3.4,0,0,0,2.66-1.51c.56-.68,1.33-1.19,1.88-1.87,1-1.28,2-2.6,3-4,1.11-1.64,2.2-3.32,3.17-5.05a11.62,11.62,0,0,0,1.1-3.09,5,5,0,0,1,.64-1.7,14.83,14.83,0,0,0,1.07-2.6,7.07,7.07,0,0,0,4-2.86,7.51,7.51,0,0,1,.52.93,11.83,11.83,0,0,0,2.5,4.05,22.83,22.83,0,0,1,3,3.62c1.16,1.78,2.16,3.67,3.19,5.54a4.19,4.19,0,0,1,.35,1.37,14.46,14.46,0,0,0,.4,2.66c.61,1.69.1,1.79-1.35,2.54-1,.52-2.1.79-3.11,1.25a17.24,17.24,0,0,0-1.55,1c-.57.33-1.17.63-1.77.93l-4.94,2.43a19.38,19.38,0,0,1-1.91.88c-1.64.62-3.3,1.21-5.13,1.87.13-.54.26-1,.39-1.56.08-.34.31-.71.24-1a1.53,1.53,0,0,0-.66-1,1.07,1.07,0,0,0-1,.31A22.21,22.21,0,0,0,88.7,77c-.47.88-.86,1.81-1.38,2.66a46.32,46.32,0,0,1-2.92,4.51,56.14,56.14,0,0,1-4.25,4.74,38.56,38.56,0,0,1-3.38,2.85,2.46,2.46,0,0,1-1.12.49c-.48.06-.91-.07-.61-.78s.37-1.29.59-1.92A2.22,2.22,0,0,0,74,87c-1.47-.21-2.53.73-3.77,1.15a14.15,14.15,0,0,1-1.88.6c-.23,0-.52-.22-.78-.34.14-.27.21-.65.43-.77,1.34-.71,2.73-1.32,4.06-2a27.8,27.8,0,0,0,4.12-2.45,24,24,0,0,0,3.11-3.33c1.13-1.36,2.16-2.81,3.28-4.17a3.77,3.77,0,0,0,.9-3A10.52,10.52,0,0,1,83.43,71.38Z"/><path class="cls-5" d="M110.09,51.24a2.37,2.37,0,0,1,.68-.42,27.05,27.05,0,0,1,5-1.46,6.78,6.78,0,0,1,4.4,1A6.61,6.61,0,0,1,122.74,54a37.57,37.57,0,0,0,3.18,6.3c.54.88.49,1.14-.39,1.72-1.22.81-2.43,1.63-3.7,2.35-.66.37-5.68,2.92-8,3.11-.19.06-.66-.25-.72-.47a6.35,6.35,0,0,1-.26-1.79,10.34,10.34,0,0,0-1.46-5c-.35-.62-.62-1.29-.94-1.94A11.19,11.19,0,0,0,108,55a35.57,35.57,0,0,1-3-3.76c-.67-.87-1.33-1.76-2-2.62a12.21,12.21,0,0,0-1-.93c.34-.32.7-.63,1-1,1.91-1.91,4.39-2.89,6.72-4.1a.75.75,0,0,1,.69.14c1,1.28,2,2.58,3,3.92.09.13-.17.74-.4.85-1.16.56-2.37,1-3.54,1.54-.46.22-1.06.47-.83,1.19A1.15,1.15,0,0,0,110.09,51.24Z"/><path class="cls-6" d="M82.6,34.93c-.09.94-.15,1.87-.26,2.81a3.15,3.15,0,0,0,1.45,3.18,2,2,0,0,0,2.61-.28,3.89,3.89,0,0,1,.59-.56c.31-.19.65-.31,1-.47a5,5,0,0,1,0,1c-.41,2-.85,3.93-1.28,5.89-.07.28-.15.56-.24.89-1-.55-1.82-1.08-2.71-1.52A17.58,17.58,0,0,0,75,44.07c-2.14.11-4.24.79-6.37,1.08-1.5.21-3,.17-4.56.3-2.31.21-4.61.41-6.9.71-1.34.18-2.64.55-4,.78a.72.72,0,0,1-.62-.34,4.64,4.64,0,0,1,.15-3.26A27.63,27.63,0,0,1,54.2,39.9a13.83,13.83,0,0,1,2-2.62,17.24,17.24,0,0,1,2.23-1.85,4.34,4.34,0,0,1,1-.38c0,1.07.06,2,0,2.89-.1,1.19-.21,2.35.7,3.3a1.77,1.77,0,0,0,2.73.2c1.05-1,1.9-2.15,2.87-3.21.33-.37.78-.63,1.11-1a19.81,19.81,0,0,1,1.24-1.62,24.76,24.76,0,0,1,2.33-1.87c.09-.08.44,0,.47.06a1.19,1.19,0,0,1,.06.65c-.24,1.24-.57,2.47-.72,3.72-.21,1.76.92,2.69,2,3.38a1.13,1.13,0,0,0,1,0,25.53,25.53,0,0,0,2.23-1.36c1-.67,2-1.34,2.94-2.07.71-.55,1.32-1.21,2-1.79s1.25-1,1.88-1.51Z"/><path class="cls-7" d="M86,51.37a4,4,0,0,0-1.83-2.79,14.77,14.77,0,0,0-6.56-2.12,25,25,0,0,0-5.26.21l-4.39.7a57.89,57.89,0,0,0-6,.57,53.78,53.78,0,0,0-6.07.74,9.24,9.24,0,0,0-6.53,4.87,10.82,10.82,0,0,0-1.22,6.19c.11,1.89.2,2.57,2.3,3s3.94.81,5.91,1.22A19.45,19.45,0,0,0,63,63.77c1.3-.17,2.58-.55,3.88-.7,1.64-.19,3.29-.26,4.94-.35s3.36-.13,5-.26c.87-.07,1.72-.35,2.58-.44,3.06-.32,4.76-2.34,6-4.84A8.78,8.78,0,0,0,86,51.37Zm-2,3.24a4.08,4.08,0,0,1-2.43,4.07,33.7,33.7,0,0,1-6.73,2.18c-3,.63-6.05.93-9.08,1.36a52.66,52.66,0,0,1-10.94.47,4.86,4.86,0,0,1-4.64-4.16c-.15-1.46-.41-3,.33-4.23A7.63,7.63,0,0,1,54,51.21c.55-.22,1-.59,1.59-.8a19.76,19.76,0,0,1,3.23-1.08c1.54-.28,3.13-.36,4.7-.51.69-.06,3.82.1,4.63,0h3.18c2.38-.32,5.57-1.18,7.93-.52s3.55,2.41,4.59,4.33A5.13,5.13,0,0,1,83.92,54.61Z"/><path class="cls-8" d="M81.62,53.41c0,2.19-.75,3.21-3.18,3.83s-5,1.33-7.61,1.76c-3,.53-6.13.82-9.2,1.18a2.84,2.84,0,0,1-.91-.23,2.63,2.63,0,0,1,.41-.8c1.13-1.08,2.35-2.08,3.43-3.22s2-2.34,2.93-3.53c.27-.34.39-.81.69-1.09a3.29,3.29,0,0,1,1.39-.81c1.5-.31,3-.46,4.53-.72a10.43,10.43,0,0,1,4.38.15,7.49,7.49,0,0,1,1.53.53A2.8,2.8,0,0,1,81.62,53.41Z"/><path class="cls-4" d="M34.4,81.36a9.44,9.44,0,0,1,.92-1.27A2.43,2.43,0,0,0,36,78.31a1.52,1.52,0,0,0-1.09-1.64c-1.59-.64-3.18-1.26-4.8-1.81-1.4-.47-2.05-1.26-1.83-2.46a2.1,2.1,0,0,1,2.29-1.51c1.51.25,3,.42,4.56.65s3.14.46,4.7.79c2.1.46,3.94-.31,5.8-1.09,1.43-.59,2.89-1.11,4.35-1.62.21-.07.71.07.73.17a10.55,10.55,0,0,0,2.76,5l-2.9.94c-1,.33-2,.72-3.07,1a14.67,14.67,0,0,1-3.94.71,7,7,0,0,0-5.94,2.42,9.74,9.74,0,0,1-2.36,1.55C35.11,81.44,34.87,81.36,34.4,81.36Z"/><path class="cls-4" d="M65.28,66.32c-.58.52-1.17,1-1.73,1.55a2.73,2.73,0,0,0-.42,3.81A7,7,0,0,0,70.65,75c2-.32,4.13-.37,6.18-.6.69-.08,1.36-.36,2.07-.48a7.61,7.61,0,0,1-4.19,3,21.62,21.62,0,0,1-8.47.42c-3-.5-6.08-.88-8.82-2.39a6.59,6.59,0,0,1-2-1.67,14.45,14.45,0,0,1-2.79-6.46c-.09-.52.16-.67.62-.6,1,.16,2,.35,2.94.48a8.48,8.48,0,0,0,1.88.11c2.33-.2,4.65-.45,7-.69Z"/><path class="cls-8" d="M60.51,52.1c-1.54,1.53-3.08,3.06-4.64,4.57-.84.83-1.72,1.63-2.59,2.43-.12.11-.41.25-.43.22a2.16,2.16,0,0,1-.5-.79,4.12,4.12,0,0,1,1.91-4.65,13.78,13.78,0,0,1,5.38-2.18,2.78,2.78,0,0,1,.75.08Z"/><path class="cls-8" d="M55.47,60l1-.91a35.2,35.2,0,0,0,4-4.12,19.18,19.18,0,0,1,3.08-3.39A5.73,5.73,0,0,1,65,50.94l.24.3a25.35,25.35,0,0,1-1.64,2.44c-1,1.15-2,2.2-3,3.29-.3.32-.65.58-1,.9a6.59,6.59,0,0,0-1,1.24C57.87,60.58,57.23,60.83,55.47,60Z"/><path class="cls-9" d="M87.65,94.91c1.33-1.11,2-1.61,3.28-2.62.36-.29,3.58-3.77,6.56-3.45a21.94,21.94,0,0,1,5.26-.16c1.45.22,1.33,1,2.69,1.52a21.32,21.32,0,0,1,3.38,2c1.49.92,3,1.9,4.48,2.75.88.5,1.07.2,1.48-.77a8.11,8.11,0,0,1,1.69-2.55c1.36-1.35,2.87-2.55,4.32-3.82l.06-.06,1.6-.46c0,.46.14.92.15,1.38,0,2-.14,4.13-.1,6.21a1.29,1.29,0,0,1-.09.59,1.16,1.16,0,0,1-.74.48c-2.71.84-5.42.39-8.19.45a1.43,1.43,0,0,0-.86.4,35.73,35.73,0,0,1-2.71,2.91,65.6,65.6,0,0,1-5.37,4,11,11,0,0,1-2.42.88,13.61,13.61,0,0,1-5.75.85c-2.61-.17-4.49-1.67-6-3.73a2.62,2.62,0,0,1-.53-.82,1.39,1.39,0,0,1,.09-1c.55-.69,1.25-1.27,1.81-2C92,97.62,88.59,95.3,87.65,94.91Zm9.18-1.76c-.56.09-1.26.12-1.43.94A6.48,6.48,0,0,0,95.14,96a2.22,2.22,0,0,0,.71,1.23c.09.09.82-.23,1-.51a17.84,17.84,0,0,0,1-2.39C98.06,93.6,97.71,93.15,96.83,93.15Z"/><path class="cls-10" d="M103.27,111c-.54-.35-1.27-.58-1.57-1.08-.68-1.1.29-3,1.52-3.34.76-.23,1.47-.64,2.23-.89a1,1,0,0,1,.89.14,4.29,4.29,0,0,1,1.16,3.57c0,1-1,1.07-1.75,1.22a16.52,16.52,0,0,1-2.34.16Z"/><path class="cls-10" d="M101.12,82.54c1.5.42,2.77.69,4,1.16.7.27.49,1,.17,1.47A3.1,3.1,0,0,1,104,86.3a3.59,3.59,0,0,1-1.51.09c-.93,0-1.86-.06-2.77-.16-.54-.06-1.49-.23-1.5-.39a2.67,2.67,0,0,1,.42-1.92A10.81,10.81,0,0,1,101.12,82.54Z"/><path class="cls-11" d="M96.83,93.15c.88,0,1.23.45,1,1.21a17.84,17.84,0,0,1-1,2.39c-.16.28-.89.6-1,.51A2.22,2.22,0,0,1,95.14,96a6.48,6.48,0,0,1,.26-1.94C95.57,93.27,96.27,93.24,96.83,93.15Z"/><path class="cls-12" d="M90.17,61.75a7.07,7.07,0,0,1,.39-1c.49-.81,1.09-1.56,1.51-2.4s.49-1.51.78-2.25c.42-1,1-2,1.32-3.06.67-2,1.28-4,1.86-6a38.05,38.05,0,0,0,1.28-5,7.14,7.14,0,0,0-.61-5,2.37,2.37,0,0,0-3.93-.58,16.91,16.91,0,0,0-2,3,6,6,0,0,0-.64,1.64c-.41,1.82-.76,3.66-1.15,5.49-.16.81-.57,2.41-.57,2.41s.68,2.55.79,3.41c.13,1.1-1.22,8.82-2.09,9.65-1.43,1.34-8.66,3.37-10.35,3.48-1.53.09-8.45,1.05-8.55,1.14-.93.77-1.87,1.56-2.73,2.41a1.38,1.38,0,0,0-.38,1.14,3.13,3.13,0,0,0,2.26,2,17,17,0,0,0,5.9,0c2.76-.39,5.62-.49,8-2.1,1.48-1,2.89-2.06,4.27-3.18.69-.56,1.16-1.4,1.88-1.91a3.79,3.79,0,0,0,1.1-1.45C88.94,62.93,89.16,61.85,90.17,61.75Z"/><path class="cls-4" d="M125.07,53.12c1,2.18,1.77,4.08,2.64,6a.85.85,0,0,0,.77.32c.82-.52,1.59-1.13,2.38-1.7.62-.43,1.27-.82,1.88-1.27a24.45,24.45,0,0,1,3.49-2.52c2.26-1.07,4.13-2.68,6.23-3.94,1.15-.7,2.24-1.51,3.38-2.23,1.62-1,3.27-2,4.9-3.06s3-1.89,4.44-2.85c1.22-.8,2.44-1.58,3.62-2.43.27-.19,2.21-.78,1.51-1.57a5.72,5.72,0,0,0-4.07-.3c-1.24.52-3,2.53-3.47,2.31a4.65,4.65,0,0,0-3.82-.31,3.33,3.33,0,0,0-2,2.33c-.13.68-3.3,3.09-4.76,3.23-1.65.16-5.43.64-6.86,1.81C134.71,47.42,127.84,51.5,125.07,53.12Z"/><path class="cls-4" d="M138,29.16a3.34,3.34,0,0,1-1.89.2c-.57-.37-1.53-.38-2.1-.77a1.89,1.89,0,0,0-2.57.13c-1,.93-1.41,1.25-2.39,2.23a56.68,56.68,0,0,1-5.77,4.11,24.91,24.91,0,0,0-5.22,2.71,43.76,43.76,0,0,1-5.1,2.75c-.89.47-1,.84-.22,1.41a7.5,7.5,0,0,1,2.35,2.87c.11.22.75.44.91.32,1.21-.83,2.35-1.75,3.51-2.64.47-.36.92-.75,1.41-1.07,2.25-1.43,4.53-2.82,6.78-4.25,1.81-1.16,3.55-2.46,5.75-2.87a12.28,12.28,0,0,0,2.15-.77c.69-.28,3.43-.79,4-1.27C141.61,30.56,142.16,27.14,138,29.16Z"/><path class="cls-13" d="M31.84,82.6H32"/></g></svg>