<svg xmlns="http://www.w3.org/2000/svg" viewBox="0 0 200 200"><defs><style>.cls-1{fill:#f8c8a8;}.cls-2{fill:#4d4d4d;}.cls-3{fill:#dcb14e;}.cls-4{fill:#ca885d;}.cls-5{fill:#f39f61;}.cls-6{fill:#2e3659;}.cls-7{fill:#3e3a39;}.cls-8{fill:#1a1a1a;}.cls-9{fill:#ed7952;}.cls-10{fill:#ca6749;}.cls-11{fill:none;stroke:#2e3659;stroke-miterlimit:10;stroke-width:0.53px;}</style></defs><g id="レイヤー_1" data-name="レイヤー 1"><path class="cls-1" d="M180.61,181.39c-21.83,23.23-63.33,17.82-92.73,16.3-21.82-1.13-76.16,6.05-80.75-25.12-.94-6.41,1.2-13,4.72-18.42,3.11-4.79,7.42-9.25,7.93-14.93.41-4.68-1.9-9.12-4.13-13.25-4.29-7.92-11.14-16.53-13.24-25.2-2.63-10.84-.06-25.49-.06-36.68C2.35,44.21.53,24,20.59,12.45,39.11,1.79,66.94-3.29,86.72,5.68c24.14,10.94,50.19,16.53,72.31,32,33.05,23,39.28,53.77,39.28,91.51,0,12.75-3.61,26.74-8.77,38.54A47.82,47.82,0,0,1,180.61,181.39Z"/><path class="cls-2" d="M86.68,157.49a1.32,1.32,0,0,1-1.47,1.23,1.29,1.29,0,0,1-1.44-1.23v0l.12-9.93C81.43,152,80.59,152,80.11,152a1.48,1.48,0,0,1-1.5-1.35,1.36,1.36,0,0,1,.45-1,25.71,25.71,0,0,0,4.83-7.2v-.33l-3,.06h0A1.21,1.21,0,0,1,79.54,141a1.33,1.33,0,0,1,1.38-1.35h2.94L83.8,137c-1,.21-2.4.42-2.64.42a1.32,1.32,0,0,1-1.32-1.38,1.16,1.16,0,0,1,1.08-1.23,22.77,22.77,0,0,0,7-1.71,1.36,1.36,0,0,1,.48-.09,1.38,1.38,0,0,1,1.29,1.38c0,.81-.42,1.17-3,2,0,.63,0,1.83-.06,3.27h2.22A1.27,1.27,0,0,1,90.13,141a1.22,1.22,0,0,1-1.29,1.26h0l-2.28,0v2.7a1.76,1.76,0,0,1,.39-.06c.75,0,2.94,2,3.48,2.76a1.4,1.4,0,0,1,.33.9,1.44,1.44,0,0,1-1.38,1.41,1.3,1.3,0,0,1-1-.6,15.64,15.64,0,0,0-1.77-2c0,4.47.15,10.2.15,10.2Zm2.37.75a1.38,1.38,0,0,1-1.44-1.32,1.36,1.36,0,0,1,.78-1.17c6.21-3.51,7.14-9.6,7.14-16.47q0-2.43-.09-4.95v-.06a1.41,1.41,0,0,1,2.82,0c0,.72,0,1.41,0,2.1,0,1,0,2-.06,3a1.58,1.58,0,0,1,0,.39,23.75,23.75,0,0,0,.27,3.63,34.09,34.09,0,0,0,4.14-4.41,1.25,1.25,0,0,1,1-.48,1.6,1.6,0,0,1,1.56,1.53,1.66,1.66,0,0,1-.48,1.11,42.34,42.34,0,0,1-5.58,5,15.39,15.39,0,0,0,6.12,8.73,1.56,1.56,0,0,1-.78,2.91c-1.41,0-5.52-3.66-7.2-10.29C95.32,155.6,90.07,158.24,89.05,158.24Zm1-12.57a1.94,1.94,0,0,1,.18-.75,9.15,9.15,0,0,0,.69-3.66,11.21,11.21,0,0,0-.12-1.47.83.83,0,0,1,0-.27A1.18,1.18,0,0,1,92,138.38c1.5,0,1.5,1.41,1.5,3,0,2.22-.33,5.46-2.28,5.46A1.15,1.15,0,0,1,90,145.67Z"/><path class="cls-2" d="M117.45,148.59a12.55,12.55,0,0,1-3.23,6.48c-1.23,1.13-2.58.51-3.28-.87-1-2,.06-5,2.21-6.45a6.7,6.7,0,0,1,6.91-.37,4.74,4.74,0,0,1,1.49,6.73,6.71,6.71,0,0,1-3.9,2.64c-1.41.37-1.91-1.25-.53-1.57a5,5,0,0,0,3-1.79,3.47,3.47,0,0,0-.88-4.9,4.21,4.21,0,0,0-2-.64A.79.79,0,0,1,117.45,148.59Zm-3.55.3c-1.49,1.15-2.29,3.28-1.62,4.51.24.47.66.71,1.06.36a9.66,9.66,0,0,0,2.48-5.33,1.18,1.18,0,0,1,.15-.5A5.37,5.37,0,0,0,113.9,148.89Z"/><path class="cls-2" d="M42.32,176.6v2.77a.74.74,0,0,1-1.47,0V176.6H39.46a.64.64,0,0,1-.72-.64.69.69,0,0,1,.72-.7h1.39v-.4l0-2.77a15.29,15.29,0,0,1-3.38,4.54.79.79,0,0,1-.58.24.75.75,0,0,1-.64-.35l0,2.83a.74.74,0,0,1-.79.74.7.7,0,0,1-.75-.72v0l.16-7.39c-1,1.33-1.46,1.57-1.81,1.57a.73.73,0,0,1-.75-.71.79.79,0,0,1,.27-.56,14.78,14.78,0,0,0,3.65-5.79.72.72,0,0,1,.69-.51.87.87,0,0,1,.89.78,12.55,12.55,0,0,1-1.37,2.9l-.13,6.19a.87.87,0,0,1,.21-.22,14.58,14.58,0,0,0,3.89-5l-2.72.05h0A.65.65,0,0,1,37,170a.71.71,0,0,1,.74-.72h3.12v-2.73a.69.69,0,0,1,.75-.68.71.71,0,0,1,.78.68v2.73h3.57a.68.68,0,0,1,.71.7.66.66,0,0,1-.69.69h0l-3.2-.05a15.45,15.45,0,0,0,4.2,4.55.76.76,0,0,1,.33.64.8.8,0,0,1-.78.8,1,1,0,0,1-.64-.26,17.05,17.05,0,0,1-3.56-4.26l0,2.74v.42h1.43a.67.67,0,1,1,0,1.34Z"/><path class="cls-2" d="M49,177.67a1,1,0,0,1,.14-.45,5.34,5.34,0,0,0,.6-2,.5.5,0,0,1,.49-.54.55.55,0,0,1,.58.62c0,.66-.4,3-1.23,3A.58.58,0,0,1,49,177.67Zm5.19-4.73c.27,0,1.41,0,1.41,1.61,0,2.77-.39,5-2.84,5-1,0-1.57-.17-1.57-.81a.65.65,0,0,1,.63-.69.52.52,0,0,1,.17,0,3.9,3.9,0,0,0,.88.12c.61,0,1.16-.32,1.28-2a.41.41,0,0,1-.33.18c-.15,0-.27-.08-.32-.29a6.85,6.85,0,0,0-.53-1.25.37.37,0,0,1-.05-.18c0-.16.16-.27.35-.27.5,0,.9,1.14.93,1.25,0-.34,0-.64,0-.85,0-.62-.08-.69-1.22-.69l-1.65,0a1.31,1.31,0,0,1-1.47-1.34c0-.63,0-1.61,0-2.57s0-1.9,0-2.43a1.42,1.42,0,0,1,1.47-1.49h3.8a.55.55,0,0,1,.53.58.61.61,0,0,1-.61.62H53.57v1.06h1.07a.55.55,0,1,1,0,1.1H53.57v1.08h1.07a.55.55,0,1,1,0,1.1H53.57v1.11ZM51,177.08V177c0-.24,0-.52,0-.77,0-.48,0-.93,0-1.12v-.07a.37.37,0,0,1,.37-.41c.23,0,.55,0,.55,2.06,0,.24,0,.79-.52.79A.38.38,0,0,1,51,177.08Zm1.3-9.6h-.71c-.24,0-.43.13-.45.52,0,.14,0,.33,0,.54h1.17Zm0,2.17H51.17v1.08h1.17Zm0,2.18H51.17c0,.22,0,.43,0,.61a.48.48,0,0,0,.5.5h.66Zm0,4.74a7.13,7.13,0,0,0-.3-1.51.53.53,0,0,1,0-.16.35.35,0,0,1,.37-.35.42.42,0,0,1,.39.27,6,6,0,0,1,.41,1.65.45.45,0,0,1-.45.48A.38.38,0,0,1,52.32,176.57Zm7.67-6v1c.45,0,.89,0,1.28,0a1.33,1.33,0,0,1,1.45,1.07,5.92,5.92,0,0,1,0,.88c0,.26,0,.53,0,.76-.05.72-.59,1.23-1.55,1.26-.26,0-.56,0-.85,0a6.17,6.17,0,0,0,2.83,2.8.75.75,0,0,1,.45.67.78.78,0,0,1-.77.8c-.7,0-2.56-1.46-3.49-3.46A5.48,5.48,0,0,1,55.49,180a.77.77,0,0,1-.72-.77.65.65,0,0,1,.48-.64,4.62,4.62,0,0,0,3-3c-1.76,0-2.41,0-2.41-1.94,0-.32,0-.64,0-.9a1.28,1.28,0,0,1,1.4-1.15c.41,0,.88,0,1.36,0v-1H57.49a.52.52,0,0,1-.51-.42l-.53.53a.71.71,0,0,1-.51.22.72.72,0,0,1-.72-.69.64.64,0,0,1,.25-.49,12.58,12.58,0,0,0,2.47-3,1.42,1.42,0,0,1,1.21-.73,1.78,1.78,0,0,1,1.32.67,21,21,0,0,0,2.83,2.75.78.78,0,0,1,.3.59.82.82,0,0,1-.76.82c-.32,0-.47-.14-1.19-.86v0a.58.58,0,0,1-.56.61Zm-2.8,3c0,.76,0,.89,1.36.89a11.39,11.39,0,0,0,.08-1.81C57.22,172.66,57.19,172.66,57.19,173.58Zm3.9-4.23c-.61-.66-1.18-1.33-1.63-1.87a.35.35,0,0,0-.26-.13.22.22,0,0,0-.21.13,22.86,22.86,0,0,1-1.32,1.87ZM60,173.67c0,.26-.06.53-.09.8,1.52,0,1.54,0,1.54-1,0-.77,0-.82-1.43-.82C60,173.16,60,173.58,60,173.67Z"/><path class="cls-2" d="M68,179.67c-1.1.6-1.9-.88-.86-1.39a15.57,15.57,0,0,0,5-4.24,10.13,10.13,0,0,0-1.93-1c-.86-.3-.25-1.73.87-1.3a16,16,0,0,1,2,1,20.8,20.8,0,0,0,2-3.74c.56-1.35,2.2-.48,1.68.54a36.41,36.41,0,0,1-2.32,4.05,7,7,0,0,1,1.6,1.46.91.91,0,0,1-.17,1.26.75.75,0,0,1-1.14-.13,7.44,7.44,0,0,0-1.3-1.21A17.51,17.51,0,0,1,68,179.67Z"/><path class="cls-2" d="M82.24,177.45a.84.84,0,0,1,0-1.67c2.66,0,7.7,0,10.4,0,1.2,0,.93,1.7,0,1.67C89.57,177.37,85.1,177.37,82.24,177.45Zm1.86-5.36a.8.8,0,1,1,.09-1.6c1.75,0,4.39,0,6.29,0a.8.8,0,1,1-.08,1.6C88.72,172.12,85.76,172.12,84.1,172.09Z"/><path class="cls-2" d="M105.7,176.55a.71.71,0,1,1,0,1.41c-2.36-.08-5.56-.1-7.67,0a.72.72,0,1,1,0-1.43c1.07,0,2.64-.06,4.26-.06.19-.72.42-1.63.5-2.13,0-.24,0-.38-.32-.38-.68,0-1.77,0-2.82,0a.69.69,0,1,1-.11-1.38c1.4,0,2.86,0,3.66,0a1.21,1.21,0,0,1,1.2,1.62c-.16.7-.37,1.53-.57,2.22C104.43,176.52,105.09,176.54,105.7,176.55Z"/><path class="cls-2" d="M110.72,174.64a.77.77,0,0,1-.85-.77.82.82,0,0,1,.85-.82h10a.8.8,0,1,1,0,1.59Z"/><path class="cls-2" d="M129.19,168.1a4.79,4.79,0,0,0,.67-.29c.88-.53,1.74.8.56,1.4a9,9,0,0,1-1.76.52,15.79,15.79,0,0,1-.77,1.62,2.34,2.34,0,0,1,2.69,1.39c.65-.33,1.33-.67,1.95-.94a12.47,12.47,0,0,0,1.25-.59.85.85,0,1,1,.9,1.44c-.52.25-.88.33-1.73.65-.68.26-1.4.58-2,.88a12.78,12.78,0,0,1,0,1.76,1,1,0,0,1-.85,1c-.4,0-.77-.29-.72-.92,0-.33,0-.7,0-1l-.42.24c-2,1.28-1.74,2.25-.85,2.69a5,5,0,0,0,3.17-.12c1.41-.44,1.86,1.29.39,1.68-.95.24-3.12.48-4.37-.23-2.16-1.21-1.78-3.38,1.12-5.28.22-.14.48-.32.78-.5-.43-1.34-1.66-1.18-2.7,0l-.07.06a3.45,3.45,0,0,1-.36.42c-.88.78-2-.13-1.09-1a8,8,0,0,0,1.29-1.51,13.75,13.75,0,0,0,.76-1.42,3.2,3.2,0,0,1-2-.18c-1.15-.57-.37-2.08.75-1.33a2.5,2.5,0,0,0,1.51,0l.24,0a6.62,6.62,0,0,0,.17-1.34c.07-1,1.57-.87,1.61-.08a3.26,3.26,0,0,1-.13.93Z"/><path class="cls-2" d="M139.17,180.06a.78.78,0,0,1-.82-.75.72.72,0,0,1,.72-.72c2.08-.29,3.41-1.09,4.05-2.45a.75.75,0,0,1,.72-.48.83.83,0,0,1,.85.75.76.76,0,0,1-.08.32C143.18,179.74,139.17,180.06,139.17,180.06Zm3.68-4.71a1.7,1.7,0,0,1-1.87-1.6c0-.7,0-1.86,0-3s0-2.24,0-2.86a1.62,1.62,0,0,1,1.76-1.57c.73,0,1.69,0,2.69,0s2,0,2.8,0a1.65,1.65,0,0,1,1.66,1.46c0,.7.05,1.73.05,2.78s0,2.36-.05,3.14a1.7,1.7,0,0,1-1.74,1.63c-.28,0-.55,0-.82,0,0,.64,0,1.4,0,1.91,0,.88.19,1.09,1.57,1.09,1.23,0,2-.19,2-1.64a.71.71,0,0,1,.75-.75.81.81,0,0,1,.85.87c0,2.75-1.86,3-3.68,3-1.62,0-3-.16-3-1.94,0-.43,0-1.63,0-2.5C144.8,175.38,143.78,175.37,142.85,175.35Zm5.6-5.14h-6.07v1.25h6.07Zm0-1.23c0-.24,0-.46,0-.64,0-.41-.22-.65-.75-.69s-1.23,0-2,0-1.83,0-2.5,0a.73.73,0,0,0-.75.71c0,.17,0,.38,0,.62Zm-6,3.72c0,.24,0,.44,0,.64,0,.51.3.68.76.7.74,0,1.54.05,2.36.05s1.44,0,2.13-.05.76-.62.76-1.34Z"/><path class="cls-2" d="M164.47,177.22c1.16-1,1.12-2.56.2-3.16a4.18,4.18,0,0,0-4.17.27,3.52,3.52,0,0,0-1.35,1.2c-.57.85-2.17-.1-1.18-1.07a58.37,58.37,0,0,0,4.83-5.17c.18-.23,0-.16-.11-.1A13.17,13.17,0,0,1,160,170c-1.26.27-1.5-1.32-.42-1.44a25.44,25.44,0,0,0,3.53-.79c1.28-.37,2.33.77,1.53,1.67-.51.57-1.15,1.2-1.79,1.79s-1.28,1.17-1.86,1.73a4.93,4.93,0,0,1,4.5-.05c2.31,1.38,1.55,4.19-.13,5.41a5.27,5.27,0,0,1-5.3.4c-1.69-1.1-.94-3.09.95-3.15a2.27,2.27,0,0,1,2.53,2.16A2.24,2.24,0,0,0,164.47,177.22Zm-3.41-.48c-.71.07-.74.73-.23,1a3,3,0,0,0,1.35.24C162.19,177.24,161.76,176.68,161.06,176.74Z"/><path class="cls-3" d="M147.27,63.46s4.75-6.68,7.54-5.14,8.78,10.19,8.78,10.19l4,16.7-3.34-2.39-12.79-5.16-4.16-14.2"/><path class="cls-4" d="M88.26,89.76S108.62,65,109.88,62.53s13-20.11,19.8-15.48,17.59,16.41,17.59,16.41l4.16,14.2s-5,3.79-10.16,8-24.64,24.51-26.78,24.15-8.16-4.38-13-5.18-10.44-4-11.24-6A79.37,79.37,0,0,1,88.26,89.76Z"/><path class="cls-5" d="M112.35,113s27.45-27.47,31.88-29.79,6-10.51,11.61-4.92,18.09,13.64,21,17.33,4.11,8.15,3.7,10.16-6,10-14.85,10-12-.4-19.27-.4S112.35,113,112.35,113Z"/><path class="cls-6" d="M115.61,109.48c.71-.72,1.4-1.44,2.1-2.16.9-.94,1.8-1.87,2.71-2.79,1.18-1.21,2.18-2.21,3.23-3.19.78-.74,1.58-1.46,2.38-2.19,1-.92,2.07-1.87,3.08-2.83a13.7,13.7,0,0,0,1-1.14,9.79,9.79,0,0,1,1.44-1.51A37.13,37.13,0,0,0,134.48,91c.47-.46.94-.92,1.42-1.36l.48-.48a11.27,11.27,0,0,1,1-.87l2-1.51c.6-.45,1.2-.89,1.79-1.35s.9-.72,1.35-1.09,1.07-.88,1.62-1.3A13.17,13.17,0,0,1,146,81.83a27.18,27.18,0,0,1,2.56-1.15c.17-.06.34-.14.51-.21a4.79,4.79,0,0,1,2.38-.53l.39.06a1.89,1.89,0,0,0,.66.06,8.34,8.34,0,0,1,4.24,1c.55.23,1.11.47,1.67.65a9.05,9.05,0,0,1,2.91,1.82l.26.21a27.82,27.82,0,0,0,3.09,2.19,12.56,12.56,0,0,1,2.43,2.18l.4.44c.37.38.7.8,1,1.21a12.46,12.46,0,0,0,1.39,1.57,39.39,39.39,0,0,1,4.45,4.9c.48.6,1,1.19,1.45,1.77.35.41.69.82,1,1.24s.89,1.09,1.36,1.62a1,1,0,0,0,.68.4.72.72,0,0,0,.54-.24c.72-.7.68-.9.21-1.47l-.75-.87a25.94,25.94,0,0,1-2.23-2.85,24.51,24.51,0,0,0-3-3.68c-.41-.42-.81-.84-1.22-1.25a38,38,0,0,1-3.81-4.28,5.76,5.76,0,0,0-1.19-1.17c-.47-.35-.95-.67-1.43-1-.64-.44-1.31-.9-1.93-1.4a20.4,20.4,0,0,0-4.67-3l-.81-.36a18.16,18.16,0,0,0-2.79-1.06,3.27,3.27,0,0,1-2.33-2c-.68-1.39-1.45-2.78-2.18-4.12-.42-.74-.83-1.49-1.23-2.24-.17-.33-.32-.67-.47-1A12.31,12.31,0,0,0,149,68c-.31-.53-.66-1-1-1.55s-.51-.75-.75-1.13a2.78,2.78,0,0,1-.4-1,1.26,1.26,0,0,1,.24-1l.32-.34a24.61,24.61,0,0,1,2.19-2.14c.55-.44,1.14-.84,1.71-1.23s1.12-.75,1.64-1.17a2.07,2.07,0,0,1,1.94-.34,6.1,6.1,0,0,1,2.18,1.12c.23.15.45.31.69.46a11.35,11.35,0,0,1,4.58,5.61c.43,1,.93,2,1.5,3.14a.71.71,0,0,0,1,.44,1.27,1.27,0,0,0,.75-.72,1.36,1.36,0,0,0-.11-1.12c-.12-.24-.26-.49-.39-.73l-.3-.54-.63-1.24a30.12,30.12,0,0,0-1.51-2.73,12.64,12.64,0,0,0-2.28-2.53A11.09,11.09,0,0,0,156.73,57c-.38-.13-.75-.28-1.12-.44s-.91-.37-1.37-.51a1.16,1.16,0,0,0-.77.13,15.42,15.42,0,0,0-1.86,1.21,31.37,31.37,0,0,0-3.67,3.07,12,12,0,0,1-1.5,1.21l-.75.55-.21.16-.43-.56c-.17-.21-.31-.39-.44-.57-.25-.34-.49-.69-.73-1a23.08,23.08,0,0,0-1.57-2.11c-1.25-1.46-2.59-2.87-3.89-4.25l-.57-.61a10.83,10.83,0,0,0-1.49-1.33c-.62-.45-1.26-.88-1.9-1.3l-1.49-1c-.33-.23-.65-.48-1-.73s-.64-.5-1-.73a8,8,0,0,0-1.45-.84,21.7,21.7,0,0,0-2.41-.77,2.54,2.54,0,0,0-1.36,0,40.26,40.26,0,0,0-4,1.39,6.3,6.3,0,0,0-1.55.84,9.06,9.06,0,0,0-1,1l-.48.52-.31.32c-.39.4-.8.82-1.22,1.21l-1.6,1.44c-.51.45-1,.91-1.53,1.37l-.11.1a1.8,1.8,0,0,0-.76,1.15.67.67,0,0,1-.29.45l-.09.09-1,1c-.8.82-1.62,1.67-2.35,2.55a4.79,4.79,0,0,1-.52.49c-.45.38-.72.64-.66,1.11l0,.17-.14.09-.36.2a1.68,1.68,0,0,0-.5.34c-.55.66-1.08,1.36-1.6,2l-.42.55c-.11.15-.22.32-.32.49a2.88,2.88,0,0,1-.86,1,7.66,7.66,0,0,0-2.08,2.09c-.28.36-.57.73-.88,1.08a38.88,38.88,0,0,0-2.54,3.21c-.28.39-.56.78-.85,1.16-.48.63-.94,1.27-1.41,1.9l-1.16,1.59-.37.5c-.61.82-1.23,1.66-1.89,2.45s-1.59,1.88-2.38,2.78l-1,1.14a1,1,0,0,0-.1,1.38c.12.19.27.41.37.43s.38-.15.47-.21a2.78,2.78,0,0,0,.7-.78,3.53,3.53,0,0,1,.61-.72,12,12,0,0,0,1.74-1.91c.51-.66,1.08-1.28,1.63-1.88a21.41,21.41,0,0,0,2.42-3A3.3,3.3,0,0,1,98,77c.13-.12.26-.24.38-.37a5.92,5.92,0,0,0,.65-.85,13.75,13.75,0,0,1,1.63-2.3c.8-.87,1.53-1.85,2.24-2.79l.87-1.15c.11-.15.22-.29.32-.44a8.12,8.12,0,0,1,.64-.81l.42-.44a27.36,27.36,0,0,0,4-4.88,3.08,3.08,0,0,1,.5-.61l1.56-1.6c.75-.77,1.51-1.54,2.25-2.31a4.7,4.7,0,0,0,.44-.54l.17-.23c.24-.3.46-.62.69-.93a16.3,16.3,0,0,1,1.61-2c1-1,2-1.88,3-2.76l1-.83c.23-.2.48-.37.72-.54l.45-.33A8.86,8.86,0,0,1,124.35,49l.69-.22a5.23,5.23,0,0,1,4.35.73c1.12.64,2.19,1.4,3.23,2.13l1,.69a10.52,10.52,0,0,1,1.4,1.12c.77.74,1.52,1.52,2.26,2.27l.36.37.64.66A24.65,24.65,0,0,1,140,58.56c.57.72,1.12,1.47,1.65,2.19s1,1.41,1.57,2.09A2.54,2.54,0,0,1,144,65c-.07.43.13.7.63.82a1.61,1.61,0,0,1,.89.58A40,40,0,0,1,148.79,72c.39.77.82,1.54,1.23,2.28.28.5.56,1,.83,1.52s.39.79.57,1.19l.24.54.08.17-.44.45-.17-.07a1.26,1.26,0,0,0-.49-.1,2.7,2.7,0,0,0-1,.3l-.41.17c-1.42.54-2.69,1.06-3.87,1.62a4,4,0,0,0-.82.59c-.17.15-.34.3-.52.43l-1,.67A20,20,0,0,0,141.31,83c-.61.51-1.22,1.07-1.81,1.6s-1.33,1.22-2,1.79c-.16.13-.33.24-.51.36a1.75,1.75,0,0,0-.93,1,.52.52,0,0,1-.32.3,6.9,6.9,0,0,0-2.28,1.76c-.31.31-.62.63-1,.92a9.45,9.45,0,0,0-1,1,6.33,6.33,0,0,1-1.84,1.64.72.72,0,0,0-.33.42,1.45,1.45,0,0,1-.75,1.17l-.13.09a13.34,13.34,0,0,0-1.09.91c-.25.22-.48.46-.71.7A7.56,7.56,0,0,1,125.11,98a19,19,0,0,0-3.72,3.2l-1.07,1.08c-1.29,1.26-2.54,2.59-3.76,3.88L115,107.87l-.16.16a3.7,3.7,0,0,0-.38.42,1,1,0,0,0,.22,1.13A.75.75,0,0,0,115.61,109.48Z"/><path class="cls-6" d="M153.42,107.71c-.24.52-.43.84-.55,1.18a.88.88,0,0,1-.94.66c-.49,0-.62-.42-.7-.77a2.86,2.86,0,0,1,0-1.13,19.53,19.53,0,0,1,.41-2c.18-.73.48-.95,1.19-.74s1-.14,1.42-.55a1.73,1.73,0,0,1,.59-.53.91.91,0,0,1,1.23.75,2.5,2.5,0,0,1,0,1c-.19.84-.43,1.67-.69,2.49-.19.62-.35.69-1.31.7Z"/><path class="cls-6" d="M165.78,100.84a4.88,4.88,0,0,0,2.12.2,1.23,1.23,0,0,1,1.47,1.2,30.06,30.06,0,0,1,.07,3.29c0,.48-.36.65-.79.41a2.24,2.24,0,0,1-.59-.56,8,8,0,0,1-.59-.84,3.46,3.46,0,0,1-.4.74c-.5.53-1.08.4-1.35-.29a1,1,0,0,1-.07-.3c0-1.09-.08-2.18-.09-3.27A1.55,1.55,0,0,1,165.78,100.84Z"/><path class="cls-6" d="M135.3,70.79c-.22,1-.06,2.3-.76,3.36a1.8,1.8,0,0,1-.42.57c-.44.26-.92.57-1.44.23a1.22,1.22,0,0,1-.54-1.25c.13-1.27.25-2.53.38-3.8a1.39,1.39,0,1,1,2.78-.06A7.45,7.45,0,0,1,135.3,70.79Z"/><path class="cls-7" d="M129.4,103.44c1,0,1.5.57,1.32,1.34a11.06,11.06,0,0,1-.41,1.27c-.27.66-.55,1.33-.86,2-.11.24-.27.59-.47.64a3.85,3.85,0,0,0-1.67.5s-.46-.21-.48-.36a5.44,5.44,0,0,1-.13-1.6c.07-.64.32-1.26.44-1.9.09-.46.27-.81.77-.81s.63-.31.88-.6A2.69,2.69,0,0,1,129.4,103.44Z"/><path class="cls-7" d="M139.32,111c-.16-.14-.35-.28-.51-.45a3.73,3.73,0,0,1-.32-.44,10.16,10.16,0,0,1-1.17,1.44c-.55.47-1.14.18-1.09-.54a9.63,9.63,0,0,1,.71-3.62l1.57.34c.22-.25.45-.55.72-.81a.92.92,0,0,1,1.53.31,3.08,3.08,0,0,1-.31,2C140.22,109.93,140.25,110.76,139.32,111Z"/><path class="cls-6" d="M97.89,98.51a3.14,3.14,0,0,1,0-2.94c.21-.58.42-1.16.62-1.74S99,93,99.7,93.08s1.34.42,1.39,1a7.6,7.6,0,0,1-.35,3.24.8.8,0,0,1-.22.34A4.67,4.67,0,0,1,97.89,98.51Z"/><path class="cls-6" d="M105.66,77.77a2.49,2.49,0,0,1,.29,2.68,15.64,15.64,0,0,1-2.11,3.27.74.74,0,0,1-1,.29.76.76,0,0,1-.41-1c.18-.66.37-1.31.61-2,.34-.86.75-1.7,1.08-2.56S104.43,77.76,105.66,77.77Z"/><path class="cls-6" d="M120,76.18c.41-.84.22-2.2,1.46-2.88a1.47,1.47,0,0,1,1.42,0,1.11,1.11,0,0,1,.51,1.34c-.29.94-.62,1.88-1,2.8a1,1,0,0,1-1.42.49A1.54,1.54,0,0,1,120,76.18Z"/><path class="cls-6" d="M121.25,64.12c.11-.54.21-1.07.32-1.61s.29-1.26.38-1.9.33-1,.92-1,.92.21,1.22.81a1.89,1.89,0,0,1-.19,1.91,3.48,3.48,0,0,0-.51,1.52,2.52,2.52,0,0,1-.45,1.22.87.87,0,0,1-1.08.37.84.84,0,0,1-.57-1c0-.1,0-.21,0-.31Z"/><path class="cls-6" d="M154.93,96.08c0-.49-.12-1-.12-1.56,0-1,0-2,.07-3,0-.37,0-.88.47-.91a2.52,2.52,0,0,1,1.23.37,1.89,1.89,0,0,1,.67.73,1.2,1.2,0,0,1,.2.83c-.39,1-.34,2.08-.95,3S156,96.4,154.93,96.08Z"/><path class="cls-7" d="M116.17,94.87a9.36,9.36,0,0,1-.39,1c-.19.43-.46.83-.67,1.25-.33.64-.8.92-1.29.76a1.44,1.44,0,0,1-.7-1.35c0-.27.11-.54.16-.81.12-.73.26-1.47.36-2.21s.32-.87,1-.73A2,2,0,0,1,116.17,94.87Z"/><path class="cls-6" d="M127.06,84.87c.32-1.16.56-2.23.92-3.25a1.18,1.18,0,0,1,1.64-.6c.09,0,.25.08.26.14a4.85,4.85,0,0,1,.33,2,8.85,8.85,0,0,1-1.36,2.14s-.1.08-.14.14a.88.88,0,0,1-1.12.25C127.34,85.57,127.23,85.16,127.06,84.87Z"/><path class="cls-6" d="M109.64,83.63c1.75,0,2.08.85,1.51,2.3-.38,1-1.19,1.33-1.81,2-.31.31-.71.13-.86-.29A6.13,6.13,0,0,1,108.8,84C109,83.44,109.45,83.58,109.64,83.63Z"/><path class="cls-6" d="M143,97.45c0-.72,0-1.31.12-1.89.11-.81,1.72-1.59,2.39-1.11a1.36,1.36,0,0,1,.41,1,3.81,3.81,0,0,1-1.59,3A.75.75,0,0,1,143.1,98,3,3,0,0,1,143,97.45Z"/><path class="cls-6" d="M163.16,74.31c.4.06.81.1,1.21.17.93.16,1.26.78,1.08,1.73a7,7,0,0,1-1,2.08,1,1,0,0,1-1.19.38A5.87,5.87,0,0,1,163.16,74.31Z"/><path class="cls-6" d="M112.34,73.33l-.68-.17a2.73,2.73,0,0,1-.17-2.56,13.05,13.05,0,0,0,.36-1.4c.14-.46.36-.76,1-.65s1,.28,1.1.83a1.16,1.16,0,0,1,0,.52C113.52,71.07,113.4,72.39,112.34,73.33Z"/><path class="cls-6" d="M151.87,68.1A2.67,2.67,0,0,1,153,65.5a1.1,1.1,0,0,1,1.41,0,1,1,0,0,1,.28,1.34,14,14,0,0,0-.61,1.51,1.34,1.34,0,0,1-1.16.89.73.73,0,0,1-.62-.26A4.5,4.5,0,0,1,151.87,68.1Z"/><path class="cls-6" d="M165.6,91.76c0,1,.58,1.82,1.42,1.69a7.24,7.24,0,0,0,1.65-.47.58.58,0,0,0,.29-.5,21.87,21.87,0,0,0-.82-2.22.78.78,0,0,0-.57-.37A2.4,2.4,0,0,0,165.6,91.76Z"/><path class="cls-8" d="M46.58,36.43c.3,0,.62.08.94.1a13.1,13.1,0,0,1,4.28.95c.37.15.72.34,1.08.51a20.73,20.73,0,0,1,3.24,1.94c.63.48,1.2,1,1.79,1.57.37.33.71.69,1.09,1s.46.58.22,1a.47.47,0,0,1-.21.21A9,9,0,0,0,56.85,45a11.05,11.05,0,0,1-2.2,1.36,1,1,0,0,0-.22.13,30.37,30.37,0,0,1-4.56,2.55,6.66,6.66,0,0,1-3.78.56c-.48,0-1,0-1.45,0a1.09,1.09,0,0,0-.25.07,1.56,1.56,0,0,0,.21.29c.57.48,1.16.94,1.72,1.43s1.18,1.1,1.78,1.64a8,8,0,0,0,.75.55,1.66,1.66,0,0,1,.35.28.44.44,0,0,1-.16.7,8.92,8.92,0,0,1-4.76,1.36,15.35,15.35,0,0,1-2.63-.11,12.06,12.06,0,0,1-2.54-.73A21.86,21.86,0,0,1,36.91,54a4.17,4.17,0,0,1-1.68-1.65l-.17-.24c-.29,0-.36.23-.44.41-.22.49-.43,1-.62,1.48a12.44,12.44,0,0,1-1.69,3c-.07.1-.12.21-.19.31-.23.4-.43.48-.85.33a4.32,4.32,0,0,1-2.12-1.52,7.89,7.89,0,0,1-.75-1.29c-.3-.66-.69-1.27-1-1.92a23.45,23.45,0,0,1-1.1-2.39,22.64,22.64,0,0,1-.65-2.45c-.11-.43-.18-.87-.27-1.31,0-.17-.09-.33-.14-.56a2.14,2.14,0,0,0-.5.13c-1.08.51-2.13,1.06-3.22,1.53a11,11,0,0,1-1.93.58,1.44,1.44,0,0,1-.75-.13c-.08,0-.16-.17-.17-.27s.09-.19.17-.22c.72-.29,1.46-.54,2.17-.84s1.64-.73,2.45-1.11c.28-.13.54-.28.92-.48a2.82,2.82,0,0,0-.48-.25,16.19,16.19,0,0,1-3.1-1.31,14,14,0,0,1-1.86-1.11,9.53,9.53,0,0,1-2.05-2.25,6.36,6.36,0,0,1-1.26-3.07,5.26,5.26,0,0,0-.15-.6c-.15-.52-.06-.65.48-.71.28,0,.55-.08.83-.09l3.11-.07.56-.06-.68-1.13a9.15,9.15,0,0,1-1.19-3.18,3.27,3.27,0,0,1,.32-2.07c.32-.66.56-1.37.88-2,.2-.41.47-.8.71-1.19a.28.28,0,0,1,.41-.08,4.33,4.33,0,0,1,1,.57c.91.8,1.77,1.64,2.67,2.46a11.91,11.91,0,0,0,1,.85c.27.2.46.07.47-.26a1.09,1.09,0,0,0,0-.25,5.69,5.69,0,0,1,.38-3.5c.21-.49.42-1,.67-1.46A7.11,7.11,0,0,1,29,22.24a13.73,13.73,0,0,1,1.75-1.08c.44-.24.84-.59,1.27-.85a5.73,5.73,0,0,1,.81-.33l2.1-.87a.42.42,0,0,1,.58.18,4.84,4.84,0,0,1,.41.78,11.41,11.41,0,0,1,.77,3.21c.09.92.29,1.84.45,2.76,0,.08.07.15.13.3a4.79,4.79,0,0,0,.6-.39c.53-.49,1-1,1.57-1.51a1.51,1.51,0,0,1,.28-.22c.37-.23.73-.46,1.11-.67a7.6,7.6,0,0,0,1.41-.86,2.17,2.17,0,0,1,.79-.35c.86-.27,1.72-.53,2.59-.75a7.73,7.73,0,0,1,1.52-.21c1.11-.06,2.21-.08,3.31-.09.51,0,.76.2.77.68a15.32,15.32,0,0,1-.78,6.08c-.2.51-.33,1.05-.52,1.57a42.56,42.56,0,0,1-2.42,5.11,9.92,9.92,0,0,1-.77,1.1C46.6,36,46.46,36.16,46.58,36.43Zm-18.85,7a2.1,2.1,0,0,0-.3-.19c-.3-.1-.6-.17-.9-.26-1-.31-2-.58-3-1a14.79,14.79,0,0,1-2.21-1.12c-.66-.4-1.28-.88-1.91-1.33a.82.82,0,0,1-.28-.36.43.43,0,0,1,0-.37.38.38,0,0,1,.36,0,6.75,6.75,0,0,1,.93.56,14.74,14.74,0,0,0,5.14,2.39c.76.2,1.51.48,2.26.73a1.15,1.15,0,0,0,.29.08c.1,0,.25,0,.28-.07a.42.42,0,0,0,0-.33,1,1,0,0,0-.23-.28c-.3-.33-.61-.66-.9-1s-.46-.57-.71-.82A7.69,7.69,0,0,1,25,37.73c-.49-1.07-.92-2.17-1.47-3.2C22.88,33.31,22.49,32,22,30.71a.37.37,0,0,1,.14-.5c.2-.11.37,0,.49.17a.66.66,0,0,1,.12.33,6.69,6.69,0,0,0,.66,2c.54,1.29,1.19,2.54,1.7,3.83a13.78,13.78,0,0,0,2.69,4.08,3.33,3.33,0,0,0,.54.37c0-.21.07-.33.08-.44.09-1.44.16-2.89.29-4.33A15.34,15.34,0,0,1,29.18,33c.15-.48.29-1,.41-1.44.32-1.16.57-2.35.94-3.49.3-1,.73-1.87,1.1-2.8.06-.16.18-.3.35-.2a.45.45,0,0,1,.2.36A1.21,1.21,0,0,1,32,26a5.66,5.66,0,0,0-.67,1.74,1.39,1.39,0,0,1-.06.19c-.23.76-.48,1.52-.69,2.28s-.41,1.6-.6,2.41a18,18,0,0,0-.46,2.18c-.17,1.38-.26,2.78-.38,4.17a10.8,10.8,0,0,0,0,2.84c.07.41.3.53.65.31a8.6,8.6,0,0,0,.93-.65c1-.8,2-1.63,3-2.43A40.83,40.83,0,0,0,38.09,35c.76-.82,1.49-1.68,2.18-2.56s1.59-2.09,2.36-3.15c.55-.75,1-1.54,1.58-2.31a.38.38,0,0,1,.48-.21.39.39,0,0,1,.27.45,1.62,1.62,0,0,1-.21.63c-.41.65-.83,1.31-1.3,1.93-1.13,1.51-2.27,3-3.46,4.47-.79,1-1.64,1.91-2.52,2.82s-1.55,1.47-2.36,2.17-1.63,1.38-2.47,2c-.57.45-1.17.86-1.75,1.29-.15.11-.28.25-.46.41a1.73,1.73,0,0,0,1,.25c1,.06,2,.13,3,.13a37.57,37.57,0,0,0,4.5-.11c1.13-.14,2.28-.11,3.41-.18.73,0,1.45-.14,2.17-.21a22.69,22.69,0,0,0,3.84-.5.36.36,0,0,1,.47.2.63.63,0,0,1-.42.89,5.87,5.87,0,0,1-1,.17c-1.08.12-2.16.24-3.25.34-.58.06-1.16.11-1.75.14-1.38.08-2.76.15-4.14.2-1.12,0-2.24.06-3.36,0s-2.24-.11-3.37-.15a5.36,5.36,0,0,0-.59,0,4.52,4.52,0,0,0,.36.44c.24.24.5.47.75.71a8.73,8.73,0,0,0,.81.8,13.63,13.63,0,0,0,2.1,1.51c.29.15.54.36.82.54.64.38,1.26.78,1.91,1.14A4.38,4.38,0,0,0,39,49.9a.82.82,0,0,1,.71.54c.08.27-.09.5-.33.42a13.63,13.63,0,0,1-2.09-.74,20.8,20.8,0,0,1-2.06-1.28,22.21,22.21,0,0,1-2.11-1.42c-.87-.7-1.67-1.5-2.5-2.25a1.79,1.79,0,0,0-.86-.57,1.83,1.83,0,0,0,0,.51c.07.37.17.74.27,1.1a18.81,18.81,0,0,1,.86,4.58c0,.21.09.45-.12.62-.33-.15-.37-.21-.43-.62-.11-.63-.18-1.27-.33-1.89-.31-1.29-.65-2.58-1-3.86a3.44,3.44,0,0,0-.21-.53.34.34,0,0,0-.48-.16,1.9,1.9,0,0,0-.37.2c-.59.35-1.18.71-1.78,1.05-.34.19-.4.27-.31.66.23,1,.43,2.1.73,3.12a23.94,23.94,0,0,0,1,2.72c.27.63.66,1.21,1,1.82.21.4.35.83.58,1.22a3.49,3.49,0,0,0,1.65,1.59c.48.19.66.15,1-.29a13.15,13.15,0,0,0,1.7-3.18c.24-.74.55-1.46.84-2.18.15-.39.37-.43.63-.1a5.29,5.29,0,0,1,.6.83,3.73,3.73,0,0,0,1.88,1.77,23.48,23.48,0,0,0,2.18,1,22.74,22.74,0,0,0,2.71.65,12.31,12.31,0,0,0,1.6.12A9.83,9.83,0,0,0,47,54.65,2.4,2.4,0,0,0,48.1,54l-.53-.44-2.24-1.91-2.48-2c-.05,0-.12-.09-.13-.15a.92.92,0,0,1-.06-.48c.07-.19.27-.23.48-.2.41.06.82.08,1.24.12s.71.08,1.07.09a8.54,8.54,0,0,0,1.6,0,10.61,10.61,0,0,0,2.61-.79c1-.48,2-1,3-1.6.61-.36,1.15-.83,1.78-1.15a31.55,31.55,0,0,0,3.28-2.17c.25-.18.26-.29.06-.51a13.38,13.38,0,0,0-2.9-2.4c-.8-.47-1.64-.89-2.44-1.37a12.14,12.14,0,0,0-3.69-1.31,4.85,4.85,0,0,1-.76-.14,3.63,3.63,0,0,0-2.09,0c-.47.11-.72-.22-.62-.65a1.91,1.91,0,0,1,.26-.56c.41-.68.89-1.32,1.25-2A41.7,41.7,0,0,0,48.89,30a33.25,33.25,0,0,0,1.31-4,11.83,11.83,0,0,0,.3-3.19c0-.53,0-.54-.55-.61a14.41,14.41,0,0,0-3.41.09,9.16,9.16,0,0,0-1.37.25c-.71.18-1.41.37-2.1.59a7,7,0,0,0-1.23.53,11.3,11.3,0,0,0-1.43.93c-.58.44-1.13.92-1.67,1.4a6.5,6.5,0,0,0-1.47,1.66.59.59,0,0,1-.43.21c-.18,0-.29-.18-.28-.38a15.26,15.26,0,0,0-.42-3c-.09-.6-.15-1.2-.23-1.8a6.92,6.92,0,0,0-.64-2.28c-.23-.44-.38-.54-.87-.42a4.07,4.07,0,0,0-.82.31c-.86.44-1.72.88-2.56,1.36a9.22,9.22,0,0,0-2,1.42,9.48,9.48,0,0,0-1.82,2.62,6,6,0,0,0-.59,3.78l.3,1.57c0,.21.07.43-.15.56s-.4,0-.57-.11c-.69-.58-1.39-1.14-2.06-1.74S22.83,28.57,22.18,28a5.41,5.41,0,0,0-.87-.64c-.41-.24-.69-.1-.9.33a15.38,15.38,0,0,0-1,2.29,2.83,2.83,0,0,0-.16,1.52c.11.44.2.88.35,1.3A7.4,7.4,0,0,0,21.49,36a.4.4,0,0,1,.13.51.45.45,0,0,1-.46.26,13.54,13.54,0,0,0-1.56,0c-1,0-1.93.11-2.89.18a3.75,3.75,0,0,0-.58.13c.08.31.13.57.21.81A9.5,9.5,0,0,0,17,39.43a11.66,11.66,0,0,0,1.17,1.64A7.75,7.75,0,0,0,20.55,43c1.19.58,2.4,1.13,3.58,1.74a1.64,1.64,0,0,0,1.67-.06l.55-.29,1.27-.79C27.67,43.57,27.68,43.48,27.73,43.39Z"/><path class="cls-9" d="M27.73,43.39c-.05.09-.06.18-.11.21l-1.27.79-.55.29a1.64,1.64,0,0,1-1.67.06C23,44.13,21.74,43.58,20.55,43a7.75,7.75,0,0,1-2.4-1.93A11.66,11.66,0,0,1,17,39.43a9.5,9.5,0,0,1-.64-1.58c-.08-.24-.13-.5-.21-.81a3.75,3.75,0,0,1,.58-.13c1-.07,1.93-.14,2.89-.18a13.54,13.54,0,0,1,1.56,0,.45.45,0,0,0,.46-.26.4.4,0,0,0-.13-.51,7.4,7.4,0,0,1-1.85-3.19c-.15-.42-.24-.86-.35-1.3A2.83,2.83,0,0,1,19.45,30a15.38,15.38,0,0,1,1-2.29c.21-.43.49-.57.9-.33a5.41,5.41,0,0,1,.87.64c.65.57,1.26,1.18,1.91,1.75s1.37,1.16,2.06,1.74c.17.13.35.25.57.11s.19-.35.15-.56l-.3-1.57a6,6,0,0,1,.59-3.78A9.48,9.48,0,0,1,29,23.07a9.22,9.22,0,0,1,2-1.42c.84-.48,1.7-.92,2.56-1.36A4.07,4.07,0,0,1,34.4,20c.49-.12.64,0,.87.42a6.92,6.92,0,0,1,.64,2.28c.08.6.14,1.2.23,1.8a15.26,15.26,0,0,1,.42,3c0,.2.1.38.28.38a.59.59,0,0,0,.43-.21A6.5,6.5,0,0,1,38.74,26c.54-.48,1.09-1,1.67-1.4a11.3,11.3,0,0,1,1.43-.93,7,7,0,0,1,1.23-.53c.69-.22,1.39-.41,2.1-.59a9.16,9.16,0,0,1,1.37-.25A14.41,14.41,0,0,1,50,22.21c.51.07.54.08.55.61A11.83,11.83,0,0,1,50.2,26a33.25,33.25,0,0,1-1.31,4,41.7,41.7,0,0,1-2.08,4.18c-.36.71-.84,1.35-1.25,2a1.91,1.91,0,0,0-.26.56c-.1.43.15.76.62.65a3.63,3.63,0,0,1,2.09,0,4.85,4.85,0,0,0,.76.14,12.14,12.14,0,0,1,3.69,1.31c.8.48,1.64.9,2.44,1.37a13.38,13.38,0,0,1,2.9,2.4c.2.22.19.33-.06.51a31.55,31.55,0,0,1-3.28,2.17c-.63.32-1.17.79-1.78,1.15-1,.57-2,1.12-3,1.6a10.61,10.61,0,0,1-2.61.79,8.54,8.54,0,0,1-1.6,0c-.36,0-.72-.06-1.07-.09s-.83-.06-1.24-.12c-.21,0-.41,0-.48.2a.92.92,0,0,0,.06.48c0,.06.08.11.13.15l2.48,2,2.24,1.91.53.44a2.4,2.4,0,0,1-1.12.69,9.83,9.83,0,0,1-3.07.68,12.31,12.31,0,0,1-1.6-.12,22.74,22.74,0,0,1-2.71-.65,23.48,23.48,0,0,1-2.18-1,3.73,3.73,0,0,1-1.88-1.77,5.29,5.29,0,0,0-.6-.83c-.26-.33-.48-.29-.63.1-.29.72-.6,1.44-.84,2.18a13.15,13.15,0,0,1-1.7,3.18c-.3.44-.48.48-1,.29a3.49,3.49,0,0,1-1.65-1.59c-.23-.39-.37-.82-.58-1.22-.32-.61-.71-1.19-1-1.82a23.94,23.94,0,0,1-1-2.72c-.3-1-.5-2.08-.73-3.12-.09-.39,0-.47.31-.66.6-.34,1.19-.7,1.78-1.05a1.9,1.9,0,0,1,.37-.2.34.34,0,0,1,.48.16A3.44,3.44,0,0,1,29,45c.34,1.28.68,2.57,1,3.86.15.62.22,1.26.33,1.89.06.41.1.47.43.62.21-.17.12-.41.12-.62A18.81,18.81,0,0,0,30,46.21c-.1-.36-.2-.73-.27-1.1a1.83,1.83,0,0,1,0-.51,1.79,1.79,0,0,1,.86.57c.83.75,1.63,1.55,2.5,2.25a22.21,22.21,0,0,0,2.11,1.42,20.8,20.8,0,0,0,2.06,1.28,13.63,13.63,0,0,0,2.09.74c.24.08.41-.15.33-.42A.82.82,0,0,0,39,49.9a4.38,4.38,0,0,1-1.45-.54c-.65-.36-1.27-.76-1.91-1.14-.28-.18-.53-.39-.82-.54a13.63,13.63,0,0,1-2.1-1.51,8.73,8.73,0,0,1-.81-.8c-.25-.24-.51-.47-.75-.71a4.52,4.52,0,0,1-.36-.44,5.36,5.36,0,0,1,.59,0c1.13,0,2.25.13,3.37.15s2.24,0,3.36,0c1.38-.05,2.76-.12,4.14-.2.59,0,1.17-.08,1.75-.14,1.09-.1,2.17-.22,3.25-.34a5.87,5.87,0,0,0,1-.17.63.63,0,0,0,.42-.89.36.36,0,0,0-.47-.2,22.69,22.69,0,0,1-3.84.5c-.72.07-1.44.16-2.17.21-1.13.07-2.28,0-3.41.18a37.57,37.57,0,0,1-4.5.11c-1,0-2-.07-3-.13a1.73,1.73,0,0,1-1-.25c.18-.16.31-.3.46-.41.58-.43,1.18-.84,1.75-1.29.84-.67,1.66-1.35,2.47-2S36.72,37.8,37.47,37,39.2,35.2,40,34.22c1.19-1.46,2.33-3,3.46-4.47.47-.62.89-1.28,1.3-1.93a1.62,1.62,0,0,0,.21-.63.39.39,0,0,0-.27-.45.38.38,0,0,0-.48.21c-.53.77-1,1.56-1.58,2.31-.77,1.06-1.54,2.12-2.36,3.15S38.85,34.15,38.09,35a40.83,40.83,0,0,1-4.33,4.09c-1,.8-2,1.63-3,2.43a8.6,8.6,0,0,1-.93.65c-.35.22-.58.1-.65-.31a10.8,10.8,0,0,1,0-2.84c.12-1.39.21-2.79.38-4.17A18,18,0,0,1,30,32.64c.19-.81.38-1.61.6-2.41s.46-1.52.69-2.28a1.39,1.39,0,0,0,.06-.19A5.66,5.66,0,0,1,32,26a1.21,1.21,0,0,0,.19-.58.45.45,0,0,0-.2-.36c-.17-.1-.29,0-.35.2-.37.93-.8,1.84-1.1,2.8-.37,1.14-.62,2.33-.94,3.49-.12.48-.26,1-.41,1.44a15.34,15.34,0,0,0-.52,3.22c-.13,1.44-.2,2.89-.29,4.33,0,.11,0,.23-.08.44a3.33,3.33,0,0,1-.54-.37,13.78,13.78,0,0,1-2.69-4.08c-.51-1.29-1.16-2.54-1.7-3.83a6.69,6.69,0,0,1-.66-2,.66.66,0,0,0-.12-.33c-.12-.16-.29-.28-.49-.17a.37.37,0,0,0-.14.5c.54,1.27.93,2.6,1.59,3.82.55,1,1,2.13,1.47,3.2A7.69,7.69,0,0,0,26.59,40c.25.25.46.55.71.82s.6.67.9,1a1,1,0,0,1,.23.28.42.42,0,0,1,0,.33c0,.06-.18.08-.28.07a1.15,1.15,0,0,1-.29-.08c-.75-.25-1.5-.53-2.26-.73a14.74,14.74,0,0,1-5.14-2.39,6.75,6.75,0,0,0-.93-.56.38.38,0,0,0-.36,0,.43.43,0,0,0,0,.37.82.82,0,0,0,.28.36c.63.45,1.25.93,1.91,1.33A14.79,14.79,0,0,0,23.52,42c1,.38,2,.65,3,1,.3.09.6.16.9.26A2.1,2.1,0,0,1,27.73,43.39Z"/><path class="cls-8" d="M84.84,45.67c.19-.25.3-.38.38-.51a34.64,34.64,0,0,1,3.36-4.66c.16-.17.28-.36.43-.54a.72.72,0,0,1,1-.2,4.88,4.88,0,0,1,.81.83,8.18,8.18,0,0,1,.82,1.31c.27.57.46,1.17.68,1.76.09.21.17.43.26.64a1.12,1.12,0,0,1,.1.31,13.52,13.52,0,0,1,.13,2.85c-.1.67-.17,1.35-.31,2a4.51,4.51,0,0,1-.44,1.05c-.22.41-.17.54.34.59s.88,0,1.28.07a17.3,17.3,0,0,1,1.79.43c.49.13,1,.28,1.45.44a10.49,10.49,0,0,1,2.9,1.37l.93.63c.22.15.18.33,0,.55a13.66,13.66,0,0,1-1.5,1.31c-.52.39-1,.86-1.49,1.25s-1.26.88-1.92,1.28a21.93,21.93,0,0,1-4.4,1.86c-.58.19-1.14.41-1.73.63l-.12.82a2.81,2.81,0,0,1-1.31,1.8,4.32,4.32,0,0,1-1.92.84l-.12,0c-.74.22-.92.4-.81.93s.33,1.21.5,1.82.28,1,.41,1.42a.36.36,0,0,1-.26.43.57.57,0,0,1-.62,0,.88.88,0,0,1-.25-.34c-.23-.9-.43-1.8-.67-2.7-.07-.26-.1-.6-.34-.72s-.68,0-1,.13a3.41,3.41,0,0,1-2.1,0c-.34-.14-.52,0-.76.29-.36.5-.71,1-1.11,1.49a9.73,9.73,0,0,1-4.11,2.74A18.28,18.28,0,0,1,70,71a2.46,2.46,0,0,1-.82-.09.42.42,0,0,1-.24-.28,6.42,6.42,0,0,1,.35-2.94,11.18,11.18,0,0,1,2.12-3.59c.28-.36.53-.72.78-1.06a.76.76,0,0,0-.78-.11,7.71,7.71,0,0,1-2.78.1,4.4,4.4,0,0,1-2.65-1.3,8.9,8.9,0,0,1-1.78-2.64c-.24-.55-.53-1.09-.72-1.66A10.28,10.28,0,0,1,63,55.81c0-.24.09-.36.49-.47l2.81-.78a3.52,3.52,0,0,0,.49-.16,11,11,0,0,1,2-.65,10.62,10.62,0,0,0,1.47-.5c.29-.1.34-.26.24-.44s-.37-.62-.54-.93A15.66,15.66,0,0,1,69,48.34c-.09-.33-.13-.67-.22-1a8.67,8.67,0,0,1-.23-2.7,3.7,3.7,0,0,1,.15-.78,31.93,31.93,0,0,1,1.08-4c.33-.8.51-1.61.79-2.42.2-.58.45-1.16.67-1.74,0-.14.06-.29.11-.43.13-.38.36-.53.84-.52a2.76,2.76,0,0,1,.65.09A9.83,9.83,0,0,1,75.68,36c1.17.71,2.36,1.4,3.51,2.12A11.86,11.86,0,0,1,83,41.82a10.86,10.86,0,0,1,1.54,3.46C84.57,45.39,84.69,45.47,84.84,45.67Zm4.62-4.79a1.68,1.68,0,0,0-.3.27c-.65.84-1.31,1.67-1.91,2.52-.4.57-.73,1.15-1.06,1.73s-.68,1.26-1,1.89c-.1.17-.24.4-.5.37a1.34,1.34,0,0,1-.58-.3c-.06,0,0-.14-.06-.22-.19-.62-.33-1.25-.56-1.85a19.65,19.65,0,0,0-1-2.2c-.31-.58-.77-1.11-1.11-1.68a7.38,7.38,0,0,0-2.17-2.1c-.91-.66-2-1.2-2.92-1.84A15.51,15.51,0,0,0,73.87,36a7.39,7.39,0,0,0-1.09-.39c-.43-.11-.6,0-.74.35-.41,1.09-.85,2.18-1.18,3.27s-.67,2.38-.92,3.57a13.68,13.68,0,0,0-.32,2.59,8.09,8.09,0,0,0,.26,1.84c.13.64.32,1.26.45,1.9a9.91,9.91,0,0,0,1.1,3,.89.89,0,0,0,.7.47,4.65,4.65,0,0,1,.49.17c0,.08,0,.11,0,.14l-.12.24c-.34.58-.55.69-1.33.76a2.8,2.8,0,0,0-.56.12c-.5.14-1,.3-1.5.43a38.21,38.21,0,0,0-4.53,1.4c-.61.25-.69.36-.6.82a1.87,1.87,0,0,0,.07.22,17.52,17.52,0,0,0,1.52,3.33,5.15,5.15,0,0,0,1.89,1.81,1.2,1.2,0,0,0,.45.19,17.94,17.94,0,0,0,1.83.22,8.51,8.51,0,0,0,2.7-.49,5,5,0,0,1,.81-.19c.44,0,.62.18.47.51a1.48,1.48,0,0,1-.19.27c-.28.36-.57.72-.83,1.09-.39.54-.73,1.12-1.16,1.65a6.26,6.26,0,0,0-1.35,2.33,5.49,5.49,0,0,0-.38,2.3c.06.33.11.41.6.38a6.54,6.54,0,0,0,.88-.08,15.22,15.22,0,0,0,5.21-1.88,6.92,6.92,0,0,0,1.8-1.53,15.54,15.54,0,0,0,1.65-2.38,5,5,0,0,1,.57.06,7.72,7.72,0,0,1,1,.32,3.29,3.29,0,0,0,2.18-.1c.45-.14.57-.28.53-.62s-.17-.5-.2-.76a16.55,16.55,0,0,0-1.2-4,1.48,1.48,0,0,0-.22-.31,1.67,1.67,0,0,0-.31.2c-.31.33-.6.66-.9,1-.89,1-1.72,2-2.69,2.87-1.19,1.14-2.49,2.23-3.77,3.33-.48.4-1,.78-1.53,1.16a.67.67,0,0,1-.88,0c-.16-.18,0-.41.35-.63l.11,0a3.7,3.7,0,0,0,1.37-1c.91-.76,1.79-1.53,2.66-2.31s1.45-1.29,2.09-2,1.34-1.55,2-2.33c.17-.2.35-.41.3-.66a3.12,3.12,0,0,0-.43,0c-1,0-1.93.1-2.88.12a20.56,20.56,0,0,1-5.44-.54c-.68-.16-1.37-.33-2-.51a6.4,6.4,0,0,1-.93-.35.78.78,0,0,1-.33-.29c-.11-.17,0-.32.29-.34a2,2,0,0,1,.55,0c.32.07.62.17.93.25.83.21,1.65.46,2.5.63.61.13,1.26.16,1.9.23a8.82,8.82,0,0,0,1.16.07c1.26,0,2.53,0,3.8-.07a9.86,9.86,0,0,0,1.07-.09c.49-.08.6-.22.46-.56-.38-.89-.75-1.78-1.15-2.67s-.74-1.53-1.08-2.31a6.13,6.13,0,0,0-.81-1.51,3.2,3.2,0,0,1-.4-.63c-.33-.69-.63-1.4-1-2.09s-.61-1.22-.92-1.82-.54-1-.79-1.53c-.48-1-1-2-1.43-3a1.58,1.58,0,0,1-.27-1c.44-.14.62,0,.73.24.28.53.56,1.07.82,1.61.48,1,.93,2,1.43,3s1,1.82,1.49,2.73,1.12,2,1.65,3.08,1,1.94,1.43,2.92c.32.65.61,1.32.91,2,.07.13.1.35.36.27s.3-.24.41-.38.32-.53.5-.79A16.41,16.41,0,0,0,85.24,53c.36-.8.68-1.6,1-2.4a10.71,10.71,0,0,0,.51-1.4c.16-.67.26-1.35.4-2,0-.13.16-.36.24-.37a.9.9,0,0,1,.52.1.29.29,0,0,1,.15.27,5.08,5.08,0,0,1-.12,1.16c-.27,1-.59,2-.9,2.94a6.46,6.46,0,0,1-.29.67c-.26.57-.47,1.16-.79,1.72-.66,1.14-1.39,2.28-2.08,3.41a2,2,0,0,0-.13.39,6.85,6.85,0,0,0,.9-.1c1.15-.28,2.3-.58,3.45-.89s2-.55,3-.8c.48-.12.57,0,.69.39-.24.11-.48.24-.73.34-.51.19-1,.36-1.54.53a5,5,0,0,1-.74.25,44.33,44.33,0,0,1-4.66,1.09c-.44.05-.56.19-.46.51s.28.72.4,1.09a17.81,17.81,0,0,1,1.29,4c0,.09.19.24.28.22A4.46,4.46,0,0,0,87,63.74,3.33,3.33,0,0,0,88.64,62a1.61,1.61,0,0,0-.15-1.13c-.15-.37.08-.57.62-.58a3.64,3.64,0,0,0,1.66-.3c.56-.27,1.17-.46,1.75-.68A12.18,12.18,0,0,0,96,57.47a1.88,1.88,0,0,1,.36-.24,4.6,4.6,0,0,0,1.27-1,3.06,3.06,0,0,1,.77-.6,2.87,2.87,0,0,0,1-.86c.26-.34.28-.39-.08-.59a16.67,16.67,0,0,0-4-1.73c-.37-.09-.72-.21-1.09-.3a5.69,5.69,0,0,0-1-.19c-.66-.05-1.35,0-2-.07s-.66-.21-.5-.64.31-.81.48-1.21a6.88,6.88,0,0,0,.5-4,4.5,4.5,0,0,1-.15-.73,8.23,8.23,0,0,0-1.27-3.65A1.42,1.42,0,0,0,89.46,40.88Z"/><path class="cls-10" d="M89.46,40.88a1.42,1.42,0,0,1,.78.76,8.23,8.23,0,0,1,1.27,3.65,4.5,4.5,0,0,0,.15.73,6.88,6.88,0,0,1-.5,4c-.17.4-.33.8-.48,1.21s0,.6.5.64,1.36,0,2,.07a5.69,5.69,0,0,1,1,.19c.37.09.72.21,1.09.3a16.67,16.67,0,0,1,4,1.73c.36.2.34.25.08.59a2.87,2.87,0,0,1-1,.86,3.06,3.06,0,0,0-.77.6,4.6,4.6,0,0,1-1.27,1,1.88,1.88,0,0,0-.36.24,12.18,12.18,0,0,1-3.5,1.84c-.58.22-1.19.41-1.75.68a3.64,3.64,0,0,1-1.66.3c-.54,0-.77.21-.62.58A1.61,1.61,0,0,1,88.64,62,3.33,3.33,0,0,1,87,63.74a4.46,4.46,0,0,1-1.36.36c-.09,0-.27-.13-.28-.22a17.81,17.81,0,0,0-1.29-4c-.12-.37-.28-.72-.4-1.09s0-.46.46-.51a44.33,44.33,0,0,0,4.66-1.09,5,5,0,0,0,.74-.25c.51-.17,1-.34,1.54-.53.25-.1.49-.23.73-.34-.12-.43-.21-.51-.69-.39-1,.25-2,.54-3,.8s-2.3.61-3.45.89a6.85,6.85,0,0,1-.9.1,2,2,0,0,1,.13-.39c.69-1.13,1.42-2.27,2.08-3.41.32-.56.53-1.15.79-1.72A6.46,6.46,0,0,0,87,51.3c.31-1,.63-2,.9-2.94a5.08,5.08,0,0,0,.12-1.16.29.29,0,0,0-.15-.27.9.9,0,0,0-.52-.1c-.08,0-.21.24-.24.37-.14.68-.24,1.36-.4,2a10.71,10.71,0,0,1-.51,1.4c-.31.8-.63,1.6-1,2.4a16.41,16.41,0,0,1-1.36,2.29c-.18.26-.32.53-.5.79s-.25.34-.41.38-.29-.14-.36-.27c-.3-.66-.59-1.33-.91-2-.46-1-.93-2-1.43-2.92s-1.09-2-1.65-3.08-1-1.81-1.49-2.73-.95-2-1.43-3c-.26-.54-.54-1.08-.82-1.61-.11-.23-.29-.38-.73-.24a1.58,1.58,0,0,0,.27,1c.47,1,1,2,1.43,3,.25.51.53,1,.79,1.53s.62,1.2.92,1.82.63,1.4,1,2.09a3.2,3.2,0,0,0,.4.63,6.13,6.13,0,0,1,.81,1.51c.34.78.73,1.54,1.08,2.31s.77,1.78,1.15,2.67c.14.34,0,.48-.46.56a9.86,9.86,0,0,1-1.07.09c-1.27,0-2.54.06-3.8.07A8.82,8.82,0,0,1,75.47,58c-.64-.07-1.29-.1-1.9-.23-.85-.17-1.67-.42-2.5-.63-.31-.08-.61-.18-.93-.25a2,2,0,0,0-.55,0c-.27,0-.4.17-.29.34a.78.78,0,0,0,.33.29,6.4,6.4,0,0,0,.93.35c.67.18,1.36.35,2,.51a20.56,20.56,0,0,0,5.44.54c.95,0,1.92-.08,2.88-.12a3.12,3.12,0,0,1,.43,0c.05.25-.13.46-.3.66-.66.78-1.29,1.58-2,2.33s-1.37,1.33-2.09,2S75.21,65.26,74.3,66a3.7,3.7,0,0,1-1.37,1l-.11,0c-.38.22-.51.45-.35.63a.67.67,0,0,0,.88,0c.52-.38,1.05-.76,1.53-1.16,1.28-1.1,2.58-2.19,3.77-3.33,1-.92,1.8-1.91,2.69-2.87.3-.34.59-.67.9-1a1.67,1.67,0,0,1,.31-.2,1.48,1.48,0,0,1,.22.31,16.55,16.55,0,0,1,1.2,4c0,.26.16.5.2.76s-.08.48-.53.62a3.29,3.29,0,0,1-2.18.1,7.72,7.72,0,0,0-1-.32,5,5,0,0,0-.57-.06,15.54,15.54,0,0,1-1.65,2.38,6.92,6.92,0,0,1-1.8,1.53,15.22,15.22,0,0,1-5.21,1.88,6.54,6.54,0,0,1-.88.08c-.49,0-.54,0-.6-.38a5.49,5.49,0,0,1,.38-2.3,6.26,6.26,0,0,1,1.35-2.33c.43-.53.77-1.11,1.16-1.65.26-.37.55-.73.83-1.09a1.48,1.48,0,0,0,.19-.27c.15-.33,0-.54-.47-.51a5,5,0,0,0-.81.19,8.51,8.51,0,0,1-2.7.49,17.94,17.94,0,0,1-1.83-.22,1.2,1.2,0,0,1-.45-.19,5.15,5.15,0,0,1-1.89-1.81A17.52,17.52,0,0,1,64,56.91a1.87,1.87,0,0,1-.07-.22c-.09-.46,0-.57.6-.82a38.21,38.21,0,0,1,4.53-1.4c.5-.13,1-.29,1.5-.43a2.8,2.8,0,0,1,.56-.12c.78-.07,1-.18,1.33-.76l.12-.24s0-.06,0-.14a4.65,4.65,0,0,0-.49-.17.89.89,0,0,1-.7-.47,9.91,9.91,0,0,1-1.1-3c-.13-.64-.32-1.26-.45-1.9a8.09,8.09,0,0,1-.26-1.84,13.68,13.68,0,0,1,.32-2.59c.25-1.19.55-2.38.92-3.57S71.63,37.08,72,36c.14-.38.31-.46.74-.35a7.39,7.39,0,0,1,1.09.39,15.51,15.51,0,0,1,2.41,1.44c.94.64,2,1.18,2.92,1.84a7.38,7.38,0,0,1,2.17,2.1c.34.57.8,1.1,1.11,1.68a19.65,19.65,0,0,1,1,2.2c.23.6.37,1.23.56,1.85,0,.08,0,.18.06.22a1.34,1.34,0,0,0,.58.3c.26,0,.4-.2.5-.37.35-.63.67-1.26,1-1.89s.66-1.16,1.06-1.73c.6-.85,1.26-1.68,1.91-2.52A1.68,1.68,0,0,1,89.46,40.88Z"/><path class="cls-11" d="M35.41,73.1S33.77,92.68,47.82,88.32s-5-13.78-5.8-6.65S58,100,72.77,93.77"/></g></svg>