<svg xmlns="http://www.w3.org/2000/svg" viewBox="0 0 319 179"><defs><style>.cls-1{fill:#5e5ba2;}.cls-2{fill:#804d63;}.cls-3{fill:#37bef0;stroke:#37bef0;}.cls-3,.cls-4{stroke-miterlimit:10;stroke-width:3.09px;}.cls-4{fill:#9bcb6c;stroke:#9bcb6c;}.cls-5{fill:none;}</style></defs><g id="レイヤー_2" data-name="レイヤー 2"><g id="section_1-1"><path class="cls-1" d="M140.32,38.93l50.32,25s6.2,5.21,12.31.88c4.47-3.18,16-15.48,16.75-3.18.52,9-.43,28.92-1.33,41.9-.5,7.15-8.19,2.62-8.19,2.62l-9.81-7.91a26.23,26.23,0,0,0-15.67,2.32c-7.92,4-46.78,16.88-46.78,16.88S158.65,90,140.32,38.93Z"/><ellipse class="cls-2" cx="137.92" cy="77.93" rx="17.81" ry="39.47"/><path class="cls-3" d="M106,64.38a.68.68,0,0,0,1,.13.74.74,0,0,0,.12-.13,15.06,15.06,0,0,1,1.1-1.4c6-6.94,15.78-6.93,21.79,0a18.22,18.22,0,0,1,3.29,5.64,2,2,0,0,1-.59,2.49,1.5,1.5,0,0,1-.34.16c-1.39.7-1.92,0-2.3-1.08-2.55-7-9.53-10.24-15.58-7.29a12,12,0,0,0-3.79,2.94,14.21,14.21,0,0,0-2.55,4.35c-.27.75-.34,1.41-1.61,1.41s-1.35-.71-1.62-1.41a13.9,13.9,0,0,0-2.55-4.35,10.81,10.81,0,0,0-16.8,0l0,0A14,14,0,0,0,83,70.18c-.38,1-.81,1.78-2.3,1.08s-1.31-1.63-.93-2.65c3.32-9,12.36-13.24,20.19-9.42A15.55,15.55,0,0,1,104.85,63,17.07,17.07,0,0,1,106,64.38Z"/><path class="cls-4" d="M105.28,90.6a.67.67,0,0,0,1,.13.74.74,0,0,0,.12-.13c.35-.49.71-.95,1.1-1.4,6-6.93,15.78-6.93,21.79,0a18.11,18.11,0,0,1,3.29,5.64,2,2,0,0,1-.59,2.48,1.54,1.54,0,0,1-.34.17c-1.38.7-1.92,0-2.3-1.08-2.55-7-9.53-10.24-15.58-7.3A12,12,0,0,0,110,92.06a14.14,14.14,0,0,0-2.55,4.36c-.27.75-.34,1.4-1.61,1.4s-1.35-.7-1.62-1.4a14,14,0,0,0-2.55-4.36A10.79,10.79,0,0,0,84.9,92l0,0a14.13,14.13,0,0,0-2.54,4.34c-.38,1-.81,1.78-2.3,1.08s-1.31-1.62-.93-2.65c3.32-9,12.36-13.24,20.19-9.41a15.37,15.37,0,0,1,4.89,3.8A17.07,17.07,0,0,1,105.28,90.6Z"/><rect class="cls-5" width="319" height="179"/></g></g></svg>