<svg xmlns="http://www.w3.org/2000/svg" xmlns:xlink="http://www.w3.org/1999/xlink" viewBox="0 0 270 180"><defs><style>.cls-1{fill:none;}.cls-2{fill:#b9ae82;}.cls-3{fill:#e9e695;}.cls-4{fill:#4280c2;}.cls-5{fill:#fff;}.cls-6{fill:#e4ba73;}.cls-7{fill:#e4d289;}.cls-8{clip-path:url(#clip-path);}.cls-9{fill:#4c5778;}.cls-10{fill:#838078;}.cls-11{fill:#e9ce8b;}.cls-12{fill:#b4936b;}.cls-13{fill:#da805e;}.cls-14{fill:#e07a7d;}.cls-15{fill:#3e3a39;}</style><clipPath id="clip-path"><path class="cls-1" d="M74.66,83.47a27.6,27.6,0,0,0-.24-6.68,49,49,0,0,0-1.86-7.86.16.16,0,0,0-.1-.08,50.5,50.5,0,0,0-8.18-.14,28.66,28.66,0,0,0-6.66,1.17,10.86,10.86,0,0,0-5.24,3.21,13.35,13.35,0,0,0-2.53,4.54,9.53,9.53,0,0,0-.3,4.49,11.22,11.22,0,0,0,1.76,4.28A18.23,18.23,0,0,0,55,90.32a16.82,16.82,0,0,0,4.6,2.77,11.36,11.36,0,0,0,4.62.8,10.17,10.17,0,0,0,4.41-1.27,13.87,13.87,0,0,0,4-3.42A10.63,10.63,0,0,0,74.66,83.47Z"/></clipPath></defs><g id="レイヤー_2" data-name="レイヤー 2"><g id="section_1-5"><path class="cls-2" d="M76.56,131.3c-13.87-2-28.2-2.11-40.49-9.85-6.41-4-13.89-12-18.09-18.35C-.45,75.44,6.24,44.42,37.27,28.64,54.35,20,74.06,18.46,93.17,17.12c41.3-2.89,76.7,1.45,102.74,36.72,7.69,10.42,9.37,24.35,14.06,36.22,4.77,12,7.38,29.34,0,41.13-2.56,4.09-6.32,6.55-10.09,8.37a45.83,45.83,0,0,1-36,1.93c-6.53-2.38-12.87-6.28-19.64-6.62-7.23-.37-14.16,3.34-21.17,5.7-15.64,5.25-25.88-5.41-41.41-8.42C80,131.83,78.28,131.55,76.56,131.3Z"/><path class="cls-3" d="M207.66,95a51.4,51.4,0,0,1,4.26,14.35c.84,7.26-1,15.25-6.57,20-12.51,10.77-32.16,8.91-47.1,13.93-15.63,5.25-25.88-5.41-41.41-8.42-1.69-.33-3.4-.61-5.12-.86-13.87-2-28.2-2.1-40.49-9.85-6.41-4-11.57-9.83-15.77-16.14C37,80.37,41.4,47.14,72.43,31.36,101.83,16.4,135,15.42,164,29.8c5.77,2.85,11.5,6.08,15.88,10.79s7.14,10.53,9.86,16.29l15.05,31.84C205.76,90.79,206.74,92.88,207.66,95Z"/><path class="cls-4" d="M246.46,45.6a9.39,9.39,0,0,0,0-1.91c-.75-6.3-7.47-9.86-13.41-12.11-21.21-8-42.4-13.37-65.07-13.37-12.37,0-71.36,2.56-60.2,14.31,5.68,6,24.13,8.39,40.9,9.31-16.52,3.34-30.06,7.72-21,12.11,18.55,9,23.74,10.68,15.39,11.57-1.43.16-61.95,5.72-52.85,15.78,5.68,6.27,24.13,8.79,40.9,9.76-16.52,3.5-30.05,8.1-21,12.7,18.55,9.41,53,10.19,44.64,11.13S137.14,125.24,140.85,129c4.07,4.14,16.75,4.47,22,5.49,14.75,2.84,29.6,5.21,44.46,7.45,12.69,1.91,29.56,7.29,42.17,6.66,6.25-.32,15.45-3,11.9-11.41-2.47-5.85-12.72-3.42-14.77-9.92-1.72-5.45,5.37-9.19,8.38-14,4.85-7.86-1.83-17.91-9.3-23.33s-16.77-10-19.57-18.84A7.43,7.43,0,0,1,226,66a8.46,8.46,0,0,1,3-3.39c3.66-2.66,7.89-4.5,11.44-7.32C243.55,52.85,246.12,49.38,246.46,45.6Z"/><path class="cls-5" d="M163.56,61.7c-17.86-.64-36.29-4.19-39.84-6.86s5.32-9.37,13.3-10-30.09,6.26-42.67-7.91c-7.41-8.36,27.88-15.15,34-17,0,0-36.06,11-22.71,17.84s39.06,6.11,39.06,6.11-26,7.45-11.05,9.52S163.56,61.7,163.56,61.7Z"/><path class="cls-5" d="M239.77,144.05c-17.86-.85-102.23-13.77-105.78-17.29s-.52-12.33,7.46-13.21-19.1-1.6-36.82-10.4C96,98.84,102.4,94,118.2,90.67c-16-.9-83.87-9.91-6.1-23.63,0,0-22.88,8.38-21.93,14.25.19,1.16,5.75,3,7.07,3.22,12.77,2.48,32,5.79,36,4.15,0,0-32.39,10-15.62,13.54s41,10.2,41,10.2S129,122,143.9,124.76,239.77,144.05,239.77,144.05Z"/><path class="cls-6" d="M62.89,66c-2.12,2.59,1.61,12.65,1.61,12.65s10.6,1.66,12.72-.93S65,63.44,62.89,66Z"/><path class="cls-7" d="M74.66,83.47a27.6,27.6,0,0,0-.24-6.68,49,49,0,0,0-1.86-7.86.16.16,0,0,0-.1-.08,50.5,50.5,0,0,0-8.18-.14,28.66,28.66,0,0,0-6.66,1.17,10.86,10.86,0,0,0-5.24,3.21,13.35,13.35,0,0,0-2.53,4.54,9.53,9.53,0,0,0-.3,4.49,11.22,11.22,0,0,0,1.76,4.28A18.23,18.23,0,0,0,55,90.32a16.82,16.82,0,0,0,4.6,2.77,11.36,11.36,0,0,0,4.62.8,10.17,10.17,0,0,0,4.41-1.27,13.87,13.87,0,0,0,4-3.42A10.63,10.63,0,0,0,74.66,83.47Z"/><g class="cls-8"><polygon class="cls-6" points="71.05 70.91 52.37 90.05 54.08 91.64 55.97 93 71.05 70.91"/><polygon class="cls-6" points="69.68 69.87 48.6 84.99 49.72 87.14 51.06 89.09 69.68 69.87"/><polygon class="cls-6" points="68.39 68.74 46.16 78.92 46.64 81.5 47.35 83.94 68.39 68.74"/><polygon class="cls-6" points="72.33 72.04 61.68 95.69 59.35 95.02 57.17 94.09 72.33 72.04"/><polygon class="cls-6" points="73.7 73.08 68.11 96.88 65.48 96.93 62.95 96.71 73.7 73.08"/></g><path class="cls-9" d="M111.44,38.39A9.66,9.66,0,0,0,109.6,35a2.73,2.73,0,0,0,.45-1.38,4.1,4.1,0,0,0-1.48-3.56,2.42,2.42,0,0,0-.75-2.41,3.55,3.55,0,0,0-1.37-.92,3,3,0,0,0,.32-1.84c-.43-3.11-3.6-.26-4.12,1.85a2.06,2.06,0,0,0-.93,1,2,2,0,0,0,0,1.85c-2.17.88-3.71,2.62-2.9,4.76a5.75,5.75,0,0,0-2.32,4.33,8.44,8.44,0,0,0,.54,3.41c-2.33,3-2.49,7.08-1.08,10.74.56,1.67,1.52,3.09,2,4.94.57,2.27.28,4.75,2.09,6.56,1.13.93,4,3.84,5.67,3.42,1.46-.22,1.28-3.34,2.28-4.79,2.45-4.08,4.26-7.09,5.19-11.85a13.55,13.55,0,0,0-1.73-9.78A4.29,4.29,0,0,0,111.44,38.39Z"/><path class="cls-5" d="M98.58,42.47c3.39-.84,7.31-1.69,10.58,0,.42.22.8-.41.38-.62-3.47-1.77-7.54-1-11.13-.06a.37.37,0,0,0,.17.71Z"/><path class="cls-5" d="M100.67,34.72a17.53,17.53,0,0,1,3.06-.24,10.13,10.13,0,0,1,3.11.76c.45.17.65-.54.21-.7a11.68,11.68,0,0,0-3.13-.78,15.08,15.08,0,0,0-3.42.25c-.47.06-.29.77.17.71Z"/><path class="cls-5" d="M103.25,29.75a6.46,6.46,0,0,1,3.81.31c.45.15.65-.56.21-.7a7.16,7.16,0,0,0-4.19-.32c-.45.13-.28.84.17.71Z"/><path class="cls-5" d="M104.67,27a.57.57,0,0,1,.6.08.37.37,0,1,0,.53-.51,1.34,1.34,0,0,0-1.49-.2c-.42.2-.06.84.36.63Z"/><path class="cls-10" d="M104.18,65s-4.37-9.91,7.15-18.51a16.58,16.58,0,0,1-2.85,12.32Z"/><path class="cls-11" d="M68.92,20.34a12.44,12.44,0,0,0-4.64-2,3.57,3.57,0,0,0-.66-1.78A5.41,5.41,0,0,0,59.2,14.1a3.17,3.17,0,0,0-2.72-1.87,4.64,4.64,0,0,0-2.15.18,4,4,0,0,0-1.17-2.15c-3-2.85-3.91,2.65-2.72,5.23a2.74,2.74,0,0,0-.14,1.81,2.66,2.66,0,0,0,1.53,1.87c-1.51,2.67-1.67,5.7.9,7.25a7.49,7.49,0,0,0,1.13,6.32,10.89,10.89,0,0,0,3.33,3.06c.06,5,3.18,9.3,7.6,11.91,1.93,1.26,4.07,1.94,6,3.46,2.42,1.87,4.14,4.66,7.47,5,1.92,0,7.19.71,8.59-1.1,1.33-1.4-1.39-4.46-1.55-6.77C84.55,42.18,84,37.61,81.06,32a17.74,17.74,0,0,0-9.71-8.65A5.59,5.59,0,0,0,68.92,20.34Z"/><path class="cls-12" d="M59,35c2.79-3.61,6.12-7.67,10.83-8.62.61-.12.49-1.07-.12-.95-5,1-8.5,5.15-11.47,9A.48.48,0,0,0,59,35Z"/><path class="cls-12" d="M54.89,25.3a23,23,0,0,1,3-2.72,13.32,13.32,0,0,1,3.81-1.75c.59-.19.22-1.07-.36-.88a15.28,15.28,0,0,0-3.84,1.73,20.81,20.81,0,0,0-3.32,3c-.43.44.33,1,.76.58Z"/><path class="cls-10" d="M83.05,53.52s-12.54-6.63-7.69-24.81a21.68,21.68,0,0,1,7.07,15Z"/><path class="cls-13" d="M132,94.27c-2,.44-6.09,2.63-10.73,1.41s5.37-4.63,5.91-7.1c.37-1.68-6.27-8-3.73-8.28s9.13,5.07,9.77,5.15,5.11-5.69,6.82-4.88-.52,5.33.55,6.25c.85.74,8.23,1.31,6.28,3s-8.29,1.7-8.29,3.65.4,6.12-1.46,7.31C134.44,102.49,133.9,93.84,132,94.27Z"/><path class="cls-5" d="M133.4,87.93c.46,0,3.64-4.42,4.15-3.17s-2,4.08-2,4.08,5.48-.55,4.47.19-4.8,1-4.68,1.87,1.61,4.25,1,4.89-3.08-4.94-3.08-4.94-7.09,2.81-7.46,2.68,5.36-3.68,5.91-4-3.87-3.72-2.47-3.84S133,87.93,133.4,87.93Z"/><path class="cls-13" d="M102.85,88.29c-1.33,1.48-3.44,5.67-7.92,7.36s1.69-6.88.7-9.21c-.68-1.58-9.77-2.91-7.84-4.58s10.38-1.16,10.94-1.47.87-7.6,2.74-7.93,2.66,4.64,4.06,4.78c1.12.1,7.47-3.71,6.87-1.19s-5.77,6.2-4.64,7.79,3.87,4.75,3,6.8C109.63,93.55,104.18,86.81,102.85,88.29Z"/><path class="cls-5" d="M100.62,82.63c.38-.26.41-5.71,1.54-5s.78,4.45.78,4.45,4.15-3.62,3.76-2.44-3.34,3.61-2.74,4.24,3.78,2.53,3.65,3.4-5.37-2.23-5.37-2.23-4.15,6.39-4.52,6.51,2.23-6.11,2.46-6.73-5.31-.79-4.23-1.7S100.25,82.9,100.62,82.63Z"/><path class="cls-14" d="M111,164.23c-.4-.86-1.12-1.33-1.09-2.28a15.76,15.76,0,0,1,.68-3.22c.09-.38.56-2.33.59-2.41.34-1.11.7-2.22,1-3.33.2-.63.37-1.27.57-1.89.27-.83.54-1.67.85-2.48.41-1.09.81-2.18,1.31-3.22a11.5,11.5,0,0,1,2.34-3.46,10.16,10.16,0,0,1,3.42-2.05,6.69,6.69,0,0,1,1.64-.25l.73-.11a4.78,4.78,0,0,1,2.53.6c.43.2.85.4,1.27-.07a1,1,0,0,1,.49-.21c.26-.07.52-.12.92-.2.17.22.45.56.7.92a1,1,0,0,0,1.28.43c.32-.09.7,0,1-.1a12.87,12.87,0,0,0,1.66-.73,2.49,2.49,0,0,1,1.74-.21c.28.06.61-.08.89.12,0,0,.08,0,.09,0,.77-.62,1.56-.19,2.35-.08a11.8,11.8,0,0,0,1.88.13c.16,0,.33-.24.49-.37a2,2,0,0,1,.53-.38c.09,0,.28.18.38.32a7,7,0,0,0,.51.75,17.54,17.54,0,0,1,2.1,2.75c.26.37.59.69.87,1,.12.16.15.38.27.52a13.45,13.45,0,0,1,1.81,3.41c.33.67.65,1.34,1,2,.38.86.78,1.71,1.12,2.58s.53,1.61.83,2.41.61,1.28.82,2a4.14,4.14,0,0,1,.45,1.73,3.86,3.86,0,0,0,.28,1.55,2.41,2.41,0,0,1-.41,2.13.82.82,0,0,1-.41.16,1.11,1.11,0,0,0-1,.82c-.17.45-.31.79-1,.85a13.88,13.88,0,0,0-2.3.65c-.17,0-.4-.1-.55,0a11.8,11.8,0,0,1-3,.23c-1,.11-1.94.08-2.91.28a5.64,5.64,0,0,0-1.69.41c-.26.14-.68-.06-1-.05-.58,0-1.15.1-1.73.13-.37,0-.75,0-1.13,0a3.39,3.39,0,0,0-.91.13,7.14,7.14,0,0,1-3,.45,7.18,7.18,0,0,0-1.39.29c-.79.11-1.59.17-2.39.29s-1.49.25-2.24.37c-.46.06-.92.1-1.37.14a18.14,18.14,0,0,1-2.07.14,21.71,21.71,0,0,1-3-.35c-1-.2-2.05-.52-3.06-.81-.73-.21-1.45-.45-2.16-.71-.45-.17-.88-.39-1.31-.6S110.85,164.88,111,164.23Z"/><path class="cls-14" d="M105,154.87a5.81,5.81,0,0,0,1.38-.72,5,5,0,0,1,2.31-1.13,9.87,9.87,0,0,1,2.41-.52,4.18,4.18,0,0,1,2.31.35,2.49,2.49,0,0,0,.62.19c7.67,2.53-9,5.34-10.94,7.16-2.5,2.38-2,7.18-5.39,8a1.32,1.32,0,0,1-.88,0c-.3-.14-.59-.75-.59-.75L102,157a9.73,9.73,0,0,1,2.64-1.8c.12,0,.19-.25.29-.37Z"/><path class="cls-14" d="M157.17,117.57a1.66,1.66,0,0,1,.4,1.52,16.37,16.37,0,0,1-.24,1.83c-.08.48-.19,1-.29,1.43a24.81,24.81,0,0,1-1.23,4.24c-.35.82-.73,1.64-1.16,2.42a3.34,3.34,0,0,1-.8.79c-.4.36-.82.7-1.23,1.06a1.42,1.42,0,0,1-1,.35c-1.19,0-2.38.14-3.57.18a6.18,6.18,0,0,1-1.72-.12c-.9-.22-1.35-1-1.77-1.75a11,11,0,0,1-1.38-4.15,7.13,7.13,0,0,1,1.41-5.56c.63-.77,1.11-1.66,1.71-2.45s1.21-1.4,1.8-2.11c.13-.15.21-.34.33-.49.29-.37.64-.31.83.12s.4.83.56,1.26a2.56,2.56,0,0,1,.09.73c.12,1.06.2,2.13.36,3.18.12.86.33,1.7.51,2.55.08.41,1,.8,1.44.65a2.35,2.35,0,0,0,1.22-1.14c.2-.32.35-.64.76-.71a.37.37,0,0,0,.16-.1c.68-1,1.33-1.93,2-2.88A10.18,10.18,0,0,1,157.17,117.57Z"/><path class="cls-14" d="M116.26,118a2.93,2.93,0,0,1,.39,2c0,.06,0,.15,0,.19.45.71,0,1.41-.07,2.09a10.73,10.73,0,0,0,.07,2.2,1.57,1.57,0,0,1,0,.53c-.1.37-.14.78.2.94a1.51,1.51,0,0,0,1.14.13,8.1,8.1,0,0,0,1.54-1.22c.58-.52,1.12-1.1,1.7-1.63s.6-1.1,1.31-1.39c.53-.22.89-.85,1.33-1.29s.52-.27.73.17c.37.74,0,1.45,0,2.16,0,1.1-.28,2.2-.42,3.29,0,.4-.08.8-.13,1.19a.63.63,0,0,1-.13.24c-.06.12-.18.24-.17.35a3.93,3.93,0,0,1-.75,2.36,6.83,6.83,0,0,1-1.37,1.31,6.58,6.58,0,0,1-1.27,1,5.66,5.66,0,0,1-2.1.83,10.09,10.09,0,0,1-5-.52c-.23-.11-.36-.4-.57-.55a10.31,10.31,0,0,1-1.8-2.41c-.08-.12-.18-.31-.14-.41.16-.37-.1-.55-.28-.76a2.77,2.77,0,0,1-.37-3.07,18,18,0,0,1,1.42-3,17.54,17.54,0,0,1,1.92-2.23,13.86,13.86,0,0,1,1.25-1.29C115.17,118.71,115.73,118.36,116.26,118Z"/><path class="cls-14" d="M95.75,154.37a9.79,9.79,0,0,1,.91-2.1,1.15,1.15,0,0,0,.13-1.21.55.55,0,0,1,.1-.4c.31-.47.62-.95,1-1.4A13.07,13.07,0,0,1,99,148a12.81,12.81,0,0,1,1.48-1.28,13.71,13.71,0,0,1,2.5-1.59,2.35,2.35,0,0,1,2.62.17s.12,0,.19,0l1.19.15a.32.32,0,0,1,.21.12c.39.6,1,.56,1.62.69a7,7,0,0,1,1.6.52c1.25.64,2.46,1.37,3.72,2,1,.5,2.12.9,3.17,1.37a.48.48,0,0,1,.23.4,14.62,14.62,0,0,1-.36,1.45c-.05.16-.17.43-.25.43a2.47,2.47,0,0,1-.75-.21l-1.59-.62a4.3,4.3,0,0,0-.48-.24,48.28,48.28,0,0,0-11.37-2.14c1,.08-6.75,8.15-6.75,8.15Z"/><path class="cls-14" d="M118.05,148.74l-1-.4c-.81-.31-1.62-.61-2.42-.94-.36-.16-.68-.4-1-.59l-1.47-.83a5.13,5.13,0,0,0-.82-.52c-.88-.33-1.79-.59-2.66-.92-.57-.21-1.1-.53-1.67-.75-.86-.34-1.72-.64-2.59-.94a7.09,7.09,0,0,0-1.19-.28c-.87-.11-1.49.48-2.17.86a14.86,14.86,0,0,0-1.76,1.25c-.81.61-1.62,1.22-2.4,1.86-.3.24-.5.2-.61-.12a1.29,1.29,0,0,1-.11-.76c.25-.78.57-1.53.87-2.29,0-.08.17-.12.25-.19s.25-.21.24-.29c-.13-1.06.74-1.6,1.2-2.34a10.23,10.23,0,0,1,3.62-2.94,2.3,2.3,0,0,1,2-.34l.14,0a12.78,12.78,0,0,1,5.52,2.37c.37.24.8.39,1.17.64a24.93,24.93,0,0,1,2.61,1.83,15.37,15.37,0,0,0,1.54.93c1,.64,1.89,1.38,2.82,2.07.06,0,.1.1.15.14.67.56.69.57.42,1.4C118.56,147.35,118.31,148,118.05,148.74Z"/><path class="cls-14" d="M142.86,149.85l3.95-1.58a8.14,8.14,0,0,1,2.42-.67c.17,0,.33-.16.5-.24a1.15,1.15,0,0,1,.31-.11c.91-.15,1.83-.32,2.75-.41s1.8-.51,2.76-.19c.38.13.85,0,1.24.12.83.26,1.64.61,2.45.91a5.56,5.56,0,0,1,1.13.38,9,9,0,0,1,1.59,1.3,3.22,3.22,0,0,0,1.79,1.08,2.56,2.56,0,0,1,1.87,1.81,2.81,2.81,0,0,1-.41,2.24c-.39.69-1.08.84-1.67,1.15a.93.93,0,0,1-.79-.11,3.23,3.23,0,0,0-1.18-.65c-.32-.06-.56-.47-.87-.67-.84-.56-1.68-1.11-2.54-1.63a5.27,5.27,0,0,0-1.38-.65,13.65,13.65,0,0,0-1.92-.27,8.42,8.42,0,0,0-1.22-.13c-.5,0-1,.13-1.5.18a9.13,9.13,0,0,0-1,0c-1.31.29-2.61.61-3.91.93-.61.15-1.21.36-1.83.52a4.91,4.91,0,0,1-.67.08c-.58.1-.83-.32-1-.72-.31-.76-.54-1.55-.79-2.33A2,2,0,0,1,142.86,149.85Z"/><path class="cls-14" d="M161.94,141.82c-.29-.2-1.88,1.8-2.15,1.58-3.34-2.63-7.57-1.16-10.66.54-2.82,1.55-3,2.31-6.08,3.4a3.65,3.65,0,0,0-.64.35c-.32.21-.51,0-.63-.24-.31-.69-.63-1.39-.9-2.11s-.14-.88.48-1.27c.44-.29.82-.65,1.26-.94s.71-.34,1-.53c.5-.28,1-.62,1.5-.85s1.3-.43,1.94-.67,1.09-.48,1.65-.69.84-.62,1.42-.43a.14.14,0,0,0,.14,0,11.8,11.8,0,0,1,5.34-2C157.8,137.65,163.32,142.75,161.94,141.82Z"/><path class="cls-14" d="M145.22,155.55c.65-.13,1.28-.23,1.89-.4s1.39-.5,2.1-.71c.49-.14,1-.21,1.5-.31a2.49,2.49,0,0,0,.47-.12,2.53,2.53,0,0,1,1.54-.22,3.33,3.33,0,0,0,.86-.11,7.35,7.35,0,0,1,2-.07,6.5,6.5,0,0,1,1.59.82c.44.22.89.41,1.34.63a.55.55,0,0,1,.23.17,5.32,5.32,0,0,0,2,1.59,8.24,8.24,0,0,1,2.49,1.91,2.58,2.58,0,0,0,1,.73c1.37.61,1.44,1,1.07,2.18-.09.28-.21.54-.34.87-.17-.12-.36-.19-.43-.31-.32-.6-.94-.78-1.46-1.11s-.84-.57-1.28-.79a4,4,0,0,0-1.33-.53,8.28,8.28,0,0,1-1.33-.49c-.58-.17-1.2-.22-1.78-.4s-1.14-.44-1.72-.67a6.72,6.72,0,0,0-2.61-.56c-1.14,0-2.27,0-3.4,0a18.42,18.42,0,0,0-2.32.39,9.37,9.37,0,0,0-.89.31c-.71.22-1.06.08-1-.6s-.25-1.17-.21-1.77C145.2,155.87,145.21,155.74,145.22,155.55Z"/><path class="cls-14" d="M145.28,161.47c.08-.06.22-.2.27-.18.44.23.57-.15.81-.35a1.45,1.45,0,0,1,.5-.36,14.5,14.5,0,0,1,2-.66,10.22,10.22,0,0,1,1.66-.12c.77,0,1.55-.09,2.32-.1a3.09,3.09,0,0,1,1,.13c.68.23,1.34.52,2,.77.9.32,5.55,4.78,6.54,4.83.66,0,.2,2.09,0,2.48-.43.83-4.15-1.67-5-1.71s-3.75-3.11-4.31-3.25-5,1-5.79.38a8.75,8.75,0,0,0-1.5-.75C145.25,162.36,145.21,162,145.28,161.47Z"/><path class="cls-14" d="M111.9,161c.83-.57.87-.56,1.13.39a2.45,2.45,0,0,1,.11,1.86,1.17,1.17,0,0,1-.14.25c-.66.6-1.37,1.14-2,1.78s-1.29,1.62-1.94,2.42c-.36.46-.74.92-1.14,1.35-.1.11-.33.08-.46.18-.68.51-1.54.39-2.29.67a2.38,2.38,0,0,0-.44.26c-.19-.28-.56-.58-.55-.87a3.93,3.93,0,0,1,.45-1.73c.41-.72,1.12-1.28,1.48-2,.23-.45.72-.67.84-1.23.05-.28.57-.48.89-.69.89-.6,1.8-1.16,2.67-1.79a2.44,2.44,0,0,0,.53-.78C111.32,160.61,111.59,160.68,111.9,161Z"/><path class="cls-5" d="M130.17,135.73c.08,1-.82,1.29-1.41,1.69a2.34,2.34,0,0,1-1.6.49c-.06,0-.16,0-.19,0-.75.71-1.37,0-1.84-.33a2.34,2.34,0,0,1-.74-1.84c0-.58-.15-1.17-.12-1.75a3.7,3.7,0,0,1,.38-1.18,3.61,3.61,0,0,1,1-1.56,2,2,0,0,1,1.91-.66c.43.12.9.16,1.31.32a2,2,0,0,1,1.16,1.58,14.39,14.39,0,0,1,.32,2.28A3.64,3.64,0,0,1,130.17,135.73Z"/><path class="cls-5" d="M136,132.93a12.15,12.15,0,0,1,1.43-2,3.5,3.5,0,0,1,2.27-1,2.2,2.2,0,0,1,1.73,1,3.51,3.51,0,0,1,.82,2.78,5.08,5.08,0,0,1-1.55,3.23,4.19,4.19,0,0,1-2.24.89,1.3,1.3,0,0,1-1.65-.94c-.23-.51-.48-1-.69-1.53a3.6,3.6,0,0,1,0-2.38Z"/><path class="cls-15" d="M128.37,134.38c-.05.08-.16.2-.24.34a2.06,2.06,0,0,0-.3.54c-.09.38-2.08.24-1.4-2a2.27,2.27,0,0,1,1.1-.53c.32-.06.91.55.94.89A3.09,3.09,0,0,1,128.37,134.38Z"/><path class="cls-15" d="M138.26,133a1,1,0,0,1,1.51-.69l.18.09c.87.4.7.77.45,1.54-.08.23-.28.44-.31.67C138,135.63,138.19,133.33,138.26,133Z"/><path class="cls-14" d="M149.43,130.67s-6.24,11.94-6.81,12.46-.81-2.67-.81-2.67l5.71-10.56Z"/><path class="cls-14" d="M118.24,131.68c.76-.17,2.42,10.7,2.42,10.7l-.89-.13-4.08-9.42Z"/><polygon class="cls-14" points="152.79 146.84 155.55 146.65 162.95 143.6 160.16 139.78 152.79 146.84"/><polygon class="cls-14" points="165.62 152.25 167.02 156.56 163.2 158.73 155.62 158.21 161.57 154.88 165.62 152.25"/><polygon class="cls-14" points="165.28 161.64 166.76 165.46 160.16 166.22 162.44 162.66 160.44 159.77 165.28 161.64"/><polygon class="cls-14" points="162.44 165.96 166 170.54 160.16 170.54 156.34 169.01 160.66 168 158.63 163.42 162.44 165.96"/><polygon class="cls-14" points="105.76 150.65 103.01 150.47 95.6 147.41 98.4 143.6 105.76 150.65"/><polygon class="cls-14" points="96.74 152.75 95.35 157.07 99.17 159.24 106.75 158.72 100.8 155.39 96.74 152.75"/><polygon class="cls-14" points="98.86 164.18 97.38 168 107.29 168 101.7 165.2 102.46 158.59 98.86 164.18"/><polygon class="cls-14" points="107.76 165.92 104.2 170.5 110.05 170.5 113.86 168.97 109.54 167.96 111.57 163.38 107.76 165.92"/><path class="cls-5" d="M204,93.79A15.52,15.52,0,0,1,202,96a50.76,50.76,0,0,1-5.69,3.46c-.46.24-1.54-.21-2-.67s-.11-1.1.61-1.42a30.92,30.92,0,0,0,4.68-2.23,8.48,8.48,0,0,0,2.45-2.7c.49-.79,1.61-1.24,1.42-2.48,0-.16.88-.71,1.25-.62a2.42,2.42,0,0,1,1.58,1c.44,1.17.54,2.47.87,3.7.27,1,.7,2.06,1,3.12a1.17,1.17,0,0,1-.17,1c-.28.22-1,.39-1.11.24a29.45,29.45,0,0,1-2.21-3A8.08,8.08,0,0,1,204,93.79Z"/><path class="cls-5" d="M181.36,43.91a14.63,14.63,0,0,1-2,2.23,54.28,54.28,0,0,1-5.69,3.46c-.46.23-1.54-.21-2-.67s-.11-1.1.61-1.42a31.8,31.8,0,0,0,4.67-2.23,8.43,8.43,0,0,0,2.46-2.71c.48-.78,1.6-1.24,1.42-2.47,0-.16.88-.72,1.25-.63a2.37,2.37,0,0,1,1.57,1.05,34.74,34.74,0,0,1,.87,3.69c.28,1,.7,2.07,1,3.12a1.2,1.2,0,0,1-.17,1c-.28.22-1,.38-1.11.24a29.16,29.16,0,0,1-2.22-3A8.61,8.61,0,0,1,181.36,43.91Z"/><path class="cls-5" d="M168.55,79.26a14.62,14.62,0,0,1-2.05,2.23A51.55,51.55,0,0,1,160.82,85c-.47.24-1.55-.21-2-.67s-.11-1.1.62-1.42a32.29,32.29,0,0,0,4.67-2.23,8.74,8.74,0,0,0,2.46-2.7c.48-.79,1.6-1.25,1.41-2.48,0-.16.88-.71,1.25-.63a2.46,2.46,0,0,1,1.58,1.05,37.37,37.37,0,0,1,.87,3.69c.27,1.06.7,2.07,1,3.12a1.16,1.16,0,0,1-.17,1c-.28.22-1,.39-1.11.24a30.62,30.62,0,0,1-2.21-3A8,8,0,0,1,168.55,79.26Z"/><path class="cls-5" d="M200.73,63.27c.92.78,1.79,1.19,2.13,1.87a50.22,50.22,0,0,1,2.23,5.6c.11.3-.28.78-.44,1.18-.58-.27-1.35-.4-1.71-.85a13,13,0,0,1-1.6-2.85c-.42-.93-.74-.86-1.41-.2-1.71,1.68-3.43,3.41-5.75,4.25a4.64,4.64,0,0,1-2.4.11c-.38-.07-.7-.77-.87-1.24,0-.12.54-.57.9-.71,1.33-.53,2.89-.72,4-1.55a25.48,25.48,0,0,0,3.47-3.83C199.7,64.54,200.12,64,200.73,63.27Z"/><rect class="cls-1" width="270" height="180"/></g></g></svg>