<svg xmlns="http://www.w3.org/2000/svg" viewBox="0 0 319 179"><defs><style>.cls-1{fill:#9bcb6c;}.cls-2,.cls-5{fill:none;}.cls-2{stroke:#ededec;stroke-width:3.2px;}.cls-2,.cls-4{stroke-miterlimit:10;}.cls-3{fill:#4d4d4d;}.cls-4{fill:#37bef0;stroke:#37bef0;stroke-width:2.82px;}</style></defs><g id="レイヤー_2" data-name="レイヤー 2"><g id="section_1-1"><path class="cls-1" d="M190.06,127.81c-.69,4.69-2.32,9.06-6.46,11.68-4.39,2.77-9.68,1.14-13.71,3.54-1.93,1.15-2.77,3.45-3.75,5.47a26.59,26.59,0,0,1-22.68,14.66,9.91,9.91,0,0,1-4.86-.85c-3.17-1.63-8.12-6.22-9.37-9.54-.83-2.48-3.08-6.55-6.25-6-3,.53-5,6.4-6.42,8.71a24.39,24.39,0,0,1-4,5.38,8.23,8.23,0,0,1-6,2.49c-8.32-.53-12.4-11.61-19.85-14.45-1.58-.6-5.21-1.3-5.39-3.38-.12-1.32,2.21-3.58,3-4.61a23.83,23.83,0,0,1,7.29-6.63c3.77-2.29,8.13-3.48,11.84-5.86,5.27-3.41,8.79-8.91,13-13.63a90.5,90.5,0,0,1,13.3-11.89,36.62,36.62,0,0,0,6-5,52.73,52.73,0,0,1,5.8-6.26C146.82,87,152.66,83,157.91,78.23c2.89-2.6,5.58-5.41,8.33-8.15,4.64-4.65,9.44-9.14,14.24-13.63,6.38-6,13.09-11.76,19.22-18,4.68-4.79,5.72-11.56,9.78-16.75a15.83,15.83,0,0,1,9.12-5.8c3.54-.73,7.07.2,10.4,1.38,3.16,1.1,4.21,3.41,6.68,5.61,1.54,1.38,3.64,2.23,4.67,4a8.1,8.1,0,0,1,.84,3.42A46.74,46.74,0,0,1,236.85,54c-1.52,3.21-3.39,7-6.11,9.35-2.31,2-5.58,2.61-7.38,5.27-1.69,2.47-1.75,5.95-2.87,8.8s-4.4,4.49-5.57,7.11c-1,2.29-.18,4.74-.4,7.21a10,10,0,0,1-3.39,7c-5.27,4.17-13.26.27-19.3,1.59A17.26,17.26,0,0,0,181.09,108c-2.91,4.61-1.81,6.72,1.19,10.9,2,2.79,6.36,1.69,7.69,5.93A6.84,6.84,0,0,1,190.06,127.81Z"/><path class="cls-2" d="M119.65,159.37c-.05-10.27,6.85-24.61,13.42-32.05,6.39-7.24,9.86-17.5,11.07-27.08"/><path class="cls-2" d="M136,96.6c2.71,4.33,6.8,3.78,11.33,3.92s9.57,0,13.53,3.31a35.1,35.1,0,0,1,4.29,4.88c7,8.44,17.48,12.81,27.31,15.52"/><path class="cls-2" d="M163.46,70.24c3.1,6.54,8,5.07,12.32,3.16a9.8,9.8,0,0,1,2.72-1c2-.24,3.77,1.23,5.07,2.75s2.52,3.3,4.39,4c4.86,1.9,11.53,2,15.9,4.81,3.79,2.44,8.44,13.58,8.59,18.1"/><path class="cls-2" d="M203.59,35.56c2,1.42,5.75,3.55,7.1,5.56s1.83,4.7.5,6.1c-.66.69-1.64.75-2.32,1.35a6,6,0,0,0-1.34,2.64,8.79,8.79,0,0,0,.45,5.61c1.49,3.63,7.17,3.09,10.36,3.24s6,2.57,9.29,3c4.3.62,8.48.52,12.75,1.67"/><path class="cls-3" d="M190.5,69.81v.06c0,.2.23.23.53.23h3.89c.67,0,1,.22,1,.53a1.81,1.81,0,0,1-.24.71,1.92,1.92,0,0,1-1.89.94,5.86,5.86,0,0,1-1.17-.15.32.32,0,0,1-.24-.33.31.31,0,0,1,.29-.33h.15a4.53,4.53,0,0,0,1,.13,1,1,0,0,0,1.14-.95c0-.13-.07-.19-.31-.19h-3.34c-.9,0-1.54,0-1.58-.56v-.64c0-.43,0-.92,0-1.28,0-.52.67-.56,1.63-.56a1.43,1.43,0,0,0,.08-.22.3.3,0,0,1,.15-.18.53.53,0,0,1-.34-.47V66l0,0a.38.38,0,0,1-.25.09.47.47,0,0,1-.4-.22L190.45,67c0,.21-.22.31-.43.31s-.39-.09-.39-.29h0L189.7,66c-.38.28-.45.32-.59.32a.39.39,0,0,1-.18,0c0,1.71-.1,4-.89,5.17a.56.56,0,0,1-.49.29.48.48,0,0,1-.53-.41h0a.38.38,0,0,1,.07-.21c.73-1.1.85-3.13.85-4.75,0-.64,0-1.21,0-1.62v0c0-.65.33-1.05,1.27-1.09h2.22v-.27a.53.53,0,1,1,1,0h0v.26h3.17a.36.36,0,0,1,0,.72h-1.77c.1,0,.17.09.17.15s0,0-.14.24h1.58a.22.22,0,0,1,.24.2v0a.23.23,0,0,1-.26.21h-1.56v.27h1.24c.14,0,.21.08.21.17a.18.18,0,0,1-.19.18h-1.26V66h1.24a.21.21,0,0,1,.22.17h0a.2.2,0,0,1-.22.18h-1.24v.29h1.72c.18,0,.26.1.26.22s-.08.2-.26.2h-3.3a.2.2,0,0,1,0,.13.49.49,0,0,1-.06.17c2.22,0,2.24,0,2.24,1,0,.65-.1.72-1.5.72h-2.5v.27h5.2a.23.23,0,0,1,.26.19.24.24,0,0,1-.19.26h-.07Zm-2.31,2a.39.39,0,0,1,.22-.31,1.56,1.56,0,0,0,.65-.76.37.37,0,0,1,.39-.26c.22,0,.46.14.46.34,0,.45-.63,1.4-1.21,1.4a.48.48,0,0,1-.49-.42Zm1.26-7.45c-.37,0-.5.14-.5.37v.89a4.2,4.2,0,0,0,1.39-1.26Zm1.49,7.52c-.21,0-.4-.1-.4-.32a1.77,1.77,0,0,0-.15-.65v-.09c0-.16.19-.24.38-.24a.51.51,0,0,1,.37.15,1.25,1.25,0,0,1,.3.77.5.5,0,0,1-.53.38Zm.06-7.53a.32.32,0,0,1,.07.19s0,.2-.53.72v.44a.26.26,0,0,1,.09-.09,3.69,3.69,0,0,0,1.2-1.19.18.18,0,0,1,0-.07Zm-.44,4.1v.3h2c1,0,1.09,0,1.13-.2v-.1Zm3.16-.31V68c0-.13-.12-.19-.36-.19H191c-.26,0-.39.08-.4.24v0Zm-1.31,3.3a.29.29,0,0,1-.29-.13.81.81,0,0,0-.27-.39.14.14,0,0,1-.06-.11c0-.13.22-.22.44-.22a.81.81,0,0,1,.67.56c0,.18-.29.29-.53.29Zm.74-5.64H192v.28h1.16Zm0,.63H192v0c0,.15.11.25.38.25h.77Zm0-1.25h-.82a.25.25,0,0,0-.29.23h1.12Zm-.7-.83a.29.29,0,0,1,.17.23.25.25,0,0,1,0,.12l0,.06h.58l.16-.32a.16.16,0,0,1,.07-.07Zm1.52,7a.28.28,0,0,1-.24-.1.81.81,0,0,0-.36-.3c-.07,0-.1-.09-.1-.14a.47.47,0,0,1,.38-.24c.18,0,.71.23.71.49a.45.45,0,0,1-.43.29Z"/><path class="cls-3" d="M206,69.59l-2.84,0A11.61,11.61,0,0,0,206.29,71a.42.42,0,0,1,.31.4.56.56,0,0,1-.53.56,11.38,11.38,0,0,1-3.48-1.91v1.8h0a.44.44,0,0,1-.47.4h0c-.25,0-.49-.13-.49-.4h0V70.11A10.48,10.48,0,0,1,198.15,72a.48.48,0,0,1-.52-.45v0a.44.44,0,0,1,.35-.41A10.29,10.29,0,0,0,201,69.58l-2.73,0h0a.42.42,0,0,1-.44-.38v0a.42.42,0,0,1,.42-.42h3.34v-.53h-1.58a1,1,0,0,1-1.09-.91V65.72a1,1,0,0,1,1-.89h.11a.35.35,0,0,1-.21-.22,3.18,3.18,0,0,0-.65-.81.3.3,0,0,1-.11-.23.48.48,0,0,1,.5-.41c.44,0,1.11.87,1.11,1.19a.54.54,0,0,1-.37.48h3a8.46,8.46,0,0,0,.67-1.43.48.48,0,0,1,.45-.35.54.54,0,0,1,.56.48,5.07,5.07,0,0,1-.72,1.31,1,1,0,0,1,1,.8v1.7a1,1,0,0,1-1.06.92h-1.66v.53h3.37a.41.41,0,0,1,.44.38v0a.41.41,0,0,1-.4.41h0Zm-4.28-4.1h-1.32c-.4,0-.49.35-.49.62h1.81Zm0,1.34h-1.81c0,.68,0,.68,1.81.68Zm.57-2.16a.36.36,0,0,1-.35-.28,3,3,0,0,0-.49-.94.6.6,0,0,1-.06-.19c0-.22.24-.37.48-.37.53,0,1,1.11,1,1.3a.52.52,0,0,1-.54.48Zm2.19,1.46v-.21c0-.26-.17-.4-.49-.41s-.88,0-1.35,0v.61Zm-1.85.7v.68H204c.43,0,.49-.35.49-.66Z"/><path class="cls-3" d="M190.58,60.55c-.15.35-.7.2-.49-.24a16.94,16.94,0,0,0,.91-2.26,1.58,1.58,0,0,1-.75-.07c-.27-.12-.21-.59.17-.45a1.43,1.43,0,0,0,.71,0,1.75,1.75,0,0,0,0-.56c0-.3.47-.31.53,0a1.48,1.48,0,0,1,0,.42l.2-.11a.25.25,0,0,1,.34.09.27.27,0,0,1-.09.34l-.05,0a3.05,3.05,0,0,1-.53.2A18.62,18.62,0,0,1,190.58,60.55Zm1.25-.23c-.22-.25.1-.66.37-.39s.57.24,1.17.19a.27.27,0,0,1,.34.19.27.27,0,0,1-.19.33h-.08A1.82,1.82,0,0,1,191.83,60.32Zm.58-1.82c-.26.1-.42-.32-.08-.45a2,2,0,0,1,1.23,0c.35.13.21.58-.12.48a1.81,1.81,0,0,0-1,0Z"/><path class="cls-3" d="M196.9,57.92c.43,0,.76.22.78.8a2.88,2.88,0,0,1-.18,1.16,1,1,0,0,1-1.2.62c-.41-.12-.25-.59.07-.53a.48.48,0,0,0,.64-.25v0a2.29,2.29,0,0,0,.17-.9c0-.31-.11-.47-.35-.45l-.24,0a7.83,7.83,0,0,1-1,2.11c-.25.36-.79.05-.45-.33a5,5,0,0,0,.91-1.68H196a3.57,3.57,0,0,1-.56.07.25.25,0,0,1-.28-.21.25.25,0,0,1,.21-.29h.07a2.91,2.91,0,0,0,.5,0h.26a5.68,5.68,0,0,0,.17-.82.26.26,0,0,1,.52,0,4.73,4.73,0,0,1-.15.73Zm1.9,1.17a1.9,1.9,0,0,0-.74-.89c-.26-.15,0-.53.29-.35a2,2,0,0,1,.91,1c.14.34-.32.57-.46.25Z"/><path class="cls-3" d="M201.45,59.37a.72.72,0,0,1,.36-1l.05,0a.94.94,0,0,1,.44,0v-.42c-.43,0-.86.1-1.13.14s-.61.13-.76.16a.28.28,0,0,1-.29-.24.27.27,0,0,1,.25-.29c.2,0,.52-.07.76-.11s.71-.1,1.17-.14v-.62a.27.27,0,0,1,.34-.19.27.27,0,0,1,.18.19v.57H204a.27.27,0,1,1,0,.53c-.42,0-.49,0-.82,0h-.37v.77a2,2,0,0,1-.63,2.27c-.35.27-.8-.1-.35-.42a1.91,1.91,0,0,0,.59-.76.65.65,0,0,1-.9-.21A.53.53,0,0,1,201.45,59.37Zm.86-.53a.32.32,0,0,0-.44.07.32.32,0,0,0,0,.3.32.32,0,0,0,.39.2.31.31,0,0,0,.21-.29.22.22,0,0,0,0-.19l-.09-.11Z"/><path class="cls-3" d="M227.66,39.62l-3.39,0V40h2c.61,0,.89.23.91.69V41c0,.43-.33.66-.79.7.48.14,1,.27,1.5.4.3.07.42.26.42.43a.46.46,0,0,1-.48.45h0a10.15,10.15,0,0,1-3.49-1.51v.74h0a.43.43,0,0,1-.46.4h0a.43.43,0,0,1-.46-.37v0h0v-.69A11.13,11.13,0,0,1,219.77,43a.39.39,0,0,1-.43-.36v0a.49.49,0,0,1,.39-.43,9.16,9.16,0,0,0,3.61-1.52v-.15h-1.51c-.25,0-.34.08-.34.21v.62a.43.43,0,0,1-.46.37c-.45,0-.46-.3-.46-.58,0-.82,0-1.21,1-1.21h1.75v-.39l-3.29,0h0a.37.37,0,0,1-.41-.33v0a.41.41,0,0,1,.41-.42h3.29V38.5a.41.41,0,0,1,.42-.41h.05a.43.43,0,0,1,.47.39v.34h3.38a.4.4,0,0,1,.41.39v0a.36.36,0,0,1-.36.38h-.05Zm0,4.37-3.39-.06v.39h2c.6,0,.89.23.92.69v.36c0,.43-.35.66-.81.69.48.16,1,.28,1.5.42a.47.47,0,0,1,.42.44.46.46,0,0,1-.47.45h0a10.83,10.83,0,0,1-3.51-1.55v1.29h0a.43.43,0,0,1-.46.4h0a.43.43,0,0,1-.47-.37v0h0V45.87a11.1,11.1,0,0,1-3.55,1.58.4.4,0,0,1-.43-.38v0a.49.49,0,0,1,.39-.44,9.35,9.35,0,0,0,3.61-1.54v-.14h-1.51c-.25,0-.34.07-.34.2v.63a.43.43,0,0,1-.46.37c-.45,0-.46-.3-.46-.58,0-.82,0-1.22,1-1.22h1.75v-.39l-3.29.06h0a.36.36,0,0,1-.41-.32v0a.41.41,0,0,1,.41-.41h3.29V43.1a.41.41,0,0,1,.43-.41h0a.44.44,0,0,1,.47.4h0v.13h3.38a.39.39,0,0,1,.41.38v0a.37.37,0,0,1-.37.37h0Zm-1.43-3.23c0-.12-.07-.21-.31-.21h-1.66v.16a8.65,8.65,0,0,0,1.44.77.45.45,0,0,1,0-.16A.31.31,0,0,1,226,41h.16c.06,0,.13,0,.13-.12v-.12Zm0,4.36c0-.12-.07-.2-.31-.2h-1.67v.14a8,8,0,0,0,1.47.78.28.28,0,0,1,0-.15.3.3,0,0,1,.27-.32h.16c.06,0,.13,0,.13-.12v-.13Z"/><path class="cls-3" d="M217.28,33.32a.24.24,0,1,1,.07-.47l.08,0a1.42,1.42,0,0,0,.71,0,3,3,0,0,0,.1-.52.25.25,0,0,1,.3-.19.24.24,0,0,1,.19.23,1.65,1.65,0,0,1-.07.32l.16-.09c.24-.16.56.16.23.4a1.94,1.94,0,0,1-.53.23A12.79,12.79,0,0,1,217.6,35c-.19.31-.69.11-.46-.23a10.19,10.19,0,0,0,.84-1.42A1.39,1.39,0,0,1,217.28,33.32Zm.89,2.92a.52.52,0,0,1-.53-.52.53.53,0,0,1,.53-.53,1.76,1.76,0,0,1,1-.1v-.57a2.07,2.07,0,0,1,0-.35.22.22,0,0,1,.27-.18.25.25,0,0,1,.19.28h0a1,1,0,0,0,0,.24v.72a2,2,0,0,1,.63.42c.29.33-.13.69-.38.39a1.5,1.5,0,0,0-.29-.27A1,1,0,0,1,218.17,36.24Zm.16-.68a.16.16,0,0,0-.1.2.16.16,0,0,0,.1.1.56.56,0,0,0,.76-.21l0-.06v-.05A1,1,0,0,0,218.33,35.56Zm1.15-1.92c-.28,0-.3-.41,0-.44a1.64,1.64,0,0,1,1,.18c.35.22.08.64-.18.49a1.28,1.28,0,0,0-.78-.23Z"/><path class="cls-3" d="M223.52,36.12c-.47.07-.53-.5-.1-.53a2.77,2.77,0,0,0,1.51-.61c.44-.39.47-.81.24-1.09a1.34,1.34,0,0,0-1.38-.23,4.71,4.71,0,0,0-.73.31l-.72.35a.29.29,0,0,1-.39-.13.29.29,0,0,1,.14-.39h0a11.58,11.58,0,0,1,1.61-.61,1.89,1.89,0,0,1,1.84.35,1.23,1.23,0,0,1-.28,1.87A3.7,3.7,0,0,1,223.52,36.12Z"/><path class="cls-3" d="M228.61,35.35c-.61.66-1.15.44-1.29-.22a1.69,1.69,0,0,1,.57-1.49c0-.11-.07-.22-.1-.33s-.08-.35-.1-.45c-.08-.43.5-.43.53-.06,0,.15,0,.29.05.43v.11l.11-.05a2,2,0,0,1,.88-.22,3.43,3.43,0,0,0,.07-.56c0-.36.52-.33.52.05a3.07,3.07,0,0,1-.06.53,1.32,1.32,0,0,1,1.05.94,1.65,1.65,0,0,1-1.25,2c-.4.15-.65-.34-.2-.48.9-.28,1.1-.88,1-1.37a.9.9,0,0,0-.66-.69.33.33,0,0,1-.06.14,5.21,5.21,0,0,1-.52,1.06l.07.05a.23.23,0,0,1,0,.31h0a.25.25,0,0,1-.34.06h0A2.49,2.49,0,0,0,228.61,35.35Zm-.56-1.27a1.18,1.18,0,0,0-.29.88c.08.4.32.29.47.13a3.36,3.36,0,0,0,.24-.29A2.89,2.89,0,0,1,228.05,34.08Zm.5-.43-.15.1a2.16,2.16,0,0,0,.35.63,4.06,4.06,0,0,0,.4-.84v-.07A1.81,1.81,0,0,0,228.55,33.65Z"/><path class="cls-3" d="M167.58,96.7c-.9,0-1.85,0-2.8,0s-1.9,0-2.82,0a1.23,1.23,0,0,1-1.36-1.08,1.09,1.09,0,0,1,0-.18c0-.78,0-1.71,0-2.68,0-1.17,0-2.38,0-3.4a1.17,1.17,0,0,1,1.21-1.14h.08c.89,0,1.84,0,2.81,0s1.94,0,2.91,0a1.24,1.24,0,0,1,1.26,1.22c0,1,0,2.22,0,3.35,0,.93,0,1.82,0,2.61a1.28,1.28,0,0,1-1.26,1.29Zm.32-4.16c0-.93,0-1.87,0-2.71,0-.6-.22-.7-.73-.71h-4.82c-.59,0-.75.18-.76.71,0,.84,0,1.77,0,2.67s0,1.79,0,2.57c0,.59.22.69.87.7s1.46,0,2.24,0h2.43c.58,0,.76-.29.77-.73,0-.8,0-1.66,0-2.51Zm-5.5,2.37a.38.38,0,0,1-.43-.34.06.06,0,0,1,0,0,.42.42,0,0,1,.42-.42h1.81V92.59H163a.38.38,0,0,1-.43-.33v0a.41.41,0,0,1,.41-.41h1.25v-1h-1.52a.39.39,0,0,1-.44-.35v0a.41.41,0,0,1,.41-.41h4a.4.4,0,0,1,0,.8h-1.55v1h1.25a.39.39,0,0,1,.42.37v0a.38.38,0,0,1-.39.39h-1.28v1.52H167a.4.4,0,0,1,.09.8H162.4Zm4-1.06a6.49,6.49,0,0,0-.7-.46.32.32,0,0,1-.19-.27.42.42,0,0,1,.43-.38c.05,0,1.11.33,1.11.79a.42.42,0,0,1-.4.43.38.38,0,0,1-.25-.09Z"/><path class="cls-3" d="M170.88,97a.52.52,0,0,1-.52-.49.48.48,0,0,1,.46-.47,3.06,3.06,0,0,0,2.61-1.58.47.47,0,0,1,.46-.31.53.53,0,0,1,.53.48.55.55,0,0,1-.06.22C173.47,96.79,170.88,97,170.88,97Zm2.38-3.06a1.1,1.1,0,0,1-1.21-1v-.06c0-.46,0-1.21,0-1.94s0-1.45,0-1.86a1.06,1.06,0,0,1,1.09-1h3.58a1.05,1.05,0,0,1,1.05,1c0,.46,0,1.13,0,1.81s0,1.53,0,2a1.1,1.1,0,0,1-1.12,1h-.53v1.24c0,.57.12.71,1,.71s1.28-.13,1.28-1.06a.47.47,0,0,1,.44-.49h.05a.53.53,0,0,1,.53.53v0c0,1.8-1.19,1.93-2.37,1.93s-1.94-.11-1.94-1.26V93.93C174.51,94,173.85,94,173.26,93.94Zm3.6-3.33H173v.82h3.9Zm0-.81v-.41c0-.27-.14-.42-.48-.45s-.8,0-1.28,0h-1.58a.49.49,0,0,0-.49.46h0v.4ZM173,92.22v.42c0,.33.19.44.49.45.47,0,1,0,1.52,0s.92,0,1.37,0,.49-.4.49-.87Z"/><path class="cls-3" d="M164.49,85.91a9.87,9.87,0,0,0-1.09-1.68.78.78,0,0,1-.05-1.1.52.52,0,0,1,.11-.1,12.9,12.9,0,0,0,1-1.17.3.3,0,0,1,.41-.08.29.29,0,0,1,.07.4l0,0c-.26.32-.8.77-1.12,1.09s-.23.38-.06.6a8.77,8.77,0,0,1,1.2,1.69C165.15,85.94,164.66,86.24,164.49,85.91Z"/><path class="cls-3" d="M167.83,85.71a6.46,6.46,0,0,1,.09-3.17.25.25,0,0,1,.23-.27.26.26,0,0,1,.27.24v.06a6.84,6.84,0,0,0-.27,2.11c0,.07,0,0,.06,0l.08-.16a.21.21,0,0,1,.28-.09.21.21,0,0,1,.08.29,2.39,2.39,0,0,0-.3.72c0,.15,0,.31-.1.42S167.94,86,167.83,85.71Zm1.38-.37a.25.25,0,1,1,.36-.36c.28.25.9.17,1.3.08a.27.27,0,1,1,.1.53,1.9,1.9,0,0,1-1.76-.25Zm.29-2.08a.24.24,0,0,1-.27-.2.24.24,0,0,1,.2-.28,3.08,3.08,0,0,1,1.35,0,.25.25,0,1,1,0,.5h-.05a2.76,2.76,0,0,0-1.18,0Z"/><path class="cls-3" d="M174.33,83.88a3.84,3.84,0,0,1,1.11.22.85.85,0,0,0-.07-.52c-.15-.25.32-.45.49-.12a1.27,1.27,0,0,1,0,.86,4,4,0,0,1,.71.44c.33.26,0,.73-.31.46a4.65,4.65,0,0,0-.57-.42,2.52,2.52,0,0,1-1,1c-.37.22-.63-.19-.29-.4a2.12,2.12,0,0,0,.81-.87,3.07,3.07,0,0,0-1.19-.26,2.62,2.62,0,0,1-.66,1,.73.73,0,0,1-1,0c-.26-.33-.07-.88.53-1.14a2.75,2.75,0,0,1,.84-.22c.18-.39.42-.87.56-1.19,0-.08.05-.12,0-.1a2.55,2.55,0,0,1-.61.13.25.25,0,0,1,0-.5h0a6.86,6.86,0,0,0,.75-.12c.47-.1.67.21.44.59s-.42.78-.61,1.17Zm-1.22.62c-.13.07-.37.28-.29.42s.25,0,.35,0a1.92,1.92,0,0,0,.42-.56,1.71,1.71,0,0,0-.49.14Z"/><path class="cls-3" d="M148.31,135.06a.31.31,0,0,1-.22-.09,6.22,6.22,0,0,1-.6,2,.51.51,0,0,1-.44.29.44.44,0,0,1-.45-.42.44.44,0,0,1,.07-.26,9.74,9.74,0,0,0,.8-4.61c0-.72,0-1.42,0-2h0a.8.8,0,0,1,.72-.87h2.29c.88,0,.93.53.93,1.26,0,1-.29,1.05-2,1.05h-1.11v1.26a.38.38,0,0,1,.27-.1h.24v-.6a.35.35,0,0,1,.33-.37h0a.37.37,0,0,1,.37.35v.62H150v-.6a.38.38,0,0,1,.37-.37.36.36,0,0,1,.37.37v.6H151a.34.34,0,0,1,.37.31v0a.35.35,0,0,1-.33.37h-.29v1.15h.56a.36.36,0,0,1,0,.71Zm-.66,2a.47.47,0,0,1,.19-.34,3.08,3.08,0,0,0,.93-1.18.33.33,0,0,1,.31-.19.54.54,0,0,1,.5.48c0,.31-.92,1.67-1.44,1.67a.48.48,0,0,1-.48-.44Zm1.15-3.86h-.25a.34.34,0,0,1-.28-.13,11,11,0,0,1-.11,1.3l.15,0h.49Zm-.53-2.66h2c.34,0,.3-.22.3-.38,0-.36,0-.38-1.1-.38h-.83a.33.33,0,0,0-.33.33v.43Zm1.74,2.66h-.53v1.14H150Zm.52,3.43A2.27,2.27,0,0,0,150,136a.3.3,0,0,1-.12-.25.41.41,0,0,1,.41-.38,1.54,1.54,0,0,1,1,1,.5.5,0,0,1-.45.48.38.38,0,0,1-.29-.21Zm.53,1.24a.46.46,0,0,1-.47-.44h0a.46.46,0,0,1,.34-.44,5.44,5.44,0,0,0,1.89-1.13,3.57,3.57,0,0,1-.84-1.58.43.43,0,0,1,.42-.44h0a.4.4,0,0,1,.38.28,4,4,0,0,0,.63,1.12,3.08,3.08,0,0,0,.67-1.41c0-.11-.08-.17-.23-.17h-.26c-.49,0-1,0-1.62,0h0a.4.4,0,0,1-.41-.36v0a.39.39,0,0,1,.38-.4h2.38c.53,0,.88.27.88.74a5.05,5.05,0,0,1-1.1,2.25,4.67,4.67,0,0,0,1.7.91.47.47,0,0,1,.35.45.53.53,0,0,1-.53.53,4.25,4.25,0,0,1-2.11-1.24,5.33,5.33,0,0,1-2.41,1.34Zm4.22-7a.35.35,0,0,1,.33-.36h0a.42.42,0,0,1,.45.37V131c0,1.28-.44,1.5-1.37,1.5s-1.05-.47-1.05-1.32V130.1c0-.12,0-.3-.37-.3s-.47,0-.47.32a3.14,3.14,0,0,1-.7,2.38.49.49,0,0,1-.38.18.47.47,0,0,1-.48-.45.39.39,0,0,1,.13-.29,1.94,1.94,0,0,0,.53-1.63v-.49c0-.78.66-.78,1.11-.78,1.29,0,1.5.06,1.5,1.06v1.25c0,.13,0,.33.23.33s.45,0,.45-.67v-.12Z"/><path class="cls-3" d="M161,130.45h-3.16a.44.44,0,0,1-.45-.43v0a.47.47,0,0,1,.43-.5h7.84a.46.46,0,0,1,.44.47v0a.45.45,0,0,1-.4.48h-3.61v1.28h.16a8.22,8.22,0,0,1,2.6,1.25.55.55,0,0,1,.25.47.59.59,0,0,1-.56.59.7.7,0,0,1-.38-.14,10.28,10.28,0,0,0-2.07-1.23v4.64a.54.54,0,0,1-1.08,0Z"/><path class="cls-3" d="M151,123.6a2.54,2.54,0,0,1,.16-.28c.09-.1.06-.1,0-.07a5.18,5.18,0,0,0-.65.26c-.17.06-.31.11-.47.15a.3.3,0,1,1-.18-.56l.57-.12c.26-.06.71-.17,1.23-.32a6.86,6.86,0,0,1,1.4-.3.3.3,0,0,1,.37.22.37.37,0,0,1,0,.18c0,.09-.14.19-.5.17a2.18,2.18,0,0,0-.76.14,1.58,1.58,0,0,0-.67.61,1.14,1.14,0,0,0,.27,1.6,1.11,1.11,0,0,0,.79.21c.52,0,.58.6,0,.59a1.65,1.65,0,0,1-1.77-1.52A1.69,1.69,0,0,1,151,123.6Zm1.58.34c-.27-.12-.07-.44.19-.35a1.44,1.44,0,0,1,.52.33c.21.22-.11.56-.29.34a2.15,2.15,0,0,0-.41-.32Zm.53-.46c-.28-.11-.08-.44.17-.35a1.57,1.57,0,0,1,.53.31c.22.21-.08.56-.27.35a1.84,1.84,0,0,0-.43-.3Z"/><path class="cls-3" d="M156.59,125.29a4.14,4.14,0,0,0,0-.61c0-.58-.81-.09-1,.17a2.81,2.81,0,0,0-.33.7c-.09.4-.2.43-.3.44a.28.28,0,0,1-.34-.19.39.39,0,0,1,0-.21,10.28,10.28,0,0,1,.82-1.58c.3-.46.57-.91.83-1.31.08-.15.22-.33.28-.43a.27.27,0,0,1,.39-.06.29.29,0,0,1,.09.34l-.12.18-.15.17a8.58,8.58,0,0,0-.53.7c-.14.19-.24.36-.35.53s0,0,0,0a.69.69,0,0,1,1.15.47v.57c0,.46.44.4.74.13a1.68,1.68,0,0,0,.47-.73c.15-.38.69-.12.49.27a2.49,2.49,0,0,1-.64.86C157.61,126.16,156.58,126.27,156.59,125.29Z"/><path class="cls-3" d="M161.66,123.24c.43,0,.77.22.79.8a3.24,3.24,0,0,1-.18,1.16,1,1,0,0,1-1.21.63c-.41-.12-.24-.6.07-.53a.5.5,0,0,0,.65-.26v0a2.51,2.51,0,0,0,.16-.9c0-.32-.11-.47-.35-.45h-.23a7.57,7.57,0,0,1-1,2.11c-.25.35-.78,0-.45-.33a5,5,0,0,0,.91-1.69h-.06a3.47,3.47,0,0,1-.55.08.26.26,0,0,1-.29-.22.25.25,0,0,1,.21-.28.11.11,0,0,1,.08,0,3.39,3.39,0,0,0,.52,0l.26,0a5.66,5.66,0,0,0,.16-.82.27.27,0,0,1,.53,0c0,.25-.09.49-.15.73Zm1.9,1.17a1.89,1.89,0,0,0-.74-.89c-.25-.14,0-.53.3-.34a2.16,2.16,0,0,1,.91,1C164.16,124.51,163.7,124.73,163.56,124.41Zm-.47-1.58c-.27-.1-.08-.42.16-.34a1.62,1.62,0,0,1,.53.29c.21.2-.07.53-.25.34a1.9,1.9,0,0,0-.45-.31Zm.44-.46c-.27-.09-.1-.43.15-.36a1.72,1.72,0,0,1,.52.27c.22.2,0,.53-.24.35a1.77,1.77,0,0,0-.43-.28Z"/><path class="cls-3" d="M99.63,146.8v1.95a6.6,6.6,0,0,0,2.71.4c1,0,2.22-.08,3.16-.15h0a.45.45,0,0,1,.45.44v0a.53.53,0,0,1-.53.53c-.73.07-1.55.11-2.35.11-2.14,0-4-.17-5.09-1.58-.33,1.38-.52,1.53-.86,1.53a.42.42,0,0,1-.46-.39h0a.57.57,0,0,1,.07-.22,7.4,7.4,0,0,0,.65-3.24.4.4,0,0,1,.41-.39h0a.43.43,0,0,1,.46.39h0c0,.23-.08,1.11-.09,1.19a2.1,2.1,0,0,0,.46.74v-3h-1.3a.36.36,0,0,1-.4-.34s0,0,0,0a.4.4,0,0,1,.38-.41h1.33v-.9h-1a.39.39,0,0,1-.42-.36v0a.41.41,0,0,1,.4-.42h1V141.6a.47.47,0,0,1,.54-.4.47.47,0,0,1,.4.4v1.05h.85a.41.41,0,0,1,.09.82h-1v.9h1.09a.39.39,0,0,1,.4.39.4.4,0,0,1-.4.4H99.61V146h.9a.38.38,0,0,1,.39.39.39.39,0,0,1-.39.4Zm4.12-3.05a8.75,8.75,0,0,0,.25,2.34,7.63,7.63,0,0,0,.53-1.68.33.33,0,0,1,.35-.27.47.47,0,0,1,.49.43,6.63,6.63,0,0,1-1.05,2.44c.08.13.37.61.53.61s.21-.18.36-.62a.37.37,0,0,1,.36-.31.5.5,0,0,1,.47.46c0,.11-.35,1.45-1.19,1.45-.53,0-1-.63-1.12-.88a3.81,3.81,0,0,1-1.89,1.1.4.4,0,0,1-.42-.38h0a.46.46,0,0,1,.34-.41,3.44,3.44,0,0,0,1.61-1.13,10.92,10.92,0,0,1-.5-3.16h-.38c-.32,0-.37.15-.39.36v2.35l.36-.22a.34.34,0,0,1,.55.3.44.44,0,0,1-.21.37,7.1,7.1,0,0,1-2.31,1.09.43.43,0,0,1-.39-.46.42.42,0,0,1,.3-.37,8.33,8.33,0,0,0,.84-.29v-3.08c0-.44.26-.9,1-.91h.58c0-.45,0-.9,0-1.35h0a.43.43,0,0,1,.46-.41h0a.42.42,0,0,1,.45.38.06.06,0,0,1,0,0v1.34h1.39a.43.43,0,0,1,0,.86Zm.9-1.13a2.07,2.07,0,0,0-.6-.58.26.26,0,0,1-.13-.22.43.43,0,0,1,.41-.39c.25,0,1,.47,1,.87a.47.47,0,0,1-.42.46.29.29,0,0,1-.26-.12Z"/><path class="cls-3" d="M108.86,144.88a.55.55,0,0,1-.5.32c-.24,0-.49-.15-.49-.37a.48.48,0,0,1,.07-.23,9.81,9.81,0,0,0,.89-1.88c0-.12-.12-.13-.21-.13h-.8a.44.44,0,0,1-.44-.42v0c0-.47.38-.47.64-.47h1.18c.47,0,.78.23.78.65,0,.21,0,.35-.67,1.67h.34a.78.78,0,0,1,.83.71.76.76,0,0,1,0,.15,9.34,9.34,0,0,1-.85,3.11,4.66,4.66,0,0,0,3.62,1.18c.85,0,1.71-.09,2.51-.13h0a.49.49,0,0,1,.5.46v0a.53.53,0,0,1-.53.53c-.73.07-1.47.13-2.19.13a5.84,5.84,0,0,1-4.38-1.42c-.35.53-1.34,1.58-1.72,1.58a.56.56,0,0,1-.52-.55.5.5,0,0,1,.25-.42,4.29,4.29,0,0,0,1.4-1.38,4.77,4.77,0,0,1-.37-.83c-.34.47-.53.61-.7.61a.49.49,0,0,1-.47-.46.57.57,0,0,1,.22-.42,2.52,2.52,0,0,0,.74-1.08.35.35,0,0,1,.36-.23.42.42,0,0,1,.45.39h0v.16a4,4,0,0,0,.27,1,6.13,6.13,0,0,0,.47-1.93c0-.2-.1-.25-.23-.25Zm6.76-2.3h-1.34v.89c.65,0,1.4,0,1.44,1,0,.5,0,1,0,1.43s0,1.06,0,1.65a1.09,1.09,0,0,1-1.13,1c-.41,0-.93,0-1.41,0H112c-.77,0-1.1-.43-1.12-1.06v-3.11a.86.86,0,0,1,.86-.88h.46v-.89H111a.42.42,0,1,1,0-.83h4.59a.42.42,0,0,1,.46.39v0a.41.41,0,0,1-.42.41h0Zm-3.85,3.76a2.6,2.6,0,0,0,.5-1.83v-.28h-.14c-.42,0-.42,0-.42,1.69v.52Zm1.24-2.11a4.15,4.15,0,0,1-.57,2.59.42.42,0,0,1-.36.21.41.41,0,0,1-.36-.21v.42c0,.46.14.48,1.61.48.39,0,.78,0,1,0,.42,0,.49-.12.49-1h-.27c-.82,0-1.15-.22-1.15-.82v-1.68Zm.47-1.65H113v.88h.47Zm.75,1.67v1.47c0,.21.14.24.4.24h.24c0-1.67,0-1.68-.41-1.69Z"/><path class="cls-3" d="M100.05,138a.28.28,0,0,1,.43-.34,2.11,2.11,0,0,0,2,.2c.42-.12.55.44.13.57A2.64,2.64,0,0,1,100.05,138Zm.58-2.11c-.41.08-.48-.47,0-.52a5.63,5.63,0,0,1,1.64,0c.44.09.32.63-.1.52a3.8,3.8,0,0,0-1.54,0Z"/><path class="cls-3" d="M105.49,137.66c0-.52,0-1,.06-1.54,0-.33,0-.84,0-1.16a.29.29,0,0,1,.57,0c0,.33,0,.82-.08,1.16a13.08,13.08,0,0,0-.09,1.53c0,.76,1,.71,1.84,0a.3.3,0,0,1,.41,0,.29.29,0,0,1,0,.41l-.06.05C107.18,138.92,105.53,139.07,105.49,137.66Z"/><path class="cls-3" d="M112,135.89A4.18,4.18,0,0,1,111,138c-.4.37-.83.17-1.06-.28a1.81,1.81,0,0,1,.71-2.11,2.11,2.11,0,0,1,2.23-.12,1.55,1.55,0,0,1,.51,2.13l0,0a2.14,2.14,0,0,1-1.26.86c-.46.12-.61-.4-.17-.52a1.66,1.66,0,0,0,1-.58,1.14,1.14,0,0,0-.27-1.58h0a1.21,1.21,0,0,0-.63-.21A.26.26,0,0,1,112,135.89Zm-1.14.1a1.33,1.33,0,0,0-.53,1.47c.08.15.21.23.34.11a3.15,3.15,0,0,0,.8-1.73.42.42,0,0,1,0-.16,1.75,1.75,0,0,0-.68.31Z"/><path class="cls-4" d="M132.29,109.05a.51.51,0,0,0,.79.09l.08-.09c.27-.38.55-.73.84-1.07a10.64,10.64,0,0,1,16.55,0,13.43,13.43,0,0,1,2.5,4.28,1.5,1.5,0,0,1-.45,1.89,1.15,1.15,0,0,1-.25.12c-1.06.53-1.46,0-1.75-.82-1.94-5.3-7.24-7.78-11.84-5.54a9,9,0,0,0-2.87,2.23,10.73,10.73,0,0,0-1.94,3.31c-.21.57-.26,1.07-1.23,1.07s-1-.54-1.23-1.07a10.59,10.59,0,0,0-1.93-3.31,8.21,8.21,0,0,0-12.76,0h0a10.86,10.86,0,0,0-1.93,3.3c-.28.78-.61,1.35-1.74.82s-1-1.23-.71-2c2.52-6.86,9.38-10.06,15.33-7.15a11.7,11.7,0,0,1,3.72,2.89A11.36,11.36,0,0,1,132.29,109.05Z"/><path class="cls-4" d="M175.49,46a.51.51,0,0,0,.79.1l.09-.1a12.21,12.21,0,0,1,.84-1.06,10.64,10.64,0,0,1,16.55,0,14,14,0,0,1,2.5,4.29,1.51,1.51,0,0,1-.45,1.88,1.05,1.05,0,0,1-.26.13c-1.05.53-1.46,0-1.75-.82-1.94-5.3-7.24-7.78-11.84-5.54a9,9,0,0,0-2.87,2.23,10.82,10.82,0,0,0-1.94,3.31c-.21.57-.26,1.06-1.22,1.06s-1-.53-1.23-1.06a10.62,10.62,0,0,0-1.94-3.31,8.21,8.21,0,0,0-12.76,0v0a10.68,10.68,0,0,0-1.94,3.3c-.28.78-.61,1.35-1.74.82s-1-1.24-.71-2c2.52-6.85,9.39-10,15.34-7.15A11.81,11.81,0,0,1,174.65,45Q175.08,45.49,175.49,46Z"/><path class="cls-4" d="M215.56,94a.52.52,0,0,0,.79.1.43.43,0,0,0,.09-.1,12.62,12.62,0,0,1,.84-1.06,10.64,10.64,0,0,1,16.55,0,13.74,13.74,0,0,1,2.5,4.28,1.5,1.5,0,0,1-.45,1.89,1.26,1.26,0,0,1-.26.13c-1.05.53-1.46,0-1.74-.82-1.94-5.3-7.24-7.78-11.84-5.54a9.06,9.06,0,0,0-2.88,2.23,10.59,10.59,0,0,0-1.93,3.31C217,99,217,99.45,216,99.45s-1-.53-1.23-1.06a10.59,10.59,0,0,0-1.93-3.31,8.2,8.2,0,0,0-12.76,0l0,0a10.43,10.43,0,0,0-1.93,3.3c-.29.78-.62,1.35-1.75.82s-1-1.24-.7-2C198.2,90.33,205.06,87.13,211,90a11.85,11.85,0,0,1,3.72,2.89A12.36,12.36,0,0,1,215.56,94Z"/><rect class="cls-5" width="319" height="179"/></g></g></svg>