<svg xmlns="http://www.w3.org/2000/svg" viewBox="0 0 270 180"><defs><style>.cls-1{fill:#3a8a78;}.cls-2{fill:#80b03f;}.cls-3{fill:#9c643a;}.cls-4,.cls-9{fill:#dbc38b;}.cls-4,.cls-8{stroke:#be7c4e;}.cls-21,.cls-23,.cls-4,.cls-8{stroke-miterlimit:10;}.cls-4{stroke-width:0.7px;}.cls-5{fill:#29c967;}.cls-6{fill:#8d562c;}.cls-7{fill:#7c3e17;}.cls-23,.cls-28,.cls-8{fill:none;}.cls-21,.cls-8{stroke-width:1.41px;}.cls-10{fill:#c8b581;}.cls-11{fill:#bea966;}.cls-12{fill:#d0ad68;}.cls-13{fill:#333;}.cls-14{fill:#838075;}.cls-15{fill:#fff;}.cls-16{fill:#e2a02c;}.cls-17{fill:#b3a686;}.cls-18,.cls-21{fill:#64939f;}.cls-19{fill:#666;}.cls-20{fill:#b19c83;}.cls-21{stroke:#558a97;}.cls-22{fill:#ffff80;}.cls-23{stroke:#ffd200;stroke-width:1.46px;}.cls-24{fill:#ffc200;}.cls-25{fill:#ffd200;}.cls-26{fill:#bd916f;}.cls-27{fill:#be7c4e;}</style></defs><g id="レイヤー_2" data-name="レイヤー 2"><g id="section_1-4"><path class="cls-1" d="M58.5,93.31C39,102.59,6.65,110.42,3.6,130.69c-8.15,54.18,140.94,48,179.92,44.7,41.91-3.51,94-22,72.48-59.29-6.91-12-20.23-21.51-35.1-28.65-27.08-13-96.83-33.32-127.9-17.73-4.84,2.43-7.81,6.35-11.48,9.7C75.35,85.06,67,89.27,58.5,93.31Z"/><path class="cls-2" d="M246.45,75.4a70,70,0,0,0,11.07-7c8.56-6.78,12.07-19.9,6.54-29.33-6.25-10.64-20.54-13.25-32.85-12.28s-24.81,4.35-36.77,1.33c-31.15-7.85-44.53-23.27-78.14-12.38C98,21.65,61.91,37.86,81.09,62,110.63,99.27,202.52,98.24,246.45,75.4Z"/><path class="cls-3" d="M110.06,145.15l.27-.19a5.22,5.22,0,0,0,1.09-1.23,5.59,5.59,0,0,0,.72-1.67,7.38,7.38,0,0,0,.16-.94c.1-.94,0-1.9,0-2.84a4.72,4.72,0,0,1,1.86-3,8.94,8.94,0,0,0,2.43-2.67q-1.51.85-3,1.77a3.79,3.79,0,0,0-.86.68c-.21.27-.37.61-.69.72-.92.3-2.3-3.25-2.86-3.95a12.72,12.72,0,0,0,.67,5.2c.9,3-.57,3.33-.74,2.13-.33-2.31-.57-3.89-.81-4-.53-.33-29.21-1.85-30.74,0-1.33,1.62,0,19.47-7.64,25.29a44.94,44.94,0,0,0-4.44,4.3c-1.69,2.18,2.41,3.57,10-2.71,6.09-5,6.69-2.4,6.25.77-.34,2.5-2.41,7.46-2.47,7.94-.11.77-.12,1.77.42,2,1,.41,6.14-5.08,7.13-7.32,1.87-4.22,9.74-5.27,11.08-2.72.57,1.08,3.44,6.59,6.17,6.59,0,0-.25-5.78-.1-7,.52-4.25,7.38-.25,8.55.62a10.72,10.72,0,0,0,3.21,1.64,4.31,4.31,0,0,0,3.16,0c.42-.23-4.23-3.41-5.52-5.82C110.94,154.21,110.72,148.83,110.06,145.15Z"/><path class="cls-4" d="M108.08,134.54c0,3.13-6.89,5.67-15.37,5.67s-15.38-2.54-15.38-5.67,6.89-5.68,15.38-5.68a38.8,38.8,0,0,1,4.54.26c.46,0,.23,2.1.67,2.16s1.83-1.79,2.37-1.68C104.94,130.58,108.08,132.42,108.08,134.54Z"/><path class="cls-5" d="M116.3,137.61c-.52-.28-3-1.64-3.42-1.28s0,3.24,0,3.66a2.83,2.83,0,0,0,1.59,2.38c.33.12,3.06.68,3.06.68S117.65,138.34,116.3,137.61Z"/><path class="cls-5" d="M121.85,128.19s-3.12-1.17-5.07.61a5.84,5.84,0,0,0-1.5,5.29c.23.3,2.72-.57,4-1.47S121.85,128.19,121.85,128.19Z"/><path class="cls-5" d="M111.31,125.25s-3.4.79-4,3.74a3.08,3.08,0,0,0,2,3.85,6.43,6.43,0,0,0,2.34-3.06A13.14,13.14,0,0,0,111.31,125.25Z"/><path class="cls-6" d="M96,158a19.6,19.6,0,0,1-1.61-2c-.7-1.39-2.63-3.92-4.26-2.57s-.74,5.55-.1,7.31c0-.13.1-2.38.11-2.47C90.49,155.67,94,156.94,96,158Z"/><path class="cls-6" d="M72,151.89c-.55-.76-5.66,3-6.54,5.22A5.94,5.94,0,0,0,65,158.8c.37-.26.68-.58,1-.84,4.81-3.67,5.67-2,5.3.65a15.39,15.39,0,0,1-.86,3.2,1.07,1.07,0,0,0,.16-.14A8.27,8.27,0,0,0,72.94,157,10,10,0,0,0,72,151.89Z"/><path class="cls-6" d="M84.11,155.25A6,6,0,0,0,80.74,154,6,6,0,0,0,77,156.22c-1.47,2.17-2.95,6.79-3.27,7.59a13.47,13.47,0,0,0,1.91-3c1.59-3.58,8.26-4.48,9.4-2.31a13.16,13.16,0,0,0,2,3.47C86.63,160.56,85.5,156.57,84.11,155.25Z"/><path class="cls-7" d="M87.27,140.78s-.46,3.4-.46,4.76a25.42,25.42,0,0,1-.9,4.88,22.1,22.1,0,0,1-2.27,3.4,20.8,20.8,0,0,0,2.15-1.24c.8-.57.8-2.39,1.25-3.41a4.91,4.91,0,0,0,.57-2.72l.11-1.93Z"/><path class="cls-7" d="M93.16,145.09c.34.68.12,3.29.23,4.2s-.23,1.81,0,2.49.23,2.38.57,2.72a10.24,10.24,0,0,0,1.24.91l-.79-2.27v-3.51l-.34-2.27Z"/><path class="cls-7" d="M99.51,139.87s.46,2.73.57,4.88,0,4,0,5,0,2.38-.11,3.63-.46,3.4-.46,3.4a20.17,20.17,0,0,0,1.25-3.29c0-.56,0-5.1.11-5.78s-.22-3.86-.22-4.31A32.69,32.69,0,0,0,99.51,139.87Z"/><path class="cls-7" d="M102.24,140.1c0,.34.45,3,.68,4.31s.11,2.5.22,3.52.34,2.49.34,2.49.46-2.61.46-2.95c0,0-.23-3.74-.34-4.19s-.57-1.82-.57-1.82Z"/><path class="cls-8" d="M75.87,117.76A6.11,6.11,0,0,1,79,114.17c3.57-2,6.11-.77,6.11-.77"/><path class="cls-9" d="M84.14,136.5c-2.33-3.83-3-6.26-4.32-9.56-1.47-3.65-.32-.43-1.88-4.3-.52-1.31-1.64-3.51-2.07-4.88.95-1.52,5.21-3.73,9.23-4.36.52.93.6,2,1,2.85.54,1.14,1,2.31,1.53,3.43a91.78,91.78,0,0,1,5.06,13.13C92.82,133.33,84.35,136.71,84.14,136.5Z"/><path class="cls-10" d="M85.1,113.4c.52.93.6,2,1,2.85.54,1.14,1,2.31,1.53,3.43a91.78,91.78,0,0,1,5.06,13.13c.13.52-6.7,3.38-6.91,3.17l0-3.51-.86-4.75-2-6.06-.26-5.31Z"/><path class="cls-9" d="M85.1,113.4l-9.23,4.36A6.11,6.11,0,0,1,79,114.17C82.56,112.21,85.1,113.4,85.1,113.4Z"/><path class="cls-11" d="M76.56,116.37c.38-.07,1-.46,1.36-.49a6.1,6.1,0,0,1-.28.58C77.29,116.36,76.76,116.45,76.56,116.37Z"/><path class="cls-12" d="M84.86,118.41c.33-.22-.85-3.72-.55-4-.19-.08-.23.19-.44.12C83.69,114.88,84.94,118.21,84.86,118.41Z"/><path class="cls-11" d="M80.23,114a5.58,5.58,0,0,0-1.71.85c-.46.38-1.51,2.14-1.26,2.66l.36-.19s-.39-.13.67-1.84A3.36,3.36,0,0,1,80,114.33a8.28,8.28,0,0,1,3-.21c.63.15.56.4.55.5l.43-.19c0-.2-.25-.36-.41-.49-.73-.59-3.11,0-3.14,0Z"/><path class="cls-12" d="M85.06,121.18s1.09,2.74,1.24,3.5c.24,1.18-.16,1.14.48,2.11a35.13,35.13,0,0,1,1.88,5.32S85.12,125.27,85.06,121.18Z"/><path class="cls-12" d="M82.56,118.42s1.09,2.74,1.24,3.5c.24,1.18-.16,1.14.48,2.11a2.53,2.53,0,0,1,.55,1.68A14.57,14.57,0,0,1,82.56,118.42Z"/><path class="cls-12" d="M81.14,120.6c.65,1.32,1.09,3.28,1.72,4.24s1.68,5.37,1.87,6.69c.12.83-.64-1.47-1.73-4.74C82.35,124.82,81.16,122.14,81.14,120.6Z"/><path class="cls-11" d="M79.72,113.79s.24.66.3.54.38-.69.45-.79A3.2,3.2,0,0,0,79.72,113.79Z"/><path class="cls-3" d="M83.84,136.68a39.39,39.39,0,0,1-3.52-7.47c-.26-.68-.53-1.39-.83-2.14a12.51,12.51,0,0,0-.87-2,13.63,13.63,0,0,1-1-2.31c-.2-.49-.48-1.11-.78-1.77-.51-1.11-1.41-2.52-1.69-3.39l.77-.34c.27.83,1.08,2.4,1.56,3.44.3.66.59,1.3.79,1.8a13.5,13.5,0,0,0,.94,2.17,13.29,13.29,0,0,1,.93,2.13c.31.75.58,1.46.84,2.15a38.71,38.71,0,0,0,3.46,7.35Z"/><path class="cls-12" d="M86.69,132.81l1-.54-.76-.65-.8-1-.89-1.9-.39-1a3,3,0,0,0,.25,1.57c.37.59,1.23,2.11,1.23,2.11Z"/><path class="cls-11" d="M78.89,116.51s-.2-.49.54-1a3.06,3.06,0,0,1,1.76-.64,1.41,1.41,0,0,1,.9.37l-.33.13a2.35,2.35,0,0,0-1.07-.17,2.77,2.77,0,0,0-1.09.51,2.24,2.24,0,0,0-.48.68Z"/><path class="cls-12" d="M75.87,117.76l9.26-4,.17.31-5,2.25s-1.23.51-1.18.4c.12-.28-1.9.73-2.27.92A3.15,3.15,0,0,1,75.87,117.76Z"/><path class="cls-13" d="M83.13,119s-2.31,1.54-2.2,2.53a9.77,9.77,0,0,0,2.53,4.51,3.64,3.64,0,0,1,1.32,1.87l3.08,7.38,1.17-.12s-.51-7.26-2.27-9.46A35.94,35.94,0,0,1,83.13,119Z"/><path class="cls-14" d="M81.6,121.09s2.34-3,3-2.41a10,10,0,0,1,1.32,2.53c.27.55,1.88,2,1.76,2.2s-2.52,1.91-2.52,1.91l-.45-1.62s-.7-1.71-1.55-2.14A4.35,4.35,0,0,0,81.6,121.09Z"/><path class="cls-15" d="M148,26.32l-.83,8.18-4.51,4.83-3.35-6.07s-.34-6.15.31-5.92S148,26.32,148,26.32Z"/><path class="cls-15" d="M133.4,16.91c.17-.88.41-1.77.65-2.79a11.9,11.9,0,0,1,1.34-3.75,7.67,7.67,0,0,1,4.6-3c5-1.39,10.81-.08,11.94,6.48.33,1.89.87,3,.89,5,0,2.46-.82,4.94-1.56,5.43-.06,0-3.74,9.88-7.94,9.73-3-.12-7.88-8.21-8.45-9.15a11.64,11.64,0,0,1-1.57-4.56A10,10,0,0,1,133.4,16.91Z"/><path class="cls-15" d="M151.73,16.29s3.89-.86,3.42,2.33a2.64,2.64,0,0,1-3,2.34Z"/><path class="cls-16" d="M138,69.06a14.62,14.62,0,0,0-.78,2c-.13.63-.9,3.58-.9,3.58S125.66,86.49,125.41,87.9s-.88,6.42-1.07,6.88,1.52.73,1.71,2c.74,4.83,3.28,12.36,3,10.12l7.28,1.32,0-7.86L138,91.16s3.52-3.89,5.07-5.29a34.1,34.1,0,0,1,3.76-2.8s9.28,3.66,9.15,6,.88,10.43,1.4,10.74,1.17,0,1.55.78,5.69,8.8,5.69,8.8l7.72-4-2.2-5.45-.39-1.4-.23-6.15s1.61-6.69,1.87-7.94.1-6.61.23-7.7-1-5-1.42-5.76l-1.56-3.12s-4.91,2-6.76,2.57-7.15,1.64-10.39,1.17-10.1-1.87-10.1-1.87Z"/><path class="cls-17" d="M127.44,106.81,138,105.17s-.31,5.92.47,8.41.07,5.92.39,6.54,1.71,3.73-.47,4.2S127,126.5,124,126.5s-6.85-.15-6.23-1.87,3.11-3.27,5-4,4.91-2.11,4.91-2.11l1.16-6.07Z"/><path class="cls-17" d="M161.69,107.9l10.9-4.2s3.89,7.16,4.67,8.09,2.8,3.74,2.49,4.83-3.58,2.95-4.52,4.67a9.4,9.4,0,0,1-5.76,4.2c-2.8.78-6.22,2-7,.31s-1.25-2.65.15-3.89,4.83-2.8,4.67-4a35.44,35.44,0,0,0-.93-3.89l-2.65-3.11Z"/><path class="cls-18" d="M138.88,30.69l-4,.22a11,11,0,0,0-4,1.65,6.76,6.76,0,0,0-3.5,3.5c-1.31,2.82-1.27,6-2.8,10-.48,1.24-1,2.5-1.4,3.73-.55,1.49-4.9,13.78-4.9,13.78L130,65.71l2.26-8.17s2.62,5.6,2.88,7.47-.7,7.94-.7,7.94,12.09-.08,14.94.23,9-1.94,10.6-2.25,3.63-1.25,4.92-1.56a46.73,46.73,0,0,0,5.18-2.18l-3.63-9.34,3.71-5L169,45.4l-2.07-8-1-3.84L160.13,30l-5.37-1.17L149.39,30l-6.77,9.34Z"/><path class="cls-15" d="M116.92,92.29a21,21,0,0,0,1.18-3.46c0-.62,1-8.2,1.06-8.52s-.1-4.87,0-5.29.21-4.57.31-4.88.87-3,.87-3l8.16.9-1.13,3-3.52,16.67.6,2.48s-2.51,4-3.33,4.56a13.86,13.86,0,0,1-3.61.91l-.46-2.38Z"/><path class="cls-14" d="M93.12,113.23l2.68,3.39s51.49-38.88,52.54-39.93-1.63-4.09-3.15-3.15S93.12,113.23,93.12,113.23Z"/><path class="cls-15" d="M118.34,99.13a2.77,2.77,0,0,0,2,0,4.64,4.64,0,0,0,1.45-.83l.11-.83a1.51,1.51,0,0,0,1.24-.73l.42-.73a2.23,2.23,0,0,0,.93-.72l.21-.42s1-.1,1-.83a4.83,4.83,0,0,0-.72-1.86L124.77,91s-1-.73-1.24.1c0,0-1-1.14-1.25.41,0,0-.72-.1-.93.42a4.47,4.47,0,0,0-.21,1.35s-.93-.52-1,.31-.31,1.35-.31,1.76c0,.21-.1,2.49-.1,2.49Z"/><path class="cls-15" d="M117,92.28s2.91-.93,3,.21-.1,1.45-1.14,1.87-3,1.45-3.11.72a4.29,4.29,0,0,1,.1-2.07C116.06,92.59,117,92.28,117,92.28Z"/><path class="cls-13" d="M81.79,120s3.62.47,4.09,3.5S89,135.18,89,135.18s7.94-3.15,10.74-4,2.69-2.1,2.69-2.1L97,118.25l-2.69-5.6a17.4,17.4,0,0,0-6.65,2.56A31.62,31.62,0,0,0,81.79,120Z"/><path class="cls-19" d="M93.35,115.1c-.93.35-6.19,2.57-7.12,3.85a10.56,10.56,0,0,1-1.64,1.87l-2-1a41.64,41.64,0,0,1,6-4.44,47.73,47.73,0,0,1,5.72-2.68C94.64,112.53,94.28,114.75,93.35,115.1Z"/><path class="cls-14" d="M84.17,122.53c.81,1.36,1.14,2.56,1,2.79a1.13,1.13,0,0,1-1,.48c-.78-.08-2.61-2.88-2.73-4.09C81.35,120.71,82.86,120.35,84.17,122.53Z"/><path class="cls-20" d="M83.7,124.83c.27.35,1-.12.47-1.21A3.82,3.82,0,0,0,83,122.06c-.62-.62-1.25-.54-1,.32A9.21,9.21,0,0,0,83.7,124.83Z"/><path class="cls-15" d="M134.73,81.62a2.5,2.5,0,0,0-1.86-.4c-1.07.21-1.66,1.65-1.89,1.93a9.43,9.43,0,0,1-1.55,1l-.36,1.91s2.09.12,2.55,1.68a7.14,7.14,0,0,1,.18,3s-.18,1.11.95.77,1.5-1.5,2-1.86,1.87-.24,2.07-.62a5.52,5.52,0,0,1,1-1l.18-1.11-.55-1.56s6.71-6.73,7.78-7.26a41.38,41.38,0,0,0,6.59-5.44c.8-1.09,2.28-2.69,2.28-2.69l1.28-1.54L158.18,66l-3-2.82-5.53-2.07-1.54,3.11s-8.06,9.8-9.3,11.85A64.48,64.48,0,0,1,134.73,81.62Z"/><polyline class="cls-21" points="153.63 41.95 153.63 51.76 150.59 58.07 149.66 61.1 158.18 65.99 163.35 59.99"/><path class="cls-16" d="M155.48,16.1a1.31,1.31,0,0,1-.32,1.78c-1,1-3.55.65-5.17,1.29s-6,2.22-7.51,2.91c-2.51,1.13-5.74-.81-6.95-1.13a14.87,14.87,0,0,0-2.69-.66c-2.65-.15-3.42-.78-3.05-1.76A5.47,5.47,0,0,1,133.51,15c2.1-.48,14.7,0,14.7,0Z"/><path class="cls-22" d="M140.73,22.8a11.71,11.71,0,0,1-4.27-1.11c-.42-.17-.78-.32-1-.39l-.88-.25a7.33,7.33,0,0,0-1.73-.39c-1.84-.11-3.08-.36-3.3-1.07-.36-1.18.43-1.55.43-1.55a9.79,9.79,0,0,0,.19,1.15c.14.23.69.62,2.73.74a8.54,8.54,0,0,1,1.89.42l.86.25c.29.08.67.23,1.12.41,1.5.62,3.78,1.56,5.58.74,1-.44,3.07-1.23,4.91-1.92,1.06-.4,2-.76,2.62-1a10,10,0,0,1,2.47-.49c1-.12,2.84-.46,2.84-.46a3.71,3.71,0,0,1-2.76,1.19,9.43,9.43,0,0,0-2.27.44c-.6.24-1.57.61-2.64,1-1.83.68-3.9,1.46-4.86,1.89A4.56,4.56,0,0,1,140.73,22.8Z"/><path class="cls-16" d="M132.7,13.68l.16,3.23a63.92,63.92,0,0,0,8.73,1.78A39.85,39.85,0,0,0,150,18c1.45-.32,5.49-1.94,5.49-1.94s-.57-7.16-2.74-9.21C147.08,1.56,142.07,3,139.81,3.82a8.53,8.53,0,0,0-4.53,2.91C133.67,8.51,132.7,13.68,132.7,13.68Z"/><path class="cls-23" d="M132.1,15.54a15.85,15.85,0,0,0,9.49,3.15A46.9,46.9,0,0,0,150,18c1.45-.32,5.49-1.94,5.49-1.94"/><polygon class="cls-24" points="133.67 11.42 131.93 12.52 133.96 12.17 133.67 11.42"/><polygon class="cls-25" points="131.93 12.52 133.96 12.17 133.96 15.94 132.1 15.54 131.93 12.52"/><polygon class="cls-25" points="145.14 14 144.98 17.88 149.26 17.56 149.1 13.6 145.14 14"/><polygon class="cls-24" points="149.1 13.6 145.14 14 144.98 17.88 145.79 17.88 145.63 14.65 149.02 14.16 149.1 13.6"/><path class="cls-25" d="M146.52,3.09a8.17,8.17,0,0,0-4,2.35c-.89,1.16-.57,2.42-1.54,3.31-.72.66-1.34.74-1.53-.4-.17-1,.72-3.07,1.93-4.21C142.11,3.43,144.82,2.12,146.52,3.09Z"/><path class="cls-24" d="M146.52,3.09a8.17,8.17,0,0,0-4,2.35c-.89,1.16-.57,2.42-1.54,3.31a2.31,2.31,0,0,0,1-.89c.34-.6.4-1.7,1.31-2.36s1.52-1.15,2.06-1.46a7.72,7.72,0,0,0,1.24-1"/><path class="cls-22" d="M139.41,8.35a3.22,3.22,0,0,1,.15-1.8A7.42,7.42,0,0,1,141.22,4a6.7,6.7,0,0,1,2.69-1.3,4.84,4.84,0,0,1,1.19-.14,4,4,0,0,1,1.42.52c-1.58-.89-4.28.47-5.05,1.19C140.28,5.39,139.41,8.35,139.41,8.35Z"/><path class="cls-16" d="M123.47,64.08l-5.13-.47s-1.87-1.17-1.64.23a24.57,24.57,0,0,1,.23,3.27h3.41l9.44,2.57,1.16-2.57.7-2.1Z"/><path class="cls-16" d="M149.66,61.1l-2.14-.29-1.16,3s10.27,5.14,11,5.14,2.33-1.87,2.33-1.87l-4.47-3.94Z"/><path class="cls-21" d="M136.31,61.51s5.38-5.37,7.94-5.37-2.1,3.27-2.1,4.2,4.21-1.4,4.21-1.4"/><polyline class="cls-21" points="132.27 57.54 135.85 46.33 136.55 42.6"/><path class="cls-3" d="M98.94,138.11a1.59,1.59,0,0,0,.75-.75c1.28-3.21.44-7,.43-10.52,0-3.94.14-.53.13-4.7,0-1.42.21-3.89.1-5.32a31.36,31.36,0,0,1-10.19.4c-.14,1.07.19,2.08.14,3-.08,1.27-.07,2.52-.14,3.77a80.26,80.26,0,0,0,.28,13.13c.08.52.65,1,1.54,1.27A9.63,9.63,0,0,0,98.94,138.11Z"/><path class="cls-9" d="M90.16,117.22c0,.68,1,1.21,1.83,1.58a8.36,8.36,0,0,0,3.5.49,7.28,7.28,0,0,0,2.55-.48c1.36-.61,2.95-1.4,2-2.52C99.88,116,90.16,116.66,90.16,117.22Z"/><path class="cls-26" d="M93.18,119.15c.33-.13.3-.83.45-1-.37.18-1.39.71-1.73.89A10.2,10.2,0,0,0,93.18,119.15Z"/><path class="cls-11" d="M99.24,117.53c-.38,0-1.21-.3-1.58-.37q.23-.24.48-.48C98.42,116.88,99.09,117.39,99.24,117.53Z"/><path class="cls-6" d="M98.87,122.81c-.38,0-.64-3.33-1-3.4q.22-.24.48-.48C98.63,119.12,98.72,122.67,98.87,122.81Z"/><path class="cls-11" d="M94.82,118.31a5.64,5.64,0,0,0,1.9-.33c.57-.23,1.9-1.2,1.87-1.77l-.22.06a5.54,5.54,0,0,1-1.2,1.17,5.91,5.91,0,0,1-2,.61,7.49,7.49,0,0,1-2.83-.64c-.53-.32-.37-.55-.32-.64l-.47.06c-.09.19.09.42.2.59.46.78,2.88.88,2.91.88Z"/><path class="cls-7" d="M93.1,124.14s0,3,.16,3.69c.22,1.17.58,1,.35,2.1a35,35,0,0,0,.25,5.62S94.58,127.81,93.1,124.14Z"/><path class="cls-6" d="M94.39,120.52s0,3,.16,3.69c.22,1.17.57,1,.35,2.1a2.52,2.52,0,0,0,.11,1.76A14.3,14.3,0,0,0,94.39,120.52Z"/><path class="cls-7" d="M96.53,121.8c-.12,1.48.21,3.43,0,4.58s.45,5.56.77,6.83c.2.79,0-1.61-.16-5C97,126.13,97.08,123.18,96.53,121.8Z"/><path class="cls-11" d="M95.05,118.73a2.24,2.24,0,0,0,.07-.8c-.11.1-.34.37-.45.47a2.37,2.37,0,0,1-.25.29A3.3,3.3,0,0,0,95.05,118.73Z"/><path class="cls-7" d="M96.06,138.81H94.9l.46-.94.35-1.28.12-2.1v-1.05a2.68,2.68,0,0,1,.35,1.51c-.12.7-.35,2.46-.35,2.46Z"/><path class="cls-11" d="M97,116.27s0,.53-.88.82a3.12,3.12,0,0,1-1.87.12,1.25,1.25,0,0,1-.7-.62l.35,0a2.18,2.18,0,0,0,.94.46,3,3,0,0,0,1.2-.17,2.84,2.84,0,0,0,.7-.53Z"/><polygon class="cls-26" points="93.68 119.23 91.96 118.81 92.41 122.58 92.8 120.91 93.68 119.23"/><path class="cls-27" d="M89.81,117.22l.84-.28c0,.24.14,1,1.48,1.54h0l.28,4.1.85-3.62.32-.1a10.42,10.42,0,0,0,1.9.07,6.43,6.43,0,0,0,2.41-.44c.69-.31,2-.89,2.1-1.46a1.69,1.69,0,0,0-.31-.8l.68-.16a1.28,1.28,0,0,1,.31,1.13c-.2.83-1.29,1.39-2.49,1.93a7.35,7.35,0,0,1-2.67.51H95a10.67,10.67,0,0,1-1.32-.09l-.48,1.77-.63,2.1-.46-.23-.16-2.1-.39-2C90.6,118.71,89.8,118.07,89.81,117.22Z"/><rect class="cls-28" width="270" height="180"/></g></g></svg>