<?xml version="1.0" encoding="utf-8"?>
<!-- Generator: Adobe Illustrator 26.0.1, SVG Export Plug-In . SVG Version: 6.00 Build 0)  -->
<svg version="1.1" id="レイヤー_1" xmlns="http://www.w3.org/2000/svg" xmlns:xlink="http://www.w3.org/1999/xlink" x="0px"
	 y="0px" viewBox="0 0 210 90" style="enable-background:new 0 0 210 90;" xml:space="preserve">
<style type="text/css">
	.st0{fill:#37BEF0;}
</style>
<path class="st0" d="M32.8,23.5c0.3,1.1,0.9,2,1.6,2.9c-0.3,0.3-0.5,0.6-0.7,0.9c-0.4-0.6-0.8-1.3-1-2.1c0,0.4,0,0.4,0,1
	c0,0.2,0,0.9,0,1.2v4.7c0,0.6,0,1.3,0.1,1.9h-1.2c0.1-0.6,0.1-1.3,0.1-1.9v-4.3c0-0.3,0-1.1,0.1-2.3c-0.2,0.9-0.5,1.8-0.9,2.7
	c-0.2,0.6-0.5,1.2-0.8,1.8c-0.2-0.4-0.4-0.7-0.7-1c1.1-1.6,1.9-3.5,2.3-5.5H31c-0.4,0-0.7,0-1.1,0.1v-1.2c0.4,0.1,0.7,0.1,1.1,0.1
	h0.8V21c0-0.5,0-1.1-0.1-1.6h1.2c-0.1,0.5-0.1,1.1-0.1,1.6v1.5h0.3c0.3,0,0.7,0,1-0.1v1.1c-0.3,0-0.7-0.1-1-0.1L32.8,23.5z
	 M35.5,30.4c0.6-0.3,1.3-0.7,1.8-1.1c-0.3-0.5-0.5-1-0.8-1.4l0.8-0.4c0.6,0.8,1.1,1.7,1.5,2.6L38,30.7l-0.2-0.5
	c-0.8,0.6-1.7,1.1-2.6,1.6c-0.5,0.2-0.9,0.5-1.4,0.8l-0.5-1.2c0.4-0.1,0.8-0.3,1.2-0.5v-9.3c0-0.5,0-1.1-0.1-1.6c0.3,0,0.7,0,1.2,0
	h1.6c0.5,0,0.9,0,1.3,0c0,0.5-0.1,1-0.1,1.5v4.1c0,0.5,0,0.9,0.1,1.4c-0.4,0-0.9,0-1.3,0h-1.7V30.4z M37.4,23v-1.9h-1.9V23H37.4z
	 M35.5,26h1.9v-2h-1.9V26z M40.4,26.9c-0.5,0-1,0-1.5,0.1v-1.2c0.3,0,0.5,0.1,0.8,0.1v-4.7c-0.4,0-0.5,0-0.7,0V20
	c0.5,0.1,0.9,0.1,1.4,0.1h2.6c0.4,0,0.9,0,1.3-0.1v1.2c-0.3,0-0.7-0.1-1-0.1c-0.1,1.6-0.4,3.2-0.8,4.7h0.5c0.5,0,1,0,1.5-0.1V27
	c-0.5-0.1-1-0.1-1.6-0.1H42c-0.2,0.5-0.3,0.7-0.5,1.1h0.8c-0.1,0.3-0.1,0.7-0.1,1v3c0,0.4,0.1,0.5,0.5,0.5s0.6-0.1,0.6-0.4
	c0.1-0.7,0.2-1.4,0.1-2.2c0.3,0.2,0.6,0.4,1,0.5c0,0.9-0.1,1.8-0.4,2.7c-0.2,0.3-0.6,0.5-1.5,0.5c-1.2,0-1.4-0.2-1.4-1.1v-3.7
	c-1,2.1-2.4,3.8-4.2,5.2c-0.2-0.4-0.5-0.7-0.9-0.9c2.3-1.4,4-3.6,4.8-6.1L40.4,26.9z M41.3,25.9c0.5-1.5,0.8-3.1,0.8-4.7h-1.4v4.7
	L41.3,25.9z"/>
<path class="st0" d="M51.2,27.8c0.3-0.4,0.6-0.8,0.8-1.3h-2.6c-0.6,0-1.2,0-1.9,0.1c0.1-0.5,0.1-1,0.1-1.4v-1.1c0-0.5,0-1-0.1-1.5
	c0.6,0.1,1.2,0.1,1.8,0.1h1.8v-1.4h-2.8c-0.6,0-1.2,0-1.8,0.1V20c0.6,0.1,1.2,0.1,1.9,0.1h10.1c0.6,0,1.2,0,1.9-0.1v1.2
	c-0.6-0.1-1.2-0.1-1.8-0.1h-3v1.4h1.9c0.6,0,1.2,0,1.7-0.1c0,0.5-0.1,1-0.1,1.5v1.1c0,0.5,0,1,0.1,1.5c-0.6-0.1-1.2-0.1-1.8-0.1
	h-4.1c-0.3,0.6-0.5,0.8-0.8,1.3h6c0.6,0,1.2,0,1.8-0.1v1.2c-0.6-0.1-1.2-0.1-1.8-0.1h-1.7c-0.4,0.9-1,1.7-1.8,2.4
	c1.7,0.5,3.4,1.1,5,1.8l-0.8,1c-1.7-0.8-3.4-1.5-5.2-2c-1.9,1.1-3.8,1.6-7.1,1.9c-0.1-0.4-0.3-0.8-0.6-1.2c2.1,0.1,4.2-0.3,6.2-1.2
	c-1.3-0.4-2.3-0.6-3.9-1c0.6-0.5,1.2-1.1,1.7-1.8h-2.1c-0.6,0-1.2,0-1.8,0.1v-1.2c0.6,0.1,1.2,0.1,1.8,0.1H51.2z M48.8,23.5v2h2.2
	v-2H48.8z M51.8,28.8c-0.3,0.4-0.7,0.8-1.1,1.2c1.5,0.4,2,0.5,3.1,0.8c0.7-0.5,1.3-1.2,1.7-2L51.8,28.8z M52.2,22.5h2.3v-1.4h-2.3
	V22.5z M52.2,25.5h2.3v-2h-2.3V25.5z M55.7,25.5h2.4v-2h-2.4L55.7,25.5z"/>
<path class="st0" d="M64.8,30.6c0.2-1,0.5-2,0.9-2.9l1,0.5c-0.7,1.4-1.2,2.9-1.3,4.5c0,0.1,0,0.2,0,0.3l-1.4,0.1
	c0-0.2,0-0.3-0.1-0.7c-0.3-1.5-0.4-3-0.4-4.6c0-2.1,0.2-4.3,0.7-6.3c0.1-0.4,0.2-0.9,0.2-1.4l1.5,0.2c-0.4,1-0.6,2.1-0.8,3.2
	c-0.3,1.6-0.4,3.3-0.4,4.9c0,0.3,0,1.1,0,1.5S64.7,30.4,64.8,30.6L64.8,30.6z M70,26.8c-0.7,0.6-1.1,1.5-1.2,2.4
	c0,1.1,1,1.6,2.9,1.6c1.3,0,2.5-0.2,3.7-0.6l0.1,1.5L75,31.8c-1.1,0.2-2.2,0.3-3.3,0.3c-1.9,0-3.1-0.4-3.8-1.3
	c-0.3-0.4-0.5-1-0.5-1.5c0.1-1.1,0.6-2.2,1.4-3L70,26.8z M67.8,22c0.9,0.2,1.8,0.3,2.7,0.2c1.5,0,3-0.1,4.4-0.4l0.1,1.4l-1.1,0.1
	c-1.1,0.1-2.3,0.2-3.4,0.2c-0.7,0-1.4,0-2.1-0.1H68h-0.2L67.8,22z"/>
<path class="st0" d="M77.6,23.3c1.2-0.1,2.3-0.3,3.4-0.7c1.5-0.4,3-0.5,4.6-0.6c3.1,0,5,1.6,5,4.1c-0.1,2.1-1.4,4.1-3.4,4.8
	c-1.7,0.8-3.5,1.2-5.4,1.3c-0.1-0.5-0.3-1-0.6-1.4c1.5,0,3-0.2,4.4-0.7c2.2-0.8,3.5-2.2,3.5-4s-1.3-2.8-3.4-2.8
	c-2.2,0.1-4.4,0.5-6.5,1.1c-0.4,0.1-0.8,0.2-1.2,0.4L77.6,23.3z"/>
<path class="st0" d="M95.2,21.3c-0.1,0.7-0.1,1.3-0.1,2c0,1.6,0.1,3.2,0.4,4.8c0.3,1.6,0.9,2.7,1.5,2.7c0.3,0,0.5-0.2,0.8-0.8
	c0.4-0.9,0.7-1.8,0.8-2.8c0.3,0.4,0.7,0.8,1.1,1.1c-0.8,2.9-1.6,4-2.8,4c-1,0-1.9-1-2.4-2.6s-0.8-3.6-0.9-7.6c0-0.6,0-0.6,0-1
	L95.2,21.3z M102.9,22.1c2,2.3,3.2,5.1,3.5,8.1l-1.4,0.5c-0.2-3-1.4-5.8-3.3-8.1L102.9,22.1z"/>
<path class="st0" d="M107.6,22h0.6h0.9c2.2-0.2,6.6-0.4,9.3-0.5c0.6,0,1.3-0.1,1.9-0.2l0.1,1.4h-0.2c-1.5,0-2.9,0.5-4.1,1.3
	c-1.5,0.8-2.4,2.4-2.5,4.1c0,1.4,1,2.6,2.4,2.9c0.8,0.3,1.6,0.4,2.4,0.4l-0.2,1.6c-0.2,0-0.3,0-0.5-0.1c-1.3-0.1-2.5-0.5-3.5-1.2
	c-1.2-0.7-1.9-2.1-1.9-3.5c0-2.3,1.6-4.4,4.3-5.6c-1.2,0.2-2.3,0.3-3.5,0.4c-1.8,0.1-3.5,0.2-5.3,0.5L107.6,22z"/>
<path class="st0" d="M124.5,30.6c0.2-0.9,0.5-1.8,0.8-2.6c0.1-0.2,0.1-0.2,0.1-0.4l1,0.5c-0.7,1.5-1.2,3-1.4,4.6c0,0.1,0,0.2,0,0.3
	l-1.4,0.1c0-0.2,0-0.4-0.1-0.6c-0.3-1.6-0.5-3.2-0.4-4.9c0-2.2,0.3-4.4,0.8-6.6c0.1-0.3,0.2-0.7,0.2-1.1l1.5,0.2
	c-0.8,2.5-1.3,5-1.2,7.6c0,0.4,0,1.1,0,1.9c0,0.1,0,0.3,0,0.4v0.4L124.5,30.6z M127.1,23.2c1,0.2,2,0.3,3,0.2c0.6,0,1,0,1.5,0
	c0-1.5,0-1.5,0-2.6c0-0.3,0-0.5,0-0.7h1.4c-0.1,0.8-0.1,1.6-0.1,2.3v0.9c0.9-0.1,1.8-0.3,2.7-0.6l0.1,1.3l-0.3,0
	c-0.8,0.2-1.7,0.3-2.5,0.4c0,1.5,0,1.7,0.2,4.4c0.9,0.4,1.8,0.9,2.6,1.5c0.1,0.1,0.3,0.2,0.4,0.3l-0.6,1.3c-0.2-0.2-0.3-0.3-0.5-0.5
	c-0.5-0.4-1.1-0.8-1.7-1.1l-0.2-0.1c-0.1,0-0.1,0-0.1-0.1c0,0.1,0,0.2,0,0.3c0,0.4-0.1,0.8-0.2,1.1c-0.6,1-1.7,1.5-2.8,1.4
	c-1.9,0-3.1-0.9-3.1-2.4s1.3-2.4,3.1-2.4c0.6,0,1.1,0.1,1.7,0.3c0-0.4-0.1-1.4-0.2-4c-0.8,0-1.2,0-1.8,0s-1.2,0-1.8-0.1h-0.5h-0.3
	c-0.1,0-0.1,0-0.2,0c0,0,0,0-0.1,0L127.1,23.2z M130.2,29.4c-1.1,0-1.9,0.5-1.9,1.2s0.7,1.2,1.8,1.2c0.6,0,1.1-0.2,1.5-0.5
	c0.2-0.3,0.3-0.7,0.3-1.1v-0.5C131.3,29.5,130.7,29.4,130.2,29.4L130.2,29.4z"/>
<path class="st0" d="M149.3,32.1l-0.6,0.1c-1.4,0.2-2.9,0.4-4.3,0.4c-1.3,0.1-2.6-0.1-3.8-0.5c-1.1-0.3-1.9-1.3-1.9-2.5
	c0-1.1,0.6-2.1,1.9-3.2l1,0.8c-1,0.9-1.5,1.6-1.5,2.3s0.4,1.2,1.3,1.5c0.9,0.2,1.9,0.3,2.9,0.3c1.6,0,3.3-0.2,4.8-0.6L149.3,32.1z
	 M139.7,21c1.4,0.3,2.8,0.4,4.3,0.4c1.4,0.1,2.8-0.1,4.2-0.3l0.1,1.3c-1.4,0.7-2.8,1.5-4.1,2.5l-1-0.8c1-0.7,1.3-0.9,2-1.2l0.4-0.2
	l0.3-0.2c-0.8,0.1-1.6,0.2-2.4,0.2c-1.1,0-2.3-0.1-3.4-0.2l-0.5,0L139.7,21z"/>
<path class="st0" d="M151.9,22.2c1.1,0.2,2.3,0.3,3.5,0.3c0.3-0.9,0.4-1.9,0.5-2.8l1.5,0.1c-0.1,0.3-0.2,0.7-0.3,1
	c-0.2,1-0.2,1-0.4,1.6c2.1,0,4.2-0.2,6.2-0.7l0.1,1.4c-0.6,0-1.2,0.1-1.7,0.2c-1.3,0.1-3.1,0.3-4.9,0.3c-0.4,1.4-0.9,2.7-1.5,3.9
	l0,0c1.4-0.9,3-1.3,4.6-1.3c2.5,0,4.1,1.2,4.1,3c0,2.2-2.2,3.7-5.5,3.7c-1.4,0-2.7-0.2-4-0.6v-0.3c0-0.4-0.1-0.7-0.1-1.1
	c1.3,0.5,2.6,0.8,4,0.8c2.5,0,4.1-1,4.1-2.4c0-1.2-1.1-1.8-3-1.8c-1.3,0-2.5,0.3-3.6,0.8c-0.5,0.2-0.9,0.6-1.3,1l-1.4-0.5
	c0.3-0.5,0.6-1.1,0.8-1.6c0.5-1.2,1-2.4,1.4-3.6c-0.8,0-1.7,0-2.6-0.1c-0.2,0-0.3,0-0.5,0h-0.1L151.9,22.2z"/>
<path class="st0" d="M169.5,22.9c-0.3,1.5-0.6,2.9-0.8,4.4c0,0.1,0,0.2-0.1,0.4l0,0c0.2-0.2,0.4-0.4,0.6-0.5c1.4-0.9,3-1.3,4.6-1.3
	c2.6,0,4.2,1.3,4.2,3.2c0,1.2-0.5,2.3-1.5,2.9c-1.2,0.8-2.6,1.1-4,1.1c-1.4,0-2.8-0.2-4.1-0.6V32c0-0.4-0.1-0.8-0.1-1.1
	c1.3,0.5,2.7,0.8,4.2,0.8c2.5,0,4.1-1,4.1-2.6c0-1.2-1.1-2-3-2c-1.5,0-3.1,0.5-4.3,1.3c-0.3,0.2-0.5,0.4-0.7,0.7h-1.5
	c0.1-0.3,0.1-0.4,0.1-0.9c0.2-1.2,0.4-2.7,0.7-4.5c0.1-0.3,0.1-0.6,0.1-0.9L169.5,22.9z M170.1,20c1.8,0.8,3.6,1.4,5.6,1.8l-0.5,1.3
	c-1.6-0.4-2.3-0.6-3.2-0.9c-0.9-0.3-1.7-0.6-2.5-1L170.1,20z"/>
<path class="st0" d="M35.8,59.6c-0.1,2.1-1.2,4.4-3.5,4.6c-0.9,0.1-1.9,0.1-3,0.1h-0.5c-0.6,0-1.1,0.5-1.1,1.2c0,0,0,0,0,0
	c0,1.2,0,2.9-0.1,3.3c-0.1,0.9-0.8,1.5-1.7,1.5c-0.9,0-1.6-0.6-1.7-1.4c-0.1-0.7-0.1-7.4,0-10.6V57c-0.1-1,0.6-1.9,1.6-2
	c0,0,0.1,0,0.1,0c0.2,0,0.7,0,1.2,0c1.2,0,3.1,0.1,5.2,0.2C34.4,55.5,36,57.4,35.8,59.6z M28.2,61.1h0.3h1.1c0.8,0,1.4,0,1.8,0
	c0.8-0.1,1.2-0.6,1.2-1.6c0.1-0.6-0.3-1.2-0.9-1.3c0,0,0,0,0,0c-0.7-0.1-3-0.1-3.4-0.1s-0.4,0.1-0.4,0.6c0,0.1,0,0.3,0,0.6
	c0,0.5,0,1.2,0,1.5S27.9,61.1,28.2,61.1z"/>
<path class="st0" d="M50.1,66.6c-0.9,2.6-3.5,3.6-5.6,3.6h-0.2c-1,0-2,0-2.8,0s-1.2,0-1.5,0c-1,0-1.9-0.9-1.8-1.9c0-0.1,0-0.2,0-0.3
	v-3.7c0-2.8,0-6.2,0-6.9c0.2-1.4,1.5-2.4,2.9-2.2h0.1c0.2,0,0.5,0,0.7,0h1c3,0,5,0.8,6.2,2.4C51,59.8,51,63.9,50.1,66.6z M46.6,59.8
	c-0.9-0.8-2.2-1.2-3.4-1.1h-0.8c-0.6,0-0.9,0.2-0.9,0.8v1c0,1.6,0,4.7,0,5.3s0.6,0.8,1,0.8h0.3c0.2,0,0.5,0,0.9,0
	c2.5,0,3.8-1.2,3.9-3.7C47.7,61.8,47.3,60.7,46.6,59.8L46.6,59.8z"/>
<path class="st0" d="M58.1,60.2c1.6,0,3.7,0,4.2,0c0.3,0,0.6,0.1,0.8,0.4c0.3,0.3,0.5,0.8,0.5,1.3c0,0.8-0.6,1.4-1.4,1.5
	c-0.5,0-2.6,0-4.1,0.1c-0.9,0-1,0.8-1,1.1c0,0.9,0,1.8,0,2.5c0,1,0,1.7,0,1.8c-0.1,0.9-0.7,1.5-1.6,1.6h-0.1
	c-0.9,0.1-1.7-0.6-1.8-1.6c0-0.1,0-0.1,0-0.2c-0.1-1.7-0.1-9.9-0.1-11.1c0-1.3,0.6-2,1.9-2s6.3,0,7.2,0c0.9,0.1,1.5,0.9,1.4,1.8
	c-0.1,0.8-0.8,1.4-1.6,1.4c-0.4,0-1.3,0-2.6,0h-2.2c0,0-0.7,0.1-0.7,0.7C57,59.5,56.7,60.2,58.1,60.2z"/>
<path class="st0" d="M72.1,57.7c1,0.2,1.6,1.1,1.4,2.4c-0.3,1.8-0.8,3.5-1.6,5.1c-1,2.3-1.9,3.8-3.1,4.3c-0.7,0.4-1.5,0.3-2.1-0.1
	c-0.4-0.4-0.9-1.3,0.1-2.7c1.3-2.1,2.4-4.5,3.1-6.9C70.1,58.5,71,57.5,72.1,57.7z M77.6,57.3c0.9-0.2,1.9,0.2,2.4,1.8
	c1,2.9,2.1,5.7,3.4,8.5c0.5,1.2,0.1,2-0.6,2.3c-1.1,0.5-2.4,0-2.9-1.1c-1.5-2.8-2.7-5.8-3.5-8.9C76.2,58.5,76.8,57.5,77.6,57.3
	L77.6,57.3z M84.2,57c-0.3,1.1-1.5,1.8-2.6,1.6c-1.3-0.2-2.2-1.4-2-2.7c0.2-1.2,1.3-2.1,2.6-1.9c0.3,0,0.5,0.1,0.8,0.3
	C83.8,54.8,84.3,55.9,84.2,57L84.2,57z M82.4,56.2c0-0.3-0.3-0.5-0.6-0.5c-0.1,0-0.2,0-0.3,0.1c-0.4,0.2-0.4,0.9,0.1,1
	S82.5,56.7,82.4,56.2L82.4,56.2z"/>
<path class="st0" d="M87.9,57.9c0.4-0.9,1.4-1.4,2.3-1c0.1,0.1,0.3,0.1,0.4,0.2c1.3,0.8,2.6,1.6,3.9,2.5c0.6,0.5,0.7,1.4,0.3,2
	c-0.6,0.8-1.6,1-2.4,0.5c-1.2-0.6-2.4-1.2-3.6-2C87.9,59.7,87.6,58.7,87.9,57.9z M101.4,57.8c0.8,0.5,1.2,1.5,0.9,2.4
	c-0.7,2.9-2.3,5.4-4.5,7.4c-2.9,2.4-5.1,2.8-6.9,2.7c-1.3-0.1-2.1-0.8-2.1-1.8s0.6-1.6,2.1-1.7c2.3-0.3,4.3-1.6,5.5-3.5
	c0.9-1.4,1.8-2.9,2.5-4.4C99.3,57.9,100.4,57.4,101.4,57.8C101.4,57.7,101.4,57.7,101.4,57.8z"/>
<path class="st0" d="M105.3,58.2c0-1.2,1-1.7,2.5-1.7s7.4,0,8.6,0.1s2.1,1.1,1.9,3.3c-0.1,2.4-0.8,4.8-2,6.9c-1,1.6-2.5,2.8-4.4,3.2
	c-1.4,0.4-2.3,0.5-3.3-0.1c-0.7-0.5-0.9-1.5-0.3-2.3c0.2-0.3,0.5-0.5,0.8-0.6c1.3-0.5,2.9-0.7,4.2-2.3c0.8-1.1,1.3-2.5,1.4-3.9
	c0-0.9-0.5-1.1-1.4-1.1c-2,0-5.5,0-6.2,0C105.9,59.8,105.2,59.3,105.3,58.2z"/>
<path class="st0" d="M126.1,55.3c1.1,0.1,1.9,0.9,1.9,2c0,1.3,0,7.4,0,8s0,0.7,0.5,0.8c1.3-0.2,2.7-0.6,3.9-1
	c1.1-0.4,2.4-0.6,3.1,0.4c0.5,1.1,0,2.4-1.1,2.9c-1.1,0.6-6.3,1.8-7.3,1.9c-1.4,0.2-2.7-0.8-2.9-2.2c0-0.1,0-0.1,0-0.2
	c0-1.6,0-9.5,0-10.6C124.2,56.2,125,55.4,126.1,55.3z"/>
<path class="st0" d="M142.4,64.7c-0.1,0.1-0.3,0.1-0.4,0.1c-0.5,0-1-0.3-1.3-0.7c-0.3-0.7-0.6-1.4-0.8-2.1c-0.1-0.3-0.1-0.7,0.1-1
	c0.2-0.3,0.5-0.5,0.8-0.5c0.1,0,0.2,0,0.3,0c0.6,0,1.1,0.4,1.2,1c0.3,0.7,0.6,1.4,0.7,2.1C143.2,64.1,142.9,64.5,142.4,64.7z
	 M150.2,63.2c-0.3,1.1-1.7,4.9-5.2,6.7c-0.3,0.2-0.7,0.3-1,0.3c-0.4,0-0.9-0.2-1.1-0.6c-0.2-0.3-0.3-0.6-0.2-0.9
	c0.1-0.5,0.5-1,1-1.2l0.1-0.1c1.9-1.1,3.2-2.8,3.9-4.9c0.3-0.9,0.7-1.7,1.6-1.7c0.1,0,0.2,0,0.3,0c0.3,0,0.6,0.2,0.7,0.5
	C150.5,61.9,150.4,62.6,150.2,63.2z M143.1,61.5c-0.1-0.3-0.1-0.7,0.1-1c0.2-0.3,0.5-0.5,0.8-0.5c0.1,0,0.2,0,0.3,0
	c0.6,0,1.1,0.4,1.2,1c0.3,0.7,0.6,1.4,0.7,2.1c0.1,0.5-0.2,1.1-0.7,1.2c-0.1,0.1-0.3,0.1-0.4,0.1c-0.5,0-1-0.3-1.3-0.7
	C143.5,63,143.2,62.2,143.1,61.5z"/>
<path class="st0" d="M165.6,63.6c-0.3,0.8-1.2,1.3-2.1,1.2c-0.3-0.1-1.7-0.2-2.9-0.4c-0.5-0.1-1.1,0.3-1.1,0.8c0,0,0,0.1,0,0.1
	c0,1.5,0,3.2,0,3.5c-0.1,1-0.8,1.7-1.8,1.8c-1,0.1-1.7-0.7-1.8-1.8c-0.1-1.6,0-11.5,0-12.7c0-0.9,0.8-1.6,1.7-1.6c0,0,0.1,0,0.1,0
	c0.9,0,1.7,0.7,1.8,1.7c0,0.2,0,1.7,0,2.9c0,0.7,0.5,1.3,1.2,1.5c1.6,0.4,3.8,0.7,4.2,0.9C165.6,62,165.9,62.9,165.6,63.6z"/>
<path class="st0" d="M180.2,54.3c-1.3-1-2.4-0.4-2.4,1.2v13.3c0,1.6,1.1,2.2,2.4,1.2l8.3-6.1c1-0.5,1.3-1.8,0.8-2.7
	c-0.2-0.3-0.5-0.6-0.8-0.8L180.2,54.3z"/>
</svg>
