<svg xmlns="http://www.w3.org/2000/svg" viewBox="0 0 120 120"><defs><style>.cls-1{fill:#37bef0;}.cls-2{fill:#804d63;}.cls-3{fill:#9bcb6c;stroke:#9bcb6c;stroke-miterlimit:10;stroke-width:2px;}.cls-4{fill:none;}</style></defs><g id="レイヤー_2" data-name="レイヤー 2"><g id="nav_1"><path class="cls-1" d="M37.78,95.62a1,1,0,0,0,0-1.12,10.62,10.62,0,0,1-1.23-2.73A1.3,1.3,0,0,1,38,90.36a2.15,2.15,0,0,1,1.63,1.48c.15.39.33.75.47,1a.67.67,0,0,0,1.07.3A7.35,7.35,0,0,1,44,92.06a1.48,1.48,0,0,1,1.61,1.26c0,.53-.39,1.11-1.69,1.59s-4.22,2.23-4.4,3.27c-.32,1.91,3.81,1.15,4.58,1.25s1.59.5,1.32,1.49-1.15,1.21-2.85,1.26-3.56,0-4.9-1.37c-1-1-1.32-2.2-.6-4.09A6.83,6.83,0,0,1,37.78,95.62Z"/><path class="cls-1" d="M61.58,100.12a1.31,1.31,0,0,1-1.23.49,6,6,0,0,1-.88-.18.71.71,0,0,0-.86.45,2.58,2.58,0,0,1-1.52,1.25c-1.78.56-3.66,0-4.25-1.52a2.36,2.36,0,0,1,.77-2.87A4.55,4.55,0,0,1,56.2,97c.14,0,.37,0,.37-.21s-.34-.23-.51-.23c-.53,0-1,0-1.15,0-1-.08-1.82-.41-1.78-1.24s.81-1.23,1.74-1.25l1.19,0c.15,0,.45,0,.45-.25,0-.11-.14-.35-.55-.32s-.68,0-.83,0c-.89,0-1.55-.33-1.56-1.12s.64-1.27,1.59-1.24h.33c.88,0,.78-.51,1.08-1.12s2-1,2.24.24a.9.9,0,0,0,1,.86h.32a1.14,1.14,0,1,1,.09,2.27c-.16,0-.44,0-.79,0s-.53.19-.53.27,0,.28.47.25a6.64,6.64,0,0,1,1.06,0c.74.11,1.35.6,1.32,1.24a1.53,1.53,0,0,1-1.5,1.25l-.78,0a.55.55,0,0,0-.57.47c0,.46.28.65.63.76a6.27,6.27,0,0,1,1.78.78A1.29,1.29,0,0,1,61.58,100.12Zm-5.27-.71c-.08-.28-.74-.27-1,0a.45.45,0,0,0,.33.77C56.26,100.1,56.4,99.69,56.31,99.41Z"/><path class="cls-1" d="M70.58,92.51a1.56,1.56,0,0,1-1.4-1.27c0-.63.53-1.18,1.43-1.25s4.17,0,4.94,0a1.23,1.23,0,0,1,1.23,1.09,1.89,1.89,0,0,1-.71,1.37L74.42,94c-.38.33-.33.44.35.62A6.07,6.07,0,0,1,75.9,95a3.71,3.71,0,0,1,1.84,3.56,3.86,3.86,0,0,1-3.16,3.77A3.3,3.3,0,0,1,71,101a2.39,2.39,0,0,1,1-3.07,3.14,3.14,0,0,1,2.76.08c.42.19.66,0,.56-.27a1.54,1.54,0,0,0-1-.93,3.35,3.35,0,0,0-2.6.1c-.94.33-1.51.88-2.2.67A1.17,1.17,0,0,1,69,95.62a22,22,0,0,1,3.06-2.73c.25-.2.19-.46-.3-.42Zm2.93,7.7A.61.61,0,0,0,74,100c.09-.13,0-.4-.1-.46a.55.55,0,0,0-.9.2C72.92,100,73.13,100.21,73.51,100.21Z"/><path class="cls-2" d="M34.75,49V70.56a1.72,1.72,0,0,0,1.72,1.71H78.26A1.72,1.72,0,0,0,80,70.56V48.13a4.51,4.51,0,0,0-1.25-2.88L59,27a1.86,1.86,0,0,0-2.5,0L37.22,45.27"/><path class="cls-3" d="M74.43,29.55a.32.32,0,0,0-.06.49.1.1,0,0,0,.06.05,7.79,7.79,0,0,1,.65.52,6.5,6.5,0,0,1,0,10.11,8.51,8.51,0,0,1-2.61,1.53A.93.93,0,0,1,71.3,42a.51.51,0,0,1-.07-.15c-.33-.65,0-.9.5-1.07,3.24-1.19,4.75-4.43,3.38-7.24a5.71,5.71,0,0,0-1.36-1.76,6.67,6.67,0,0,0-2-1.18c-.35-.13-.65-.16-.65-.75s.32-.62.65-.75a6.67,6.67,0,0,0,2-1.18,5,5,0,0,0,0-7.8h0a6.55,6.55,0,0,0-2-1.18c-.47-.17-.82-.37-.5-1.07s.76-.6,1.23-.43c4.19,1.54,6.15,5.74,4.37,9.37A7.1,7.1,0,0,1,75.07,29,8,8,0,0,1,74.43,29.55Z"/><rect class="cls-1" x="52.23" y="47.57" width="10.26" height="9.92" rx="0.83"/><rect class="cls-4" width="120" height="120"/></g></g></svg>