<svg xmlns="http://www.w3.org/2000/svg" viewBox="0 0 120 120"><defs><style>.cls-1{fill:#37bef0;}.cls-2{fill:#9bcb6c;}.cls-3{fill:#fff;stroke:#fff;stroke-miterlimit:10;stroke-width:0.86px;}.cls-4{fill:none;}</style></defs><g id="レイヤー_2" data-name="レイヤー 2"><g id="nav_1"><path class="cls-1" d="M45.28,95.13a10.18,10.18,0,0,1-1,0,.86.86,0,0,0-1,.9,1.06,1.06,0,0,0,.81,1.27,4.46,4.46,0,0,1,1.65,1.14,1.32,1.32,0,0,1,.09,1.68c-.23.49-1.07.57-1.68.33l-.54-.16c-.64-.18-1,.19-1.24.63a3.17,3.17,0,0,1-2.24,1.47c-2.11.34-3.63-.52-4-2.32a2.92,2.92,0,0,1,1.73-3.16,4.34,4.34,0,0,1,1.71-.32.84.84,0,0,0,.89-.89c0-1.25-.13-3.41-.1-4.08,0-1,.57-1.75,1.36-1.72a1.7,1.7,0,0,1,1.54,1.67,1,1,0,0,0,1,1c.62,0,1.17,0,1.45,0a1.3,1.3,0,0,1,1.2,1.4A1.43,1.43,0,0,1,45.28,95.13Zm-5.62,3.7a1,1,0,0,0-1.12.38c-.17.36,0,.69.57.83a.87.87,0,0,0,1-.5C40.34,99.19,40,98.94,39.66,98.83Z"/><path class="cls-1" d="M64,95.52a1.4,1.4,0,0,1-1.32.91,1.26,1.26,0,0,1-1.07-1.18c-.05-.69-.16-1.15-.6-1.29-.13,0-.46.08-.44.49a1.44,1.44,0,0,1,0,.38c0,.64-.3,1.24-1.07,1.29a1.28,1.28,0,0,1-1.21-1.18c0-.1-.22-.38-.7-.11a.74.74,0,0,0-.31,1.1q.12.25.24.54c.75,1.74,1.3,2.8,1.63,3.7s.22,1.6-.36,2-1.35.24-2-.64a28.58,28.58,0,0,1-2-4.49.69.69,0,0,0-1-.31c-.3.14-.51.25-.6.28a1.52,1.52,0,0,1-1.89-.76,1.33,1.33,0,0,1,.77-1.93l.69-.35c.19-.09.6-.28.35-1.09-.38-1.19-.05-1.84.76-2.14S55.32,91,55.71,92c.21.52.68.28.91.19l.92-.32c.14,0,.42-.17.44-.37.06-.85.36-1.47,1.09-1.56a1.17,1.17,0,0,1,1.33.94.7.7,0,0,0,.65.49,3.44,3.44,0,0,1,2.38,1.24A3.22,3.22,0,0,1,64,95.52Z"/><path class="cls-1" d="M69.72,94.84c1-1,3.71-3.65,4.33-4.2a1.69,1.69,0,0,1,2.33-.14,1.31,1.31,0,0,1,0,2c-.43.42-2.39,2.12-3.4,3a.64.64,0,0,0,0,1c1,.9,3,2.65,3.36,3.06a1.56,1.56,0,0,1,.13,2,1.5,1.5,0,0,1-2.14.2,57.51,57.51,0,0,1-4.38-4A2,2,0,0,1,69.72,94.84Z"/><rect class="cls-2" x="31.77" y="29.45" width="55.93" height="37.21" rx="3.17"/><path class="cls-1" d="M70.85,51.61a2,2,0,0,1-1.32-.5,2,2,0,0,1-.18-2.82L79.31,37a2,2,0,0,1,3,2.65l-10,11.28A2,2,0,0,1,70.85,51.61Z"/><path class="cls-1" d="M48.62,51.61a2,2,0,0,1-1.5-.68L37.17,39.66a2,2,0,1,1,3-2.65l10,11.27a2,2,0,0,1-1.5,3.33Z"/><path class="cls-3" d="M60,51.05a.33.33,0,0,0-.44,0l0,0c-.15.17-.3.33-.46.48a6.67,6.67,0,0,1-9,0,6,6,0,0,1-1.37-1.92.6.6,0,0,1,.25-.85l.14,0c.57-.24.8,0,1,.36a5.06,5.06,0,0,0,6.48,2.49,5.25,5.25,0,0,0,1.57-1,4.72,4.72,0,0,0,1.06-1.49c.11-.25.14-.47.67-.47a.63.63,0,0,1,.67.47,4.72,4.72,0,0,0,1.06,1.49,5.13,5.13,0,0,0,7,0h0a4.8,4.8,0,0,0,1.06-1.48c.16-.35.33-.61.95-.37s.55.55.39.9a6.53,6.53,0,0,1-8.38,3.21,6.69,6.69,0,0,1-2-1.3A5,5,0,0,1,60,51.05Z"/><rect class="cls-4" width="120" height="120"/></g></g></svg>