<svg xmlns="http://www.w3.org/2000/svg" viewBox="0 0 120 120"><defs><style>.cls-1,.cls-4{fill:#37bef0;}.cls-2,.cls-5{fill:none;}.cls-2{stroke:#548254;stroke-linecap:round;stroke-width:2px;}.cls-2,.cls-4{stroke-miterlimit:10;}.cls-3{fill:#9bcb6c;}.cls-4{stroke:#37bef0;stroke-width:1.39px;}</style></defs><g id="レイヤー_2" data-name="レイヤー 2"><g id="nav_1"><ellipse class="cls-1" cx="59.59" cy="46.11" rx="11.94" ry="11.81"/><path class="cls-2" d="M49,55.06a14,14,0,0,0,23.81-12.4l8.48-3.43"/><path class="cls-2" d="M69.62,36.07A14,14,0,0,0,45.17,47.78l-9.41,4.13"/><circle class="cls-3" cx="89.74" cy="31.24" r="5.65"/><circle class="cls-3" cx="25.63" cy="58.58" r="5.65"/><path class="cls-4" d="M32,25.23a.33.33,0,0,0-.44,0l0,0c-.15.17-.3.33-.46.48a6.67,6.67,0,0,1-9,0,6.15,6.15,0,0,1-1.37-1.92.6.6,0,0,1,.25-.85l.14-.05c.57-.24.8,0,.95.36a5.06,5.06,0,0,0,6.48,2.49,5.25,5.25,0,0,0,1.57-1,4.72,4.72,0,0,0,1.06-1.49c.11-.25.14-.47.67-.47a.62.62,0,0,1,.67.47,4.72,4.72,0,0,0,1.06,1.49,5.14,5.14,0,0,0,7,0h0a4.8,4.8,0,0,0,1.06-1.48c.16-.35.34-.61,1-.37s.54.55.38.9A6.58,6.58,0,0,1,32.46,25.7,4.09,4.09,0,0,1,32,25.23Z"/><path class="cls-1" d="M28.23,90.44a1.31,1.31,0,0,1,.29,1.13,1.81,1.81,0,0,1-1.12,1.08,6.11,6.11,0,0,1-2.18.31,7.26,7.26,0,0,1-3.29-.64,5.74,5.74,0,0,1-2.77-6.08A5.56,5.56,0,0,1,24.3,81.1h.18a5.15,5.15,0,0,1,4,1.57,1.25,1.25,0,0,1,0,1.67,1.05,1.05,0,0,1-.82.36,1.88,1.88,0,0,1-1-.33,3.16,3.16,0,0,0-1.67-.42,4.38,4.38,0,0,0-.88.09,3.11,3.11,0,0,0-2.13,2.62,3.24,3.24,0,0,0,1.15,2.94,4.06,4.06,0,0,0,2.29.65,1.88,1.88,0,0,0,.34,0c.24,0,.49-.08.71-.13a4.45,4.45,0,0,1,.85-.12A1.06,1.06,0,0,1,28.23,90.44Z"/><path class="cls-1" d="M39.49,92.09a6.35,6.35,0,0,1-3,.71,6.13,6.13,0,0,1-3.54-1,6.6,6.6,0,0,1-2.13-6.35A5.59,5.59,0,0,1,36,81.21h.12a5.91,5.91,0,0,1,5.69,4.21C42.56,88,41.49,91,39.49,92.09ZM38.44,84.9a2.89,2.89,0,0,0-2.11-.82,2.93,2.93,0,0,0-1.91.63,3.09,3.09,0,0,0-.83,3.21,2.87,2.87,0,0,0,2.72,2,2.76,2.76,0,0,0,2.79-1.72A3.29,3.29,0,0,0,38.44,84.9Z"/><path class="cls-1" d="M54.65,83.39c-.16.44-3.77,7.65-4.32,8.52a1.64,1.64,0,0,1-1.4.75,1.75,1.75,0,0,1-1.48-.83c-1-1.69-3.59-7.91-3.8-8.46a1.38,1.38,0,0,1,.56-1.92,1,1,0,0,1,.52-.14,1.81,1.81,0,0,1,1.44,1.08c.33.59,1.69,3.89,2.48,5.53a.46.46,0,0,0,.85,0c.83-1.77,2.5-5.23,2.7-5.64a1.62,1.62,0,0,1,1.31-.88,1.19,1.19,0,0,1,.6.17A1.45,1.45,0,0,1,54.65,83.39Z"/><path class="cls-1" d="M59.51,91.28c0,.91-.26,1.49-1.3,1.55a.12.12,0,0,1-.08,0c-.93,0-1.29-.91-1.32-1.75-.05-1.07-.21-7.56-.1-8.39a1.4,1.4,0,0,1,1.4-1.26,1.38,1.38,0,0,1,1,.42,1.37,1.37,0,0,1,.36,1c0,.42,0,2.41,0,4.31S59.53,90.91,59.51,91.28Z"/><path class="cls-1" d="M71.56,90.13A4.6,4.6,0,0,1,67.18,93H67l-2.22,0c-.54,0-.91,0-1.15,0a1.48,1.48,0,0,1-1.42-1.75V88.32c0-2.18,0-4.9,0-5.44a2.09,2.09,0,0,1,2.29-1.76h.63c.23,0,.5,0,.8,0,2.33,0,3.94.62,4.88,1.88C72.27,84.82,72.27,88.05,71.56,90.13Zm-2.75-5.29A3.72,3.72,0,0,0,66.13,84H65.5c-.49,0-.68.16-.68.63v.81c0,1.29,0,3.68,0,4.18s.49.62.76.62h.25a6.22,6.22,0,0,0,.71,0c2,0,3-1,3.07-2.89A3.42,3.42,0,0,0,68.81,84.84Z"/><path class="cls-1" d="M74,88.91a1.33,1.33,0,0,1,1.35-1.26c1.07.07,2.72,0,3.42,0s1.4.37,1.45.87a1.06,1.06,0,0,1-1.08,1.2,23.55,23.55,0,0,1-3.66,0C74.67,89.73,74.18,89.57,74,88.91Z"/><path class="cls-1" d="M83.57,83.76c-.18-.53-.15-1.08.91-1.81s2-1.35,3-1.1,1.13,1.42,1.13,2.36-.11,7.94-.17,8.68A1.36,1.36,0,0,1,87.12,93a1.39,1.39,0,0,1-1.26-1.21c-.06-.55,0-4.73,0-6.62,0-.56-.31-.8-.63-.71a1.49,1.49,0,0,1-.39.08A1.23,1.23,0,0,1,83.57,83.76Z"/><path class="cls-1" d="M102,85a6.66,6.66,0,0,1-.61,2.68c-.07.16-.11.3-.16.44-.24.64-1.53,3.75-1.86,4.28s-.52.71-1,.71a1.47,1.47,0,0,1-.44-.08,1,1,0,0,1-.62-.53,1.42,1.42,0,0,1-.06-1.12c.13-.33.54-1.31.9-2a.5.5,0,0,0-.39-.77A3.78,3.78,0,0,1,95.91,88a4.16,4.16,0,0,1-1.59-3.37,3.84,3.84,0,0,1,1.89-3.27,5.5,5.5,0,0,1,2.18-.45,3.61,3.61,0,0,1,2,.52A4.38,4.38,0,0,1,102,85Zm-2.41-.64a1.48,1.48,0,0,0-1.46-1.14h-.06a1.47,1.47,0,0,0-.51,2.8,1.1,1.1,0,0,0,.51.1,2.24,2.24,0,0,0,1.07-.27A1.61,1.61,0,0,0,99.58,84.32Z"/><path class="cls-1" d="M37.08,103.72a.89.89,0,0,0-.92.66c-.58,2.25-1.4,5.06-1.62,5.72-.28.88-.83,1.62-1.83,1.41s-1-1.27-.8-2.22c.13-.56.8-3,1.39-5.15a.5.5,0,0,0-.4-.67c-.83-.1-1.48-.33-1.56-1.18-.09-1,.71-1.69,1.91-1.64h.28c.55.08.7-.2.92-.66.48-1,1-1.45,1.7-1.19s.89.77.88,1.48c0,.34.08.59.57.63s.88.07,1.07.09a1.5,1.5,0,0,1,1,1.61c0,.71-.6,1.1-1.59,1.13C37.88,103.75,37.5,103.75,37.08,103.72Zm5.4,6.72c-.29,1.11-2.27,1.23-3.55.88s-2.25-1.08-1.93-2.11c.25-.8.88-1,1.82-.81a23.64,23.64,0,0,0,2.68.41A1.17,1.17,0,0,1,42.48,110.44Zm-.22-5a1.07,1.07,0,0,1-.9,1.7c-.73,0-1.76-.17-2.24-.19-.78,0-1.38-.18-1.62-.86s.44-1.48,1.59-1.56C40.43,104.49,41.77,104.63,42.26,105.48Z"/><path class="cls-1" d="M48.09,102.59c.75-.26,1.48.36,1.67,1.46a4,4,0,0,0,1.54,2.87c.64.37,1.26.17,1.59.66a1.48,1.48,0,0,1-.28,1.9c-.62.49-1.26.4-2.26.11a5.24,5.24,0,0,1-3.27-4.72C47,103.64,47.11,102.9,48.09,102.59Zm7.3-.86c.85-.59,2,.23,2.62,1.09.88,1.15,1.62,3,.12,3.48-1.3.41-1.46-1-2.64-2.55C55.08,103.21,54.57,102.32,55.39,101.73Z"/><path class="cls-1" d="M70.86,110.88c-.42.85-1,.93-2.16.79a5.6,5.6,0,0,1-4-3.15c-.66-1.29-.41-2.64.63-2.82,1.2-.19,1.5,1.25,2.32,2.1A6.93,6.93,0,0,0,70,109.25C70.69,109.53,71.18,110.27,70.86,110.88Zm1.07-6.94c1,1.34,1.62,2.19.93,2.63-.6.66-1.56.55-2.47-.46a18,18,0,0,1-1.14-1.41,1,1,0,0,0-1.21-.46,8.74,8.74,0,0,1-1.38.17c-1,.08-1.83,0-2-1s.47-1.67,1.52-1.85l.84-.14c.2,0,.61-.23.47-.86-.25-1,.13-1.71.87-1.93s1.26,0,1.63,1c.05.11.1.24.15.38a.82.82,0,0,0,1,.58l.61-.12a1.23,1.23,0,0,1,1.54.91,1.34,1.34,0,0,1-1,1.76C72.15,103.25,71.6,103.51,71.93,103.94Z"/><path class="cls-1" d="M81,104c1-1.06,3.72-3.66,4.33-4.21a1.7,1.7,0,0,1,2.33-.14,1.3,1.3,0,0,1,0,2c-.43.43-2.4,2.13-3.41,3a.65.65,0,0,0,0,1c1,.9,3,2.65,3.37,3.06a1.55,1.55,0,0,1,.12,2,1.5,1.5,0,0,1-2.14.2,53.63,53.63,0,0,1-4.37-4A2,2,0,0,1,81,104Z"/><rect class="cls-5" width="120" height="120"/></g></g></svg>