<svg xmlns="http://www.w3.org/2000/svg" viewBox="0 0 60 60"><defs><style>.cls-1{fill:#4d4d4d;}.cls-2{fill:none;}</style></defs><g id="レイヤー_2" data-name="レイヤー 2"><g id="section_1-6"><path class="cls-1" d="M42.1,33.37v2.06c0,.61-.26.86-.88.86H39a.72.72,0,0,1-.83-.79c0-.56,0-1.13,0-1.69v-.46h-17v1.9c0,.85-.2,1-1,1H19c-1.67,0-1.7,0-1.66-1.68,0-.41,0-.82,0-1.24-.46,0-.9,0-1.32-.12a1.39,1.39,0,0,1-1.31-1.39q0-.39,0-.78V5.82a3.53,3.53,0,0,1,3-3.73,23,23,0,0,1,3.1-.33c3.71-.12,7.42-.26,11.13-.24,2.89,0,5.77.24,8.66.4a7.82,7.82,0,0,1,1.65.29,3.48,3.48,0,0,1,2.53,3.48q0,12.75,0,25.51c0,.21,0,.43,0,.65a1.38,1.38,0,0,1-1.29,1.4C43,33.31,42.58,33.33,42.1,33.37ZM29.71,8.13H18.65c-.69,0-.91.22-.91.91V20.27c0,.7.23.94.93.94H40.76c.7,0,.93-.24.93-.94V9.08c0-.75-.2-.95-.95-.95Zm0-4.56H22c-.64,0-.89.24-.9.89q0,.45,0,.9c0,.75.24,1,1,1H37.42c.69,0,.94-.24.95-.93,0-.31,0-.61,0-.91,0-.7-.25-.93-.94-.93ZM29.68,32h2.59a.66.66,0,0,0,.75-.73c0-.53,0-1.07,0-1.6a.67.67,0,0,0-.77-.75c-1.7,0-3.4,0-5.09,0a.66.66,0,0,0-.75.73c0,.53,0,1.07,0,1.6a.67.67,0,0,0,.77.75Zm-9.33-1.82a2.18,2.18,0,0,0,0-4.35,2.21,2.21,0,0,0-2.17,2.18A2.18,2.18,0,0,0,20.35,30.22Zm18.75,0a2.18,2.18,0,1,0-2.19-2.15A2.19,2.19,0,0,0,39.1,30.22Z"/><path class="cls-1" d="M10.14,47.35a4.74,4.74,0,0,0-.08-.86h1.16a3.93,3.93,0,0,0-.08.86v.24h4a9.72,9.72,0,0,0,1.32-.08v1a10.21,10.21,0,0,0-1.32-.07H6.32A10.09,10.09,0,0,0,5,48.5v-1a9.93,9.93,0,0,0,1.34.08h3.78Zm-4.7,6.41a10.63,10.63,0,0,0-.06-1.17c.4,0,.76,0,1.31,0h8.17a12.41,12.41,0,0,0,1.26,0,10.15,10.15,0,0,0-.05,1.15v3.41c0,.5-.08.75-.31.92a2.08,2.08,0,0,1-1.21.2c-.11,0-.52,0-1.24-.05a2.58,2.58,0,0,0-.19-.94,10.52,10.52,0,0,0,1.51.12c.39,0,.45,0,.45-.3V53.46H6.43v3.66a9.17,9.17,0,0,0,.07,1.36H5.36a9.77,9.77,0,0,0,.08-1.35ZM7.13,50.1a9.21,9.21,0,0,0,0-1,10.14,10.14,0,0,0,1.24,0h5a8.9,8.9,0,0,0,1.12,0c0,.35,0,.55,0,1V51a6.32,6.32,0,0,0,0,1,9.83,9.83,0,0,0-1.19-.05h-5A10.49,10.49,0,0,0,7.09,52a8.72,8.72,0,0,0,0-1Zm6.26,5.84a7.23,7.23,0,0,0,0,.92c-.31,0-.73,0-1.17,0H9v.7H8A7.26,7.26,0,0,0,8,56.44V55.07a7.86,7.86,0,0,0,0-.92c.31,0,.59,0,1.05,0h3.26c.49,0,.74,0,1.12,0a6.56,6.56,0,0,0,0,.87ZM8.08,51.1h5.37V50H8.08ZM9,56h3.53V55H9Z"/><path class="cls-1" d="M18.23,51.67a4.87,4.87,0,0,0,1,.07H20a4.89,4.89,0,0,0,1-.07,13.27,13.27,0,0,0-.05,1.4v2.6c.66,1.17,1.43,1.5,3.52,1.5a44,44,0,0,0,5.77-.28A3.71,3.71,0,0,0,29.87,58c-1.24,0-2.74.07-4.17.07-2.39,0-3.13-.07-3.87-.39a2.92,2.92,0,0,1-1.42-1.23,12.53,12.53,0,0,1-1.49,1.3c-.19.14-.34.26-.52.42l-.49-1a8.73,8.73,0,0,0,2-1.49V52.62h-.78a5.18,5.18,0,0,0-.93.07Zm.85-4.86a18.66,18.66,0,0,1,2.12,2.33l-.78.73a13,13,0,0,0-2.07-2.41Zm3.64,1.95a7.34,7.34,0,0,0-1.17.06v-1a7,7,0,0,0,1.29.08H25V47.5a4.89,4.89,0,0,0-.08-.91h1a4.57,4.57,0,0,0-.06.87v.43h2.6a6.56,6.56,0,0,0,1.25-.08v1a6.81,6.81,0,0,0-1.12-.06H25.94v1h2a9.18,9.18,0,0,0,1.23-.07,9.38,9.38,0,0,0,0,1.17v.95a9.7,9.7,0,0,0,0,1.21A9.63,9.63,0,0,0,28,53h-1.6a8.11,8.11,0,0,0,1.16,1,8.82,8.82,0,0,0,2.53,1.3,3.6,3.6,0,0,0-.52.93,10.56,10.56,0,0,1-2.21-1.3,9.23,9.23,0,0,1-1.44-1.38,10.38,10.38,0,0,1,.05,1.09v1.07a6.46,6.46,0,0,0,.06,1H25a6,6,0,0,0,.08-1V54.58c0-.47,0-.73,0-1.07a7.6,7.6,0,0,1-1.28,1.26A9.71,9.71,0,0,1,21.89,56a3.46,3.46,0,0,0-.6-.82,9.64,9.64,0,0,0,2.5-1.47,9.79,9.79,0,0,0,.82-.77H23.23A10.12,10.12,0,0,0,22,53,10.71,10.71,0,0,0,22,51.82v-.93A11.59,11.59,0,0,0,22,49.67a9.45,9.45,0,0,0,1.26.07H25v-1ZM23,50.57v1.56H25V50.57Zm3,1.56h2.29V50.57H25.94Z"/><path class="cls-1" d="M35.66,48.11a5.21,5.21,0,0,0-.17.92c-.56,3.79-1.55,6.18-3.41,8.23a3.67,3.67,0,0,0-1-.81,9.51,9.51,0,0,0,2.33-3.71,15.28,15.28,0,0,0,1-4.87Zm3.74-.2A17.94,17.94,0,0,0,40,51a11.9,11.9,0,0,0,2.94,5.44,3.92,3.92,0,0,0-1,.86,12.67,12.67,0,0,1-2.19-3.5A19.64,19.64,0,0,1,38.43,49a8.85,8.85,0,0,0-.16-.88Zm1.27-1A10.19,10.19,0,0,1,42,49l-.77.43a9.22,9.22,0,0,0-1.35-2.05Zm1.49-.71a9.52,9.52,0,0,1,1.36,2l-.75.43a10,10,0,0,0-1.34-2Z"/><path class="cls-1" d="M54.06,57.67a26.83,26.83,0,0,0-4.1-4A14.32,14.32,0,0,1,47.48,56a16.22,16.22,0,0,1-2.54,1.54,3.32,3.32,0,0,0-.75-1A12.76,12.76,0,0,0,48.5,53.6a13.5,13.5,0,0,0,2.89-4.27l.07-.17a.3.3,0,0,0,0-.1l-4.42.08a11.42,11.42,0,0,0-1.5.1l0-1.24a6.38,6.38,0,0,0,1.24.08h.29l4.5,0a2.36,2.36,0,0,0,.92-.12l.64.65a2.37,2.37,0,0,0-.38.65,16.87,16.87,0,0,1-2.09,3.62A33.49,33.49,0,0,1,55,56.66Z"/><rect class="cls-2" width="60" height="60"/></g></g></svg>