<svg xmlns="http://www.w3.org/2000/svg" viewBox="0 0 60 60"><defs><style>.cls-1{fill:#9bcb6b;}.cls-2{fill:#37bef0;}.cls-3{fill:none;}</style></defs><g id="レイヤー_2" data-name="レイヤー 2"><g id="nav__sub"><path class="cls-1" d="M42.16,36.61H28.29a5.14,5.14,0,0,1-5.14-5.14V18.26a5.14,5.14,0,0,1,5.14-5.14H42.16a5.14,5.14,0,0,1,5.14,5.14V31.47A5.15,5.15,0,0,1,42.16,36.61ZM28.29,17.81a.45.45,0,0,0-.45.45V31.47a.45.45,0,0,0,.45.45H42.16a.46.46,0,0,0,.45-.45V18.26a.46.46,0,0,0-.45-.45Z"/><path class="cls-2" d="M25.55,50.46A12.85,12.85,0,1,1,38.41,37.61,12.87,12.87,0,0,1,25.55,50.46Zm0-21.24A8.4,8.4,0,1,0,34,37.61,8.4,8.4,0,0,0,25.55,29.22Z"/><rect class="cls-1" x="30.41" y="32.25" width="10.7" height="3.57"/><rect class="cls-3" width="60" height="60"/></g></g></svg>