<svg xmlns="http://www.w3.org/2000/svg" viewBox="0 0 60 60"><defs><style>.cls-1,.cls-3{fill:#9bcb6b;}.cls-1{fill-rule:evenodd;}.cls-2{fill:#37bef0;}.cls-4{fill:none;}</style></defs><g id="レイヤー_2" data-name="レイヤー 2"><g id="nav__sub"><path class="cls-1" d="M46.81,22.66a1.26,1.26,0,0,0-1.1-.09,1.32,1.32,0,0,0-.75.89,2.16,2.16,0,0,1-.36.67,1.18,1.18,0,0,1-.9.51,1.17,1.17,0,0,1-.91-.52,2,2,0,0,1-.36-.7,1.27,1.27,0,0,0-1.25-1,1.25,1.25,0,0,0-1.26,1,1.94,1.94,0,0,1-.35.67,1.4,1.4,0,0,1-.45.4.9.9,0,0,1-.8.05,1.71,1.71,0,0,1-.91-1.11,1.35,1.35,0,0,0-.78-.9,1.12,1.12,0,0,0-1,0l-.31.17a1.4,1.4,0,0,0-.47,1.66A5.2,5.2,0,0,0,35.7,26a3.78,3.78,0,0,0,3,1.53h0a3.62,3.62,0,0,0,2.52-1.05,3.94,3.94,0,0,0,.85.62,3.58,3.58,0,0,0,1.67.43A3.3,3.3,0,0,0,45,27.26a4.46,4.46,0,0,0,2.51-2.83A1.38,1.38,0,0,0,46.81,22.66Z"/><path class="cls-1" d="M40.71,20.52A2.57,2.57,0,1,0,38.12,18,2.57,2.57,0,0,0,40.71,20.52Z"/><path class="cls-2" d="M44.82,50.65H36.24a1.82,1.82,0,0,1-1.76-2.28l1.8-6.76A38.73,38.73,0,0,1,31.85,24.4c0-12.2,7.2-18.38,7.51-18.64a1.83,1.83,0,0,1,2.24-.07c.31.23,7.6,5.72,7.6,18.71a36.16,36.16,0,0,1-1.77,11.1A1.82,1.82,0,1,1,44,34.4a32.8,32.8,0,0,0,1.6-10c0-8.17-3.21-12.79-5-14.72a22.24,22.24,0,0,0-5.1,14.72,35.62,35.62,0,0,0,4.33,16.15A1.76,1.76,0,0,1,40,41.86L38.59,47h3.94l-1.25-5.4a1.8,1.8,0,0,1,1.36-2.17,1.83,1.83,0,0,1,2.18,1.35l1.76,7.62A1.81,1.81,0,0,1,46.24,50,1.84,1.84,0,0,1,44.82,50.65Z"/><path class="cls-2" d="M21.07,51a2.25,2.25,0,0,1-2.25-2.25v-11a2.25,2.25,0,0,1,4.5,0v11A2.25,2.25,0,0,1,21.07,51Z"/><path class="cls-3" d="M29.61,38.3l-2.35-4.72a3,3,0,0,0,1.54-1.14A3.25,3.25,0,0,0,29,29.31l-2.34-5.42a2.9,2.9,0,0,0,2-1.34,3.06,3.06,0,0,0-.13-3.11L23.4,10.32A3,3,0,0,0,20.82,8.6a3.21,3.21,0,0,0-2.6,1.7l-5.37,9.34a3.07,3.07,0,0,0-.16,3.11A2.91,2.91,0,0,0,15,24.11l-2.5,5.4a3.24,3.24,0,0,0,.08,3.13A3,3,0,0,0,14,33.77l-2.69,4.79A3.37,3.37,0,0,0,11.18,42a3.36,3.36,0,0,0,3.05,1.53l12.37-.26a3.22,3.22,0,0,0,3-4.92Z"/><rect class="cls-4" width="60" height="60"/></g></g></svg>