<svg xmlns="http://www.w3.org/2000/svg" viewBox="0 0 60 60"><defs><style>.cls-1,.cls-2{fill:#9bcb6b;}.cls-2,.cls-3{fill-rule:evenodd;}.cls-3{fill:#37bef0;}.cls-4{fill:none;}</style></defs><g id="レイヤー_2" data-name="レイヤー 2"><g id="nav__sub"><path class="cls-1" d="M10.41,33.11A1.41,1.41,0,0,1,9,32.1a3.93,3.93,0,0,0-.72-1.26,2.9,2.9,0,0,0-2.18-1.06h0a2.92,2.92,0,0,0-2.18,1A3.84,3.84,0,0,0,3.25,32a1.51,1.51,0,0,1-.82,1,1.47,1.47,0,0,1-1.2-.09,1.47,1.47,0,0,1-.78-2A6.55,6.55,0,0,1,4.06,27a5.5,5.5,0,0,1,4.51.17,6.3,6.3,0,0,1,1.84,1.39,5.74,5.74,0,0,1,4.28-2h0a5.81,5.81,0,0,1,4.4,2.08,7.1,7.1,0,0,1,1.28,2.2,1.53,1.53,0,0,1-.56,1.92l-.33.16a1.3,1.3,0,0,1-1.07,0,1.59,1.59,0,0,1-.84-1A3.44,3.44,0,0,0,15.69,30a2.64,2.64,0,0,0-2.18.08,3.09,3.09,0,0,0-1,.78,3.87,3.87,0,0,0-.7,1.2A1.38,1.38,0,0,1,10.41,33.11Z"/><path class="cls-2" d="M46,17.81a5,5,0,1,0-5-4.95,5,5,0,0,0,5,4.95Z"/><path class="cls-3" d="M54.92,18.49c-2.86,4-6.68,4.45-10.77,2-.27-.18-1.54-.86-1.81-1-6.59-3.91-13.18-2.36-17.58,3.82-1.87,2.63,2.45,5.13,4.31,2.54,2.27-3.23,5.18-4.13,8.36-3.13-1.63,2.81-3,5.63-5,9.63S25.94,39.48,21.71,37c-3.09-1.81-5.86,2.59-2.81,4.41A12.59,12.59,0,0,0,35,38.3a1,1,0,0,0,.37.18A33.26,33.26,0,0,1,43.11,43c1.14,1,3.09,5.73,4.22,8.09,1.41,2.91,6,.82,4.55-2.09-1.32-2.73-3.5-8.13-5.23-9.5a39.56,39.56,0,0,0-6.31-4.31c1.5-3,3.13-5.91,4.81-8.82C50.52,28,55.6,26.12,59.24,21c1.86-2.63-2.46-5.13-4.32-2.54Z"/><rect class="cls-4" width="60" height="60"/></g></g></svg>