<svg xmlns="http://www.w3.org/2000/svg" viewBox="0 0 60 60"><defs><style>.cls-1{fill:#9bcb6b;}.cls-2{fill:#37bef0;}.cls-3{fill:#92bf60;}.cls-4{fill:none;}</style></defs><g id="レイヤー_2" data-name="レイヤー 2"><g id="nav__sub"><path class="cls-1" d="M20.65,40.81A1.64,1.64,0,0,1,19,39.62a4.93,4.93,0,0,0-.88-1.51,3.5,3.5,0,0,0-2.64-1.27h0a3.54,3.54,0,0,0-2.64,1.26l-.16.15a5.48,5.48,0,0,0-.69,1.3,1.82,1.82,0,0,1-.95,1.13,1.72,1.72,0,0,1-1.41-.1,1.73,1.73,0,0,1-.92-2.39,7.8,7.8,0,0,1,4.3-4.6,6.52,6.52,0,0,1,5.38.2,7.13,7.13,0,0,1,2.23,1.68,6.88,6.88,0,0,1,5.13-2.36h0A6.9,6.9,0,0,1,31,35.58a8.39,8.39,0,0,1,1.54,2.62,1.8,1.8,0,0,1-.65,2.24l-.37.18a1.51,1.51,0,0,1-1.27.07,1.83,1.83,0,0,1-1-1.13A4.18,4.18,0,0,0,27,37.08a3.25,3.25,0,0,0-2.66.09,3.88,3.88,0,0,0-1.21.94,4.66,4.66,0,0,0-.85,1.45A1.61,1.61,0,0,1,20.65,40.81Zm-.25-2a.49.49,0,0,0-.14.18l1,.16ZM30.63,39a.08.08,0,0,0,0,0Zm-10-1,0,.09L20.7,38Z"/><path class="cls-1" d="M37.86,49.38a1.66,1.66,0,0,1-1.62-1.2,4.76,4.76,0,0,0-.86-1.5,3.53,3.53,0,0,0-2.65-1.28h0a3.48,3.48,0,0,0-2.6,1.22l-.05.06a4.53,4.53,0,0,0-.85,1.44,1.77,1.77,0,0,1-.95,1.12,1.69,1.69,0,0,1-1.41-.1A1.71,1.71,0,0,1,26,46.76a7.77,7.77,0,0,1,4.3-4.6,6.56,6.56,0,0,1,5.38.19A7.36,7.36,0,0,1,37.86,44,6.88,6.88,0,0,1,43,41.67h0a6.93,6.93,0,0,1,5.24,2.48,8.39,8.39,0,0,1,1.53,2.61A1.81,1.81,0,0,1,49.12,49l-.38.19a1.56,1.56,0,0,1-1.26.06,1.89,1.89,0,0,1-1-1.13,4.19,4.19,0,0,0-2.27-2.49,3.25,3.25,0,0,0-2.66.1,3.74,3.74,0,0,0-1.21.94,4.66,4.66,0,0,0-.85,1.45A1.62,1.62,0,0,1,37.86,49.38Zm-.25-2a.49.49,0,0,0-.14.18l1.05.15Zm.2-.86a.93.93,0,0,1,0,.1.93.93,0,0,0,0-.1Z"/><path class="cls-2" d="M30.32,43.29a2.44,2.44,0,0,1-2.44-2.44V23a2.44,2.44,0,0,1,4.87,0V40.85A2.43,2.43,0,0,1,30.32,43.29Z"/><path class="cls-3" d="M30.32,23.1S22.58,8.51,10.21,15.81A9.49,9.49,0,0,0,19,23.71,39,39,0,0,0,30.32,23.1Z"/><path class="cls-1" d="M22.58,24.77c-1.13,0-2.36,0-3.68-.14C10.52,24,9.31,16,9.29,15.94l-.08-.62L9.74,15A13.29,13.29,0,0,1,20.35,13.3c6.76,1.91,10.62,9.06,10.78,9.37l.55,1L30.54,24A36.81,36.81,0,0,1,22.58,24.77Z"/><path class="cls-3" d="M30.32,23.1s7.73-14.59,20.1-7.29a9.49,9.49,0,0,1-8.76,7.9A38.88,38.88,0,0,1,30.32,23.1Z"/><path class="cls-1" d="M38.05,24.77a36.81,36.81,0,0,1-8-.77L29,23.71l.55-1c.16-.31,4-7.46,10.79-9.37A13.27,13.27,0,0,1,50.89,15l.54.31-.09.62c0,.08-1.23,8-9.61,8.69C40.42,24.73,39.18,24.77,38.05,24.77Z"/><rect class="cls-4" width="60" height="60"/></g></g></svg>