<svg xmlns="http://www.w3.org/2000/svg" viewBox="0 0 569 89"><defs><style>.cls-1{fill:#3d3a39;}.cls-2,.cls-4,.cls-7,.cls-8{fill:#37bef0;stroke:#37bef0;}.cls-2,.cls-3,.cls-4,.cls-5,.cls-7,.cls-8{stroke-miterlimit:10;}.cls-2{stroke-width:7px;}.cls-3,.cls-5{fill:#fff;stroke:#fff;}.cls-3{stroke-width:2px;}.cls-4{stroke-width:6.5px;}.cls-5{stroke-width:1.91px;}.cls-6{fill:#9bcb6b;}.cls-7{stroke-width:4.07px;}.cls-8{stroke-linecap:round;stroke-width:7.7px;}.cls-9{fill:none;}</style></defs><g id="レイヤー_2" data-name="レイヤー 2"><g id="header_1"><path class="cls-1" d="M120.61,19l-.54,3.35a1.09,1.09,0,0,1-1.16.8c-.51,0-1-.27-.9-.8l.53-3.35.63-3.42A27.45,27.45,0,0,1,112,21.12a1.16,1.16,0,0,1-.58.16.81.81,0,0,1-.8-1,1.17,1.17,0,0,1,.65-.84A26.53,26.53,0,0,0,118.35,14h-5.66c-.5,0-.69-.48-.62-.94a1,1,0,0,1,.92-.93h6.65L120,10h-5.16c-.5,0-.69-.48-.62-.94a1,1,0,0,1,.92-.94h5.16l.39-2.43a1.08,1.08,0,0,1,1.16-.78c.51,0,1,.25.9.78l-.38,2.43h5.35c.52,0,.71.46.63.94a1,1,0,0,1-.93.94h-5.35l-.35,2.18h6.82c.52,0,.71.46.64.93a1,1,0,0,1-.94.94h-6a14.6,14.6,0,0,0,5.57,4.93.94.94,0,0,1,.55,1,1.33,1.33,0,0,1-1.23,1.09,1.11,1.11,0,0,1-.53-.16,14.51,14.51,0,0,1-5.51-5.43Z"/><path class="cls-1" d="M143.47,19.48l-.47,2.9a1.09,1.09,0,0,1-1.16.81c-.51,0-1-.27-.9-.81l.46-2.9.53-2.79a26.77,26.77,0,0,1-7.17,5.1,1.23,1.23,0,0,1-.6.15.8.8,0,0,1-.8-1,1.12,1.12,0,0,1,.69-.82,26,26,0,0,0,6.89-4.82h-5.53c-.49,0-.69-.46-.61-.92a1,1,0,0,1,.91-.92h6.65l.7-4.34h-5.87c-.5,0-.7-.46-.62-.91a1,1,0,0,1,.91-.92h5.87l.27-1.69a1.08,1.08,0,0,1,1.16-.78c.51,0,1,.25.9.78l-.27,1.69h5.84c.51,0,.71.46.63.92a1,1,0,0,1-.93.91h-5.83l-.69,4.34h6.69c.51,0,.71.46.63.92a1,1,0,0,1-.93.92h-5.73a14.62,14.62,0,0,0,5.57,4.36.85.85,0,0,1,.52.95A1.3,1.3,0,0,1,150,21.75a1.1,1.1,0,0,1-.5-.11,14.71,14.71,0,0,1-5.61-5.07Zm-2.29-8a1.28,1.28,0,0,1,.09.65,1.23,1.23,0,0,1-1.19,1,.88.88,0,0,1-.86-.61,8.39,8.39,0,0,0-.59-1.34.89.89,0,0,1-.13-.63,1.14,1.14,0,0,1,1.12-.9,1,1,0,0,1,.81.44A7,7,0,0,1,141.18,11.47Zm7.31-2a.8.8,0,0,1,.87.9,1.35,1.35,0,0,1-.22.51,14.05,14.05,0,0,1-1.39,1.78,1.22,1.22,0,0,1-.91.44.82.82,0,0,1-.87-.9,1.13,1.13,0,0,1,.3-.57,17.77,17.77,0,0,0,1.25-1.63A1.18,1.18,0,0,1,148.49,9.52Z"/><path class="cls-1" d="M162.41,6.73c.61,0,1.16.4.9,1.18a43.41,43.41,0,0,0-2.23,8.45,35.8,35.8,0,0,0-.38,4.49A1.24,1.24,0,0,1,159.42,22a.86.86,0,0,1-.95-.94,36.66,36.66,0,0,1,.43-4.72,46.53,46.53,0,0,1,2.31-8.83A1.24,1.24,0,0,1,162.41,6.73Zm6.8,11.75a16.52,16.52,0,0,0,2.93-.28.86.86,0,0,1,1.07,1.05,1.2,1.2,0,0,1-1,1,17.44,17.44,0,0,1-3.36.33c-3.54,0-4.84-1.07-4.68-3.39a1.31,1.31,0,0,1,1.3-1.16.77.77,0,0,1,.84.82C166.29,18,166.82,18.48,169.21,18.48Zm4.47-9.06a1.28,1.28,0,0,1-1.14,1.05,48.3,48.3,0,0,1-5.46.42.84.84,0,0,1-1-1,1.23,1.23,0,0,1,1.2-1,48.53,48.53,0,0,0,5.33-.42A.85.85,0,0,1,173.68,9.42Z"/><path class="cls-1" d="M192.85,7.62c1.5,0,2.16.62,2,1.65a3.55,3.55,0,0,1-.38,1,21.93,21.93,0,0,1-3.35,4.57,22.45,22.45,0,0,1,4.4,4.53,1.15,1.15,0,0,1,.22.86,1.48,1.48,0,0,1-1.4,1.15,1,1,0,0,1-.85-.46,23.39,23.39,0,0,0-4-4.49,27.84,27.84,0,0,1-7,4.74,1.41,1.41,0,0,1-.57.13.93.93,0,0,1-.93-1.11,1.3,1.3,0,0,1,.8-1,23.21,23.21,0,0,0,10.27-9,.73.73,0,0,0,.13-.3c0-.18-.11-.25-.44-.25l-6.87.13a.81.81,0,0,1-.79-1,1.2,1.2,0,0,1,1.11-1.07Z"/><path class="cls-1" d="M212.07,13.07a41.14,41.14,0,0,1-5.35,3.21,1.4,1.4,0,0,1-.7.18.89.89,0,0,1-.88-1.07,1.47,1.47,0,0,1,.9-1.07,37.4,37.4,0,0,0,10.55-7.84,1.4,1.4,0,0,1,1-.5.94.94,0,0,1,1,1.07,1.38,1.38,0,0,1-.38.71A38.65,38.65,0,0,1,213.5,12a.83.83,0,0,1,.84,1L213,21.41a1.23,1.23,0,0,1-1.29,1c-.55,0-1.07-.32-1-1Z"/><path class="cls-1" d="M232.45,13.8a1,1,0,0,1,0,.34,1.27,1.27,0,0,1-1.24.94.74.74,0,0,1-.78-.59A16.27,16.27,0,0,0,229.6,12a.73.73,0,0,1-.06-.46,1.22,1.22,0,0,1,1.19-.88.86.86,0,0,1,.8.5A12.7,12.7,0,0,1,232.45,13.8Zm8.29-3.42c.53,0,1,.34,1,.92a1,1,0,0,1-.08.24A21.54,21.54,0,0,1,232,22.06a1.31,1.31,0,0,1-.56.15.84.84,0,0,1-.81-1,1.24,1.24,0,0,1,.74-.92,18.18,18.18,0,0,0,8.3-9.23A1.09,1.09,0,0,1,240.74,10.38Zm-4.47,2.5a1.21,1.21,0,0,1,0,.33,1.21,1.21,0,0,1-1.2.91.75.75,0,0,1-.78-.63,12.94,12.94,0,0,0-.76-2.42.78.78,0,0,1-.06-.44,1.16,1.16,0,0,1,1.17-.85.83.83,0,0,1,.82.5A11.55,11.55,0,0,1,236.27,12.88Z"/><path class="cls-1" d="M260,11.83c0,.15,0,.29-.07.44h5.82c.55,0,.76.5.68,1a1.1,1.1,0,0,1-1,1h-6a12,12,0,0,1-5.91,7.8,1.58,1.58,0,0,1-.74.21.93.93,0,0,1-.94-1.11,1.42,1.42,0,0,1,.78-1,9.19,9.19,0,0,0,4.58-5.91H251c-.55,0-.74-.5-.66-1a1.08,1.08,0,0,1,1-1h6.39a5.15,5.15,0,0,0,.11-.59l.35-2.2c-1.4.19-2.8.34-4,.4a.87.87,0,0,1-1-1.05,1.2,1.2,0,0,1,1.2-1,46.37,46.37,0,0,0,9.45-1.61,1.35,1.35,0,0,1,.37-.06.92.92,0,0,1,.92,1.11,1.26,1.26,0,0,1-.92,1,37,37,0,0,1-3.76.88Z"/><path class="cls-1" d="M281.51,20.05a1.72,1.72,0,0,1-1.68,1.44,1.18,1.18,0,0,1-1.21-1.44,1.76,1.76,0,0,1,1.67-1.45A1.2,1.2,0,0,1,281.51,20.05Zm-.79-12.48a1.52,1.52,0,0,1,1.59-1.3,1.05,1.05,0,0,1,1.13,1.3l0,.21c-.67,2.79-1.25,5.56-1.89,8.81a1,1,0,0,1-1,.8.66.66,0,0,1-.73-.8c.41-3.25.72-6,.94-8.81Z"/><path class="cls-1" d="M298.28,15.83A21.13,21.13,0,0,1,296,18.92a1.28,1.28,0,0,1-.9.48.73.73,0,0,1-.76-.86,1.22,1.22,0,0,1,.3-.57,25.49,25.49,0,0,0,3.91-5.91h-2.16c-.5,0-.67-.46-.6-.92a1,1,0,0,1,.87-.9h2.41l.28-1.74c-.61.12-1.22.21-1.78.27a.74.74,0,0,1-.85-.92,1.08,1.08,0,0,1,.91-.9,24.5,24.5,0,0,0,5.1-1.3,1.42,1.42,0,0,1,.43-.07.81.81,0,0,1,.76,1,1,1,0,0,1-.71.84c-.57.21-1.17.4-1.79.58l-.36,2.23h2.05c.49,0,.67.46.6.9a1,1,0,0,1-.9.92h-2l-.2,1.26a9.43,9.43,0,0,1,1.94,1.82.81.81,0,0,1,.18.67,1.13,1.13,0,0,1-1,.91.75.75,0,0,1-.64-.34,9.83,9.83,0,0,0-.8-.95l-1.08,6.73a1.06,1.06,0,0,1-1.12.8c-.5,0-.95-.27-.87-.8l.33-2.07Zm3.26,5.9a.81.81,0,0,1-.92-1,1.09,1.09,0,0,1,1-.95l.64-.06a97.13,97.13,0,0,0,5-13,1.22,1.22,0,0,1,1.22-.84c.61,0,1.18.4.94,1.16a92.64,92.64,0,0,1-4.86,12.43c1.47-.19,2.92-.42,4.36-.73a25.06,25.06,0,0,0-.9-2.81,1,1,0,0,1-.06-.49,1.22,1.22,0,0,1,1.18-.94A.93.93,0,0,1,310,15a27.4,27.4,0,0,1,1.64,5.39,1.3,1.3,0,0,1,0,.44,1.36,1.36,0,0,1-1.3,1.11.88.88,0,0,1-.89-.8q-.06-.37-.15-.75A57.91,57.91,0,0,1,301.54,21.73Z"/><path class="cls-1" d="M320.34,11.7a.8.8,0,0,1-.9-1,1.24,1.24,0,0,1,1.15-1,26.72,26.72,0,0,0,2.76-.32c.34-1.06.56-1.9.84-2.95a1.2,1.2,0,0,1,1.19-.88c.58,0,1.09.38.9,1.07-.24.92-.45,1.61-.68,2.34l1.71-.39a1.45,1.45,0,0,1,.29,0,.81.81,0,0,1,.79,1,1.13,1.13,0,0,1-.89.93c-.92.25-1.8.46-2.59.64a67.1,67.1,0,0,1-4.29,10.05,1.51,1.51,0,0,1-1.3.84.83.83,0,0,1-.89-1,1.44,1.44,0,0,1,.2-.54,60.82,60.82,0,0,0,4-9C321.79,11.58,321,11.66,320.34,11.7ZM326.65,17a.72.72,0,0,1,.79.8c-.06,1.23.57,1.57,2.66,1.57a17.08,17.08,0,0,0,2.61-.19.87.87,0,0,1,1,1,1.25,1.25,0,0,1-1.05,1,19,19,0,0,1-2.9.21c-3.29,0-4.63-1-4.39-3.37A1.23,1.23,0,0,1,326.65,17Zm6.68-5.75a.83.83,0,0,1,.87,1,1.12,1.12,0,0,1-1.13,1,27,27,0,0,0-4.75.5.81.81,0,0,1-1-1,1.27,1.27,0,0,1,1-1A28.36,28.36,0,0,1,333.33,11.26Z"/><path class="cls-1" d="M347,14.74a11.4,11.4,0,0,1,5.08-1.38c2.93,0,4.14,1.47,3.81,3.58-.46,2.82-3.32,4.81-7.7,5a.82.82,0,0,1-.93-1,1.14,1.14,0,0,1,1.1-1c3.63-.25,5.11-1.49,5.36-3,.16-1-.33-1.74-1.9-1.74a9.29,9.29,0,0,0-6.11,2.47,1.42,1.42,0,0,1-.88.34.86.86,0,0,1-.91-1,1.89,1.89,0,0,1,.15-.46,42.34,42.34,0,0,0,2.3-5.39q-1.42.12-2.64.12a.79.79,0,0,1-.81-1,1.13,1.13,0,0,1,1.11-1c.88,0,1.9-.06,3-.16.28-1,.55-1.91.8-2.88a1.2,1.2,0,0,1,1.2-.88.78.78,0,0,1,.83,1c-.24.88-.47,1.72-.71,2.5,1.52-.19,3.05-.44,4.38-.72a1.55,1.55,0,0,1,.29,0,.81.81,0,0,1,.8,1,1.23,1.23,0,0,1-1,1c-1.58.34-3.37.63-5.1.82A34.46,34.46,0,0,1,347,14.72Z"/><path class="cls-1" d="M365.86,21.05a1.46,1.46,0,0,1-1.13.61.83.83,0,0,1-.9-1,1.52,1.52,0,0,1,.27-.59,38,38,0,0,0,4.12-7.48c-.8.1-1.58.23-2.33.39a.8.8,0,0,1-1-1,1.21,1.21,0,0,1,1-1c1-.2,2.08-.33,3.12-.44.41-1.17.79-2.36,1.11-3.52a1.23,1.23,0,0,1,1.2-.9.83.83,0,0,1,.89,1.09c-.28,1-.62,2.1-1,3.15.39,0,.73,0,1,0,2.44,0,3.17,1.11,2.68,4.12a18.25,18.25,0,0,1-1.24,4.56c-.95,2.2-1.95,3-3.88,3a8.15,8.15,0,0,1-1.29-.1.85.85,0,0,1-.77-1,1.17,1.17,0,0,1,1.29-1,8.5,8.5,0,0,0,1,.07c.67,0,1.05-.21,1.55-1.33a17.27,17.27,0,0,0,1.17-4.15c.27-1.72,0-2.18-.9-2.18-.42,0-.9,0-1.42.05A42.32,42.32,0,0,1,365.86,21.05ZM381,13.32a1.34,1.34,0,0,1-1.24,1.76,1,1,0,0,1-.93-.73,15.07,15.07,0,0,0-2.09-3.93.9.9,0,0,1-.19-.69,1.29,1.29,0,0,1,1.26-1,1.11,1.11,0,0,1,.82.36A13.68,13.68,0,0,1,381,13.32Zm-2.44-6.59a1,1,0,0,1,.92-.73.7.7,0,0,1,.5.21,7.86,7.86,0,0,1,1.23,1.66.75.75,0,0,1,.08.52.94.94,0,0,1-.88.76.64.64,0,0,1-.58-.36,10,10,0,0,0-1.15-1.62A.61.61,0,0,1,378.54,6.73Zm2.14-1.53a.92.92,0,0,1,.91-.71.79.79,0,0,1,.54.23,7.33,7.33,0,0,1,1.22,1.57.8.8,0,0,1,.12.57.92.92,0,0,1-.88.73.69.69,0,0,1-.61-.35c-.36-.55-.8-1.13-1.17-1.59A.53.53,0,0,1,380.68,5.2Z"/><path class="cls-1" d="M401,20.61c0,.28,0,.34.41.34s.71-.15,1-1.11a.91.91,0,0,1,.88-.73A.66.66,0,0,1,404,20c-.48,2-1.21,2.63-3.05,2.63-1.66,0-1.91-.43-1.73-1.6l.72-4.44h-.71a8.81,8.81,0,0,1-4.64,6.16,1.16,1.16,0,0,1-.5.13.76.76,0,0,1-.74-.9,1,1,0,0,1,.14-.36.66.66,0,0,1-.32.1H389l-.08.48a1,1,0,0,1-1,.7c-.44,0-.86-.25-.79-.7l1.05-6.54a2.39,2.39,0,0,0-.22.23,1.22,1.22,0,0,1-.79.36.73.73,0,0,1-.76-.86,1.31,1.31,0,0,1,.39-.67,17.92,17.92,0,0,0,2.69-3.29H388c-.48,0-.64-.42-.58-.82a.89.89,0,0,1,.84-.82h2.16c.22-.41.42-.83.62-1.25h-.86c-.12.16-.22.31-.34.44a1.19,1.19,0,0,1-.94.54.71.71,0,0,1-.73-.84,1.4,1.4,0,0,1,.26-.56,12.62,12.62,0,0,0,1.52-2.43,1.1,1.1,0,0,1,1-.63c.46,0,.85.29.78.77a.88.88,0,0,1-.09.29,8.42,8.42,0,0,1-.41.78h4.28c.5,0,.68.4.62.82a.93.93,0,0,1-.88.82H392.9c-.19.42-.39.84-.59,1.25h3.41c.48,0,.66.4.59.82a.92.92,0,0,1-.86.82h-4.07a12.59,12.59,0,0,1-.94,1.43h1.42a4.76,4.76,0,0,0,.33-.63,1,1,0,0,1,.91-.53c.44,0,.84.25.77.65a1.28,1.28,0,0,1-.07.21l-.16.3h1.59c.42,0,.54.39.48.77a.81.81,0,0,1-.73.76h-1.82l-.15,1h1.3c.42,0,.55.36.5.73a.78.78,0,0,1-.73.72h-1.3l-.15.94h1.3c.42,0,.55.36.49.73a.78.78,0,0,1-.73.72h-1.3l-.15,1h1.13c.42,0,.55.38.48.78a1.06,1.06,0,0,1-.13.39,1.75,1.75,0,0,1,.25-.16,6.57,6.57,0,0,0,3.44-4.61c-1.06-.19-1.22-.87-1.08-1.89l1.13-7a2.09,2.09,0,0,1,2.41-1.93h3.07c1.49,0,2,.63,1.79,1.93l-1.13,7c-.21,1.17-.69,1.8-1.93,1.91Zm-10.49-.5.15-1h-1.32l-.15,1Zm.39-2.41.15-.94h-1.32l-.15.94Zm.38-2.39.15-1h-.88c-.36,0-.45.1-.51.44l-.08.52Zm9.84-.42c.38,0,.53-.13.6-.52l.16-1h-3.43l-.16,1c-.06.37,0,.52.42.52Zm-2.41-3.14h3.43l.22-1.41H399Zm4.06-3.93c.05-.37-.06-.5-.44-.5h-2.41c-.38,0-.52.13-.58.5l-.15.93h3.43Z"/><path class="cls-1" d="M418.86,5.87a1.15,1.15,0,0,1,1.2-.85c.54,0,1,.29.94.85l-1,6.36h6.86c.56,0,.77.46.69.94a1.05,1.05,0,0,1-1,.94h-4.81l-.93,5.75c-.07.46.1.61,1.43.61,1.61,0,1.89-.17,2.2-1.43a1.13,1.13,0,0,1,1.15-.82c.55,0,1.07.36.88,1-.64,2.33-1.74,3-4.53,3-3.1,0-3.51-.52-3.26-2.08l1-6.06h-2a11.17,11.17,0,0,1-7.44,8.35,1.2,1.2,0,0,1-.5.1.84.84,0,0,1-.84-1,1.21,1.21,0,0,1,.82-.93c3.37-1.36,5.07-3.14,5.85-6.48h-4.66c-.54,0-.75-.48-.68-.94a1,1,0,0,1,1-.94h6.71Zm-2.15,3.65a1.07,1.07,0,0,1,.09.63,1.37,1.37,0,0,1-1.3,1,.83.83,0,0,1-.81-.55,13,13,0,0,0-1.11-2.24.91.91,0,0,1-.13-.63,1.27,1.27,0,0,1,1.24-1,1,1,0,0,1,.83.46A17.69,17.69,0,0,1,416.71,9.52Zm8.12-3a.85.85,0,0,1,.92,1,1.17,1.17,0,0,1-.22.52,27.69,27.69,0,0,1-2.26,2.9,1.43,1.43,0,0,1-1,.5.81.81,0,0,1-.87-.92,1.14,1.14,0,0,1,.33-.63,21.59,21.59,0,0,0,2.17-2.79A1.13,1.13,0,0,1,424.83,6.52Z"/><path class="cls-1" d="M441.36,21.33l-.16,1.05a1,1,0,0,1-1.1.73c-.47,0-.93-.25-.85-.73l.16-1.05.34-1.6a27.75,27.75,0,0,1-7.16,2.81,1.54,1.54,0,0,1-.3,0,.72.72,0,0,1-.73-.88,1,1,0,0,1,.86-.85,27.84,27.84,0,0,0,6.14-2.19h-5.14c-.44,0-.61-.41-.54-.79a.85.85,0,0,1,.79-.78h6.43l.12-.79a1,1,0,0,1,1.09-.74c.5,0,.94.25.86.74l-.12.79h6.48c.46,0,.62.38.56.78a.89.89,0,0,1-.81.79H443a21.79,21.79,0,0,0,5.62,1.93.76.76,0,0,1,.63.92,1.08,1.08,0,0,1-1.06.91,1.65,1.65,0,0,1-.3,0,19,19,0,0,1-6.37-2.75Zm5-9.58a18.1,18.1,0,0,1-2.37,1.9,36,36,0,0,1,3.72,1.24.71.71,0,0,1,.52.82,1.07,1.07,0,0,1-1,.88,1.38,1.38,0,0,1-.43-.09,50.13,50.13,0,0,0-4.78-1.78,22.86,22.86,0,0,1-7.77,1.83.68.68,0,0,1-.82-.82,1,1,0,0,1,.91-.78,23.8,23.8,0,0,0,5.36-.88c-.5-.14-1-.25-1.49-.37a1.53,1.53,0,0,1-.79.25.75.75,0,0,1-.83-.8,1,1,0,0,1,.45-.61c.36-.23.73-.5,1.1-.79h-4c-.44,0-.61-.38-.54-.76a.84.84,0,0,1,.78-.75H440a18.2,18.2,0,0,0,1.39-1.39,1.1,1.1,0,0,1,.81-.38.81.81,0,0,1,.87.86.92.92,0,0,1-.24.44c-.14.15-.3.32-.46.47H450a.58.58,0,0,1,.56.75.85.85,0,0,1-.81.76Zm-4.51-6.08a1.08,1.08,0,0,1,1.17-.78c.52,0,1,.25.91.78l-.16,1h4.59c1.72,0,2.21.51,2,1.7l-.14.86a1.08,1.08,0,0,1-1.15.78c-.54,0-1-.26-.93-.78l.08-.53c.06-.33-.07-.46-.53-.46H437.36c-.45,0-.61.13-.66.46l-.09.57a1.11,1.11,0,0,1-1.18.78c-.52,0-1-.27-.93-.78l.15-.9c.19-1.19.84-1.7,2.56-1.7h4.52Zm-1.17,6.08c-.33.29-.64.54-1,.81.79.17,1.57.34,2.34.55a11.75,11.75,0,0,0,2-1.36Z"/><path class="cls-1" d="M465.89,10.13a15.7,15.7,0,0,1-.75,1.93A15.09,15.09,0,0,1,469,15.35a1.09,1.09,0,0,1,.28.9,1.35,1.35,0,0,1-1.25,1.09.77.77,0,0,1-.63-.33,15.1,15.1,0,0,0-3.25-3.15,13.86,13.86,0,0,1-3.59,3.9,1.51,1.51,0,0,1-.87.32.8.8,0,0,1-.82-.95,1.29,1.29,0,0,1,.59-.85,11.5,11.5,0,0,0,4.35-6.15h-3.4c-.73,0-1,.25-1.06.78l-1.81,11.28a1.11,1.11,0,0,1-1.18.81c-.52,0-1-.27-.92-.81l1.84-11.53c.24-1.49,1.16-2.4,3.05-2.4h4c.18-.73.34-1.5.47-2.32A1.15,1.15,0,0,1,466,5a.78.78,0,0,1,.87,1c-.12.8-.29,1.59-.46,2.32h4.17c1.87,0,2.51.91,2.27,2.4l-1.55,9.66a2.46,2.46,0,0,1-2.69,2.35,7.69,7.69,0,0,1-1.64-.15.84.84,0,0,1-.66-1,1.2,1.2,0,0,1,1.34-1.06,5.87,5.87,0,0,0,1,.1c.32,0,.52-.17.6-.63l1.43-9c.09-.53-.08-.78-.81-.78Z"/><path class="cls-1" d="M489.46,12a13.61,13.61,0,0,0,1.94,5,9.73,9.73,0,0,0,1.88,2.12,12.09,12.09,0,0,0,1.32,1,.93.93,0,0,1,.49,1,1.39,1.39,0,0,1-1.29,1.13,1,1,0,0,1-.55-.15,12.61,12.61,0,0,1-5.52-9,17,17,0,0,1-3.12,5,20.56,20.56,0,0,1-5.48,4.22,1.42,1.42,0,0,1-.7.19.85.85,0,0,1-.84-1,1.27,1.27,0,0,1,.72-.94,17.44,17.44,0,0,0,4.85-3.69c2-2.23,3.37-5.12,4.18-10.17a1.19,1.19,0,0,1,1.25-.91c.54,0,1,.3,1,.91s-.24,1.38-.38,2A20.06,20.06,0,0,0,489.46,12Z"/><path class="cls-1" d="M507.62,19.21a3.85,3.85,0,0,1-3.7,3.17,2.64,2.64,0,0,1-2.71-3.17,3.85,3.85,0,0,1,3.72-3.15A2.61,2.61,0,0,1,507.62,19.21Zm-5.09,0a1.55,1.55,0,0,0,1.59,1.89,2.26,2.26,0,0,0,2.18-1.89,1.54,1.54,0,0,0-1.58-1.87A2.26,2.26,0,0,0,502.53,19.21Z"/><path class="cls-2" d="M283.53,61l.59.26c3.69,1.55,4.49,2,5.56,3a6.24,6.24,0,0,1,1.8,5.39c-.66,5.18-5.41,8.59-12,8.59a13.6,13.6,0,0,1-7.88-2.12c-1.95-1.25-2.82-2.33-2.67-3.45a2.13,2.13,0,0,1,2.13-1.72A2,2,0,0,1,273,72c1.3,1.81,4,3,6.86,3,3.83,0,6.73-2,7.1-4.92s-1.24-4.23-7-6.51l-1.1-.44a20.12,20.12,0,0,1-5.26-2.71,5.32,5.32,0,0,1-2-5.14C272.28,50.34,276.93,47,283,47c5.08,0,10.05,2.72,9.72,5.31A2.2,2.2,0,0,1,290.55,54a1.94,1.94,0,0,1-1.82-1.08c-1.3-1.86-3.38-2.81-6.16-2.81-3.55,0-6.14,1.86-6.49,4.66-.32,2.46.71,3.41,6,5.57Z"/><path class="cls-2" d="M300.4,50.81a1.34,1.34,0,0,1-1.47-1.59,1.85,1.85,0,0,1,1.88-1.64h22.82a1.38,1.38,0,0,1,1.47,1.59,1.81,1.81,0,0,1-1.88,1.64H314l-3.25,25.41a2.19,2.19,0,0,1-2.37,1.68c-1.29,0-2.07-.69-1.94-1.68l3.24-25.41Z"/><path class="cls-2" d="M333.31,66.69c-.33,2.63-.06,4.23,1,5.65,1.3,1.77,3.39,2.67,6.13,2.67a9.63,9.63,0,0,0,7-2.84,8.78,8.78,0,0,0,2.28-5.48L352,49a2.19,2.19,0,0,1,2.37-1.68c1.29,0,2.07.69,1.94,1.68L354,67.25A11.26,11.26,0,0,1,351,74a14.49,14.49,0,0,1-11,4.36c-4.46,0-7.6-1.34-9.77-4.19-1.27-1.72-1.71-3.88-1.32-6.94L331.26,49a2.17,2.17,0,0,1,2.38-1.68c1.24,0,2.06.69,1.94,1.68Z"/><path class="cls-2" d="M375.15,47.58c11.41,0,17.23,5.43,16,14.88a16.26,16.26,0,0,1-8.83,12.86A24.49,24.49,0,0,1,371,77.6h-2.59c-3.83,0-5.57-1.77-5.13-5.22l2.5-19.58c.45-3.5,2.58-5.22,6.47-5.22ZM367.58,72.3c-.16,1.29.52,2,2,2H371c4,0,7.13-.65,9.51-2a12.76,12.76,0,0,0,6.07-9.66c.57-4.44-.88-8.11-4-10-2-1.21-4.61-1.77-8.4-1.77h-1.72a2.18,2.18,0,0,0-2.46,2Z"/><path class="cls-2" d="M398,50.73a2.47,2.47,0,0,1-.55-1.69,2.54,2.54,0,0,1,2.57-1.76,2,2,0,0,1,1.86,1.2l7.29,12,10.35-12a2.7,2.7,0,0,1,2.16-1.2c1.25,0,2.25.82,2.13,1.76a3.32,3.32,0,0,1-1,1.69L411,63.71l-1.6,12.51A2.19,2.19,0,0,1,407,77.9c-1.29,0-2.07-.69-1.94-1.68l1.6-12.51Z"/><path class="cls-2" d="M440.83,50.81a1.34,1.34,0,0,1-1.48-1.59,1.85,1.85,0,0,1,1.89-1.64h22.81a1.39,1.39,0,0,1,1.48,1.59,1.82,1.82,0,0,1-1.89,1.64h-9.25l-3.24,25.41a2.21,2.21,0,0,1-2.38,1.68c-1.29,0-2.06-.69-1.94-1.68l3.25-25.41Z"/><path class="cls-2" d="M497.37,62.55c-1.22,9.57-7.61,15.66-16.43,15.66s-13.65-6.09-12.42-15.71S476.16,46.93,485,46.93,498.57,53.1,497.37,62.55Zm-24.25,0c-.95,7.47,2.35,12.38,8.25,12.38s10.45-5,11.4-12.38-2.25-12.38-8.29-12.38S474.08,55,473.12,62.5Z"/><path class="cls-2" d="M509.4,66.69c-.34,2.63-.06,4.23,1,5.65,1.31,1.77,3.4,2.67,6.13,2.67a9.67,9.67,0,0,0,7-2.84,8.83,8.83,0,0,0,2.28-5.48L528.05,49a2.2,2.2,0,0,1,2.37-1.68c1.3,0,2.07.69,1.94,1.68L530,67.25a11.31,11.31,0,0,1-3,6.77,14.53,14.53,0,0,1-11,4.36c-4.46,0-7.59-1.34-9.77-4.19-1.27-1.72-1.71-3.88-1.32-6.94L507.35,49a2.15,2.15,0,0,1,2.37-1.68c1.24,0,2.07.69,1.94,1.68Z"/><path class="cls-2" d="M543,76.22a2.19,2.19,0,0,1-2.37,1.68c-1.24,0-2.07-.69-1.94-1.68l3-23.81c.41-3.24,2.39-4.83,6-4.83H552A16.34,16.34,0,0,1,559.44,49a6.53,6.53,0,0,1,3.63,6.82c-.51,4-4.08,6.86-9.55,7.59v.13A8.43,8.43,0,0,1,558,67.16c2.4,3.76,4.44,8.07,4.29,9.23-.11.87-1.2,1.51-2.54,1.51s-1.64-.3-2.33-2.07C553.56,66.47,552,64.7,547.32,64.7h-2.88Zm6-14.54c5.65,0,9.13-2.07,9.59-5.65.43-3.4-2.39-5.35-7.76-5.35H548.1c-1.24,0-1.93.52-2.08,1.64l-1.19,9.36Z"/><path class="cls-3" d="M283.53,61l.59.26c3.69,1.55,4.49,2,5.56,3a6.24,6.24,0,0,1,1.8,5.39c-.66,5.18-5.41,8.59-12,8.59a13.6,13.6,0,0,1-7.88-2.12c-1.95-1.25-2.82-2.33-2.67-3.45a2.13,2.13,0,0,1,2.13-1.72A2,2,0,0,1,273,72c1.3,1.81,4,3,6.86,3,3.83,0,6.73-2,7.1-4.92s-1.24-4.23-7-6.51l-1.1-.44a20.12,20.12,0,0,1-5.26-2.71,5.32,5.32,0,0,1-2-5.14C272.28,50.34,276.93,47,283,47c5.08,0,10.05,2.72,9.72,5.31A2.2,2.2,0,0,1,290.55,54a1.94,1.94,0,0,1-1.82-1.08c-1.3-1.86-3.38-2.81-6.16-2.81-3.55,0-6.14,1.86-6.49,4.66-.32,2.46.71,3.41,6,5.57Z"/><path class="cls-3" d="M300.4,50.81a1.34,1.34,0,0,1-1.47-1.59,1.85,1.85,0,0,1,1.88-1.64h22.82a1.38,1.38,0,0,1,1.47,1.59,1.81,1.81,0,0,1-1.88,1.64H314l-3.25,25.41a2.19,2.19,0,0,1-2.37,1.68c-1.29,0-2.07-.69-1.94-1.68l3.24-25.41Z"/><path class="cls-3" d="M333.31,66.69c-.33,2.63-.06,4.23,1,5.65,1.3,1.77,3.39,2.67,6.13,2.67a9.63,9.63,0,0,0,7-2.84,8.78,8.78,0,0,0,2.28-5.48L352,49a2.19,2.19,0,0,1,2.37-1.68c1.29,0,2.07.69,1.94,1.68L354,67.25A11.26,11.26,0,0,1,351,74a14.49,14.49,0,0,1-11,4.36c-4.46,0-7.6-1.34-9.77-4.19-1.27-1.72-1.71-3.88-1.32-6.94L331.26,49a2.17,2.17,0,0,1,2.38-1.68c1.24,0,2.06.69,1.94,1.68Z"/><path class="cls-3" d="M375.15,47.58c11.41,0,17.23,5.43,16,14.88a16.26,16.26,0,0,1-8.83,12.86A24.49,24.49,0,0,1,371,77.6h-2.59c-3.83,0-5.57-1.77-5.13-5.22l2.5-19.58c.45-3.5,2.58-5.22,6.47-5.22ZM367.58,72.3c-.16,1.29.52,2,2,2H371c4,0,7.13-.65,9.51-2a12.76,12.76,0,0,0,6.07-9.66c.57-4.44-.88-8.11-4-10-2-1.21-4.61-1.77-8.4-1.77h-1.72a2.18,2.18,0,0,0-2.46,2Z"/><path class="cls-3" d="M398,50.73a2.47,2.47,0,0,1-.55-1.69,2.54,2.54,0,0,1,2.57-1.76,2,2,0,0,1,1.86,1.2l7.29,12,10.35-12a2.7,2.7,0,0,1,2.16-1.2c1.25,0,2.25.82,2.13,1.76a3.32,3.32,0,0,1-1,1.69L411,63.71l-1.6,12.51A2.19,2.19,0,0,1,407,77.9c-1.29,0-2.07-.69-1.94-1.68l1.6-12.51Z"/><path class="cls-3" d="M440.83,50.81a1.34,1.34,0,0,1-1.48-1.59,1.85,1.85,0,0,1,1.89-1.64h22.81a1.39,1.39,0,0,1,1.48,1.59,1.82,1.82,0,0,1-1.89,1.64h-9.25l-3.24,25.41a2.21,2.21,0,0,1-2.38,1.68c-1.29,0-2.06-.69-1.94-1.68l3.25-25.41Z"/><path class="cls-3" d="M497.37,62.55c-1.22,9.57-7.61,15.66-16.43,15.66s-13.65-6.09-12.42-15.71S476.16,46.93,485,46.93,498.57,53.1,497.37,62.55Zm-24.25,0c-.95,7.47,2.35,12.38,8.25,12.38s10.45-5,11.4-12.38-2.25-12.38-8.29-12.38S474.08,55,473.12,62.5Z"/><path class="cls-3" d="M509.4,66.69c-.34,2.63-.06,4.23,1,5.65,1.31,1.77,3.4,2.67,6.13,2.67a9.67,9.67,0,0,0,7-2.84,8.83,8.83,0,0,0,2.28-5.48L528.05,49a2.2,2.2,0,0,1,2.37-1.68c1.3,0,2.07.69,1.94,1.68L530,67.25a11.31,11.31,0,0,1-3,6.77,14.53,14.53,0,0,1-11,4.36c-4.46,0-7.59-1.34-9.77-4.19-1.27-1.72-1.71-3.88-1.32-6.94L507.35,49a2.15,2.15,0,0,1,2.37-1.68c1.24,0,2.07.69,1.94,1.68Z"/><path class="cls-3" d="M543,76.22a2.19,2.19,0,0,1-2.37,1.68c-1.24,0-2.07-.69-1.94-1.68l3-23.81c.41-3.24,2.39-4.83,6-4.83H552A16.34,16.34,0,0,1,559.44,49a6.53,6.53,0,0,1,3.63,6.82c-.51,4-4.08,6.86-9.55,7.59v.13A8.43,8.43,0,0,1,558,67.16c2.4,3.76,4.44,8.07,4.29,9.23-.11.87-1.2,1.51-2.54,1.51s-1.64-.3-2.33-2.07C553.56,66.47,552,64.7,547.32,64.7h-2.88Zm6-14.54c5.65,0,9.13-2.07,9.59-5.65.43-3.4-2.39-5.35-7.76-5.35H548.1c-1.24,0-1.93.52-2.08,1.64l-1.19,9.36Z"/><path class="cls-4" d="M109.87,44.65a1.47,1.47,0,0,1,1.53-1.25,1.12,1.12,0,0,1,1.21,1.25L112,49.2h4.59a1,1,0,0,1,1,1.29,1.39,1.39,0,0,1-1.29,1.29H111.7l-.65,5.08h5.4a1,1,0,0,1,1,1.29,1.39,1.39,0,0,1-1.29,1.29h-5.2L110.34,64h4.23a1,1,0,0,1,1,1.29,1.4,1.4,0,0,1-1.3,1.29H110l-1,7.57c2.29,1.58,5.84,2.22,12.53,2.22,2.66,0,10.11-.32,12-.52a1.77,1.77,0,0,1,.41,0c.77,0,1.21.64,1.1,1.49a1.79,1.79,0,0,1-1.46,1.61c-.53.08-8.53.28-11.36.28-9.34,0-12.29-.56-15.29-3a12,12,0,0,1-3.55-4.63A33.57,33.57,0,0,1,100,79a1.72,1.72,0,0,1-1.49,1,1.32,1.32,0,0,1-1.4-1.41c.05-.33.1-.41.56-1.17A45.72,45.72,0,0,0,103,63.1a1.43,1.43,0,0,1,1.44-1.16c1,0,1.39.48,1.27,1.41a28.39,28.39,0,0,1-1.24,5,19.41,19.41,0,0,0,2.17,3.47l1.58-12.37h-6.65a1,1,0,0,1-1-1.29,1.37,1.37,0,0,1,1.33-1.29h6.45l.65-5.08h-5.28a1,1,0,0,1-1-1.29A1.38,1.38,0,0,1,104,49.2h5.28Zm9.06,8.91a2.74,2.74,0,0,1,3-2.7h3.63c.27-2.78.47-5,.56-5.69.16-1.2.67-1.77,1.64-1.77A1.1,1.1,0,0,1,129,44.49a7.37,7.37,0,0,1-.13,1.37c-.09.68-.37,3.5-.48,5h7.82a1,1,0,0,1,1,1.29,1.39,1.39,0,0,1-1.29,1.28h-7.7a50.06,50.06,0,0,0,.3,10.64,53.12,53.12,0,0,0,3.64-7.41c.36-.93.73-1.25,1.37-1.25a1.2,1.2,0,0,1,1.33,1.25,30.72,30.72,0,0,1-2.16,4.91,44.13,44.13,0,0,1-3.41,5.56c.81,2.18,1.62,3.43,2.23,3.43.4,0,.89-1,1.56-3.39.28-1,.61-1.33,1.37-1.33a1.15,1.15,0,0,1,1.25,1.29,31.89,31.89,0,0,1-2,5.6c-.6,1.17-1.31,1.74-2.12,1.74-1.37,0-3.15-2.14-4.22-5.12-2.86,3.14-6.49,6-7.62,6a1.24,1.24,0,0,1-1.14-1.45c.07-.56.21-.72,1.31-1.49a38.17,38.17,0,0,0,6.49-5.68c-.87-3.3-1.12-7.29-.88-13.3h-3a.8.8,0,0,0-.91.81L120,66.57c.67-.24,2.08-.85,2.89-1.21a1.59,1.59,0,0,1,.79-.2,1.08,1.08,0,0,1,1,1.33c-.09.72-.88,1.25-4.51,2.78a31.34,31.34,0,0,1-5.53,2,1.24,1.24,0,0,1-1.14-1.49c.09-.64.45-1,1.29-1.25a19.34,19.34,0,0,0,1.9-.68l.51-.16Zm15.14-7.5a6.74,6.74,0,0,1,1.23,3,1.56,1.56,0,0,1-1.6,1.41c-.6,0-.82-.2-1.13-.88a18.34,18.34,0,0,0-1.33-2.5,1.45,1.45,0,0,1-.31-1.09,1.69,1.69,0,0,1,1.54-1.29C133,44.73,133.4,45,134.07,46.06Z"/><path class="cls-4" d="M145.06,78.94a1.57,1.57,0,0,1-1.58,1.29,1.14,1.14,0,0,1-1.24-1.29l2.58-20.23A2.87,2.87,0,0,1,148,55.89h8.62c1.9,0,2.74.93,2.5,2.82l-2.34,18.34c-.26,2.09-1,2.65-3.56,2.65-3.22,0-4.26-.4-4.11-1.61.11-.8.58-1.33,1.26-1.33a1.55,1.55,0,0,1,.36,0c.67.08,1.75.16,2.2.16.8,0,1.07-.2,1.16-.92l.68-5.36h-8.66Zm33.05-28.81a1.07,1.07,0,0,1,1,1.33,1.45,1.45,0,0,1-1.38,1.33H143.36a1.07,1.07,0,0,1-1-1.33,1.42,1.42,0,0,1,1.38-1.33h20a65.25,65.25,0,0,0,3.37-5.64,1.75,1.75,0,0,1,1.55-1.05A1.51,1.51,0,0,1,170.3,45c-.07.57-1.18,2.3-3.27,5.12ZM146.42,68.26h8.66l.49-3.83h-8.66Zm9.82-9.06c.07-.57-.18-.81-.74-.81h-7a.79.79,0,0,0-.91.81L147.22,62h8.66Zm-.15-13.38a6.26,6.26,0,0,1,.75,2.66A1.85,1.85,0,0,1,155,50a1.2,1.2,0,0,1-1.09-.61c-.06-.12-.06-.12-.62-1.45-.41-.92-.66-1.49-.85-1.89a1.46,1.46,0,0,1-.27-1,2.1,2.1,0,0,1,1.92-1.49C154.74,43.52,155.23,44.09,156.09,45.82ZM165,71.77a1.54,1.54,0,0,1-1.61,1.29c-.85,0-1.39-.53-1.29-1.29l1.79-14a1.56,1.56,0,0,1,1.62-1.33,1.18,1.18,0,0,1,1.28,1.33Zm7.71,4.67c-.32,2.5-1.26,3.22-4.24,3.22a26.73,26.73,0,0,1-4.79-.36,1.19,1.19,0,0,1-1-1.49,1.29,1.29,0,0,1,1.25-1.25,3.76,3.76,0,0,1,.48,0c1.23.12,2.91.24,3.91.24s1.37-.28,1.5-1.33l2.42-18.89a1.57,1.57,0,0,1,1.66-1.33,1.19,1.19,0,0,1,1.32,1.33Z"/><path class="cls-4" d="M190.67,66.61c-.15,1.13-3.88,8-6.1,11.12-1.32,1.85-1.46,2-2.34,2a1.4,1.4,0,0,1-1.52-1.65c.06-.48.06-.48.93-1.61a71.59,71.59,0,0,0,6-10.19c.43-.81.87-1.13,1.56-1.13A1.32,1.32,0,0,1,190.67,66.61Zm-4.51-11.68c2.85,2.57,4.26,4.47,4.13,5.48a1.85,1.85,0,0,1-1.8,1.53c-.57,0-.8-.12-1.28-.77a37.9,37.9,0,0,0-3.31-3.71,1.62,1.62,0,0,1-.58-1.45,2,2,0,0,1,1.7-1.65A1.59,1.59,0,0,1,186.16,54.93Zm5.29-6.77c1.31,1.45,1.77,2.25,1.67,3a1.8,1.8,0,0,1-1.72,1.53c-.61,0-.84-.12-1.32-.77a45.32,45.32,0,0,0-3.34-3.78,1.41,1.41,0,0,1-.5-1.17A2,2,0,0,1,188,45.34C188.63,45.34,189.73,46.22,191.45,48.16Zm.46,17a1,1,0,0,1-.94-1.21,1.31,1.31,0,0,1,1.25-1.21h3.38c.65-2.54.94-3.54,1.49-6,.4-1.9,1.21-2.58,3.07-2.58h12.61a2.84,2.84,0,0,1,2,.64c.58.57.68,1.05.46,2.7-.08.65-.35,2.5-.78,5.2h3.43a1,1,0,0,1,.93,1.21,1.3,1.3,0,0,1-1.24,1.21h-3.51c-.23,1.53-.67,3.67-1.24,6.57H216A1,1,0,0,1,217,72.9a1.3,1.3,0,0,1-1.25,1.2h-3.46a18.68,18.68,0,0,1-1,3.39,4.09,4.09,0,0,1-4.12,2.34,35.53,35.53,0,0,1-4.79-.37,1.17,1.17,0,0,1-1-1.41,1.42,1.42,0,0,1,1.38-1.33l.47,0c1.28.12,2.92.25,3.64.25,1.49,0,1.95-.45,2.45-2.46l.1-.45H195.11c-1.65,0-2.44-.72-2.27-2a6.11,6.11,0,0,1,.3-1.13c.53-1.61,1.08-3.38,1.75-5.8ZM218.4,47.91a1,1,0,0,1,1,1.29,1.4,1.4,0,0,1-1.3,1.29H199.29a37.6,37.6,0,0,1-5,6.81,1.55,1.55,0,0,1-1.25.69,1.46,1.46,0,0,1-1.46-1.53c.06-.45.16-.61.82-1.33a40.72,40.72,0,0,0,6.92-10.68,1.5,1.5,0,0,1,1.42-1.05c.89,0,1.5.57,1.42,1.25a17.45,17.45,0,0,1-1.47,3.26Zm-21,18.3L197,67.78c-.33,1-.63,2-.92,3.06a1.16,1.16,0,0,0-.07.28c-.05.41.21.57.81.57h4.68c.78-3.31,1-4.19,1.48-6.57h-5.24Zm6.05-3.51c.47-2.09.68-3.14,1.22-6.12h-3.95c-.81,0-1,.2-1.17,1.33s-.45,1.89-.92,3.74l-.26,1.05Zm6.43,9c.51-2.42.89-4.44,1.28-6.57h-5.4c-.46,2.34-1,4.79-1.44,6.57Zm1.63-9c.33-1.65.71-4,.85-5.12.1-.72-.11-1-.71-1h-4.24l-.15.92-.22,1.09c-.16.93-.18,1-.54,2.94l-.23,1.17Z"/><path class="cls-4" d="M258.55,56a1.08,1.08,0,0,1,1,1.33,1.46,1.46,0,0,1-1.38,1.33H231.45a.8.8,0,0,0-.91.81l-.44,3.42c-.81,6.37-1.87,10-3.88,13.06a26.28,26.28,0,0,1-2.14,2.86,2.18,2.18,0,0,1-1.5.72,1.32,1.32,0,0,1-1.42-1.49c.06-.52.06-.52,1.54-2.33,2.46-3.11,3.49-6.13,4.32-12.7l.51-3.94A3.12,3.12,0,0,1,231,56Zm-16-11.28a1.59,1.59,0,0,1,1.66-1.33,1.2,1.2,0,0,1,1.32,1.33l-.76,5.92h8.67a.86.86,0,0,0,.95-.84l.44-3.47A1.6,1.6,0,0,1,256.53,45a1.2,1.2,0,0,1,1.32,1.33l-.5,3.91a3.06,3.06,0,0,1-3.37,3h-21.8c-2,0-2.85-1-2.6-3l.5-3.91A1.6,1.6,0,0,1,231.74,45a1.19,1.19,0,0,1,1.32,1.33l-.43,3.43c-.08.56.16.88.73.88h8.46Zm-8.92,19.7a1,1,0,0,1-1-1.29A1.37,1.37,0,0,1,234,61.86h21.48a1,1,0,0,1,1,1.28,1.39,1.39,0,0,1-1.3,1.29h-9.75l-.52,4.07H257.6a1.08,1.08,0,0,1,1,1.33,1.46,1.46,0,0,1-1.38,1.33H244.52l-1,7.74a1.63,1.63,0,0,1-1.67,1.33c-.88,0-1.42-.53-1.32-1.33l1-7.74H230.7a1.08,1.08,0,0,1-1-1.33A1.43,1.43,0,0,1,231,68.5h10.84l.52-4.07Z"/><path class="cls-5" d="M109.87,44.65a1.47,1.47,0,0,1,1.53-1.25,1.12,1.12,0,0,1,1.21,1.25L112,49.2h4.59a1,1,0,0,1,1,1.29,1.39,1.39,0,0,1-1.29,1.29H111.7l-.65,5.08h5.4a1,1,0,0,1,1,1.29,1.39,1.39,0,0,1-1.29,1.29h-5.2L110.34,64h4.23a1,1,0,0,1,1,1.29,1.4,1.4,0,0,1-1.3,1.29H110l-1,7.57c2.29,1.58,5.84,2.22,12.53,2.22,2.66,0,10.11-.32,12-.52a1.77,1.77,0,0,1,.41,0c.77,0,1.21.64,1.1,1.49a1.79,1.79,0,0,1-1.46,1.61c-.53.08-8.53.28-11.36.28-9.34,0-12.29-.56-15.29-3a12,12,0,0,1-3.55-4.63A33.57,33.57,0,0,1,100,79a1.72,1.72,0,0,1-1.49,1,1.32,1.32,0,0,1-1.4-1.41c.05-.33.1-.41.56-1.17A45.72,45.72,0,0,0,103,63.1a1.43,1.43,0,0,1,1.44-1.16c1,0,1.39.48,1.27,1.41a28.39,28.39,0,0,1-1.24,5,19.41,19.41,0,0,0,2.17,3.47l1.58-12.37h-6.65a1,1,0,0,1-1-1.29,1.37,1.37,0,0,1,1.33-1.29h6.45l.65-5.08h-5.28a1,1,0,0,1-1-1.29A1.38,1.38,0,0,1,104,49.2h5.28Zm9.06,8.91a2.74,2.74,0,0,1,3-2.7h3.63c.27-2.78.47-5,.56-5.69.16-1.2.67-1.77,1.64-1.77A1.1,1.1,0,0,1,129,44.49a7.37,7.37,0,0,1-.13,1.37c-.09.68-.37,3.5-.48,5h7.82a1,1,0,0,1,1,1.29,1.39,1.39,0,0,1-1.29,1.28h-7.7a50.06,50.06,0,0,0,.3,10.64,53.12,53.12,0,0,0,3.64-7.41c.36-.93.73-1.25,1.37-1.25a1.2,1.2,0,0,1,1.33,1.25,30.72,30.72,0,0,1-2.16,4.91,44.13,44.13,0,0,1-3.41,5.56c.81,2.18,1.62,3.43,2.23,3.43.4,0,.89-1,1.56-3.39.28-1,.61-1.33,1.37-1.33a1.15,1.15,0,0,1,1.25,1.29,31.89,31.89,0,0,1-2,5.6c-.6,1.17-1.31,1.74-2.12,1.74-1.37,0-3.15-2.14-4.22-5.12-2.86,3.14-6.49,6-7.62,6a1.24,1.24,0,0,1-1.14-1.45c.07-.56.21-.72,1.31-1.49a38.17,38.17,0,0,0,6.49-5.68c-.87-3.3-1.12-7.29-.88-13.3h-3a.8.8,0,0,0-.91.81L120,66.57c.67-.24,2.08-.85,2.89-1.21a1.59,1.59,0,0,1,.79-.2,1.08,1.08,0,0,1,1,1.33c-.09.72-.88,1.25-4.51,2.78a31.34,31.34,0,0,1-5.53,2,1.24,1.24,0,0,1-1.14-1.49c.09-.64.45-1,1.29-1.25a19.34,19.34,0,0,0,1.9-.68l.51-.16Zm15.14-7.5a6.74,6.74,0,0,1,1.23,3,1.56,1.56,0,0,1-1.6,1.41c-.6,0-.82-.2-1.13-.88a18.34,18.34,0,0,0-1.33-2.5,1.45,1.45,0,0,1-.31-1.09,1.69,1.69,0,0,1,1.54-1.29C133,44.73,133.4,45,134.07,46.06Z"/><path class="cls-5" d="M145.06,78.94a1.57,1.57,0,0,1-1.58,1.29,1.14,1.14,0,0,1-1.24-1.29l2.58-20.23A2.87,2.87,0,0,1,148,55.89h8.62c1.9,0,2.74.93,2.5,2.82l-2.34,18.34c-.26,2.09-1,2.65-3.56,2.65-3.22,0-4.26-.4-4.11-1.61.11-.8.58-1.33,1.26-1.33a1.55,1.55,0,0,1,.36,0c.67.08,1.75.16,2.2.16.8,0,1.07-.2,1.16-.92l.68-5.36h-8.66Zm33.05-28.81a1.07,1.07,0,0,1,1,1.33,1.45,1.45,0,0,1-1.38,1.33H143.36a1.07,1.07,0,0,1-1-1.33,1.42,1.42,0,0,1,1.38-1.33h20a65.25,65.25,0,0,0,3.37-5.64,1.75,1.75,0,0,1,1.55-1.05A1.51,1.51,0,0,1,170.3,45c-.07.57-1.18,2.3-3.27,5.12ZM146.42,68.26h8.66l.49-3.83h-8.66Zm9.82-9.06c.07-.57-.18-.81-.74-.81h-7a.79.79,0,0,0-.91.81L147.22,62h8.66Zm-.15-13.38a6.26,6.26,0,0,1,.75,2.66A1.85,1.85,0,0,1,155,50a1.2,1.2,0,0,1-1.09-.61c-.06-.12-.06-.12-.62-1.45-.41-.92-.66-1.49-.85-1.89a1.46,1.46,0,0,1-.27-1,2.1,2.1,0,0,1,1.92-1.49C154.74,43.52,155.23,44.09,156.09,45.82ZM165,71.77a1.54,1.54,0,0,1-1.61,1.29c-.85,0-1.39-.53-1.29-1.29l1.79-14a1.56,1.56,0,0,1,1.62-1.33,1.18,1.18,0,0,1,1.28,1.33Zm7.71,4.67c-.32,2.5-1.26,3.22-4.24,3.22a26.73,26.73,0,0,1-4.79-.36,1.19,1.19,0,0,1-1-1.49,1.29,1.29,0,0,1,1.25-1.25,3.76,3.76,0,0,1,.48,0c1.23.12,2.91.24,3.91.24s1.37-.28,1.5-1.33l2.42-18.89a1.57,1.57,0,0,1,1.66-1.33,1.19,1.19,0,0,1,1.32,1.33Z"/><path class="cls-5" d="M190.67,66.61c-.15,1.13-3.88,8-6.1,11.12-1.32,1.85-1.46,2-2.34,2a1.4,1.4,0,0,1-1.52-1.65c.06-.48.06-.48.93-1.61a71.59,71.59,0,0,0,6-10.19c.43-.81.87-1.13,1.56-1.13A1.32,1.32,0,0,1,190.67,66.61Zm-4.51-11.68c2.85,2.57,4.26,4.47,4.13,5.48a1.85,1.85,0,0,1-1.8,1.53c-.57,0-.8-.12-1.28-.77a37.9,37.9,0,0,0-3.31-3.71,1.62,1.62,0,0,1-.58-1.45,2,2,0,0,1,1.7-1.65A1.59,1.59,0,0,1,186.16,54.93Zm5.29-6.77c1.31,1.45,1.77,2.25,1.67,3a1.8,1.8,0,0,1-1.72,1.53c-.61,0-.84-.12-1.32-.77a45.32,45.32,0,0,0-3.34-3.78,1.41,1.41,0,0,1-.5-1.17A2,2,0,0,1,188,45.34C188.63,45.34,189.73,46.22,191.45,48.16Zm.46,17a1,1,0,0,1-.94-1.21,1.31,1.31,0,0,1,1.25-1.21h3.38c.65-2.54.94-3.54,1.49-6,.4-1.9,1.21-2.58,3.07-2.58h12.61a2.84,2.84,0,0,1,2,.64c.58.57.68,1.05.46,2.7-.08.65-.35,2.5-.78,5.2h3.43a1,1,0,0,1,.93,1.21,1.3,1.3,0,0,1-1.24,1.21h-3.51c-.23,1.53-.67,3.67-1.24,6.57H216A1,1,0,0,1,217,72.9a1.3,1.3,0,0,1-1.25,1.2h-3.46a18.68,18.68,0,0,1-1,3.39,4.09,4.09,0,0,1-4.12,2.34,35.53,35.53,0,0,1-4.79-.37,1.17,1.17,0,0,1-1-1.41,1.42,1.42,0,0,1,1.38-1.33l.47,0c1.28.12,2.92.25,3.64.25,1.49,0,1.95-.45,2.45-2.46l.1-.45H195.11c-1.65,0-2.44-.72-2.27-2a6.11,6.11,0,0,1,.3-1.13c.53-1.61,1.08-3.38,1.75-5.8ZM218.4,47.91a1,1,0,0,1,1,1.29,1.4,1.4,0,0,1-1.3,1.29H199.29a37.6,37.6,0,0,1-5,6.81,1.55,1.55,0,0,1-1.25.69,1.46,1.46,0,0,1-1.46-1.53c.06-.45.16-.61.82-1.33a40.72,40.72,0,0,0,6.92-10.68,1.5,1.5,0,0,1,1.42-1.05c.89,0,1.5.57,1.42,1.25a17.45,17.45,0,0,1-1.47,3.26Zm-21,18.3L197,67.78c-.33,1-.63,2-.92,3.06a1.16,1.16,0,0,0-.07.28c-.05.41.21.57.81.57h4.68c.78-3.31,1-4.19,1.48-6.57h-5.24Zm6.05-3.51c.47-2.09.68-3.14,1.22-6.12h-3.95c-.81,0-1,.2-1.17,1.33s-.45,1.89-.92,3.74l-.26,1.05Zm6.43,9c.51-2.42.89-4.44,1.28-6.57h-5.4c-.46,2.34-1,4.79-1.44,6.57Zm1.63-9c.33-1.65.71-4,.85-5.12.1-.72-.11-1-.71-1h-4.24l-.15.92-.22,1.09c-.16.93-.18,1-.54,2.94l-.23,1.17Z"/><path class="cls-5" d="M258.55,56a1.08,1.08,0,0,1,1,1.33,1.46,1.46,0,0,1-1.38,1.33H231.45a.8.8,0,0,0-.91.81l-.44,3.42c-.81,6.37-1.87,10-3.88,13.06a26.28,26.28,0,0,1-2.14,2.86,2.18,2.18,0,0,1-1.5.72,1.32,1.32,0,0,1-1.42-1.49c.06-.52.06-.52,1.54-2.33,2.46-3.11,3.49-6.13,4.32-12.7l.51-3.94A3.12,3.12,0,0,1,231,56Zm-16-11.28a1.59,1.59,0,0,1,1.66-1.33,1.2,1.2,0,0,1,1.32,1.33l-.76,5.92h8.67a.86.86,0,0,0,.95-.84l.44-3.47A1.6,1.6,0,0,1,256.53,45a1.2,1.2,0,0,1,1.32,1.33l-.5,3.91a3.06,3.06,0,0,1-3.37,3h-21.8c-2,0-2.85-1-2.6-3l.5-3.91A1.6,1.6,0,0,1,231.74,45a1.19,1.19,0,0,1,1.32,1.33l-.43,3.43c-.08.56.16.88.73.88h8.46Zm-8.92,19.7a1,1,0,0,1-1-1.29A1.37,1.37,0,0,1,234,61.86h21.48a1,1,0,0,1,1,1.28,1.39,1.39,0,0,1-1.3,1.29h-9.75l-.52,4.07H257.6a1.08,1.08,0,0,1,1,1.33,1.46,1.46,0,0,1-1.38,1.33H244.52l-1,7.74a1.63,1.63,0,0,1-1.67,1.33c-.88,0-1.42-.53-1.32-1.33l1-7.74H230.7a1.08,1.08,0,0,1-1-1.33A1.43,1.43,0,0,1,231,68.5h10.84l.52-4.07Z"/><path class="cls-6" d="M42.12,42.34a.78.78,0,0,0,1.22.15l.15-.15c.47-.57,1-1.12,1.49-1.65,8-8.16,19.52-8.16,25.66,0a18.47,18.47,0,0,1,3.11,6.64,2.54,2.54,0,0,1-1,2.93,2,2,0,0,1-.42.19c-1.73.83-2.26-.06-2.56-1.27C67.67,41,59.9,37.13,52.37,40.6a16.67,16.67,0,0,0-4.86,3.46,19.26,19.26,0,0,0-3.6,5.13c-.42.88-.59,1.65-2.09,1.65-1.34,0-1.49-.82-1.71-1.65a14.37,14.37,0,0,0-2.41-5.13c-4.73-6.3-13.58-6.32-19.78,0l0,0a19.52,19.52,0,0,0-3.59,5.11c-.58,1.22-1.19,2.1-2.85,1.27s-1.32-1.91-.74-3.12c5.14-10.63,16.36-15.59,25.06-11.09A15.52,15.52,0,0,1,41,40.72,13.59,13.59,0,0,1,42.12,42.34Z"/><path class="cls-6" d="M41.82,52.88a3.54,3.54,0,0,1-3.64-3l0-.12a12.13,12.13,0,0,0-2.07-4.44,9.54,9.54,0,0,0-7-3.91,12.62,12.62,0,0,0-9.65,4.08,17.12,17.12,0,0,0-3.23,4.6,4.52,4.52,0,0,1-2.46,2.56,4,4,0,0,1-3.14-.35c-1.65-.82-3.27-2.5-1.66-5.83A24.7,24.7,0,0,1,22.93,33.53a17.57,17.57,0,0,1,13.78.9,17.3,17.3,0,0,1,5.93,5.06l.3.39c.19-.21.39-.42.59-.62,4.56-4.63,10.46-7.07,16.16-6.69a17,17,0,0,1,12.58,6.91,20.59,20.59,0,0,1,3.43,7.27A4.59,4.59,0,0,1,73.77,52a5.12,5.12,0,0,1-.71.34,3.83,3.83,0,0,1-3.3.17,4,4,0,0,1-2-2.84,10.87,10.87,0,0,0-5.67-7.4,10.27,10.27,0,0,0-8.87.17,14.39,14.39,0,0,0-4.26,3,17.23,17.23,0,0,0-3.22,4.59l-.11.24A3.8,3.8,0,0,1,41.82,52.88ZM58,37.28a13.55,13.55,0,0,1,5.88,1.33,14.83,14.83,0,0,1,7.81,9.92h0a.59.59,0,0,0,.19-.47l-.08-.22A16.22,16.22,0,0,0,69,41.92a13,13,0,0,0-9.59-5.28c-4.52-.3-9.27,1.69-13,5.48-.48.48-.94,1-1.38,1.52a2.59,2.59,0,0,1-.4.41,2.88,2.88,0,0,1-2.37.66,2.76,2.76,0,0,1-1.91-1.33,12.49,12.49,0,0,0-1-1.41A13.56,13.56,0,0,0,34.84,38a13.4,13.4,0,0,0-10.62-.65A20,20,0,0,0,14,45.58a21.46,21.46,0,0,1,2.42-2.95,16.73,16.73,0,0,1,12.85-5.31,13.55,13.55,0,0,1,10,5.52A16.26,16.26,0,0,1,42,48.44l.06-.13a21.33,21.33,0,0,1,4-5.67,18.47,18.47,0,0,1,5.47-3.89A15.37,15.37,0,0,1,58,37.28Zm-16,3.77h0Z"/><rect class="cls-6" x="54.17" y="62.04" width="31.09" height="7.7" transform="translate(-3.74 127.57) rotate(-83.4)"/><path class="cls-6" d="M71.93,79.38a20.6,20.6,0,0,0-3.44-7.27,16.94,16.94,0,0,0-12.58-6.9c-5.71-.38-11.6,2.06-16.15,6.68l-.6.63c-.09-.14-.19-.26-.29-.39a17.27,17.27,0,0,0-5.94-5.07,17.63,17.63,0,0,0-13.77-.9,24.71,24.71,0,0,0-14,12.91c-1.62,3.33,0,5,1.66,5.83a4,4,0,0,0,3.13.36,4.47,4.47,0,0,0,2.46-2.57,17.07,17.07,0,0,1,3.23-4.59A12.61,12.61,0,0,1,25.24,74a9.54,9.54,0,0,1,7.06,3.9,12.29,12.29,0,0,1,2.07,4.44l0,.12a3.56,3.56,0,0,0,3.65,3A3.81,3.81,0,0,0,41.86,83l.11-.24a17.4,17.4,0,0,1,3.22-4.59,14.53,14.53,0,0,1,4.25-3,10.3,10.3,0,0,1,8.87-.16A10.8,10.8,0,0,1,64,82.32a4,4,0,0,0,2,2.84,3.83,3.83,0,0,0,3.3-.18,4.19,4.19,0,0,0,.71-.34A4.61,4.61,0,0,0,71.93,79.38Z"/><path class="cls-7" d="M43.34,42.49l.15-.15c.47-.57,1-1.12,1.49-1.65,8-8.16,19.52-8.16,25.66,0a18.47,18.47,0,0,1,3.11,6.64,2.54,2.54,0,0,1-1,2.93,2,2,0,0,1-.42.19c-1.73.83-2.26-.06-2.56-1.27C67.67,41,59.9,37.13,52.37,40.6a16.67,16.67,0,0,0-4.86,3.46,19.26,19.26,0,0,0-3.6,5.13c-.42.88-.59,1.65-2.09,1.65-1.34,0-1.49-.82-1.71-1.65C39.62,47.27,42.92,42.84,43.34,42.49Z"/><path class="cls-7" d="M9.94,75.15l.15-.16c.47-.57,1-1.12,1.49-1.65,8-8.16,19.52-8.16,25.66,0A18.47,18.47,0,0,1,40.35,80a2.52,2.52,0,0,1-1,2.93,1.59,1.59,0,0,1-.42.19c-1.73.83-2.25-.06-2.56-1.27C34.27,73.63,26.5,69.78,19,73.25a16.67,16.67,0,0,0-4.86,3.46,19.43,19.43,0,0,0-3.6,5.13c-.42.88-.59,1.65-2.09,1.65-1.34,0-1.48-.82-1.71-1.65C6.23,79.92,9.52,75.49,9.94,75.15Z"/><rect class="cls-6" x="60.88" y="69.56" width="15.94" height="7.7" transform="translate(-11.99 133.37) rotate(-83.4)"/><line class="cls-8" x1="11.45" y1="50.44" x2="7.88" y2="81.33"/><line class="cls-8" x1="41.82" y1="50.84" x2="38.25" y2="81.73"/><rect class="cls-9" width="569" height="89"/></g></g></svg>