<?xml version="1.0" encoding="UTF-8" standalone="no"?>
<svg
   viewBox="0 0 100 100"
   version="1.1"
   id="svg82"
   sodipodi:docname="work.svg"
   inkscape:version="1.1 (c68e22c387, 2021-05-23)"
   xmlns:inkscape="http://www.inkscape.org/namespaces/inkscape"
   xmlns:sodipodi="http://sodipodi.sourceforge.net/DTD/sodipodi-0.dtd"
   xmlns="http://www.w3.org/2000/svg"
   xmlns:svg="http://www.w3.org/2000/svg">
  <sodipodi:namedview
     id="namedview84"
     pagecolor="#ffffff"
     bordercolor="#666666"
     borderopacity="1.0"
     inkscape:pageshadow="2"
     inkscape:pageopacity="0.0"
     inkscape:pagecheckerboard="0"
     showgrid="false"
     inkscape:zoom="8.42"
     inkscape:cx="50"
     inkscape:cy="50"
     inkscape:window-width="1920"
     inkscape:window-height="1046"
     inkscape:window-x="-11"
     inkscape:window-y="-11"
     inkscape:window-maximized="1"
     inkscape:current-layer="svg82" />
  <defs
     id="defs4">
    <style
       id="style2">.cls-1{fill:#e0e0e0;}.cls-2{fill:#6f6f6f;}.cls-3{fill:#eae9e4;}.cls-4{fill:#6f564d;}.cls-5,.cls-6,.cls-7{fill:none;}.cls-5,.cls-7,.cls-9{stroke:#48413d;stroke-width:0.6px;}.cls-10,.cls-5,.cls-7,.cls-9{stroke-linecap:round;}.cls-5,.cls-9{stroke-miterlimit:10;}.cls-10,.cls-7,.cls-8{stroke-linejoin:round;}.cls-8{fill:#309c68;stroke-width:0.67px;}.cls-10,.cls-8{stroke:#030000;}.cls-10,.cls-9{fill:#fff;}.cls-10{stroke-width:0.51px;}.cls-11{fill:#bababa;}.cls-12{fill:#a1a1a1;}.cls-13{fill:#89866c;}</style>
  </defs>
  <path
     class="cls-3"
     d="m 58,19.73 a 33.19,33.19 0 0 1 -0.56,5.92 c -1.83,6.76 -5.22,8.87 -9.3,9.16 -1.88,0.13 -5.21,-2.26 -6.62,-5.22 a 15.41,15.41 0 0 1 -1,-6.34"
     id="path12" />
  <polygon
     class="cls-3"
     points="39.7,38.47 46.18,35.37 46.1,32.94 52.72,32.8 52.52,35.23 57.87,38.19 47.45,45.51 "
     id="polygon14" />
  <path
     class="cls-4"
     d="m 34.2,40.72 c -0.3,0.9 -2.11,12.4 -2.11,12.4 0,0 -7.88,8.88 -6.76,9.44 C 26.45,63.12 36.82,61.9 37,62 c 0.18,0.1 13.77,1.7 13.77,1.7 0,0 4.68,-0.64 5.13,-0.72 a 56.22,56.22 0 0 0 6.62,-0.7 c 1.87,-0.45 4.9,0.52 5.27,-0.6 a 19.22,19.22 0 0 0 0.15,-4.55 c 0,-0.38 0.75,-0.82 0.9,-2 a 34.41,34.41 0 0 0 -0.37,-5.3 c -0.08,-0.45 -0.3,-4.63 -0.6,-6.12 -0.3,-1.49 -0.67,-3.51 -1.79,-4.7 -1.12,-1.19 -4.33,-1.87 -5.3,-2.32 -0.97,-0.45 -0.67,-0.52 -1.42,-1 A 7.32,7.32 0 0 0 57.27,35.17 12.17,12.17 0 0 0 56,34.94 2.21,2.21 0 0 0 53.74,35.77 c -0.87,2 -3,5.94 -6.32,5.94 -3.08,0 -2.83,-3.45 -2.6,-5.47 0.1,-0.84 -0.76,-1.26 -1.65,-1 -2.52,0.79 -6.92,2.41 -7.2,3.34"
     id="path16" />
  <path
     class="cls-5"
     d="m 60.25,41.45 c 0.08,0.52 0.08,3.21 0.08,3.88 0,0.67 -0.08,2.32 -0.08,2.61 0,0.29 -0.14,2.62 -0.14,2.62"
     id="path18" />
  <path
     class="cls-6"
     d="M 11.73,59.44 50.81,62.91 84,65.49 c 0,0 3.16,-26.89 -8.74,-43.56 C 70.65,15.53 55.51,7.6 46,9.28 36.49,10.96 27.52,14.65 20.24,21.82 12.96,28.99 11.73,59.44 11.73,59.44 Z"
     id="path20" />
  <polyline
     class="cls-7"
     points="83.95 65.49 50.81 62.91 11.73 59.44"
     id="polyline22" />
  <path
     class="cls-8"
     d="m 41,61.41 c 0,0 -4.65,1.44 -3.6,2.15 a 5.21,5.21 0 0 0 2.95,0.47 z"
     id="path24" />
  <path
     class="cls-3"
     d="m 54.49,57.77 c -1.29,-0.84 -5.29,3.64 -6.64,3 -1.35,-0.64 -5.41,0.15 -6.21,0.23 -0.8,0.08 -1.76,1.77 -1.76,1.77 0,0 -2.11,1.45 -1.1,1.76 1.01,0.31 2.35,-0.9 2.35,-0.9 0.62,1.18 1.32,0.29 1.56,-0.09 v 0 c -0.14,0.37 -0.43,1.29 0.27,1.05 a 5.15,5.15 0 0 0 1.48,-0.78 c 0,0 -0.23,0.79 0.68,0.49 A 3.71,3.71 0 0 0 45.78,64 c 1,0.63 2.38,0.08 2.9,0 0,0 -0.59,0.7 2.26,-0.56 2.85,-1.26 6.72,-1.64 6.62,-1.84 a 14.26,14.26 0 0 0 -3.07,-3.83 z"
     id="path26" />
  <line
     class="cls-9"
     x1="44.16"
     y1="64.099998"
     x2="44.990002"
     y2="62.869999"
     id="line28" />
  <line
     class="cls-9"
     x1="41.130001"
     y1="63.630001"
     x2="41.869999"
     y2="62.23"
     id="line30" />
  <line
     class="cls-9"
     x1="42.779999"
     y1="63.400002"
     x2="43.41"
     y2="62.43"
     id="line32" />
  <path
     class="cls-4"
     d="m 59.17,52.3 c -0.34,0.45 -4.9,3.74 -4.9,3.74 l -3.79,2 a 3.44,3.44 0 0 1 1.65,2 8.08,8.08 0 0 1 -0.14,2.9 c -0.05,0.21 -0.6,0.54 -0.6,0.54 l 4,1 3.88,0.66 a 42.62,42.62 0 0 0 6.06,-1.55 c 1.55,-0.71 2.24,-0.5 2.45,-1.87 A 10.11,10.11 0 0 0 67.72,58.8"
     id="path34" />
  <path
     class="cls-10"
     d="m 35.35,65.35 c 0.75,0 1.33,0.23 1,0.65 a 1.76,1.76 0 0 1 -1.8,0.18 c -0.43,-0.24 -0.32,-0.88 0.8,-0.83 z"
     id="path36" />
  <path
     class="cls-10"
     d="m 42.49,67.64 c 0.75,0 1.33,0.22 1,0.64 a 1.76,1.76 0 0 1 -1.8,0.19 c -0.43,-0.24 -0.32,-0.89 0.8,-0.83 z"
     id="path38" />
  <path
     class="cls-10"
     d="m 39.65,67.5 c 0.75,0 1.34,0.23 1,0.65 a 1.76,1.76 0 0 1 -1.8,0.18 c -0.42,-0.24 -0.31,-0.88 0.8,-0.83 z"
     id="path40" />
  <path
     class="cls-10"
     d="m 36.82,67.36 c 0.75,0 1.34,0.23 1,0.65 a 1.77,1.77 0 0 1 -1.81,0.18 C 35.6,68 35.7,67.31 36.82,67.36 Z"
     id="path42" />
  <path
     class="cls-10"
     d="m 30.71,67.07 c 0.75,0 1.33,0.23 1,0.65 a 1.76,1.76 0 0 1 -1.8,0.18 c -0.43,-0.24 -0.32,-0.9 0.8,-0.83 z"
     id="path44" />
  <path
     class="cls-10"
     d="m 27.87,66.93 c 0.75,0 1.34,0.23 1,0.65 a 1.76,1.76 0 0 1 -1.8,0.18 c -0.42,-0.23 -0.31,-0.88 0.8,-0.83 z"
     id="path46" />
  <path
     class="cls-10"
     d="m 25,66.8 c 0.75,0 1.33,0.22 1,0.64 a 1.78,1.78 0 0 1 -1.81,0.19 C 23.82,67.39 23.92,66.74 25,66.8 Z"
     id="path48" />
  <path
     class="cls-10"
     d="m 41.13,69.44 c 0.75,0 1.33,0.23 1,0.65 a 1.8,1.8 0 0 1 -1.81,0.18 C 39.91,70 40,69.39 41.13,69.44 Z"
     id="path50" />
  <path
     class="cls-10"
     d="m 38.3,69.3 c 0.75,0 1.33,0.23 1,0.65 a 1.76,1.76 0 0 1 -1.8,0.18 C 37.07,69.9 37.18,69.25 38.3,69.3 Z"
     id="path52" />
  <path
     class="cls-10"
     d="m 35.46,69.17 c 0.75,0 1.34,0.22 1,0.64 A 1.76,1.76 0 0 1 34.66,70 c -0.42,-0.24 -0.31,-0.89 0.8,-0.83 z"
     id="path54" />
  <path
     class="cls-10"
     d="m 33.69,67.21 c 0.75,0 1.33,0.23 1,0.65 a 1.75,1.75 0 0 1 -1.8,0.18 c -0.42,-0.23 -0.32,-0.88 0.8,-0.83 z"
     id="path56" />
  <path
     class="cls-10"
     d="m 32.33,69 c 0.75,0 1.34,0.22 1,0.64 a 1.76,1.76 0 0 1 -1.8,0.19 C 31.11,69.61 31.21,69 32.33,69 Z"
     id="path58" />
  <path
     class="cls-10"
     d="m 29.35,68.87 c 0.75,0 1.33,0.23 1,0.65 a 1.77,1.77 0 0 1 -1.81,0.18 c -0.41,-0.23 -0.31,-0.88 0.81,-0.83 z"
     id="path60" />
  <path
     class="cls-10"
     d="m 26.52,68.74 c 0.75,0 1.33,0.22 1,0.64 a 1.76,1.76 0 0 1 -1.8,0.19 c -0.43,-0.24 -0.32,-0.89 0.8,-0.83 z"
     id="path62" />
  <path
     class="cls-10"
     d="m 23.68,68.6 c 0.75,0 1.34,0.23 1,0.65 a 1.76,1.76 0 0 1 -1.8,0.18 c -0.42,-0.24 -0.32,-0.88 0.8,-0.83 z"
     id="path64" />
  <polygon
     class="cls-11"
     points="48.5,65.36 25.49,63.65 16.9,69.82 42.29,71.71 "
     id="polygon66" />
  <path
     class="cls-3"
     d="m 48.42,67.62 0.08,-2.26 -6.21,6.35 -25.39,-1.89 0.16,1.37 c 0,0 0,1.28 1.93,1.56 1.93,0.28 23.3,1.6 23.3,1.6 z"
     id="path68" />
  <path
     class="cls-3"
     d="m 56.4,23.86 c 0,0 0.65,-1.62 2,-1.13 1.63,0.6 0.91,2.92 0.06,3.76 a 5,5 0 0 1 -2.25,1.13"
     id="path70" />
  <polyline
     class="cls-5"
     points="39.27 42.98 38.57 52.84 39.98 61.85 33.08 59.74 29.98 59.32"
     id="polyline72" />
  <path
     class="cls-12"
     d="m 16.24,65.79 0.66,4 25.39,1.89 c 0,0 -1.29,-10.37 -1.8,-12.68 -0.51,-2.31 -2.2,-2 -2.2,-2 l -22,-1.27 c 0,0 -1.59,-0.27 -1.49,1.27 0.1,1.54 0.9,5.5 0.9,5.5"
     id="path74" />
  <path
     class="cls-13"
     d="m 39.47,19.26 a 4.9,4.9 0 0 0 -0.37,1.36 3.87,3.87 0 0 0 1.53,3.62 c 1.67,1.18 3.73,0.73 5.63,1.11 a 23.66,23.66 0 0 0 5,0.78 c 1.32,0 2.09,-0.6 3.37,0.28 1,0.69 0.79,2.87 1.25,3.94 0.88,-0.37 1.29,-5.18 1.43,-6.07 0.2,-1.33 1.59,-0.89 1.11,-2.16 -0.19,-0.5 0.75,-3.29 -0.3,-4.49 -1.05,-1.2 -5.25,-2.07 -6.22,-2.58 A 9.72,9.72 0 0 0 41,17 7.23,7.23 0 0 0 39.47,19.26 Z"
     id="path76" />
  <path
     class="cls-5"
     d="m 53,57.14 a 20.48,20.48 0 0 1 4,-1.94 4.88,4.88 0 0 0 2.39,-1.8"
     id="path78" />
</svg>
