<?xml version="1.0" encoding="UTF-8" standalone="no"?>
<svg
   viewBox="0 0 100 100"
   version="1.1"
   id="svg38"
   sodipodi:docname="plan.svg"
   inkscape:version="1.1 (c68e22c387, 2021-05-23)"
   xmlns:inkscape="http://www.inkscape.org/namespaces/inkscape"
   xmlns:sodipodi="http://sodipodi.sourceforge.net/DTD/sodipodi-0.dtd"
   xmlns="http://www.w3.org/2000/svg"
   xmlns:svg="http://www.w3.org/2000/svg">
  <sodipodi:namedview
     id="namedview40"
     pagecolor="#ffffff"
     bordercolor="#666666"
     borderopacity="1.0"
     inkscape:pageshadow="2"
     inkscape:pageopacity="0.0"
     inkscape:pagecheckerboard="0"
     showgrid="false"
     inkscape:zoom="8.42"
     inkscape:cx="50"
     inkscape:cy="50"
     inkscape:window-width="1920"
     inkscape:window-height="1046"
     inkscape:window-x="-11"
     inkscape:window-y="-11"
     inkscape:window-maximized="1"
     inkscape:current-layer="svg38" />
  <defs
     id="defs4">
    <style
       id="style2">.cls-1{fill:#e0e0e0;}.cls-2{fill:#6f6f6f;}.cls-3,.cls-7,.cls-8{fill:none;stroke-miterlimit:10;}.cls-3{stroke:#916225;stroke-width:2.14px;}.cls-4{fill:#595757;}.cls-5{fill:#fff;}.cls-6{fill:#4c5778;}.cls-7,.cls-8{stroke:gray;stroke-width:1.07px;}.cls-7{stroke-linecap:round;}.cls-9{fill:gray;}</style>
  </defs>
  <path
     class="cls-3"
     d="m 66.82,49 c 0,0 6.85,-4.26 10.18,-6.15 3.33,-1.89 3.55,-6.38 3.79,-12.29 0.24,-5.91 -5.44,-13.25 -17.26,-8 C 59,24.5 55,20.86 47.19,24.41 39.38,27.96 34.66,37.65 34.66,37.65"
     id="path18" />
  <path
     class="cls-4"
     d="m 67.66,55.13 c -0.43,1.37 -0.84,2.75 -1.23,4.13 -0.17,0.6 -0.27,1.21 -0.4,1.82 a 1.24,1.24 0 0 1 -0.17,0.37 c -0.43,0.64 -0.84,1.28 -1.3,1.9 a 0.78,0.78 0 0 1 -0.54,0.3 21.15,21.15 0 0 1 -2.52,-0.1 c -0.51,0 -3.39,-1 -3.67,-0.6 -0.28,0.4 -2.21,2.69 -3.55,2.6 -1.78,-0.12 -13.41,-2.36 -15,-2.51 -1.59,-0.15 -2.92,-0.35 -4.38,-0.58 -1.27,-0.19 -2.52,-0.43 -3.78,-0.68 a 4,4 0 0 1 -1.27,-0.47 1,1 0 0 1 -0.33,-0.77 c 0.09,-2.89 0.2,-5.79 0.34,-8.68 a 21.15,21.15 0 0 1 0.34,-2.5 c 0.24,-1.4 0.53,-2.79 0.73,-4.2 0.2,-1.41 0.25,-2.55 0.4,-3.82 a 30.94,30.94 0 0 1 1,-4.55 1.3,1.3 0 0 1 1.36,-1.15 33.15,33.15 0 0 1 7.18,0.11 c 1,0.12 1.93,0.29 2.89,0.45 0.13,0 0.31,0 0.37,0.14 0.36,0.52 0.94,0.46 1.42,0.48 a 10.64,10.64 0 0 1 2.39,0.46 17.56,17.56 0 0 0 2.53,0.61 17.75,17.75 0 0 1 3.24,0.85 17.43,17.43 0 0 0 2.66,0.77 c 1.8,0.23 3.48,0.89 5.23,1.29 0.76,0.18 1.56,0.24 2.33,0.36 1.16,0.18 2.32,0.34 3.47,0.57 a 13.39,13.39 0 0 1 1.7,0.54 c 0.53,0.19 -1.21,12.13 -1.44,12.86 z"
     id="path20" />
  <path
     class="cls-5"
     d="m 42,56 c -2,-0.13 -4.47,-0.82 -5.51,-1.92 a 3.56,3.56 0 0 1 -0.64,-0.82 c -1.43,-2.88 -1.77,-5.8 -0.24,-8.77 0.08,-0.14 0.14,-0.29 0.21,-0.44 a 6.73,6.73 0 0 1 3.92,-3.73 c 0.3,-0.12 4.9,-2.21 10.39,3.26 2,2 1.28,7.59 -0.5,9.45 a 9.34,9.34 0 0 1 -2.95,1.82 12.84,12.84 0 0 1 -3,1.09 A 7.1,7.1 0 0 1 42,56 Z"
     id="path22" />
  <path
     class="cls-6"
     d="m 42.26,42.65 c 3.53,0.23 6.84,1.82 6.31,6.33 a 5.49,5.49 0 0 1 -3.47,4.41 c -2.5,0.92 -5.33,-0.13 -7.52,-1.66 a 3.59,3.59 0 0 1 -1,-0.94 3.84,3.84 0 0 1 -0.19,-2.66 c 0.35,-2.1 1,-4.58 3,-5.29 a 5.88,5.88 0 0 1 1.92,-0.22 c 0.32,0 0.69,0.01 0.95,0.03 z"
     id="path24" />
  <path
     class="cls-4"
     d="m 57.83,40.72 a 27,27 0 0 0 0,-4.49 l -5.91,-0.71 -6.62,-1.42 -5,-0.94 -5,0.47 -0.71,4 9.47,-1.31 z"
     id="path26" />
  <polyline
     class="cls-7"
     points="56.88 45.22 56.18 51.13 55.23 56.09 54.52 57.75"
     id="polyline28" />
  <polygon
     class="cls-4"
     points="30.95,47.46 33.24,36.47 28.04,36.7 25.44,53.49 30.27,58.65 "
     id="polygon30" />
  <polyline
     class="cls-8"
     points="33.48 41.67 31.82 49 31.58 54.44"
     id="polyline32" />
  <path
     class="cls-9"
     d="m 51.26,37.56 a 10.71,10.71 0 0 1 1.28,0.24 c 1,0.3 2,0.65 2.92,1 a 0.52,0.52 0 0 1 0.37,0.64 c -0.12,0.59 -0.2,1.19 -0.36,1.77 a 1.11,1.11 0 0 1 -1.35,0.66 c -1.2,-0.24 -2.39,-0.5 -3.58,-0.79 a 1.12,1.12 0 0 1 -0.91,-1.47 c 0.06,-0.35 0.16,-0.69 0.24,-1 0.22,-0.87 0.26,-0.9 1.14,-1 h 0.24 z"
     id="path34" />
</svg>
