<?xml version="1.0" encoding="UTF-8" standalone="no"?>
<svg
   viewBox="0 0 100 100"
   version="1.1"
   id="svg64"
   sodipodi:docname="illust_content_sea_activity.svg"
   width="100"
   height="100"
   inkscape:version="1.1 (c68e22c387, 2021-05-23)"
   xmlns:inkscape="http://www.inkscape.org/namespaces/inkscape"
   xmlns:sodipodi="http://sodipodi.sourceforge.net/DTD/sodipodi-0.dtd"
   xmlns="http://www.w3.org/2000/svg"
   xmlns:svg="http://www.w3.org/2000/svg"
   xmlns:rdf="http://www.w3.org/1999/02/22-rdf-syntax-ns#"
   xmlns:cc="http://creativecommons.org/ns#"
   xmlns:dc="http://purl.org/dc/elements/1.1/">
  <metadata
     id="metadata68">
    <rdf:RDF>
      <cc:Work
         rdf:about="">
        <dc:format>image/svg+xml</dc:format>
        <dc:type
           rdf:resource="http://purl.org/dc/dcmitype/StillImage" />
      </cc:Work>
    </rdf:RDF>
  </metadata>
  <sodipodi:namedview
     pagecolor="#ffffff"
     bordercolor="#666666"
     borderopacity="1"
     objecttolerance="10"
     gridtolerance="10"
     guidetolerance="10"
     inkscape:pageopacity="0"
     inkscape:pageshadow="2"
     inkscape:window-width="1920"
     inkscape:window-height="1046"
     id="namedview66"
     showgrid="false"
     inkscape:zoom="7.4814815"
     inkscape:cx="54"
     inkscape:cy="54"
     inkscape:window-x="-11"
     inkscape:window-y="-11"
     inkscape:window-maximized="1"
     inkscape:current-layer="svg64"
     inkscape:document-rotation="0"
     inkscape:pagecheckerboard="0" />
  <defs
     id="defs4">
    <style
       id="style2">.cls-1{fill:#fff;}.cls-12,.cls-2,.cls-8{fill:none;}.cls-2{stroke:#177cbc;stroke-linejoin:round;stroke-width:5px;}.cls-11,.cls-2,.cls-8{stroke-linecap:round;}.cls-3{font-size:16.55px;fill:#177cbc;font-family:mini-wakuwaku-maru-83pv-RKSJ-H, mini-wakuwaku-maru;letter-spacing:-0.08em;}.cls-4{fill:#008bd9;}.cls-11,.cls-5{fill:#f8c5ab;}.cls-6{fill:#8e9ecf;}.cls-7{fill:#985f47;}.cls-11,.cls-8{stroke:#3e3a39;stroke-width:0.5px;}.cls-9{fill:#3e3a39;}.cls-10{fill:#c69e62;}.cls-12{stroke:#008bd9;}</style>
  </defs>
  <path
     class="cls-4"
     d="m 20.556548,65.105946 a 8.5875,8.5875 0 0 1 -1.23,1.335 30.45,30.45 0 0 1 -3.4125,2.0775 c -0.2775,0.1425 -0.9225,-0.12 -1.2075,-0.405 -0.285,-0.285 -0.0675,-0.66 0.3675,-0.8475 a 19.2525,19.2525 0 0 0 2.805,-1.335 5.25,5.25 0 0 0 1.5,-1.6275 c 0.2925,-0.4725 0.96,-0.75 0.8475,-1.5 0,-0.0975 0.5325,-0.4275 0.75,-0.375 a 1.5,1.5 0 0 1 0.9525,0.6225 21.705,21.705 0 0 1 0.5175,2.25 c 0.165,0.63 0.42,1.245 0.5925,1.875 a 0.6975,0.6975 0 0 1 -0.0975,0.6 c -0.1725,0.1275 -0.5925,0.2325 -0.6675,0.1425 a 17.3625,17.3625 0 0 1 -1.335,-1.7925 5.25,5.25 0 0 1 -0.3825,-1.02 z"
     id="path12"
     style="stroke-width:0.75" />
  <path
     class="cls-4"
     d="m 69.306548,46.783446 a 8.955,8.955 0 0 1 -1.23,1.335 31.14,31.14 0 0 1 -3.4125,2.0775 c -0.2775,0.1425 -0.93,-0.1275 -1.2075,-0.405 -0.2775,-0.2775 -0.0675,-0.66 0.3675,-0.8475 a 18.54,18.54 0 0 0 2.835,-1.3275 5.1975,5.1975 0 0 0 1.5,-1.62 c 0.285,-0.4725 0.96,-0.75 0.8475,-1.5 0,-0.0975 0.5325,-0.435 0.75,-0.3825 a 1.455,1.455 0 0 1 0.945,0.63 21.75,21.75 0 0 1 0.525,2.25 c 0.165,0.63 0.42,1.245 0.5925,1.875 a 0.75,0.75 0 0 1 -0.105,0.5925 c -0.165,0.135 -0.5925,0.2325 -0.6675,0.15 a 18.45,18.45 0 0 1 -1.3275,-1.7925 5.25,5.25 0 0 1 -0.4125,-1.035 z"
     id="path14"
     style="stroke-width:0.75" />
  <path
     class="cls-4"
     d="m 20.376548,48.313446 a 8.5875,8.5875 0 0 1 -1.23,1.335 31.2075,31.2075 0 0 1 -3.4125,2.085 c -0.2775,0.1425 -0.93,-0.1275 -1.2075,-0.405 -0.2775,-0.2775 -0.0675,-0.66 0.3675,-0.8475 a 20.94,20.94 0 0 0 2.805,-1.365 5.115,5.115 0 0 0 1.5,-1.6275 c 0.2925,-0.465 0.9675,-0.75 0.855,-1.5 0,-0.0975 0.525,-0.4275 0.75,-0.375 a 1.425,1.425 0 0 1 0.945,0.63 21.1275,21.1275 0 0 1 0.525,2.25 c 0.165,0.6375 0.42,1.245 0.5925,1.875 a 0.75,0.75 0 0 1 -0.105,0.6 c -0.165,0.135 -0.5925,0.2325 -0.6675,0.1425 a 18.045,18.045 0 0 1 -1.3275,-1.785 5.19,5.19 0 0 1 -0.39,-1.0125 z"
     id="path16"
     style="stroke-width:0.75" />
  <path
     class="cls-4"
     d="m 82.964048,66.298446 c 0.555,0.4725 1.08,0.75 1.2825,1.125 a 33.36,33.36 0 0 1 1.3425,3.36 c 0.06,0.1875 -0.1725,0.4725 -0.27,0.75 -0.345,-0.165 -0.81,-0.24 -1.0275,-0.51 a 8.1375,8.1375 0 0 1 -0.96,-1.71 c -0.2475,-0.5625 -0.4425,-0.5175 -0.8475,-0.1275 a 9.8325,9.8325 0 0 1 -3.45,2.5575 2.865,2.865 0 0 1 -1.4475,0.0675 c -0.225,-0.045 -0.4125,-0.465 -0.5175,-0.75 0,-0.0675 0.3225,-0.3375 0.54,-0.42 a 10.3725,10.3725 0 0 0 2.3925,-0.93 15.2475,15.2475 0 0 0 2.055,-2.34 c 0.2925,-0.3075 0.54,-0.6225 0.9075,-1.0725 z"
     id="path18"
     style="stroke-width:0.75" />
  <path
     class="cls-5"
     d="m 46.926548,32.758446 -3.2175,0.075 -4.0125,1.59 c 0,0 -5.49,4.4325 -6.9,8.5575 -0.315,0.9375 -1.545,3.6075 -0.57,3.3 1.4175,-0.4425 4.56,-1.545 6.8325,-2.505 0.45,1.935 -0.2325,5.01 -0.2325,5.01 0.96,-0.045 2.955,2.9325 4.1775,2.7675 3.075,-0.4125 4.5,0.33 6.9225,-1.785 a 1.0275,1.0275 0 0 0 0.21,-0.54 7.0275,7.0275 0 0 1 0.825,-0.75 c 0.195,-0.1425 7.5675,-5.175 8.25,-6.075 0.6825,-0.9 -6.03,-6.8625 -8.655,-9.105 -0.66,-0.54 -3.63,-0.54 -3.63,-0.54 z m -10.1475,9.0825 2.25,-2.7075 c -0.09,0.66 -0.18,1.3575 -0.27,2.0475 -1.05,0.3675 -1.98,0.66 -1.98,0.66 z m 13.5,4.665 c 0,-0.6675 -0.6225,-1.0575 -0.6225,-1.815 0,-3.4125 0.1875,-6.0375 0,-7.5825 l 6.075,6 c 0,0 -4.0275,2.8275 -5.4675,3.3975 z"
     id="path20"
     style="stroke-width:0.75" />
  <path
     class="cls-6"
     d="m 77.856548,57.245946 a 1.17,1.17 0 0 0 -1.08,-0.5475 c -0.435,0 -0.855,-0.0675 -1.305,0 -0.5625,0.0675 -1.1325,0.0525 -1.6875,0.15 -0.75,0.135 -1.545,0.3375 -2.3175,0.51 l -1.0575,0.2325 -1.0425,0.2325 c -0.285,0.06 -0.555,0.15 -0.84,0.2025 a 8.25,8.25 0 0 0 -1.2825,0.24 c -0.2775,0.105 -0.5775,0.18 -0.87,0.2625 l -1.1925,0.3375 a 3.4275,3.4275 0 0 0 -0.6075,0.15 5.01,5.01 0 0 1 -1.05,0.3225 h -0.1275 c -0.1875,0.06 -0.36,0.1425 -0.555,0.195 -6.7125,0.36 -18.195,6.0675 -22.5,8.34 v 0 l -0.75,0.4575 -1.035,0.495 -1.1775,0.6975 -1.0725,0.69 -0.5025,0.3225 -0.285,0.2025 a 1.455,1.455 0 0 0 -0.3375,0.1875 4.5,4.5 0 0 0 -0.39,0.4575 0.2925,0.2925 0 0 1 -0.0975,0.045 c -0.0975,0.0525 -0.2175,0.09 -0.3075,0.1425 l -1.17,0.75 -1.155,0.75 -0.6675,0.4275 -0.3075,0.2325 -0.1725,0.1425 -1.38,0.9825 -1.08,0.75 -1.05,0.75 c -0.4425,0.3225 -0.8925,0.645 -1.3275,0.975 -0.435,0.33 -0.75,0.5775 -1.1025,0.87 -0.3525,0.2925 -0.63,0.4875 -0.9225,0.75 -0.405,0.375 -0.795,0.75 -1.185,1.14 -0.2025,0.2025 -0.4125,0.405 -0.6,0.615 -0.1875,0.21 -0.21,0.2925 -0.33,0.4275 -0.12,0.135 -0.4575,0.4875 -0.675,0.75 a 3.3525,3.3525 0 0 0 -0.3075,0.4425 c -0.24,0.39 -0.7875,0.66 -0.885,1.11 v 0 c -0.195,0.1125 -0.2025,0.285 -0.3075,0.4275 -0.105,0.1425 -0.2475,0.42 -0.3825,0.63 -0.135,0.21 -0.195,0.2325 -0.27,0.3525 a 6.75,6.75 0 0 0 -0.4575,0.9 0.8325,0.8325 0 0 0 0,0.555 1.92,1.92 0 0 0 1.155,0.99 l 0.81,0.3375 c 0,0 0.0525,0 0.075,0 h 0.81 c 0.285,0 0.5625,0 0.8475,0 a 3.795,3.795 0 0 0 0.4125,0 c 0.2025,0 0.39,-0.09 0.5925,-0.135 0.2025,-0.045 0.51,-0.0825 0.75,-0.1425 0.24,-0.06 0.6075,-0.165 0.915,-0.2475 a 1.935,1.935 0 0 0 0.315,-0.09 c 0.2475,-0.1125 0.4725,-0.2475 0.705,-0.375 a 1.875,1.875 0 0 1 0.285,-0.1125 l 0.75,-0.24 0.705,-0.225 a 0.705,0.705 0 0 0 0.165,-0.0525 c 0.255,-0.1125 0.5025,-0.2325 0.75,-0.3375 0.2475,-0.105 0.3825,-0.1425 0.5775,-0.21 l 0.9,-0.315 c 0,0 0,-0.045 0.0525,-0.0525 a 4.5,4.5 0 0 1 0.69,-0.3375 c 0.39,-0.135 0.8025,-0.2325 1.2225,-0.3525 l 0.06,0.06 0.36,-0.0975 h 0.1125 a 5.5275,5.5275 0 0 1 0.6075,-0.15 0.705,0.705 0 0 1 0.3525,0 c 0.195,0.0675 0.3375,0 0.3975,-0.12 0.06,-0.12 0,-0.12 0.0525,-0.1875 0.2325,0 0.33,-0.0825 0.285,-0.2475 l 8.6925,-2.4525 a 0.2175,0.2175 0 0 1 0,0.0675 0.615,0.615 0 0 0 0.4875,0 0.2325,0.2325 0 0 1 0.1425,0 0.57,0.57 0 0 0 0.375,-0.1275 c 0.225,-0.1275 0.4575,-0.2625 0.69,-0.3825 0.2325,-0.12 0.3975,-0.1875 0.5925,-0.285 0,0 0,0 0,0 l 2.895,-1.4175 h 0.045 c 0,0 0.0825,0 0.1425,-0.06 a 0.5325,0.5325 0 0 0 0.075,-0.105 l 0.4125,-0.2025 v 0 c 0,0 0.075,0 0.105,-0.06 v 0 l 1.23,-0.6075 0.09,0.045 a 0.27,0.27 0 0 1 0.135,-0.15 h 0.0375 a 0.525,0.525 0 0 1 0.2475,0 0.1875,0.1875 0 0 0 0.0975,0 l 0.33,-0.285 0.2925,0.075 a 1.005,1.005 0 0 1 0.285,-0.435 l 0.4275,-0.27 1.35,-0.6075 c 0.09,-0.045 0.195,-0.135 0.2625,-0.12 0.1875,0 0.24,-0.0675 0.33,-0.135 a 1.3275,1.3275 0 0 1 0.165,-0.12 c 0.5325,-0.255 1.0875,-0.4875 1.605,-0.75 0.3375,-0.1875 0.75,-0.3 1.0725,-0.495 0.3225,-0.195 0.75,-0.345 1.1175,-0.5175 0.075,0 0.1275,-0.12 0.2025,-0.1425 0.195,-0.0675 0.39,-0.1125 0.585,-0.1725 a 0.2025,0.2025 0 0 0 0.09,-0.0675 1.5675,1.5675 0 0 1 0.2325,-0.2175 c 0.27,-0.1425 0.54,-0.2775 0.8175,-0.405 0.4425,-0.2025 0.9,-0.39 1.35,-0.585 0.165,-0.0675 0.345,-0.12 0.51,-0.18 l 0.6225,-0.225 a 1.4325,1.4325 0 0 0 0.285,-0.135 4.815,4.815 0 0 1 0.3975,-0.285 c 0.2475,-0.1275 0.525,-0.21 0.75,-0.3375 0.225,-0.1275 0.33,-0.165 0.4875,-0.045 l 0.2625,-0.3075 a 0.495,0.495 0 0 0 0.555,-0.0825 c 0.3,-0.24 0.6225,-0.4575 0.9375,-0.69 h 0.0675 c 0.12,-0.0525 0.2475,-0.09 0.3675,-0.15 a 1.8375,1.8375 0 0 1 1.0125,-0.36 0.45,0.45 0 0 0 0.1725,-0.0375 c -0.15,-0.165 -0.15,-0.195 0.06,-0.315 0.21,-0.12 0.2925,-0.0825 0.4125,-0.1425 0.2625,-0.1425 0.5025,-0.3075 0.75,-0.45 a 1.1175,1.1175 0 0 1 0.27,-0.1275 2.25,2.25 0 0 0 0.495,-0.1575 c 0.39,-0.255 0.75,-0.5325 1.11,-0.81 0.2325,-0.18 0.45,-0.3675 0.6675,-0.555 0,0 0.0525,-0.0525 0.045,-0.0675 -0.0525,-0.2025 0.135,-0.315 0.3,-0.435 a 4.0575,4.0575 0 0 0 0.75,-0.645 0.5625,0.5625 0 0 1 0.3375,-0.1725 c 0.2175,0 0.27,-0.09 0.2625,-0.21 -0.0075,-0.12 0.0675,-0.2025 0.255,-0.2025 a 0.18,0.18 0 0 0 0.12,-0.0675 c 0.045,-0.09 0.0525,-0.195 0.105,-0.2775 a 1.185,1.185 0 0 1 0.6525,-0.57 h 0.075 l 0.84,-0.9975 c 0.1725,-0.1725 0.3525,-0.3525 0.5175,-0.5325 0.165,-0.18 0.3225,-0.3675 0.4875,-0.5475 a 1.1925,1.1925 0 0 1 0.165,-0.0975 0.75,0.75 0 0 1 0.06,-0.18 c 0.135,-0.195 0.2775,-0.39 0.4125,-0.5925 0.135,-0.2025 0.225,-0.3975 0.3825,-0.585 0.1575,-0.1875 0.405,-0.3675 0.405,-0.6225 a 0.1425,0.1425 0 0 1 0.06,-0.105 c 0.2475,-0.1725 0.2025,-0.4125 0.2775,-0.615 a 3.795,3.795 0 0 0 0.1875,-0.855 2.25,2.25 0 0 0 -0.405,-1.6575 z"
     id="path22"
     style="stroke-width:0.75" />
  <path
     class="cls-5"
     d="m 38.954048,74.405946 0.075,-2.58 -1.3275,0.12 -0.555,3.1425 a 7.095,7.095 0 0 1 -0.9675,2.1675 c -0.6825,0.855 -1.6275,1.1175 -1.89,1.815 -0.45,0 -1.1325,0.105 -0.9,0.5775 0.345,0.6825 1.23,0.15 1.23,0.15 1.5825,-0.0975 7.8075,-4.56 4.335,-5.3925 z"
     id="path24"
     style="stroke-width:0.75" />
  <path
     class="cls-5"
     d="m 56.369048,71.660946 a 16.6275,16.6275 0 0 0 -2.745,-1.59 l -2.46,-2.745 -1.14,0.405 1.005,2.1225 c -2.58,2.01 4.215,3.36 5.565,2.8425 0,0 1.35,-0.5775 1.0425,-1.26 -0.21,-0.4725 -0.8775,-0.0675 -1.2675,0.225 z"
     id="path26"
     style="stroke-width:0.75" />
  <path
     class="cls-5"
     d="m 42.479048,16.115946 a 23.7825,23.7825 0 0 0 -2.325,5.82 c -0.9525,4.86 2.325,9.18 2.325,10.68 a 6,6 0 0 1 -0.2925,2.145 l 0.6225,2.4375 1.0875,-1.305 a 23.745,23.745 0 0 0 2.16,-1.8975 c 0.87,-0.87 0.6375,-2.7975 2.9475,-4.8 0.75,-0.675 2.07,-1.7475 2.07,-1.7475 0,0 1.6425,-3.1575 1.4175,-5.4525 -0.225,-2.295 -5.2125,-5.13 -6.63,-5.13 a 11.745,11.745 0 0 1 -3.3825,-0.75 z"
     id="path28"
     style="stroke-width:0.75" />
  <path
     class="cls-7"
     d="m 45.749048,14.900946 c 0,0 -3.6,1.095 -5.0175,0.75 a 7.005,7.005 0 0 0 2.55,2.76 21.27,21.27 0 0 0 4.395,1.6575 c 0,0 -1.5,-1.6125 -0.8325,-1.575 0.6675,0.0375 2.8425,1.2375 3.165,0.975 0,0 -0.8775,3.93 1.305,4.5 0,0 -0.63,3.525 -0.57,3.9075 0,0 4.8825,-2.19 5.7975,-3 0.585,-0.5025 -2.9475,-0.36 -2.4,-1.1625 0.84,-1.245 1.305,-1.23 1.1025,-3.15 -0.5475,-5.13 -1.965,-5.46 -3.4875,-5.6775 a 53.34,53.34 0 0 0 -6.0075,0.015 z"
     id="path30"
     style="stroke-width:0.75" />
  <path
     class="cls-5"
     d="m 49.806548,23.345946 c 0,0 1.425,-1.4175 2.295,-0.54 0.87,0.8775 -0.1125,1.8 -1.4175,2.505 a 3,3 0 0 1 -0.8775,0.2775"
     id="path32"
     style="stroke-width:0.75" />
  <line
     class="cls-8"
     x1="51.359047"
     y1="23.563446"
     x2="50.594051"
     y2="24.328445"
     id="line34" />
  <path
     class="cls-9"
     d="m 36.839048,73.535946 2.4675,-0.0525 c 0,0 4.29,-20.2125 6,-20.295 0.6,0 3.1425,7.7775 3.1425,7.7775 l 1.71,8.19 c 0,0 1.35,-0.75 2.0475,-1.1325 -0.06,0 -0.345,-7.4025 -0.345,-7.4025 0,0 -0.9075,-5.7 -1.02,-7.2825 -0.075,-1.02 0.3825,-2.835 0.3375,-3.6375 -0.1725,-3.075 -0.6825,-3.645 -0.6825,-3.645 0,0 -3.15,2.3625 -4.7775,2.8425 -2.91,0.87 -6.6,-1.635 -6.6,-1.635 a 9,9 0 0 0 -0.6675,2.3175 19.5675,19.5675 0 0 0 0,4.1625 c 0.195,0.9825 -1.11,18.3375 -1.6125,19.7925 z"
     id="path36"
     style="stroke-width:0.75" />
  <path
     class="cls-10"
     d="m 41.811548,37.288446 a 0.75,0.75 0 0 0 0.3075,0.45 0.84,0.84 0 0 1 0.21,0.27 c 0.12,0.2025 0.225,0.405 0.3375,0.6075 0.1125,0.2025 0.2775,0.5175 0.39,0.75 a 3.9525,3.9525 0 0 1 0.105,0.4275 c 0,0.09 0.1125,0.1725 0.1275,0.2625 0.045,0.2175 0.255,0.315 0.3375,0.5025 0,0.075 0.0975,0.135 0.1125,0.21 0.06,0.3225 0.3675,0.5175 0.48,0.81 0.0525,0.15 0.12,0.2925 0.18,0.435 l 0.1125,0.21 0.33,0.57 a 0.12,0.12 0 0 1 0,0.075 1.7775,1.7775 0 0 0 0.3,0.5475 c 0.15,0.24 1.6875,2.91 1.755,3.21 0,0.18 0.225,0.3225 0.27,0.5025 0.045,0.18 0.18,0.27 0.285,0.3975 a 2.625,2.625 0 0 1 0.2775,0.3675 1.5,1.5 0 0 1 0.09,0.36 c 0,0 0,0.09 0.045,0.1125 a 0.405,0.405 0 0 1 0.18,0.3075 0.27,0.27 0 0 0 0.09,0.12 c 0.135,0.09 0.27,0.1725 0.2775,0.3525 v 0 c 0.105,0.1575 0.2175,0.315 0.315,0.48 a 4.2375,4.2375 0 0 0 0.2325,0.45 2.805,2.805 0 0 1 0.255,0.465 2.0925,2.0925 0 0 1 0.105,0.2775 0.6,0.6 0 0 0 0.0975,0.18 l 0.105,0.15 c 0.0525,0.075 1.44,2.685 1.5675,2.715 0.1275,0.03 0.075,0.09 0.075,0.1275 0,0.225 0.15,0.3075 0.2775,0.435 a 1.245,1.245 0 0 1 0.15,0.3 c 0.0975,0.1725 0.06,0.3825 0.225,0.555 a 1.905,1.905 0 0 1 0.27,0.57 0.63,0.63 0 0 0 0.0825,0.1575 0.525,0.525 0 0 1 0.0975,0.24 1.2375,1.2375 0 0 0 0.1875,0.3525 2.25,2.25 0 0 1 0.3,0.6675 1.695,1.695 0 0 0 0.1425,0.3675 4.08,4.08 0 0 0 0.2025,0.405 3.435,3.435 0 0 0 0.2625,0.315 c 0,0 0.075,0.0975 0.0675,0.1275 -0.075,0.1425 0.0525,0.195 0.12,0.2925 a 1.965,1.965 0 0 1 0.2025,0.4425 c 0.0675,0.18 0.1125,0.3675 0.1875,0.5475 a 1.5,1.5 0 0 0 0.18,0.2625 c 0,0 0.06,0.075 0.06,0.105 0,0.2325 3.2175,7.02 3.3,7.215 0.1425,0.315 0.255,0.6375 0.39,0.96 0.06,0.1275 0.1425,0.2475 0.2025,0.375 0.06,0.1275 0.24,0.48 0.345,0.75 a 2.925,2.925 0 0 1 0.1275,0.36 0.8325,0.8325 0 0 0 0.0675,0.2325 c 0.105,0.1575 0.2325,0.2925 0.3375,0.4575 0.105,0.165 0.2175,0.3825 0.3225,0.57 -0.0675,0.18 0.0825,0.3 0.1125,0.4575 0.03,0.1575 0,0.1875 0.18,0.21 0,0 0.06,0.0525 0.0675,0.09 0.0075,0.0375 0,0.12 0,0.18 a 0.2025,0.2025 0 0 0 0.33,0.105 0.45,0.45 0 0 1 0.225,-0.0525 c 0.195,0 0.3525,-0.1125 0.5625,-0.09 0.21,0.0225 0.2775,-0.0975 0.4125,-0.165 a 0.12,0.12 0 0 0 0,-0.1125 c -0.0525,-0.105 -0.1275,-0.195 -0.1875,-0.3 -0.06,-0.105 -0.0825,-0.18 -0.1275,-0.2625 -0.285,-0.54 -0.5625,-1.08 -0.8475,-1.6125 l -0.4275,-0.75 c -0.06,-0.12 -0.105,-0.24 -0.165,-0.36 -0.06,-0.12 -0.1425,-0.225 -0.2025,-0.3375 l -0.3975,-0.8025 c -0.12,-0.2325 -0.2325,-0.465 -0.3525,-0.69 -0.12,-0.225 -0.3225,-0.57 -0.4725,-0.8625 -0.15,-0.2925 -0.2025,-0.435 -0.3075,-0.6525 -0.1725,-0.3825 -3.4125,-7.4025 -3.5925,-7.7775 -0.18,-0.375 -0.27,-0.5925 -0.4125,-0.885 -0.1425,-0.2925 -0.3675,-0.75 -0.5475,-1.0875 -0.12,-0.255 -0.2175,-0.5175 -0.345,-0.75 -0.1275,-0.2325 -0.2325,-0.3525 -0.33,-0.54 -0.0975,-0.1875 -1.56,-2.865 -1.65,-3.045 a 4.065,4.065 0 0 0 -0.24,-0.5175 3.6375,3.6375 0 0 1 -0.4575,-0.9975 0.51,0.51 0 0 0 -0.09,-0.18 7.95,7.95 0 0 1 -0.75,-1.365 c -0.1425,-0.2925 -0.2625,-0.6 -0.42,-0.8925 -0.1575,-0.2925 -0.345,-0.5175 -0.4875,-0.795 -0.1425,-0.2775 -1.605,-3.2175 -1.7925,-3.5625 a 7.5525,7.5525 0 0 0 -0.42,-0.66 l -0.3675,-0.6075 -0.27,-0.435 -0.195,-0.5925 c -0.24,-0.3825 -0.495,-0.75 -0.75,-1.1625 -0.135,-0.2175 -0.24,-0.4575 -0.36,-0.6825 -0.12,-0.225 -0.1275,-0.2175 -0.195,-0.3225 -0.0675,-0.105 -0.075,-0.285 -0.225,-0.3825 -0.15,-0.0975 -0.0975,-0.195 -0.135,-0.3 -0.0375,-0.105 0,-0.0375 0,-0.0525 -0.15,-0.255 -0.315,-0.5025 -0.4575,-0.75 -0.1425,-0.2475 -0.1725,-0.3525 -0.2625,-0.525 a 0.99,0.99 0 0 0 -0.12,-0.1875 c -0.12,-0.18 -0.255,-0.36 -0.36,-0.5475 -0.105,-0.1875 -0.225,-0.4725 -0.3375,-0.705 a 1.7025,1.7025 0 0 0 -0.135,-0.1875 v -0.045 c -0.045,-0.105 -0.0825,-0.2925 -0.1425,-0.3 a 1.0125,1.0125 0 0 0 -0.4275,0.0975 c -0.2025,0.0525 -0.3975,0.1275 -0.5925,0.165 -0.195,0.0375 -0.285,0.135 -0.15,0.3225 a 1.1325,1.1325 0 0 1 0.2475,0.3975 c 0,0.1875 0.15,0.3075 0.21,0.4725 0,0.0375 0,0.09 0,0.1275 a 0.54,0.54 0 0 0 0.0825,0.1125 c 0,0 0.075,0.045 0.0825,0.075 0.06,0.1425 0.105,0.2925 0.165,0.4425 0.06,0.15 0.1125,0.1725 0.1575,0.27 0.045,0.0975 0.1575,0.33 0.225,0.495 a 0.18,0.18 0 0 1 -0.015,0.105 z"
     id="path38"
     style="stroke-width:0.75" />
  <path
     class="cls-1"
     d="m 39.696548,34.423446 c 0.5475,0.5775 1.2,0.7125 1.5,0.285 0.0825,0 0.1725,0.0525 0.2175,0 0.2325,-0.15 0.4425,-0.315 0.3975,-0.615 -0.045,-0.3 -0.0525,-0.5025 -0.105,-0.75 -0.0525,-0.2475 -0.375,-0.3 -0.5925,-0.18 -0.2175,0.12 -0.48,0.2625 -0.705,0.405 a 1.6425,1.6425 0 0 0 -0.6975,0.8325 z"
     id="path40"
     style="stroke-width:0.75" />
  <path
     class="cls-7"
     d="m 45.749048,14.900946 c 0,0 5.37,-0.66 7.2525,-2.535 l -0.27,2.91 3.6825,-2.055 -2.565,5.46"
     id="path42"
     style="stroke-width:0.75" />
  <path
     class="cls-8"
     d="m 41.556548,20.563446 a 0.75,0.75 0 0 0 0.57,0.8025"
     id="path44" />
  <path
     class="cls-8"
     d="m 45.201548,21.695946 a 1.5,1.5 0 0 0 1.365,-0.33"
     id="path46" />
  <path
     class="cls-8"
     d="m 42.471548,22.498446 c 0,0 0.4575,-0.915 1.14,-0.345 l 0.45,0.795"
     id="path48" />
  <path
     class="cls-8"
     d="m 43.154048,26.615946 a 1.635,1.635 0 0 0 2.0475,-0.6825"
     id="path50" />
  <path
     class="cls-11"
     d="m 54.351548,44.038446 c 0,0 -3.525,1.905 -3.93,2.0475 -0.405,0.1425 -2.73,0.4275 -2.73,0.4275 a 2.175,2.175 0 0 0 -0.75,2.25 2.5875,2.5875 0 0 0 2.0925,1.2375 l 1.95,-1.5 2.79,-1.8075"
     id="path52" />
  <path
     class="cls-11"
     d="m 37.604048,41.188446 c 0,0 3.8325,-1.1475 4.2225,-1.335 0.39,-0.1875 2.25,-1.635 2.25,-1.635 a 2.1825,2.1825 0 0 1 2.115,1.02 2.5575,2.5575 0 0 1 -0.615,2.3775 l -2.43,0.3375 -6.3675,2.7375"
     id="path54" />
  <path
     class="cls-1"
     d="m 60.156548,77.188446 h 0.1575 a 0.2325,0.2325 0 0 1 0,0.06 c 0,0.3525 0,0.285 0.2925,0.4275 0.12,0.06 0.2325,0.135 0.3825,0.225 0.1575,-0.0525 0.285,0.1125 0.4425,0.1725 0.1575,0.06 0.3675,0.1725 0.5475,0.2475 0.045,0 0.1425,-0.045 0.1725,0 0.2475,0.165 0.39,0 0.54,-0.1425 a 3.165,3.165 0 0 1 0.345,-0.285 c 0.2625,-0.1725 0.3975,-0.45 0.66,-0.6225 a 9.75,9.75 0 0 1 0.8625,-0.5925 1.74,1.74 0 0 1 0.9375,-0.1725 3.0525,3.0525 0 0 1 0.4575,0.06 c 0.045,0 0.0825,0.06 0.1275,0.09 l 0.15,-0.1125 c 0.0525,0.165 0.15,0.135 0.27,0.09 a 0.3675,0.3675 0 0 1 0.2025,0 2.25,2.25 0 0 1 0.915,0.405 1.17,1.17 0 0 0 0.405,0.135 h 0.045 c 0.105,0.165 0.315,0.1275 0.465,0.195 a 0.54,0.54 0 0 0 0.2175,0 v -0.045 c -0.09,-0.0975 -0.18,-0.2025 -0.2775,-0.2925 -0.0975,-0.09 -0.285,-0.2925 -0.435,-0.4275 -0.15,-0.135 -0.1575,-0.12 -0.2175,-0.1875 -0.06,-0.0675 -0.315,-0.3525 -0.465,-0.5325 a 2.5275,2.5275 0 0 1 -0.3,-0.4425 5.025,5.025 0 0 0 -0.5775,-0.6225 6,6 0 0 0 -0.42,-0.45 c -0.1575,-0.1425 -0.3375,-0.2625 -0.495,-0.3975 -0.1575,-0.135 -0.2325,-0.2025 -0.345,-0.3075 -0.1125,-0.105 -0.3225,-0.2925 -0.4725,-0.4425 -0.15,-0.15 -0.12,-0.0525 -0.1875,0 -0.0675,0.0525 -0.3,0.3075 -0.45,0.4575 a 3.75,3.75 0 0 1 -0.9975,0.6975 c -0.3,0.1575 -0.6,0.315 -0.915,0.45 a 2.7375,2.7375 0 0 1 -0.6075,0.1275 c -0.255,0 -0.51,0.0675 -0.75,0.0825 -0.24,0.015 -0.51,0 -0.75,0 -0.045,0 -0.0975,-0.0375 -0.15,-0.045 h -0.27 l 0.0825,0.21 c 0.0675,0.2025 0.1425,0.4125 0.2175,0.615 0.075,0.2025 0.2325,0.6225 0.3375,0.945 0,0.1125 0.06,0.2475 -0.09,0.3375 -0.0525,0.0225 -0.0525,0.0525 -0.06,0.09 z"
     id="path56"
     style="stroke-width:0.75" />
  <path
     class="cls-9"
     d="m 58.506548,71.908446 a 1.5,1.5 0 0 1 0.0975,0.3225 c 0,0.0825 0,0.15 0,0.24 a 1.785,1.785 0 0 1 0.345,0.75 0.75,0.75 0 0 0 0.0975,0.165 5.5575,5.5575 0 0 1 0.3,0.645 c 0.0975,0.285 0.165,0.585 0.2475,0.8775 0,0.075 0.0525,0.1425 0.0675,0.18 l 0.495,0.1125 a 0.885,0.885 0 0 0 0.195,0 0.57,0.57 0 0 1 0.105,0 1.1475,1.1475 0 0 0 0.675,0 5.9325,5.9325 0 0 0 1.0275,-0.2025 8.25,8.25 0 0 0 0.84,-0.345 4.56,4.56 0 0 0 1.095,-0.8625 c 0.135,-0.1125 0.12,-0.1725 0,-0.315 a 2.8875,2.8875 0 0 0 -0.4125,-0.4425 4.395,4.395 0 0 1 -0.4425,-0.4725 c -0.1125,-0.12 -0.2475,-0.2325 -0.36,-0.3525 -0.1125,-0.12 -0.255,-0.3075 -0.39,-0.45 -0.135,-0.1425 -0.4275,-0.4275 -0.6525,-0.6225 a 0.42,0.42 0 0 0 -0.4875,0 0.9375,0.9375 0 0 1 -0.33,0.15 c -0.21,0.045 -0.4275,0.06 -0.6375,0.09 h -0.075 a 1.2225,1.2225 0 0 0 -0.615,0.0675 h -0.195 l -0.33,0.075 -0.3,0.06 a 0.75,0.75 0 0 0 -0.1875,0.09 z"
     id="path58"
     style="stroke-width:0.75" />
  <path
     class="cls-12"
     d="m 57.456548,78.365946 c 0.4125,0 1.41,-2.01 2.7,-1.155 1.29,0.855 1.425,1.4025 2.55,0.945 1.125,-0.4575 0.8625,-1.6275 2.805,-1.6725 1.9425,-0.045 2.13,0.9225 3.255,0.8625 1.125,-0.06 0.4575,-1.5 1.6125,-1.635 1.155,-0.135 3.315,1.245 3.315,1.245"
     id="path60"
     style="stroke-width:0.75" />
</svg>
