<?xml version="1.0" encoding="UTF-8" standalone="no"?>
<svg
   viewBox="0 0 100 100"
   version="1.1"
   id="svg24"
   sodipodi:docname="mountain_activity.svg"
   inkscape:version="1.1 (c68e22c387, 2021-05-23)"
   xmlns:inkscape="http://www.inkscape.org/namespaces/inkscape"
   xmlns:sodipodi="http://sodipodi.sourceforge.net/DTD/sodipodi-0.dtd"
   xmlns="http://www.w3.org/2000/svg"
   xmlns:svg="http://www.w3.org/2000/svg">
  <sodipodi:namedview
     id="namedview26"
     pagecolor="#ffffff"
     bordercolor="#666666"
     borderopacity="1.0"
     inkscape:pageshadow="2"
     inkscape:pageopacity="0.0"
     inkscape:pagecheckerboard="0"
     showgrid="false"
     inkscape:zoom="8.42"
     inkscape:cx="50"
     inkscape:cy="50"
     inkscape:window-width="1920"
     inkscape:window-height="1046"
     inkscape:window-x="-11"
     inkscape:window-y="-11"
     inkscape:window-maximized="1"
     inkscape:current-layer="svg24" />
  <defs
     id="defs4">
    <style
       id="style2">.cls-1{fill:#e0e0e0;}.cls-2{fill:#6f6f6f;}.cls-3{fill:#3b6883;}.cls-4{fill:#90b1e4;}.cls-5{fill:#231815;}.cls-6{fill:#e5a32c;}</style>
  </defs>
  <path
     class="cls-3"
     d="m 74.65,53.05 c -3,1.07 -4.68,0 -6.88,-0.91 a 25.09,25.09 0 0 0 2.44,4.19 33,33 0 0 0 4.26,3.48 C 71.68,60.91 69.94,59.7 68,58.45 v 5.6 l 15.91,1.84 v 0.45 H 13.65 v -0.45 l 15.9,-1.83 v -5.62 c -1.87,1.21 -3.68,2.47 -6.58,1.37 3.08,-2.33 6.2,-4 6.5,-7.94 -3.1,1.85 -4.09,2.05 -6.16,1 2.64,-2.15 5.85,-3.79 6.15,-7.36 l -5.65,1.52 -0.39,-1 c 0.64,-0.5 1.23,-1.05 1.91,-1.48 a 9.07,9.07 0 0 0 4.41,-7.24 6.5,6.5 0 0 1 0.88,-1.95 c 0.4,0.64 1.06,1.26 1.14,1.94 a 9.31,9.31 0 0 0 4.87,7.48 8.51,8.51 0 0 1 1.37,1.35 l -0.42,0.95 -5.48,-1.52 c 0.17,3.58 3.55,5.11 6.26,7.6 -2.72,0.92 -4.43,-0.15 -6.3,-1.37 0.22,4 3.53,5.62 6.37,8.09 -2.83,0.89 -4.61,-0.12 -6.51,-1.54 v 5.25 h 15.47 v -9 c -2,1.47 -4,2.76 -7.22,1.58 a 34.84,34.84 0 0 0 4.61,-3.72 16.9,16.9 0 0 0 2.67,-4.92 c -2.26,1 -4.25,2.38 -7.29,1.09 3.22,-2.62 6.88,-4.4 7.14,-9 -2.06,1.58 -4.1,2.54 -6.43,2 l -0.33,-0.7 a 10.08,10.08 0 0 1 1.63,-1.45 10.23,10.23 0 0 0 5.45,-8.44 6.94,6.94 0 0 1 1,-2.1 6.76,6.76 0 0 1 1.2,2.14 10.47,10.47 0 0 0 5.31,8.31 18.3,18.3 0 0 1 1.87,1.45 c -1.86,1.44 -3,1.26 -6.84,-1 0.47,4.33 3.77,6.38 7.45,8.82 -3.31,1.18 -5.29,0.05 -7.38,-1.42 0.23,4.54 3.85,6.33 7.12,9 -3.14,1.19 -5.15,0 -7.29,-1.63 v 8.9 h 15.56 v -4.79 c -1.48,0.55 -2.83,1.16 -4.23,1.55 -0.48,0.13 -1.1,-0.28 -1.66,-0.44 0.33,-0.48 0.56,-1.15 1,-1.41 a 8.76,8.76 0 0 0 4.75,-6.36 36.3,36.3 0 0 1 -3.8,1.4 5,5 0 0 1 -1.92,-0.31 c 0.37,-0.52 0.63,-1.24 1.13,-1.55 a 8.68,8.68 0 0 0 4.58,-6.2 c -1.54,0.52 -3,1 -4.45,1.45 -0.35,0.1 -0.83,-0.25 -1.25,-0.39 0.22,-0.44 0.32,-1.11 0.67,-1.3 a 9.58,9.58 0 0 0 5.38,-8.68 c 0,-0.37 0.65,-0.72 1,-1.07 0.31,0.31 0.9,0.62 0.9,0.93 0,4.32 2.17,7.17 5.82,9.13 0.22,0.12 0.3,0.51 0.57,1 -2.44,0.93 -4.21,-0.2 -6.09,-1.44 0.35,3.98 3.36,5.75 6.63,8.03 z"
     id="path14" />
  <path
     class="cls-4"
     d="m 61.21,11.6 a 13.75,13.75 0 0 0 0,4.15 24.23,24.23 0 0 0 0.5,3.05 c 0.16,0.72 0.49,1.41 0.63,2.11 0.76,-0.61 1.54,-0.92 2.29,-1.62 0.75,-0.7 1.49,-1.55 2.32,-2.18 0.69,0.4 0.71,1.4 1.08,2 a 15.16,15.16 0 0 1 1.26,2 c -0.92,0.44 -1.82,0.9 -2.73,1.39 -0.3,0.15 -2.15,0.91 -2.44,1 a 6.23,6.23 0 0 0 1.34,1.34 13.86,13.86 0 0 0 1.64,0.93 11.21,11.21 0 0 0 2.38,0.9 c 0.5,0.14 1,0.16 1.49,0.33 a 4.49,4.49 0 0 1 -2.51,1.61 13.64,13.64 0 0 1 -3.45,0.23 7.41,7.41 0 0 1 -3.79,-1.33 12.72,12.72 0 0 1 -1.34,-1.11 C 59.7,26.23 59.23,25.63 59,25.56 a 0.18,0.18 0 0 1 0,-0.08 c -1,0.44 -3.08,1.76 -4,0.33 a 2.07,2.07 0 0 1 0,-2.06 c 0.34,-0.49 1.41,-1.26 2,-1 a 4,4 0 0 0 0,-1.41 c 0,-0.54 0,-1.11 0,-1.62 a 16.51,16.51 0 0 1 0.2,-4.56 8.17,8.17 0 0 1 1.31,-2.74 5.46,5.46 0 0 1 2.49,-1.24 2.35,2.35 0 0 1 0.08,1.5"
     id="path16" />
  <path
     class="cls-5"
     d="m 55.82,24.88 a 0.3,0.3 0 0 0 0.29,0.3 0.31,0.31 0 0 0 0.3,-0.3 0.3,0.3 0 0 0 -0.3,-0.29 0.29,0.29 0 0 0 -0.29,0.29 z"
     id="path18" />
  <path
     class="cls-6"
     d="m 55.29,26.18 -0.51,-0.89 c -0.26,0.23 -0.56,0.45 -0.82,0.67 -0.26,0.22 -0.72,0.63 -0.65,0.78 0.07,0.15 0.83,-0.1 1.06,-0.2 0.23,-0.1 0.51,-0.2 0.92,-0.36 z"
     id="path20" />
</svg>
