<?xml version="1.0" encoding="UTF-8" standalone="no"?>
<svg
   viewBox="0 0 100 100"
   version="1.1"
   id="svg24"
   sodipodi:docname="craft.svg"
   inkscape:version="1.1 (c68e22c387, 2021-05-23)"
   xmlns:inkscape="http://www.inkscape.org/namespaces/inkscape"
   xmlns:sodipodi="http://sodipodi.sourceforge.net/DTD/sodipodi-0.dtd"
   xmlns="http://www.w3.org/2000/svg"
   xmlns:svg="http://www.w3.org/2000/svg">
  <sodipodi:namedview
     id="namedview26"
     pagecolor="#ffffff"
     bordercolor="#666666"
     borderopacity="1.0"
     inkscape:pageshadow="2"
     inkscape:pageopacity="0.0"
     inkscape:pagecheckerboard="0"
     showgrid="false"
     inkscape:zoom="8.42"
     inkscape:cx="50"
     inkscape:cy="50"
     inkscape:window-width="1920"
     inkscape:window-height="1046"
     inkscape:window-x="-11"
     inkscape:window-y="-11"
     inkscape:window-maximized="1"
     inkscape:current-layer="svg24" />
  <defs
     id="defs4">
    <style
       id="style2">.cls-1{fill:#e0e0e0;}.cls-2{fill:#6f6f6f;}.cls-3{fill:#ffc9c3;}.cls-4{fill:#b4a599;}</style>
  </defs>
  <path
     class="cls-3"
     d="m 25,58.4 a 75.83,75.83 0 0 1 8.39,-0.95 c 1.74,-0.19 12,0 14.4,-1.71 2.4,-1.71 -0.68,-3.65 -3.59,-3.94 -0.52,0 -5.84,-0.07 -5.81,-2 0,-0.9 2.51,-6 2.51,-6 0,0 7.76,-16.67 3.61,-15 -2.11,0.83 -6.72,9.5 -6.69,9.39 0.41,-1.69 4.43,-14.48 2.63,-15 -1.8,-0.52 -7,11.82 -7,11.82 0,0 2,-12.34 -0.34,-11.19 -2.34,1.15 -4.75,9.91 -4.75,9.91 0,0 0.61,-9.72 -2.08,-8.3 -2.69,1.42 -4.17,14.1 -4.08,14.29 -0.77,1.79 -6.74,11 -10.88,11.44 -4.14,0.44 -0.55,12.04 4.28,10.71 4.83,-1.33 6.96,-2.94 9.4,-3.47 z"
     id="path14" />
  <path
     class="cls-3"
     d="m 88.7,57.19 c 3.29,2.12 7.43,-6.57 3.71,-9.88 C 88.69,44 78.94,38.26 77.84,36.65 c 0,-0.2 -3.89,-12.34 -6.81,-13.2 -2.92,-0.86 -0.41,8.55 -0.41,8.55 0,0 -4.25,-8.13 -6.6,-8.78 -2.35,-0.65 1.87,11 1.87,11 0,0 -7.5,-11.09 -9.15,-10.22 -1.65,0.87 4.8,12.65 5.53,14.22 0,0.11 -6.18,-7.49 -8.4,-7.89 -4.4,-0.8 6.48,14 6.48,14 0,0 3.47,4.55 3.66,5.43 0.4,1.9 -4.81,3 -5.3,3.13 -2.8,0.85 -5.48,3.41 -2.75,4.56 2.73,1.15 12.71,-1 14.46,-1.16 a 79.06,79.06 0 0 1 8.41,-0.72 c 2.47,0.1 6.59,-0.5 9.87,1.62 z"
     id="path16" />
  <path
     class="cls-4"
     d="M 88.27,62.62 80.82,58.9 87.44,41.52 95.28,46 c 0,0 1.26,10.41 -7.01,16.62 z"
     id="path18" />
  <path
     class="cls-4"
     d="m 6.35,50.66 8.71,-3.76 8.28,14.48 -9.1,4.55 A 25,25 0 0 1 6.35,50.66 Z"
     id="path20" />
</svg>
