<?xml version="1.0" encoding="UTF-8" standalone="no"?>
<svg
   viewBox="0 0 100 100"
   version="1.1"
   id="svg192"
   sodipodi:docname="landscape.svg"
   inkscape:version="1.1 (c68e22c387, 2021-05-23)"
   xmlns:inkscape="http://www.inkscape.org/namespaces/inkscape"
   xmlns:sodipodi="http://sodipodi.sourceforge.net/DTD/sodipodi-0.dtd"
   xmlns="http://www.w3.org/2000/svg"
   xmlns:svg="http://www.w3.org/2000/svg">
  <sodipodi:namedview
     id="namedview194"
     pagecolor="#ffffff"
     bordercolor="#666666"
     borderopacity="1.0"
     inkscape:pageshadow="2"
     inkscape:pageopacity="0.0"
     inkscape:pagecheckerboard="0"
     showgrid="false"
     inkscape:zoom="8.42"
     inkscape:cx="50"
     inkscape:cy="50"
     inkscape:window-width="1920"
     inkscape:window-height="1046"
     inkscape:window-x="-11"
     inkscape:window-y="-11"
     inkscape:window-maximized="1"
     inkscape:current-layer="svg192" />
  <defs
     id="defs4">
    <style
       id="style2">.cls-1{fill:#52646d;}.cls-2{fill:#415963;}.cls-3{fill:#e0e0e0;}.cls-4{fill:#6f6f6f;}.cls-5{fill:#5f595a;}.cls-6{fill:#7eb3b4;}.cls-7{fill:#918079;}.cls-8{fill:#b6adac;}.cls-9{fill:#807465;}.cls-10{fill:#807061;}.cls-11{fill:#37805c;}.cls-12{fill:#6c6464;}.cls-13{fill:#455d6d;}.cls-14{fill:#3a535d;}.cls-15{fill:#5f646b;}</style>
  </defs>
  <path
     class="cls-1"
     d="m 18.26,51.65 c 0.78,0.58 1.14,3.22 1,3.39 -0.84,1.43 -0.48,2.57 -1.32,4 a 1.45,1.45 0 0 1 -0.3,0.4 1.75,1.75 0 0 1 -0.5,0.23 l -2.57,0.8 c -0.52,0.16 -2.39,-1.66 -2.92,-2 A 4.23,4.23 0 0 1 9.84,55.36 c -0.25,-2 1.34,-3.64 2.8,-5 a 2.18,2.18 0 0 1 1.19,-0.69 2.16,2.16 0 0 1 0.79,0.14 15.54,15.54 0 0 1 2.28,1 8.78,8.78 0 0 1 1.36,0.84 z"
     id="path6" />
  <path
     class="cls-2"
     d="m 10.39,53 c 0,0 0.61,3.42 1.16,4 0.55,0.58 2,2.33 3.11,2.55 1.11,0.22 2.6,-0.49 3,-0.13 0.13,0.12 -0.32,0.17 -0.5,0.23 l -2.57,0.8 c -0.52,0.16 -2.39,-1.66 -2.92,-2 A 4.23,4.23 0 0 1 9.86,55.34 Z"
     id="path8" />
  <path
     class="cls-5"
     d="m 39.14,68.23 a 6.27,6.27 0 0 0 2.42,0.68 5.43,5.43 0 0 0 2.4,-0.26 l 0.15,-0.06 c 0.49,-0.23 1,-0.48 1.45,-0.68 a 7.8,7.8 0 0 0 1.44,-0.84 1.35,1.35 0 0 0 0.4,-1.85 11,11 0 0 1 -1.92,1.86 15.78,15.78 0 0 1 -4.1,1 c -0.61,0.05 -2.24,0.15 -2.24,0.15 z"
     id="path16" />
  <path
     class="cls-6"
     d="M 44.77,69 A 11.88,11.88 0 0 1 42.23,66.72 C 40.94,65.17 40,63.3 38.5,62 c -2.22,-2 -5,-2 -7.72,-2 -3.59,0 -7.17,0.57 -10.77,0.49 -0.52,0 -1,0 -1.56,-0.08 A 6.78,6.78 0 0 1 14.6,59.13 4,4 0 0 1 13.26,55 c 0.49,-1.52 2,-2.2 3.2,-2.9 1.2,-0.7 2.61,-1.88 2.51,-3.5 -0.18,-2.68 -4,-3.27 -4.31,-5.93 a 3.24,3.24 0 0 1 1.45,-2.95 6.16,6.16 0 0 1 3,-0.83 c 12,-1.08 24,-2.24 36.08,-1.43 10,0.67 25.89,2.49 33.38,10.11 a 7.12,7.12 0 0 1 2.33,5.75 c -0.35,2.85 -0.09,6.17 -1,8.92 a 10,10 0 0 1 -4.25,5.21 c -2.93,1.86 -7,2.72 -10.47,3.15 -2.6,0.33 -5.86,0.65 -8.41,-0.17 -1.64,-0.53 -3.22,-1.4 -4.92,-1.47 -1.7,-0.07 -3.54,0.74 -5.3,1.26 a 17.13,17.13 0 0 1 -1.85,0.44 6.37,6.37 0 0 1 -1.73,0.18 c -0.93,-0.13 -1.86,0 -2.8,0 A 11.16,11.16 0 0 1 44.77,69 Z"
     id="path18" />
  <path
     class="cls-7"
     d="m 40.82,57.43 -7.58,0.07 c 0,0 -2.84,-0.42 -3.48,-0.5 -0.64,-0.08 -2.89,-0.37 -2.89,-0.37 0,0 -0.73,-3.24 -1.15,-3.46 a 2.42,2.42 0 0 1 -0.78,-1 35,35 0 0 1 -2,-3.54 c 0,-0.32 0.86,-0.32 1,-0.64 0.14,-0.32 1.36,-0.29 1.36,-0.29 0,0 0.46,-0.68 0.78,-0.68 0.32,0 6.08,-2.19 6.08,-2.19 l 0.65,-2 3.49,-1.07 v -2.18 l 2,-0.11 0.64,-2.9 0.54,-2.36 1.61,-0.85 1.07,-1 c 0,0 1.72,-0.86 1.72,-1.18 0,-0.32 -0.19,-1.66 0.34,-2.09 0.53,-0.43 2.12,0.16 2,-0.38 -0.12,-0.54 1.28,-2.36 1.28,-2.36 a 8.9,8.9 0 0 0 0.86,-2.25 c -0.1,-0.32 1.82,0.11 2.35,-0.32 0.53,-0.43 0.33,-2.79 0.33,-2.79 l 1.61,-1.72 1,-1.29 h 1.07 A 3.6,3.6 0 0 0 55.15,17 l 2.54,-0.08 0.25,-1.85 2,-0.32 0.32,2 2.58,0.93 2.85,3.06 2.48,2.56 1.5,0.25 0.07,1.95 1.81,2.17 -0.15,7.45 1,3.42 5.23,5.46 2.06,3.62 A 14.54,14.54 0 0 1 81.6,51 c 0.29,0.78 1.19,7.1 1.19,7.1 l -4.56,0.79 c -0.85,0.14 -7,-0.14 -7.45,0.15 -0.45,0.29 -6.27,-0.24 -6.62,-0.1 0,0 -8.3,-0.71 -8.66,-0.78 -0.36,-0.07 -6,-0.06 -6,-0.06 z"
     id="path20" />
  <path
     class="cls-8"
     d="M 58.59,16.37 55.28,16.64 55.7,23 c 0,0 2.72,-0.62 2.75,0 0.03,0.62 -2.83,0.78 -2.8,1.23 0,0.22 -0.52,1.36 -0.06,1.6 0.46,0.24 2.15,-0.28 2.17,0 0.02,0.28 -2,0.61 -2,0.94 0.22,3.62 0.49,6.86 0.73,7 0.55,0.27 2.61,1.1 2.48,1.51 -0.13,0.41 0.13,5.24 0.13,5.24 h 2.48 L 62,33 60.52,31.8 a 34.88,34.88 0 0 1 -0.69,-5.1 c 0.14,-0.83 -0.55,-7.58 -0.55,-7.58 z"
     id="path22" />
  <path
     class="cls-8"
     d="m 60.5,38.67 1.92,-0.07 0.92,-1.35 0.14,-2.48 -0.49,-4 -0.43,-3.48 -0.07,-2.91 -0.35,-1.56 0.71,-4.53 v -0.62 l -1.39,-0.11 a 16.07,16.07 0 0 0 -1,2.43 c -0.07,0.56 -0.21,3.19 -0.21,3.19 l 0.07,1.91 0.78,0.64 -0.21,3.83 h -1.24 a 27.15,27.15 0 0 0 -0.28,2.91 c 0.07,0.35 0.57,2.41 0.57,2.62 0,0.21 -0.78,4.68 -0.78,4.68 l -0.16,1.1 -0.08,0.92 1,0.36 z"
     id="path24" />
  <path
     class="cls-9"
     d="m 42.17,54.52 1.92,-0.07 0.91,-1.35 0.14,-2.48 -0.5,-4 -0.42,-3.48 -0.07,-2.9 -0.36,-1.56 0.71,-4.54 v -0.62 l -1.4,-0.11 a 15.23,15.23 0 0 0 -1,2.43 C 42.1,36.37 42,39 42,39 v 1.9 l 0.78,0.64 -0.21,3.83 H 41.32 A 27.41,27.41 0 0 0 41,48.28 c 0.07,0.36 0.56,2.41 0.56,2.62 0,0.21 -0.78,4.69 -0.78,4.69 l -0.14,1.13 -0.07,0.92 h 1.81 z"
     id="path26" />
  <path
     class="cls-8"
     d="m 61.86,42.15 c -0.21,-0.14 -3.65,-0.6 -3.65,-0.6 l -0.28,2.34 0.21,4.75 0.78,-5.64 c 0,0 3.16,-0.71 2.94,-0.85 z"
     id="path28" />
  <path
     class="cls-9"
     d="m 67.79,37.75 c 0,0 -0.44,7.09 -0.44,7.38 0,0.29 -0.15,1.2 -0.15,1.2 a 8.24,8.24 0 0 0 1.13,-2.28 c 0.22,-0.98 -0.54,-6.3 -0.54,-6.3 z"
     id="path30" />
  <path
     class="cls-9"
     d="m 56.42,35.07 c 0,0 -0.42,7.09 -0.42,7.38 0,0.29 -0.14,1.2 -0.14,1.2 A 8.32,8.32 0 0 0 57,41.37 c 0.18,-0.98 -0.58,-6.3 -0.58,-6.3 z"
     id="path32" />
  <path
     class="cls-8"
     d="m 63.16,50.05 -0.28,-1.2 v -1.28 c 0,-0.21 0.07,-2.76 0.07,-3.76 v -4.54 a 17.83,17.83 0 0 1 -0.35,-2.2 c 0,-0.56 0.07,-1.2 0.28,-1.34 0.21,-0.14 1.92,-1.07 2.06,-0.36 0.14,0.71 -0.14,5.25 -0.14,5.25 0,0 0.28,3.41 0.21,3.76 -0.07,0.35 0.14,5 0.14,5 z"
     id="path34" />
  <path
     class="cls-9"
     d="m 70.6,55.09 0.71,4 -4.68,-0.29 -7,-0.92 0.5,-4.75 -2.08,-0.13 0.21,-2.2 c 0,0 1.56,-0.64 1.78,-0.71 0.22,-0.07 1.07,-0.43 1.57,-0.64 l 0.34,-0.14 c 0,0 1.42,0.21 1.7,0.28 0.28,0.07 0.5,-0.35 0.5,-0.35 l 1.77,-0.07 a 7.75,7.75 0 0 0 0.85,-0.86 c 0.43,-0.49 1.64,0.43 1.64,0.43 0,0 0.35,1.56 0.49,1.92 0.14,0.36 1.56,0 2,0.14 0.44,0.14 -0.14,1.77 -0.22,2.27 -0.08,0.5 -0.08,2.02 -0.08,2.02 z"
     id="path36" />
  <path
     class="cls-8"
     d="m 73.75,39.73 1.35,1.56 a 11.93,11.93 0 0 1 1.28,1.71 16,16 0 0 0 0.14,2.48 c 0.14,0.43 0.78,2 0.78,2 0,0 0.43,1.06 -0.14,1.49 a 7.13,7.13 0 0 1 -2.06,0.71 c 0,0 -0.42,-2.91 -0.42,-3.34 0,-0.43 -0.36,-2.48 -0.43,-3.19 L 74,41 Z"
     id="path38" />
  <path
     class="cls-8"
     d="m 71.18,38.64 c 0,0 -0.85,-0.78 -1.07,-0.93 -0.22,-0.15 -1,-0.49 -1,-0.49 l -0.28,1.91 0.29,2.87 v 3.54 l -0.21,2.42 1.56,1 a 26.5,26.5 0 0 1 0.21,-4 8.12,8.12 0 0 0 1.07,-0.96 l 0.14,-1 -0.21,-3.47 z"
     id="path40" />
  <polygon
     class="cls-8"
     points="66.92,36.72 65.65,35.73 66.14,33.95 64.37,32.96 64.65,38.92 64.94,39.7 65.36,42.54 67.06,42.18 67.21,41.47 67.21,38.76 65.43,38.18 67.09,38.4 "
     id="polygon42" />
  <path
     class="cls-8"
     d="m 70.49,59.16 3,-0.15 0.92,-0.76 0.14,-1.42 -0.49,-2.3 -0.43,-2 L 73.56,50.88 73.2,50 73.91,47.41 V 47.06 L 72.55,47 a 7.34,7.34 0 0 0 -1,1.38 c -0.07,0.32 -0.21,1.82 -0.21,1.82 l 0.07,1.09 0.78,0.36 -0.19,2.19 h -1.28 a 9.19,9.19 0 0 0 -0.28,1.66 c 0.07,0.2 0.57,1.37 0.57,1.49 0,0.12 -0.52,2.17 -0.52,2.17 z"
     id="path44" />
  <path
     class="cls-8"
     d="m 75.82,59 -0.28,-0.68 v -0.73 c 0,-0.12 0.07,-1.57 0.07,-2.14 v -2.56 a 6.26,6.26 0 0 1 -0.35,-1.26 c 0,-0.32 0.07,-0.68 0.28,-0.76 0.21,-0.08 1.92,-0.61 2.06,-0.21 a 18.62,18.62 0 0 1 -0.14,3 17.22,17.22 0 0 1 0.21,2.14 c -0.07,0.21 0.14,2.87 0.14,2.87 z"
     id="path46" />
  <polygon
     class="cls-8"
     points="79.58,51.43 78.31,50.87 78.8,49.86 77.03,49.29 77.31,52.68 77.6,53.13 78.02,54.74 79.73,54.54 79.87,54.14 79.87,52.59 78.09,52.26 79.75,52.39 "
     id="polygon48" />
  <path
     class="cls-8"
     d="m 72.54,37.91 -1.11,-2.84 0.15,-7.45 -0.51,-1.95 -0.9,-0.33 -0.47,-1.84 -1.5,-0.25 0.14,1.41 -0.45,2.81 2.53,0.37 c 0,0 -2.42,0 -2.42,0.21 0,0.84 0.14,3.37 0.18,3.48 0.04,0.11 3,-0.29 2.17,-0.08 -0.83,0.21 -2.2,0.63 -2.17,0.87 a 7.85,7.85 0 0 0 0.23,1.35 l -0.28,2.91 1,0.64 1.49,1.34 1.07,0.93 1,0.49 z"
     id="path50" />
  <path
     class="cls-9"
     d="M 52.59,29.93 52.81,26.08 52.55,24.52 53.06,20 v -0.62 l -1.9,-0.71 a 5.68,5.68 0 0 1 0.43,2.17 l -1.84,0.43 0.58,5.73 0.21,1.92 -2.28,2 v 4.9 h 2.28 l -2.33,0.76 -0.06,5 0.8,1.72 1.39,0.28 0.64,0.31 0.41,-3.47 1.37,-0.07 0.09,-9.64 -1.77,-0.77 z"
     id="path52" />
  <path
     class="cls-9"
     d="m 48.39,24.18 a 29.32,29.32 0 0 1 0.11,3 c -0.07,0.85 -0.07,2.13 -0.07,2.13 L 48.29,32.15 49,31.6 a 0.41,0.41 0 0 0 0.34,-0.41 c 0,-0.35 -0.07,-2.48 0,-2.83 0.07,-0.35 0.85,-4.5 0.85,-4.5 z"
     id="path54" />
  <path
     class="cls-9"
     d="M 47.7,28.21 C 47.63,28 47.53,26.43 47.53,26.43 c 0,0 -0.61,1 -0.75,1.21 A 3.45,3.45 0 0 0 46.5,28.35 L 46.28,29.27 46,32.1 a 11,11 0 0 0 -1.1,-0.2 l 0.28,2.34 -0.35,3.83 0.49,1 h 0.22 l -0.43,2.8 2.13,0.14 0.42,-12 a 16,16 0 0 0 0.04,-1.8 z"
     id="path56" />
  <path
     class="cls-9"
     d="m 51.25,49.06 c 0,0 0.14,-1.35 0.21,-2.06 0.07,-0.71 0.29,-2.41 0.29,-2.41 L 51.25,44.24 51,43 49.65,42.43 49.22,41.72 47.7,41.4 46.36,41 l -1.07,-0.36 -1.06,0.78 -2.77,-0.28 -1.06,2.11 -0.4,1.91 -0.21,0.92 0.21,1.14 1.71,0.56 2,0.08 0.92,-0.08 c 0,0 1.42,-0.07 1.42,0.15 0,0.22 0.29,1.49 0.5,1.56 0.21,0.07 2,0.42 2,0.42 l 1.49,0.5 z"
     id="path58" />
  <path
     class="cls-10"
     d="M 43.73,47.86 44,43.68 42.5,43 A 3.12,3.12 0 0 0 44,42.74 c 0.48,-0.37 0.22,-1.34 0.22,-1.34 a 1.48,1.48 0 0 1 0.88,1.31 c 0,1 -0.1,1.81 -0.1,2.34 0,0.53 -0.5,1 -0.36,1.53 0.14,0.53 -1.21,1 -1.21,1"
     id="path60" />
  <path
     class="cls-10"
     d="M 46.57,42.82 A 23.1,23.1 0 0 0 46,45.16 c 0,0.35 0.07,2.77 0.07,2.77 a 17.7,17.7 0 0 0 0.85,-2.56 5.68,5.68 0 0 1 0.22,-1.91 c 0.21,-0.43 1,-1.89 1,-1.89 z"
     id="path62" />
  <path
     class="cls-8"
     d="M 67.06,23.43 67,22.25 c 0,0 -1.94,-1.18 -2,-1.61 a 11.61,11.61 0 0 1 -0.11,-1.72 l -1,-2.63 c 0,0 -0.28,2 -0.28,2.35 0,0.35 0.54,5.15 0.61,5.51 0.07,0.36 1.74,0.07 1.88,0.29 0.14,0.22 -2,0.14 -1.9,0.58 0.1,0.44 0.12,1.18 0.16,1.3 a 13.5,13.5 0 0 0 2.8,0.4 z"
     id="path64" />
  <path
     class="cls-9"
     d="m 30.33,47.64 -0.32,-1 h -2.24 c 0,0 -2.19,0.5 -2.41,0.5 l -2.36,1.5 2,7.63 3.47,0.58 1.53,-7.22 0.32,-2"
     id="path66" />
  <path
     class="cls-10"
     d="m 30,47.07 c 0,0 3,1.35 3,1.85 0,0.5 0.57,-0.36 0.57,-0.36 l 1.84,0.71 0.78,0.5 h 1 l 0.35,0.64 1.46,-0.07 0.21,2.55 -0.49,1 L 38.43,52.62 38.34,51 36.92,50.92 a 13.21,13.21 0 0 0 -1.63,-1 c -0.28,-0.07 -2,-0.92 -2,-0.92 l -0.85,0.71 -0.22,-1.63"
     id="path68" />
  <path
     class="cls-8"
     d="M 66.43,33 66.7,27.26 66,26.76 a 6.18,6.18 0 0 0 -0.21,2.48 c 0.07,0.71 0.35,4.75 0.35,4.75 z"
     id="path70" />
  <polygon
     class="cls-9"
     points="52.67,44.31 51.18,50.48 54.16,50.13 55.65,48.71 55.65,45.8 55.79,43.17 54.51,43.1 "
     id="polygon72" />
  <path
     class="cls-9"
     d="M 42.25,45.42 42,44.15 l -1.35,-0.57 -0.2,-0.34 1.4,-0.35 0.71,-5.4 -3.29,-0.64 v 2.21 l -3.06,0.57 v 2.18 l -3.83,0.49 -0.31,2.54 -6,2.16 4.76,0.24 0.22,1.13 1.7,0.57 2,0.07 0.93,-0.07 c 0,0 1.41,-0.07 1.41,0.14 0,0.21 0.29,1.49 0.5,1.56 0.21,0.07 2,0.43 2,0.43 l 1.49,0.49 1.2,-1.34 c 0,0 0.14,-1.35 0.21,-2.06 0.07,-0.71 0.29,-2.41 0.29,-2.41 z"
     id="path74" />
  <path
     class="cls-9"
     d="M 42.11,51.86 41.89,50.58 40.55,50 l -0.21,-0.34 1.4,-0.35 0.71,-5.4 -3.28,-0.64 v 2.21 l -3.07,0.57 v 2.17 l -3.83,0.5 -0.27,2.56 -6.08,2.19 4.76,0.24 0.21,1.13 1.7,0.57 2,0.07 0.92,-0.07 c 0,0 1.42,-0.07 1.42,0.14 0,0.21 0.28,1.49 0.5,1.56 0.22,0.07 2,0.42 2,0.42 l 3,0.11 -0.31,-1 c 0,0 0.14,-1.34 0.21,-2 0.07,-0.66 0.28,-2.41 0.28,-2.41 z"
     id="path76" />
  <path
     class="cls-10"
     d="m 39.33,39.06 c 0,0 0.13,4.42 0.13,5.27 0,0.35 2.75,0.51 2.75,0.51 l -2.75,0.43 0.1,5.83 -0.83,-2 -0.32,-3.83 c 0,0 0.32,-4.9 0.43,-5.32 a 2.62,2.62 0 0 1 0.49,-0.89 z"
     id="path78" />
  <path
     class="cls-10"
     d="m 36.66,41.74 c 0,0 0.12,4.42 0.12,5.27 0,0.34 2.75,0.5 2.75,0.5 l -2.75,0.49 0.1,5.82 -0.83,-2 -0.31,-3.83 c 0,0 0.31,-4.89 0.42,-5.32 a 2.78,2.78 0 0 1 0.5,-0.93 z"
     id="path80" />
  <path
     class="cls-9"
     d="m 48,50.48 a 10.29,10.29 0 0 1 2.1,0.87 l 1.82,0.35 c 0,0 1.55,-0.78 2.14,0.49 0.59,1.27 0.38,5.89 0.38,5.89 0,0 -4.53,-0.1 -4.92,0 -0.39,0.1 -5,-0.36 -5,-0.36 l -2.1,-0.08 c 0,0 -1,-1.83 -0.25,-3.12 a 12.49,12.49 0 0 1 3.36,-3.46 C 47.27,49.8 46.92,50.19 48,50.48 Z"
     id="path82" />
  <path
     class="cls-9"
     d="m 52.55,58 c 0,0 -0.47,-1.69 0,-1.69 a 4.58,4.58 0 0 0 1.55,-0.81 20.24,20.24 0 0 1 1.84,-2.84 12.9,12.9 0 0 1 2,0.25 6.51,6.51 0 0 1 1.92,2.56 c 0.14,0.46 0.83,3.56 0.56,3.56 -0.27,0 -5,-1 -5.57,-1 A 20.17,20.17 0 0 1 52.55,58 Z"
     id="path84" />
  <path
     class="cls-9"
     d="m 61,59.15 c 0,0 6.31,0.09 6.31,-0.2 0,-0.29 -0.66,-1.06 -1.83,-1.65 -1.17,-0.59 -1.17,-0.58 -1.56,-1.07 -0.39,-0.49 -0.2,-0.49 -1.27,-0.39 -1.07,0.1 -1.07,0.58 -1.36,1 C 61,57.26 60.41,57.53 60.22,57.92 60.03,58.31 59.73,59 59.73,59 Z"
     id="path86" />
  <circle
     class="cls-11"
     cx="75.980003"
     cy="42.889999"
     r="1.16"
     id="circle88" />
  <circle
     class="cls-11"
     cx="74.300003"
     cy="43.470001"
     r="1.16"
     id="circle90" />
  <circle
     class="cls-11"
     cx="73.870003"
     cy="45.080002"
     r="1.16"
     id="circle92" />
  <circle
     class="cls-11"
     cx="75.830002"
     cy="44.57"
     r="1.16"
     id="circle94" />
  <circle
     class="cls-11"
     cx="75.32"
     cy="46.310001"
     r="1.16"
     id="circle96" />
  <circle
     class="cls-11"
     cx="77.209999"
     cy="46.310001"
     r="1.16"
     id="circle98" />
  <circle
     class="cls-11"
     cx="77.209999"
     cy="45.150002"
     r="1.16"
     id="circle100" />
  <circle
     class="cls-11"
     cx="77.360001"
     cy="42.889999"
     r="1.16"
     id="circle102" />
  <circle
     class="cls-11"
     cx="78.739998"
     cy="44.130001"
     r="1.16"
     id="circle104" />
  <circle
     class="cls-11"
     cx="78.82"
     cy="45.580002"
     r="1.16"
     id="circle106" />
  <circle
     class="cls-11"
     cx="77.580002"
     cy="44.130001"
     r="1.16"
     id="circle108" />
  <polygon
     class="cls-10"
     points="31.89,52.3 30.58,52.03 29.98,55.47 26.87,55.77 26.87,56.63 30.34,56.2 31.35,52.94 33.81,53.37 34.83,53.23 35.12,48.53 36.78,48.67 35.91,47.7 34.66,47.37 34.2,52.5 "
     id="polygon110" />
  <circle
     class="cls-11"
     cx="59.919998"
     cy="27.219999"
     r="1.49"
     id="circle112" />
  <circle
     class="cls-11"
     cx="57.77"
     cy="27.969999"
     r="1.49"
     id="circle114" />
  <circle
     class="cls-11"
     cx="57.209999"
     cy="30.02"
     r="1.49"
     id="circle116" />
  <circle
     class="cls-11"
     cx="59.73"
     cy="29.370001"
     r="1.49"
     id="circle118" />
  <circle
     class="cls-11"
     cx="59.080002"
     cy="31.610001"
     r="1.49"
     id="circle120" />
  <circle
     class="cls-11"
     cx="61.5"
     cy="31.610001"
     r="1.49"
     id="circle122" />
  <circle
     class="cls-11"
     cx="61.5"
     cy="30.110001"
     r="1.49"
     id="circle124" />
  <circle
     class="cls-11"
     cx="61.689999"
     cy="27.219999"
     r="1.49"
     id="circle126" />
  <circle
     class="cls-11"
     cx="63.459999"
     cy="28.809999"
     r="1.49"
     id="circle128" />
  <circle
     class="cls-11"
     cx="63.560001"
     cy="30.67"
     r="1.49"
     id="circle130" />
  <circle
     class="cls-11"
     cx="61.970001"
     cy="28.809999"
     r="1.49"
     id="circle132" />
  <path
     class="cls-10"
     d="M 27.26,54.44 27.54,50.26 26,49.54 a 3.16,3.16 0 0 0 1.52,-0.22 C 28,49 27.75,48 27.75,48 a 1.46,1.46 0 0 1 0.89,1.31 c 0,1 -0.11,1.81 -0.11,2.34 0,0.53 -0.49,1 -0.35,1.52 0.14,0.52 -1.22,1 -1.22,1"
     id="path134" />
  <path
     class="cls-8"
     d="M 53.4,58.22 53.12,57 v -1.27 c 0,-0.21 0.07,-2.76 0.07,-3.75 v -4.54 a 17.37,17.37 0 0 1 -0.36,-2.2 c 0,-0.57 0.08,-1.21 0.29,-1.35 0.21,-0.14 1.91,-1.06 2.06,-0.35 0.15,0.71 -0.18,5.24 -0.18,5.24 0,0 0.29,3.41 0.22,3.76 -0.07,0.35 0.14,5 0.14,5 z"
     id="path136" />
  <path
     class="cls-8"
     d="m 57,49.49 c 0,0 -0.85,-0.78 -1.06,-0.92 -0.21,-0.14 -1,-0.5 -1,-0.5 l -0.28,1.93 0.28,2.84 v 3.55 l -1.54,1.83 3.13,0.07 a 10.4,10.4 0 0 1 0,-2.56 7.5,7.5 0 0 0 1.07,-0.85 l 0.14,-1.07 -0.21,-3.47 z"
     id="path138" />
  <path
     class="cls-11"
     d="m 52.36,16.83 c -0.39,0 -0.69,0 -1,0 a 1.14,1.14 0 0 0 -0.83,0.48 2.44,2.44 0 0 0 -0.45,1.19 0.9,0.9 0 0 0 0.89,1 c 0.33,0 0.66,0 1,0 a 0.75,0.75 0 0 1 0.75,0.53 c 0.06,0.18 0.11,0.36 0.17,0.54 a 0.93,0.93 0 0 0 1.35,0.49 3,3 0 0 1 0.44,-0.23 0.62,0.62 0 0 1 0.48,0 c 0.3,0.12 0.6,0.22 0.91,0.33 a 1.6,1.6 0 0 0 1.23,-0.07 1.17,1.17 0 0 0 0.63,-1.27 2.12,2.12 0 0 1 -0.06,-0.83 1.31,1.31 0 0 1 0.42,-0.79 c 0.12,-0.11 0.25,-0.2 0.36,-0.31 a 0.9,0.9 0 0 0 0.34,-0.51 0.5,0.5 0 0 0 -0.23,-0.57 2.3,2.3 0 0 0 -0.32,-0.15 l -1.06,-0.25 a 2.32,2.32 0 0 1 -0.59,-0.15 1.86,1.86 0 0 1 -0.52,-0.49 5,5 0 0 0 -0.66,-0.92 0.6,0.6 0 0 0 -0.37,-0.19 3.65,3.65 0 0 0 -0.47,0 1,1 0 0 0 -1,0.94 1.69,1.69 0 0 1 -0.28,0.92 c 0,0.05 -0.09,0.13 -0.15,0.15 a 3.13,3.13 0 0 1 -0.53,0.12 3.8,3.8 0 0 1 -0.45,0.04 z"
     id="path140" />
  <path
     class="cls-11"
     d="m 46.18,26.49 c -0.36,0.26 -0.7,0.52 -0.74,1 -0.04,0.48 1.32,2.34 1.94,1.92 a 1.91,1.91 0 0 1 0.32,-0.16 0.43,0.43 0 0 1 0.35,0 c 0.22,0.09 0.45,0.16 0.67,0.24 a 1.13,1.13 0 0 0 0.9,-0.05 0.85,0.85 0 0 0 0.46,-0.93 1.56,1.56 0 0 1 0,-0.61 1,1 0 0 1 0.31,-0.58 c 0.08,-0.07 0.18,-0.14 0.26,-0.22 A 0.58,0.58 0 0 0 50.89,26.73 0.36,0.36 0 0 0 50.73,26.31 1.2,1.2 0 0 0 50.5,26.2 c -0.26,-0.07 -0.52,-0.12 -0.78,-0.18 a 1.62,1.62 0 0 1 -0.43,-0.12 1.26,1.26 0 0 1 -0.38,-0.35 3.6,3.6 0 0 0 -0.49,-0.67 0.48,0.48 0 0 0 -0.26,-0.14 2,2 0 0 0 -0.35,0 0.76,0.76 0 0 0 -0.72,0.69 c -0.09,0.48 -0.5,0.77 -0.91,1.06 z"
     id="path142" />
  <path
     class="cls-11"
     d="m 45.4,32.86 a 1.1,1.1 0 0 0 0.15,-0.65 1.15,1.15 0 0 0 -1.22,-1.09 1.07,1.07 0 0 0 -0.73,0.32 1.13,1.13 0 0 0 -0.84,-0.64 1.5,1.5 0 0 0 0,-0.37 1.16,1.16 0 0 0 -1.23,-1.09 1.15,1.15 0 0 0 -0.88,0.49 1.16,1.16 0 0 0 -2,0.62 h -0.13 a 1.16,1.16 0 0 0 -1.1,1.22 1.2,1.2 0 0 0 0.23,0.62 1.15,1.15 0 0 0 -0.65,1.12 1.07,1.07 0 0 0 0.06,0.31 1.16,1.16 0 0 0 0.21,2.07 1.11,1.11 0 0 0 -0.11,0.55 1.16,1.16 0 0 0 1.23,1.09 1.14,1.14 0 0 0 0.93,-0.58 1.16,1.16 0 0 0 1.18,0.85 1.28,1.28 0 0 0 0.35,-0.08 1.16,1.16 0 0 0 1.76,-0.13 1.07,1.07 0 0 0 0.66,0.16 1.15,1.15 0 0 0 1.09,-1.22 A 1.22,1.22 0 0 0 44.2,35.89 1.14,1.14 0 0 0 44.8,35 h 0.08 a 1.16,1.16 0 0 0 0.52,-2.16 z"
     id="path144" />
  <path
     class="cls-11"
     d="m 68.83,18.89 a 1,1 0 0 0 -0.46,-0.76 1,1 0 0 0 0,-0.3 0.94,0.94 0 0 0 -0.65,-0.84 1,1 0 0 0 0,-0.34 0.94,0.94 0 0 0 -1,-0.88 0.73,0.73 0 0 0 -0.3,0.07 0.93,0.93 0 0 0 -0.94,-0.63 1.12,1.12 0 0 0 -0.37,0.09 0.94,0.94 0 0 0 -1.72,0.23 1,1 0 0 0 -0.6,-0.17 0.93,0.93 0 0 0 -0.88,0.9 v 0 a 1,1 0 0 0 -0.89,1 h -0.18 a 0.94,0.94 0 0 0 -0.54,1.67 0.94,0.94 0 0 0 0.17,1.68 1,1 0 0 0 -0.13,0.53 0.94,0.94 0 0 0 1,0.89 v 0 a 1.09,1.09 0 0 0 0,0.18 1,1 0 0 0 1,0.89 0.89,0.89 0 0 0 0.45,-0.15 0.94,0.94 0 0 0 0.87,0.48 1,1 0 0 0 0.69,-0.37 0.94,0.94 0 0 0 0.69,0.24 0.93,0.93 0 0 0 0.77,-0.47 0.92,0.92 0 0 0 0.24,0 A 0.94,0.94 0 0 0 67,22 a 0.65,0.65 0 0 0 0.28,0 0.94,0.94 0 0 0 0.89,-1 0.19,0.19 0 0 0 0,-0.08 1,1 0 0 0 0.63,-0.94 1,1 0 0 0 -0.17,-0.49 1,1 0 0 0 0.2,-0.6 z"
     id="path146" />
  <path
     class="cls-12"
     d="m 23.49,53.77 a 2.76,2.76 0 0 1 -1.25,0.54 c -0.39,0.06 -0.79,0 -1.18,0.1 -0.39,0.1 -0.84,0.26 -1.27,0.34 A 4.78,4.78 0 0 1 16.47,54 C 16,53.48 16,52.58 16,51.86 a 4.17,4.17 0 0 1 0.23,-1.56 c 0.54,-1.46 1.24,-1.91 2.42,-2.93 a 1.45,1.45 0 0 1 0.55,-0.34 1.25,1.25 0 0 1 0.69,0 11.27,11.27 0 0 0 1.26,0.36 c 1.22,0.19 3.06,0 3.66,1.42 a 4.44,4.44 0 0 1 -1.32,4.96 z"
     id="path148" />
  <path
     class="cls-5"
     d="m 16.79,51 a 4.63,4.63 0 0 0 0.42,2.2 c 0.32,0.74 1.16,0.74 2.63,0.85 a 19.22,19.22 0 0 0 3.65,-0.28 2.76,2.76 0 0 1 -1.25,0.54 c -0.39,0.06 -0.79,0 -1.18,0.1 -0.39,0.1 -0.84,0.26 -1.27,0.34 A 4.78,4.78 0 0 1 16.47,54 C 16,53.48 16,52.58 16,51.86 a 4.17,4.17 0 0 1 0.23,-1.56 4.62,4.62 0 0 1 0.65,-1.24 10.76,10.76 0 0 1 1.77,-1.69 38.46,38.46 0 0 0 -1.86,3.63 z"
     id="path150" />
  <path
     class="cls-1"
     d="m 33.41,47.71 0.42,-0.26 c 0.06,0 0.14,-0.05 0.19,-0.1 A 1.81,1.81 0 0 1 35.15,47 15.07,15.07 0 0 0 37,46.81 c 0.63,-0.1 1.28,-0.09 1.92,-0.13 a 4.62,4.62 0 0 0 0.65,-0.07 1.21,1.21 0 0 1 1.23,0.43 c 0.18,0.2 0.4,0.38 0.57,0.59 a 3.34,3.34 0 0 1 0.74,1.45 3.13,3.13 0 0 0 0.4,1.05 1.35,1.35 0 0 1 -0.4,1.85 6.9,6.9 0 0 1 -1.47,0.84 c -0.49,0.2 -1,0.45 -1.44,0.68 l -0.15,0.07 a 5.58,5.58 0 0 1 -2.4,0.25 6.16,6.16 0 0 1 -2.42,-0.67 2.08,2.08 0 0 1 -1,-1 3.36,3.36 0 0 1 -0.37,-1.85 15.27,15.27 0 0 1 0.29,-1.5 0.32,0.32 0 0 1 0.11,-0.17 0.85,0.85 0 0 0 0.27,-0.65 c 0.01,-0.09 -0.06,-0.16 -0.12,-0.27 z"
     id="path152" />
  <path
     class="cls-2"
     d="m 33.23,52.13 a 2.08,2.08 0 0 0 1,1 l 0.42,0.18 a 5.5,5.5 0 0 0 2,0.49 5.58,5.58 0 0 0 2.4,-0.25 l 0.15,-0.07 c 0.48,-0.23 1,-0.48 1.44,-0.68 a 6.9,6.9 0 0 0 1.5,-0.8 11.17,11.17 0 0 1 -3.89,1 27.31,27.31 0 0 1 -5.02,-0.87 z"
     id="path154" />
  <path
     class="cls-1"
     d="m 21.91,48 a 4.77,4.77 0 0 1 0.76,-1.38 1.63,1.63 0 0 1 1.41,-0.53 c 1.07,0.17 1.58,1.47 2.58,1.9 1,0.43 2,0 2.86,0.3 1.22,0.45 2.22,3.07 1,4 a 6.83,6.83 0 0 1 -1.46,0.84 c -0.49,0.2 -1,0.45 -1.45,0.68 l -0.15,0.07 a 5.43,5.43 0 0 1 -2.4,0.25 6.16,6.16 0 0 1 -2.42,-0.67 2.13,2.13 0 0 1 -1,-1 3.25,3.25 0 0 1 -0.36,-1.85 11.07,11.07 0 0 1 0.63,-2.61 z"
     id="path156" />
  <path
     class="cls-2"
     d="m 22.66,53.45 a 6.16,6.16 0 0 0 2.42,0.67 5.43,5.43 0 0 0 2.4,-0.25 l 0.15,-0.07 c 0.48,-0.23 1,-0.48 1.45,-0.68 a 6.83,6.83 0 0 0 1.46,-0.84 1.35,1.35 0 0 0 0.4,-1.85 11,11 0 0 1 -1.94,1.86 15.82,15.82 0 0 1 -4.1,1.06 c -0.61,0 -2.24,0.1 -2.24,0.1 z"
     id="path158" />
  <path
     class="cls-12"
     d="m 36.12,57.82 a 2.74,2.74 0 0 1 -0.4,0.5 6.72,6.72 0 0 1 -5,1 4.48,4.48 0 0 1 -2.36,-2.7 c -0.85,-2.2 -0.46,-5.33 2.12,-6.12 2.18,-0.67 4.18,0.55 5.32,2.38 a 5.13,5.13 0 0 1 0.32,4.94 z"
     id="path160" />
  <path
     class="cls-5"
     d="M 30.5,50.53 A 18.23,18.23 0 0 0 28.93,55 c -0.1,1.47 1.58,3.47 2.63,3.57 a 33.8,33.8 0 0 0 4.16,-0.22 6.72,6.72 0 0 1 -5,1 4.48,4.48 0 0 1 -2.36,-2.7 c -0.85,-2.2 -0.46,-5.33 2.12,-6.12"
     id="path162" />
  <path
     class="cls-13"
     d="m 18.22,54.87 0.42,-0.26 A 1.11,1.11 0 0 0 18.83,54.52 1.75,1.75 0 0 1 20,54.21 15.1,15.1 0 0 0 21.84,54 c 0.63,-0.1 1.28,-0.09 1.92,-0.13 a 4.62,4.62 0 0 0 0.65,-0.06 1.21,1.21 0 0 1 1.23,0.42 c 0.18,0.2 0.4,0.38 0.57,0.59 a 3.43,3.43 0 0 1 0.79,1.43 3.05,3.05 0 0 0 0.39,1 1.35,1.35 0 0 1 -0.39,1.9 7.32,7.32 0 0 1 -1.47,0.83 c -0.49,0.21 -1,0.46 -1.44,0.69 l -0.16,0.06 a 5.24,5.24 0 0 1 -2.39,0.25 6,6 0 0 1 -2.42,-0.67 2.06,2.06 0 0 1 -1,-1 A 3.37,3.37 0 0 1 17.75,57.45 15.07,15.07 0 0 1 18,56 0.29,0.29 0 0 1 18.1,55.82 0.81,0.81 0 0 0 18.38,55.18 C 18.35,55.06 18.28,55 18.22,54.87 Z"
     id="path164" />
  <path
     class="cls-14"
     d="m 19.07,60.31 a 6,6 0 0 0 2.42,0.67 5.24,5.24 0 0 0 2.39,-0.25 l 0.16,-0.06 c 0.48,-0.23 0.95,-0.48 1.44,-0.69 a 7.32,7.32 0 0 0 1.52,-0.83 1.35,1.35 0 0 0 0.39,-1.86 10.57,10.57 0 0 1 -1.92,1.87 15.68,15.68 0 0 1 -4.1,1.05 c -0.68,0 -2.3,0.1 -2.3,0.1 z"
     id="path166" />
  <path
     class="cls-12"
     d="m 30.88,64.08 a 3,3 0 0 1 -1.26,0.54 c -0.39,0.06 -0.79,0 -1.18,0.1 -0.39,0.1 -0.83,0.25 -1.26,0.34 a 4.76,4.76 0 0 1 -3.32,-0.74 c -0.52,-0.53 -0.44,-1.43 -0.49,-2.15 a 4.58,4.58 0 0 1 0.23,-1.56 c 0.54,-1.47 1.24,-1.91 2.43,-2.93 a 1.52,1.52 0 0 1 0.55,-0.35 1.36,1.36 0 0 1 0.69,0.05 c 0.42,0.11 0.82,0.29 1.25,0.36 1.23,0.19 3.06,0 3.66,1.42 a 4.44,4.44 0 0 1 -1.3,4.92 z"
     id="path168" />
  <path
     class="cls-5"
     d="m 24.18,61.31 a 4.4,4.4 0 0 0 0.42,2.2 c 0.31,0.74 1.15,0.74 2.63,0.84 a 18.69,18.69 0 0 0 3.65,-0.27 3,3 0 0 1 -1.26,0.54 c -0.39,0.06 -0.79,0 -1.18,0.1 -0.39,0.1 -0.83,0.25 -1.26,0.34 a 4.76,4.76 0 0 1 -3.32,-0.74 c -0.52,-0.53 -0.44,-1.43 -0.49,-2.15 a 4.58,4.58 0 0 1 0.23,-1.56 4.93,4.93 0 0 1 0.65,-1.24 10.87,10.87 0 0 1 1.75,-1.69 36.2,36.2 0 0 0 -1.82,3.63 z"
     id="path170" />
  <path
     class="cls-13"
     d="m 37,51.16 0.43,-0.26 a 1,1 0 0 0 0.18,-0.09 1.77,1.77 0 0 1 1.13,-0.31 14.64,14.64 0 0 0 1.88,-0.24 c 0.64,-0.1 1.28,-0.09 1.93,-0.13 a 4.62,4.62 0 0 0 0.64,-0.06 1.2,1.2 0 0 1 1.23,0.42 c 0.19,0.2 0.4,0.38 0.58,0.59 a 3.31,3.31 0 0 1 0.73,1.46 3.39,3.39 0 0 0 0.4,1 1.35,1.35 0 0 1 -0.4,1.85 6.83,6.83 0 0 1 -1.46,0.84 c -0.49,0.21 -1,0.46 -1.45,0.69 l -0.15,0.06 a 5.28,5.28 0 0 1 -2.4,0.25 6.16,6.16 0 0 1 -2.42,-0.67 2.1,2.1 0 0 1 -1,-1 3.3,3.3 0 0 1 -0.36,-1.86 12.61,12.61 0 0 1 0.28,-1.49 0.37,0.37 0 0 1 0.11,-0.18 0.85,0.85 0 0 0 0.28,-0.65 C 37.12,51.35 37.05,51.27 37,51.16 Z"
     id="path172" />
  <path
     class="cls-2"
     d="m 36.81,55.59 a 2.1,2.1 0 0 0 1,1 l 0.43,0.18 a 5,5 0 0 0 2,0.49 5.28,5.28 0 0 0 2.4,-0.25 l 0.15,-0.06 c 0.48,-0.23 1,-0.48 1.45,-0.69 a 6.83,6.83 0 0 0 1.46,-0.84 11.17,11.17 0 0 1 -3.88,1.06 27.74,27.74 0 0 1 -5.01,-0.89 z"
     id="path174" />
  <path
     class="cls-15"
     d="m 37.91,57.28 a 4.71,4.71 0 0 1 0.76,-1.39 1.66,1.66 0 0 1 1.42,-0.53 c 1.07,0.18 1.58,1.48 2.57,1.9 0.99,0.42 2,0 2.87,0.3 1.21,0.45 2.21,3.08 1,4 a 7.32,7.32 0 0 1 -1.47,0.83 c -0.49,0.21 -1,0.46 -1.44,0.69 l -0.16,0.06 a 5.24,5.24 0 0 1 -2.39,0.25 6,6 0 0 1 -2.42,-0.67 2.06,2.06 0 0 1 -1,-1 3.22,3.22 0 0 1 -0.37,-1.86 10.88,10.88 0 0 1 0.63,-2.58 z"
     id="path176" />
  <path
     class="cls-2"
     d="m 38.67,62.68 a 6,6 0 0 0 2.42,0.67 5.24,5.24 0 0 0 2.39,-0.25 l 0.16,-0.06 c 0.48,-0.23 1,-0.48 1.44,-0.69 a 7.32,7.32 0 0 0 1.47,-0.83 1.35,1.35 0 0 0 0.39,-1.86 10.57,10.57 0 0 1 -1.94,1.87 15.68,15.68 0 0 1 -4.1,1 c -0.61,0.05 -2.23,0.15 -2.23,0.15 z"
     id="path178" />
  <path
     class="cls-12"
     d="m 53.25,57.18 a 2.38,2.38 0 0 1 -0.4,0.5 6.71,6.71 0 0 1 -5,1 A 4.49,4.49 0 0 1 45.51,56 c -0.85,-2.2 -0.46,-5.33 2.12,-6.12 a 4.68,4.68 0 0 1 5.37,2.39 5.13,5.13 0 0 1 0.25,4.91 z"
     id="path180" />
  <path
     class="cls-5"
     d="m 47.63,49.89 a 18.23,18.23 0 0 0 -1.57,4.44 c -0.1,1.47 1.58,3.47 2.63,3.57 a 33.8,33.8 0 0 0 4.16,-0.22 6.71,6.71 0 0 1 -5,1 A 4.49,4.49 0 0 1 45.51,56 c -0.85,-2.2 -0.46,-5.33 2.12,-6.12"
     id="path182" />
  <path
     class="cls-12"
     d="m 38.3,62.8 0.42,-0.26 a 1.74,1.74 0 0 0 0.19,-0.1 1.78,1.78 0 0 1 1.09,-0.31 15,15 0 0 0 1.89,-0.23 c 0.63,-0.1 1.28,-0.09 1.92,-0.14 a 4.62,4.62 0 0 0 0.64,-0.06 1.2,1.2 0 0 1 1.23,0.42 c 0.19,0.21 0.41,0.38 0.58,0.6 a 3.32,3.32 0 0 1 0.74,1.45 3.35,3.35 0 0 0 0.4,1 1.35,1.35 0 0 1 -0.4,1.85 7.8,7.8 0 0 1 -1.46,0.84 c -0.49,0.2 -1,0.45 -1.45,0.68 l -0.15,0.06 a 5.43,5.43 0 0 1 -2.4,0.26 6.27,6.27 0 0 1 -2.42,-0.68 2.1,2.1 0 0 1 -1,-1 3.26,3.26 0 0 1 -0.36,-1.85 12.81,12.81 0 0 1 0.29,-1.5 0.32,0.32 0 0 1 0.1,-0.18 0.83,0.83 0 0 0 0.28,-0.64 C 38.42,63 38.35,62.91 38.3,62.8 Z"
     id="path184" />
  <path
     class="cls-1"
     d="m 38.36,59.77 c 0.78,0.58 1.14,3.22 1,3.39 -0.84,1.43 -0.48,2.57 -1.32,4 a 1.36,1.36 0 0 1 -0.3,0.41 1.41,1.41 0 0 1 -0.5,0.22 l -2.56,0.8 c -0.53,0.17 -2.4,-1.65 -2.93,-2 A 4.22,4.22 0 0 1 30,63.44 c -0.25,-2 1.34,-3.64 2.81,-5 a 2.12,2.12 0 0 1 1.19,-0.66 2.12,2.12 0 0 1 0.79,0.14 15.08,15.08 0 0 1 2.28,1 7.87,7.87 0 0 1 1.29,0.85 z"
     id="path186" />
  <path
     class="cls-2"
     d="m 30.49,61.1 c 0,0 0.64,3.44 1.16,4.05 0.52,0.61 2.05,2.33 3.11,2.55 1.06,0.22 2.61,-0.49 3,-0.13 0.13,0.12 -0.32,0.17 -0.5,0.22 l -2.56,0.8 c -0.53,0.17 -2.4,-1.65 -2.93,-2 A 4.22,4.22 0 0 1 30,63.44 Z"
     id="path188" />
</svg>
