<?xml version="1.0" encoding="UTF-8" standalone="no"?>
<svg
   viewBox="0 0 100 100"
   version="1.1"
   id="svg100"
   sodipodi:docname="life.svg"
   inkscape:version="1.1 (c68e22c387, 2021-05-23)"
   xmlns:inkscape="http://www.inkscape.org/namespaces/inkscape"
   xmlns:sodipodi="http://sodipodi.sourceforge.net/DTD/sodipodi-0.dtd"
   xmlns="http://www.w3.org/2000/svg"
   xmlns:svg="http://www.w3.org/2000/svg">
  <sodipodi:namedview
     id="namedview102"
     pagecolor="#ffffff"
     bordercolor="#666666"
     borderopacity="1.0"
     inkscape:pageshadow="2"
     inkscape:pageopacity="0.0"
     inkscape:pagecheckerboard="0"
     showgrid="false"
     inkscape:zoom="8.42"
     inkscape:cx="50"
     inkscape:cy="50"
     inkscape:window-width="1920"
     inkscape:window-height="1046"
     inkscape:window-x="-11"
     inkscape:window-y="-11"
     inkscape:window-maximized="1"
     inkscape:current-layer="svg100" />
  <defs
     id="defs4">
    <style
       id="style2">.cls-1{fill:#e0e0e0;}.cls-2{fill:#6f6f6f;}.cls-3{fill:#a28424;}.cls-4{fill:#534741;}.cls-4,.cls-7{stroke:#806239;stroke-width:0.88px;}.cls-5{fill:#717071;}.cls-6{fill:#6062b7;}.cls-7{fill:#dc7956;}.cls-8{fill:#3e3a39;}.cls-9{fill:#fff;}.cls-10{fill:#f7d440;}.cls-11{fill:#dc5a56;}.cls-12{fill:#db5645;}.cls-13,.cls-14,.cls-15{fill:none;stroke-width:3.11px;}.cls-13{stroke:#3e3a39;}.cls-14,.cls-15{stroke:#fff;}.cls-15{stroke-dasharray:4.94 3.53;}.cls-16{fill:#f9dc64;}</style>
  </defs>
  <ellipse
     class="cls-3"
     cx="53.259998"
     cy="41.740002"
     rx="5.3099999"
     ry="5.1300001"
     id="ellipse16" />
  <ellipse
     class="cls-3"
     cx="39.200001"
     cy="45.209999"
     rx="5.3099999"
     ry="5.1300001"
     id="ellipse18" />
  <path
     class="cls-4"
     d="m 40.73,51.78 c -0.23,0.07 -0.46,0.14 -0.68,0.23 -1.31,0.5 -1.6,1.69 -1.89,3 a 6.7,6.7 0 0 0 0.57,4 3.53,3.53 0 0 0 0.78,1.24 3.72,3.72 0 0 0 1.67,0.74 c 6,1.4 12.28,-0.33 18,-2.65 a 1.74,1.74 0 0 0 0.71,-0.44 1.76,1.76 0 0 0 0.27,-1.2 L 60,50.57 a 1.23,1.23 0 0 0 -0.14,-0.64 1.17,1.17 0 0 0 -0.67,-0.37 12.64,12.64 0 0 0 -5.87,-0.51 c -0.78,0.16 -1.53,0.47 -2.31,0.65 a 29.38,29.38 0 0 1 -3.5,0.45 18.5,18.5 0 0 0 -4,0.91 c -0.86,0.33 -1.83,0.46 -2.78,0.72 z"
     id="path20" />
  <path
     class="cls-5"
     d="M 62.41,63.3 A 7.19,7.19 0 0 1 61.2,62 a 0.55,0.55 0 0 1 -0.11,-0.42 0.57,0.57 0 0 1 0.25,-0.26 15.51,15.51 0 0 1 2,-1.12 0.49,0.49 0 0 1 0.29,-0.06 0.52,0.52 0 0 1 0.28,0.17 10.74,10.74 0 0 1 2.15,2.69 10.77,10.77 0 0 0 1.7,2.86 0.76,0.76 0 0 0 0.41,0.26 0.84,0.84 0 0 0 0.38,-0.08 5.74,5.74 0 0 1 2.1,-0.29 2.25,2.25 0 0 1 1.21,0.35 1,1 0 0 1 0.44,1.12 c -0.31,1 -1.5,0.8 -2.3,0.83 a 37,37 0 0 1 -3.8,0.16 1.41,1.41 0 0 1 -0.71,-0.18 1.46,1.46 0 0 1 -0.41,-0.54 15.54,15.54 0 0 0 -2.67,-4.19 z"
     id="path22" />
  <path
     class="cls-5"
     d="m 28.89,64.3 c -0.11,0.25 -0.23,0.51 -0.33,0.76 a 3.53,3.53 0 0 0 -0.42,1.72 5.29,5.29 0 0 1 0.18,1.7 1.15,1.15 0 0 1 -0.28,0.6 1.19,1.19 0 0 1 -0.77,0.27 c -1.48,0.1 -2.93,-0.43 -4.42,-0.51 A 11.4,11.4 0 0 1 20.3,68.65 1.22,1.22 0 0 1 19.38,67.86 c -0.35,-1.59 2.39,-1.59 3.22,-1.41 1,0.21 1.88,1.12 2.83,0.15 0.95,-0.97 0.86,-3.32 1,-4.53 a 0.94,0.94 0 0 1 0.11,-0.37 0.77,0.77 0 0 1 0.74,-0.25 c 0.56,0 1.11,0.1 1.67,0.13 a 0.47,0.47 0 0 1 0.31,0.08 0.45,0.45 0 0 1 0.12,0.32 5,5 0 0 1 -0.49,2.32 z"
     id="path24" />
  <path
     class="cls-6"
     d="m 35.17,41.52 a 20,20 0 0 1 -0.66,2 c -0.55,1.41 -0.18,3.13 0.05,4.59 a 3.71,3.71 0 0 0 0.49,1.57 5.66,5.66 0 0 0 0.79,0.83 c 3.16,3.07 2.9,8.5 6,11.58 a 4.39,4.39 0 0 0 4,1.36 8.44,8.44 0 0 0 1.54,-0.67 c 2.85,-1.37 6.15,-1.36 9.17,-2.3 a 9,9 0 0 0 3.63,-2 4.91,4.91 0 0 0 1.56,-3.75 c -0.09,-1.27 -0.66,-2.46 -0.85,-3.71 a 23.5,23.5 0 0 1 -0.43,-3.25 1.88,1.88 0 0 1 0.69,-1.77 1.94,1.94 0 0 1 1.07,-0.15 0.76,0.76 0 0 1 0.26,0.06 0.53,0.53 0 0 1 0.18,0.39 14.13,14.13 0 0 0 2.47,6.56 4.27,4.27 0 0 0 2.2,1.36 6.43,6.43 0 0 1 2.33,1.51 c 0.14,0.12 0.1,0.54 0,0.79 A 3.91,3.91 0 0 1 68,58.44 c -0.63,0.46 -1.21,1 -1.86,1.42 A 7.37,7.37 0 0 1 64.82,60.42 27.33,27.33 0 0 0 62,61.61 15.64,15.64 0 0 0 60.32,63 c -0.56,0.42 -1.16,0.78 -1.72,1.2 a 20.37,20.37 0 0 1 -4.19,2.48 13.25,13.25 0 0 1 -5.9,1.06 C 47.41,67.67 46.3,67.66 45.22,67.5 44.14,67.34 43.1,67.06 42.05,66.8 A 21.38,21.38 0 0 1 37.19,64.51 14.1,14.1 0 0 0 32.24,62.78 C 31.08,62.65 29.95,62.61 28.8,62.56 A 17.59,17.59 0 0 1 25.68,62 7.63,7.63 0 0 1 22,59.73 a 5.65,5.65 0 0 1 -1.26,-2 9,9 0 0 1 -0.79,-4.15 1.93,1.93 0 0 1 1.47,-1.7 6.08,6.08 0 0 0 4,-3.64 c 0.41,-1 0.53,-2.14 1,-3.1 0.47,-0.96 1.45,-2 2,-3.12 a 12.47,12.47 0 0 1 1.07,-1.88 7.42,7.42 0 0 1 1.51,-1.48 11.44,11.44 0 0 1 2.28,-1.42 3,3 0 0 1 1.37,-0.35 1.39,1.39 0 0 1 1.2,0.66 2.18,2.18 0 0 1 0,1.53 c -0.26,0.81 -0.45,1.63 -0.68,2.44 z"
     id="path26" />
  <path
     class="cls-7"
     d="m 58.07,39.36 a 8.73,8.73 0 0 1 2.61,1.27 c 0.11,0.1 3.13,1.29 3,3 a 4.42,4.42 0 0 1 -0.28,1.41 5.65,5.65 0 0 1 -1.47,1.57 c -0.53,0.25 -4.82,0.83 -5.22,0.91 a 14,14 0 0 1 -2.53,-0.26 c -0.34,-0.36 -0.63,-0.77 -1,-1.18 0.14,0 2.55,-0.72 2.78,-0.84 a 3.63,3.63 0 0 0 2.19,-3.6 10.26,10.26 0 0 1 -0.08,-2.28 z"
     id="path28" />
  <path
     class="cls-6"
     d="m 36.89,35.43 v 0 a 7.38,7.38 0 0 1 -6,-1.78 4.49,4.49 0 0 1 -1.66,-3.3 5.94,5.94 0 0 1 1.38,-2.62 16.92,16.92 0 0 1 2.55,-3.42 c 1.35,-1.15 2.53,-2.48 3.9,-3.61 A 30.1,30.1 0 0 1 42.82,17 8,8 0 0 1 49,16.76 a 16.13,16.13 0 0 1 5.47,2.8 19.9,19.9 0 0 1 2.59,2.68 7.06,7.06 0 0 1 1,1.73 c 0.51,1.14 1,2.3 1.44,3.46 a 4,4 0 0 1 0.15,0.72 c -0.55,0.19 -1,0.41 -1.56,0.54 -2.11,0.55 -2.93,2.9 -5,3.66 a 7.32,7.32 0 0 1 -2.18,0.36 c -2.06,0.07 -4.11,-0.25 -6.17,-0.36 -1.58,-0.08 -2.57,-0.31 -3.71,0.84 a 7.65,7.65 0 0 1 -4.14,2.24 z"
     id="path30" />
  <path
     class="cls-8"
     d="m 23.58,38.29 a 36.75,36.75 0 0 1 0.71,-3.95 9.87,9.87 0 0 1 2,-3.66 5.09,5.09 0 0 1 1.91,-1.46 2.16,2.16 0 0 1 2.42,0.4 4.76,4.76 0 0 0 1.12,0.65 c 0.57,0.27 1.19,0.47 1.75,0.79 a 6.27,6.27 0 0 1 1.13,0.94 12.68,12.68 0 0 0 1.17,1.15 2.75,2.75 0 0 1 1.36,1.72 c 0,0.12 0.06,0.33 0,0.37 -0.76,0.52 -0.76,1.46 -1.19,2.16 a 2.22,2.22 0 0 1 -1.4,1.08 7.14,7.14 0 0 0 -3.08,1.86 15.86,15.86 0 0 1 -4.2,3.26 c -0.12,0.06 -0.26,0.16 -0.38,0.14 A 9.19,9.19 0 0 1 25.24,43.31 1.56,1.56 0 0 1 24.3,42.14 C 24.12,40.92 23.86,39.7 23.58,38.29 Z"
     id="path32" />
  <path
     class="cls-7"
     d="m 55.08,37.76 c -1.16,-0.57 -2.32,-1.11 -3.54,-0.48 -0.28,0.15 -0.61,0.17 -0.91,0.3 a 2.73,2.73 0 0 0 -1.47,1.74 6.39,6.39 0 0 0 0,3.75 c 0,0.13 0.38,2.22 0.41,2.44 -2.24,-1.18 -3.71,0 -5.07,1.58 -0.28,-0.65 -0.83,-3.24 -1.16,-3.8 -0.8,-1.34 -1.74,-2.59 -3.41,-2.85 -1.41,-0.22 -2.87,-0.38 -4,0.79 -0.42,0.42 -0.93,0.77 -1,1.41 0,0.16 -0.23,1.28 -0.29,1.44 -0.06,0 0,-1 -0.06,-1 a 13.22,13.22 0 0 1 0.15,-1.78 9.52,9.52 0 0 1 0.54,-1.43 9.86,9.86 0 0 1 2.58,-4.35 11.73,11.73 0 0 1 7.08,-2.64 25.15,25.15 0 0 1 5.13,0.26 12,12 0 0 0 2.42,0.37 c 0.56,-0.06 1,-0.52 1.53,-0.69 a 3.76,3.76 0 0 1 3.38,1.18 4,4 0 0 1 0.61,1.17 3.78,3.78 0 0 1 0,3 0.83,0.83 0 0 1 -0.36,0.38 1,1 0 0 1 -0.54,0 7.74,7.74 0 0 1 -2.02,-0.79 z"
     id="path34" />
  <path
     class="cls-8"
     d="m 61.56,40.51 a 5.26,5.26 0 0 1 -1.27,0.21 10,10 0 0 1 -1.61,-0.41 1.53,1.53 0 0 0 -0.52,-0.13 c -0.9,0.13 -1.29,-0.47 -1.75,-1.08 -1.2,-1.6 -1.33,-3.62 -2.15,-5.37 -0.24,-0.51 -0.31,-1.11 -0.53,-1.64 a 1.23,1.23 0 0 1 0.3,-1.37 6.23,6.23 0 0 1 3.32,-2.2 3.27,3.27 0 0 1 4.14,1.69 c 0.66,1.25 1.12,2.61 1.69,3.91 A 7.36,7.36 0 0 0 64.11,36 3.22,3.22 0 0 0 67,37.06 c 0.87,-0.08 1.11,0.18 0.95,1 a 1.57,1.57 0 0 1 -1.35,1.46 c -1.38,0.24 -2.75,0.51 -4.13,0.78 -0.3,0 -0.6,0.15 -0.91,0.23 z"
     id="path36" />
  <path
     class="cls-7"
     d="m 40.57,49.3 -0.55,0.35 c -0.8,0.56 -1.07,2.22 -1.13,3.27 0,0.31 0.87,1.9 0.38,1.89 -0.49,-0.01 -2.4,0.49 -3,0.16 -0.6,-0.33 -1.31,-2.42 -1.91,-2.61 a 22.35,22.35 0 0 1 -2.7,-1.08 2.77,2.77 0 0 1 -0.94,-3.3 7,7 0 0 1 1,-1.72 1.56,1.56 0 0 1 1.69,-0.26 c 0.72,0.22 1.21,-0.19 1.1,-1 a 3.61,3.61 0 0 1 0,-0.93 c 0.15,0.65 0.29,1.31 0.45,2 a 5.25,5.25 0 0 0 1.2,2.27 2.67,2.67 0 0 0 3.06,0.74 3.12,3.12 0 0 1 1.27,0.11 z"
     id="path38" />
  <path
     class="cls-9"
     d="m 35.85,44.41 a 2.68,2.68 0 0 1 0.85,-2.29 2.36,2.36 0 0 1 2,-0.57 c 2.22,0.26 4.21,1.28 3.75,3.65 -0.46,2.37 -2,2.78 -3.35,2.54 a 3.69,3.69 0 0 0 -1,0.09 1.07,1.07 0 0 1 -1,-0.36 4.68,4.68 0 0 1 -1.25,-3.06 z m 4,0.77 v 0 c 0,-0.07 0,-0.14 0,-0.21 0,-0.69 -0.36,-0.91 -1,-0.65 -0.64,0.26 -0.67,0.82 -0.79,1.35 a 0.79,0.79 0 0 0 0.53,1.06 0.9,0.9 0 0 0 1.09,-0.73 c 0.07,-0.25 0.11,-0.54 0.17,-0.82 z"
     id="path40" />
  <path
     class="cls-9"
     d="m 50.08,41.65 a 3.06,3.06 0 0 1 1.09,-2.43 c 1.42,-0.87 3.78,0 4.76,1.12 1.19,1.43 0,3.53 -1.53,4 a 5.39,5.39 0 0 1 -2.95,-0.1 C 50.22,43.93 50,42.83 50.08,41.65 Z"
     id="path42" />
  <path
     class="cls-7"
     d="m 55.31,49.67 c 0.07,-0.42 0.21,-1.41 0.23,-1.67 0,-0.61 1.7,-1.26 2.12,-1.46 0.42,-0.2 2.91,0.22 3.25,0.71 1,1.44 1.4,6.17 0.83,7.94 -0.21,0.67 -3.09,2 -3.1,1.89 -0.11,-1.33 -0.29,-4.39 -0.38,-5.73 a 12,12 0 0 0 -0.15,-1.48 0.83,0.83 0 0 0 -0.41,-0.53 1.72,1.72 0 0 0 -0.8,0.09 9,9 0 0 0 -1.59,0.24 z"
     id="path44" />
  <path
     class="cls-7"
     d="m 42.07,61.77 a 2.54,2.54 0 0 1 -1.69,0.3 c -1.47,-0.59 -2.7,-2.51 -3.51,-3.79 -0.94,-1.49 -1.44,-4 -0.09,-5.48 A 3.47,3.47 0 0 1 38,52 a 14.48,14.48 0 0 1 2.87,-1 0.11,0.11 0 0 1 0.08,0 0.14,0.14 0 0 1 0.09,0.08 l 0.33,0.41 a 3.06,3.06 0 0 1 0.45,0.73 0.86,0.86 0 0 1 -0.1,0.81 c -0.41,0.52 -1.4,0.2 -1.8,0.73 -0.73,1 0.69,3.62 1,4.66 0.31,1.04 0.75,2.26 1.15,3.35 z"
     id="path46" />
  <path
     class="cls-10"
     d="m 50.81,53.28 a 2.9,2.9 0 0 0 -0.13,2.1 c 0.07,0.68 0.24,1.35 0.32,2 0,0.1 -0.16,0.31 -0.28,0.33 A 12.61,12.61 0 0 1 49,58 0.49,0.49 0 0 1 48.61,57.7 c -0.17,-1.2 -0.32,-2.4 -0.44,-3.6 a 0.47,0.47 0 0 1 0.23,-0.38 c 0.68,-0.2 1.37,-0.36 2.06,-0.52 0.07,-0.05 0.18,0.02 0.35,0.08 z"
     id="path48" />
  <path
     class="cls-10"
     d="m 56.52,51.43 0.92,4.81 a 3,3 0 0 1 -1.65,0.52 c -0.22,0 -0.36,-0.06 -0.29,-0.34 a 2,2 0 0 0 0,-0.65 c -0.11,-0.94 -0.23,-1.88 -0.35,-2.82 a 0.6,0.6 0 0 1 0.28,-0.64 6.4,6.4 0 0 0 0.89,-1 z"
     id="path50" />
  <path
     class="cls-10"
     d="m 52.41,57.47 -0.36,-4.1 c 0.4,0 0.87,-0.06 1.33,-0.07 0.07,0 0.18,0.12 0.2,0.21 0.1,0.43 0.16,0.86 0.25,1.29 0.09,0.43 0.29,1.06 0.39,1.59 0.13,0.72 0.1,0.73 -0.61,0.86 z"
     id="path52" />
  <path
     class="cls-10"
     d="m 41.64,57.72 c -0.06,-0.52 -0.11,-1 -0.18,-1.7 0.56,0.07 1.06,0.14 1.56,0.17 0.34,0 0.69,0 0.65,0.48 0,0.17 0.29,2.24 0.21,2.28 -0.51,0.25 -2.18,-0.59 -2.24,-1.23 z"
     id="path54" />
  <path
     class="cls-10"
     d="m 46.86,54.86 c 0.18,1.1 -0.15,2.3 0.8,3.39 -0.83,0.08 -1.51,0.15 -2.18,0.2 a 0.23,0.23 0 0 1 -0.16,-0.17 c -0.07,-0.71 -0.15,-1.42 -0.16,-2.14 0,-0.15 0.19,-0.35 0.35,-0.46 0.4,-0.27 0.83,-0.51 1.35,-0.82 z"
     id="path56" />
  <path
     class="cls-8"
     d="m 39.85,45.16 a 8.45,8.45 0 0 1 -0.28,0.85 1.72,1.72 0 0 1 -1.84,0.68 c -0.76,-0.12 -0.63,-2.8 0.41,-3 a 1.35,1.35 0 0 1 1.69,1.31 1.62,1.62 0 0 1 0,0.2 z"
     id="path58" />
  <path
     class="cls-8"
     d="m 52.15,43.13 c -0.81,0 -1.29,-0.68 -1.33,-1.86 0,-0.47 0.76,-1 1.44,-1 a 1.58,1.58 0 0 1 1.5,1.27 1.65,1.65 0 0 1 -1.61,1.59 z"
     id="path60" />
  <circle
     class="cls-9"
     cx="50.68"
     cy="20.870001"
     r="1.48"
     id="circle62" />
  <circle
     class="cls-9"
     cx="39.200001"
     cy="25.530001"
     r="1.36"
     id="circle64" />
  <circle
     class="cls-9"
     cx="28.059999"
     cy="53.259998"
     r="0.91000003"
     id="circle66" />
  <circle
     class="cls-9"
     cx="26.01"
     cy="58.490002"
     r="1.59"
     id="circle68" />
  <circle
     class="cls-9"
     cx="31.809999"
     cy="59.970001"
     r="1.25"
     id="circle70" />
  <circle
     class="cls-9"
     cx="65.800003"
     cy="55.77"
     r="1.14"
     id="circle72" />
  <path
     class="cls-11"
     d="m 52.11,51.81 -1.26,-0.17 a 4.28,4.28 0 0 0 -2.13,0.41 9,9 0 0 0 -2.17,1.14 16.32,16.32 0 0 1 -1.51,1 4.1,4.1 0 0 1 -4.27,-0.2 C 39.53,53.26 39.08,50.17 40.1,49.3 A 6.51,6.51 0 0 1 43,48.65 c 0.35,0.07 0.72,-1.07 1,-1.17 0.15,-0.06 0.58,-1.2 1.13,-2.12 0.36,-0.59 2.27,-1.59 3,-0.49 0.64,0.42 1.44,0.3 1.8,0.94 0.19,0.33 2.23,0.44 2.65,0.3 0.7,-0.22 1.36,-0.3 2.88,0.53 1.52,0.83 0.6,3.94 -2,5 a 5.33,5.33 0 0 1 -1.35,0.17 z"
     id="path74" />
  <path
     class="cls-8"
     d="m 44.08,51.48 a 1.31,1.31 0 0 1 0.3,0.36 1.41,1.41 0 0 1 -1.13,1.87 c -0.55,0 -0.8,-0.21 -0.76,-0.79 a 1.63,1.63 0 0 1 1.59,-1.44 z"
     id="path76" />
  <path
     class="cls-8"
     d="m 52.59,48.87 c 0,0.05 0.32,0.2 0.31,0.33 a 1.45,1.45 0 0 1 -0.29,0.81 1.73,1.73 0 0 1 -0.78,0.49 c -0.3,0.07 -0.83,0.11 -0.92,0 A 1.39,1.39 0 0 1 50.83,49.44 C 51,49 52,48.71 52.59,48.87 Z"
     id="path78" />
  <path
     class="cls-7"
     d="m 61.74,55.59 a 1.32,1.32 0 0 1 0.2,1.32 2.74,2.74 0 0 0 -0.15,0.9 3.17,3.17 0 0 1 -1.87,2.61 10.78,10.78 0 0 1 -3.81,1.41 C 55.55,62 55,62 54.4,62 c -1.24,0.18 -2.47,0.35 -3.69,0.56 -1.42,0.24 -2.83,0.48 -4.23,0.78 -0.71,0.16 -1.38,0.48 -2.09,0.66 a 4.06,4.06 0 0 1 -1.53,0.2 3.94,3.94 0 0 1 -2.54,-1.31 24.71,24.71 0 0 1 -1.18,-2.43 12.19,12.19 0 0 0 6.42,-0.42 24.34,24.34 0 0 1 2.81,-0.51 c 1.51,-0.23 3,-0.38 4.53,-0.66 A 39.11,39.11 0 0 0 57.06,58 15.09,15.09 0 0 0 61.74,55.59 Z"
     id="path80" />
  <path
     class="cls-12"
     d="m 47.09,28.74 c 0,0 4.11,-5.81 6.36,-7.62 2.25,-1.81 3.83,-3.71 7.2,-2.58 3.37,1.13 4.17,7.88 6.53,9.9 2.36,2.02 3.72,4.28 7,2.7 A 50.45,50.45 0 0 0 79.79,28 l 4.28,4.95 c 0,0 -3.94,3.38 -3.61,3.38 0.33,0 4.84,-0.56 4.84,-0.56 L 85,47.35 c 0,0 -5.52,1.69 -9.23,-1 -3.71,-2.69 -2.59,-3.38 -5.63,-7 C 67.1,35.73 61.26,27 58.09,28.69 A 72.4,72.4 0 0 0 50.3,33.84 L 46,32.61 47.07,28.74"
     id="path82" />
  <path
     class="cls-13"
     d="m 48.84,32.94 c 0,0 7.09,-11.25 11,-7.43 3.91,3.82 10.46,10.7 14.85,12.72"
     id="path84" />
  <path
     class="cls-14"
     d="m 48.84,32.94 c 0,0 0.6,-1 1.56,-2.22"
     id="path86" />
  <path
     class="cls-15"
     d="m 52.67,28 c 2.3,-2.43 5.17,-4.47 7.2,-2.5 A 142,142 0 0 0 71,35.82"
     id="path88" />
  <path
     class="cls-14"
     d="m 72.38,36.86 a 15.63,15.63 0 0 0 2.34,1.37"
     id="path90" />
  <path
     class="cls-9"
     d="m 46.41,27.05 c 0.48,0.26 0.56,1 0.68,1.69 A 4.77,4.77 0 0 1 47,29.93 c 0,0.49 0.07,0.95 0.54,1.13 0.47,0.18 0.81,-0.08 1.1,-0.51 0.67,-1 3.26,-2 2.77,0.15 -0.17,0.75 -0.34,1.64 0.84,1.59 a 3.78,3.78 0 0 0 1,-0.31 1,1 0 0 1 1,0.1 c 0.53,0.49 0,1.36 -0.24,1.85 a 2.64,2.64 0 0 1 -1.35,1 4.33,4.33 0 0 0 -2,1.19 6.4,6.4 0 0 1 -0.66,1.07 1.12,1.12 0 0 1 -1.28,0.14 c -0.52,-0.3 -0.78,-1 -1.38,-1.12 -0.6,-0.12 -1.08,0.61 -1.35,1.2 -0.27,0.59 -0.75,1.3 -1.39,1.15 -0.91,-0.2 -1,-1.91 -1.91,-1.84 -0.54,0 -0.77,0.67 -1,1.16 a 2.15,2.15 0 0 1 -0.93,1 1.27,1.27 0 0 1 -1.33,-0.08 c -0.75,-0.59 -0.48,-2 -1.26,-2.5 a 2.24,2.24 0 0 0 -1.27,0.79 2.32,2.32 0 0 1 -1.25,0.82 c -0.5,0.07 -1.09,-0.38 -0.94,-0.87 a 1.24,1.24 0 0 1 0.25,-0.39 4,4 0 0 0 0.9,-1.53 A 1.62,1.62 0 0 0 35.44,33.48 3.36,3.36 0 0 0 34,33 c -0.56,-0.1 -1.19,-0.39 -1.3,-1 a 1.35,1.35 0 0 1 0.39,-1 c 1.34,-1.42 3.61,-1.08 5.29,-0.6 1.29,0.36 2.39,1.18 3.78,0.89 a 1.82,1.82 0 0 0 1.36,-1 5.17,5.17 0 0 0 0.16,-0.68 5.1,5.1 0 0 1 0.5,-1.18 2.41,2.41 0 0 1 1.2,-1.29 1.26,1.26 0 0 1 1.03,-0.09 z"
     id="path92" />
  <path
     class="cls-16"
     d="m 30.63,49.92 a 3.09,3.09 0 0 1 -0.8,-0.11 2.93,2.93 0 0 1 -2.07,-2.17 3,3 0 0 1 1.87,-3.45 1.94,1.94 0 0 1 2.53,0.6 2,2 0 0 1 0,2.57 1.63,1.63 0 0 1 -2.14,0.17 c -0.64,-0.43 0.07,-1.35 0.07,-1.35 0,0 0.55,1.27 1.06,0.5 A 0.75,0.75 0 0 0 31,45.51 C 30.81,45.2 30.31,45.38 30.17,45.44 a 1.72,1.72 0 0 0 -1.1,1.86 1.6,1.6 0 0 0 1.11,1.2 2.29,2.29 0 0 0 2.4,-0.88 c 1.93,-2.61 -1.43,-4.27 -1.43,-4.27 a 2.94,2.94 0 0 1 2.19,0.38 3.39,3.39 0 0 1 0.2,4.85 4.2,4.2 0 0 1 -2.91,1.34 z"
     id="path94" />
  <path
     class="cls-16"
     d="m 57.3,38.93 a 3.08,3.08 0 0 0 0.8,-0.1 2.94,2.94 0 0 0 2.07,-2.17 3.06,3.06 0 0 0 -1.88,-3.45 1.9,1.9 0 0 0 -2.52,0.6 2,2 0 0 0 0,2.56 1.6,1.6 0 0 0 2.13,0.17 c 0.64,-0.42 -0.07,-1.34 -0.07,-1.34 0,0 -0.54,1.26 -1.06,0.49 -0.52,-0.77 0.06,-1 0.15,-1.17 0.19,-0.31 0.69,-0.13 0.84,-0.06 a 1.7,1.7 0 0 1 1.09,1.85 1.58,1.58 0 0 1 -1.11,1.21 2.29,2.29 0 0 1 -2.39,-0.88 c -1.94,-2.62 1.42,-4.27 1.42,-4.27 a 2.91,2.91 0 0 0 -2.18,0.38 3.37,3.37 0 0 0 -0.2,4.85 4.21,4.21 0 0 0 2.91,1.33 z"
     id="path96" />
</svg>
