<?xml version="1.0" encoding="UTF-8" standalone="no"?>
<svg
   viewBox="0 0 100 100"
   version="1.1"
   id="svg122"
   sodipodi:docname="renovation.svg"
   inkscape:version="1.1 (c68e22c387, 2021-05-23)"
   xmlns:inkscape="http://www.inkscape.org/namespaces/inkscape"
   xmlns:sodipodi="http://sodipodi.sourceforge.net/DTD/sodipodi-0.dtd"
   xmlns="http://www.w3.org/2000/svg"
   xmlns:svg="http://www.w3.org/2000/svg">
  <sodipodi:namedview
     id="namedview124"
     pagecolor="#ffffff"
     bordercolor="#666666"
     borderopacity="1.0"
     inkscape:pageshadow="2"
     inkscape:pageopacity="0.0"
     inkscape:pagecheckerboard="0"
     showgrid="false"
     inkscape:zoom="8.42"
     inkscape:cx="50"
     inkscape:cy="50"
     inkscape:window-width="1920"
     inkscape:window-height="1046"
     inkscape:window-x="-11"
     inkscape:window-y="-11"
     inkscape:window-maximized="1"
     inkscape:current-layer="svg122" />
  <defs
     id="defs4">
    <style
       id="style2">.cls-1{isolation:isolate;}.cls-2{fill:#e0e0e0;}.cls-3{fill:#6f6f6f;}.cls-4{fill:#b9cd72;}.cls-5{fill:#b9b5a4;}.cls-6{fill:#9c8970;}.cls-7{fill:none;stroke:#b5a087;stroke-linecap:round;stroke-miterlimit:10;stroke-width:0.16px;}.cls-8{fill:#a1a1a1;}.cls-9{fill:#f5d788;}.cls-10{fill:#d2cc8e;}.cls-11{fill:#878075;}.cls-12{fill:#fff;}.cls-13{fill:#4b9fe0;}.cls-14{fill:#a16e6d;}.cls-15{fill:#a1d3ec;}.cls-16,.cls-18{fill:#878787;}.cls-16{mix-blend-mode:multiply;opacity:0.28;}.cls-17{fill:#a9a2a3;}.cls-19{fill:#4c5778;}.cls-20{fill:#c3dbb8;}.cls-21{fill:#61b4e3;}</style>
  </defs>
  <path
     class="cls-2"
     d="M 47.63,28.3 A 5.38,5.38 0 0 0 46.4,28 c -2.27,-0.36 -6,2.51 -8.13,3.47 l -5.11,2.34 -0.16,-2.88 14.94,-6.68 17.9,8.39 a 9,9 0 0 1 -1.74,0.72 c -1.14,0.18 -0.71,0 -1.73,-0.25 a 37.82,37.82 0 0 0 -5.54,-0.87 c -2.68,-0.29 -5.11,-1.65 -7.43,-3 A 16.41,16.41 0 0 0 47.63,28.3 Z"
     id="path18"
     style="isolation:isolate" />
  <path
     class="cls-4"
     d="m 72.2,57.49 -5.54,0.73 a 3.28,3.28 0 0 0 1.06,2.66 c 1.24,1.06 3.19,2.12 3,3.36 -0.19,1.24 -1.77,2.84 0.18,4.61 1.95,1.77 6,2.3 7.62,0.71 1.62,-1.59 2.31,-3.19 0,-5.32 -2.31,-2.13 -6.32,-6.75 -6.32,-6.75 z"
     id="path20"
     style="isolation:isolate" />
  <path
     class="cls-5"
     d="m 26.74,54.48 5.54,0.72 a 3.3,3.3 0 0 1 -1.07,2.66 C 30,58.93 28,60 28.2,61.23 c 0.2,1.23 1.8,2.84 -0.2,4.61 -2,1.77 -6,2.3 -7.62,0.71 -1.62,-1.59 -2.3,-3.19 0,-5.32 2.3,-2.13 6.36,-6.75 6.36,-6.75 z"
     id="path22"
     style="isolation:isolate" />
  <path
     class="cls-2"
     d="M 28.56,58.93 C 28.47,59 22,67.44 26.07,68.5 c 2.47,0.64 6.15,0.33 8.69,0.17 A 174.08,174.08 0 0 1 53,68.14 c 3,0.14 6,0 9,0 2.65,0 5.3,0.61 8,-0.13 a 3,3 0 0 0 1.8,-1.09 c 0.9,-1.36 -2.58,-8.07 -4.19,-8.33 -11.21,-1.8 -20.85,0.43 -32.28,-0.67 -3.16,-0.31 -4.18,-1.1 -6.77,1.01 z"
     id="path24"
     style="isolation:isolate" />
  <path
     class="cls-6"
     d="M 32.45,59.36 H 21.7 V 47.89 c 0,-4.54 -2.31,-11.38 4.52,-11.55 0.51,0 6.23,0.4 6.23,0.2 z"
     id="path26"
     style="isolation:isolate" />
  <path
     class="cls-6"
     d="m 71.41,59.29 c -3.65,0.2 -9.18,0.4 -9.18,0.07 V 47.89 c 0,-3.21 -1.71,-8.21 1.42,-10.24 3.57,-2.31 12.05,-4.33 14.91,0.1 a 9.87,9.87 0 0 1 1.11,5.16 79.11,79.11 0 0 1 -0.1,9.86 c -0.19,2.06 -0.7,4.37 -2.45,5.48 a 6.65,6.65 0 0 1 -2.62,0.83 c -0.25,0.04 -1.5,0.13 -3.09,0.21 z"
     id="path28"
     style="isolation:isolate" />
  <line
     class="cls-7"
     x1="22.41"
     y1="38.549999"
     x2="32.099998"
     y2="38.549999"
     id="line30"
     style="isolation:isolate" />
  <path
     class="cls-7"
     d="m 22.87,42.11 c 1.54,0.25 8,0 8,0"
     id="path32"
     style="isolation:isolate" />
  <path
     class="cls-7"
     d="m 23.34,45.43 c 0.92,0.25 7.22,0.25 7.22,0.25"
     id="path34"
     style="isolation:isolate" />
  <line
     class="cls-7"
     x1="23.49"
     y1="49.490002"
     x2="31.02"
     y2="49.25"
     id="line36"
     style="isolation:isolate" />
  <path
     class="cls-7"
     d="m 22.72,53.31 8.61,-0.13"
     id="path38"
     style="isolation:isolate" />
  <line
     class="cls-7"
     x1="23.34"
     y1="56.5"
     x2="31.639999"
     y2="56.259998"
     id="line40"
     style="isolation:isolate" />
  <line
     class="cls-7"
     x1="69.209999"
     y1="49.490002"
     x2="76.75"
     y2="49.25"
     id="line42"
     style="isolation:isolate" />
  <path
     class="cls-7"
     d="m 68.44,53.31 8.61,-0.13"
     id="path44"
     style="isolation:isolate" />
  <line
     class="cls-7"
     x1="69.059998"
     y1="56.5"
     x2="77.360001"
     y2="56.259998"
     id="line46"
     style="isolation:isolate" />
  <rect
     class="cls-8"
     x="29.74"
     y="43.389999"
     width="2.3599999"
     height="5.6700001"
     id="rect48"
     style="isolation:isolate" />
  <polygon
     class="cls-6"
     points="66.3,61.82 66.53,35.47 31.51,35.53 31.51,61.82 "
     id="polygon50"
     style="isolation:isolate" />
  <rect
     class="cls-9"
     x="38.720001"
     y="40.790001"
     width="20.030001"
     height="20.969999"
     id="rect52"
     style="isolation:isolate" />
  <rect
     class="cls-10"
     x="40.43"
     y="42.5"
     width="7.8600001"
     height="7.8600001"
     id="rect54"
     style="isolation:isolate" />
  <rect
     class="cls-10"
     x="49.59"
     y="42.5"
     width="7.8600001"
     height="7.8600001"
     id="rect56"
     style="isolation:isolate" />
  <rect
     class="cls-10"
     x="40.43"
     y="51.900002"
     width="7.8600001"
     height="7.8600001"
     id="rect58"
     style="isolation:isolate" />
  <rect
     class="cls-10"
     x="49.59"
     y="51.900002"
     width="7.8600001"
     height="7.8600001"
     id="rect60"
     style="isolation:isolate" />
  <rect
     class="cls-11"
     x="39.009998"
     y="50.240002"
     width="0.47"
     height="1.77"
     id="rect62"
     style="isolation:isolate" />
  <rect
     class="cls-12"
     x="33.16"
     y="41.150002"
     width="4.1900001"
     height="10.52"
     id="rect64"
     style="isolation:isolate" />
  <rect
     class="cls-12"
     x="59.630001"
     y="41.150002"
     width="4.1900001"
     height="10.52"
     id="rect66"
     style="isolation:isolate" />
  <rect
     class="cls-12"
     x="33.16"
     y="36.240002"
     width="4.1900001"
     height="3.3099999"
     id="rect68"
     style="isolation:isolate" />
  <rect
     class="cls-12"
     x="38.889999"
     y="36.240002"
     width="19.68"
     height="3.3099999"
     id="rect70"
     style="isolation:isolate" />
  <rect
     class="cls-12"
     x="59.630001"
     y="36.240002"
     width="4.1900001"
     height="3.3099999"
     id="rect72"
     style="isolation:isolate" />
  <path
     class="cls-13"
     d="m 39.54,36.6 c 0,0 -1.06,6.85 -3.66,7.4 0,0 4.55,-0.56 5.44,0.47 0.22,0.26 1.24,-0.65 1.24,-0.65 0,0 2.74,-2 2.92,-4.1 0,0 -0.8,3.51 -2.27,4.64 l 6.14,-0.18 c 0,0 2.72,-2.66 2.78,-4.73 0,0 0.23,4.08 -0.83,4.91 l 6.56,-0.18 c 0,0 -1,-4.61 0.47,-5.73 A 4.34,4.34 0 0 0 60,36.18 h -9.8 z"
     id="path74"
     style="isolation:isolate" />
  <path
     class="cls-14"
     d="m 36.29,36.24 c 0,0 -0.59,0.12 -0.17,0.59 0.42,0.47 24.33,0 25.64,0 0.65,0 0.82,-0.59 0.17,-0.65 -1.06,-0.09 -25.64,0.06 -25.64,0.06 z"
     id="path76"
     style="isolation:isolate" />
  <polygon
     class="cls-12"
     points="40.55,37.37 40.55,35.95 39.66,36.01 39.48,37.31 "
     id="polygon78"
     style="isolation:isolate" />
  <polygon
     class="cls-12"
     points="44.86,37.37 44.86,35.95 43.97,36.01 43.8,37.31 "
     id="polygon80"
     style="isolation:isolate" />
  <polygon
     class="cls-12"
     points="49.17,37.37 49.17,35.95 48.29,36.01 48.11,37.31 "
     id="polygon82"
     style="isolation:isolate" />
  <polygon
     class="cls-12"
     points="53.48,37.37 53.48,35.95 52.6,36.01 52.42,37.31 "
     id="polygon84"
     style="isolation:isolate" />
  <polygon
     class="cls-12"
     points="57.8,37.37 57.8,35.95 56.91,36.01 56.73,37.31 "
     id="polygon86"
     style="isolation:isolate" />
  <rect
     class="cls-15"
     x="66.239998"
     y="39.490002"
     width="8.6199999"
     height="7.6799998"
     id="rect88"
     style="isolation:isolate" />
  <path
     class="cls-16"
     d="m 66.53,35.47 c 0,-0.57 -2.25,-0.91 -2.6,-1.35 a 1.29,1.29 0 0 0 -0.86,-0.38 c -1.12,-0.18 -2.24,-0.33 -3.36,-0.46 a 30.92,30.92 0 0 0 -6.48,-0.51 c -4.51,-0.21 -9,-0.16 -13.54,-0.11 -2.3,0 -4.84,-0.21 -6.83,1.24 a 3.12,3.12 0 0 0 -1.29,2.7 l -7.09,-0.18 c 0,0 3.12,3.95 4.45,4.51 a 8.4,8.4 0 0 0 4.23,0.22 c 3,-0.37 4.51,1.15 7.45,0.41 2.1,-0.53 4.88,-0.25 7,-0.39 a 22.72,22.72 0 0 1 6.59,1 c 2.65,0.63 5.36,-1.53 8.07,-1.48 0.71,0.15 3.12,-0.1 3.84,0 0.57,0.06 0.39,-4.13 0.42,-5.22 z"
     id="path90"
     style="isolation:isolate" />
  <polygon
     class="cls-12"
     points="29.5,32.34 67.9,32.34 48.41,23.6 "
     id="polygon92"
     style="isolation:isolate" />
  <path
     class="cls-17"
     d="m 48.52,24.55 -17.78,7.62 c 0,0 -2.18,1.59 -2.42,1.71 -0.24,0.12 -6.08,-1 -6.08,-1 L 48.7,21.36 73.63,32.46 70,35.18 Z"
     id="path94"
     style="isolation:isolate" />
  <path
     class="cls-18"
     d="M 41.43,27.91 A 16.11,16.11 0 0 0 40.67,24.6 c -0.42,-0.78 -1,-0.14 -1.66,0.12 -0.55,0.21 -1.08,0.41 -0.82,1.18 a 7.24,7.24 0 0 0 1.94,2.72 c 0.71,0.38 1.42,-0.06 1.3,-0.71 z"
     id="path96"
     style="isolation:isolate" />
  <path
     class="cls-18"
     d="m 48,24.49 c 0.18,0.88 1.35,0.8 1.6,-0.24 0.29,-1.24 0.41,-1.95 -0.12,-2.78 -0.53,-0.83 -1.33,-0.9 -1.6,-0.06 A 5.24,5.24 0 0 0 48,24.49 Z"
     id="path98"
     style="isolation:isolate" />
  <path
     class="cls-18"
     d="m 58.39,25.08 c -0.46,-0.36 -1.6,-0.36 -1.66,-0.12 -0.06,0.24 -1.12,1.83 -1.06,2.89 0,0.74 0.82,1.49 1.48,0.83 a 8.87,8.87 0 0 0 2,-2.66 c 0.05,-0.41 -0.29,-0.59 -0.76,-0.94 z"
     id="path100"
     style="isolation:isolate" />
  <path
     class="cls-18"
     d="m 66.36,29.09 c -0.35,0.06 -0.35,-0.41 -0.82,-0.11 a 7.31,7.31 0 0 0 -1.6,2.83 c -0.32,0.78 1,1.18 1.24,1.06 a 7.39,7.39 0 0 0 2.48,-2.71 c 0.48,-1.24 -1.3,-1.07 -1.3,-1.07 z"
     id="path102"
     style="isolation:isolate" />
  <path
     class="cls-18"
     d="m 32.57,31.16 c -0.59,-1.25 -1.47,-2.77 -2.06,-2.77 -0.59,0 -1.89,0.11 -1.72,0.88 a 6.59,6.59 0 0 0 2.21,2.6 c 0.81,0.59 2.22,0.65 1.57,-0.71 z"
     id="path104"
     style="isolation:isolate" />
  <path
     class="cls-19"
     d="M 48.7,21.36 21.35,33.58 18.63,31.75 47.87,18.75 49.7,18.86 76.58,31 a 22.9,22.9 0 0 1 -3.07,1.89 C 73.16,32.93 48.7,21.36 48.7,21.36 Z"
     id="path106"
     style="isolation:isolate" />
  <path
     class="cls-19"
     d="m 47.87,19.82 c 0,0 -2.12,-1.3 -1.06,-1.83 1.06,-0.53 3.37,-1.24 3.72,0 a 1.8,1.8 0 0 1 -0.83,2 z"
     id="path108"
     style="isolation:isolate" />
  <polygon
     class="cls-20"
     points="70.2,35.71 28.82,35.71 30.65,31.28 65.39,31.34 "
     id="polygon110"
     style="isolation:isolate" />
  <path
     class="cls-21"
     d="m 42,39.68 a 0.1,0.1 0 0 0 0.16,0 v 0 a 1.37,1.37 0 0 1 0.45,-0.3 1.32,1.32 0 0 1 1.1,0 1.4,1.4 0 0 1 0.76,0.75 c 0,0.12 0.08,0.22 -0.13,0.32 -0.21,0.1 -0.26,0 -0.32,-0.13 a 0.92,0.92 0 0 0 -0.49,-0.5 0.94,0.94 0 0 0 -0.37,-0.07 0.89,0.89 0 0 0 -0.36,0.07 0.92,0.92 0 0 0 -0.5,0.5 0.23,0.23 0 0 1 -0.22,0.17 0.21,0.21 0 0 1 -0.22,-0.17 1,1 0 0 0 -0.21,-0.3 0.84,0.84 0 0 0 -0.29,-0.2 0.94,0.94 0 0 0 -0.37,-0.07 0.89,0.89 0 0 0 -0.36,0.07 0.94,0.94 0 0 0 -0.5,0.5 c 0,0.12 -0.1,0.22 -0.32,0.13 -0.22,-0.09 -0.14,-0.31 0,-0.49 a 1.48,1.48 0 0 1 0.67,-0.59 1.41,1.41 0 0 1 0.54,-0.11 1.3,1.3 0 0 1 0.55,0.12 1.41,1.41 0 0 1 0.46,0.3 z"
     id="path112"
     style="isolation:isolate" />
  <path
     class="cls-21"
     d="m 47.56,41.87 a 0.12,0.12 0 0 0 0.16,0 v 0 a 1.39,1.39 0 0 1 0.45,-0.31 1.46,1.46 0 0 1 1.11,0 1.43,1.43 0 0 1 0.75,0.76 c 0,0.12 0.08,0.22 -0.13,0.31 -0.21,0.09 -0.26,0 -0.31,-0.13 a 1,1 0 0 0 -0.5,-0.49 1,1 0 0 0 -0.37,-0.08 0.9,0.9 0 0 0 -0.36,0.08 0.83,0.83 0 0 0 -0.3,0.2 1,1 0 0 0 -0.2,0.29 c 0,0.09 -0.08,0.17 -0.22,0.17 a 0.21,0.21 0 0 1 -0.22,-0.17 1,1 0 0 0 -0.2,-0.29 0.83,0.83 0 0 0 -0.3,-0.2 0.87,0.87 0 0 0 -0.73,0 1,1 0 0 0 -0.5,0.49 c 0,0.13 -0.1,0.22 -0.31,0.13 -0.21,-0.09 -0.15,-0.31 0,-0.48 a 1.48,1.48 0 0 1 0.67,-0.59 1.45,1.45 0 0 1 0.54,-0.11 1.51,1.51 0 0 1 0.56,0.11 1.39,1.39 0 0 1 0.45,0.31 z"
     id="path114"
     style="isolation:isolate" />
  <path
     class="cls-21"
     d="m 54.17,39.15 a 0.14,0.14 0 0 0 0.17,0 v 0 a 1.57,1.57 0 0 1 0.45,-0.31 1.43,1.43 0 0 1 1.1,0 1.48,1.48 0 0 1 0.76,0.76 c 0.05,0.12 0.08,0.22 -0.13,0.31 -0.21,0.09 -0.27,0 -0.32,-0.12 a 0.88,0.88 0 0 0 -0.5,-0.5 0.85,0.85 0 0 0 -0.72,0 0.79,0.79 0 0 0 -0.3,0.2 0.83,0.83 0 0 0 -0.2,0.3 0.22,0.22 0 0 1 -0.22,0.16 0.22,0.22 0 0 1 -0.23,-0.16 0.95,0.95 0 0 0 -0.49,-0.5 1,1 0 0 0 -0.37,-0.08 0.86,0.86 0 0 0 -0.36,0.08 0.88,0.88 0 0 0 -0.5,0.5 c -0.05,0.12 -0.1,0.22 -0.32,0.12 -0.22,-0.1 -0.14,-0.31 0,-0.48 a 1.48,1.48 0 0 1 0.67,-0.59 1.41,1.41 0 0 1 0.54,-0.11 1.46,1.46 0 0 1 0.55,0.11 1.57,1.57 0 0 1 0.45,0.31 z"
     id="path116"
     style="isolation:isolate" />
</svg>
