<?xml version="1.0" encoding="UTF-8" standalone="no"?>
<svg
   viewBox="0 0 100 100"
   version="1.1"
   id="svg58"
   sodipodi:docname="stay.svg"
   inkscape:version="1.1 (c68e22c387, 2021-05-23)"
   xmlns:inkscape="http://www.inkscape.org/namespaces/inkscape"
   xmlns:sodipodi="http://sodipodi.sourceforge.net/DTD/sodipodi-0.dtd"
   xmlns="http://www.w3.org/2000/svg"
   xmlns:svg="http://www.w3.org/2000/svg">
  <sodipodi:namedview
     id="namedview60"
     pagecolor="#ffffff"
     bordercolor="#666666"
     borderopacity="1.0"
     inkscape:pageshadow="2"
     inkscape:pageopacity="0.0"
     inkscape:pagecheckerboard="0"
     showgrid="false"
     inkscape:zoom="8.42"
     inkscape:cx="50"
     inkscape:cy="50"
     inkscape:window-width="1920"
     inkscape:window-height="1046"
     inkscape:window-x="-11"
     inkscape:window-y="-11"
     inkscape:window-maximized="1"
     inkscape:current-layer="svg58" />
  <defs
     id="defs4">
    <style
       id="style2">.cls-1{fill:#e0e0e0;}.cls-2{fill:#6f6f6f;}.cls-3{fill:#4b9b78;}.cls-4{fill:#d3b321;}.cls-5{fill:#736357;}.cls-6{fill:#d4d4d4;}.cls-7{fill:#e99e3b;}.cls-8{fill:#7bbb78;}</style>
  </defs>
  <circle
     class="cls-3"
     cx="72.809998"
     cy="52.27"
     r="3.2"
     id="circle12" />
  <circle
     class="cls-3"
     cx="68.220001"
     cy="53.860001"
     r="3.2"
     id="circle14" />
  <circle
     class="cls-3"
     cx="67.019997"
     cy="58.259998"
     r="3.2"
     id="circle16" />
  <circle
     class="cls-3"
     cx="72.410004"
     cy="56.860001"
     r="3.2"
     id="circle18" />
  <circle
     class="cls-3"
     cx="71.019997"
     cy="61.650002"
     r="3.2"
     id="circle20" />
  <circle
     class="cls-3"
     cx="76.209999"
     cy="61.650002"
     r="3.2"
     id="circle22" />
  <circle
     class="cls-3"
     cx="76.209999"
     cy="58.459999"
     r="3.2"
     id="circle24" />
  <circle
     class="cls-3"
     cx="76.610001"
     cy="52.27"
     r="3.2"
     id="circle26" />
  <circle
     class="cls-3"
     cx="80.410004"
     cy="55.66"
     r="3.2"
     id="circle28" />
  <circle
     class="cls-3"
     cx="80.610001"
     cy="59.66"
     r="3.2"
     id="circle30" />
  <circle
     class="cls-3"
     cx="77.209999"
     cy="55.66"
     r="3.2"
     id="circle32" />
  <path
     class="cls-4"
     d="m 33.16,33.45 4.92,30.14 a 2.26,2.26 0 0 0 2.21,1.91 l 3.27,0.12 a 2.28,2.28 0 0 0 2.31,-2.5 l 1.77,-9.78 a 2.27,2.27 0 0 1 2.13,-2.49 l 10.09,-0.64 a 2.28,2.28 0 0 1 2.42,2.2 l 0.4,11.35 A 2.29,2.29 0 0 0 64.92,66 h 4.18 a 2.28,2.28 0 0 0 2.32,-2 l 2.7,-32.07 A 2.27,2.27 0 0 0 72.88,29.71 L 54.82,20.45 A 2.31,2.31 0 0 0 52.64,20.5 L 34.27,31.11 a 2.28,2.28 0 0 0 -1.11,2.34 z"
     id="path34" />
  <path
     class="cls-5"
     d="m 77.13,26.71 a 4.56,4.56 0 0 0 -3.21,-1.28 2.23,2.23 0 0 1 -2,-1 7.8,7.8 0 0 0 -1.18,-1.37 4.59,4.59 0 0 0 -3.22,-1.27 2.29,2.29 0 0 1 -1.95,-1 7.8,7.8 0 0 0 -1.18,-1.37 4.59,4.59 0 0 0 -3.22,-1.28 2.24,2.24 0 0 1 -1.95,-1 7.4,7.4 0 0 0 -1.18,-1.37 C 56.25,14.12 54.76,14.52 53.67,15.45 A 4,4 0 0 0 50.03,15.35 5,5 0 0 0 47.27,17.78 2.32,2.32 0 0 1 45.48,19 6.22,6.22 0 0 0 43.91,19.36 5,5 0 0 0 41.15,21.78 2.32,2.32 0 0 1 39.31,23 6.52,6.52 0 0 0 37.74,23.35 5.12,5.12 0 0 0 35,25.81 2.33,2.33 0 0 1 33.13,27 a 6.26,6.26 0 0 0 -1.57,0.35 3.64,3.64 0 0 0 -2.62,4.11 c 0.15,1.71 5.15,2.42 7.19,1.05 4.77,-3.17 9.87,-6.05 17.66,-11.77 0,0 1.49,1.52 7.46,5.06 5.97,3.54 13.41,8.44 13.41,8.44 0.74,-0.52 2.06,-0.71 2.78,-1.64 1.11,-1.43 2.07,-3.69 -0.31,-5.89 z"
     id="path36" />
  <path
     class="cls-5"
     d="m 66.13,52 a 2.26,2.26 0 0 0 2.17,-3 4.24,4.24 0 0 0 -3.3,-2.53 4.37,4.37 0 0 0 -3.38,0.52 2.27,2.27 0 0 1 -2.23,0.08 6.28,6.28 0 0 0 -1.51,-0.56 4.46,4.46 0 0 0 -3.38,0.52 2.23,2.23 0 0 1 -2.22,0.08 6.83,6.83 0 0 0 -1.52,-0.56 4.42,4.42 0 0 0 -3.38,0.53 2.28,2.28 0 0 1 -2.22,0.08 6,6 0 0 0 -1.52,-0.56 c -2.61,-0.64 -3.75,0.95 -4.25,2.59 a 2.29,2.29 0 0 0 2.2,3 z"
     id="path38" />
  <path
     class="cls-6"
     d="M 58.08,41.3 H 50.61 A 2.29,2.29 0 0 1 48.32,39.11 L 48,29.19 a 2.28,2.28 0 0 1 2.28,-2.36 h 7.48 A 2.28,2.28 0 0 1 60,29 l 0.37,9.91 a 2.27,2.27 0 0 1 -2.29,2.39 z"
     id="path40" />
  <path
     class="cls-4"
     d="M 34.89,42 H 23.65 c 0,0 -2.51,22.56 -0.08,23.22 2.43,0.66 16.72,0.33 16.72,0.33 z"
     id="path42" />
  <path
     class="cls-5"
     d="M 43.57,44 A 2.26,2.26 0 0 0 45.74,41.05 4.25,4.25 0 0 0 42.39,38.46 4.39,4.39 0 0 0 39,39 a 2.3,2.3 0 0 1 -2.23,0.08 6,6 0 0 0 -1.52,-0.56 4.36,4.36 0 0 0 -3.37,0.52 2.27,2.27 0 0 1 -2.23,0.08 6.45,6.45 0 0 0 -1.51,-0.56 4.46,4.46 0 0 0 -3.38,0.52 2.23,2.23 0 0 1 -2.22,0.08 A 6.83,6.83 0 0 0 21,38.63 c -2.61,-0.63 -3.75,1 -4.25,2.6 a 2.29,2.29 0 0 0 2.2,3 z"
     id="path44" />
  <path
     class="cls-7"
     d="m 22,49.45 c 0,0 0.22,3.72 1.47,4.51 1.25,0.79 4.06,3.72 6.76,2.26 a 5.36,5.36 0 0 0 2.94,-3.84 l 1.69,2.26 c 0,0 -2.14,2.48 -1.35,4.28 0.79,1.8 3.61,2.6 5.07,4.52 1.46,1.92 0.5,2.4 0.5,2.4 l -8.63,-0.17 2.27,-1.33 A 10.7,10.7 0 0 0 31,60.62 c -1.46,-2.26 -5.64,-1.7 -7.89,-2 C 20.86,58.32 21,54 21,54 v -5 z"
     id="path46" />
  <path
     class="cls-8"
     d="m 23.13,47 h -0.19 a 2.79,2.79 0 0 0 -5.05,0 h -0.4 c -1.5,0 -3.5,0.34 -2.71,2.49 0.79,2.15 5.53,0.45 5.53,0.45 0,0 4.09,1.63 5.52,-0.45 C 27.08,47.64 24.62,47 23.13,47 Z"
     id="path48" />
  <path
     class="cls-8"
     d="m 23.13,53.17 h -0.19 a 2.79,2.79 0 0 0 -5.05,0 2.69,2.69 0 0 0 -0.4,0 c -1.5,0 -3.5,0.34 -2.71,2.48 0.79,2.14 5.53,0.45 5.53,0.45 0,0 4.09,1.64 5.52,-0.45 1.25,-1.8 -1.21,-2.48 -2.7,-2.48 z"
     id="path50" />
  <path
     class="cls-8"
     d="M 36.21,51 H 36 a 2.8,2.8 0 0 0 -5.06,0 2.6,2.6 0 0 0 -0.4,0 c -1.49,0 -3.49,0.33 -2.7,2.48 0.79,2.15 5.52,0.45 5.52,0.45 0,0 4.1,1.64 5.53,-0.45 C 40.16,51.7 37.71,51 36.21,51 Z"
     id="path52" />
  <path
     class="cls-7"
     d="m 34.41,60.62 c 0.34,0 2.48,-1.58 3.38,0 a 2.87,2.87 0 0 1 0,2.93 z"
     id="path54" />
</svg>
