<?xml version="1.0" encoding="utf-8"?>
<!-- Generator: Adobe Illustrator 26.3.1, SVG Export Plug-In . SVG Version: 6.00 Build 0)  -->
<svg version="1.1" id="_イヤー_2" xmlns="http://www.w3.org/2000/svg" xmlns:xlink="http://www.w3.org/1999/xlink" x="0px"
	 y="0px" viewBox="0 0 288 192" style="enable-background:new 0 0 288 192;" xml:space="preserve">
<style type="text/css">
	.st0{fill:#517FB3;}
	.st1{fill:#FFFFFF;}
	.st2{fill:#4C5778;}
	.st3{fill:#466EB6;}
	.st4{fill:#4F75BA;}
	.st5{fill:none;stroke:#4C5778;stroke-width:0.56;}
	.st6{fill:#50BFA5;}
	.st7{fill:#D0D0D0;}
	.st8{fill:#A76372;}
	.st9{fill:#D9806A;}
	.st10{fill:#FFFF00;}
	.st11{fill:#E47C60;}
	.st12{fill:none;stroke:#D0D0D0;stroke-width:0.3;}
	.st13{fill:#B75742;}
	.st14{fill:#D0D0C0;}
	.st15{fill:none;stroke:#FFFFFF;stroke-width:0.3;}
	.st16{fill:#E6D8A3;}
	.st17{fill:none;stroke:#FFFFFF;stroke-width:0.28;stroke-linecap:round;stroke-linejoin:round;}
</style>
<g id="_ーディング指示">
	<g>
		<path class="st0" d="M136.4,166.9c0,5.8-13.8,10.4-30.8,10.4s-30.8-4.7-30.8-10.4s13.8-10.4,30.8-10.4S136.4,161.2,136.4,166.9z"
			/>
		<path class="st0" d="M100.9,161c0,4.6-14.5,8.4-32.3,8.4s-32.3-3.7-32.3-8.4s14.5-8.4,32.3-8.4S100.9,156.4,100.9,161z"/>
		<path class="st1" d="M94.8,63.1c0,0,3.6,10,3.3,10.6c-0.1,0.2,9.8,12.6,9.8,12.6l-5.4,2.6c0,0-8.3-10.9-9.7-13.2s-3.3-10-3.3-10
			L94.8,63.1z"/>
		<path class="st2" d="M62.8,154.3c0,0,0.5,0.4,1.6,0.5c1.1,0.1,4.6-2.2,5.3-1.9c0.8,0.4,0.2,5.2,0.2,5.2s-2.5,0-5.1,0.7
			c-6,1.6-7.4,1.8-9.5,0.8C51.6,157.6,58.7,155.9,62.8,154.3L62.8,154.3z"/>
		<path class="st2" d="M76.4,155.9c0,0,2.1,0.7,3.1,0.8s2.5-1.1,3.2-0.8c0.8,0.4,0.7,4,0.7,4s-2.2,0.4-4.7,0.7
			c-3.8,0.4-7.3,2.3-9.9,1.2C64.1,159.7,71.1,157.1,76.4,155.9L76.4,155.9z"/>
		<path class="st3" d="M68.4,80.9l-4.8-1.3c0,0-5.8,27.1-5.7,32.2s3,41.6,3,41.6s3.1,1.9,5,1.8s5.3-1.2,5.3-1.2s-0.8-24.6-1.3-29.2
			s-1-10.2-1-10.2l11.4-26.3L68.4,80.9z"/>
		<path class="st4" d="M71.3,85.5l2.4,70.8c0,0,2.6,0.7,4.5,0.6s6.6-0.3,6.6-0.3s2.5-64,1.7-69.5c-0.1-0.9,1.1-4.6,0.6-5.2
			C82.9,77.4,71.3,85.5,71.3,85.5L71.3,85.5z"/>
		<path class="st5" d="M71.3,85.9c0,0-0.1,7.1,0.8,9.5"/>
		<path class="st5" d="M69.9,85.2c0,0-0.1,7.1,0.8,9.5"/>
		<g>
			<path class="st1" d="M34.7,34.4c0.8,2.2,0.9,1.5,1,1.8c0.1,0.3,2.3,2.3,2.3,2.3l8.4,7.3L58,47.3l1.9,6.6c0,0-13.2-0.4-14-0.7
				c-0.8-0.3-11.5-11.4-12.8-12.5c0,0-1.1-0.1-2.4-0.6c-1.2-0.5-2.7-2.8-2.6-3c0.1-0.1,1.2-1.9,1.2-2c0,0,0.2,0-0.1-0.3
				c-0.3-0.4,0.6-0.9,0.8-1.1c0.1-0.2-4.1-3.2-3.3-3.6c0.9-0.5,3.5,1.5,3.5,1.5l2.2,1.5C32.5,33,34.5,33.8,34.7,34.4L34.7,34.4z"/>
			<path class="st6" d="M53.2,46.1l0.5,10.3c0,0,7.5-0.5,10.8-0.7c4.1-0.2,8-2.8,7.9-3.3c-0.4-1.2-4.2-7.1-5.8-8
				C61.1,41.2,53.1,46.1,53.2,46.1L53.2,46.1z"/>
			<path class="st7" d="M33.1,38.1c-0.7-0.8-0.9-1.7-0.7-2.7C31.7,36.3,32.2,37.6,33.1,38.1z"/>
		</g>
		<path class="st6" d="M78.4,42.2c0,0,4.5,0.6,5.7,1.4c1.3,0.9,5.4,5.1,5.4,5.1s-5.6,18.9-5.3,23s2.3,13.6,2.3,13.6
			s-20.6,1.1-26.9-1.2c0,0,2-9.1,2-11.5S63,52,63.6,50.2c0.5-1.4,2.2-7.2,5.3-7.8C72,41.7,78.4,42.2,78.4,42.2L78.4,42.2z"/>
		<path class="st6" d="M98.8,65l-11.3,1c0,0-0.6-3.8-2.2-7.1c-1.7-3.3,1.3-12.6,3.1-12.2C93.8,47.9,98.8,65.1,98.8,65L98.8,65z"/>
		<path class="st2" d="M84.1,43.8c0,0-0.8-4.8-4.3-5c-1.6-0.1-8.6,0.3-10.3,0.9c-1.9,0.7-2.8,4.9-2.8,4.9c0,1.8,8.7-1.6,8.7-1.6
			L84.1,43.8L84.1,43.8z"/>
		<path class="st2" d="M62.6,50.9l2.3-7l4.5-2.9l1.5,2.4c-0.9,2.2-0.2,3.3-0.9,5.7c-2.8,10.1-5.2,23.3-4.1,35.4
			c0.2,2.3-6.4-0.5-6.4-0.5s-1.2-8.8,0.5-18.4C61.2,59.8,61.5,55.6,62.6,50.9L62.6,50.9z"/>
		<path class="st2" d="M78.4,42.2c0.3,2.2-3.3,5.6-3.2,7.9c1,15.9-1.3,35.8-1.3,35.8s5.4,0.4,7.8,0.2c2.9-0.2,5.2-0.9,6.1-0.7
			c2.4,0.6-0.3-17.4-0.7-29c-0.1-4.2,3.2-9.4,2.1-10.5c-1.6-1.7-3.5-2.9-5.5-3.5C83.2,42.2,78.3,41.5,78.4,42.2z"/>
		<path class="st5" d="M79.6,86.9c0,0,5,5.8,6.2,6.6"/>
		<path class="st1" d="M76.8,37.5l1.1,7c0,0-3.2,5.4-5.6,4.6c-2-0.6-1.6-4.8-1.6-4.8s1.1-4.1,0.8-6.2C71.1,36.2,76.8,37.5,76.8,37.5
			L76.8,37.5z"/>
		<path class="st7" d="M71.5,38.2c-0.3-2.1,5.4-0.7,5.4-0.7l0.1,0.6c-0.2,0.4-0.4,0.8-0.6,1c-1.3,1.4-3.3,2.2-5,2.3
			C71.5,40.3,71.6,39.1,71.5,38.2L71.5,38.2z"/>
		<g>
			<path class="st1" d="M78.2,25.5c0.1-0.1,2.2,8.1,0.4,10.7c-1.9,2.5-6.9,4.1-8.6,2.5c-1.9-1.8-1.9-11.2,1.2-13.9
				S78.2,25.5,78.2,25.5L78.2,25.5z"/>
			<path class="st8" d="M71.9,20.3c0.5,0,1,0,1.3,0.1c1.4,0.3,2.7,1,3.8,2c1.2,0,2.8,0.5,4.8,3c1.1,1.4,1.5,3.1,1.3,4.8
				c-0.1,0.7-1.7,3.1-1.4,3.5c0.1,0.1,0.3,0.2,0.5,0.3c0.5,0.1,1,0,1.4-0.3c-1.9,1.5-4.8,1.9-4.4,5l-0.5-1.1
				c-0.4-0.8-0.6-1.6-0.6-2.5c0-0.5,0-1.1,0.2-1.6c0.4-1.3-1.4-1.9-2.1-2.8c-0.5-0.7-0.7-2.5-1.4-3.7L73.9,26c0,0-1.8-1.1-3.4-0.5
				c-1.4,0.5-1.7-4.5-1.6-5.2c0.1-1,0.7-2,1.6-2.3c-0.6,0.2,0,1.9,0.3,2.1C71.1,20.3,71.5,20.3,71.9,20.3L71.9,20.3z"/>
			<path class="st1" d="M76.5,32.1c0.1,1,0.7,1.8,1.2,1.7c0.6-0.1,1-0.9,0.9-2c-0.1-1-0.7-1.8-1.2-1.7C76.8,30.2,76.4,31,76.5,32.1z
				"/>
		</g>
		<path class="st8" d="M70.6,25.4c0,0-3.1-1-3.7-3.5l3,1L70.6,25.4z"/>
		<path class="st8" d="M69.8,24.8c0,0,1.5,2.9,1.3,1.4c-0.1-1.1,0.3-0.8,0.3-0.8l1.7,2.7L73,24.7l1.9,4.4v-4.2l-2.5-2
			C72.4,22.9,69.8,24.8,69.8,24.8z"/>
		<g>
			<polygon class="st9" points="192.3,26.3 183.9,30.1 188.8,35.9 194.9,31.8 			"/>
			<polygon class="st9" points="219.1,72.2 210.8,76.1 215.6,81.9 221.7,77.7 			"/>
			<polygon class="st9" points="224.7,48.2 220.2,53 226.6,54.3 230.8,51.1 			"/>
			<polygon class="st10" points="191.7,54.3 187.2,59.1 193.6,60.4 197.8,57.2 			"/>
			<polygon class="st10" points="151.5,58.3 147.6,51.8 142.8,57.9 			"/>
			<polygon class="st10" points="189.1,84.3 185.2,77.8 180.4,84 			"/>
			<polygon class="st9" points="165.4,69.3 160.2,72.5 163.1,76.4 167.3,73.8 			"/>
			<polygon class="st10" points="211.9,24.9 206.8,28.1 209.7,31.9 213.9,29.4 			"/>
			<polygon class="st10" points="259.4,44.4 254.2,47.6 257.1,51.4 261.3,48.9 			"/>
			<circle class="st10" cx="225.2" cy="16.3" r="1.6"/>
			<circle class="st10" cx="164.3" cy="63.2" r="1.6"/>
			<circle class="st10" cx="237" cy="35.7" r="1.6"/>
			<circle class="st10" cx="176.2" cy="36.9" r="1.6"/>
		</g>
		<path class="st11" d="M103,161.2l-0.9,2.1c0,0-0.9,1.1-5.8,1.1c-2,0-4.4,0.8-7,0.6s7.1-4,7.1-4l-1.8,0.8L103,161.2L103,161.2z"/>
		<line class="st5" x1="65.4" y1="86.3" x2="62.7" y2="89.1"/>
		<g>
			<path class="st1" d="M78.2,68.9c0,0,0.3,0.6,0.4,0.8c0.1,0.2,0.6,0.8,0.6,0.8s1.7,2.1,1.8,1.9c0.1-0.2,0-0.7,0-0.9
				c-0.1-0.2-0.1-0.4-0.2-0.6c-0.1-0.2,0-0.4,0.2-0.5c0.2-0.1,0.6,0.5,0.7,0.8c0.3,0.8,0.7,3,0.8,3.3c0,0.1,4.3,1.6,8.4,3.7
				c1.1,0.6,3-7.2,3.9-6.6c1.2,0.8,3.8,1.2,4.3,2c0.7,1-2.6,8.3-3.3,9.3c-1.9,2.5-3.9,0.7-6.5-0.8c-4.6-2.6-7.9-4.7-8.1-4.9
				c0,0-1.3-0.9-2.2-1.3s-1.5-1.3-1.7-1.5c0,0-0.8-0.6-1.5-1.7c-0.6-0.9,0.4-0.4,0.4-0.4s1.3,1.5,1.4,1.3c0.1-0.1-0.7-0.9-1.3-1.9
				c-0.2-0.3-0.3-0.5-0.5-0.8c-0.4-0.6-0.1-1.1,0.4-0.5c0.2,0.2,0.5,0.6,0.6,0.8c0.2,0.3,0.4,0.5,0.6,0.7c0.4,0.4,0.7,0.8,0.7,0.8
				c0,0,0.2,0,0-0.3c-0.2-0.3-0.8-0.9-1-1.5c-0.1-0.3-0.5-0.9-0.5-0.9s-0.5-1.1-0.4-1.1c0.3-0.3,0.8,0.4,0.9,0.8
				c0.2,0.2,0.6,0.9,0.6,0.9s1,1.1,1.1,1c0.1-0.1-1.7-3.3-1.4-3.6C77.6,68,78.2,68.9,78.2,68.9L78.2,68.9z"/>
			<path class="st12" d="M82.5,74.5c0,0.1,4.3,1.6,8.4,3.7c1.1,0.6,3-7.2,3.9-6.6"/>
			<path class="st12" d="M99.1,73.7c0.7,1-2.6,8.3-3.3,9.3c-1.9,2.5-3.9,0.7-6.5-0.8"/>
		</g>
		<path class="st13" d="M123.3,99.1l1.2-0.3c0-0.1-2.4-9.8-4.9-19.4c-1.5-5.7-2.8-10.2-3.7-13.5c-1.9-6.5-2.4-6.7-2.7-6.8l-0.5,1.2
			c-0.1,0-0.1-0.1-0.1-0.1c0.3,0.4,1.5,3,6,20.1C121,89.7,123.3,99,123.3,99.1L123.3,99.1z"/>
		<path class="st1" d="M104.6,128c0,0,1.4,5.5,1.2,7c-0.2,1.6-2,17.2-2,17.2l-0.8,9.1l-8.4,0.6c0,0,3.7-0.7,5.8-4.8
			c0.1-0.2-3.6-26.2-3.6-26.2L104.6,128z"/>
		<path class="st1" d="M107.5,114.2c0.6,0.2,3.1,21.8,3.6,22.8c3.2,6.2,3,21.6,3,21.6l0.6,6.6l-0.3,2.6c0,0-1.2,1.6-2.5,1.7
			c-0.5,0-1-1-1.5-1.2l0.3-2.6l0.1-7.1l-5.6-20.6l-6.6-23.3L107.5,114.2L107.5,114.2z"/>
		<path class="st14" d="M94.6,149.2c-1.1-0.3-2.1-0.8-2.7-1.6c-1.8-2.2-5.5-1-5.8-3.6c-0.2-2.4,3.7-10.5,3.2-12.9
			c-0.6-2.8,4.5-14.5,4.9-17.3c0.8-7,10.3-38.6,10.3-38.6c1.4,0.4-2.6,6.8-1.2,6.9c1.1,0.1,1.8,0.3,2.8,0.4c1.9,0.1,3,3.4,5.1,3.2
			c0,0.1,3.7-0.4,3.8-0.3c1,2.3,3.2,6.7,4.5,13.5c0.7,3.6,4.5,7.9,6.7,19.3c1.3,6.7,0,7.2,1.3,13.9c0.4,2.2,2.2,11,4.6,12
			c0.6,0.3,1.3,0.4,1.9,0.8s1,1,0.7,1.5c-0.2,0.3-0.5,0.5-0.8,0.7c-2.1,1.1-4.5,1.9-6.8,2.7c-3.8,1.3-6.3,1.2-10.3,0.5
			c-1.8-0.3-3.5-0.8-5.3-0.7c-2.8,0.1-5.7,1.3-8.2,0.3c-0.5-0.2-1-0.6-1.6-0.7c-0.7-0.1-1.3,0-2,0.1
			C97.8,149.6,96.1,149.6,94.6,149.2L94.6,149.2z"/>
		<path class="st14" d="M100.8,75.3c0,0-1.6-0.2-3.2-0.7c-0.9-0.3-5.2-2-5.2-2s1.7-6.6,3.9-11c0.9-1.8,3.7-2.2,5-2.5L100.8,75.3
			L100.8,75.3z"/>
		<path class="st14" d="M115.6,70.1c0,0-0.2-0.2-0.3-0.1c-0.1,0.2-0.4,15.4-0.4,15.4s-12.9,1-15.4,0.1c0,0-0.5-10.4-1.4-13.4
			c-0.3-1.1-1.4-3-0.8-4.8c0.4-1.2,1.2-2.7,1.7-3.8c0.8-1.8,1.1-3.5,1.8-4.2c0.4-0.4,5.5-0.3,6.1-0.4c0.3,0,1.3,0,2.3,0.1l0,0
			c0.6,0,8.7,1,9.6,1.3"/>
		<path class="st13" d="M110.9,99v4.9c0,2.6,1.8,4.7,4,4.7h4.2V97.1h-6.5c-0.4,0-0.8,0.2-1.2,0.5C111.2,98,111,98.5,110.9,99
			L110.9,99z"/>
		<path class="st11" d="M111.5,97.6L111.5,97.6c0.9,0,1.6,0.8,1.6,1.8v3.6c0,3.1,2.2,5.6,4.8,5.6h2.5c2.7,0,4.8-2.5,4.8-5.6v-3.6
			c0-1.3-0.9-2.3-2-2.3h-10.6C112.2,97.1,111.8,97.3,111.5,97.6z"/>
		<path class="st13" d="M110.9,98.9h1.3c0-0.1,0-9.3,0.1-18.6c0.1-5.5,0.2-10,0.3-13.3c0.3-5.7,0.6-6.7,0.7-6.9c0-0.3-0.1-1-0.1-1
			c-0.2-0.1-0.5-0.1-0.7,0.1c-0.3,0.2-0.5,0.7-0.8,2.4c-0.1,1.1-0.2,2.7-0.3,4.6c-0.2,3.3-0.3,7.8-0.4,13.5
			C110.9,89.2,110.9,98.8,110.9,98.9z"/>
		<path class="st1" d="M105.6,90.1c-0.2,0-1.5,0.1-1.5,0.1s-1.9-1-2.2-0.5c-0.1,0.1,2,1.2,2,1.2s2,0.1,2.5,0c0.9,0,2.8-0.2,5.7-2.1
			c2.5-1.1,12-6.4,12.2-7.6c0.1-0.7-2.7-13.3-2.7-13.3s-4.9,0.4-5.4,0.5c1.2,2,2.8,10.5,2.7,10.9c-0.1,0.4-8.8,7-8.8,7l-2.1-0.2
			c0,0-3.7,0.4-3.8,0.8c-0.1,0.4,1.6,0.3,1.8,0.3c0.1,0,0.4,0.1,0.6,0.2c-0.6,0.2-1.6,0.7-2.1,0.7c-1.2,0-2.7-0.1-2.8,0
			c-0.2,0.2,1.7,0.7,3.1,0.7c0.6,0,0.9-0.1,1.1-0.1c0.3,0.1-0.2,0.3-1.2,0.2c-0.5,0-1.4-0.3-2-0.3c-0.9-0.1-1.5-0.1-1.6,0
			c-0.1,0.1,2.7,0.9,2.7,0.9s1.8,0.2,2.2,0.2C105.9,89.9,106.1,90,105.6,90.1L105.6,90.1z"/>
		<path class="st1" d="M109.2,50.6c0,0,0,0.2,0,0.5c0,1.5,0,6.6,0.4,8c0.5,1.8-4.3,6.1-7.8,4.7c-1-0.4,1.9-4.5,1.9-5
			c0-1,0-2.3,0-3.6c0-0.8,0-1.5,0-2.2c0-2,0-3.7,0-3.7L109.2,50.6L109.2,50.6z"/>
		<path class="st7" d="M109.2,53.1c0-0.3,0-0.5,0-0.5l-5.4-1.3c0,0,0,1.7,0,3.7c0,0.7,0,1.5,0,2.2c0.9,0,1.8-0.2,2.9-0.8
			c1.1-0.6,2-1.5,2.6-2.5C109.2,53.7,109.2,53.4,109.2,53.1L109.2,53.1z"/>
		<path class="st1" d="M108.3,40.6c0,0,2.5-0.8,3.6,1.6s2,7.8-2.8,10.4c-2.3,1.3-4.6,2.2-5.9,0.9c-1.4-1.4-2.2-3.7-2-5.9
			C101.5,43.3,102.5,39.2,108.3,40.6L108.3,40.6z"/>
		<path class="st8" d="M115.5,46.1c-1.2-11.8-6.9-7.1-6.9-7.1c-4.8-1-7.7,4.9-7.7,4.9s1.1,0.9,3.7,1.2s7.1-1.6,7.1-1.6l-3.4,0.8
			l1,5.1c0,0,0.6,4.5,0,7.4s-3,6.3-3,6.3l3.4,0.9c0,0,3.4-5.1,4.2-7.6S115.8,49.3,115.5,46.1L115.5,46.1z"/>
		<path class="st1" d="M107.7,47.3c-0.4,1-0.2,2.1,0.4,2.4c0.7,0.3,1.6-0.3,2-1.4c0.4-1,0.2-2.1-0.4-2.4
			C109,45.6,108.1,46.2,107.7,47.3z"/>
		<path class="st11" d="M110.4,168.2c0,0-1.2,4.6-0.1,4.8s2.9-1.4,2.9-1.4l1.2-3.9l-2.5,1.7L110.4,168.2z"/>
		<polygon class="st11" points="103,161.2 103.2,164.5 100.3,162.4 		"/>
		<path class="st15" d="M100.3,60.8c-0.7,0.7-0.4,0.8-1.3,2.6c-0.5,1.1-1.4,2.6-1.7,3.8c-0.6,1.9,0.4,3.7,0.8,4.8c0.9,3,1.1,7,1.1,7
			"/>
		<path class="st14" d="M118.8,60.3c4.2,3.3,3.8,7.2,6.9,12.2c0,0-2.2,1.7-4,2.4c-0.8,0.3-4.3,1.3-4.3,1.3l-1.8-6.1"/>
		<path class="st16" d="M116.7,41c-1.2,1.3-0.9,3.1-0.4,3.6s1.6,1.5,3,2.4c0,0-2.2,2.1-6.7,0.2c-4.2-1.8-5.1-4-6.4-6.1
			c-2-3.1-6.2-1.7-5.8-2.6s3.4-3.1,6-0.7c1.3,1.3,2.2-2.7,2.2-2.7S118,39.8,116.7,41L116.7,41z"/>
		<path class="st17" d="M106.4,36.3c0,0,2.1,4.2,3.9,6.2c2.3,2.6,7.4,1.7,7.4,1.7"/>
	</g>
</g>
</svg>
