<?xml version="1.0" encoding="utf-8"?>
<!-- Generator: Adobe Illustrator 26.3.1, SVG Export Plug-In . SVG Version: 6.00 Build 0)  -->
<svg version="1.1" id="_イヤー_2" xmlns="http://www.w3.org/2000/svg" xmlns:xlink="http://www.w3.org/1999/xlink" x="0px"
	 y="0px" viewBox="0 0 480 192" style="enable-background:new 0 0 480 192;" xml:space="preserve">
<style type="text/css">
	.st0{fill:#3E3A39;}
</style>
<g id="_ーディング指示">
	<g>
		<path class="st0" d="M61.9,73.5v7.7c2.3,0.9,5,1.6,10.8,1.6c4.2,0,8.9-0.3,12.6-0.6h0.2c1.1,0,1.8,0.9,1.8,1.8c0,0.9-0.7,1.9-2,2
			c-2.9,0.3-6.2,0.5-9.3,0.5c-8.5,0-16.1-0.7-20.2-6.3c-1.3,5.4-2.2,6-3.4,6c-0.9,0-1.8-0.6-1.8-1.6c0-0.2,0.1-0.5,0.2-0.9
			c1.9-3.5,2.6-8.6,2.6-12.8c0-1,0.9-1.5,1.8-1.5s1.8,0.5,1.8,1.6c0,0.9-0.3,4.4-0.4,4.7c0.4,1.1,1.1,2.1,1.8,2.9V67H53
			c-1.1,0-1.6-0.7-1.6-1.5c0-0.8,0.6-1.6,1.6-1.6h5.2l0-3.5h-3.9c-1.2,0-1.7-0.8-1.7-1.6c0-0.8,0.6-1.7,1.7-1.7h3.9V53
			c0-1.1,0.9-1.7,1.8-1.7s1.9,0.6,1.9,1.7v4.1h3.4c1.1,0,1.6,0.8,1.6,1.6c0,0.8-0.5,1.6-1.6,1.6h-3.4v3.5h4.4c1,0,1.6,0.8,1.6,1.6
			S67.2,67,66.2,67h-4.4v3.4h3.6c1,0,1.6,0.8,1.6,1.6s-0.5,1.6-1.6,1.6L61.9,73.5L61.9,73.5z M78.3,61.5c0,3.2,0.2,6.4,1,9.2
			c0.9-1.9,1.7-4.1,2.2-6.6c0.2-0.7,0.7-1.1,1.4-1.1c0.9,0,2,0.7,2,1.7c0,0.1-1,5.2-4.1,9.6c0.3,0.5,1.5,2.4,2.1,2.4
			c0.4,0,0.9-0.7,1.4-2.5c0.3-0.9,0.9-1.2,1.4-1.2c0.9,0,1.9,0.8,1.9,1.8c0,0.4-1.4,5.7-4.8,5.7c-2.2,0-3.8-2.5-4.4-3.5
			c-3.4,3.4-7.1,4.4-7.5,4.4c-1.1,0-1.7-0.7-1.7-1.5c0-0.7,0.4-1.3,1.3-1.6c2.9-1,4.8-2.4,6.4-4.4c-1.3-3.7-1.8-7.9-2-12.4h-1.5
			c-1.3,0-1.5,0.6-1.5,1.4c0,1.7-0.1,4-0.1,6.5v2.8c0.5-0.3,1-0.6,1.4-0.9c0.3-0.2,0.5-0.3,0.8-0.3c0.7,0,1.4,0.7,1.4,1.5
			c0,0.5-0.2,1-0.9,1.4c-4.1,2.8-8.3,4.3-9.2,4.3c-1,0-1.6-0.9-1.6-1.7c0-0.7,0.4-1.3,1.2-1.6c0.9-0.2,2.1-0.7,3.4-1.2v-3.7
			c0-3,0-5.9,0-8.4c0-1.7,1-3.5,4.1-3.6c0.7,0,1.5,0,2.3,0c0-1.8-0.1-3.6-0.1-5.3v0c0-1.1,1-1.6,1.9-1.6c1,0,1.8,0.5,1.8,1.7
			c0,1.7,0,3.4-0.1,5.3c1.8,0,3.7,0,5.5,0.1c1.1,0,1.6,0.9,1.6,1.7c0,0.9-0.6,1.7-1.7,1.7C83.8,61.5,78.3,61.5,78.3,61.5z M81.8,57
			c-0.8-1.2-1.7-1.9-2.4-2.3c-0.4-0.2-0.5-0.5-0.5-0.9c0-0.7,0.7-1.5,1.6-1.5c1,0,4,1.8,4,3.4c0,1-0.9,1.8-1.7,1.8
			C82.5,57.6,82.1,57.4,81.8,57L81.8,57z"/>
		<path class="st0" d="M100.5,60.4c-1.2,0-1.8-0.9-1.8-1.8c0-0.9,0.6-1.8,1.8-1.8h0l8.8,0.1c-0.7-1.1-1.5-2-2.4-2.9
			c-0.3-0.3-0.4-0.6-0.4-0.9c0-0.9,1-1.7,2.1-1.7c1.8,0,4.7,3.8,4.7,5.1c0,0.2,0,0.3-0.1,0.5h4.8c1-1.3,1.9-3.2,2.4-4.7
			c0.4-0.9,1.1-1.3,1.8-1.3c1.1,0,2.3,0.9,2.3,2c0,0.2,0,1.2-2.3,4l8.8-0.1h0c1.2,0,1.8,0.9,1.8,1.8c0,0.9-0.6,1.8-1.8,1.8
			L100.5,60.4L100.5,60.4z M105,85.7c0,1-0.9,1.5-1.8,1.5s-1.8-0.5-1.9-1.6c0-2.1,0-5.8,0-9.6s0-7.7,0-10.1c0-3.7,2.9-3.7,6.9-3.7
			c1.1,0,2.2,0,3.1,0.1c2.1,0.1,3.6,1.3,3.7,3.6c0,0.8,0,3.3,0,5.7v5.6c0,0.7,0,1.6,0,2.4V82c0,2.1-1,4.7-5,4.7
			c-3.2,0-3.5-1.2-3.5-2c0-0.9,0.7-1.8,1.7-1.8c0.1,0,0.2,0,0.4,0c0.4,0.1,0.9,0.2,1.3,0.2c0.8,0,1.4-0.4,1.5-2.2c0-0.9,0-1.9,0-3
			H105C105,81.1,105,84,105,85.7C105,85.7,105,85.7,105,85.7z M105,71.7v3.1h6.4c0-1.1,0-2.1,0-3.1H105L105,71.7z M111.3,68.7
			c0-0.7,0-1.3,0-1.9c0-1.1-0.6-1.3-2.7-1.3c-3.1,0-3.6,0.3-3.6,1.3v1.9H111.3L111.3,68.7z M118.1,64.9c0-1.2,0.9-1.8,1.8-1.8
			s1.9,0.6,1.9,1.8v13.3c0,1.1-0.9,1.7-1.8,1.7s-1.9-0.6-1.9-1.7L118.1,64.9L118.1,64.9z M129.9,81.4L129.9,81.4
			c0,2.5-1.4,5.3-6.2,5.3c-3.6,0-4.7-0.7-4.7-2.4c0-0.9,0.6-1.9,1.6-1.9c0.2,0,0.3,0,0.4,0c0.8,0.2,1.8,0.5,2.6,0.5
			c1.2,0,2.1-0.5,2.2-2.2c0-1.5,0-8.2,0-13v-4.5c0-1.2,1-1.9,1.9-1.9s2,0.6,2,1.9v13.2L129.9,81.4L129.9,81.4z"/>
		<path class="st0" d="M149.1,67.3c-1.4-1.1-2.9-1.9-4.4-2.4c-0.7-0.2-1-0.8-1-1.3c0-0.9,0.8-2,2-2c0.7,0,3.7,0.9,5.6,2.2
			c0.7,0.4,0.9,1.1,0.9,1.7c0,1.1-0.9,2.2-2,2.2C149.8,67.7,149.4,67.6,149.1,67.3L149.1,67.3z M146.3,86.1c-1.1,0-2.1-0.9-2.1-2
			c0-0.4,0.2-0.9,0.5-1.3c2.5-2.8,4.1-5.9,5.7-10c0.3-0.8,1-1.2,1.7-1.2c1,0,2,0.7,2,1.9c0,0.8-2.2,7.1-5.9,11.6
			C147.6,85.9,147,86.2,146.3,86.1L146.3,86.1z M150.9,58.1c-1.1-1.4-2.7-2.5-3.7-3.1c-0.5-0.3-0.8-0.8-0.8-1.3
			c0-0.9,0.9-1.8,2.1-1.8c1,0,5.9,2.6,5.9,4.7c0,1.2-1,2.3-2.1,2.3C151.7,58.7,151.3,58.5,150.9,58.1L150.9,58.1z M160.3,57.9
			c-1.1,1.7-2.3,3.4-3.8,5c-0.5,0.5-1.1,0.8-1.6,0.8c-1.1,0-2.1-0.8-2.1-1.8c0-0.4,0.2-0.9,0.6-1.3c2.7-2.8,4.6-5.9,6.1-9.2
			c0.3-0.7,1-1,1.6-1c1,0,2.1,0.7,2.1,1.8c0,0.5-0.4,1.2-0.9,2.1l15.4-0.1c1.2,0,1.8,0.9,1.8,1.8c0,0.9-0.6,1.9-1.8,1.9H160.3
			L160.3,57.9z M175.6,81.2c-1.2,4.1-3.6,5.9-7.1,5.9c-1,0-2.1-0.2-3.2-0.4c-0.8-0.2-1.1-0.9-1.1-1.6c0-0.9,0.7-2,1.8-2
			c0.2,0,0.4,0,0.6,0.1c0.8,0.2,1.5,0.3,2.1,0.3c1.5,0,2.4-0.7,3.1-2.3l-11.4,0.1h-0.1c-2.9,0-4.4-1.6-4.4-3.6
			c0-0.4,0.1-0.9,0.2-1.4c0.3-1.1,0.6-2.5,0.8-3.9h-1.4c-1.3,0-1.9-0.8-1.9-1.7s0.7-1.8,1.9-1.8h1.9c0.2-1.3,0.4-2.7,0.5-4
			c0.4-3.2,1.7-4.3,5-4.4c1.8,0,3.9-0.1,6-0.1c1.3,0,2.5,0,3.6,0c2.7,0.1,4.6,1.3,4.6,3.9c0,1.3,0,2.9-0.1,4.5h2.9
			c1.2,0,1.8,0.9,1.8,1.7s-0.6,1.8-1.8,1.8h-3c-0.1,1.9-0.3,3.8-0.5,5.4h2.3c1.1,0,1.7,0.8,1.7,1.7s-0.6,1.7-1.7,1.7L175.6,81.2
			L175.6,81.2z M164.1,77.9c0.3-1.8,0.5-3.6,0.7-5.6h-4.5c-0.2,1.6-0.5,3.2-0.7,4.3v0.2c0,0.6,0.5,1.2,1.3,1.2L164.1,77.9
			L164.1,77.9z M165.1,69c0.2-1.9,0.3-3.8,0.4-5.4c-3.2,0-4,0-4.2,1.6c-0.1,1-0.3,2.4-0.5,3.8H165.1z M172.5,77.9
			c0.2-1.6,0.4-3.6,0.6-5.6h-4.7c-0.2,2-0.4,3.9-0.7,5.6L172.5,77.9z M173.1,69c0-1.4,0-2.7,0-3.9c0-1.5-1.1-1.5-4.2-1.5
			c-0.1,1.6-0.2,3.4-0.4,5.4H173.1z"/>
		<path class="st0" d="M223.7,66.8c-3.7,0-7.4-0.1-10.9-0.1c-4.4,0-8.5,0-12.4,0.1c-1.3,0-1.8,0.7-1.8,1.7c0,0.6,0,1.3,0,2.1
			c0,3.8-0.4,10-3.9,14.2c-0.6,0.7-1.3,1-2,1c-1.1,0-2.1-0.8-2.1-1.8c0-0.4,0.2-0.9,0.6-1.3c3-3.1,3.5-7.7,3.5-11.3
			c0-1.4-0.1-2.6-0.1-3.6v-0.2c0-1.9,1.5-4.1,4.3-4.2c3.8,0,7.9,0,12.1,0s8.5,0,12.7,0c1.1,0,1.7,0.9,1.7,1.8S224.8,66.8,223.7,66.8
			L223.7,66.8L223.7,66.8z M219.2,54L219.2,54c0-1.3,0.9-1.8,1.9-1.8s2.1,0.6,2.1,1.8c0,0.4,0,1,0,1.6s0,1.3,0,1.8
			c0,2.2-1.9,3.4-4.8,3.4c-2.9,0-6.2,0-9.4,0s-6.4,0-9.1,0c-4.1,0-4.4-1.9-4.4-5c0-0.7,0-1.3,0-1.8c0-1.3,1.1-1.9,2.1-1.9
			s2,0.6,2,1.8v2.5c0,0.8,0.1,1.3,1.5,1.3c1.7,0,3.9,0,6.1,0v-5.1c0-1.3,1-2,2.1-2s2.1,0.7,2.1,2v5.2c2.2,0,4.3,0,6.1-0.1
			c1.3,0,1.5-0.5,1.5-1.3L219.2,54L219.2,54z M213.9,78.9l0,6.6c0,1.2-1,1.7-2,1.7s-2-0.5-2-1.7v-6.6l-9.2,0c-1.1,0-1.7-0.8-1.7-1.6
			s0.6-1.6,1.7-1.6h9.2l0-3.2h-6.9c-1.1,0-1.7-0.8-1.7-1.6s0.6-1.6,1.7-1.6h18c1.1,0,1.6,0.8,1.6,1.6c0,0.8-0.5,1.6-1.6,1.6h-7.2
			v3.2h10.3c1.1,0,1.6,0.8,1.6,1.6s-0.5,1.6-1.6,1.6L213.9,78.9L213.9,78.9z"/>
		<path class="st0" d="M256.4,63.1c-0.7,5.2-4.3,13-8.3,16.6c-3.2,2.9-6.6,1.3-8.4-2.2c-2.6-5.1,0.2-12.7,5.7-16.5
			c5-3.5,12.6-4.1,17.7-0.9c6.4,3.8,7.4,11.4,3.8,17.2c-1.9,3.2-5.9,5.7-10,6.8c-3.6,0.9-4.9-3.2-1.4-4c3.1-0.7,6.3-2.5,7.6-4.6
			c2.9-4.6,1.8-10-2.2-12.6c-1.6-1-3.3-1.5-5.1-1.6C256.3,61.7,256.6,62.3,256.4,63.1L256.4,63.1z M247.3,63.9
			c-3.8,3-5.9,8.4-4.1,11.6c0.6,1.2,1.7,1.8,2.7,0.9c3.1-2.7,5.9-9.2,6.4-13.7c0-0.5,0.2-0.9,0.4-1.3
			C250.7,61.9,248.9,62.7,247.3,63.9L247.3,63.9z"/>
		<path class="st0" d="M314.4,73.1l-8.8-0.2c2.8,1.8,5.7,2.9,9.1,3.7c1,0.2,1.5,0.9,1.5,1.7c0,1-0.8,2-2.1,2c-1,0-3.6-1-5.9-2.2
			c0,0.7,0.1,1.6,0.1,2.4c0,3.2-0.1,5.7-3.8,5.9c-1.7,0.1-3.5,0.1-5.3,0.1c-2.3,0-4.6,0-6.6-0.1c-4-0.2-4-2.3-4-6c0-0.9,0-1.7,0-2.2
			c0-0.2,0-0.3,0-0.5c-2.4,1.4-5.5,2.9-6.4,2.9c-1.1,0-1.8-0.9-1.8-1.8c0-0.7,0.4-1.3,1.2-1.6c3.3-1.2,6.1-2.5,8.6-4.3l-8.1,0.2h0
			c-1.1,0-1.6-0.7-1.6-1.5c0-0.8,0.5-1.6,1.6-1.6l11.8,0c0.5-0.5,1.1-1,1.6-1.6c-8.2,0-8.8-0.1-8.8-5.3c0-2.8,0-5,4.1-5.2
			c2-0.1,4.8-0.1,7.6-0.1s5.7,0,8.1,0.1c3.4,0.1,3.7,2.4,3.7,4.9c0,3.2-0.1,5.4-3.9,5.5c-2.1,0.1-4.5,0.1-6.9,0.1
			c0,0.2,0,0.3-0.2,0.5l-1,1.1l16.2,0c1.1,0,1.6,0.8,1.6,1.6S315.5,73.1,314.4,73.1L314.4,73.1L314.4,73.1z M304.7,55.8v0.3
			c0,1-0.9,1.5-1.9,1.5s-1.9-0.5-1.9-1.5v-0.3h-5.5v0.3c0,1-0.9,1.5-1.9,1.5s-1.8-0.5-1.8-1.5v-0.3h-8.7c-1.1,0-1.7-0.8-1.7-1.6
			s0.6-1.6,1.7-1.6h8.7v-0.9c0-0.9,0.9-1.4,1.9-1.4s1.9,0.5,1.9,1.4v0.9h5.5v-0.9c0-0.9,0.9-1.4,1.9-1.4s1.9,0.5,1.9,1.4v0.9h9
			c1.1,0,1.7,0.8,1.7,1.6c0,0.8-0.6,1.6-1.7,1.6H304.7L304.7,55.8z M290.1,64.1c0,0.2,0,0.4,0,0.5c0.1,0.9,0.5,1.1,1.6,1.1
			c1.9,0,4.6,0,7.3,0c2,0,4,0,5.7,0c0.9,0,1.5-0.3,1.6-1.2c0-0.2,0-0.3,0-0.5H290.1z M306.5,62c0-0.2,0-0.3,0-0.4
			c-0.1-1.3-0.4-1.3-7.8-1.3c-8.3,0-8.4,0-8.5,1.4V62L306.5,62L306.5,62z M291.8,81.6c0,0.4,0,0.7,0,0.9c0.1,1,0.6,1.2,1.7,1.2
			c1.4,0,3.1,0,4.8,0s3.4,0,4.8,0c0.9,0,1.6-0.4,1.6-1.3c0-0.2,0-0.6,0-0.9H291.8z M304.8,79.3c0-0.3,0-0.5,0-0.7
			c-0.1-1.3-1.1-1.3-5.7-1.3c-6.6,0-7.1,0-7.2,1.5v0.6H304.8L304.8,79.3z M295.3,72.9c-0.7,0.6-1.4,1.2-2.2,1.8c1.4,0,3-0.1,4.7-0.1
			s3.5,0,5.2,0.1c-0.7-0.6-1.4-1.2-2.1-1.8H295.3L295.3,72.9z"/>
		<path class="st0" d="M339,86.6c-3.3,0.7-4.4-3.4-0.9-4.1c2.1-0.4,4.2-1,5.5-1.8c4.5-2.6,5.7-5.4,4.9-7.1s-3.9-2.2-8.2-0.3
			c-2.4,1.1-5,3-5.5,3.5c-2.4,2.3-4.1,1.2-4.8-0.2s-0.7-4-0.3-7c0.3-3,0.9-6.1,1.2-8.2c0.4-2.6,4.1-2.5,3.8,0.4c-0.2,1.7-0.7,4-1,6
			c-0.3,2-0.5,3.5-0.2,4.3c0.1,0.3,0.3,0.3,0.7,0.1c0.8-0.4,2.8-1.5,4.7-2.3c12.4-5.4,21.1,5.7,7.3,14.2
			C344.3,85.1,341.7,86,339,86.6L339,86.6z M338.9,60.4c-2,0.5-3.4-2.1-1.7-3.1c0.2-0.1,0.6-0.3,0.3-0.5c-0.9-0.5-2.2-1.2-2.9-1.9
			c-1.8-1.9,0.9-4.1,3-2.6c0.7,0.5,2.1,1.1,3.3,1.9c1.2,0.8,2.2,1.8,2.3,3c0.1,1.2-0.5,2.5-2.6,2.9
			C340.1,60.1,339.5,60.2,338.9,60.4L338.9,60.4z"/>
		<path class="st0" d="M368.3,77.1c-0.2-4.3,0.3-7.8,0.5-12.1c0.1-2.7,0.4-6.7,0.3-9.2c-0.1-3,4.5-2.8,4.5-0.1
			c-0.1,2.6-0.4,6.5-0.6,9.2c-0.3,4.3-0.9,8.1-0.7,12.1c0.2,6,7.5,5.6,14.7,0c2.7-2.1,5.2,1.7,2.8,3.6
			C381.8,87,368.7,88.2,368.3,77.1L368.3,77.1z"/>
		<path class="st0" d="M416.4,56.5c0.7-0.2,1.3-0.5,1.7-0.7c2.2-1.4,4.5,2,1.4,3.6c-1,0.5-2.8,1-4.5,1.3c-0.5,1.3-1.2,2.8-2,4.1
			c2.8-0.5,5.5,0.5,6.9,3.6c1.7-0.9,3.4-1.7,5-2.4c1-0.4,2.1-0.9,3.2-1.5c3.1-1.7,4.9,2.4,2.3,3.7c-1.3,0.7-2.3,0.9-4.4,1.7
			c-1.7,0.7-3.6,1.5-5.2,2.2c0.1,1.3,0.2,3,0.1,4.5c-0.1,1.6-1.1,2.5-2.2,2.5c-1,0-2-0.7-1.8-2.3c0-0.9,0.1-1.8,0.1-2.7
			c-0.4,0.2-0.7,0.4-1.1,0.6c-5.1,3.3-4.5,5.7-2.2,6.9c2.2,1.1,6.2,0.3,8.1-0.3c3.6-1.1,4.8,3.3,1,4.3c-2.4,0.6-8,1.2-11.2-0.6
			c-5.5-3.1-4.5-8.7,2.9-13.5c0.6-0.4,1.2-0.8,2-1.3c-1.1-3.4-4.3-3-6.9,0l-0.2,0.2c-0.4,0.4-0.7,0.8-0.9,1.1
			c-2.2,2-5.2-0.3-2.8-2.5c1.1-1,2.5-2.5,3.3-3.9c0.7-1.1,1.4-2.4,1.9-3.6c-2.2,0.3-3.8,0.2-5.1-0.5c-3-1.5-0.9-5.3,1.9-3.4
			c0.8,0.5,2.4,0.3,3.9,0.1c0.2,0,0.4,0,0.6-0.1c0.3-1.2,0.4-2,0.5-3.4c0.2-2.5,4-2.2,4.1-0.2c0,0.8-0.1,1.6-0.3,2.4L416.4,56.5
			L416.4,56.5z"/>
		<path class="st0" d="M17.8,141.2c-1.3,0-2.1-1-2.1-1.9c0-0.9,0.6-1.7,1.9-1.8c5.3-0.7,8.7-2.8,10.4-6.3c0.4-0.9,1.1-1.2,1.8-1.2
			c1.1,0,2.2,0.9,2.2,1.9c0,0.3-0.1,0.5-0.2,0.8C28.1,140.4,17.8,141.2,17.8,141.2L17.8,141.2z M27.2,129.1c-3-0.1-4.7-1.8-4.8-4.1
			c-0.1-1.8-0.1-4.8-0.1-7.6s0-5.7,0.1-7.3c0.1-1.9,1.3-3.9,4.5-4c1.9-0.1,4.4-0.1,6.9-0.1s5.1,0,7.2,0.1c2.5,0.1,4.2,1.9,4.3,3.7
			c0.1,1.8,0.1,4.4,0.1,7.1c0,3,0,6-0.1,8c-0.1,2.2-1.8,4.1-4.5,4.2c-0.7,0-1.4,0.1-2.1,0.1c0,1.6-0.1,3.6-0.1,4.9
			c0,2.2,0.5,2.8,4,2.8c3.2,0,5.1-0.5,5.1-4.2c0-1.3,0.9-1.9,1.9-1.9c0.7,0,2.2,0.3,2.2,2.2c0,7.1-4.8,7.6-9.4,7.6
			c-4.1,0-7.7-0.4-7.7-5c0-1.1,0-4.2,0-6.4C32.2,129.2,29.6,129.1,27.2,129.1L27.2,129.1z M41.6,116H26.1v3.2h15.5
			C41.6,119.2,41.6,116,41.6,116z M41.6,112.8c0-0.6-0.1-1.2-0.1-1.6c0-1.1-0.6-1.7-1.9-1.8c-1.3,0-3.2-0.1-5.1-0.1
			c-2.3,0-4.7,0-6.4,0.1c-1.3,0-1.9,0.9-1.9,1.8c0,0.5,0,1,0,1.6H41.6z M26.1,122.3c0,0.6,0,1.2,0,1.6c0,1.3,0.8,1.8,2,1.8
			c1.9,0.1,3.9,0.1,6,0.1c1.9,0,3.7,0,5.5-0.1c2-0.1,2-1.6,2-3.4H26.1z"/>
		<path class="st0" d="M76.5,137.9c-3.8,0.6-4.1-3.9-0.8-4.3c5.2-0.7,9.1-2.2,12-4.8c3.5-3.1,3.7-6.4,1.8-8.6c-2.6-3-7.3-2.9-11-1.8
			c-2.1,0.7-4,1.5-5.9,2.4c-1.8,0.9-3.7,1.8-5.7,2.8c-3.3,1.5-5.1-2.8-2-4.1c3.6-1.5,8.4-3.7,12.8-4.8c4.7-1.2,10.9-1.2,14.7,2.8
			c4.4,4.6,2.8,10.5-2.2,14.7C87,134.9,82.5,136.9,76.5,137.9L76.5,137.9z"/>
		<path class="st0" d="M111.5,135.6c-3.7-7.1-1.8-14.9-1.3-19.9c0.2-2.3,0.4-3.7,0.5-5.4c0.1-2.5,4-2.5,4,0.1c0,1.3-0.4,3.4-0.7,5.5
			c-0.5,3.4-1.7,7-1.1,11c0.1,0.7,0.4,1,0.7,0.1c0.2-0.5,0.7-1.3,0.9-1.8c1.1-2.3,3.8-0.7,3,1.2c-1.3,3-2,5.4-2.1,7.2
			c0,0.4,0.2,1.6-0.3,2.4C114.3,136.9,112.4,137.2,111.5,135.6L111.5,135.6z M132.3,114.8c0.9-0.2,1.7-0.4,2.4-0.6
			c2.6-0.7,4.2,2.8,0.7,3.6c-1.1,0.2-2.1,0.5-3.2,0.7c0,1.2,0.1,2.4,0.2,4.1c0.4,8.2-1.8,14.2-8.2,18.7c-2.4,1.7-5-1.5-2.4-3.2
			c5.2-3.4,6.9-8.4,6.7-15.4c0-1.3-0.1-2.4-0.1-3.5c-2.4,0.3-4.8,0.5-6.9,0.3c-2.8-0.2-2.5-4.2,0.7-3.7c1.6,0.2,3.9,0.1,6.2-0.2
			v-1.1c0-2.5-0.3-3.3-0.4-4.8c-0.3-3,3.7-2.9,4.2-0.6c0.3,1.4,0.3,2.8,0.2,4.9L132.3,114.8L132.3,114.8z"/>
		<path class="st0" d="M166.5,133.9c3-2.7,2.9-6.6,0.5-8.1c-2.1-1.4-6.6-1.7-10.7,0.7c-1.6,0.9-2.5,1.7-3.4,3.1
			c-1.5,2.2-5.6-0.2-3-2.8c4.5-4.5,7.8-7.6,12.4-13.2c0.4-0.6,0-0.4-0.3-0.2c-1.1,0.6-3.9,1.4-6.9,2.1c-3.2,0.7-3.9-3.4-1.1-3.7
			c2.8-0.3,6.7-1.3,9-2c3.3-0.9,6,2,3.9,4.3c-1.3,1.5-2.9,3.1-4.6,4.6s-3.3,3-4.8,4.4c3.6-1.9,8.5-1.9,11.5-0.1
			c5.9,3.5,4,10.7-0.3,13.9c-4.1,2.9-10.5,3.1-13.6,1c-4.4-2.8-2.4-7.9,2.4-8.1c3.3-0.1,6.4,1.8,6.5,5.5
			C164.9,135.1,165.7,134.6,166.5,133.9L166.5,133.9z M157.8,132.7c-1.8,0.2-1.9,1.8-0.6,2.5c0.9,0.5,2.3,0.7,3.4,0.6
			C160.7,134,159.6,132.5,157.8,132.7z"/>
		<path class="st0" d="M198.8,114.8l-5.2-0.1c-0.1,1.2-0.1,2.5-0.2,3.8c0.7,0,1.6,0,2.3,0c1.6,0,4.1,0.1,4.1,3.6
			c0,7.4-0.6,10.8-1.1,12.8c-1,3.6-3.2,4.9-5.4,4.9c-1.1,0-3.6-0.3-3.6-2.3c0-0.9,0.5-1.8,1.5-1.8c0.2,0,0.5,0,0.8,0.2
			c0.4,0.2,0.8,0.3,1.2,0.3c2.1,0,3-3.2,3.1-13c0-1.3-0.8-1.3-3.1-1.3c-0.6,6.3-1.9,12.8-5.7,17.8c-0.4,0.5-1,0.8-1.5,0.8
			c-1.1,0-2.1-0.9-2.1-1.9c0-0.3,0.1-0.7,0.4-1c4.9-6.4,5.3-14.8,5.7-22.7l-3,0.1h0c-1.3,0-1.9-0.8-1.9-1.7c0-0.9,0.7-1.9,1.9-1.9h0
			l4.1,0l0-4.6c0-1.3,1-1.9,2-1.9s2,0.6,2,1.9l0,4.6l3.8,0h0c1.2,0,1.8,0.9,1.8,1.8C200.6,113.9,199.9,114.8,198.8,114.8
			L198.8,114.8L198.8,114.8z M205.4,113.5c-0.8,1.5-1.8,2.9-2.8,4.3c-0.5,0.7-1.1,0.9-1.7,0.9c-1,0-2-0.8-2-1.7
			c0-0.4,0.2-0.8,0.5-1.2c2.4-3,4-6.3,5.2-9.6c0.3-0.8,1-1.2,1.7-1.2c1,0,2,0.7,2,1.8c0,0.5-0.8,2.4-1.2,3.3l11.1-0.1h0
			c1.1,0,1.7,0.9,1.7,1.8c0,0.9-0.6,1.8-1.8,1.8L205.4,113.5L205.4,113.5z M203.7,122.4c-1.8,0.4-1.9,0.4-1.9,0.4
			c-1,0-1.6-0.9-1.6-1.8c0-0.7,0.4-1.4,1.1-1.6c4.5-0.9,9.5-2.5,13.6-4.6c0.3-0.2,0.6-0.2,0.8-0.2c1,0,1.8,1,1.8,1.9
			c0,1.3-0.6,1.6-5.1,3.2c0.1,1.7,0.2,3.3,0.5,4.9c1.6-0.8,3-1.8,4.6-2.9c0.3-0.2,0.7-0.3,0.9-0.3c1,0,2,1,2,2
			c0,0.9-0.4,1.8-6.7,4.2c1.1,3.7,3.1,6.6,6.2,8.7c0.7,0.4,0.9,1.1,0.9,1.6c0,1.1-1,2.3-2.2,2.3c-2.3,0-8.8-7-9.4-19.3
			c-0.6,0.2-1.2,0.4-1.8,0.6l0.1,17.6c0,1.3-0.9,1.9-1.9,1.9s-1.9-0.6-1.9-1.9L203.7,122.4L203.7,122.4z"/>
		<path class="st0" d="M235.1,137.5c-3.3-8.1,0-20.2,0.7-25.1c0.4-3,4.4-2.1,4,0.2c-0.7,3.3-3.1,13-2.1,16.8c0.1,0.5,0.3,0.4,0.4,0
			c0.1-0.2,0.5-1,0.7-1.3c1.3-2,3.8,0,2.9,1.6c-1.5,2.7-2.2,4.6-2.4,5.7c-0.2,1.1,0.2,2.4-0.8,3.3
			C237.4,139.7,235.9,139.5,235.1,137.5L235.1,137.5z M246.1,134.6c-1.7-1.9,0.8-4.8,2.9-2.8c2.2,2,7.1,1.3,10.3,0.7
			c3.3-0.7,3.5,3.6,0.8,4.3C255.7,137.9,249,137.8,246.1,134.6L246.1,134.6z M248.4,118.2c-2.2,0.6-3.6-3.1-0.6-3.8
			c3.6-0.9,7.9-0.9,10.8-0.2c2.9,0.7,2.1,4.6-0.7,3.9C255,117.5,251.8,117.4,248.4,118.2z"/>
		<path class="st0" d="M288.9,122.7c-2.3,0-4.5,0-6.5-0.1c-3.4-0.1-5.1-1.8-5.2-5.2c0-1.1,0-2.3,0-3.6s0-2.5,0-3.6
			c0-1.3,1-1.9,2-1.9s2.1,0.7,2.1,1.8v0.1c0,1.2-0.1,2.5-0.1,3.8c0,0.9,0,1.7,0,2.4c0.1,2.7,0.9,2.8,7.6,2.8l0-12.3
			c0-1.2,1.1-1.8,2.1-1.8c1.1,0,2.2,0.6,2.2,1.8l0,12.3c1.8,0,3.6-0.1,5.3-0.1c2.6-0.1,2.7-1.7,2.7-4.8c0-1.3-0.1-2.8-0.1-3.9v-0.1
			c0-1.2,1-1.8,2-1.8s2.1,0.6,2.2,1.9c0,1,0.1,2.2,0.1,3.4s0,2.4-0.1,3.6c-0.1,3.5-2.5,5.2-5.6,5.3c-2,0.1-4.3,0.1-6.5,0.1V136
			c2.5,0,5,0,6.9-0.1c2.4-0.1,2.7-1.5,2.7-5c0-1.6-0.1-3.2-0.1-4.4v-0.1c0-1.2,1-1.8,2-1.8s2.1,0.6,2.2,1.9c0,1,0.1,2.4,0.1,3.7
			s0,2.8-0.1,3.9c-0.1,3.5-2.5,5.3-5.6,5.4c-2.8,0.1-6.6,0.2-10.4,0.2s-7.4,0-9.9-0.2c-3.4-0.1-5.1-1.9-5.2-5.3c0-1.1,0-2.5,0-3.9
			s0-2.8,0-3.9c0-1.3,1-1.9,2-1.9s2.1,0.7,2.1,1.8v0.1c0,1.2-0.1,2.8-0.1,4.2c0,4.2,0,5.2,2.5,5.3c1.9,0.1,4.2,0.1,6.7,0.1
			L288.9,122.7L288.9,122.7z"/>
		<path class="st0" d="M335.5,116.7c3.4-0.3,6.1,1.7,6.2,6.3c0.1,2.9-0.3,6.6-1.4,9.1c-1.7,4.1-5.7,6.1-9.6,4.9
			c-3.2-0.9-1.9-4.7,0.6-4.1c2.3,0.6,4.1,0.2,5.2-2.2c0.9-2,1.3-4.9,1.3-7.1c0-2.5-0.9-3.7-2.8-3.5c-0.6,0-1.2,0.1-1.9,0.2
			c-2,6.3-4.8,11.9-8,16.5c-2,2.8-6.2,0.4-3.6-2.6c2.8-3.2,5.4-7.8,7.3-13.3l-0.5,0.1c-1.8,0.3-3.4,0.6-4.4,0.6
			c-2.8,0-2.8-3.7-0.1-3.9c1.3-0.1,2.5-0.1,4-0.2l2-0.2c0.5-1.8,1-4.2,1.3-6.5c0.3-2.7,4.5-2.4,4.1,0.3c-0.2,1.4-0.7,3.9-1.2,5.8
			L335.5,116.7L335.5,116.7z M350.6,125.9c-1-2.2-2.8-5.4-5.9-7.1c-2-1.1-0.2-4.2,2.3-2.7c3.3,1.9,6.2,4.8,7.3,7.8
			C355.4,126.7,351.7,128.5,350.6,125.9L350.6,125.9z"/>
		<path class="st0" d="M369.8,135.6c-3.7-7.1-1.8-14.9-1.4-19.9c0.2-2.3,0.5-3.7,0.5-5.4c0.1-2.5,4-2.5,4,0.1c0,1.3-0.4,3.4-0.7,5.5
			c-0.5,3.4-1.7,7-1.1,11c0.1,0.7,0.4,1,0.7,0.1c0.2-0.5,0.7-1.3,0.9-1.8c1.1-2.3,3.9-0.7,3,1.2c-1.3,3-2,5.4-2,7.2
			c0,0.4,0.2,1.6-0.3,2.4C372.6,136.9,370.7,137.2,369.8,135.6L369.8,135.6z M390.6,114.8c0.9-0.2,1.7-0.4,2.4-0.6
			c2.6-0.7,4.2,2.8,0.7,3.6c-1.1,0.2-2.1,0.5-3.2,0.7c0,1.2,0.1,2.4,0.2,4.1c0.4,8.2-1.8,14.2-8.2,18.7c-2.4,1.7-5-1.5-2.4-3.2
			c5.2-3.4,6.9-8.4,6.7-15.4c0-1.3-0.1-2.4-0.1-3.5c-2.4,0.3-4.8,0.5-6.9,0.3c-2.8-0.2-2.5-4.2,0.7-3.7c1.6,0.2,3.9,0.1,6.2-0.2
			v-1.1c0-2.5-0.3-3.3-0.5-4.8c-0.3-3,3.7-2.9,4.2-0.6c0.3,1.4,0.3,2.8,0.2,4.9L390.6,114.8L390.6,114.8z"/>
		<path class="st0" d="M410.6,138.6c-3.9-2.1-4-6.7,0.7-8.5c2.2-0.8,5.2-0.9,8.2-0.3c0-0.9,0-1.8,0-2.5c-0.5-8.2-0.9-12.1-0.9-18
			c0-2.9,4.5-2.7,4.4,0c-0.1,2-0.2,3.9-0.1,5.9c0.5,0,1.1,0,1.5-0.1c1.2-0.2,2.4-0.6,3-0.9c2.6-1.5,5.2,2.1,2.5,3.7
			c-0.8,0.4-1.7,0.7-2.6,0.9s-1.8,0.2-2.5,0.3c-0.6,0.1-1.2,0.1-1.8,0c0.1,2.3,0.2,4.8,0.3,7.8c0,1,0,2.5,0,3.9
			c2.1,0.7,4.1,1.8,5.6,3.1c2.9,2.5,0,6.7-2.9,3.7c-0.9-1-2.1-1.8-3.3-2.6C421.1,138.5,415.8,141.3,410.6,138.6L410.6,138.6z
			 M412.5,133.1c-1.1,0.4-1.1,1.7,0,2.2c2.2,1.2,5.7,0.5,6.5-2.1C416.6,132.6,414.3,132.5,412.5,133.1L412.5,133.1z"/>
		<path class="st0" d="M451.6,137.9c7.3-5.2,9.6-12.4,7.9-17.2c-1.1-3.2-4.2-3.4-7-1.7c-0.8,0.5-3.1,1.6-4,1.9
			c-3.2,0.8-4.3-3.2-1.3-4.3c1.1-0.4,2.4-0.8,3.5-1.3c4.2-1.8,10.2-1.7,12.4,3c3.2,6.8-0.3,16.6-8.5,22.6
			C451.9,143,449.2,139.7,451.6,137.9L451.6,137.9z M450.7,108.6c-2.3-1.3-0.6-4.5,2.2-3.2c1.8,0.8,4.1,1.4,6.4,1.8
			c3.4,0.6,2,4.7-1,4.1C455.4,110.8,452.5,109.6,450.7,108.6L450.7,108.6z"/>
	</g>
</g>
</svg>
