<svg xmlns="http://www.w3.org/2000/svg" viewBox="0 0 360 150"><defs><style>.cls-1{fill:#3e3a39;}.cls-2,.cls-7{fill:none;}.cls-2{stroke:#868871;stroke-width:0.99px;}.cls-2,.cls-6{stroke-miterlimit:10;}.cls-3{fill:#37bef0;}.cls-4{fill:#b6b6b6;}.cls-5,.cls-6{fill:#fff;}.cls-6{stroke:#000;stroke-width:1.08px;}</style></defs><g id="レイヤー_2" data-name="レイヤー 2"><g id="section_1-6"><path class="cls-1" d="M152.84,62.23c0,.53,0,.82,0,1.17a3.64,3.64,0,0,0-.46,0h-.35l-.63,0h-3A11.26,11.26,0,0,1,147,69.14a2.61,2.61,0,0,0-.86-.65c1.15-1.81,1.42-3.4,1.42-8.1a20.28,20.28,0,0,0-.06-2c.5,0,.93.06,1.66.06h2.23a15,15,0,0,0,1.5-.06c0,.32,0,.73,0,1.2Zm-6.13-6.58a8.31,8.31,0,0,0,1.53.1h3.81a9.08,9.08,0,0,0,1.49-.08v1.08a9.37,9.37,0,0,0-1.47-.07h-3.86a10.68,10.68,0,0,0-1.5.09Zm5.15,6.82V59.3h-3.33V61c0,.8,0,.85,0,1.46Zm3.41-1.79a17.21,17.21,0,0,1-.8,5.05,9,9,0,0,1-2.32,3.51,3.14,3.14,0,0,0-.82-.77,7.21,7.21,0,0,0,2.19-3.15c.55-1.52.77-3.55.77-7.06a17.44,17.44,0,0,0-.06-1.86A15.55,15.55,0,0,0,160,54.93l.69.93-.66.19a24.12,24.12,0,0,1-4.77,1.18v2.5h4.16a10.14,10.14,0,0,0,1.49-.09v1.13a9.88,9.88,0,0,0-1.44-.09H159v6.91a8.64,8.64,0,0,0,.1,1.63h-1.2a11.8,11.8,0,0,0,.09-1.66V60.68Z"/><path class="cls-1" d="M167.38,63.3a8.9,8.9,0,0,0,.9-1.44h-2.66a15.84,15.84,0,0,0-1.84.07,10.89,10.89,0,0,0,.06-1.4V59.38a12.12,12.12,0,0,0-.06-1.46,15.81,15.81,0,0,0,1.73.08h1.82V56.45h-2.8a13.32,13.32,0,0,0-1.78.08V55.47a11.11,11.11,0,0,0,1.81.1h10.1a11.23,11.23,0,0,0,1.83-.1v1.06a13.51,13.51,0,0,0-1.78-.08h-3V58h1.9a15.56,15.56,0,0,0,1.75-.08,11.33,11.33,0,0,0-.07,1.46v1.14a9.91,9.91,0,0,0,.07,1.41,15.5,15.5,0,0,0-1.84-.07H169.4c-.45.79-.55.91-.9,1.44h6.19a12.61,12.61,0,0,0,1.8-.09v1.05a15.08,15.08,0,0,0-1.8-.08h-1.76A6.76,6.76,0,0,1,171,66.71a51.94,51.94,0,0,1,5.12,1.91l-.71.88a38.47,38.47,0,0,0-5.29-2.15,14.87,14.87,0,0,1-7,2,3.78,3.78,0,0,0-.46-1A14.17,14.17,0,0,0,168.92,67c-1.25-.37-2.39-.64-4-1a16.17,16.17,0,0,0,1.76-1.83H164.5a14.51,14.51,0,0,0-1.78.08V63.21a12.57,12.57,0,0,0,1.78.09Zm-2.56-4.48V61h2.51V58.82Zm3,5.36a13.75,13.75,0,0,1-1.22,1.36c1.49.34,2.05.48,3.27.85a5.13,5.13,0,0,0,1.89-2.21Zm.38-6.18h2.56V56.45h-2.56Zm0,3h2.56V58.82h-2.56Zm3.48,0h2.61V58.82h-2.61Z"/><path class="cls-1" d="M179.14,57.32a12.53,12.53,0,0,0-.07-1.54c.34,0,.34,0,1.48,0h1.18a14.07,14.07,0,0,0,1.44,0,11.37,11.37,0,0,0,0,1.57v8.77c0,.77,0,1.18,0,1.54h-1v-.8h-2.1v1.31h-1a11.86,11.86,0,0,0,.1-1.7Zm.94,3.37h2.1v-4h-2.1Zm0,5.27h2.1v-4.4h-2.1Zm5.59-8.26a13.54,13.54,0,0,0-1.54.08V56.72a8.7,8.7,0,0,0,1.52.1h1.7v-.51a7.54,7.54,0,0,0-.1-1.3h1.19a7.23,7.23,0,0,0-.1,1.3v.51h2.27a8.85,8.85,0,0,0,1.52-.1v1.06a12.67,12.67,0,0,0-1.52-.08h-2.27v2.08h2.83a9.69,9.69,0,0,0,1.62-.1v1.08a9.48,9.48,0,0,0-1.55-.1h-.53v1.87h.5a10.5,10.5,0,0,0,1.57-.09v1.1a11.47,11.47,0,0,0-1.57-.09h-.5v4.48c0,1-.35,1.26-1.84,1.26-.26,0-.51,0-1.44-.06a2.8,2.8,0,0,0-.26-1.06,12,12,0,0,0,1.83.19c.61,0,.72-.06.72-.41v-4.4H185.2a12.82,12.82,0,0,0-1.6.09v-1.1a10.89,10.89,0,0,0,1.62.09h4.5V60.66h-4.5a10.79,10.79,0,0,0-1.62.1V59.68a9.85,9.85,0,0,0,1.62.1h2.13V57.7Zm1.23,9.62a14.4,14.4,0,0,0-2.22-2.69l.78-.56a16.52,16.52,0,0,1,2.3,2.61Z"/><path class="cls-1" d="M196.13,67.51a10.59,10.59,0,0,0,.1,1.79H195a11,11,0,0,0,.1-1.79V57.17a16.83,16.83,0,0,0-.07-1.76,14.63,14.63,0,0,0,1.68.06H199a14,14,0,0,0,1.64-.06c0,.45-.05.93-.05,1.52v2c0,.64,0,1.08.05,1.48-.44,0-1,0-1.62,0h-2.93Zm0-10h3.59V56.26h-3.59Zm0,2.05h3.59v-1.3h-3.59Zm8.4,6.06c0,.61,0,1,.05,1.46-.45,0-1,0-1.63,0h-3.51v1.12h-1a10.3,10.3,0,0,0,.08-1.5V63.13c0-.58,0-1-.05-1.51a13.79,13.79,0,0,0,1.59.07H203a13.49,13.49,0,0,0,1.58-.07c0,.45-.05.86-.05,1.51Zm-5.09-1.74h4.18V62.48h-4.18Zm0,2.35h4.18V64.71h-4.18ZM208,67.75c0,1.06-.33,1.33-1.63,1.33-.34,0-1.2,0-1.6-.06a3.37,3.37,0,0,0-.29-1,16.37,16.37,0,0,0,1.76.16c.66,0,.79-.08.79-.46V60.36h-3.29c-.67,0-1.18,0-1.61,0,0-.41,0-.89,0-1.48v-2c0-.56,0-1,0-1.52a13.56,13.56,0,0,0,1.63.06h2.64a14.42,14.42,0,0,0,1.68-.06,16,16,0,0,0-.08,1.76Zm-4.91-10.21h3.94V56.26h-3.94Zm0,2.05h3.94v-1.3h-3.94Z"/><line class="cls-2" x1="91.73" y1="80.95" x2="265.74" y2="80.95"/><path class="cls-3" d="M160.51,95.63a3.7,3.7,0,0,1-.14.85,4.59,4.59,0,0,1,3.3-1.29,4.47,4.47,0,0,1,4.77,4.74c0,3.14-2.05,5.13-5.28,5.13a5.26,5.26,0,0,1-3.81-1.4,5.53,5.53,0,0,1-1.19-1.86l1.85-.49a3.25,3.25,0,0,0,.59,1.12,3.38,3.38,0,0,0,2.58,1A3.25,3.25,0,0,0,166.6,100a3.07,3.07,0,0,0-3.35-3.33,3.64,3.64,0,0,0-2.57,1.08,2.13,2.13,0,0,0-.52.79l-1.68-.15a15.06,15.06,0,0,0,.26-2l.42-4.39a7.55,7.55,0,0,0,.08-1.29c0-.06,0-.07,0-.66a14.3,14.3,0,0,0,2,.09h4.1a12.83,12.83,0,0,0,2.34-.15v1.84a13.68,13.68,0,0,0-2.33-.15h-4.45Z"/><path class="cls-3" d="M172.43,103.64a4.73,4.73,0,0,1-1.15-1.78,12.67,12.67,0,0,1-.74-4.36,10.78,10.78,0,0,1,1.12-5.17,4.84,4.84,0,0,1,4.41-2.42,4.91,4.91,0,0,1,3.61,1.4,5,5,0,0,1,1.16,1.78,12.6,12.6,0,0,1,.74,4.39,10,10,0,0,1-1.35,5.51,5.33,5.33,0,0,1-7.8.65Zm1.31-11.21a3.64,3.64,0,0,0-.83,1.4,11.91,11.91,0,0,0-.55,3.69,10,10,0,0,0,.87,4.38,3.1,3.1,0,0,0,2.82,1.58,3.05,3.05,0,0,0,2.25-.87,3.64,3.64,0,0,0,.89-1.49,11.37,11.37,0,0,0,.55-3.66,10.59,10.59,0,0,0-.81-4.29,3.06,3.06,0,0,0-2.9-1.71A2.84,2.84,0,0,0,173.74,92.43Z"/><path class="cls-3" d="M190.57,89.68a6.14,6.14,0,0,0-.53,1,19.08,19.08,0,0,1-6,7.19A5.34,5.34,0,0,0,183,96.57a15.2,15.2,0,0,0,5.13-5.51,6.5,6.5,0,0,0,.77-2Zm-2,7.4a12.38,12.38,0,0,0-1.85.12V95.65c.53,0,1.13.09,1.85.09H195a15.47,15.47,0,0,0,2-.09,6.94,6.94,0,0,0-.06,1.38c0,3.9-.36,6.89-.85,7.82-.34.64-.85.85-2.12.85-.57,0-1.21,0-2.33-.13a6.65,6.65,0,0,0-.38-1.59,13.17,13.17,0,0,0,2.58.3c.81,0,.94-.11,1.15-1.1a32.89,32.89,0,0,0,.44-6.1h-4.21A11.74,11.74,0,0,1,191,99c-.74,3.2-2.6,5.43-6,7.16a5,5,0,0,0-1-1.29,9.35,9.35,0,0,0,4.72-4,8.56,8.56,0,0,0,1-3.75Zm6.12-8a6.56,6.56,0,0,0,.74,1.61,15.42,15.42,0,0,0,5.47,5.78,5.79,5.79,0,0,0-1,1.4,19.09,19.09,0,0,1-6.25-7.41c-.15-.3-.3-.58-.42-.77Z"/><rect class="cls-4" x="44.95" y="18.15" width="55.41" height="116.52"/><path class="cls-5" d="M67.33,57.69a15.61,15.61,0,0,1-2.21,2,3.06,3.06,0,0,0-.61-.94,13.27,13.27,0,0,0,3-2.72,12.34,12.34,0,0,0,1.85-3H66.43a11.88,11.88,0,0,0-1.31.07V52a10.6,10.6,0,0,0,1.27.06h.94V50.52a11.39,11.39,0,0,0-.1-1.33h1.24a7.15,7.15,0,0,0-.1,1.35v1.54h1a3.38,3.38,0,0,0,.8,0l.5.65a4,4,0,0,0-.34.66,14.9,14.9,0,0,1-1.86,3A6.61,6.61,0,0,0,70.61,58a3.73,3.73,0,0,0-.53.93,8.56,8.56,0,0,1-1.71-1.49v5.42a14.52,14.52,0,0,0,.08,1.79H67.24c.05-.53.09-1.14.09-1.79Zm3.14-7.87a16.43,16.43,0,0,0,1.69.09h6.27a14.6,14.6,0,0,0,1.68-.09V51a15,15,0,0,0-1.61-.08H72.09a15.81,15.81,0,0,0-1.62.08Zm7.74,7.41a13.34,13.34,0,0,0,1.65-.06,11.63,11.63,0,0,0-.07,1.63v4.06a12.43,12.43,0,0,0,.1,1.75H78.77v-.85H71.83v.78h-1.1a12,12,0,0,0,.1-1.71v-4a14,14,0,0,0-.07-1.64c.41,0,.94,0,1.68,0Zm-6.62-3.75a11.63,11.63,0,0,0-.06-1.41,10.34,10.34,0,0,0,1.59.08h4.29A13.53,13.53,0,0,0,79,52.07a10.65,10.65,0,0,0-.07,1.39v1.09A10.82,10.82,0,0,0,79,56a13.27,13.27,0,0,0-1.61-.07H73.14a14.17,14.17,0,0,0-1.61.07,11.17,11.17,0,0,0,.06-1.4ZM71.83,60h2.86V58.12H71.83Zm0,2.93h2.86V60.82H71.83ZM72.6,55h5.28V53H72.6ZM75.66,60h3.11V58.12H75.66Zm0,2.93h3.11V60.82H75.66Z"/><path class="cls-5" d="M67.33,70.66a9.17,9.17,0,0,0-1.84.11V69.51a11.87,11.87,0,0,0,1.82.12H69.4V68.11a9.63,9.63,0,0,0-.12-1.73h1.33a9,9,0,0,0-.1,1.75v1.5h4.6V68.17a11.24,11.24,0,0,0-.1-1.79l1.34,0a10.48,10.48,0,0,0-.11,1.78v1.45h2A11.77,11.77,0,0,0,80,69.51v1.26a9.28,9.28,0,0,0-1.78-.11h-2v4.46h2.38A13.72,13.72,0,0,0,80.4,75v1.25a11,11,0,0,0-1.78-.11H76.24v3.46a12.3,12.3,0,0,0,.11,1.92H75a12.76,12.76,0,0,0,.1-1.91V76.16H70.22a8.37,8.37,0,0,1-1.28,3.38,9,9,0,0,1-2.12,2.16,3.84,3.84,0,0,0-.89-.94,7.81,7.81,0,0,0,2.18-2.07,6.73,6.73,0,0,0,1-2.53H66.73a9.91,9.91,0,0,0-1.73.11V75a13.16,13.16,0,0,0,1.72.1h2.53a30.69,30.69,0,0,0,.15-3.35V70.66Zm3.18,1.23a28.21,28.21,0,0,1-.16,3.23h4.76V70.66h-4.6Z"/><path class="cls-5" d="M66.67,93.05a13.09,13.09,0,0,1-1,4.58l-.84-.43a10.05,10.05,0,0,0,1-4.32Zm2.94-1.73h.85A10.94,10.94,0,0,0,72,91.25c0,.19,0,.32,0,.68a26.32,26.32,0,0,1-.66,5.58c-.25.73-.65,1-1.6,1-.32,0-.68,0-1.24-.07v-.14a2.82,2.82,0,0,0-.19-1,7.62,7.62,0,0,0,1.5.2c.53,0,.66-.22.88-1.46A27.72,27.72,0,0,0,71,92.19H67.41c-.68,0-1.08,0-1.56,0,0-.38.05-.8.05-1.75V85.83a17.25,17.25,0,0,0-.07-2,12.69,12.69,0,0,0,1.87.08h2.67a12.07,12.07,0,0,0,1.73-.08v1a10.72,10.72,0,0,0-1.59-.08h-.9v1.56h.64a9.67,9.67,0,0,0,1.48-.08v1a8.79,8.79,0,0,0-1.48-.09h-.64v1.53h.64a8.53,8.53,0,0,0,1.48-.08v1a8.93,8.93,0,0,0-1.48-.08h-.64Zm-.9-6.49H66.85v1.56h1.86Zm0,2.39H66.85v1.53h1.86Zm-1.86,2.37v1.73h1.86V89.59ZM67.77,93a26.6,26.6,0,0,1,.29,3.74l-.85.12c0-.31,0-.55,0-.7a24,24,0,0,0-.16-3.06Zm1.09,0a18.2,18.2,0,0,1,.59,3l-.74.24a16.44,16.44,0,0,0-.51-3.13Zm1-.17a11,11,0,0,1,.69,2.28l-.65.27A10.35,10.35,0,0,0,69.3,93Zm7.28-2.86a14.69,14.69,0,0,0,1.12,4.52,8.59,8.59,0,0,0,2.28,3.22,3.74,3.74,0,0,0-.83,1,11.87,11.87,0,0,1-2.5-4.07,16.92,16.92,0,0,1-1.06-4.64H74.25c-.14,4.29-.55,6.36-1.72,8.62a3.26,3.26,0,0,0-1-.59c1.36-2.2,1.74-4.81,1.74-11.94a18.19,18.19,0,0,0-.07-2,12.54,12.54,0,0,0,1.87.09h2.82A11.53,11.53,0,0,0,79.75,84a14.88,14.88,0,0,0-.06,1.85v2.32A15.2,15.2,0,0,0,79.75,90a12,12,0,0,0-1.63-.07Zm1.5-.93V85H74.31v.85c0,.48,0,1.51,0,3.13Z"/><rect class="cls-6" x="259.65" y="15.32" width="55.41" height="116.52"/><path class="cls-1" d="M283,42.93a9,9,0,0,0-.1-1.67h1.19a10.2,10.2,0,0,0-.09,1.67v.68h.8a7.45,7.45,0,0,0,1.53-.09v1.11a9.22,9.22,0,0,0-1.53-.09H284v2.28h1a8.82,8.82,0,0,0,1.6-.1v1.14a9.35,9.35,0,0,0-1.6-.1h-1V50H285a7.71,7.71,0,0,0,1.37-.09V51a7.48,7.48,0,0,0-1.39-.1h-.93v3.47a4.93,4.93,0,0,0,2.29.66c1,.1,2.55.15,4,.15a45.08,45.08,0,0,0,4.78-.22,3.64,3.64,0,0,0-.39,1.18c-.54,0-2.35.08-2.8.08a47.89,47.89,0,0,1-5.38-.14,5.83,5.83,0,0,1-3.77-1.51,6.65,6.65,0,0,1-1.39-1.73,12.94,12.94,0,0,1-1.3,3.69,2.61,2.61,0,0,0-.88-.63,12,12,0,0,0,1.55-6.31,3.21,3.21,0,0,0,0-.68l1.08.07c0,.29,0,.29-.08,1.29,0,.43-.07.75-.14,1.38a7.29,7.29,0,0,0,1.5,2V47.76H281.4a7.71,7.71,0,0,0-1.62.1V46.72a9,9,0,0,0,1.62.1H283V44.54h-1.36a8.94,8.94,0,0,0-1.48.09V43.52a7.37,7.37,0,0,0,1.48.09H283Zm11.29,3.43a7.42,7.42,0,0,0-.29.82,16.75,16.75,0,0,1-1.6,3.67c.44,1,1.16,2.06,1.43,2.06s.44-.89.58-2.18a2.37,2.37,0,0,0,.81.61,8,8,0,0,1-.46,1.85c-.18.53-.47.84-.76.84a1.77,1.77,0,0,1-1.24-.78,8.12,8.12,0,0,1-1-1.52,12.83,12.83,0,0,1-2.65,2.6,3.71,3.71,0,0,0-.73-.69,10.65,10.65,0,0,0,3-2.84,20.23,20.23,0,0,1-1-6h-2.27v6.5A18.33,18.33,0,0,0,290.27,50l.12.93a23.34,23.34,0,0,1-3.93,2.2l-.66.32-.39-1a13.44,13.44,0,0,0,1.68-.63V45.39a12.86,12.86,0,0,0-.07-1.54,13.24,13.24,0,0,0,1.57.06h1.73a18.51,18.51,0,0,0-.1-2.68h1.15a9.88,9.88,0,0,0-.08,1.54c0,.34,0,.48,0,1.14h1.9a8.94,8.94,0,0,0,1.6-.08v1.1a12.09,12.09,0,0,0-1.6-.1h-1.87a19.72,19.72,0,0,0,.68,5A12.72,12.72,0,0,0,293.3,46Zm-1.62-5.08a9.34,9.34,0,0,1,1.6,1.68l-.71.6A8.46,8.46,0,0,0,292,41.81Z"/><path class="cls-1" d="M284.9,60.69a13.06,13.06,0,0,0-1.82-2.36l1-.41a13.5,13.5,0,0,1,2,2.77h2.43a11.36,11.36,0,0,0,1.92-2.75l1.09.41a17.55,17.55,0,0,1-1.84,2.34h3.49a10.88,10.88,0,0,0,1.7-.1v1.16a11.4,11.4,0,0,0-1.7-.1H281.57a11.77,11.77,0,0,0-1.7.1V60.59a7.73,7.73,0,0,0,1.7.1Zm-2.81,11a10.61,10.61,0,0,0,.11,1.8H281a12.59,12.59,0,0,0,.09-1.84V64.53c0-.83,0-1.12-.05-1.51a16.48,16.48,0,0,0,1.65.07h2.67a9.58,9.58,0,0,0,1.54-.07c0,.39-.05.84-.05,1.8V72c0,1-.32,1.31-1.43,1.31-.35,0-.76,0-1.41-.07a4.61,4.61,0,0,0-.27-1,7.94,7.94,0,0,0,1.48.17c.49,0,.59-.09.59-.44V69.67h-3.67Zm3.67-5.78V64.06h-3.67v1.87Zm0,2.79V66.88h-3.67v1.84Zm4.42-5.49a9.33,9.33,0,0,0-.08,1.59v3.45a10.53,10.53,0,0,0,.07,1.92H289a14,14,0,0,0,.07-1.9V64.82a8.91,8.91,0,0,0-.09-1.59Zm3.66-.51a9.25,9.25,0,0,0-.1,1.83v7.36c0,1.19-.36,1.5-1.75,1.5-.58,0-1.14,0-2-.1a4.19,4.19,0,0,0-.33-1.14,14,14,0,0,0,2.2.22c.66,0,.78-.07.78-.51V64.52a9.33,9.33,0,0,0-.1-1.8Z"/><path class="cls-1" d="M280,79.7a16,16,0,0,1,2.77,2.14l-.73.82a11.39,11.39,0,0,0-2.7-2.2ZM283,85.19A29.76,29.76,0,0,1,281,90c-.19.35-.19.35-.29.56l-1-.77a17.15,17.15,0,0,0,2.35-5.28Zm-1.87-9.72a17.63,17.63,0,0,1,2.5,2.22l-.78.8a10.49,10.49,0,0,0-2.48-2.29Zm11.53,1.46a13.68,13.68,0,0,0,2.21-.1V78a16.66,16.66,0,0,0-2.15-.07H286A15,15,0,0,1,283.78,81a3.13,3.13,0,0,0-.84-.78,10,10,0,0,0,2.59-3.72A6,6,0,0,0,286,75l1.19.24a5.13,5.13,0,0,0-.26.67,9.12,9.12,0,0,1-.44,1Zm-7.47,11.23c-.1.38-.15.55-.3,1.11l-1.16-.15a25.05,25.05,0,0,0,1.19-5h-.1a8.85,8.85,0,0,0-1.57.1V83.1a9.49,9.49,0,0,0,1.64.1H285c.18-1.48.29-2.55.29-3.13,0,0,0-.2,0-.49.2,0,.7,0,1.21,0h5.4a17.24,17.24,0,0,0,1.77-.06,14.73,14.73,0,0,0-.15,2.56c0,.34,0,.56-.06,1.09h.12a8,8,0,0,0,1.59-.1v1.15a13.16,13.16,0,0,0-1.59-.1h-.18c0,.17,0,.17,0,.48-.05.71-.13,1.58-.27,2.58h.19a6,6,0,0,0,1.34-.1v1.12a10.9,10.9,0,0,0-1.38-.07h-.3c-.34,2-.65,2.33-2,2.33-.39,0-.95,0-1.87-.1a2.88,2.88,0,0,0-.19-1.09,10.71,10.71,0,0,0,1.89.21c.87,0,.93-.09,1.19-1.35Zm.78-4c-.1.82-.22,1.41-.56,3.06h2.74a26.59,26.59,0,0,0,.46-3.06Zm2.76-1c.12-1.17.12-1.29.19-2.67h-2.55c-.09,1.16-.12,1.51-.26,2.67Zm.88,1c-.17,1.4-.17,1.4-.46,3.06h3c.12-.93.2-1.68.3-3.06Zm2.89-1c0-.68.07-1.65.09-2.67h-2.67c-.09,1.12-.15,2-.21,2.67Z"/><path class="cls-1" d="M282.26,99.4a20.38,20.38,0,0,1-.63,5.76,8.59,8.59,0,0,1-1.19,2.47,3.78,3.78,0,0,0-.88-.85c1.28-1.72,1.65-3.37,1.65-7.48a17,17,0,0,0-.09-2.09,15.59,15.59,0,0,0,2,.08h9.7a8.56,8.56,0,0,0,1.82-.1v1.16a12.2,12.2,0,0,0-1.82-.09H282.26Zm4.71-6a5.73,5.73,0,0,0-.1-1.17h1.26a5.21,5.21,0,0,0-.09,1.13v1.48h4.75v-1.1c0-.41,0-.73-.07-1.06h1.19a5,5,0,0,0-.09,1.06V94.9a6.71,6.71,0,0,0,0,.93l-1.19,0H282.52l-1.09,0c0-.39,0-.58,0-.9V93.76a7.56,7.56,0,0,0-.08-1.06h1.17a10.52,10.52,0,0,0-.05,1.09v1.07H287Zm-2,7.39a9.11,9.11,0,0,0-1.55.09V99.79a8.82,8.82,0,0,0,1.55.09h7.07a8.6,8.6,0,0,0,1.51-.09v1.11a9,9,0,0,0-1.51-.09h-3.28v2.06h4.32a10.85,10.85,0,0,0,1.71-.1v1.15a12.55,12.55,0,0,0-1.71-.1h-4.32v2.43a7.14,7.14,0,0,0,.1,1.53h-1.29a8.38,8.38,0,0,0,.1-1.53v-2.43h-3.31a13,13,0,0,0-1.72.1v-1.15a10.74,10.74,0,0,0,1.72.1h3.31v-2.06Z"/><rect class="cls-7" width="360" height="150"/></g></g></svg>