<svg xmlns="http://www.w3.org/2000/svg" viewBox="0 0 540 180"><defs><style>.cls-1{fill:#4d4d4d;}.cls-2{fill:#fff;stroke:#3e3a39;stroke-width:2.03px;}.cls-2,.cls-3{stroke-miterlimit:10;}.cls-3,.cls-6{fill:none;}.cls-3{stroke:#000;stroke-width:1.25px;}.cls-4{fill:#3e3a39;}.cls-5{fill:#37bef0;}</style></defs><g id="レイヤー_2" data-name="レイヤー 2"><g id="section_1-6"><path class="cls-1" d="M19.19,39.05a14.13,14.13,0,0,1-2,1.76,3.2,3.2,0,0,0-.62-1.14,11.79,11.79,0,0,0,2.78-2.49A11.47,11.47,0,0,0,21,34.52H18.4a10.43,10.43,0,0,0-1.23.06V33.35a9.36,9.36,0,0,0,1.2.06h.8V32a7.28,7.28,0,0,0-.1-1.25h1.38a7.34,7.34,0,0,0-.1,1.27v1.4h.84a3.14,3.14,0,0,0,.75,0l.54.73c-.11.2-.2.38-.32.64a14.34,14.34,0,0,1-1.68,2.8,6.49,6.49,0,0,0,1.94,1.52,4.45,4.45,0,0,0-.56,1.06,11.68,11.68,0,0,1-1.51-1.35v4.93a15.5,15.5,0,0,0,.08,1.68H19.09a14.68,14.68,0,0,0,.1-1.7Zm3-7.75a15.5,15.5,0,0,0,1.64.08h5.87a13.91,13.91,0,0,0,1.62-.08v1.27a10.11,10.11,0,0,0-1.52-.08H23.76a10.19,10.19,0,0,0-1.52.08Zm7.33,7a11.34,11.34,0,0,0,1.57-.07,15.55,15.55,0,0,0-.06,1.57v3.91a10.67,10.67,0,0,0,.1,1.63H29.94v-.75H23.67v.7H22.45a10.88,10.88,0,0,0,.1-1.62V39.83a13.83,13.83,0,0,0-.07-1.58c.37,0,.9,0,1.59,0Zm-6.32-3.51a10.12,10.12,0,0,0-.06-1.31,10.48,10.48,0,0,0,1.5.08h4.18a14.68,14.68,0,0,0,1.49-.08,9.37,9.37,0,0,0-.06,1.28v1.15a9.5,9.5,0,0,0,.06,1.31,15,15,0,0,0-1.54-.06H24.71c-.64,0-1.09,0-1.52.06A9.23,9.23,0,0,0,23.25,36Zm.42,6.08h2.48V39.3H23.67Zm0,2.72h2.48V41.85H23.67Zm.7-7.39h4.76V34.55H24.37Zm2.88,4.67h2.69V39.3H27.25Zm0,2.72h2.69V41.85H27.25Z"/><path class="cls-1" d="M35.65,35.05a10.3,10.3,0,0,0-1.81.09V33.77a11.63,11.63,0,0,0,1.8.11h1.8V32.55a11.54,11.54,0,0,0-.09-1.65h1.44a9,9,0,0,0-.1,1.7v1.28h4.13V32.63a9.67,9.67,0,0,0-.09-1.73l1.45,0a9.91,9.91,0,0,0-.11,1.73v1.23h1.71a11.59,11.59,0,0,0,1.76-.11v1.37a10.72,10.72,0,0,0-1.76-.09H44.07v4h2.1a12,12,0,0,0,1.77-.1v1.38a11.14,11.14,0,0,0-1.77-.11h-2.1v3.2a11.85,11.85,0,0,0,.11,1.87H42.73a14.19,14.19,0,0,0,.09-1.87v-3.2h-4.4a7.46,7.46,0,0,1-1.22,3.17,9.33,9.33,0,0,1-2.06,2,4,4,0,0,0-1-1.06,6.75,6.75,0,0,0,2.08-1.89,5.44,5.44,0,0,0,.93-2.25h-2a9.91,9.91,0,0,0-1.73.11V39a11.19,11.19,0,0,0,1.71.1h2.23a26.93,26.93,0,0,0,.12-2.82V35.05Zm3,1.36c0,.89,0,1.76-.13,2.64h4.26v-4H38.69Z"/><path class="cls-1" d="M51.44,36a9.69,9.69,0,0,0-1.44.09V34.69a7.16,7.16,0,0,0,1.44.1h2.68V32.73A13,13,0,0,0,54,31h1.46a11.08,11.08,0,0,0-.1,1.72V43.5a11.54,11.54,0,0,0,.1,1.74H54a13.16,13.16,0,0,0,.1-1.76V41.56a32.07,32.07,0,0,1-3.37,1.68l-.64.31-.48-1.33a5.91,5.91,0,0,0,1.4-.47,27,27,0,0,0,3.09-1.52V36Zm7.56,7c0,.3.06.43.27.51a4.68,4.68,0,0,0,1.38.13c1.32,0,1.77-.11,2-.53A8.41,8.41,0,0,0,63,40.27a4,4,0,0,0,1.2.54c-.09,1.86-.35,2.94-.83,3.41a2.11,2.11,0,0,1-1,.41,10.07,10.07,0,0,1-1.73.1,6.73,6.73,0,0,1-2.08-.19c-.57-.19-.78-.53-.78-1.25V32.73a10.17,10.17,0,0,0-.1-1.72h1.44A13.63,13.63,0,0,0,59,32.73v3.63a20.53,20.53,0,0,0,3.13-2.13,5,5,0,0,0,.93-.9L64,34.39a5.64,5.64,0,0,0-.57.45A27.49,27.49,0,0,1,59,37.72Z"/><path class="cls-1" d="M68.23,31.78a10.48,10.48,0,0,0-.13,1.87v8.6a10.2,10.2,0,0,0,.13,1.87H66.45a10,10,0,0,0,.13-1.87v-8.6a9.8,9.8,0,0,0-.13-1.87Z"/><path class="cls-1" d="M72.66,42.31v1.81H70.85V42.31Z"/><path class="cls-1" d="M83.88,35.4A3.65,3.65,0,0,0,83.14,34a3.35,3.35,0,0,0-2.64-1.1c-2.51,0-4.07,1.93-4.07,5S78,43,80.5,43A3.27,3.27,0,0,0,84,40.14l1.6.33a5.53,5.53,0,0,1-.93,2.05,5.77,5.77,0,0,1-8,.37A7,7,0,0,1,74.87,38a6.93,6.93,0,0,1,1.88-5.06,5.15,5.15,0,0,1,3.72-1.38,4.81,4.81,0,0,1,5,3.44Z"/><path class="cls-1" d="M38.34,78.76a6.41,6.41,0,0,0,1.12-.08c0,.38-.05.83-.05,1.49v3.42A10,10,0,0,0,39.46,85a8.58,8.58,0,0,0-1.35,0H35.55a8.75,8.75,0,0,0-1.4,0,13.18,13.18,0,0,0,.06-1.36V79.73l-.3.4a3.72,3.72,0,0,0-.84-.84,9.81,9.81,0,0,0,2.18-3.52,8.32,8.32,0,0,0,.34-1.21l1.16.32-.25.64c0,.13-.07.15-.16.41h1.13a4.4,4.4,0,0,0,1-.07l.48.63a7.21,7.21,0,0,0-.53,1c-.16.34-.4.8-.69,1.3Zm-3.07,6.93a12.13,12.13,0,0,1-1.08,3.6l-1-.7a8.49,8.49,0,0,0,1.1-3.19Zm1.32-6.93a11.09,11.09,0,0,0,.9-1.84H35.92a12.26,12.26,0,0,1-1,1.84Zm-1.36,2.53h1.09V79.7H35.23Zm0,2.69h1.09V82.2H35.23Zm1.3,1.63a23.09,23.09,0,0,1,.21,3.25l-1,.17c0-.52,0-.73,0-1.13,0-.82,0-1.3-.1-2.15ZM38,85.5a22.39,22.39,0,0,1,.56,3l-.93.22a17.27,17.27,0,0,0-.48-3Zm-.72-4.21h1.18V79.7H37.25Zm0,2.69h1.18V82.2H37.25Zm2.1,1.34A20.92,20.92,0,0,1,40.13,88l-.88.29a12.22,12.22,0,0,0-.72-2.71ZM43.13,76a7.18,7.18,0,0,0-.1-1.25h1.25A6.32,6.32,0,0,0,44.2,76v.1H46a8.24,8.24,0,0,0,1.59-.1v1.16a9.51,9.51,0,0,0-1.54-.08H44.2v1h1.44A11.29,11.29,0,0,0,47.08,78v1.07A14.35,14.35,0,0,0,45.62,79H44.2v1h2.14a9.58,9.58,0,0,0,1.6-.1v1.17a8.82,8.82,0,0,0-1.6-.09H41.12a7.38,7.38,0,0,0-1.37.08V80a9.18,9.18,0,0,0,1.37.08h2V79H41.78a13.77,13.77,0,0,0-1.42.06V78a11.29,11.29,0,0,0,1.44.06h1.33v-1H41.44a8.53,8.53,0,0,0-1.47.08V76a7.85,7.85,0,0,0,1.54.1h1.62ZM41.51,87.63a11.73,11.73,0,0,0,.08,1.76H40.36a12.15,12.15,0,0,0,.09-1.76V83.22c0-.52,0-1-.05-1.37.32,0,.72.05,1.44.05h3.73a10.87,10.87,0,0,0,1.48-.07,14,14,0,0,0-.07,1.7v4.38c0,1-.4,1.33-1.6,1.33-.27,0-.56,0-1.28-.06A3.14,3.14,0,0,0,43.86,88a7,7,0,0,0,1.51.15c.43,0,.54-.1.54-.43V85.77h-4.4Zm1.65-4.73H41.51v1.88h1.65Zm2.75,1.88V82.9H44.2v1.88Z"/><path class="cls-1" d="M50.39,78.82a19.52,19.52,0,0,1,3.1,2.08L52.72,82a12.27,12.27,0,0,0-3.1-2.19ZM53.7,84A25,25,0,0,1,52,87.19a10.57,10.57,0,0,1-.89,1.38,2.35,2.35,0,0,0-.26.38l-1.12-1a4.06,4.06,0,0,0,.64-.74,11,11,0,0,0,1.11-1.63,19.12,19.12,0,0,0,1.16-2.31Zm-2.48-9a15.45,15.45,0,0,1,3,2.21l-.8,1a14,14,0,0,0-3-2.34Zm6.94,2.17H56.23c-.71,0-1.27,0-1.73.08V75.89a11.48,11.48,0,0,0,1.73.1H62a11,11,0,0,0,1.73-.11v1.39a15.09,15.09,0,0,0-1.73-.1h-2.5V87h2.93a13.33,13.33,0,0,0,1.79-.09v1.42a11.58,11.58,0,0,0-1.79-.11h-7a11.49,11.49,0,0,0-1.79.11V86.91a13.75,13.75,0,0,0,1.79.09h2.8Z"/><path class="cls-1" d="M68.23,75.78a10.48,10.48,0,0,0-.13,1.87v8.6a10.2,10.2,0,0,0,.13,1.87H66.45a10,10,0,0,0,.13-1.87v-8.6a9.8,9.8,0,0,0-.13-1.87Z"/><path class="cls-1" d="M72.66,86.31v1.81H70.85V86.31Z"/><path class="cls-1" d="M83.88,79.4A3.65,3.65,0,0,0,83.14,78a3.35,3.35,0,0,0-2.64-1.1c-2.51,0-4.07,1.93-4.07,5S78,87,80.5,87A3.27,3.27,0,0,0,84,84.14l1.6.33a5.53,5.53,0,0,1-.93,2,5.77,5.77,0,0,1-8,.37,7.77,7.77,0,0,1,.14-10,5.15,5.15,0,0,1,3.72-1.38,4.81,4.81,0,0,1,5,3.44Z"/><path class="cls-1" d="M33.35,129.26l.48,0c.52,0,2.14-.1,3.1-.19,0-.51,0-.74-.06-1.09h.4a8.51,8.51,0,0,0,1.34-.87H35.28a8.76,8.76,0,0,0-1.37.07v-1.14a6.79,6.79,0,0,0,1.34.08h3.84a3.59,3.59,0,0,0,.83-.06l.55.77a4,4,0,0,0-.48.35,13.56,13.56,0,0,1-1.91,1.3V129c1-.11,1.59-.21,3.19-.5l0,1c-1.49.27-2.08.35-3.24.51v2a1,1,0,0,1-.3.88,1.89,1.89,0,0,1-1.25.26,13.7,13.7,0,0,1-1.47-.07,4.15,4.15,0,0,0-.26-1.16,10.59,10.59,0,0,0,1.73.19c.32,0,.4-.07.4-.35v-1.59c-.75.08-1.42.15-2.53.24a5.14,5.14,0,0,0-.88.11Zm3.58-9.61a4.12,4.12,0,0,0-.08-.93h1.38a3.44,3.44,0,0,0-.08,1v.59h1.76a7.2,7.2,0,0,0,1.36-.08v1.2a8.79,8.79,0,0,0-1.36-.08h-5a9,9,0,0,0-1.38.08v-1.2a7.31,7.31,0,0,0,1.38.08h2Zm-2.51,3.54a7.59,7.59,0,0,0-.07-1.07,10.18,10.18,0,0,0,1.33.06h3.38a9.94,9.94,0,0,0,1.31-.06,7.1,7.1,0,0,0-.06,1.07v1a7.32,7.32,0,0,0,.06,1.08,10.58,10.58,0,0,0-1.33-.07H35.67a10.63,10.63,0,0,0-1.32.07,7.64,7.64,0,0,0,.07-1.08Zm1.1,1.09H39.2v-1.17H35.52ZM48,122.82a7.16,7.16,0,0,0-1.2-.09,14.89,14.89,0,0,1-.56,3.25,12.13,12.13,0,0,1-1.37,3.13,10.93,10.93,0,0,0,3.39,3.12,4.15,4.15,0,0,0-.8,1.19,14.8,14.8,0,0,1-3.33-3.27,12.6,12.6,0,0,1-3.92,3.32,3.75,3.75,0,0,0-.8-1.08,10.49,10.49,0,0,0,4.06-3.26,12.87,12.87,0,0,1-1.5-4,10,10,0,0,1-.94,1.39,3,3,0,0,0-.85-.89,13.25,13.25,0,0,0,2.56-5.78,6.82,6.82,0,0,0,.16-1.22l1.34.24c0,.14-.11.43-.22.85-.14.61-.29,1.1-.53,1.87h3a7.09,7.09,0,0,0,1.53-.1Zm-4.89-.09c-.16.43-.23.57-.39.94A12.41,12.41,0,0,0,44.15,128a11.72,11.72,0,0,0,1.42-5.29Z"/><path class="cls-1" d="M55.76,120c.48,0,.82,0,1.24,0a3.72,3.72,0,0,0,0,.37s0,.16,0,.37,0,.25,0,.49c-.17,2.31-.38,2.6-1.84,2.6-.32,0-.73,0-1.21,0a2.94,2.94,0,0,0-.24-1c.53.06,1,.11,1.29.11.47,0,.63-.06.71-.3a6.68,6.68,0,0,0,.19-1.54H53.7a5.68,5.68,0,0,1-3.27,3.52,3,3,0,0,0-.83-.86c1.67-.74,2.47-1.46,2.91-2.66H51.36a9.77,9.77,0,0,0-1.36.07v-1.14a8.86,8.86,0,0,0,1.44.08h1.33a5.15,5.15,0,0,0,.08-.77c0-.22,0-.37,0-.5h1.25a3.48,3.48,0,0,0,0,.4c0,.29-.05.55-.1.87Zm-.44,11.68a12.85,12.85,0,0,1-4.85,1.75,3.52,3.52,0,0,0-.69-1.07A11,11,0,0,0,54.35,131Zm5.31-7.23c.9,0,1.2,0,1.65,0,0,.43-.05.93-.05,1.75v3a16.55,16.55,0,0,0,.06,1.68,16.13,16.13,0,0,0-1.76-.06H53.44a16.13,16.13,0,0,0-1.76.06,12.79,12.79,0,0,0,.07-1.63v-3.12a15.59,15.59,0,0,0-.07-1.7c.43,0,.91,0,1.67,0Zm-7.72,1.82h8.15v-.89H52.91Zm0,1.78h8.15v-.91H52.91Zm0,1.82h8.15v-1H52.91Zm6.25-6.29a10.37,10.37,0,0,0-1.33.07,9.84,9.84,0,0,0,.06-1.2v-1.6a10.51,10.51,0,0,0-.06-1.3,10.06,10.06,0,0,0,1.36.07h3a10.46,10.46,0,0,0,1.36-.07,10.47,10.47,0,0,0-.07,1.31v1.51a10.08,10.08,0,0,0,.07,1.28,10.37,10.37,0,0,0-1.33-.07Zm.21,7.42a12.26,12.26,0,0,0,4.81,1.31,7.14,7.14,0,0,0-.72,1.12,13.61,13.61,0,0,1-5-1.75Zm-.32-8.39h3.29v-2H59.05Z"/><path class="cls-1" d="M68.23,119.78a10.48,10.48,0,0,0-.13,1.87v8.6a10.2,10.2,0,0,0,.13,1.87H66.45a10,10,0,0,0,.13-1.87v-8.6a9.8,9.8,0,0,0-.13-1.87Z"/><path class="cls-1" d="M72.66,130.31v1.81H70.85v-1.81Z"/><path class="cls-1" d="M83.88,123.4a3.65,3.65,0,0,0-.74-1.41,3.35,3.35,0,0,0-2.64-1.1c-2.51,0-4.07,1.93-4.07,5S78,131,80.5,131A3.27,3.27,0,0,0,84,128.14l1.6.33a5.53,5.53,0,0,1-.93,2.05,5.77,5.77,0,0,1-8,.37,7.77,7.77,0,0,1,.14-10,5.15,5.15,0,0,1,3.72-1.38,4.81,4.81,0,0,1,5,3.44Z"/><path class="cls-1" d="M156.27,53.46c.37-.42.72-.82,1.1-1.31l4-4.94a13.06,13.06,0,0,0,1.21-1.66h1.49c-.08,1-.09,1.44-.09,2.71v5.25h.59a11,11,0,0,0,1.65-.12v1.52a10.88,10.88,0,0,0-1.65-.11H164v1.33a8.9,8.9,0,0,0,.13,1.76h-1.7a8.33,8.33,0,0,0,.14-1.78V54.8H158.2c-.91,0-1.37,0-1.93.07Zm6.27-3.78c0-.85,0-1.33.08-2.11-.32.48-.64.91-1.15,1.54L158,53.52h4.58Z"/><path class="cls-1" d="M169.48,45.47a9.33,9.33,0,0,0,1.41.08H172a10.56,10.56,0,0,0,1.42-.08c-.09,1-.14,1.78-.14,2.66V56a10.86,10.86,0,0,0,.13,1.89h-1.78a10.71,10.71,0,0,0,.13-1.89V46.86H171a11.86,11.86,0,0,0-1.48.1Z"/><path class="cls-1" d="M186.13,48.34a2.33,2.33,0,0,0-2.39-1.75,2.84,2.84,0,0,0-2.69,1.89,8.54,8.54,0,0,0-.67,3.27,3.28,3.28,0,0,1,.83-1A4.17,4.17,0,0,1,188,53.92a4,4,0,0,1-4.29,4.19,4.48,4.48,0,0,1-3-1c-1.08-1-1.68-2.82-1.68-5.09a8.64,8.64,0,0,1,1.23-4.88,4.16,4.16,0,0,1,3.6-1.79,4,4,0,0,1,2.9,1.05,4.8,4.8,0,0,1,1,1.52ZM180.7,54a2.83,2.83,0,0,0,2.91,2.89,2.87,2.87,0,0,0,2.44-1.25,3.29,3.29,0,0,0,.4-1.64,2.58,2.58,0,0,0-2.76-2.84A2.83,2.83,0,0,0,180.7,54Z"/><path class="cls-1" d="M191.64,51.79a13.12,13.12,0,0,0-1.69.1v-1.3a10.85,10.85,0,0,0,1.71.1h10.92a11.31,11.31,0,0,0,1.73-.1v1.3a13.33,13.33,0,0,0-1.73-.1h-7.33c-.28.66-.39.91-.71,1.54h5.91a16.36,16.36,0,0,0,1.73-.06c0,.14-.07.46-.13,1.09-.31,2.32-.67,3.61-1.15,4.08s-.92.51-2.05.51c-.79,0-1.59-.05-2.56-.13a3.79,3.79,0,0,0-.29-1.25,27.43,27.43,0,0,0,2.85.24c.73,0,1-.08,1.18-.38a9.27,9.27,0,0,0,.71-3H194c-.26.43-.41.67-.85,1.34l-1.36-.27a14.9,14.9,0,0,0,2.13-3.67Zm.44-5.55A9.38,9.38,0,0,0,192,45a17.48,17.48,0,0,0,1.81.08h6.6a12.9,12.9,0,0,0,1.8-.08,11.65,11.65,0,0,0-.06,1.23v2.08a11.5,11.5,0,0,0,.06,1.25,14.72,14.72,0,0,0-1.68-.07h-6.83a15.84,15.84,0,0,0-1.7.07,9.59,9.59,0,0,0,.07-1.25Zm1.21-.08v2.29h7.64V46.16Z"/><path class="cls-1" d="M206.27,51.39a3.05,3.05,0,0,0,.62,0h.66c.61-.79.61-.79,1-1.43a18.63,18.63,0,0,0-2.33-2.43l.65-.93c.37.37.44.43.72.72a10.06,10.06,0,0,0,1.46-3l1.15.45a4.48,4.48,0,0,0-.36.65,21.58,21.58,0,0,1-1.54,2.6c.37.43.51.59.86,1a15.55,15.55,0,0,0,1.57-2.8l1.09.56c-.43.64-.43.64-1.12,1.73-.51.8-1,1.53-2,2.77,1-.07,1.5-.11,2.26-.21a11.92,11.92,0,0,0-.56-1.31l.86-.37a16.41,16.41,0,0,1,1.09,2.91l-.91.43c-.08-.35-.13-.51-.18-.72l-.48.07-.89.09v5.24a9.07,9.07,0,0,0,.09,1.61h-1.3a11.21,11.21,0,0,0,.1-1.63V52.37l-1.73.11a5.62,5.62,0,0,0-.7.1Zm1.85,2.12a16.82,16.82,0,0,1-.83,4.73l-1-.51a14.65,14.65,0,0,0,.8-4.38Zm3.25-.23a23.58,23.58,0,0,1,.64,3.11l-.94.3a19.33,19.33,0,0,0-.56-3.15Zm4,0a9.64,9.64,0,0,0-.44,1.06,11,11,0,0,1-1.42,2.43,11.36,11.36,0,0,1-1.63,1.63,3,3,0,0,0-.8-.9,7.94,7.94,0,0,0,3-3.73h-.94a6.06,6.06,0,0,0-1,.07V52.69a5,5,0,0,0,1.07.08H214a4.8,4.8,0,0,0,.8-.05Zm-.21-7.48a6.17,6.17,0,0,0,.48-1.45l1.3.22c-.2.48-.34.82-.55,1.23h2a11.85,11.85,0,0,0,1.52-.06,12.8,12.8,0,0,0-.06,1.53V50a12.07,12.07,0,0,0,.06,1.49,13,13,0,0,0-1.5-.06H216.8a8.3,8.3,0,0,0,1,2.43,13.27,13.27,0,0,0,1.91-2l.83.77a24.64,24.64,0,0,1-2.19,2.11,10,10,0,0,0,2.76,2.73,3.49,3.49,0,0,0-.78,1.1,10,10,0,0,1-1.9-1.89,10.76,10.76,0,0,1-1.83-3.49c.11,1.2.15,2,.16,2.69v1.84c0,.91-.41,1.22-1.65,1.22-.3,0-.91,0-1.17,0a3.78,3.78,0,0,0-.33-1.18,11.19,11.19,0,0,0,1.49.12c.41,0,.52-.06.52-.33v-6h-1.47a13.3,13.3,0,0,0-1.53.06c0-.4.06-.9.06-1.5V47.28c0-.61,0-1.1-.06-1.52a11.85,11.85,0,0,0,1.52.06Zm-1.35,2.28h4.89V46.8h-4.89Zm0,2.32h4.89V49.07h-4.89Z"/><path class="cls-1" d="M308,54.77a2.34,2.34,0,0,0,.91,1.46,3.32,3.32,0,0,0,2,.59c1.78,0,2.9-.91,2.9-2.37s-1.09-2.34-3.15-2.34a10.37,10.37,0,0,0-1.36.1V50.74a11.79,11.79,0,0,0,1.26.08,3.13,3.13,0,0,0,2.26-.71,2.15,2.15,0,0,0,.6-1.53c0-1.25-.91-2-2.46-2a2.39,2.39,0,0,0-2.05.83,2.58,2.58,0,0,0-.49,1.09l-1.61-.34a3.78,3.78,0,0,1,.95-1.71,4.42,4.42,0,0,1,3.28-1.17c2.4,0,4,1.26,4,3.22a2.82,2.82,0,0,1-1.12,2.35,3.37,3.37,0,0,1-1.5.58,3.31,3.31,0,0,1,2.27,1,3.1,3.1,0,0,1,.77,2.2,3.22,3.22,0,0,1-.93,2.3,4.93,4.93,0,0,1-3.55,1.2,4.7,4.7,0,0,1-3.73-1.36,4.38,4.38,0,0,1-.85-1.63Z"/><path class="cls-1" d="M319.1,56.93a4.16,4.16,0,0,1-1-1.5,10.58,10.58,0,0,1-.63-3.68,9.15,9.15,0,0,1,.95-4.38,4.1,4.1,0,0,1,3.73-2,4.14,4.14,0,0,1,4,2.69,10.5,10.5,0,0,1,.63,3.71,8.6,8.6,0,0,1-1.14,4.66,4.53,4.53,0,0,1-6.6.54Zm1.11-9.48a3.14,3.14,0,0,0-.71,1.19,10.17,10.17,0,0,0-.46,3.12,8.27,8.27,0,0,0,.74,3.7,2.82,2.82,0,0,0,4.29.61,3.27,3.27,0,0,0,.75-1.27,9.62,9.62,0,0,0,.46-3.09,9.13,9.13,0,0,0-.68-3.63,2.59,2.59,0,0,0-2.45-1.44A2.45,2.45,0,0,0,320.21,47.45Z"/><path class="cls-1" d="M330.88,50.16a4.06,4.06,0,0,1-.11.72,3.84,3.84,0,0,1,2.78-1.09,3.78,3.78,0,0,1,4,4,4.1,4.1,0,0,1-4.47,4.34A4.43,4.43,0,0,1,329.9,57a4.67,4.67,0,0,1-1-1.57l1.56-.42a2.71,2.71,0,0,0,.5.95,2.86,2.86,0,0,0,2.18.89A2.75,2.75,0,0,0,336,53.86,2.59,2.59,0,0,0,333.2,51,3.14,3.14,0,0,0,331,52a2,2,0,0,0-.43.67l-1.42-.12a13.72,13.72,0,0,0,.22-1.67l.35-3.71a6.14,6.14,0,0,0,.07-1.09c0-.05,0-.06,0-.56a11.8,11.8,0,0,0,1.71.08H335a11,11,0,0,0,2-.13V47a11.76,11.76,0,0,0-2-.13H331.2Z"/><path class="cls-1" d="M341.49,51.79a13.41,13.41,0,0,0-1.7.1v-1.3a10.85,10.85,0,0,0,1.71.1h10.92a11.31,11.31,0,0,0,1.73-.1v1.3a13.21,13.21,0,0,0-1.73-.1h-7.33a16.48,16.48,0,0,1-.7,1.54h5.9a16.23,16.23,0,0,0,1.73-.06c0,.14-.06.46-.13,1.09-.3,2.32-.67,3.61-1.15,4.08s-.91.51-2.05.51c-.78,0-1.58-.05-2.56-.13a3.79,3.79,0,0,0-.29-1.25,27.43,27.43,0,0,0,2.85.24c.74,0,1-.08,1.19-.38a9.1,9.1,0,0,0,.7-3h-6.75c-.26.43-.42.67-.85,1.34l-1.36-.27a15.56,15.56,0,0,0,2.13-3.67Zm.43-5.55a11.65,11.65,0,0,0-.06-1.23,17.36,17.36,0,0,0,1.81.08h6.59a13.16,13.16,0,0,0,1.81-.08,9.38,9.38,0,0,0-.07,1.23v2.08a9.29,9.29,0,0,0,.07,1.25,14.84,14.84,0,0,0-1.68-.07h-6.84a15.64,15.64,0,0,0-1.69.07,11.9,11.9,0,0,0,.06-1.25Zm1.22-.08v2.29h7.63V46.16Z"/><path class="cls-1" d="M356.11,51.39a3.16,3.16,0,0,0,.63,0h.65c.61-.79.61-.79,1.06-1.43a18.69,18.69,0,0,0-2.34-2.43l.66-.93.72.72a10.23,10.23,0,0,0,1.45-3l1.16.45a3.57,3.57,0,0,0-.37.65,21.58,21.58,0,0,1-1.54,2.6l.87,1a15.32,15.32,0,0,0,1.56-2.8l1.09.56c-.43.64-.43.64-1.12,1.73-.51.8-1,1.53-2,2.77,1-.07,1.51-.11,2.26-.21a10.25,10.25,0,0,0-.56-1.31l.86-.37a15.66,15.66,0,0,1,1.09,2.91l-.91.43c-.08-.35-.13-.51-.18-.72l-.48.07-.89.09v5.24a9.07,9.07,0,0,0,.09,1.61h-1.29a13,13,0,0,0,.09-1.63V52.37l-1.73.11a5.62,5.62,0,0,0-.7.1ZM358,53.51a17.21,17.21,0,0,1-.83,4.73l-1-.51a14.34,14.34,0,0,0,.8-4.38Zm3.25-.23a23.58,23.58,0,0,1,.64,3.11l-.95.3a19.33,19.33,0,0,0-.56-3.15Zm3.95,0a8.25,8.25,0,0,0-.43,1.06,10.69,10.69,0,0,1-1.43,2.43,11.36,11.36,0,0,1-1.63,1.63,3,3,0,0,0-.8-.9,7.88,7.88,0,0,0,3-3.73h-.94a6.22,6.22,0,0,0-1,.07V52.69a5,5,0,0,0,1.07.08h.9a4.8,4.8,0,0,0,.8-.05ZM365,45.82a6.17,6.17,0,0,0,.48-1.45l1.3.22a12.92,12.92,0,0,1-.55,1.23h2a11.85,11.85,0,0,0,1.52-.06c0,.45-.06.82-.06,1.53V50a14.46,14.46,0,0,0,.06,1.49,12.85,12.85,0,0,0-1.5-.06h-1.54a8.07,8.07,0,0,0,1,2.43,13.74,13.74,0,0,0,1.9-2l.83.77a23.35,23.35,0,0,1-2.19,2.11A10,10,0,0,0,371,57.4a3.35,3.35,0,0,0-.79,1.1,10.31,10.31,0,0,1-1.9-1.89,10.76,10.76,0,0,1-1.83-3.49c.12,1.2.15,2,.17,2.69v1.84c0,.91-.42,1.22-1.65,1.22-.31,0-.92,0-1.17,0a3.51,3.51,0,0,0-.34-1.18,11.19,11.19,0,0,0,1.49.12c.42,0,.53-.06.53-.33v-6H364a13.49,13.49,0,0,0-1.54.06c0-.4.06-.9.06-1.5V47.28c0-.61,0-1.1-.06-1.52a11.85,11.85,0,0,0,1.52.06Zm-1.34,2.28h4.88V46.8h-4.88Zm0,2.32h4.88V49.07h-4.88Z"/><path class="cls-1" d="M132.56,100.5c.37-.41.72-.81,1.11-1.31l4-4.93a13.72,13.72,0,0,0,1.22-1.66h1.49a26.56,26.56,0,0,0-.1,2.7v5.25h.59a11,11,0,0,0,1.65-.11V102a10.8,10.8,0,0,0-1.65-.11h-.59v1.33a9,9,0,0,0,.13,1.76h-1.7a8.38,8.38,0,0,0,.15-1.78v-1.31H134.5c-.91,0-1.38,0-1.94.06Zm6.28-3.78a20.69,20.69,0,0,1,.08-2.11,17.69,17.69,0,0,1-1.16,1.54l-3.5,4.42h4.58Z"/><path class="cls-1" d="M145.78,92.52a9.33,9.33,0,0,0,1.41.08h1.13a10.71,10.71,0,0,0,1.43-.08,24.5,24.5,0,0,0-.15,2.65v7.88a12,12,0,0,0,.13,1.89H148a12,12,0,0,0,.12-1.89V93.91h-.83a11.72,11.72,0,0,0-1.47.09Z"/><path class="cls-1" d="M164.07,93.87a8.31,8.31,0,0,0-1.31,1.77,19.85,19.85,0,0,0-2.64,5.57,19.58,19.58,0,0,0-.79,3.73h-1.81a21,21,0,0,1,1.94-6.36A26.21,26.21,0,0,1,162.33,94h-5.14a12.77,12.77,0,0,0-1.89.12V92.48a13.8,13.8,0,0,0,1.94.12h4.88a15.94,15.94,0,0,0,1.95-.08Z"/><path class="cls-1" d="M167.94,98.84a13.62,13.62,0,0,0-1.7.09V97.64a12.67,12.67,0,0,0,1.72.09h10.91a13,13,0,0,0,1.73-.09v1.29a13.47,13.47,0,0,0-1.73-.09h-7.33a16.29,16.29,0,0,1-.7,1.53h5.9a13.77,13.77,0,0,0,1.73-.06c0,.14-.06.46-.13,1.09-.3,2.32-.67,3.62-1.15,4.08s-.91.51-2.05.51c-.78,0-1.58,0-2.56-.13a3.34,3.34,0,0,0-.29-1.25,27.82,27.82,0,0,0,2.85.25c.74,0,1-.09,1.19-.39a9,9,0,0,0,.7-3h-6.75c-.26.43-.42.67-.85,1.34l-1.36-.27a15.7,15.7,0,0,0,2.13-3.66Zm.43-5.56a9.56,9.56,0,0,0-.06-1.23,17.36,17.36,0,0,0,1.81.08h6.59a13.16,13.16,0,0,0,1.81-.08,9.56,9.56,0,0,0-.06,1.23v2.08a9.34,9.34,0,0,0,.06,1.25,15.15,15.15,0,0,0-1.68-.06H170a16,16,0,0,0-1.69.06,9.61,9.61,0,0,0,.06-1.25Zm1.22-.08v2.29h7.63V93.2Z"/><path class="cls-1" d="M182.56,98.44a4.13,4.13,0,0,0,.63,0l.65,0c.61-.78.61-.78,1.06-1.43a19.35,19.35,0,0,0-2.34-2.43l.66-.93.72.72a10.11,10.11,0,0,0,1.45-3l1.16.45a5,5,0,0,0-.37.66,21,21,0,0,1-1.54,2.59c.37.43.52.59.87,1a15.22,15.22,0,0,0,1.57-2.8l1.08.56c-.43.64-.43.64-1.12,1.73-.51.8-1,1.54-2,2.77,1-.06,1.5-.11,2.25-.21a9.49,9.49,0,0,0-.56-1.31l.87-.37a16.67,16.67,0,0,1,1.08,2.91l-.91.44c-.08-.36-.13-.52-.17-.72a3,3,0,0,0-.48.06l-.9.1v5.23a9.12,9.12,0,0,0,.1,1.62h-1.3a13,13,0,0,0,.1-1.64V99.41l-1.73.11a5.52,5.52,0,0,0-.71.1Zm1.86,2.11a17.39,17.39,0,0,1-.83,4.74l-1-.52a14.22,14.22,0,0,0,.8-4.38Zm3.25-.22a23.12,23.12,0,0,1,.64,3.1l-.95.31a18.26,18.26,0,0,0-.56-3.16Zm4,0a8.25,8.25,0,0,0-.43,1.06,10.14,10.14,0,0,1-3.06,4.06,2.85,2.85,0,0,0-.8-.89,8,8,0,0,0,3-3.73h-1a6.33,6.33,0,0,0-1,.06V99.73a4.46,4.46,0,0,0,1.07.08h.9a5.09,5.09,0,0,0,.8,0Zm-.21-7.47a6.37,6.37,0,0,0,.48-1.46l1.3.22c-.19.48-.34.82-.54,1.24h2a11.63,11.63,0,0,0,1.53-.07,12.53,12.53,0,0,0-.07,1.54V97a11.85,11.85,0,0,0,.07,1.49,12.86,12.86,0,0,0-1.51-.07h-1.54a8.07,8.07,0,0,0,1,2.43,14.17,14.17,0,0,0,1.9-2l.83.77a23.4,23.4,0,0,1-2.19,2.11,10,10,0,0,0,2.77,2.72,3.3,3.3,0,0,0-.78,1.1,10,10,0,0,1-1.91-1.88,10.76,10.76,0,0,1-1.82-3.49c.11,1.2.14,2,.16,2.69v1.83c0,.92-.42,1.22-1.65,1.22a10.86,10.86,0,0,1-1.17,0,3.59,3.59,0,0,0-.34-1.18,11.7,11.7,0,0,0,1.49.13c.42,0,.53-.07.53-.34v-6h-1.47a13.19,13.19,0,0,0-1.54.07c0-.4.07-.9.07-1.51V94.32c0-.61,0-1.1-.07-1.52a11.45,11.45,0,0,0,1.52.07Zm-1.34,2.27H195v-1.3h-4.88Zm0,2.32H195V96.12h-4.88Z"/><path class="cls-1" d="M246.93,103.32a2.3,2.3,0,0,0,.91,1.46,3.3,3.3,0,0,0,2,.59c1.78,0,2.9-.91,2.9-2.37s-1.09-2.34-3.16-2.34a8.89,8.89,0,0,0-1.36.1V99.29a9.82,9.82,0,0,0,1.27.08,3.09,3.09,0,0,0,2.25-.71,2.12,2.12,0,0,0,.61-1.53c0-1.25-.91-2-2.46-2a2.39,2.39,0,0,0-2,.84,2.58,2.58,0,0,0-.5,1.09l-1.6-.34a3.84,3.84,0,0,1,.95-1.71A4.42,4.42,0,0,1,250,93.83c2.4,0,3.95,1.26,3.95,3.22a2.82,2.82,0,0,1-1.12,2.35,3.38,3.38,0,0,1-1.5.57,3.38,3.38,0,0,1,2.27,1,3.1,3.1,0,0,1,.77,2.2,3.23,3.23,0,0,1-.93,2.3,4.93,4.93,0,0,1-3.55,1.2,4.7,4.7,0,0,1-3.73-1.36,4.38,4.38,0,0,1-.85-1.63Z"/><path class="cls-1" d="M263.79,96.89a2.31,2.31,0,0,0-2.38-1.75A2.83,2.83,0,0,0,258.72,97a8.32,8.32,0,0,0-.68,3.26,3.37,3.37,0,0,1,.84-1,4.17,4.17,0,0,1,6.74,3.17,4,4,0,0,1-4.29,4.2,4.51,4.51,0,0,1-3-1c-1.07-1-1.68-2.82-1.68-5.09a8.64,8.64,0,0,1,1.23-4.88,4.16,4.16,0,0,1,3.6-1.79,4,4,0,0,1,2.9,1.05,4.74,4.74,0,0,1,1,1.52Zm-5.43,5.61a2.83,2.83,0,0,0,2.92,2.88,2.87,2.87,0,0,0,2.43-1.24,3.19,3.19,0,0,0,.4-1.64,2.59,2.59,0,0,0-2.75-2.85A2.84,2.84,0,0,0,258.36,102.5Z"/><path class="cls-1" d="M269.79,98.71a4.06,4.06,0,0,1-.11.72,3.84,3.84,0,0,1,2.78-1.09,3.79,3.79,0,0,1,4,4,4.1,4.1,0,0,1-4.47,4.34,4.41,4.41,0,0,1-3.22-1.18,4.83,4.83,0,0,1-1-1.57l1.57-.42a2.48,2.48,0,0,0,.5.95,2.86,2.86,0,0,0,2.18.89,2.74,2.74,0,0,0,2.89-2.94,2.59,2.59,0,0,0-2.83-2.82,3.12,3.12,0,0,0-2.18.91,1.69,1.69,0,0,0-.43.68l-1.42-.13a16,16,0,0,0,.22-1.67l.35-3.71a6.14,6.14,0,0,0,.07-1.09s0-.06,0-.56a11.87,11.87,0,0,0,1.72.08h3.45a11.07,11.07,0,0,0,2-.13v1.55a13,13,0,0,0-2-.12h-3.76Z"/><path class="cls-1" d="M280.4,100.34a11.59,11.59,0,0,0-1.7.1v-1.3a10.85,10.85,0,0,0,1.71.1h10.92a11.31,11.31,0,0,0,1.73-.1v1.3a11.75,11.75,0,0,0-1.73-.1H284a15.43,15.43,0,0,1-.71,1.54h5.91a16.36,16.36,0,0,0,1.73-.06c0,.14-.07.46-.13,1.08-.3,2.32-.67,3.62-1.15,4.09s-.91.51-2,.51c-.79,0-1.59,0-2.56-.13a3.79,3.79,0,0,0-.29-1.25,27.43,27.43,0,0,0,2.85.24c.74,0,1-.08,1.18-.38a8.94,8.94,0,0,0,.71-3h-6.76c-.25.43-.41.67-.84,1.34l-1.37-.27a14.9,14.9,0,0,0,2.13-3.67Zm.43-5.55a9.38,9.38,0,0,0-.07-1.23,17.61,17.61,0,0,0,1.81.08h6.6a13.16,13.16,0,0,0,1.81-.08,9.38,9.38,0,0,0-.07,1.23v2.08a9.29,9.29,0,0,0,.07,1.25,15,15,0,0,0-1.68-.07h-6.84a15.84,15.84,0,0,0-1.7.07,9.59,9.59,0,0,0,.07-1.25Zm1.22-.08V97h7.63V94.71Z"/><path class="cls-1" d="M295,99.94a4,4,0,0,0,.62,0l.66,0c.61-.78.61-.78,1.06-1.42A19.37,19.37,0,0,0,295,96.12l.66-.93.72.72a10.23,10.23,0,0,0,1.45-3l1.16.45a3.57,3.57,0,0,0-.37.65,22.38,22.38,0,0,1-1.54,2.6c.37.43.51.59.86,1a15.55,15.55,0,0,0,1.57-2.8l1.09.56c-.43.64-.43.64-1.12,1.73-.51.8-1,1.53-2,2.77,1-.07,1.51-.12,2.26-.21a10.25,10.25,0,0,0-.56-1.31l.86-.37a16.41,16.41,0,0,1,1.09,2.91l-.91.43c-.08-.35-.13-.51-.18-.72l-.48.07-.89.09v5.24a9.07,9.07,0,0,0,.09,1.61h-1.29a13,13,0,0,0,.09-1.63v-5.12l-1.73.11a5.62,5.62,0,0,0-.7.1Zm1.86,2.12a16.79,16.79,0,0,1-.84,4.73l-1-.51a14.65,14.65,0,0,0,.8-4.38Zm3.25-.23a23.58,23.58,0,0,1,.64,3.11l-.95.3a19.33,19.33,0,0,0-.56-3.15Zm3.95,0a8.62,8.62,0,0,0-.43,1.05,10.34,10.34,0,0,1-1.43,2.44,11.36,11.36,0,0,1-1.63,1.63,3,3,0,0,0-.8-.9,7.88,7.88,0,0,0,3-3.73h-.94a6.06,6.06,0,0,0-1,.07v-1.17a5,5,0,0,0,1.07.08h.9a4.88,4.88,0,0,0,.8,0Zm-.21-7.48a6.17,6.17,0,0,0,.48-1.45l1.3.22a12.92,12.92,0,0,1-.55,1.23h2a11.85,11.85,0,0,0,1.52-.06,12.78,12.78,0,0,0-.06,1.54V98.5a12.07,12.07,0,0,0,.06,1.49,13,13,0,0,0-1.5-.06h-1.54a8.3,8.3,0,0,0,1,2.43,13.27,13.27,0,0,0,1.91-2l.83.77a23.35,23.35,0,0,1-2.19,2.11,9.69,9.69,0,0,0,2.77,2.72,3.52,3.52,0,0,0-.79,1.11,10,10,0,0,1-1.9-1.89,10.76,10.76,0,0,1-1.83-3.49c.12,1.2.15,2,.16,2.69v1.84c0,.91-.41,1.22-1.65,1.22-.3,0-.91,0-1.16,0a3.59,3.59,0,0,0-.34-1.18,11.19,11.19,0,0,0,1.49.12c.42,0,.53-.06.53-.33v-6h-1.48a13.3,13.3,0,0,0-1.53.06c0-.4.06-.89.06-1.5V95.83c0-.61,0-1.11-.06-1.52a11.85,11.85,0,0,0,1.52.06Zm-1.34,2.28h4.88v-1.3h-4.88Zm0,2.32h4.88V97.62h-4.88Z"/><path class="cls-1" d="M341.15,101.81a2.32,2.32,0,0,0,.91,1.46,3.35,3.35,0,0,0,2,.59c1.77,0,2.89-.91,2.89-2.37s-1.09-2.33-3.15-2.33a10.35,10.35,0,0,0-1.36.09V97.78a9.66,9.66,0,0,0,1.26.08,3.11,3.11,0,0,0,2.26-.7,2.19,2.19,0,0,0,.61-1.54c0-1.25-.91-2-2.47-2a2.4,2.4,0,0,0-2.05.83,2.71,2.71,0,0,0-.49,1.09L340,95.2a3.83,3.83,0,0,1,.94-1.71,4.42,4.42,0,0,1,3.28-1.17c2.4,0,4,1.27,4,3.22a2.81,2.81,0,0,1-1.12,2.35,3.42,3.42,0,0,1-1.51.58,3.25,3.25,0,0,1,2.27,1,3,3,0,0,1,.77,2.19,3.22,3.22,0,0,1-.93,2.31,5,5,0,0,1-3.55,1.2,4.75,4.75,0,0,1-3.73-1.36,4.43,4.43,0,0,1-.85-1.64Z"/><path class="cls-1" d="M352.24,104a4,4,0,0,1-1-1.51,10.77,10.77,0,0,1-.62-3.68,9.26,9.26,0,0,1,.94-4.37,4.11,4.11,0,0,1,3.73-2,4.23,4.23,0,0,1,3.06,1.18,4.14,4.14,0,0,1,1,1.51,10.54,10.54,0,0,1,.63,3.71,8.49,8.49,0,0,1-1.14,4.66,4.51,4.51,0,0,1-6.59.55Zm1.1-9.48a3.29,3.29,0,0,0-.7,1.18,9.92,9.92,0,0,0-.47,3.12,8.38,8.38,0,0,0,.74,3.7,2.8,2.8,0,0,0,4.29.61,3.05,3.05,0,0,0,.75-1.26,9.62,9.62,0,0,0,.47-3.09,9,9,0,0,0-.69-3.64,2.58,2.58,0,0,0-2.45-1.44A2.43,2.43,0,0,0,353.34,94.5Z"/><path class="cls-1" d="M364,97.2a2.77,2.77,0,0,1-.11.73,3.86,3.86,0,0,1,2.79-1.09,3.78,3.78,0,0,1,4,4,4.1,4.1,0,0,1-4.47,4.34A4.41,4.41,0,0,1,363,104a4.57,4.57,0,0,1-1-1.57l1.57-.41a2.66,2.66,0,0,0,.49.94,2.85,2.85,0,0,0,2.18.9,2.76,2.76,0,0,0,2.9-2.95,2.59,2.59,0,0,0-2.84-2.81,3.06,3.06,0,0,0-2.17.91,1.7,1.7,0,0,0-.44.67l-1.42-.13a11.87,11.87,0,0,0,.22-1.66l.36-3.72a7.08,7.08,0,0,0,.06-1.08s0-.07,0-.56a11.8,11.8,0,0,0,1.71.08h3.46a11.94,11.94,0,0,0,2-.13V94a11.63,11.63,0,0,0-2-.13h-3.77Z"/><path class="cls-1" d="M374.62,98.84a13.62,13.62,0,0,0-1.7.09V97.64a12.77,12.77,0,0,0,1.72.09h10.91a12.94,12.94,0,0,0,1.73-.09v1.29a13.47,13.47,0,0,0-1.73-.09h-7.33a16.29,16.29,0,0,1-.7,1.53h5.91a13.68,13.68,0,0,0,1.72-.06c0,.14-.06.46-.12,1.09-.31,2.32-.68,3.62-1.16,4.08s-.91.51-2.05.51c-.78,0-1.58,0-2.56-.13a3.34,3.34,0,0,0-.29-1.25,27.82,27.82,0,0,0,2.85.25c.74,0,1-.09,1.19-.39a9,9,0,0,0,.7-3H377c-.26.43-.42.67-.85,1.34l-1.36-.27a15.35,15.35,0,0,0,2.13-3.66Zm.43-5.56a9.56,9.56,0,0,0-.06-1.23,17.36,17.36,0,0,0,1.81.08h6.59a13.16,13.16,0,0,0,1.81-.08,9.56,9.56,0,0,0-.06,1.23v2.08a9.34,9.34,0,0,0,.06,1.25,15.15,15.15,0,0,0-1.68-.06h-6.83a16.11,16.11,0,0,0-1.7.06,9.61,9.61,0,0,0,.06-1.25Zm1.22-.08v2.29h7.63V93.2Z"/><path class="cls-1" d="M389.24,98.44a4.13,4.13,0,0,0,.63,0l.65,0c.61-.78.61-.78,1.06-1.43a18.67,18.67,0,0,0-2.34-2.43l.66-.93.72.72a10.48,10.48,0,0,0,1.46-3l1.15.45a5,5,0,0,0-.37.66,19.78,19.78,0,0,1-1.54,2.59c.37.43.52.59.87,1a15.22,15.22,0,0,0,1.57-2.8l1.09.56c-.44.64-.44.64-1.12,1.73-.52.8-1.05,1.54-2,2.77,1-.06,1.5-.11,2.25-.21a9.49,9.49,0,0,0-.56-1.31l.87-.37a17.55,17.55,0,0,1,1.09,2.91l-.92.44c-.08-.36-.12-.52-.17-.72a3,3,0,0,0-.48.06l-.9.1v5.23a9.12,9.12,0,0,0,.1,1.62h-1.3a13,13,0,0,0,.1-1.64V99.41l-1.73.11a6.06,6.06,0,0,0-.71.1Zm1.86,2.11a17.39,17.39,0,0,1-.83,4.74l-1-.52a14.52,14.52,0,0,0,.8-4.38Zm3.25-.22a23.12,23.12,0,0,1,.64,3.1l-.94.31a20.38,20.38,0,0,0-.56-3.16Zm3.95,0a8.25,8.25,0,0,0-.43,1.06,10.8,10.8,0,0,1-1.42,2.43,11,11,0,0,1-1.64,1.63,2.85,2.85,0,0,0-.8-.89,7.9,7.9,0,0,0,3-3.73h-.95a6.33,6.33,0,0,0-1,.06V99.73a4.51,4.51,0,0,0,1.08.08H397a5.09,5.09,0,0,0,.8,0Zm-.2-7.47a6.91,6.91,0,0,0,.48-1.46l1.29.22c-.19.48-.33.82-.54,1.24h2a11.55,11.55,0,0,0,1.52-.07,12.53,12.53,0,0,0-.07,1.54V97a11.85,11.85,0,0,0,.07,1.49,12.86,12.86,0,0,0-1.51-.07h-1.53a8,8,0,0,0,1,2.43,13.62,13.62,0,0,0,1.9-2l.84.77a24.71,24.71,0,0,1-2.2,2.11,10,10,0,0,0,2.77,2.72,3.3,3.3,0,0,0-.78,1.1,10,10,0,0,1-1.91-1.88,10.76,10.76,0,0,1-1.82-3.49c.11,1.2.14,2,.16,2.69v1.83c0,.92-.42,1.22-1.65,1.22a11,11,0,0,1-1.17,0,3.59,3.59,0,0,0-.34-1.18,11.7,11.7,0,0,0,1.49.13c.42,0,.53-.07.53-.34v-6h-1.47a13.19,13.19,0,0,0-1.54.07c0-.4.07-.9.07-1.51V94.32c0-.61,0-1.1-.07-1.52a11.55,11.55,0,0,0,1.52.07Zm-1.35,2.27h4.88v-1.3h-4.88Zm0,2.32h4.88V96.12h-4.88Z"/><path class="cls-1" d="M132.91,145.8c0-2,1.59-3.23,4.1-3.23s4.1,1.23,4.1,3.22a2.86,2.86,0,0,1-2.31,2.93,3.23,3.23,0,0,1,1.68.7,3,3,0,0,1,1.17,2.52c0,2.25-1.65,3.5-4.61,3.5s-4.67-1.25-4.67-3.5a3,3,0,0,1,1.39-2.65,3.31,3.31,0,0,1,1.49-.57A2.87,2.87,0,0,1,132.91,145.8Zm1,6c0,1.47,1.12,2.32,3.05,2.32s3.07-.85,3.07-2.34-1.15-2.4-3-2.4S134,150.33,134,151.84Zm.47-5.91c0,1.35,1,2.18,2.61,2.18s2.57-.82,2.57-2.18-1-2.09-2.59-2.09S134.42,144.65,134.42,145.93Z"/><path class="cls-1" d="M145.25,149.09a13.62,13.62,0,0,0-1.7.09v-1.3a11,11,0,0,0,1.72.1h10.91a11.31,11.31,0,0,0,1.73-.1v1.3a13.47,13.47,0,0,0-1.73-.09h-7.33a16.29,16.29,0,0,1-.7,1.53h5.9a13.77,13.77,0,0,0,1.73-.06c0,.14-.06.46-.13,1.09-.3,2.32-.67,3.61-1.15,4.08s-.91.51-2.05.51c-.78,0-1.58-.05-2.56-.13a3.34,3.34,0,0,0-.29-1.25,27.43,27.43,0,0,0,2.85.24c.74,0,1-.08,1.19-.38a9,9,0,0,0,.7-3h-6.75c-.26.43-.42.67-.85,1.34l-1.36-.27a15.7,15.7,0,0,0,2.13-3.66Zm.43-5.56a9.47,9.47,0,0,0-.06-1.23,17.36,17.36,0,0,0,1.81.08H154a13.16,13.16,0,0,0,1.81-.08,9.47,9.47,0,0,0-.06,1.23v2.08a9.43,9.43,0,0,0,.06,1.25,15.15,15.15,0,0,0-1.68-.06h-6.84a16,16,0,0,0-1.69.06,9.7,9.7,0,0,0,.06-1.25Zm1.22-.08v2.29h7.63v-2.29Z"/><path class="cls-1" d="M159.87,148.69a4.17,4.17,0,0,0,.63,0h.65c.61-.79.61-.79,1.06-1.43a18.05,18.05,0,0,0-2.34-2.43l.66-.93.72.72a10.48,10.48,0,0,0,1.46-3l1.15.45a5.4,5.4,0,0,0-.37.65,19.24,19.24,0,0,1-1.54,2.6c.37.43.52.59.87,1a15.55,15.55,0,0,0,1.57-2.8l1.09.56c-.44.64-.44.64-1.12,1.73-.52.8-1.05,1.54-2,2.77,1-.06,1.5-.11,2.25-.21a9,9,0,0,0-.56-1.31l.87-.37a17.22,17.22,0,0,1,1.09,2.91l-.92.44c-.08-.36-.12-.52-.17-.72a3,3,0,0,0-.48.06l-.9.1v5.23a9.12,9.12,0,0,0,.1,1.62h-1.3a13.12,13.12,0,0,0,.1-1.64v-5.12l-1.73.11a6.06,6.06,0,0,0-.71.1Zm1.86,2.11a17.39,17.39,0,0,1-.83,4.74l-1-.52a14.59,14.59,0,0,0,.8-4.38Zm3.25-.23a23.58,23.58,0,0,1,.64,3.11l-.94.3a20.46,20.46,0,0,0-.56-3.15Zm4,0a8.25,8.25,0,0,0-.43,1.06,10.8,10.8,0,0,1-1.42,2.43,11.48,11.48,0,0,1-1.64,1.63,2.85,2.85,0,0,0-.8-.89,8,8,0,0,0,3-3.73h-.95a6.33,6.33,0,0,0-1,.06V150a4.46,4.46,0,0,0,1.07.08h.9a3.9,3.9,0,0,0,.8-.05Zm-.21-7.48a6.29,6.29,0,0,0,.49-1.45l1.29.22a12.94,12.94,0,0,1-.54,1.23h2a11.94,11.94,0,0,0,1.52-.06,12.53,12.53,0,0,0-.07,1.54v2.65a11.75,11.75,0,0,0,.07,1.49c-.45,0-.87-.06-1.51-.06h-1.53a8,8,0,0,0,1,2.43,13.62,13.62,0,0,0,1.9-2l.84.76a23.57,23.57,0,0,1-2.2,2.12,10.09,10.09,0,0,0,2.77,2.72,3.2,3.2,0,0,0-.78,1.1A9.78,9.78,0,0,1,172,153.9a10.56,10.56,0,0,1-1.82-3.49c.11,1.2.14,2,.16,2.69v1.84c0,.92-.42,1.22-1.65,1.22-.3,0-.91,0-1.17,0a3.59,3.59,0,0,0-.34-1.18,11.7,11.7,0,0,0,1.49.13c.42,0,.53-.07.53-.34v-6.05h-1.47c-.64,0-1.11,0-1.54.06,0-.4.07-.89.07-1.5v-2.66c0-.61,0-1.1-.07-1.52a11.94,11.94,0,0,0,1.52.06Zm-1.34,2.28h4.88v-1.3h-4.88Zm0,2.32h4.88v-1.35h-4.88Z"/><path class="cls-1" d="M214.63,142.62a12.87,12.87,0,0,0-.18,2c-.06,1.17-.16,5.05-.16,6.12a4.49,4.49,0,0,0,.45,2.59,2.69,2.69,0,0,0,2.34.95,4.47,4.47,0,0,0,4.11-2.79,9.12,9.12,0,0,0,.78-2.56,5.06,5.06,0,0,0,1.36.91,9.74,9.74,0,0,1-1.81,3.76,5.74,5.74,0,0,1-4.54,2,4.72,4.72,0,0,1-2.67-.68,3.36,3.36,0,0,1-1.19-1.72,8.35,8.35,0,0,1-.22-2.11c0-1,0-1.47.13-6.5,0-.46,0-.83,0-1.07a6.79,6.79,0,0,0,0-.9Z"/><path class="cls-1" d="M233.83,145.82c-.31.05-.37.05-1,.18a22.2,22.2,0,0,1-2.33.36v2.58a11.53,11.53,0,0,1,3.41-.54,5.5,5.5,0,0,1,2.86.7,3.41,3.41,0,0,1,1.65,2.93,3.33,3.33,0,0,1-3.38,3.41,2.41,2.41,0,0,1-2.51-1.81,6,6,0,0,1-.22-1.87,4.32,4.32,0,0,0,1.26-.51c0,.3,0,.43,0,.62a5,5,0,0,0,.19,1.49,1.35,1.35,0,0,0,1.35.82,2,2,0,0,0,2-2.15c0-1.52-1.27-2.48-3.25-2.48a10.25,10.25,0,0,0-3.32.61v3.37a4.08,4.08,0,0,1-.08,1.16,1.17,1.17,0,0,1-1.23.8,4.45,4.45,0,0,1-2.74-1.06,2.08,2.08,0,0,1-.78-1.6,3,3,0,0,1,1.3-2.19,8.65,8.65,0,0,1,2.27-1.33v-2.87l-.64,0a8,8,0,0,1-.9,0l-.94,0h-.67v-1.28a7.77,7.77,0,0,0,1.72.13c.37,0,.37,0,1.43-.05v-1.42a10.44,10.44,0,0,0-.1-1.62h1.44a10.36,10.36,0,0,0-.08,1.55v1.39a14.92,14.92,0,0,0,3.2-.65Zm-4.53,4.75c-1.49.76-2.32,1.57-2.32,2.28,0,.33.21.62.64.91a2.67,2.67,0,0,0,1.33.43c.28,0,.35-.13.35-.77Zm8.82-3.07a13.17,13.17,0,0,0-3.23-3.22l1-.73a13.64,13.64,0,0,1,3.22,3.1Z"/><path class="cls-1" d="M241.11,146.25c.57,0,2.17-.19,3.52-.4a23.22,23.22,0,0,0,.45-3.36v-.21l1.5.16a11.44,11.44,0,0,0-.29,1.49c-.08.43-.25,1.44-.33,1.83a8.19,8.19,0,0,1,1,0,3.07,3.07,0,0,1,2.31.72,3.41,3.41,0,0,1,.77,2.66c0,2.54-.44,4.68-1.13,5.6a1.79,1.79,0,0,1-1.63.73,6.35,6.35,0,0,1-2.41-.59,3.78,3.78,0,0,0,0-.54,5.07,5.07,0,0,0-.08-.9,6.3,6.3,0,0,0,2.35.72,1,1,0,0,0,.9-.72,12.53,12.53,0,0,0,.64-4.37c0-1.63-.45-2.14-1.88-2.14a9.06,9.06,0,0,0-1.08.06,29.82,29.82,0,0,1-2.36,6.69c-.22.45-.56,1.12-1,2L241,154.9a15.66,15.66,0,0,0,1.66-2.93,24.8,24.8,0,0,0,1.7-4.92,23.27,23.27,0,0,0-3.1.56Zm10.72-1.5a14.79,14.79,0,0,1,3.33,5.82l-1.27.68a13.27,13.27,0,0,0-3.21-5.93Z"/><path class="cls-1" d="M265.81,145a13.11,13.11,0,0,0-.09-2.11l1.44,0a8.4,8.4,0,0,0-.07,1.09v1.94c1.84-.05,2.77-.1,3.27-.16l0,1.36c-.4,0-.56,0-1,0l-2.35,0a13.2,13.2,0,0,1-.34,3.18,1.72,1.72,0,0,1-1.73,1.37,4.82,4.82,0,0,1-2.22-.69,5,5,0,0,0,0-.63,7.1,7.1,0,0,0,0-.73,4.55,4.55,0,0,0,2.08.84c.45,0,.62-.23.75-1a16,16,0,0,0,.18-2.32c-2.5.1-2.5.1-5.06.26v1.52a18,18,0,0,0,.19,3.9,1.37,1.37,0,0,0,1.07,1,9.69,9.69,0,0,0,2.42.24,14.61,14.61,0,0,0,4.47-.59l.12,1.49a5.38,5.38,0,0,0-.67.08,29.51,29.51,0,0,1-4.11.3c-2.47,0-3.78-.43-4.32-1.42-.39-.72-.48-1.48-.48-4.13v-2.29a28.54,28.54,0,0,0-3.14.32l-.11-1.35.39,0c.3,0,1-.05,2.86-.19v-.77a16.65,16.65,0,0,0-.09-2.59h1.55a17.41,17.41,0,0,0-.14,3.29c2.54-.16,2.54-.16,5.05-.25Zm2.53-3.25a10.55,10.55,0,0,1,1.31,2.52l-.91.35a10.79,10.79,0,0,0-1.29-2.55Zm1.84-.62a11.28,11.28,0,0,1,1.32,2.45l-.89.38a10.94,10.94,0,0,0-1.29-2.49Z"/><path class="cls-1" d="M272.93,146.7a11.31,11.31,0,0,0,2,.11h7.94a3.62,3.62,0,0,0,1.27-.12l.68.79a3.93,3.93,0,0,0-.44,1,10.92,10.92,0,0,1-3.86,5.37,14.31,14.31,0,0,1-3.92,1.93,4.06,4.06,0,0,0-.85-1.31,10.32,10.32,0,0,0,4.64-2.34,9.24,9.24,0,0,0,2.61-4.08H275a16.31,16.31,0,0,0-2,.08Zm1.38-3.75a8.52,8.52,0,0,0,1.84.12h5.2a9.09,9.09,0,0,0,1.84-.12v1.45a12.8,12.8,0,0,0-1.83-.08h-5.23a13.21,13.21,0,0,0-1.82.08Z"/><path class="cls-1" d="M299.37,143.32a7.14,7.14,0,0,0-.58.55,27,27,0,0,1-3.84,3.34v6.65a13.7,13.7,0,0,0,.08,1.88H293.4a10.68,10.68,0,0,0,.09-1.87v-5.76a25.1,25.1,0,0,1-6.05,2.74,3.82,3.82,0,0,0-.75-1.28,23,23,0,0,0,8.34-4.15,12.93,12.93,0,0,0,3-3Z"/><path class="cls-1" d="M302,153.63a14.55,14.55,0,0,0,4.69-1.2,12,12,0,0,0,6.48-7.12,4.13,4.13,0,0,0,1.19,1.1,13.91,13.91,0,0,1-4.95,6.16,16.36,16.36,0,0,1-6,2.41,8.76,8.76,0,0,0-1,.25Zm1.12-9.92a21.65,21.65,0,0,1,3.94,3l-1,1.2a17.91,17.91,0,0,0-3.9-3.17Z"/><path class="cls-1" d="M342.37,152.06a2.34,2.34,0,0,0,.91,1.46,3.35,3.35,0,0,0,2,.59c1.77,0,2.89-.91,2.89-2.37s-1.08-2.33-3.15-2.33a10.35,10.35,0,0,0-1.36.09V148a9.7,9.7,0,0,0,1.27.08,3.09,3.09,0,0,0,2.25-.71,2.1,2.1,0,0,0,.61-1.53c0-1.25-.91-2-2.46-2a2.38,2.38,0,0,0-2.05.83,2.58,2.58,0,0,0-.5,1.09l-1.6-.34a3.93,3.93,0,0,1,.94-1.71,4.46,4.46,0,0,1,3.29-1.17c2.4,0,3.95,1.27,3.95,3.22a2.81,2.81,0,0,1-1.12,2.35,3.42,3.42,0,0,1-1.51.58,3.29,3.29,0,0,1,2.28,1,3.06,3.06,0,0,1,.76,2.19,3.21,3.21,0,0,1-.92,2.3,5,5,0,0,1-3.56,1.2,4.73,4.73,0,0,1-3.73-1.36,4.38,4.38,0,0,1-.84-1.63Z"/><path class="cls-1" d="M353.46,154.22a4.19,4.19,0,0,1-1-1.5,10.81,10.81,0,0,1-.62-3.68,9.24,9.24,0,0,1,.94-4.37,4.09,4.09,0,0,1,3.73-2,4.17,4.17,0,0,1,3.06,1.18,4.31,4.31,0,0,1,1,1.51,10.78,10.78,0,0,1,.62,3.71,8.49,8.49,0,0,1-1.14,4.66,4.49,4.49,0,0,1-6.59.54Zm1.1-9.47a3.21,3.21,0,0,0-.7,1.18,10.22,10.22,0,0,0-.46,3.12,8.43,8.43,0,0,0,.73,3.7,2.64,2.64,0,0,0,2.39,1.35,2.58,2.58,0,0,0,1.9-.74,3.12,3.12,0,0,0,.75-1.26,9.67,9.67,0,0,0,.47-3.09,9,9,0,0,0-.69-3.64,2.58,2.58,0,0,0-2.45-1.44A2.43,2.43,0,0,0,354.56,144.75Z"/><path class="cls-1" d="M365.24,147.45a3.47,3.47,0,0,1-.12.72,3.9,3.9,0,0,1,2.79-1.09,3.78,3.78,0,0,1,4,4,4.1,4.1,0,0,1-4.46,4.33,4.41,4.41,0,0,1-3.22-1.18,4.67,4.67,0,0,1-1-1.57l1.57-.41a2.51,2.51,0,0,0,.5.94,2.86,2.86,0,0,0,2.17.9,2.75,2.75,0,0,0,2.9-2.95,2.6,2.6,0,0,0-2.83-2.82,3.09,3.09,0,0,0-2.18.92,1.59,1.59,0,0,0-.43.67l-1.43-.13a13.59,13.59,0,0,0,.23-1.67l.35-3.71a7.14,7.14,0,0,0,.06-1.09s0-.06,0-.56a10.49,10.49,0,0,0,1.71.08h3.46a11.07,11.07,0,0,0,2-.13v1.56a11.76,11.76,0,0,0-2-.13h-3.76Z"/><path class="cls-1" d="M375.84,149.09a13.33,13.33,0,0,0-1.69.09v-1.3a10.85,10.85,0,0,0,1.71.1h10.92a11.31,11.31,0,0,0,1.73-.1v1.3a13.58,13.58,0,0,0-1.73-.09h-7.33c-.28.65-.39.91-.71,1.53h5.91a14,14,0,0,0,1.73-.06c0,.14-.07.46-.13,1.09-.31,2.32-.67,3.61-1.15,4.08s-.92.51-2.05.51c-.79,0-1.59-.05-2.56-.13a3.79,3.79,0,0,0-.29-1.25,27.43,27.43,0,0,0,2.85.24c.73,0,1-.08,1.18-.38a9.12,9.12,0,0,0,.71-3h-6.76c-.25.43-.42.67-.85,1.34l-1.36-.27a15.35,15.35,0,0,0,2.13-3.66Zm.44-5.56a9.38,9.38,0,0,0-.07-1.23,17.48,17.48,0,0,0,1.81.08h6.6a12.9,12.9,0,0,0,1.8-.08,11.65,11.65,0,0,0-.06,1.23v2.08a11.5,11.5,0,0,0,.06,1.25,15.15,15.15,0,0,0-1.68-.06h-6.83a16.11,16.11,0,0,0-1.7.06,9.59,9.59,0,0,0,.07-1.25Zm1.21-.08v2.29h7.64v-2.29Z"/><path class="cls-1" d="M390.47,148.69a4,4,0,0,0,.62,0h.66c.6-.79.6-.79,1.05-1.43a18.63,18.63,0,0,0-2.33-2.43l.65-.93.72.72a10,10,0,0,0,1.46-3l1.15.45a5.4,5.4,0,0,0-.37.65,20.23,20.23,0,0,1-1.53,2.6c.37.43.51.59.86,1a15.55,15.55,0,0,0,1.57-2.8l1.09.56c-.43.64-.43.64-1.12,1.73-.51.8-1,1.54-2,2.77,1-.06,1.5-.11,2.26-.21a11.92,11.92,0,0,0-.56-1.31l.86-.37a17.22,17.22,0,0,1,1.09,2.91l-.91.44c-.08-.36-.13-.52-.18-.72a3,3,0,0,0-.48.06l-.9.1v5.23a9.12,9.12,0,0,0,.1,1.62H393a11.45,11.45,0,0,0,.1-1.64v-5.12l-1.73.11a5.62,5.62,0,0,0-.7.1Zm1.85,2.11a17,17,0,0,1-.83,4.74l-1-.52a14.59,14.59,0,0,0,.8-4.38Zm3.25-.23a23.58,23.58,0,0,1,.64,3.11l-.94.3a19.33,19.33,0,0,0-.56-3.15Zm4,0a6.82,6.82,0,0,0-.44,1.06,10,10,0,0,1-3,4.06,3,3,0,0,0-.8-.89,8,8,0,0,0,3-3.73h-.94a6.39,6.39,0,0,0-1.05.06V150a4.51,4.51,0,0,0,1.08.08h.89a3.9,3.9,0,0,0,.8-.05Zm-.21-7.48a6.17,6.17,0,0,0,.48-1.45l1.3.22c-.2.48-.34.82-.55,1.23h2a11.85,11.85,0,0,0,1.52-.06,12.88,12.88,0,0,0-.06,1.54v2.65a12.07,12.07,0,0,0,.06,1.49c-.45,0-.86-.06-1.5-.06H401a8.3,8.3,0,0,0,1,2.43,13.67,13.67,0,0,0,1.91-2l.83.76a24.86,24.86,0,0,1-2.19,2.12,10.06,10.06,0,0,0,2.76,2.72,3.34,3.34,0,0,0-.78,1.1,9.72,9.72,0,0,1-1.9-1.89,10.76,10.76,0,0,1-1.83-3.49c.11,1.2.14,2,.16,2.69v1.84c0,.92-.42,1.22-1.65,1.22-.3,0-.91,0-1.17,0a3.86,3.86,0,0,0-.33-1.18,11.41,11.41,0,0,0,1.49.13c.41,0,.52-.07.52-.34v-6.05h-1.47c-.64,0-1.1,0-1.54.06a15,15,0,0,0,.07-1.5v-2.66c0-.61,0-1.1-.07-1.52a12.12,12.12,0,0,0,1.53.06ZM398,145.39h4.89v-1.3H398Zm0,2.32h4.89v-1.35H398Z"/><line class="cls-2" x1="106.84" y1="37.34" x2="401.93" y2="37.34"/><line class="cls-2" x1="106.84" y1="84.39" x2="401.93" y2="84.39"/><line class="cls-2" x1="106.84" y1="135.85" x2="401.93" y2="135.85"/><circle class="cls-2" cx="105.62" cy="37.33" r="6.56"/><circle class="cls-2" cx="267.45" cy="37.33" r="6.56"/><circle class="cls-2" cx="105.62" cy="84.37" r="6.56"/><circle class="cls-2" cx="234.46" cy="84.37" r="6.56"/><circle class="cls-2" cx="312.65" cy="84.37" r="6.56"/><circle class="cls-2" cx="105.62" cy="135.84" r="6.56"/><circle class="cls-2" cx="199.03" cy="135.84" r="6.56"/><circle class="cls-2" cx="323.72" cy="135.84" r="6.56"/><rect class="cls-3" x="467.19" y="23.31" width="56.2" height="133.38"/><path class="cls-4" d="M502.85,41.68a8.05,8.05,0,0,0-.09-1.56h1.11a10.34,10.34,0,0,0-.08,1.56v.64h.75a7.55,7.55,0,0,0,1.43-.08v1a9.45,9.45,0,0,0-1.43-.08h-.75v2.13h1a7.61,7.61,0,0,0,1.49-.1v1.07a8.1,8.1,0,0,0-1.49-.1h-.92v2.1h.89a7.8,7.8,0,0,0,1.28-.08v1a6.52,6.52,0,0,0-1.3-.1h-.87v3.24A4.75,4.75,0,0,0,506,53c.95.1,2.38.14,3.74.14,1.69,0,3.33-.08,4.46-.2a3.35,3.35,0,0,0-.37,1.09c-.51,0-2.19.08-2.62.08a46.54,46.54,0,0,1-5-.12,5.44,5.44,0,0,1-3.52-1.42,6.37,6.37,0,0,1-1.31-1.62,12,12,0,0,1-1.2,3.45,2.75,2.75,0,0,0-.83-.59,11.16,11.16,0,0,0,1.45-5.89,2.85,2.85,0,0,0-.05-.64l1,.07c0,.27,0,.27-.07,1.2l-.13,1.29a6.69,6.69,0,0,0,1.4,1.84V46.19h-1.58a7.29,7.29,0,0,0-1.5.1V45.22a7.73,7.73,0,0,0,1.5.1h1.51V43.19h-1.27a9,9,0,0,0-1.38.08v-1a7.4,7.4,0,0,0,1.38.08h1.27Zm10.55,3.21a8,8,0,0,0-.27.76,15.22,15.22,0,0,1-1.49,3.43c.41,1,1.08,1.93,1.33,1.93s.41-.83.54-2a2.2,2.2,0,0,0,.76.57,7.78,7.78,0,0,1-.42,1.73c-.18.5-.45.78-.72.78a1.6,1.6,0,0,1-1.16-.73,7.46,7.46,0,0,1-.91-1.41,11.87,11.87,0,0,1-2.47,2.43,2.87,2.87,0,0,0-.69-.65A9.83,9.83,0,0,0,510.68,49a18.65,18.65,0,0,1-1-5.58h-2.13v6.07a19.65,19.65,0,0,0,2.05-1.24l.11.87a22,22,0,0,1-3.67,2.05l-.62.3-.37-.93a12.78,12.78,0,0,0,1.58-.59V44a11.29,11.29,0,0,0-.07-1.44,11.54,11.54,0,0,0,1.46.06h1.62a19.36,19.36,0,0,0-.09-2.51h1.08a7.71,7.71,0,0,0-.08,1.45c0,.32,0,.44,0,1.06h1.78a7.88,7.88,0,0,0,1.5-.08v1a9.32,9.32,0,0,0-1.5-.1h-1.74a18.37,18.37,0,0,0,.63,4.62,11.91,11.91,0,0,0,1.19-3.54Zm-1.51-4.75a8.44,8.44,0,0,1,1.49,1.57l-.66.56a8.2,8.2,0,0,0-1.48-1.64Z"/><path class="cls-4" d="M504.62,58.27a12.34,12.34,0,0,0-1.7-2.2l.95-.38a12.44,12.44,0,0,1,1.84,2.58H508a10.46,10.46,0,0,0,1.8-2.57l1,.38a17.48,17.48,0,0,1-1.72,2.19h3.26a10.74,10.74,0,0,0,1.58-.09v1.08a9.89,9.89,0,0,0-1.58-.1H501.5a10.55,10.55,0,0,0-1.59.1V58.18a7.72,7.72,0,0,0,1.59.09ZM502,68.57a10.9,10.9,0,0,0,.09,1.68h-1.16a12.6,12.6,0,0,0,.08-1.72V61.86c0-.77,0-1-.05-1.41a14.68,14.68,0,0,0,1.54.06H505a8.83,8.83,0,0,0,1.44-.06c0,.37-.05.78-.05,1.68v6.74c0,.95-.3,1.22-1.33,1.22-.33,0-.71,0-1.32-.06a4.78,4.78,0,0,0-.25-1,6.76,6.76,0,0,0,1.38.16c.46,0,.56-.08.56-.41V66.66H502Zm3.43-5.4V61.42H502v1.75Zm0,2.6V64.06H502v1.71Zm4.13-5.13a7.4,7.4,0,0,0-.08,1.49v3.23a10.74,10.74,0,0,0,.06,1.79h-1.11a12.86,12.86,0,0,0,.06-1.78V62.13a8.07,8.07,0,0,0-.08-1.49Zm3.41-.48a9.22,9.22,0,0,0-.09,1.72v6.88c0,1.11-.34,1.4-1.64,1.4-.54,0-1.06,0-1.86-.1a3.94,3.94,0,0,0-.3-1.06,12.79,12.79,0,0,0,2.05.2c.62,0,.73-.06.73-.47V61.85a8.34,8.34,0,0,0-.1-1.69Z"/><path class="cls-4" d="M500.06,76a15.28,15.28,0,0,1,2.59,2l-.69.76a10.52,10.52,0,0,0-2.52-2.05Zm2.74,5.14A27.68,27.68,0,0,1,501,85.62l-.27.52-.9-.71A16.2,16.2,0,0,0,502,80.49Zm-1.74-9.09a16.45,16.45,0,0,1,2.33,2.08l-.73.75a9.82,9.82,0,0,0-2.32-2.15Zm10.77,1.37a11.83,11.83,0,0,0,2.06-.1v1.07a16.16,16.16,0,0,0-2-.07h-6.26a13.59,13.59,0,0,1-2.06,2.89,2.86,2.86,0,0,0-.78-.73A9.2,9.2,0,0,0,505.2,73a4.73,4.73,0,0,0,.43-1.36l1.11.22c-.07.17-.07.17-.23.62-.12.3-.21.52-.42.94Zm-7,10.5c-.09.34-.14.5-.28,1l-1.08-.14a23.64,23.64,0,0,0,1.11-4.64h-.09a7.79,7.79,0,0,0-1.47.09V79.2a8.31,8.31,0,0,0,1.53.1h.16c.17-1.38.27-2.38.27-2.93,0,0,0-.18,0-.46.19,0,.65,0,1.13,0h5.05a14.6,14.6,0,0,0,1.65-.07,15.13,15.13,0,0,0-.14,2.4c0,.32,0,.53,0,1h.11a7,7,0,0,0,1.48-.1v1.08a11.54,11.54,0,0,0-1.48-.09h-.17a3.43,3.43,0,0,0,0,.44c0,.67-.13,1.48-.26,2.42h.18a5.22,5.22,0,0,0,1.25-.1v1a9.64,9.64,0,0,0-1.28-.06h-.29c-.32,1.84-.6,2.17-1.91,2.17-.36,0-.89,0-1.74-.09a2.67,2.67,0,0,0-.18-1,10,10,0,0,0,1.76.19c.81,0,.88-.08,1.12-1.25Zm.74-3.75c-.1.76-.21,1.32-.53,2.86h2.56c.28-1.56.28-1.56.43-2.86Zm2.57-.89c.11-1.1.11-1.21.17-2.5H506c-.08,1.08-.11,1.42-.24,2.5Zm.82.89c-.15,1.3-.15,1.3-.43,2.86h2.79c.11-.88.19-1.58.28-2.86Zm2.7-.89c0-.64.07-1.54.08-2.5h-2.49c-.08,1-.14,1.89-.19,2.5Z"/><path class="cls-4" d="M502.15,94.43a19.52,19.52,0,0,1-.58,5.38,8.31,8.31,0,0,1-1.12,2.31,3.91,3.91,0,0,0-.82-.8c1.19-1.6,1.54-3.14,1.54-7a17.5,17.5,0,0,0-.08-2,15.28,15.28,0,0,0,1.84.08H512a8.21,8.21,0,0,0,1.7-.1v1.08a12.36,12.36,0,0,0-1.7-.08h-9.85Zm4.4-5.59a5.89,5.89,0,0,0-.09-1.1h1.17a5.36,5.36,0,0,0-.08,1.07v1.38H512v-1a9,9,0,0,0-.07-1H513a5.07,5.07,0,0,0-.07,1v1.06a7.78,7.78,0,0,0,0,.87l-1.11,0h-9.49l-1,0c0-.36,0-.54,0-.84V89.16a6.61,6.61,0,0,0-.08-1h1.09a9.46,9.46,0,0,0,0,1v1h4.17Zm-1.82,6.91a8.09,8.09,0,0,0-1.45.08v-1a8,8,0,0,0,1.45.08h6.61a7.67,7.67,0,0,0,1.41-.08v1a8,8,0,0,0-1.41-.08h-3.07v1.92h4a9.56,9.56,0,0,0,1.61-.1v1.08a11.3,11.3,0,0,0-1.61-.09h-4v2.27a7.81,7.81,0,0,0,.09,1.43h-1.2a8.5,8.5,0,0,0,.09-1.43V98.56h-3.09a11.7,11.7,0,0,0-1.61.09V97.57a9.48,9.48,0,0,0,1.61.1h3.09V95.75Z"/><path class="cls-4" d="M481.25,45.24A10.85,10.85,0,0,1,484.67,43a10.39,10.39,0,0,1,7.8,0,10.71,10.71,0,0,1,3.41,2.21v1.42a9.93,9.93,0,0,0-3.27-2.42,9.92,9.92,0,0,0-8.08,0,10.06,10.06,0,0,0-3.28,2.42Z"/><path class="cls-4" d="M486.75,56.26a7.47,7.47,0,0,1-1,3.59,6.91,6.91,0,0,1-2.89,2.49,3.71,3.71,0,0,0-.76-.89,5.5,5.5,0,0,0,2.81-2.16,5.87,5.87,0,0,0,.82-3h-2.51a11.4,11.4,0,0,0-1.63.1V55.24a10.32,10.32,0,0,0,1.63.1h2.56c0-.35,0-.45,0-.75a5.94,5.94,0,0,0-.1-1.46h1.23a8,8,0,0,0-.1,1.41c0,.27,0,.45,0,.8h3.68v-1a8.52,8.52,0,0,0-.09-1.29h1.22a8.06,8.06,0,0,0-.09,1.31v1H494a10.37,10.37,0,0,0,1.64-.1v1.12a10.46,10.46,0,0,0-1.64-.1h-2.49v4.32a10.77,10.77,0,0,0,.11,1.68h-1.26a11.29,11.29,0,0,0,.11-1.68V56.26Zm-1.94-4.62A14.08,14.08,0,0,0,486.94,48l1.15.37c-.72,1.2-1.64,2.65-2.1,3.29,3.21-.1,4.11-.16,6.29-.4a21.83,21.83,0,0,0-2.15-1.7l.81-.54a24.23,24.23,0,0,1,4.13,3.64l-.84.66c-.54-.63-.71-.82-1.13-1.25-.39,0-1.92.17-4.57.38-1.21.08-3,.16-5,.21a6,6,0,0,0-1.08.06l-.21-1.1c.51,0,1.23.07,2.13.07h.46Z"/><path class="cls-4" d="M493.28,74.52c-.26.21-.26.21-.6.51a12,12,0,0,1-2.1,1.41,21.27,21.27,0,0,0,5.37.91,3.5,3.5,0,0,0-.45,1A21.17,21.17,0,0,1,489.55,77a21,21,0,0,1-6,1.35,3.13,3.13,0,0,0-.47-.9,20.19,20.19,0,0,0,5.43-1A8.87,8.87,0,0,1,486.59,75a12.71,12.71,0,0,1-2.4,1.53,2.48,2.48,0,0,0-.63-.7,9.76,9.76,0,0,0,2.73-1.57,5.79,5.79,0,0,0,1-1c-.62-.09-.77-.24-.77-.76V70.55H483.4c0,.25,0,.25,0,.84a21.34,21.34,0,0,1-.63,4.65,11.69,11.69,0,0,1-.86,2.09,2.53,2.53,0,0,0-.79-.77c1.11-1.78,1.44-4.08,1.44-10.29,0-.38,0-.86,0-1.25a7.78,7.78,0,0,0-.07-1.13,13.58,13.58,0,0,0,1.75.08h4.19a4.43,4.43,0,0,0-.08-1h1.18a4.09,4.09,0,0,0-.1,1H494a8.57,8.57,0,0,0,1.62-.1v1a9.21,9.21,0,0,0-1.51-.08h-3v.94h2.43c.62,0,1,0,1.32,0a4.14,4.14,0,0,0,0,.78v1a4.19,4.19,0,0,0,0,.78c-.35,0-.74-.05-1.32-.05H483.45l0,.81h10.31a11.34,11.34,0,0,0,1.35,0l.54.44a3.06,3.06,0,0,0-.31.49,7.57,7.57,0,0,1-.75,1.11,3.54,3.54,0,0,0-.81-.38,3.8,3.8,0,0,0,.65-.87h-7v1.67c0,.19.06.23.33.28s1,0,1.73,0a4.76,4.76,0,0,0,1.92-.17c.13-.11.2-.39.24-1a2.29,2.29,0,0,0,.88.34c-.08.73-.24,1.13-.53,1.3a5.38,5.38,0,0,1-2.32.26c-.28,0-1.09,0-1.39,0-.42.49-.48.56-.66.75h3.74a6.56,6.56,0,0,0,1.24-.07Zm-6.8-7.31h-3a3.91,3.91,0,0,1,0,.43,5,5,0,0,1,0,.64h3Zm0-1.65h-3v.94h3Zm-2.78,7.58A4.41,4.41,0,0,0,485.1,71l.78.38a7.21,7.21,0,0,1-1.5,2.37Zm6.58-7.58h-2.91v.94h2.91Zm0,2.72V67.21h-2.91v1.07Zm-2.88,6.41a8.12,8.12,0,0,0,2.11,1.37,11.59,11.59,0,0,0,2.31-1.37Zm2.72-2.36a7.73,7.73,0,0,0-2-1.13l.53-.49a9.5,9.5,0,0,1,2,1Zm3.87-4V67.21h-2.82v1.07Zm.23,5.46a10.54,10.54,0,0,0-1.86-2.27L493,71A15.13,15.13,0,0,1,495,73.17Z"/><path class="cls-4" d="M487.88,87.84c-.92,2.1-1.86,3-3,3-1.51,0-2.64-1.65-2.64-3.87a6.45,6.45,0,0,1,6.8-6.5,6.15,6.15,0,0,1,4.37,1.57A5.32,5.32,0,0,1,495,86a5.8,5.8,0,0,1-3.64,5.48,12.42,12.42,0,0,1-2.42.73,2.42,2.42,0,0,0-.55-1.07,9.41,9.41,0,0,0,2.65-.74,4.8,4.8,0,0,0,2.81-4.45,4.2,4.2,0,0,0-2.52-4,4.81,4.81,0,0,0-1.85-.4A23.71,23.71,0,0,1,487.88,87.84Zm-2-5.54A5.49,5.49,0,0,0,483.34,87c0,1.53.66,2.7,1.52,2.7.67,0,1.3-.75,2-2.3a21.65,21.65,0,0,0,1.44-5.88A5,5,0,0,0,485.92,82.3Z"/><path class="cls-4" d="M481.84,98.14a15.78,15.78,0,0,1,2.75,2.08l-.6.88a12.31,12.31,0,0,0-2.75-2.21Zm2.81,5.18a23.46,23.46,0,0,1-2,4.26c-.05.1-.17.32-.35.63l-.92-.82a13.61,13.61,0,0,0,2.48-4.67Zm-2-9a14,14,0,0,1,2.52,2.08l-.63.83A11.65,11.65,0,0,0,482,95Zm10.67,2.48a8.78,8.78,0,0,0,1.62-.1v1.08a16,16,0,0,0-1.62-.08h-2.57v2.82h3.49a9.38,9.38,0,0,0,1.45-.1v1.1a8.11,8.11,0,0,0-1.43-.1H492v5.48c0,.33.19.4,1.12.4s1.34-.07,1.51-.27a6.28,6.28,0,0,0,.31-2.34,3.21,3.21,0,0,0,1,.4c-.17,2.89-.39,3.14-2.76,3.14-1.72,0-2.13-.2-2.13-1v-5.8H489.1a11.49,11.49,0,0,1-.35,2.64,6.41,6.41,0,0,1-1.89,3,7.33,7.33,0,0,1-2,1.22,3.44,3.44,0,0,0-.74-.89,5.36,5.36,0,0,0,3-2.23,7.68,7.68,0,0,0,1-3.77h-1.37a9.9,9.9,0,0,0-1.55.1v-1.1a10.2,10.2,0,0,0,1.52.1h3.07V97.68h-2.53a12.08,12.08,0,0,1-1.51,2.31,3.48,3.48,0,0,0-.79-.67,7.93,7.93,0,0,0,1.6-2.29,7.8,7.8,0,0,0,.77-2.36l1,.27a5.29,5.29,0,0,0-.22.63c-.15.43-.21.57-.46,1.21h2.11v-1a8.81,8.81,0,0,0-.1-1.57h1.16a11.16,11.16,0,0,0-.09,1.57v1Z"/><path class="cls-4" d="M482,114.1a14.73,14.73,0,0,1,2.57,1.91l-.6.84a11,11,0,0,0-2.58-2Zm2.55,5.1a20.51,20.51,0,0,1-1.65,4.29c-.19.36-.22.44-.32.65l-.93-.79a3.3,3.3,0,0,0,.74-1.13,16.43,16.43,0,0,0,1.34-3.59Zm-1.85-9a14.4,14.4,0,0,1,2.44,2.09l-.66.74a10.25,10.25,0,0,0-2.44-2.13Zm10.59,8.57a9.5,9.5,0,0,0,1.48-.07v.91a10.87,10.87,0,0,0-1.48-.07h-2v1.2h2a9.42,9.42,0,0,0,1.48-.07v.91a10.49,10.49,0,0,0-1.48-.07h-2v1.29H494a9.17,9.17,0,0,0,1.54-.08v1a14.76,14.76,0,0,0-1.61-.08h-6.75v.73h-1a10.44,10.44,0,0,0,.11-1.67v-2.6c0-.3,0-.67,0-.91s0-.38,0-.62a5.33,5.33,0,0,1-1,1.07,2,2,0,0,0-.67-.65,7.2,7.2,0,0,0,1.76-1.72,5.91,5.91,0,0,0,1-1.9l.91.34a12,12,0,0,1-.62,1.1h2.9a6,6,0,0,0,.83-1.44l.89.33a12.51,12.51,0,0,1-.73,1.11h2.24a8.18,8.18,0,0,0,1.44-.08v.94a12.22,12.22,0,0,0-1.46-.06h-2.43v1.19ZM489,111.32h-2.32a9.47,9.47,0,0,0-1.16.06v-.9a8.75,8.75,0,0,0,1.24.06h2.07a7.34,7.34,0,0,0,1.09-.05,10.75,10.75,0,0,0,0,1.21V114a10.63,10.63,0,0,0,0,1.2c-.49,0-.67,0-1.06,0h-2.19a9.59,9.59,0,0,0-1.18.06v-.87a7.47,7.47,0,0,0,1.19.06H489v-1.22h-2.14a9.71,9.71,0,0,0-1.18.06v-.87a7.79,7.79,0,0,0,1.18.06H489Zm1.48,7.47V117.6h-3.31v1.19Zm-3.31,2h3.31v-1.2h-3.31Zm0,2.06h3.31v-1.29h-3.31Zm7-11.5h-2.35a11,11,0,0,0-1.21.06v-.9a9.89,9.89,0,0,0,1.29.06H494a7.8,7.8,0,0,0,1.13-.05,10,10,0,0,0-.06,1.23V114c0,.52,0,.87,0,1.24-.47,0-.68,0-1.09,0h-2.26a9.68,9.68,0,0,0-1.21.06v-.87a8.14,8.14,0,0,0,1.21.06h2.4v-1.22h-2.24a9.58,9.58,0,0,0-1.16.06v-.87a7.66,7.66,0,0,0,1.16.06h2.24Z"/><path class="cls-4" d="M483.45,132.47a13.45,13.45,0,0,0-1.81.08v-1.13a9.92,9.92,0,0,0,1.81.1H493.9a11,11,0,0,0,1.81-.1v1.13a14.05,14.05,0,0,0-1.8-.08h-6.46a10.94,10.94,0,0,1-1.48,2.21h6.51a8.49,8.49,0,0,0,1.48-.08,11.69,11.69,0,0,0-.08,1.46v2.67a9.81,9.81,0,0,0,.1,1.49h-1.13v-.76h-7.34v.75h-1.13a8.88,8.88,0,0,0,.1-1.46v-2.56a15,15,0,0,1-2.53,1.73,2.78,2.78,0,0,0-.63-.94,11.22,11.22,0,0,0,3.51-2.47,8.13,8.13,0,0,0,1.49-2Zm4.54-5.21a8,8,0,0,0-.11-1.46h1.21a8.72,8.72,0,0,0-.1,1.46v1.64h4.21v-1.16a5.8,5.8,0,0,0-.1-1.11h1.18a8.09,8.09,0,0,0-.08,1.12v1.08a6.51,6.51,0,0,0,.06,1c-.44,0-.9,0-1.52,0h-8.29c-.65,0-1,0-1.51,0,0-.32.05-.62.05-1v-1.08a6.54,6.54,0,0,0-.1-1.14h1.18a5.37,5.37,0,0,0-.08,1.09v1.18h4Zm-2.49,11.26h7.35v-2.9H485.5Z"/><path class="cls-4" d="M481.25,141.6a10,10,0,0,0,3.28,2.41,9.92,9.92,0,0,0,8.08,0,9.88,9.88,0,0,0,3.27-2.41V143a10.54,10.54,0,0,1-3.41,2.21,10.39,10.39,0,0,1-7.8,0,10.67,10.67,0,0,1-3.42-2.21Z"/><path class="cls-5" d="M424.37,31.18a2.47,2.47,0,0,0-2.53-1.84,3,3,0,0,0-2.85,2,8.75,8.75,0,0,0-.71,3.45,3.63,3.63,0,0,1,.88-1,4.41,4.41,0,0,1,7.14,3.36,4.26,4.26,0,0,1-4.54,4.44,4.84,4.84,0,0,1-3.21-1.08c-1.13-1-1.78-3-1.78-5.39a9.17,9.17,0,0,1,1.31-5.18A4.42,4.42,0,0,1,421.89,28,4.27,4.27,0,0,1,425,29.11a5,5,0,0,1,1,1.62Zm-5.75,6a3.11,3.11,0,0,0,5.66,1.73,3.41,3.41,0,0,0,.43-1.73,2.73,2.73,0,0,0-2.92-3A3,3,0,0,0,418.62,37.13Z"/><path class="cls-5" d="M429.65,40.29a4.34,4.34,0,0,1-1-1.6,11.24,11.24,0,0,1-.66-3.9,9.69,9.69,0,0,1,1-4.62,4.33,4.33,0,0,1,4-2.17,4.37,4.37,0,0,1,4.27,2.84,11.31,11.31,0,0,1,.66,3.94,9.09,9.09,0,0,1-1.2,4.93,4.79,4.79,0,0,1-7,.58Zm1.17-10a3.27,3.27,0,0,0-.74,1.26,10.69,10.69,0,0,0-.49,3.3,8.86,8.86,0,0,0,.78,3.92,2.77,2.77,0,0,0,2.52,1.42,2.74,2.74,0,0,0,2-.78,3.5,3.5,0,0,0,.8-1.34,10.1,10.1,0,0,0,.49-3.27,9.55,9.55,0,0,0-.73-3.85,2.73,2.73,0,0,0-2.6-1.52A2.58,2.58,0,0,0,430.82,30.25Z"/><path class="cls-5" d="M445.89,27.79a5.06,5.06,0,0,0-.47.87,17.22,17.22,0,0,1-5.34,6.44,4.53,4.53,0,0,0-1-1.14A13.63,13.63,0,0,0,443.7,29a6,6,0,0,0,.7-1.76Zm-1.81,6.63a11.37,11.37,0,0,0-1.66.1V33.13a15.35,15.35,0,0,0,1.66.09h5.78a12.36,12.36,0,0,0,1.78-.09,6.74,6.74,0,0,0-.05,1.24c0,3.49-.33,6.17-.77,7-.3.58-.76.76-1.89.76-.51,0-1.09,0-2.09-.11a6.28,6.28,0,0,0-.34-1.43,11.7,11.7,0,0,0,2.31.27c.73,0,.84-.1,1-1a29.69,29.69,0,0,0,.39-5.46h-3.76a10.74,10.74,0,0,1-.24,1.71c-.66,2.87-2.32,4.87-5.37,6.41a4.58,4.58,0,0,0-.89-1.15,8.39,8.39,0,0,0,4.23-3.61,7.84,7.84,0,0,0,.91-3.36Zm5.47-7.12a6.17,6.17,0,0,0,.66,1.44,14,14,0,0,0,4.9,5.17,5.72,5.72,0,0,0-.93,1.26,17.1,17.1,0,0,1-5.59-6.63c-.14-.27-.28-.53-.38-.7Z"/><path class="cls-5" d="M424.37,83a2.47,2.47,0,0,0-2.53-1.85,3,3,0,0,0-2.85,2,8.84,8.84,0,0,0-.71,3.46,3.38,3.38,0,0,1,.88-1,4.41,4.41,0,0,1,7.14,3.36,4.26,4.26,0,0,1-4.54,4.44,4.79,4.79,0,0,1-3.21-1.09c-1.13-1-1.78-3-1.78-5.39a9.11,9.11,0,0,1,1.31-5.17,4.41,4.41,0,0,1,3.81-1.9A4.24,4.24,0,0,1,425,80.9a5.08,5.08,0,0,1,1,1.61Zm-5.75,6a3,3,0,0,0,3.09,3,3,3,0,0,0,2.57-1.32,3.41,3.41,0,0,0,.43-1.73,2.74,2.74,0,0,0-2.92-3A3,3,0,0,0,418.62,88.92Z"/><path class="cls-5" d="M429.65,92.07a4.23,4.23,0,0,1-1-1.59,11.33,11.33,0,0,1-.66-3.9A9.76,9.76,0,0,1,429,82a4.35,4.35,0,0,1,4-2.17,4.39,4.39,0,0,1,4.27,2.85,11.29,11.29,0,0,1,.66,3.93,9.13,9.13,0,0,1-1.2,4.94,4.77,4.77,0,0,1-7,.57Zm1.17-10a3.31,3.31,0,0,0-.74,1.25,10.7,10.7,0,0,0-.49,3.31,8.82,8.82,0,0,0,.78,3.91,2.78,2.78,0,0,0,2.52,1.43,2.74,2.74,0,0,0,2-.78,3.58,3.58,0,0,0,.8-1.34,10.19,10.19,0,0,0,.49-3.27,9.55,9.55,0,0,0-.73-3.85,2.74,2.74,0,0,0-2.6-1.53A2.55,2.55,0,0,0,430.82,82Z"/><path class="cls-5" d="M445.89,79.58a5.28,5.28,0,0,0-.47.86,17.07,17.07,0,0,1-5.34,6.44,4.68,4.68,0,0,0-1-1.13,13.63,13.63,0,0,0,4.59-4.93,6.11,6.11,0,0,0,.7-1.77Zm-1.81,6.63a11.37,11.37,0,0,0-1.66.1V84.92a15.62,15.62,0,0,0,1.66.08h5.78a12.59,12.59,0,0,0,1.78-.08,6.68,6.68,0,0,0-.05,1.24c0,3.49-.33,6.17-.77,7-.3.57-.76.76-1.89.76-.51,0-1.09,0-2.09-.12a6.2,6.2,0,0,0-.34-1.42,12.51,12.51,0,0,0,2.31.27c.73,0,.84-.1,1-1a29.77,29.77,0,0,0,.39-5.46h-3.76a10.74,10.74,0,0,1-.24,1.71c-.66,2.86-2.32,4.86-5.37,6.41a4.41,4.41,0,0,0-.89-1.15,8.46,8.46,0,0,0,4.23-3.62,7.76,7.76,0,0,0,.91-3.35Zm5.47-7.12a6.56,6.56,0,0,0,.66,1.44,14,14,0,0,0,4.9,5.17,5.41,5.41,0,0,0-.93,1.25,17.1,17.1,0,0,1-5.59-6.63c-.14-.27-.28-.52-.38-.69Z"/><path class="cls-5" d="M418.54,142.33a2.74,2.74,0,0,0,.57,1,2.8,2.8,0,0,0,2.09.76,2.85,2.85,0,0,0,2.66-1.53,6.28,6.28,0,0,0,.71-2.13c.05-.37.1-1,.14-1.77a3,3,0,0,1-.75.95,4.14,4.14,0,0,1-3,1.07,4,4,0,0,1-4.33-4.22c0-2.76,1.87-4.56,4.75-4.56a4.38,4.38,0,0,1,4,2.25,8.61,8.61,0,0,1,.8,4.14c0,2.54-.53,4.49-1.51,5.66a4.32,4.32,0,0,1-3.54,1.5,4.49,4.49,0,0,1-2.94-.9,4.44,4.44,0,0,1-1.28-1.78Zm5.81-6a3,3,0,0,0-3.08-3.06,3,3,0,0,0-2.17.88,2.9,2.9,0,0,0-.85,2.2,2.77,2.77,0,0,0,2.91,3A3,3,0,0,0,424.35,136.37Z"/><path class="cls-5" d="M429.65,144.27a4.23,4.23,0,0,1-1-1.59,11.28,11.28,0,0,1-.66-3.9,9.76,9.76,0,0,1,1-4.63,4.35,4.35,0,0,1,4-2.17,4.47,4.47,0,0,1,3.24,1.26,4.39,4.39,0,0,1,1,1.59,11.31,11.31,0,0,1,.66,3.94,9.09,9.09,0,0,1-1.2,4.93,4.77,4.77,0,0,1-7,.57Zm1.17-10a3.31,3.31,0,0,0-.74,1.25,10.8,10.8,0,0,0-.49,3.31,8.78,8.78,0,0,0,.78,3.91,2.78,2.78,0,0,0,2.52,1.43,2.74,2.74,0,0,0,2-.78,3.5,3.5,0,0,0,.8-1.34,10.14,10.14,0,0,0,.49-3.27,9.55,9.55,0,0,0-.73-3.85,2.74,2.74,0,0,0-2.6-1.53A2.58,2.58,0,0,0,430.82,134.24Z"/><path class="cls-5" d="M445.89,131.78a5.06,5.06,0,0,0-.47.87,17.22,17.22,0,0,1-5.34,6.44,4.53,4.53,0,0,0-1-1.14A13.63,13.63,0,0,0,443.7,133a6,6,0,0,0,.7-1.76Zm-1.81,6.63a11.37,11.37,0,0,0-1.66.1v-1.39a15.35,15.35,0,0,0,1.66.09h5.78a12.36,12.36,0,0,0,1.78-.09,6.68,6.68,0,0,0-.05,1.24c0,3.49-.33,6.17-.77,7-.3.58-.76.76-1.89.76-.51,0-1.09,0-2.09-.12a6.33,6.33,0,0,0-.34-1.42,11.7,11.7,0,0,0,2.31.27c.73,0,.84-.1,1-1a29.69,29.69,0,0,0,.39-5.46h-3.76a10.74,10.74,0,0,1-.24,1.71c-.66,2.87-2.32,4.87-5.37,6.41a4.58,4.58,0,0,0-.89-1.15,8.44,8.44,0,0,0,4.23-3.61,7.84,7.84,0,0,0,.91-3.36Zm5.47-7.12a6.17,6.17,0,0,0,.66,1.44,14,14,0,0,0,4.9,5.17,5.72,5.72,0,0,0-.93,1.26,17.18,17.18,0,0,1-5.59-6.63c-.14-.27-.28-.53-.38-.7Z"/><rect class="cls-6" width="540" height="180"/></g></g></svg>