<?xml version="1.0" encoding="utf-8"?>
<!-- Generator: Adobe Illustrator 25.4.1, SVG Export Plug-In . SVG Version: 6.00 Build 0)  -->
<svg version="1.1" id="レイヤー_1" xmlns="http://www.w3.org/2000/svg" xmlns:xlink="http://www.w3.org/1999/xlink" x="0px"
	 y="0px" viewBox="0 0 1081.9 185.5" style="enable-background:new 0 0 1081.9 185.5;" xml:space="preserve">
<style type="text/css">
	.st0{fill:none;stroke:#4D4D4D;stroke-width:0.75;stroke-miterlimit:10;}
	.st1{fill:#36AFD9;}
	.st2{enable-background:new    ;}
	.st3{fill:#3D3A39;}
	.st4{fill:#37BCEE;}
	.st5{fill:none;stroke:#37BCEE;stroke-width:9.15;stroke-miterlimit:10;}
	.st6{fill:#FFFFFF;}
	.st7{fill:none;stroke:#FFFFFF;stroke-width:3.42;stroke-miterlimit:10;}
	.st8{fill:none;stroke:#37BCEE;stroke-width:8.415;stroke-miterlimit:9.9;}
	.st9{fill:none;stroke:#FFFFFF;stroke-width:2.4651;stroke-miterlimit:9.9;}
	.st10{fill:#B2CD72;stroke:#B2CD72;stroke-width:5.32;stroke-miterlimit:10;}
	.st11{fill:none;stroke:#B2CD72;stroke-width:10.06;stroke-miterlimit:10;}
	.st12{fill:#37BCEE;stroke:#37BCEE;stroke-width:5.32;stroke-miterlimit:10;}
	.st13{fill:none;stroke:#37BCEE;stroke-width:10.06;stroke-linecap:round;stroke-miterlimit:10;}
</style>
<g id="レイヤー_2_00000023991090642954052890000016529945662625099918_">
	<g id="レイヤー_6">
		<path class="st0" d="M10.4,0.4h1061.2c5.5,0,10,4.5,10,10v164.7c0,5.5-4.5,10-10,10H10.4c-5.5,0-10-4.5-10-10V10.4
			C0.4,4.9,4.9,0.4,10.4,0.4z"/>
		<path class="st1" d="M1045.3,85.5c-1.3-1-2.4-0.4-2.4,1.2V100c0,1.6,1.1,2.2,2.4,1.2l8.3-6.1c1-0.5,1.3-1.8,0.8-2.7
			c-0.2-0.3-0.5-0.6-0.8-0.8L1045.3,85.5z"/>
		<g class="st2">
			<path class="st3" d="M308.7,55.5l-0.7,4.4c-0.1,0.7-0.8,1.1-1.5,1.1s-1.3-0.4-1.2-1.1l0.7-4.4l0.8-4.5c-2.6,2.9-6,5.4-9.5,7.3
				c-0.3,0.2-0.5,0.2-0.8,0.2c-0.7,0-1.2-0.6-1-1.3c0.1-0.4,0.3-0.8,0.9-1.1c3.3-1.8,6.6-4.2,9.3-7.2h-7.4c-0.7,0-0.9-0.6-0.8-1.2
				c0.1-0.6,0.5-1.2,1.2-1.2h8.7l0.5-2.9h-6.8c-0.7,0-0.9-0.6-0.8-1.2c0.1-0.6,0.5-1.2,1.2-1.2h6.8l0.5-3.2c0.1-0.7,0.8-1,1.5-1
				s1.3,0.3,1.2,1l-0.5,3.2h7c0.7,0,0.9,0.6,0.8,1.2c-0.1,0.6-0.5,1.2-1.2,1.2h-7l-0.5,2.9h8.9c0.7,0,0.9,0.6,0.8,1.2
				c-0.1,0.6-0.5,1.2-1.2,1.2h-7.8c1.9,2.9,4.5,5.1,7.3,6.5c0.6,0.3,0.8,0.8,0.7,1.3c-0.1,0.7-0.8,1.4-1.6,1.4
				c-0.2,0-0.5-0.1-0.7-0.2c-2.9-1.6-5.6-4.2-7.2-7.1L308.7,55.5z"/>
			<path class="st3" d="M338.6,56.2L338,60c-0.1,0.7-0.8,1.1-1.5,1.1s-1.3-0.4-1.2-1.1l0.6-3.8l0.7-3.7c-2.6,2.6-5.9,5-9.4,6.7
				c-0.3,0.2-0.6,0.2-0.8,0.2c-0.7,0-1.2-0.6-1-1.3c0.1-0.4,0.4-0.8,0.9-1.1c3.3-1.6,6.4-3.7,9-6.3h-7.2c-0.7,0-0.9-0.6-0.8-1.2
				c0.1-0.6,0.5-1.2,1.2-1.2h8.7l0.9-5.7h-7.7c-0.7,0-0.9-0.6-0.8-1.2c0.1-0.6,0.5-1.2,1.2-1.2h7.7l0.4-2.2c0.1-0.7,0.8-1,1.5-1
				s1.3,0.3,1.2,1l-0.4,2.2h7.6c0.7,0,0.9,0.6,0.8,1.2c-0.1,0.6-0.5,1.2-1.2,1.2h-7.6l-0.9,5.7h8.8c0.7,0,0.9,0.6,0.8,1.2
				c-0.1,0.6-0.5,1.2-1.2,1.2h-7.5c1.9,2.6,4.5,4.4,7.3,5.7c0.6,0.3,0.8,0.8,0.7,1.3c-0.1,0.7-0.8,1.4-1.6,1.4c-0.2,0-0.4,0-0.7-0.2
				c-3-1.6-5.8-4-7.3-6.6L338.6,56.2z M335.6,45.7c0.1,0.3,0.2,0.6,0.1,0.9c-0.1,0.8-0.9,1.3-1.6,1.3c-0.5,0-0.9-0.3-1.1-0.8
				c-0.3-0.8-0.4-1.1-0.8-1.8c-0.2-0.3-0.2-0.6-0.2-0.8c0.1-0.7,0.8-1.2,1.5-1.2c0.4,0,0.8,0.2,1.1,0.6
				C335.1,44.5,335.3,45,335.6,45.7z M345.2,43.1c0.7,0,1.2,0.5,1.1,1.2c0,0.2-0.1,0.4-0.3,0.7c-0.6,0.9-1.2,1.6-1.8,2.3
				c-0.4,0.4-0.8,0.6-1.2,0.6c-0.7,0-1.2-0.5-1.1-1.2c0-0.3,0.2-0.5,0.4-0.8c0.6-0.6,1.1-1.3,1.6-2.1
				C344.3,43.3,344.8,43.1,345.2,43.1z"/>
			<path class="st3" d="M363,39.5c0.8,0,1.5,0.5,1.2,1.6c-1.5,4.1-2.4,7.5-2.9,11.1c-0.3,1.8-0.5,4.2-0.5,5.9c0,1-0.9,1.5-1.7,1.5
				c-0.7,0-1.3-0.4-1.3-1.2c0-1.6,0.2-4.1,0.6-6.2c0.6-3.7,1.5-7.1,3-11.6C361.7,39.8,362.4,39.5,363,39.5z M371.9,54.9
				c1.1,0,2.5-0.1,3.8-0.4c1.1-0.2,1.5,0.6,1.4,1.4c-0.1,0.6-0.5,1.2-1.3,1.3c-1.5,0.3-3,0.4-4.4,0.4c-4.6,0-6.3-1.4-6.1-4.4
				c0.1-1,0.9-1.5,1.7-1.5c0.6,0,1.1,0.4,1.1,1.1C368.1,54.3,368.8,54.9,371.9,54.9z M377.8,43c-0.1,0.6-0.6,1.3-1.5,1.4
				c-2.3,0.3-4.8,0.5-7.2,0.6c-1,0-1.3-0.7-1.2-1.4c0.1-0.7,0.7-1.3,1.6-1.4c2.3,0,4.7-0.2,7-0.6C377.4,41.6,377.9,42.3,377.8,43z"
				/>
			<path class="st3" d="M400.4,40.6c2-0.1,2.8,0.8,2.6,2.2c-0.1,0.4-0.2,0.9-0.5,1.4c-1.1,2.1-2.6,4.1-4.4,6
				c2.1,1.6,4.3,3.9,5.8,5.9c0.3,0.4,0.4,0.8,0.3,1.1c-0.1,0.8-1,1.5-1.8,1.5c-0.4,0-0.8-0.2-1.1-0.6c-1.2-1.9-3.2-4.2-5.2-5.9
				c-2.9,2.6-6.1,4.8-9.2,6.2c-0.3,0.1-0.5,0.2-0.8,0.2c-0.9,0-1.3-0.7-1.2-1.5c0.1-0.5,0.4-1,1.1-1.3c5.6-2.6,10.7-6.9,13.5-11.7
				c0.1-0.2,0.1-0.3,0.2-0.4c0-0.2-0.1-0.3-0.6-0.3l-9,0.2c-0.8,0-1.1-0.7-1-1.4c0.1-0.7,0.7-1.4,1.5-1.4L400.4,40.6z"/>
			<path class="st3" d="M422.7,47.8c-2.3,1.7-4.8,3.1-7,4.2c-0.3,0.2-0.6,0.2-0.9,0.2c-0.8,0-1.3-0.7-1.2-1.4
				c0.1-0.5,0.4-1.1,1.2-1.4c4.9-2.4,10.1-6.2,13.8-10.3c0.4-0.5,0.9-0.7,1.4-0.7c0.8,0,1.4,0.6,1.3,1.4c0,0.3-0.2,0.6-0.5,0.9
				c-1.8,1.9-3.9,3.8-6.2,5.6c0.7,0.1,1.2,0.5,1.1,1.3l-1.8,11c-0.1,0.9-0.9,1.3-1.7,1.3c-0.7,0-1.4-0.4-1.3-1.3L422.7,47.8z"/>
			<path class="st3" d="M443.3,48.7c0,0.2,0,0.3,0,0.5c-0.1,0.7-0.9,1.2-1.6,1.2c-0.5,0-0.9-0.2-1-0.8c-0.3-1.1-0.7-2.3-1.1-3.2
				c-0.1-0.2-0.1-0.4-0.1-0.6c0.1-0.7,0.9-1.2,1.6-1.2c0.4,0,0.8,0.2,1,0.7C442.6,46.3,443.1,47.6,443.3,48.7z M454.2,44.2
				c0.7,0,1.4,0.5,1.3,1.2c0,0.1-0.1,0.2-0.1,0.3c-2.5,5.9-7.4,11.2-12.6,13.8c-0.3,0.1-0.5,0.2-0.7,0.2c-0.7,0-1.2-0.7-1.1-1.3
				c0.1-0.5,0.4-0.9,1-1.2c4.9-2.5,8.5-6.7,10.9-12.1C453.1,44.5,453.6,44.2,454.2,44.2z M448.3,47.5c0,0.1,0,0.3,0,0.4
				c-0.1,0.7-0.9,1.2-1.6,1.2c-0.5,0-0.9-0.3-1-0.8c-0.2-1.1-0.6-2.2-1-3.2c-0.1-0.2-0.1-0.4-0.1-0.6c0.1-0.7,0.8-1.1,1.5-1.1
				c0.5,0,0.9,0.2,1.1,0.7C447.7,45.2,448.1,46.4,448.3,47.5z"/>
			<path class="st3" d="M476.4,46.1c0,0.2-0.1,0.4-0.1,0.6h7.6c0.7,0,1,0.7,0.9,1.3c-0.1,0.7-0.6,1.3-1.3,1.3h-7.8
				c-1.4,5-4,8.1-7.8,10.2c-0.4,0.2-0.7,0.3-1,0.3c-0.9,0-1.3-0.7-1.2-1.5c0.1-0.5,0.4-1,1-1.3c3.1-1.7,4.9-4,6-7.7h-8.2
				c-0.7,0-1-0.7-0.9-1.3c0.1-0.7,0.6-1.3,1.3-1.3h8.4c0.1-0.3,0.1-0.5,0.1-0.8l0.5-2.9c-1.8,0.3-3.7,0.5-5.3,0.5
				c-1,0-1.4-0.7-1.3-1.4c0.1-0.7,0.6-1.3,1.6-1.3c3.9-0.2,9-1.1,12.4-2.1c0.2,0,0.3-0.1,0.5-0.1c0.9,0,1.3,0.7,1.2,1.5
				c-0.1,0.5-0.5,1-1.2,1.3c-1.4,0.4-3.1,0.8-4.9,1.2L476.4,46.1z"/>
			<path class="st3" d="M498,56.9c-0.2,1.1-1.1,1.9-2.2,1.9c-1.1,0-1.7-0.8-1.6-1.9c0.2-1.1,1.1-1.9,2.2-1.9
				C497.5,55,498.2,55.9,498,56.9z M497,40.6c0.2-1.1,1.1-1.7,2.1-1.7c1,0,1.6,0.7,1.5,1.7l0,0.3c-0.9,3.7-1.7,7.3-2.5,11.5
				c-0.1,0.7-0.7,1.1-1.3,1.1c-0.7,0-1-0.4-1-1.1c0.5-4.3,1-7.9,1.2-11.5L497,40.6z"/>
			<path class="st3" d="M513.8,51.4c-0.9,1.5-1.9,2.9-3,4.1c-0.4,0.4-0.8,0.6-1.2,0.6c-0.6,0-1.1-0.5-1-1.1c0-0.2,0.2-0.5,0.4-0.8
				c1.9-2.1,3.6-4.7,5.1-7.7h-2.8c-0.7,0-0.9-0.6-0.8-1.2c0.1-0.6,0.5-1.2,1.1-1.2h3.2l0.4-2.3c-0.8,0.2-1.6,0.3-2.3,0.4
				c-0.8,0.1-1.2-0.6-1.1-1.2c0.1-0.5,0.5-1.1,1.2-1.2c2.1-0.3,4.6-0.9,6.7-1.7c0.2-0.1,0.4-0.1,0.6-0.1c0.7,0,1.1,0.7,1,1.3
				c-0.1,0.5-0.4,0.9-0.9,1.1c-0.7,0.3-1.5,0.5-2.4,0.8l-0.5,2.9h2.7c0.7,0,0.9,0.6,0.8,1.2c-0.1,0.6-0.5,1.2-1.2,1.2h-2.7l-0.3,1.7
				c1,0.7,1.9,1.6,2.5,2.4c0.2,0.3,0.3,0.6,0.2,0.9c-0.1,0.7-0.7,1.2-1.3,1.2c-0.3,0-0.6-0.1-0.8-0.5c-0.3-0.4-0.7-0.9-1-1.3
				l-1.4,8.8c-0.1,0.7-0.8,1.1-1.5,1.1c-0.7,0-1.2-0.4-1.1-1.1l0.4-2.7L513.8,51.4z M518,59.1c-0.9,0.1-1.3-0.6-1.2-1.4
				c0.1-0.6,0.6-1.2,1.3-1.3c0.3,0,0.6,0,0.8-0.1c2.6-5.5,4.7-11.2,6.5-17.1c0.2-0.8,0.9-1.1,1.6-1.1c0.8,0,1.5,0.5,1.2,1.5
				c-1.7,5.6-3.9,11.1-6.4,16.3c1.9-0.3,3.8-0.6,5.7-1c-0.3-1.3-0.7-2.6-1.2-3.7c-0.1-0.2-0.1-0.5-0.1-0.7c0.1-0.7,0.8-1.2,1.6-1.2
				c0.5,0,0.9,0.2,1.2,0.8c0.9,2,1.6,4.5,2.1,7.1c0,0.2,0,0.4,0,0.6c-0.1,0.9-1,1.5-1.7,1.5c-0.6,0-1-0.3-1.2-1.1
				c0-0.3-0.1-0.7-0.2-1C524.6,58.2,521.4,58.8,518,59.1z"/>
			<path class="st3" d="M542.1,46c-0.9,0.1-1.3-0.6-1.2-1.3c0.1-0.7,0.6-1.3,1.5-1.4c1-0.1,2.2-0.2,3.6-0.4c0.4-1.4,0.7-2.5,1.1-3.9
				c0.2-0.8,0.9-1.2,1.6-1.2c0.8,0,1.4,0.5,1.2,1.4c-0.3,1.2-0.6,2.1-0.9,3.1c0.7-0.2,1.5-0.3,2.2-0.5c0.1,0,0.3-0.1,0.4-0.1
				c0.8,0,1.1,0.7,1,1.3c-0.1,0.5-0.5,1.1-1.2,1.2c-1.2,0.3-2.4,0.6-3.4,0.8c-1.7,4.9-3.6,9.5-5.6,13.2c-0.4,0.8-1.1,1.1-1.7,1.1
				c-0.7,0-1.3-0.5-1.2-1.3c0-0.2,0.1-0.5,0.3-0.7c1.9-3.4,3.7-7.4,5.3-11.8C544,45.8,542.9,45.9,542.1,46z M550.3,52.9
				c0.6,0,1.1,0.3,1,1.1c-0.1,1.6,0.7,2.1,3.5,2.1c1.3,0,2.4-0.1,3.4-0.3c1-0.1,1.5,0.6,1.4,1.4c-0.1,0.6-0.6,1.2-1.4,1.3
				c-1.1,0.2-2.4,0.3-3.8,0.3c-4.3,0-6.1-1.3-5.7-4.4C548.8,53.4,549.6,52.9,550.3,52.9z M559.1,45.4c0.9,0,1.2,0.7,1.1,1.4
				c-0.1,0.7-0.6,1.3-1.5,1.3c-2,0-4.4,0.3-6.2,0.7c-1,0.2-1.5-0.5-1.3-1.3c0.1-0.6,0.5-1.2,1.4-1.3
				C554.6,45.7,557.1,45.4,559.1,45.4z"/>
			<path class="st3" d="M574.9,49.9c2-1.1,4.6-1.8,6.7-1.8c3.8,0,5.4,1.9,5,4.7c-0.6,3.7-4.3,6.3-10.1,6.6c-0.9,0.1-1.3-0.6-1.2-1.3
				c0.1-0.6,0.6-1.2,1.4-1.3c4.8-0.3,6.7-2,7-4c0.2-1.3-0.4-2.3-2.5-2.3c-2.7,0-5.3,1-8,3.2c-0.4,0.3-0.8,0.5-1.1,0.5
				c-0.7,0-1.3-0.5-1.2-1.4c0-0.2,0.1-0.4,0.2-0.6c1.2-2.4,2.2-4.7,3-7.1c-1.2,0.1-2.4,0.1-3.5,0.1c-0.9,0-1.2-0.7-1.1-1.3
				c0.1-0.6,0.6-1.3,1.5-1.3c1.2,0,2.5-0.1,3.9-0.2c0.4-1.3,0.7-2.5,1.1-3.8c0.2-0.8,0.9-1.2,1.6-1.2c0.7,0,1.3,0.5,1.1,1.4
				c-0.3,1.2-0.6,2.3-0.9,3.3c2-0.3,4-0.6,5.7-1c0.1,0,0.3,0,0.4,0c0.8,0,1.1,0.7,1,1.3c-0.1,0.6-0.5,1.1-1.4,1.3
				c-2.1,0.5-4.4,0.8-6.7,1.1C576.1,46.9,575.5,48.6,574.9,49.9L574.9,49.9z"/>
			<path class="st3" d="M597.3,58.2c-0.4,0.6-1,0.8-1.5,0.8c-0.7,0-1.3-0.5-1.2-1.3c0-0.2,0.2-0.5,0.4-0.8c2-2.8,3.9-6.2,5.4-9.8
				c-1,0.1-2.1,0.3-3.1,0.5c-1,0.2-1.4-0.5-1.3-1.3c0.1-0.6,0.5-1.2,1.3-1.3c1.3-0.3,2.7-0.4,4.1-0.6c0.5-1.5,1-3.1,1.5-4.6
				c0.2-0.8,0.9-1.2,1.6-1.2c0.8,0,1.4,0.5,1.2,1.4c-0.4,1.4-0.8,2.8-1.3,4.1c0.5,0,1,0,1.4,0c3.2,0,4.1,1.5,3.5,5.4
				c-0.4,2.4-0.9,4.5-1.6,6c-1.2,2.9-2.6,3.9-5.1,3.9c-0.6,0-1.2,0-1.7-0.1c-0.8-0.1-1.1-0.8-1-1.4c0.1-0.8,0.8-1.5,1.7-1.4
				c0.5,0.1,0.8,0.1,1.4,0.1c0.9,0,1.4-0.3,2-1.8c0.7-1.4,1.2-3.4,1.5-5.4c0.4-2.3,0-2.9-1.2-2.9c-0.6,0-1.2,0-1.9,0.1
				C601.7,51,599.6,55.1,597.3,58.2z M617.1,48.1c0.1,0.3,0.1,0.6,0.1,0.9c-0.1,0.9-0.9,1.5-1.7,1.5c-0.5,0-1-0.3-1.2-1
				c-0.6-1.8-1.6-3.7-2.7-5.2c-0.2-0.3-0.3-0.6-0.3-0.9c0.1-0.7,0.9-1.3,1.7-1.3c0.4,0,0.8,0.2,1.1,0.5
				C615.3,44.1,616.5,46.4,617.1,48.1z M613.9,39.5c0.1-0.5,0.7-1,1.2-1c0.2,0,0.5,0.1,0.7,0.3c0.6,0.6,1.2,1.4,1.6,2.2
				c0.1,0.2,0.2,0.5,0.1,0.7c-0.1,0.6-0.6,1-1.2,1c-0.3,0-0.6-0.2-0.7-0.5c-0.5-0.8-1-1.6-1.5-2.1C613.9,39.8,613.9,39.6,613.9,39.5
				z M616.7,37.4c0.1-0.5,0.6-0.9,1.2-0.9c0.2,0,0.5,0.1,0.7,0.3c0.6,0.6,1.2,1.3,1.6,2.1c0.2,0.3,0.2,0.5,0.2,0.8
				c-0.1,0.6-0.6,1-1.2,1c-0.3,0-0.6-0.1-0.8-0.5c-0.5-0.7-1-1.5-1.5-2.1C616.7,37.8,616.7,37.6,616.7,37.4z"/>
			<path class="st3" d="M643.6,57.6c-0.1,0.4,0,0.5,0.5,0.5c0.7,0,0.9-0.2,1.3-1.5c0.2-0.7,0.7-1,1.2-1c0.6,0,1.1,0.4,0.9,1.1
				c-0.6,2.6-1.6,3.5-4,3.5c-2.2,0-2.5-0.6-2.3-2.1l0.9-5.8h-0.9c-1,3.9-3.1,6.5-6.1,8.1c-0.2,0.1-0.5,0.2-0.7,0.2
				c-0.7,0-1.1-0.6-1-1.2c0-0.2,0.1-0.3,0.2-0.5c-0.1,0.1-0.3,0.1-0.4,0.1h-5.5l-0.1,0.6c-0.1,0.6-0.7,0.9-1.3,0.9
				c-0.6,0-1.1-0.3-1-0.9l1.4-8.6c-0.1,0.1-0.2,0.2-0.3,0.3c-0.4,0.3-0.7,0.5-1,0.5c-0.6,0-1.1-0.5-1-1.1c0-0.3,0.2-0.6,0.5-0.9
				c1.3-1.2,2.5-2.7,3.5-4.3h-1.9c-0.6,0-0.8-0.6-0.8-1.1c0.1-0.6,0.5-1.1,1.1-1.1h2.8c0.3-0.5,0.5-1.1,0.8-1.6h-1.1
				c-0.2,0.2-0.3,0.4-0.4,0.6c-0.4,0.5-0.8,0.7-1.2,0.7c-0.6,0-1-0.5-0.9-1.1c0-0.2,0.2-0.5,0.3-0.7c0.7-0.9,1.4-2,2-3.2
				c0.3-0.6,0.8-0.8,1.3-0.8c0.6,0,1.1,0.4,1,1c0,0.1,0,0.3-0.1,0.4c-0.2,0.4-0.3,0.7-0.5,1h5.6c0.7,0,0.9,0.5,0.8,1.1
				c-0.1,0.5-0.5,1.1-1.2,1.1h-3c-0.2,0.6-0.5,1.1-0.8,1.6h4.5c0.6,0,0.9,0.5,0.8,1.1c-0.1,0.5-0.5,1.1-1.1,1.1H631
				c-0.4,0.7-0.8,1.3-1.2,1.9h0.1h1.8c0.2-0.3,0.3-0.6,0.4-0.8c0.2-0.5,0.7-0.7,1.2-0.7c0.6,0,1.1,0.3,1,0.9c0,0.1-0.1,0.2-0.1,0.3
				c-0.1,0.2-0.1,0.3-0.2,0.4h2.1c0.6,0,0.7,0.5,0.6,1s-0.4,1-1,1h-2.4l-0.2,1.3h1.7c0.6,0,0.7,0.5,0.6,1s-0.4,1-1,1h-1.7l-0.2,1.2
				h1.7c0.6,0,0.7,0.5,0.6,1c-0.1,0.5-0.4,1-1,1h-1.7l-0.2,1.3h1.5c0.6,0,0.7,0.5,0.6,1c0,0.2-0.1,0.4-0.2,0.5
				c0.1-0.1,0.2-0.2,0.3-0.2c2.3-1.2,3.7-3,4.5-6c-1.4-0.3-1.6-1.2-1.4-2.5l1.5-9.2c0.3-1.7,1.2-2.5,3.2-2.5h4c2,0,2.6,0.8,2.3,2.5
				l-1.5,9.2c-0.3,1.5-0.9,2.4-2.5,2.5L643.6,57.6z M629.9,57l0.2-1.3h-1.7l-0.2,1.3H629.9z M630.4,53.8l0.2-1.2h-1.7l-0.2,1.2
				H630.4z M630.9,50.7l0.2-1.3H630c-0.5,0-0.6,0.1-0.7,0.6l-0.1,0.7H630.9z M643.8,50.1c0.5,0,0.7-0.2,0.8-0.7l0.2-1.3h-4.5
				l-0.2,1.3c-0.1,0.5,0,0.7,0.5,0.7H643.8z M640.7,46h4.5l0.3-1.9H641L640.7,46z M646,40.9c0.1-0.5-0.1-0.7-0.6-0.7h-3.2
				c-0.5,0-0.7,0.2-0.8,0.7l-0.2,1.2h4.5L646,40.9z"/>
			<path class="st3" d="M667.1,38.3c0.1-0.7,0.9-1.1,1.6-1.1s1.3,0.4,1.2,1.1l-1.3,8.3h9c0.7,0,1,0.6,0.9,1.2
				c-0.1,0.6-0.6,1.2-1.3,1.2h-6.3l-1.2,7.5c-0.1,0.6,0.1,0.8,1.9,0.8c2.1,0,2.5-0.2,2.9-1.9c0.2-0.7,0.8-1.1,1.5-1.1
				c0.7,0,1.4,0.5,1.2,1.4c-0.8,3.1-2.3,3.9-5.9,3.9c-4.1,0-4.6-0.7-4.3-2.7l1.3-7.9h-2.7c-1.2,5.6-4.7,9-9.8,10.9
				c-0.2,0.1-0.4,0.1-0.6,0.1c-0.8,0-1.2-0.7-1.1-1.4c0.1-0.5,0.4-1,1.1-1.2c4.4-1.8,6.6-4.1,7.7-8.5h-6.1c-0.7,0-1-0.6-0.9-1.2
				c0.1-0.6,0.6-1.2,1.3-1.2h8.8L667.1,38.3z M664.2,43.1c0.1,0.3,0.2,0.6,0.1,0.8c-0.1,0.8-1,1.4-1.7,1.4c-0.5,0-0.9-0.2-1.1-0.7
				c-0.4-1.1-1-2.2-1.5-2.9c-0.2-0.3-0.2-0.6-0.2-0.8c0.1-0.7,0.9-1.3,1.6-1.3c0.4,0,0.8,0.2,1.1,0.6
				C663.3,41.1,663.9,42.2,664.2,43.1z M674.9,39.2c0.7,0,1.3,0.5,1.2,1.3c0,0.2-0.1,0.5-0.3,0.7c-1,1.5-2,2.7-3,3.8
				c-0.4,0.5-0.9,0.7-1.4,0.7c-0.7,0-1.2-0.5-1.1-1.2c0-0.3,0.2-0.6,0.4-0.8c1-1.1,1.9-2.3,2.8-3.7
				C673.9,39.4,674.4,39.2,674.9,39.2z"/>
			<path class="st3" d="M696.5,58.6l-0.2,1.4c-0.1,0.6-0.8,1-1.4,1c-0.6,0-1.2-0.3-1.1-1l0.2-1.4l0.4-2.1c-2.7,1.6-6.1,2.9-9.4,3.7
				c-0.1,0-0.3,0.1-0.4,0.1c-0.7,0-1.1-0.6-1-1.2c0.1-0.5,0.5-1,1.1-1.1c2.8-0.7,5.6-1.6,8.1-2.9h-6.7c-0.6,0-0.8-0.5-0.7-1
				c0.1-0.5,0.5-1,1-1h8.4l0.2-1c0.1-0.7,0.8-1,1.4-1c0.7,0,1.2,0.3,1.1,1l-0.2,1h8.5c0.6,0,0.8,0.5,0.7,1c-0.1,0.5-0.5,1-1.1,1
				h-6.9c2,1.1,4.6,2,7.4,2.5c0.7,0.2,0.9,0.7,0.8,1.2c-0.1,0.6-0.6,1.2-1.4,1.2c-0.1,0-0.2,0-0.4-0.1c-3.1-0.8-6.1-2-8.3-3.6
				L696.5,58.6z M703.1,46c-1,0.9-2,1.7-3.1,2.5c1.7,0.5,3.4,1,4.9,1.6c0.6,0.2,0.7,0.7,0.7,1.1c-0.1,0.6-0.6,1.2-1.3,1.2
				c-0.2,0-0.4-0.1-0.6-0.1c-2-0.9-4.1-1.7-6.3-2.3c-3,1.4-6.3,2.1-10.2,2.4c-0.8,0.1-1.2-0.5-1.1-1.1c0.1-0.5,0.5-1,1.2-1
				c2.7-0.2,5-0.5,7-1.2c-0.6-0.2-1.3-0.3-2-0.5c-0.4,0.2-0.7,0.3-1,0.3c-0.7,0-1.2-0.5-1.1-1.1c0-0.3,0.2-0.6,0.6-0.8
				c0.5-0.3,1-0.7,1.4-1h-5.3c-0.6,0-0.8-0.5-0.7-1c0.1-0.5,0.5-1,1-1h7.3c0.7-0.6,1.3-1.3,1.8-1.8c0.3-0.4,0.7-0.5,1.1-0.5
				c0.7,0,1.2,0.5,1.1,1.1c0,0.2-0.1,0.4-0.3,0.6c-0.2,0.2-0.4,0.4-0.6,0.6h10.1c0.6,0,0.8,0.5,0.7,1c-0.1,0.5-0.5,1-1.1,1H703.1z
				 M697.2,38.1c0.1-0.7,0.8-1,1.5-1c0.7,0,1.3,0.3,1.2,1l-0.2,1.3h6c2.3,0,2.9,0.7,2.6,2.2l-0.2,1.1c-0.1,0.7-0.8,1-1.5,1
				c-0.7,0-1.3-0.4-1.2-1l0.1-0.7c0.1-0.4-0.1-0.6-0.7-0.6h-13.6c-0.6,0-0.8,0.2-0.9,0.6l-0.1,0.8c-0.1,0.7-0.8,1-1.5,1
				c-0.7,0-1.3-0.4-1.2-1l0.2-1.2c0.3-1.6,1.1-2.2,3.4-2.2h5.9L697.2,38.1z M695.7,46c-0.4,0.4-0.8,0.7-1.3,1.1
				c1,0.2,2.1,0.5,3.1,0.7c0.9-0.5,1.8-1.1,2.6-1.8H695.7z"/>
			<path class="st3" d="M728.7,43.9c-0.3,0.9-0.6,1.7-1,2.5c2,1.1,3.7,2.7,5.1,4.3c0.3,0.4,0.4,0.8,0.4,1.2
				c-0.1,0.8-0.9,1.4-1.6,1.4c-0.3,0-0.6-0.1-0.8-0.4c-1.3-1.7-2.7-3-4.2-4.1c-1.3,2.1-2.9,3.8-4.7,5.1c-0.4,0.3-0.8,0.4-1.1,0.4
				c-0.7,0-1.2-0.6-1.1-1.3c0.1-0.4,0.3-0.8,0.8-1.1c2.7-1.9,4.5-4.4,5.7-8.1h-4.5c-1,0-1.3,0.3-1.4,1l-2.4,14.8
				c-0.1,0.7-0.8,1.1-1.5,1.1c-0.7,0-1.3-0.4-1.2-1.1l2.4-15.1c0.3-2,1.5-3.2,4-3.2h5.3c0.2-1,0.4-2,0.6-3c0.1-0.9,0.9-1.3,1.6-1.3
				s1.3,0.4,1.2,1.3c-0.2,1.1-0.4,2.1-0.6,3h5.5c2.5,0,3.3,1.2,3,3.2l-2,12.7c-0.4,2.2-1.6,3.1-3.5,3.1c-1,0-1.6-0.1-2.1-0.2
				c-0.7-0.2-1-0.8-0.9-1.4c0.1-0.8,0.8-1.6,1.8-1.4c0.4,0.1,0.9,0.1,1.3,0.1s0.7-0.2,0.8-0.8l1.9-11.8c0.1-0.7-0.1-1-1.1-1H728.7z"
				/>
			<path class="st3" d="M759.5,46.3c0.4,2.4,1.2,4.7,2.5,6.6c0.7,1,1.5,2,2.5,2.8c0.5,0.5,1.1,0.9,1.7,1.3c0.5,0.3,0.7,0.8,0.6,1.3
				c-0.1,0.8-0.9,1.5-1.7,1.5c-0.2,0-0.5,0-0.7-0.2c-3.8-2.3-6.4-6.6-7.2-11.8c-1,2.4-2.4,4.6-4.1,6.5c-2,2.2-4.7,4.3-7.2,5.5
				c-0.3,0.2-0.6,0.3-0.9,0.3c-0.8,0-1.2-0.7-1.1-1.4c0.1-0.5,0.4-0.9,1-1.2c2.2-1.1,4.6-2.8,6.4-4.8c2.6-2.9,4.4-6.7,5.5-13.3
				c0.1-0.8,0.9-1.2,1.6-1.2c0.7,0,1.4,0.4,1.2,1.2c-0.1,0.9-0.3,1.8-0.5,2.6C759.2,43.4,759.3,44.8,759.5,46.3z"/>
		</g>
		<g class="st2">
			<path class="st3" d="M815.8,55.8c-0.4,2.3-2.5,4.2-4.9,4.2c-2.3,0-3.9-1.8-3.5-4.2c0.4-2.3,2.5-4.1,4.9-4.1
				C814.6,51.7,816.2,53.5,815.8,55.8z M809.2,55.8c-0.2,1.4,0.7,2.5,2.1,2.5c1.4,0,2.6-1.1,2.9-2.5c0.2-1.4-0.7-2.5-2.1-2.5
				C810.6,53.4,809.4,54.4,809.2,55.8z"/>
		</g>
		<g class="st2">
			<path class="st4" d="M536.7,110.4l0.8,0.3c4.8,2,5.9,2.6,7.3,3.9c1.8,1.7,2.7,4.3,2.4,7c-0.8,6.7-7,11.2-15.6,11.2
				c-4.2,0-7.3-0.8-10.3-2.8c-2.5-1.6-3.7-3-3.5-4.5c0.2-1.2,1.4-2.2,2.8-2.2c1.2,0,1.8,0.3,2.5,1.3c1.7,2.4,5.3,3.9,9,3.9
				c5,0,8.8-2.6,9.2-6.4c0.5-3.7-1.6-5.5-9.1-8.5l-1.4-0.6c-3.5-1.3-5.5-2.4-6.9-3.5c-2.1-1.7-3-3.9-2.6-6.7
				c0.8-6.4,6.8-10.7,14.8-10.7c6.6,0,13.1,3.5,12.7,6.9c-0.2,1.2-1.5,2.2-2.8,2.2c-1.1,0-1.6-0.3-2.4-1.4c-1.7-2.4-4.4-3.7-8-3.7
				c-4.6,0-8,2.4-8.4,6.1c-0.4,3.2,1,4.4,7.9,7.2L536.7,110.4z"/>
			<path class="st4" d="M558.6,97.2c-1.3,0-2.1-0.8-1.9-2.1c0.2-1.2,1.1-2.1,2.5-2.1h29.8c1.3,0,2.1,0.9,1.9,2.1
				c-0.2,1.3-1.1,2.1-2.5,2.1h-12.1l-4.1,33.1c-0.2,1.3-1.5,2.2-3.1,2.2c-1.7,0-2.7-0.9-2.5-2.2l4.1-33.1H558.6z"/>
			<path class="st4" d="M601.7,117.9c-0.4,3.4-0.1,5.5,1.3,7.4c1.7,2.3,4.4,3.5,8,3.5c3.5,0,6.7-1.3,9.1-3.7
				c1.6-1.7,2.5-3.8,2.9-7.1l2.9-23.1c0.2-1.3,1.5-2.2,3.1-2.2c1.7,0,2.7,0.9,2.5,2.2l-2.9,23.8c-0.5,3.8-1.8,6.7-3.8,8.8
				c-3.9,3.9-8.4,5.7-14.3,5.7c-5.8,0-9.9-1.7-12.8-5.5c-1.7-2.2-2.3-5.1-1.8-9l2.9-23.8c0.2-1.3,1.4-2.2,3.1-2.2
				c1.6,0,2.7,0.9,2.5,2.2L601.7,117.9z"/>
			<path class="st4" d="M656.1,93c14.9,0,22.5,7.1,21,19.4c-0.9,7.5-5,13.5-11.4,16.7c-4,2-8.7,3-14.8,3h-3.4c-5,0-7.3-2.3-6.7-6.8
				l3.2-25.5c0.6-4.6,3.3-6.8,8.4-6.8H656.1z M646.4,125.2c-0.2,1.7,0.7,2.6,2.6,2.6h1.9c5.3,0,9.3-0.8,12.4-2.6
				c4.3-2.5,7.2-7.1,7.9-12.6c0.7-5.8-1.2-10.6-5.2-13c-2.6-1.6-6-2.3-11-2.3h-2.2c-1.9,0-3,0.9-3.2,2.6L646.4,125.2z"/>
			<path class="st4" d="M686,97.1c-0.6-0.8-0.8-1.6-0.7-2.2c0.2-1.2,1.7-2.3,3.3-2.3c1.1,0,1.8,0.4,2.4,1.6l9.6,15.6l13.4-15.6
				c1-1.1,1.8-1.6,2.8-1.6c1.6,0,2.9,1.1,2.8,2.3c-0.1,0.7-0.5,1.3-1.3,2.2L702.9,114l-2,16.3c-0.2,1.3-1.5,2.2-3.1,2.2
				c-1.7,0-2.7-0.9-2.5-2.2l2-16.3L686,97.1z"/>
			<path class="st4" d="M741.8,97.2c-1.3,0-2.1-0.8-1.9-2.1c0.2-1.2,1.1-2.1,2.5-2.1h29.8c1.3,0,2.1,0.9,1.9,2.1
				c-0.2,1.3-1.1,2.1-2.5,2.1h-12.1l-4.1,33.1c-0.2,1.3-1.5,2.2-3.1,2.2c-1.7,0-2.7-0.9-2.5-2.2l4.1-33.1H741.8z"/>
			<path class="st4" d="M815.6,112.5c-1.5,12.5-9.8,20.4-21.3,20.4c-11.6,0-17.8-7.9-16.3-20.5c1.5-12.4,9.9-20.3,21.4-20.3
				C810.8,92.2,817.2,100.2,815.6,112.5z M784,112.5c-1.2,9.7,3.1,16.1,10.8,16.1s13.6-6.5,14.8-16.1c1.2-9.8-3-16.1-10.9-16.1
				C791,96.3,785.2,102.7,784,112.5z"/>
			<path class="st4" d="M831.3,117.9c-0.4,3.4-0.1,5.5,1.3,7.4c1.7,2.3,4.4,3.5,8,3.5c3.5,0,6.7-1.3,9.1-3.7
				c1.6-1.7,2.5-3.8,2.9-7.1l2.9-23.1c0.2-1.3,1.5-2.2,3.1-2.2c1.7,0,2.7,0.9,2.5,2.2l-2.9,23.8c-0.5,3.8-1.8,6.7-3.8,8.8
				c-3.9,3.9-8.4,5.7-14.3,5.7c-5.8,0-9.9-1.7-12.8-5.5c-1.7-2.2-2.3-5.1-1.8-9l2.9-23.8c0.2-1.3,1.4-2.2,3.1-2.2
				c1.6,0,2.7,0.9,2.5,2.2L831.3,117.9z"/>
			<path class="st4" d="M875.2,130.3c-0.2,1.3-1.5,2.2-3.1,2.2c-1.6,0-2.7-0.9-2.5-2.2l3.8-31c0.5-4.2,3.1-6.3,7.8-6.3h5.6
				c4.1,0,7.4,0.6,9.8,1.9c3.5,1.8,5.2,5.1,4.8,8.9c-0.6,5.2-5.3,8.9-12.4,9.9l0,0.2c2.6,1,4.3,2.3,5.9,4.7c3.1,4.9,5.8,10.5,5.6,12
				c-0.1,1.1-1.6,2-3.3,2c-1.7,0-2.1-0.4-3-2.7c-5.1-12.2-7.1-14.5-13.2-14.5h-3.8L875.2,130.3z M883,111.4c7.4,0,11.9-2.7,12.5-7.4
				c0.5-4.4-3.1-7-10.1-7h-3.6c-1.6,0-2.5,0.7-2.7,2.1l-1.5,12.2H883z"/>
		</g>
		<g class="st2">
			<path class="st5" d="M536.7,110.4l0.8,0.3c4.8,2,5.9,2.6,7.3,3.9c1.8,1.7,2.7,4.3,2.4,7c-0.8,6.7-7,11.2-15.6,11.2
				c-4.2,0-7.3-0.8-10.3-2.8c-2.5-1.6-3.7-3-3.5-4.5c0.2-1.2,1.4-2.2,2.8-2.2c1.2,0,1.8,0.3,2.5,1.3c1.7,2.4,5.3,3.9,9,3.9
				c5,0,8.8-2.6,9.2-6.4c0.5-3.7-1.6-5.5-9.1-8.5l-1.4-0.6c-3.5-1.3-5.5-2.4-6.9-3.5c-2.1-1.7-3-3.9-2.6-6.7
				c0.8-6.4,6.8-10.7,14.8-10.7c6.6,0,13.1,3.5,12.7,6.9c-0.2,1.2-1.5,2.2-2.8,2.2c-1.1,0-1.6-0.3-2.4-1.4c-1.7-2.4-4.4-3.7-8-3.7
				c-4.6,0-8,2.4-8.4,6.1c-0.4,3.2,1,4.4,7.9,7.2L536.7,110.4z"/>
			<path class="st5" d="M558.6,97.2c-1.3,0-2.1-0.8-1.9-2.1c0.2-1.2,1.1-2.1,2.5-2.1h29.8c1.3,0,2.1,0.9,1.9,2.1
				c-0.2,1.3-1.1,2.1-2.5,2.1h-12.1l-4.1,33.1c-0.2,1.3-1.5,2.2-3.1,2.2c-1.7,0-2.7-0.9-2.5-2.2l4.1-33.1H558.6z"/>
			<path class="st5" d="M601.7,117.9c-0.4,3.4-0.1,5.5,1.3,7.4c1.7,2.3,4.4,3.5,8,3.5c3.5,0,6.7-1.3,9.1-3.7
				c1.6-1.7,2.5-3.8,2.9-7.1l2.9-23.1c0.2-1.3,1.5-2.2,3.1-2.2c1.7,0,2.7,0.9,2.5,2.2l-2.9,23.8c-0.5,3.8-1.8,6.7-3.8,8.8
				c-3.9,3.9-8.4,5.7-14.3,5.7c-5.8,0-9.9-1.7-12.8-5.5c-1.7-2.2-2.3-5.1-1.8-9l2.9-23.8c0.2-1.3,1.4-2.2,3.1-2.2
				c1.6,0,2.7,0.9,2.5,2.2L601.7,117.9z"/>
			<path class="st5" d="M656.1,93c14.9,0,22.5,7.1,21,19.4c-0.9,7.5-5,13.5-11.4,16.7c-4,2-8.7,3-14.8,3h-3.4c-5,0-7.3-2.3-6.7-6.8
				l3.2-25.5c0.6-4.6,3.3-6.8,8.4-6.8H656.1z M646.4,125.2c-0.2,1.7,0.7,2.6,2.6,2.6h1.9c5.3,0,9.3-0.8,12.4-2.6
				c4.3-2.5,7.2-7.1,7.9-12.6c0.7-5.8-1.2-10.6-5.2-13c-2.6-1.6-6-2.3-11-2.3h-2.2c-1.9,0-3,0.9-3.2,2.6L646.4,125.2z"/>
			<path class="st5" d="M686,97.1c-0.6-0.8-0.8-1.6-0.7-2.2c0.2-1.2,1.7-2.3,3.3-2.3c1.1,0,1.8,0.4,2.4,1.6l9.6,15.6l13.4-15.6
				c1-1.1,1.8-1.6,2.8-1.6c1.6,0,2.9,1.1,2.8,2.3c-0.1,0.7-0.5,1.3-1.3,2.2L702.9,114l-2,16.3c-0.2,1.3-1.5,2.2-3.1,2.2
				c-1.7,0-2.7-0.9-2.5-2.2l2-16.3L686,97.1z"/>
			<path class="st5" d="M741.8,97.2c-1.3,0-2.1-0.8-1.9-2.1c0.2-1.2,1.1-2.1,2.5-2.1h29.8c1.3,0,2.1,0.9,1.9,2.1
				c-0.2,1.3-1.1,2.1-2.5,2.1h-12.1l-4.1,33.1c-0.2,1.3-1.5,2.2-3.1,2.2c-1.7,0-2.7-0.9-2.5-2.2l4.1-33.1H741.8z"/>
			<path class="st5" d="M815.6,112.5c-1.5,12.5-9.8,20.4-21.3,20.4c-11.6,0-17.8-7.9-16.3-20.5c1.5-12.4,9.9-20.3,21.4-20.3
				C810.8,92.2,817.2,100.2,815.6,112.5z M784,112.5c-1.2,9.7,3.1,16.1,10.8,16.1s13.6-6.5,14.8-16.1c1.2-9.8-3-16.1-10.9-16.1
				C791,96.3,785.2,102.7,784,112.5z"/>
			<path class="st5" d="M831.3,117.9c-0.4,3.4-0.1,5.5,1.3,7.4c1.7,2.3,4.4,3.5,8,3.5c3.5,0,6.7-1.3,9.1-3.7
				c1.6-1.7,2.5-3.8,2.9-7.1l2.9-23.1c0.2-1.3,1.5-2.2,3.1-2.2c1.7,0,2.7,0.9,2.5,2.2l-2.9,23.8c-0.5,3.8-1.8,6.7-3.8,8.8
				c-3.9,3.9-8.4,5.7-14.3,5.7c-5.8,0-9.9-1.7-12.8-5.5c-1.7-2.2-2.3-5.1-1.8-9l2.9-23.8c0.2-1.3,1.4-2.2,3.1-2.2
				c1.6,0,2.7,0.9,2.5,2.2L831.3,117.9z"/>
			<path class="st5" d="M875.2,130.3c-0.2,1.3-1.5,2.2-3.1,2.2c-1.6,0-2.7-0.9-2.5-2.2l3.8-31c0.5-4.2,3.1-6.3,7.8-6.3h5.6
				c4.1,0,7.4,0.6,9.8,1.9c3.5,1.8,5.2,5.1,4.8,8.9c-0.6,5.2-5.3,8.9-12.4,9.9l0,0.2c2.6,1,4.3,2.3,5.9,4.7c3.1,4.9,5.8,10.5,5.6,12
				c-0.1,1.1-1.6,2-3.3,2c-1.7,0-2.1-0.4-3-2.7c-5.1-12.2-7.1-14.5-13.2-14.5h-3.8L875.2,130.3z M883,111.4c7.4,0,11.9-2.7,12.5-7.4
				c0.5-4.4-3.1-7-10.1-7h-3.6c-1.6,0-2.5,0.7-2.7,2.1l-1.5,12.2H883z"/>
		</g>
		<g class="st2">
			<path class="st6" d="M536.7,110.4l0.8,0.3c4.8,2,5.9,2.6,7.3,3.9c1.8,1.7,2.7,4.3,2.4,7c-0.8,6.7-7,11.2-15.6,11.2
				c-4.2,0-7.3-0.8-10.3-2.8c-2.5-1.6-3.7-3-3.5-4.5c0.2-1.2,1.4-2.2,2.8-2.2c1.2,0,1.8,0.3,2.5,1.3c1.7,2.4,5.3,3.9,9,3.9
				c5,0,8.8-2.6,9.2-6.4c0.5-3.7-1.6-5.5-9.1-8.5l-1.4-0.6c-3.5-1.3-5.5-2.4-6.9-3.5c-2.1-1.7-3-3.9-2.6-6.7
				c0.8-6.4,6.8-10.7,14.8-10.7c6.6,0,13.1,3.5,12.7,6.9c-0.2,1.2-1.5,2.2-2.8,2.2c-1.1,0-1.6-0.3-2.4-1.4c-1.7-2.4-4.4-3.7-8-3.7
				c-4.6,0-8,2.4-8.4,6.1c-0.4,3.2,1,4.4,7.9,7.2L536.7,110.4z"/>
			<path class="st6" d="M558.6,97.2c-1.3,0-2.1-0.8-1.9-2.1c0.2-1.2,1.1-2.1,2.5-2.1h29.8c1.3,0,2.1,0.9,1.9,2.1
				c-0.2,1.3-1.1,2.1-2.5,2.1h-12.1l-4.1,33.1c-0.2,1.3-1.5,2.2-3.1,2.2c-1.7,0-2.7-0.9-2.5-2.2l4.1-33.1H558.6z"/>
			<path class="st6" d="M601.7,117.9c-0.4,3.4-0.1,5.5,1.3,7.4c1.7,2.3,4.4,3.5,8,3.5c3.5,0,6.7-1.3,9.1-3.7
				c1.6-1.7,2.5-3.8,2.9-7.1l2.9-23.1c0.2-1.3,1.5-2.2,3.1-2.2c1.7,0,2.7,0.9,2.5,2.2l-2.9,23.8c-0.5,3.8-1.8,6.7-3.8,8.8
				c-3.9,3.9-8.4,5.7-14.3,5.7c-5.8,0-9.9-1.7-12.8-5.5c-1.7-2.2-2.3-5.1-1.8-9l2.9-23.8c0.2-1.3,1.4-2.2,3.1-2.2
				c1.6,0,2.7,0.9,2.5,2.2L601.7,117.9z"/>
			<path class="st6" d="M656.1,93c14.9,0,22.5,7.1,21,19.4c-0.9,7.5-5,13.5-11.4,16.7c-4,2-8.7,3-14.8,3h-3.4c-5,0-7.3-2.3-6.7-6.8
				l3.2-25.5c0.6-4.6,3.3-6.8,8.4-6.8H656.1z M646.4,125.2c-0.2,1.7,0.7,2.6,2.6,2.6h1.9c5.3,0,9.3-0.8,12.4-2.6
				c4.3-2.5,7.2-7.1,7.9-12.6c0.7-5.8-1.2-10.6-5.2-13c-2.6-1.6-6-2.3-11-2.3h-2.2c-1.9,0-3,0.9-3.2,2.6L646.4,125.2z"/>
			<path class="st6" d="M686,97.1c-0.6-0.8-0.8-1.6-0.7-2.2c0.2-1.2,1.7-2.3,3.3-2.3c1.1,0,1.8,0.4,2.4,1.6l9.6,15.6l13.4-15.6
				c1-1.1,1.8-1.6,2.8-1.6c1.6,0,2.9,1.1,2.8,2.3c-0.1,0.7-0.5,1.3-1.3,2.2L702.9,114l-2,16.3c-0.2,1.3-1.5,2.2-3.1,2.2
				c-1.7,0-2.7-0.9-2.5-2.2l2-16.3L686,97.1z"/>
			<path class="st6" d="M741.8,97.2c-1.3,0-2.1-0.8-1.9-2.1c0.2-1.2,1.1-2.1,2.5-2.1h29.8c1.3,0,2.1,0.9,1.9,2.1
				c-0.2,1.3-1.1,2.1-2.5,2.1h-12.1l-4.1,33.1c-0.2,1.3-1.5,2.2-3.1,2.2c-1.7,0-2.7-0.9-2.5-2.2l4.1-33.1H741.8z"/>
			<path class="st6" d="M815.6,112.5c-1.5,12.5-9.8,20.4-21.3,20.4c-11.6,0-17.8-7.9-16.3-20.5c1.5-12.4,9.9-20.3,21.4-20.3
				C810.8,92.2,817.2,100.2,815.6,112.5z M784,112.5c-1.2,9.7,3.1,16.1,10.8,16.1s13.6-6.5,14.8-16.1c1.2-9.8-3-16.1-10.9-16.1
				C791,96.3,785.2,102.7,784,112.5z"/>
			<path class="st6" d="M831.3,117.9c-0.4,3.4-0.1,5.5,1.3,7.4c1.7,2.3,4.4,3.5,8,3.5c3.5,0,6.7-1.3,9.1-3.7
				c1.6-1.7,2.5-3.8,2.9-7.1l2.9-23.1c0.2-1.3,1.5-2.2,3.1-2.2c1.7,0,2.7,0.9,2.5,2.2l-2.9,23.8c-0.5,3.8-1.8,6.7-3.8,8.8
				c-3.9,3.9-8.4,5.7-14.3,5.7c-5.8,0-9.9-1.7-12.8-5.5c-1.7-2.2-2.3-5.1-1.8-9l2.9-23.8c0.2-1.3,1.4-2.2,3.1-2.2
				c1.6,0,2.7,0.9,2.5,2.2L831.3,117.9z"/>
			<path class="st6" d="M875.2,130.3c-0.2,1.3-1.5,2.2-3.1,2.2c-1.6,0-2.7-0.9-2.5-2.2l3.8-31c0.5-4.2,3.1-6.3,7.8-6.3h5.6
				c4.1,0,7.4,0.6,9.8,1.9c3.5,1.8,5.2,5.1,4.8,8.9c-0.6,5.2-5.3,8.9-12.4,9.9l0,0.2c2.6,1,4.3,2.3,5.9,4.7c3.1,4.9,5.8,10.5,5.6,12
				c-0.1,1.1-1.6,2-3.3,2c-1.7,0-2.1-0.4-3-2.7c-5.1-12.2-7.1-14.5-13.2-14.5h-3.8L875.2,130.3z M883,111.4c7.4,0,11.9-2.7,12.5-7.4
				c0.5-4.4-3.1-7-10.1-7h-3.6c-1.6,0-2.5,0.7-2.7,2.1l-1.5,12.2H883z"/>
		</g>
		<g class="st2">
			<path class="st7" d="M536.7,110.4l0.8,0.3c4.8,2,5.9,2.6,7.3,3.9c1.8,1.7,2.7,4.3,2.4,7c-0.8,6.7-7,11.2-15.6,11.2
				c-4.2,0-7.3-0.8-10.3-2.8c-2.5-1.6-3.7-3-3.5-4.5c0.2-1.2,1.4-2.2,2.8-2.2c1.2,0,1.8,0.3,2.5,1.3c1.7,2.4,5.3,3.9,9,3.9
				c5,0,8.8-2.6,9.2-6.4c0.5-3.7-1.6-5.5-9.1-8.5l-1.4-0.6c-3.5-1.3-5.5-2.4-6.9-3.5c-2.1-1.7-3-3.9-2.6-6.7
				c0.8-6.4,6.8-10.7,14.8-10.7c6.6,0,13.1,3.5,12.7,6.9c-0.2,1.2-1.5,2.2-2.8,2.2c-1.1,0-1.6-0.3-2.4-1.4c-1.7-2.4-4.4-3.7-8-3.7
				c-4.6,0-8,2.4-8.4,6.1c-0.4,3.2,1,4.4,7.9,7.2L536.7,110.4z"/>
			<path class="st7" d="M558.6,97.2c-1.3,0-2.1-0.8-1.9-2.1c0.2-1.2,1.1-2.1,2.5-2.1h29.8c1.3,0,2.1,0.9,1.9,2.1
				c-0.2,1.3-1.1,2.1-2.5,2.1h-12.1l-4.1,33.1c-0.2,1.3-1.5,2.2-3.1,2.2c-1.7,0-2.7-0.9-2.5-2.2l4.1-33.1H558.6z"/>
			<path class="st7" d="M601.7,117.9c-0.4,3.4-0.1,5.5,1.3,7.4c1.7,2.3,4.4,3.5,8,3.5c3.5,0,6.7-1.3,9.1-3.7
				c1.6-1.7,2.5-3.8,2.9-7.1l2.9-23.1c0.2-1.3,1.5-2.2,3.1-2.2c1.7,0,2.7,0.9,2.5,2.2l-2.9,23.8c-0.5,3.8-1.8,6.7-3.8,8.8
				c-3.9,3.9-8.4,5.7-14.3,5.7c-5.8,0-9.9-1.7-12.8-5.5c-1.7-2.2-2.3-5.1-1.8-9l2.9-23.8c0.2-1.3,1.4-2.2,3.1-2.2
				c1.6,0,2.7,0.9,2.5,2.2L601.7,117.9z"/>
			<path class="st7" d="M656.1,93c14.9,0,22.5,7.1,21,19.4c-0.9,7.5-5,13.5-11.4,16.7c-4,2-8.7,3-14.8,3h-3.4c-5,0-7.3-2.3-6.7-6.8
				l3.2-25.5c0.6-4.6,3.3-6.8,8.4-6.8H656.1z M646.4,125.2c-0.2,1.7,0.7,2.6,2.6,2.6h1.9c5.3,0,9.3-0.8,12.4-2.6
				c4.3-2.5,7.2-7.1,7.9-12.6c0.7-5.8-1.2-10.6-5.2-13c-2.6-1.6-6-2.3-11-2.3h-2.2c-1.9,0-3,0.9-3.2,2.6L646.4,125.2z"/>
			<path class="st7" d="M686,97.1c-0.6-0.8-0.8-1.6-0.7-2.2c0.2-1.2,1.7-2.3,3.3-2.3c1.1,0,1.8,0.4,2.4,1.6l9.6,15.6l13.4-15.6
				c1-1.1,1.8-1.6,2.8-1.6c1.6,0,2.9,1.1,2.8,2.3c-0.1,0.7-0.5,1.3-1.3,2.2L702.9,114l-2,16.3c-0.2,1.3-1.5,2.2-3.1,2.2
				c-1.7,0-2.7-0.9-2.5-2.2l2-16.3L686,97.1z"/>
			<path class="st7" d="M741.8,97.2c-1.3,0-2.1-0.8-1.9-2.1c0.2-1.2,1.1-2.1,2.5-2.1h29.8c1.3,0,2.1,0.9,1.9,2.1
				c-0.2,1.3-1.1,2.1-2.5,2.1h-12.1l-4.1,33.1c-0.2,1.3-1.5,2.2-3.1,2.2c-1.7,0-2.7-0.9-2.5-2.2l4.1-33.1H741.8z"/>
			<path class="st7" d="M815.6,112.5c-1.5,12.5-9.8,20.4-21.3,20.4c-11.6,0-17.8-7.9-16.3-20.5c1.5-12.4,9.9-20.3,21.4-20.3
				C810.8,92.2,817.2,100.2,815.6,112.5z M784,112.5c-1.2,9.7,3.1,16.1,10.8,16.1s13.6-6.5,14.8-16.1c1.2-9.8-3-16.1-10.9-16.1
				C791,96.3,785.2,102.7,784,112.5z"/>
			<path class="st7" d="M831.3,117.9c-0.4,3.4-0.1,5.5,1.3,7.4c1.7,2.3,4.4,3.5,8,3.5c3.5,0,6.7-1.3,9.1-3.7
				c1.6-1.7,2.5-3.8,2.9-7.1l2.9-23.1c0.2-1.3,1.5-2.2,3.1-2.2c1.7,0,2.7,0.9,2.5,2.2l-2.9,23.8c-0.5,3.8-1.8,6.7-3.8,8.8
				c-3.9,3.9-8.4,5.7-14.3,5.7c-5.8,0-9.9-1.7-12.8-5.5c-1.7-2.2-2.3-5.1-1.8-9l2.9-23.8c0.2-1.3,1.4-2.2,3.1-2.2
				c1.6,0,2.7,0.9,2.5,2.2L831.3,117.9z"/>
			<path class="st7" d="M875.2,130.3c-0.2,1.3-1.5,2.2-3.1,2.2c-1.6,0-2.7-0.9-2.5-2.2l3.8-31c0.5-4.2,3.1-6.3,7.8-6.3h5.6
				c4.1,0,7.4,0.6,9.8,1.9c3.5,1.8,5.2,5.1,4.8,8.9c-0.6,5.2-5.3,8.9-12.4,9.9l0,0.2c2.6,1,4.3,2.3,5.9,4.7c3.1,4.9,5.8,10.5,5.6,12
				c-0.1,1.1-1.6,2-3.3,2c-1.7,0-2.1-0.4-3-2.7c-5.1-12.2-7.1-14.5-13.2-14.5h-3.8L875.2,130.3z M883,111.4c7.4,0,11.9-2.7,12.5-7.4
				c0.5-4.4-3.1-7-10.1-7h-3.6c-1.6,0-2.5,0.7-2.7,2.1l-1.5,12.2H883z"/>
		</g>
		<g class="st2">
			<path class="st4" d="M310,89.1c0.1-0.9,1-1.6,2-1.6c1,0,1.7,0.7,1.6,1.6l-0.8,5.9h6c0.8,0,1.4,0.7,1.3,1.7
				c-0.1,0.9-0.9,1.7-1.7,1.7h-6l-0.9,6.6h7c0.8,0,1.4,0.7,1.3,1.7c-0.1,0.9-0.9,1.7-1.7,1.7h-6.8l-0.8,5.9h5.5
				c0.8,0,1.4,0.7,1.3,1.7c-0.1,0.9-0.9,1.7-1.7,1.7h-5.5l-1.3,9.9c3,2,7.6,2.9,16.3,2.9c3.5,0,13.2-0.4,15.6-0.7
				c0.2-0.1,0.4-0.1,0.5-0.1c1,0,1.6,0.8,1.4,1.9c-0.1,1.1-0.9,2-1.9,2.1c-0.7,0.1-11.1,0.4-14.8,0.4c-12.2,0-16-0.7-19.9-3.9
				c-2.1-1.7-3.3-3.4-4.6-6c-1.2,3.6-2.8,7.1-4.5,9.8c-0.6,0.9-1.2,1.3-2,1.3c-1.1,0-1.9-0.8-1.8-1.8c0.1-0.4,0.1-0.5,0.7-1.5
				c3.1-5.2,5.7-12.1,7-18.7c0.2-0.9,0.9-1.5,1.9-1.5c1.3,0,1.8,0.6,1.7,1.8c-0.2,1.7-0.7,3.5-1.6,6.5c0.8,1.6,1.8,3.2,2.8,4.5
				l2.1-16.1H299c-0.9,0-1.4-0.7-1.3-1.7c0.1-1,0.9-1.7,1.7-1.7h8.4l0.9-6.6h-6.9c-0.9,0-1.4-0.7-1.3-1.7c0.1-1,0.9-1.7,1.7-1.7h6.9
				L310,89.1z M321.7,100.8c0.3-2.4,1.6-3.5,4-3.5h4.7c0.4-3.6,0.6-6.5,0.8-7.4c0.2-1.6,0.9-2.3,2.1-2.3c0.9,0,1.6,0.6,1.5,1.4
				c0,0.2,0,0.4-0.2,1.8c-0.1,0.9-0.5,4.6-0.6,6.5h10.2c0.8,0,1.4,0.7,1.3,1.7c-0.1,0.9-0.9,1.7-1.7,1.7h-10
				c-0.4,5.9-0.2,10.1,0.3,13.9c1.8-3,3.4-6.2,4.8-9.7c0.5-1.2,1-1.6,1.8-1.6c1.1,0,1.8,0.7,1.7,1.6c-0.1,0.6-1.5,3.9-2.8,6.4
				c-1.3,2.5-2.6,4.6-4.5,7.3c1,2.8,2.1,4.5,2.9,4.5c0.5,0,1.2-1.4,2.1-4.4c0.4-1.3,0.8-1.7,1.8-1.7c1.1,0,1.7,0.7,1.6,1.7
				c-0.2,1.2-1.7,5.4-2.6,7.3c-0.8,1.5-1.7,2.3-2.8,2.3c-1.8,0-4.1-2.8-5.5-6.7c-3.7,4.1-8.5,7.8-10,7.8c-0.9,0-1.6-0.9-1.5-1.9
				c0.1-0.7,0.3-0.9,1.7-1.9c3.7-2.7,6.3-5,8.5-7.4c-1.1-4.3-1.4-9.5-1.1-17.3h-3.9c-0.7,0-1.1,0.3-1.2,1.1l-2.1,16.1
				c0.9-0.3,2.7-1.1,3.8-1.6c0.4-0.2,0.7-0.3,1-0.3c0.8,0,1.4,0.8,1.2,1.7c-0.1,0.9-1.2,1.6-5.9,3.6c-3.3,1.4-6.6,2.6-7.2,2.6
				c-0.9,0-1.6-0.9-1.5-1.9c0.1-0.8,0.6-1.3,1.7-1.6c0.5-0.2,1.3-0.4,2.5-0.9l0.7-0.2L321.7,100.8z M341.5,91c1,1.6,1.7,3.3,1.6,3.9
				c-0.1,1.1-1,1.8-2.1,1.8c-0.8,0-1.1-0.3-1.5-1.2c-0.5-1.2-1-2.1-1.7-3.3c-0.4-0.7-0.5-0.9-0.4-1.4c0.1-0.8,1.1-1.7,2-1.7
				C340.2,89.3,340.7,89.6,341.5,91z"/>
			<path class="st4" d="M355.7,133.9c-0.1,0.9-1,1.7-2.1,1.7s-1.7-0.7-1.6-1.7l3.5-26.4c0.3-2.5,1.7-3.7,4.2-3.7h11.2
				c2.5,0,3.6,1.2,3.2,3.7l-3.1,23.9c-0.4,2.7-1.3,3.5-4.7,3.5c-4.2,0-5.6-0.5-5.3-2.1c0.1-1.1,0.8-1.7,1.6-1.7c0.1,0,0.2,0,0.5,0.1
				c0.9,0.1,2.3,0.2,2.9,0.2c1.1,0,1.4-0.3,1.5-1.2l0.9-7h-11.3L355.7,133.9z M399,96.3c0.9,0,1.5,0.7,1.3,1.7s-0.9,1.7-1.8,1.7
				h-44.9c-0.9,0-1.5-0.7-1.3-1.7c0.1-1,0.9-1.7,1.8-1.7h26.1c2.1-3.2,3.3-5.2,4.4-7.4c0.5-0.9,1.2-1.4,2-1.4c1.3,0,2.3,0.9,2.1,2
				c-0.1,0.7-1.5,3-4.3,6.7H399z M357.5,119.9h11.3l0.7-5h-11.3L357.5,119.9z M370.4,108.1c0.1-0.7-0.2-1.1-1-1.1h-9.1
				c-0.7,0-1.1,0.3-1.2,1.1l-0.5,3.7h11.3L370.4,108.1z M370.3,90.7c0.6,1.5,1.1,2.8,1,3.5c-0.1,1.1-1.2,1.9-2.4,1.9
				c-0.6,0-1.2-0.3-1.4-0.8c-0.1-0.2-0.1-0.2-0.8-1.9c-0.5-1.2-0.8-1.9-1.1-2.5c-0.3-0.6-0.4-0.9-0.4-1.3c0.1-0.9,1.4-1.9,2.5-1.9
				C368.5,87.7,369.1,88.4,370.3,90.7z M381.7,124.5c-0.1,1-1,1.7-2.1,1.7c-1.1,0-1.8-0.7-1.7-1.7l2.4-18.2c0.1-1,1-1.7,2.1-1.7
				c1.1,0,1.8,0.7,1.7,1.7L381.7,124.5z M391.7,130.6c-0.4,3.3-1.7,4.2-5.5,4.2c-2.4,0-5.3-0.2-6.2-0.5c-1-0.3-1.4-0.9-1.3-1.9
				c0.1-1,0.8-1.6,1.6-1.6c0.1,0,0.2,0,0.6,0.1c1.6,0.2,3.8,0.3,5.1,0.3c1.4,0,1.8-0.4,2-1.7l3.2-24.6c0.1-1,1-1.7,2.2-1.7
				c1.1,0,1.8,0.7,1.7,1.7L391.7,130.6z"/>
			<path class="st4" d="M415.3,117.8c-0.2,1.5-5.1,10.4-8,14.5c-1.7,2.4-1.9,2.6-3.1,2.6c-1.3,0-2.1-0.9-2-2.2
				c0.1-0.6,0.1-0.6,1.2-2.1c2.2-2.9,4.7-7.1,7.9-13.3c0.6-1.1,1.1-1.5,2-1.5C414.6,115.8,415.4,116.7,415.3,117.8z M409.4,102.6
				c3.7,3.4,5.5,5.8,5.4,7.1c-0.1,1.1-1.2,2-2.4,2c-0.7,0-1-0.2-1.7-1c-1.4-1.8-3.2-3.8-4.3-4.8c-0.6-0.6-0.8-1.2-0.7-1.9
				c0.1-1.1,1.2-2.2,2.2-2.2C408.5,101.8,408.9,102,409.4,102.6z M416.4,93.7c1.7,1.9,2.3,2.9,2.2,3.9c-0.1,1.1-1.2,2-2.3,2
				c-0.8,0-1.1-0.2-1.7-1c-1.4-1.8-3.2-3.8-4.3-4.9c-0.5-0.5-0.7-1-0.6-1.5c0.1-1.1,1.3-2.2,2.3-2.2C412.7,90,414.1,91.2,416.4,93.7
				z M416.9,115.8c-0.8,0-1.3-0.7-1.2-1.6c0.1-0.9,0.8-1.6,1.6-1.6h4.4c0.9-3.3,1.2-4.6,2-7.8c0.5-2.5,1.6-3.4,4-3.4h16.5
				c1.1,0,2,0.3,2.6,0.8c0.7,0.7,0.9,1.4,0.6,3.5c-0.1,0.8-0.5,3.3-1,6.8h4.5c0.8,0,1.3,0.7,1.2,1.6c-0.1,0.9-0.8,1.6-1.6,1.6h-4.6
				c-0.3,2-0.9,4.8-1.7,8.6h4.2c0.8,0,1.3,0.7,1.2,1.6c-0.1,0.9-0.8,1.6-1.6,1.6h-4.5c-0.7,2.7-1,3.7-1.3,4.4c-1.1,2.1-2.7,3-5.4,3
				c-1.9,0-5.3-0.3-6.2-0.5c-0.9-0.2-1.4-0.9-1.3-1.8c0.1-1.1,0.9-1.7,1.8-1.7c0.1,0,0.1,0,0.6,0.1c1.7,0.2,3.8,0.3,4.7,0.3
				c1.9,0,2.5-0.6,3.2-3.2l0.1-0.6H421c-2.2,0-3.2-0.9-3-2.7c0-0.4,0.1-0.6,0.4-1.5c0.7-2.1,1.4-4.4,2.3-7.6H416.9z M451.5,93.4
				c0.8,0,1.4,0.7,1.3,1.7c-0.1,0.9-0.9,1.7-1.7,1.7h-24.5c-2.4,3.9-3.9,6-6.5,8.9c-0.6,0.7-1.1,0.9-1.6,0.9c-1.1,0-2-1-1.9-2
				c0.1-0.6,0.2-0.8,1.1-1.7c3.7-4,6.5-8.3,9.1-13.9c0.4-0.9,1-1.4,1.9-1.4c1.2,0,2,0.7,1.8,1.6c-0.1,0.5-0.6,1.6-1.9,4.3H451.5z
				 M424.1,117.3l-0.6,2c-0.4,1.3-0.8,2.7-1.2,4c-0.1,0.3-0.1,0.3-0.1,0.4c-0.1,0.5,0.3,0.7,1.1,0.7h6.1c1-4.3,1.3-5.5,2-8.6h-6.8
				L424.1,117.3z M432,112.7c0.6-2.7,0.9-4.1,1.6-8h-5.2c-1.1,0.1-1.2,0.3-1.5,1.7c-0.4,1.6-0.6,2.5-1.2,4.9l-0.3,1.4H432z
				 M440.4,124.4c0.7-3.2,1.2-5.8,1.7-8.6h-7c-0.6,3-1.3,6.3-1.9,8.6H440.4z M442.5,112.7c0.4-2.2,0.9-5.2,1.1-6.7
				c0.1-0.9-0.1-1.3-0.9-1.3h-5.5l-0.2,1.2l-0.3,1.4c-0.2,1.2-0.2,1.4-0.7,3.8l-0.3,1.5H442.5z"/>
			<path class="st4" d="M503.9,104c0.9,0,1.5,0.7,1.3,1.7c-0.1,1-0.9,1.7-1.8,1.7h-34.9c-0.7,0-1.1,0.3-1.2,1.1l-0.6,4.5
				c-1.1,8.3-2.5,13-5.1,17c-0.7,1.1-1.9,2.7-2.8,3.7c-0.5,0.6-1.3,0.9-2,0.9c-1.2,0-2-0.8-1.8-1.9c0.1-0.7,0.1-0.7,2-3
				c3.2-4,4.6-8,5.7-16.6l0.7-5.2c0.4-2.7,1.8-4,4.5-4H503.9z M483.1,89.3c0.1-1,1-1.7,2.2-1.7c1.1,0,1.8,0.7,1.7,1.7l-1,7.7h11.3
				c0.7,0,1.2-0.4,1.2-1.1l0.6-4.5c0.1-1,1-1.7,2.2-1.7c1.1,0,1.8,0.7,1.7,1.7l-0.7,5.1c-0.3,2.6-1.8,3.9-4.4,3.9h-28.4
				c-2.6,0-3.7-1.3-3.4-3.9l0.7-5.1c0.1-1,1-1.7,2.2-1.7c1.1,0,1.8,0.7,1.7,1.7l-0.6,4.5c-0.1,0.7,0.2,1.2,1,1.2h11L483.1,89.3z
				 M471.4,115c-0.9,0-1.4-0.7-1.3-1.7c0.1-1,0.9-1.7,1.7-1.7h28c0.8,0,1.4,0.7,1.3,1.7c-0.1,0.9-0.9,1.7-1.7,1.7h-12.7l-0.7,5.3
				h16.6c0.9,0,1.5,0.7,1.3,1.7c-0.1,1-0.9,1.7-1.8,1.7h-16.6l-1.3,10.1c-0.1,1-1.1,1.7-2.2,1.7c-1.2,0-1.9-0.7-1.7-1.7l1.3-10.1
				h-14.1c-0.9,0-1.5-0.7-1.3-1.7c0.1-1,0.9-1.7,1.8-1.7h14.1l0.7-5.3H471.4z"/>
		</g>
		<g class="st2">
			<path class="st8" d="M310,89.1c0.1-0.9,1-1.6,2-1.6c1,0,1.7,0.7,1.6,1.6l-0.8,5.9h6c0.8,0,1.4,0.7,1.3,1.7
				c-0.1,0.9-0.9,1.7-1.7,1.7h-6l-0.9,6.6h7c0.8,0,1.4,0.7,1.3,1.7c-0.1,0.9-0.9,1.7-1.7,1.7h-6.8l-0.8,5.9h5.5
				c0.8,0,1.4,0.7,1.3,1.7c-0.1,0.9-0.9,1.7-1.7,1.7h-5.5l-1.3,9.9c3,2,7.6,2.9,16.3,2.9c3.5,0,13.2-0.4,15.6-0.7
				c0.2-0.1,0.4-0.1,0.5-0.1c1,0,1.6,0.8,1.4,1.9c-0.1,1.1-0.9,2-1.9,2.1c-0.7,0.1-11.1,0.4-14.8,0.4c-12.2,0-16-0.7-19.9-3.9
				c-2.1-1.7-3.3-3.4-4.6-6c-1.2,3.6-2.8,7.1-4.5,9.8c-0.6,0.9-1.2,1.3-2,1.3c-1.1,0-1.9-0.8-1.8-1.8c0.1-0.4,0.1-0.5,0.7-1.5
				c3.1-5.2,5.7-12.1,7-18.7c0.2-0.9,0.9-1.5,1.9-1.5c1.3,0,1.8,0.6,1.7,1.8c-0.2,1.7-0.7,3.5-1.6,6.5c0.8,1.6,1.8,3.2,2.8,4.5
				l2.1-16.1H299c-0.9,0-1.4-0.7-1.3-1.7c0.1-1,0.9-1.7,1.7-1.7h8.4l0.9-6.6h-6.9c-0.9,0-1.4-0.7-1.3-1.7c0.1-1,0.9-1.7,1.7-1.7h6.9
				L310,89.1z M321.7,100.8c0.3-2.4,1.6-3.5,4-3.5h4.7c0.4-3.6,0.6-6.5,0.8-7.4c0.2-1.6,0.9-2.3,2.1-2.3c0.9,0,1.6,0.6,1.5,1.4
				c0,0.2,0,0.4-0.2,1.8c-0.1,0.9-0.5,4.6-0.6,6.5h10.2c0.8,0,1.4,0.7,1.3,1.7c-0.1,0.9-0.9,1.7-1.7,1.7h-10
				c-0.4,5.9-0.2,10.1,0.3,13.9c1.8-3,3.4-6.2,4.8-9.7c0.5-1.2,1-1.6,1.8-1.6c1.1,0,1.8,0.7,1.7,1.6c-0.1,0.6-1.5,3.9-2.8,6.4
				c-1.3,2.5-2.6,4.6-4.5,7.3c1,2.8,2.1,4.5,2.9,4.5c0.5,0,1.2-1.4,2.1-4.4c0.4-1.3,0.8-1.7,1.8-1.7c1.1,0,1.7,0.7,1.6,1.7
				c-0.2,1.2-1.7,5.4-2.6,7.3c-0.8,1.5-1.7,2.3-2.8,2.3c-1.8,0-4.1-2.8-5.5-6.7c-3.7,4.1-8.5,7.8-10,7.8c-0.9,0-1.6-0.9-1.5-1.9
				c0.1-0.7,0.3-0.9,1.7-1.9c3.7-2.7,6.3-5,8.5-7.4c-1.1-4.3-1.4-9.5-1.1-17.3h-3.9c-0.7,0-1.1,0.3-1.2,1.1l-2.1,16.1
				c0.9-0.3,2.7-1.1,3.8-1.6c0.4-0.2,0.7-0.3,1-0.3c0.8,0,1.4,0.8,1.2,1.7c-0.1,0.9-1.2,1.6-5.9,3.6c-3.3,1.4-6.6,2.6-7.2,2.6
				c-0.9,0-1.6-0.9-1.5-1.9c0.1-0.8,0.6-1.3,1.7-1.6c0.5-0.2,1.3-0.4,2.5-0.9l0.7-0.2L321.7,100.8z M341.5,91c1,1.6,1.7,3.3,1.6,3.9
				c-0.1,1.1-1,1.8-2.1,1.8c-0.8,0-1.1-0.3-1.5-1.2c-0.5-1.2-1-2.1-1.7-3.3c-0.4-0.7-0.5-0.9-0.4-1.4c0.1-0.8,1.1-1.7,2-1.7
				C340.2,89.3,340.7,89.6,341.5,91z"/>
			<path class="st8" d="M355.7,133.9c-0.1,0.9-1,1.7-2.1,1.7s-1.7-0.7-1.6-1.7l3.5-26.4c0.3-2.5,1.7-3.7,4.2-3.7h11.2
				c2.5,0,3.6,1.2,3.2,3.7l-3.1,23.9c-0.4,2.7-1.3,3.5-4.7,3.5c-4.2,0-5.6-0.5-5.3-2.1c0.1-1.1,0.8-1.7,1.6-1.7c0.1,0,0.2,0,0.5,0.1
				c0.9,0.1,2.3,0.2,2.9,0.2c1.1,0,1.4-0.3,1.5-1.2l0.9-7h-11.3L355.7,133.9z M399,96.3c0.9,0,1.5,0.7,1.3,1.7s-0.9,1.7-1.8,1.7
				h-44.9c-0.9,0-1.5-0.7-1.3-1.7c0.1-1,0.9-1.7,1.8-1.7h26.1c2.1-3.2,3.3-5.2,4.4-7.4c0.5-0.9,1.2-1.4,2-1.4c1.3,0,2.3,0.9,2.1,2
				c-0.1,0.7-1.5,3-4.3,6.7H399z M357.5,119.9h11.3l0.7-5h-11.3L357.5,119.9z M370.4,108.1c0.1-0.7-0.2-1.1-1-1.1h-9.1
				c-0.7,0-1.1,0.3-1.2,1.1l-0.5,3.7h11.3L370.4,108.1z M370.3,90.7c0.6,1.5,1.1,2.8,1,3.5c-0.1,1.1-1.2,1.9-2.4,1.9
				c-0.6,0-1.2-0.3-1.4-0.8c-0.1-0.2-0.1-0.2-0.8-1.9c-0.5-1.2-0.8-1.9-1.1-2.5c-0.3-0.6-0.4-0.9-0.4-1.3c0.1-0.9,1.4-1.9,2.5-1.9
				C368.5,87.7,369.1,88.4,370.3,90.7z M381.7,124.5c-0.1,1-1,1.7-2.1,1.7c-1.1,0-1.8-0.7-1.7-1.7l2.4-18.2c0.1-1,1-1.7,2.1-1.7
				c1.1,0,1.8,0.7,1.7,1.7L381.7,124.5z M391.7,130.6c-0.4,3.3-1.7,4.2-5.5,4.2c-2.4,0-5.3-0.2-6.2-0.5c-1-0.3-1.4-0.9-1.3-1.9
				c0.1-1,0.8-1.6,1.6-1.6c0.1,0,0.2,0,0.6,0.1c1.6,0.2,3.8,0.3,5.1,0.3c1.4,0,1.8-0.4,2-1.7l3.2-24.6c0.1-1,1-1.7,2.2-1.7
				c1.1,0,1.8,0.7,1.7,1.7L391.7,130.6z"/>
			<path class="st8" d="M415.3,117.8c-0.2,1.5-5.1,10.4-8,14.5c-1.7,2.4-1.9,2.6-3.1,2.6c-1.3,0-2.1-0.9-2-2.2
				c0.1-0.6,0.1-0.6,1.2-2.1c2.2-2.9,4.7-7.1,7.9-13.3c0.6-1.1,1.1-1.5,2-1.5C414.6,115.8,415.4,116.7,415.3,117.8z M409.4,102.6
				c3.7,3.4,5.5,5.8,5.4,7.1c-0.1,1.1-1.2,2-2.4,2c-0.7,0-1-0.2-1.7-1c-1.4-1.8-3.2-3.8-4.3-4.8c-0.6-0.6-0.8-1.2-0.7-1.9
				c0.1-1.1,1.2-2.2,2.2-2.2C408.5,101.8,408.9,102,409.4,102.6z M416.4,93.7c1.7,1.9,2.3,2.9,2.2,3.9c-0.1,1.1-1.2,2-2.3,2
				c-0.8,0-1.1-0.2-1.7-1c-1.4-1.8-3.2-3.8-4.3-4.9c-0.5-0.5-0.7-1-0.6-1.5c0.1-1.1,1.3-2.2,2.3-2.2C412.7,90,414.1,91.2,416.4,93.7
				z M416.9,115.8c-0.8,0-1.3-0.7-1.2-1.6c0.1-0.9,0.8-1.6,1.6-1.6h4.4c0.9-3.3,1.2-4.6,2-7.8c0.5-2.5,1.6-3.4,4-3.4h16.5
				c1.1,0,2,0.3,2.6,0.8c0.7,0.7,0.9,1.4,0.6,3.5c-0.1,0.8-0.5,3.3-1,6.8h4.5c0.8,0,1.3,0.7,1.2,1.6c-0.1,0.9-0.8,1.6-1.6,1.6h-4.6
				c-0.3,2-0.9,4.8-1.7,8.6h4.2c0.8,0,1.3,0.7,1.2,1.6c-0.1,0.9-0.8,1.6-1.6,1.6h-4.5c-0.7,2.7-1,3.7-1.3,4.4c-1.1,2.1-2.7,3-5.4,3
				c-1.9,0-5.3-0.3-6.2-0.5c-0.9-0.2-1.4-0.9-1.3-1.8c0.1-1.1,0.9-1.7,1.8-1.7c0.1,0,0.1,0,0.6,0.1c1.7,0.2,3.8,0.3,4.7,0.3
				c1.9,0,2.5-0.6,3.2-3.2l0.1-0.6H421c-2.2,0-3.2-0.9-3-2.7c0-0.4,0.1-0.6,0.4-1.5c0.7-2.1,1.4-4.4,2.3-7.6H416.9z M451.5,93.4
				c0.8,0,1.4,0.7,1.3,1.7c-0.1,0.9-0.9,1.7-1.7,1.7h-24.5c-2.4,3.9-3.9,6-6.5,8.9c-0.6,0.7-1.1,0.9-1.6,0.9c-1.1,0-2-1-1.9-2
				c0.1-0.6,0.2-0.8,1.1-1.7c3.7-4,6.5-8.3,9.1-13.9c0.4-0.9,1-1.4,1.9-1.4c1.2,0,2,0.7,1.8,1.6c-0.1,0.5-0.6,1.6-1.9,4.3H451.5z
				 M424.1,117.3l-0.6,2c-0.4,1.3-0.8,2.7-1.2,4c-0.1,0.3-0.1,0.3-0.1,0.4c-0.1,0.5,0.3,0.7,1.1,0.7h6.1c1-4.3,1.3-5.5,2-8.6h-6.8
				L424.1,117.3z M432,112.7c0.6-2.7,0.9-4.1,1.6-8h-5.2c-1.1,0.1-1.2,0.3-1.5,1.7c-0.4,1.6-0.6,2.5-1.2,4.9l-0.3,1.4H432z
				 M440.4,124.4c0.7-3.2,1.2-5.8,1.7-8.6h-7c-0.6,3-1.3,6.3-1.9,8.6H440.4z M442.5,112.7c0.4-2.2,0.9-5.2,1.1-6.7
				c0.1-0.9-0.1-1.3-0.9-1.3h-5.5l-0.2,1.2l-0.3,1.4c-0.2,1.2-0.2,1.4-0.7,3.8l-0.3,1.5H442.5z"/>
			<path class="st8" d="M503.9,104c0.9,0,1.5,0.7,1.3,1.7c-0.1,1-0.9,1.7-1.8,1.7h-34.9c-0.7,0-1.1,0.3-1.2,1.1l-0.6,4.5
				c-1.1,8.3-2.5,13-5.1,17c-0.7,1.1-1.9,2.7-2.8,3.7c-0.5,0.6-1.3,0.9-2,0.9c-1.2,0-2-0.8-1.8-1.9c0.1-0.7,0.1-0.7,2-3
				c3.2-4,4.6-8,5.7-16.6l0.7-5.2c0.4-2.7,1.8-4,4.5-4H503.9z M483.1,89.3c0.1-1,1-1.7,2.2-1.7c1.1,0,1.8,0.7,1.7,1.7l-1,7.7h11.3
				c0.7,0,1.2-0.4,1.2-1.1l0.6-4.5c0.1-1,1-1.7,2.2-1.7c1.1,0,1.8,0.7,1.7,1.7l-0.7,5.1c-0.3,2.6-1.8,3.9-4.4,3.9h-28.4
				c-2.6,0-3.7-1.3-3.4-3.9l0.7-5.1c0.1-1,1-1.7,2.2-1.7c1.1,0,1.8,0.7,1.7,1.7l-0.6,4.5c-0.1,0.7,0.2,1.2,1,1.2h11L483.1,89.3z
				 M471.4,115c-0.9,0-1.4-0.7-1.3-1.7c0.1-1,0.9-1.7,1.7-1.7h28c0.8,0,1.4,0.7,1.3,1.7c-0.1,0.9-0.9,1.7-1.7,1.7h-12.7l-0.7,5.3
				h16.6c0.9,0,1.5,0.7,1.3,1.7c-0.1,1-0.9,1.7-1.8,1.7h-16.6l-1.3,10.1c-0.1,1-1.1,1.7-2.2,1.7c-1.2,0-1.9-0.7-1.7-1.7l1.3-10.1
				h-14.1c-0.9,0-1.5-0.7-1.3-1.7c0.1-1,0.9-1.7,1.8-1.7h14.1l0.7-5.3H471.4z"/>
		</g>
		<g class="st2">
			<path class="st6" d="M310,89.1c0.1-0.9,1-1.6,2-1.6c1,0,1.7,0.7,1.6,1.6l-0.8,5.9h6c0.8,0,1.4,0.7,1.3,1.7
				c-0.1,0.9-0.9,1.7-1.7,1.7h-6l-0.9,6.6h7c0.8,0,1.4,0.7,1.3,1.7c-0.1,0.9-0.9,1.7-1.7,1.7h-6.8l-0.8,5.9h5.5
				c0.8,0,1.4,0.7,1.3,1.7c-0.1,0.9-0.9,1.7-1.7,1.7h-5.5l-1.3,9.9c3,2,7.6,2.9,16.3,2.9c3.5,0,13.2-0.4,15.6-0.7
				c0.2-0.1,0.4-0.1,0.5-0.1c1,0,1.6,0.8,1.4,1.9c-0.1,1.1-0.9,2-1.9,2.1c-0.7,0.1-11.1,0.4-14.8,0.4c-12.2,0-16-0.7-19.9-3.9
				c-2.1-1.7-3.3-3.4-4.6-6c-1.2,3.6-2.8,7.1-4.5,9.8c-0.6,0.9-1.2,1.3-2,1.3c-1.1,0-1.9-0.8-1.8-1.8c0.1-0.4,0.1-0.5,0.7-1.5
				c3.1-5.2,5.7-12.1,7-18.7c0.2-0.9,0.9-1.5,1.9-1.5c1.3,0,1.8,0.6,1.7,1.8c-0.2,1.7-0.7,3.5-1.6,6.5c0.8,1.6,1.8,3.2,2.8,4.5
				l2.1-16.1H299c-0.9,0-1.4-0.7-1.3-1.7c0.1-1,0.9-1.7,1.7-1.7h8.4l0.9-6.6h-6.9c-0.9,0-1.4-0.7-1.3-1.7c0.1-1,0.9-1.7,1.7-1.7h6.9
				L310,89.1z M321.7,100.8c0.3-2.4,1.6-3.5,4-3.5h4.7c0.4-3.6,0.6-6.5,0.8-7.4c0.2-1.6,0.9-2.3,2.1-2.3c0.9,0,1.6,0.6,1.5,1.4
				c0,0.2,0,0.4-0.2,1.8c-0.1,0.9-0.5,4.6-0.6,6.5h10.2c0.8,0,1.4,0.7,1.3,1.7c-0.1,0.9-0.9,1.7-1.7,1.7h-10
				c-0.4,5.9-0.2,10.1,0.3,13.9c1.8-3,3.4-6.2,4.8-9.7c0.5-1.2,1-1.6,1.8-1.6c1.1,0,1.8,0.7,1.7,1.6c-0.1,0.6-1.5,3.9-2.8,6.4
				c-1.3,2.5-2.6,4.6-4.5,7.3c1,2.8,2.1,4.5,2.9,4.5c0.5,0,1.2-1.4,2.1-4.4c0.4-1.3,0.8-1.7,1.8-1.7c1.1,0,1.7,0.7,1.6,1.7
				c-0.2,1.2-1.7,5.4-2.6,7.3c-0.8,1.5-1.7,2.3-2.8,2.3c-1.8,0-4.1-2.8-5.5-6.7c-3.7,4.1-8.5,7.8-10,7.8c-0.9,0-1.6-0.9-1.5-1.9
				c0.1-0.7,0.3-0.9,1.7-1.9c3.7-2.7,6.3-5,8.5-7.4c-1.1-4.3-1.4-9.5-1.1-17.3h-3.9c-0.7,0-1.1,0.3-1.2,1.1l-2.1,16.1
				c0.9-0.3,2.7-1.1,3.8-1.6c0.4-0.2,0.7-0.3,1-0.3c0.8,0,1.4,0.8,1.2,1.7c-0.1,0.9-1.2,1.6-5.9,3.6c-3.3,1.4-6.6,2.6-7.2,2.6
				c-0.9,0-1.6-0.9-1.5-1.9c0.1-0.8,0.6-1.3,1.7-1.6c0.5-0.2,1.3-0.4,2.5-0.9l0.7-0.2L321.7,100.8z M341.5,91c1,1.6,1.7,3.3,1.6,3.9
				c-0.1,1.1-1,1.8-2.1,1.8c-0.8,0-1.1-0.3-1.5-1.2c-0.5-1.2-1-2.1-1.7-3.3c-0.4-0.7-0.5-0.9-0.4-1.4c0.1-0.8,1.1-1.7,2-1.7
				C340.2,89.3,340.7,89.6,341.5,91z"/>
			<path class="st6" d="M355.7,133.9c-0.1,0.9-1,1.7-2.1,1.7s-1.7-0.7-1.6-1.7l3.5-26.4c0.3-2.5,1.7-3.7,4.2-3.7h11.2
				c2.5,0,3.6,1.2,3.2,3.7l-3.1,23.9c-0.4,2.7-1.3,3.5-4.7,3.5c-4.2,0-5.6-0.5-5.3-2.1c0.1-1.1,0.8-1.7,1.6-1.7c0.1,0,0.2,0,0.5,0.1
				c0.9,0.1,2.3,0.2,2.9,0.2c1.1,0,1.4-0.3,1.5-1.2l0.9-7h-11.3L355.7,133.9z M399,96.3c0.9,0,1.5,0.7,1.3,1.7s-0.9,1.7-1.8,1.7
				h-44.9c-0.9,0-1.5-0.7-1.3-1.7c0.1-1,0.9-1.7,1.8-1.7h26.1c2.1-3.2,3.3-5.2,4.4-7.4c0.5-0.9,1.2-1.4,2-1.4c1.3,0,2.3,0.9,2.1,2
				c-0.1,0.7-1.5,3-4.3,6.7H399z M357.5,119.9h11.3l0.7-5h-11.3L357.5,119.9z M370.4,108.1c0.1-0.7-0.2-1.1-1-1.1h-9.1
				c-0.7,0-1.1,0.3-1.2,1.1l-0.5,3.7h11.3L370.4,108.1z M370.3,90.7c0.6,1.5,1.1,2.8,1,3.5c-0.1,1.1-1.2,1.9-2.4,1.9
				c-0.6,0-1.2-0.3-1.4-0.8c-0.1-0.2-0.1-0.2-0.8-1.9c-0.5-1.2-0.8-1.9-1.1-2.5c-0.3-0.6-0.4-0.9-0.4-1.3c0.1-0.9,1.4-1.9,2.5-1.9
				C368.5,87.7,369.1,88.4,370.3,90.7z M381.7,124.5c-0.1,1-1,1.7-2.1,1.7c-1.1,0-1.8-0.7-1.7-1.7l2.4-18.2c0.1-1,1-1.7,2.1-1.7
				c1.1,0,1.8,0.7,1.7,1.7L381.7,124.5z M391.7,130.6c-0.4,3.3-1.7,4.2-5.5,4.2c-2.4,0-5.3-0.2-6.2-0.5c-1-0.3-1.4-0.9-1.3-1.9
				c0.1-1,0.8-1.6,1.6-1.6c0.1,0,0.2,0,0.6,0.1c1.6,0.2,3.8,0.3,5.1,0.3c1.4,0,1.8-0.4,2-1.7l3.2-24.6c0.1-1,1-1.7,2.2-1.7
				c1.1,0,1.8,0.7,1.7,1.7L391.7,130.6z"/>
			<path class="st6" d="M415.3,117.8c-0.2,1.5-5.1,10.4-8,14.5c-1.7,2.4-1.9,2.6-3.1,2.6c-1.3,0-2.1-0.9-2-2.2
				c0.1-0.6,0.1-0.6,1.2-2.1c2.2-2.9,4.7-7.1,7.9-13.3c0.6-1.1,1.1-1.5,2-1.5C414.6,115.8,415.4,116.7,415.3,117.8z M409.4,102.6
				c3.7,3.4,5.5,5.8,5.4,7.1c-0.1,1.1-1.2,2-2.4,2c-0.7,0-1-0.2-1.7-1c-1.4-1.8-3.2-3.8-4.3-4.8c-0.6-0.6-0.8-1.2-0.7-1.9
				c0.1-1.1,1.2-2.2,2.2-2.2C408.5,101.8,408.9,102,409.4,102.6z M416.4,93.7c1.7,1.9,2.3,2.9,2.2,3.9c-0.1,1.1-1.2,2-2.3,2
				c-0.8,0-1.1-0.2-1.7-1c-1.4-1.8-3.2-3.8-4.3-4.9c-0.5-0.5-0.7-1-0.6-1.5c0.1-1.1,1.3-2.2,2.3-2.2C412.7,90,414.1,91.2,416.4,93.7
				z M416.9,115.8c-0.8,0-1.3-0.7-1.2-1.6c0.1-0.9,0.8-1.6,1.6-1.6h4.4c0.9-3.3,1.2-4.6,2-7.8c0.5-2.5,1.6-3.4,4-3.4h16.5
				c1.1,0,2,0.3,2.6,0.8c0.7,0.7,0.9,1.4,0.6,3.5c-0.1,0.8-0.5,3.3-1,6.8h4.5c0.8,0,1.3,0.7,1.2,1.6c-0.1,0.9-0.8,1.6-1.6,1.6h-4.6
				c-0.3,2-0.9,4.8-1.7,8.6h4.2c0.8,0,1.3,0.7,1.2,1.6c-0.1,0.9-0.8,1.6-1.6,1.6h-4.5c-0.7,2.7-1,3.7-1.3,4.4c-1.1,2.1-2.7,3-5.4,3
				c-1.9,0-5.3-0.3-6.2-0.5c-0.9-0.2-1.4-0.9-1.3-1.8c0.1-1.1,0.9-1.7,1.8-1.7c0.1,0,0.1,0,0.6,0.1c1.7,0.2,3.8,0.3,4.7,0.3
				c1.9,0,2.5-0.6,3.2-3.2l0.1-0.6H421c-2.2,0-3.2-0.9-3-2.7c0-0.4,0.1-0.6,0.4-1.5c0.7-2.1,1.4-4.4,2.3-7.6H416.9z M451.5,93.4
				c0.8,0,1.4,0.7,1.3,1.7c-0.1,0.9-0.9,1.7-1.7,1.7h-24.5c-2.4,3.9-3.9,6-6.5,8.9c-0.6,0.7-1.1,0.9-1.6,0.9c-1.1,0-2-1-1.9-2
				c0.1-0.6,0.2-0.8,1.1-1.7c3.7-4,6.5-8.3,9.1-13.9c0.4-0.9,1-1.4,1.9-1.4c1.2,0,2,0.7,1.8,1.6c-0.1,0.5-0.6,1.6-1.9,4.3H451.5z
				 M424.1,117.3l-0.6,2c-0.4,1.3-0.8,2.7-1.2,4c-0.1,0.3-0.1,0.3-0.1,0.4c-0.1,0.5,0.3,0.7,1.1,0.7h6.1c1-4.3,1.3-5.5,2-8.6h-6.8
				L424.1,117.3z M432,112.7c0.6-2.7,0.9-4.1,1.6-8h-5.2c-1.1,0.1-1.2,0.3-1.5,1.7c-0.4,1.6-0.6,2.5-1.2,4.9l-0.3,1.4H432z
				 M440.4,124.4c0.7-3.2,1.2-5.8,1.7-8.6h-7c-0.6,3-1.3,6.3-1.9,8.6H440.4z M442.5,112.7c0.4-2.2,0.9-5.2,1.1-6.7
				c0.1-0.9-0.1-1.3-0.9-1.3h-5.5l-0.2,1.2l-0.3,1.4c-0.2,1.2-0.2,1.4-0.7,3.8l-0.3,1.5H442.5z"/>
			<path class="st6" d="M503.9,104c0.9,0,1.5,0.7,1.3,1.7c-0.1,1-0.9,1.7-1.8,1.7h-34.9c-0.7,0-1.1,0.3-1.2,1.1l-0.6,4.5
				c-1.1,8.3-2.5,13-5.1,17c-0.7,1.1-1.9,2.7-2.8,3.7c-0.5,0.6-1.3,0.9-2,0.9c-1.2,0-2-0.8-1.8-1.9c0.1-0.7,0.1-0.7,2-3
				c3.2-4,4.6-8,5.7-16.6l0.7-5.2c0.4-2.7,1.8-4,4.5-4H503.9z M483.1,89.3c0.1-1,1-1.7,2.2-1.7c1.1,0,1.8,0.7,1.7,1.7l-1,7.7h11.3
				c0.7,0,1.2-0.4,1.2-1.1l0.6-4.5c0.1-1,1-1.7,2.2-1.7c1.1,0,1.8,0.7,1.7,1.7l-0.7,5.1c-0.3,2.6-1.8,3.9-4.4,3.9h-28.4
				c-2.6,0-3.7-1.3-3.4-3.9l0.7-5.1c0.1-1,1-1.7,2.2-1.7c1.1,0,1.8,0.7,1.7,1.7l-0.6,4.5c-0.1,0.7,0.2,1.2,1,1.2h11L483.1,89.3z
				 M471.4,115c-0.9,0-1.4-0.7-1.3-1.7c0.1-1,0.9-1.7,1.7-1.7h28c0.8,0,1.4,0.7,1.3,1.7c-0.1,0.9-0.9,1.7-1.7,1.7h-12.7l-0.7,5.3
				h16.6c0.9,0,1.5,0.7,1.3,1.7c-0.1,1-0.9,1.7-1.8,1.7h-16.6l-1.3,10.1c-0.1,1-1.1,1.7-2.2,1.7c-1.2,0-1.9-0.7-1.7-1.7l1.3-10.1
				h-14.1c-0.9,0-1.5-0.7-1.3-1.7c0.1-1,0.9-1.7,1.8-1.7h14.1l0.7-5.3H471.4z"/>
		</g>
		<g class="st2">
			<path class="st9" d="M310,89.1c0.1-0.9,1-1.6,2-1.6c1,0,1.7,0.7,1.6,1.6l-0.8,5.9h6c0.8,0,1.4,0.7,1.3,1.7
				c-0.1,0.9-0.9,1.7-1.7,1.7h-6l-0.9,6.6h7c0.8,0,1.4,0.7,1.3,1.7c-0.1,0.9-0.9,1.7-1.7,1.7h-6.8l-0.8,5.9h5.5
				c0.8,0,1.4,0.7,1.3,1.7c-0.1,0.9-0.9,1.7-1.7,1.7h-5.5l-1.3,9.9c3,2,7.6,2.9,16.3,2.9c3.5,0,13.2-0.4,15.6-0.7
				c0.2-0.1,0.4-0.1,0.5-0.1c1,0,1.6,0.8,1.4,1.9c-0.1,1.1-0.9,2-1.9,2.1c-0.7,0.1-11.1,0.4-14.8,0.4c-12.2,0-16-0.7-19.9-3.9
				c-2.1-1.7-3.3-3.4-4.6-6c-1.2,3.6-2.8,7.1-4.5,9.8c-0.6,0.9-1.2,1.3-2,1.3c-1.1,0-1.9-0.8-1.8-1.8c0.1-0.4,0.1-0.5,0.7-1.5
				c3.1-5.2,5.7-12.1,7-18.7c0.2-0.9,0.9-1.5,1.9-1.5c1.3,0,1.8,0.6,1.7,1.8c-0.2,1.7-0.7,3.5-1.6,6.5c0.8,1.6,1.8,3.2,2.8,4.5
				l2.1-16.1H299c-0.9,0-1.4-0.7-1.3-1.7c0.1-1,0.9-1.7,1.7-1.7h8.4l0.9-6.6h-6.9c-0.9,0-1.4-0.7-1.3-1.7c0.1-1,0.9-1.7,1.7-1.7h6.9
				L310,89.1z M321.7,100.8c0.3-2.4,1.6-3.5,4-3.5h4.7c0.4-3.6,0.6-6.5,0.8-7.4c0.2-1.6,0.9-2.3,2.1-2.3c0.9,0,1.6,0.6,1.5,1.4
				c0,0.2,0,0.4-0.2,1.8c-0.1,0.9-0.5,4.6-0.6,6.5h10.2c0.8,0,1.4,0.7,1.3,1.7c-0.1,0.9-0.9,1.7-1.7,1.7h-10
				c-0.4,5.9-0.2,10.1,0.3,13.9c1.8-3,3.4-6.2,4.8-9.7c0.5-1.2,1-1.6,1.8-1.6c1.1,0,1.8,0.7,1.7,1.6c-0.1,0.6-1.5,3.9-2.8,6.4
				c-1.3,2.5-2.6,4.6-4.5,7.3c1,2.8,2.1,4.5,2.9,4.5c0.5,0,1.2-1.4,2.1-4.4c0.4-1.3,0.8-1.7,1.8-1.7c1.1,0,1.7,0.7,1.6,1.7
				c-0.2,1.2-1.7,5.4-2.6,7.3c-0.8,1.5-1.7,2.3-2.8,2.3c-1.8,0-4.1-2.8-5.5-6.7c-3.7,4.1-8.5,7.8-10,7.8c-0.9,0-1.6-0.9-1.5-1.9
				c0.1-0.7,0.3-0.9,1.7-1.9c3.7-2.7,6.3-5,8.5-7.4c-1.1-4.3-1.4-9.5-1.1-17.3h-3.9c-0.7,0-1.1,0.3-1.2,1.1l-2.1,16.1
				c0.9-0.3,2.7-1.1,3.8-1.6c0.4-0.2,0.7-0.3,1-0.3c0.8,0,1.4,0.8,1.2,1.7c-0.1,0.9-1.2,1.6-5.9,3.6c-3.3,1.4-6.6,2.6-7.2,2.6
				c-0.9,0-1.6-0.9-1.5-1.9c0.1-0.8,0.6-1.3,1.7-1.6c0.5-0.2,1.3-0.4,2.5-0.9l0.7-0.2L321.7,100.8z M341.5,91c1,1.6,1.7,3.3,1.6,3.9
				c-0.1,1.1-1,1.8-2.1,1.8c-0.8,0-1.1-0.3-1.5-1.2c-0.5-1.2-1-2.1-1.7-3.3c-0.4-0.7-0.5-0.9-0.4-1.4c0.1-0.8,1.1-1.7,2-1.7
				C340.2,89.3,340.7,89.6,341.5,91z"/>
			<path class="st9" d="M355.7,133.9c-0.1,0.9-1,1.7-2.1,1.7s-1.7-0.7-1.6-1.7l3.5-26.4c0.3-2.5,1.7-3.7,4.2-3.7h11.2
				c2.5,0,3.6,1.2,3.2,3.7l-3.1,23.9c-0.4,2.7-1.3,3.5-4.7,3.5c-4.2,0-5.6-0.5-5.3-2.1c0.1-1.1,0.8-1.7,1.6-1.7c0.1,0,0.2,0,0.5,0.1
				c0.9,0.1,2.3,0.2,2.9,0.2c1.1,0,1.4-0.3,1.5-1.2l0.9-7h-11.3L355.7,133.9z M399,96.3c0.9,0,1.5,0.7,1.3,1.7s-0.9,1.7-1.8,1.7
				h-44.9c-0.9,0-1.5-0.7-1.3-1.7c0.1-1,0.9-1.7,1.8-1.7h26.1c2.1-3.2,3.3-5.2,4.4-7.4c0.5-0.9,1.2-1.4,2-1.4c1.3,0,2.3,0.9,2.1,2
				c-0.1,0.7-1.5,3-4.3,6.7H399z M357.5,119.9h11.3l0.7-5h-11.3L357.5,119.9z M370.4,108.1c0.1-0.7-0.2-1.1-1-1.1h-9.1
				c-0.7,0-1.1,0.3-1.2,1.1l-0.5,3.7h11.3L370.4,108.1z M370.3,90.7c0.6,1.5,1.1,2.8,1,3.5c-0.1,1.1-1.2,1.9-2.4,1.9
				c-0.6,0-1.2-0.3-1.4-0.8c-0.1-0.2-0.1-0.2-0.8-1.9c-0.5-1.2-0.8-1.9-1.1-2.5c-0.3-0.6-0.4-0.9-0.4-1.3c0.1-0.9,1.4-1.9,2.5-1.9
				C368.5,87.7,369.1,88.4,370.3,90.7z M381.7,124.5c-0.1,1-1,1.7-2.1,1.7c-1.1,0-1.8-0.7-1.7-1.7l2.4-18.2c0.1-1,1-1.7,2.1-1.7
				c1.1,0,1.8,0.7,1.7,1.7L381.7,124.5z M391.7,130.6c-0.4,3.3-1.7,4.2-5.5,4.2c-2.4,0-5.3-0.2-6.2-0.5c-1-0.3-1.4-0.9-1.3-1.9
				c0.1-1,0.8-1.6,1.6-1.6c0.1,0,0.2,0,0.6,0.1c1.6,0.2,3.8,0.3,5.1,0.3c1.4,0,1.8-0.4,2-1.7l3.2-24.6c0.1-1,1-1.7,2.2-1.7
				c1.1,0,1.8,0.7,1.7,1.7L391.7,130.6z"/>
			<path class="st9" d="M415.3,117.8c-0.2,1.5-5.1,10.4-8,14.5c-1.7,2.4-1.9,2.6-3.1,2.6c-1.3,0-2.1-0.9-2-2.2
				c0.1-0.6,0.1-0.6,1.2-2.1c2.2-2.9,4.7-7.1,7.9-13.3c0.6-1.1,1.1-1.5,2-1.5C414.6,115.8,415.4,116.7,415.3,117.8z M409.4,102.6
				c3.7,3.4,5.5,5.8,5.4,7.1c-0.1,1.1-1.2,2-2.4,2c-0.7,0-1-0.2-1.7-1c-1.4-1.8-3.2-3.8-4.3-4.8c-0.6-0.6-0.8-1.2-0.7-1.9
				c0.1-1.1,1.2-2.2,2.2-2.2C408.5,101.8,408.9,102,409.4,102.6z M416.4,93.7c1.7,1.9,2.3,2.9,2.2,3.9c-0.1,1.1-1.2,2-2.3,2
				c-0.8,0-1.1-0.2-1.7-1c-1.4-1.8-3.2-3.8-4.3-4.9c-0.5-0.5-0.7-1-0.6-1.5c0.1-1.1,1.3-2.2,2.3-2.2C412.7,90,414.1,91.2,416.4,93.7
				z M416.9,115.8c-0.8,0-1.3-0.7-1.2-1.6c0.1-0.9,0.8-1.6,1.6-1.6h4.4c0.9-3.3,1.2-4.6,2-7.8c0.5-2.5,1.6-3.4,4-3.4h16.5
				c1.1,0,2,0.3,2.6,0.8c0.7,0.7,0.9,1.4,0.6,3.5c-0.1,0.8-0.5,3.3-1,6.8h4.5c0.8,0,1.3,0.7,1.2,1.6c-0.1,0.9-0.8,1.6-1.6,1.6h-4.6
				c-0.3,2-0.9,4.8-1.7,8.6h4.2c0.8,0,1.3,0.7,1.2,1.6c-0.1,0.9-0.8,1.6-1.6,1.6h-4.5c-0.7,2.7-1,3.7-1.3,4.4c-1.1,2.1-2.7,3-5.4,3
				c-1.9,0-5.3-0.3-6.2-0.5c-0.9-0.2-1.4-0.9-1.3-1.8c0.1-1.1,0.9-1.7,1.8-1.7c0.1,0,0.1,0,0.6,0.1c1.7,0.2,3.8,0.3,4.7,0.3
				c1.9,0,2.5-0.6,3.2-3.2l0.1-0.6H421c-2.2,0-3.2-0.9-3-2.7c0-0.4,0.1-0.6,0.4-1.5c0.7-2.1,1.4-4.4,2.3-7.6H416.9z M451.5,93.4
				c0.8,0,1.4,0.7,1.3,1.7c-0.1,0.9-0.9,1.7-1.7,1.7h-24.5c-2.4,3.9-3.9,6-6.5,8.9c-0.6,0.7-1.1,0.9-1.6,0.9c-1.1,0-2-1-1.9-2
				c0.1-0.6,0.2-0.8,1.1-1.7c3.7-4,6.5-8.3,9.1-13.9c0.4-0.9,1-1.4,1.9-1.4c1.2,0,2,0.7,1.8,1.6c-0.1,0.5-0.6,1.6-1.9,4.3H451.5z
				 M424.1,117.3l-0.6,2c-0.4,1.3-0.8,2.7-1.2,4c-0.1,0.3-0.1,0.3-0.1,0.4c-0.1,0.5,0.3,0.7,1.1,0.7h6.1c1-4.3,1.3-5.5,2-8.6h-6.8
				L424.1,117.3z M432,112.7c0.6-2.7,0.9-4.1,1.6-8h-5.2c-1.1,0.1-1.2,0.3-1.5,1.7c-0.4,1.6-0.6,2.5-1.2,4.9l-0.3,1.4H432z
				 M440.4,124.4c0.7-3.2,1.2-5.8,1.7-8.6h-7c-0.6,3-1.3,6.3-1.9,8.6H440.4z M442.5,112.7c0.4-2.2,0.9-5.2,1.1-6.7
				c0.1-0.9-0.1-1.3-0.9-1.3h-5.5l-0.2,1.2l-0.3,1.4c-0.2,1.2-0.2,1.4-0.7,3.8l-0.3,1.5H442.5z"/>
			<path class="st9" d="M503.9,104c0.9,0,1.5,0.7,1.3,1.7c-0.1,1-0.9,1.7-1.8,1.7h-34.9c-0.7,0-1.1,0.3-1.2,1.1l-0.6,4.5
				c-1.1,8.3-2.5,13-5.1,17c-0.7,1.1-1.9,2.7-2.8,3.7c-0.5,0.6-1.3,0.9-2,0.9c-1.2,0-2-0.8-1.8-1.9c0.1-0.7,0.1-0.7,2-3
				c3.2-4,4.6-8,5.7-16.6l0.7-5.2c0.4-2.7,1.8-4,4.5-4H503.9z M483.1,89.3c0.1-1,1-1.7,2.2-1.7c1.1,0,1.8,0.7,1.7,1.7l-1,7.7h11.3
				c0.7,0,1.2-0.4,1.2-1.1l0.6-4.5c0.1-1,1-1.7,2.2-1.7c1.1,0,1.8,0.7,1.7,1.7l-0.7,5.1c-0.3,2.6-1.8,3.9-4.4,3.9h-28.4
				c-2.6,0-3.7-1.3-3.4-3.9l0.7-5.1c0.1-1,1-1.7,2.2-1.7c1.1,0,1.8,0.7,1.7,1.7l-0.6,4.5c-0.1,0.7,0.2,1.2,1,1.2h11L483.1,89.3z
				 M471.4,115c-0.9,0-1.4-0.7-1.3-1.7c0.1-1,0.9-1.7,1.7-1.7h28c0.8,0,1.4,0.7,1.3,1.7c-0.1,0.9-0.9,1.7-1.7,1.7h-12.7l-0.7,5.3
				h16.6c0.9,0,1.5,0.7,1.3,1.7c-0.1,1-0.9,1.7-1.8,1.7h-16.6l-1.3,10.1c-0.1,1-1.1,1.7-2.2,1.7c-1.2,0-1.9-0.7-1.7-1.7l1.3-10.1
				h-14.1c-0.9,0-1.5-0.7-1.3-1.7c0.1-1,0.9-1.7,1.8-1.7h14.1l0.7-5.3H471.4z"/>
		</g>
		<path class="st10" d="M221.3,86c0.3,0.5,0.9,0.6,1.4,0.4c0.1,0,0.2-0.1,0.2-0.2c0.1-0.1,0.1-0.1,0.2-0.2c0.6-0.8,1.3-1.5,1.9-2.2
			c10.5-10.7,25.5-10.7,33.5,0c1.9,2.6,3.3,5.5,4.1,8.7c0.5,1.4-0.1,3-1.4,3.8c-0.2,0.1-0.4,0.2-0.5,0.3c-2.3,1.1-3-0.1-3.4-1.7
			c-2.7-10.7-12.9-15.8-22.7-11.2c-2.4,1.1-4.5,2.6-6.4,4.5c-1.9,2-3.5,4.2-4.7,6.7c-0.6,1.2-0.8,2.2-2.7,2.2
			c-1.8,0-1.9-1.1-2.2-2.2c-0.6-2.4-1.7-4.7-3.1-6.7c-6.2-8.2-17.8-8.2-25.9,0l0,0c-1.9,2-3.5,4.2-4.7,6.7c-0.8,1.6-1.6,2.8-3.7,1.7
			s-1.7-2.5-1-4.1c6.8-13.9,21.4-20.4,32.8-14.5c2.7,1.4,5,3.4,6.9,5.9C220.4,84.6,220.9,85.3,221.3,86z"/>
		<line class="st11" x1="259.7" y1="96.6" x2="255" y2="137"/>
		<path class="st10" d="M216.4,128.7c0.3,0.5,0.9,0.6,1.4,0.4c0.1,0,0.2-0.1,0.2-0.2c0.1-0.1,0.1-0.1,0.2-0.2
			c0.6-0.7,1.3-1.5,1.9-2.2c10.5-10.7,25.5-10.7,33.5,0c1.9,2.6,3.3,5.5,4.1,8.7c0.5,1.4-0.1,3-1.4,3.8c-0.2,0.1-0.4,0.2-0.6,0.2
			c-2.3,1.1-3-0.1-3.4-1.7c-2.7-10.7-12.9-15.8-22.7-11.2c-2.4,1.1-4.5,2.7-6.4,4.6c-1.9,2-3.5,4.2-4.7,6.7
			c-0.6,1.2-0.8,2.2-2.7,2.2c-1.8,0-1.9-1.1-2.2-2.2c-0.6-2.4-1.7-4.7-3.1-6.7c-6.2-8.2-17.8-8.3-25.9,0l0,0c-1.9,2-3.5,4.2-4.7,6.7
			c-0.8,1.6-1.6,2.7-3.7,1.7s-1.7-2.5-1-4.1c6.7-13.9,21.4-20.4,32.8-14.5c2.7,1.4,5,3.4,6.9,5.8C215.4,127.3,215.9,128,216.4,128.7
			z"/>
		<path class="st12" d="M222.9,86.2c0.1-0.1,0.1-0.1,0.2-0.2c0.6-0.8,1.3-1.5,1.9-2.2c10.5-10.7,25.5-10.7,33.5,0
			c1.9,2.6,3.3,5.5,4.1,8.7c0.5,1.4-0.1,3-1.4,3.8c-0.2,0.1-0.4,0.2-0.5,0.3c-2.3,1.1-3-0.1-3.4-1.7c-2.7-10.7-12.9-15.8-22.7-11.2
			c-2.4,1.1-4.5,2.6-6.4,4.5c-1.9,2-3.5,4.2-4.7,6.7c-0.6,1.2-0.8,2.2-2.7,2.2c-1.8,0-1.9-1.1-2.2-2.2
			C218,92.5,222.3,86.7,222.9,86.2z"/>
		<path class="st12" d="M179.2,128.9c0.1-0.1,0.1-0.1,0.2-0.2c0.6-0.7,1.3-1.5,1.9-2.2c10.5-10.7,25.5-10.7,33.5,0
			c1.9,2.6,3.3,5.5,4.1,8.7c0.5,1.4-0.1,3-1.4,3.8c-0.2,0.1-0.4,0.2-0.6,0.2c-2.3,1.1-3-0.1-3.4-1.7c-2.7-10.7-12.8-15.7-22.7-11.2
			c-2.4,1.1-4.5,2.6-6.4,4.5c-1.9,2-3.5,4.2-4.7,6.7c-0.6,1.2-0.8,2.2-2.7,2.2c-1.8,0-1.9-1.1-2.2-2.2
			C174.4,135.2,178.7,129.4,179.2,128.9z"/>
		<line class="st11" x1="257.4" y1="116.3" x2="255" y2="137"/>
		<line class="st13" x1="181.2" y1="96.6" x2="176.5" y2="137"/>
		<line class="st13" x1="220.9" y1="97.1" x2="216.2" y2="137.5"/>
	</g>
</g>
</svg>
