<svg xmlns="http://www.w3.org/2000/svg" viewBox="0 0 90 30"><defs><style>.cls-1{fill:#dcdcdc;}.cls-2{fill:none;}</style></defs><g id="レイヤー_2" data-name="レイヤー 2"><g id="section_2-4"><path class="cls-1" d="M43.57,11.73a1.91,1.91,0,0,0,2.72,0h0a23.82,23.82,0,0,1,26.12-5.1A24,24,0,0,1,85.1,19.29c.87,2.06,1.4,3.77-2.16,5.31s-4.43-.09-5.3-2.15a15.9,15.9,0,0,0-8.37-8.37,15.74,15.74,0,0,0-20.61,8.37c-.63,1.5-1.42,2.81-3.73,2.81S41.83,24,41.2,22.45a15.73,15.73,0,0,0-20.61-8.37,15.86,15.86,0,0,0-8.37,8.37c-.87,2.06-1.66,3.69-5.31,2.15-4.41-1.86-2.38-5.22-.59-8.16A24.3,24.3,0,0,1,17.56,6.56a23.82,23.82,0,0,1,9.15-1.82,23.86,23.86,0,0,1,16.85,7Z"/><rect class="cls-2" width="90" height="30"/></g></g></svg>