<?xml version="1.0" encoding="UTF-8"?> <svg xmlns="http://www.w3.org/2000/svg" viewBox="0 0 240 100"><defs><style>.cls-1{fill:#d0e8c5;}</style></defs><g id="レイヤー_1" data-name="レイヤー 1"><path class="cls-1" d="M156.79,26.51a1.9,1.9,0,0,0,3,0,37.63,37.63,0,0,1,2.81-3.13,39.18,39.18,0,0,1,63.78,12.45c1,2.27.67,4.5-2.37,5.84-3.52,1.56-4.89-.1-5.84-2.37a30.28,30.28,0,0,0-55.75,0c-.7,1.65-.87,3.17-4.11,3.17-2.89,0-3.41-1.52-4.1-3.17a30.28,30.28,0,0,0-55.75,0c-1,2.27-2,3.93-5.84,2.37-4-1.64-3.33-3.57-2.37-5.84A39.16,39.16,0,0,1,154,23.38,37.63,37.63,0,0,1,156.79,26.51Z"></path><path class="cls-1" d="M62.81,72.53a1.36,1.36,0,0,0,2.12,0,28.62,28.62,0,0,1,2-2.25,28.24,28.24,0,0,1,46,9c.69,1.63.48,3.24-1.71,4.21-2.53,1.12-3.52-.07-4.21-1.71a21.81,21.81,0,0,0-40.17,0c-.5,1.19-.63,2.28-3,2.28-2.09,0-2.46-1.09-3-2.28a21.81,21.81,0,0,0-40.17,0c-.69,1.64-1.48,2.83-4.21,1.71-2.89-1.18-2.4-2.58-1.71-4.21a28.21,28.21,0,0,1,46-9A28.62,28.62,0,0,1,62.81,72.53Z"></path></g></svg> 