<svg xmlns="http://www.w3.org/2000/svg" viewBox="0 0 80 80"><defs><style>.cls-1{fill:none;stroke-width:2.5px;}.cls-1,.cls-2{stroke:#37bef0;stroke-linecap:round;stroke-linejoin:round;}.cls-2{fill:#37bef0;stroke-width:0.5px;}</style></defs><g id="レイヤー_1" data-name="レイヤー 1"><line class="cls-1" x1="19.44" y1="19.59" x2="69.11" y2="19.59"/><line class="cls-1" x1="13.37" y1="48.56" x2="63.04" y2="48.56"/><line class="cls-1" x1="10.89" y1="60.41" x2="60.56" y2="60.41"/><path class="cls-2" d="M18.36,29h1.5l.92,5.72.36,2.19h.06l1.14-2.19L25.49,29H27L24.87,39.6h-1.2l1.21-6c.21-1,.52-2.19.77-3.11h-.06l-1.28,2.35-3.13,5.63h-.7l-1-5.63-.36-2.35h-.06c-.13.94-.27,2.16-.45,3.11l-1.2,6H16.24Z"/><path class="cls-2" d="M33.07,29h5.84l-.21,1.06H34.1l-.69,3.43h3.9l-.21,1.07H33.22l-.82,4h4.75l-.22,1.06h-6Z"/><path class="cls-2" d="M44.51,29h1.26l2.41,6.79L48.86,38h.07c.14-1,.26-2.29.48-3.39L50.54,29h1.21L49.63,39.6H48.38L46,32.83l-.69-2.28h-.06c-.14,1.09-.3,2.27-.52,3.35l-1.13,5.7H42.38Z"/><path class="cls-2" d="M57.77,29H59l-1.21,6.06a5.6,5.6,0,0,0-.15,1.28c0,1.51.67,2.37,2.15,2.37,1.22,0,2.25-.9,2.7-3.22L63.82,29h1.24l-1.32,6.55c-.61,3.05-2.09,4.24-4,4.24a3,3,0,0,1-3.34-3.35A8.4,8.4,0,0,1,56.58,35Z"/></g></svg>