<?xml version="1.0" encoding="UTF-8" standalone="no"?>
<svg
   viewBox="0 0 100 100"
   version="1.1"
   id="svg74"
   sodipodi:docname="renovation.svg"
   inkscape:version="1.1 (c68e22c387, 2021-05-23)"
   xmlns:inkscape="http://www.inkscape.org/namespaces/inkscape"
   xmlns:sodipodi="http://sodipodi.sourceforge.net/DTD/sodipodi-0.dtd"
   xmlns="http://www.w3.org/2000/svg"
   xmlns:svg="http://www.w3.org/2000/svg">
  <sodipodi:namedview
     id="namedview76"
     pagecolor="#ffffff"
     bordercolor="#666666"
     borderopacity="1.0"
     inkscape:pageshadow="2"
     inkscape:pageopacity="0.0"
     inkscape:pagecheckerboard="0"
     showgrid="false"
     inkscape:zoom="8.42"
     inkscape:cx="50"
     inkscape:cy="50"
     inkscape:window-width="1920"
     inkscape:window-height="1046"
     inkscape:window-x="-11"
     inkscape:window-y="-11"
     inkscape:window-maximized="1"
     inkscape:current-layer="svg74" />
  <defs
     id="defs4">
    <style
       id="style2">.cls-1{fill:#e0e0e0;}.cls-2{fill:#b48a6d;}.cls-3{fill:#c2a083;}.cls-4{fill:#b4836d;}.cls-5{fill:none;stroke:#736357;stroke-miterlimit:10;stroke-width:0.25px;}.cls-6{fill:#5a7f84;}.cls-7{fill:#4d5f6d;}.cls-8{fill:#fff;}.cls-9{fill:#b7b4a9;}.cls-10{fill:#688084;}.cls-11{fill:#5e576a;}.cls-12{fill:#6f6f6f;}</style>
  </defs>
  <polygon
     class="cls-2"
     points="36.51,58.61 36.21,63.44 19.59,59.51 19.29,54.98 "
     id="polygon8" />
  <path
     class="cls-3"
     d="M 36.51,58.61 19.28,55 C 20.8,55 63.1,37.46 63.1,37.46 l 10.57,3.32 z"
     id="path10" />
  <polygon
     class="cls-4"
     points="36.51,58.61 73.67,40.78 73.98,45.01 36.21,63.44 "
     id="polygon12" />
  <path
     class="cls-5"
     d="m 60,41.18 c 0,0 -10.88,5 -13.19,6.11 -2.31,1.11 -13.51,4.53 -13.51,4.53 0,0 -2.51,1 -4.33,1.85"
     id="path14" />
  <path
     class="cls-5"
     d="m 52.32,47.23 c 0,0 -4,1.73 -6.54,2.62 -2.54,0.89 -5.4,1.76 -6.65,2.12 -1.25,0.36 -8.07,2.32 -5,2.41 3.07,0.09 6.77,-1.18 8.21,-1.53 a 28.37,28.37 0 0 0 3.76,-1.42"
     id="path16" />
  <path
     class="cls-5"
     d="m 59.56,43.66 c 0,0 7.32,-3.52 5.85,-2.34 -1.95,1.56 -6.78,3.82 -7.38,3.78 -0.6,-0.04 0.27,-0.91 1.53,-1.44 z"
     id="path18" />
  <path
     class="cls-5"
     d="m 47.77,50.38 c 0,0 0.45,-0.59 2.74,-1.34 2.29,-0.75 6.26,-2.46 6.26,-2.46"
     id="path20" />
  <path
     class="cls-6"
     d="m 52.9,23.92 c 0,0 -23.6,21.25 -23.39,22.64 0.21,1.39 6.13,5.9 6.71,5.53 0.58,-0.37 20.52,-22.3 20.94,-23 0.42,-0.7 -4.26,-5.17 -4.26,-5.17 z"
     id="path22" />
  <path
     class="cls-7"
     d="M 54.29,26.17 32.21,49.71 c 0,0 -4.12,-2.91 -3.27,-4.19 0.85,-1.28 22.65,-21.9 22.65,-21.9 z"
     id="path24" />
  <path
     class="cls-8"
     d="m 62.39,18 c 0,0 -7.65,-7.8 -13.89,-4.67 -5.86,3 -0.17,1.2 1.89,4 2.06,2.8 0.17,5 1.2,6.34 1.03,1.34 5.49,6.52 6.35,6.34 0.86,-0.18 8.38,-8.07 8.38,-8.07 z"
     id="path26" />
  <rect
     class="cls-8"
     x="19.879314"
     y="66.881256"
     width="11.86"
     height="4.04"
     transform="rotate(-45)"
     id="rect28" />
  <path
     class="cls-9"
     d="m 66.32,21.89 c 0,0 -1.11,2.57 -1,3.46 0.11,0.89 4.34,-0.45 4.16,-0.27 l -8.16,8.15 c -0.22,0.23 0.66,-3.14 0.21,-3.52 -0.45,-0.38 -3.35,0.11 -3.35,0.11 0,0 6.28,-6.96 8.14,-7.93 z"
     id="path30" />
  <path
     class="cls-10"
     d="M 47.24,43.91 57.8,66 C 58.34,66 76.28,57.14 77.6,56.23 78.92,55.32 41.13,33.7 47.24,43.91 Z M 65,55.7 c -0.37,0.26 -5,2.53 -5.1,2.53 -0.1,0 -3,-6.31 -3,-6.31 -1.75,-2.92 8.49,3.52 8.1,3.78 z"
     id="path32" />
  <path
     class="cls-11"
     d="m 47.62,44.81 c 0,0 1.89,-0.94 2,-1 0.11,-0.06 0.29,0.6 0.29,0.6 l -2,0.95 z"
     id="path34" />
  <path
     class="cls-11"
     d="m 48.4,46.43 c 0,0 2.69,-1.32 2.82,-1.35 0.13,-0.03 0.29,0.61 0.29,0.61 L 48.69,47 Z"
     id="path36" />
  <path
     class="cls-11"
     d="m 49.17,48 c 0,0 1.89,-0.94 2,-1 0.11,-0.06 0.29,0.61 0.29,0.61 l -2,1 z"
     id="path38" />
  <path
     class="cls-11"
     d="m 50,49.66 c 0,0 2.69,-1.32 2.82,-1.35 0.13,-0.03 0.29,0.61 0.29,0.61 l -2.82,1.35 z"
     id="path40" />
  <path
     class="cls-11"
     d="m 50.71,51.25 c 0,0 1.89,-0.94 2,-1 0.11,-0.06 0.29,0.6 0.29,0.6 l -2,1 z"
     id="path42" />
  <path
     class="cls-11"
     d="m 51.49,52.87 c 0,0 2.69,-1.32 2.82,-1.35 0.13,-0.03 0.29,0.61 0.29,0.61 l -2.82,1.35 z"
     id="path44" />
  <path
     class="cls-11"
     d="m 52.45,54.89 c 0,0 1.89,-0.94 2,-1 0.11,-0.06 0.29,0.6 0.29,0.6 l -2,1 z"
     id="path46" />
  <path
     class="cls-11"
     d="m 53.23,56.51 c 0,0 2.69,-1.32 2.82,-1.35 0.13,-0.03 0.29,0.61 0.29,0.61 l -2.82,1.35 z"
     id="path48" />
  <path
     class="cls-11"
     d="m 54,58.06 c 0,0 1.89,-0.94 2,-1 0.11,-0.06 0.29,0.6 0.29,0.6 l -2,0.95 z"
     id="path50" />
  <path
     class="cls-11"
     d="m 54.75,59.68 c 0,0 2.69,-1.32 2.82,-1.35 0.13,-0.03 0.29,0.61 0.29,0.61 L 55,60.29 Z"
     id="path52" />
  <path
     class="cls-11"
     d="m 55.71,61.7 c 0,0 1.89,-0.94 2,-1 0.11,-0.06 0.29,0.6 0.29,0.6 l -2,0.95 z"
     id="path54" />
  <path
     class="cls-11"
     d="m 56.49,63.32 c 0,0 2.69,-1.32 2.82,-1.32 0.13,0 0.29,0.61 0.29,0.61 l -2.82,1.35 z"
     id="path56" />
</svg>
