<?xml version="1.0" encoding="UTF-8"?> <svg xmlns="http://www.w3.org/2000/svg" viewBox="0 0 240 100"><defs><style>.cls-1{fill:#ccecf4;}</style></defs><g id="レイヤー_1" data-name="レイヤー 1"><path class="cls-1" d="M98.8,84.51a1.34,1.34,0,0,1,2.08,0,29.48,29.48,0,0,0,2,2.21,27.62,27.62,0,0,0,8.78,5.91,27.64,27.64,0,0,0,36.2-14.69,2.82,2.82,0,0,0-1.67-4.12c-2.48-1.1-3.45.07-4.12,1.67a21.34,21.34,0,0,1-39.31,0c-.49-1.17-.62-2.23-2.9-2.23-2,0-2.4,1.06-2.9,2.23a21.34,21.34,0,0,1-39.31,0c-.67-1.6-1.44-2.77-4.12-1.67s-2.35,2.52-1.67,4.12a27.63,27.63,0,0,0,45,8.78A29.48,29.48,0,0,0,98.8,84.51Z"></path><path class="cls-1" d="M177.9,51.91a1.33,1.33,0,0,1,2.08,0,29.34,29.34,0,0,0,2,2.2,27.64,27.64,0,0,0,45-8.78c.68-1.6.47-3.17-1.67-4.12-2.48-1.09-3.45.07-4.12,1.67a21.34,21.34,0,0,1-39.31,0c-.5-1.16-.62-2.23-2.9-2.23-2,0-2.41,1.07-2.9,2.23a21.34,21.34,0,0,1-39.31,0c-.67-1.6-1.44-2.77-4.12-1.67s-2.35,2.52-1.67,4.12a27.61,27.61,0,0,0,45,8.78A29.34,29.34,0,0,0,177.9,51.91Z"></path><path class="cls-1" d="M66.05,27.88a1.33,1.33,0,0,1,2.08,0,29.34,29.34,0,0,0,2,2.2,27.6,27.6,0,0,0,39.07,0,27.62,27.62,0,0,0,5.91-8.78c.68-1.6.48-3.17-1.67-4.12-2.48-1.1-3.44.07-4.12,1.67A21.39,21.39,0,0,1,98,30.2a21.37,21.37,0,0,1-16.61,0A21.39,21.39,0,0,1,70,18.85c-.49-1.16-.62-2.23-2.9-2.23-2,0-2.4,1.07-2.9,2.23A21.39,21.39,0,0,1,52.84,30.2a21.34,21.34,0,0,1-16.6,0,21.18,21.18,0,0,1-6.78-4.57,21.37,21.37,0,0,1-4.58-6.78c-.67-1.6-1.44-2.77-4.12-1.67s-2.35,2.52-1.67,4.12A27.49,27.49,0,0,0,25,30.08a27.65,27.65,0,0,0,41-2.2Z"></path></g></svg> 