<?xml version="1.0" encoding="UTF-8" standalone="no"?>
<svg
   viewBox="0 0 100 100"
   version="1.1"
   id="svg74"
   sodipodi:docname="spa.svg"
   inkscape:version="1.1 (c68e22c387, 2021-05-23)"
   xmlns:inkscape="http://www.inkscape.org/namespaces/inkscape"
   xmlns:sodipodi="http://sodipodi.sourceforge.net/DTD/sodipodi-0.dtd"
   xmlns="http://www.w3.org/2000/svg"
   xmlns:svg="http://www.w3.org/2000/svg">
  <sodipodi:namedview
     id="namedview76"
     pagecolor="#ffffff"
     bordercolor="#666666"
     borderopacity="1.0"
     inkscape:pageshadow="2"
     inkscape:pageopacity="0.0"
     inkscape:pagecheckerboard="0"
     showgrid="false"
     inkscape:zoom="8.42"
     inkscape:cx="50"
     inkscape:cy="50"
     inkscape:window-width="1920"
     inkscape:window-height="1046"
     inkscape:window-x="-11"
     inkscape:window-y="-11"
     inkscape:window-maximized="1"
     inkscape:current-layer="svg74" />
  <defs
     id="defs4">
    <style
       id="style2">.cls-1{fill:#e0e0e0;}.cls-2{fill:#6f6f6f;}.cls-3,.cls-7{fill:#806268;}.cls-3{stroke:#806268;}.cls-3,.cls-4,.cls-5,.cls-6{stroke-linecap:round;stroke-linejoin:round;}.cls-11,.cls-3,.cls-4,.cls-5{stroke-width:2.12px;}.cls-4{fill:gray;stroke:gray;}.cls-5{fill:#668081;stroke:#668081;}.cls-6{fill:#88c0e1;stroke:#88c0e1;stroke-width:1.74px;}.cls-8{fill:#becce1;}.cls-9{fill:#685057;}.cls-10{fill:#4d7281;}.cls-11,.cls-12{fill:#d8b180;}.cls-11{stroke:#d8b180;stroke-miterlimit:10;}.cls-13{fill:#ac8055;}.cls-14{fill:#d8a080;}</style>
  </defs>
  <path
     class="cls-3"
     d="m 52,37 -2.19,0.15 -3.18,0.1 a 9.17,9.17 0 0 0 -1,0.11 c -0.31,0 -0.47,-0.09 -0.46,-0.39 0,-1 0,-1.95 0.18,-2.91 0.18,-1.27 0.43,-2.52 0.71,-3.77 a 3.14,3.14 0 0 1 1.09,-1.86 13.64,13.64 0 0 1 1.58,-1.26 14.65,14.65 0 0 0 2.45,-1.91 1.64,1.64 0 0 1 1.07,-0.33 c 1,-0.07 1.93,-0.13 2.89,-0.12 a 12.24,12.24 0 0 1 1.89,0.25 c 0.77,0.14 1.54,0.31 2.3,0.49 a 6.66,6.66 0 0 1 2,1.15 5.23,5.23 0 0 1 1.5,2 3.28,3.28 0 0 1 0.63,2.09 2.23,2.23 0 0 1 -0.12,0.57 0.82,0.82 0 0 0 0.44,1.18 0.41,0.41 0 0 1 0.18,0.27 c 0.08,0.58 0.11,1.17 0.23,1.75 0.12,0.58 0.35,1 0.48,1.55 0.13,0.55 0.23,1.21 0.32,1.82 0,0 -0.18,0.17 -0.27,0.16 -2.14,-0.26 -4.27,-0.6 -6.41,-0.8 -1.5,-0.15 -3,-0.12 -4.51,-0.16 H 52 Z"
     id="path12" />
  <path
     class="cls-4"
     d="m 47.58,36.85 c 0.08,0.36 -0.12,0.59 -0.4,0.83 a 6.07,6.07 0 0 1 -1.53,0.86 c -0.95,0.44 -2,0.58 -2.94,0.94 a 2.39,2.39 0 0 1 -0.7,0.17 0.86,0.86 0 0 1 -0.37,-0.1 c -0.22,-0.07 -0.45,-0.24 -0.66,-0.21 a 29.83,29.83 0 0 0 -4.6,0.76 c -1.11,0.33 -2.22,0.65 -3.31,1 a 13.71,13.71 0 0 0 -2,1 0.71,0.71 0 0 1 -0.77,0 7.69,7.69 0 0 1 -1.37,-1.1 9.26,9.26 0 0 1 -2,-3 0.73,0.73 0 0 1 0,-0.44 0.81,0.81 0 0 0 -0.35,-1 0.48,0.48 0 0 1 -0.21,-0.28 4.36,4.36 0 0 1 0,-2.65 2.65,2.65 0 0 1 1.29,-1.35 c 0.78,-0.38 1.57,-0.72 2.36,-1.06 A 6.94,6.94 0 0 0 32.2,30 a 28.54,28.54 0 0 1 2.3,-2 5.42,5.42 0 0 1 2.22,-0.82 6.87,6.87 0 0 1 2.35,0.07 9.36,9.36 0 0 1 2.79,0.83 3,3 0 0 1 0.92,0.75 c 0.46,0.52 0.85,1.11 1.32,1.63 0.76,0.84 1.6,1.61 2.33,2.49 a 3.93,3.93 0 0 1 1.1,2.05 c 0,0.46 0.06,0.93 0.08,1.4 a 4.26,4.26 0 0 1 -0.03,0.45 z"
     id="path14" />
  <path
     class="cls-5"
     d="m 77.59,35.71 c 0.09,0.46 0.22,1.15 0.33,1.85 a 5.15,5.15 0 0 1 0.07,1 0.49,0.49 0 0 1 -0.2,0.34 c -0.72,0.49 -1.45,1 -2.19,1.45 -0.56,0.36 -1.15,0.69 -1.72,1 l -1.39,0.82 c 0,0 -0.07,0 -0.08,0.06 -0.18,0.44 -0.37,0.18 -0.61,0 a 7,7 0 0 0 -1.24,-0.57 c -1.43,-0.49 -2.87,-1 -4.31,-1.4 -1.62,-0.49 -3.25,-0.95 -4.87,-1.44 -0.11,0 -0.26,-0.16 -0.26,-0.25 a 9.39,9.39 0 0 0 -0.7,-3.09 7.34,7.34 0 0 1 -0.28,-1.41 c -0.06,-0.34 -0.06,-0.69 -0.12,-1 a 1.68,1.68 0 0 1 0.8,-1.8 9.39,9.39 0 0 1 3.18,-1.18 18,18 0 0 0 3.34,-1 7,7 0 0 1 2,-0.41 19.55,19.55 0 0 1 4.66,0.22 2.19,2.19 0 0 1 1.86,1.1 c 0.23,0.46 0.44,0.93 0.64,1.4 0.2,0.47 0.46,1.12 0.68,1.68 a 5.29,5.29 0 0 1 0.41,2.63 z"
     id="path16" />
  <path
     class="cls-6"
     d="m 58.53,53.45 c -0.32,0 -0.64,-0.08 -1,-0.06 a 7.36,7.36 0 0 0 -0.94,0.15 c -0.58,0.1 -1.16,0.16 -1.73,0.3 -0.57,0.14 -1,0.34 -1.53,0.46 a 8.21,8.21 0 0 1 -1.21,0.18 c -0.63,0.07 -1.27,0.12 -1.91,0.16 l -1.79,0.07 -2,0.14 c -0.39,0 -0.79,0 -1.19,0 -0.7,0.07 -1.4,0.17 -2.11,0.25 a 3,3 0 0 1 -0.52,0 l -3,-0.2 c -0.66,0 -1.31,0 -2,-0.1 -0.69,-0.1 -1.12,-0.21 -1.68,-0.32 A 5.87,5.87 0 0 1 35.24,54.34 C 34.8,54.19 34.37,54.01 33.93,53.82 33.28,53.55 32.64,53.25 31.99,52.96 a 13.91,13.91 0 0 1 -1.8,-1.22 5.31,5.31 0 0 1 -0.84,-0.59 8.61,8.61 0 0 1 -2,-2 5.73,5.73 0 0 1 -0.62,-1.83 c -0.07,-0.48 -0.16,-1 -0.22,-1.42 a 6.36,6.36 0 0 1 0.11,-1.9 5.73,5.73 0 0 1 0.45,-1.47 4.76,4.76 0 0 1 1.09,-1.5 14.75,14.75 0 0 1 1.55,-1.43 8.42,8.42 0 0 1 1.51,-0.91 c 0.37,-0.17 0.75,-0.34 1.15,-0.49 2.13,-0.81 4.54,-1.25 6.63,-1.91 4.5,-1.43 8.63,-0.27 13,-0.65 0.41,0 0.81,-0.14 1.22,-0.18 0.76,-0.06 1.52,-0.12 2.28,-0.14 0.76,-0.02 1.53,0 2.3,0 0.58,0 1.16,0 1.75,0.07 3.09,0.21 6.66,0.87 7.59,6.15 a 23.52,23.52 0 0 1 0.25,3 10.63,10.63 0 0 1 -0.12,2.65 8.15,8.15 0 0 1 -0.91,2.18 l -1.66,3.11 a 2.21,2.21 0 0 1 -0.64,0.85 1.22,1.22 0 0 1 -0.7,0.11 c -1.55,-0.04 -3.16,0.1 -4.83,0.01 z M 45.47,44.72 v 0 A 5.93,5.93 0 0 1 44,44.46 c -0.55,-0.12 -1.12,-0.19 -1.67,-0.33 a 7.6,7.6 0 0 1 -1.62,-0.5 0.89,0.89 0 0 0 -0.23,-0.13 0.46,0.46 0 0 1 -0.33,-0.34 1.41,1.41 0 0 1 0,-1 2.4,2.4 0 0 1 0.11,-0.23 0.25,0.25 0 0 0 -0.13,-0.3 0.23,0.23 0 0 0 -0.22,0.06 1.82,1.82 0 0 0 -0.31,0.47 1.59,1.59 0 0 0 0.31,1.71 1.63,1.63 0 0 0 0.83,0.41 0.19,0.19 0 0 1 0.1,0 2.72,2.72 0 0 0 1.09,0.4 c 0.19,0.06 0.4,0.08 0.59,0.13 0.19,0.05 0.46,0.13 0.7,0.18 l 1.24,0.22 c 0.35,0 0.71,0.11 1.07,0.14 0.36,0.03 1,0 1.51,0.07 a 0.55,0.55 0 0 0 0.41,-0.17 0.16,0.16 0 0 0 0,-0.13 0.68,0.68 0 0 0 -0.52,-0.4 z M 45.15,44 c 0.25,0 0.43,-0.12 0.46,-0.29 0.03,-0.17 -0.12,-0.31 -0.3,-0.37 A 2,2 0 0 0 44.96,43.25 4.8,4.8 0 0 1 43.77,43 C 43.5,42.86 43.22,42.77 42.95,42.63 a 4.67,4.67 0 0 1 -0.72,-0.42 c -0.31,-0.22 -0.65,-0.45 -0.57,-0.92 0,-0.13 0.07,-0.27 0.1,-0.4 a 1,1 0 0 0 0.08,-0.32 0.5,0.5 0 0 0 -0.15,-0.26 0.37,0.37 0 0 0 -0.24,-0.1 c -0.05,0 -0.12,0.06 -0.14,0.12 -0.02,0.06 -0.1,0.32 -0.16,0.47 a 1.48,1.48 0 0 0 -0.11,0.91 1.61,1.61 0 0 0 0.56,0.81 3.48,3.48 0 0 0 0.51,0.34 c 0.29,0.19 0.59,0.38 0.89,0.55 0.3,0.17 0.43,0.2 0.65,0.29 a 0.86,0.86 0 0 0 0.21,0.07 l 1.12,0.22 z m 2.54,0.8 a 0.65,0.65 0 0 0 0,-0.11 0.8,0.8 0 0 0 -0.69,-1 0.27,0.27 0 0 0 -0.21,0.09 2.45,2.45 0 0 0 -0.17,0.45 2.29,2.29 0 0 1 -0.22,0.64 5,5 0 0 1 -2.36,1.88 1.78,1.78 0 0 1 -1.86,-0.2 c -0.16,-0.14 -0.42,-0.31 -0.57,-0.07 a 0.94,0.94 0 0 0 -0.12,0.78 2.15,2.15 0 0 0 2.1,0.94 4.49,4.49 0 0 0 2.84,-1.46 c 0.25,-0.28 0.48,-0.57 0.75,-0.82 a 1.22,1.22 0 0 0 0.51,-1.14 z"
     id="path18" />
  <path
     class="cls-3"
     d="m 41.41,61.36 c -0.3,0 -0.57,0 -0.83,0 a 3.6,3.6 0 0 0 -0.79,0.12 9.85,9.85 0 0 1 -1.7,0.54 7,7 0 0 1 -3.48,-0.47 7.84,7.84 0 0 1 -0.94,-0.6 c -0.48,-0.3 -1,-0.55 -1.46,-0.87 a 14,14 0 0 1 -1.66,-1.3 5.79,5.79 0 0 0 -1.68,-0.93 c -0.43,-0.19 -0.85,-0.41 -1.29,-0.58 a 9,9 0 0 0 -1.33,-0.43 c -0.44,-0.1 -0.54,-0.2 -0.39,-0.65 0.1,-0.29 0.17,-0.59 0.29,-0.87 A 7.27,7.27 0 0 0 26.29,53 c 0.06,-0.82 0.16,-1.64 0.27,-2.45 A 0.88,0.88 0 0 1 27,49.89 c 0.4,-0.24 0.75,-0.57 1.16,-0.79 a 5.57,5.57 0 0 1 1.21,-0.41 0.85,0.85 0 0 1 0.52,0.12 c 0.6,0.33 1.18,0.71 1.79,1 1,0.53 2.07,1 3.11,1.52 0.62,0.29 1.24,0.56 1.88,0.79 0.64,0.23 1.22,0.34 1.83,0.51 0.42,0.12 0.83,0.28 1.25,0.38 0.78,0.19 1.56,0.35 2.34,0.52 a 1.38,1.38 0 0 1 0.41,0.11 0.33,0.33 0 0 1 0.11,0.28 c -0.29,0.89 -0.6,1.78 -0.89,2.67 a 4.66,4.66 0 0 0 -0.32,1.13 c 0,0.88 0,1.77 0,2.65 z"
     id="path20" />
  <path
     class="cls-5"
     d="m 28,41.79 a 5.08,5.08 0 0 1 0.05,0.87 c 0,1.38 -1.17,2.42 -1.26,3.74 -0.08,1.05 0.75,1.75 0.73,2.74 -0.06,2.84 -2,4 -2.54,6.57 A 0.39,0.39 0 0 1 24.69,55.93 3.08,3.08 0 0 1 22.5,55.21 2.53,2.53 0 0 1 21.64,53.76 5.43,5.43 0 0 0 20.15,50.7 17.39,17.39 0 0 1 18.47,48.56 5.69,5.69 0 0 1 18,47.34 a 9,9 0 0 1 -0.62,-2.5 8.56,8.56 0 0 1 0,-1.24 3.82,3.82 0 0 1 0.83,-1.8 14.08,14.08 0 0 1 4.73,-4.22 18.17,18.17 0 0 1 2.44,-1 c 0.08,0 0.29,0.1 0.36,0.21 a 15.22,15.22 0 0 1 2.26,5 z m -3.45,2 v -0.08 c 0.61,-0.06 0.69,-0.23 0.32,-0.75 A 3.17,3.17 0 0 1 24.59,42.6 1.7,1.7 0 0 0 23.87,41.89 0.66,0.66 0 0 0 23,42 c 0,0 -0.06,0 -0.09,0 a 4.12,4.12 0 0 0 -1.74,1.06 0.73,0.73 0 0 0 -0.09,1.11 1.08,1.08 0 0 0 1.17,0.16 c 0.33,-0.29 0.67,-0.57 1,-0.85 a 0.42,0.42 0 0 1 0.51,0 c 0.24,0.14 0.52,0.23 0.79,0.33 z m 0.34,3.74 c -0.09,-0.29 0,-0.71 -0.49,-0.74 H 24.06 23.68 A 3,3 0 0 0 23,46.87 0.53,0.53 0 0 0 22.72,47.21 c -0.09,0.56 0.31,0.93 0.91,0.9 a 1.67,1.67 0 0 0 1.26,-0.56 z"
     id="path22" />
  <path
     class="cls-7"
     d="m 67.62,60.56 c -0.23,0.06 -3.56,1.9 -3.72,1.93 a 3.92,3.92 0 0 1 -1.63,-0.1 c -0.65,-0.17 -1.32,-0.27 -2,-0.41 -0.16,0 -3,-1.5 -3.23,-1.57 0.22,-0.3 1.76,-0.52 1.5,-1.27 C 57.51,56 54.89,53.86 58,51 c 0.44,-0.4 7.44,-3.46 6.93,-1.08 a 42.46,42.46 0 0 0 0.17,6.22 44.46,44.46 0 0 0 2.52,4.42 z"
     id="path24" />
  <path
     class="cls-8"
     d="m 45,50 h 2.76 a 1.32,1.32 0 0 1 1,0.77 0.34,0.34 0 0 1 -0.09,0.25 1,1 0 0 1 -0.78,0.33 c -1,-0.07 -2,-0.06 -2.95,-0.13 -0.69,0 -1.38,-0.17 -2.07,-0.28 C 42.18,50.83 41.25,50.67 40.45,50.51 40,50.42 39.55,50.28 39.1,50.17 38.65,50.06 38.33,50.03 37.95,49.92 A 5.42,5.42 0 0 1 35.83,49.15 0.42,0.42 0 0 0 35.65,49.07 3.09,3.09 0 0 1 34,48.32 2.48,2.48 0 0 1 33.32,47.2 2.59,2.59 0 0 1 33.4,45 a 4.26,4.26 0 0 1 0.61,-0.91 0.43,0.43 0 0 1 0.42,-0.11 0.47,0.47 0 0 1 0.25,0.58 c -0.06,0.15 -0.15,0.29 -0.21,0.44 a 2.92,2.92 0 0 0 0.07,2 0.94,0.94 0 0 0 0.65,0.65 2.85,2.85 0 0 1 0.45,0.25 14.53,14.53 0 0 0 3.15,1 c 1.07,0.27 2.17,0.41 3.24,0.66 A 11.71,11.71 0 0 0 45,50 Z"
     id="path26" />
  <path
     class="cls-8"
     d="M 44.35,48.59 44,48.51 c -0.73,-0.14 -1.46,-0.27 -2.18,-0.42 a 1.87,1.87 0 0 1 -0.4,-0.13 13.31,13.31 0 0 1 -1.27,-0.58 c -0.59,-0.33 -1.16,-0.7 -1.73,-1.06 a 5.69,5.69 0 0 1 -1,-0.66 3.16,3.16 0 0 1 -1.1,-1.57 2.94,2.94 0 0 1 0.23,-1.78 c 0.12,-0.29 0.18,-0.61 0.3,-0.91 0,-0.1 0.19,-0.25 0.27,-0.24 a 0.85,0.85 0 0 1 0.48,0.22 0.9,0.9 0 0 1 0.28,0.49 1.81,1.81 0 0 1 -0.15,0.62 7,7 0 0 0 -0.2,0.79 c -0.14,0.9 0.5,1.34 1.11,1.77 a 11,11 0 0 0 1.4,0.83 c 0.52,0.26 1.07,0.45 1.59,0.71 a 9.7,9.7 0 0 0 2.31,0.54 c 0.23,0.06 0.47,0.1 0.69,0.18 0.22,0.08 0.64,0.48 0.59,0.72 a 0.83,0.83 0 0 1 -0.87,0.56 z"
     id="path28" />
  <path
     class="cls-2"
     d="m 35.55,35.19 a 2.86,2.86 0 0 1 -0.5,0.2 0.74,0.74 0 0 1 -0.39,0 5.33,5.33 0 0 1 -2.18,-1.21 c -0.53,-0.51 -0.48,-1.13 0.09,-1.81 0.25,-0.31 0.52,-0.62 0.78,-0.92 A 0.39,0.39 0 0 1 34,31.4 c 0.13,0.12 0.3,0.23 0.35,0.37 a 0.82,0.82 0 0 1 -0.26,0.94 l -0.07,0.07 c -0.44,0.49 -0.43,0.55 0.14,0.88 0.34,0.2 0.68,0.39 1,0.6 a 0.7,0.7 0 0 1 0.39,0.93 z"
     id="path30" />
  <path
     class="cls-2"
     d="m 40.38,32.82 c -0.49,-0.18 -1,-0.33 -1.47,-0.55 a 0.61,0.61 0 0 1 -0.3,-0.64 0.45,0.45 0 0 1 0.57,-0.46 3,3 0 0 1 1.38,0.7 1,1 0 0 1 0.26,0.61 c 0.04,0.28 -0.21,0.28 -0.44,0.34 z"
     id="path32" />
  <path
     class="cls-9"
     d="M 50.67,33.72 A 1.12,1.12 0 0 1 49.56,33 0.69,0.69 0 0 1 50.1,32.15 c 0.6,0 1.21,0 1.81,-0.07 a 3.9,3.9 0 0 0 0.67,-0.11 0.91,0.91 0 0 1 1.05,0.43 0.58,0.58 0 0 1 -0.23,0.69 7.65,7.65 0 0 1 -2.53,0.63 z"
     id="path34" />
  <path
     class="cls-9"
     d="m 59,31.25 c -0.59,0 -1,-0.41 -1.35,-0.7 a 0.58,0.58 0 0 0 -0.76,0 1.19,1.19 0 0 1 -1,0.13 0.55,0.55 0 0 1 -0.43,-0.6 0.92,0.92 0 0 1 0.3,-0.64 3.23,3.23 0 0 1 1.15,-0.59 1.33,1.33 0 0 1 0.89,0.31 c 0.52,0.35 1,0.78 1.49,1.16 0.32,0.24 0.16,0.52 0.08,0.76 0,0.08 -0.23,0.11 -0.37,0.17 z"
     id="path36" />
  <path
     class="cls-10"
     d="m 74.27,33.83 c 0,0.13 0,0.27 0,0.41 -0.12,0.65 -0.46,0.81 -1,0.48 A 0.5,0.5 0 0 1 73.11,34.46 C 73.04,34.11 72.98,33.75 72.94,33.4 72.9,33.05 72.78,32.95 72.46,33.15 a 1.09,1.09 0 0 1 -0.88,0.15 0.72,0.72 0 0 1 -0.5,-0.68 0.68,0.68 0 0 1 0.42,-0.68 c 0.36,-0.17 0.73,-0.3 1.08,-0.47 a 0.66,0.66 0 0 1 0.78,0.16 3.09,3.09 0 0 1 0.91,2.2 z"
     id="path38" />
  <path
     class="cls-10"
     d="m 69.26,34.82 c -0.14,0.15 -0.25,0.33 -0.4,0.4 a 2.28,2.28 0 0 1 -0.81,0.19 4.28,4.28 0 0 1 -1,-0.11 6,6 0 0 1 -0.77,-0.28 c -0.45,-0.16 -0.54,-0.57 -0.65,-0.94 -0.07,-0.21 0.2,-0.71 0.44,-0.74 a 0.86,0.86 0 0 1 0.61,0.19 1.69,1.69 0 0 0 1.49,0.3 0.45,0.45 0 0 1 0.62,0.24 3.09,3.09 0 0 0 0.23,0.31 c 0.07,0.12 0.13,0.25 0.24,0.44 z"
     id="path40" />
  <path
     class="cls-9"
     d="m 29.51,53 c 0.51,0 1.09,-0.08 1.65,-0.19 a 3.69,3.69 0 0 1 1.78,0.17 2,2 0 0 1 0.78,0.57 c 0.24,0.23 0.1,0.58 -0.23,0.76 a 1.32,1.32 0 0 1 -1.32,0 1.17,1.17 0 0 0 -0.82,-0.08 c -0.48,0.11 -1,0.2 -1.45,0.3 A 0.81,0.81 0 0 1 29.08,54.22 0.8,0.8 0 0 1 28.93,53.31 0.45,0.45 0 0 1 29.51,53 Z"
     id="path42" />
  <path
     class="cls-9"
     d="m 37,56.88 c -0.08,0.11 -0.15,0.34 -0.31,0.42 a 15.5,15.5 0 0 1 -1.53,0.75 0.83,0.83 0 0 1 -0.94,-1.28 0.66,0.66 0 0 1 0.33,-0.2 c 0.36,-0.15 0.72,-0.26 1.07,-0.42 a 1.08,1.08 0 0 1 1.29,0.35 1.4,1.4 0 0 1 0.09,0.38 z"
     id="path44" />
  <path
     class="cls-10"
     d="m 24.9,44.43 a 7.61,7.61 0 0 1 -0.79,-0.31 0.43,0.43 0 0 0 -0.52,0 c -0.34,0.28 -0.69,0.56 -1,0.85 a 1.07,1.07 0 0 1 -1.18,-0.16 0.73,0.73 0 0 1 0.1,-1.11 4.08,4.08 0 0 1 1.73,-1.06 c 0,0 0.08,0 0.09,0 a 0.66,0.66 0 0 1 0.93,-0.11 1.78,1.78 0 0 1 0.73,0.71 3.17,3.17 0 0 0 0.28,0.36 c 0.36,0.52 0.29,0.69 -0.33,0.75 z"
     id="path46" />
  <path
     class="cls-10"
     d="m 24.86,45.83 a 1.72,1.72 0 0 1 -1.26,0.58 c -0.61,0 -1,-0.35 -0.91,-0.9 a 0.5,0.5 0 0 1 0.28,-0.35 3,3 0 0 1 0.67,-0.07 h 0.39 0.34 c 0.49,0.04 0.4,0.46 0.49,0.74 z"
     id="path48" />
  <path
     class="cls-5"
     d="M 43.37,56.36 44,56 a 2.75,2.75 0 0 0 0.3,-0.14 2.72,2.72 0 0 1 1.76,-0.49 22.8,22.8 0 0 0 3,-0.37 c 1,-0.16 2,-0.14 3,-0.21 a 6.91,6.91 0 0 0 1,-0.1 1.91,1.91 0 0 1 1.93,0.67 c 0.29,0.32 0.63,0.59 0.9,0.93 a 5.14,5.14 0 0 1 1.15,2.28 5,5 0 0 0 0.63,1.64 2.13,2.13 0 0 1 -0.63,2.91 11.31,11.31 0 0 1 -2.3,1.31 c -0.77,0.32 -1.51,0.71 -2.26,1.07 l -0.24,0.1 A 8.31,8.31 0 0 1 48.47,66 9.48,9.48 0 0 1 44.68,64.94 3.23,3.23 0 0 1 43.06,63.36 5.17,5.17 0 0 1 42.49,60.44 21,21 0 0 1 43,58.05 a 0.56,0.56 0 0 1 0.16,-0.28 1.28,1.28 0 0 0 0.44,-1 c -0.03,-0.12 -0.14,-0.23 -0.23,-0.41 z"
     id="path50" />
  <path
     class="cls-10"
     d="m 54.47,57.61 a 3,3 0 0 1 0,0.42 q -0.16,1 -1,0.48 A 0.44,0.44 0 0 1 53.31,58.25 C 53.24,57.9 53.18,57.54 53.13,57.18 53.08,56.82 52.97,56.74 52.65,56.93 a 1.06,1.06 0 0 1 -0.87,0.16 0.76,0.76 0 0 1 -0.51,-0.68 0.69,0.69 0 0 1 0.43,-0.68 c 0.35,-0.17 0.73,-0.31 1.08,-0.47 a 0.66,0.66 0 0 1 0.78,0.16 3.06,3.06 0 0 1 0.91,2.19 z"
     id="path52" />
  <path
     class="cls-10"
     d="m 49.47,58.61 c -0.14,0.15 -0.25,0.33 -0.4,0.4 a 2.32,2.32 0 0 1 -0.82,0.18 4.24,4.24 0 0 1 -1,-0.1 7.08,7.08 0 0 1 -0.77,-0.28 c -0.45,-0.16 -0.54,-0.57 -0.66,-1 a 0.8,0.8 0 0 1 0.45,-0.74 0.93,0.93 0 0 1 0.61,0.2 1.68,1.68 0 0 0 1.49,0.3 0.44,0.44 0 0 1 0.61,0.24 c 0.06,0.11 0.16,0.2 0.23,0.31 a 4.69,4.69 0 0 1 0.26,0.49 z"
     id="path54" />
  <path
     class="cls-4"
     d="m 68.24,40.13 0.12,-0.16 c 1.42,-1.8 3.48,-0.86 5.13,-2.31 a 2.08,2.08 0 0 1 1.27,-0.24 4.45,4.45 0 0 1 3,1.52 16.15,16.15 0 0 1 1.9,2.15 9.57,9.57 0 0 1 0.76,1.69 5.16,5.16 0 0 1 0.3,2.06 c 0,1 0.16,2 0.17,3 a 8.21,8.21 0 0 1 -0.23,1.62 c -0.35,2.07 -4,5.33 -6.15,4.89 A 4.85,4.85 0 0 1 72.82,53.52 C 69.65,51.41 65.48,44 68.24,40.13 Z"
     id="path56" />
  <path
     class="cls-2"
     d="m 78.54,45.36 c -0.16,0.39 -0.31,0.76 -0.45,1.13 a 1.33,1.33 0 0 0 0,0.19 0.44,0.44 0 0 1 -0.38,0.38 2.79,2.79 0 0 1 -1.15,0.15 0.62,0.62 0 0 1 -0.51,-0.57 0.67,0.67 0 0 1 0.28,-0.51 1.34,1.34 0 0 0 0.64,-1 0.59,0.59 0 0 0 -0.32,-0.65 0.92,0.92 0 0 1 -0.26,-1.38 0.49,0.49 0 0 1 0.71,0 5.47,5.47 0 0 1 1.07,1.08 4.51,4.51 0 0 1 0.37,1.18 z"
     id="path58" />
  <path
     class="cls-2"
     d="m 74.72,43.18 c -0.24,0.22 -0.71,0.23 -0.88,0.48 -0.38,0.53 -0.86,0.29 -1.26,0.24 a 1.74,1.74 0 0 1 -1,-0.55 3.61,3.61 0 0 1 -0.58,-1.2 c -0.11,-0.33 0.14,-0.54 0.41,-0.7 0.27,-0.16 0.44,0 0.59,0.19 0.15,0.19 0.29,0.42 0.47,0.61 a 0.46,0.46 0 0 0 0.36,0.15 c 0.23,0 0.45,-0.14 0.68,-0.19 a 6.68,6.68 0 0 1 0.89,-0.18 c 0.06,0 0.15,0.09 0.21,0.16 0.06,0.07 0.23,0.89 0.11,0.99 z"
     id="path60" />
  <path
     class="cls-11"
     d="m 78,56.45 a 5.07,5.07 0 0 1 -1.91,0.42 c -0.93,0 -1.87,0.12 -2.8,0.16 -0.62,0 -1.23,0 -1.85,0 -1.09,-0.07 -2.18,-0.14 -3.26,-0.27 a 6.65,6.65 0 0 1 -1.44,-0.38 15,15 0 0 1 -1.65,-0.72 4,4 0 0 1 -0.74,-0.55 c -0.32,-0.26 -0.62,-0.55 -0.92,-0.83 a 1.23,1.23 0 0 1 -0.38,-0.78 0.41,0.41 0 0 0 -0.1,-0.27 1.38,1.38 0 0 1 -0.22,-1.35 4.44,4.44 0 0 1 0.78,-1.55 3.39,3.39 0 0 1 0.54,-0.53 4.24,4.24 0 0 1 2.2,-1 c 0.47,-0.08 0.93,-0.2 1.39,-0.29 a 0.88,0.88 0 0 1 0.81,0.17 0.22,0.22 0 0 0 0.23,0 c 0.23,-0.19 0.49,-0.06 0.74,0 a 5.59,5.59 0 0 1 1,0.17 2.6,2.6 0 0 1 0.36,0.13 l 0.79,0.23 1,0.37 a 16.41,16.41 0 0 0 2.29,0.71 8.86,8.86 0 0 1 1.59,0.49 19.74,19.74 0 0 1 2,0.86 3.4,3.4 0 0 1 1.55,1.46 l 0.09,0.11 c 0.35,0.5 0.36,0.67 0,1.16 -0.36,0.49 -0.52,0.7 -0.75,1.06 A 1.91,1.91 0 0 1 78,56.45 Z"
     id="path62" />
  <path
     class="cls-11"
     d="m 63.33,54.87 c 0.32,0.2 0.58,0.37 0.86,0.53 l 1.67,0.89 a 7.72,7.72 0 0 0 3.21,0.65 2.52,2.52 0 0 1 0.37,0.05 19.28,19.28 0 0 0 3.48,0.15 c 0.6,0 1.2,0 1.8,0 0.6,0 0.9,-0.1 1.34,-0.16 a 0.57,0.57 0 0 1 0.13,0 2.72,2.72 0 0 0 1.51,-0.22 3.86,3.86 0 0 0 1,-0.28 1.88,1.88 0 0 0 0.91,-0.83 1.28,1.28 0 0 1 0.14,-0.21 h 0.06 a 1.77,1.77 0 0 1 0,0.23 c 0,0.48 -0.1,1 -0.18,1.45 -0.08,0.45 -0.19,1.07 -0.29,1.6 -0.07,0.36 -0.08,0.34 -0.44,0.33 a 3.77,3.77 0 0 0 -0.88,0.1 c -0.85,0.21 -1.68,0.46 -2.53,0.65 a 8.82,8.82 0 0 1 -1.61,0.24 18.53,18.53 0 0 1 -2.58,0 8.9,8.9 0 0 1 -2.71,-0.71 c -0.54,-0.24 -1.11,-0.43 -1.63,-0.71 -0.75,-0.4 -1.49,-0.84 -2.2,-1.3 a 3.47,3.47 0 0 1 -0.7,-0.73 0.36,0.36 0 0 0 -0.34,-0.19 c -0.21,0 -0.29,-0.14 -0.31,-0.31 -0.05,-0.32 -0.09,-0.65 -0.13,-1 z"
     id="path64" />
  <path
     class="cls-12"
     d="m 64.44,61.94 c 0.31,0.2 -1.24,-6 -1,-5.85 a 9.55,9.55 0 0 1 0.95,0.51 8.43,8.43 0 0 0 2.17,0.92 12.06,12.06 0 0 0 1.7,0.42 c 0.61,0.13 1.22,0.27 1.84,0.36 a 11.81,11.81 0 0 0 1.47,0.12 c 0.58,0 4.84,0.12 5.42,0.1 0.27,0 1.84,-0.32 2.11,-0.38 a 5.57,5.57 0 0 0 0.78,-0.2 c 0.08,0 -1.3,6.08 -1.31,6.15 a 6.73,6.73 0 0 1 -0.21,0.77 0.38,0.38 0 0 1 -0.22,0.17 c -0.84,0.23 -1.67,0.47 -2.51,0.67 -0.62,0.13 -1.25,0.2 -1.87,0.3 -0.43,0.07 -0.86,0.15 -1.3,0.21 a 7.44,7.44 0 0 1 -1,0.09 16.05,16.05 0 0 1 -2,-0.07 10,10 0 0 1 -2,-0.42 7,7 0 0 1 -1.32,-0.7 6.32,6.32 0 0 1 -0.74,-0.49 c -0.21,-0.15 -0.38,-0.35 -0.59,-0.5 a 0.68,0.68 0 0 1 -0.31,-0.8 3,3 0 0 0 -0.11,-0.87 4,4 0 0 1 0.05,-0.51 z"
     id="path66" />
  <path
     class="cls-13"
     d="m 79.18,61.41 -0.37,1.5 a 2.82,2.82 0 0 0 -1.88,0.17 12.57,12.57 0 0 1 -3.17,0.51 17,17 0 0 1 -3.35,-0.39 18.67,18.67 0 0 1 -2.34,-0.6 8.54,8.54 0 0 1 -2,-1 c -0.35,-0.24 -0.73,-0.42 -1.09,-0.64 l -0.72,-0.51 a 0.21,0.21 0 0 1 -0.07,-0.12 c 0,-0.38 -0.09,-0.75 -0.11,-1.13 0,-0.17 0.14,-0.16 0.25,-0.09 0.82,0.5 1.61,1 2.45,1.49 a 15.57,15.57 0 0 0 1.77,0.78 c 0.57,0.22 1.15,0.4 1.73,0.58 0.25,0.07 0.53,0.06 0.78,0.12 a 10.66,10.66 0 0 0 3.52,0.1 14.18,14.18 0 0 0 3.27,-0.61 c 0.42,-0.13 0.86,-0.18 1.29,-0.27 z"
     id="path68" />
  <path
     class="cls-14"
     d="m 70.43,48.85 a 13.39,13.39 0 0 0 -4.15,0 c -1.47,0.32 -3.84,2.22 -2.79,3.61 1.05,1.39 2,1.82 4.76,2 2.76,0.18 6.11,1.63 8,1 1.89,-0.63 3.34,0.19 3.79,-1.1 0.45,-1.29 -0.85,-2.73 -2.21,-3.16 -1.36,-0.43 -3.48,-1.24 -4,-1.47 A 16.6,16.6 0 0 0 71.56,49.2 Z"
     id="path70" />
</svg>
