<?xml version="1.0" encoding="UTF-8" standalone="no"?>
<svg
   viewBox="0 0 100 100"
   version="1.1"
   id="svg106"
   sodipodi:docname="farm_stay.svg"
   inkscape:version="1.1 (c68e22c387, 2021-05-23)"
   xmlns:inkscape="http://www.inkscape.org/namespaces/inkscape"
   xmlns:sodipodi="http://sodipodi.sourceforge.net/DTD/sodipodi-0.dtd"
   xmlns="http://www.w3.org/2000/svg"
   xmlns:svg="http://www.w3.org/2000/svg">
  <sodipodi:namedview
     id="namedview108"
     pagecolor="#ffffff"
     bordercolor="#666666"
     borderopacity="1.0"
     inkscape:pageshadow="2"
     inkscape:pageopacity="0.0"
     inkscape:pagecheckerboard="0"
     showgrid="false"
     inkscape:zoom="8.42"
     inkscape:cx="50"
     inkscape:cy="50"
     inkscape:window-width="1920"
     inkscape:window-height="1046"
     inkscape:window-x="-11"
     inkscape:window-y="-11"
     inkscape:window-maximized="1"
     inkscape:current-layer="svg106" />
  <defs
     id="defs4">
    <style
       id="style2">.cls-1{fill:#e0e0e0;}.cls-2{fill:#6f6f6f;}.cls-3{fill:#bdb286;}.cls-4{fill:#2f4a57;}.cls-5{fill:#947c52;}.cls-6{fill:#809924;}.cls-7{fill:#6f564d;}.cls-8{fill:#5cc98c;}.cls-9{fill:#fff;}.cls-10{fill:#3e3a39;}.cls-11{fill:#e8de60;}.cls-12{fill:#e99e3b;}.cls-13{fill:#5b4349;}</style>
  </defs>
  <path
     class="cls-3"
     d="m 75.13,26.92 c -5.52,-1.3 -12.83,0.17 -17.37,0 -2.87,-0.09 -3,0.09 -6.2,-0.19 -2.69,-0.23 -5.76,-1.15 -8.44,-1 -2.52,0.14 -4.38,1.33 -7.12,0.94 -2.33,-0.33 -4.68,-1 -7,-0.6 -6.66,1 -7.29,9.66 -10.35,14.39 -3.06,4.73 -5.29,8.85 -9,13.14 -3.49,4 -1.15,9.08 3.65,9.83 2.49,0.38 5,-1 7.63,-0.67 3,0.44 5.76,2.17 8.77,2.7 a 29.16,29.16 0 0 0 10.72,0 c 2.41,-0.56 5.74,-2.62 12.86,-1.78 5.86,0.69 12.64,3.4 18.6,1.88 8.09,-2 6.68,-12.43 6.72,-18.94 a 7.41,7.41 0 0 1 0.63,-3.46 c 2.2,-4.14 5.13,-9.05 1,-13.52 a 9.76,9.76 0 0 0 -5.1,-2.72 z"
     id="path16" />
  <path
     class="cls-4"
     d="m 80.41,34.5 c 0,0 2.19,2 2,3 -0.19,1 -1.92,1.33 -1.92,1.33 a 23.27,23.27 0 0 0 -1.71,1.92 c -0.93,1.16 -2,1.39 -2.47,1 -1,-0.8 1.28,-3.57 1.28,-3.57 z"
     id="path18" />
  <path
     class="cls-5"
     d="m 22.76,49.74 c -1.15,2 -2.34,4 -3.65,6 l -0.3,-0.18 c 0.45,-0.92 0.94,-1.83 1.35,-2.77 0.84,-1.88 2.06,-3.54 3,-5.36 0.94,-1.82 1.92,-3.69 2.86,-5.54 a 42.5,42.5 0 0 1 2.59,-4.58 2,2 0 0 1 0.59,-0.2 c 0,0.23 0.19,0.53 0.1,0.67 -0.31,0.48 -1.12,1.86 -1.39,2.38 -0.51,1 -1,2 -1.51,2.93 -1.24,2.33 -2.4,4.5 -3.64,6.65 z"
     id="path20" />
  <path
     class="cls-5"
     d="m 44.91,59.14 c -0.76,-0.73 -0.38,-1.48 -0.2,-2.14 0.3,-1 0.76,-2 1.11,-3.08 0.35,-1.08 0.59,-2.17 1,-3.23 0.62,-1.76 1.31,-3.5 2,-5.25 0.39,-1 0.71,-2.12 1.14,-3.15 A 16.84,16.84 0 0 1 51,40.39 c 0.73,0.37 0.66,0.76 0.47,1.24 q -1.19,3 -2.29,6 c -0.61,1.65 -1.16,3.33 -1.75,5 q -1.08,3 -2.19,6 a 2.89,2.89 0 0 1 -0.33,0.51 z"
     id="path22" />
  <path
     class="cls-5"
     d="M 63.36,59.28 V 56.5 c 0,-0.89 0,-1.79 0,-2.68 0,-0.89 0.22,-1.85 0.26,-2.78 0.06,-1.1 0,-2.2 0.07,-3.3 a 9.43,9.43 0 0 1 0.38,-2 c 0,-0.14 0.36,-0.29 0.55,-0.3 a 0.63,0.63 0 0 1 0.44,0.36 2,2 0 0 1 0,0.64 c 0,2.62 -0.64,5.17 -0.68,7.78 0,1.21 0,2.41 0,3.61 a 26.19,26.19 0 0 1 -0.41,2.61 c 0,0.11 -0.16,0.19 -0.25,0.29 -0.09,-0.1 -0.23,-0.2 -0.26,-0.32 -0.1,-0.38 -0.16,-0.77 -0.24,-1.16 z"
     id="path24" />
  <path
     class="cls-5"
     d="m 72.51,42.44 c -0.62,0.77 -1.16,0.34 -1.6,0.14 -1.23,-0.56 -1.22,-0.59 -2.15,0.47 a 1.37,1.37 0 0 1 -0.29,0.2 C 67.71,42.7 67.7,42.46 68.36,41.88 a 3.41,3.41 0 0 0 0.6,-0.6 c 0.41,-0.57 0.85,-0.79 1.48,-0.33 z"
     id="path26" />
  <path
     class="cls-5"
     d="m 69.44,58.54 c -0.88,-0.39 -1,-0.73 -0.54,-1.42 0.36,-0.5 0.62,-1.23 1.41,-1.24 A 1.83,1.83 0 0 1 72,57.77 c -0.08,0.5 -0.43,0.35 -0.7,0.17 -0.27,-0.18 -0.59,-0.46 -0.89,-0.69 -0.21,0.31 -0.42,0.62 -0.64,0.92 -0.12,0.14 -0.24,0.26 -0.33,0.37 z"
     id="path28" />
  <path
     class="cls-5"
     d="m 42,51.72 c -0.17,-0.19 -0.36,-0.37 -0.52,-0.57 -0.16,-0.2 -0.15,-0.35 -0.26,-0.5 -0.74,-0.95 -1,-0.92 -1.59,0.15 a 1,1 0 0 1 -0.29,0.4 2.7,2.7 0 0 1 -0.57,0.18 c -0.06,-0.22 -0.24,-0.53 -0.16,-0.62 a 6.41,6.41 0 0 1 1.51,-1.56 1.39,1.39 0 0 1 2,1.17 c 0,0.41 0,0.82 0.08,1.23 z"
     id="path30" />
  <path
     class="cls-5"
     d="m 36.71,59.67 a 3,3 0 0 1 -0.5,-0.17 c -0.24,-0.14 -0.55,-0.49 -0.69,-0.43 a 4.89,4.89 0 0 0 -1.13,0.81 c -0.12,0.1 -0.13,0.34 -0.25,0.42 -0.12,0.08 -0.51,0.29 -0.65,0.21 A 0.45,0.45 0 0 1 33.4,59.7 c 0.61,-0.57 1.19,-1.16 1.81,-1.73 a 0.74,0.74 0 0 1 1.14,0.19 c 0.22,0.44 0.39,0.91 0.58,1.36 z"
     id="path32" />
  <path
     class="cls-5"
     d="m 24.06,58 a 10.76,10.76 0 0 1 1.53,-1.25 1.85,1.85 0 0 1 1.28,-0.18 c 0.21,0.06 0.31,0.62 0.4,1 a 2.32,2.32 0 0 1 0,0.79 2,2 0 0 1 -0.22,0.47 5.21,5.21 0 0 1 -0.46,-0.3 C 26.53,58.47 26.52,58.35 26.48,58.27 26.14,57.58 25.75,57.56 25.3,58.21 24.85,58.86 24.54,58.91 24.06,58 Z"
     id="path34" />
  <path
     class="cls-5"
     d="m 30.56,49.81 a 2.69,2.69 0 0 1 2.12,-2 c 0.54,0 0.78,0.33 0.62,0.87 a 9.65,9.65 0 0 0 -0.21,1 c -0.15,-0.06 -0.21,-0.07 -0.23,-0.1 -0.65,-0.85 -0.64,-0.84 -1.47,-0.18 a 3.65,3.65 0 0 1 -0.83,0.41 z"
     id="path36" />
  <path
     class="cls-6"
     d="m 49.92,33 c 1,-1.09 -6.26,-12.53 -6.55,-12.41 0,-1.35 19,-7.29 20,-6.84 a 14.11,14.11 0 0 1 2.24,1.1 12,12 0 0 1 3.2,4 5.74,5.74 0 0 1 0.6,2.24 4.15,4.15 0 0 1 -0.4,1.7 13.7,13.7 0 0 1 -2.37,4 c -1,1.13 -2,2.22 -2.93,3.34 -0.93,1.12 -3.31,1.08 -3.44,1.06 C 59.83,31.18 50,33.08 49.92,33 Z"
     id="path38" />
  <path
     class="cls-4"
     d="m 62.47,44.13 c -0.42,0.73 -0.75,1.35 -1.15,1.92 -0.4,0.57 -0.68,0.81 -1,1.22 a 6.63,6.63 0 0 1 -2.55,1.92 c -1,0.45 -3.22,-0.15 -2.5,-0.87 1,-1 2,-1.88 2.94,-2.86 a 2.91,2.91 0 0 0 0.53,-1 c 0.21,-0.5 0.45,-0.76 1.09,-0.61 a 22.1,22.1 0 0 0 2.64,0.28 z"
     id="path40" />
  <path
     class="cls-7"
     d="M 73.79,36.06 C 73.66,35.42 70.7,32.45 71.08,31.88 L 77,23 c 0.24,0.64 0.06,6.14 0.93,8.89 0.66,2.09 2.32,2.19 2.45,2.62 A 2.71,2.71 0 0 1 79,36.83 c -1.19,0.62 -5.1,-0.16 -5.21,-0.77 z"
     id="path42" />
  <path
     class="cls-8"
     d="m 51.69,38.14 a 1.84,1.84 0 0 1 0.57,-0.52 c 1.17,-0.49 2,-0.08 2.35,1.29 a 10.6,10.6 0 0 1 0.27,2.27 c 0,0.09 -0.37,0.33 -0.54,0.31 a 3.62,3.62 0 0 1 -2.65,-3.35 z"
     id="path44" />
  <path
     class="cls-8"
     d="m 54.34,41.49 a 6.5,6.5 0 0 1 1.51,-3.19 c 0.46,-0.62 1.77,-0.48 2.92,0 1.15,0.48 1.23,2.53 -0.77,3.04 -2,0.51 -2.87,-0.14 -3.66,0.15 z"
     id="path46" />
  <path
     class="cls-8"
     d="m 27.82,48.16 a 4.05,4.05 0 0 1 3.25,1.84 12,12 0 0 1 0.68,1 3.5,3.5 0 0 1 0.05,2.32 0.75,0.75 0 0 1 -0.63,0.16 6.52,6.52 0 0 1 -4.32,-3.59 1.18,1.18 0 0 1 0.97,-1.73 z"
     id="path48" />
  <path
     class="cls-8"
     d="M 34.46,54.28 C 33.64,54.11 32.83,53.94 32.02,53.75 31.54,53.63 31.57,53.32 31.79,52.99 A 5.52,5.52 0 0 1 35,50.87 c 0.51,-0.15 1.06,-0.13 1.55,-0.31 a 1.33,1.33 0 0 1 1.63,0.55 1.69,1.69 0 0 1 -0.32,1.79 5.24,5.24 0 0 1 -3.4,1.38 z"
     id="path50" />
  <path
     class="cls-8"
     d="m 54.23,54.74 c 0,-1.94 0.21,-3.7 1.58,-5.12 a 3.07,3.07 0 0 1 3.68,-0.57 2.21,2.21 0 0 1 0.41,2.81 4.66,4.66 0 0 1 -2.63,1.87 c -0.57,0.2 -1.13,0.41 -1.69,0.63 l -0.92,0.35 a 1.68,1.68 0 0 1 -0.43,0.03 z"
     id="path52" />
  <path
     class="cls-8"
     d="m 51.53,49.56 a 6.5,6.5 0 0 1 1.21,0.33 1.45,1.45 0 0 1 0.66,0.68 c 0.42,1.11 0.78,2.23 1.15,3.36 a 5.14,5.14 0 0 1 0.14,0.8 2.77,2.77 0 0 1 -0.81,0 9.12,9.12 0 0 1 -3.77,-2 c -0.7,-0.63 -1.08,-1.55 -0.77,-2.09 a 2.5,2.5 0 0 1 2.19,-1.08 z"
     id="path54" />
  <path
     class="cls-6"
     d="M 43.78,32 C 42.94,31.1 38,29.79 38,30 c -0.14,1.1 -2.49,6.79 -2.5,7 a 27,27 0 0 1 3,1.65 c 0,0 0.19,-0.48 0.32,-0.77 C 38.95,37.59 44,32.19 43.78,32 Z"
     id="path56" />
  <path
     class="cls-9"
     d="m 38.67,38.2 c 0.35,-0.75 -3.13,-1.4 -3.21,-1.23 a 24.37,24.37 0 0 0 -1.31,3.57 5.91,5.91 0 0 1 -1.79,2.23 c -0.38,0.35 -0.79,0.84 -0.6,1.32 a 1.06,1.06 0 0 0 1.13,0.53 10.32,10.32 0 0 1 1.34,-0.2 c 0.81,0 1.47,0.68 2.24,0.93 a 0.64,0.64 0 0 0 0.72,-0.12 0.72,0.72 0 0 0 0,-0.52 C 37,43.51 36.32,41.71 36.72,40.55 37,39.86 38.67,38.9 38.67,38.2 Z"
     id="path58" />
  <path
     class="cls-6"
     d="m 52.42,29.58 c 0,0.35 -0.22,3.73 -0.29,4 -0.28,1.07 -2,2.57 -2.61,3.47 -0.61,0.9 -1.7,3.13 -2.9,3.5 l -0.87,0.27 a 1.22,1.22 0 0 1 -1.07,0 1.15,1.15 0 0 1 -0.28,-1.07 29.16,29.16 0 0 1 1.74,-5.83 c 0.16,-0.51 0.69,-3.25 1.22,-3.47 0.86,-0.36 4.06,-0.52 5.06,-0.87 z"
     id="path60" />
  <path
     class="cls-9"
     d="m 47.1,40.41 c -0.69,0.92 -3.23,5 -3.31,5.08 -0.49,0.61 -3.51,0.33 -4.1,-0.23 -0.35,-0.33 2.21,-1.59 2.63,-1.86 1.08,-0.69 1.42,-4.19 2,-4.63 0.39,-0.25 2.86,1.53 2.78,1.64 z"
     id="path62" />
  <polygon
     class="cls-10"
     points="44.4,38.09 47.96,39.68 47.85,40.69 43.88,39.21 "
     id="polygon64" />
  <polygon
     class="cls-10"
     points="35.82,35.84 39.07,37.65 38.43,38.62 35.46,36.97 "
     id="polygon66" />
  <path
     class="cls-7"
     d="m 62,39.18 c 0,-0.49 -0.09,-1.08 -0.16,-1.82 -0.07,-0.74 -0.16,-1.84 -0.17,-2.21 0.12,-0.75 0.15,-0.77 0.73,-1.19 A 11.54,11.54 0 0 0 64.59,32 c 0.52,-0.6 1.07,-1.2 1.61,-1.81 1.19,-1.33 2.42,-2.69 3.51,-4.1 1.09,-1.41 1.56,-5.69 1.23,-7.15 a 4.54,4.54 0 0 0 -0.46,-1.19 c 1.08,0.67 2.44,1.57 2.86,1.92 0.77,0.66 1,1.65 1.4,3.22 0.1,0.42 0.2,0.85 0.31,1.28 a 24.91,24.91 0 0 1 -0.25,4.22 11.07,11.07 0 0 1 -2.36,1.2 11.41,11.41 0 0 0 -1.85,0.9 L 70.25,30.6 A 10.92,10.92 0 0 0 64.9,34.1 24.16,24.16 0 0 0 62,39.18 Z"
     id="path68" />
  <path
     class="cls-7"
     d="m 72.55,26 c 0,0.3 0,0.6 0,0.88 L 72.07,27.1 A 7.46,7.46 0 0 0 72.6,26 M 64,14.1 c 0,0.07 4.21,3.83 4.56,5.41 0.23,1.07 -0.19,4.36 -0.78,5.11 -1.53,2 -3.38,3.91 -5,5.8 -1.88,2.16 -3,1.53 -3.48,4.45 -0.1,0.69 0.51,5.28 0.35,6 -0.36,1.48 -1.47,3.39 0,3.44 0.29,0 0.49,0.32 0.75,0.32 h 0.1 a 2.17,2.17 0 0 1 0.58,-0.08 h 0.5 a 1.23,1.23 0 0 0 0.9,-0.37 c 0.66,-0.56 2.07,-5.55 4.38,-8.51 1.73,-2.22 4.48,-2.58 5,-3 1,-0.72 4.51,-1.54 5.22,-3.22 a 20.78,20.78 0 0 0 0.41,-5.73 C 76.9,21.65 76.78,19.39 74.95,17.84 A 33.28,33.28 0 0 0 70,14.73 C 69.47,14.59 68.94,14.42 68.41,14.29 67.88,14.16 64.35,14.17 63.94,14.1 Z"
     id="path70" />
  <path
     class="cls-8"
     d="m 31.79,53 v 3.84 c 0,0 -1.5,1 -1.27,0 0.23,-1 0.46,-4.06 0.46,-4.06 z"
     id="path72" />
  <path
     class="cls-9"
     d="m 46.59,26.85 c -0.15,0.11 -0.15,-0.56 -0.24,-0.43 A 14.13,14.13 0 0 0 43.09,24 48.63,48.63 0 0 0 37.17,22.38 l -3.64,-0.46 a 9.83,9.83 0 0 0 0.19,5.51 6,6 0 0 0 3.28,3.74 6.84,6.84 0 0 0 3.44,1.58 h 0.14 a 9.9,9.9 0 0 0 2.23,0.2 6.54,6.54 0 0 0 3.68,-1.61 3.36,3.36 0 0 0 0.52,-0.63"
     id="path74" />
  <path
     class="cls-11"
     d="m 50,24 -0.45,2.22 A 3.6,3.6 0 0 1 51,24.93 c 0.34,-0.16 1.43,0.52 1.62,0.91 0.61,1.21 -0.91,2.12 -1.72,2.07 -0.81,-0.05 -1.47,-0.19 -1.67,-0.85 -0.2,-0.66 -1.35,-0.55 -2.12,-0.21 -0.29,0.13 -0.82,0.12 -1,-0.2 C 45.8,25.94 40.56,26.2 37.57,25.08 34.58,23.96 33.26,22.49 33.31,22.19 A 8,8 0 0 1 36,17.81 7.93,7.93 0 0 1 41.34,15.73 9.32,9.32 0 0 1 47,17.49 8.49,8.49 0 0 1 50,24 Z"
     id="path76" />
  <path
     class="cls-12"
     d="m 38.77,18 c 0.24,-0.24 0.49,-0.47 0.71,-0.72 0.22,-0.25 0.55,-0.19 0.67,0.14 a 1.2,1.2 0 0 1 0,0.77 0.39,0.39 0 0 1 -0.65,0.15 2.06,2.06 0 0 0 -0.68,-0.16 z"
     id="path78" />
  <path
     class="cls-12"
     d="m 46,23.88 c -0.07,-0.08 -0.26,-0.22 -0.3,-0.39 -0.04,-0.17 0.41,-0.75 0.64,-0.68 a 0.74,0.74 0 0 1 0.45,0.43 c 0.09,0.3 -0.29,0.63 -0.79,0.64 z"
     id="path80" />
  <path
     class="cls-12"
     d="m 47,20.45 a 3.34,3.34 0 0 0 -0.52,-0.09 c -0.33,0 -0.47,-0.21 -0.33,-0.52 a 0.6,0.6 0 0 1 0.79,-0.37 c 0.37,0.19 0.31,0.48 0.14,0.79 C 47.07,20.32 47,20.4 47,20.45 Z"
     id="path82" />
  <path
     class="cls-12"
     d="m 39,20.82 a 6.14,6.14 0 0 1 0.33,-0.92 0.4,0.4 0 0 1 0.38,-0.14 0.51,0.51 0 0 1 0.26,0.36 C 40,20.71 39.7,20.92 39,20.82 Z"
     id="path84" />
  <path
     class="cls-12"
     d="m 43.75,19.71 c 0,0.05 0.18,0.16 0.19,0.29 0.01,0.13 -0.5,0.69 -0.84,0.66 A 0.4,0.4 0 0 1 42.79,20.4 c -0.04,-0.25 0.53,-0.7 0.96,-0.69 z"
     id="path86" />
  <path
     class="cls-12"
     d="m 36.25,20 a 0.7,0.7 0 0 1 -0.74,0.61 0.39,0.39 0 0 1 -0.29,-0.25 c 0,-0.31 0.34,-0.77 0.6,-0.71 0.26,0.06 0.3,0.28 0.43,0.35 z"
     id="path88" />
  <path
     class="cls-8"
     d="m 42.46,40 c 0.6,2.32 -2.78,4.5 -6.21,4.43 -0.27,-0.74 0.93,-3.78 2.72,-4.65 A 4,4 0 0 1 42.46,40 Z"
     id="path90" />
  <path
     class="cls-8"
     d="M 36.25,44.39 C 34.54,44.1 29.73,42.72 30.54,39.61 a 2.56,2.56 0 0 1 2.5,0 c 1.27,0.64 4,1.72 4.65,2.94 z"
     id="path92" />
  <path
     class="cls-8"
     d="m 54.39,58 c 0.08,0.54 -0.85,0.54 -1,0.23 a 31.2,31.2 0 0 1 0.07,-3.94 l 1.09,-0.31 z"
     id="path94" />
  <path
     class="cls-8"
     d="m 54.88,41.18 c 0,0 0.27,3.69 0,4 -0.27,0.31 -1.08,0.78 -1.08,0 0,-0.78 0.62,-4.25 0.62,-4.25 0,0 0.43,-0.21 0.46,0.25 z"
     id="path96" />
  <path
     class="cls-9"
     d="m 46.59,26.85 a 2.25,2.25 0 0 1 1.49,-0.43 1.06,1.06 0 0 1 0.91,0.45 c 0.13,0.24 0.89,2.95 -0.74,4 0,0 -0.86,0.61 -1.21,0.4 a 5.68,5.68 0 0 1 -0.91,-0.76"
     id="path98" />
  <path
     class="cls-13"
     d="m 71.39,33 c 0,0 6.18,-8 6.09,-9.26 a 10.32,10.32 0 0 1 -0.22,3.61 17,17 0 0 1 -3.4,4.25 22.62,22.62 0 0 0 -2.47,1.4 z"
     id="path100" />
  <polygon
     class="cls-8"
     points="37.69,42.6 37.41,47.83 36.42,48.26 35.85,43.02 "
     id="polygon102" />
</svg>
