<svg xmlns="http://www.w3.org/2000/svg" viewBox="0 0 320 320"><defs><style>.cls-1{fill:#fff;}</style></defs><g id="レイヤー_1" data-name="レイヤー 1"><path class="cls-1" d="M98.91,104a3.19,3.19,0,0,1-3.51,3.51,65.89,65.89,0,0,0-73,65.55,65.55,65.55,0,0,0,4.83,24.8C28.8,201.7,31.8,204,37,202c6-2.34,5.69-5.94,4.13-9.78a50.94,50.94,0,0,1,66.35-66.34c2.79,1.13,4.8,2.72,8.65-1.13,3.45-3.45,2.26-5.86,1.13-8.65a50.94,50.94,0,0,1,66.34-66.35c3.84,1.56,7.11,2.24,9.78-4.13,2.81-6.72-.3-8.23-4.14-9.78A65.91,65.91,0,0,0,98.53,96.93,66.27,66.27,0,0,0,98.91,104Z"/><path class="cls-1" d="M254.67,136.81a3.54,3.54,0,0,0,3.56,3.57h0a44.19,44.19,0,0,1,40.92,27.54,44.48,44.48,0,0,1,0,33.22c-1.56,3.85-3.09,6.78-9.78,4.14-6.52-2.58-5.69-5.94-4.13-9.78a29.41,29.41,0,0,0,0-21.94,29.19,29.19,0,0,0-38-16c-2.8,1.14-5.55,1.82-8.57-1.2s-2.34-5.78-1.21-8.57a29.17,29.17,0,0,0-16-38,29.38,29.38,0,0,0-21.93,0c-3.85,1.56-7,2.66-9.78-4.14-3.35-8.22,3.71-10,9.92-11.47A44.86,44.86,0,0,1,227.36,96a44.1,44.1,0,0,1,27.31,40.83Z"/><path class="cls-1" d="M38.44,230h-3.5a.53.53,0,0,0-.52.43l-3.78,18.88a.53.53,0,0,0,.11.44.51.51,0,0,0,.41.2h5.07c6.52,0,10.74-4.73,10.74-12.05C47,232.83,43.86,230,38.44,230Zm-.08,2.89c3.4,0,5.27,1.83,5.27,5.15,0,5.48-2.91,9-7.41,9H34.39l2.84-14.17Z"/><path class="cls-1" d="M54.24,249.9h2.24a.53.53,0,0,0,.52-.43l3.78-18.89a.52.52,0,0,0-.12-.43.51.51,0,0,0-.4-.2H58a.53.53,0,0,0-.52.43l-3.78,18.88a.53.53,0,0,0,.11.44A.51.51,0,0,0,54.24,249.9Z"/><path class="cls-1" d="M80.26,243.93c0-2.13-1-3.64-3.09-4.89L75,237.74c-1.46-.86-2.19-1.5-2.19-2.6a2.7,2.7,0,0,1,2.89-2.54,4.7,4.7,0,0,1,3.65,1.87.54.54,0,0,0,.37.19.59.59,0,0,0,.39-.14l1.46-1.32a.54.54,0,0,0,.06-.72,7.21,7.21,0,0,0-5.76-2.87c-3.59,0-6.4,2.53-6.4,5.77,0,2,1,3.6,3.16,4.9l2.2,1.32c1.5.89,2.09,1.63,2.09,2.65,0,1.81-1.41,3-3.52,3A5.17,5.17,0,0,1,69,244.85a.56.56,0,0,0-.35-.23.59.59,0,0,0-.41.1L66.56,246a.53.53,0,0,0-.12.72,7.83,7.83,0,0,0,6.74,3.55C77.28,250.24,80.26,247.59,80.26,243.93Z"/><path class="cls-1" d="M98.53,229.61c-6.35,0-10.28,6.48-10.28,12.49,0,5,2.77,8.14,7.22,8.14a8.65,8.65,0,0,0,5.77-2.3.53.53,0,0,0,.09-.71l-1-1.44a.48.48,0,0,0-.36-.22.46.46,0,0,0-.41.12,5.48,5.48,0,0,1-3.66,1.56c-3.54,0-4.28-2.92-4.28-5.37,0-4.48,2.74-9.28,6.81-9.28a3.11,3.11,0,0,1,2.74,1.78.55.55,0,0,0,.35.25.56.56,0,0,0,.42-.09l1.58-1.19a.52.52,0,0,0,.14-.69A5.82,5.82,0,0,0,98.53,229.61Z"/><path class="cls-1" d="M119.92,229.61c-5.82,0-9.73,6.3-9.73,12.2,0,5.2,2.71,8.43,7.06,8.43,5.82,0,9.72-6.31,9.72-12.2C127,232.84,124.27,229.61,119.92,229.61Zm-2.55,17.64c-3.17,0-3.84-3.06-3.84-5.62,0-4.27,2.58-9,6.27-9,3.17,0,3.83,3.05,3.83,5.62C123.63,242.49,121.06,247.25,117.37,247.25Z"/><path class="cls-1" d="M149.85,230h-2.41a.52.52,0,0,0-.47.29l-5.22,10.5c-.73,1.46-1.47,3-2.21,4.57-.09-1.48-.21-3-.33-4.37l-.78-10.5a.53.53,0,0,0-.53-.49h-2.29a.52.52,0,0,0-.39.17.51.51,0,0,0-.13.41l1.7,18.89a.52.52,0,0,0,.52.48H140a.52.52,0,0,0,.46-.29l9.87-18.89a.49.49,0,0,0,0-.51A.51.51,0,0,0,149.85,230Z"/><path class="cls-1" d="M168.77,230H158.35a.52.52,0,0,0-.51.43l-3.78,18.88a.53.53,0,0,0,.11.44.51.51,0,0,0,.41.2h10.66a.53.53,0,0,0,.52-.43l.38-1.89a.51.51,0,0,0-.1-.44.53.53,0,0,0-.41-.19h-7.82l1.25-6h6.47a.54.54,0,0,0,.52-.42l.38-1.89a.5.5,0,0,0-.11-.44.51.51,0,0,0-.4-.2h-6.3l1-5.06h7.76a.54.54,0,0,0,.52-.42l.39-1.89a.53.53,0,0,0-.11-.44A.51.51,0,0,0,168.77,230Z"/><path class="cls-1" d="M188.14,249.66a.5.5,0,0,0,.05-.49l-3.08-7.64a6.71,6.71,0,0,0,5.36-6.65c0-2.25-1.12-4.93-6.42-4.93h-5.18a.53.53,0,0,0-.52.43l-3.78,18.88a.53.53,0,0,0,.11.44.51.51,0,0,0,.41.2h2.24a.53.53,0,0,0,.52-.43l1.51-7.58h2.49l3,7.67a.54.54,0,0,0,.5.34h2.39A.52.52,0,0,0,188.14,249.66Zm-4.65-16.84c3.26,0,3.7,1.19,3.7,2.36,0,2.44-1.84,3.84-5.05,3.84H180l1.21-6.2Z"/><path class="cls-1" d="M45.35,268.7H34.94a.54.54,0,0,0-.52.42L30.64,288a.53.53,0,0,0,.11.44.54.54,0,0,0,.41.2H41.83a.52.52,0,0,0,.51-.43l.39-1.89a.52.52,0,0,0-.52-.63H34.4l1.24-6h6.48a.52.52,0,0,0,.51-.42l.39-1.9a.55.55,0,0,0-.11-.44.53.53,0,0,0-.41-.19H36.2l1-5.06H45a.54.54,0,0,0,.52-.42l.38-1.9a.55.55,0,0,0-.11-.44A.53.53,0,0,0,45.35,268.7Z"/><path class="cls-1" d="M61.49,268.35c-6.34,0-10.27,6.49-10.27,12.5,0,5,2.76,8.14,7.22,8.14a8.65,8.65,0,0,0,5.77-2.3.53.53,0,0,0,.09-.71l-1-1.45a.49.49,0,0,0-.36-.21.46.46,0,0,0-.41.12A5.52,5.52,0,0,1,58.84,286c-3.54,0-4.28-2.92-4.28-5.37,0-4.48,2.74-9.28,6.81-9.28a3.11,3.11,0,0,1,2.74,1.78.51.51,0,0,0,.35.25.53.53,0,0,0,.42-.1l1.58-1.18a.53.53,0,0,0,.14-.69A5.85,5.85,0,0,0,61.49,268.35Z"/><path class="cls-1" d="M89.16,268.7H86.92a.54.54,0,0,0-.52.42l-1.51,7.55H77.44l1.49-7.34a.55.55,0,0,0-.11-.44.53.53,0,0,0-.41-.19H76.17a.52.52,0,0,0-.51.42L71.88,288a.53.53,0,0,0,.11.44.54.54,0,0,0,.41.2h2.24a.53.53,0,0,0,.52-.43l1.7-8.54h7.45L82.63,288a.53.53,0,0,0,.1.44.58.58,0,0,0,.41.2h2.25a.52.52,0,0,0,.51-.43l3.78-18.89a.55.55,0,0,0-.11-.44A.53.53,0,0,0,89.16,268.7Z"/><path class="cls-1" d="M102.35,268.7h-2.23a.53.53,0,0,0-.52.42L95.82,288a.53.53,0,0,0,.11.44.54.54,0,0,0,.41.2h2.24a.53.53,0,0,0,.52-.43l3.77-18.89a.55.55,0,0,0-.11-.44A.53.53,0,0,0,102.35,268.7Z"/><path class="cls-1" d="M124.18,268.7h-11.3a.54.54,0,0,0-.52.42L112,271a.51.51,0,0,0,.1.44.53.53,0,0,0,.41.19H120l-11.56,14.8a.41.41,0,0,0-.1.21l-.29,1.35a.54.54,0,0,0,.52.64h12.27a.54.54,0,0,0,.52-.42l.4-1.89a.52.52,0,0,0-.1-.45.53.53,0,0,0-.41-.19h-8.45l11.49-14.8a.62.62,0,0,0,.1-.22l.28-1.34a.53.53,0,0,0-.11-.44A.51.51,0,0,0,124.18,268.7Z"/><path class="cls-1" d="M144.6,268.7H134.18a.52.52,0,0,0-.51.42L129.89,288a.53.53,0,0,0,.11.44.54.54,0,0,0,.41.2h10.66a.53.53,0,0,0,.52-.43l.38-1.89a.49.49,0,0,0-.1-.44.53.53,0,0,0-.41-.19h-7.82l1.25-6h6.47a.54.54,0,0,0,.52-.42l.38-1.9a.51.51,0,0,0-.1-.44.55.55,0,0,0-.41-.19h-6.3l1-5.06h7.76a.54.54,0,0,0,.52-.42l.39-1.9a.55.55,0,0,0-.11-.44A.53.53,0,0,0,144.6,268.7Z"/><path class="cls-1" d="M167.6,268.7h-2.16a.54.54,0,0,0-.52.42l-2,10c-.25,1.25-.43,2.58-.6,3.88l-.57-1.88-4.3-12.1a.54.54,0,0,0-.5-.35H154.7a.54.54,0,0,0-.52.42L150.4,288a.53.53,0,0,0,.11.44.56.56,0,0,0,.41.2h2.16a.53.53,0,0,0,.52-.43l2-10.15c.25-1.23.46-2.54.64-3.84l.61,2,4.26,12.06a.53.53,0,0,0,.5.36h2.21a.53.53,0,0,0,.52-.43l3.78-18.89a.55.55,0,0,0-.11-.44A.53.53,0,0,0,167.6,268.7Z"/><path class="cls-1" d="M196.73,268.35c-6.34,0-10.27,6.49-10.27,12.5,0,5,2.77,8.14,7.22,8.14a8.65,8.65,0,0,0,5.77-2.3.53.53,0,0,0,.09-.71l-1-1.45a.49.49,0,0,0-.36-.21.46.46,0,0,0-.41.12,5.52,5.52,0,0,1-3.66,1.56c-3.54,0-4.28-2.92-4.28-5.37,0-4.48,2.74-9.28,6.81-9.28a3.11,3.11,0,0,1,2.74,1.78.51.51,0,0,0,.35.25.53.53,0,0,0,.42-.1l1.58-1.18a.52.52,0,0,0,.14-.69A5.85,5.85,0,0,0,196.73,268.35Z"/><path class="cls-1" d="M217.55,268.35c-5.82,0-9.72,6.31-9.72,12.21,0,5.2,2.7,8.43,7,8.43,5.82,0,9.73-6.31,9.73-12.2C224.61,271.59,221.9,268.35,217.55,268.35ZM215,286c-3.17,0-3.83-3.06-3.83-5.62,0-4.27,2.57-9,6.26-9,3.17,0,3.84,3,3.84,5.62C221.27,281.24,218.69,286,215,286Z"/><path class="cls-1" d="M241.76,268.7h-2.58a.53.53,0,0,0-.46.28l-10.26,18.88a.55.55,0,0,0,0,.53.52.52,0,0,0,.45.26h2.49a.52.52,0,0,0,.47-.29l2.6-5.06,6.17,0,.44,4.88a.54.54,0,0,0,.53.49H244a.53.53,0,0,0,.39-.18.51.51,0,0,0,.13-.41l-2.18-18.89A.53.53,0,0,0,241.76,268.7Zm-4.3,8.81c.73-1.42,1.49-2.93,2.27-4.56.07.78.14,1.55.2,2.3l.47,5.23-4.48,0Z"/><path class="cls-1" d="M260.5,268.35c-3.59,0-6.41,2.54-6.41,5.78,0,2,1,3.6,3.17,4.9l2.2,1.32c1.5.89,2.09,1.63,2.09,2.65,0,1.81-1.42,3-3.52,3a5.17,5.17,0,0,1-4.42-2.42.56.56,0,0,0-.35-.23.59.59,0,0,0-.41.1l-1.64,1.25a.51.51,0,0,0-.12.71,7.82,7.82,0,0,0,6.74,3.56c4.1,0,7.08-2.65,7.08-6.31,0-2.13-1-3.64-3.09-4.89l-2.2-1.31c-1.45-.86-2.19-1.49-2.19-2.6a2.7,2.7,0,0,1,2.9-2.53,4.7,4.7,0,0,1,3.65,1.87.51.51,0,0,0,.37.18.56.56,0,0,0,.39-.13l1.46-1.33a.52.52,0,0,0,.06-.71A7.22,7.22,0,0,0,260.5,268.35Z"/><path class="cls-1" d="M288.45,268.89a.53.53,0,0,0-.41-.19H274.83a.54.54,0,0,0-.52.42l-.38,1.93a.53.53,0,0,0,.11.44.54.54,0,0,0,.41.2h4.84L276,288a.53.53,0,0,0,.11.44.54.54,0,0,0,.41.2h2.24a.53.53,0,0,0,.52-.43l3.28-16.53h5a.53.53,0,0,0,.52-.43l.39-1.93A.55.55,0,0,0,288.45,268.89Z"/></g></svg>