<?xml version="1.0" encoding="UTF-8" standalone="no"?>
<svg
   viewBox="0 0 150 40"
   version="1.1"
   id="svg11"
   sodipodi:docname="illust_dec_sm.svg"
   width="150"
   height="40"
   inkscape:version="1.1 (c68e22c387, 2021-05-23)"
   xmlns:inkscape="http://www.inkscape.org/namespaces/inkscape"
   xmlns:sodipodi="http://sodipodi.sourceforge.net/DTD/sodipodi-0.dtd"
   xmlns="http://www.w3.org/2000/svg"
   xmlns:svg="http://www.w3.org/2000/svg"
   xmlns:rdf="http://www.w3.org/1999/02/22-rdf-syntax-ns#"
   xmlns:cc="http://creativecommons.org/ns#"
   xmlns:dc="http://purl.org/dc/elements/1.1/">
  <metadata
     id="metadata15">
    <rdf:RDF>
      <cc:Work
         rdf:about="">
        <dc:format>image/svg+xml</dc:format>
        <dc:type
           rdf:resource="http://purl.org/dc/dcmitype/StillImage" />
      </cc:Work>
    </rdf:RDF>
  </metadata>
  <sodipodi:namedview
     pagecolor="#ffffff"
     bordercolor="#666666"
     borderopacity="1"
     objecttolerance="10"
     gridtolerance="10"
     guidetolerance="10"
     inkscape:pageopacity="0"
     inkscape:pageshadow="2"
     inkscape:window-width="1920"
     inkscape:window-height="1046"
     id="namedview13"
     showgrid="false"
     inkscape:zoom="4.26"
     inkscape:cx="99.061033"
     inkscape:cy="65.023474"
     inkscape:window-x="-11"
     inkscape:window-y="-11"
     inkscape:window-maximized="1"
     inkscape:current-layer="svg11"
     inkscape:document-rotation="0"
     inkscape:pagecheckerboard="0" />
  <defs
     id="defs4">
    <style
       id="style2">.cls-1{fill:#ccecf4;}</style>
  </defs>
  <g
     id="g11"
     transform="translate(-4.9999971)">
    <path
       class="cls-1"
       d="m 113.67005,16.864239 a 1.0149927,1.0149927 0 0 0 1.46221,0.622218 20.136523,20.136523 0 0 1 2.04555,-0.976104 21.108738,21.108738 0 0 1 29.16645,19.343195 c 0,1.326102 -0.59499,2.376094 -2.38387,2.418872 -2.06887,0.04667 -2.41109,-1.05777 -2.41887,-2.383872 a 16.305995,16.305995 0 0 0 -27.73536,-11.50714 c -0.68833,0.676662 -1.08499,1.392212 -2.69498,0.727217 -1.44277,-0.594996 -1.38443,-1.454434 -1.39221,-2.418872 A 16.302106,16.302106 0 0 0 81.979724,11.198169 C 81.034731,12.127607 80.14807,12.73038 78.58086,11.170949 76.9281,9.529849 77.6592,8.705411 78.60416,7.775973 a 21.132071,21.132071 0 0 1 35.06586,9.088266 z"
       id="path6"
       style="stroke-width:0.388886" />
    <path
       class="cls-1"
       d="m 34.59007,18.314017 a 0.68055073,0.68055073 0 0 0 0.97999,-0.388886 14.540452,14.540452 0 0 1 0.50555,-1.4311 14.124343,14.124343 0 0 1 2.99442,-4.518857 14.155454,14.155454 0 0 1 19.98875,-0.151666 c 0.63,0.622218 0.84388,1.407768 0,2.274984 -0.95666,1.003326 -1.64499,0.641662 -2.27499,0 a 10.935477,10.935477 0 0 0 -15.44266,0.104999 10.982144,10.982144 0 0 0 -2.30999,3.499975 10.853811,10.853811 0 0 0 -0.83222,4.09886 c 0,0.645551 0.1439,1.166658 -0.93332,1.621655 -0.96444,0.388886 -1.34555,-0.03111 -1.80832,-0.486108 a 10.923811,10.923811 0 0 0 -18.58487,7.696056 c 0,0.89055 -0.14,1.594434 -1.62165,1.598323 -1.55554,0 -1.60221,-0.731107 -1.59444,-1.621656 A 14.132121,14.132121 0 0 1 33.21729,17.6568 a 14.252676,14.252676 0 0 1 1.37278,0.657217 z"
       id="path8"
       style="fill:#d0e8c5;fill-opacity:1;stroke-width:0.388886" />
  </g>
</svg>
