<svg xmlns="http://www.w3.org/2000/svg" viewBox="0 0 540 360"><defs><style>.cls-1{fill:#ecf7fa;}.cls-2{fill:#eaf7e6;}.cls-3{fill:#4d4d4d;}.cls-4,.cls-5,.cls-6,.cls-7,.cls-8,.cls-9{fill:none;}.cls-4,.cls-5,.cls-6,.cls-7,.cls-8{stroke:#4d4d4d;stroke-linecap:round;stroke-linejoin:round;}.cls-4,.cls-5,.cls-6,.cls-7{stroke-width:1.94px;}.cls-5{stroke-dasharray:2.91 9.67;}.cls-6{stroke-dasharray:2.84 9.47;}.cls-7{stroke-dasharray:2.91 9.7;}.cls-8{stroke-width:2.91px;}</style></defs><g id="レイヤー_2" data-name="レイヤー 2"><g id="header_1"><path class="cls-1" d="M207.88,200.45c-3.37,2.76-6.86,4.62-11.9,4-16.09-2-32.14-4.49-47.59-9.54-4.7-1.55-9.61-3.5-12.59-7.45-12.73-17,11.4-39.33,19.69-53.07,3.67-6.06,7.32-12.14,11.23-18,19.92-30.12,47.3-62.8,84.88-68.78A61.85,61.85,0,0,1,269.05,47c7.07.9,13.84,3.34,20.54,5.76l23.51,8.48c5.71,2.06,11.47,4.16,16.41,7.65a25.1,25.1,0,0,1,8.21,9.27c4.45,9.18-7.19,15.29-12.59,20.69a73.64,73.64,0,0,1-6.57,6.29,52,52,0,0,1-5.58,3.6c-4,2.37-6.84,4-9.52,7.63-3.07,4.19-6.4,8.2-9.81,12.1a225,225,0,0,1-20.9,21c-6.13,5.39-12.54,10.43-18.95,15.48-4.16,3.27-8.33,6.55-12.78,9.45-3.64,2.37-7.46,4.5-11,7-6,4.15-11.22,9.26-16.62,14.12C211.42,197.25,209.67,199,207.88,200.45Z"/><path class="cls-2" d="M412.36,223.76c-7,5.82-16.19,8.69-25.19,10.59-44.16,9.32-86.71-5.83-129.74-14.66l-37.09-7.61c-3.38-.69-6.92-1.46-9.5-3.74-10.36-9.14,21-25.45,26.82-31.31,8.62-8.65,13.69-20.19,21.37-29.68,9.89-12.3,23.82-20.69,35.73-31.07,8.34-7.3,15.69-15.62,23.44-23.54,6.49-6.62,12.36-17.7,22.37-12.46l55.2,28.89c8.74,4.57,41.38,14.79,38,27.58-1,3.88-3.48,7.35-3.86,11.34-.48,5.19,2.7,10.44,1.26,15.46-1.59,5.56-8.23,8.46-9.95,14-1.35,4.35.72,8.91,1.85,13.32a33,33,0,0,1-8.72,31.08C413.74,222.56,413.06,223.17,412.36,223.76Z"/><path class="cls-3" d="M203.62,212.75c-.43-8.84,3.7-15.12,9.59-20.56,3.82-3.53,8.32-6,12.86-8.41a66.31,66.31,0,0,0,22.29-19.53c3.6-4.84,8-8.76,12.48-12.67,9.33-8.09,17.72-17.28,27.06-25.39,7.83-6.78,15.81-13.39,23.52-20.3s15.37-14,22.05-21.89c6.09-7.25,11.69-14.9,17.53-22.37,2.24-2.86,2.39-2.81,5.54-1.35,1.3.6,1,1.12.31,1.92-5,5.65-9.45,11.77-14,17.78-8.35,11-18.24,20.52-28.47,29.68-8,7.2-16.45,13.89-24.4,21.13-10.79,9.78-20.85,20.28-32,29.68-3.91,3.32-6.43,7.79-9.76,11.59-6.74,7.69-14.85,13.42-23.8,18.16a36,36,0,0,0-11.7,9.48c-5.32,6.68-5.64,13.88-2.52,21.51a27.87,27.87,0,0,0,1.86,3.6c1.12,1.93-.08,3.17-1.42,4-1.65,1-2.16-.6-2.78-1.68C205.23,222.6,203.27,217.79,203.62,212.75Z"/><path class="cls-3" d="M202.24,257.22a27.92,27.92,0,0,1-7.3-1.41c-2.37-.74-4.4-.53-6.17,1.32a5.58,5.58,0,0,1-1.15.9c-.41.26-.9.46-1.32.06a1,1,0,0,1-.05-1.34l.18-.15c2.08-1.89,4.08-4,7.36-3.06a8.62,8.62,0,0,0,1.42.25c1.8.19,3.88,1.89,5.17.76,1-.9-.09-3.35.48-5.08a.89.89,0,0,0-.31-1.23.87.87,0,0,0-.59-.12,1.79,1.79,0,0,1-.9-.35c-3.85-3-7.85-3.74-12.12-.9a1,1,0,0,1-.46.15c-.75.07-1.8.68-2.16-.26s.74-1.2,1.37-1.62c5.15-3.32,10.15-3.06,14.79.9,1.46,1.25,2.08,0,3.05-.44,1.31-.56.49-1.42.34-2.22a6.58,6.58,0,0,0-3.48-4.63c-1.6-.9-3.08-2.13-2.15-4.25,1.14-2.61,3.59-3.86,5.49-3a4.1,4.1,0,0,1,2.08,5.41l-.05.09a7.22,7.22,0,0,0-.2,5.76c.25.75.13,2.06,1.47,1.68,1.1-.33,3,.4,2.94-1.87a2.62,2.62,0,0,1,1.85-2.32c.59-.27,1.1.19,1.32.74.49,1.19.66,2.35-.84,3.15a13.61,13.61,0,0,0,6.61,1.31c.9,0,1.62-.14,1.21-1.38a1.36,1.36,0,0,1,.61-1.82,1.38,1.38,0,0,1,2,.94c1.12,2.62,2,2,3.09-.07a9.78,9.78,0,0,1,2.32-2.76,7.73,7.73,0,0,0,2.69-4.39c.39-1.7,1.31-3,3.43-2.33.9.3,1.72-.32,2.6-.33a2.06,2.06,0,0,1,2.08.9,1.92,1.92,0,0,1-.58,2.38,7.43,7.43,0,0,1-4.4,2.33c-3.4.42-4.74,3.17-6.66,5.29a.76.76,0,0,0-.13,1.05h0c.82,1.16,3.89,2.05,5.29,1.34,4.86-2.43,9-.53,13.11,2,.6.37,1,1,.54,1.63a1.1,1.1,0,0,1-1.52.27,17.65,17.65,0,0,1-3-1.53c-2.35-1.7-4.79-1.48-7.37-.73-1.22.37-1.43.9-1.36,2.26.13,2.37.9,2.79,3.06,2a8.28,8.28,0,0,1,8.93,1.88c.52.47,1.45.9.9,1.67s-1.54.27-2.06-.25c-2.7-2.7-5.77-2.35-9-1.33-1,.32-2,.67-1.68,1.92s1.35.57,2,.48c3.52-.49,6.75-.21,9.21,2.78.55.67,1.49,1.37.74,2.25-.9,1.05-1.86.2-2.42-.52-2.76-3.6-6.61-2.08-10.08-2.23-.9,0-1.24,1.1-1.59,2.16a21.25,21.25,0,0,1,7,2.32,8.72,8.72,0,0,1,3.11,2.61c.43.52.67,1.16.1,1.74s-1.21.25-1.66-.27c-2.29-2.6-5.47-3.22-8.56-4.38-3.6-1.34-6.72-.18-10,.1-6,.53-11.7.39-17-2.94a9,9,0,0,0-11.12,1.8c-.56.72-1.09,2.07-2.15,1.35s.12-1.63.55-2.39c2-3.48,5.11-4,8.71-3.65.71.07,1.69.8,2.2-.44a8.7,8.7,0,0,1,2.21.9c2.79,2.18,6,2.7,9.42,3.15,4.4.59,8.61-.5,12.89-.84a3.82,3.82,0,0,0,3.6-3.11c.56-2.37,1.41-5.05-.3-7.14a7.24,7.24,0,0,0-6.82-2.76,26,26,0,0,1-11.39-.9c-5.4-1.65-9.16,1.57-9,7.2C202.79,254.81,203.52,256.19,202.24,257.22Zm2.1-21.67c-.08-1.3-.62-2.63-1.8-2.54s-2,1.49-2.77,2.53c-.3.44,2.51,2.7,3.21,2.49,1.26-.38,1.11-1.59,1.36-2.48Zm32.23-.23c-1.12.9-3.73-1.25-4,2C234.18,236.82,235.56,236.51,236.57,235.32Z"/><path class="cls-3" d="M427.06,31c-2.17.9-4.22.17-6.3.14-1.8,0-2.34.65-2.38,2.36-.22,7.32.33,14.6.72,21.9,0,.48.12,1,.09,1.44a1.11,1.11,0,0,1-1,1.17,1,1,0,0,1-1-.9,19.7,19.7,0,0,1-.51-3.33c-.24-7.62-1.1-15.24-.2-22.86a3.94,3.94,0,0,0,0-1c-.45-3.5-.9-3.76-4.13-2.42-4.78,2-4.86,2-4.63,7.2.21,4.65.64,9.29.9,13.93.07,1.14.35,3-1.07,3-1.89.05-1.1-1.92-1.2-3.06q-.57-6.1-1-12.24a16,16,0,0,1,.07-5.26c.59-2.11-.9-2.77-2-3.6-1.27-1.07-1.91.52-2.69,1.1s-1.36,1.49-2.2,1.8a2.19,2.19,0,0,0-1.45,2.63c.28,3.2.5,6.4.75,9.61.09,1.12.3,2.23.3,3.36,0,.77.51,2-.83,2.09-1,0-1-1.07-1.11-1.85-.29-3-.62-5.91-.82-8.87a42.52,42.52,0,0,1,0-5.53,2,2,0,0,0-1.06-2c-.7-.51-1.13.13-1.7.35-3.24,1.27-4.07,3.52-3.5,6.88a57.25,57.25,0,0,1,.28,8.42c0,.66.21,1.66-.9,1.64-.9,0-1-.9-1-1.66-.17-4.25-.38-8.51-.44-12.75,0-1.74-.8-2.8-2.37-2.53-1.35.23-2.81.75-2.58,3,.51,4.94.7,9.89,1,14.9,0,.9.42,2.24-.95,2.29s-1.34-1.23-1.36-2.17c-.08-5.15-1-10.25-.77-15.39.09-1.8-1.2-1.71-2.21-1.64s-2.92,3.17-2.79,4.35c.42,3.66.84,7.33,1.18,11,.09.9.17,2.22-1.08,2.33s-1.11-1.15-1.2-2c-.28-3-.66-5.91-.75-8.87-.08-2.7-2.22-2-3.6-2.48s-2.13,0-2.78,1.45a6.65,6.65,0,0,0-.56,4.14c.11.63.12,1.43-.67,1.61s-1-.57-1.18-1.21c-.61-2.54.15-5,1.15-7.2.82-1.8,2.86-1.7,4.5-1.19,1.8.57,2.86,0,3.88-1.41,1.61-2.2,3.32-4.24,6.54-2.56.8.41,1.48-.41,2.17-.79,1.61-.9,3.31-1.11,4.72.18s2.69,1,3.95-.16c1.46-1.36,2.92-2,4.5-.22.71.8,1.45.48,2.11-.09s1.3-1.2,1.95-1.8c2.59-2.39,3.34-2.44,5.81,0a2,2,0,0,0,2.7.44c1.93-1,4-1.66,6-2.44s3.25-.06,3.46,2c.24,2.22,1.39,2.75,3.4,2.6s4.13.82,5.72-1.32c.36-.5,1.49-.39,1.43.45-.08,1.27.72,2.24.71,3.45-.08,8,.46,16.06,1,24.07a3.84,3.84,0,0,1,0,.48c-.08,1.06.42,2.7-1,2.84s-1.12-1.6-1.19-2.63C427.52,47.87,426.87,39.56,427.06,31Z"/><path class="cls-3" d="M335.12,158a15.13,15.13,0,0,1,10,4.77c1.2,1.26,1.85,1.1,3,0,2.94-2.7,5-6,7.46-9.13a65.32,65.32,0,0,1,10.39-11,19.62,19.62,0,0,1,7.15-3.88,13.83,13.83,0,0,1,11.95,1.88,69.34,69.34,0,0,1,13.59,12.91,79.12,79.12,0,0,0,8.15,8.53c.9.75,1.8,1.67.8,2.84s-2,.41-2.92-.35a91.67,91.67,0,0,1-9.9-10.48,57.56,57.56,0,0,0-10.44-9.89c-5.23-3.69-9.81-3.77-15,.09s-9.24,8.9-13.09,14.06c-2,2.64-3.82,5.39-6.54,7.33-1.09.79-.52,1.3.05,1.89,2.32,2.45,4.67,4.88,7,7.34.82.9,1.92,1.91.7,3.07s-2.21.05-3.05-.82c-3.67-3.83-7.29-7.7-11-11.51a16.55,16.55,0,0,0-3-2.45c-4.25-2.65-6.35-2.48-10.17.71a43.52,43.52,0,0,0-7,7.32,15.71,15.71,0,0,1-3.55,3.59,1.59,1.59,0,0,1-2.2,0,1.43,1.43,0,0,1-.07-2,.68.68,0,0,1,.12-.12c4.1-4.3,7.49-9.28,12.46-12.7A8.29,8.29,0,0,1,335.12,158Z"/><path class="cls-3" d="M307.37,178.71c9.05.3,15,2.48,19.78,7.65,4,4.22,7.64,8.68,11.51,13,.73.81,1.47,1.74.49,2.7s-2.12.3-2.9-.54c-4-4.3-7.63-8.89-11.7-13.12-5.39-5.64-12.06-7.26-19.4-5.89-4.87.9-8.48,4.42-11.93,7.8a52.94,52.94,0,0,1-7.13,6.07c-1,.67-2.3,1.46-3.17.06s.39-2.1,1.41-2.8a57,57,0,0,0,6.56-5.66C296.16,183.06,301.59,178.36,307.37,178.71Z"/><path class="cls-3" d="M356.4,28.39c-7.7.55-14.3,2.7-19.57,7.89-4.13,4-8.17,8.22-9.85,14-.16.55-.38,1.13-1.12,1S325,50.59,325,50a7.15,7.15,0,0,1,.9-3.7c6.29-11,14.78-19,28.09-20.18a14.19,14.19,0,0,1,5,.21c.64.17,1.26.43,1.38,1.16s-.39,1.15-1,1.5a8.55,8.55,0,0,0-3.54,3.41c.56.75,1.25.28,1.8.35,1.94.21,2.5,1.19,1.64,2.94a9.45,9.45,0,0,0-.75,1.49c-.18.66,0,1.69-1.1,1.38s-1-1.2-.74-2a14.75,14.75,0,0,1,.6-1.56c-1-.5-1.8.09-2.61.3s-1.43.44-1.95-.34-.09-1.24.28-1.79C354.1,31.75,355.1,30.28,356.4,28.39Z"/><path class="cls-3" d="M364.33,51.78c3.1,1,3.21,1.21,1.46,3.81-.81,1.2-1,2.32,0,3.5.34.4.89.9.34,1.43s-1.24.08-1.69-.35c-1.94-1.79-1.28-3.74-.26-5.7-1-.9-3.4,1-3.23-1.61.1-1.44,1.79-2.11,2.47-3.38-1-.61-1.72,0-2.47,0s-1.31.23-1.8-.37-.2-1.38.11-2a5.38,5.38,0,0,1,.5-.83c1.8-2.63,1.8-2.65-1.49-3-6.08-.71-10.39,2.79-14.64,6.22-3.2,2.58-5.92,5.6-4.5,10.31a.9.9,0,0,1-.5,1.17h0c-.54.14-.9-.26-1.1-.72a7.18,7.18,0,0,1-.1-5.85c1.16-3.05,3.46-5.16,5.9-7.19,5.28-4.35,10.92-7.45,18.1-5.4a7.14,7.14,0,0,1,1.38.43c1.11.56,2.7.79,2.7,2.34s-1.66.84-2.49,1.32c-.41.25-.9.38-1,1C367,48.35,367,48.35,364.33,51.78Z"/><path class="cls-3" d="M372.9,25.84c2,1,3.33-.22,4.59-1.74a26.73,26.73,0,0,1,2.38-2.38c2.14-2,3.2-2.1,5.4-.13,1.42,1.27,2.6,1.63,4.12.32.6-.52,1.47-.73,2-1.28,1.93-2,3.87-2.4,6.06-.44,1,.9,1.94.41,2.84-.24,1.73-1.24,3.35-1.45,4.85.4.95,1.17,2,.55,3,.08.69-.31,1.43-.6,1.9.25s-.16,1.52-.9,1.93c-1.87,1.08-3.81,1.55-5.51-.19a1.55,1.55,0,0,0-2.16-.42,2.37,2.37,0,0,0-.29.25,4.07,4.07,0,0,1-5.33-.09c-1-.8-1.76-.56-2.7.19a40.24,40.24,0,0,1-4.26,2.7c-1.8,1.06-3.3.26-4.5-1s-2.37-1.33-3.6.09c-1,1.17-2.1,2.22-3.14,3.33s-2,1.6-3.22,1.17c-2.7-1-4.23.44-5.69,2.32-.46.59-.9,1.69-1.8,1.06s-.17-1.65.34-2.27C368.81,28,370,25.8,372.9,25.84Z"/><path class="cls-3" d="M385.88,55.85A22.65,22.65,0,0,1,378.09,63a6.33,6.33,0,0,1-6.42,0c-.62-.34-1.48-.68-1.07-1.57s1.15-.52,1.69-.2c2.56,1.51,4.65.29,6.64-1.16a19.31,19.31,0,0,0,6.29-7.45c.3-.64.55-1.48,1.46-1.38,1.15.13.9,1.13,1,1.88.2,1.16.15,2.56,1.49,3.07,1.49.57,2.61-.34,3.6-1.3a12.15,12.15,0,0,0,.95-1.09c.47-.58,1-1.14,1.8-.85s.73,1,.9,1.59c.23.9-.11,2.15,1.17,2.35,1.08.15,1.67-.84,2.3-1.55A28.1,28.1,0,0,0,401.56,53c.36-.5.8-.85,1.43-.58s.58.9.49,1.45a22.55,22.55,0,0,0-.46,2.83c-.09,2.84,1.8,4.23,4.5,3.45.62-.18,1.41-1,1.8.14.28.84-.56,1.25-1.17,1.59-2.27,1.28-5.73.06-6.86-2.58-.53-1.23-.79-1.68-2.07-.77-1.61,1.14-3.1.58-4.11-1-.54-.9-.78-1.34-1.91-.51C390.36,59.21,388.41,58.86,385.88,55.85Z"/><path class="cls-3" d="M252.37,314.18c.06,1.8-.38,2.9-1.79,3.14s-2.27-.67-2.7-1.93c-1.42-4.59-10.26-29.22-11.17-34a30.07,30.07,0,0,0-1.7-5.25c-.35-.9-1.57-2.05.29-2.7,1.57-.56,3.22-1,4.14,1a20,20,0,0,1,1.38,3.84c1.1,4.49,9.24,29.18,11,33.52A15.44,15.44,0,0,1,252.37,314.18Z"/><path class="cls-3" d="M285.86,102.55c-2-1.57-4.69-.9-7.39-.4a3.06,3.06,0,0,1-2.83-1.11c-1.14-1.44-2-1.45-3.6-.41a7.5,7.5,0,0,1-8.21.08c-.81-.47-1.72-1.3-1.1-2.35s1.49-.16,2.21.25a6,6,0,0,0,7.28-1.06c2-1.79,2.59-1.79,4.06.47,1.19,1.8,2.62,2.31,4.44,1.07a2.7,2.7,0,0,1,3.49.08c1.19.9,2.51,1.48,4,.44.57-.39,1.23-.56,1.71.09a1.38,1.38,0,0,1-.39,1.9A4.24,4.24,0,0,1,285.86,102.55Z"/><path class="cls-3" d="M216,118.64a7.44,7.44,0,0,1-4.14-1.09,1.08,1.08,0,0,1-.56-1.22,1,1,0,0,1,1.18-.66,1,1,0,0,1,.21.09c3.5,1.8,5.57.25,7.12-2.87.63-1.26,1.64-1.18,2.48-.11a7.83,7.83,0,0,0,3.45,2.53,3.24,3.24,0,0,0,4.1-1,1.68,1.68,0,0,1,3,.11,6.14,6.14,0,0,0,3.85,2.66c.74.17,1.44.55,1.19,1.47s-1.06.9-1.8.79c-1.94-.21-3.22-2-4.81-2.42s-3.16,1.49-5.18,1c-1.8-.48-3.11-1.94-4.68-2.29s-2.14,2.5-4,2.77C216.88,118.48,216.33,118.58,216,118.64Z"/><path class="cls-3" d="M300.53,75.87c-2.1-1.7-4.42-.57-6.95.38-1.64.61-3.27-.56-4.41-1.9-.8-.9-1.36-.9-2.37-.18a6.22,6.22,0,0,1-7.19.43c-.59-.43-1.28-.9-.86-1.8s1.23-.64,1.89-.29a4.3,4.3,0,0,0,5.79-1.25c1.16-1.38,2.23-1.23,3.4,0,2.7,2.95,2.7,2.93,6.16.72a2.31,2.31,0,0,1,3.06.36,3,3,0,0,0,2.6,1c.9-.15,2.17-.56,2.21.9,0,1.14-1.13,1.41-2.13,1.53C301.5,75.9,301.26,75.87,300.53,75.87Z"/><path class="cls-3" d="M211.37,142.53c-2.07-1.8-4.24-.65-6.42.37a1.44,1.44,0,0,1-1,0c-3.08-.89-6-1.74-9,.7-1.22,1-3.2-.34-4.57-1.37A1,1,0,0,1,190,141c.3-.68.9-.58,1.44-.39s1.05.4,1.56.63a2.51,2.51,0,0,0,3.64-1.24c.95-1.89,2.07-2.18,3.79-.9,2.7,2.06,3.75,1.95,6.3-.42a1.41,1.41,0,0,1,1.51-.47c1.66.76,3.07,2,5,2.27.39.05.47.61.31,1C213.13,142.32,212.39,142.38,211.37,142.53Z"/><path class="cls-3" d="M265,127.88a3.13,3.13,0,0,1-1.28-.31c-1.48-1.12-2.48-.58-3.84.48-1.86,1.44-3.91.51-5.52-.74-1.16-.9-1.75-1.09-2.9.07-1.63,1.67-4.67,1.48-6.37-.09-.48-.44-1-1-.57-1.65s1.14-.47,1.72-.14c2.22,1.29,3.92,1,5.17-1.41.58-1.11,1.52-1,2.42-.31a22.55,22.55,0,0,0,2.18,1.86c1.33.85,2.64,1.1,3.73-.52s2.29-1.56,3.68-.43a4.16,4.16,0,0,0,2.21.9c.9.09,2.29-.27,2.07,1.2S266.1,127.8,265,127.88Z"/><path class="cls-3" d="M195.39,319.7c-2.69,1.69-4.57,4.07-6.91,5.89-1.18.9-2.43,1.74-3.69,2.56-.55.35-1.28.81-1.74,0s.35-1.08.82-1.37c3.94-2.39,6.88-6,10.49-8.75.65-.51,1.63-1,1.14-2.31a15.71,15.71,0,0,0-3.49,2.69,76.37,76.37,0,0,1-12.9,8.92c-.63.37-1.59,1-2,.21-.56-1,.66-1.29,1.33-1.63,5.94-3.12,11.11-7.29,16.19-11.56,1.07-.9,1.05-2.07,1.37-3.2.47-1.58-.53-1.91-1.7-2.21a.77.77,0,0,1-.64-.89c0-.05,0-.1,0-.14a1,1,0,0,1,1-.69c1.05.06,2.07.24,3.12.3s2.28.73,3.05-.9c.39-.81,1.26-.41,1.32.49.11,1.39,1.11,1.19,2,1.24A1.62,1.62,0,0,0,206,307a15.16,15.16,0,0,1,2.34-5.77c.85-1.19-.31-1.12-.9-1.37s-1.69-.3-1.49-1.32,1.24-.83,2-.7a24.33,24.33,0,0,1,3.05.65c1.41.44,2.94,1.46,3.15-1.19a.71.71,0,0,1,.79-.62h0a.82.82,0,0,1,.68,1c-.56,2,.81,2.15,2.21,2.38a61.42,61.42,0,0,1,8.26,2c.59.18,1.26.35,1.22,1.08,0,.9-.9,1-1.51.9-1.48-.31-1.66.47-2,1.67-1.55,6.55,1.21,11.51,5.72,15.81,2.48,2.37,4.8,4.94,7.88,6.6.64.35,1.48.82.9,1.72s-1.35.37-2,0c-4.16-2.37-7.3-5.87-10.37-9.44-.62-.72-.85-1.8-2-2.17,0,2.81,1.25,5.09,2.48,7.38.21.39.52.73.73,1.14.31.62,1.12,1.32.32,2s-1.3-.28-1.8-.8a15.19,15.19,0,0,1-3.67-7.33,39.49,39.49,0,0,1-.09-14.7c.34-1.92-.1-2.64-2.05-3.27-3.78-1.2-6.74-.77-9.21,2.53a25.76,25.76,0,0,1-3.68,3.24c2,.25,3.2.35,4.38.56s1.76.78.48,1.7a1.56,1.56,0,0,0-.67,1.33c-.15,5.29-.73,10.6.52,15.85.27,1.16,1.18,2.11,1,3.39-.09.68-.15,1.45-1,1.58s-1-.66-1.15-1.17a28,28,0,0,1-1.49-8.35c-.08-3.66,0-7.33.19-11,0-1.28-.37-1.47-1.52-1.5a5.81,5.81,0,0,0-4.79,1.85,59.88,59.88,0,0,1-4.56,4.31,2.61,2.61,0,0,0-1,2.35c.39,4.24.66,8.51,2.78,12.37.33.59,1,1.43,0,1.9s-1.31-.47-1.7-1.09c-2-3.14-2.32-6.74-2.79-10.3A4.8,4.8,0,0,0,195.39,319.7Zm2.2-4.28c1.72-1.8,3.25-2.83,4.42-4.55A5.08,5.08,0,0,0,197.59,315.42Zm11.24-10.88c1.17-1,1.93-1.64,2.64-2.31.28-.25.82-.55.31-1a.89.89,0,0,0-1.2,0A5.57,5.57,0,0,0,208.83,304.54Z"/><path class="cls-3" d="M181,332.17a30.52,30.52,0,0,0,8.21,13.36,1,1,0,0,0,1.18.33c1.31-.63,2.12.25,2.92,1,1.34,1.3,2.61,1.48,4.12.16A2.94,2.94,0,0,1,202,348.7c.29,1.18-.78,1-1.25.74-1.35-.9-2.41-.42-3.67.25a4.16,4.16,0,0,1-4.8-.82c-1-.9-1.6-.68-2.45,0a6.15,6.15,0,0,1-5.4,1.64c-.73-.15-1.66-.29-1.57-1.26s1-.9,1.74-.84a9,9,0,0,0,1.8,0c.59-.07,1.32-.26,1.52-.82.27-.76-.67-.82-1.05-1.21a36.6,36.6,0,0,1-8.1-13.77c-.37-1.05.34-1.87.83-2.7.32-.55.9-.29,1.42-.07,6.38,2.86,13.21,3.76,20.05,4.24A132.87,132.87,0,0,0,233,332.56a20,20,0,0,0,6-1.59c1.54-.81,1.8.31,1.6,1.54a88.51,88.51,0,0,1-1.87,9c-.56,1.87.95,3.6,2.69,2.82,2.59-1.25,5.4.22,7.87-1.18a.54.54,0,0,1,.75.21l0,0c.19.34,0,.6-.28.77-.53.4-1.06,1-1.66,1.09-3.11.51-6.14,2-9.38.83a1.81,1.81,0,0,0-1.85.31,5.93,5.93,0,0,1-1.75.94c-.9.3-2.11.78-2.47-.53s.9-1,1.66-1.25a2.36,2.36,0,0,0,1.86-2.37c.3-2.42,1.13-4.78,1.66-7.2.47-2.15.24-2.3-2-1.9a128.9,128.9,0,0,1-44.11.9C188.1,334.52,184.73,333.23,181,332.17Z"/><path class="cls-3" d="M226.76,349.26a2.34,2.34,0,0,1-.61,0,5.27,5.27,0,0,0-5.85.63,1.68,1.68,0,0,1-2.1-.22c-1.52-1.73-2.63-.82-4,.21-1.67,1.22-3.66,1.08-5.59.57-.69-.17-1.37-.51-1.19-1.34s1-.9,1.66-.69a6,6,0,0,0,6.24-2c1-1.08,2.11-1.17,2.91.22,1,1.74,2.05,1.42,3.14.16a2.33,2.33,0,0,1,3.23-.61,2.25,2.25,0,0,1,.3.24,5.57,5.57,0,0,0,2.63,1.15c.57.08,1.44,0,1.49.7,0,.9-.9.8-1.51.94A4.37,4.37,0,0,1,226.76,349.26Z"/><path class="cls-3" d="M221.27,163.07a6.18,6.18,0,0,1-1.67-.6,1.5,1.5,0,0,0-2.11,0,4.05,4.05,0,0,1-5.13-.06c-1.09-.81-1.67-.54-2.6.22a5.51,5.51,0,0,1-7.68-1c-.4-.59-.9-1.33-.24-1.95s1.15.08,1.67.45c3,2.16,3.86,2.08,6.37-.74.8-.89,1.63-1.13,2.38-.1,1.55,2.15,3.17,2.51,5.13.55a1.72,1.72,0,0,1,2.42-.17l.16.17a3.27,3.27,0,0,0,1.8,1c.75.08,1.85-.09,1.71,1.1S222.27,162.94,221.27,163.07Z"/><path class="cls-3" d="M326.3,144.06v2.15c0,2-.9,3-2.9,3-.8,0-1.6,0-2.4-.1-6.5-.45-7.19-1.32-6.2-7.9.1-.63.12-1.42,1-1.43,1,0,1,.9,1,1.59a30.88,30.88,0,0,1,0,3.6c-.08,1.18.56,1.66,1.69,1.85,5.19.9,5.53.6,5.59-4.59v-1.44c0-.47.22-1.16.9-1.19s1,.51,1,1.09c.06,1.12,0,2.24,0,3.37Z"/><path class="cls-3" d="M329.47,138.53a1.14,1.14,0,0,1-.52,1.16,1.33,1.33,0,0,1-1.72-.43,47.67,47.67,0,0,1-3.52-4.24c-1.13-1.62-2.18-1.85-3.67-.45-1.8,1.63-3.6,3.15-5.46,4.68-.53.43-1.21,1.13-1.89.42s.1-1.3.55-1.8a41.61,41.61,0,0,1,6.9-6,2.76,2.76,0,0,1,3.9.12l0,0c1.8,1.8,3.4,3.82,5.06,5.76A2.39,2.39,0,0,1,329.47,138.53Z"/><path class="cls-3" d="M237,87.27c-2.21.14-3.59-1.88-5.28-2.23-1.25-.25-2.62,2.53-4.73,2.58a6.75,6.75,0,0,1-1.89-.27c-.89-.27-2.13-.61-1.79-1.8s1.45-.55,2.24-.31c1.88.58,3-.55,4.14-1.73,2-2.17,2.47-2.22,4.29-.09,1.63,1.88,3.51,1.51,5.47.79.79-.29,1.72-1,2.23.2.43,1-.48,1.59-1.25,2A7.68,7.68,0,0,1,237,87.27Z"/><path class="cls-3" d="M339.69,118.72a2.92,2.92,0,0,0-1.72,1.2c-1.88,2.07-3.74,4.18-5.59,6.29-.37.41-.7,1.09-1.32.65s-.31-1.19.07-1.7a46,46,0,0,1,7.11-7.83,2.55,2.55,0,0,1,3.51.13,38.27,38.27,0,0,1,6.34,6.57c.47.59.9,1.34.1,1.89s-1.3-.2-1.8-.72c-1.71-1.8-3.39-3.59-5.11-5.39A2.5,2.5,0,0,0,339.69,118.72Z"/><path class="cls-3" d="M339.13,135.34c-6,0-6,0-6-6.05a1,1,0,0,1,0-.25c.09-1-.23-2.59,1-2.59,1.4,0,.83,1.61.84,2.53,0,4.5,0,4.5,4.61,4.5,3.75,0,3.75,0,4.22-3.78.11-.9.15-1.8.27-2.63.07-.5.34-.9.9-.9a.81.81,0,0,1,.83.82.45.45,0,0,1,0,.16c-.17,2.24-.29,4.49-.63,6.7a2,2,0,0,1-2.19,1.53C341.71,135.35,340.42,135.34,339.13,135.34Z"/><path class="cls-3" d="M312.89,150.48c0,.56-.08.9-.5,1.13a1.39,1.39,0,0,1-1.69-.53c-1.6-1.68-3.23-3.35-4.75-5.11-.95-1.1-1.7-1.16-2.69-.06-1.59,1.7-3.28,3.31-4.92,5-.49.48-1,1.36-1.8.76s-.13-1.51.37-2.07a48.84,48.84,0,0,1,6.57-6.29,1.72,1.72,0,0,1,2.42-.13c2.25,2.17,4.43,4.42,6.61,6.65A2.26,2.26,0,0,1,312.89,150.48Z"/><path class="cls-3" d="M303.5,159.21h-2.4c-1.8-.09-2.86-.9-2.82-2.84,0-1.28,0-2.56,0-3.84a.9.9,0,0,1,.8-1h.1c.59,0,.85.41,1,.9s.07.8.18,1.18c.32,1.1-.61,2.84.74,3.24a10.9,10.9,0,0,0,5.94.09c1.2-.35.44-1.8.64-2.78s-.52-2.61.79-2.7c1.49-.06,1.09,1.65,1.12,2.7C309.61,159.16,309.59,159.16,303.5,159.21Z"/><path class="cls-3" d="M416,21.17c-1.37.08-2.25.17-3.12.17a1.07,1.07,0,1,1-.33-2.11,20.67,20.67,0,0,1,9.48.43,1.27,1.27,0,0,1,.8.81c.31,2,1.8,2.7,3.29,3.51.64.37,1.29.84.77,1.7-.41.69-1.13.55-1.71.24-1.65-.9-3.71-1.27-4.14-3.59-.15-.83-.89-.83-1.5-.9Z"/><path class="cls-3" d="M192.7,248.25c2.7.18,4.5,1.64,6.57,2.7a.9.9,0,0,1,.59,1.12.87.87,0,0,1-.16.3,1,1,0,0,1-1.26.4,3.12,3.12,0,0,1-1.1-.45c-3.56-2.7-7.08-1.51-10.62,0-.29.13-.57.29-.9.41-.66.28-1.44.64-1.91-.16s.25-1.39.83-1.72A28.47,28.47,0,0,1,192.7,248.25Z"/><line class="cls-4" x1="178.66" y1="196.21" x2="180.07" y2="196.56"/><line class="cls-5" x1="189.44" y1="198.9" x2="355.48" y2="240.44"/><line class="cls-4" x1="360.16" y1="241.61" x2="361.58" y2="241.96"/><line class="cls-4" x1="185.12" y1="280.34" x2="186.56" y2="280.55"/><line class="cls-6" x1="195.94" y1="281.88" x2="349.77" y2="303.66"/><line class="cls-4" x1="354.46" y1="304.33" x2="355.9" y2="304.54"/><line class="cls-7" x1="308.41" y1="63.91" x2="451.92" y2="135.56"/><path class="cls-3" d="M70.51,136.37c1.8-5,5.39-5.33,9.57-4.59a5.55,5.55,0,0,0,3.26-.76,12.12,12.12,0,0,1,4-1.25c4.82-.35,9.33-2.25,14.12-2.83,2.7-.32,4.81-2,6.57-4,1.49-1.69,3.1-2.79,5.46-2.25a1.17,1.17,0,0,0,1.36-.44c1.08-1.8,3-2.76,4.39-4.22a4.24,4.24,0,0,0,1.28-3c.1-2.6.24-5.19.36-7.79.2-4.15,1.14-4.94,5.19-5.64,4.28-.75,8.58-1.38,12.88-2a21.7,21.7,0,0,1,9.71.6c5.45,1.68,9.08-.34,10.53-5.82.29-1.1.51-2.2.84-3.28a6.31,6.31,0,0,1,3.4-4c3.19-1.51,4.27-4.71,5.85-7.45.65-1.13-.25-2.25-1.09-3-3.32-2.9-6.56-5.94-10.67-7.71a8.54,8.54,0,0,1-5.46-7.87,4.92,4.92,0,0,0-3.83-4.93c-3.64-1.12-7.19-2.4-10.07-5a1.71,1.71,0,0,0-2.06-.14A5.21,5.21,0,0,0,133.92,51c-.74,1.27-1.4,2.59-2.15,3.85-.45.73-.45,2.07-1.8,1.8-.9-.21-1.52-2.06-1-3.26A15.26,15.26,0,0,1,133.26,47a7.75,7.75,0,0,1,2.06-1.16,4.4,4.4,0,0,1,4.91.82,19,19,0,0,0,7.71,4.09,24.53,24.53,0,0,1,2.87,1,6.78,6.78,0,0,1,4.31,6.36,6.29,6.29,0,0,0,4.18,6.29c4.22,1.8,7.67,4.79,11,7.86,2.76,2.56,3,5.26.9,8.39-1.87,2.88-3.53,6-6.93,7.45A2.57,2.57,0,0,0,163,90.08c-.38,1.48-.68,3-1.11,4.44-1.58,5.32-6,8.5-11.28,7-7.4-2.09-14.44-.29-21.58.73-1.07.14-2.12.43-3.19.47-1.3,0-1.8.67-1.8,1.9-.09,2.6-.35,5.21-.29,7.79.09,3.37-1.62,5.51-3.95,7.44-.35.29-.83.49-1.06.85-1.51,2.33-3.42,3.69-6.36,3-.6-.12-1,.44-1.38.9-2.93,3.4-6.63,5-11,6-5.5,1.16-11.16,1.8-16.43,4a9.45,9.45,0,0,1-5,.26c-2.85-.41-3.54,0-4.81,2.54-1.55,3.13-3.84,3.4-5.86.5a27.32,27.32,0,0,1-4.5-10,7.54,7.54,0,0,1,.32-4.67c.84-1.94,2.4-3.12,4.31-2.38,4.73,1.8,9.11.16,13.6-.71,1-.2,2.11-.42,3.15-.68a8.55,8.55,0,0,1,6.68.9c2.7,1.55,3.93.9,4.84-2.07a21.54,21.54,0,0,0,.6-5.88c.07-3.08,1.45-4.19,4.49-3.5a2.59,2.59,0,0,0,2.47-.69c2.06-1.8,2.82-4.19,3.53-6.64a2,2,0,0,1,1.74-1.39c.66-.11.9.51,1.29.9a1,1,0,0,1,.21,1c-.9,3.23-2,6.38-4.65,8.68a5.11,5.11,0,0,1-4.5,1.45c-1.21-.25-1.45.22-1.42,1.31a17.76,17.76,0,0,1-.8,6.36c-1.46,4.21-5,5.76-8.87,3.6a7.53,7.53,0,0,0-5.83-.78c-2.91.71-5.86,1.22-8.78,1.88a12,12,0,0,1-7-.48c-1.91-.7-2.57-.08-2.53,2a1.93,1.93,0,0,0,0,.34C66.68,130,68.51,133,70.51,136.37Z"/><path class="cls-3" d="M87.71,72.51c-.61-4.7,1.72-8.58,5.17-11.94,8-7.8,17.67-9.08,28-6.68,6.08,1.42,9.26,6.17,11.52,11.69,2.49,6.12,1.05,11.69-2.15,16.94-2.34,3.85-4.82,7.58-8.5,10.45a16.05,16.05,0,0,1-16.19,2.62A71.9,71.9,0,0,1,97,92c-3.91-2-6.3-5.4-7.71-9.51A26.67,26.67,0,0,1,87.71,72.51ZM112.5,55c-6.23,0-12,1.43-16.72,5.75-2.76,2.52-5.49,5.1-5.92,9.16a27.09,27.09,0,0,0,1.2,11.69c1.57,4.61,4.33,8.19,9.36,9.69,2.42.71,5,1.09,7.2,2.34,4.27,2.39,8.09.82,11.69-1.5,5.06-3.28,8-8.33,10.6-13.59,3.2-6.51.78-16-5.07-20.42C121.15,55.33,116.94,54.78,112.5,55Z"/><path class="cls-3" d="M100.93,75.82c.18-4.81,2.94-7.82,6.69-9.69A53.1,53.1,0,0,0,115,61.7a26.79,26.79,0,0,1,3.81-2.53,4,4,0,0,1,2.28-.44c1.27.17,1.43,1.17,1.65,2.07.31,1.2-.84.83-1.33,1-2.48.82-4.35,2.61-6.44,4a39.4,39.4,0,0,1-5.58,3.09c-3.6,1.69-6.78,5.52-4.14,10.17,1.69,3,1.8,6.52,3,9.7a.69.69,0,0,1-.32.92l-.11,0c-.9.37-2.88-.38-3.12-1.35-.9-3.84-2.24-7.56-3.49-11.31A6.63,6.63,0,0,1,100.93,75.82Z"/><path class="cls-3" d="M442.88,41.65a14.41,14.41,0,0,1-5.09,3.06.35.35,0,0,1-.37-.33h0a.38.38,0,0,1,.3-.37,13.2,13.2,0,0,0,4.81-2.82h-1.28c-.7,0-1.8,0-1.86-1.17v-2.3a1.17,1.17,0,0,1,1.21-1.13h2.26V35.35h-4.45a.3.3,0,0,1-.31-.29h0a.28.28,0,0,1,.28-.29h4.48V33.5a.32.32,0,0,1,.32-.33h0a.34.34,0,0,1,.36.31v1.27h4.5a.29.29,0,0,1,.31.27v0a.29.29,0,0,1-.3.3h-4.51v1.22h2.32a1.18,1.18,0,0,1,1.25,1V40a1.24,1.24,0,0,1-1.29,1.21h-2a14.13,14.13,0,0,0,4.85,2.7.38.38,0,0,1,.3.35.43.43,0,0,1-.45.41h0a14.37,14.37,0,0,1-5-3v3.2a.35.35,0,0,1-.35.35h0a.35.35,0,0,1-.37-.33h0Zm0-4.5h-2c-.65,0-.82.35-.82,1.42h2.85Zm0,2H440c0,.9,0,1.49.82,1.52h2Zm.65,0v1.53h2.11c.85,0,.85-.61.85-1.52Zm2.94-.53c0-.9,0-1.39-.85-1.42h-2.09v1.44Z"/><path class="cls-3" d="M459.18,42.19v1.5c0,.55-.21,1.38-1.58,1.38-.9,0-1.21-.16-1.21-.43a.32.32,0,0,1,.3-.34h.09a4.05,4.05,0,0,0,.85.12c.51,0,.9-.2.9-.84V42.19h-7.14a.3.3,0,0,1-.3-.29v0a.3.3,0,0,1,.3-.3h7.12v-.73a.31.31,0,0,1,.33-.3h0a.3.3,0,0,1,.33.28v.83H462a.29.29,0,0,1,.31.27v0a.3.3,0,0,1-.29.32h0Zm-4.86-3.6v1.26c.68-.07,1.33-.14,1.84-.22h.06a.26.26,0,0,1,.24.26h0a.25.25,0,0,1-.24.26c-1.57.28-4.35.46-4.49.46a.27.27,0,0,1-.3-.26v0a.27.27,0,0,1,.24-.29h0c.61,0,1.28-.06,1.94-.11v-1.3h-1.54a.26.26,0,0,1-.29-.24v0a.27.27,0,0,1,.27-.28H456a.28.28,0,1,1,0,.55Zm-.9-2.83a.27.27,0,0,1-.32-.21.28.28,0,0,1,.22-.32h6.48c0-.42-.06-.9-.72-.9h-6a.25.25,0,0,1-.26-.26h0a.26.26,0,0,1,.25-.28h6.19c1.25,0,1.25.74,1.25,1.79,0,.74,0,1.58-1.24,1.6h-6.32a.28.28,0,0,1-.27-.27.27.27,0,0,1,.27-.27h6.16c.71,0,.71-.43.71-.9ZM455.47,44a4.6,4.6,0,0,0-1.58-.9.23.23,0,0,1-.18-.21.37.37,0,0,1,.36-.36c.29,0,1.95.57,1.95,1.11a.42.42,0,0,1-.36.41.28.28,0,0,1-.18,0Zm3.84-3.69c-1.56,0-2.31,0-2.31-.82v-.8c0-.4.25-.75,1-.77h1.3c2,0,2.28,0,2.28,1.19s-.07,1.23-2.25,1.23Zm1.63-1.22c0-.64,0-.67-1.64-.67-1.43,0-1.62,0-1.65.37v.56c0,.36.09.41,1.47.41,1.8,0,1.8,0,1.8-.37l0-.27Z"/><path class="cls-3" d="M466.29,37.36h-1.57a.32.32,0,0,1-.27-.37.31.31,0,0,1,.27-.26h1.57V33.9a.35.35,0,0,1,.41-.3.37.37,0,0,1,.3.3v2.83h1.55a.33.33,0,0,1,.26.38.32.32,0,0,1-.26.26H467v3.56c.6-.22,1.13-.45,1.55-.64h.13a.32.32,0,0,1,.31.32.33.33,0,0,1-.23.3,29.48,29.48,0,0,1-4.18,1.54.34.34,0,0,1-.34-.33v0a.33.33,0,0,1,.26-.34,14.58,14.58,0,0,0,1.8-.55Zm5.82-1.11a13.13,13.13,0,0,1-.2,1.92h2a1.17,1.17,0,0,1,1.27,1,2.09,2.09,0,0,1,0,.25,14.46,14.46,0,0,1-.44,3.27c-.36,1.29-1.08,2-2.22,2a4.77,4.77,0,0,1-1.7-.38.33.33,0,0,1-.21-.33.37.37,0,0,1,.35-.39.38.38,0,0,1,.15,0,3.72,3.72,0,0,0,1.39.33c.72,0,1.24-.4,1.54-1.38a12,12,0,0,0,.42-3c0-.76-.47-.77-1.27-.77h-1.35a8.1,8.1,0,0,1-4.23,6.11.52.52,0,0,1-.25.07.4.4,0,0,1-.4-.38h0a.39.39,0,0,1,.24-.33c3.1-1.56,4-4.5,4.23-8h-2.69a.31.31,0,0,1-.33-.3v0a.33.33,0,0,1,.3-.35h2.92v-2a.35.35,0,0,1,.34-.35h0a.34.34,0,0,1,.39.3v2h3.33a.31.31,0,0,1,.33.3v0a.32.32,0,0,1-.31.34h0Z"/><path class="cls-3" d="M421.72,86.89h-1.39a.59.59,0,0,1-.63-.56v-.06a.65.65,0,0,1,.59-.69h1.43V82.79a.72.72,0,0,1,1.43,0v2.79h1.17a.62.62,0,0,1,.61.6.43.43,0,0,1,0,0,.61.61,0,0,1-.56.66h-1.23V90c.33-.15.62-.32.9-.45a.74.74,0,0,1,.35-.1.58.58,0,0,1,.57.6h0a.79.79,0,0,1-.44.65,22.5,22.5,0,0,1-4.26,1.8.68.68,0,0,1-.68-.68v0a.73.73,0,0,1,.52-.7c.56-.15,1.11-.34,1.65-.54Zm10.54-2.77h-4.82c-.47,0-.58.24-.58.6v1.37h4.19c.8,0,1.34.4,1.34,1.21A11.74,11.74,0,0,1,430.46,92,6.12,6.12,0,0,0,433,93.72a.7.7,0,0,1,.5.67.85.85,0,0,1-.87.82h0a5.21,5.21,0,0,1-3-2.06,6.91,6.91,0,0,1-3.47,2.22.73.73,0,0,1-.73-.72h0a.68.68,0,0,1,.47-.64,7.46,7.46,0,0,0,2.88-2,10.16,10.16,0,0,1-1.49-4.67h-.43c-.07,2.76-.46,5.4-2.7,7.38a.86.86,0,0,1-.59.23.79.79,0,0,1-.8-.72.71.71,0,0,1,.26-.5c2.13-1.88,2.45-4,2.45-6.35,0-1,0-2-.06-3.08,0-.9.52-1.44,1.62-1.47h5.28a.67.67,0,0,1,.7.63v0a.66.66,0,0,1-.65.67h0Zm-1.43,3.5c0-.19-.17-.32-.43-.32h-1.87a9.11,9.11,0,0,0,1.08,3.49,10.23,10.23,0,0,0,1.2-3.17Z"/><path class="cls-3" d="M444.58,90.53v4.18a.72.72,0,0,1-.7.74h-.05a.72.72,0,0,1-.77-.68V90.54h-2.7c-.72,4.6-4.38,5-4.5,5a.77.77,0,0,1-.75-.78v0a.59.59,0,0,1,.45-.64,4.25,4.25,0,0,0,3.31-3.6h-3a.67.67,0,0,1-.68-.68.68.68,0,0,1,.68-.69H439v-3h-2.56a.68.68,0,1,1,0-1.35H439v-2h0a.69.69,0,0,1,.7-.68h.06a.75.75,0,0,1,.79.72h0v2h2.54V82.77a.69.69,0,0,1,.69-.71h.06a.72.72,0,0,1,.77.67v2.09h2.58a.68.68,0,0,1,0,1.35h-2.58v3h3.16a.69.69,0,1,1,0,1.37h-3.17Zm-1.52-4.36h-2.51c0,1.19,0,2.31-.06,3h2.57Z"/><path class="cls-3" d="M457.15,85.37h-5.76a.74.74,0,0,1-.81-.65.72.72,0,0,1,.64-.8.49.49,0,0,1,.17,0h5V82.49a.81.81,0,0,1,.9-.73.83.83,0,0,1,.73.73V84h5a.73.73,0,0,1,0,1.45Zm-.74,2.83h-2.16c-.48,0-.61.21-.62.68s0,1.42,0,2.29V93.7h0a.67.67,0,0,1-.69.65h-.06a.71.71,0,0,1-.78-.63V88.62c0-1.17.66-1.67,1.79-1.71h2.48v-.57a.76.76,0,0,1,1.52-.17v.74h2.64a1.62,1.62,0,0,1,1.79,1.43,1.7,1.7,0,0,1,0,.22v3.65h0a2,2,0,0,1-2,1.94h-.22c-.78,0-1.61-.13-1.61-.9a.68.68,0,0,1,.6-.75h.19a3.35,3.35,0,0,0,.78.13c.41,0,.75-.16.75-.66V88.7a.53.53,0,0,0-.46-.59h-2.41v6.63a.78.78,0,0,1-1.55,0Z"/><path class="cls-3" d="M369.82,205a.63.63,0,0,1-.66.63h-.05a.68.68,0,0,1-.72-.61v0h0l.07-5.07a8.84,8.84,0,0,1-1.34,1,.84.84,0,0,1-.44.13.72.72,0,0,1-.7-.72.73.73,0,0,1,.38-.63,8.37,8.37,0,0,0,3.46-3.95c0-.15-.19-.17-.29-.17h-.23c-.75,0-1.19.06-2.06.08h0a.63.63,0,0,1-.63-.63v0a.62.62,0,0,1,.59-.65h1.23v-1.74a.72.72,0,0,1,.8-.64.72.72,0,0,1,.65.64v1.72h.3a1.08,1.08,0,0,1,1.22,1.09c0,.1,0,.9-1.37,2.8h.1c.5.15,1.74.9,1.74,1.5a.74.74,0,0,1-.63.77.53.53,0,0,1-.45-.25,3.58,3.58,0,0,0-1-.9c0,2.42.07,5.6.07,5.6Zm2.41-10.93a.64.64,0,0,1-.65-.62.43.43,0,0,1,0-.05.61.61,0,0,1,.59-.65H379a.58.58,0,0,1,.58.6v.05a.61.61,0,0,1-.53.67h-6.84Zm5.59,11.23c-.62,0-1.36,0-2.08,0s-1.66,0-2.3,0a1.42,1.42,0,0,1-1.57-1.26v-3.62a1.44,1.44,0,0,1,1.5-1.39h4.45a1.49,1.49,0,0,1,1.59,1.36c0,.58,0,1.27,0,1.95a13.15,13.15,0,0,1,0,1.52A1.56,1.56,0,0,1,377.82,205.34Zm-2.16-6.93c-2.87,0-3.3-.06-3.3-1.73s.28-1.86,3.3-1.86,3.25,0,3.25,1.88c0,1.61-.31,1.69-3.25,1.69Zm-.75,1.8h-1.09c-.6,0-.7.31-.7,1.35h1.79Zm0,2.48h-1.79a7.39,7.39,0,0,0,0,.95c0,.58.35.58,1.75.58Zm-1.23-5.82c0,.32.09.38,2,.38s1.89,0,1.89-.64c0-.47,0-.59-.46-.59h-1.79c-1.48,0-1.68,0-1.7.28Zm4.45,4.71v-.8c0-.58-.39-.58-1.89-.58v1.38Zm-1.91,1.07v1.53h1.24c.62,0,.67-.21.67-1.52Z"/><path class="cls-3" d="M391.2,200.62v4.18a.76.76,0,0,1-.84.68.77.77,0,0,1-.68-.68v-4.18H387c-.73,4.6-4.39,5-4.5,5a.77.77,0,0,1-.76-.79v0a.62.62,0,0,1,.45-.64,4.26,4.26,0,0,0,3.32-3.6h-3a.65.65,0,0,1-.7-.61v-.07a.66.66,0,0,1,.64-.68h3.2v-3H383a.68.68,0,1,1,0-1.35h2.55v-2h0a.68.68,0,0,1,.69-.68h.06a.77.77,0,0,1,.8.71h0v2h2.49v-2.05a.69.69,0,0,1,.69-.71s0,0,.06,0a.73.73,0,0,1,.77.68v2.08h2.58a.68.68,0,0,1,.68.67.69.69,0,0,1-.68.68h-2.58v3h3.17a.65.65,0,0,1,.7.6.22.22,0,0,1,0,.08.67.67,0,0,1-.65.68h-.06Zm-1.52-4.36h-2.51c0,1.2,0,2.32-.06,3h2.57Z"/><path class="cls-3" d="M403.78,195.45H398a.72.72,0,1,1,0-1.44h5v-1.49a.77.77,0,0,1,.8-.73h0a.75.75,0,0,1,.82.69V194h5a.68.68,0,0,1,.72.65v.06a.69.69,0,0,1-.65.73h-5.91Zm-.74,2.84h-2.17c-.42,0-.6.21-.62.69s0,1.41,0,2.28v2.53h0a.67.67,0,0,1-.69.65h-.06a.74.74,0,0,1-.79-.66h0v-5.06c0-1.18.66-1.68,1.8-1.71H403v-.58a.75.75,0,0,1,.67-.84.77.77,0,0,1,.85.68V197h2.64a1.61,1.61,0,0,1,1.79,1.41,1.77,1.77,0,0,1,0,.23v3.66h0a2,2,0,0,1-2,1.94l-.22,0c-.78,0-1.62-.13-1.62-.85a.69.69,0,0,1,.63-.75h.16a3,3,0,0,0,.78.12c.42,0,.75-.16.75-.65v-3.26a.54.54,0,0,0-.48-.59h-2.4v6.63a.72.72,0,0,1-.68.75h-.08A.73.73,0,0,1,403,205a.11.11,0,0,1,0-.08Z"/><path class="cls-3" d="M278.12,260.8v2.93a9.92,9.92,0,0,0,4,.58c1.59,0,3.32-.12,4.73-.21H287a.66.66,0,0,1,.66.67v0a.75.75,0,0,1-.74.77c-1.1.11-2.31.17-3.51.17-3.2,0-6-.26-7.59-2.37-.5,2.05-.82,2.28-1.3,2.28a.65.65,0,0,1-.69-.59,1,1,0,0,1,.09-.33,10.86,10.86,0,0,0,1-4.83.59.59,0,0,1,.61-.58h.06a.62.62,0,0,1,.68.55v0c0,.36-.12,1.67-.13,1.8a3,3,0,0,0,.69,1.1v-4.5H274.8a.55.55,0,0,1-.6-.49s0,0,0-.06a.6.6,0,0,1,.59-.62h2v-1.34h-1.48a.57.57,0,0,1-.62-.53.13.13,0,0,1,0-.06.63.63,0,0,1,.61-.64h1.5V253a.7.7,0,1,1,1.4,0v1.55h1.21a.62.62,0,0,1,0,1.23h-1.28v1.34h1.63a.59.59,0,0,1,.51.66.57.57,0,0,1-.51.51h-1.63v1.31h1.34a.57.57,0,0,1,.59.55v0a.57.57,0,0,1-.53.59h-1.36Zm6.15-4.54a13.2,13.2,0,0,0,.37,3.49,10.18,10.18,0,0,0,.82-2.52.5.5,0,0,1,.53-.39.7.7,0,0,1,.73.65,10.11,10.11,0,0,1-1.53,3.59c.12.2.55.9.78.9s.32-.27.54-.9a.58.58,0,0,1,.54-.45.75.75,0,0,1,.71.69c0,.15-.52,2.16-1.8,2.16-.81,0-1.44-.9-1.66-1.33a5.63,5.63,0,0,1-2.83,1.65.6.6,0,0,1-.63-.54v0a.67.67,0,0,1,.5-.62,5.12,5.12,0,0,0,2.4-1.67,16.24,16.24,0,0,1-.74-4.69h-.58c-.47,0-.54.24-.56.54v3.51c.18-.11.37-.21.52-.32a.49.49,0,0,1,.31-.11.56.56,0,0,1,.52.56.65.65,0,0,1-.33.54,10,10,0,0,1-3.44,1.63.61.61,0,0,1-.59-.63h0a.6.6,0,0,1,.45-.61,11,11,0,0,0,1.26-.44v-4.59c0-.65.39-1.34,1.54-1.35H283c0-.69,0-1.36,0-2h0a.67.67,0,0,1,.72-.62h0a.63.63,0,0,1,.67.59V255h2.08a.64.64,0,1,1,0,1.27Zm1.33-1.69a2.67,2.67,0,0,0-.9-.9.33.33,0,0,1-.18-.32.62.62,0,0,1,.59-.58c.39,0,1.5.7,1.5,1.29a.7.7,0,0,1-.63.7A.47.47,0,0,1,285.6,254.57Z"/><path class="cls-3" d="M290.46,255.84a.68.68,0,0,1-.7-.64v-.06a.67.67,0,0,1,.64-.68h3.35a6.36,6.36,0,0,0-.9-1.1.53.53,0,0,1-.15-.35.75.75,0,0,1,.79-.64c.65,0,1.74,1.45,1.74,1.94a.49.49,0,0,1,0,.17H297a7.58,7.58,0,0,0,.9-1.8.72.72,0,0,1,.68-.48.83.83,0,0,1,.85.74c0,.08,0,.44-.9,1.51l3.29,0h0a.65.65,0,0,1,.68.64v0a.66.66,0,0,1-.63.7h-.07Zm1.69,9.58a.6.6,0,0,1-.63.58h0a.66.66,0,0,1-.71-.59V258c0-1.41,1.11-1.41,2.58-1.41h1.16a1.3,1.3,0,0,1,1.37,1.24V264a1.66,1.66,0,0,1-1.53,1.8H294c-1.19,0-1.32-.43-1.32-.74a.66.66,0,0,1,.63-.7h0a.33.33,0,0,1,.14,0,2.61,2.61,0,0,0,.48,0c.3,0,.54-.15.55-.82v-1.15h-2.36v2.95Zm0-5.31v1.18h2.4v-1.18Zm2.37-1.15v-.71c0-.41-.23-.51-1-.51-1.17,0-1.34.11-1.34.51V259Zm2.57-1.41a.66.66,0,0,1,.64-.69h0a.68.68,0,0,1,.71.64v5.08a.7.7,0,0,1-1.4,0Zm4.39,6.26h0c0,.9-.53,2-2.33,2-1.33,0-1.79-.26-1.79-.9a.65.65,0,0,1,.59-.71h.19a5.43,5.43,0,0,0,1,.17.74.74,0,0,0,.82-.63.61.61,0,0,0,0-.19v-6.61a.73.73,0,1,1,1.45,0v5Z"/><path class="cls-3" d="M314.44,255.6h-2.57v2.12c0,1.37,0,2.7-.05,3.53a1.62,1.62,0,0,1-1.59,1.6c-.54,0-1.13.07-1.69.07a12.62,12.62,0,0,1-1.65-.07,1.52,1.52,0,0,1-1.57-1.47v-7a1.5,1.5,0,0,1,1.47-1.52h3.44a1.51,1.51,0,0,1,1.59,1.37h5.8a.69.69,0,0,1,0,1.37h-1.7v8h0c0,.94-.68,2.12-2.61,2.12s-2-.58-2-.9a.73.73,0,0,1,.71-.75h.26a3.87,3.87,0,0,0,1,.16c.62,0,1.11-.23,1.11-1Zm-6.53-1.54c-.9,0-1.2.06-1.24.66s0,1.34,0,2.23h1.28Zm0,4.09h-1.3c0,1.13,0,2.2.05,2.86,0,.41.25.6.66.62h.57Zm2.69-1.2v-2.21c0-.49-.26-.68-1.3-.68V257Zm-1.32,1.2v3.51c.78,0,1.29-.06,1.31-.69s0-1.7,0-2.82Z"/><path class="cls-3" d="M286.63,328.57h0c0,1-.55,2-2.46,2-1.44,0-1.8-.3-1.8-.9a.65.65,0,0,1,.59-.7h.18a7.77,7.77,0,0,0,1,.09c.6,0,1-.17,1-.81v-1.67c0-1.22,0-2.58-.06-3.6,0-.81-.31-1-1-1h-6.37c-.85,0-1.07.26-1.07,1,0,1.91,0,4.71-.06,7a.64.64,0,0,1-.65.62h0a.67.67,0,0,1-.74-.59v0c0-2.22,0-5.4.07-7.68a1.66,1.66,0,0,1,1.73-1.58H280v-1.07h-5a.68.68,0,1,1,0-1.35h5v-.82a.78.78,0,0,1,.8-.8.8.8,0,0,1,.8.8v.82h5.07a.68.68,0,0,1,0,1.35h-5.07v1.07h3.14a1.73,1.73,0,0,1,1.79,1.68c0,1,0,3.9,0,4.5Zm-5.09-1v2a.68.68,0,0,1-.68.68h0a.67.67,0,0,1-.71-.62v-2.1h-2.18a.6.6,0,1,1-.15-1.19h2.33v-1h-2.28a.59.59,0,0,1-.15-1.17h1.52a.59.59,0,0,1-.13-.18,4.24,4.24,0,0,0-.54-.95.37.37,0,0,1-.07-.25c0-.29.37-.54.7-.54.58,0,1.14,1.09,1.14,1.37a.67.67,0,0,1-.32.57h1.09a.12.12,0,0,1,0-.08,5,5,0,0,0,.67-1.54.49.49,0,0,1,.5-.35c.37,0,.8.25.8.62a4.37,4.37,0,0,1-.6,1.34h1.37a.58.58,0,0,1,.66.5.59.59,0,0,1-.51.66h-2.44v1h2.19a.6.6,0,0,1,.67.52.61.61,0,0,1-.53.67.33.33,0,0,1-.14,0Z"/><path class="cls-3" d="M293.51,325.59v2.92a9.83,9.83,0,0,0,4.05.59c1.59,0,3.32-.12,4.73-.22h.07a.67.67,0,0,1,.65.68v0a.76.76,0,0,1-.74.78c-1.1.11-2.32.17-3.51.17-3.19,0-6.05-.26-7.59-2.38-.5,2.06-.82,2.29-1.3,2.29a.65.65,0,0,1-.69-.59.75.75,0,0,1,.1-.33,11,11,0,0,0,1-4.84.6.6,0,0,1,.61-.58h.06a.63.63,0,0,1,.69.56v0c0,.36-.13,1.67-.15,1.8a3.27,3.27,0,0,0,.7,1.1v-4.5H290.2a.54.54,0,0,1-.6-.49.17.17,0,0,1,0-.07.6.6,0,0,1,.59-.62h2v-1.33h-1.48A.58.58,0,0,1,290,320V320a.62.62,0,0,1,.61-.64h1.5V317.8a.7.7,0,0,1,1.4,0v1.55h1.26a.62.62,0,0,1,0,1.23h-1.28v1.33h1.63a.59.59,0,0,1,.52.66.6.6,0,0,1-.52.52h-1.63v1.3h1.34a.57.57,0,0,1,.59.55V325a.55.55,0,0,1-.53.58h-.06Zm6.16-4.54a13.24,13.24,0,0,0,.37,3.49,10.62,10.62,0,0,0,.82-2.52.52.52,0,0,1,.52-.4.72.72,0,0,1,.74.65,10.28,10.28,0,0,1-1.54,3.6c.13.2.56.9.8.9s.31-.27.53-.9a.56.56,0,0,1,.54-.45.74.74,0,0,1,.71.68c0,.16-.52,2.16-1.8,2.16-.82,0-1.45-.9-1.67-1.32a5.63,5.63,0,0,1-2.83,1.65.6.6,0,0,1-.63-.54v0a.7.7,0,0,1,.5-.62,5.12,5.12,0,0,0,2.4-1.67,16.24,16.24,0,0,1-.74-4.69h-.58c-.47,0-.54.23-.56.54v3.51c.18-.11.37-.22.52-.33a.45.45,0,0,1,.3-.1.56.56,0,0,1,.53.55.64.64,0,0,1-.33.54,10,10,0,0,1-3.44,1.64.65.65,0,0,1-.56-.73.66.66,0,0,1,.42-.52,11,11,0,0,0,1.26-.43v-4.6c0-.64.39-1.33,1.54-1.35h.9l-.05-2h0a.67.67,0,0,1,.72-.62h0a.63.63,0,0,1,.68.58v2.06h2.07a.64.64,0,0,1,0,1.28Zm1.33-1.69a2.67,2.67,0,0,0-.9-.9.35.35,0,0,1-.18-.33.62.62,0,0,1,.6-.57c.38,0,1.49.7,1.49,1.29a.73.73,0,0,1-.63.7A.47.47,0,0,1,301,319.36Z"/><path class="cls-3" d="M305.86,320.63a.68.68,0,0,1-.7-.64v-.07a.66.66,0,0,1,.63-.68h3.37a6.83,6.83,0,0,0-.9-1.11.5.5,0,0,1-.16-.35.75.75,0,0,1,.79-.63c.65,0,1.74,1.43,1.74,1.94a.48.48,0,0,1,0,.17h1.8a8.65,8.65,0,0,0,.9-1.8A.71.71,0,0,1,314,317a.85.85,0,0,1,.85.75c0,.08,0,.44-.9,1.51l3.29-.05h0a.66.66,0,0,1,.68.64v0a.66.66,0,0,1-.63.7h-.07Zm1.69,9.58a.6.6,0,0,1-.63.57h-.05a.66.66,0,0,1-.71-.59v-7.43c0-1.41,1.12-1.41,2.59-1.41h1.15a1.31,1.31,0,0,1,1.37,1.25v6.18a1.66,1.66,0,0,1-1.51,1.81,1.45,1.45,0,0,1-.36,0c-1.19,0-1.32-.43-1.32-.74a.65.65,0,0,1,.62-.7h.16a3.93,3.93,0,0,0,.48.06c.3,0,.54-.16.54-.82v-1.15h-2.39v2.95Zm0-5.31v1.18h2.39V324.9Zm2.36-1.15V323c0-.41-.23-.52-1-.52-1.17,0-1.34.12-1.34.52v.71Zm2.57-1.41a.66.66,0,0,1,.64-.69h.05a.68.68,0,0,1,.71.64v5.07a.7.7,0,1,1-1.4,0Zm4.41,6.25h0c0,.9-.52,2-2.32,2-1.34,0-1.8-.26-1.8-.9a.66.66,0,0,1,.6-.71h.17a5.39,5.39,0,0,0,1,.17c.42,0,.79-.17.81-.82s0-3.1,0-4.91v-1.66a.73.73,0,0,1,1.45,0v5Z"/><path class="cls-3" d="M329.82,320.37h-2.57V326a1.63,1.63,0,0,1-1.6,1.6c-.54,0-1.12.06-1.69.06a14.8,14.8,0,0,1-1.65-.06,1.51,1.51,0,0,1-1.56-1.47v-7a1.48,1.48,0,0,1,1.46-1.52h3.44a1.51,1.51,0,0,1,1.6,1.37h5.8a.68.68,0,0,1,.15,1.35h-1.85v8.06h0c0,.95-.69,2.13-2.61,2.13s-2-.58-2-.9a.73.73,0,0,1,.72-.74h.25a4.33,4.33,0,0,0,1,.15c.62,0,1.11-.23,1.11-1Zm-6.53-1.52c-.9,0-1.2.06-1.24.66s0,1.33,0,2.22h1.28Zm0,4.09H322c0,1.11,0,2.2,0,2.86,0,.41.26.6.67.62h.57Zm2.69-1.21v-2.2c0-.5-.26-.68-1.3-.68v2.88Zm-1.32,1.21v3.51c.78,0,1.29-.07,1.31-.69s0-1.71,0-2.82Z"/><path class="cls-3" d="M136.57,244.71h-2a.26.26,0,0,1-.28-.26v0a.27.27,0,0,1,.25-.3h2.07V242.5H135a.29.29,0,0,1-.31-.28s0,0,0,0a.32.32,0,0,1,.3-.33h1.64v-1.63A.34.34,0,0,1,137,240a.33.33,0,0,1,.28.28v1.63h1.47a.31.31,0,0,1,.31.29v0a.31.31,0,0,1-.3.31h-1.48v1.63h1.8a.29.29,0,0,1,.24.34.29.29,0,0,1-.24.24h-1.8v1.6h1.54a.28.28,0,0,1,.28.28v0a.27.27,0,0,1-.24.3h-1.59v2.94a7.94,7.94,0,0,0,4,.71c1.34,0,2.69-.11,4-.22h0a.34.34,0,0,1,.33.34h0a.41.41,0,0,1-.38.4c-1,.09-2.07.14-3.13.14-2.79,0-5.5-.11-6.77-2.51a8.65,8.65,0,0,1-.67,2.24.44.44,0,0,1-.37.22.31.31,0,0,1-.35-.28h0a.27.27,0,0,1,.06-.17,9.88,9.88,0,0,0,.9-4.39.28.28,0,0,1,.29-.28h0a.33.33,0,0,1,.35.3h0a10.85,10.85,0,0,1-.09,1.4,3.41,3.41,0,0,0,1.1,1.66Zm6.08-1.87a13.31,13.31,0,0,0,.49,3.87,9.31,9.31,0,0,0,1.08-2.82.24.24,0,0,1,.27-.19.34.34,0,0,1,.37.31,8.92,8.92,0,0,1-1.48,3.33c.4.85.78,1.16,1,1.16s.53-.39.72-1a.25.25,0,0,1,.26-.25.37.37,0,0,1,.37.35c0,.11-.4,1.65-1.35,1.65-.57,0-1-.53-1.44-1.33a5.09,5.09,0,0,1-2.59,1.8.31.31,0,0,1-.33-.27v0a.34.34,0,0,1,.25-.3,5.52,5.52,0,0,0,2.42-1.8,13.64,13.64,0,0,1-.68-4.44h-.76c-.53,0-.7.32-.71.75v3.49a7,7,0,0,0,.84-.48.33.33,0,0,1,.14,0,.3.3,0,0,1,.28.28.32.32,0,0,1-.17.26,10.83,10.83,0,0,1-3,1.39.32.32,0,0,1-.32-.3v0a.31.31,0,0,1,.23-.31,9.75,9.75,0,0,0,1.31-.48v-4a1.11,1.11,0,0,1,1-1.16H142v-2h0a.34.34,0,0,1,.36-.3.3.3,0,0,1,.32.29v2h2.09a.31.31,0,0,1,.31.31.32.32,0,0,1-.31.31h0Zm1.57-1.26a2.82,2.82,0,0,0-1-.82.16.16,0,0,1-.08-.14.35.35,0,0,1,.31-.33c.28,0,1.25.66,1.25,1a.37.37,0,0,1-.33.35A.25.25,0,0,1,144.22,241.58Z"/><path class="cls-3" d="M148.14,242.47a.32.32,0,0,1-.27-.37.33.33,0,0,1,.27-.27h6a12.33,12.33,0,0,0,1-1.79.38.38,0,0,1,.35-.26.37.37,0,0,1,.4.35,7.86,7.86,0,0,1-1,1.7h3.6a.31.31,0,0,1,.26.37.31.31,0,0,1-.26.26Zm4,5.83h-2.77v2.88a.35.35,0,0,1-.41.3.39.39,0,0,1-.3-.3v-6.55c0-1.1.9-1.12,2.05-1.12s2.05,0,2.07,1.12v5.44c0,.67-.3,1.3-1.38,1.3-.52,0-1-.05-1-.41a.33.33,0,0,1,.32-.34h.05a2.8,2.8,0,0,0,.64.08c.34,0,.62-.12.63-.64Zm0-2.05h-2.7v1.47h2.76Zm0-.57v-.9c0-.61-.4-.65-1.36-.65s-1.32.06-1.35.65v.9Zm-.33-3.9a.3.3,0,0,1-.26-.17,4.57,4.57,0,0,0-1-1.28.21.21,0,0,1-.07-.15.37.37,0,0,1,.38-.32c.48,0,1.36,1.26,1.36,1.53a.41.41,0,0,1-.43.39Zm2.51,2.37a.35.35,0,0,1,.4-.29.34.34,0,0,1,.29.29v4.71a.35.35,0,0,1-.69,0Zm2.61-.48a.33.33,0,0,1,.33-.35h0a.33.33,0,0,1,.36.3v6.13h0c0,.8-.4,1.56-1.8,1.56a5.36,5.36,0,0,1-1.13-.13.4.4,0,0,1-.34-.4.34.34,0,0,1,.3-.35h.12a5.14,5.14,0,0,0,1.1.17c.59,0,1-.25,1-.95Z"/><path class="cls-3" d="M162.57,244.82a6.79,6.79,0,0,0-1.65-.85.24.24,0,0,1-.18-.25.35.35,0,0,1,.35-.35h0a6,6,0,0,1,1.85.79.4.4,0,0,1,.14.55.38.38,0,0,1-.32.19A.32.32,0,0,1,162.57,244.82ZM161.36,251a.38.38,0,0,1-.38-.36h0a.42.42,0,0,1,.08-.22,11.09,11.09,0,0,0,1.64-3.6.3.3,0,0,1,.31-.21.32.32,0,0,1,.35.29s0,0,0,0a12.42,12.42,0,0,1-1.65,3.83A.45.45,0,0,1,161.36,251Zm1.9-9.05a6.49,6.49,0,0,0-1.51-1.2.26.26,0,0,1-.14-.2.42.42,0,0,1,.4-.35c.3,0,1.88,1,1.88,1.44a.45.45,0,0,1-.39.43A.33.33,0,0,1,163.26,242Zm6.21,2.6a7.29,7.29,0,0,0,3.11,2.26.32.32,0,0,1,.19.31.38.38,0,0,1-.37.39h0a7.5,7.5,0,0,1-3.59-3h-1.62a10.62,10.62,0,0,1-1.16,1.51.3.3,0,0,1,.16-.05h2.54c1,0,1.09.35,1.09,1.26,0,1.07-.1,1.32-1.53,1.32h-1.14c-.82,0-1.07.1-1.07.72,0,.9,0,1.15,2.09,1.15s2.7-.11,2.7-1.5a.3.3,0,0,1,.34-.3.36.36,0,0,1,.37.3,1.8,1.8,0,0,1-1.55,2h0c-.59.06-1.19.09-1.79.1-2.2,0-2.7-.21-2.7-1.51S165.56,248,167,248h1.56c.62,0,.64,0,.64-.84,0-.56-.08-.6-.62-.6h-2.28a.26.26,0,0,1-.27-.25v0a.64.64,0,0,1,0-.17,5.74,5.74,0,0,1-2.2,1.67.33.33,0,0,1-.32-.33.38.38,0,0,1,.21-.32,7.55,7.55,0,0,0,2.8-2.61h-2.11a.29.29,0,0,1-.32-.27v0a.3.3,0,0,1,.3-.31h2V242h-1.56a.3.3,0,0,1-.31-.3.31.31,0,0,1,.31-.31h1.56V240a.33.33,0,0,1,.33-.33h0a.33.33,0,0,1,.34.31v1.41h2V240a.31.31,0,0,1,.3-.33h0a.33.33,0,0,1,.35.3v1.42h1.58a.31.31,0,0,1,.31.3.3.3,0,0,1-.3.31h-1.74v2H172a.3.3,0,0,1,.32.28v0a.29.29,0,0,1-.29.3h0Zm-.42-2.48h-2V244h2Z"/><path class="cls-3" d="M134.69,315.08a27.11,27.11,0,0,1-3.48,1.44.38.38,0,0,1-.36-.38.35.35,0,0,1,.25-.34,28.79,28.79,0,0,0,3.6-1.45v-3.5h-3.18a.35.35,0,0,1-.4-.28.36.36,0,0,1,.29-.4h3.29v-3.23a.35.35,0,0,1,.36-.33h0a.33.33,0,0,1,.36.29v10.77a.32.32,0,0,1-.34.3h0a.34.34,0,0,1-.37-.29h0Zm7.2-.3a.42.42,0,0,1,.43.37v.12c0,2.43-1.38,2.43-2.7,2.43-1.52,0-2.23-.36-2.23-1.43V307a.37.37,0,0,1,.38-.37.36.36,0,0,1,.37.37c0,.29,0,2.22,0,4.22a20.36,20.36,0,0,0,3.17-1.91.33.33,0,0,1,.21-.07.47.47,0,0,1,.42.43.49.49,0,0,1-.23.37,24.58,24.58,0,0,1-3.6,1.87v3.94c0,.7,0,1.2,1.5,1.2,1.25,0,2-.08,2-1.8v-.14a.3.3,0,0,1,.28-.34h.05Z"/><path class="cls-3" d="M144.94,309.1a.32.32,0,0,1,0-.63h6a11.93,11.93,0,0,0,1-1.8.41.41,0,0,1,.36-.26.39.39,0,0,1,.4.36,8.29,8.29,0,0,1-1,1.7h3.6a.32.32,0,0,1,0,.63Zm4,5.82h-2.73v2.88a.36.36,0,0,1-.41.3.34.34,0,0,1-.3-.3v-6.54c0-1.09.9-1.12,2-1.12s2.05,0,2.08,1.12v5.44c0,.67-.31,1.29-1.39,1.29-.52,0-1,0-1-.4a.34.34,0,0,1,.33-.35h0a3.42,3.42,0,0,0,.63.09c.34,0,.62-.12.64-.63Zm0-2.05h-2.69v1.47h2.66Zm0-.56v-.9c0-.61-.39-.65-1.35-.65s-1.33.05-1.35.65v.9Zm-.32-3.9a.28.28,0,0,1-.27-.18,4.54,4.54,0,0,0-1-1.28.17.17,0,0,1-.07-.14.37.37,0,0,1,.38-.32c.47,0,1.35,1.26,1.35,1.53a.41.41,0,0,1-.42.39Zm2.51,2.37a.35.35,0,0,1,.4-.29.34.34,0,0,1,.29.29v4.7a.35.35,0,0,1-.4.29.34.34,0,0,1-.29-.29Zm2.61-.48a.35.35,0,0,1,.34-.36h0a.34.34,0,0,1,.36.32v6.12h0c0,.8-.4,1.56-1.8,1.56a5.38,5.38,0,0,1-1.13-.14.4.4,0,0,1-.34-.39.34.34,0,0,1,.33-.35h.1a5.62,5.62,0,0,0,1.09.16c.6,0,1-.25,1-1Z"/><path class="cls-3" d="M160.12,311.91l-.9.11a12.61,12.61,0,0,1-1,5.72.4.4,0,0,1-.37.22.36.36,0,0,1-.37-.3.44.44,0,0,1,.06-.16,12,12,0,0,0,1-5.4,4.07,4.07,0,0,1-.61,0,.29.29,0,0,1-.31-.29v0a.27.27,0,0,1,.26-.3h0l.66-.05v-2.83h0c0-.57.32-.9,1.09-.94H160c.08-.32.19-.77.28-1.18a.32.32,0,0,1,.35-.23c.19,0,.4.1.4.28a8.07,8.07,0,0,1-.35,1.13h.47a1,1,0,0,1,1.09,1c0,.6,0,1.45,0,2.38l.48-.05a.24.24,0,0,1,.23.26h0c0,.23-.11.26-.71.35v4.68h0a1.25,1.25,0,0,1-1.08,1.39h-.3c-1,0-1-.27-1-.42a.3.3,0,0,1,.28-.33h.07a5,5,0,0,0,.66.09c.43,0,.69-.18.7-.83v-4.51l-1,.12v3.68a.29.29,0,0,1-.29.27h0a.29.29,0,0,1-.3-.24v0Zm1.46-3.15c0-.5-.16-.54-1.22-.54-.9,0-1.15,0-1.15.56v2.64c.79-.08,1.69-.18,2.41-.28,0-1,0-1.83,0-2.36Zm-1.11,1.65a2.81,2.81,0,0,0-.78-.83.21.21,0,0,1-.09-.18.3.3,0,0,1,.29-.29c.22,0,1.13.72,1.13,1.06a.36.36,0,0,1-.35.36h0a.25.25,0,0,1-.2-.12Zm2.42,1.8A.35.35,0,0,1,163,312a7.07,7.07,0,0,0,1.38-3.26.28.28,0,0,1,.29-.26.36.36,0,0,1,.38.34c0,.4-1.05,3.73-1.8,3.73a.32.32,0,0,1-.33-.32Zm5.58,3.86c0,1.17,0,1.74-2.28,1.74s-2.4-.3-2.4-1.65V314a1.18,1.18,0,0,1,1.2-1.17h2.13a1.19,1.19,0,0,1,1.27,1.09v0c.06.55.08,1.43.08,2.13Zm-.72-1.92a.69.69,0,0,0-.67-.72h-1c-1.16,0-1.56,0-1.6.74,0,.34,0,1.12,0,1.72a3.32,3.32,0,0,0,0,.63c0,.45.14.66,1.57.66,1.63,0,1.72-.15,1.72-1.11,0-.62,0-1.53,0-1.89Zm-2.7-6.53h0a.28.28,0,0,1-.3-.26v0a.3.3,0,0,1,.3-.31h1.27a1.11,1.11,0,0,1,1.13.81,7.37,7.37,0,0,0,2,3.85.44.44,0,0,1,.15.32.36.36,0,0,1-.37.37h0c-.57,0-1.89-2.28-2.33-4.24a.61.61,0,0,0-.69-.5h-1.11Z"/><polyline class="cls-8" points="133.66 121.84 171.69 156.85 171.69 144.4"/><line class="cls-8" x1="159.82" y1="158.27" x2="171.69" y2="156.86"/><path class="cls-3" d="M129,13.09c-.21.16,0,.9.07,1.07.1.43.24.9.31,1.3a15.72,15.72,0,0,1,.46,3.05.81.81,0,0,1-.62.9.66.66,0,0,1-.74-.57h0c-.46-2.41-.9-4.82-1.33-7.2a1,1,0,0,1,.61-1.08,1.11,1.11,0,0,1,1.32.38c1.15,1.21,2.26,2.45,3.4,3.68a8.5,8.5,0,0,0,.9.9c.34.25,1,.74.9.09-.29-1.7-.59-3.41-.9-5.11-.06-.35-.27-.81,0-1.1a.92.92,0,0,1,.75-.2c.76.13.63,1,.94,2.56.39,1.8.7,3.69,1,5.55.16,1.19-.79,1.59-1.86.83a24,24,0,0,1-3.84-3.84c-.3-.33-.68-1.1-1.16-1.21A.2.2,0,0,0,129,13.09Z"/><path class="cls-3" d="M95.77,17.41c-.18-1.12-.63-2.06.64-2.23.74-.09.71,1.41.83,2.2.29,2,.68,3.92,1.1,5.87.13.6.53,2-.18,2.12s-.9,0-1.06-.55c-.21-.84-.4-1.74-.54-2.58s-.43-.9-.9-.9a11.53,11.53,0,0,0-2.58.61c-.65.4-.51,1.13-.28,2.29s.71,1.92-.47,2.11c-1,.17-.75-.82-1-1.84-.36-1.63-.63-3.26-.9-4.91a17.47,17.47,0,0,1-.25-1.89c0-.58-.11-1.34.7-1.38s.72.65.8,1.2.24,1.35.3,2,.23,1,.68,1c.19,0,2.87-.27,3.23-.64S95.93,18.42,95.77,17.41Z"/><path class="cls-3" d="M75.32,28.29l2.7-.6c.48-.1,1-.22,1.21.43s-.39.9-.84,1c-1.43.34-2.87.66-4.32.9-.71.11-1.07-.43-1.14-1.08-.35-2.47-.66-5.08-1.17-8-.18-.71.32-1,.9-1.05,1.11-.16,2.24-.31,3.35-.45.46-.05,1-.06,1.07.5s0,.79-.46.9-1.17.19-1.59.26c-1.8.27-1.51.55-1.29,1.92.17.9.48,1.18,1.37.95a9.69,9.69,0,0,1,1.93-.3.8.8,0,0,1,.89.73h0a.77.77,0,0,1-.72.79c-.72.13-1.46.22-2.18.34-1.05.18-.76.95-.7,1.61S74.4,28.39,75.32,28.29Z"/><path class="cls-3" d="M121.46,19.94l2.7-.6c.48-.1,1-.23,1.22.43s-.39.9-.85,1c-1.43.34-2.87.67-4.32.9-.71.12-1.07-.42-1.13-1.08-.36-2.46-.66-5.08-1.18-8-.18-.71.32-1,.9-1.05,1.12-.17,2.24-.3,3.36-.45.45-.05,1-.06,1.07.51s0,.78-.47.9a12.1,12.1,0,0,1-1.58.26c-1.8.28-1.51.55-1.3,1.92.17.9.48,1.18,1.37.95a10.11,10.11,0,0,1,1.89-.33.81.81,0,0,1,.9.71v0a.75.75,0,0,1-.72.78c-.72.14-1.46.23-2.17.34-1.06.18-.77,1-.71,1.61S120.54,20.06,121.46,19.94Z"/><path class="cls-3" d="M111,21.73l3.82-.71c.49-.08,1.08-.2,1.24.39s-.42.9-.94,1c-1.49.3-3,.6-4.5.78s-2-.53-1.41-1.8a64.82,64.82,0,0,0,2.42-6c.31-.9.16-1.29-.94-1a18.23,18.23,0,0,1-2.33.37c-.39,0-.81-.06-.89-.54s.25-.62.59-.7a28.23,28.23,0,0,1,4.17-.83c1.36-.09,1.38,1,1.16,1.89a34.19,34.19,0,0,1-2.12,6A1.6,1.6,0,0,0,111,21.73Z"/><path class="cls-3" d="M101.14,37.79c.41-2.1.77-4.21,1.19-6.3a1.89,1.89,0,0,1,1.46-1.7c.9-.15,1.39.44,1.8,1,1.24,1.8,2.44,3.66,3.6,5.52.33.55.76,1.35,0,1.8s-1.17-.36-1.49-.9a1.12,1.12,0,0,0-1.4-.65c-.73.18-1.42.26-2.12.38a1.76,1.76,0,0,0-.62.18,1.24,1.24,0,0,0-.42.9,4.81,4.81,0,0,1-.21,1,.9.9,0,0,1-1,.82.88.88,0,0,1-.76-.57A2,2,0,0,1,101.14,37.79ZM104,32.32c-.18.11-.22.45-.27.74s-.09.72-.13,1.07-.29,1.08.49,1.13a2.76,2.76,0,0,0,1.6-.2c.69-.48-.77-2.24-1.19-2.59C104.26,32.27,104.1,32.25,104,32.32Z"/><path class="cls-3" d="M90.35,36.93c0-2.64,1.36-4.45,3.21-4.7s3.6,1.09,4.23,3.26a5.17,5.17,0,0,1,.08,3.23c-.56,1.53-1.57,2.78-3.23,2.86A3.65,3.65,0,0,1,90.83,39,16.49,16.49,0,0,1,90.35,36.93Zm6,.42c0-1.43-.32-2.62-1.6-3.31a1.53,1.53,0,0,0-1.87.28,3.33,3.33,0,0,0-.64,3.6c.37,1.31,1.14,2.17,2.49,1.91A2.1,2.1,0,0,0,96.35,37.35Z"/><path class="cls-3" d="M85.22,27.58a4.62,4.62,0,0,1-4.58-4.66v-.23A6.17,6.17,0,0,1,83,18.26a2.44,2.44,0,0,1,1.86-.48c.49.06,1.11.09,1.07.78s-.62.49-1.06.55c-1.63.19-3,2.51-2.7,4.38A3.18,3.18,0,0,0,85.79,26c.49-.09,1.26-.9,1.47,0s-.68,1.22-1.44,1.42A2.91,2.91,0,0,1,85.22,27.58Z"/><path class="cls-3" d="M86.44,43.37a4.84,4.84,0,0,1-4.8-4.87c0-.07,0-.14,0-.22a6.39,6.39,0,0,1,2.42-4.6,2.47,2.47,0,0,1,1.92-.5c.54.06,1.17.09,1.13.8s-.65.52-1.11.58c-1.71.2-3.17,2.63-2.8,4.58a3.31,3.31,0,0,0,3.84,2.65c.51-.09,1.31-.9,1.54,0s-.72,1.28-1.52,1.5A2.67,2.67,0,0,1,86.44,43.37Z"/><path class="cls-3" d="M117.7,35.57a2.89,2.89,0,0,1-.9,1.62,3.19,3.19,0,0,1-2,.6,3.08,3.08,0,0,1-1.66-.35c-.26-.13-.52-.4-.43-.68a.49.49,0,0,1,.33-.3,1.24,1.24,0,0,1,.47,0,2.92,2.92,0,0,0,1.65-.24c.44-.27.8-.56.72-1.12-.09-.8-.73-.85-1.33-1a12.25,12.25,0,0,1-1.8-.38,2.54,2.54,0,0,1-1.94-2.7,4.62,4.62,0,0,1,.41-1.75,2.59,2.59,0,0,1,1.25-1.17,2.7,2.7,0,0,1,1.61-.23,1.34,1.34,0,0,1,1.14.9.48.48,0,0,1-.06.4c-.15.18-.44.15-.67.11a2.43,2.43,0,0,0-.85,0,1.67,1.67,0,0,0-1,2c.24.9,1.14,1,1.9,1.1C116.91,32.75,117.9,33.78,117.7,35.57Z"/><path class="cls-3" d="M101.93,15.74v-.66c0-.46,0-.95.59-1s.75.36.84.82l1.22,6.63c.11.62.21,1.24.3,1.87s.18,1.18-.49,1.35-.9-.48-1-1C102.85,21.05,102.39,18.35,101.93,15.74Z"/><path class="cls-3" d="M124.44,26.17a.8.8,0,0,1,.9.48c.21.6-.25.9-.71,1.09-1,.32-1,1-.85,1.89.36,1.47.72,3,1,4.5.11.53.15,1.17-.59,1.31s-.9-.39-1-.86A38.55,38.55,0,0,1,122,30c-.18-1.13-.54-1.29-1.52-.84-.63.28-1.53.7-1.88-.25s.6-1.19,1.25-1.47A16.56,16.56,0,0,1,124.44,26.17Z"/><rect class="cls-9" width="540" height="360"/></g></g></svg>