<svg xmlns="http://www.w3.org/2000/svg" viewBox="0 0 320 270"><defs><style>.cls-1{fill:#cfe8f0;}.cls-2{fill:#d2e4c5;}.cls-3,.cls-6{fill:none;}.cls-3{stroke:#fff;stroke-miterlimit:10;stroke-width:4.1px;}.cls-4{fill:#4d4d4d;}.cls-5{fill:gray;}</style></defs><g id="レイヤー_2" data-name="レイヤー 2"><g id="section_1-3"><path class="cls-1" d="M104.17,192.37c-4.1,3-8.47,5.69-12.47,8.79-3,2.31-3.36,5.41-7.72,5.85-13.62,1.39-27.2-2.15-40.42-5.65a100.35,100.35,0,0,1-11.64-3.59c-6.77-2.7-11.38-5.49-14.25-12.19-2.65-6.17-4.08-13.13-2.84-19.82C19.73,139.05,35,120.87,49.55,98.9c22.69-34.29,53.87-71.51,96.67-78.31A70.25,70.25,0,0,1,166.07,20c8.05,1,15.75,3.83,23.39,6.56l26.81,9.67c9.42,3.4,17.53,8.85,26.79,12.29a3.4,3.4,0,0,1,1.58.93,3,3,0,0,1,.41,2.23c-.5,4.4-4.64,10.4-7.33,13.87-2.55,3.25-5.51,6.16-7.78,9.57-2.14,3.24-3.43,7.49-6.07,10.35-2,2.17-5.2,3.29-7.76,4.8-4.6,2.71-7.79,4.53-10.85,8.69-3.5,4.76-10.35,8.34-14.24,12.77a358.86,358.86,0,0,1-26.44,27c-4.47,4.15-10.34,7.16-15.1,11.07a81.91,81.91,0,0,0-13.13,13.19c-2,2.56-3.74,5.25-5.83,7.66a67.71,67.71,0,0,1-9.21,8.46Q112.91,186,104.17,192.37Z"/><path class="cls-2" d="M214.94,187.66c-.83,5.67-2.8,11-7.81,14.13-5.31,3.35-11.72,1.38-16.59,4.29-2.34,1.39-3.35,4.17-4.54,6.62a32.2,32.2,0,0,1-27.44,17.74,12,12,0,0,1-5.89-1c-3.83-2-9.83-7.53-11.34-11.55-1-3-3.72-7.92-7.56-7.24-3.62.64-6.07,7.74-7.76,10.54a30.18,30.18,0,0,1-4.78,6.51,10,10,0,0,1-7.28,3c-10.08-.63-15-14-24-17.48-1.91-.72-6.29-1.57-6.52-4.09-.14-1.59,2.68-4.33,3.61-5.57a28.65,28.65,0,0,1,8.84-8c4.55-2.78,9.83-4.21,14.32-7.1,6.38-4.11,10.64-10.77,15.68-16.48a108.88,108.88,0,0,1,16.09-14.39c2.59-2,5.11-3.67,7.2-6.11a65.18,65.18,0,0,1,7-7.57c6.46-5.61,13.53-10.47,19.88-16.19,3.49-3.15,6.75-6.54,10.08-9.87,5.62-5.62,11.43-11.06,17.23-16.49,7.73-7.24,15.85-14.23,23.26-21.79,5.67-5.8,6.93-14,11.84-20.27a19.11,19.11,0,0,1,11-7c4.28-.89,8.55.24,12.58,1.66,3.82,1.33,5.1,4.14,8.08,6.79,1.87,1.67,4.41,2.7,5.66,4.88a10.07,10.07,0,0,1,1,4.14,56.57,56.57,0,0,1-5.26,28.68c-1.83,3.89-4.11,8.46-7.39,11.32-2.8,2.44-6.75,3.16-8.94,6.38-2,3-2.11,7.19-3.47,10.64s-5.32,5.44-6.74,8.61c-1.25,2.77-.21,5.74-.48,8.72-.29,3.19-1.56,6.49-4.1,8.49-6.38,5-16,.33-23.35,1.92a20.89,20.89,0,0,0-13,9.27c-3.53,5.58-2.2,8.14,1.43,13.19,2.43,3.38,7.7,2,9.31,7.18A8.12,8.12,0,0,1,214.94,187.66Z"/><path class="cls-3" d="M129.74,225.86c-.06-12.43,8.29-29.79,16.24-38.8,7.73-8.75,11.93-21.17,13.4-32.77"/><path class="cls-3" d="M149.49,149.89c3.28,5.24,8.23,4.58,13.71,4.74s11.59,0,16.37,4a43.14,43.14,0,0,1,5.2,5.91c8.46,10.21,21.14,15.51,33,18.79"/><path class="cls-3" d="M182.76,118c3.75,7.92,9.73,6.13,14.9,3.83a11.72,11.72,0,0,1,3.3-1.23c2.41-.29,4.56,1.48,6.14,3.33s3.05,4,5.31,4.88c5.87,2.29,13.94,2.43,19.24,5.82,4.59,2.95,10.21,16.43,10.39,21.9"/><path class="cls-3" d="M231.33,76c2.37,1.72,6.95,4.3,8.59,6.73s2.21,5.69.6,7.38c-.8.84-2,.91-2.81,1.64A7.18,7.18,0,0,0,236.09,95a10.63,10.63,0,0,0,.54,6.79c1.81,4.39,8.68,3.74,12.55,3.92s7.29,3.11,11.23,3.69c5.2.76,10.26.63,15.43,2"/><path class="cls-4" d="M249.54,53c.76-.9,13.23-17.14,14-18.07,1.05-1.35,3-5.82.73-7.1-1.92-1.08-3.83,2.49-4.94,3.74-4,4.46-18.88,24.83-22.55,29.54C232,67.22,226.91,73,222,78.92c-7.61,9-16.32,17-25.11,24.92S179,119.24,170,127c-10.65,9.23-20.19,19.66-30.82,28.92-5.1,4.44-10.11,8.91-14.21,14.43a75.51,75.51,0,0,1-25.39,22.22c-5.16,2.73-10.3,5.57-14.64,9.57-6.71,6.2-11.41,13.35-10.91,23.41-.32,4.62.73,10.65,3.35,14.52,1.18,1.75,3.07,3.75,5.44,3.24,4.57-1-.24-5.54-1.28-8.11-3.53-8.68-3.19-16.89,2.88-24.5a41.4,41.4,0,0,1,13.33-10.8c10.21-5.38,19.43-11.92,27.1-20.66,3.83-4.33,6.67-9.43,11.13-13.2,12.65-10.71,24.14-22.67,36.37-33.82,9.06-8.24,18.67-15.89,27.79-24.06,11.66-10.44,22.91-21.27,32.43-33.82,3.57-4.71,7.06-9.49,10.77-14.1C245.39,57.76,247.51,55.43,249.54,53Z"/><path class="cls-4" d="M185.21,83.2c-2.29-1.78-5.34-1-8.43-.45a3.44,3.44,0,0,1-3.19-1.28c-1.27-1.64-2.24-1.65-4.09-.45a8.55,8.55,0,0,1-9.35.08c-.92-.54-2-1.48-1.27-2.67s1.69-.18,2.51.28a6.91,6.91,0,0,0,8.3-1.2c2.22-2.08,2.93-2.05,4.61.53,1.35,2.08,3,2.64,5,1.23a3,3,0,0,1,4,.09c1.36,1,2.86,1.67,4.53.49.64-.45,1.4-.63,1.94.1a1.58,1.58,0,0,1-.44,2.17C188.38,83,187.2,83.41,185.21,83.2Z"/><path class="cls-4" d="M75,110.12a8.6,8.6,0,0,1-4.71-1.24,1.2,1.2,0,0,1-.63-1.39,1.06,1.06,0,0,1,1.3-.75,2.18,2.18,0,0,1,.27.11c4,2,6.34.28,8.11-3.27.71-1.44,1.87-1.35,2.82-.12a8.89,8.89,0,0,0,3.94,2.87,3.66,3.66,0,0,0,4.66-1.08c1.12-1.39,2.45-1.27,3.41.13a7,7,0,0,0,4.39,3c.85.21,1.64.64,1.36,1.68s-1.21,1-2,.9c-2.21-.25-3.67-2.29-5.48-2.75s-3.61,1.69-5.9,1.07c-2-.53-3.54-2.19-5.32-2.59s-2.45,2.84-4.56,3.19C76,110,75.36,110.06,75,110.12Z"/><path class="cls-4" d="M201.91,52.82c-2.38-1.91-5-.64-7.91.44-1.87.69-3.72-.64-5-2.17-.91-1.06-1.55-1.06-2.69-.2-2.6,1.91-6,2-8.17.48-.68-.48-1.46-1-1-2s1.39-.74,2.15-.35c2.6,1.33,4.76.78,6.59-1.41,1.31-1.58,2.55-1.41,3.87,0,3.08,3.35,3.11,3.33,7,.82a2.61,2.61,0,0,1,3.48.41,3.48,3.48,0,0,0,3,1.13c1.06-.17,2.48-.64,2.52,1.05,0,1.27-1.28,1.6-2.43,1.73C203,52.85,202.75,52.82,201.91,52.82Z"/><path class="cls-4" d="M97.51,152c-2.35-2-4.81-.74-7.3.43a1.7,1.7,0,0,1-1.09,0c-3.52-1-6.83-2-10.29.79-1.4,1.12-3.65-.39-5.22-1.56a1.15,1.15,0,0,1-.46-1.45c.34-.77,1-.64,1.64-.45a16.06,16.06,0,0,1,1.77.73,2.87,2.87,0,0,0,4.14-1.41c1.09-2.15,2.36-2.49,4.33-1,3.09,2.34,4.27,2.2,7.13-.48a1.56,1.56,0,0,1,1.72-.54c1.92.86,3.49,2.29,5.65,2.55.45.07.55.71.36,1.17C99.53,151.74,98.7,151.81,97.51,152Z"/><path class="cls-4" d="M161.43,112.06a3.72,3.72,0,0,1-1.47-.34c-1.69-1.27-2.83-.63-4.38.55-2.11,1.64-4.46.58-6.29-.85-1.31-1-2-1.23-3.28.09-1.87,1.92-5.33,1.68-7.27-.1-.55-.51-1.13-1.12-.64-1.88s1.28-.54,2-.16c2.56,1.46,4.47,1.1,5.89-1.61.64-1.28,1.73-1.19,2.75-.35a27.87,27.87,0,0,0,2.49,2.12c1.52,1,3,1.27,4.25-.6,1.15-1.71,2.6-1.77,4.2-.48a4.68,4.68,0,0,0,2.5,1c1,.11,2.61-.29,2.37,1.37C164.29,112.3,162.71,112,161.43,112.06Z"/><path class="cls-4" d="M58.64,176a6.81,6.81,0,0,1-1.91-.68,1.7,1.7,0,0,0-2.4,0,4.63,4.63,0,0,1-5.85-.06c-1.27-.92-1.91-.64-3,.25a6.29,6.29,0,0,1-8.75-1.19c-.45-.64-1.05-1.5-.27-2.21s1.28.09,1.92.51c3.44,2.46,4.38,2.36,7.25-.84.92-1,1.86-1.28,2.7-.12,1.77,2.44,3.62,2.86,5.86.64a1.91,1.91,0,0,1,2.7-.26,2.39,2.39,0,0,1,.23.22,3.76,3.76,0,0,0,2.09,1.2c.86.09,2.11-.1,2,1.27S59.77,175.83,58.64,176Z"/><path class="cls-4" d="M129.55,65.78c-2.52.16-4.09-2.14-6-2.56-1.43-.3-3,2.88-5.39,2.93a7,7,0,0,1-2.14-.31c-1-.26-2.44-.64-2-2s1.67-.64,2.56-.35c2.14.64,3.44-.64,4.71-2,2.33-2.47,2.8-2.51,4.89-.1,1.85,2.15,4,1.72,6.22.9.9-.33,2-1.17,2.56.24.49,1.19-.56,1.8-1.43,2.3A8.56,8.56,0,0,1,129.55,65.78Z"/><path class="cls-5" d="M274.48,43.75h-1a.44.44,0,0,1-.46-.42v0a.48.48,0,0,1,.45-.51h1.05V40.71a.54.54,0,0,1,.59-.47.53.53,0,0,1,.47.47V42.8h.87a.44.44,0,0,1,.44.44v0a.45.45,0,0,1-.41.48h-.91V46c.24-.11.45-.23.64-.33a.48.48,0,0,1,.26-.07.42.42,0,0,1,.42.43v0a.56.56,0,0,1-.33.48,16.18,16.18,0,0,1-3.15,1.33.5.5,0,0,1-.5-.5v0a.55.55,0,0,1,.39-.52,12.24,12.24,0,0,0,1.21-.4Zm7.78-2c-.69,0-1.55,0-2.33,0h-1.24c-.35,0-.43.18-.43.44v1h3.1a.87.87,0,0,1,1,.9,8.84,8.84,0,0,1-1.4,3.5,4.45,4.45,0,0,0,1.86,1.28.52.52,0,0,1,.37.49.64.64,0,0,1-.64.64,3.82,3.82,0,0,1-2.25-1.53,5.13,5.13,0,0,1-2.55,1.65.55.55,0,0,1-.55-.54h0a.51.51,0,0,1,.34-.47,5.57,5.57,0,0,0,2.14-1.51,7.51,7.51,0,0,1-1.11-3.44h-.32c-.06,2-.35,4-2,5.46a.66.66,0,0,1-.44.17.58.58,0,0,1-.59-.53.51.51,0,0,1,.2-.38,5.59,5.59,0,0,0,1.8-4.7c0-.72,0-1.48,0-2.27s.39-1.07,1.19-1.09h3.91a.49.49,0,0,1,.52.47v0a.5.5,0,0,1-.48.5h0Zm-1.05,2.6c0-.15-.13-.25-.32-.25h-1.38a6.82,6.82,0,0,0,.79,2.56A7.53,7.53,0,0,0,281.21,44.3Z"/><path class="cls-5" d="M291.42,46.45v3.09a.56.56,0,1,1-1.12,0V46.45h-2a4,4,0,0,1-3.3,3.72.57.57,0,0,1-.56-.57v0a.45.45,0,0,1,.33-.47,3.14,3.14,0,0,0,2.45-2.65H285a.51.51,0,0,1-.56-.45.52.52,0,0,1,.45-.57h2.44V43.22H285.4a.5.5,0,0,1-.55-.45.49.49,0,0,1,.44-.55h2v-1.5h0a.51.51,0,0,1,.52-.51h0a.57.57,0,0,1,.6.53h0v1.49h1.84V40.7a.52.52,0,0,1,.5-.53h.06a.53.53,0,0,1,.56.49v1.56h1.92a.5.5,0,1,1,.11,1h-2v2.21h2.35a.51.51,0,0,1,.56.45.52.52,0,0,1-.45.57h-2.47Zm-1.12-3.23h-1.86c0,.88,0,1.71,0,2.21h1.91Z"/><path class="cls-5" d="M300.7,42.62h-4.26a.54.54,0,0,1-.12-1.07h3.81v-1.1a.56.56,0,0,1,.57-.54h0a.56.56,0,0,1,.6.5v1.14H305a.54.54,0,0,1,.11,1.07H300.7Zm-.54,2.1h-1.61c-.33,0-.44.15-.45.51s0,1,0,1.69v1.87h0a.51.51,0,0,1-.53.48h0a.54.54,0,0,1-.58-.48h0V45c0-.87.49-1.24,1.35-1.28h1.83v-.42a.56.56,0,1,1,1.12,0v.42h2a1.2,1.2,0,0,1,1.3,1.09.57.57,0,0,1,0,.13v2.75A1.47,1.47,0,0,1,303,49.16h-.15c-.58,0-1.19-.09-1.19-.64a.5.5,0,0,1,.45-.55h.12a1.9,1.9,0,0,0,.58.09c.31,0,.56-.11.56-.48V45.16a.39.39,0,0,0-.34-.44h-1.78v4.91a.58.58,0,0,1-1.15,0Z"/><path class="cls-5" d="M245.53,177.09a.48.48,0,0,1-.5.47h0a.49.49,0,0,1-.53-.45v0h0l.05-3.75a6.51,6.51,0,0,1-1,.76.62.62,0,0,1-.32.09.53.53,0,0,1-.24-1,6.15,6.15,0,0,0,2.55-2.92c0-.11-.15-.12-.22-.12h-.18c-.55,0-.88,0-1.52,0h0a.46.46,0,0,1-.47-.46v0a.45.45,0,0,1,.41-.48h.94V168a.5.5,0,0,1,.49-.52h0a.51.51,0,0,1,.53.49v1.31h.23a.8.8,0,0,1,.9.69V170c0,.08,0,.69-1,2.08h.07c.38.11,1.28.64,1.28,1.12a.56.56,0,0,1-.48.56.37.37,0,0,1-.33-.19,2.85,2.85,0,0,0-.71-.63c0,1.79,0,4.14,0,4.14ZM247.3,169a.46.46,0,0,1-.47-.46v0a.46.46,0,0,1,.44-.48h5.06a.43.43,0,0,1,.43.44v0a.45.45,0,0,1-.39.49H247.3Zm4.14,8.3c-.45,0-1,0-1.54,0s-1.22,0-1.7,0a1.06,1.06,0,0,1-1.16-1v-2.66a1.08,1.08,0,0,1,1.13-1h3.27a1.11,1.11,0,0,1,1.18,1c0,.42,0,.94,0,1.45a9.58,9.58,0,0,1,0,1.11,1.17,1.17,0,0,1-1.18,1.07Zm-1.59-5.11c-2.13,0-2.45,0-2.45-1.27s.21-1.38,2.45-1.38,2.4,0,2.4,1.39c0,1.19-.23,1.25-2.4,1.25Zm-.55,1.31h-.8c-.45,0-.52.23-.52,1h1.32Zm0,1.83H248a5.47,5.47,0,0,0,0,.71c0,.42.27.42,1.28.42Zm-.9-4.3c0,.23.06.27,1.51.27s1.4,0,1.4-.47,0-.44-.35-.44h-1.31c-1.09,0-1.25,0-1.28.22Zm3.28,3.47v-.58c0-.44-.28-.44-1.39-.44v1Zm-1.41.83v1.13h.92c.45,0,.5-.16.5-1.12Z"/><path class="cls-5" d="M261.35,173.83v3.09a.56.56,0,0,1-.62.5.57.57,0,0,1-.51-.5v-3.09h-2c-.54,3.4-3.24,3.72-3.3,3.72a.57.57,0,0,1-.56-.57v0a.46.46,0,0,1,.33-.48,3.19,3.19,0,0,0,2.46-2.65h-2.24a.51.51,0,0,1,0-1h2.32V170.6h-1.92a.5.5,0,0,1,0-1h1.92v-1.5h0a.5.5,0,0,1,.51-.5h0a.57.57,0,0,1,.6.51h0v1.5h1.84V168.1a.52.52,0,0,1,.5-.53h.06a.54.54,0,0,1,.57.5v1.55h1.91a.5.5,0,0,1,0,1h-1.92v2.22h2.34a.5.5,0,0,1,.51.5.51.51,0,0,1-.5.51h0Zm-1.13-3.23h-1.85c0,.89,0,1.71,0,2.22h1.91Z"/><path class="cls-5" d="M270.66,170h-4.27a.54.54,0,1,1-.12-1.07h3.82v-1.1a.64.64,0,0,1,.81-.4.64.64,0,0,1,.39.4v1.1H275a.54.54,0,1,1,.11,1.07h-4.43Zm-.55,2.1H268.5c-.32,0-.44.14-.45.5v3.56h0a.51.51,0,0,1-.53.49h0a.55.55,0,0,1-.58-.49h0v-3.77c0-.87.48-1.27,1.34-1.27h1.83v-.43a.57.57,0,0,1,1.13,0v.43h2a1.18,1.18,0,0,1,1.31,1.06v2.89a1.46,1.46,0,0,1-1.5,1.43h-.16c-.58,0-1.19-.09-1.19-.64a.51.51,0,0,1,.46-.55h.12a2.8,2.8,0,0,0,.58.09c.31,0,.56-.11.56-.48v-2.42a.4.4,0,0,0-.36-.43H271.2V177a.53.53,0,0,1-.52.56h0a.54.54,0,0,1-.58-.52v0Z"/><path class="cls-5" d="M95.9,246.58v2.16a7.23,7.23,0,0,0,3,.43c1.17,0,2.46-.08,3.5-.15h0a.49.49,0,0,1,.49.5h0a.58.58,0,0,1-.56.58,24.94,24.94,0,0,1-2.59.12c-2.37,0-4.47-.19-5.62-1.76-.36,1.52-.6,1.69-1,1.69a.47.47,0,0,1-.51-.43h0a.67.67,0,0,1,.07-.24,8.21,8.21,0,0,0,.72-3.59.42.42,0,0,1,.44-.42h0a.47.47,0,0,1,.52.41v0c0,.27-.1,1.24-.1,1.32a2.18,2.18,0,0,0,.51.82v-3.31H93.44a.4.4,0,0,1-.44-.36v0a.44.44,0,0,1,.41-.46h1.46v-1H93.79a.44.44,0,0,1-.47-.4v0a.46.46,0,0,1,.45-.47h1.1v-1.15a.52.52,0,0,1,1,0V242h.94a.46.46,0,1,1,.1.91h-1v1H97.1a.41.41,0,0,1,.43.4v0a.42.42,0,0,1-.41.43H95.89v1h1a.43.43,0,1,1,0,.86Zm4.55-3.37a10.27,10.27,0,0,0,.27,2.59,7.73,7.73,0,0,0,.64-1.86.36.36,0,0,1,.39-.3.52.52,0,0,1,.54.48,7.6,7.6,0,0,1-1.13,2.69c.09.15.4.68.58.68s.24-.2.39-.69a.44.44,0,0,1,.4-.34.55.55,0,0,1,.53.51c0,.12-.39,1.6-1.32,1.6-.6,0-1.07-.69-1.23-1a4.13,4.13,0,0,1-2.09,1.22.44.44,0,0,1-.47-.4v0a.51.51,0,0,1,.37-.46,3.85,3.85,0,0,0,1.77-1.23,12.46,12.46,0,0,1-.55-3.48h-.42c-.35,0-.41.18-.42.41v2.59c.13-.08.27-.16.38-.24a.4.4,0,0,1,.23-.08.41.41,0,0,1,.39.41.52.52,0,0,1-.24.41,7.37,7.37,0,0,1-2.55,1.2.47.47,0,0,1-.4-.53.48.48,0,0,1,.27-.37c.32-.09.63-.2.94-.32v-3.4c0-.48.28-1,1.13-1h.64c0-.5,0-1,0-1.49h0a.49.49,0,0,1,.52-.46h0a.47.47,0,0,1,.5.42v1.53H102a.47.47,0,0,1,0,.94Zm1-1.27a2.17,2.17,0,0,0-.64-.64.27.27,0,0,1-.14-.24.46.46,0,0,1,.44-.43c.29,0,1.11.52,1.11,1a.51.51,0,0,1-.47.51.33.33,0,0,1-.3-.14Z"/><path class="cls-5" d="M105,242.9a.51.51,0,1,1,0-1h2.44a4.21,4.21,0,0,0-.64-.82.36.36,0,0,1-.11-.26.54.54,0,0,1,.58-.47c.48,0,1.27,1.07,1.27,1.44a.24.24,0,0,1,0,.12h1.35a6,6,0,0,0,.67-1.31.53.53,0,0,1,.5-.36.65.65,0,0,1,.64.56c0,.05,0,.32-.64,1.11l2.43,0h0a.51.51,0,0,1,.51.51.51.51,0,0,1-.51.51Zm1.27,7.09a.45.45,0,0,1-.47.43h0a.5.5,0,0,1-.53-.44v-5.53c0-1,.83-1,1.92-1h.85a1,1,0,0,1,1,.94V249a1.23,1.23,0,0,1-1.14,1.32h-.25c-.88,0-1-.32-1-.55a.5.5,0,0,1,.46-.52h.12l.35.05c.23,0,.4-.12.41-.61v-.86h-1.77V250Zm0-3.93v.87h1.78v-.87Zm1.75-.85v-.53c0-.3-.17-.37-.74-.37-.87,0-1,.09-1,.37v.53Zm1.91-1a.49.49,0,0,1,.47-.51h0a.51.51,0,0,1,.52.47v3.76a.52.52,0,0,1-.52.52.53.53,0,0,1-.52-.52Zm3.27,4.63h0c0,.64-.39,1.45-1.72,1.45-1,0-1.28-.19-1.28-.63a.48.48,0,0,1,.44-.53h.14a4.51,4.51,0,0,0,.72.12c.32,0,.6-.12.64-.63s0-2.29,0-3.64v-1.27a.51.51,0,0,1,.51-.52h0a.51.51,0,0,1,.55.47v3.76Z"/><path class="cls-5" d="M122.76,242.72h-1.91v1.57c0,1,0,2,0,2.63a1.22,1.22,0,0,1-1.18,1.18c-.4,0-.83,0-1.28,0a11.64,11.64,0,0,1-1.21,0A1.15,1.15,0,0,1,116,247v-5.15a1.12,1.12,0,0,1,1.1-1.13h2.53a1.12,1.12,0,0,1,1.19,1h4.28a.51.51,0,0,1,.51.5.5.5,0,0,1-.5.51H123.8v6h0c0,.7-.51,1.58-1.92,1.58s-1.48-.42-1.48-.69a.54.54,0,0,1,.53-.55h.19a3.26,3.26,0,0,0,.75.12c.45,0,.82-.18.82-.71Zm-4.83-1.14c-.64,0-.88,0-.91.5s0,1,0,1.64h.94Zm0,3H117c0,.82,0,1.63,0,2.11,0,.31.19.45.49.46h.42Zm2-.9v-1.63c0-.36-.2-.51-1-.51v2.14Zm-1,.9v2.59c.58,0,1-.05,1-.5s0-1.28,0-2.09Z"/><path class="cls-4" d="M215.48,117.47v.07c0,.24.28.28.64.28h4.71c.81,0,1.15.27,1.15.64a2.37,2.37,0,0,1-.29.86,2.33,2.33,0,0,1-2.29,1.13,6.64,6.64,0,0,1-1.41-.18.41.41,0,0,1-.3-.4.37.37,0,0,1,.36-.39h.17a5.88,5.88,0,0,0,1.18.16,1.27,1.27,0,0,0,1.38-1.15c0-.16-.09-.24-.37-.24h-4c-1.1,0-1.87,0-1.92-.67v-.78c0-.51,0-1.11,0-1.54,0-.64.81-.68,2-.68,0-.09.07-.18.1-.27a.34.34,0,0,1,.18-.21.64.64,0,0,1-.41-.58v-.64l-.06.06a.5.5,0,0,1-.31.1.58.58,0,0,1-.49-.27l-.05,1.31c0,.25-.27.38-.52.38s-.47-.11-.47-.36h0l.08-1.27c-.46.33-.55.37-.71.37a.43.43,0,0,1-.22,0c0,2.07-.12,4.84-1.07,6.26a.71.71,0,0,1-.6.34.57.57,0,0,1-.64-.49h0a.43.43,0,0,1,.09-.26c.87-1.33,1-3.78,1-5.74,0-.78,0-1.47,0-2v0c0-.79.4-1.27,1.54-1.32h2.69v-.32a.64.64,0,1,1,1.27,0h0v.31h3.83a.43.43,0,0,1,.43.43.44.44,0,0,1-.43.44h-2.13c.11,0,.2.11.2.18s0,0-.17.3h1.91a.26.26,0,0,1,.3.23v0c0,.13-.1.25-.31.25h-1.89v.33h1.5c.18,0,.25.1.25.21a.22.22,0,0,1-.23.22h-1.52v.33h1.5a.24.24,0,0,1,.26.21h0c0,.11-.09.21-.27.21h-1.5v.35h2.08c.22,0,.32.13.32.27s-.1.25-.32.25h-4a.27.27,0,0,1,0,.15.38.38,0,0,1-.07.21c2.69,0,2.72,0,2.72,1.15,0,.78-.12.87-1.82.87h-3v.33h6.29a.28.28,0,0,1,.32.23.27.27,0,0,1-.23.31h-.09Zm-2.79,2.42a.44.44,0,0,1,.26-.37,1.85,1.85,0,0,0,.78-.92.45.45,0,0,1,.47-.32c.28,0,.57.17.57.41,0,.55-.76,1.69-1.47,1.69a.57.57,0,0,1-.59-.51Zm1.51-9c-.44,0-.6.17-.6.45v1.08a5,5,0,0,0,1.68-1.53ZM216,120c-.25,0-.48-.12-.48-.38a2.66,2.66,0,0,0-.18-.8.17.17,0,0,1,0-.1c0-.19.23-.29.46-.29a.63.63,0,0,1,.45.18,1.65,1.65,0,0,1,.36.93.6.6,0,0,1-.64.46Zm.07-9.11a.39.39,0,0,1,.09.23s0,.24-.64.87v.53a.35.35,0,0,1,.11-.1,4.56,4.56,0,0,0,1.45-1.45l.06-.08Zm-.53,5v.36H218c1.15,0,1.32,0,1.36-.24v-.12Zm3.83-.39v-.12c0-.15-.15-.23-.43-.23h-2.88q-.47,0-.48.3v0Zm-1.58,4a.36.36,0,0,1-.35-.15,1,1,0,0,0-.34-.48.17.17,0,0,1-.07-.13c0-.15.27-.26.53-.26a1,1,0,0,1,.81.67c0,.22-.35.35-.63.35Zm.88-6.82H217.3V113h1.4Zm0,.76H217.3v0c0,.18.13.3.46.3h.92Zm0-1.52h-1a.33.33,0,0,0-.36.28h1.36Zm-.84-1a.38.38,0,0,1,.21.28.34.34,0,0,1-.05.14l-.05.08h.7l.19-.39a.2.2,0,0,1,.09-.09Zm1.84,8.44a.33.33,0,0,1-.29-.13,1.07,1.07,0,0,0-.43-.36c-.09,0-.13-.11-.13-.17a.59.59,0,0,1,.46-.29c.22,0,.86.28.86.59a.56.56,0,0,1-.52.36Z"/><path class="cls-4" d="M234.19,117.2l-3.43,0a13.54,13.54,0,0,0,3.83,1.79.52.52,0,0,1,.37.49.66.66,0,0,1-.63.67,13.66,13.66,0,0,1-4.22-2.3V120h0a.53.53,0,0,1-.57.48h0c-.3,0-.59-.16-.59-.48h0v-2.15a13,13,0,0,1-4.2,2.33.6.6,0,0,1-.64-.55v0a.52.52,0,0,1,.42-.49,12.48,12.48,0,0,0,3.71-1.92l-3.3,0h0a.5.5,0,0,1-.53-.46v0a.51.51,0,0,1,.51-.51h4v-.63H227a1.16,1.16,0,0,1-1.32-1.11v-2a1.15,1.15,0,0,1,1.22-1.07h.14a.49.49,0,0,1-.27-.26,3.52,3.52,0,0,0-.78-1,.41.41,0,0,1-.13-.29.58.58,0,0,1,.6-.49c.54,0,1.35,1.06,1.35,1.44a.63.63,0,0,1-.45.58h3.65a9.3,9.3,0,0,0,.81-1.72.59.59,0,0,1,.55-.43.64.64,0,0,1,.68.59,6.08,6.08,0,0,1-.88,1.57,1.2,1.2,0,0,1,1.16,1v2a1.24,1.24,0,0,1-1.27,1.12h-2v.64h4.08a.49.49,0,0,1,.53.46.06.06,0,0,1,0,0,.5.5,0,0,1-.49.5h0Zm-5.18-5h-1.6c-.48,0-.6.43-.6.75H229Zm0,1.62h-2.2c0,.83,0,.83,2.2.83Zm.69-2.62a.41.41,0,0,1-.43-.33,3.26,3.26,0,0,0-.59-1.14.57.57,0,0,1-.07-.22.54.54,0,0,1,.58-.46c.64,0,1.17,1.35,1.17,1.57a.63.63,0,0,1-.66.58Zm2.65,1.78v-.26c0-.31-.2-.48-.6-.49s-1.06,0-1.63,0V113Zm-2.24.84v.83h1.64c.53,0,.6-.43.6-.8Z"/><path class="cls-4" d="M215.58,106.26c-.19.42-.85.24-.59-.29a19.42,19.42,0,0,0,1.09-2.73,1.88,1.88,0,0,1-.91-.09c-.31-.14-.25-.71.22-.54a1.67,1.67,0,0,0,.86,0,2.51,2.51,0,0,0,0-.67c0-.36.56-.38.63,0a1.46,1.46,0,0,1,0,.51l.24-.14a.31.31,0,0,1,.41.11.29.29,0,0,1-.11.41l0,0a4.47,4.47,0,0,1-.64.25A25.38,25.38,0,0,1,215.58,106.26Zm1.51-.28c-.27-.3.12-.8.45-.47s.69.3,1.42.23a.33.33,0,0,1,.18.63H219A2.23,2.23,0,0,1,217.09,106Zm.71-2.2c-.33.13-.52-.39-.11-.54a2.4,2.4,0,0,1,1.5,0c.41.16.25.7-.15.58a2.1,2.1,0,0,0-1.24,0Z"/><path class="cls-4" d="M223.22,103.08c.52,0,.93.26.95,1a3.73,3.73,0,0,1-.21,1.4,1.2,1.2,0,0,1-1.47.75.32.32,0,1,1,.09-.64.59.59,0,0,0,.78-.3v0a2.74,2.74,0,0,0,.2-1.09c0-.39-.13-.57-.42-.55l-.29,0a9.08,9.08,0,0,1-1.2,2.56c-.3.43-.95.06-.54-.4a6.3,6.3,0,0,0,1.1-2h-.08a3.73,3.73,0,0,1-.67.09.31.31,0,0,1-.09-.61h.09a4.36,4.36,0,0,0,.61,0h.31a7,7,0,0,0,.2-1c0-.41.68-.38.64,0a6.68,6.68,0,0,1-.18.89Zm2.3,1.41a2.35,2.35,0,0,0-.89-1.08c-.31-.17,0-.63.35-.41a2.61,2.61,0,0,1,1.11,1.19c.16.42-.4.69-.57.3Z"/><path class="cls-4" d="M228.73,104.83a.88.88,0,0,1,.44-1.16l.06,0a1.35,1.35,0,0,1,.53,0v-.51c-.52,0-1,.12-1.36.17s-.74.16-.93.19a.32.32,0,0,1-.34-.29.32.32,0,0,1,.29-.35l.92-.13c.28,0,.87-.12,1.42-.17v-.75a.33.33,0,0,1,.41-.23.32.32,0,0,1,.22.23v.69h1.43c.53,0,.5.68,0,.64a8.89,8.89,0,0,0-1,0h-.45V104c.55.88-.11,2.21-.77,2.75-.42.33-1-.11-.42-.5a2.19,2.19,0,0,0,.72-.93.8.8,0,0,1-1.1-.24A.85.85,0,0,1,228.73,104.83Zm1.05-.64a.39.39,0,0,0-.54.09.37.37,0,0,0-.05.37.38.38,0,0,0,.47.23.39.39,0,0,0,.26-.34.34.34,0,0,0,0-.24,1.47,1.47,0,0,0-.1-.13Z"/><path class="cls-4" d="M260.45,80.94l-4.1-.07v.47h2.37c.74,0,1.08.28,1.11.84v.42c0,.53-.41.81-1,.85.57.17,1.15.32,1.8.49.37.08.52.31.52.52a.57.57,0,0,1-.58.54h-.06a12.34,12.34,0,0,1-4.23-1.82v.89h0a.52.52,0,0,1-.55.48h0a.51.51,0,0,1-.56-.45v0h0v-.84a13.25,13.25,0,0,1-4.29,1.83.47.47,0,0,1-.52-.43v0a.56.56,0,0,1,.47-.52,11.12,11.12,0,0,0,4.37-1.84v-.18h-1.83c-.3,0-.41.09-.41.25v.76a.51.51,0,0,1-.56.44c-.54,0-.55-.36-.55-.7,0-1,0-1.47,1.25-1.47h2.11v-.47l-4,.07h0a.47.47,0,0,1-.5-.41v0a.51.51,0,0,1,.5-.51h4v-.38a.51.51,0,0,1,.51-.5h.06a.52.52,0,0,1,.57.47V80h4.09a.5.5,0,0,1,.5.47v0a.46.46,0,0,1-.44.47h-.06Zm0,5.28-4.1-.07v.47h2.38c.73,0,1.08.29,1.11.84v.43c0,.52-.42.8-1,.84.57.19,1.15.34,1.8.5a.6.6,0,0,1,.52.54.55.55,0,0,1-.57.54h0a13,13,0,0,1-4.25-1.87V90h0a.52.52,0,0,1-.56.48h0a.51.51,0,0,1-.56-.44v0h0V88.5a13.86,13.86,0,0,1-4.3,1.92.5.5,0,0,1-.52-.48v0a.58.58,0,0,1,.47-.53,11.18,11.18,0,0,0,4.37-1.87v-.16h-1.83c-.3,0-.41.09-.41.25v.76a.51.51,0,0,1-.56.44c-.54,0-.55-.36-.55-.7,0-1,0-1.47,1.25-1.47h2.11v-.47l-4,.07h0a.46.46,0,0,1-.5-.4v0a.5.5,0,0,1,.5-.5h4v-.15a.53.53,0,0,1,.52-.51h0a.53.53,0,0,1,.57.48v.17h4.09a.47.47,0,0,1,.5.46v0a.46.46,0,0,1-.45.46h0Zm-1.73-3.91c0-.15-.09-.25-.37-.25h-2v.19a9.37,9.37,0,0,0,1.74.93.58.58,0,0,1,0-.19.34.34,0,0,1,.33-.38h.19c.08,0,.16,0,.16-.14v-.15Zm0,5.28c0-.14-.09-.24-.37-.24h-2v.16a9.52,9.52,0,0,0,1.78.95.39.39,0,0,1,0-.18.36.36,0,0,1,.32-.39h.19c.08,0,.16,0,.16-.14v-.16Z"/><path class="cls-4" d="M247.89,73.31a.3.3,0,0,1-.24-.33.28.28,0,0,1,.32-.24.17.17,0,0,1,.1,0,1.79,1.79,0,0,0,.86,0,3.44,3.44,0,0,0,.12-.64.31.31,0,0,1,.36-.23.3.3,0,0,1,.24.29,2.34,2.34,0,0,1-.09.38l.2-.11c.28-.19.67.2.27.48a2.18,2.18,0,0,1-.64.29,17.1,17.1,0,0,1-1.11,2.12c-.23.38-.83.13-.56-.28a11.35,11.35,0,0,0,1-1.71A1.76,1.76,0,0,1,247.89,73.31ZM249,76.85a.64.64,0,0,1,0-1.28,2.14,2.14,0,0,1,1.2-.12v-.69a2,2,0,0,1,0-.42.28.28,0,0,1,.33-.22.29.29,0,0,1,.22.34h0a1.36,1.36,0,0,0,0,.29v.87a2.42,2.42,0,0,1,.76.51c.35.39-.15.84-.45.48a1.42,1.42,0,0,0-.36-.33A1.28,1.28,0,0,1,249,76.85Zm.2-.83a.21.21,0,0,0-.12.25.2.2,0,0,0,.12.12.68.68,0,0,0,.92-.25l0-.08V76A1.3,1.3,0,0,0,249.16,76Zm1.39-2.32c-.34,0-.36-.5,0-.53a2,2,0,0,1,1.14.21c.43.26.1.78-.21.59a1.57,1.57,0,0,0-.94-.27Z"/><path class="cls-4" d="M255.44,76.69c-.57.09-.64-.59-.12-.63a3.33,3.33,0,0,0,1.83-.74c.53-.47.57-1,.28-1.32a1.6,1.6,0,0,0-1.66-.28,5.81,5.81,0,0,0-.89.38l-.87.43a.35.35,0,1,1-.3-.64h0a14.76,14.76,0,0,1,1.95-.74,2.29,2.29,0,0,1,2.23.43,1.48,1.48,0,0,1-.34,2.25A4.31,4.31,0,0,1,255.44,76.69Z"/><path class="cls-4" d="M261.6,75.77c-.73.8-1.39.52-1.56-.27a2,2,0,0,1,.69-1.8,2.77,2.77,0,0,1-.12-.41c0-.12-.09-.41-.12-.54-.1-.52.6-.52.64-.07a4.35,4.35,0,0,0,.06.52v.14l.13-.07a2.63,2.63,0,0,1,1.07-.26,5.25,5.25,0,0,0,.08-.68c0-.44.64-.4.64.06A4.48,4.48,0,0,1,263,73a1.6,1.6,0,0,1,1.28,1.14,2,2,0,0,1-1.52,2.42c-.48.18-.78-.42-.24-.58,1.09-.34,1.33-1.06,1.18-1.66a1.09,1.09,0,0,0-.81-.84.43.43,0,0,1-.06.18,7,7,0,0,1-.64,1.28l.09.06a.28.28,0,0,1,.05.38h0a.28.28,0,0,1-.4.06h-.06A3.45,3.45,0,0,0,261.6,75.77Zm-.68-1.54a1.41,1.41,0,0,0-.35,1.06c.1.49.39.35.56.17s.21-.24.3-.36A3.43,3.43,0,0,1,260.92,74.23Zm.6-.52-.18.12a3.44,3.44,0,0,0,.43.77,5.32,5.32,0,0,0,.49-1v-.09A2.35,2.35,0,0,0,261.52,73.71Z"/><path class="cls-4" d="M187.75,150c-1.1,0-2.25,0-3.39,0s-2.3,0-3.42,0a1.49,1.49,0,0,1-1.65-1.3c0-.07,0-.15,0-.22,0-1-.05-2.08-.05-3.25,0-1.42,0-2.88.05-4.11a1.43,1.43,0,0,1,1.47-1.38h.09c1.09,0,2.24,0,3.4,0s2.36,0,3.53,0a1.5,1.5,0,0,1,1.52,1.47c0,1.28.05,2.69.05,4.06,0,1.12,0,2.2-.05,3.16a1.54,1.54,0,0,1-1.52,1.56Zm.39-5c0-1.13,0-2.27-.06-3.29,0-.71-.27-.84-.88-.85h-5.83c-.71,0-.92.21-.92.85,0,1,0,2.15,0,3.24s0,2.16,0,3.1c0,.72.26.85,1,.86s1.77,0,2.71,0h3c.7,0,.92-.35.93-.89,0-1,.06-2,.06-3Zm-6.66,2.86a.46.46,0,0,1-.53-.4s0,0,0-.06a.5.5,0,0,1,.51-.5h2.19V145h-1.48a.47.47,0,0,1-.52-.4v0a.49.49,0,0,1,.5-.49h1.51v-1.28h-1.84a.47.47,0,0,1-.53-.42v-.05a.5.5,0,0,1,.5-.5h4.84a.49.49,0,1,1,0,1h-1.87v1.28h1.52a.48.48,0,0,1,.51.44v0a.48.48,0,0,1-.48.48h-1.55v1.84H187a.48.48,0,0,1,.53.43.47.47,0,0,1-.42.53h-5.62Zm4.81-1.27a7,7,0,0,0-.85-.57.35.35,0,0,1-.22-.33.49.49,0,0,1,.51-.45c.07,0,1.35.4,1.35,1a.51.51,0,0,1-.48.51.45.45,0,0,1-.31-.1Z"/><path class="cls-4" d="M191.74,150.38a.65.65,0,0,1-.64-.6.59.59,0,0,1,.56-.57,3.7,3.7,0,0,0,3.16-1.91.6.6,0,0,1,.56-.38.65.65,0,0,1,.64.59.77.77,0,0,1-.07.26C194.87,150.12,191.74,150.38,191.74,150.38Zm2.87-3.71a1.32,1.32,0,0,1-1.45-1.19.25.25,0,0,1,0-.08c0-.56,0-1.46,0-2.34s0-1.76,0-2.26a1.28,1.28,0,0,1,1.32-1.23h4.33a1.29,1.29,0,0,1,1.28,1.15c0,.55,0,1.36,0,2.19s0,1.84,0,2.46a1.35,1.35,0,0,1-1.36,1.28h-.64v1.5c0,.69.15.85,1.22.85s1.55-.15,1.55-1.27a.58.58,0,0,1,.53-.6h.06a.64.64,0,0,1,.64.64v0c0,2.17-1.44,2.33-2.87,2.33-1.27,0-2.34-.13-2.34-1.52v-2C196.13,146.7,195.33,146.69,194.61,146.67Zm4.36-4h-4.72v1H199Zm0-1v-.5c0-.33-.17-.52-.58-.54s-1,0-1.55,0h-1.91a.56.56,0,0,0-.59.54h0v.49Zm-4.7,2.92v.5c0,.4.24.54.6.55.57,0,1.2,0,1.84,0s1.12,0,1.66,0,.59-.48.59-1Z"/><path class="cls-4" d="M184,137a11.94,11.94,0,0,0-1.32-2.05.93.93,0,0,1-.05-1.32l.13-.12a15.51,15.51,0,0,0,1.27-1.42.35.35,0,0,1,.49-.09.34.34,0,0,1,.09.48l0,0c-.31.38-1,.93-1.36,1.32s-.28.46-.08.72a10.19,10.19,0,0,1,1.46,2C184.8,137,184.21,137.36,184,137Z"/><path class="cls-4" d="M188,136.71c-.5-1.24,0-3.1.11-3.83a.31.31,0,1,1,.61,0,.25.25,0,0,1,0,.08,8.71,8.71,0,0,0-.32,2.55c0,.08,0,.06.07,0l.1-.21a.25.25,0,0,1,.44.25,3.1,3.1,0,0,0-.37.88c0,.17,0,.37-.12.5S188.17,137,188,136.71Zm1.67-.45a.31.31,0,0,1,0-.44.29.29,0,0,1,.43,0c.34.3,1.09.2,1.58.1s.53.56.12.64a2.3,2.3,0,0,1-2.13-.31Zm.36-2.51a.31.31,0,0,1-.34-.25.29.29,0,0,1,.25-.33,3.64,3.64,0,0,1,1.64,0,.31.31,0,0,1-.05.61h-.06a3.14,3.14,0,0,0-1.43,0Z"/><path class="cls-4" d="M195.91,134.49a4.52,4.52,0,0,1,1.35.28,1,1,0,0,0-.09-.64c-.18-.3.39-.54.6-.15a1.64,1.64,0,0,1,0,1.05,4,4,0,0,1,.86.53c.4.31,0,.89-.38.56a4.83,4.83,0,0,0-.68-.51,3.1,3.1,0,0,1-1.18,1.28c-.44.26-.75-.23-.35-.49a2.66,2.66,0,0,0,1-1.06,3.81,3.81,0,0,0-1.45-.31,3.18,3.18,0,0,1-.8,1.15.88.88,0,0,1-1.19,0c-.32-.4-.09-1.06.63-1.38a3.64,3.64,0,0,1,1-.27c.21-.47.5-1.05.67-1.44,0-.09.06-.14,0-.12a3.51,3.51,0,0,1-.73.16.3.3,0,0,1-.3-.3.29.29,0,0,1,.3-.3h0a5.87,5.87,0,0,0,.9-.16c.57-.11.82.26.54.72s-.51.95-.74,1.42Zm-1.47.76c-.16.08-.45.34-.35.5s.3.07.41,0a2.16,2.16,0,0,0,.52-.68,2.08,2.08,0,0,0-.6.18Z"/><path class="cls-4" d="M164.43,196.43a.42.42,0,0,1-.28-.1,7.19,7.19,0,0,1-.72,2.39.61.61,0,0,1-.53.35.53.53,0,0,1-.55-.51.62.62,0,0,1,.09-.32c.82-1.38,1-3.56,1-5.57,0-.87,0-1.71,0-2.44h0a1,1,0,0,1,.88-1.06H167c1.07,0,1.13.63,1.13,1.52,0,1.25-.35,1.28-2.41,1.28h-1.35v1.52a.45.45,0,0,1,.33-.12h.3v-.73a.41.41,0,0,1,.39-.44h0a.42.42,0,0,1,.44.41v.76h.64v-.73a.45.45,0,0,1,.45-.45.45.45,0,0,1,.45.45v.73h.3a.41.41,0,0,1,.44.38v0a.42.42,0,0,1-.4.44h-.34v1.39h.67a.43.43,0,1,1,0,.85Zm-.81,2.44a.58.58,0,0,1,.23-.42A3.74,3.74,0,0,0,165,197a.37.37,0,0,1,.37-.23.62.62,0,0,1,.6.58c0,.37-1.11,2-1.73,2a.59.59,0,0,1-.59-.53Zm1.4-4.68h-.3a.42.42,0,0,1-.35-.15,11.6,11.6,0,0,1-.13,1.57.4.4,0,0,1,.19,0H165Zm-.64-3.22h2.37c.4,0,.36-.26.36-.45,0-.44,0-.47-1.33-.47h-1a.4.4,0,0,0-.4.4V191Zm2.1,3.22h-.64v1.39h.64Zm.64,4.15a2.75,2.75,0,0,0-.6-.79.36.36,0,0,1-.15-.3.5.5,0,0,1,.5-.47,1.84,1.84,0,0,1,1.18,1.23.59.59,0,0,1-.55.58.41.41,0,0,1-.34-.25Zm.63,1.5a.55.55,0,0,1-.57-.52v0a.57.57,0,0,1,.41-.53,6.6,6.6,0,0,0,2.29-1.37,4.49,4.49,0,0,1-1-1.91.52.52,0,0,1,.51-.53h0a.48.48,0,0,1,.46.34,5,5,0,0,0,.76,1.35,3.77,3.77,0,0,0,.81-1.71c0-.13-.09-.21-.27-.21h-.32c-.59,0-1.23,0-1.95,0h0a.46.46,0,0,1-.5-.43v0a.49.49,0,0,1,.45-.5h2.89c.64,0,1.06.32,1.06.89a6.21,6.21,0,0,1-1.32,2.73,5.59,5.59,0,0,0,2.05,1.1.57.57,0,0,1,.42.55.64.64,0,0,1-.64.63,5.19,5.19,0,0,1-2.56-1.5,6.32,6.32,0,0,1-2.91,1.62Zm5.11-8.46a.41.41,0,0,1,.4-.43h.06c.26,0,.55.16.55.44v.09c0,1.56-.54,1.81-1.66,1.81s-1.28-.56-1.28-1.59v-1.28c0-.14-.05-.36-.44-.36s-.57.05-.57.39a3.77,3.77,0,0,1-.85,2.87.58.58,0,0,1-.46.22A.57.57,0,0,1,168,193a.46.46,0,0,1,.16-.34,2.33,2.33,0,0,0,.64-2v-.6c0-.94.8-.94,1.34-.94,1.56,0,1.82.06,1.82,1.28v1.51c0,.16,0,.4.28.4s.54-.05.54-.8v-.16Z"/><path class="cls-4" d="M179.78,190.85H176a.53.53,0,0,1-.54-.51v-.05a.58.58,0,0,1,.52-.61h9.49a.56.56,0,0,1,.53.57v0a.53.53,0,0,1-.49.58H181.1v1.55a.6.6,0,0,1,.19,0,10.13,10.13,0,0,1,3.14,1.51.67.67,0,0,1,.31.58.7.7,0,0,1-.68.7.76.76,0,0,1-.46-.16,12.65,12.65,0,0,0-2.5-1.5v5.62a.65.65,0,1,1-1.3,0Z"/><path class="cls-4" d="M167.69,182.56a1.81,1.81,0,0,1,.2-.33c.1-.13.07-.12,0-.09a7.52,7.52,0,0,0-.78.32l-.56.18c-.55.15-.72-.57-.22-.68l.69-.15c.3-.08.85-.2,1.49-.38a8.23,8.23,0,0,1,1.69-.37.37.37,0,0,1,.44.27.3.3,0,0,1,0,.21c0,.11-.17.23-.6.21a2.48,2.48,0,0,0-.93.18,1.82,1.82,0,0,0-.8.73,1.4,1.4,0,0,0,1.27,2.2c.64,0,.71.72,0,.71a2,2,0,0,1-2.14-1.85A2,2,0,0,1,167.69,182.56Zm1.91.41c-.33-.14-.08-.53.23-.42a2,2,0,0,1,.64.4c.25.27-.14.67-.36.42a1.73,1.73,0,0,0-.5-.39Zm.64-.55c-.34-.13-.09-.53.21-.43a2,2,0,0,1,.64.38c.26.26-.1.67-.32.42a2.75,2.75,0,0,0-.53-.36Z"/><path class="cls-4" d="M174.44,184.61a4.57,4.57,0,0,0,0-.74c0-.71-1-.11-1.15.2a3.2,3.2,0,0,0-.39.86c-.11.48-.25.51-.37.53a.33.33,0,0,1-.41-.24.29.29,0,0,1,0-.24,11.62,11.62,0,0,1,1-1.92c.37-.56.69-1.1,1-1.59.1-.18.27-.39.34-.52a.34.34,0,0,1,.47-.07.34.34,0,0,1,.11.41c0,.09-.1.16-.14.22l-.19.21a10.34,10.34,0,0,0-.64.84c-.16.23-.28.44-.42.64s0,.05,0,0c.22-.2,1.27-.5,1.39.57v.69c0,.56.53.49.9.16a2.13,2.13,0,0,0,.57-.88.34.34,0,1,1,.59.32,3,3,0,0,1-.78,1.05C175.67,185.66,174.43,185.8,174.44,184.61Z"/><path class="cls-4" d="M180.58,182.13c.52,0,.93.27.95,1a3.52,3.52,0,0,1-.22,1.4,1.19,1.19,0,0,1-1.46.76.32.32,0,1,1,.09-.64.59.59,0,0,0,.78-.31v0a2.74,2.74,0,0,0,.2-1.09c0-.38-.13-.57-.42-.54h-.29a8.89,8.89,0,0,1-1.2,2.55c-.3.43-1,.06-.55-.4a6,6,0,0,0,1.11-2h-.08a3.73,3.73,0,0,1-.67.09.31.31,0,0,1-.35-.26.31.31,0,0,1,.26-.34h.09a3.83,3.83,0,0,0,.64,0l.31,0a6.65,6.65,0,0,0,.19-1c0-.41.68-.38.64,0a6.68,6.68,0,0,1-.18.89Zm2.3,1.42a2.26,2.26,0,0,0-.9-1.08c-.3-.17,0-.64.36-.42a2.58,2.58,0,0,1,1.11,1.2C183.61,183.66,183,183.94,182.88,183.55Zm-.57-1.92c-.33-.12-.1-.51.19-.41a2,2,0,0,1,.64.35c.25.24-.08.64-.3.41a2.46,2.46,0,0,0-.54-.37Zm.54-.56c-.33-.11-.13-.51.17-.43a2.05,2.05,0,0,1,.64.33c.26.24-.07.64-.3.42a2.16,2.16,0,0,0-.51-.34Z"/><path class="cls-4" d="M105.51,210.64V213a8,8,0,0,0,3.28.48c1.27,0,2.69-.1,3.83-.18h0a.54.54,0,0,1,.53.54s0,0,0,0a.64.64,0,0,1-.63.64c-.89.09-1.87.14-2.84.14-2.59,0-4.9-.21-6.16-1.91-.4,1.66-.64,1.85-1,1.85a.53.53,0,0,1-.56-.47h0a.61.61,0,0,1,.08-.26,9,9,0,0,0,.78-3.93.48.48,0,0,1,.5-.47h0a.52.52,0,0,1,.56.47h0c0,.29-.1,1.35-.12,1.45a2.65,2.65,0,0,0,.57.9v-3.63h-1.59a.45.45,0,0,1-.48-.4v-.05a.47.47,0,0,1,.45-.5h1.62v-1.08h-1.2a.47.47,0,0,1-.51-.43v-.05a.5.5,0,0,1,.48-.51h1.23v-1.28a.57.57,0,0,1,.65-.48.58.58,0,0,1,.48.48v1.28h1a.5.5,0,0,1,.12,1h-1.15v1.08h1.32a.49.49,0,0,1,.48.48.48.48,0,0,1-.48.48h-1.32v1.06h1.08a.48.48,0,1,1,0,.95Zm5-3.69a11.16,11.16,0,0,0,.3,2.83,9,9,0,0,0,.64-2,.39.39,0,0,1,.42-.33.57.57,0,0,1,.6.52,8.34,8.34,0,0,1-1.27,2.95c.1.16.45.74.64.74s.26-.21.43-.75a.47.47,0,0,1,.44-.37.59.59,0,0,1,.57.55c0,.13-.42,1.75-1.44,1.75-.64,0-1.18-.75-1.35-1.06a4.6,4.6,0,0,1-2.29,1.33.48.48,0,0,1-.52-.45h0a.55.55,0,0,1,.4-.51,4.06,4.06,0,0,0,2-1.36,13.44,13.44,0,0,1-.6-3.83H109c-.39,0-.45.19-.47.44v2.84l.43-.26a.38.38,0,0,1,.25-.09.45.45,0,0,1,.42.45.52.52,0,0,1-.26.45,8.23,8.23,0,0,1-2.79,1.32.52.52,0,0,1-.47-.56.5.5,0,0,1,.36-.45,9.44,9.44,0,0,0,1-.35V207c0-.52.31-1.08,1.27-1.09h.7c0-.56,0-1.1,0-1.63h0a.54.54,0,0,1,.57-.51h0a.51.51,0,0,1,.55.46v1.68h1.68a.52.52,0,1,1,0,1Zm1.08-1.37a2.44,2.44,0,0,0-.72-.71.26.26,0,0,1-.15-.26.5.5,0,0,1,.48-.46c.32,0,1.22.56,1.22,1a.59.59,0,0,1-.51.57.42.42,0,0,1-.32-.15Z"/><path class="cls-4" d="M116.68,208.31a.64.64,0,0,1-.6.39c-.3,0-.6-.18-.6-.45a.66.66,0,0,1,.09-.27,11.9,11.9,0,0,0,1.08-2.28c0-.14-.15-.16-.26-.16h-1a.51.51,0,0,1-.53-.5.07.07,0,0,1,0,0c0-.57.45-.57.77-.57h1.42c.57,0,.94.28.94.79,0,.25,0,.42-.81,2h.42a.94.94,0,0,1,1,.86,1,1,0,0,1,0,.17,11.25,11.25,0,0,1-1,3.77c1.05,1.16,2.68,1.43,4.39,1.43,1,0,2.06-.1,3-.16h0a.59.59,0,0,1,.61.56v0a.64.64,0,0,1-.64.64,26.32,26.32,0,0,1-2.65.15c-2.06,0-4-.36-5.3-1.71-.43.64-1.62,1.91-2.08,1.91a.69.69,0,0,1-.64-.67.6.6,0,0,1,.32-.5,5.39,5.39,0,0,0,1.69-1.67,6.09,6.09,0,0,1-.45-1c-.41.57-.64.73-.85.73a.57.57,0,0,1-.57-.55.72.72,0,0,1,.27-.51,3.07,3.07,0,0,0,.89-1.3.41.41,0,0,1,.44-.28.5.5,0,0,1,.54.46h0v.19A4.86,4.86,0,0,0,117,211a7.09,7.09,0,0,0,.56-2.35c0-.24-.12-.3-.27-.3Zm8.18-2.78h-1.62v1.08c.79,0,1.7,0,1.74,1.16,0,.6,0,1.17,0,1.74s0,1.27,0,2a1.3,1.3,0,0,1-1.36,1.22c-.5,0-1.12,0-1.71,0h-1.42c-.92-.06-1.33-.52-1.36-1.28v-3.77a1.06,1.06,0,0,1,1.05-1.06h.56v-1.08h-1.42a.51.51,0,1,1,0-1h5.55a.52.52,0,0,1,.56.47v.05a.49.49,0,0,1-.51.49h0Zm-4.66,4.56a3.1,3.1,0,0,0,.6-2.22v-.34h-.16c-.51,0-.51,0-.51,2v.64Zm1.5-2.55a5.14,5.14,0,0,1-.68,3.13.55.55,0,0,1-.45.25.52.52,0,0,1-.43-.25v.5c0,.56.17.58,2,.58.47,0,.94,0,1.27,0,.51,0,.59-.15.59-1.16h-.32c-1,0-1.39-.27-1.39-1v-2Zm.57-2h-.56v1.06h.57Zm.91,2v1.79c0,.25.16.29.49.29H124c0-2,0-2-.5-2.06Z"/><path class="cls-4" d="M106,200a.34.34,0,0,1,.12-.46.32.32,0,0,1,.4,0,2.56,2.56,0,0,0,2.48.23c.51-.14.67.53.16.69C108,200.91,106.45,200.62,106,200Zm.7-2.56c-.49.1-.57-.57,0-.64a7.37,7.37,0,0,1,2,0c.52.12.38.77-.12.64a4.71,4.71,0,0,0-1.87,0Z"/><path class="cls-4" d="M112.6,199.58c0-.63,0-1.19.07-1.86,0-.41.07-1,.06-1.41a.33.33,0,0,1,.38-.29.34.34,0,0,1,.3.29c0,.4-.06,1-.09,1.41-.07.62-.11,1.23-.12,1.85,0,.92,1.15.86,2.24,0a.34.34,0,0,1,.49,0,.35.35,0,0,1,0,.49l-.07.06C114.65,201.1,112.66,201.28,112.6,199.58Z"/><path class="cls-4" d="M120.53,197.44a5,5,0,0,1-1.28,2.55c-.47.45-1,.21-1.27-.34a2.18,2.18,0,0,1,.86-2.55,2.56,2.56,0,0,1,2.69-.15,1.87,1.87,0,0,1,.62,2.58.16.16,0,0,1,0,.07,2.59,2.59,0,0,1-1.52,1c-.55.14-.74-.49-.21-.64a2,2,0,0,0,1.16-.7,1.37,1.37,0,0,0-.32-1.91h0a1.63,1.63,0,0,0-.77-.25A.36.36,0,0,1,120.53,197.44Zm-1.38.12a1.59,1.59,0,0,0-.64,1.78c.09.17.25.27.41.13a3.82,3.82,0,0,0,1-2.09.46.46,0,0,1,0-.2,1.93,1.93,0,0,0-.82.38Z"/><rect class="cls-6" width="320" height="270"/></g></g></svg>