<?xml version="1.0" encoding="utf-8"?>
<!-- Generator: Adobe Illustrator 26.3.1, SVG Export Plug-In . SVG Version: 6.00 Build 0)  -->
<svg version="1.1" id="_イヤー_2" xmlns="http://www.w3.org/2000/svg" xmlns:xlink="http://www.w3.org/1999/xlink" x="0px"
	 y="0px" viewBox="0 0 288 192" style="enable-background:new 0 0 288 192;" xml:space="preserve">
<style type="text/css">
	.st0{fill:#D9806A;}
	.st1{fill:#FFFF00;}
</style>
<g id="_ーディング指示">
	<g>
		<polygon class="st0" points="244.3,58.1 235.6,62.1 240.6,68.2 247,63.8 		"/>
		<polygon class="st0" points="175.2,62.6 166.5,66.7 171.5,72.7 177.9,68.3 		"/>
		<polygon class="st0" points="151.1,111.9 146.4,117 153.1,118.3 157.5,114.9 		"/>
		<polygon class="st1" points="184.5,128.8 179.8,133.8 186.5,135.1 190.9,131.8 		"/>
		<polygon class="st1" points="171.6,95.1 167.6,88.4 162.5,94.8 		"/>
		<polygon class="st1" points="200.8,110.2 196.8,103.5 191.8,109.9 		"/>
		<polygon class="st0" points="231.3,114.5 225.9,117.8 228.9,121.9 233.3,119.2 		"/>
		<polygon class="st1" points="231.2,98.8 225.8,102.2 228.8,106.2 233.2,103.5 		"/>
		<polygon class="st1" points="142.4,118.6 137,122 140,126 144.4,123.3 		"/>
		<circle class="st1" cx="219.4" cy="81.6" r="1.7"/>
		<circle class="st1" cx="202.1" cy="58.6" r="1.7"/>
		<circle class="st1" cx="170.3" cy="111.2" r="1.7"/>
		<circle class="st1" cx="184" cy="96.1" r="1.7"/>
	</g>
</g>
</svg>
