<svg xmlns="http://www.w3.org/2000/svg" viewBox="0 0 360 180"><defs><style>.cls-1,.cls-13,.cls-14{fill:#ffdf40;}.cls-10,.cls-11,.cls-12,.cls-15,.cls-16,.cls-18,.cls-2,.cls-4,.cls-5,.cls-9{fill:none;}.cls-10,.cls-11,.cls-12,.cls-13,.cls-14,.cls-15,.cls-16,.cls-2,.cls-4,.cls-5,.cls-6{stroke:#4d4d4d;}.cls-10,.cls-11,.cls-12,.cls-13,.cls-14,.cls-16,.cls-2,.cls-4,.cls-5,.cls-6{stroke-linecap:round;}.cls-10,.cls-11,.cls-12,.cls-14,.cls-16,.cls-2,.cls-4,.cls-5,.cls-6{stroke-linejoin:round;}.cls-13,.cls-14,.cls-2{stroke-width:2.09px;}.cls-3,.cls-8{fill:#fff;}.cls-4{stroke-width:1.77px;}.cls-5{stroke-width:1.87px;}.cls-6,.cls-7{fill:#4d4d4d;}.cls-6{stroke-width:1.43px;}.cls-8,.cls-9{stroke:#000;stroke-width:0.75px;}.cls-13,.cls-15,.cls-17,.cls-8,.cls-9{stroke-miterlimit:10;}.cls-10{stroke-width:1.49px;}.cls-11{stroke-width:1.71px;}.cls-12{stroke-width:1.47px;}.cls-15{stroke-width:1.72px;}.cls-16{stroke-width:1.45px;}.cls-17{fill:#b6b6b6;stroke:#b6b6b6;stroke-width:2.88px;}</style></defs><g id="レイヤー_2" data-name="レイヤー 2"><g id="section_2-1"><path class="cls-1" d="M90.56,95,66.72,113.19s-1,4.66,2.53,6.64C80.62,126.12,106,136.9,106,136.9s1.49-7.59,1.86-8.51c.64-1.6,22.8-12.91,22.8-12.91L97.93,99.86Z"/><path class="cls-2" d="M88,97.43,66.72,113.19c2.63,1.81,23.59,10.47,33.49,14.51"/><polyline class="cls-2" points="64.59 115.64 64.55 120.32 104.88 138.45 130.47 125.51 131.27 118.23"/><polygon class="cls-3" points="127.02 118.77 128.67 124.98 108 135.44 106.39 128.91 127.02 118.77"/><polyline class="cls-2" points="111.8 126.15 130.64 115.48 94.3 99.13"/><line class="cls-4" x1="105.82" y1="129.85" x2="105.98" y2="136.9"/><path class="cls-3" d="M127.47,106.09s-11.17,11.72-14.78,12.68,7.43,2.15,7.43,2.15,6.29,11.57,6.14,7,3.82-8.62,3.82-8.62l5.2-8.46,7.46-6.42L132.57,98Z"/><path class="cls-2" d="M127.47,106.09s-8,11.26-11.58,12.23,4.23,2.6,4.23,2.6,6.29,11.57,6.14,7,3.82-8.62,3.82-8.62l5.2-8.46"/><path class="cls-1" d="M282,30.72s2.69-5.09,7-2.91,12,7.68,12.2,9.37-3.87,4.53-7.11,3.73a70.11,70.11,0,0,1-7.6-2.57l.44-3.7Z"/><path class="cls-1" d="M276.73,41.72s2.21-1.46,6,1.51,11.7,6.82,11.59,8.52-4.67,3.71-7.69,2.3a70.29,70.29,0,0,1-7-4l-4.86-2.44Z"/><path class="cls-2" d="M250.79,43.24s25.38-1.37,25-.19,5.69,3.53,3.57,5.06c-2.27,1.65-28.25,6.6-31.27,6.9-8.85.89-28.23,2.26-31.77,1.12"/><path class="cls-5" d="M206.92,34s10.33,4.12,15.84,5.25c1.43.29,21.79,5.56,26.66,4.67s23.88-3.54,27.87-5.75"/><path class="cls-2" d="M273.68,41.5s4.67-3.71,8.49-.74,12,12.57,11.9,14.27-7.45.2-10.47-1.21a70.42,70.42,0,0,1-7-4"/><path class="cls-2" d="M251.19,33.33c3.17-.9,19.57-1.21,22.82-2.07,4.76-1.25,8.57-2,8.44-.9s6.26,2.38,4.48,4.28"/><path class="cls-2" d="M213.14,22.28s27,6.63,34.51,11.5"/><path class="cls-2" d="M280.81,30.16s3.87-4.53,8.19-2.35,14.2,10,14.42,11.71-7.27,1.63-10.51.83a70.11,70.11,0,0,1-7.6-2.57"/><path class="cls-6" d="M214.05,18.85l6.59,26.7-4.43-2.17L221.34,47l.34,20.4L205,60,198.1,45.89s-5.55-22.19-3.47-22.19S214.05,18.85,214.05,18.85Z"/><path class="cls-3" d="M161.73,26.89a60,60,0,0,1,14.34-6.73c3.35-1.05-12-2.11-8.68-1.36,4.44,1,7.74,1.36,12.32-.78s9.08-5.22,13.81-5.43c2.25-.09,4.83.87,5.51,3.73.81,3.44-1.62,7.54-.74,11,.67,2.6,5,5.49,5.59,9.31s-2.7,4.14-2.16,5.59,1.89,2.71,6.44,12.83.63,12.65-.44,15.76a4.66,4.66,0,0,1-1,1.86,2.83,2.83,0,0,1-2.35.57c-9.46-.87-19.6-16.25-29.13-16.72-4.71-.23-9.28,1.1-14,2.39-3.23.89,12.37,1.18,9.33,3.22C165.29,65.62,155.68,74,155.68,74s.25,9.12-3.36,16.36c-2.07,4.16-10,16.23-12.1,16.9-5.62,1.83-17.7-3.51-17.7-3.51s20.28-27.54,22.56-28.52S154,61.3,154,61.3l-.68-18.4Z"/><path class="cls-3" d="M95.17,67.31C91.48,71.47,104,83.72,104,83.72L119.21,77s-4.27-12.11-2.4-16.08,2.69-10.85,2.69-10.85S98.87,63.15,95.17,67.31Z"/><path class="cls-1" d="M144.76,67.27a11.48,11.48,0,0,0,6-9c.2-2.7-.2-9.73,5.55-12.37s9.67-1.35,13.1-7.32S167,26.37,167,26.37s-7.88-8.43-19.83,1.17c-4.38,3.52-2.49,14.91-10.94,15.41-4.65.27-8.36,1.77-10.7,5.38s-3.23,13.46,2.22,17.26C136.06,71.36,144.76,67.27,144.76,67.27Z"/><path class="cls-1" d="M164.36,143.18c.49-3.8,6.59-6.7,7.72-9.22s7-8.59,8.8-11.78,3.39-6.88,3.39-6.88,3.91-5.61,5.8-6.66c.6-.34,4.21,1.38,4.84,1,1.07-.7,2.05-2.63,3.54-2.74s3.6,2.6,4.36,1.94c2.63-2.31,4.33-3,6.61-1.61.85.54,1.72,2.91,2.9,4,5.38,5.1,10.92,12.78,12.12,13.64,2.64,1.89,8.4,9.51,9.58,11.71.71,1.3,4.08,5.71,4,6.69"/><path class="cls-1" d="M185.26,152.05c.76-5.84,10.11-10.28,11.84-14.15s10.8-9.93,13.53-14.81,11.35-23,15.06-25,4.42,2.16,6.92,2c1.08-.07,3.65-4.5,5.44-4.2s5.9,4.53,6.68,4.45c1.83-.2,2.39-3,3.46-3.71,3.25-2,3.9,2,5.44,2.72,7.77,3.86,21.54,23,23.79,24.64,4.06,2.9,12.88,14.59,14.7,18,1.08,2,6.25,8.76,6.08,10.26"/><path class="cls-7" d="M166.82,140.72a4.6,4.6,0,0,1,1.58-2.55c.8-.78,1.69-1.47,2.51-2.24a8.81,8.81,0,0,0,1.58-2.12,19.64,19.64,0,0,1,1.75-2.4,48.54,48.54,0,0,0,4.28-5.63c.73-1.27,1.35-2.6,2-3.92a9.11,9.11,0,0,1,.63-1.34c.48-.73,1-1.43,1.57-2.11.38-.47.77-.94,1.19-1.39.17-.18.34-.35.53-.52a1.32,1.32,0,0,1,.39-.3,1,1,0,0,0-1-1.8,8.51,8.51,0,0,0-2.08,2c-.68.81-1.32,1.65-1.94,2.51a34.32,34.32,0,0,0-2.33,4.56,34.93,34.93,0,0,1-4.22,6c-.74.92-1.49,1.84-2.15,2.82a11.51,11.51,0,0,1-1.3,1.94c-1.75,1.76-4.51,3.31-4.92,6a1.08,1.08,0,0,0,.73,1.28,1.05,1.05,0,0,0,1.29-.73Z"/><path class="cls-3" d="M252.09,135.55l-5.81,6.52,4.35.73-5.07,5.44a31.92,31.92,0,0,1,4.17,0c.54.18-5.08,7.07-5.08,7.07l14.87-.73-5.62-5.26,3.8-2.9-4.16-2.71,5.07-1.82Z"/><path class="cls-3" d="M184.48,143.14c-35.21.79-31.26,9.54-29.52,12.76s10.69,5,18.36,6.32,32.08.8,46.72.53,20.82-4.74,19.52-7.52c-3.14-6.72-14.64-11.28-25.1-11.28S192.87,143,184.48,143.14Z"/><path class="cls-8" d="M178.7,150c4.45-.25,3.46,0,7.91.25s5.2,0,5.2,0"/><path class="cls-8" d="M171.51,153.5c5.19.25,7.66,0,9.64.25s5.2.49,5.2.49"/><path class="cls-9" d="M164.36,155.93c1,.25,1.73,0,5.19.25s5.94.25,8.41.25"/><path class="cls-9" d="M163.59,150.05s.74-.49,4.7-.25a37.19,37.19,0,0,0,6.43-.24"/><path class="cls-10" d="M249.91,133.74s-1.63,6.34-4.17,8l2.9.73"/><path class="cls-10" d="M248.28,143.89s-1.27,4.89-5.08,5.62l4.35.36s-2.53,5.8-5.07,6.52l4.35.18"/><path class="cls-10" d="M251.36,131.92s2.18,7.25,6.53,8.89l-2.72,1.08"/><path class="cls-10" d="M253.9,142.8s2.54,7.25,5.07,7.79l-4-.36"/><path class="cls-10" d="M254.62,152.22a8.62,8.62,0,0,0,5.26,4.17H248.82"/><path class="cls-10" d="M252.45,157.48s-.55,4,0,5.8l-3.63.55.73-6"/><path class="cls-3" d="M268.36,126.83l-5.8,6.52,4.35.73-5.08,5.44a31.93,31.93,0,0,1,4.17,0c.54.18-5.08,7.07-5.08,7.07l14.87-.73-5.62-5.25,3.81-2.9L269.81,135l5.07-1.82Z"/><path class="cls-10" d="M266.18,125s-1.63,6.34-4.17,8l2.9.73"/><path class="cls-10" d="M264.55,135.17s-1.27,4.89-5.08,5.62l4.35.36s-2.53,5.8-5.07,6.52l4.35.19"/><path class="cls-10" d="M267.63,123.2s2.18,7.25,6.53,8.89l-2.72,1.08"/><path class="cls-10" d="M270.17,134.08s2.54,7.25,5.07,7.79l-4-.36"/><path class="cls-10" d="M270.89,143.51a8.63,8.63,0,0,0,5.26,4.16H265.09"/><path class="cls-10" d="M268.72,148.76s-.54,4,0,5.8l-3.63.55.73-6"/><path class="cls-2" d="M201.43,115.85s.21,9.67-.86,9.24-1.72-4.73-1.72-4.73"/><path class="cls-2" d="M232.46,112.76s-.66,11.54-2.31,14.18S228.5,121,228.5,121"/><path class="cls-11" d="M120.24,64.57s-1.62,7,1.76,11.34c1.75,2.23,3.9,4.22,8.44,3.89a25.64,25.64,0,0,0,9.21-3"/><path class="cls-2" d="M121.11,51.21s-22.29,12.23-24,19.48l6.82,13s2.81-7,9.11-9"/><path class="cls-2" d="M137,82.33s-9.7,13.38-14.49,21.42L143,107.59"/><path class="cls-2" d="M143.32,102s9-11.68,9.64-20.4"/><path class="cls-2" d="M201.94,17c-.67-2.85-3.25-3.82-5.51-3.72-4.72.21-9.23,3.3-13.8,5.43-2.13,1-8-2.22-12.4-2"/><path class="cls-2" d="M155.08,77.26s5.11-5.21,10.88-10.81c6.5-6.34,33.09,4.53,38.11,4.71s5.05-6.06,3.6-12.06a89.62,89.62,0,0,0-3.59-11.52,6.3,6.3,0,0,1,0-4.77c.72-1.43,2.89-7.4,2.41-8.89a2,2,0,0,0-.68-.93c-1.68-1.48-3.92-2.4-4.59-5"/><path class="cls-2" d="M145.86,64.91a11.48,11.48,0,0,0,6-9c.21-2.71-.19-9.74,5.56-12.38s9.67-1.34,13.1-7.31S168.13,24,168.13,24"/><ellipse class="cls-7" cx="123.84" cy="70.02" rx="1.59" ry="0.59" transform="translate(-1.07 138.13) rotate(-58.09)"/><ellipse class="cls-7" cx="129.76" cy="74.16" rx="1.59" ry="0.59" transform="translate(-1.79 145.1) rotate(-58.09)"/><path class="cls-2" d="M124.5,54.08s-1.58,3,.8,7.7"/><path class="cls-3" d="M94.84,75.73A135.09,135.09,0,0,0,86,88.3c-3.5,5.86-5.56,5.62-5.56,5.62s-10,5.08-8.91,7.31,10.67,1.28,10.67,1.28,5,8.27,5.75,4.52l.79-3.74L98.41,84V78.86Z"/><path class="cls-2" d="M92.53,77.12a137.11,137.11,0,0,0-8.84,12.56c-3.49,5.87-5.55,5.62-5.55,5.62s-10,5.09-8.91,7.32,10.67,1.27,10.67,1.27,4.95,8.28,5.75,4.53l.79-3.75"/><path class="cls-2" d="M101.41,81.67S87.36,98,86.29,100.12"/><path class="cls-12" d="M142.67,71.17s2.53-2.64,3.12.62-3.36,3.52-3.36,3.52"/><path class="cls-2" d="M188.72,111.75l3.39.45s3.39-3.16,5-3.84,4.29,2.26,4.29,2.26"/><path class="cls-13" d="M204.91,130.21s6.68-5.44,8.91-9.64a79.93,79.93,0,0,0,3.71-8.16"/><path class="cls-2" d="M219.69,107.63s4-6.18,6.68-5.93,3.21,3.46,4.7,2.72,3.21-4,5.44-4.21"/><path class="cls-2" d="M241.27,98.31s1,4.45,3.46,2,3-5.69,6.93-3,7.91,8.16,11.37,10.88,14.39,15.74,14.39,15.74"/><path class="cls-2" d="M202.81,108.8s1.77-2.26,4.19-2.26,5.32,4.68,5.32,4.68l2.74,3.87"/><path class="cls-2" d="M237.56,107.22a14.62,14.62,0,0,0,1,5.93"/><path class="cls-14" d="M194.53,115.86s-2.58,3.23-3.38,4.35"/><path class="cls-7" d="M217.32,163.61a61.7,61.7,0,0,0,14.83-1.76c2.52-.67,5.44-1.59,7.32-3.51a3.55,3.55,0,0,0,1.12-2.27c0-1.2-.89-2.29-1.6-3.16-2.71-3.33-6.87-5.38-10.83-6.84a50.59,50.59,0,0,0-17.19-3,.86.86,0,0,0,0,1.72A49.74,49.74,0,0,1,225.51,147c3.94,1.22,8,3,11.05,5.83a12.34,12.34,0,0,1,1.62,1.84c.21.3.39.63.58,1s0,0,0,0l.06.21c.07.2,0-.17,0,0a.61.61,0,0,0,0,.19c0,.2,0-.1,0,0l-.06.22c0,.15,0,.12,0,.05l-.1.21-.12.18-.08.12c-.06.08.11-.13,0,0-1.37,1.62-3.84,2.5-6,3.13a57.63,57.63,0,0,1-15.19,1.92.86.86,0,0,0,0,1.72Z"/><path class="cls-7" d="M184.48,142.33a138.31,138.31,0,0,0-14.1.94,53.63,53.63,0,0,0-9.24,1.85c-2.91.92-6.51,2.37-7.72,5.45a6.37,6.37,0,0,0,.56,5.18c1.07,2.18,3.28,3.22,5.46,4a79.77,79.77,0,0,0,24.51,4c5.27.14,10.54.13,15.81.09l4.05,0a.81.81,0,0,0,0-1.61c-5.27.06-10.53.09-15.79,0-4.11-.06-8.24-.12-12.33-.53-1.75-.18-3.48-.51-5.2-.83-2.25-.42-4.49-.87-6.7-1.45a28.32,28.32,0,0,1-5.54-1.9,5.62,5.62,0,0,1-2.65-2.15c-.15-.28-.29-.57-.42-.86s0,.09,0-.08a2.6,2.6,0,0,0-.1-.25c-.06-.18-.12-.35-.17-.53s-.09-.38-.13-.57,0-.23,0-.09l0-.32c0-.2,0-.4,0-.61s0-.25,0-.11c0-.11,0-.22.06-.33a4.75,4.75,0,0,1,.2-.64h0a1,1,0,0,0,.07-.15,3.72,3.72,0,0,0,.19-.34l.2-.3.11-.15c-.15.2,0,0,.06-.06.2-.22.4-.44.62-.64l.35-.29c.15-.13,0,0,.07-.06l.25-.18a9.84,9.84,0,0,1,1-.61,16,16,0,0,1,2.4-1.1,41.4,41.4,0,0,1,7.92-1.92,109,109,0,0,1,12.36-1.13c1.31,0,2.62-.09,3.94-.12a.81.81,0,0,0,0-1.62Z"/><path class="cls-1" d="M204.24,147.34s-2.07-1.46-3.53-.12-1.83.61-1.46,2.68a22,22,0,0,1,.36,3.41s-3.16,1.1-1.22,2.8S204,158,204,158s7.21-.46,6.85-.7.49-.37,1.34-.85,2-4.27,1.83-4.63.73-1.83-.25-2.56-5.11-3.78-7.18-3.17S204.24,147.34,204.24,147.34Z"/><path class="cls-7" d="M205.14,146.36a5.3,5.3,0,0,0-4,.55,6.92,6.92,0,0,0-3.28,4.06,3.11,3.11,0,0,0-.12,1.95.76.76,0,0,0,.91.52.75.75,0,0,0,.52-.92,1.46,1.46,0,0,0,0-.2c0,.1,0,.15,0,0v-.16s0-.1,0-.16,0,.12,0,0,0-.27.08-.4.08-.28.13-.43.05-.13.08-.2l0-.05a.79.79,0,0,1,0-.09,8.4,8.4,0,0,1,.51-.93,5.15,5.15,0,0,1,1.52-1.49,4.62,4.62,0,0,1,1.22-.55l.54-.12a.32.32,0,0,1,.13,0l.27,0a2.79,2.79,0,0,1,.5,0h.12l.08,0,.32.07a.75.75,0,0,0,.92-.52.76.76,0,0,0-.52-.91Z"/><path class="cls-7" d="M200.54,153.1a1.87,1.87,0,0,0-1.55,1.32,3.27,3.27,0,0,0-.18,1.75,3.32,3.32,0,0,0,2.31,2.69,5.55,5.55,0,0,0,3-.11.75.75,0,0,0-.39-1.44c-.23.06-.45.12-.68.16l-.12,0h-.17l-.17,0h-.51l-.23,0c-.17,0,.18,0,0,0l-.14,0-.37-.11a.42.42,0,0,1-.12,0s.18.08.07,0l-.19-.1-.15-.08-.09-.07.06,0-.25-.24s-.07-.11-.12-.14c.11.08.1.13.06.07l-.06-.08a2.75,2.75,0,0,1-.17-.29c0-.07-.06-.23,0,0,0,0,0-.09-.05-.14a1.81,1.81,0,0,1-.09-.31l0-.14a.17.17,0,0,1,0-.07c0-.11,0,.11,0,.11s0-.21,0-.3a2.26,2.26,0,0,1,0-.26c0-.08.06-.21,0,0,0,0,0-.08,0-.11l.06-.24s0-.09,0-.13,0,.07,0-.06a1,1,0,0,1,.08-.14c0-.06.06-.18,0,0,0-.06.1-.1.14-.15s-.15.08,0,0l.07,0c.13-.1-.19.06,0,0l.08,0c-.18.09-.23,0-.15,0a.75.75,0,0,0,0-1.49Z"/><path class="cls-7" d="M207.08,147.59a1.63,1.63,0,0,1,.11-.17c.08-.14-.1.1,0,0a.73.73,0,0,0,.08-.09c.05-.06.19-.14.23-.21-.05.09-.14.09-.07.05l.08-.05.16-.1.08,0c.11-.06-.05,0-.05,0s.19-.07.25-.09l.23-.05h.08a2.61,2.61,0,0,1,.28,0h.24a5.18,5.18,0,0,1,.66.14l.33.11.14.06.07,0c.16.08.31.19.47.28-.16-.09,0,0,.07.07l.17.17c.06.07.08,0,0,0s0,.06.05.07l.09.16a.3.3,0,0,0,0,.08c0,.08-.06-.19,0-.05l.06.18a.7.7,0,0,0,0,.14c-.06-.08,0-.18,0-.07v.08c0,.1,0,.2,0,.3s0-.2,0,0l0,.14c0,.08-.05.16-.07.23a.32.32,0,0,0,0,.09c0,.12.1-.19,0-.1l0,.06a.75.75,0,1,0,1.29.75,2.79,2.79,0,0,0-.09-2.78,4,4,0,0,0-2.5-1.51,3.64,3.64,0,0,0-2.67.32,2.55,2.55,0,0,0-1,1,.76.76,0,0,0,.27,1,.75.75,0,0,0,1-.27Z"/><path class="cls-10" d="M213.88,151.63s1-1.34,1.59,1.83-1.1,4.26-1.1,4.26"/><path class="cls-1" d="M216.89,156.47s-2.07-1.46-3.53-.12-1.83.61-1.46,2.68a22,22,0,0,1,.36,3.41s-3.16,1.1-1.22,2.8,5.58,1.92,5.58,1.92,7.34-1.07,8.19-1.55,1.95-4.27,1.83-4.63.73-1.83-.25-2.56-5.11-3.78-7.18-3.17S216.89,156.47,216.89,156.47Z"/><path class="cls-7" d="M215.94,156.18a5.38,5.38,0,0,0-4.24.7A3.8,3.8,0,0,0,210,159a5.19,5.19,0,0,0-.12,2.35,7.09,7.09,0,0,0,.52,1.81.76.76,0,0,0,1,.27.77.77,0,0,0,.27-1c.09.22,0,0,0-.06s-.07-.2-.1-.3a6.17,6.17,0,0,1-.19-.74c0-.07,0-.13,0-.2s0-.23,0-.08c0-.15,0-.31,0-.47s0-.3,0-.45a1.79,1.79,0,0,1,0-.23c0,.16,0-.08,0-.13s.08-.3.13-.45.05-.13,0,0l0-.09c0-.08.08-.16.13-.24a2.21,2.21,0,0,1,.57-.61,5.14,5.14,0,0,1,1.24-.62c.2-.06.39-.11.59-.15l.15,0,.29,0h.5l.21,0c.12,0-.15,0,0,0l.34.08a.74.74,0,1,0,.4-1.43Z"/><path class="cls-7" d="M213.19,162.23a1.88,1.88,0,0,0-1.55,1.32,3.27,3.27,0,0,0-.18,1.75,3.33,3.33,0,0,0,2.31,2.69,5.55,5.55,0,0,0,3-.11.75.75,0,0,0-.39-1.44c-.23.06-.45.12-.68.16l-.12,0h-.17l-.17,0h-.51l-.23,0c-.17,0,.18,0,0,0l-.13,0a2.38,2.38,0,0,1-.38-.11.42.42,0,0,1-.12,0s.18.08.07,0l-.19-.09-.15-.09-.09-.07s.15.13.07,0a3,3,0,0,1-.26-.24s-.07-.1-.12-.13c.11.07.1.13.06.06l-.06-.08a2.75,2.75,0,0,1-.17-.29c0-.07-.06-.23,0,0,0-.05,0-.09-.05-.14a1.81,1.81,0,0,1-.09-.31l0-.14a.17.17,0,0,1,0-.07c0-.11,0,.11,0,.11s0-.2,0-.3a2.26,2.26,0,0,1,0-.26c0-.08.06-.21,0,.05,0,0,0-.07,0-.11l.06-.24s0-.09.05-.13-.05.08,0-.06.05-.09.08-.14.06-.18,0,0c0-.06.1-.1.14-.15s-.15.09,0,0l.07,0c.13-.09-.19.06,0,0h.08c-.18.08-.23,0-.15,0a.75.75,0,0,0,.74-.75.74.74,0,0,0-.74-.74Z"/><path class="cls-7" d="M219.73,156.73a1.08,1.08,0,0,1,.11-.18c.08-.14-.1.1,0,0l.08-.1c.06-.06.19-.14.23-.21-.05.09-.14.09-.07.05l.09-.05.15-.1.08,0c.11-.07-.05,0-.05,0s.19-.07.25-.09l.23-.05h.6a3.92,3.92,0,0,1,.66.15,2.13,2.13,0,0,1,.33.11l.14,0,.07,0,.47.28c-.16-.09,0,0,.07.07l.17.17c.06.07.08,0,0,0l.05.07.09.16a.3.3,0,0,1,0,.08c0,.08-.06-.19,0-.05s0,.12.05.18,0,.12,0,.14,0-.18,0-.07v.09a2.81,2.81,0,0,1,0,.29c0,.18,0-.2,0,0l0,.14a2.17,2.17,0,0,1-.07.24l0,.08c0,.12.1-.19,0-.1l0,.06a.75.75,0,0,0,1.29.76,2.81,2.81,0,0,0-.09-2.79,3.94,3.94,0,0,0-2.5-1.5,3.64,3.64,0,0,0-2.67.31,2.55,2.55,0,0,0-1,1,.76.76,0,0,0,.27,1,.75.75,0,0,0,1-.26Z"/><path class="cls-15" d="M226.54,159.89s1-1.34,1.58,1.83S227,166,227,166"/><path class="cls-2" d="M308,112.07s.92,10.63-5.55,12c0,0,7.4-3.7,9.71,6,0,0-1.39-7.86,5.55-10.17"/><path class="cls-2" d="M309.38,108.83s.92,11.1,9.24,10.63"/><path class="cls-2" d="M316.31,151.36s5.09.46,5.55,6.93c0,0,1.39-7.86,8.32-10.17,0,0-7.4-1.85-7.86-11.09,0,0-1.85,10.17-8.78,11.56"/><path class="cls-2" d="M127.78,65.59s2,5,9.49,3.33"/><path class="cls-1" d="M100.55,30c-1.92,0-3.35-4.31-1.92-6s1.92-2.64,4.32-2.16,3.67,1.2,3.6,3.6C106.31,32.84,102.47,30,100.55,30Z"/><path class="cls-2" d="M109.66,39.55l-.72-4.79c7.19-7.67,2.16-15.35,2.16-15.35-6.71-8.63-16.4-4.4-18.22,2.88-2.4,9.59,9.83,14.86,9.83,14.86l1.92,5.76a8.52,8.52,0,0,1,3.83-1"/><path class="cls-16" d="M101.27,31.88c2.67,0,5.61-12.72.24-12-2.25.31-3.35,3.36-1.92,5.76s7.91,3.83,7.91,3.83"/><path class="cls-16" d="M102.47,35.24s3.84,1,5.27,0"/><path class="cls-16" d="M104.39,38.59A6.55,6.55,0,0,0,108,37.15"/><path class="cls-16" d="M104.39,41.23a12.71,12.71,0,0,0,4.31-1.68"/><line class="cls-16" x1="118.29" y1="23.49" x2="122.85" y2="20.37"/><line class="cls-16" x1="115.42" y1="17.26" x2="118.53" y2="14.38"/><line class="cls-16" x1="88.57" y1="21.09" x2="84.49" y2="19.41"/><line class="cls-16" x1="88.81" y1="28.52" x2="84.01" y2="27.57"/><path class="cls-17" d="M55,54.35a.68.68,0,0,1-1,.1l-.1-.1a13.3,13.3,0,0,0-1-1.11,14.06,14.06,0,0,0-19.89,0,13.82,13.82,0,0,0-3,4.47,1.44,1.44,0,0,0,.54,2,1.69,1.69,0,0,0,.31.13c1.26.56,1.75,0,2.1-.86a10.87,10.87,0,0,1,14.23-5.78,11,11,0,0,1,3.46,2.33A11.18,11.18,0,0,1,53,59c.25.6.31,1.12,1.47,1.12s1.23-.56,1.48-1.12a10.62,10.62,0,0,1,2.33-3.45,10.84,10.84,0,0,1,15.33,0l0,0a11,11,0,0,1,2.33,3.44c.34.82.73,1.41,2.1.86s1.19-1.29.85-2.1A14.08,14.08,0,0,0,56,53.25,11.66,11.66,0,0,0,55,54.35Z"/><path class="cls-17" d="M305.25,87a.68.68,0,0,1-1,.1l-.1-.1a13.3,13.3,0,0,0-1-1.11,14,14,0,0,0-22.9,4.47,1.44,1.44,0,0,0,.54,2,1.2,1.2,0,0,0,.31.13c1.26.56,1.75,0,2.1-.86a10.88,10.88,0,0,1,17.69-3.45,11.18,11.18,0,0,1,2.33,3.45c.25.6.31,1.12,1.47,1.12s1.23-.56,1.48-1.12a10.62,10.62,0,0,1,2.33-3.45,10.84,10.84,0,0,1,15.33,0h0a10.82,10.82,0,0,1,2.32,3.44c.35.82.74,1.41,2.1.86s1.2-1.29.86-2.1a14.08,14.08,0,0,0-22.91-4.45A11.66,11.66,0,0,0,305.25,87Z"/><rect class="cls-18" width="360" height="180"/></g></g></svg>