<svg xmlns="http://www.w3.org/2000/svg" viewBox="0 0 360 210"><defs><style>.cls-1,.cls-2,.cls-6{fill:none;}.cls-1,.cls-2,.cls-5{stroke:#4d4d4d;stroke-linecap:round;}.cls-1,.cls-2{stroke-miterlimit:10;}.cls-1{stroke-width:2.04px;}.cls-2{stroke-width:2.33px;}.cls-3{fill:#4d4d4d;}.cls-4{fill:#ffdf40;}.cls-5{fill:#fff;stroke-linejoin:round;stroke-width:2.33px;}</style></defs><g id="レイヤー_2" data-name="レイヤー 2"><g id="section_2-1"><path class="cls-1" d="M318.09,83.54c.84,23.66-40.51,25.79-76.09,34.25-37.79,9-40.42,14.26-41.83,24.2"/><path class="cls-2" d="M197.86,172.81c8.23-21.81-25.61-41.24-43.8-42.8,0,0-141.35,8-141.35-45.79,0-37.69,45.09-59.68,123.54-59.68,47.05,0,97.17-2.94,137.48,9.61"/><path class="cls-3" d="M70.88,69.42a5.87,5.87,0,0,1-.17-2.07c0-.74.05-2.07.05-2.84V63.38h-.32a3.58,3.58,0,0,0-1.16,1.38,4.63,4.63,0,0,1-1.06,1.41,9.76,9.76,0,0,0-1.33,1.4h-.42a7,7,0,0,1-.32-1.23c-.08-.42-.17-.91-.25-1.31a15.06,15.06,0,0,1,1.9-3.72c.74-1.16,1.55-2.32,2.29-3.55A16.8,16.8,0,0,0,71.92,54,1.52,1.52,0,0,1,73,53.57c.34.07.66.24,1,.32a9.34,9.34,0,0,1,1,.56l.32.92a6.59,6.59,0,0,0-1,1.23c-.25.42-.49.91-.74,1.33a3.82,3.82,0,0,0-.49,1.41c.07.56.17,1.06.24,1.55s.18,1,.25,1.58a12.78,12.78,0,0,1,.07,1.65c-.07.74-.14,1.4-.29,2.83a13.49,13.49,0,0,1-.42,2A8.1,8.1,0,0,1,72,71l-.34.15A3.44,3.44,0,0,1,70.88,69.42Zm5.16-.1a3.45,3.45,0,0,0-.4-1.31l.81-.22a13.33,13.33,0,0,0,2.4-.27,9.49,9.49,0,0,0,1.82-.37c-.1-1.21-.27-3.92-.34-4.54s-.08-1.38-.18-2.12l-4.43.1-.42-.42a2.63,2.63,0,0,0-.74-1.94l.74-.08,1.33.37c.56-.1,1.23-.17,1.9-.27a10.75,10.75,0,0,0,1.53-.39,12.49,12.49,0,0,0,.24-2.32,10.75,10.75,0,0,1-.1-1.8l-.14-1.11.32-.08,1.85.69c.07.62.17,1.16.24,1.76a17.78,17.78,0,0,0,.25,2.49l1.9.12a10.41,10.41,0,0,0,1.48.07,2.67,2.67,0,0,1,1.33.62l.07.2-1,1.25a10,10,0,0,1-1.73.1,3.45,3.45,0,0,0-1.65.45,8.46,8.46,0,0,0-.25,2.09c0,.77-.25,3.48-.34,4.17A1.57,1.57,0,0,0,84,67a2.27,2.27,0,0,1,1.41.23l1.16.66.07.64-1.06,1.21a26.54,26.54,0,0,1-2.81.2c-.91.07-1.9.07-2.81.17s-1.9.17-2.79.25A2.32,2.32,0,0,1,76,69.32Z"/><path class="cls-3" d="M99.71,71.49c-.57-.59-1.13-1.08-1.68-1.65s-1.38-1.09-1.18-1.58H96.5l3.21.49c.47-.39.47-1.67.47-2.17l-.2-.24-1.63-.1c-.49.1-.88.1-1.35.17s-1,.17-1.38.25a3.81,3.81,0,0,1-1.19-.89l-.05-.47.94-.19s3.77-.37,4.59-.37l.15-.55c-.7,0-5.63.22-6.42.22s-1.43.1-1.87.18c-.44-.35,0-1.21,0-1.21,1.06-.17,1.73-.25,2.59-.37s1.85-.27,2.84-.35,1.84-.07,3.08-.24l.24-.4s-1.48-.12-2-.12l-2.54,0A2.1,2.1,0,0,1,94,61.26l0-.54a50.85,50.85,0,0,1,6.24-.52l.42-.72a27.12,27.12,0,0,0-3.11.08l-1.75-.15a3,3,0,0,1-.74-1.73A13.87,13.87,0,0,0,94.63,56a1.51,1.51,0,0,1,1.26-.74c1,0,1.72,0,2.41-.15s1.34-.07,2.35-.15l.12-.47-3.92.3a6.94,6.94,0,0,1-1.78-.57c-.29-.27,0-.86,0-.86a3.58,3.58,0,0,1,1.51-.42,15.85,15.85,0,0,1,1.92-.07,6.08,6.08,0,0,0,2.32-.25l-.25-2.12.18-.17a3,3,0,0,1,1.82,1.62l.12.67c1.19.07,2.1.07,3,.07a5.11,5.11,0,0,1,2,.59v.69a3.35,3.35,0,0,1-1.89.33,8.92,8.92,0,0,0-2.84.24v.42a21.51,21.51,0,0,0,3.06.25,3.31,3.31,0,0,1,2,.64l.1.52-1.38,2.46a4.26,4.26,0,0,1-1.82.37c-.62.08-1.29.05-2,.2l-.28.42a8.35,8.35,0,0,0,2.72.25,2.24,2.24,0,0,1,1.6.66,5.19,5.19,0,0,1,.62,1.38c.69.08,1.89.1,2.44.1a1.65,1.65,0,0,1,1.16.35l0,.91a2.41,2.41,0,0,1-1.75.42,5.88,5.88,0,0,0-2.34.32l-.52,1.43a11.54,11.54,0,0,1-1.82.32,10.49,10.49,0,0,0-2.32.42,14.22,14.22,0,0,0-.2,2.34,8.76,8.76,0,0,0,.25,3.21l-.18.66-.56.17A4,4,0,0,1,99.71,71.49Zm1-14v-1l-1.46,0a16.46,16.46,0,0,0-2.17.2l.1,1,1.9-.12Zm4,6.51-2.13.17-.17.57,2.07-.07Zm-.1-2.12a3.47,3.47,0,0,0-2-.12l0,.37,2,.07Zm.27-5A3.7,3.7,0,0,0,103,56.7l-.29.81,1.92.12A2,2,0,0,0,104.94,56.82Z"/><path class="cls-3" d="M119.29,69.08a4.28,4.28,0,0,1,0-1.85,13.21,13.21,0,0,1,.32-1.88l.32-1.28.1-1.75-.22-.15c-.47.2-1,.57-1.43.74a2.19,2.19,0,0,1-1.43,0l-.91-.94a3.43,3.43,0,0,1-.25-1.67,6,6,0,0,0,2.19-.5c.64-.27,2.32-.91,3-1.2a3.71,3.71,0,0,0,.64-1.48c.1-.57.2-1,.32-1.63a3,3,0,0,0-.27-1.55,1.43,1.43,0,0,1,1.11-.55,7.47,7.47,0,0,1,1.18.15l.69.67a2.38,2.38,0,0,1,.12,1.94l-.41,1.36.41.35c.6-.08,1.11-.15,1.73-.18a6.16,6.16,0,0,1,1.78.27,7,7,0,0,1,1.13.57,4.54,4.54,0,0,1,.94.84,4.88,4.88,0,0,1,.69,1.58,4.67,4.67,0,0,1,.24,1.7,5.28,5.28,0,0,1-.34,1.75c-.32.79-.64,1.55-1,2.24s-.77,1.36-1.24,2a10.31,10.31,0,0,1-1.65,1.83l-1,.12a3.32,3.32,0,0,1-.66-1.36l.19-1a20.51,20.51,0,0,0,1.14-1.95c.19-.64.32-1.28.54-2s.27-1.29.39-1.93a1.64,1.64,0,0,0-.27-1.53,1.19,1.19,0,0,0-1-.44l-1.5.05a3.23,3.23,0,0,0-1,.47,3,3,0,0,0-.84,1.63l-.14.71-.33,1.88a18.23,18.23,0,0,0-.46,1.94,14.74,14.74,0,0,0-.5,1.93,5.2,5.2,0,0,1-.84,1.62l-.74,0A3.37,3.37,0,0,1,119.29,69.08Zm15-1.44a7.5,7.5,0,0,1-.57-1.55,9.17,9.17,0,0,1-.34-1.58c-.08-.49-.2-1.7-.33-2.36-.19-1.11-.79-2.42-1-3.33a9.06,9.06,0,0,0-1.31-2.32l0-.57a1,1,0,0,1,1-.24,2.83,2.83,0,0,1,1.66.49c.24.32.59.64.83,1a7.87,7.87,0,0,0,.4,1.15c.39.94.22.47.69,1.68a22.33,22.33,0,0,1,.76,3.11,7.92,7.92,0,0,1,.25,2.88c-.07.42-.07.74-.15,1.09a2.65,2.65,0,0,1-.42,1.06l-.49.17Zm-1.73-13.53a6,6,0,0,1-1.21-2.32,5,5,0,0,1,1.14-1l.71-.07.69.62a7.35,7.35,0,0,1,.59,2.83l-.27.84a.78.78,0,0,1-.81.25C133.15,54.85,132.85,54.53,132.58,54.11ZM135.71,53c-.22-.32-.42-.64-.64-1a2.15,2.15,0,0,1-.49-1.06,2.49,2.49,0,0,1,1-1.33h.54l.52.42a13.59,13.59,0,0,1,.76,1.65,4.89,4.89,0,0,1,.32,2l-.37.42H137A2.41,2.41,0,0,1,135.71,53Z"/><path class="cls-3" d="M144,71.22a2.89,2.89,0,0,1-.64-1.33,7.38,7.38,0,0,0,.15-1.23V67.5l-.08-2,.08-.67-.32-1.57a10.1,10.1,0,0,0-2.15.42,2.19,2.19,0,0,1-1.06.07l-.42-.4-.25-2,.33-.57a5.26,5.26,0,0,0,1.57-1.33,4.75,4.75,0,0,0,1.06-1.65,10.53,10.53,0,0,1-.81-1.24,3.2,3.2,0,0,1-.49-1.3c-.1-.42-.18-.92-.25-1.41.25-.32,1.21-1.38,1.55-1.9l.25-.91,1.33-.25a3.62,3.62,0,0,1,2.05.35l.34,1.06a9.51,9.51,0,0,1-.91,1.23c-.32.42-.66.84-1,1.24a5.32,5.32,0,0,1-1.16,1.08V56l.41.17a2.65,2.65,0,0,1,1.48-.84,6.6,6.6,0,0,0,1.24.17,2.29,2.29,0,0,1,1.23.32,1.12,1.12,0,0,1,.35,1,12,12,0,0,1-1.51,1.33,6.92,6.92,0,0,0-1.48,1.48,11.64,11.64,0,0,1-1.4,1.58l2.14-.17-.39-1.09a1.4,1.4,0,0,1,1.26-.59l1.2.84A12.63,12.63,0,0,0,149,61.73a4.14,4.14,0,0,1,1,1.82l-.66.5-1.58-.75c-.08-.51-.77-1-1.19-1.38l-2,.72.59.74a9.56,9.56,0,0,1,.74,2.46c.1.92.17,1.83.25,2.74s0,1.9.09,2.79l-.42.84-.81.14A6,6,0,0,1,144,71.22Zm-4.27-3.13c-.09-.42-.09-.77-.17-1.16a7.5,7.5,0,0,0,.57-1.82h.24l2.08,1.08a2.54,2.54,0,0,1,.49,1.55,3.8,3.8,0,0,1-1.23,1.34l-1.48.14A2.8,2.8,0,0,1,139.73,68.09Zm7.67-.91a2.51,2.51,0,0,1-1.16-1.24l-.09-.76.41-.07a7,7,0,0,0,1.9.24,3.92,3.92,0,0,1,1.83.67l.15.66-.65,1.24a1.08,1.08,0,0,1-1,.24A15,15,0,0,0,147.4,67.18Zm9-1.19a5.76,5.76,0,0,0-1.13-.42,2.91,2.91,0,0,1-1.09-.49,1.73,1.73,0,0,0-1.06-1l-1.23,1.14-1,.1-.89-.25v-.25c.4-.74.81-1.57,1.23-2.39s2.35-3.77,2.69-4.58L153,57a3.71,3.71,0,0,1-1.65.91l-.67-.41-.32-1.73a4.27,4.27,0,0,1,.82-1.58,6.28,6.28,0,0,0,1.08-1.48,13.72,13.72,0,0,0,.91-1.48l.57-.17a3.29,3.29,0,0,0,1.23.25,3,3,0,0,1,1.16.49l.59.59c.4.08.89.15,1.31.25a2.36,2.36,0,0,1,1.16.64l.25.84a5.79,5.79,0,0,0-.92,1.23c-.24.49-.56,1-.81,1.41a4.68,4.68,0,0,0-.59,1.4L162,63.08l.07.67a1.26,1.26,0,0,1-1,.17l-1.65-.66a12.56,12.56,0,0,0-1.24-1.09L156,60.05a17.77,17.77,0,0,0-1.8,3,4.48,4.48,0,0,0,1.8.67,5,5,0,0,1,1.82.84,12.82,12.82,0,0,1,1.58,1.3l.15.5-.07.17a5.08,5.08,0,0,1-1.09.17h-1.13Zm-.81,4.61a10,10,0,0,1-2.15-.56,4.27,4.27,0,0,1-1.9-1.14l-.07-.56.57-.1c.91.1,1.72.17,2.64.29a10.29,10.29,0,0,1,2.49.57,9.56,9.56,0,0,1,2.29,1.13l.17.45a2.59,2.59,0,0,1-1.9.47C157,71,156.38,70.8,155.64,70.6ZM156,54.16l-.91-.42c-.79.86-1,1.11-.89,1.43l.67.66Z"/><path class="cls-3" d="M171.67,70.38c-.08-.59-.25-1.26-.32-1.82s-.17-1.16-.25-1.73-.17-1.16-.25-1.72l-.24-.1c-.25.42-.79.61-1.28,1.33s-1.21,1.55-1.53,1.9H167l-.76-.42a7.12,7.12,0,0,1-.89-2c.25-.57,1.23-3.19,1.58-4.52l-1.43-.71-.32-1a.49.49,0,0,1,.57-.15,4.61,4.61,0,0,1,1.5-1l1.63-.66.84.32.07.34-.32,1.14.32.17a2.16,2.16,0,0,0,1.08-1.23,10.44,10.44,0,0,0,.15-1.66V55.19l-.24-2.29.66-.59h.74a1.49,1.49,0,0,1,1.33.74,6,6,0,0,1,.5,1.65,15.82,15.82,0,0,0,.07,1.82l.17,1.41.32.07a3.92,3.92,0,0,1,1.9-.59,16,16,0,0,1,1.83-.07,12.45,12.45,0,0,1,2,.32c.67.24,1.33.42,2,.66A5,5,0,0,1,184,59.63a4.59,4.59,0,0,1,.76,1.41c.15.56.32,1.08.5,2a7.17,7.17,0,0,1,.07,1.73,12.55,12.55,0,0,1-.32,1.73,14.1,14.1,0,0,1-.59,1.65,4.18,4.18,0,0,1-.92,1.48l-.73.27-1.07-.42a3.71,3.71,0,0,1-.41-1.23,3.25,3.25,0,0,1-.08-1.33c.15-.67.32-1.31.49-2a7.85,7.85,0,0,0,.08-2.07,3.36,3.36,0,0,0-.42-1.4,4.24,4.24,0,0,0-.81-.92,2.81,2.81,0,0,0-1.06-.42,6.62,6.62,0,0,0-1.16-.07c-.5.07-1,.17-1.41.25a8,8,0,0,0-1.23.56,7.38,7.38,0,0,0-1.23,1.26,2.43,2.43,0,0,0-.25,1.58v3.38a8.58,8.58,0,0,1,.15,1.4V70a1.63,1.63,0,0,1-.92.92l-.81.07Z"/><path class="cls-3" d="M197.71,70.58a11.76,11.76,0,0,1-.42-2.47c-.07-.81-.07-1.65-.07-2.56S197,63.9,197,63.08l-.25-.07A16.46,16.46,0,0,0,195.39,65c-.24.59-.57,1.48-.81,2a8.36,8.36,0,0,1-.91,1.58l-.57.17a2.26,2.26,0,0,1-1.24-1.08,5.78,5.78,0,0,1-.17-1.23V65.13c.08-.52.17-1,.25-1.41a22.22,22.22,0,0,1,.42-2.36,4.36,4.36,0,0,0,.07-1.41,6.4,6.4,0,0,1-2-.49l-.35-1.16c.52-.32.92-.44,1.56-.76a4.36,4.36,0,0,1,1.6-.55,12.87,12.87,0,0,0,1.63-.17l1,.25c.18.42.4.83.18,1.23a3.18,3.18,0,0,0,.05.91,4,4,0,0,0,.93-1.33c-.07-.74-.07-1.41-.07-2.15s-.07-1.38-.17-2.14a4.25,4.25,0,0,0-.64-2l.64-.57,1.53-.17.81.42.25.81V53l.24,3,.25.1a11,11,0,0,1,1.45-.84A9.68,9.68,0,0,1,203,54.6a14.11,14.11,0,0,1,1.72-.34l.77.41a3,3,0,0,1,.39,1.48l-.07.6.07.88c-.07.6-.25,1.09-.32,1.66a12.74,12.74,0,0,0-.34,1.65c-.08.56-.08,1.23-.15,1.82s.24,1.31.32,2a3.47,3.47,0,0,0,.74,1.72,2.09,2.09,0,0,0,1.48.25,4.91,4.91,0,0,1,1.08-.67,1.86,1.86,0,0,1,1.16-.15l.49.5v.66l-.59.74a4.67,4.67,0,0,0-1.23.74A2,2,0,0,1,207,69a3.25,3.25,0,0,1-1.76-.2,8.31,8.31,0,0,1-1.7-1.2,4.56,4.56,0,0,1-.81-2c-.17-.74-.25-1.5-.35-2.24a13.47,13.47,0,0,1-.07-2.4l.52-2.68-.27-.79-.25-.08a19.62,19.62,0,0,0-1.53,1.24c-.49.49-1.16,1.08-1.16,1.08v5.6c0,1.23-.07,1.9,0,2.46a13.69,13.69,0,0,1-.15,1.9,1.47,1.47,0,0,1-1.18,1.33Z"/><path class="cls-3" d="M216,68a14.86,14.86,0,0,1-.08-1.88,18.72,18.72,0,0,1-.07-2l.07-7.52-.17-.82.45-1,.61-.19,1.48.83.27,1a9.08,9.08,0,0,0-.27,2.26,16.76,16.76,0,0,0-.12,2.45v2.46l.12.84a9.85,9.85,0,0,0-.12,1.9v1.87a2.11,2.11,0,0,1-.82,1.51h-.61A2.41,2.41,0,0,1,216,68Zm8.33,2.31a5.06,5.06,0,0,0-1.48-.42,1.61,1.61,0,0,1-1.33-.66,4.75,4.75,0,0,1-.32-1,5,5,0,0,1-.07-1.06A2.59,2.59,0,0,1,222.22,66c.42-.24.91-.49,1.33-.74l2.39-.34,1.66.17.49-.17.15-1.31c-.08-.59-.08-1.08-.15-1.65s-.17-1.16-.25-1.73a5.4,5.4,0,0,0-.49-1.58,23.55,23.55,0,0,0-2.49-.32,21.82,21.82,0,0,1-2.39-.34,4.21,4.21,0,0,1-2.15-1.14l-.14-.91a1.65,1.65,0,0,1,1.55-.49,14.76,14.76,0,0,0,1.75.15h3.45a1.05,1.05,0,0,0,.25-1,5.41,5.41,0,0,1-.17-1.87l.41-.89.92-.25,1.06.5a2.17,2.17,0,0,1,.84,1.8l-.1,1.3.49.57c.42.07.76.07,1.16.17a1.77,1.77,0,0,1,1,.5,2.49,2.49,0,0,1,.42,1.4l-.66.57a4.52,4.52,0,0,1-1.06.17,1.29,1.29,0,0,0-1,.32l-.24.59.07,1.06-.07.57a11.35,11.35,0,0,1,.07,1.58v1.58a1.84,1.84,0,0,0,.67,1.38l1.3.66.17.42a1.42,1.42,0,0,1-.49,1.16l-1.33.08-.74-.08a10.07,10.07,0,0,0-1.06,1,3.84,3.84,0,0,1-1.16,1c-.42.25-.81.57-1.23.82h-.74A3.9,3.9,0,0,1,224.29,70.28Zm2.79-2.88a1.6,1.6,0,0,0-1.6-.42l-1.53.54-.08.4a2.35,2.35,0,0,0,1.75.37l1.16-.37Zm4.19-13.51a6,6,0,0,1-1.21-2.32,4.8,4.8,0,0,1,1.14-1l.71-.07.69.61a7.41,7.41,0,0,1,.59,2.84l-.27.84a.77.77,0,0,1-.81.24C231.84,54.63,231.54,54.3,231.27,53.89Zm3.13-1.16c-.22-.32-.42-.64-.64-1a2.19,2.19,0,0,1-.49-1.06,2.46,2.46,0,0,1,1-1.33h.54l.52.42a13.59,13.59,0,0,1,.76,1.65,4.89,4.89,0,0,1,.32,2l-.37.42h-.36A2.39,2.39,0,0,1,234.4,52.73Z"/><path class="cls-3" d="M239.34,66a8.3,8.3,0,0,1,2.39,1.41,14.42,14.42,0,0,1,1.92,2l.42,1.15L244,71a2,2,0,0,1-1.61,1,1.4,1.4,0,0,1-1.28-.19,5.73,5.73,0,0,0-.93-2.64,10.3,10.3,0,0,1-1.41-3Z"/><path class="cls-3" d="M134.14,99.44a28.73,28.73,0,0,1-3.88-1.24,9,9,0,0,0-4-.64l-.32.08a2.31,2.31,0,0,1-1.83-.55l-.09-.34.34-.25.15-.49,1.33-1.09v-.27a10,10,0,0,1-.89-2,4.6,4.6,0,0,1-1-1.38v-.42h.24l.59.07h1.8l1.76.52.09.42c-.24.47-.49.79-.93,1.73v.19l1.33,1.51.24.69c1.14.32,2.5.64,3.75,1.06s2.47.74,3.7,1.08a11.6,11.6,0,0,0,3.92.4l7.38-1.63.22.72a18.7,18.7,0,0,1-3.11,1.6,21.46,21.46,0,0,1-3.35,1.08,12.29,12.29,0,0,1-3.53.25C136.7,100.2,135.39,99.86,134.14,99.44Zm-8.59-12.23a3.48,3.48,0,0,0-.56-.92v-.56h.49a4,4,0,0,0,1.65.32,2.36,2.36,0,0,1,1.51.71l.17.59-.54.55-.47.1h-1.33A1.78,1.78,0,0,1,125.55,87.21Zm14,9.27-.82-.42a1.42,1.42,0,0,1-.29-1.26,5.77,5.77,0,0,0,1.77-.59c.57-.25,1.06-.49,1.51-.69l.17-.52-.27-.39-.45-.18-2,.23-.78-.72v-.57a12.38,12.38,0,0,0,2.29-.56l.1-.45a2.74,2.74,0,0,1-.25-1.72l.15-1.09-.05-.15-1.28-.32-.67.74h-.42a1.75,1.75,0,0,1-.47-1.18,4,4,0,0,0-.14-1,14.71,14.71,0,0,0-2,.15,3.92,3.92,0,0,0-1.55.69l-.07.32c.51.13,1,.3,1.6.45a5.55,5.55,0,0,1,1.48,1,2.66,2.66,0,0,1,.61,1.92,6.74,6.74,0,0,1,.08,1.73,6.28,6.28,0,0,1-1.21,1.85,5.56,5.56,0,0,1-2,.14,1.42,1.42,0,0,1-1-.32,7.62,7.62,0,0,1-.89-.71l-.37-1.06a5,5,0,0,0,2.2-.69,1.8,1.8,0,0,0,.27-1.26l-.42-.79-1.26-.25c-.37.45-.74,1.61-1.08,2.15a8.39,8.39,0,0,1-1.21,1.48,5,5,0,0,1-1.7,1h-.42l-.07-.77a14.94,14.94,0,0,1,.88-1.85c.4-.94.57-1.65.89-2.44.25-.59.49-1.16.67-1.73a1.2,1.2,0,0,0-.89-.27,1.1,1.1,0,0,1-1.09-.47l-.46-1,.17-.45,1.11.13L133.2,84l.15-1.31c-.08-.42-.15-.69-.25-1.08a3.87,3.87,0,0,0-.59-1.09l1.43-.07a2.76,2.76,0,0,1,1.67.71v.3c-.07.4-.32,2-.41,2.29a7.26,7.26,0,0,0,1.48.15c.49.1,1,.17,1.42.25l.38-.77c.24-.56.39-1.23.64-1.82a11.76,11.76,0,0,0,.34-1.92h.47l1,.69,0,1.92-.07.37c.37.2.81.27,2.36,0a6,6,0,0,0,1.33.1,2.46,2.46,0,0,1,1.34.37l.07.52a4.07,4.07,0,0,1-1.9.79,18.84,18.84,0,0,1-2.07.17,6.46,6.46,0,0,0-1.87.47l-.2.69a.54.54,0,0,0,.59.15,3.93,3.93,0,0,1,1.7-.17H143l1.93.79.07.59c-.3.29-.62.54-.86.79A3.88,3.88,0,0,0,143,90.31a3.75,3.75,0,0,0,1.8.62,7.42,7.42,0,0,1,2.14.44v.45a2.78,2.78,0,0,1-1.48.47,3.79,3.79,0,0,0-1.4.44l.24,2-.78,1.33a5.56,5.56,0,0,1-1.53.42,12.93,12.93,0,0,1-1.66.07Z"/><path class="cls-3" d="M156.11,99.14a8.18,8.18,0,0,1-2.22-2,6.65,6.65,0,0,1-.91-1.85,8.9,8.9,0,0,1-.42-2,7.63,7.63,0,0,1,.42-3.83,4.45,4.45,0,0,1,.49-1.45,10.38,10.38,0,0,0,.42-1.78,3,3,0,0,0-1.33-.66,6,6,0,0,0-1.9,0l-.57-.59v-.2l1-1,1.26-.45a7.93,7.93,0,0,1,1.89.2l1.71.17a4,4,0,0,0,1.57.28,4.45,4.45,0,0,1,1.56.27,3.79,3.79,0,0,1,1.33,1,1.86,1.86,0,0,1,.27,1.63c-.57.25-1.26.59-1.85.89a7.2,7.2,0,0,0-1.65,1.43,7.3,7.3,0,0,0-1,1.65,13.45,13.45,0,0,0-.64,1.73,8.41,8.41,0,0,0-.42,2,1.66,1.66,0,0,0,.67,1.16c.32.27.64.59,1,.84l1.56.15a3.36,3.36,0,0,0,1.16-.59,4.76,4.76,0,0,0,.91-1,10.62,10.62,0,0,0,1-2,7.58,7.58,0,0,0,.57-2.12l-.07-1A4.79,4.79,0,0,1,163,88.41a4.67,4.67,0,0,1,1.48-1.08h.66a6.15,6.15,0,0,0,1.48,1.4s2.29,1.34,2.89,1.56a8.25,8.25,0,0,1,1.72,1l.35.79-.42.37H170l-4.61-1.36-.49.54a14.4,14.4,0,0,1-.6,2.2c-.24.69-.56,1.33-.81,2a5,5,0,0,1-1.23,1.8c-.5.3-1,.59-1.48.86a4.89,4.89,0,0,1-1.58.65,5.48,5.48,0,0,1-1.73.27A3.78,3.78,0,0,1,156.11,99.14Zm10.7-12.21a5.91,5.91,0,0,1-1.21-2.31,4.8,4.8,0,0,1,1.14-1l.71-.07.69.61a7.41,7.41,0,0,1,.59,2.84l-.27.84a.77.77,0,0,1-.81.24C167.38,87.67,167.08,87.35,166.81,86.93Zm3.13-1.15c-.22-.32-.42-.65-.64-1a2.19,2.19,0,0,1-.49-1.06,2.46,2.46,0,0,1,1-1.33h.54l.52.42a14.46,14.46,0,0,1,.76,1.65,4.89,4.89,0,0,1,.32,2l-.37.42h-.37A2.41,2.41,0,0,1,169.94,85.78Z"/><path class="cls-3" d="M183.19,93.4l.24-4.22-.07-1.7c.07-.74.17-2.52.24-3.26a7.85,7.85,0,0,0,.08-2.07,2.46,2.46,0,0,1-.49-1.06l.83-.84h.25l.25.1,1.48-.1a2.14,2.14,0,0,1,1.15.77l.15.49a20.92,20.92,0,0,0-.81,2,6.82,6.82,0,0,0-.32,2.22s-.1.62-.17,1.36l.07,1.21c-.07.74-.25,1.57-.32,2.31a19.55,19.55,0,0,1-.42,2.32,6.15,6.15,0,0,1-1.06,2l-.59.07A1.89,1.89,0,0,1,183.19,93.4Zm.36,4.88c-.07-.52-.14-1-.19-1.58l.1-.12.56.17c.5.22.89.42,1.38.64a2.22,2.22,0,0,1,1.06,1l-.09.91a4.1,4.1,0,0,1-1.43.89l-1-.27A5.38,5.38,0,0,1,183.55,98.28Z"/><path class="cls-3" d="M198,93.4l.25-4.22-.08-1.7c.08-.74.18-2.52.25-3.26a8.31,8.31,0,0,0,.07-2.07,2.72,2.72,0,0,1-.49-1.06l.84-.84h.25l.24.1,1.48-.1A2.17,2.17,0,0,1,202,81l.15.49a21,21,0,0,0-.82,2A7.1,7.1,0,0,0,201,85.7s-.09.62-.17,1.36l.08,1.21c-.08.74-.25,1.57-.33,2.31a19.49,19.49,0,0,1-.41,2.32,6.15,6.15,0,0,1-1.06,2l-.6.07A2,2,0,0,1,198,93.4Zm.37,4.88c-.07-.52-.15-1-.2-1.58l.1-.12.57.17,1.38.64a2.22,2.22,0,0,1,1.06,1l-.1.91a4.1,4.1,0,0,1-1.43.89l-1-.27A4.86,4.86,0,0,1,198.35,98.28Z"/><path class="cls-3" d="M212.78,93.4l.24-4.22-.07-1.7c.07-.74.17-2.52.25-3.26a8.31,8.31,0,0,0,.07-2.07,2.46,2.46,0,0,1-.49-1.06l.83-.84h.25l.25.1,1.48-.1a2.17,2.17,0,0,1,1.16.77l.14.49a20.92,20.92,0,0,0-.81,2,6.82,6.82,0,0,0-.32,2.22s-.1.62-.17,1.36l.07,1.21c-.07.74-.25,1.57-.32,2.31a19.55,19.55,0,0,1-.42,2.32,6,6,0,0,1-1.06,2l-.59.07A1.89,1.89,0,0,1,212.78,93.4Zm.37,4.88c-.08-.52-.15-1-.2-1.58l.1-.12.56.17c.5.22.89.42,1.39.64a2.31,2.31,0,0,1,1.06,1l-.1.91a4.1,4.1,0,0,1-1.43.89l-1-.27A4.86,4.86,0,0,1,213.15,98.28Z"/><path class="cls-4" d="M74.09,107.12a13,13,0,0,0-1.2-2.16,5.09,5.09,0,0,1-.92-2.17A73.77,73.77,0,0,0,73.35,95c.14-2.63.46-5.25.74-7.87s.32-5.38.46-8l-.46-1.2a1.94,1.94,0,0,1,2-.64h2.12l9.24-.74,2,.46A2.94,2.94,0,0,1,91,78.19l.28,1.38c-.28,1.24-.6,2.48-.92,3.72a25.21,25.21,0,0,0-.6,3.68,13.67,13.67,0,0,1-.92,3.68A3.77,3.77,0,0,1,86.23,92a18,18,0,0,1-2.76.55,21.5,21.5,0,0,0-4.14.37c-.46.92-1.06,8.92-1.06,10l.74.46a25.93,25.93,0,0,1,3.72-.78,9.33,9.33,0,0,0,3.55-1.25,2.24,2.24,0,0,0,.59-2,14.41,14.41,0,0,0-1.05-2.3c-.46-.78-.79-1.38-1.25-2.16H86l2.76,1.84a22.41,22.41,0,0,1,1.71,2.75c.46,1.11.78,2,1.24,3a28,28,0,0,1,.6,3.22l-.6,2.16-1.11.27-1-1-.79-2.3h-.92a11.19,11.19,0,0,1-3.54,2,17.49,17.49,0,0,1-4,.91c-1.38.33-2.62.65-4,1Zm11.82-24.7A13.15,13.15,0,0,0,85.13,80H79.19v3.26l6.26-.09Zm-.37,4.14-5.61-.14-.74.6V89.6L85,89.32Zm9.89,28.93a15,15,0,0,1-.78-2.76,18.34,18.34,0,0,1-.33-2.9c-.18-2.12.1-9.43.28-11.4s.05-4.33.05-6.49l-.23-9.06-.6-3.54a4.07,4.07,0,0,1,2.3-.32H97.5a35,35,0,0,0,9.56-.46c.92.18,1.84.18,2.63.32A5.4,5.4,0,0,1,112,79.94l.74,1.56a35.82,35.82,0,0,0-2.3,5.38c-.46,2.3-.73,4.46-1.06,6.76a32.51,32.51,0,0,1-1.7,6.62l-1.06.14a18.27,18.27,0,0,1-2.3-1.52A10,10,0,0,1,102.14,97l-2-4.14H101l3.26.78a8.41,8.41,0,0,0,.6-3.4c0-1.06.46-4.42.6-5.2V83c-.6-.46-5.38-.28-6.3.18,0,0-.14,5.84-.14,6.76a19.17,19.17,0,0,0,.14,2.9v3.08l.18,3.91a30.21,30.21,0,0,1-.32,5.43,43.65,43.65,0,0,0-.41,5.38,24.83,24.83,0,0,1-1.52,5.15l-.78.18Z"/><path class="cls-4" d="M342,53.41a1.32,1.32,0,0,1,1.87.7,1.34,1.34,0,0,1-.93,1.78c-.53.22-1.37.54-2,.82-.84.43-.48,1.1-.48,1.1l.15.38s.19.42.81.21a5.33,5.33,0,0,1,2.91-.48,3.91,3.91,0,0,1,2.85,3.33,3.76,3.76,0,0,1-2.56,4.21c-2,.73-3.18.38-3.82-.15a1.22,1.22,0,0,1-.2-1.73,1.81,1.81,0,0,1,1.91-.33,2.08,2.08,0,0,0,2.24-1.17,1.47,1.47,0,0,0-1.39-1.8,3.87,3.87,0,0,0-2.18.8c-.83.54-1.79.43-2.08-.29l-1.78-4.37a.92.92,0,0,1,.5-1.25C339.13,54.62,341.46,53.64,342,53.41Z"/><path class="cls-4" d="M287.85,16.31c-.36-.43-.54-1,.17-2s1.32-2,2.44-2.19,1.6.89,2,1.78,2.93,7.5,3.15,8.22a1.36,1.36,0,0,1-.83,1.6,1.4,1.4,0,0,1-1.65-.66c-.27-.49-1.78-4.44-2.48-6.23-.2-.54-.6-.64-.86-.43a1.68,1.68,0,0,1-.34.23A1.28,1.28,0,0,1,287.85,16.31Z"/><path class="cls-4" d="M300.14,12.3c-.71,0-1.38-.59-1.22-1.74a4.26,4.26,0,0,1,3.74-3.33,4.16,4.16,0,0,1,4.47,3,6.14,6.14,0,0,1-.28,4.2c-.18.46-.37.89-.53,1.22s0,.51.47.34l1.72-.66a1.21,1.21,0,0,1,1.68.66c.38.74,0,1.29-1,1.71L304,19.8a1.45,1.45,0,0,1-1.66-.55c-.29-.64-.05-1.19.68-2.75s1.86-3.79,1.73-5.09c-.1-1.05-.69-1.6-1.54-1.57a1.89,1.89,0,0,0-1.32.48,1.47,1.47,0,0,0-.44.87A1.31,1.31,0,0,1,300.14,12.3Z"/><path class="cls-5" d="M300.75,27.28c-12.89,5.24-14.2,22-8.23,32.13s19.88,12,29.54,8,14.22-18.92,6.28-33.84S306.12,25.1,300.75,27.28Z"/><polyline class="cls-5" points="305.39 31.02 311.4 47.35 323.29 55.04"/><rect class="cls-6" width="360" height="210"/></g></g></svg>