<svg xmlns="http://www.w3.org/2000/svg" xmlns:xlink="http://www.w3.org/1999/xlink" viewBox="0 0 300 270"><defs><style>.cls-1,.cls-10,.cls-11,.cls-15,.cls-16,.cls-17,.cls-18,.cls-19,.cls-20,.cls-21,.cls-23,.cls-24,.cls-28,.cls-3,.cls-5,.cls-6,.cls-7,.cls-9{fill:none;}.cls-12,.cls-2,.cls-25,.cls-26,.cls-27,.cls-29{fill:#fff;}.cls-10,.cls-14,.cls-15,.cls-16,.cls-17,.cls-18,.cls-19,.cls-20,.cls-21,.cls-22,.cls-23,.cls-24,.cls-25,.cls-26,.cls-27,.cls-28,.cls-29,.cls-3,.cls-5,.cls-6,.cls-7,.cls-9{stroke:#4d4d4d;}.cls-10,.cls-11,.cls-14,.cls-15,.cls-16,.cls-17,.cls-18,.cls-19,.cls-20,.cls-21,.cls-22,.cls-24,.cls-25,.cls-26,.cls-29,.cls-3,.cls-5,.cls-6,.cls-9{stroke-linecap:round;}.cls-14,.cls-15,.cls-16,.cls-17,.cls-18,.cls-19,.cls-20,.cls-21,.cls-22,.cls-24,.cls-25,.cls-26,.cls-29,.cls-3,.cls-5,.cls-9{stroke-linejoin:round;}.cls-3{stroke-width:1.77px;}.cls-4{fill:#ffdf40;}.cls-5{stroke-width:1.71px;}.cls-10,.cls-11,.cls-12,.cls-23,.cls-27,.cls-28,.cls-30,.cls-6,.cls-7{stroke-miterlimit:10;}.cls-11,.cls-6,.cls-7{stroke-width:1.13px;}.cls-8{clip-path:url(#clip-path);}.cls-10,.cls-9{stroke-width:1.5px;}.cls-11,.cls-12{stroke:#000;}.cls-12{stroke-width:0.54px;}.cls-13,.cls-14,.cls-22{fill:#4d4d4d;}.cls-14,.cls-16{stroke-width:1.32px;}.cls-15{stroke-width:1.64px;}.cls-17{stroke-width:0.97px;}.cls-18{stroke-width:0.85px;}.cls-19{stroke-width:1.17px;}.cls-20{stroke-width:1.13px;}.cls-21{stroke-width:1.51px;}.cls-22{stroke-width:1.32px;}.cls-23,.cls-25,.cls-27{stroke-width:1.37px;}.cls-24,.cls-28{stroke-width:0.5px;}.cls-26{stroke-width:0.62px;}.cls-29{stroke-width:0.99px;}.cls-30{fill:#b6b6b6;stroke:#b6b6b6;stroke-width:2.88px;}</style><clipPath id="clip-path"><polygon class="cls-1" points="95.7 110.92 40.84 110.92 36.41 60.72 91.26 60.72 95.7 110.92"/></clipPath></defs><g id="レイヤー_2" data-name="レイヤー 2"><g id="section_2-1"><path class="cls-2" d="M237.77,36s-1.26,7.34-6.25,10l7.63,11.38s-2.66-8,5.43-11.16C244.58,46.21,236.92,43.89,237.77,36Z"/><path class="cls-3" d="M230.12,48.27s5.3,1.41,4.62,8.34c0,0,2.89-8.07,10.65-9.26,0,0-7.49-3.29-6.31-13.17,0,0-3.8,10.44-11.39,10.65"/><ellipse class="cls-2" cx="37.43" cy="95.79" rx="19.07" ry="29.62" transform="translate(-14 6.73) rotate(-8.66)"/><path class="cls-4" d="M42.5,68.68a14.6,14.6,0,0,0-7.67-2.31c-10.61,0-18,13.17-16.6,29.42S29.42,125.21,40,125.21c0,0-13.78-.2-17.47-3C15.08,116.57,9.61,105,10.16,87.31c.28-9,3.15-14.2,7.06-18,3.31-3.17,3.9-4.37,7.24-4.65C40,63.38,42.5,68.68,42.5,68.68Z"/><path class="cls-5" d="M11.74,110.25C9.54,106.9,8.52,98.36,8,93.84,5.43,71.29,18.89,64.94,21.68,64.71"/><path class="cls-6" d="M34.22,112.53c-4.48-3.4-7.93-10.14-8.61-17.9-.79-8.91,2.29-16.47,7.27-19.18"/><path class="cls-6" d="M37,74.38a9.92,9.92,0,0,1,5,1.4c5.16,3,9.28,10.28,10,18.85,1,11.18-4.13,20.25-11.43,20.25"/><path class="cls-6" d="M46.86,87.26a24.45,24.45,0,0,1,1.81,7.37,20.75,20.75,0,0,1-1.26,9.64"/><path class="cls-6" d="M31.25,86.19c1.29-4,3.83-6.65,7-6.65,2.15,0,4.23,1.23,6,3.28"/><path class="cls-7" d="M44.69,108.24a5.8,5.8,0,0,1-3.8,1.47c-5,0-9.71-6.75-10.45-15.08"/><path class="cls-4" d="M39.33,86.32c-4,.33-3.57,16,1.32,15S43.29,86,39.33,86.32Z"/><path class="cls-5" d="M14.62,116.91c0,.4,2.82,4.34,6.88,6.68,6.88,4,10,3.29,10,3.29"/><g class="cls-8"><polygon class="cls-2" points="40.24 92.25 67.62 90.47 76.32 84.2 80.38 84.61 71.45 91.56 87.03 88.87 85.97 94.97 50.24 96.63 41.28 96.88 40.24 92.25"/><path class="cls-4" d="M76.32,84.21s-2.66-6.53-.2-10a78.66,78.66,0,0,1,6.19-7.44s2.87,3.5,1.62,10.61S76.32,84.21,76.32,84.21Z"/><path class="cls-6" d="M76.32,84.21s-8,6.22-12,6.14-21.16,1-21.16,1"/><polygon class="cls-4" points="40.55 89.89 33.24 94.38 42.85 98.45 41.59 94.51 45.01 92.95 40.55 89.89"/><path class="cls-9" d="M40.54,89.89l-7.3,4.49,8,2.49,9-.24L81,95.29,86,95,87,88.87S85.2,90,79.93,90.34a46.47,46.47,0,0,0-8.48,1.22l10.56-5"/><path class="cls-10" d="M76.32,84.21s-2.33-6.55-.2-10a47.48,47.48,0,0,1,6.19-7.44S88.1,74.06,86,77.88"/><path class="cls-10" d="M84.24,79.33s.63,2-3.63,4.6"/><path class="cls-10" d="M81.42,71.81A18.47,18.47,0,0,1,78.66,82"/><line class="cls-11" x1="49.78" y1="93.64" x2="58.97" y2="92.71"/><line class="cls-12" x1="62.85" y1="94.13" x2="69.35" y2="93.04"/></g><line class="cls-6" x1="59.77" y1="84.32" x2="65.86" y2="78"/><line class="cls-6" x1="65.1" y1="102.27" x2="120.87" y2="108.79"/><line class="cls-6" x1="14.64" y1="62.21" x2="25.24" y2="42.92"/><line class="cls-6" x1="32.28" y1="43.59" x2="42.33" y2="59.55"/><path class="cls-4" d="M29.58,46.91c-2.87,1.33-2.88-6.31-1.73-8.31S32.46,45.58,29.58,46.91Z"/><path class="cls-13" d="M124,52.51l.29-2.34L124,50a13.81,13.81,0,0,0-1.9.71,4.12,4.12,0,0,1-1.92.56,5.91,5.91,0,0,1-2,0l0-.58c.38-.33.84-.64,1.29-1s.9-.55,1.34-.78.93-.49,1.4-.8l.06-.2a.75.75,0,0,0-.58-.32l-2.64-.53-.82-.52-.34-.6.08-.29.37,0,.73.28c.65.05,1.36.1,2,.13s1.38.1,2,.2,1.34.16,2,.21l.3-1.06-1.39-.7-.36-1.45.47-.09c.23.29,1,.6,3.53.83l.17-.81-1-.38-1.27-.27-.94-.79,0-1.39.2.06a9.53,9.53,0,0,0,2.17,1l1.08.09.15-.55-1.08-.4-.93-.37-1.51-1c-.25.59-.37.84-.6,1.44s-.5,1.18-.73,1.77a3.1,3.1,0,0,1-1.06,1.4l-.26-.08a.76.76,0,0,1-.46-.79,2.44,2.44,0,0,1,.18-1.42,2.85,2.85,0,0,0,.25-1.32l-.21-.06a3.15,3.15,0,0,1-.78.44c-.35.12-.65.17-1,.29l-.53-.15-.25-.2,0-.43c.69-.62,1.31-1.26,2-1.95a17.33,17.33,0,0,1,1.88-2,26.08,26.08,0,0,0,1.74-2l.43,0c.32.18.57.32.9.48a4.62,4.62,0,0,1,.74.8l0,.59-.57.43a1,1,0,0,0,.72.34l2,.13.54-.88.1-1.89.14,0L131,35.43a2.14,2.14,0,0,1,.17.93c0,.37-.09.64-.13,1a6.43,6.43,0,0,0,2.15.81,1.7,1.7,0,0,1,1.1.56l0,.54a1.69,1.69,0,0,1-1,.08,10.32,10.32,0,0,0-2.1-.29l-.42.79L133.3,41v.28l-.6.34-2-.39a.83.83,0,0,0-.41.7,4.63,4.63,0,0,0,2,1.16l0,.47c-.32.35-2.36-.15-2.62,0a1.84,1.84,0,0,0-.61,1.13,18.83,18.83,0,0,0,3.37,1.24l-.12.43c-.41.11-.85.13-3.23-.41-.45,0-1,0-1.44,0a2.63,2.63,0,0,0-.35.85,1.9,1.9,0,0,0,1.16.55l2.49.55a4.56,4.56,0,0,1,1.38.86l-.17.39a3.47,3.47,0,0,1-1.08.13,23.87,23.87,0,0,1-3.78-.41l-.17.3c.51.52,1.11,1.07,1.68,1.6a11.6,11.6,0,0,1,1.65,1.71c.47.66,1,1.24,1.47,1.82l0,.37-1,0a16.94,16.94,0,0,1-1.42-1.21c-.47-.43-.92-.86-1.4-1.28s-.94-.87-1.4-1.28a2.18,2.18,0,0,0-.48.78c-.19.41-.3.82-.5,1.21a3,3,0,0,1-.63,1l-.45,0A2.69,2.69,0,0,1,124,52.51Zm4.8-13.95-.5-.17-1.73-.34-1.19-.77a1.74,1.74,0,0,0-.36.49,3.58,3.58,0,0,0,.8.58,1.68,1.68,0,0,0,1,.43l1.73.34Z"/><path class="cls-13" d="M143.91,57.93a11.12,11.12,0,0,1,.23-2.29,6.85,6.85,0,0,1,.25-1.36,12.06,12.06,0,0,0,.15-2.23L142.05,51a1.23,1.23,0,0,1-1.12.06l-.78-.89c0-.75,0-1.46,0-2.21s.31-2.32.36-3a18.69,18.69,0,0,0-.15-2.09c.77.13,1.49.26,2.24.41l2.18.38a15.26,15.26,0,0,0,2.12.31,2.12,2.12,0,0,0,.59-1,5.44,5.44,0,0,1,.25-1.18l0-.65.58-.27,1,.21a10.89,10.89,0,0,1,1.94.83,3,3,0,0,1-.46,2.08l-.69.55-.05.21a6.22,6.22,0,0,0,1.79.88,15.11,15.11,0,0,1,1.94.71,2.8,2.8,0,0,1,1.38,1.34v.59a4.11,4.11,0,0,0-.91,1.43c-.53,1.53-.74,2.06-.92,2.68a1.79,1.79,0,0,1-1.36,1.15c-.51,0-1,0-1.4,0a11.25,11.25,0,0,1-1.45-.1,4.41,4.41,0,0,0-1.5.08.91.91,0,0,0-.6.71c-.09.35-.17.61-.25.9l-.37,1.46c-.13.53-.28,1-.42,1.47a1.78,1.78,0,0,1-.63.88,2.18,2.18,0,0,1-1.14-.17A.76.76,0,0,1,143.91,57.93Zm1.54-8.53a11.33,11.33,0,0,1,.51-2.1c0-.43.11-.85.14-1.28l-.77-.38-1.43-.4-1,.24-.15.24c0,.43-.25,1.65-.29,2.08a3.42,3.42,0,0,0,.14,1.29l2.1.69.45,0Zm6.19,1.23.36-2.8c-.3-.2-1.66-.61-2-.77a1.56,1.56,0,0,0-.9.63L148,50.42l0,.23,2.06.74.89,0A.74.74,0,0,0,151.64,50.63Z"/><path class="cls-2" d="M171.25,94.17c-1.1-.73-4.59-1.24-8.88-1.58l.54-1.87-23.12,1.11-18.37-1.75a63.09,63.09,0,0,1-5.31-3.56,7.7,7.7,0,0,0-1.21-1l-.05-.43A4.42,4.42,0,0,0,112.51,84a4.11,4.11,0,0,0-1.61-.7c-.31.18-.4.55,0,1.22l.16.22a3.16,3.16,0,0,0-.41.76c-.52-.58-1-1-1.52-.61-1.15.9-3.61,4.85-.28,8.06a48,48,0,0,0,7.68,5.26c1.21.69,22.47,6.28,26.71,6.26,7.69,1.06,22.31,3.9,22.44,3.69C168.79,102,174.74,96.51,171.25,94.17Z"/><path class="cls-4" d="M175.74,91s-20.63-3.49-21.85.83l2.73,23.83,14.45-2Z"/><path class="cls-14" d="M182.21,142.75s-14.22,31-14,36.55c.37,8.24,13.88,29.51,17.24,42.35.22.82,1.52.9,2,2.68,1.63,6,1.85,4.2,1.85,4.2s2.1,1.39,7.38.28c0,0,.17-23.35-2.37-28.42a89.71,89.71,0,0,1-7-20.59l18.65-36Z"/><path class="cls-14" d="M183,164.33l44.2,81.38s5.12.06,5.62-1.51a225.37,225.37,0,0,0-4.3-23.5c-2.06-8.41-8.35-15.66-9.35-20-1.48-6.48.33-23.68,0-28.68s-8.91-14.31-8.91-14.31Z"/><path class="cls-4" d="M217.91,261.16s7.94,0,10.21-2.28a21.17,21.17,0,0,0,1.12-3,3,3,0,0,1,2.09-1.76c1.07-.38,2-.38,3-.8a28.7,28.7,0,0,0,2.93-1.48c2.44-1.47,1.87-2.22,1.87-2.22s-.55-.49-1.27-1.19l-.62-.63a11.58,11.58,0,0,1-2.6-3.54,3.45,3.45,0,0,0-1.24-1.78,3.29,3.29,0,0,0-1.13-.58s-.82,3.5-2.55,3.09c-3.33-.8-3.95-.69-4.06-.64l0,0s-2.64,5.3-3.37,7.19a14.5,14.5,0,0,1-4.07,5.76,3,3,0,0,0-.6.91C217,259.53,217.48,260.93,217.91,261.16Z"/><path class="cls-4" d="M196.86,237.12h-3.29c-1.1-.17-1.91-.49-3-.64a3,3,0,0,0-2.66.64l0,0h-14c-.35-.5,0-1.67.32-2.52a2,2,0,0,1,1.31-1.2,15,15,0,0,0,7.07-3.23c1.5-1.36,7.26-5,7.26-5h0c.13,0,.73.19,3.35,2.4,1.35,1.14,3.66-1.61,3.66-1.61a3.43,3.43,0,0,1,.76,1,3.48,3.48,0,0,1,.3,2.15c-.21,1.25.46,3.59,1,5.17.32,1,.6,1.64.6,1.64S199.68,236.77,196.86,237.12Z"/><path class="cls-4" d="M219.72,168.05c.05.88-11,4.56-15.23,5.47-3,.64-9.62-1.53-12.78-1.29-9.13.76-19.92-.9-23.62-.86a37.11,37.11,0,0,1-4.61-1.76c-.25-.16,3.63-29.64,3.88-34.25.54-10.19-2.44-19.27-.76-24.72,2-6.4,6.78-15.7,10.92-18.8l2,5.13s19.23-9,19.92-8.59c8.09,4.88,16.76,20.77,16.68,37.15,0,.52,0,1,0,1.56,0,1.69-.12,3.4-.24,5.12C215,144.29,219.68,167.09,219.72,168.05Z"/><path class="cls-2" d="M178.45,86.3S196.64,93,201.27,79s7.33-14-6.79-19.61-15.36-9.55-18-5.24S167,75.68,178.45,86.3Z"/><path class="cls-4" d="M180.14,39.49c3.48-1.58,15,8.52,18.23,8.1,1.31-.17,6.17-3.1,7.44-3.16,4.72-.23,4.75,8.89,4.06,14.15-.13,1,8.35,3.14,8.3,4.22-.06,1.62-4.62,4-4.31,7s.31,5-.13,6.21c-.24.66-3.81-1.51-5.6,0-1.07.89-3.3,8.66-5.78,6.16-.8-.81,0-2.14,0-3.28,0-1.4-1.27-2.41-2.32-3.34-1.89-1.69-3.46-4.44-2.26-6.67.42-.76,1.12-1.39,1.24-2.25.19-1.43-1.38-2.49-2.8-2.72-3.1-.49-6.4-.09-9.13-1.87-.39-.25-.55.58-3-.1-1.48-.41-.81-3.16-1.9-3.44-5.47-1.37-8.49.94-10.5-2.52-2.4-4.14,0-3.62-.71-6.55s1.48-6,2.73-6.28C176.73,42.42,177,40.92,180.14,39.49Z"/><path class="cls-2" d="M231.34,115.79c-.21.06.45,1.16-.78,2.29-.22-.58-.46-1.24-.74-2.08-.23.1-6.64,1.28-10.59,3.43a13.41,13.41,0,0,1-2.65-1s6.28,9.61,5.74,11.2-7.69,5.73-10.73,8.33-16,11.66-16,11.66v0A30.52,30.52,0,0,0,191.1,148a16.12,16.12,0,0,0-3.64.43l.93,1.22a.87.87,0,0,1-.6,1.39c-1.88.2-4.89-.2-5.16.86-.35,1.38,1.54,6.41,6,6.51,3.28.08,12.31-1.88,12.31-1.88.67-.09,1.31-.21,1.94-.35,0,0,33.19-20.64,32.76-24.11S231.34,115.79,231.34,115.79Z"/><path class="cls-15" d="M178,50.6s-1.91,1.54.34,4.11,6.92,2.15,6.92,2.15-4,3.84,4.65,6.57"/><path class="cls-15" d="M198.37,47.59s9.93-6,10.78-2.47-1.21,7.08-1.21,7.08"/><path class="cls-15" d="M176.41,42.34s3.11-.34,3.73-2.85c.81-3.24,6.92.47,12.59,5.64"/><path class="cls-15" d="M214.51,71.51s1.52,2.95-2.1,4.28-4.28.23-4.28.23-1.94,5.28-4.49,5.67c-5.76.88-1.33-4.38-1.33-4.38"/><path class="cls-15" d="M217.16,67.12c4.82-2.58-7.29-8.54-7.29-8.54a12.38,12.38,0,0,0,2.43-7.39"/><path class="cls-15" d="M173.7,43.16s-3.14,0-2.63,3.49,2.43,4,2.43,4-4.46,3-1.82,5.39c2.94,2.7,3.44,1.94,3.44,1.94"/><path class="cls-14" d="M183.81,221.32s-2.35,4,2,3.68,2.14,4.14,7.39,2.61l3.66-1.61-1.68-7.7Z"/><path class="cls-14" d="M193.85,221.32s4.35,1,3.68,2.68-3,2.67-3,2.67l-3-3.34Z"/><path class="cls-16" d="M222.76,238.77s-2.86,1.17-2.25,2.76,5.15,2.84,5.15,2.84l-7.75,16.79,10.21-2.28,3.21-4.74,7.8-4.5-4.49-5.36"/><path class="cls-14" d="M231,237s6.39,1.63,3,3.57-4.18,1.39-4.18,1.39"/><line class="cls-17" x1="171.08" y1="77.16" x2="171.52" y2="80.43"/><line class="cls-17" x1="174.25" y1="78.23" x2="174.69" y2="81.51"/><path class="cls-17" d="M176.53,78.62A11.38,11.38,0,0,0,179,81.71"/><path class="cls-18" d="M171.46,70.81a8.43,8.43,0,0,0,2-3.77c.51-1.67.79-4.91-1.89-3.84a7.71,7.71,0,0,0-2.93,3.35c-.93,1.75-1.34,3.66-.23,4.34"/><path class="cls-18" d="M176.65,71.5c-1.12-.67.79-7.31,3.16-7.68s1.55,5.75-.05,7"/><line class="cls-18" x1="179.48" y1="67.09" x2="177.14" y2="68.65"/><line class="cls-18" x1="172.59" y1="65.52" x2="170.15" y2="67.65"/><line class="cls-19" x1="173.61" y1="71.66" x2="171.32" y2="74.71"/><path class="cls-4" d="M205.76,123.67c11.69,1.47,28.81-6.29,32.54-8.4,1.26-.71-16.16-16.26-16.78-17.39-2.22-4.08-8.07-4.49-15.68-8.46-.72-.37-3.9-1.82-4.65-1.49-2.81,1.28-6.2,6.81-6.57,11.24-.33,4,1.34,10.79,2.35,14.46C197.31,114.86,204.23,123.48,205.76,123.67Z"/><polyline class="cls-3" points="179.59 94.26 177.23 90.01 175.58 92.4 178.18 98.51 180.3 96.92 181.24 99.58"/><path class="cls-3" d="M187.53,93.59s8.78-5.66,9.17-4.87a24,24,0,0,1,.78,4.1l-3.9,2.73-5.06,3-3.47-1.74-1.49,2.73"/><path class="cls-3" d="M172.1,90.28s-10.35-.39-11.72,0a8.81,8.81,0,0,0-2.93,2v6.84l2.74,17,7.81-1.17,1.75,16.6s-1.56,12.5-1.56,13.87l1.56,1.17L167,147.88"/><path class="cls-3" d="M168.58,150.23s-4.49,18.74-3.32,18.94a24.61,24.61,0,0,0,5.86,1.17c4.3.39,16.42.74,22.37,1.45s9.66,1.48,14.54.31,13.47-4.49,13.47-4.49l-1.36-10.16-1-12.1"/><path class="cls-3" d="M233.37,122.79s3,6.7,2.31,9.27c-.4,1.37-12.06,10.19-21.52,16.2-8.28,5.25-14.48,7.85-15.34,8-4.17.72-9.75,2.67-11.91,2.05-3.13-.89-6.32-6.14-4.28-6.42s5.16-.86,5.16-.86-4-2.19-.33-2.61,8.16,1.16,8.16,1.16,16.53-13.16,17.87-13.61"/><polyline class="cls-3" points="216.39 134.41 222.32 129.59 219.97 124.36"/><path class="cls-3" d="M203.93,112.54l10.15,11.91s8-3.32,10.16-3.71,14.45-5.08,13.66-6.83-7.22-7.42-10-9.77a67.05,67.05,0,0,1-5.08-4.88l-1.76,1.37.41-2.75-3-.38"/><path class="cls-3" d="M217.6,95.16s-5.86-3.12-8.2-4.49c0,0-4.69-4.49-6.25-4.49a13.24,13.24,0,0,0-3.91,1"/><path class="cls-19" d="M193.37,64.06s3.68-3.31,4.61-.25-1.54,5.34-5,6.2"/><path class="cls-2" d="M117.52,87.52s-6.63-6.51-12.15-6.75.88,5.06,2.43,6,5.3,3.13,5.3,3.13Z"/><path class="cls-3" d="M155.51,90.66s-8.84,1.2-13.7,1.2-6.18.48-10.82-.24-7.44.3-9.57-1.54A67.56,67.56,0,0,0,112.51,84c-2.72-1.54-7.14-5.88-8.91-3.23s4.2,6,4.2,6"/><path class="cls-3" d="M106.7,90.17c1.62,4.15,5,8.08,9.93,5.55"/><path class="cls-3" d="M118,97.89s.22.72,7.07,2.41,23.19,5.07,26.06,5.07"/><path class="cls-20" d="M179.23,129.13s2.54,3.52,5.08,4.49.78-2,.78-2,7.23,5.27,8.4,5.86"/><path class="cls-20" d="M168,114.88a31.56,31.56,0,0,1,.19-7.22"/><path class="cls-21" d="M189.34,228.53s-12.53,3.72-13.84,4.91-8.54,2.81-1.63,3.72a61.51,61.51,0,0,0,14,0h9l-.14-8.31"/><path class="cls-18" d="M176.55,62.47a51.12,51.12,0,0,1,7.06-1"/><line class="cls-6" x1="60.55" y1="107.4" x2="70.56" y2="115.74"/><path class="cls-2" d="M271,76.34l13.05,14-10,1.33,11.43,11.63s-8.27-.54-9.51-.19,11.38,15.06,11.38,15.06l-33.9-2.19,13-10.77-8.6-6.25,9.59-5.52-11.53-4Z"/><path class="cls-3" d="M276,72.64s3.54,13.38,9.29,16.92L278.65,91"/><path class="cls-3" d="M279.44,94s2.75,10.33,11.42,12l-9.94.56s5.63,12.28,11.4,13.92l-9.93.18"/><path class="cls-3" d="M272.74,68.77s-5.16,15.11-15.14,18.34l6.18,2.4"/><path class="cls-3" d="M266.65,91.47s-6,15.1-11.8,16.12L264,107"/><path class="cls-3" d="M264.73,111.21a19.15,19.15,0,0,1-12.12,8.51l25.23.49"/><path class="cls-3" d="M269.54,122.33s1.13,8.39-.16,12.17l8.25,1.3-1.48-12.58"/><path class="cls-2" d="M81.79,14.17l-8.52,9.59,6.39,1.06-7.46,8s5.33-.27,6.13,0S70.87,43.2,70.87,43.2l21.84-1.06-8.25-7.73,5.59-4.26-6.13-4,7.46-2.67Z"/><path class="cls-3" d="M78.6,11.51s-2.4,9.32-6.13,11.72l4.26,1.06"/><path class="cls-3" d="M76.2,26.42s-1.87,7.2-7.46,8.26l6.39.53s-3.73,8.53-7.45,9.59l6.39.27"/><path class="cls-3" d="M80.73,8.84s3.19,10.66,9.59,13.05l-4,1.6"/><path class="cls-3" d="M84.46,24.82s3.73,10.66,7.45,11.46l-5.86-.53"/><path class="cls-3" d="M85.52,38.68a12.72,12.72,0,0,0,7.73,6.12H77"/><path class="cls-3" d="M82.33,46.4s-.8,5.86,0,8.52l-5.33.8,1.06-8.79"/><path class="cls-18" d="M167.75,57.62s1.18-1.61,4.46,3"/><path class="cls-22" d="M171.65,52.13s8.08,3.79,13.61,4.73c3.17.54,17.52,1,17.52,1l2.47,4.1L181.4,60.59l-7.7-2.71Z"/><path class="cls-22" d="M217.23,75.13s3.73-.72,11.66.64c4,.67,7.27-2.83,7.27-2.83l-1.22,9.74-16.4-4.61Z"/><polygon class="cls-22" points="211.43 77.31 218.08 83.42 213.72 90.36 210.18 79.35 211.43 77.31"/><path class="cls-23" d="M41.65,202.16c.54-1.22,7.22-10.19,9.44-11.84,1.44-1.06,2.86.69,3.41,1,1.41.66-1.53,5.82-1.53,5.82l-4.24,9S41.11,203.38,41.65,202.16Z"/><path class="cls-24" d="M51.57,193.59s.36-2.25-1.43-.25c0,0-2.37,4.91-2.35,5.59s3.78-5.34,3.78-5.34c1.09-1.66-4,5.91-4,5.91"/><path class="cls-24" d="M47.88,201.63l2.7-4.14"/><path class="cls-25" d="M43.05,207.23c.88.64,1.76-.29,1.76-.29a6.08,6.08,0,0,0,.38,1.34c.2.34,1.77.45,2.9-.77s.08-3.33-1.82-4.71-4.15-1.51-5-.29S41.15,205.85,43.05,207.23Z"/><path class="cls-26" d="M46.53,206.61c.31-.49-.16-2.1-1.64-2.9-.72-.4-2.12-.75-2.09.16a3.92,3.92,0,0,0,.55,1.56"/><path class="cls-23" d="M56.51,208c1.32-.17,11.8-4.08,14-5.76,1.43-1.08.14-2.94,0-3.54-.24-1.53-6-.16-6-.16l-9.86,1.56S55.18,208.14,56.51,208Z"/><path class="cls-24" d="M67.51,200.83s2.26.28-.16,1.44c0,0-5.37.91-6,.7s6.18-2.14,6.18-2.14c1.9-.58-6.78,2.17-6.78,2.17"/><path class="cls-24" d="M58.76,202.13l4.73-1.44"/><path class="cls-25" d="M52,205.21c-.38-1,.76-1.62.76-1.62a6.42,6.42,0,0,1-1.18-.73c-.27-.29.06-1.83,1.55-2.58s3.22.86,4,3.07.29,4.41-1.14,4.92S52.83,207.41,52,205.21Z"/><path class="cls-26" d="M53.6,202c.56-.16,2,.75,2.33,2.38.18.81.12,2.26-.74,2a4,4,0,0,1-1.34-1"/><path class="cls-27" d="M87.41,199.71c-1.13-.71-24.9-9.63-25.91-10.06A3.24,3.24,0,0,0,57.85,191c-.8,1.34-2,3.26,2,5.37S83.79,207,83.79,207,88.54,200.42,87.41,199.71Z"/><path class="cls-24" d="M82,202.77l-4.56-1.89"/><path class="cls-24" d="M70.67,195.69c2.44,1,3.35,1.41,3.35,1.41l4.87,2"/><path class="cls-28" d="M62.05,192.31s-1.23-.29-.77.84,3,2.17,3,2.17l4.34,2.29a6.19,6.19,0,0,0,2.33.19C71.9,197.6,62.05,192.31,62.05,192.31Z"/><path class="cls-29" d="M89.1,204.69c-.37,1-1.62.76-1.62.76a6.25,6.25,0,0,1,.45,1.31c0,.39-1.22,1.37-2.84,1s-1.94-2.71-1.14-4.92,2.58-3.58,4-3.07S89.89,202.48,89.1,204.69Z"/><path class="cls-26" d="M85.87,206.14c-.53-.23-1-1.83-.28-3.32.38-.74,1.35-1.82,1.83-1a4,4,0,0,1,.42,1.59"/><path class="cls-4" d="M62.31,200.12s-15.17-3.79-13.65-15.93,0-12.89,0-12.89L57,176.61l4.55-22,5.31,24.27,3-13.65s5.31,12.14,4.55,21.24S62.31,200.12,62.31,200.12Z"/><path class="cls-5" d="M50.28,184.19c1.52-12.13,0-12.89,0-12.89l8.34,5.31"/><path class="cls-5" d="M76.06,186.47c-.75,9.1-12.13,13.65-12.13,13.65a25.72,25.72,0,0,1-7.39-3.42"/><path class="cls-5" d="M67.87,164a88.5,88.5,0,0,1,.61,14.91l3-13.65a66.63,66.63,0,0,1,4.16,14.08"/><path class="cls-5" d="M60.66,166.75l2.51-12.14s3.69,4.55,3.69,6.83"/><path class="cls-2" d="M62.82,196.07s-4-2-3.8-5a53.44,53.44,0,0,1,1.52-7.59l.76,6.07,2.53-5.81,1,5.81,5.56-4.8S68.88,194.56,62.82,196.07Z"/><path class="cls-15" d="M167.88,72.6s-2,11,4,12.32,2.66,1.62,2.66,1.62l2.65,6"/><path class="cls-30" d="M51.49,124.6a.36.36,0,0,1-.38.35H51a7.37,7.37,0,0,0-.79-.16,7.62,7.62,0,0,0-8.69,6.37,7.7,7.7,0,0,0,.11,2.91.79.79,0,0,0,.87.69l.18,0c.73-.17.75-.58.64-1.05a5.88,5.88,0,0,1,4.37-7.08,5.9,5.9,0,0,1,4.37.67c.3.18.5.39,1,0a.75.75,0,0,0,.29-1A5.9,5.9,0,0,1,60,119.14h0a5.93,5.93,0,0,1,2.12.76c.41.25.77.38,1.19-.3s.11-.94-.3-1.19a7.63,7.63,0,0,0-11.43,5.39C51.54,124.06,51.51,124.33,51.49,124.6Z"/><path class="cls-30" d="M52.68,59.74a.35.35,0,0,1,.32.4.19.19,0,0,1,0,.08,5.41,5.41,0,0,0-.21.79,7.61,7.61,0,0,0,5.82,9.06,7.7,7.7,0,0,0,2.91.07.79.79,0,0,0,.74-.83.47.47,0,0,0,0-.17c-.12-.74-.53-.79-1-.71a5.89,5.89,0,0,1-6.75-7.06,6,6,0,0,1,.89-2.07c.2-.28.42-.46.08-1s-.61-.4-.94-.35a5.89,5.89,0,0,1-6.75-7h0a5.86,5.86,0,0,1,.89-2.07c.27-.39.42-.75-.23-1.2s-.93-.17-1.2.22a7.61,7.61,0,0,0,2,10.59,7.7,7.7,0,0,0,2.68,1.15A6.5,6.5,0,0,0,52.68,59.74Z"/><path class="cls-30" d="M235.68,172.13a.42.42,0,0,0-.07.6.46.46,0,0,0,.07.07,8.67,8.67,0,0,1,.71.65,9,9,0,0,1,0,12.7,9.14,9.14,0,0,1-2.86,1.93.93.93,0,0,1-1.26-.35,1.19,1.19,0,0,1-.08-.2.87.87,0,0,1,.55-1.34,6.94,6.94,0,0,0,2.2-11.3,7,7,0,0,0-2.2-1.49c-.38-.16-.71-.2-.71-.94s.35-.78.71-.94a7,7,0,0,0,2.2-1.49,6.92,6.92,0,0,0,0-9.8h0a6.88,6.88,0,0,0-2.2-1.48c-.52-.22-.9-.47-.54-1.34s.82-.77,1.34-.55a9,9,0,0,1,2.84,14.63A8.68,8.68,0,0,1,235.68,172.13Z"/><rect class="cls-1" width="300" height="270"/></g></g></svg>