<svg xmlns="http://www.w3.org/2000/svg" viewBox="0 0 360 210"><defs><style>.cls-1,.cls-2,.cls-4,.cls-5,.cls-6{fill:none;}.cls-1,.cls-2,.cls-4,.cls-5{stroke:#4d4d4d;stroke-linecap:round;}.cls-1,.cls-2{stroke-miterlimit:10;}.cls-1{stroke-width:2.04px;}.cls-2{stroke-width:2.33px;}.cls-3{fill:#ffdf40;}.cls-4,.cls-5{stroke-linejoin:round;}.cls-4{stroke-width:0.76px;}.cls-5{stroke-width:1.09px;}</style></defs><g id="レイヤー_2" data-name="レイヤー 2"><g id="section_2-1"><path class="cls-1" d="M354,78c.84,23.66-40.51,25.79-76.09,34.25-37.79,9-58.66,7.26-60.07,17.2"/><path class="cls-2" d="M75.32,32.38C103.22,23.8,137.66,19,172.14,19c47.05,0,97.17-2.94,137.48,9.61,0,0,35.61,13.24,43.57,30.16"/><path class="cls-2" d="M237.73,161.3c-26.88-16.92-40.82-43.32-59-44.88-88-7.54-166,2.46-164.67-34.9"/><path class="cls-3" d="M105.42,49.12a2.63,2.63,0,0,1-2.64-2.44,2.38,2.38,0,0,1,2.69-2.42c1.56.08,10.29,0,11.66.08a2.55,2.55,0,0,1,2.3,2.58l-.19,14.24c0,1.07-1.2,2.11-3,2.09s-9.13,0-10.48,0-3-.91-2.93-2.45,1.23-2.44,3.23-2.47c1.57,0,4.5.09,6.75.09a1.68,1.68,0,0,0,1.9-1.68l.11-5.73s0-1.87-1.68-1.87C110.6,49.14,106.32,49.2,105.42,49.12Z"/><path class="cls-3" d="M133.26,44.07c2-.06,9.32,0,11.74.11,2.22.08,3.62,1.07,3.73,3.76s.14,9.87.08,12-1.7,3-4.22,3-9.85-.08-11.83,0-3.29-1.43-3.4-3.56-.19-9.77-.08-11.53A3.76,3.76,0,0,1,133.26,44.07Zm1.61,14.32,8.56.11c.83.44,1.16-.06,1.16-1.13s-.2-6.25-.2-6.91.06-1.34-.6-1.4-7.9-.16-8.78-.16-1.29.35-1.29,1.62c0,.82-.05,5.65.06,6.64S134.13,58.39,134.87,58.39Z"/><path class="cls-3" d="M176.4,50.52a2.24,2.24,0,0,1-2.35,2.19c-.42,0-1.6-.11-3.08,0a1.77,1.77,0,0,0-1.81,1.37,23.34,23.34,0,0,1-.85,3.27c-1.51,4.14-3.87,6.31-6,7a2.4,2.4,0,0,1-2.93-1.15c-.39-.85.16-2.14,1.31-3.1a10.41,10.41,0,0,0,3.35-5.9,1.17,1.17,0,0,0-1.12-1.51c-1.95-.06-3.46,0-3.87,0-1.54-.08-2.55-.41-2.66-2.19s1.51-2.31,3-2.36c.49,0,1.75-.06,3.37-.06s1.87-1.18,1.87-1.7,0-.74-.06-1.07a2.46,2.46,0,0,1,2.34-2.77c1.09,0,2.16.71,2.52,2.69.05.38.11.9.16,1.56a1.42,1.42,0,0,0,1.62,1.35,22.33,22.33,0,0,1,3.07.11A2.39,2.39,0,0,1,176.4,50.52Z"/><path class="cls-3" d="M188,52.22a1.65,1.65,0,0,0,.05-1.95c-.82-1.46-2.08-3.84-2.14-4.75a2.28,2.28,0,0,1,2.42-2.47c1.07,0,2.28,1.16,2.82,2.58.28.69.58,1.32.83,1.84a1.15,1.15,0,0,0,1.86.52,12.65,12.65,0,0,1,4.94-2,2.59,2.59,0,0,1,2.8,2.19c0,.93-.69,1.95-2.94,2.77s-7.35,3.9-7.68,5.71c-.55,3.32,6.64,2,8,2.17s2.77.87,2.3,2.6-2,2.11-5,2.2-6.2,0-8.53-2.39c-1.81-1.84-2.3-3.84-1-7.13A11.1,11.1,0,0,1,188,52.22Z"/><path class="cls-3" d="M229.26,49.58c-.44,0-1.54.14-2.94.17a1,1,0,0,0-1.09,1.07c0,1.31-.06,2.6-.11,3.76-.14,3.7-.58,6-2.09,7.84a5.23,5.23,0,0,1-4.39,2,2.2,2.2,0,0,1-2.25-2c-.16-1.1,1.24-1.81,2.06-2.25a2.42,2.42,0,0,0,1-.74c.14-.22-.19-.3-.47-.27a4.28,4.28,0,0,1-4-1.6,4.09,4.09,0,0,1,.55-5.81,6.19,6.19,0,0,1,4.09-1.18c.33,0,.68,0,.68-.28s-.35-.43-.87-.41a39.26,39.26,0,0,1-4.12,0c-1.87-.08-3-.38-3.32-2.06s1.37-3,3.35-2.93c.63,0,2.06,0,3.78,0a1,1,0,0,0,1.13-1.05,2.2,2.2,0,0,1,2.44-2.27,2.43,2.43,0,0,1,2.47,2.19A1.28,1.28,0,0,0,226.43,45c1.16,0,2,0,2.39,0a2.41,2.41,0,0,1,2.53,2.17C231.51,48.71,230.88,49.39,229.26,49.58ZM220,53.86a1.46,1.46,0,0,0-2.11.33A1.19,1.19,0,0,0,219,55.7C220.37,55.67,220.62,54.52,220,53.86Z"/><path class="cls-3" d="M242,53.86c1.4-.71,2.47-.08,3.62,1.4,1.4,1.81,3.87,2.66,6.53,2.77,1.43,0,2.14,1.9,1.87,3.13s-2.09,2-5.21,1.65c-2.94-.39-6.12-2.09-7.52-4.61C240,56,240.58,54.55,242,53.86Zm1.21-8.45c.3-1.81,2.09-2.11,3.59-2.11,3,0,6.94,2.72,8,4.36a2.16,2.16,0,0,1-.47,3.05,2.45,2.45,0,0,1-3.15-.3A12.14,12.14,0,0,0,246,48.05C244.12,47.72,242.94,46.89,243.19,45.41Zm11-2.3c.77-.39,1.35.14,2.23,1.32,1.26,1.67,1.29,2.55.35,3s-2.08-.6-2.85-2.11C253.48,44.56,253.37,43.52,254.16,43.11Zm2.94-1.35c.93-.3,1.59.22,2.36,1.49s.9,2.22,0,2.68-1.84-.52-2.6-1.89C256.36,43.27,256.3,42.18,257.1,41.76Z"/><path class="cls-3" d="M284.12,49.58c-.44,0-1.54.14-2.94.17a1,1,0,0,0-1.1,1.07c0,1.31-.05,2.6-.11,3.76-.13,3.7-.57,6-2.08,7.84a5.23,5.23,0,0,1-4.39,2,2.2,2.2,0,0,1-2.25-2c-.16-1.1,1.23-1.81,2.06-2.25a2.42,2.42,0,0,0,1-.74c.13-.22-.19-.3-.47-.27a4.27,4.27,0,0,1-4-1.6,4.09,4.09,0,0,1,.55-5.81,6.18,6.18,0,0,1,4.08-1.18c.33,0,.69,0,.69-.28s-.36-.43-.88-.41a39.09,39.09,0,0,1-4.11,0c-1.87-.08-3-.38-3.32-2.06s1.37-3,3.35-2.93c.63,0,2.05,0,3.78,0A1,1,0,0,0,275,43.9a2.2,2.2,0,0,1,2.44-2.27A2.44,2.44,0,0,1,280,43.82,1.27,1.27,0,0,0,281.29,45c1.15,0,2,0,2.39,0a2.4,2.4,0,0,1,2.52,2.17C286.37,48.71,285.74,49.39,284.12,49.58Zm-9.25,4.28a1.46,1.46,0,0,0-2.11.33,1.19,1.19,0,0,0,1.1,1.51C275.23,55.67,275.47,54.52,274.87,53.86Z"/><path class="cls-3" d="M87.72,92.75c-.11-1.78,1.59-2.47,3.19-2.55,1.92-.06,12.75-.06,14.35.13a2.56,2.56,0,0,1,2.27,2.56c.3,1.37-.88,2.41-2.55,2.36s-13-.09-14.4-.14C88.93,95,87.83,94.67,87.72,92.75Zm1.81-12.26c0-1.49,1.16-2.36,3.08-2.42s8.42,0,10.5,0a2.23,2.23,0,0,1,2.42,2.47c0,1-1.13,2-2.83,2s-9,.16-10.34.14S89.53,81.94,89.53,80.49Z"/><path class="cls-3" d="M132.41,92.37A1.65,1.65,0,0,1,130.82,94c-.3,0-1.18,0-2.69,0s-3.7,0-5.3,0h-2.52a2.51,2.51,0,0,1-1.76-.58,1.56,1.56,0,0,1-.43-1.18c0-1.12.85-1.75,2.33-1.75h0c.14,0,.36,0,.66,0,.49,0,1.21.06,2,.06.35,0,.74,0,1.07,0a1.15,1.15,0,0,0,1.18-1.1c0-.6,0-1.07,0-1.42s0-.88,0-1.24a1.13,1.13,0,0,0-.27-.74.91.91,0,0,0-.63-.25c-1,0-2.34,0-3,0a2,2,0,0,1-2.06-1.49,1.26,1.26,0,0,1,.31-1.09,2.31,2.31,0,0,1,1.86-.74h.06c1.45,0,5.1.08,6.11.11a1.21,1.21,0,0,1,.86.35,1.7,1.7,0,0,1,.35,1.15c0,.36-.19,3.54-.27,5.55a.74.74,0,0,0,.19.6,1.1,1.1,0,0,0,.74.27h.06a4.65,4.65,0,0,1,1.34.17A1.76,1.76,0,0,1,132.41,92.37Z"/><path class="cls-3" d="M162.39,85a1.92,1.92,0,0,1-.44,1.37,4.78,4.78,0,0,1-3.18,1c-.8.05-4.28.05-6,.05-4.33,0-6.33-.05-7.21-.08-2.31-.11-2.66-1.29-2.66-2a2.64,2.64,0,0,1,2.77-2.58c.36,0,1.95,0,3.73,0,3.13,0,4.44,0,7.22.06,1.23,0,2.08,0,2.35,0C160.69,82.76,162.28,83,162.39,85Z"/><path class="cls-3" d="M188.42,95.71c-1.26.69-2.31.17-3.92-1.29-.72-.66-1.38-1.29-2-1.86a2.08,2.08,0,0,0-2.47-.09c-1.29,1-2.36,1.84-3.18,2.34a5.15,5.15,0,0,1-4.2.9c-1.26-.38-1.86-2.44-.27-3.87s4.66-2.77,7-5.81a16.4,16.4,0,0,0,2.22-4c.36-.83-.08-1.4-1-1.43-2,0-5.4-.08-6.33-.08-1.54,0-2.88-.83-2.88-2s.93-2.33,3-2.58a107.75,107.75,0,0,1,11,.11,2.63,2.63,0,0,1,2.41,2.5c.06,1.17-.82,4-2.74,7.32a2,2,0,0,0,.36,2.72,47.12,47.12,0,0,1,3.37,3.51A2.33,2.33,0,0,1,188.42,95.71Z"/><path class="cls-3" d="M198.23,81.91c1-1.92,1.24-1.67,2.23-4.39.68-1.92,1.81-3.1,3.89-3.1s6.34,0,8.42.19,3.49,1.16,2.91,4.45a31.26,31.26,0,0,1-6.77,14.59c-1.57,1.76-3.6,2.91-4.81,2.06a2.31,2.31,0,0,1-.3-3.81,26.89,26.89,0,0,0,2.83-3.13c.66-.85.38-1.51-.22-1.78a2.65,2.65,0,0,1-1.7-1.79,2.15,2.15,0,0,1,1.86-2.44,6.14,6.14,0,0,1,1.6.17,1.45,1.45,0,0,0,1.78-.61c.16-.41.38-.93.57-1.56a1.35,1.35,0,0,0-1.15-1.7c-.93,0-1.84,0-2.6-.06a2.4,2.4,0,0,0-2.5,1.51c-.25.44-.52.91-.8,1.38a15.91,15.91,0,0,1-2.08,3,2.35,2.35,0,0,1-3,.36C197.3,84.3,197.38,83.5,198.23,81.91Z"/><path class="cls-3" d="M242.86,79.53a26.26,26.26,0,0,1-2.33,2.36,2.88,2.88,0,0,0-1,2.3c0,3.79-.2,8.39-.25,9.19-.06,1.37-.88,2.8-2.33,2.74s-2.45-1.2-2.47-3.1c0-.9,0-2.93,0-5,0-.44-.3-1.13-1.17-.58A20.11,20.11,0,0,1,229,89.46a2.72,2.72,0,0,1-3.57-1.4,2,2,0,0,1,.88-2.77c1-.61,3.73-1.92,6.69-3.93a54.51,54.51,0,0,0,6.51-5.73,2.37,2.37,0,0,1,3.48.08C244.1,76.75,244,78.15,242.86,79.53Z"/><path class="cls-3" d="M257.15,75.27c1.26.06,2.61.5,2.8,2.94a40.69,40.69,0,0,1-.47,8.86c-.57,4.61-1.2,5.71-2.52,7.46a2.91,2.91,0,0,1-3.07,1.26,2,2,0,0,1-1.48-2.52c.24-1.56,1.59-2.91,2.22-6.42a45.22,45.22,0,0,0,.24-8.78A2.31,2.31,0,0,1,257.15,75.27Zm7.68-.22a2.64,2.64,0,0,1,2.23,2.5c0,1.54-.09,7-.11,8.53,0,.52,0,1.57,0,2.47s.22,1.46,1.15,1.15,2.11-.79,2.5-.87a2.61,2.61,0,0,1,2.74,1.23c.33.88.36,2.39-1.73,3.51a27.6,27.6,0,0,1-6,2.28,2.5,2.5,0,0,1-3.16-1.48,23.5,23.5,0,0,1-.16-4.86c0-1.89,0-10.83,0-12A2.36,2.36,0,0,1,264.83,75.05Z"/><path class="cls-3" d="M292.65,78.1c-.14,1.51-.83,9.6-1,10.48A1.7,1.7,0,0,1,290,90.09h-.08a1.73,1.73,0,0,1-1.62-1.54c-.19-.77-.85-9.35-.9-10.62a3,3,0,0,1,.68-2.3,2.75,2.75,0,0,1,2.11-.91,2.28,2.28,0,0,1,1.73.77A3.79,3.79,0,0,1,292.65,78.1ZM292.18,92a2.89,2.89,0,0,1,.22,2A2.48,2.48,0,0,1,290,96a2.61,2.61,0,0,1-2.6-2.58,2.56,2.56,0,0,1,2.33-2.71,3.66,3.66,0,0,1,.57,0A2.82,2.82,0,0,1,292.18,92Z"/><path class="cls-3" d="M44.87,51.12c1.24-.7,2.47-1.44,3.73-2.12,1.5-.81,3.35-2.61,5-2.87a16.13,16.13,0,0,1,2.3.08,6.15,6.15,0,0,0,3.56-1.29c1.25-.91,2.32-2.41,2-3.92a3.15,3.15,0,0,0-3.68-2,5.11,5.11,0,0,0-3.38,3,5.92,5.92,0,0,1-.52,1,3.62,3.62,0,0,1-.83.78c-.89.64-9,2.65-8.88,3.28Z"/><path class="cls-3" d="M19,53.14c-.64,4.56,1.91,9.5,5.6,12.19,3.29,2.4,9.25,2.08,12.83,1.15C42.76,65.1,48,61.65,48.13,55.93c.36-15.54-10.63-17.08-11.43-17.1-3-.06-10.73.93-14.81,4.88C19.06,46.45,19.1,52.36,19,53.14Z"/><path class="cls-4" d="M37.42,66.48s.27,4.26,1.6,4S38.75,64.73,37.42,66.48Z"/><path class="cls-4" d="M45.21,61.88s3,3,3.81,1.95S45.06,59.68,45.21,61.88Z"/><path class="cls-4" d="M47.05,52.14s4.25.32,4.15-1S45.49,50.58,47.05,52.14Z"/><path class="cls-4" d="M45.32,47.41s4.09-1.19,3.53-2.42S43.31,46.49,45.32,47.41Z"/><path class="cls-4" d="M32.64,38.87s.91-4.17-.44-4.25S30.88,40.2,32.64,38.87Z"/><path class="cls-4" d="M27.72,39.93s-.62-4.22-1.91-3.83S26.53,41.79,27.72,39.93Z"/><path class="cls-4" d="M23.48,42.65s-2.06-3.74-3.13-2.92S23,44.81,23.48,42.65Z"/><path class="cls-4" d="M17.75,48.86s-4-1.47-4.28-.14S18.81,50.79,17.75,48.86Z"/><path class="cls-4" d="M21.52,61.12s-4,1.52-3.32,2.7S23.59,61.87,21.52,61.12Z"/><path class="cls-4" d="M29.69,66.74S27.68,70.5,29,71,31.75,65.94,29.69,66.74Z"/><path class="cls-3" d="M25.17,53.58c-1.41.2-2.83.42-4.24.58-1.71.2-4.09,1.17-5.74.79a15.55,15.55,0,0,1-2.1-.92,6.13,6.13,0,0,0-3.79-.14C7.8,54.27,6.25,55.27,6,56.8a3.16,3.16,0,0,0,2.66,3.27,5.16,5.16,0,0,0,4.24-1.48,6,6,0,0,1,.86-.74,3.36,3.36,0,0,1,1.06-.42c1.05-.26,9.33.9,9.46.27Z"/><path class="cls-5" d="M25.17,53.58s3.56-1.27,6-.1"/><path class="cls-5" d="M35.79,50.78s-.78-4,1.89-5.17"/><line class="cls-5" x1="36.98" y1="39.68" x2="37.78" y2="36.82"/><line class="cls-5" x1="41.62" y1="43.01" x2="42.6" y2="41.61"/><path class="cls-5" d="M24.89,64.18a4.07,4.07,0,0,0-1.82,2.39"/><rect class="cls-6" width="360" height="210"/></g></g></svg>