<svg xmlns="http://www.w3.org/2000/svg" viewBox="0 0 360 210"><defs><style>.cls-1{fill:#ffdf40;}.cls-2,.cls-3,.cls-5{fill:none;}.cls-2,.cls-3{stroke:#4d4d4d;stroke-linecap:round;stroke-linejoin:round;}.cls-2{stroke-width:2.29px;}.cls-3{stroke-width:1.75px;}.cls-4{fill:#b6b6b6;stroke:#b6b6b6;stroke-miterlimit:10;stroke-width:2.88px;}</style></defs><g id="レイヤー_2" data-name="レイヤー 2"><g id="section_2-1"><path class="cls-1" d="M53.77,83.45a1.71,1.71,0,0,1-1.05.8,5,5,0,0,1-.82.11,3.18,3.18,0,0,1-1.7-.58,5.82,5.82,0,0,0-2.66-.71,3.23,3.23,0,0,0-.47.05A1.72,1.72,0,0,0,45.73,85c.11,1.1,1.4,1.92,2.66,2.58a10.79,10.79,0,0,1,4.31,4.06A5.46,5.46,0,0,1,51,98.4a8.33,8.33,0,0,1-4.78,1.21c-.46,0-.93,0-1.42,0A8.07,8.07,0,0,1,41,98.08,2.32,2.32,0,0,1,42.55,94a2.85,2.85,0,0,1,1.29.3,7.92,7.92,0,0,0,2.82.57,2.56,2.56,0,0,0,1.07-.19,1.43,1.43,0,0,0,.71-1.07A1.39,1.39,0,0,0,48,92.4,10,10,0,0,0,46,91a15.92,15.92,0,0,1-3.57-2.63A6.42,6.42,0,0,1,41.53,82a6,6,0,0,1,5.87-3.68,8,8,0,0,1,1.87.22c3,.8,4.39,2.36,4.69,3.49A1.73,1.73,0,0,1,53.77,83.45Z"/><path class="cls-1" d="M76.72,85c-.08,2.86-1.61,6.07-4.8,6.34-1.2.11-2.6.17-4.14.17-.27,0-.49,0-.74,0a1.58,1.58,0,0,0-1.54,1.64c0,1.68,0,4-.08,4.59a2.39,2.39,0,0,1-2.36,2.11,2.33,2.33,0,0,1-2.36-2c-.16-1-.08-10.12-.05-14.51V81.45A2.46,2.46,0,0,1,63,78.76c.33,0,.9-.05,1.67-.05,1.65,0,4.23.08,7.08.24S76.81,81.83,76.72,85Zm-10.48,2,.42,0h1.45c1.1,0,1.92,0,2.41,0,1.07-.09,1.62-.77,1.7-2.17A1.54,1.54,0,0,0,71,83.07c-1-.08-4.17-.14-4.69-.14-.35,0-.57.14-.57.77,0,.14,0,.47,0,.82,0,.72-.06,1.7,0,2.12S65.8,87.07,66.24,87.07Z"/><path class="cls-1" d="M101.58,99.42a2.68,2.68,0,0,1-3.32-1.32c-.31-.55-.72-1.73-1.35-3a1.85,1.85,0,0,0-1.78-1.26H90s-1.15-.22-2,1.34c-.66,1.21-1.48,2.94-1.7,3.27-.91,1.26-1.45,1.62-2.72,1.34s-2-1.45-1.37-3.21,5.38-11.13,6.09-12.86,1.48-4.26,2.77-4.8,3.6-.28,4.31.93,6.58,15.72,7.13,16.87A1.94,1.94,0,0,1,101.58,99.42ZM92.17,85.89c-.31.64-.69,1.49-1.08,2.42-.49,1.12.55,1.07.55,1.07l2,0s.88,0,.55-1c-.3-.83-.74-1.76-1-2.47S92.47,85.21,92.17,85.89Z"/><path class="cls-1" d="M115.09,85.18c-1.17-.11-2.71-.41-2.74-2.55s2.11-2.44,4.25-2.47,8-.11,9.77.11,3.27,1.56,2.44,4-1.92,2.63-2.19,6.75c-.25,3.46,2.08,3.68,2.69,4.55a2.53,2.53,0,0,1-1.29,4c-1.76.49-4.61-1.18-6.18-4.78-1.26-2.82-.52-6.53.42-8.64.3-.68-.06-.9-.91-.88C119.65,85.29,116.77,85.32,115.09,85.18Zm14-6.2c.8-.38,1.37.14,2.25,1.32,1.23,1.67,1.26,2.55.36,3s-2.09-.58-2.88-2.09C128.37,80.43,128.29,79.36,129.06,79ZM132,77.64c.79-.39,1.59.19,2.35,1.48s.91,2.22,0,2.69c-1.07.52-1.83-.55-2.63-1.92C131.28,79.12,131.2,78.05,132,77.64Z"/><path class="cls-1" d="M146.36,79.45a2.57,2.57,0,0,1,2.47,2.69c.06,1.59.11,5.07.06,6.31a2.58,2.58,0,0,1-2.17,2.44,2.78,2.78,0,0,1-2.66-2.33c-.36-1.51,0-3.93-.14-6.07A2.62,2.62,0,0,1,146.36,79.45Zm11.42-.06c1.07,0,2.16.66,2.49,2.61.5,2.93,0,9.44-1.7,13-1.42,3-3.18,4.61-5.92,5.24-1.51.33-2.58-.22-2.91-.93a2.27,2.27,0,0,1,.66-2.89c1.64-1.42,2.93-1.59,4-4.17,1.24-3.12,1.27-8.12,1.16-10A2.4,2.4,0,0,1,157.78,79.39Z"/><path class="cls-1" d="M192.09,89.24v0c-.11,2.41-.14,3.07-1.84,6.23a8.63,8.63,0,0,1-5.18,4.39,6.41,6.41,0,0,1-2.23.46,3.93,3.93,0,0,1-1.94-.52,2.12,2.12,0,0,1-1.05-2,2.05,2.05,0,0,1,1.27-1.81c.33-.13.63-.27.93-.38A8.86,8.86,0,0,0,186,93.11a5.71,5.71,0,0,0,1.29-2.5c.19-.66-.3-1.37-1.42-1.31-2.5.13-7.11.13-8.87.13h-.6c-1.92-.05-2.72-.66-2.72-2.05S174.78,85,176.84,85h1.56c2.09-.06,5.57-.11,8.09-.11,1.54,0,2.53,0,2.94.08C190.72,85.1,192.25,86,192.09,89.24Zm-16.93-7.9c0-1.43,1.07-2.33,2.94-2.39.3,0,.71,0,1.26,0,1.65,0,4.12,0,6.09.11.91,0,1.73,0,2.25,0a2.17,2.17,0,0,1,2.41,2.39c0,1-1,2-2.74,2-1.23,0-5.62,0-8.06,0h-1.38C176.56,83.51,175.16,82.77,175.16,81.34Z"/><path class="cls-1" d="M210.05,92a1.49,1.49,0,0,1-.6.11,2.07,2.07,0,0,1-1.76-1,17.39,17.39,0,0,1-1.07-2.88,1.81,1.81,0,0,1,.14-1.43,1.66,1.66,0,0,1,1.1-.74,4.19,4.19,0,0,1,.47,0c1,0,1.39.74,1.7,1.37a11.55,11.55,0,0,1,1,2.94A1.39,1.39,0,0,1,210.05,92Zm10.62-2c-.47,1.53-2.33,6.72-7.16,9.22a3,3,0,0,1-1.34.35,1.87,1.87,0,0,1-1.54-.79,1.64,1.64,0,0,1-.3-1.24,2.74,2.74,0,0,1,1.34-1.7l.19-.11a11.64,11.64,0,0,0,5.3-6.69c.41-1.21,1-2.34,2.19-2.34a1.59,1.59,0,0,1,.36,0,1.39,1.39,0,0,1,1,.63A3.42,3.42,0,0,1,220.67,90Zm-9.77-2.39a1.83,1.83,0,0,1,.11-1.43,1.7,1.7,0,0,1,1.13-.71,1.54,1.54,0,0,1,.46-.05,1.84,1.84,0,0,1,1.68,1.34,11,11,0,0,1,1,2.94,1.38,1.38,0,0,1-1,1.67,1.49,1.49,0,0,1-.6.11,2.07,2.07,0,0,1-1.76-1A15.76,15.76,0,0,1,210.9,87.65Z"/><path class="cls-1" d="M253.09,91.22a9.24,9.24,0,0,1-3,.49,11.65,11.65,0,0,1-3.75-.69c-.58-.19-1.18-.43-1.68-.63a12.46,12.46,0,0,0-3.92-1.12,6.32,6.32,0,0,0-2.94.44c-1.56,1.1-2.91,1-3.56-.17-1.05-1.83.6-2.85,1.7-3.54a9,9,0,0,1,4.33-1,8.56,8.56,0,0,1,2.28.3c.88.28,1.86.69,2.8,1.07,1.56.69,3.18,1.38,4.22,1.29a12.41,12.41,0,0,0,2.47-.41c.36-.08.72-.16,1.1-.22a2,2,0,0,1,2.25,1.43C255.53,89.32,254.9,90.59,253.09,91.22Z"/><path class="cls-1" d="M269.33,89.27c-1.35.77-3.71.22-3.32-2.2.22-1.4,1.09-1.75,2.33-4.52,1.1-2.5,2-3.4,4.09-3.3s7.84,0,9.24.28,2.86,1.67,2.12,5.29c-1.18,5.85-3.11,10.76-6.67,13.94-2.55,2.28-3.71,1.65-4.58.85s-.69-2.38.76-3.87A20.46,20.46,0,0,0,277.37,90a14.21,14.21,0,0,0,1.37-4.22c.24-1.37-1.29-1.59-1.29-1.59h-2.66a2.47,2.47,0,0,0-2.58,1.42A9.7,9.7,0,0,1,269.33,89.27Z"/><path class="cls-1" d="M314.48,99.72c-1.27.69-2.31.17-3.93-1.29-.71-.66-1.37-1.29-2-1.86a2.08,2.08,0,0,0-2.47-.09c-1.29,1-2.36,1.84-3.18,2.34a5.15,5.15,0,0,1-4.2.9c-1.26-.38-1.86-2.44-.27-3.87s4.66-2.77,7.05-5.81a16.75,16.75,0,0,0,2.22-4c.36-.83-.08-1.4-1-1.43-2,0-5.4-.08-6.33-.08-1.54,0-2.88-.83-2.88-2s.93-2.33,3-2.58a107.75,107.75,0,0,1,10.95.11,2.63,2.63,0,0,1,2.41,2.49c.06,1.18-.82,4-2.74,7.33a2,2,0,0,0,.35,2.72,45.5,45.5,0,0,1,3.38,3.51A2.33,2.33,0,0,1,314.48,99.72Z"/><path class="cls-2" d="M3,78.16c-6.18,15.74,7.47,33.94,30.05,32.26a1,1,0,0,1,.25,0c-4.63,13.79,9,32,25.29,23.88"/><path class="cls-2" d="M357,65.64c6.18,15.74-7.47,33.94-30.05,32.26a1,1,0,0,0-.25,0c4.63,13.8-9,32-25.29,23.89"/><path class="cls-2" d="M316.94,41.89c2,.37,3.36,3.15,2.55,5.22-.95,2.41-3.61,3.67-6.14,4.24-7.61,1.69-23.28,2-25-8.41-1-6.09,5-12.24,11.14-11.36-2.52-2.07-1.79-6.44.69-8.56s6-2.5,9.26-2.45a10,10,0,0,1,4.68.9,4,4,0,0,1,2.23,3.92c3.74-.12,7.64-.05,11,1.63s5.95,5.4,5.15,9.05c-.7,3.18-3.75,5.41-6.92,6.13s-6.48.22-9.7-.28A2.66,2.66,0,0,1,316.94,41.89Z"/><path class="cls-3" d="M160,134.86c-1.77-2.11-4.65-2.84-7.34-3.44s-5.45-1.22-8.16-.72-5.34,2.4-5.82,5.11c-.74,4.22,3.66,7.37,7.45,9.36-2.68-1.84-6.8-.11-8,2.93s.29,6.64,2.83,8.67a14,14,0,0,0,9.18,2.63c3.34-.08,6.81-1,9.24-3.27s3.5-6.21,1.86-9.12c-.43.3-.16,1,.18,1.37a10.07,10.07,0,1,0,5.4-16.24"/><path class="cls-4" d="M149.28,39.13a.68.68,0,0,1,.1,1l-.1.1a13.3,13.3,0,0,0-1.11,1,14,14,0,0,0,4.47,22.9,1.44,1.44,0,0,0,2-.54,1.2,1.2,0,0,0,.13-.31c.56-1.26,0-1.75-.85-2.1a10.85,10.85,0,0,1-5.78-14.23,10.67,10.67,0,0,1,2.33-3.46,11,11,0,0,1,3.45-2.33c.59-.25,1.11-.31,1.11-1.47s-.56-1.23-1.11-1.48a10.65,10.65,0,0,1-3.45-2.32,10.84,10.84,0,0,1,0-15.34l0,0a10.6,10.6,0,0,1,3.44-2.32c.81-.35,1.41-.74.85-2.1s-1.29-1.2-2.1-.85a14.06,14.06,0,0,0-4.44,22.9A10.43,10.43,0,0,0,149.28,39.13Z"/><path class="cls-4" d="M174.28,39.13a.69.69,0,0,1,.1,1l-.1.1a13.3,13.3,0,0,0-1.11,1,14,14,0,0,0,4.47,22.9,1.44,1.44,0,0,0,2-.54,1.69,1.69,0,0,0,.13-.31c.55-1.26,0-1.75-.86-2.1a10.87,10.87,0,0,1-5.78-14.23,10.92,10.92,0,0,1,5.78-5.79c.6-.25,1.11-.31,1.11-1.47s-.55-1.23-1.11-1.48a10.85,10.85,0,0,1-3.47-17.66l0,0a10.82,10.82,0,0,1,3.44-2.32c.82-.35,1.41-.74.86-2.1s-1.29-1.2-2.1-.85a14.07,14.07,0,0,0-4.45,22.9A11.66,11.66,0,0,0,174.28,39.13Z"/><path class="cls-4" d="M199.27,39.13a.68.68,0,0,1,.11,1l-.11.1c-.38.32-.75.65-1.11,1a14.06,14.06,0,0,0,4.48,22.9,1.44,1.44,0,0,0,2-.54,2.88,2.88,0,0,0,.13-.31c.55-1.26,0-1.75-.86-2.1a10.86,10.86,0,0,1-5.78-14.23,10.92,10.92,0,0,1,5.78-5.79c.59-.25,1.11-.31,1.11-1.47s-.55-1.23-1.11-1.48a10.85,10.85,0,0,1-3.47-17.66l0,0a10.71,10.71,0,0,1,3.44-2.32c.82-.35,1.41-.74.85-2.1s-1.28-1.2-2.1-.85a14.06,14.06,0,0,0-4.44,22.9A11.54,11.54,0,0,0,199.27,39.13Z"/><rect class="cls-5" width="360" height="210"/></g></g></svg>