<svg xmlns="http://www.w3.org/2000/svg" viewBox="0 0 405 210"><defs><style>.cls-1,.cls-2,.cls-4,.cls-5,.cls-6{fill:none;}.cls-1,.cls-2,.cls-4,.cls-5{stroke:#4d4d4d;stroke-linecap:round;stroke-miterlimit:10;}.cls-1{stroke-width:2.29px;}.cls-2{stroke-width:2.39px;}.cls-3{fill:#ffdf40;}.cls-4{stroke-width:2.33px;}.cls-5{stroke-width:1.71px;}</style></defs><g id="レイヤー_2" data-name="レイヤー 2"><g id="section_2-1"><path class="cls-1" d="M319.16,53.33c40,7.47,70,19.86,70.67,40.39.88,28.18-79.39,43-116.8,53.09-39.73,10.7-42.5,17-44,28.82"/><path class="cls-1" d="M201.76,42.83c27,.77,57.11,2.39,85.22,5.7"/><path class="cls-2" d="M218.43,197.9c7.58-24.86-12.07-44.62-28.82-46.39-81.08-8.6-175.69-7.14-174.43-49.71,1.27-42.92,62.74-59.65,135-59.65,6.62,0,14,0,22,.12"/><path class="cls-3" d="M138.36,78.91c-1.35,1.12-1.84,1-2.83.71s-1.21-1.65-.49-3a9.81,9.81,0,0,0,.66-1.79c.22-.68-.17-1.26-1-1.23h-.57c-1.71,0-1.76,1.07-1.79,1.67a35.35,35.35,0,0,1-1.51,9.11c-.82,2.61-2.19,4.11-3.76,4.14A2.05,2.05,0,0,1,124.86,86c.22-1.51,1.73-2.88,2.08-4.63a31.29,31.29,0,0,0,.64-5.71,1.8,1.8,0,0,0-2.09-1.89c-.63,0-1.1,0-1.43,0-2.3,0-3.7-.13-4.06-1.92s.61-2.93,3.93-2.93c3.89,0,11.66-.14,13.6.08a3.54,3.54,0,0,1,3.19,3.43C140.85,74.1,139.7,77.78,138.36,78.91Z"/><path class="cls-3" d="M165.51,72.57a26.26,26.26,0,0,1-2.33,2.36,2.88,2.88,0,0,0-1,2.3c0,3.79-.19,8.4-.24,9.19-.06,1.37-.88,2.8-2.34,2.75s-2.44-1.21-2.47-3.1c0-.91,0-2.94,0-5,0-.44-.3-1.13-1.18-.58a19.87,19.87,0,0,1-4.33,2.06,2.72,2.72,0,0,1-3.57-1.4,2,2,0,0,1,.88-2.77c1-.6,3.73-1.92,6.69-3.92a56.15,56.15,0,0,0,6.51-5.74,2.37,2.37,0,0,1,3.48.08C166.75,69.8,166.66,71.2,165.51,72.57Z"/><path class="cls-3" d="M195.05,76.35c-.16.77-.16,2.12-3.34,2.12H190a2,2,0,0,0-2,1.42c-.41,2.12-1.51,6-4.17,8.12-1.7,1.38-3,1.73-4.12.31-1-1.27.33-2.5,1.95-4.81A13,13,0,0,0,183.28,80c.25-.83-.43-1.46-1.4-1.48l-3.12-.06c-2.33,0-3.49-.25-3.76-1.43s.14-2.85,2.88-3,13.25-.13,15.14.14S195.19,75.56,195.05,76.35Zm-16.57-6.28c0-1.32.85-2.36,3.32-2.36s6.56.14,8.15.14a5.39,5.39,0,0,1,.6.05,1.67,1.67,0,0,0,1.07,0c.83-.27,1.35.14,2.23,1.32,1.26,1.67,1.29,2.55.38,3-.52.24-1.12-.06-1.78-.58a1.23,1.23,0,0,0-1.29-.11,3.38,3.38,0,0,1-1.65.41H182C180.21,72,178.48,71.36,178.48,70.07Zm18.41.69c-1.07.52-1.84-.55-2.6-1.9-.44-.79-.53-1.86.27-2.27s1.59.22,2.36,1.48S197.82,70.29,196.89,70.76Z"/><path class="cls-3" d="M217.74,77.59a20.12,20.12,0,0,1-1.54,1.53,1.81,1.81,0,0,0-.6,1.43c0,2.72-.14,6-.17,6a1.79,1.79,0,0,1-1.62,1.92h0c-1,0-1.73-.88-1.73-2.17V83.05a.49.49,0,0,0-.11-.33c-.11-.11-.25-.08-.47,0a14,14,0,0,1-2.88,1.35,2.63,2.63,0,0,1-.8.13,1.82,1.82,0,0,1-1.67-1.09,1.44,1.44,0,0,1,.6-2l.85-.46a41.09,41.09,0,0,0,3.54-2.12,23.9,23.9,0,0,0,3.46-3c.33-.33.6-.57.8-.77a1.75,1.75,0,0,1,2.47.06A1.84,1.84,0,0,1,217.74,77.59Z"/><path class="cls-3" d="M248.07,78.91c-1.34,1.12-1.84,1-2.82.71s-1.21-1.65-.5-3a9.12,9.12,0,0,0,.66-1.79c.22-.68-.16-1.26-1-1.23h-.58c-1.7,0-1.76,1.07-1.78,1.67a35.35,35.35,0,0,1-1.51,9.11c-.82,2.61-2.2,4.11-3.76,4.14a2.06,2.06,0,0,1-2.2-2.58c.22-1.51,1.73-2.88,2.09-4.63a31.15,31.15,0,0,0,.63-5.71,1.79,1.79,0,0,0-2.08-1.89c-.64,0-1.1,0-1.43,0-2.31,0-3.7-.13-4.06-1.92s.6-2.93,3.92-2.93c3.9,0,11.66-.14,13.61.08a3.54,3.54,0,0,1,3.18,3.43C250.57,74.1,249.42,77.78,248.07,78.91Z"/><path class="cls-3" d="M275.45,86.78c-.09,1.43-1,2.19-3.13,2.28s-6.89.38-8.64-2.78a5.56,5.56,0,0,1-.36-4.82c.22-.52,0-.66-.66-.58a3.26,3.26,0,0,1-2.63-.44c-1.21-1.12-.47-2.85.3-4.25.22-.47.69-1.15,1.15-2,.33-.61-.33-1-.66-1.16a2.08,2.08,0,0,1-1.53-1.81c-.14-1.34.74-2.3,3-2.3H263a2.77,2.77,0,0,0,2.5-1.18A2.37,2.37,0,0,1,268,67c.47.16,1.07.65,1,.85a1.68,1.68,0,0,0,1.79,1.18c.41,0,.74,0,1,0a2.17,2.17,0,0,1,2.27,2.06A2.07,2.07,0,0,1,272,73.36c-.57.06-2,.09-3.48.09a2.28,2.28,0,0,0-2.22,1.09c-.47.69-.31,1.16.43,1.1a8,8,0,0,1,2,.11,2,2,0,0,0,2.08-.33c.94-.63,2.42-1.15,3.43-.08s.25,2.25-.49,2.93a1.66,1.66,0,0,0-.44,1.6,1.87,1.87,0,0,1-.8,2.19c-1.09.74-2.52.14-3.37-.36a1.14,1.14,0,0,0-1.37,0,1.47,1.47,0,0,0-.14,2.09c1.23,1.26,4.77.74,5.87.79A2,2,0,0,1,275.45,86.78Z"/><path class="cls-3" d="M96.64,110.3c-1.35.77-3.71.22-3.32-2.19.22-1.4,1.09-1.76,2.33-4.53,1.1-2.5,1.95-3.4,4.09-3.29s7.84-.06,9.24.27,2.86,1.68,2.12,5.3c-1.18,5.84-3.11,10.75-6.67,13.93-2.55,2.28-3.71,1.65-4.58.85s-.69-2.38.76-3.86a20.6,20.6,0,0,0,4.07-5.79,14.36,14.36,0,0,0,1.37-4.23c.24-1.37-1.29-1.59-1.29-1.59H102.1a2.48,2.48,0,0,0-2.58,1.43A9.74,9.74,0,0,1,96.64,110.3Z"/><path class="cls-3" d="M124,100.48a2.58,2.58,0,0,1,2.47,2.69c.06,1.59.11,5.07.06,6.31a2.58,2.58,0,0,1-2.17,2.44,2.77,2.77,0,0,1-2.66-2.33c-.36-1.51,0-3.93-.14-6.07A2.62,2.62,0,0,1,124,100.48Zm11.42-.06c1.07,0,2.16.66,2.49,2.61.5,2.94,0,9.44-1.7,13-1.43,3-3.18,4.61-5.93,5.24-1.5.33-2.57-.22-2.9-.93a2.25,2.25,0,0,1,.66-2.88c1.64-1.43,2.93-1.59,4-4.17,1.24-3.13,1.27-8.12,1.16-10A2.41,2.41,0,0,1,135.4,100.42Z"/><path class="cls-3" d="M167.87,118.48c0,1.07-1.23,2.11-3,2s-13.58,0-14.92,0-3-.91-2.91-2.47,1.26-2.66,3.27-2.66c.55,0,1.7.08,3.12,0a1.9,1.9,0,0,0,2-1.87l0-5.49a1.48,1.48,0,0,0-1.65-1.42c-1.09,0-1.92,0-2.22,0a2.57,2.57,0,0,1-2.47-2.39,2.44,2.44,0,0,1,2.61-2.49c1.48.11,11.3.13,12.62.22,1.56.11,2,1.89,1.95,2.71a2.15,2.15,0,0,1-2.25,1.9h-1.92c-2.28,0-2,1.59-2,1.59l-.05,5.73a1.52,1.52,0,0,0,1.73,1.65,35.37,35.37,0,0,1,3.65.11A2.49,2.49,0,0,1,167.87,118.48Z"/><path class="cls-3" d="M192.94,104.57a26.26,26.26,0,0,1-2.33,2.36,2.88,2.88,0,0,0-1,2.3c0,3.79-.19,8.4-.24,9.19-.06,1.37-.88,2.8-2.34,2.75s-2.44-1.21-2.47-3.1c0-.91,0-2.94,0-5,0-.44-.3-1.13-1.18-.58a19.87,19.87,0,0,1-4.33,2.06,2.72,2.72,0,0,1-3.57-1.4,2,2,0,0,1,.88-2.77c1-.6,3.73-1.92,6.69-3.92a56.15,56.15,0,0,0,6.51-5.74,2.37,2.37,0,0,1,3.48.08C194.18,101.8,194.09,103.2,192.94,104.57Z"/><path class="cls-3" d="M222.48,108.35c-.16.77-.16,2.12-3.34,2.12h-1.68a2,2,0,0,0-2,1.42c-.41,2.12-1.51,6-4.17,8.12-1.7,1.38-3,1.73-4.12.31-1-1.27.33-2.5,2-4.81a13,13,0,0,0,1.59-3.56c.25-.83-.44-1.46-1.4-1.48l-3.12-.06c-2.34,0-3.49-.25-3.76-1.43s.13-2.85,2.88-3,13.25-.13,15.14.14S222.62,107.56,222.48,108.35Zm-16.57-6.28c0-1.32.85-2.36,3.32-2.36s6.56.14,8.15.14a2.26,2.26,0,0,1,2.33,2.22c0,.91-1.15,1.92-2.77,1.92H209.4C207.64,104,205.91,103.36,205.91,102.07Z"/><path class="cls-3" d="M245.17,109.59c-.33.38-.86.9-1.54,1.53a1.81,1.81,0,0,0-.6,1.43c0,2.72-.14,6-.17,6a1.79,1.79,0,0,1-1.62,1.92h0c-1.05,0-1.73-.88-1.73-2.17v-3.29a.49.49,0,0,0-.11-.33c-.11-.11-.25-.08-.47,0a14,14,0,0,1-2.88,1.35,2.63,2.63,0,0,1-.8.13,1.82,1.82,0,0,1-1.67-1.09,1.44,1.44,0,0,1,.6-2l.85-.46a41.09,41.09,0,0,0,3.54-2.12,23.9,23.9,0,0,0,3.46-3c.33-.33.6-.57.8-.77a1.75,1.75,0,0,1,2.47.06A1.84,1.84,0,0,1,245.17,109.59Z"/><path class="cls-3" d="M276.57,102.13c1.26,1.67,1.26,2.55.36,3a1.13,1.13,0,0,1-.5.11.55.55,0,0,0-.52.6c0,.25,0,.49,0,.74a22.5,22.5,0,0,1-2.8,9.49,9.82,9.82,0,0,1-6,4.42c-1.92.58-3.13.71-4.47-.08s-1.18-3.18.65-3.87,4-.91,5.82-3.16a10.08,10.08,0,0,0,1.95-5.35c.05-1.18-.69-1.5-1.9-1.5-2.74,0-7.48.08-8.44,0-1.9-.14-2.83-.83-2.78-2.36s1.43-2.39,3.46-2.34,10.21,0,11.82.17c.39.05.53-.33.58-.52a1,1,0,0,1,.52-.66C275.12,100.42,275.69,101,276.57,102.13Zm3.05,1.5c-1.07.53-1.84-.54-2.64-1.92-.43-.76-.49-1.83.31-2.25s1.56.2,2.33,1.49S280.55,103.17,279.62,103.63Z"/><path class="cls-3" d="M290.61,120a1.81,1.81,0,0,1-1.07.33,3.66,3.66,0,0,1-3-2.42c-1-2.11-1.42-4.33-1.5-8a21.38,21.38,0,0,1,.79-6.31c.52-1.94,1.62-3.1,2.94-3s2.14,1.18,2.19,2.82a10.54,10.54,0,0,1-.35,2.47,20.42,20.42,0,0,0-.55,3.49,21.68,21.68,0,0,0,.63,6c.05.27.11.49.13.66a4.8,4.8,0,0,0,.2.76C291.33,117.82,291.74,119.22,290.61,120Zm13.31-14.13a1.64,1.64,0,0,1-1.65.93,2.69,2.69,0,0,1-.68-.06c-.52-.11-.94-.21-1.29-.32a5.48,5.48,0,0,0-1.76-.31,7.42,7.42,0,0,0-2.47.31,1.86,1.86,0,0,1-2.44-.58,1.79,1.79,0,0,1-.33-1.32,2.9,2.9,0,0,1,1.15-1.89,6.87,6.87,0,0,1,3.79-.93,7.77,7.77,0,0,1,1.21.08,7.06,7.06,0,0,1,4.19,1.84A2.05,2.05,0,0,1,303.92,105.86Zm-1.87,13.52a7.83,7.83,0,0,1-1.95.22,15,15,0,0,1-2.38-.22,6.58,6.58,0,0,1-3.46-1.4,2.48,2.48,0,0,1-.57-3.29,2.41,2.41,0,0,1,2.08-1,3.14,3.14,0,0,1,1.45.36,9.78,9.78,0,0,0,3.71.66c.25,0,.44,0,.63,0a2.54,2.54,0,0,1,2.66,2.2C304.3,117.79,304,118.94,302.05,119.38Z"/><path class="cls-1" d="M87.94,39.43,85.66,37.5c-1.25-1.06-1-3.4.48-5.2l14.29-16.92a4.3,4.3,0,0,1,6-.51L116,22.93"/><path class="cls-1" d="M122.53,28.43l2.07,1.74c1.13,1,.82,3.22-.7,5L109.62,52.11a4.3,4.3,0,0,1-6,.51l-8.25-7"/><path class="cls-4" d="M162.41,155.36l3.36-1.17c1.84-.64,1.33-2.83-1.15-4.86l-18.3-15.07c-2.48-2-4.77-1.1-5.1,2.09L139,157.88c-.32,3.19,1.88,5.09,4.91,4.22l5.49-1.58"/><circle class="cls-5" cx="288.52" cy="46.7" r="11.05"/><rect class="cls-6" width="405" height="210"/></g></g></svg>