<svg xmlns="http://www.w3.org/2000/svg" viewBox="0 0 270 270"><defs><style>.cls-1{fill:#ffdf40;}.cls-13,.cls-2{fill:#fff;}.cls-10,.cls-11,.cls-12,.cls-15,.cls-3,.cls-5,.cls-7,.cls-8,.cls-9{fill:none;}.cls-10,.cls-11,.cls-12,.cls-13,.cls-3,.cls-5,.cls-6,.cls-8,.cls-9{stroke:#4d4d4d;}.cls-10,.cls-12,.cls-13,.cls-3,.cls-5,.cls-7,.cls-8,.cls-9{stroke-linecap:round;stroke-linejoin:round;}.cls-3{stroke-width:2.29px;}.cls-4,.cls-6{fill:#4d4d4d;}.cls-13,.cls-5,.cls-7{stroke-width:1.66px;}.cls-11,.cls-14,.cls-6{stroke-miterlimit:10;}.cls-10,.cls-11,.cls-6{stroke-width:1.14px;}.cls-7{stroke:#fff;}.cls-8{stroke-width:1.71px;}.cls-9{stroke-width:0.9px;}.cls-12{stroke-width:0.86px;}.cls-14{fill:#b6b6b6;stroke:#b6b6b6;stroke-width:2.88px;}</style></defs><g id="レイヤー_2" data-name="レイヤー 2"><g id="section_2-1"><path class="cls-1" d="M183.19,101.51s5.71.71,15.69-5c0,0-6.3,17.82-12.12,22.1S183.19,101.51,183.19,101.51Z"/><path class="cls-2" d="M100.91,155.77c.74-3.17-1.26-6.66-4.92-8.18a8.74,8.74,0,0,0-8.39.73,8.36,8.36,0,0,0-4.51-4.24c-4.12-1.72-8.78-.32-10.41,3.13,0,.09-.07.19-.11.29-4-1.39-8.31,0-9.86,3.33a6,6,0,0,0-.32,4.17c-4.41,1.28-12.25,7.75-12.25,12.32,0,5.61,1.43,7.4,7.4,7.4h54.11c2.45,0,5.69-5.12,2.28-10.25S102.9,156.78,100.91,155.77Z"/><path class="cls-3" d="M91.28,149.9s8-4.93,13.28,2.28a7.69,7.69,0,0,1,1.13,8s.83.58,5,3.59c7.26,5.3,3.28,12.13,3.28,12.13"/><path class="cls-4" d="M64.17,157c.22.28.16.21,0,0a5.63,5.63,0,0,1-.37-.62,5.13,5.13,0,0,1-.61-1.75,4.53,4.53,0,0,1,2.09-4c2.07-1.63,4.6-1.55,6.89-.74l.39.15.12,0c.16.06-.25-.12,0,0s.34.15.5.24a3.88,3.88,0,0,1,.45.24,1.16,1.16,0,0,0,1.72-1c0,.2-.06.22,0,0s-.09.15,0-.06.24-.43.38-.64a13.52,13.52,0,0,1,4.91-4.28,7.41,7.41,0,0,1,4.39-.36,7.63,7.63,0,0,1,1.72.63l.69.4.33.22.19.14a8.58,8.58,0,0,1,.95.86c.13.14.56.68.2.21a1.18,1.18,0,0,0,1.56.41,1.15,1.15,0,0,0,.41-1.57,9.68,9.68,0,0,0-10.81-3.23,12.57,12.57,0,0,0-4.68,3.18c-1,1-2.47,2.5-2.56,4l1.72-1A11.17,11.17,0,0,0,68.9,147,8.46,8.46,0,0,0,64,148.71c-1.77,1.35-3.24,3.34-3.11,5.67a7.75,7.75,0,0,0,1.66,4.23,1.14,1.14,0,0,0,1.61,0,1.18,1.18,0,0,0,0-1.62Z"/><path class="cls-3" d="M58,160.34s-10.1,1.28-3.83,15.52"/><path class="cls-3" d="M69.51,161.31a6,6,0,0,0,5.11,4.11"/><path class="cls-3" d="M85.43,154.41s7.21,2.12,6.75,6.78"/><path class="cls-2" d="M170.63,134.35s13.38-3.48,14.11-5.68,1.65-5.13,1.65-5.13,14.66-3.67,23.82-1.84,13.56,4.4,13.93,9.9-13,18.69-13,18.69l2.93,17.6-4.4,1.28-23.09.37c-.55,0-7.7-8.25-7.7-8.25l-12.46-8.06-31.26,7.22s-6.42,1.3-7.72-.36c-3.64-4.69-11.23-17.49-11.23-17.49S105,137.07,105,135.39s2.1-.42,2.1-.42-2.31-2.51,0-2.72l1.88,1s-1.67-1.67-1-2.72,2.09.21,2.09.21-2.51-3.56-1.88-4,6.91,6.07,8.8,7.75-1.89-4.61-.21-4.61,1,.84,2.3,2.72,5,8.18,5,8.18l7.87,9.82,13.93-6.6Z"/><path class="cls-4" d="M212,166.79s1.55,12.68-21.23,18.75c-10.65,2.84-23.35-.57-23.35-.57l10.68,24.7-7.51,5.86L157.43,202s-11.91-15.39-14.84-22.72,7.33-12.1,7.33-12.1,1.28-10.63,1.28-12.46,1.83-8.43,8.43-8.79,34.64,19,34.64,19S205.63,162,212,166.79"/><path class="cls-1" d="M170.63,220.3s-13.2,4.4-9.9,7.33c2,1.75,3,4.06,6.78,3.3,2.53-.52,8.43-4,8.43-4s9.17-4,10.45-5.5-3.12-5.13-4.22-5.13-5.86,3.3-5.86,3.3Z"/><path class="cls-2" d="M183.83,113.45s2.93,17.3-3.49,20.15-13.59-3.93-17.7-6.6c-12.5-8.14-7.29-19.23-7.29-19.23Z"/><path class="cls-1" d="M150.17,203.06c-2.39-.33-11.17-5-14.54-2.55-5.14,3.66,12.82,11,12.82,11s6.23,4.4,8.07,3.3,3.69-6.87,2.56-7.33-4.15,0-5.13-.73C153.39,206.29,151.66,203.26,150.17,203.06Z"/><path class="cls-5" d="M176.31,211.68c.55,0,22.36-10.07,26.2-11.17s10.63-1.1,9.72,3.29-7.7,11.37-17.41,18c-5.55,3.77-18.69,9.53-24.74,9.72s-22.18-.74-26.39-3.3-8.43-6.13-2-6.78c5.74-.59,7.52-1.29,14.3-2.2S176.31,211.68,176.31,211.68Z"/><path class="cls-6" d="M176,230.53s-2.85,1.14-18.79-2.84S132.72,210,124.63,205.82c-9.11-4.74-16.49,2.38-11.73,8.8s12.52,12.41,27.5,16.69C157.75,236.26,176,230.53,176,230.53Z"/><path class="cls-7" d="M188,165.61c-7-.37-33.46,2.28-33.46,2.28"/><path class="cls-1" d="M185.22,112.21c-6.71,5.1-18.95,1-18.95,1-4.51-.48-9-3.78-12.64-8.49S154.54,91,161.76,99c0,0,8.59.36,13.59-1.07s13.55-7.13,13.55-7.13S188.36,109.82,185.22,112.21Z"/><path class="cls-8" d="M160.12,99s-11.77-4.24-10.33,2.36,9.13,9,9.13,9"/><path class="cls-8" d="M157,106.13s0,9.53,14.73,5.6"/><path class="cls-9" d="M193.54,218.83a148.38,148.38,0,0,0,11.5-9.77c4.93-4.93,1-6.35,1-6.35"/><polyline class="cls-10" points="176.31 219.56 170.44 212.97 178.14 209.67 182.17 216.27"/><polyline class="cls-11" points="158.35 209.3 162.75 196.84 155.05 194.64 153.52 204.03"/><polygon class="cls-1" points="192.07 129.59 177.14 150.23 219.01 169.72 232.75 147.73 192.07 129.59"/><path class="cls-8" d="M179.63,115s-1.79-3.63-.89-5.24,4.47-1.19,6.7,1.9c4.47,6.19-1.79,7.62-1.79,7.62"/><path class="cls-8" d="M163.57,152.77,132.31,160s-6.42,1.31-7.72-.36c-3.64-4.69-11.23-17.49-11.23-17.49s-11.18-5.53-11.18-7.21,2.1-.42,2.1-.42-2.31-2.51,0-2.72l1.88,1.05s-1.67-1.68-1-2.73,2.09.21,2.09.21-2.51-3.56-1.88-4,6.91,6.08,8.8,7.75-1.89-4.61-.21-4.61,1,.84,2.3,2.73,5,8.17,5,8.17l7.87,9.82,13.93-6.59,24.74-9.72"/><path class="cls-8" d="M191.38,121.76s29.75-4.39,32.76,9.84c1.41,6.67-10,16.35-10,16.35"/><path class="cls-2" d="M201.72,132.25s5.17.86,5.6,4.6c.22,1.89-4.28,8.39-6.7,14.09-.47,1.12-7.9,7.87-8.43,9-2.13,4.5,6.42,3.49,6.42,3.49l4.16-5.77,10.53-11.39s9.88-7.37,8.14-15.32S199.07,124,199.07,124Z"/><path class="cls-8" d="M204.16,147c2.09-3.14,5.61-10.33,5.32-11.91-.55-2.93-6-3.11-6-3.11"/><path class="cls-8" d="M203.25,156.89l-2.93,6.23s-2.39.37-1.47-1.28c0,0-2,.37-1.65-.55,0,0-2.2.18-1.65-.73,0,0-2.2,1.46-2.38.73s.73-1.65.73-1.65l4-4.77s-5.13.37-3.48-.55,7-2.93,7.88-3.66"/><line class="cls-8" x1="211.13" y1="150.29" x2="204.9" y2="156.16"/><path class="cls-2" d="M114.63,33.28c-12.5-2.23-63.48,14.65-53.57,24.56C71.33,68.11,92.61,83.43,92.61,89.68s-21.73,40.93-7.45,40.93,51.79-13.4,57.15-17.41-26.79-22.33-29.47-29.47S127.55,35.59,114.63,33.28Z"/><path class="cls-8" d="M91.35,123.91s15.62-8.48,21-10.27,21-3.12,25.89-2.23"/><path class="cls-8" d="M93,83.44c2.2,2.51,3.56,4.66,3.56,6.24,0,6.25-21.73,40.93-7.44,40.93s51.78-13.4,57.14-17.41-26.79-22.33-29.47-29.47c-.58-1.57-.21-4.76.61-8.82"/><path class="cls-8" d="M119.15,66.1c.8-3.58,3.41-14.42,3.84-17.72,1-7.93.44-14.23-4.41-15.1C106.08,31.05,55.1,47.93,65,57.84,70.14,63,78,69.37,84.63,75.27"/><path class="cls-1" d="M110.25,67.06c-3.57-1.78-7.3,6.85-5.51,11.76s4.91,25,5.8,32.59,4.92-.45,4.92-.45-5.81-13.84-5.36-18.3.89-7.14.89-7.14,0-10.72.89-12.5S114.49,69.19,110.25,67.06Z"/><path class="cls-1" d="M96,123c-2.68-1.34,7.37-15.6,14.07-16.94s28.12,4,25.44,5.81S98.71,124.33,96,123Z"/><path class="cls-8" d="M69,56.05c1.78.45,11.16-.44,29-7.14,15.33-5.75,21-8.93,21.43-11.16"/><path class="cls-8" d="M76.17,60.52S90.9,71.23,94.47,71.68"/><line class="cls-8" x1="62.58" y1="177.57" x2="135.57" y2="177.57"/><path class="cls-8" d="M218.15,177.57h21.07"/><ellipse class="cls-4" cx="156.98" cy="115.05" rx="1.64" ry="0.61" transform="translate(1.86 232.6) rotate(-73.39)"/><ellipse class="cls-4" cx="163.93" cy="117.91" rx="1.64" ry="0.61" transform="matrix(0.53, -0.85, 0.85, 0.53, -22.82, 194.74)"/><path class="cls-12" d="M183.72,190.82c3.18.15,5.56,0,16.68.15s19.06.14,27,.14"/><path class="cls-12" d="M111.25,185.12c2,.07,22.1.14,27,.14"/><path class="cls-12" d="M131.84,192.08c2,.07,5.08.31,10,.31"/><path class="cls-12" d="M211.91,186.72s2.39-.28,15.1-.14,15.88-.14,20.65-.14"/><path class="cls-13" d="M143.23,220.43c-1.43-1-9.81-9.85-13.27-12.13-7-4.62-10.24-3.41-10.24-3.41s4.68,3.76,9.48,8.34c8.54,8.12,16.35,28.25,45.89,22.75,16.3-3,30.71-16.3,33.37-19s3.77-13.22,3.77-13.22c-.92,4.4-7.7,11.37-17.41,18-5.55,3.77-14.82,8-20.87,8.15C174,229.91,160.68,232.57,143.23,220.43Z"/><path class="cls-8" d="M152.44,111.76s-1.62,7,1.76,11.34c1.75,2.23,3.9,4.22,8.44,3.9a25.78,25.78,0,0,0,9.21-3"/><path class="cls-14" d="M47.5,203.79a.67.67,0,0,1-1,.11.57.57,0,0,1-.11-.11,14.89,14.89,0,0,0-1-1.11,14.07,14.07,0,0,0-22.9,4.48,1.45,1.45,0,0,0,.54,2l.31.13a1.36,1.36,0,0,0,2.1-.86,10.87,10.87,0,0,1,20,0c.25.59.31,1.11,1.47,1.11s1.23-.55,1.48-1.11a10.87,10.87,0,0,1,17.67-3.47v0a10.91,10.91,0,0,1,2.33,3.44c.34.82.74,1.41,2.1.85s1.19-1.28.85-2.1a14,14,0,0,0-22.9-4.44C48.16,203,47.82,203.41,47.5,203.79Z"/><path class="cls-14" d="M75.49,225.45a.67.67,0,0,1-.95.11.57.57,0,0,1-.11-.11,14.89,14.89,0,0,0-1-1.11,14.07,14.07,0,0,0-22.9,4.48,1.45,1.45,0,0,0,.54,2l.31.13a1.36,1.36,0,0,0,2.1-.86,10.87,10.87,0,0,1,20,0c.25.59.31,1.11,1.47,1.11s1.23-.55,1.48-1.11a10.62,10.62,0,0,1,2.33-3.45,10.85,10.85,0,0,1,15.34,0v0a10.91,10.91,0,0,1,2.33,3.44c.34.82.74,1.41,2.1.85s1.19-1.28.85-2.1A14.07,14.07,0,0,0,81,221.34a14.29,14.29,0,0,0-4.47,3C76.14,224.7,75.81,225.07,75.49,225.45Z"/><rect class="cls-15" width="270" height="270"/></g></g></svg>