<svg xmlns="http://www.w3.org/2000/svg" viewBox="0 0 540 60"><defs><style>.cls-1{fill:#ffdf40;}.cls-2{fill:none;}</style></defs><g id="レイヤー_2" data-name="レイヤー 2"><g id="section_2-1"><path class="cls-1" d="M57.75,23.23c0,3.26-1.36,10-3.63,13.61-2.58,4.1-6.33,6.94-8,7.54a4,4,0,0,1-1.52.27,3.28,3.28,0,0,1-3-1.44c-.72-1.33-.19-3.64,1.7-4.89s5.2-3.37,6.29-7.39a20.08,20.08,0,0,0,.84-4.47,2.52,2.52,0,0,0-2.2-2.73L38.31,24S36.3,23.58,36,26a2.82,2.82,0,0,1-.08.61,3.11,3.11,0,0,1-2.88,2.72h0a3,3,0,0,1-3.22-2.46,29.93,29.93,0,0,1,0-6.14c.15-1.71,1.89-3.41,4.81-3.33.38,0,.91,0,1.67,0,1.48,0,3.6,0,5.88,0,2.57,0,5.23-.08,7.39-.08s3.33,0,3.86.08C55.59,17.74,57.79,19.79,57.75,23.23Z"/><path class="cls-1" d="M102.59,29.49a2.66,2.66,0,0,1-.6,1.89c-.95,1-2.77,1.29-4.4,1.37-1.1.07-5.91.07-8.22.07-6,0-8.76-.07-10-.11-3.19-.15-3.68-1.78-3.68-2.77,0-2,1.52-3.41,3.83-3.56.49,0,2.69,0,5.15,0,4.32,0,6.14,0,10,.08,1.71,0,2.88,0,3.26,0C100.24,26.46,102.44,26.8,102.59,29.49Z"/><path class="cls-1" d="M148.38,23.92c0,1.51-1.36,3-3.87,3a2,2,0,0,0-1.93,1.63,49.39,49.39,0,0,1-1.63,8c-1.7,4.93-3.45,7.28-4.89,8.11a3.46,3.46,0,0,1-4.32-.65c-1-1.44-.53-3.1.84-5.72a29.45,29.45,0,0,0,3.18-9,1.69,1.69,0,0,0-1.67-2.16c-1,0-2,.08-2.88,0A3.3,3.3,0,0,0,128,29.22a6.24,6.24,0,0,1-2.73,2.88c-2,.84-4.28-.07-4.43-1.93s1-2.92,1.59-5.65a47,47,0,0,0,2.24-6.63,3.38,3.38,0,0,1,3.9-3c1.59.22,2.58,2,2.58,3.67a1.38,1.38,0,0,0,1.44,1.6c4.13,0,10,0,12.2.07A3.46,3.46,0,0,1,148.38,23.92Z"/><path class="cls-1" d="M193.56,29.49a2.62,2.62,0,0,1-.61,1.89c-.94,1-2.76,1.29-4.39,1.37-1.1.07-5.91.07-8.23.07-6,0-8.75-.07-10-.11-3.19-.15-3.68-1.78-3.68-2.77,0-2,1.51-3.41,3.83-3.56.49,0,2.69,0,5.15,0,4.32,0,6.14,0,10,.08,1.71,0,2.88,0,3.26,0C191.21,26.46,193.41,26.8,193.56,29.49Z"/><path class="cls-1" d="M212.82,28.31c-.12-1.82,1.74-3.26,4.62-2.69,2.05.46,5.88,1.1,6.63,2.35s.27,3.91-1.89,3.87-3.79-.38-5.76-.61C213.88,30.93,212.93,30.13,212.82,28.31Zm1.59-9.62c.57-2.24,2.35-2.7,5.42-1.94s6.41,2.16,6.71,3.79-.53,3.3-2.69,3.26a26.37,26.37,0,0,1-6-1.29C215.32,21.91,213.84,21,214.41,18.69ZM216,44.16c-1.17-1.41-1.36-4.7,3-5.88s8.65-3.3,11.79-7.58c2.47-3.26,3.68-8.72,7.24-6.78s.57,5.95-.22,7.84a21.42,21.42,0,0,1-7,8.68,25,25,0,0,1-8.11,4.21C219.6,45.67,216.72,45.07,216,44.16Z"/><path class="cls-1" d="M278.81,38.36c0,2.2-.27,4.17-3.07,4.39-1,.08-2.39.08-4.36.08h-4.93c-2,0-3.26-.83-3.37-2.2a2,2,0,0,1,.49-1.59,3.69,3.69,0,0,1,2.84-.95h.8c1.82,0,4.47,0,6-.07,1.06,0,1.13-.42,1.13-1a1.15,1.15,0,0,0-.26-.87,1.12,1.12,0,0,0-.84-.26h-3.67c-1.4,0-2.62,0-3,0h0c-2,0-2.43-1-2.47-1.78a2,2,0,0,1,.5-1.44,2.56,2.56,0,0,1,1.93-.76h.11c.27,0,.72,0,1.25,0,.91,0,2,0,3.19,0,.79,0,1.51,0,2.12,0a1.37,1.37,0,0,0,.95-.38,1,1,0,0,0,.26-.64c0-.68-.3-1.06-1.4-1.06h-.07c-2.05,0-5.24.07-6.68.07h-.68c-1.63,0-2.61-.75-2.76-1.89a2.3,2.3,0,0,1,.53-1.82,2.93,2.93,0,0,1,2.38-.8c1.18,0,3.3,0,5.35,0h4.81a3.12,3.12,0,0,1,3,3.45c0,.91,0,2.66,0,4.51S278.81,37.18,278.81,38.36Z"/><path class="cls-1" d="M303.37,20.85c.45-1.52,2.58-2.85,5.08-1.48a69.71,69.71,0,0,1,7.31,4.74,3,3,0,0,1,.49,3.86c-.64,1.25-2.72,2-4.62,1a54.3,54.3,0,0,1-6.78-3.87A3.53,3.53,0,0,1,303.37,20.85ZM329,20.58c1.41.68,2.2,2.35,1.67,4.51s-2.84,9.29-8.53,14c-5.49,4.54-9.7,5.38-13,5.19-2.46-.15-4-1.48-3.9-3.45.11-1.74,1.21-3,3.94-3.3A14.75,14.75,0,0,0,319.59,31a61.46,61.46,0,0,0,4.7-8.33A3.6,3.6,0,0,1,329,20.58Z"/><path class="cls-1" d="M359.31,38.51c-6,2.69-10.19-1.25-11.18-3.56-1.89-4.44-.91-12.81,6.52-15.2,7.09-2.31,16.26-.8,19.33,6.82,3.3,8.34-1,13.87-2.5,15.54-2.16,2.27-5-.27-4.89-2,.27-3,4-4.58,2.43-9.85a5.69,5.69,0,0,0-2.88-3.83c-1.22-.53-1.6.23-1.56,1.29C364.58,30.55,364.05,36.35,359.31,38.51Zm-4.05-6.1c3.79.38,4.24-4.82,3.45-6.14-.65-1.06-3.87-.19-5,2.23C352.76,30.55,353.7,32.25,355.26,32.41Z"/><path class="cls-1" d="M419.05,44.35c-1.74.94-3.18.22-5.42-1.79-1-.9-1.9-1.78-2.77-2.57a2.84,2.84,0,0,0-3.41-.12c-1.78,1.37-3.26,2.54-4.4,3.23a7.11,7.11,0,0,1-5.8,1.25c-1.74-.53-2.57-3.38-.37-5.35,2-1.82,6.44-3.83,9.74-8a23.39,23.39,0,0,0,3.07-5.46c.49-1.14-.12-1.93-1.37-2-2.76,0-7.46-.12-8.75-.12-2.13,0-4-1.13-4-2.8,0-1.82,1.29-3.22,4.2-3.56s13.57,0,15.13.15a3.62,3.62,0,0,1,3.33,3.45c.08,1.63-1.13,5.57-3.79,10.12a2.81,2.81,0,0,0,.49,3.75,64.31,64.31,0,0,1,4.67,4.85A3.23,3.23,0,0,1,419.05,44.35Z"/><path class="cls-1" d="M464.53,44.35c-1.74.94-3.18.22-5.42-1.79-1-.9-1.89-1.78-2.76-2.57a2.86,2.86,0,0,0-3.42-.12c-1.78,1.37-3.26,2.54-4.39,3.23a7.12,7.12,0,0,1-5.8,1.25c-1.75-.53-2.58-3.38-.38-5.35,2-1.82,6.44-3.83,9.74-8a22.69,22.69,0,0,0,3.07-5.46c.49-1.14-.11-1.93-1.36-2-2.77,0-7.47-.12-8.76-.12-2.12,0-4-1.13-4-2.8,0-1.82,1.29-3.22,4.21-3.56s13.57,0,15.12.15a3.63,3.63,0,0,1,3.34,3.45c.07,1.63-1.14,5.57-3.79,10.12a2.8,2.8,0,0,0,.49,3.75,66,66,0,0,1,4.66,4.85A3.22,3.22,0,0,1,464.53,44.35Z"/><path class="cls-1" d="M509.94,37.41c-1,2.05-3.52,1.78-5.15.61-.34-.23-.69-.5-1-.72a2.21,2.21,0,0,0-3.33.3,7.48,7.48,0,0,1-.76.83c-5.08,5.27-8.95,6.37-11.9,6.11a3.13,3.13,0,0,1-3-2.92c-.08-1.25,1.29-3.07,3.22-3.72a18.22,18.22,0,0,0,6.63-4.09c1.48-1.44-.19-2.31-.76-2.62-.83-.45-1.44-.75-1.7-.87-2-.76-3-2.58-2.43-4.28s2.39-2.62,4.55-2a14.21,14.21,0,0,1,2.92,1.29,1.51,1.51,0,0,0,2.27-1c.84-2.35,1.48-4.54,1.9-5.72a3.28,3.28,0,0,1,4.28-2.31c1.37.53,2.65,1.93,2.16,4.93a46.93,46.93,0,0,1-2,6.7c-.26.69-.45,2.35,1.52,3.83C510,33.81,511,35.33,509.94,37.41Z"/><rect class="cls-2" width="540" height="60"/></g></g></svg>