<svg xmlns="http://www.w3.org/2000/svg" viewBox="0 0 120 120"><defs><style>.cls-1,.cls-2{fill:#ffdf40;}.cls-2{stroke:#ffdf40;stroke-width:0.5px;}.cls-2,.cls-3{stroke-miterlimit:10;}.cls-3{fill:#b6b6b6;stroke:#b6b6b6;stroke-linecap:round;stroke-width:2px;}.cls-4{fill:#4d4d4d;}.cls-5{fill:none;}</style></defs><g id="レイヤー_2" data-name="レイヤー 2"><g id="nav_2"><path class="cls-1" d="M60.51,46.55c-1,1.4-2,2.65-3,3.74a12.75,12.75,0,0,0-2.28,3.27c-.37,1.25-1.56,4.1-4.31,4.1a3.39,3.39,0,0,1-2.6-1,3.87,3.87,0,0,1-1-3c.26-3.32,1.82-6,5.09-8.67,2-1.66,3.07-4.83,1.41-7.16-.94-1.3-3-1.41-3.54-1.41a5.45,5.45,0,0,0-1.3.16c-1.6.68-2.64,2.75-2.9,3.38-.73,1.66-2,3.63-4.62,3.32A3.45,3.45,0,0,1,39,41.88a4.47,4.47,0,0,1-.73-3.38,11,11,0,0,1,6.39-8.77A15.21,15.21,0,0,1,51,28.38c4.1,0,7.48,1.5,9.4,4.1A12,12,0,0,1,60.51,46.55Z"/><circle class="cls-1" cx="75.25" cy="64.2" r="5.15"/><path class="cls-2" d="M54.75,61.45a5.11,5.11,0,0,1,.46,3.79,4.69,4.69,0,0,1-4.57,3.9,4.9,4.9,0,0,1-4.88-4.88c0-2.13,1.35-5.14,4.36-5.14a8.18,8.18,0,0,1,1.1.1A5.28,5.28,0,0,1,54.75,61.45Z"/><path class="cls-3" d="M76.45,43.85a.32.32,0,0,0-.06.48l.06.05a6.65,6.65,0,0,1,.65.51A6.48,6.48,0,0,1,77.1,55a8.37,8.37,0,0,1-2.61,1.52.89.89,0,0,1-1.14-.28.44.44,0,0,1-.08-.15c-.32-.64,0-.89.5-1.06,3.22-1.18,4.73-4.41,3.37-7.2A5.45,5.45,0,0,0,75.78,46a6.62,6.62,0,0,0-2-1.18c-.35-.13-.65-.16-.65-.74s.32-.62.65-.75a6.62,6.62,0,0,0,2-1.18,5,5,0,0,0,0-7.76h0a6.39,6.39,0,0,0-2-1.17c-.47-.18-.82-.38-.49-1.06s.75-.61,1.22-.43c4.17,1.53,6.12,5.7,4.35,9.32a7.06,7.06,0,0,1-1.76,2.26A6.51,6.51,0,0,1,76.45,43.85Z"/><path class="cls-4" d="M52.77,102.28a1,1,0,0,1,.17.21,1,1,0,0,1-.17,1.29,1.18,1.18,0,0,1-1.57,0,.63.63,0,0,0-.7,0,6.66,6.66,0,0,1-6.14-.44A6.49,6.49,0,0,1,42.28,97a5.45,5.45,0,0,1,5.12-4.14A5.81,5.81,0,0,1,53.1,97a6.12,6.12,0,0,1-.36,4.36C52.42,102,52.69,102.17,52.77,102.28Zm-4.61-.74c.42-.16.29-.58.25-.77a1.21,1.21,0,0,1,.19-1A1.08,1.08,0,0,1,50,99.54a.48.48,0,0,0,.73-.22,3.21,3.21,0,0,0-.82-3,3.31,3.31,0,0,0-4.18-.19,3.26,3.26,0,0,0-.86,3.32,3,3,0,0,0,2.83,2.13A1.16,1.16,0,0,0,48.16,101.54Z"/><path class="cls-4" d="M63.89,104.05a1.27,1.27,0,0,1-1.2,0,1.16,1.16,0,0,0-1.11,0,4.19,4.19,0,0,1-2.19.8H59.2c-1.45,0-3.33-.63-4-2a3.53,3.53,0,0,1,.08-3.21,4.71,4.71,0,0,1,.78-1,.7.7,0,0,0,0-1,6.87,6.87,0,0,1-.44-.74,3,3,0,0,1,0-2.72,3.5,3.5,0,0,1,3.18-1.89,3.21,3.21,0,0,1,1.12.19,3.31,3.31,0,0,1,2.19,3.34,2.94,2.94,0,0,1-1.42,2.29c-.22.11-.46.54,0,1,.2.23.41.44.6.63a2,2,0,0,0,1.29.2,1.06,1.06,0,0,1,.2,0h0a1.33,1.33,0,0,1,1.22,1,1.23,1.23,0,0,1,0,.54,1.34,1.34,0,0,0,.22,1.1,1,1,0,0,1,.16.3A1,1,0,0,1,63.89,104.05Zm-6.31-3.82a1.27,1.27,0,0,0-.4,1,1.59,1.59,0,0,0,1.59,1.44,1.54,1.54,0,0,0,1.12-.31c.43-.32,0-.82,0-.82l-1.31-1.23S58,99.81,57.58,100.23Zm1.51-3.76a1.18,1.18,0,0,0,.52-1.16,1,1,0,0,0-1-.73.77.77,0,0,0-.27,0,.94.94,0,0,0-.54.46.86.86,0,0,0,0,.69,1.32,1.32,0,0,0,.25.52A.8.8,0,0,0,59.09,96.47Z"/><path class="cls-4" d="M77,104.5a1.54,1.54,0,0,1-1.91-.75c-.17-.32-.41-1-.77-1.72a1.06,1.06,0,0,0-1-.72h-3s-.66-.13-1.17.77c-.38.69-.85,1.68-1,1.87-.52.73-.84.93-1.56.77s-1.17-.83-.79-1.84,3.09-6.39,3.5-7.39.85-2.44,1.59-2.75a2.21,2.21,0,0,1,2.47.53c.41.68,3.78,9,4.09,9.69A1.11,1.11,0,0,1,77,104.5Zm-5.4-7.76c-.18.36-.4.85-.62,1.38s.32.62.32.62l1.12,0s.5,0,.31-.58-.43-1-.58-1.42S71.75,96.34,71.58,96.74Z"/><rect class="cls-5" width="120" height="120"/></g></g></svg>