<svg xmlns="http://www.w3.org/2000/svg" viewBox="0 0 120 120"><defs><style>.cls-1,.cls-4{fill:none;}.cls-1{stroke:#ffdf40;stroke-width:3.43px;}.cls-1,.cls-2{stroke-linecap:round;stroke-miterlimit:10;}.cls-2{fill:#b6b6b6;stroke:#b6b6b6;stroke-width:1.71px;}.cls-3{fill:#4d4d4d;}</style></defs><g id="レイヤー_2" data-name="レイヤー 2"><g id="nav_2"><path class="cls-1" d="M47.69,74.75H54.3c2.29,0,3.13-1.56,1.87-3.47L48.39,59.43c-1.26-1.9-3.18-1.82-4.27.18L37.68,71.47c-1.09,2-.76,3.65.73,3.65h2.72"/><path class="cls-1" d="M68.2,33.51H65.67c-1.39,0-2.52,1.41-2.52,3.14V49a3.14,3.14,0,0,0,3.13,3.13h13A3.14,3.14,0,0,0,82.46,49V36.65a3.15,3.15,0,0,0-3.14-3.14H73.85"/><circle class="cls-1" cx="46.27" cy="42.18" r="10.54"/><path class="cls-2" d="M73,71.21a.32.32,0,0,1-.43,0l0,0a5,5,0,0,0-.45-.47,6.64,6.64,0,0,0-9,0,6,6,0,0,0-1.36,1.91.59.59,0,0,0,.25.84l.14.05c.57.24.79,0,1-.36a5.07,5.07,0,0,1,8-1.48,4.8,4.8,0,0,1,1.06,1.48c.11.25.14.47.66.47a.62.62,0,0,0,.67-.47,4.93,4.93,0,0,1,1.05-1.48,5.13,5.13,0,0,1,6.95,0h0a4.75,4.75,0,0,1,1.06,1.47c.15.35.33.61,1,.37s.54-.55.38-.9a6.55,6.55,0,0,0-10.36-1.9A5.1,5.1,0,0,0,73,71.21Z"/><path class="cls-2" d="M73,62.05a.31.31,0,0,0-.43,0l0,0c-.14.16-.29.32-.45.47a6.64,6.64,0,0,1-9,0,6.07,6.07,0,0,1-1.36-1.91.59.59,0,0,1,.25-.84l.14-.06a.63.63,0,0,1,1,.37,5,5,0,0,0,6.44,2.47,4.84,4.84,0,0,0,1.56-1,4.64,4.64,0,0,0,1.06-1.47c.11-.26.14-.48.66-.48a.63.63,0,0,1,.67.48,4.77,4.77,0,0,0,1.05,1.47,5.12,5.12,0,0,0,6.95,0h0a4.64,4.64,0,0,0,1.06-1.47c.15-.35.33-.6,1-.36s.54.55.38.9a6.5,6.5,0,0,1-8.34,3.18,6.43,6.43,0,0,1-2-1.28C73.33,62.37,73.17,62.21,73,62.05Z"/><path class="cls-3" d="M17.52,102.05a1.3,1.3,0,0,1,.28,1.13,1.8,1.8,0,0,1-1.12,1.07,6.09,6.09,0,0,1-2.17.31,7.13,7.13,0,0,1-3.29-.64,5.73,5.73,0,0,1-2.77-6.08,5.53,5.53,0,0,1,5.13-5.13l.19,0a5.07,5.07,0,0,1,3.95,1.58,1.26,1.26,0,0,1,0,1.67,1.07,1.07,0,0,1-.82.36,1.82,1.82,0,0,1-1-.33,3.1,3.1,0,0,0-1.67-.43,3.86,3.86,0,0,0-.89.1,3.07,3.07,0,0,0-2.12,2.61,3.23,3.23,0,0,0,1.15,3,4,4,0,0,0,2.28.64H15l.71-.13a4.5,4.5,0,0,1,.85-.13A1.07,1.07,0,0,1,17.52,102.05Z"/><path class="cls-3" d="M30.18,94.52c0,.94-.05,5.21-.13,6.19a4.29,4.29,0,0,1-4.48,3.71H25.5c-3,0-4.81-1.59-5-4.34-.12-1.77-.16-4.68-.16-5.55,0-1,.54-1.7,1.42-1.7h.06c.87,0,1.31.62,1.31,1.74,0,.2,0,.51,0,.91A17.16,17.16,0,0,0,23.3,100a2,2,0,0,0,2.09,1.65h.07a1.79,1.79,0,0,0,2.06-1.76c.11-.8.06-3,0-4.49,0-.47,0-.86,0-1.07a1.42,1.42,0,0,1,1.41-1.53C29.71,92.83,30.18,93.46,30.18,94.52Z"/><path class="cls-3" d="M40.29,95.34a1,1,0,0,1-.59.45,2.14,2.14,0,0,1-.48.07,1.84,1.84,0,0,1-1-.33,3.37,3.37,0,0,0-1.53-.41,1.12,1.12,0,0,0-.27,0,1,1,0,0,0-.77,1.07c.06.63.8,1.1,1.53,1.48A6.09,6.09,0,0,1,39.68,100a3.14,3.14,0,0,1-1,3.89,4.77,4.77,0,0,1-2.74.69l-.82,0a4.56,4.56,0,0,1-2.14-.85,1.33,1.33,0,0,1,.86-2.33,1.69,1.69,0,0,1,.74.17,4.59,4.59,0,0,0,1.62.33,1.4,1.4,0,0,0,.62-.11.84.84,0,0,0,.17-1.32,5.56,5.56,0,0,0-1.15-.79,8.57,8.57,0,0,1-2-1.51,3.68,3.68,0,0,1-.54-3.67,3.43,3.43,0,0,1,3.37-2.11,4.54,4.54,0,0,1,1.07.13c1.7.46,2.52,1.35,2.69,2A1,1,0,0,1,40.29,95.34Z"/><path class="cls-3" d="M52.18,93.67A1.14,1.14,0,0,1,51,94.77c-.21,0-.81,0-1.58,0a.93.93,0,0,0-1.07,1c0,2.23,0,6.88,0,7.45,0,.83-.2,1.38-1.18,1.43s-1.24-.8-1.28-1.61,0-5,0-7.22c0-.43-.05-1-.88-1s-1.59,0-1.78,0c-.79,0-1.33-.21-1.45-1.1s.75-1.31,1.51-1.34,7.12,0,7.86.06A1.19,1.19,0,0,1,52.18,93.67Z"/><path class="cls-3" d="M62.49,103.7a6.37,6.37,0,0,1-3,.71,6.08,6.08,0,0,1-3.54-1,6.59,6.59,0,0,1-2.13-6.35A5.58,5.58,0,0,1,59,92.82h.13A5.9,5.9,0,0,1,64.83,97C65.56,99.56,64.49,102.61,62.49,103.7Zm-1.06-7.2a3.15,3.15,0,0,0-4-.19,3.11,3.11,0,0,0-.84,3.22,2.87,2.87,0,0,0,2.72,2,2.77,2.77,0,0,0,2.79-1.71A3.28,3.28,0,0,0,61.43,96.5Z"/><path class="cls-3" d="M78.33,103.24a1.21,1.21,0,0,1-1.17,1.18,1.23,1.23,0,0,1-1.33-1.18c0-.44-.1-2.69-.16-4.28,0,0,.06-1.34-.55-.41-.46.68-1,1.43-1.15,1.61a1.47,1.47,0,0,1-1.07.5,1.63,1.63,0,0,1-1.17-.58c-.34-.4-.85-1-1.26-1.5-.19-.24-.52-.49-.5.3,0,1.51,0,3.91,0,4.28a1.35,1.35,0,0,1-1.29,1.31l-.08,0c-.41,0-1.12-.18-1.24-1.28-.08-.74,0-4.83,0-7v-.07c0-.69,0-1.18,0-1.37,0-1,.33-1.57,1-1.81a1.67,1.67,0,0,1,.37,0c.63,0,1.13.53,1.7,1.19s1.35,1.86,1.92,2.68a.49.49,0,0,0,.88,0,29.58,29.58,0,0,1,2.41-3.56,1.91,1.91,0,0,1,1.16-.43,1.28,1.28,0,0,1,.79.27,2.12,2.12,0,0,1,.66,1.91c0,.19,0,.85,0,1.7v.05C78.33,99,78.36,102.79,78.33,103.24Z"/><path class="cls-3" d="M83.89,102.88c0,.91-.27,1.5-1.3,1.56h-.08c-.93,0-1.29-.91-1.33-1.74,0-1.07-.2-7.56-.09-8.4a1.4,1.4,0,0,1,1.4-1.26,1.35,1.35,0,0,1,1.31,1.42c0,.43,0,2.41,0,4.32S83.91,102.52,83.89,102.88Z"/><path class="cls-3" d="M85.89,94.38c0-.77.51-1.4,1.64-1.42s4.16,0,5,0A1.56,1.56,0,0,1,94,94c.21.58-.12,1.23-.52,2-.23.47-2.34,3.43-3.43,5-.41.55-.28.93.27,1l3.32,0a1.16,1.16,0,0,1,1.26,1.15,1.11,1.11,0,0,1-1.16,1.24c-.9.06-5.61,0-6.32,0a1.45,1.45,0,0,1-1.51-1.48c0-.89,1-1.87,1.43-2.63s1.92-2.75,2.77-3.92c.4-.52.29-.86-.2-.85l-2.41,0C86.7,95.57,85.91,95.13,85.89,94.38Z"/><path class="cls-3" d="M105.12,103.23a1.31,1.31,0,0,1-1.05,1.26c-.59,0-5.07.07-5.59.07A1.3,1.3,0,0,1,97,103.21c0-1,0-4.79,0-7,0-.82,0-1.46,0-1.68,0-1.06.46-1.56,1.45-1.59h.86c1.56,0,4.24,0,4.85.06a1.2,1.2,0,0,1,1.12,1.31,1.17,1.17,0,0,1-1.26,1.22c-.34,0-1,0-2,0h-2q-.28,0-.33.39s0,.43,0,1c0,.16.11.55.75.55,1.29,0,3,.06,3.31.06a.84.84,0,0,1,.61.27,1.45,1.45,0,0,1,.35,1,1.22,1.22,0,0,1-1.09,1.14H100.4c-.7,0-.68.47-.68.69,0,.5,0,.88,0,1,0,.27.3.36.57.36.73,0,3.17,0,3.83,0A1.2,1.2,0,0,1,105.12,103.23Z"/><rect class="cls-4" width="120" height="120"/></g></g></svg>