<svg xmlns="http://www.w3.org/2000/svg" viewBox="0 0 121.53 120"><defs><style>.cls-1,.cls-4{fill:none;}.cls-1{stroke:#ffdf40;stroke-width:3.43px;}.cls-1,.cls-2{stroke-linecap:round;stroke-miterlimit:10;}.cls-2{fill:#b6b6b6;stroke:#b6b6b6;stroke-width:1.71px;}.cls-3{fill:#4d4d4d;}</style></defs><g id="レイヤー_2" data-name="レイヤー 2"><g id="nav_2"><path class="cls-1" d="M45.7,30.18H40.5c-2.86,0-5.2,2.85-5.2,6.33V60.88a6.35,6.35,0,0,0,6.33,6.33h43A6.35,6.35,0,0,0,91,60.88V36.51a6.35,6.35,0,0,0-6.34-6.33H57.32"/><line class="cls-1" x1="84.08" y1="39.59" x2="74.18" y2="50.81"/><line class="cls-1" x1="42.15" y1="39.59" x2="52.06" y2="50.81"/><path class="cls-2" d="M63.36,52.24a.32.32,0,0,0-.43,0l0,0a5.22,5.22,0,0,1-.46.48,6.64,6.64,0,0,1-9,0,6.07,6.07,0,0,1-1.36-1.91A.61.61,0,0,1,52.3,50l.14-.05c.58-.24.8,0,1,.36a5,5,0,0,0,6.44,2.47,4.92,4.92,0,0,0,1.57-1,4.65,4.65,0,0,0,1.05-1.48c.11-.25.14-.47.67-.47s.55.24.67.47a4.4,4.4,0,0,0,1.05,1.48,5.11,5.11,0,0,0,6.94,0h0a4.61,4.61,0,0,0,1-1.47c.16-.35.34-.6,1-.37s.54.55.39.9A6.52,6.52,0,0,1,65.83,54a6.39,6.39,0,0,1-2-1.29A4,4,0,0,1,63.36,52.24Z"/><path class="cls-3" d="M7.61,100.31c.51,1,1,2.08,1.14,2.48a1.33,1.33,0,0,1-.68,1.62,1.25,1.25,0,0,1-1.64-.66c-.19-.44-.8-1.8-1.37-3-.11-.25-.2-.76-1-.69-.32,0-.6,0-.83,0-.42,0-.67.34-.65.81,0,.9,0,2.24,0,2.62a1.27,1.27,0,0,1-2.51.06c-.11-.68,0-8.56,0-9.38a1.3,1.3,0,0,1,1.24-1.44c.74-.08,3.09,0,5.09.11A3.33,3.33,0,0,1,9.3,96.25a4.37,4.37,0,0,1-1.44,3.09C7.31,99.79,7.5,100.11,7.61,100.31ZM3.17,97.7c.25,0,1.78,0,2.47,0a1.32,1.32,0,0,0,1.25-1.36,1.26,1.26,0,0,0-1-1.3c-.6-.07-2.39-.08-2.74-.08s-.44.2-.44.53-.06,1.5,0,1.86S2.9,97.7,3.17,97.7Z"/><path class="cls-3" d="M19.71,103.23a1.32,1.32,0,0,1-1.06,1.26c-.58,0-5.07.07-5.59.07a1.3,1.3,0,0,1-1.46-1.35c0-1,0-4.79,0-7,0-.82,0-1.46,0-1.68,0-1.06.45-1.56,1.45-1.59H14c1.56,0,4.24,0,4.85.06a1.2,1.2,0,0,1,1.12,1.31,1.17,1.17,0,0,1-1.26,1.22c-.35,0-1,0-2,0h-2q-.28,0-.33.39s0,.43,0,1c0,.16.11.55.76.55,1.29,0,2.94.06,3.31.06a.86.86,0,0,1,.61.27,1.5,1.5,0,0,1,.35,1,1.23,1.23,0,0,1-1.09,1.14H15c-.7,0-.68.47-.68.69,0,.5,0,.88,0,1,0,.27.3.36.57.36.72,0,3.16,0,3.83,0S19.71,102.72,19.71,103.23Z"/><path class="cls-3" d="M29.63,95.34a1,1,0,0,1-.6.45,2,2,0,0,1-.47.07,1.9,1.9,0,0,1-1-.33,3.29,3.29,0,0,0-1.52-.41,1.12,1.12,0,0,0-.27,0A1,1,0,0,0,25,96.22c.06.63.8,1.1,1.52,1.48A6.17,6.17,0,0,1,29,100a3.14,3.14,0,0,1-1,3.89,4.8,4.8,0,0,1-2.75.69l-.81,0a4.6,4.6,0,0,1-2.15-.85,1.33,1.33,0,0,1,.87-2.33,1.69,1.69,0,0,1,.74.17,4.59,4.59,0,0,0,1.62.33,1.4,1.4,0,0,0,.62-.11.84.84,0,0,0,.17-1.32,5.56,5.56,0,0,0-1.15-.79,8.84,8.84,0,0,1-2.05-1.51,3.7,3.7,0,0,1-.53-3.67A3.43,3.43,0,0,1,26,92.39a4.54,4.54,0,0,1,1.07.13c1.7.46,2.52,1.35,2.69,2A1,1,0,0,1,29.63,95.34Z"/><path class="cls-3" d="M40.09,103.23A1.32,1.32,0,0,1,39,104.49c-.58,0-5.07.07-5.58.07A1.3,1.3,0,0,1,32,103.21c-.05-1,0-4.79,0-7,0-.82,0-1.46,0-1.68,0-1.06.45-1.56,1.45-1.59h.86c1.56,0,4.24,0,4.85.06a1.2,1.2,0,0,1,1.12,1.31,1.17,1.17,0,0,1-1.26,1.22c-.35,0-1,0-2,0h-2q-.28,0-.33.39s0,.43,0,1c0,.16.11.55.76.55,1.29,0,2.95.06,3.31.06a.86.86,0,0,1,.61.27,1.5,1.5,0,0,1,.35,1,1.22,1.22,0,0,1-1.09,1.14H35.37c-.7,0-.68.47-.68.69,0,.5,0,.88,0,1,0,.27.3.36.57.36.72,0,3.17,0,3.83,0A1.2,1.2,0,0,1,40.09,103.23Z"/><path class="cls-3" d="M50.33,100.31c.5,1,1,2.08,1.13,2.48a1.32,1.32,0,0,1-.68,1.62,1.24,1.24,0,0,1-1.63-.66c-.19-.44-.81-1.8-1.37-3a.85.85,0,0,0-1-.69c-.31,0-.59,0-.83,0-.41,0-.66.34-.65.81,0,.9,0,2.24,0,2.62a1.26,1.26,0,0,1-2.5.06c-.11-.68,0-8.56,0-9.38A1.3,1.3,0,0,1,44,92.72c.74-.08,3.08,0,5.08.11A3.31,3.31,0,0,1,52,96.25a4.32,4.32,0,0,1-1.43,3.09C50,99.79,50.22,100.11,50.33,100.31ZM45.89,97.7c.25,0,1.78,0,2.47,0a1.3,1.3,0,0,0,1.24-1.36,1.24,1.24,0,0,0-1-1.3c-.6-.07-2.4-.08-2.74-.08s-.44.2-.44.53-.07,1.5,0,1.86S45.62,97.7,45.89,97.7Z"/><path class="cls-3" d="M64.61,95c-.16.44-3.76,7.65-4.31,8.52a1.65,1.65,0,0,1-1.4.76,1.76,1.76,0,0,1-1.48-.84c-1-1.68-3.59-7.9-3.8-8.45a1.39,1.39,0,0,1,.55-1.93,1.1,1.1,0,0,1,.52-.14A1.81,1.81,0,0,1,56.14,94c.33.58,1.69,3.89,2.47,5.53a.46.46,0,0,0,.85,0c.84-1.76,2.51-5.23,2.71-5.64A1.63,1.63,0,0,1,63.48,93a1.21,1.21,0,0,1,.6.17A1.44,1.44,0,0,1,64.61,95Z"/><path class="cls-3" d="M77.21,104.5a1.52,1.52,0,0,1-1.9-.75c-.18-.32-.41-1-.77-1.72a1.07,1.07,0,0,0-1-.72h-3s-.66-.13-1.16.77c-.38.69-.85,1.68-1,1.87-.52.73-.83.93-1.56.77s-1.16-.83-.79-1.84,3.09-6.39,3.5-7.39.85-2.44,1.59-2.75a2.2,2.2,0,0,1,2.47.53c.41.68,3.78,9,4.1,9.69A1.11,1.11,0,0,1,77.21,104.5Zm-5.4-7.76c-.17.36-.39.85-.61,1.38s.31.62.31.62l1.12,0s.5,0,.32-.58-.43-1-.59-1.42S72,96.34,71.81,96.74Z"/><path class="cls-3" d="M89.37,93.67a1.14,1.14,0,0,1-1.19,1.1c-.21,0-.81,0-1.58,0a.93.93,0,0,0-1.07,1c0,2.23,0,6.88,0,7.45,0,.83-.21,1.38-1.18,1.43s-1.25-.8-1.28-1.61,0-5,0-7.22c0-.43,0-1-.88-1s-1.59,0-1.78,0c-.79,0-1.33-.21-1.45-1.1s.75-1.31,1.51-1.34,7.12,0,7.86.06A1.19,1.19,0,0,1,89.37,93.67Z"/><path class="cls-3" d="M94.05,102.88c0,.91-.27,1.5-1.3,1.56h-.08c-.93,0-1.29-.91-1.33-1.74,0-1.07-.2-7.56-.09-8.4a1.4,1.4,0,0,1,1.4-1.26A1.35,1.35,0,0,1,94,94.47c0,.43,0,2.41.05,4.32S94.07,102.52,94.05,102.88Z"/><path class="cls-3" d="M105.16,103.7a6.37,6.37,0,0,1-3,.71,6.08,6.08,0,0,1-3.54-1,6.59,6.59,0,0,1-2.13-6.35,5.58,5.58,0,0,1,5.23-4.23h.13A5.9,5.9,0,0,1,107.5,97C108.23,99.56,107.16,102.61,105.16,103.7Zm-1.06-7.2a3.15,3.15,0,0,0-4-.19,3.11,3.11,0,0,0-.84,3.22,2.87,2.87,0,0,0,2.72,2,2.77,2.77,0,0,0,2.79-1.71A3.28,3.28,0,0,0,104.1,96.5Z"/><path class="cls-3" d="M120.53,94c0,.63,0,8.49-.1,9.21a1.43,1.43,0,0,1-1.45,1.21,1.72,1.72,0,0,1-.8-.2c-.69-.37-3.48-4-4.88-5.83-.25-.35-.61-.22-.61.19,0,1.62,0,4.16,0,4.63a1.29,1.29,0,0,1-1.27,1.15,1.28,1.28,0,0,1-1.3-1.32c-.07-1-.11-8.24-.09-8.76a1.45,1.45,0,0,1,1.29-1.45h.22a2.28,2.28,0,0,1,1.7.83c.44.49,2.9,3.86,4.16,5.62.24.32.57.24.57-.14V94a1.28,1.28,0,0,1,1.27-1.3h0A1.3,1.3,0,0,1,120.53,94Z"/><rect class="cls-4" x="1.53" width="120" height="120"/></g></g></svg>