<svg xmlns="http://www.w3.org/2000/svg" viewBox="0 0 120 120"><defs><style>.cls-1,.cls-4,.cls-6{fill:none;}.cls-1,.cls-4{stroke:#ffdf40;}.cls-1,.cls-3,.cls-4{stroke-linecap:round;stroke-miterlimit:10;}.cls-1{stroke-width:3.43px;}.cls-2{fill:#ffdf40;}.cls-3{fill:#b6b6b6;stroke:#b6b6b6;stroke-width:1.71px;}.cls-4{stroke-width:3.26px;}.cls-5{fill:#4d4d4d;}</style></defs><g id="レイヤー_2" data-name="レイヤー 2"><g id="nav_2"><path class="cls-1" d="M53.28,38.93h7.48c2.28,0,2.93-1.42,1.44-3.15L51.44,23.29A3.55,3.55,0,0,0,46,23.24l-11.52,13c-1.52,1.71-.9,3.1,1.39,3.1h7.58"/><path class="cls-1" d="M40.77,39.56l-6.9,9.59c-1.33,1.85-.55,3.37,1.73,3.37h7.58"/><path class="cls-1" d="M53.41,52.15h7.47c2.29,0,3.13-1.56,1.87-3.47L56.3,38.93"/><path class="cls-1" d="M38.84,52.74l-7.67,8.8c-1.75,2-1,3.64,1.65,3.64h8.84"/><path class="cls-1" d="M58.59,53.59l5.59,7.32c1.61,2.11.75,3.84-1.91,3.84H58.4a4.85,4.85,0,0,0-4.83,4.84V75.2"/><circle class="cls-2" cx="74.14" cy="37.28" r="2.09"/><circle class="cls-2" cx="84.75" cy="37.28" r="2.09"/><path class="cls-3" d="M80.5,70.82a.32.32,0,0,0-.43,0l0,0a5.11,5.11,0,0,1-.45.48,6.64,6.64,0,0,1-9,0,6.07,6.07,0,0,1-1.36-1.91.59.59,0,0,1,.25-.84.35.35,0,0,1,.14-.06.62.62,0,0,1,1,.37A5,5,0,0,0,77,71.33a5.2,5.2,0,0,0,1.56-1,4.64,4.64,0,0,0,1.06-1.47c.11-.26.14-.48.66-.48a.63.63,0,0,1,.67.48,4.77,4.77,0,0,0,1,1.47,5.13,5.13,0,0,0,7,0h0A4.64,4.64,0,0,0,90,68.86c.15-.35.33-.6,1-.37s.54.56.38.9A6.5,6.5,0,0,1,83,72.58a6.28,6.28,0,0,1-2-1.29A4.09,4.09,0,0,1,80.5,70.82Z"/><path class="cls-3" d="M80.65,28.68a.33.33,0,0,0-.44-.05l0,.05c-.15.16-.3.32-.46.47a6.63,6.63,0,0,1-9,0,6.07,6.07,0,0,1-1.36-1.91.6.6,0,0,1,.24-.84.42.42,0,0,1,.14-.06c.57-.24.8,0,1,.37a5,5,0,0,0,6.44,2.47,5,5,0,0,0,1.57-1,4.77,4.77,0,0,0,1-1.47c.11-.26.14-.48.67-.48s.55.24.67.48a4.46,4.46,0,0,0,1,1.47,5.11,5.11,0,0,0,6.94,0h0a4.61,4.61,0,0,0,1-1.47c.16-.35.33-.6,1-.36s.54.55.39.89a6.51,6.51,0,0,1-8.35,3.19,6.39,6.39,0,0,1-2-1.29A4.89,4.89,0,0,1,80.65,28.68Z"/><circle class="cls-2" cx="74.14" cy="59.35" r="2.09"/><circle class="cls-2" cx="84.75" cy="59.35" r="2.09"/><path class="cls-4" d="M84.75,44.59a4.93,4.93,0,1,1-9.85,0"/><path class="cls-5" d="M6.79,93c.9-.3,1.52.55,1.74,1.23s.89,3,1.29,4.35c.12.45.41.42.52,0a21.78,21.78,0,0,1,.82-2.49,1.25,1.25,0,0,1,2.25.06,17.53,17.53,0,0,1,.91,2.66c.11.38.46.4.57,0,.39-1.41,1.1-3.9,1.4-4.8A1.2,1.2,0,0,1,18,93.26a1.25,1.25,0,0,1,.55,1.48c-.17.53-2.22,8-2.8,9a1.41,1.41,0,0,1-2.31.07,16.21,16.21,0,0,1-.89-2.29c-.15-.52-.39-.52-.55,0a11.11,11.11,0,0,1-.9,2.34,1.29,1.29,0,0,1-2.18-.36c-.52-1-2.9-8.16-3-8.83A1.39,1.39,0,0,1,6.79,93Z"/><path class="cls-5" d="M29.05,103.7a6.35,6.35,0,0,1-3,.71,6.11,6.11,0,0,1-3.55-1,6.57,6.57,0,0,1-2.12-6.35,5.56,5.56,0,0,1,5.22-4.23h.13A5.88,5.88,0,0,1,31.39,97C32.12,99.56,31.05,102.61,29.05,103.7ZM28,96.5a2.87,2.87,0,0,0-2.11-.82,2.9,2.9,0,0,0-1.9.63,3.11,3.11,0,0,0-.84,3.22,2.89,2.89,0,0,0,2.73,2,2.78,2.78,0,0,0,2.79-1.71A3.31,3.31,0,0,0,28,96.5Z"/><path class="cls-5" d="M41.51,100.31c.5,1,1,2.08,1.13,2.48a1.32,1.32,0,0,1-.68,1.62,1.24,1.24,0,0,1-1.63-.66c-.19-.44-.81-1.8-1.37-3a.85.85,0,0,0-1-.69c-.31,0-.59,0-.83,0-.41,0-.66.34-.65.81,0,.9,0,2.24,0,2.62a1.26,1.26,0,0,1-2.5.06c-.11-.68,0-8.56,0-9.38a1.3,1.3,0,0,1,1.25-1.44c.74-.08,3.08,0,5.08.11a3.31,3.31,0,0,1,2.93,3.42,4.36,4.36,0,0,1-1.43,3.09C41.21,99.79,41.4,100.11,41.51,100.31ZM37.07,97.7c.25,0,1.78,0,2.47,0a1.3,1.3,0,0,0,1.24-1.36,1.25,1.25,0,0,0-1-1.3c-.6-.07-2.4-.08-2.74-.08s-.44.2-.44.53-.07,1.5,0,1.86S36.8,97.7,37.07,97.7Z"/><path class="cls-5" d="M55,103.84a1.35,1.35,0,0,1-1.2.61,1.5,1.5,0,0,1-.77-.2,29.55,29.55,0,0,1-2.85-2.2c-.3-.26-.74-.6-1.17-.92s-.67.19-.67.47V103c0,1-.26,1.5-1.28,1.56h-.11c-.91,0-1.27-.89-1.31-1.71s-.14-8.11,0-9a1.39,1.39,0,0,1,1.38-1.26A1.35,1.35,0,0,1,48.25,94c0,.22,0,.93,0,1.86,0,.25.16.7.66.32.74-.57,1.34-1,1.76-1.37l.4-.32.16-.12c1-.82,1.73-1.42,2.34-1.42a1.27,1.27,0,0,1,1.21,1.18c0,.5-.42,1.13-1.19,1.73-.6.46-1.73,1.51-2.46,2.21s-.25.89.08,1.18c1.13.94,3.13,2.64,3.4,2.93A1.53,1.53,0,0,1,55,103.84Z"/><path class="cls-5" d="M67.54,104.5a1.52,1.52,0,0,1-1.9-.75c-.18-.32-.41-1-.77-1.72a1.07,1.07,0,0,0-1-.72h-3s-.66-.13-1.16.77c-.38.69-.85,1.68-1,1.87-.52.73-.83.93-1.56.77s-1.16-.83-.79-1.84,3.09-6.39,3.5-7.39.85-2.44,1.59-2.75a2.2,2.2,0,0,1,2.47.53c.41.68,3.78,9,4.1,9.69A1.11,1.11,0,0,1,67.54,104.5Zm-5.4-7.76c-.17.36-.39.85-.61,1.38s.31.62.31.62l1.12,0s.5,0,.32-.58-.43-1-.59-1.42S62.31,96.34,62.14,96.74Z"/><path class="cls-5" d="M79.7,93.67a1.14,1.14,0,0,1-1.19,1.1c-.21,0-.81,0-1.58,0a.93.93,0,0,0-1.07,1c0,2.23,0,6.88,0,7.45,0,.83-.21,1.38-1.18,1.43s-1.25-.8-1.28-1.61,0-5,0-7.22c0-.43,0-1-.89-1s-1.59,0-1.77,0c-.79,0-1.33-.21-1.45-1.1s.75-1.31,1.51-1.34,7.12,0,7.86.06A1.19,1.19,0,0,1,79.7,93.67Z"/><path class="cls-5" d="M84.38,102.88c0,.91-.27,1.5-1.3,1.56H83c-.93,0-1.3-.91-1.33-1.74,0-1.07-.2-7.56-.09-8.4A1.4,1.4,0,0,1,83,93.05a1.35,1.35,0,0,1,1.31,1.42c0,.43,0,2.41,0,4.32S84.4,102.52,84.38,102.88Z"/><path class="cls-5" d="M95.49,103.7a6.39,6.39,0,0,1-3,.71,6.08,6.08,0,0,1-3.54-1,6.59,6.59,0,0,1-2.13-6.35A5.58,5.58,0,0,1,92,92.82h.13A5.9,5.9,0,0,1,97.83,97C98.56,99.56,97.49,102.61,95.49,103.7Zm-1.06-7.2a2.89,2.89,0,0,0-2.11-.82,3,3,0,0,0-1.91.63,3.11,3.11,0,0,0-.83,3.22,2.87,2.87,0,0,0,2.72,2,2.77,2.77,0,0,0,2.79-1.71A3.31,3.31,0,0,0,94.43,96.5Z"/><path class="cls-5" d="M110.86,94c0,.63,0,8.49-.1,9.21a1.44,1.44,0,0,1-1.45,1.21,1.72,1.72,0,0,1-.8-.2c-.69-.37-3.48-4-4.88-5.83-.25-.35-.62-.22-.62.19,0,1.62,0,4.16,0,4.63a1.3,1.3,0,0,1-1.28,1.15,1.28,1.28,0,0,1-1.29-1.32c-.08-1-.11-8.24-.09-8.76a1.45,1.45,0,0,1,1.29-1.45h.22a2.28,2.28,0,0,1,1.7.83c.44.49,2.9,3.86,4.16,5.62.24.32.57.24.57-.14V94a1.28,1.28,0,0,1,1.27-1.3h0A1.3,1.3,0,0,1,110.86,94Z"/><rect class="cls-6" width="120" height="120"/></g></g></svg>