<svg xmlns="http://www.w3.org/2000/svg" viewBox="0 0 120 120"><defs><style>.cls-1,.cls-2,.cls-5{fill:none;}.cls-1,.cls-2{stroke:#ffdf40;}.cls-1,.cls-2,.cls-3{stroke-linecap:round;stroke-miterlimit:10;}.cls-1{stroke-width:2.42px;}.cls-2{stroke-width:2.82px;}.cls-3{fill:#b6b6b6;stroke:#b6b6b6;stroke-width:1.71px;}.cls-4{fill:#4d4d4d;}</style></defs><g id="レイヤー_2" data-name="レイヤー 2"><g id="nav_2"><path class="cls-1" d="M65.39,62c2.36-1.59,7.54-3.73,7.47-6.05s-20.58-2.43-23.77-2.68S43,59.85,45.15,60.53C48.38,61.55,63.87,63,65.39,62Z"/><path class="cls-1" d="M42.6,44.5l20.15,1.33a2.6,2.6,0,0,1,2.5,2.79,48.6,48.6,0,0,1-.49,6.4c-.29,2.32.15,4.53-2.68,4.06-2.19-.36-11-1.28-14.93-1.68a3.57,3.57,0,0,1-2.67-2.58c-1-2.76-2.51-7.08-3-8.27A1.38,1.38,0,0,1,42.6,44.5Z"/><path class="cls-2" d="M31.81,40.79V65.07a3.44,3.44,0,0,0,3.43,3.43H77.42a3.44,3.44,0,0,0,3.43-3.43V41.65a5.06,5.06,0,0,0-3.25-4.5L59,31a10.63,10.63,0,0,0-6.41.26L38.82,37.08"/><path class="cls-3" d="M75.17,31.05a.33.33,0,0,0-.33.29v.06a4.87,4.87,0,0,1,0,.66,6.63,6.63,0,0,1-6.15,6.57,5.9,5.9,0,0,1-2.33-.31.6.6,0,0,1-.45-.75l.06-.14c.22-.58.55-.57.92-.45a5.06,5.06,0,0,0,6.54-4.84,4.45,4.45,0,0,0-.36-1.77c-.1-.26-.25-.43.11-.81a.63.63,0,0,1,.81-.17,4.52,4.52,0,0,0,1.79.24,5.12,5.12,0,0,0,4.75-5.06v0a4.48,4.48,0,0,0-.36-1.77c-.14-.35-.21-.65.39-.94s.77,0,.91.33a6.5,6.5,0,0,1-3.37,8.27,6.27,6.27,0,0,1-2.32.6C75.61,31.05,75.39,31.06,75.17,31.05Z"/><path class="cls-4" d="M35.2,83.92c.9-.3,1.52.55,1.74,1.23s.89,3,1.29,4.35c.12.45.41.42.52,0A21.78,21.78,0,0,1,39.57,87a1.25,1.25,0,0,1,2.25.06,17.53,17.53,0,0,1,.91,2.66c.11.38.46.4.57,0,.39-1.41,1.1-3.9,1.4-4.8a1.2,1.2,0,0,1,1.73-.77A1.25,1.25,0,0,1,47,85.64c-.17.53-2.22,8-2.8,9a1.41,1.41,0,0,1-2.31.07A16.21,16.21,0,0,1,41,92.43c-.15-.52-.39-.52-.55,0a11.11,11.11,0,0,1-.9,2.34,1.29,1.29,0,0,1-2.18-.36c-.52-1-2.9-8.16-3-8.83A1.39,1.39,0,0,1,35.2,83.92Z"/><path class="cls-4" d="M57.46,94.6a6.47,6.47,0,0,1-3,.71,6.11,6.11,0,0,1-3.55-1A6.57,6.57,0,0,1,48.77,88,5.56,5.56,0,0,1,54,83.72h.13a5.88,5.88,0,0,1,5.68,4.2C60.53,90.46,59.46,93.51,57.46,94.6ZM56.4,87.4a2.87,2.87,0,0,0-2.11-.82,2.9,2.9,0,0,0-1.9.63,3.11,3.11,0,0,0-.84,3.22,2.89,2.89,0,0,0,2.73,2,2.78,2.78,0,0,0,2.79-1.71A3.31,3.31,0,0,0,56.4,87.4Z"/><path class="cls-4" d="M69.92,91.21c.5,1,1,2.08,1.13,2.48a1.32,1.32,0,0,1-.68,1.62,1.24,1.24,0,0,1-1.63-.66c-.19-.45-.81-1.8-1.37-3a.86.86,0,0,0-1-.7c-.31,0-.59,0-.83,0-.41,0-.66.35-.65.82,0,.9,0,2.24,0,2.62a1.26,1.26,0,0,1-2.5.06c-.11-.68,0-8.57,0-9.38a1.3,1.3,0,0,1,1.25-1.44c.74-.08,3.08,0,5.08.11a3.31,3.31,0,0,1,2.93,3.42,4.36,4.36,0,0,1-1.43,3.09C69.62,90.69,69.81,91,69.92,91.21ZM65.48,88.6c.25,0,1.78,0,2.47,0a1.3,1.3,0,0,0,1.24-1.36,1.25,1.25,0,0,0-1-1.3c-.6-.07-2.4-.08-2.74-.08s-.44.2-.44.53-.07,1.5,0,1.86S65.21,88.6,65.48,88.6Z"/><path class="cls-4" d="M83.37,94.74a1.35,1.35,0,0,1-1.2.61,1.5,1.5,0,0,1-.77-.2,28.12,28.12,0,0,1-2.85-2.21c-.3-.25-.74-.59-1.17-.91s-.67.19-.67.47v1.39c0,.94-.26,1.5-1.28,1.56h-.11c-.91,0-1.27-.89-1.31-1.71s-.14-8.11,0-9a1.39,1.39,0,0,1,1.38-1.26,1.35,1.35,0,0,1,1.31,1.38c0,.22,0,.93,0,1.86,0,.25.16.69.66.32.74-.57,1.34-1,1.76-1.37.15-.11.27-.21.4-.32l.16-.12c1-.82,1.73-1.42,2.34-1.42A1.28,1.28,0,0,1,83.2,85,2.56,2.56,0,0,1,82,86.77c-.6.46-1.73,1.51-2.46,2.21s-.25.89.08,1.18c1.13.94,3.13,2.64,3.4,2.93A1.53,1.53,0,0,1,83.37,94.74Z"/><path class="cls-4" d="M44.72,106.81a1,1,0,0,1-.6.45,2.06,2.06,0,0,1-.47.07,1.85,1.85,0,0,1-1-.33,3.33,3.33,0,0,0-1.53-.41,1.18,1.18,0,0,0-.27,0,1,1,0,0,0-.77,1.07c.07.63.81,1.1,1.53,1.48a6.15,6.15,0,0,1,2.47,2.33,3.14,3.14,0,0,1-1,3.89,4.77,4.77,0,0,1-2.74.69l-.82,0a4.56,4.56,0,0,1-2.14-.85,1.36,1.36,0,0,1-.24-1.73,1.38,1.38,0,0,1,1.11-.6A1.76,1.76,0,0,1,39,113a4.5,4.5,0,0,0,1.62.33,1.32,1.32,0,0,0,.61-.11.83.83,0,0,0,.41-.61.85.85,0,0,0-.23-.71,6.7,6.7,0,0,0-1.15-.79,8.63,8.63,0,0,1-2.05-1.51,3.7,3.7,0,0,1-.54-3.67,3.43,3.43,0,0,1,3.37-2.11,4.54,4.54,0,0,1,1.07.13c1.7.46,2.52,1.35,2.7,2A1,1,0,0,1,44.72,106.81Z"/><path class="cls-4" d="M56.32,107.72c0,1.64-.92,3.48-2.75,3.64-.69.06-1.5.09-2.38.09h-.42a.9.9,0,0,0-.89.94c0,1,0,2.29,0,2.63a1.37,1.37,0,0,1-1.36,1.21,1.34,1.34,0,0,1-1.35-1.13c-.1-.55-.05-5.81,0-8.33v-1.1a1.4,1.4,0,0,1,1.35-1.54c.19,0,.52,0,1,0,1,0,2.43,0,4.06.15A3.24,3.24,0,0,1,56.32,107.72Zm-6,1.17h1.07c.63,0,1.1,0,1.39,0,.61-.05.93-.44,1-1.24a.89.89,0,0,0-.72-1c-.58,0-2.4-.08-2.69-.08s-.34.08-.34.44c0,.08,0,.27,0,.47,0,.41,0,1,0,1.21S50.06,108.89,50.31,108.89Z"/><path class="cls-4" d="M66.91,115.17a6.35,6.35,0,0,1-3,.71,6.11,6.11,0,0,1-3.55-1,6.57,6.57,0,0,1-2.12-6.35,5.57,5.57,0,0,1,5.22-4.23h.13a5.88,5.88,0,0,1,5.68,4.2C70,111,68.91,114.08,66.91,115.17ZM65.85,108a2.87,2.87,0,0,0-2.11-.82,3,3,0,0,0-1.9.63A3.11,3.11,0,0,0,61,111a2.9,2.9,0,0,0,2.73,2,2.78,2.78,0,0,0,2.79-1.71A3.31,3.31,0,0,0,65.85,108Z"/><path class="cls-4" d="M81.31,105.14a1.15,1.15,0,0,1-1.2,1.1c-.21,0-.8,0-1.58,0a.94.94,0,0,0-1.07,1c0,2.23,0,6.88,0,7.45,0,.83-.2,1.38-1.18,1.43s-1.24-.8-1.28-1.61,0-5,0-7.22c0-.43,0-1-.88-1s-1.59,0-1.78,0c-.79,0-1.32-.2-1.45-1.1s.76-1.31,1.51-1.34,7.12,0,7.86.06A1.2,1.2,0,0,1,81.31,105.14Z"/><rect class="cls-5" width="120" height="120"/></g></g></svg>