<svg xmlns="http://www.w3.org/2000/svg" viewBox="0 0 120 120"><defs><style>.cls-1,.cls-2,.cls-5{fill:none;}.cls-1,.cls-2{stroke:#ffdf40;}.cls-1,.cls-2,.cls-3{stroke-linecap:round;stroke-miterlimit:10;}.cls-1{stroke-width:3.99px;}.cls-2{stroke-width:4.57px;}.cls-3{fill:#b6b6b6;stroke:#b6b6b6;stroke-width:1.71px;}.cls-4{fill:#4d4d4d;}</style></defs><g id="レイヤー_2" data-name="レイヤー 2"><g id="nav_2"><path class="cls-1" d="M52.56,64.33A14,14,0,0,0,76.25,52l8.44-3.41"/><path class="cls-1" d="M73.12,45.44A14,14,0,0,0,48.79,57.09l-9.36,4.1"/><circle class="cls-2" cx="93.14" cy="40.63" r="5.62"/><circle class="cls-2" cx="29.35" cy="67.83" r="5.62"/><path class="cls-3" d="M35.68,34.65a.31.31,0,0,0-.43,0,.08.08,0,0,0,0,0c-.15.16-.3.32-.46.47a6.64,6.64,0,0,1-9,0,6,6,0,0,1-1.36-1.91.59.59,0,0,1,.25-.84l.14-.06a.63.63,0,0,1,.95.37,5,5,0,0,0,6.44,2.47,4.88,4.88,0,0,0,1.56-1,4.8,4.8,0,0,0,1.06-1.48c.11-.25.14-.47.66-.47a.62.62,0,0,1,.67.47,4.8,4.8,0,0,0,1.06,1.48,5.11,5.11,0,0,0,6.94,0h0a5,5,0,0,0,1.05-1.47c.15-.35.33-.61.95-.37s.54.55.38.9a6.55,6.55,0,0,1-10.36,1.9C36,35,35.83,34.82,35.68,34.65Z"/><path class="cls-4" d="M42.66,83.92c.9-.3,1.51.55,1.73,1.23s.9,3,1.3,4.35c.12.45.4.42.51,0A24,24,0,0,1,47,87a1.26,1.26,0,0,1,2.26.06,18.7,18.7,0,0,1,.91,2.66c.11.38.46.4.57,0,.39-1.41,1.1-3.9,1.4-4.8a1.2,1.2,0,0,1,1.73-.77,1.27,1.27,0,0,1,.55,1.48c-.17.53-2.22,8-2.8,9a1.42,1.42,0,0,1-2.32.07,16.32,16.32,0,0,1-.88-2.29c-.16-.52-.39-.52-.55,0a12.35,12.35,0,0,1-.9,2.34,1.3,1.3,0,0,1-2.19-.36c-.52-1-2.89-8.16-3-8.83A1.39,1.39,0,0,1,42.66,83.92Z"/><path class="cls-4" d="M59.29,93.78c0,.91-.26,1.5-1.3,1.56h-.08c-.93,0-1.29-.91-1.32-1.74-.05-1.07-.21-7.56-.1-8.4A1.4,1.4,0,0,1,57.89,84a1.37,1.37,0,0,1,1,.43,1.34,1.34,0,0,1,.36,1c0,.43,0,2.41,0,4.32S59.31,93.42,59.29,93.78Z"/><path class="cls-4" d="M71.53,84.57a1.15,1.15,0,0,1-1.2,1.1c-.2,0-.8,0-1.57,0a.93.93,0,0,0-1.07,1c0,2.23,0,6.88,0,7.45,0,.83-.21,1.38-1.18,1.43s-1.25-.8-1.28-1.61,0-5,0-7.23c0-.42,0-1-.88-1s-1.59,0-1.78,0c-.78,0-1.32-.21-1.44-1.1s.75-1.31,1.51-1.34,7.11,0,7.85.06A1.2,1.2,0,0,1,71.53,84.57Z"/><path class="cls-4" d="M74.57,84c1.25,0,1.5,1,1.5,1.73,0,.27,0,1.21,0,1.94s.9.88.9.88l3.1,0s.69.06.72-.85c0-.67,0-1.52,0-1.89,0-1.58.71-1.91,1.54-1.83s1,.75,1,1.59c.1,1.48.11,7.37.11,8.49s-.6,1.51-1.43,1.41-1-.55-1.17-1.38a19,19,0,0,1-.08-2.38.85.85,0,0,0-.75-.79l-3.15,0a.78.78,0,0,0-.73.83c0,.79,0,1.91,0,2.32-.08,1-.58,1.46-1.42,1.46s-1.27-.76-1.24-1.64-.09-7.26-.09-8.36C73.41,85.48,73.31,84,74.57,84Z"/><path class="cls-4" d="M30.41,113.52a1.3,1.3,0,0,1,.29,1.13,1.8,1.8,0,0,1-1.12,1.07,5.84,5.84,0,0,1-2.17.32,7.06,7.06,0,0,1-3.29-.65,5.73,5.73,0,0,1-2.78-6.08,5.55,5.55,0,0,1,5.14-5.13l.19,0a5.09,5.09,0,0,1,3.95,1.58,1.26,1.26,0,0,1,0,1.67,1.05,1.05,0,0,1-.82.36,1.88,1.88,0,0,1-1-.33,3.07,3.07,0,0,0-1.67-.43,3.77,3.77,0,0,0-.88.1,3.08,3.08,0,0,0-2.12,2.61,3.25,3.25,0,0,0,1.14,3,4.06,4.06,0,0,0,2.29.64h.34l.71-.13a4.63,4.63,0,0,1,.85-.13A1.07,1.07,0,0,1,30.41,113.52Z"/><path class="cls-4" d="M41.68,115.17a6.37,6.37,0,0,1-3,.71,6.08,6.08,0,0,1-3.54-1A6.59,6.59,0,0,1,33,108.52a5.59,5.59,0,0,1,5.23-4.23h.13a5.9,5.9,0,0,1,5.68,4.2C44.75,111,43.68,114.08,41.68,115.17ZM40.62,108a2.89,2.89,0,0,0-2.11-.82,3,3,0,0,0-1.91.63,3.11,3.11,0,0,0-.83,3.22,2.87,2.87,0,0,0,2.72,2,2.77,2.77,0,0,0,2.79-1.71A3.28,3.28,0,0,0,40.62,108Z"/><path class="cls-4" d="M56.83,106.46c-.16.44-3.77,7.65-4.32,8.52a1.65,1.65,0,0,1-1.4.76,1.76,1.76,0,0,1-1.48-.84c-1-1.68-3.59-7.9-3.79-8.45a1.39,1.39,0,0,1,.55-1.93,1,1,0,0,1,.52-.14,1.83,1.83,0,0,1,1.45,1.09c.33.58,1.68,3.89,2.47,5.53a.46.46,0,0,0,.85,0c.83-1.76,2.5-5.23,2.71-5.64a1.63,1.63,0,0,1,1.3-.88,1.19,1.19,0,0,1,.6.17A1.45,1.45,0,0,1,56.83,106.46Z"/><path class="cls-4" d="M61.7,114.35c0,.91-.27,1.5-1.31,1.56a.12.12,0,0,1-.08,0c-.93,0-1.29-.92-1.32-1.75-.05-1.07-.21-7.56-.1-8.4a1.41,1.41,0,0,1,1.4-1.26,1.35,1.35,0,0,1,1.31,1.42c0,.43,0,2.41,0,4.32S61.71,114,61.7,114.35Z"/><path class="cls-4" d="M73.74,113.2A4.61,4.61,0,0,1,69.37,116h-.18l-2.22,0c-.53,0-.91,0-1.15,0a1.47,1.47,0,0,1-1.41-1.75v-2.9c0-2.17,0-4.9,0-5.43a2.09,2.09,0,0,1,2.28-1.77h.06a5.36,5.36,0,0,0,.57,0h.8c2.33,0,3.94.61,4.88,1.87C74.45,107.89,74.45,111.12,73.74,113.2ZM71,107.91a3.75,3.75,0,0,0-2.68-.88h-.63c-.49,0-.68.16-.68.63v.8c0,1.29,0,3.69,0,4.19s.49.61.76.61l.25,0a6.75,6.75,0,0,0,.71,0c2,0,3-1,3.07-2.88A3.42,3.42,0,0,0,71,107.91Z"/><path class="cls-4" d="M76.19,112a1.31,1.31,0,0,1,1.35-1.26c1.07.06,2.73,0,3.42,0s1.4.36,1.45.86a1.06,1.06,0,0,1-1.07,1.2,23.71,23.71,0,0,1-3.67,0C76.85,112.81,76.36,112.65,76.19,112Z"/><path class="cls-4" d="M85.75,106.84c-.17-.54-.14-1.09.91-1.81s2-1.36,3-1.1,1.13,1.41,1.13,2.36-.11,7.93-.17,8.67a1.34,1.34,0,0,1-1.35,1.15,1.37,1.37,0,0,1-1.26-1.21c-.07-.55,0-4.72,0-6.61,0-.57-.31-.81-.63-.71a1.49,1.49,0,0,1-.39.08A1.25,1.25,0,0,1,85.75,106.84Z"/><path class="cls-4" d="M104.17,108a6.45,6.45,0,0,1-.61,2.67l-.16.44c-.23.65-1.53,3.75-1.86,4.29s-.52.71-1,.71a1.87,1.87,0,0,1-.44-.08.91.91,0,0,1-.61-.54,1.38,1.38,0,0,1-.07-1.12c.13-.33.54-1.3.9-2a.5.5,0,0,0-.39-.77,3.71,3.71,0,0,1-1.84-.55,4.17,4.17,0,0,1-1.6-3.37,3.88,3.88,0,0,1,1.9-3.28,5.45,5.45,0,0,1,2.17-.44,3.53,3.53,0,0,1,2,.52A4.36,4.36,0,0,1,104.17,108Zm-2.41-.65a1.48,1.48,0,0,0-1.46-1.13h-.06a1.48,1.48,0,0,0-1.33,1.18,1.51,1.51,0,0,0,.82,1.62,1.26,1.26,0,0,0,.51.09,2.21,2.21,0,0,0,1.07-.26A1.61,1.61,0,0,0,101.76,107.39Z"/><rect class="cls-5" width="120" height="120"/></g></g></svg>