<svg xmlns="http://www.w3.org/2000/svg" viewBox="0 0 120 120"><defs><style>.cls-1,.cls-3,.cls-6{fill:none;}.cls-1,.cls-3{stroke:#ffdf40;}.cls-1,.cls-3,.cls-4{stroke-linecap:round;}.cls-1{stroke-linejoin:round;stroke-width:3.02px;}.cls-2{fill:#fff;}.cls-3,.cls-4{stroke-miterlimit:10;}.cls-3{stroke-width:3.43px;}.cls-4{fill:#b6b6b6;stroke:#b6b6b6;stroke-width:1.51px;}.cls-5{fill:#4d4d4d;}</style></defs><g id="レイヤー_2" data-name="レイヤー 2"><g id="nav_2"><path class="cls-1" d="M84.56,40.67V32.05c-13.61-9.72-27.87,0-27.87,0V65.1s14.26-9.72,27.87,0V50.63"/><path class="cls-1" d="M56.69,65.1v-33c-13.61-9.72-27.87,0-27.87,0V65.1S43.08,55.38,56.69,65.1Z"/><path class="cls-2" d="M35.86,43.42a2.45,2.45,0,0,0,.46,1.33l5.14,6.38a.57.57,0,0,0,.93,0l5-6.37a2.6,2.6,0,0,0,.46-1.34V16.08a.75.75,0,0,0-.75-.75h-10a.76.76,0,0,0-.76.75Z"/><path class="cls-3" d="M35.86,43.42a2.45,2.45,0,0,0,.46,1.33l5.14,6.38a.57.57,0,0,0,.93,0l5-6.37a2.6,2.6,0,0,0,.46-1.34V16.08a.75.75,0,0,0-.75-.75h-10a.76.76,0,0,0-.76.75Z"/><path class="cls-4" d="M61,41.43a.28.28,0,0,0,.42,0l0,0a5.89,5.89,0,0,1,.44-.55,5.53,5.53,0,0,1,8.6,0,7.33,7.33,0,0,1,1.3,2.22.79.79,0,0,1-.24,1l-.13.06c-.55.28-.76,0-.91-.43-1-2.75-3.76-4-6.15-2.88A4.81,4.81,0,0,0,62.84,42a5.7,5.7,0,0,0-1,1.71c-.11.3-.14.56-.64.56s-.53-.28-.64-.56a5.31,5.31,0,0,0-1-1.71,4.26,4.26,0,0,0-6.63,0h0a5.31,5.31,0,0,0-1,1.71c-.15.41-.32.7-.91.42s-.52-.64-.37-1c1.31-3.56,4.88-5.23,8-3.72a6,6,0,0,1,1.93,1.5A5.79,5.79,0,0,1,61,41.43Z"/><path class="cls-4" d="M66.7,51.17a.28.28,0,0,0,.42.06l0-.06c.14-.19.28-.37.44-.55a5.53,5.53,0,0,1,8.6,0,7.38,7.38,0,0,1,1.3,2.23.78.78,0,0,1-.24,1l-.13.07c-.55.27-.76,0-.91-.43-1-2.75-3.76-4-6.15-2.88a4.63,4.63,0,0,0-1.49,1.16,5.57,5.57,0,0,0-1,1.72c-.11.3-.14.55-.64.55s-.53-.27-.64-.55a5.36,5.36,0,0,0-1-1.72,4.26,4.26,0,0,0-6.63,0h0a5.31,5.31,0,0,0-1,1.71c-.15.41-.32.71-.91.43s-.52-.64-.37-1c1.31-3.56,4.88-5.22,8-3.71a6,6,0,0,1,1.93,1.5A5.66,5.66,0,0,1,66.7,51.17Z"/><path class="cls-5" d="M30.53,100.31c.5,1,1,2.08,1.13,2.48a1.33,1.33,0,0,1-.68,1.62,1.25,1.25,0,0,1-1.64-.66c-.18-.44-.8-1.8-1.37-3-.11-.25-.2-.76-1-.69-.31,0-.6,0-.83,0-.41,0-.66.34-.65.81,0,.9,0,2.24,0,2.62a1.26,1.26,0,0,1-2.5.06c-.11-.68,0-8.56,0-9.38a1.3,1.3,0,0,1,1.25-1.44c.74-.08,3.08,0,5.08.11a3.31,3.31,0,0,1,2.93,3.42,4.36,4.36,0,0,1-1.43,3.09C30.23,99.79,30.42,100.11,30.53,100.31ZM26.08,97.7c.26,0,1.78,0,2.48,0a1.3,1.3,0,0,0,1.24-1.36,1.26,1.26,0,0,0-1-1.3c-.6-.07-2.4-.08-2.75-.08s-.44.2-.44.53-.06,1.5,0,1.86S25.82,97.7,26.08,97.7Z"/><path class="cls-5" d="M42.62,103.23a1.31,1.31,0,0,1-1,1.26c-.59,0-5.07.07-5.59.07a1.3,1.3,0,0,1-1.47-1.35c0-1,0-4.79,0-7,0-.82,0-1.46,0-1.68,0-1.06.46-1.56,1.45-1.59h.86c1.56,0,4.24,0,4.85.06a1.2,1.2,0,0,1,1.12,1.31,1.17,1.17,0,0,1-1.26,1.22c-.34,0-1,0-2,0H37.6q-.29,0-.33.39s0,.43,0,1c0,.16.11.55.75.55,1.29,0,2.95.06,3.31.06a.84.84,0,0,1,.61.27,1.45,1.45,0,0,1,.35,1,1.22,1.22,0,0,1-1.09,1.14H37.9c-.7,0-.68.47-.68.69,0,.5,0,.88,0,1,0,.27.3.36.57.36.73,0,3.17,0,3.83,0A1.2,1.2,0,0,1,42.62,103.23Z"/><path class="cls-5" d="M54.51,96.25c0,1.64-.93,3.48-2.75,3.64-.7.06-1.5.09-2.38.09H49a.9.9,0,0,0-.88.94c0,1,0,2.28,0,2.63a1.38,1.38,0,0,1-1.36,1.21,1.33,1.33,0,0,1-1.35-1.13c-.1-.55,0-5.81,0-8.33v-1.1a1.42,1.42,0,0,1,1.36-1.55c.19,0,.52,0,1,0,.94,0,2.43,0,4.06.14A3.27,3.27,0,0,1,54.51,96.25Zm-6,1.17h1.07c.63,0,1.1,0,1.38,0,.62-.05.93-.44,1-1.24a.89.89,0,0,0-.72-1c-.59-.05-2.4-.08-2.7-.08s-.33.08-.33.44c0,.08,0,.27,0,.47,0,.41,0,1,0,1.21S48.25,97.42,48.5,97.42Z"/><path class="cls-5" d="M65.1,103.7a6.35,6.35,0,0,1-3,.71,6.11,6.11,0,0,1-3.55-1,6.57,6.57,0,0,1-2.12-6.35,5.56,5.56,0,0,1,5.22-4.23h.13A5.88,5.88,0,0,1,67.44,97C68.17,99.56,67.1,102.61,65.1,103.7ZM64,96.5a3.15,3.15,0,0,0-4-.19,3.11,3.11,0,0,0-.84,3.22,2.89,2.89,0,0,0,2.73,2,2.76,2.76,0,0,0,2.78-1.71A3.28,3.28,0,0,0,64,96.5Z"/><path class="cls-5" d="M77.56,100.31c.5,1,1,2.08,1.13,2.48a1.32,1.32,0,0,1-.68,1.62,1.24,1.24,0,0,1-1.63-.66c-.19-.44-.81-1.8-1.37-3a.85.85,0,0,0-1-.69c-.31,0-.59,0-.83,0-.41,0-.66.34-.65.81,0,.9,0,2.24,0,2.62a1.26,1.26,0,0,1-2.5.06c-.11-.68,0-8.56,0-9.38a1.3,1.3,0,0,1,1.25-1.44c.74-.08,3.08,0,5.08.11a3.31,3.31,0,0,1,2.93,3.42,4.36,4.36,0,0,1-1.43,3.09C77.26,99.79,77.45,100.11,77.56,100.31ZM73.12,97.7c.25,0,1.78,0,2.47,0a1.3,1.3,0,0,0,1.24-1.36,1.26,1.26,0,0,0-1-1.3c-.6-.07-2.4-.08-2.74-.08s-.44.2-.44.53-.07,1.5,0,1.86S72.85,97.7,73.12,97.7Z"/><path class="cls-5" d="M91.09,93.67a1.15,1.15,0,0,1-1.2,1.1c-.2,0-.8,0-1.57,0a.94.94,0,0,0-1.08,1c0,2.23,0,6.88,0,7.45,0,.83-.2,1.38-1.18,1.43s-1.24-.8-1.27-1.61-.05-5,0-7.22c0-.43,0-1-.88-1s-1.59,0-1.78,0c-.79,0-1.32-.21-1.45-1.1s.76-1.31,1.51-1.34,7.12,0,7.86.06A1.2,1.2,0,0,1,91.09,93.67Z"/><rect class="cls-6" width="120" height="120"/></g></g></svg>