<svg xmlns="http://www.w3.org/2000/svg" viewBox="0 0 191.11 191.11"><defs><style>.cls-1{fill:#f9d640;}.cls-2{fill:#333;}.cls-3{fill:#fff;}</style></defs><g id="レイヤー_2" data-name="レイヤー 2"><g id="section_2-2"><rect class="cls-1" width="191.11" height="191.11"/><path class="cls-2" d="M36.4,37.41h4.33l7.41,21-.64-.23,5.43-14.1,1.71,5-7.29,17Zm13.26,0h3.65l8.1,20.71-.8-.15,7.07-20.56h3.95L60.84,66Z"/><path class="cls-3" d="M75.43,51.05a13.62,13.62,0,0,1,1.08-5.39A14.34,14.34,0,0,1,84,38.09a13.93,13.93,0,0,1,10.85,0,14.51,14.51,0,0,1,7.56,7.57,14,14,0,0,1,0,10.86A14.14,14.14,0,0,1,94.88,64,14.36,14.36,0,0,1,84,64a13.83,13.83,0,0,1-8.57-13Zm3.8,0A10.6,10.6,0,0,0,80,55.14a10.51,10.51,0,0,0,5.47,5.58,10.21,10.21,0,0,0,8,0,10.24,10.24,0,0,0,3.23-2.24,10.69,10.69,0,0,0,2.18-3.32,10.83,10.83,0,0,0,0-8.17,11.16,11.16,0,0,0-2.18-3.37,9.93,9.93,0,0,0-7.28-3.09,10,10,0,0,0-4,.83,10.3,10.3,0,0,0-3.26,2.28A10.16,10.16,0,0,0,80,47,10.75,10.75,0,0,0,79.23,51.05Z"/><path class="cls-3" d="M117,37.3a12.86,12.86,0,0,1,3.86.55,8.86,8.86,0,0,1,3.07,1.63A7.59,7.59,0,0,1,126,42.16a8.62,8.62,0,0,1,.74,3.65,10.77,10.77,0,0,1-.48,3.19,7.67,7.67,0,0,1-4.41,4.88,10.83,10.83,0,0,1-4.38.78h-4.07V64.77H109.7V37.3Zm.38,13.79a6.58,6.58,0,0,0,2.72-.49,4.48,4.48,0,0,0,1.69-1.28,5.25,5.25,0,0,0,.87-1.65,5.75,5.75,0,0,0,.27-1.71,5.48,5.48,0,0,0-.29-1.71,5.18,5.18,0,0,0-.91-1.65,4.77,4.77,0,0,0-1.63-1.28,5.67,5.67,0,0,0-2.46-.49h-4.25V51.09Zm4.52,2.13,7.18,11.55h-4.25l-7.34-11.44Z"/><path class="cls-3" d="M138.47,48.35l-.08,1.37.46-.68L150.1,37.3h4.75L143.49,49.08l12,15.69h-4.67l-10-13.34-2.32,2.24v11.1h-3.72V37.3h3.72Z"/><path class="cls-3" d="M30.93,89.3a12.86,12.86,0,0,1,3.86.55,8.77,8.77,0,0,1,3.07,1.63,7.59,7.59,0,0,1,2.06,2.68,8.62,8.62,0,0,1,.74,3.65,10.77,10.77,0,0,1-.48,3.19,7.78,7.78,0,0,1-1.55,2.83,7.87,7.87,0,0,1-2.86,2,10.83,10.83,0,0,1-4.38.78H27.32v10.11H23.63V89.3Zm.38,13.79A6.55,6.55,0,0,0,34,102.6a4.48,4.48,0,0,0,1.69-1.28,5.25,5.25,0,0,0,.87-1.65A5.75,5.75,0,0,0,36.86,98a5.48,5.48,0,0,0-.29-1.71,5.18,5.18,0,0,0-.91-1.65A4.77,4.77,0,0,0,34,93.32a5.66,5.66,0,0,0-2.45-.49H27.32v10.26Zm4.52,2.13L43,116.77H38.76l-7.34-11.44Z"/><path class="cls-3" d="M48.68,89.3H66.54v3.53H52.36v8.36H65v3.57H52.36v8.48H67.07v3.53H48.68Z"/><path class="cls-3" d="M80.79,89.3a11.94,11.94,0,0,1,5.13,1,7.5,7.5,0,0,1,3.28,2.91,8.61,8.61,0,0,1,1.16,4.6,10.64,10.64,0,0,1-.49,3.21,8.16,8.16,0,0,1-1.58,2.85,7.84,7.84,0,0,1-2.83,2,10.42,10.42,0,0,1-4.26.78H77.14v10.07H73.45V89.3Zm.38,13.79a6.24,6.24,0,0,0,2.69-.51,4.37,4.37,0,0,0,1.68-1.35,6,6,0,0,0,.87-1.71,5.56,5.56,0,0,0,.27-1.64,5.91,5.91,0,0,0-.27-1.72,4.69,4.69,0,0,0-.89-1.64,4.77,4.77,0,0,0-1.64-1.21,5.76,5.76,0,0,0-2.49-.48H77.14v10.26Z"/><path class="cls-3" d="M94.35,103.05a13.62,13.62,0,0,1,1.08-5.39,14.34,14.34,0,0,1,7.49-7.57,13.93,13.93,0,0,1,10.85,0,14.48,14.48,0,0,1,4.5,3.06,14.3,14.3,0,0,1,3.06,4.51,14,14,0,0,1,0,10.86,14.06,14.06,0,0,1-3,4.47,14.22,14.22,0,0,1-4.48,3,14.39,14.39,0,0,1-10.89,0,14,14,0,0,1-7.49-7.43A13.92,13.92,0,0,1,94.35,103.05Zm3.8,0a10.6,10.6,0,0,0,.78,4.09,10.51,10.51,0,0,0,5.47,5.58,10.21,10.21,0,0,0,8,0,10.12,10.12,0,0,0,3.23-2.24,10.69,10.69,0,0,0,2.18-3.32,10.83,10.83,0,0,0,0-8.17,11.16,11.16,0,0,0-2.18-3.37,10.16,10.16,0,0,0-11.32-2.26A10.2,10.2,0,0,0,98.91,99,10.75,10.75,0,0,0,98.15,103.05Z"/><path class="cls-3" d="M135.92,89.3a12.86,12.86,0,0,1,3.86.55,8.91,8.91,0,0,1,3.08,1.63,7.56,7.56,0,0,1,2,2.68,8.62,8.62,0,0,1,.74,3.65,11.1,11.1,0,0,1-.47,3.19,8,8,0,0,1-1.56,2.83,7.83,7.83,0,0,1-2.85,2,10.88,10.88,0,0,1-4.39.78h-4.07v10.11h-3.68V89.3Zm.38,13.79a6.55,6.55,0,0,0,2.72-.49,4.4,4.4,0,0,0,1.69-1.28,4.87,4.87,0,0,0,.87-1.65,5.75,5.75,0,0,0,.27-1.71,5.21,5.21,0,0,0-.29-1.71,5,5,0,0,0-.91-1.65A4.77,4.77,0,0,0,139,93.32a5.66,5.66,0,0,0-2.45-.49h-4.26v10.26Zm4.52,2.13L148,116.77h-4.26l-7.33-11.44Z"/><path class="cls-3" d="M151.62,89.3h18.27v3.53h-7.37v23.94h-3.68V92.83h-7.22Z"/><path class="cls-2" d="M89.51,168.88a10.42,10.42,0,0,1-4.26-.85,8.9,8.9,0,0,1-3.32-2.53,11.85,11.85,0,0,1-2.15-4,17,17,0,0,1-.76-5.28,19.19,19.19,0,0,1,.72-5.56,10.8,10.8,0,0,1,2.11-4,8.56,8.56,0,0,1,3.33-2.37,11.48,11.48,0,0,1,4.33-.78,10.28,10.28,0,0,1,4.23.86,9.11,9.11,0,0,1,3.31,2.52,12.44,12.44,0,0,1,2.17,4,17,17,0,0,1,.77,5.3,17.34,17.34,0,0,1-.77,5.36,12.13,12.13,0,0,1-2.17,4,9,9,0,0,1-3.31,2.49A10.44,10.44,0,0,1,89.51,168.88Zm0-3.53a5.78,5.78,0,0,0,3.68-1.16,7.05,7.05,0,0,0,2.25-3.27,14.87,14.87,0,0,0,.79-4.84,14,14,0,0,0-.79-4.69,7.15,7.15,0,0,0-2.25-3.2,6.37,6.37,0,0,0-7.33,0,7.17,7.17,0,0,0-2.24,3.21,15.35,15.35,0,0,0,0,9.54,7,7,0,0,0,2.24,3.25A5.75,5.75,0,0,0,89.47,165.35Z"/><path class="cls-2" d="M103.34,143.77h6.53v25h-3.68V147.34h-2.85Z"/></g></g></svg>