<svg xmlns="http://www.w3.org/2000/svg" viewBox="0 0 191.11 191.11"><defs><style>.cls-1{fill:#f9d640;}.cls-2{fill:#333;}.cls-3{fill:#fff;}</style></defs><g id="レイヤー_2" data-name="レイヤー 2"><g id="section_2-2"><rect class="cls-1" width="191.11" height="191.11"/><path class="cls-2" d="M36.4,37.41h4.33l7.41,21-.64-.23,5.43-14.1,1.71,5-7.29,17Zm13.26,0h3.65l8.1,20.71-.8-.15,7.07-20.56h3.95L60.84,66Z"/><path class="cls-3" d="M75.43,51.05a13.62,13.62,0,0,1,1.08-5.39,14.35,14.35,0,0,1,3-4.51,14.15,14.15,0,0,1,4.47-3,13.81,13.81,0,0,1,10.85,0,14.45,14.45,0,0,1,7.56,7.56,14,14,0,0,1,0,10.86A14.14,14.14,0,0,1,94.88,64,14.36,14.36,0,0,1,84,64a13.83,13.83,0,0,1-8.57-13Zm3.8,0A10.6,10.6,0,0,0,80,55.14a10.51,10.51,0,0,0,5.47,5.58,10.21,10.21,0,0,0,8,0,10.24,10.24,0,0,0,3.23-2.24,10.69,10.69,0,0,0,2.18-3.32,10.83,10.83,0,0,0,0-8.17,11.16,11.16,0,0,0-2.18-3.37,9.93,9.93,0,0,0-7.28-3.09,10,10,0,0,0-4,.83,10.3,10.3,0,0,0-3.26,2.28A10.16,10.16,0,0,0,80,47,10.79,10.79,0,0,0,79.23,51.05Z"/><path class="cls-3" d="M117,37.3a12.86,12.86,0,0,1,3.86.55,9,9,0,0,1,3.07,1.63A7.59,7.59,0,0,1,126,42.16a8.62,8.62,0,0,1,.74,3.65,10.77,10.77,0,0,1-.48,3.19,7.78,7.78,0,0,1-1.55,2.83,7.87,7.87,0,0,1-2.86,2.05,10.83,10.83,0,0,1-4.38.78h-4.07V64.77H109.7V37.3Zm.38,13.79a6.58,6.58,0,0,0,2.72-.49,4.48,4.48,0,0,0,1.69-1.28,5.14,5.14,0,0,0,.87-1.65,5.75,5.75,0,0,0,.27-1.71,5.48,5.48,0,0,0-.29-1.71,5.18,5.18,0,0,0-.91-1.65,4.77,4.77,0,0,0-1.63-1.28,5.66,5.66,0,0,0-2.45-.49h-4.26V51.09Zm4.52,2.13,7.18,11.55h-4.25l-7.34-11.44Z"/><path class="cls-3" d="M138.47,48.35l-.08,1.37.46-.68L150.1,37.3h4.75L143.49,49.08l12,15.69h-4.67l-10-13.34-2.32,2.25V64.77h-3.72V37.3h3.72Z"/><path class="cls-3" d="M30.93,89.3a12.86,12.86,0,0,1,3.86.55,9.08,9.08,0,0,1,3.08,1.63,7.68,7.68,0,0,1,2.05,2.68,8.62,8.62,0,0,1,.74,3.65,10.77,10.77,0,0,1-.48,3.19,7.78,7.78,0,0,1-1.55,2.83,7.92,7.92,0,0,1-2.85,2,10.92,10.92,0,0,1-4.39.78H27.32v10.11H23.63V89.3Zm.38,13.79A6.55,6.55,0,0,0,34,102.6a4.48,4.48,0,0,0,1.69-1.28,5.14,5.14,0,0,0,.87-1.65A5.75,5.75,0,0,0,36.86,98a5.48,5.48,0,0,0-.29-1.71,5.18,5.18,0,0,0-.91-1.65A4.77,4.77,0,0,0,34,93.32a5.66,5.66,0,0,0-2.45-.49H27.32v10.26Zm4.52,2.13L43,116.77H38.76l-7.34-11.44Z"/><path class="cls-3" d="M48.68,89.3H66.54v3.53H52.36v8.36H65v3.57H52.36v8.48H67.07v3.53H48.68Z"/><path class="cls-3" d="M80.79,89.3a11.94,11.94,0,0,1,5.13,1,7.5,7.5,0,0,1,3.28,2.91,8.61,8.61,0,0,1,1.16,4.6,10.64,10.64,0,0,1-.49,3.21,8.16,8.16,0,0,1-1.58,2.85,7.84,7.84,0,0,1-2.83,2,10.42,10.42,0,0,1-4.26.78H77.14v10.07H73.45V89.3Zm.38,13.79a6.24,6.24,0,0,0,2.69-.51,4.37,4.37,0,0,0,1.68-1.35,6,6,0,0,0,.87-1.71,5.55,5.55,0,0,0,.27-1.63,5.93,5.93,0,0,0-.27-1.73,4.69,4.69,0,0,0-.89-1.64,4.77,4.77,0,0,0-1.64-1.21,5.76,5.76,0,0,0-2.49-.48H77.14v10.26Z"/><path class="cls-3" d="M94.35,103.05a13.62,13.62,0,0,1,1.08-5.39,14.27,14.27,0,0,1,7.49-7.56,13.81,13.81,0,0,1,10.85,0,14.45,14.45,0,0,1,7.56,7.56,14,14,0,0,1,0,10.86,14.06,14.06,0,0,1-3,4.47,14.22,14.22,0,0,1-4.48,3,14.39,14.39,0,0,1-10.89,0,14.17,14.17,0,0,1-4.47-3,13.74,13.74,0,0,1-4.1-10Zm3.8,0a10.6,10.6,0,0,0,.78,4.09,10.51,10.51,0,0,0,5.47,5.58,10.21,10.21,0,0,0,8,0,10.12,10.12,0,0,0,3.23-2.24,10.69,10.69,0,0,0,2.18-3.32,10.83,10.83,0,0,0,0-8.17,11.16,11.16,0,0,0-2.18-3.37,10.16,10.16,0,0,0-11.32-2.26A10.2,10.2,0,0,0,98.91,99,10.79,10.79,0,0,0,98.15,103.05Z"/><path class="cls-3" d="M135.92,89.3a12.82,12.82,0,0,1,3.86.55,9.08,9.08,0,0,1,3.08,1.63,7.56,7.56,0,0,1,2,2.68,8.62,8.62,0,0,1,.74,3.65,11.1,11.1,0,0,1-.47,3.19,8,8,0,0,1-1.56,2.83,7.75,7.75,0,0,1-2.85,2,10.88,10.88,0,0,1-4.39.78h-4.07v10.11h-3.68V89.3Zm.38,13.79a6.55,6.55,0,0,0,2.72-.49,4.4,4.4,0,0,0,1.69-1.28,4.78,4.78,0,0,0,.87-1.65,5.75,5.75,0,0,0,.27-1.71,5.46,5.46,0,0,0-.28-1.71,5.21,5.21,0,0,0-.92-1.65A4.67,4.67,0,0,0,139,93.32a5.66,5.66,0,0,0-2.45-.49h-4.26v10.26Zm4.52,2.13L148,116.77h-4.26l-7.33-11.44Z"/><path class="cls-3" d="M151.62,89.3h18.27v3.53h-7.37v23.94h-3.68V92.83h-7.22Z"/><path class="cls-2" d="M85.4,168.89a10.41,10.41,0,0,1-4.25-.86,9,9,0,0,1-3.33-2.53,11.83,11.83,0,0,1-2.14-4,17,17,0,0,1-.76-5.28,19.19,19.19,0,0,1,.72-5.56,10.65,10.65,0,0,1,2.11-4,8.6,8.6,0,0,1,3.32-2.37,11.51,11.51,0,0,1,4.33-.78,10.3,10.3,0,0,1,4.24.86A9.11,9.11,0,0,1,93,146.88a12.42,12.42,0,0,1,2.16,4,16.73,16.73,0,0,1,.78,5.3,17,17,0,0,1-.78,5.36,12.12,12.12,0,0,1-2.16,4,9,9,0,0,1-3.31,2.49A10.45,10.45,0,0,1,85.4,168.89Zm0-3.54a5.76,5.76,0,0,0,3.68-1.16,7,7,0,0,0,2.24-3.27,14.6,14.6,0,0,0,.8-4.84,13.7,13.7,0,0,0-.8-4.69,7.06,7.06,0,0,0-2.24-3.2A5.82,5.82,0,0,0,85.37,147a5.75,5.75,0,0,0-3.65,1.16,7.09,7.09,0,0,0-2.24,3.21,15.35,15.35,0,0,0,0,9.54,7,7,0,0,0,2.24,3.25A5.7,5.7,0,0,0,85.37,165.35Z"/><path class="cls-2" d="M99.24,168.77c1.62-1.57,3.16-3.12,4.63-4.63s2.79-3,3.95-4.41a24,24,0,0,0,2.78-4.11,8.39,8.39,0,0,0,1-3.87,5,5,0,0,0-.4-2.13,4.35,4.35,0,0,0-1-1.46,4.13,4.13,0,0,0-1.48-.88A5.39,5.39,0,0,0,107,147a5,5,0,0,0-2.13.4,3.75,3.75,0,0,0-1.4,1,4.33,4.33,0,0,0-.8,1.39,4.14,4.14,0,0,0-.27,1.42,6,6,0,0,0,.4,2.26,6.09,6.09,0,0,0,1.08,1.77l-2.24,2a4.92,4.92,0,0,1-1.54-1.6,9.18,9.18,0,0,1-1-2.22,8.19,8.19,0,0,1-.34-2.11,7.7,7.7,0,0,1,4-6.81,9.72,9.72,0,0,1,4.81-1.1,7.55,7.55,0,0,1,6.91,4,8.15,8.15,0,0,1,1,3.95,9.57,9.57,0,0,1-.76,3.73,18.29,18.29,0,0,1-2,3.59q-1.28,1.77-2.79,3.51l-3,3.5-1.64-.53h11.1v3.53Z"/></g></g></svg>