<svg xmlns="http://www.w3.org/2000/svg" viewBox="0 0 540 270"><defs><style>.cls-1{fill:#ffdf40;}.cls-10,.cls-2,.cls-3,.cls-6,.cls-7{fill:none;}.cls-2,.cls-3,.cls-4,.cls-5,.cls-7{stroke:#4d4d4d;}.cls-2,.cls-3,.cls-4,.cls-8{stroke-linecap:round;}.cls-2,.cls-3,.cls-4{stroke-linejoin:round;}.cls-2{stroke-width:2px;}.cls-3{stroke-width:0.98px;}.cls-4,.cls-5{fill:#fff;stroke-width:2.11px;}.cls-5,.cls-6,.cls-7,.cls-8{stroke-miterlimit:10;}.cls-6{stroke:#fff;}.cls-6,.cls-7{stroke-width:3px;stroke-dasharray:5 5;}.cls-8{fill:#b6b6b6;stroke:#b6b6b6;stroke-width:2.24px;}.cls-9{fill:#4d4d4d;}</style></defs><g id="レイヤー_2" data-name="レイヤー 2"><g id="header_2"><path class="cls-1" d="M234.31,22.79l43.8-5.32s4,4.88,8,14.64c4.55,11.14-8,24,.67,25.29s10.61-.44,12.6,6.21S302,93.34,302,93.34l-39.15,1.77s2-21.74-2.66-26.18-11.07-1.26-12.61-6.65c-2.65-9.32,4.06-19.37,1.33-24.85A32.58,32.58,0,0,0,234.31,22.79Z"/><path class="cls-2" d="M235.88,19.15l36.26-5.44a17.72,17.72,0,0,1,4.48,4.45,76.42,76.42,0,0,1,5.47,11c4.54,11.13-8,24,.67,25.28s10.61-.44,12.6,6.22S298,90.37,298,90.37l-39.15,1.77s2-21.73-2.66-26.17-11.07-1.27-12.61-6.66C241,50,247.66,39.94,244.93,34.47a33.08,33.08,0,0,0-9.29-11.31C232.65,20.83,235.88,19.15,235.88,19.15Z"/><line class="cls-3" x1="252.67" y1="27.43" x2="270.37" y2="25.14"/><path class="cls-3" d="M266.61,30.58a78.21,78.21,0,0,0,8.62-1.82"/><path class="cls-3" d="M259.31,35c4.64-.44,13.93-1.8,13.93-1.8"/><path class="cls-3" d="M256.87,53.1c2.66-.44,13.28-1.77,13.28-1.77"/><path class="cls-4" d="M300.4,106.68s20.11-4.11,20.7-7.62-58.58-8.78-58.58-8.78l-12.28,10.14Z"/><path class="cls-5" d="M243.4,68.34l50.86,3.36s6,0,6.3,7-.16,27.94-.16,27.94l-50.16-6.26S242.49,78,240.5,73.52,243.4,68.34,243.4,68.34Z"/><path class="cls-6" d="M289.23,29.71s35.86-5.09,33.86,4.5S216.23,59,207.34,54.68"/><path class="cls-7" d="M289.23,28.3s35.86-5.1,33.86,4.49S216.23,57.55,207.34,53.26"/><path class="cls-2" d="M169.2,46.24c-.87-1.4-.35-2,1.16-1.32l18.75,8.48c1.5.68,1.65,2.05.33,3l-7.14,5.35a2.7,2.7,0,0,1-4-.75Z"/><path class="cls-2" d="M193,58.4c.48,1.58,1.11,1.54,1.4-.08l.92-5a3.19,3.19,0,0,0-2.39-3.63l-22.36-5.27c-1.6-.37-1.69-.13-.18.55l18.75,8.48a7.51,7.51,0,0,1,3.59,4.11Z"/><path class="cls-2" d="M167.62,43.69l25.28,6a9.39,9.39,0,0,0,5.58-.71l2.32-1.2c1.46-.76,1.31-1.49-.34-1.61l-32.84-2.43"/><line class="cls-2" x1="193.83" y1="61.27" x2="186.2" y2="59.61"/><path class="cls-8" d="M155.64,97.11a.43.43,0,0,0-.57,0l-.06,0a5.86,5.86,0,0,1-.6.62,8.66,8.66,0,0,1-11.76,0,7.8,7.8,0,0,1-1.78-2.49.78.78,0,0,1,.32-1.1.71.71,0,0,1,.18-.08c.75-.31,1,0,1.24.48a6.63,6.63,0,0,0,10.47,1.93,6.19,6.19,0,0,0,1.37-1.93c.15-.33.19-.62.88-.62s.72.31.87.62a6,6,0,0,0,1.38,1.93,6.68,6.68,0,0,0,9.07,0h0A6,6,0,0,0,168,94.55c.21-.46.44-.79,1.25-.48s.7.72.5,1.17a8.51,8.51,0,0,1-10.91,4.17,8.67,8.67,0,0,1-2.64-1.68A7,7,0,0,1,155.64,97.11Z"/><path class="cls-8" d="M355.14,51.36a.43.43,0,0,0-.57,0l-.06,0a5.86,5.86,0,0,1-.6.62,8.66,8.66,0,0,1-11.76,0,7.8,7.8,0,0,1-1.78-2.49.78.78,0,0,1,.32-1.1.71.71,0,0,1,.18-.08c.75-.31,1,0,1.24.48a6.63,6.63,0,0,0,10.47,1.93A6.19,6.19,0,0,0,354,48.79c.15-.33.19-.62.88-.62s.72.31.87.62a6,6,0,0,0,1.38,1.93,6.68,6.68,0,0,0,9.07,0h0a6.15,6.15,0,0,0,1.37-1.92c.21-.46.44-.79,1.25-.48s.7.72.5,1.17a8.51,8.51,0,0,1-10.91,4.17A8.67,8.67,0,0,1,355.73,52,7,7,0,0,1,355.14,51.36Z"/><path class="cls-8" d="M398.63,62a.43.43,0,0,0-.57-.06L398,62c-.19.21-.39.42-.6.62a8.67,8.67,0,0,1-11.77,0,7.92,7.92,0,0,1-1.77-2.5.78.78,0,0,1,.32-1.1.56.56,0,0,1,.18-.07c.75-.31,1,0,1.24.47A6.56,6.56,0,0,0,394,62.67a6.23,6.23,0,0,0,2-1.3,6,6,0,0,0,1.38-1.93c.15-.33.19-.62.87-.62a.82.82,0,0,1,.88.62,6,6,0,0,0,1.37,1.93,6.69,6.69,0,0,0,9.08,0h0A6,6,0,0,0,411,59.45c.21-.46.44-.79,1.24-.48s.71.72.51,1.18a8.51,8.51,0,0,1-10.91,4.16,8.2,8.2,0,0,1-2.64-1.68A5.67,5.67,0,0,1,398.63,62Z"/><path class="cls-1" d="M95.8,156.8l-1.17-.51a12,12,0,0,0,1-5.15l1.19.17A12,12,0,0,1,95.8,156.8Zm5.64-2.4-1.21.51a14.21,14.21,0,0,0-1.11-3.72v14.44H97.38V147.29h1.74v3.63l1-.35A12.59,12.59,0,0,1,101.44,154.4Zm10.06,5.12,1.23,1a25.85,25.85,0,0,1-2.69,1.6,7.53,7.53,0,0,0,3.49,2,5.46,5.46,0,0,0-1.13,1.51,8.35,8.35,0,0,1-4-2.8l.11,1.43q-5.19,1-6.44,1.25l-.45-1.52,1.72-.3V162a18,18,0,0,1-2.44.82,4.89,4.89,0,0,0-.88-1.39,14.9,14.9,0,0,0,2.86-.83,12.32,12.32,0,0,0,2.51-1.32h-4.73v-1.52h5.47v-1.13h-4.43v-5h4.43v-1.22h-5v-1.58h5v-1.52H108v1.52h5v1.58h-5v1.22h4.64v5H108v1.13h5.21v1.52h-5a9.64,9.64,0,0,0,1,1.94A16.73,16.73,0,0,0,111.5,159.52Zm-6.58-4.38v-2.09h-1.74v2.09Zm.16,5.92v2.34q1.17-.19,3.24-.6a10.82,10.82,0,0,1-1.57-2.87A17.06,17.06,0,0,1,105.08,161.06Zm2.89-5.92v-2.09h-1.8v2.09Zm1.25-2.09v2.09H111v-2.09Z"/><path class="cls-1" d="M120.39,152.72c.58-.05,1.34-.11,2.29-.16,0-1.21,0-2.24,0-3.1h2c0,.82,0,1.81,0,3h2a2.51,2.51,0,0,1,2,.81,4.5,4.5,0,0,1,.87,2.72,24.6,24.6,0,0,1,.11,3,14.71,14.71,0,0,1-.3,2.78,3.84,3.84,0,0,1-.92,1.92,2.39,2.39,0,0,1-1.64.69,12.75,12.75,0,0,1-2.3-.29v-1.94a8.59,8.59,0,0,0,1.87.22c.57-.07.94-.47,1.08-1.22a12.54,12.54,0,0,0,.23-2.46c0-.9,0-1.76-.08-2.59a2.23,2.23,0,0,0-.4-1.3,1.28,1.28,0,0,0-1-.34h-.75c-.21,0-.5,0-.85,0a39.43,39.43,0,0,1-.85,5.42,37.52,37.52,0,0,1-1.32,4.38h-2.09a24.28,24.28,0,0,0,1.45-4.39,37.23,37.23,0,0,0,.84-5.26c-1,.08-1.75.15-2.21.22Zm8.87-2.68h2a23.4,23.4,0,0,1,2.09,7h-2.07A21.18,21.18,0,0,0,129.26,150Z"/><path class="cls-1" d="M143.25,149.24v10.82a3.5,3.5,0,0,0,.37,1.87,1.75,1.75,0,0,0,1.41.63,6.1,6.1,0,0,0,2.47-.58,19.47,19.47,0,0,0,2.45-1.29c.76-.47,1.37-.89,1.84-1.25v2.38a20.12,20.12,0,0,1-2,1.34,11.69,11.69,0,0,1-2.17,1,8,8,0,0,1-2.52.45,3.57,3.57,0,0,1-3-1.24,5.34,5.34,0,0,1-.92-3.35V149.24Z"/><path class="cls-1" d="M160.17,150h2.07c-.05.81-.09,1.64-.12,2.5s-.05,1.77-.07,2.72,0,1.82,0,2.62a16.93,16.93,0,0,0,.17,2.67c.12.73.47,1.13,1.06,1.19a2.87,2.87,0,0,0,1.45-.48,6.65,6.65,0,0,0,1.12-.79v2.13a6,6,0,0,1-1.16.73,4.71,4.71,0,0,1-1.61.44,2.28,2.28,0,0,1-2.21-1.05,7.75,7.75,0,0,1-.8-4.12c0-.83,0-1.76,0-2.78s0-2,0-2.94S160.13,150.93,160.17,150Zm8.14,0h2a35.19,35.19,0,0,1,1.14,6,61.63,61.63,0,0,1,.28,7.38h-2c0-1,0-2.08,0-3.07s-.11-2.15-.22-3.47-.29-2.62-.51-3.91A18.58,18.58,0,0,0,168.31,150Z"/><path class="cls-1" d="M197.38,158.71h-4.16a11.56,11.56,0,0,0,4.55,2.09,4.61,4.61,0,0,0-1.05,1.41,12,12,0,0,1-2.44-1v4.47h-1.9v-.57h-7.79v.57h-1.82v-4.51a16.28,16.28,0,0,1-2.61,1.32,5.81,5.81,0,0,0-.47-.74,3.35,3.35,0,0,0-.57-.6,12.93,12.93,0,0,0,4.26-2.41h-3.85v-1.44h5.18a4.87,4.87,0,0,0,.54-.9H182V151h13v5.37h-7.71q-.28.54-.51.9h10.64Zm-13.18-7.94v-.83h-4.59v-1.5h4.59v-1.15H186v1.15h4.72v-1.15h1.82v1.15h4.73v1.5h-4.73v.83h-1.82v-.83H186v.83Zm-.47,1.38v1h9.41v-1Zm0,2v1h9.41v-1Zm8.65,7.66v-.94h-7.79v.94Zm-7.79,2h7.79v-1h-7.79Zm.06-4.16h7.6c-.56-.53-.92-.88-1.06-1h-5.51A8.94,8.94,0,0,1,184.65,159.75Z"/><path class="cls-1" d="M204.89,159.18v-5.39h2v3.15a7.48,7.48,0,0,1,4-1.68,5.14,5.14,0,0,1,2.83.49,4.18,4.18,0,0,1,1.8,1.64,4.46,4.46,0,0,1,.57,2.34,4.24,4.24,0,0,1-2.24,3.94q-2.25,1.31-7.64.47v-2a20.89,20.89,0,0,0,3.62.32,7.09,7.09,0,0,0,2.55-.37,2.6,2.6,0,0,0,1.3-1,2.44,2.44,0,0,0,.36-1.39,2.31,2.31,0,0,0-.38-1.27,2.66,2.66,0,0,0-1.12-.93,3.66,3.66,0,0,0-2-.14,6.7,6.7,0,0,0-2.15.84c-.62.39-1.13.72-1.52,1Zm1.54-9.53,1.56-.05,1.78,0c.61,0,1.22.07,1.84.14s1.2.14,1.77.21v2.09a30.09,30.09,0,0,0-3.63-.37c-1,0-2.11,0-3.32,0Z"/><path class="cls-1" d="M226.59,149.24v10.82a3.6,3.6,0,0,0,.37,1.87,1.75,1.75,0,0,0,1.41.63,6.1,6.1,0,0,0,2.47-.58,19.47,19.47,0,0,0,2.45-1.29c.76-.47,1.37-.89,1.84-1.25v2.38a18,18,0,0,1-2,1.34,11.89,11.89,0,0,1-2.16,1,8.14,8.14,0,0,1-2.52.45,3.57,3.57,0,0,1-3-1.24,5.4,5.4,0,0,1-.92-3.35V149.24Z"/><path class="cls-1" d="M243.61,149.91h2c-.16,1.15-.28,2.31-.37,3.45s-.14,2.32-.16,3.52.1,2.48.21,3.65.26,2.34.46,3.52h-2.11c-.17-1.19-.3-2.35-.4-3.48s-.15-2.34-.17-3.63.07-2.39.16-3.52S243.47,151.12,243.61,149.91Zm4.16,7.79h1.89s-.08.25-.21.63a4.54,4.54,0,0,0-.22,1.24,2.08,2.08,0,0,0,.2,1,1.76,1.76,0,0,0,.76.77,3.32,3.32,0,0,0,1.58.33,26.25,26.25,0,0,0,3-.15v2.09c-.15,0-.48.05-1,.08s-1.22,0-2.14.05a4.91,4.91,0,0,1-3.12-1,3.12,3.12,0,0,1-1.22-2.27,6.82,6.82,0,0,1,.1-1.57A4.09,4.09,0,0,1,247.77,157.7Zm0-6.93h6.6v2h-6.6Z"/><path class="cls-1" d="M269.85,152.35v11.46c0,.81-.24,1.32-.71,1.55a7.4,7.4,0,0,1-2.63.29,4,4,0,0,0-.53-1.54c1,0,1.72,0,2,0s.31-.12.31-.34v-3.36h-4.16a12.13,12.13,0,0,1-1.5,5.26,5,5,0,0,0-1.27-.82c.92-1.51,1.39-3.93,1.39-7.25v-3.18l-.1.13a9.07,9.07,0,0,0-1.33-1.07,14.64,14.64,0,0,0,2.89-6.19l1.64.35q-.09.38-.39,1.41h1.95l.32-.1,1,.7a20.83,20.83,0,0,1-1.31,2.7Zm-3.17-1.86h-1.76a19.18,19.18,0,0,1-.86,1.86h1.78A12.25,12.25,0,0,0,266.68,150.49ZM264.24,157v.58c0,.6,0,1.06,0,1.39h1.39v-2Zm0-3.27v1.88h1.37v-1.88Zm2.62,0v1.88h1.42v-1.88Zm0,5.24h1.42v-2h-1.42ZM280,165.12l-1.56.55a10.44,10.44,0,0,0-.37-1.49l-3.91.43-3.73.41-.25-1.79,2-.16,1.81-.16V159h-3.27v-7.68H274v-4h1.71v4h3.42V159h-3.42v3.73l1.78-.18c-.22-.61-.54-1.36-1-2.26l1.47-.47A18.15,18.15,0,0,1,280,165.12Zm-7.69-7.69H274v-4.57h-1.7Zm5.19-4.57h-1.78v4.57h1.78Z"/><path class="cls-1" d="M289.34,164.85v-5.57q-1.3,2-2.65,3.93v-3.42l2.65-3.81v-1.66h-2.65v-2h2.65v-3h2v5a9.45,9.45,0,0,1,2.07-1.89,3.8,3.8,0,0,1,1.71-.67,2.71,2.71,0,0,1,1.64.32,2,2,0,0,1,.87,1.14,7.26,7.26,0,0,1,.13,2.53c-.06,1.1-.12,2-.16,2.6s-.09,1.19-.12,1.71-.05.87-.05,1a.69.69,0,0,0,.82.84,3,3,0,0,0,.88-.37v2.17a3.16,3.16,0,0,1-1.64.31,2.24,2.24,0,0,1-1.57-.86,2.9,2.9,0,0,1-.58-2c0-.33,0-.78,0-1.35s.06-1.16.1-1.77.1-1.56.19-2.86a2.3,2.3,0,0,0-.08-1.14c-.1-.22-.36-.25-.76-.11a5.52,5.52,0,0,0-1.66,1.21,16.23,16.23,0,0,0-1.83,2.11v7.66Z"/><path class="cls-1" d="M307,159.18v-5.39h2v3.15a7.48,7.48,0,0,1,4-1.68,5.09,5.09,0,0,1,2.82.49,4.15,4.15,0,0,1,1.81,1.64,4.46,4.46,0,0,1,.57,2.34,4.26,4.26,0,0,1-2.24,3.94q-2.25,1.31-7.65.47v-2a21.09,21.09,0,0,0,3.63.32,7,7,0,0,0,2.54-.37,2.56,2.56,0,0,0,1.3-1,2.29,2.29,0,0,0,.36-1.39,2.23,2.23,0,0,0-.38-1.27,2.57,2.57,0,0,0-1.11-.93,3.66,3.66,0,0,0-2-.14,6.61,6.61,0,0,0-2.15.84c-.62.39-1.13.72-1.52,1Zm1.55-9.53,1.56-.05,1.78,0c.61,0,1.22.07,1.83.14s1.21.14,1.78.21v2.09a30.09,30.09,0,0,0-3.63-.37c-1,0-2.11,0-3.32,0Z"/><path class="cls-1" d="M328.59,164.85v-5.57c-.87,1.34-1.76,2.65-2.65,3.93v-3.42l2.65-3.81v-1.66h-2.65v-2h2.65v-3h2v5a9.92,9.92,0,0,1,2.07-1.89,3.88,3.88,0,0,1,1.72-.67A2.66,2.66,0,0,1,336,152a2,2,0,0,1,.88,1.14,7.26,7.26,0,0,1,.13,2.53c-.06,1.1-.12,2-.17,2.6s-.08,1.19-.11,1.71-.05.87-.05,1a.69.69,0,0,0,.82.84,3,3,0,0,0,.88-.37v2.17a3.16,3.16,0,0,1-1.64.31,2.27,2.27,0,0,1-1.58-.86,2.89,2.89,0,0,1-.57-2c0-.33,0-.78,0-1.35s.06-1.16.09-1.77.11-1.56.2-2.86a2.3,2.3,0,0,0-.08-1.14c-.1-.22-.36-.25-.76-.11a5.52,5.52,0,0,0-1.66,1.21,16.27,16.27,0,0,0-1.84,2.11v7.66Z"/><path class="cls-1" d="M347,150h8.28v2L351,155.37a5.26,5.26,0,0,1,3.47-.19,3.51,3.51,0,0,1,2.13,1.64,5.92,5.92,0,0,1,.63,2.58,4.72,4.72,0,0,1-.72,2.66,4.9,4.9,0,0,1-1.91,1.74,6.89,6.89,0,0,1-2.51.74,6.53,6.53,0,0,1-2.61-.22,3.18,3.18,0,0,1-1.69-1.09,3,3,0,0,1-.66-1.8,2.39,2.39,0,0,1,.35-1.24,2.79,2.79,0,0,1,1.15-1,3.42,3.42,0,0,1,2.06-.2,3.84,3.84,0,0,1,2.12,1.14,7.5,7.5,0,0,1,1.12,1.73,2.5,2.5,0,0,0,.88-1,3.13,3.13,0,0,0,.31-1.41,2.57,2.57,0,0,0-.72-1.94,3.63,3.63,0,0,0-2.62-.66,7.22,7.22,0,0,0-2.71.62,7.75,7.75,0,0,0-1.94,1.3L345.61,160v-2.71l6.6-5.31c-.65,0-2.39,0-5.23,0Zm3.32,10.65a1.13,1.13,0,0,0-1,.32.72.72,0,0,0,0,.85,1.83,1.83,0,0,0,1,.74,4.11,4.11,0,0,0,1.23.15,1.63,1.63,0,0,0,.74-.17,3.14,3.14,0,0,0-.76-1.28A2.22,2.22,0,0,0,350.3,160.65Z"/><path class="cls-1" d="M365,156.94v-2h11.8v2h-4.07a8.89,8.89,0,0,1-1,3.68,6.8,6.8,0,0,1-1.81,2,8.17,8.17,0,0,1-2.18,1.15,9.61,9.61,0,0,1-2.2.49v-2.09a6.05,6.05,0,0,0,2.17-.58,5.08,5.08,0,0,0,1.9-1.51,5.84,5.84,0,0,0,1-3.18Zm.55-5v-2.05H376.3v2.05Z"/><path class="cls-1" d="M396.27,155a17.85,17.85,0,0,1-2.53,4.34,14,14,0,0,1-3.1,2.94,11.75,11.75,0,0,1-2.87,1.43,10.63,10.63,0,0,1-2.7.49V149.69h2.17v11.86a6.74,6.74,0,0,0,2.68-1.29,14.07,14.07,0,0,0,2.21-2.22,17.42,17.42,0,0,0,1.89-3Z"/><path class="cls-1" d="M404.18,157.66V150h11.48v3.46a13,13,0,0,1-.69,4.35,8.85,8.85,0,0,1-1.77,3,8.73,8.73,0,0,1-2.31,1.88,13.69,13.69,0,0,1-2.26,1,12.09,12.09,0,0,1-1.89.45v-2.19a10.62,10.62,0,0,0,2.2-.63,6.93,6.93,0,0,0,2.1-1.37,8.13,8.13,0,0,0,1.78-2.54,9.5,9.5,0,0,0,.77-4v-1.29h-7.26v5.55Z"/><path class="cls-1" d="M423.33,157.78v-2.13h8.59v2.13Z"/><path class="cls-1" d="M444.31,149.11c-.14.65-.31,1.32-.49,2h6.56v2.5a12.93,12.93,0,0,1-1.07,4.3,10.2,10.2,0,0,1-2.07,3.07,12.26,12.26,0,0,1-2.48,1.93,17.38,17.38,0,0,1-2.39,1.17,14.21,14.21,0,0,1-2,.66v-2.19a17.13,17.13,0,0,0,2.37-.93,10.66,10.66,0,0,0,2.39-1.64,9.72,9.72,0,0,0,2.09-2.6,10.16,10.16,0,0,0,1-4.22H443a16.5,16.5,0,0,1-2.27,3,11.74,11.74,0,0,1-1.75,1.48V155a10.07,10.07,0,0,0,1.32-1.5,11.46,11.46,0,0,0,1.15-2,10.8,10.8,0,0,0,.73-2.36Z"/><path class="cls-9" d="M69.49,217.68c-.93,0-1.82-.89-1.7-3l-.12-17.58c-.44-.33-4.34,0-6.11,0a2.19,2.19,0,0,1-1.57-2,50.68,50.68,0,0,1,.08-7c.12-1.24.6-1.89,1.65-2,6.36-.2,12.67-.24,19.07-.08,1.61,0,2.13.36,2.58,1.53a47.17,47.17,0,0,1,0,6.76c0,1.21-.53,1.89-1,2-1,.44-5.55.4-6.68.69L76,214.18c-.08,3-.6,3.1-1.16,3.46C73.79,217.72,71.17,218.16,69.49,217.68Zm4.42-21.13.16-1.2a1.63,1.63,0,0,1,1.69-.61,24.22,24.22,0,0,0,5.6-.52,18.87,18.87,0,0,0-.09-5.83c-3.13-.45-14.88-.37-19.23,0a28,28,0,0,0,.08,6.39l6.6-.16c.4.28,1,.28,1,1.13.08,1.73-.45,18.55.08,19.76a7.23,7.23,0,0,0,4,0C74.35,214,73.91,211.76,73.91,196.55Z"/><path class="cls-9" d="M88.15,216.67a8.26,8.26,0,0,1-.4-2.77l0-20.65a31.79,31.79,0,0,1,.4-6.19c.29-1,1.21-1.17,2.78-1.05h13a6,6,0,0,1,3,.85c.68.84.68,3,.48,6.23a3.72,3.72,0,0,1-.65,2.3c-1.28.64-8.89,0-10.5.64L96.28,198c.77.24,6.24-.08,7.41-.08a7.14,7.14,0,0,1,2.77.56,11.75,11.75,0,0,1,.53,5.44c-.17.88-.21,1.81-.89,2.21-.93.52-2.13-.2-9,.4l0,2.46,8.81,0c1.57,0,1.81.32,1.93,1.28a28.38,28.38,0,0,1-.24,6.48c-.24.81-.93,1-2,.85-13,.24-14.17.28-15.45.28A2.46,2.46,0,0,1,88.15,216.67Zm17.27-5.95-9.06.4A1.62,1.62,0,0,1,94.87,210a7.85,7.85,0,0,1,.29-5c1-.48,2-.76,9.45-.72.6-.44.64-1.09.6-2.54l-.24-1.57c-.84-.32-7.48-.08-8.69,0a1.63,1.63,0,0,1-1.57-.68c-.28-.28-.28-.88-.32-1.37l.12-3.5c.2-.52.57-.64.77-.84l10.1-.2c.28-1.13,0-3.34,0-5.23a9.38,9.38,0,0,0-3.67-.25s-9.57-.2-11.1,0a1.32,1.32,0,0,0-.89.89c-.08,8.81.08,17.26.2,26.31a113,113,0,0,0,15.82,0C105.86,214.38,105.94,211.08,105.42,210.72Z"/><path class="cls-9" d="M119.5,217.6a23.74,23.74,0,0,1-5.76-.49c-.68-.16-1.16-1-1.16-2.45s0-23.86-.12-25.11a7.1,7.1,0,0,1,.48-2.65c.28-.89,1.25-1,2.17-1a25.8,25.8,0,0,1,4.31-.08,1.68,1.68,0,0,1,1.49,1.57c.36,1.41.12,17.38.2,19.64,1.24.08,2.81-.13,4.74,0a25.8,25.8,0,0,1,4.91.36,2.3,2.3,0,0,1,1.37,1.77,56.21,56.21,0,0,1-.2,6.4,2,2,0,0,1-1.61,1.52A93.79,93.79,0,0,1,119.5,217.6Zm10.86-6.76a1.85,1.85,0,0,0-.36-1.41c-.85-.48-2-.16-8.89-.28a2.83,2.83,0,0,1-1.81-.36c0-8,0-12.72,0-19.84l-.12-.85c-.41-.6-1.49-.44-3.18-.32a1.67,1.67,0,0,0-1.49.73,15.38,15.38,0,0,0-.08,2.49l.12,20.12c-.08,2.49-.16,3.94.68,4.1a22.25,22.25,0,0,0,3.74.29c1.13.16,9.94,0,9.94,0,.65-.16,1.25-.28,1.37-1.16C130.28,214.3,130.44,211.8,130.36,210.84Z"/><path class="cls-9" d="M136.44,216.67a8,8,0,0,1-.41-2.77l0-20.65a31,31,0,0,1,.41-6.19c.28-1,1.2-1.17,2.77-1.05h13a5.92,5.92,0,0,1,3,.85c.68.84.68,3,.48,6.23a3.78,3.78,0,0,1-.64,2.3c-1.29.64-8.9,0-10.51.64l-.08,1.93c.77.24,6.24-.08,7.41-.08a7.14,7.14,0,0,1,2.77.56,11.75,11.75,0,0,1,.53,5.44c-.16.88-.2,1.81-.89,2.21-.92.52-2.13-.2-9,.4l0,2.46,8.81,0c1.57,0,1.81.32,1.93,1.28a28.38,28.38,0,0,1-.24,6.48c-.24.81-.93,1-2,.85-13,.24-14.16.28-15.45.28A2.43,2.43,0,0,1,136.44,216.67Zm17.26-5.95-9.06.4a1.6,1.6,0,0,1-1.48-1.09,7.78,7.78,0,0,1,.28-5c1-.48,2-.76,9.45-.72.61-.44.65-1.09.61-2.54l-.25-1.57c-.84-.32-7.48-.08-8.69,0a1.63,1.63,0,0,1-1.57-.68c-.28-.28-.28-.88-.32-1.37l.12-3.5c.2-.52.57-.64.77-.84l10.1-.2c.28-1.13,0-3.34,0-5.23a9.34,9.34,0,0,0-3.66-.25s-9.58-.2-11.11,0a1.32,1.32,0,0,0-.89.89c-.08,8.81.08,17.26.21,26.31a112.88,112.88,0,0,0,15.81,0C154.14,214.38,154.22,211.08,153.7,210.72Z"/><path class="cls-9" d="M163.19,216.27a32.39,32.39,0,0,1-1.21-6.56c-.28-2.25-2.09-18.39-2.21-20.64-.2-1.33.2-2.37,1.21-2.41a11.3,11.3,0,0,1,4.38-.77c1.33-.08,2.26.12,2.54.89.44,1.77.72,3.7,1.17,5.79.28,1.93.72,6,1.08,8.09.57-3.42,1.33-6,1.77-7.85.45-2.09,1.29-4.83,2.42-5.63,1.16-.24,3.38-.48,4.54.16.53.48.93,1.25,1.65,4.63.37,2.69,1.05,6.47,1.45,8.61.77-4.51,1.73-10.87,2.26-12.19.24-1.65.84-2.66,2.37-2.46,1.73.16,4.55.48,5.79,1.81.53.32.61,1.33.37,2.58-.61,4.66-1.21,8.25-1.9,12.43-.88,4.18-2,10.22-3.13,14.2-.93.69-3.58.57-5.76.57a6.36,6.36,0,0,1-3-.77,19.57,19.57,0,0,1-1.52-4.62c-.45-2.26-1-4.27-1.25-6.28l-.4-.2c-.81,2.21-1.29,4.1-1.81,6a25.89,25.89,0,0,1-1.73,5.19,13.9,13.9,0,0,1-6.48.73A2.4,2.4,0,0,1,163.19,216.27Zm9.66-7.48a30.39,30.39,0,0,1,2.29-5.68,1.39,1.39,0,0,1,2,0c.33.32.85,2.46,1.81,5.43.69,2.9,1.25,5.23,1.86,6.2,1,.85,4.46,1,5.31.16,1-5.19,1.89-9.09,2.73-13.12.77-3.86,1.45-8.32,1.89-12.71a5.65,5.65,0,0,0-4.18-1.21c-.44,2.66-1.05,6.16-1.61,8.73a51.28,51.28,0,0,1-2,7.57,1.4,1.4,0,0,1-1.73.08,50.14,50.14,0,0,1-2.22-8.13,51.34,51.34,0,0,0-1.36-6.68,2.62,2.62,0,0,0-2.42-.2c-.72,2-1.41,5.31-2.29,7.73a75.58,75.58,0,0,1-2.38,7.52,1.82,1.82,0,0,1-1.44-.08,27.15,27.15,0,0,1-1.53-7.48,65.49,65.49,0,0,0-1.37-8.53c-1.17-.81-3.14-.33-4.63.28.65,5.15,2.38,22.57,3.54,26.47a8.31,8.31,0,0,0,5.68-.12C171.48,213.09,172.16,210.88,172.85,208.79Z"/><path class="cls-9" d="M203.79,217.24a9.82,9.82,0,0,1-3.78-2.86,15.58,15.58,0,0,1-3.1-7.81,33.56,33.56,0,0,1-.12-8.53,15,15,0,0,1,1.69-4.79,13.66,13.66,0,0,1,2.49-3.66,15.36,15.36,0,0,1,4.71-3.5,14.81,14.81,0,0,1,5.43-1,12.55,12.55,0,0,1,4.79,1.73,15.25,15.25,0,0,1,3.9,4,17.21,17.21,0,0,1,2.22,6,26.76,26.76,0,0,1,.56,6.84c0,1.61-.24,3.5-.4,5.07a10.15,10.15,0,0,1-1.89,4.06,9.86,9.86,0,0,1-3.5,3.38,11.83,11.83,0,0,1-3.91,1.77,17.75,17.75,0,0,1-4.62.28A14.62,14.62,0,0,1,203.79,217.24Zm14.89-6c.8-.88,1.12-2.49,1.41-4.22a33.89,33.89,0,0,0,.32-7.25,16.85,16.85,0,0,0-1.37-5.63,15.48,15.48,0,0,0-3.38-4.55,7.32,7.32,0,0,0-5.47-2.09,12,12,0,0,0-4.39,1.05,9.45,9.45,0,0,0-3.42,2.89,13.57,13.57,0,0,0-2.9,5.52,24.94,24.94,0,0,0-.68,6.43c.2,1.81.68,6.24,2.29,8.37a11.21,11.21,0,0,0,4.87,3.71,10.91,10.91,0,0,0,12.72-4.23Zm-13.16-2.78a9.2,9.2,0,0,1-2.54-6.59l.09-2a11.45,11.45,0,0,1,1.44-3.46,6.47,6.47,0,0,1,5.32-2.65c3.34.32,4,1.45,4.82,2.53a10.16,10.16,0,0,1,1.61,6.36,12.15,12.15,0,0,1-2.53,6.16,6.51,6.51,0,0,1-4.39,1.48C207.93,210.27,206.73,209.35,205.52,208.5ZM214,201a7.4,7.4,0,0,0-1.45-3.86,5.58,5.58,0,0,0-4.39-.93,4.4,4.4,0,0,0-2.17,1.57,12,12,0,0,0-.92,4.31,8.57,8.57,0,0,0,2.69,5.47,3.74,3.74,0,0,0,4.63-.65A10.42,10.42,0,0,0,214,201Z"/><path class="cls-9" d="M227.49,216.19a22.42,22.42,0,0,1-.61-6.88l.12-20a3.78,3.78,0,0,1,.85-2.45c.28-.73,1.85-1.09,4.91-.89a50,50,0,0,1,9.74.56,7.23,7.23,0,0,1,4.38,2.82c1.33,1.89,1.49,4.43,1.65,6.92-.2,2-.28,3.86-1.53,5.27a6,6,0,0,1-2.93,1.89c.6,2.58,4.18,8.94,4.5,10.79a2.69,2.69,0,0,1-1.77,1.93,8.22,8.22,0,0,1-3.18,1.25c-.64.4-1.65-.12-2.17-1.53-.84-1.77-3.82-8-4.43-9.7a6.68,6.68,0,0,0-2.33-.08l-.08,7.48a6.24,6.24,0,0,1-.64,3.18,6.6,6.6,0,0,1-3.5.93A3,3,0,0,1,227.49,216.19Zm5.39-3.06v-7.52c0-.69.24-1.25.76-1.41h3.26c1.25,0,1.77.68,2.22,2s3.13,7.32,4,8.69a3.92,3.92,0,0,0,3.3-1.29c-.56-2.29-3.94-8.12-4.47-9.73-.48-1,.12-1.41.81-1.73a7.51,7.51,0,0,0,3.14-2.06,16.29,16.29,0,0,0,.68-5.27c-.36-1.57-.56-3.14-1.57-4.26a7.74,7.74,0,0,0-4.83-2.46c-1.85,0-10.3-.68-10.82.33-.44,1.48-.72,21.4-.72,21.4a20.16,20.16,0,0,0,.52,5.07c.64.4,2.45.77,3.14.16A4.31,4.31,0,0,0,232.88,213.13Zm.08-14-.08-5.92c.16-.92.6-.88.93-1.16l3.46-.12a5.11,5.11,0,0,1,4,1.85,5.21,5.21,0,0,1,.88,3,4.07,4.07,0,0,1-1,2.14,4.39,4.39,0,0,1-3.22.84l-4.1.2C233.44,199.89,233.16,199.69,233,199.09Zm7.2-3.34c-.28-.85-.72-1.49-1.16-1.57a16.39,16.39,0,0,0-4.23-.16v3.58a22.84,22.84,0,0,0,4.27.2A2.2,2.2,0,0,0,240.16,195.75Z"/><path class="cls-9" d="M253.92,216.23c-.36-1.13-.4-2.29-.56-27.28,0-1.53.56-2.5,1.29-2.66a12.22,12.22,0,0,1,5.19-.64c.68,0,1.57,0,1.89.76.64.37.64,1.73.6,7.37h.08a36.5,36.5,0,0,0,4.43-3.91,35,35,0,0,1,3.66-3.21l.72-.17a4.51,4.51,0,0,1,3.51,1.94,9.14,9.14,0,0,1,1.64,5c-.88,1.69-5.35,5.87-6.23,7,1.33,1.93,6.28,10,7.24,12.35.2,1.17.2,1.77-.64,2.45a17.36,17.36,0,0,1-4.83,2.34,2.23,2.23,0,0,1-2.25-1.45c-.89-1.37-2.22-4-3.18-5.59-1.21-1.94-2.14-3.34-3.1-4.83a1.68,1.68,0,0,0-1.17,1c-.12,3-.2,6-.28,8.73a1.94,1.94,0,0,1-.85,1.65c-1,.93-2.65.69-4.18.69A3.58,3.58,0,0,1,253.92,216.23Zm6.36-11a8.55,8.55,0,0,1,3.66-2.17c.93.52,2.58,3.58,3.82,5.76s2.62,4.66,3.63,6.31c1.2.12,3.38-1,4.18-1.69-1.13-2.45-5.35-9.57-6.52-11.34-.44-.77-1-1.25-.88-2.18a30.7,30.7,0,0,1,5.35-6.07,1.85,1.85,0,0,0,.76-1.41,6.83,6.83,0,0,0-2.13-3.38l-.72-.28c-1.37,1.16-3,2.57-4.59,3.94s-2.58,2.7-4.27,4a2.05,2.05,0,0,1-1.81,1.17c-.72-.12-.72-.8-.84-1.29l.12-8.93a9.15,9.15,0,0,0-4.19.2,16,16,0,0,0-.48,3.66c0,1.25,0,2.3.16,22a3,3,0,0,0,.4,1.85,6,6,0,0,0,3.87-.12C260,214.26,259.72,209.47,260.28,205.2Z"/><path class="cls-9" d="M311.94,213.82l-1.77,1.81L299,204.48l-11.11,11.15-1.77-1.81,11.11-11.11L286.15,191.6l1.77-1.81L299,200.94l11.14-11.15,1.77,1.77-11.1,11.15Z"/><path class="cls-9" d="M328.24,216a11.86,11.86,0,0,1-4.35-3.66,18.63,18.63,0,0,1-2.57-9.46c-.24-3.26-.36-6.72-.36-10.18a43.65,43.65,0,0,1,.12-4.47c.32-1,.76-1.85,1.73-2a21.34,21.34,0,0,1,5.31-.16c1,.08,1.49,1.09,1.69,1.93-.12,2.38,0,11.55-.08,12.8a11.71,11.71,0,0,0,1.65,5.19,4.12,4.12,0,0,0,2.85,1.13c1.89-1.57,2.18-4.39,2.18-7,0-3.38.36-8,.4-11.46a3.09,3.09,0,0,1,.76-2.62c1.21-.4,5-.16,6.36.08.85,0,1.69,1.25,1.57,2.13.12,1.41,0,4.83-.16,12a36.81,36.81,0,0,1-1.09,7.68,17.38,17.38,0,0,1-3.38,6.88,9.43,9.43,0,0,1-3.54,2.17,10.15,10.15,0,0,1-4.14.61A13.3,13.3,0,0,1,328.24,216Zm12.63-5.92a34,34,0,0,0,2.3-9.81c.08-3.42.24-6.84.12-10.79l-.16-1.33a6.13,6.13,0,0,0-3.87-.24c-.32.69-.44,1.37-.72,12.23-.12,4.11-.85,6.48-2.33,8.05a4.44,4.44,0,0,1-3.26.89,5.26,5.26,0,0,1-3.54-2.74,9.85,9.85,0,0,1-1.61-4.91c-.09-1.53-.09-3.26-.09-5l.09-8.08c-1.17-.77-3.79-.65-4.47,0a34,34,0,0,0-.12,7.52c.2,2.86.16,5.75.52,8.45a15.12,15.12,0,0,0,2.82,7.4,8.2,8.2,0,0,0,4.5,3.18,9.88,9.88,0,0,0,4.51.44A9.37,9.37,0,0,0,340.87,210.11Z"/><path class="cls-9" d="M349.88,216.47a10.3,10.3,0,0,1-.56-4.91V191.12c-.24-1.61,0-4.26,1.29-4.79a23.47,23.47,0,0,1,5.15-.48,1.87,1.87,0,0,1,2.13,1.29,51.87,51.87,0,0,0,2.26,6.4,70.52,70.52,0,0,1,2.73,7.28l.32.08c1.25-2.78,2.18-5,3.06-7.24s1.45-4.23,2.29-6.44a1.75,1.75,0,0,1,1.66-1.29c1.36.08,3.25-.08,4.5,0a2.68,2.68,0,0,1,2.58,2.25c.24,2.06.2,3.26.28,5.44s.16,4.7.16,21.4c0,1.21-.24,2.13-1.05,2.42a24.88,24.88,0,0,1-4.83.2c-1.36,0-1.81-.28-2.05-1.33-.28-2.33-.12-6.68-.28-10.3-.84,1.85-2.45,6.08-3.74,7.52-1.37.73-2.34,1-3.06.73-.84,0-1.13-.36-2.21-1.13-1.21-1.29-2.58-4.3-3.34-6.36,0,1.53,0,5.56,0,6.88.2,2.34-.36,3.91-1.17,3.95l-3.66,0C351.41,217.52,350.37,217.4,349.88,216.47Zm5.56-7.85v-7.28a1,1,0,0,1,1.45-.84c.48,1.28,1,4.1,1.77,5.75s1.89,4.23,3.26,5.31a2.74,2.74,0,0,0,2.37.16c1.77-1.81,2.29-4.06,3.18-5.87a30.13,30.13,0,0,0,2-5.27c.36-.45.81-.61,1.21,0a19.41,19.41,0,0,1,.56,4.83s0,9.21.4,10.3a7.92,7.92,0,0,0,3.75-.12c.36-1.09.2-19.32.2-21.21a58.62,58.62,0,0,0-.37-6,8.58,8.58,0,0,0-5-.29,64.33,64.33,0,0,1-2.78,7.93,42.41,42.41,0,0,1-3.74,7.32,1.36,1.36,0,0,1-1.57,0,6.85,6.85,0,0,1-1.25-2.37c-.76-2-1.57-4.1-2.37-6.28a31.46,31.46,0,0,1-2.18-6.48,8,8,0,0,0-4.78,0,16.28,16.28,0,0,0-.53,4.31l.4,20.92a3.39,3.39,0,0,0,.53,1.93,3.07,3.07,0,0,0,3.26.17C355.64,213.77,355.36,210.88,355.44,208.62Z"/><path class="cls-9" d="M382.76,217.64a1.55,1.55,0,0,1-.89-.93,25.05,25.05,0,0,1-.08-6.23c-.08-.45.12-1.33.61-1.53a5,5,0,0,1,2.45-.33l0-13.47-1.69-.09a1.61,1.61,0,0,1-1.37-.88l-.16-1.13.12-6c.4-1,2-1.09,3.14-1a49,49,0,0,1,6.84,0c2.09.12,2.94.08,3.14,1.17a31.36,31.36,0,0,1,.16,7.16c-.12,1.13-.89,1.17-2.78,1.29L392,208.1a5.76,5.76,0,0,1,3.1.93,10,10,0,0,1,.44,4.14,18.13,18.13,0,0,1-.36,3.54,3.35,3.35,0,0,1-2.25.77A72.9,72.9,0,0,1,382.76,217.64Zm10.78-3.42V210.8c-.76-.49-2-.32-3.42-.49,0-12.59.24-14.84.44-17,1-.48,2-.16,2.58-.32a25,25,0,0,0-.08-4.83,48.32,48.32,0,0,0-9.62,0,34,34,0,0,0,.16,4.59l2.74-.16a1.1,1.1,0,0,1,.36,1.17c0,3.22,0,13.15,0,15a2.78,2.78,0,0,1-.56,2.17l-2.7.08c.08,1.29.08,3.7.2,4.42a29.49,29.49,0,0,0,9.66,0A2.74,2.74,0,0,0,393.54,214.22Z"/><path class="cls-9" d="M409.47,217.68c-.92,0-1.81-.89-1.69-3l-.12-17.58c-.44-.33-4.34,0-6.11,0a2.19,2.19,0,0,1-1.57-2,50.68,50.68,0,0,1,.08-7c.12-1.24.6-1.89,1.65-2,6.36-.2,12.67-.24,19.07-.08,1.61,0,2.13.36,2.58,1.53a47.17,47.17,0,0,1,0,6.76c0,1.21-.53,1.89-1,2-1,.44-5.55.4-6.68.69l.28,17.18c-.08,3-.6,3.1-1.16,3.46C413.78,217.72,411.16,218.16,409.47,217.68Zm4.43-21.13.16-1.2a1.63,1.63,0,0,1,1.69-.61,24.06,24.06,0,0,0,5.59-.52,18.51,18.51,0,0,0-.08-5.83c-3.13-.45-14.88-.37-19.23,0a28,28,0,0,0,.08,6.39l6.6-.16c.4.28,1,.28,1.05,1.13.08,1.73-.45,18.55.08,19.76a7.23,7.23,0,0,0,4,0C414.34,214,413.9,211.76,413.9,196.55Z"/><path class="cls-9" d="M444.76,216.71c-.84-2.29-1.49-5.67-2.05-7.28l-5.79.56a24,24,0,0,1-1.29,7,11.72,11.72,0,0,1-5.19.57,3.44,3.44,0,0,1-3.1-1.57l-.12-1.13a118.82,118.82,0,0,1,3.18-14.56,78.3,78.3,0,0,1,4.83-13.64,8.41,8.41,0,0,1,4.78-.81c1.73-.16,3.38,0,4.35,1.13,1.73,4.5,3.46,9.09,4.95,13.92a127.7,127.7,0,0,1,3.14,14,2.13,2.13,0,0,1-.61,1.33,14.12,14.12,0,0,1-4.58,1.21A2.5,2.5,0,0,1,444.76,216.71Zm-9-8.69c1.17-.24,6.8-.56,8.13-.72a1.43,1.43,0,0,1,.92,1.28l1.21,6.6a6,6,0,0,0,4.1-.36,1.23,1.23,0,0,0,.41-1.25c-1-4.3-2.1-8.41-3.3-12.79a107.33,107.33,0,0,0-4.47-12.43l-.89-.25a16.57,16.57,0,0,0-5.51.33,123.82,123.82,0,0,0-4.34,12.95,79.69,79.69,0,0,0-2.94,13.56c.76.57,1.69.89,5.39.44C434.82,213.25,434.86,209.55,435.79,208Zm.88-5.59a6.58,6.58,0,0,1,.16-2.74c.25-3.18.57-5.91,2-7.88.32-.37.72-.17,1.32,0,1,.88,1.33,2.69,1.53,4.26.24,2.05.49,3.74.73,5.27-.36,1-1,1.33-2.1,1Zm2.9-8.41-.4.08c-.24,2-.44,3.86-.6,6.24a3.8,3.8,0,0,0,1.77.12A36.73,36.73,0,0,0,439.57,194Z"/><path class="cls-9" d="M456.15,216.07c0-1.21,0-2.54-.12-27.4a3,3,0,0,1,.72-2.54,6.29,6.29,0,0,1,2.9-.6,26.28,26.28,0,0,1,4,.2c1.29,1.25,7.33,13.68,8.17,15l-.4-13.6c.08-.77.36-1.33.8-1.29l2.7-.28a20.44,20.44,0,0,1,4.06.4c.69.2.93,1,.93,3.1l.16,26.35c0,1.41-.44,1.65-.89,2a13.05,13.05,0,0,1-4.26.2c-1.41-.16-1.89,0-2.86-1-2.05-2.78-6.68-11.79-7.48-12.51l-.36-.36c-.08,1.69-.13,5.35-.13,9.37,0,2.17-.12,3.78-1,4.27a21,21,0,0,1-5.19.16A1.65,1.65,0,0,1,456.15,216.07Zm6.15-11.43a30.29,30.29,0,0,1,.16-3.7c.25-.93,1.17-.89,1.9-.85,1.61,1.61,3,4.87,4.18,6.76,1.37,2.26,4.15,7.81,4.75,8.37a16.51,16.51,0,0,0,4.38.41c.37-.08.45-.41.45-1.25l.12-24.59a13.88,13.88,0,0,0-.45-1.93c-1-.28-3.82-.36-4.46.12l.16,16.22c-.52,1-.8.44-1.13.48-2.29-2.53-7.84-14.12-9.73-16.94a12.85,12.85,0,0,0-4.63.08s0,20.76,0,22.33-.08,3.67.08,5.19a8.15,8.15,0,0,0,3.74-.08C462.38,214.38,462.46,213.05,462.3,204.64Z"/><path class="cls-9" d="M161,246.48c-.13.58-.13,1.59-2.52,1.59H157.2a1.55,1.55,0,0,0-1.51,1.08c-.32,1.59-1.14,4.52-3.15,6.11-1.28,1-2.23,1.3-3.1.23s.25-1.88,1.47-3.62a10.06,10.06,0,0,0,1.2-2.68c.19-.62-.33-1.1-1.05-1.12l-2.35,0c-1.76,0-2.63-.18-2.84-1.07s.11-2.15,2.18-2.26,10-.1,11.4.11S161.08,245.88,161,246.48Zm-12.48-4.73c0-1,.65-1.78,2.51-1.78s4.93.11,6.13.11a1.71,1.71,0,0,1,1.76,1.67c0,.68-.87,1.45-2.09,1.45h-5.68C149.8,243.2,148.5,242.72,148.5,241.75Z"/><path class="cls-9" d="M172.84,240.35a2.1,2.1,0,0,1,2,2.08c0,1.3,0,7.69-.05,8.31s0,.76.5.78a27.12,27.12,0,0,0,4.07-1c1.18-.41,2.52-.66,3.16.41a2.34,2.34,0,0,1-1.14,3c-1.1.66-6.51,1.9-7.55,2a2.66,2.66,0,0,1-3-2.48c0-1.67,0-9.77,0-10.95A2,2,0,0,1,172.84,240.35Z"/><path class="cls-9" d="M206.55,244.31a17.7,17.7,0,0,1-2,7.42,11.12,11.12,0,0,1-4.39,4.11,2.25,2.25,0,0,1-.82.15,1.77,1.77,0,0,1-1.61-.79,2.17,2.17,0,0,1,.93-2.66,7.34,7.34,0,0,0,3.43-4,11,11,0,0,0,.46-2.44,1.38,1.38,0,0,0-1.2-1.49l-5.41.12s-1.1-.2-1.24,1.14a1.66,1.66,0,0,1,0,.33,1.72,1.72,0,0,1-1.58,1.49h0a1.63,1.63,0,0,1-1.75-1.34,16.28,16.28,0,0,1,0-3.35,2.34,2.34,0,0,1,2.63-1.82c.2,0,.49,0,.91,0l3.2,0c1.4,0,2.85,0,4,0s1.82,0,2.11,0A3,3,0,0,1,206.55,244.31Z"/><path class="cls-9" d="M228.91,247.72a1.42,1.42,0,0,1-.33,1,3.56,3.56,0,0,1-2.4.75c-.59,0-3.22,0-4.48,0-3.26,0-4.77,0-5.43-.06-1.74-.09-2-1-2-1.51a2,2,0,0,1,2.09-1.94c.27,0,1.47,0,2.81,0,2.36,0,3.35,0,5.44,0,.93,0,1.57,0,1.77,0C227.63,246.07,228.83,246.25,228.91,247.72Z"/><path class="cls-9" d="M239.71,248a1.6,1.6,0,0,1-2.49-1.65c.16-1.06.82-1.33,1.75-3.41.83-1.88,1.47-2.57,3.08-2.48s5.91,0,7,.2,2.15,1.26,1.58,4c-.89,4.4-2.34,8.1-5,10.5-1.92,1.71-2.79,1.24-3.45.64s-.51-1.8.58-2.92a15.26,15.26,0,0,0,3.07-4.36,10.51,10.51,0,0,0,1-3.18c.19-1-1-1.19-1-1.19h-2a1.85,1.85,0,0,0-1.94,1.07A7.33,7.33,0,0,1,239.71,248Z"/><path class="cls-9" d="M284.08,250.35c.68.68,1.2,1.4.47,2.23a.93.93,0,0,1-.72.37,2.52,2.52,0,0,1-1.67-.87c-.23-.19-1.1-1-1.86-1.76a1.31,1.31,0,0,0-1.73,0c-1.18,1.14-2.13,2.05-2.32,2.21-.91.79-1.55.52-1.94.15a1.55,1.55,0,0,1,.16-2.17c.13-.1.62-.62,1.18-1.18l1-1a1.11,1.11,0,0,0,0-1.59c-1.1-1.16-2.07-2.15-2.25-2.36-.89-1-.54-1.59-.27-1.86a1.5,1.5,0,0,1,2.15.09c.16.12,1.22,1.28,1.92,2l.31.31a1.16,1.16,0,0,0,1.59,0c1.14-1.12,2.05-2,2.21-2.13.62-.54,1.35-1,2.05-.43a1.45,1.45,0,0,1,0,2.21c-.21.25-1.12,1.18-2.3,2.31a1,1,0,0,0-.06,1.51c.43.41.8.79,1.09,1.07Z"/><path class="cls-9" d="M318.2,253.34a7.63,7.63,0,0,1-4.13,2.73,1.61,1.61,0,0,1-1.94-2.11c.47-1.22,2.42-1.67,3.62-3.12a2.06,2.06,0,0,0-2.17-3.3c-1.06.18-3,1.21-3.85,1.07-1.15-.19-1.79-1-1.4-2.07s2.5-2.23,4.84-2.35,5.18.33,6.17,2.87A6.29,6.29,0,0,1,318.2,253.34Zm-7.45-12.77A1.84,1.84,0,0,1,313,239.5a17.28,17.28,0,0,1,3.63,1.26,1.43,1.43,0,1,1-1.11,2.64c-1.06-.22-2.38-.51-3.21-.78C310.82,242.1,310.55,241.42,310.75,240.57Z"/><path class="cls-9" d="M333.25,243.71c-.75-.06-1.84-.27-2-1.09-.28-1.43.87-2.21,2.13-2.21,2.09,0,3.21.35,3.78,1.28a3.08,3.08,0,0,1,.37,1.9,1.09,1.09,0,0,0,1,1.24l.91.1a1.08,1.08,0,0,0,1.12-1c.13-.89.52-2,1.51-1.94,1.34,0,1.53,1.69,1.51,2.79a1.23,1.23,0,0,0,.72,1.3,2,2,0,0,1,1.17,1.88,1.47,1.47,0,0,1-1.44,1.32,1.2,1.2,0,0,0-1.1,1.1,9.35,9.35,0,0,1-.21,1c-.47,1.88-1,2.93-2.48,3.82a1.34,1.34,0,0,1-1.92-1.67c.17-.56,1.08-1.53,1.26-2.21a12.62,12.62,0,0,0,.42-1.66c.16-.93-.89-1.28-.89-1.28l-.66-.08s-1-.29-1.18,1a7.13,7.13,0,0,1-1.12,2.73,3.65,3.65,0,0,1-4.13,1.3,4.13,4.13,0,0,1-2.66-5.31,4.38,4.38,0,0,1,3.7-2.91c.37-.06,1-.19.95-.81C334,244,333.68,243.73,333.25,243.71Zm-.5,4.73c-.31.48-.17,1.31.39,1.39.72.08,1-.41,1-1.08S333.08,248,332.75,248.44Z"/><path class="cls-9" d="M360.3,245.8a1.17,1.17,0,0,0-1.2.87c-.76,3-1.84,6.63-2.13,7.5-.37,1.15-1.1,2.13-2.4,1.86s-1.34-1.68-1.05-2.92c.17-.74,1.06-4,1.82-6.75a.65.65,0,0,0-.51-.89c-1.1-.12-1.94-.43-2-1.55-.13-1.3.93-2.21,2.5-2.15a2.62,2.62,0,0,1,.37,0c.72.11.91-.27,1.2-.87.64-1.26,1.26-1.9,2.23-1.57s1.18,1,1.16,2c0,.45.1.78.74.82s1.16.11,1.4.13a2,2,0,0,1,1.39,2.1c0,.93-.79,1.45-2.09,1.49C361.36,245.84,360.86,245.84,360.3,245.8Zm7.08,8.82c-.37,1.45-3,1.61-4.65,1.16s-3-1.43-2.54-2.77c.34-1,1.16-1.36,2.4-1.07a30.21,30.21,0,0,0,3.51.53A1.54,1.54,0,0,1,367.38,254.62Zm-.28-6.51a1.41,1.41,0,0,1-1.18,2.24c-.95,0-2.31-.23-2.93-.25-1,0-1.82-.25-2.13-1.14s.58-1.94,2.09-2C364.7,246.81,366.46,247,367.1,248.11Z"/><path class="cls-9" d="M382.41,240c1.57.55,1.34,1.9.95,3.2-.25.87-.85,3-1.23,4.36-.2.68.17,1,1,1.11a6,6,0,0,1,1.94.52c1.61.7,1.65,2,2.62,2.75,1.48,1.11,1.11.62,1.65,1.15a1.67,1.67,0,0,1-1.18,3c-2.91,0-3-1.88-3.9-2.89a2.46,2.46,0,0,0-3.89.8c-.62,1.28-1.63,2.19-2.73,2-1.65-.36-1.63-1.74-1.13-3.83.83-3.34,1.91-6.9,2.86-10.16C379.89,240.14,380.94,239.54,382.41,240Z"/><rect class="cls-10" width="540" height="270"/></g></g></svg>