<svg xmlns="http://www.w3.org/2000/svg" viewBox="0 0 270 180"><defs><style>.cls-1{fill:#577754;}.cls-2{fill:#adc3e6;}.cls-3{fill:#231815;}.cls-4{fill:#e19f2c;}.cls-5{fill:#b9ae82;}.cls-6{fill:#2f4a57;}.cls-7{fill:#907c52;}.cls-8{fill:#5cc588;}.cls-9{fill:#809524;}.cls-10{fill:#6f564d;}.cls-11{fill:#fff;}.cls-12{fill:#3e3a39;}.cls-13{fill:#e4da60;}.cls-14{fill:#e59a3b;}.cls-15{fill:#5b4349;}.cls-16{fill:none;}</style></defs><g id="レイヤー_2" data-name="レイヤー 2"><g id="section_1-1"><path class="cls-1" d="M60.39,166.25c12.08,8.9,26.26,12.19,40.44,8.9,10.08-2.25,18-10.75,28.3-13.56,8.33-2.27,15.81-1.61,24.25-.59,9.29,1.13,19.48-3.73,28.41-6.26,8.31-2.35,16.85-4.82,23.48-9.88,7.91-6.05,13.09-15.55,11.3-25-.75-4-2.58-7.73-4-11.57-1.31-3.52-1.37-8.2-3.21-11.45-1.42-2.5-4.4-4.57-6-7.09-4.68-7.22-2.33-12-2.32-19.37,0-5.46-4.64-10.81-8.27-14.79-10.24-11.24-36.74-7-47.27-7-18.9,0-28.88-14.53-55.14-11.72-9.74,1-40.43,7.5-53,20.63s-14.46,34.77-11,45.48c4.2,13.13,12.47,22,19.43,30.48C54.54,144.19,47.47,156.72,60.39,166.25Z"/><path class="cls-2" d="M53.55,4.94c-1,4-.36,9.21,0,13.29A77.54,77.54,0,0,0,55.16,28c.51,2.3,1.55,4.51,2,6.74,2.43-1.94,4.91-2.95,7.32-5.17s4.77-5,7.42-7c2.2,1.3,2.27,4.5,3.47,6.53,1.33,2.24,3,3.89,4,6.28-2.93,1.4-5.81,2.89-8.74,4.43-1,.51-6.87,2.94-7.81,3.26.08.62,3.18,3.45,4.31,4.26a39.48,39.48,0,0,0,5.23,3A37.42,37.42,0,0,0,80,53.21c1.59.42,3.37.5,4.76,1-1.54,2.43-5.32,4.56-8,5.15a44,44,0,0,1-11,.75,23.92,23.92,0,0,1-12.13-4.26,36.61,36.61,0,0,1-4.27-3.54c-.6-.56-2.1-2.47-2.83-2.71a.47.47,0,0,1-.15-.25c-3.25,1.41-9.85,5.62-12.74,1a6.61,6.61,0,0,1,.16-6.61c1.07-1.56,4.52-4,6.47-3.29.47-1.11-.11-3.22-.16-4.5C40,34.28,40,32.47,40,30.82c0-4.69-.76-10.11.63-14.59.84-2.72,2.28-6.66,4.19-8.77S50.61,4.1,53,3.6c.71.94.55,3.9.25,4.79"/><path class="cls-3" d="M36.31,47.44a.94.94,0,1,0,.94-.94A.94.94,0,0,0,36.31,47.44Z"/><path class="cls-4" d="M34.62,51.58,33,48.75c-.83.72-1.78,1.42-2.63,2.12-.68.57-2.3,2-2.05,2.52s2.63-.33,3.37-.65C32.79,52.26,33.32,52.1,34.62,51.58Z"/><path class="cls-5" d="M193.27,67.55S186.16,66.06,183,67a69.18,69.18,0,0,1-12.3,2.09c-4.82.47-8.2,2.09-14.23,1.86s-6.27.23-13-.46-10.85-1.4-16.4-2.33A94.25,94.25,0,0,0,111.89,67c-4.1,0-7.32,1.83-9.4,1.86s-9.9,2-9.9,2S58.26,135.07,56.5,135.92s-6.34,9.92-6.34,9.92l-3.45,4.44s2.73,11.37,10.93,11.84,13.48-2.75,18.08-2.79,12.94,5.48,21.86,7.34,17.45,1.49,22.51.1,12.06-6.51,27-4.42,17.68,6,28.21,4.42c5.76-.85,24.6-11.63,37.62-11.86s23.39.69,27.49.46,4.84-2.69,4.84-2.69Z"/><path class="cls-6" d="M176,111.23s3.58,3.18,3.32,4.94-3.14,2.17-3.14,2.17a36.41,36.41,0,0,0-2.78,3.12c-1.51,1.89-3.27,2.27-4,1.64-1.56-1.31,2.09-5.81,2.09-5.81Z"/><path class="cls-7" d="M83.68,146.26c-1.87,3.27-3.81,6.51-6,9.84l-.49-.29c.74-1.5,1.53-3,2.21-4.51,1.36-3.06,3.35-5.76,4.87-8.73s3.12-6,4.66-9c.57-1.13,3.59-7,4.21-7.47a2.79,2.79,0,0,1,1-.32c.07.37.32.86.17,1.09-.51.79-1.82,3-2.26,3.87-.84,1.59-1.62,3.2-2.47,4.78C87.59,139.23,85.67,142.77,83.68,146.26Z"/><path class="cls-7" d="M51.54,153.89V152c.34-.31,7.28-12.09,7.91-13.36.23-.47.51-.93.78-1.37.71-1.16,1.47-2.28,2.15-3.45q2.17-3.72,4.31-7.46c.5-.89,1-1.82,1.43-2.72.85-1.57,1.71-3.14,2.55-4.71l3.86-7.14c1.3-2.42,2.64-4.81,3.9-7.25,1.09-2.1,2-4.27,3.14-6.35.9-1.7,2-3.28,2.92-5,1.17-2.21,2.25-4.46,3.33-6.71.83-1.75,1.54-3.57,2.41-5.3,1.24-2.46,2.57-4.88,3.87-7.31.11-.2.22-.51.39-.56a7.83,7.83,0,0,1,1.29-.11c0,.39.17.84,0,1.16C93.64,79,91.49,83.64,89.23,88.2c-1.58,3.22-3.33,6.35-5,9.53-2.06,3.92-4.09,7.86-6.18,11.77-1,2-2.23,3.85-3.31,5.79-1.24,2.2-2.39,4.45-3.66,6.63-2,3.55-4.17,7-6.21,10.58-1.34,2.32-2.53,4.72-3.88,7-2.25,3.83-4.58,7.61-6.87,11.41A14.31,14.31,0,0,1,53,152.81,7.53,7.53,0,0,1,51.54,153.89Z"/><path class="cls-7" d="M110.7,160.78c-1.25-1.18-.63-2.41-.32-3.49.48-1.7,1.24-3.32,1.79-5s1-3.54,1.58-5.27c1-2.87,2.14-5.69,3.19-8.55.63-1.7,1.15-3.46,1.85-5.13a30.12,30.12,0,0,1,1.74-3.1c1.2.6,1.07,1.24.76,2-1.27,3.24-2.52,6.5-3.72,9.77-1,2.7-1.89,5.43-2.86,8.14Q113,155.1,111.16,160A6.69,6.69,0,0,1,110.7,160.78Z"/><path class="cls-7" d="M187.75,148.18c-.18.34-.39,1-.52.95-.47,0-1.14-.21-1.32-.55-.65-1.21-1.12-2.52-1.67-3.78-1.63-3.74-3.28-7.46-4.9-11.2-.72-1.67-1.44-3.36-2-5.08-.15-.46,0-1.38.3-1.56.73-.43,1.28.07,1.61.82q1.65,3.78,3.35,7.55c1,2.3,2.17,4.56,3.13,6.89C186.48,144.12,187.05,146.11,187.75,148.18Z"/><path class="cls-7" d="M148.25,151.6v-4.53c0-1.45-.07-2.91,0-4.36s.36-3,.44-4.53c.09-1.79,0-3.59.1-5.38a15.83,15.83,0,0,1,.62-3.18c.07-.24.59-.49.9-.49a1,1,0,0,1,.72.58c.12.29,0,.68,0,1,.06,4.27-1.05,8.44-1.12,12.69,0,2,.07,3.92-.05,5.87a36.11,36.11,0,0,1-.67,4.25c0,.18-.26.32-.39.48-.15-.17-.38-.32-.43-.52-.17-.62-.27-1.26-.39-1.89Z"/><path class="cls-7" d="M163.21,130.82c-1,1.27-1.88.56-2.61.23-2-.9-2-1-3.5.77a2.43,2.43,0,0,1-.46.33c-1.24-.89-1.27-1.29-.19-2.22a6.18,6.18,0,0,0,1-1c.65-.92,1.38-1.29,2.4-.54S162,130,163.21,130.82Z"/><path class="cls-7" d="M156.61,160.2c-1.43-.62-1.69-1.19-.88-2.3.6-.82,1-2,2.3-2a3,3,0,0,1,2.72,3.09c-.13.8-.7.55-1.13.27s-1-.75-1.45-1.13c-.35.5-.7,1-1.06,1.51A7.71,7.71,0,0,1,156.61,160.2Z"/><path class="cls-7" d="M63.14,139.54c.08-.35,0-.77.23-.91,1.66-1.34,3.28-2.9,5.68-2.44a5,5,0,0,1,1.9,1c.26.19.28.7.41,1.06-.47.13-.94.27-1.41.36-.12,0-.28-.12-.41-.21-2-1.29-2.44-1.25-4.17.5A1.86,1.86,0,0,1,63.14,139.54Z"/><path class="cls-7" d="M82,129.27a14.71,14.71,0,0,1-1.21,1.43,2.88,2.88,0,0,1-1.18.6.84.84,0,0,1-.72-.37.92.92,0,0,1,.21-.79,7.8,7.8,0,0,1,2-2,4.08,4.08,0,0,1,2.58-.33c.66.14,1.12,2,.71,2.62a1.12,1.12,0,0,1-1.07.21A8.31,8.31,0,0,1,82,129.27Z"/><path class="cls-7" d="M81.18,110.48c-.26-.39-.3-.42-.31-.45-.09-1.26,2.85-4.16,4.07-4,.73.09,2.49,2,2.35,2.7a1.45,1.45,0,0,1-.74.94c-.23.08-.68-.28-1-.52s-.26-.47-.42-.69c-.72-.91-1-.9-1.85-.06S81.93,109.75,81.18,110.48Z"/><path class="cls-7" d="M192.2,85.63a8.37,8.37,0,0,0-1.24-1,2.67,2.67,0,0,0-1.6-.48c-.39.1-.62.81-.92,1.26s-.48.76-.72,1.14c-.24-.42-.69-.86-.68-1.28a3.09,3.09,0,0,1,1.65-2.9,2.83,2.83,0,0,1,2.93.62A1.84,1.84,0,0,1,192.2,85.63Z"/><path class="cls-7" d="M185.08,110.72l-1.37-1.33c-.38-.38-.82-1.12-1.09-1.06a3.5,3.5,0,0,0-1.42,1.08,12.24,12.24,0,0,0-1,1.32c-.59-2.23.85-4.37,2.58-4.23a2.39,2.39,0,0,1,1.37.74,5.77,5.77,0,0,1,1.27,3.2Z"/><path class="cls-7" d="M113.45,139.29c-.28-.31-.59-.6-.85-.94s-.25-.57-.43-.81c-1.2-1.55-1.67-1.49-2.59.25a1.55,1.55,0,0,1-.47.64,3.53,3.53,0,0,1-.92.29c-.1-.34-.39-.85-.26-1a10.27,10.27,0,0,1,2.46-2.54c1.3-.77,2.94.34,3.16,1.91.1.66.1,1.33.14,2Z"/><path class="cls-7" d="M73.14,121.27c0-.27,0-.62.16-.75,1.31-1.23,2.57-2.52,4.57-2.57a2.74,2.74,0,0,1,2.47,1.27,1,1,0,0,1,.14.84c0,.15-.47.3-.69.26a5,5,0,0,1-1.4-.51,1.9,1.9,0,0,0-2.45.21C75.17,120.66,74.49,121.63,73.14,121.27Z"/><path class="cls-7" d="M103.3,162.05a5.15,5.15,0,0,1-.81-.28c-.41-.22-.9-.8-1.13-.7a8.35,8.35,0,0,0-1.84,1.31c-.19.17-.21.56-.41.69s-.84.48-1.06.35a.75.75,0,0,1-.15-1.33c1-.93,1.95-1.89,2.95-2.81a1.21,1.21,0,0,1,1.86.31c.36.71.63,1.47.94,2.21Z"/><path class="cls-7" d="M82.7,159.28a18.21,18.21,0,0,1,2.48-2,3,3,0,0,1,2.09-.29c.34.09.5,1,.65,1.57a3.44,3.44,0,0,1,0,1.28,2.77,2.77,0,0,1-.36.76,6.32,6.32,0,0,1-.74-.49c-.11-.09-.11-.28-.18-.42-.55-1.13-1.19-1.16-1.93-.1C83.84,160.84,83.47,160.8,82.7,159.28Z"/><path class="cls-7" d="M73.3,148.82a5.77,5.77,0,0,1-1.52-.41c-1.45-.89-2.39-.6-3,1.05-.09.21-.13.55-.28.6a3.93,3.93,0,0,1-1.28.18s-.24-.64-.13-.76A13.53,13.53,0,0,1,70,146.6C71.88,145.55,72.93,146.28,73.3,148.82Z"/><path class="cls-7" d="M190.44,132.32c-1.07,0-2.15-.28-2.92.09s-1.18,1.36-1.75,2.09l-.31-.08a4.87,4.87,0,0,1-.27-1.8,3.88,3.88,0,0,1,1.05-1.66,2.79,2.79,0,0,1,3.17-.34C190.22,131.05,190.66,131.62,190.44,132.32Z"/><path class="cls-7" d="M173.66,153.89c.59-1,.87-1.87,1.49-2.3a2,2,0,0,1,1.9.23c.57.57,1.76,1.17.83,2.51-.33-.22-.65-.4-.94-.63-1-.8-1.74-.66-2.31.45a3.81,3.81,0,0,1-.49.8,9.71,9.71,0,0,1-.81.76c-.21-.4-.57-.8-.56-1.19,0-.22.62-.43,1-.64C173.79,153.84,173.88,153.85,173.66,153.89Z"/><path class="cls-7" d="M202.25,107c1.12,0,1.82,1,2.61,1.72.16.15,0,.63,0,1a2.41,2.41,0,0,1-.82-.06c-2-1-2-1-2.72,1.08a1.35,1.35,0,0,1-.68.69.72.72,0,0,1-.64-.29,1.66,1.66,0,0,1,0-1.15C200.67,109,201.4,108.1,202.25,107Z"/><path class="cls-7" d="M94.82,136.18a4.38,4.38,0,0,1,3.44-3.25c.88-.06,1.27.54,1,1.41-.15.54-.23,1.09-.34,1.67-.24-.1-.33-.11-.37-.16-1.06-1.38-1-1.37-2.39-.29A7.34,7.34,0,0,1,94.82,136.18Z"/><path class="cls-8" d="M182.2,79c-.34-1.09-1-2.14-.9-3.13A8.13,8.13,0,0,1,182.58,72c2.06-2.87,4.87-2.84,7.21-.15a3.37,3.37,0,0,1-1.08,5.06c-2,.8-4.08,1.42-6.13,2.11A.91.91,0,0,1,182.2,79Z"/><path class="cls-8" d="M174.87,71.33c3,0,5,1.9,7.22,3.47.15.1.18.42.2.64.09,1,.14,1.94.22,2.91.06.65-.2.91-.87.89-3.07-.08-5.92-.75-8.26-2.89a8,8,0,0,1-.6-.56c-.66-.74-1.33-1.54-.89-2.59A3.18,3.18,0,0,1,174.87,71.33Z"/><path class="cls-9" d="M126.35,108.85c1.61-1.76-10.19-20.4-10.66-20.21,0-2.2,31-11.88,32.49-11.14a22.51,22.51,0,0,1,3.65,1.8A19.37,19.37,0,0,1,157,85.83a9.33,9.33,0,0,1,1,3.65,6.7,6.7,0,0,1-.64,2.76,22.64,22.64,0,0,1-3.87,6.52c-1.56,1.84-3.19,3.61-4.76,5.44-1.45,1.68-5.4,1.76-5.61,1.73C142.49,105.82,126.51,108.93,126.35,108.85Z"/><path class="cls-6" d="M146.8,126.93c-.7,1.18-1.24,2.19-1.87,3.13-.49.7-1.12,1.3-1.65,2a10.73,10.73,0,0,1-4.15,3.13c-1.55.73-5.24-.25-4.07-1.42,1.58-1.57,3.24-3.06,4.8-4.65a5.34,5.34,0,0,0,.86-1.64c.34-.81.72-1.23,1.76-1A36.36,36.36,0,0,0,146.8,126.93Z"/><path class="cls-8" d="M202.33,126.49c-1.89-.09-2.49-.65-2.14-2.33.75-3.53,3.58-7.19,7.88-7a2,2,0,0,1,2,2.76,6,6,0,0,1-2.78,3.8c-.88.54-1.64,1.28-2.54,1.79A17.24,17.24,0,0,1,202.33,126.49Z"/><path class="cls-8" d="M200.12,126.64c-1.88-.25-3.77-.41-5.62-.78-1.64-.33-2.46-1.75-3.18-3.06-.61-1.1.71-3.21,2-3.46a5.79,5.79,0,0,1,6.7,3c.55.93,1.13,1.85,1.67,2.79a6.16,6.16,0,0,1,.33.94c-.35.1-.7.22-1.05.29a7.52,7.52,0,0,1-.82,0Z"/><path class="cls-10" d="M165.22,113.78c-.2-1-5-5.88-4.4-6.81,1.16-1.75,9.4-14,9.69-14.48.38,1,.1,10,1.51,14.48,1.08,3.4,3.78,3.57,4,4.26a4.38,4.38,0,0,1-2.22,3.8C171.77,116,165.41,114.77,165.22,113.78Z"/><path class="cls-8" d="M129.23,117.16a3.21,3.21,0,0,1,.94-.85c1.89-.78,3.18-.12,3.81,2.1a16.87,16.87,0,0,1,.45,3.7c0,.16-.6.54-.89.5C131.5,122.38,129.21,119.66,129.23,117.16Z"/><path class="cls-8" d="M133.54,122.61a10.65,10.65,0,0,1,2.46-5.18c.75-1,2.88-.78,4.76,0s2,4.12-1.25,5S134.83,122.15,133.54,122.61Z"/><path class="cls-8" d="M88.81,143.3c2.77,0,4,1.5,5.3,2.94a15.77,15.77,0,0,1,1.1,1.65c.41.6.55,3.33.1,3.78a1.34,1.34,0,0,1-1,.27,10.65,10.65,0,0,1-7-5.86A1.91,1.91,0,0,1,88.81,143.3Z"/><path class="cls-8" d="M99.62,153.27c-1.32-.29-2.64-.56-4-.87-.78-.18-.74-.7-.37-1.24a9,9,0,0,1,5.24-3.45c.82-.24,1.73-.21,2.52-.51a2.18,2.18,0,0,1,2.66.9c.48.58.15,2.31-.52,2.92A8.55,8.55,0,0,1,99.62,153.27Z"/><path class="cls-8" d="M131.84,154c0-3.16.33-6,2.57-8.35a5,5,0,0,1,6-.93c1.29.86,1.56,3.18.67,4.58a7.65,7.65,0,0,1-4.29,3.06c-.93.31-1.84.67-2.75,1-.5.19-1,.39-1.51.57A3.07,3.07,0,0,1,131.84,154Z"/><path class="cls-8" d="M127.44,145.58a11,11,0,0,1,2,.53,2.28,2.28,0,0,1,1.07,1.12c.68,1.8,1.27,3.63,1.87,5.46a9.45,9.45,0,0,1,.24,1.31,4.6,4.6,0,0,1-1.33,0,14.89,14.89,0,0,1-6.13-3.27c-1.15-1-1.77-2.53-1.25-3.4A4,4,0,0,1,127.44,145.58Z"/><path class="cls-8" d="M182.69,100.14a3.51,3.51,0,0,1,6.38-1.56c1.18,1.86,2.26,3.78,3.39,5.67.32.55.09.9-.48.82-2.86-.36-5.77-.69-8-2.86A10.9,10.9,0,0,1,182.69,100.14Z"/><path class="cls-8" d="M199.54,98.46c-.17,1.79-1.42,4.17-3.36,4.9-1,.38-2,.81-3,1.26s-1.44.11-1.54-.91c-.35-3.49,2-5.52,4.16-7.52a2.7,2.7,0,0,1,2.31-.14A2.31,2.31,0,0,1,199.54,98.46Z"/><path class="cls-8" d="M176.18,142.27c.16,2.26-1.42,3.39-3,4.48a43.13,43.13,0,0,1-3.75,2.29c-1.12.63-5.52.26-5.75-1-.19-1.06,3-2.25,3.06-3.32,0-1.75,2.12-3.93,4-4.44,1.57-.42,3.15-.72,4.58.31a6,6,0,0,1,1.13,1.5Z"/><path class="cls-8" d="M168.5,148.29a4.5,4.5,0,0,1-.51,1.38c-.12.31-3.23-.43-3.47-.47-2.58-.5-5.28-.65-7.37-2.62-1.24-1.16-1.82-2.69-1.26-3.93s2.13-1.93,3.91-1.63a4.91,4.91,0,0,1,4,2.82.87.87,0,0,0,.3.36C165.12,145,168.7,147,168.5,148.29Z"/><path class="cls-9" d="M116.35,107.1c-1.36-1.41-9.43-3.54-9.48-3.16-.24,1.79-4.06,11-4.08,11.32a42.12,42.12,0,0,1,4.84,2.69s.31-.78.52-1.25S116.7,107.46,116.35,107.1Z"/><path class="cls-11" d="M108,117.26c.57-1.23-5.09-2.28-5.23-2a39.09,39.09,0,0,0-2.13,5.81,9.44,9.44,0,0,1-2.91,3.63c-.63.57-1.29,1.37-1,2.16a1.74,1.74,0,0,0,1.85.86,16.14,16.14,0,0,1,2.18-.32c1.32.06,2.39,1.11,3.66,1.51.4.12.92.14,1.15-.2a1.13,1.13,0,0,0,.08-.85c-.31-2-1.42-4.9-.76-6.77C105.31,120,108,118.39,108,117.26Z"/><path class="cls-9" d="M130.43,103.23c-.05.56-.36,6.06-.48,6.5-.45,1.74-3.18,4.17-4.25,5.64s-2.78,5.09-4.73,5.7l-1.41.44a2,2,0,0,1-1.74,0,1.86,1.86,0,0,1-.46-1.75c.35-3.24,1.8-6.43,2.82-9.5.28-.82,1.13-5.29,2-5.64C123.57,104.06,128.79,103.79,130.43,103.23Z"/><path class="cls-11" d="M121.76,120.87c-1.12,1.49-5.26,8.1-5.4,8.27-.8,1-5.71.54-6.68-.38-.57-.54,3.61-2.59,4.28-3,1.77-1.12,2.32-6.83,3.34-7.55C117.87,117.78,121.89,120.68,121.76,120.87Z"/><polygon class="cls-12" points="117.35 117.08 123.15 119.67 122.97 121.32 116.52 118.91 117.35 117.08"/><polygon class="cls-12" points="103.38 113.42 108.68 116.37 107.63 117.95 102.79 115.26 103.38 113.42"/><path class="cls-10" d="M146.09,118.87c-.06-.8-.14-1.77-.25-3s-.28-3-.28-3.6c.2-1.23.24-1.26,1.18-1.94a18.5,18.5,0,0,0,3.51-3.14c.85-1,1.73-2,2.62-2.94,1.93-2.16,3.93-4.39,5.71-6.67,1.95-2.52,2.54-9.27,2-11.66a7.3,7.3,0,0,0-.75-1.93c1.76,1.08,4,2.56,4.66,3.13,1.26,1.07,1.68,2.68,2.27,5.23.17.7.33,1.4.52,2.09a39.57,39.57,0,0,1-.42,6.87,17.24,17.24,0,0,1-3.84,2,18.52,18.52,0,0,0-3,1.46l-.55.19a17.61,17.61,0,0,0-8.71,5.62A40.06,40.06,0,0,0,146.09,118.87Z"/><path class="cls-10" d="M163.22,97.43c0,.5-.06,1-.1,1.45l-.78.35a12.54,12.54,0,0,0,.88-1.8M149.23,78c-.07.11,6.86,6.23,7.43,8.81.38,1.73-.31,7.09-1.26,8.31-2.49,3.21-5.52,6.38-8.19,9.45-3.06,3.53-4.9,2.49-5.66,7.27-.17,1.11.83,8.59.56,9.69-.58,2.39-2.39,5.51.06,5.59.49,0,.8.52,1.24.52l.15,0a3.57,3.57,0,0,1,.95-.13c.3,0,.57,0,.82,0a2.07,2.07,0,0,0,1.47-.6c1.07-.91,3.37-9.05,7.13-13.87,2.82-3.61,7.29-4.2,8.14-4.83,1.61-1.16,7.34-2.5,8.5-5.24.72-1.68.89-8.56.67-9.34-1-3.36-1.16-7.05-4.14-9.58a53.66,53.66,0,0,0-8-5c-.87-.23-1.72-.5-2.59-.71-.67-.16-6.61-.2-7.29-.31Z"/><path class="cls-8" d="M95.29,151.16l0,6.26s-2.45,1.7-2.08,0,.76-6.62.76-6.62Z"/><path class="cls-11" d="M120.92,98.77c-.24.18-.24-.9-.39-.7a23.27,23.27,0,0,0-5.3-4,79.36,79.36,0,0,0-9.65-2.64l-5.93-.74a16,16,0,0,0,.31,9,9.77,9.77,0,0,0,5.38,6.14,11.13,11.13,0,0,0,5.6,2.57l.23.05a17.16,17.16,0,0,0,3.63.34,10.76,10.76,0,0,0,6-2.63,5,5,0,0,0,.85-1"/><path class="cls-13" d="M126.5,94.16c-.24,1.21-.73,3.63-.73,3.63a5.85,5.85,0,0,1,2.39-2.15c.54-.25,2.32.86,2.64,1.49,1,2-1.48,3.46-2.8,3.38s-2.41-.32-2.73-1.4-2.2-.9-3.45-.33c-.48.21-1.34.19-1.57-.33-.5-1.16-9-.74-13.9-2.55s-7-4.23-6.94-4.72a13.16,13.16,0,0,1,4.21-7.13,12.82,12.82,0,0,1,8.7-3.38,15,15,0,0,1,9.33,2.86A13.76,13.76,0,0,1,126.5,94.16Z"/><path class="cls-14" d="M108.18,84.32c.39-.39.8-.77,1.17-1.18s.89-.31,1.08.23a2,2,0,0,1,0,1.25c-.17.4-.56.58-1.07.25a3.12,3.12,0,0,0-1.09-.27Z"/><path class="cls-14" d="M120,93.94c-.11-.14-.43-.36-.48-.63-.08-.44.67-1.24,1-1.12a1.23,1.23,0,0,1,.73.7C121.4,93.39,120.78,93.92,120,93.94Z"/><path class="cls-14" d="M121.62,88.36a6,6,0,0,0-.84-.16c-.54,0-.77-.34-.55-.84a1,1,0,0,1,1.3-.61c.6.31.51.79.23,1.29A2.22,2.22,0,0,0,121.62,88.36Z"/><path class="cls-14" d="M108.49,88.94a11.14,11.14,0,0,1,.54-1.49.65.65,0,0,1,.62-.22.8.8,0,0,1,.43.59C110.13,88.78,109.71,89.12,108.49,88.94Z"/><path class="cls-14" d="M116.3,87.15c.06.08.29.26.3.46,0,.45-.81,1.14-1.37,1.08a.66.66,0,0,1-.5-.42C114.67,87.86,115.6,87.13,116.3,87.15Z"/><path class="cls-14" d="M104.08,87.69a1.12,1.12,0,0,1-1.2,1,.64.64,0,0,1-.48-.41c-.07-.5.55-1.25,1-1.16S103.88,87.51,104.08,87.69Z"/><path class="cls-8" d="M114.2,120.13c1,3.79-4.54,7.33-10.12,7.22-.44-1.22,1.51-6.17,4.43-7.58C109.88,119.1,113,119.06,114.2,120.13Z"/><path class="cls-8" d="M104.08,127.35c-2.79-.47-10.63-2.72-9.31-7.8a4.2,4.2,0,0,1,4.08.1c2.07,1,6.52,2.8,7.58,4.78C106.31,124.57,104.19,127.2,104.08,127.35Z"/><path class="cls-8" d="M132.1,159.24c.12.88-1.39.88-1.64.38s.13-6.42.13-6.42l1.76-.51Z"/><path class="cls-8" d="M168.5,148.29c-.63-.13,0,8.43,0,8.43l-2.77.26,1.13-8.57Z"/><path class="cls-8" d="M134.43,122.11s.44,6-.06,6.53-1.77,1.26-1.77,0,1-6.93,1-6.93S134.37,121.37,134.43,122.11Z"/><path class="cls-11" d="M120.92,98.77a3.81,3.81,0,0,1,2.43-.7,1.7,1.7,0,0,1,1.48.73c.21.4,1.46,4.82-1.2,6.57,0,0-1.4,1-2,.66a10.31,10.31,0,0,1-1.48-1.24"/><path class="cls-15" d="M161.32,108.74s10.07-13.1,9.92-15.09c0,0,.41,4.13-.35,5.89s-4.91,6.8-5.54,6.93A36.08,36.08,0,0,0,161.32,108.74Z"/><polygon class="cls-8" points="106.43 124.43 105.97 132.96 104.35 133.65 103.43 125.12 106.43 124.43"/><polygon class="cls-8" points="181.3 75.85 180.43 85.47 183.65 83.85 182.29 75.44 181.3 75.85"/><path class="cls-8" d="M189.88,103.91l3.32.71s2.67,6.67,1.75,6.67a11.46,11.46,0,0,1-2.77-.7Z"/><polygon class="cls-8" points="201.69 125.14 203.97 134.01 201.43 134.93 200.19 124.16 201.69 125.14"/><rect class="cls-16" width="270" height="180"/></g></g></svg>