<svg xmlns="http://www.w3.org/2000/svg" viewBox="0 0 319 179"><defs><style>.cls-1,.cls-5,.cls-6{fill:#9bcb6c;}.cls-1,.cls-6{stroke:#9bcb6c;}.cls-1,.cls-2,.cls-6,.cls-7{stroke-miterlimit:10;}.cls-1,.cls-2{stroke-width:2.23px;}.cls-2,.cls-7{fill:#37bef0;stroke:#37bef0;}.cls-3{fill:#804d63;}.cls-4{fill:#5e5ba2;}.cls-6{stroke-width:1.75px;}.cls-7{stroke-width:2.42px;}.cls-8{fill:none;}</style></defs><g id="レイヤー_2" data-name="レイヤー 2"><g id="section_1-1"><path class="cls-1" d="M257.22,40.17a.53.53,0,0,0,.8.1l.09-.1c.27-.38.55-.74.85-1.09a10.81,10.81,0,0,1,16.82,0,13.79,13.79,0,0,1,2.54,4.35,1.52,1.52,0,0,1-.45,1.92,1.58,1.58,0,0,1-.26.13c-1.07.54-1.49,0-1.78-.84-2-5.38-7.36-7.9-12-5.63a9.38,9.38,0,0,0-2.93,2.27,11,11,0,0,0-2,3.36c-.21.58-.27,1.09-1.25,1.09s-1-.54-1.25-1.09a10.86,10.86,0,0,0-2-3.36,8.33,8.33,0,0,0-13,0l0,0a10.87,10.87,0,0,0-2,3.35c-.29.8-.63,1.38-1.78.84s-1-1.26-.72-2c2.57-7,9.54-10.22,15.59-7.27a12.09,12.09,0,0,1,3.78,2.94A13.32,13.32,0,0,1,257.22,40.17Z"/><path class="cls-2" d="M63.05,116a.52.52,0,0,0,.8.1.28.28,0,0,0,.09-.1A13.14,13.14,0,0,1,64.8,115a10.82,10.82,0,0,1,16.82,0,14.12,14.12,0,0,1,2.54,4.36,1.52,1.52,0,0,1-.46,1.91.91.91,0,0,1-.26.13c-1.07.54-1.49,0-1.78-.83-2-5.39-7.36-7.91-12-5.63a9.2,9.2,0,0,0-2.92,2.27,10.63,10.63,0,0,0-2,3.36c-.21.58-.26,1.08-1.25,1.08s-1-.54-1.24-1.08a10.82,10.82,0,0,0-2-3.36,8.34,8.34,0,0,0-13,0l0,0a10.75,10.75,0,0,0-2,3.35c-.29.79-.62,1.37-1.77.83s-1-1.26-.72-2c2.56-7,9.54-10.22,15.58-7.26A11.8,11.8,0,0,1,62.2,115,13.32,13.32,0,0,1,63.05,116Z"/><path class="cls-3" d="M169.2,134.52c26.93-19.23,55.14,0,55.14,0V69.12s-28.21-19.24-55.14,0c-26.94-19.24-55.15,0-55.15,0v65.4S142.26,115.29,169.2,134.52Z"/><path class="cls-4" d="M161,126.31c26.93-19.24,55.15,0,55.15,0V60.9s-28.22-19.24-55.15,0c-26.94-19.24-55.15,0-55.15,0v65.41S134,107.07,161,126.31Z"/><path class="cls-5" d="M119.76,83.4a4.8,4.8,0,0,0,.91,2.64l10.17,12.63a1.12,1.12,0,0,0,1.84,0l9.79-12.6a5,5,0,0,0,.92-2.66V29.29a1.49,1.49,0,0,0-1.49-1.48H122.14a1.52,1.52,0,0,0-1.51,1.48Z"/><path class="cls-6" d="M180.75,76.73a.52.52,0,0,0,.81.1.28.28,0,0,0,.09-.1,11.54,11.54,0,0,1,.87-1.09,10.94,10.94,0,0,1,17,0,14.32,14.32,0,0,1,2.57,4.41,1.55,1.55,0,0,1-.47,1.94,2.1,2.1,0,0,1-.26.13c-1.08.54-1.5,0-1.8-.85-2-5.45-7.44-8-12.17-5.7a9.33,9.33,0,0,0-3,2.3,11.19,11.19,0,0,0-2,3.4c-.21.59-.27,1.1-1.26,1.1s-1-.55-1.26-1.1a11.19,11.19,0,0,0-2-3.4,8.44,8.44,0,0,0-13.12,0l0,0a10.83,10.83,0,0,0-2,3.39c-.29.81-.63,1.39-1.79.84s-1-1.27-.73-2.07c2.59-7,9.65-10.34,15.77-7.35a12.23,12.23,0,0,1,3.82,3A13.14,13.14,0,0,1,180.75,76.73Z"/><path class="cls-7" d="M180.75,93.12a.52.52,0,0,0,.81.1.28.28,0,0,0,.09-.1,13,13,0,0,1,.87-1.09,11,11,0,0,1,17,0,14.44,14.44,0,0,1,2.57,4.41,1.55,1.55,0,0,1-.47,1.94,1.26,1.26,0,0,1-.26.13c-1.08.55-1.5,0-1.8-.85-2-5.44-7.44-8-12.17-5.69a9.16,9.16,0,0,0-3,2.29,11.19,11.19,0,0,0-2,3.4c-.21.59-.27,1.1-1.26,1.1s-1-.55-1.26-1.1a11.19,11.19,0,0,0-2-3.4,8.44,8.44,0,0,0-13.12,0l0,0a10.94,10.94,0,0,0-2,3.39c-.29.81-.63,1.39-1.79.85s-1-1.27-.73-2.07c2.59-7.05,9.65-10.35,15.77-7.36a12.23,12.23,0,0,1,3.82,3A13.14,13.14,0,0,1,180.75,93.12Z"/><rect class="cls-8" width="319" height="179"/></g></g></svg>