<svg xmlns="http://www.w3.org/2000/svg" viewBox="0 0 359 269"><defs><style>.cls-1{fill:#86cbcc;}.cls-2{fill:#577754;}.cls-3{fill:teal;}.cls-4{fill:#37746c;}.cls-5{fill:#80b03f;}.cls-6{fill:#e2e2ba;}.cls-7{fill:#dfcdaf;}.cls-8{fill:#be6165;}.cls-9{fill:#5d9080;}.cls-10,.cls-18{fill:#fff;}.cls-11{fill:#6d7d81;}.cls-12{fill:#a1b5d3;stroke:#fff;stroke-width:0.78px;}.cls-12,.cls-18,.cls-26{stroke-linecap:round;}.cls-12,.cls-17,.cls-18,.cls-26{stroke-miterlimit:10;}.cls-13{fill:#e1801e;}.cls-14{fill:#856d51;}.cls-15{fill:#4b9778;}.cls-16{fill:#4b8280;}.cls-17,.cls-26,.cls-33{fill:none;}.cls-17{stroke:#ff0;}.cls-17,.cls-18{stroke-width:0.82px;}.cls-18{stroke:#b6b6b6;}.cls-19{fill:#d45513;}.cls-20{fill:#ffdb00;}.cls-21{fill:#ff0;}.cls-22{fill:#f0a08f;}.cls-23{fill:#dcdcdc;}.cls-24{fill:#b0866d;}.cls-25{fill:#b19c83;}.cls-26{stroke:#b19c83;stroke-width:0.92px;}.cls-27{fill:#e6d821;}.cls-28{fill:#423d3d;}.cls-29{fill:#736357;}.cls-30{fill:#5e4c3e;}.cls-31{fill:#e6e1e3;}.cls-32{fill:#b5926b;}</style></defs><g id="レイヤー_2" data-name="レイヤー 2"><g id="section_1-2"><path class="cls-1" d="M109,55.43C94.35,66.76,84,84.76,86.1,101.19c1.28,9.85,16.08,46.13,40.47,59.83,29,16.32,65.55,11.56,97.48,13.85,13,.93,101.09,29.12,91.17-4.78-2.13-7.28-10.39-13.21-8.33-20.51,1.86-6.58,10.65-8.18,14.85-13.58,4.38-5.64,2.47-14.29-2.32-19.59s-11.71-8-18.36-10.64c-21.85-8.49-41.29-12.34-63.54-18.8C225,83.33,165,12.06,109,55.43Z"/><path class="cls-2" d="M157.27,133.73a82.75,82.75,0,0,0,47.19,6.64c11.77-1.68,21-8,33-10.12,9.71-1.69,18.45-1.2,28.29-.44,10.85.84,22.74-2.78,33.16-4.67,9.69-1.76,19.67-3.6,27.4-7.37,9.24-4.51,15.28-11.61,13.19-18.66-.88-3-3-5.77-4.67-8.63-1.54-2.63-1.6-6.12-3.76-8.55-1.65-1.86-5.13-3.41-7-5.29-5.46-5.39-2.72-8.92-2.71-14.45,0-4.07-5.42-8.07-9.66-11-11.95-8.38-42.87-5.25-55.15-5.25-22.07,0-33.71-10.84-64.36-8.75-11.36.78-47.19,5.6-61.9,15.4s-16.87,25.94-12.87,33.94c4.91,9.8,14.56,16.43,22.68,22.74C150.44,117.27,142.2,126.62,157.27,133.73Z"/><path class="cls-3" d="M128.56,71.15c.28.08,3.68-3.3,3.94-3.53l10.43-9.31c1.48-1.31,15.53-20.1,19.48-23.68,10.53-9.52,27.27-20.55,32.69-23.37a27,27,0,0,1,19-1.75c2.53.72,4.87,1.79,7.44,2.43,3.11.79,22.94,21.42,26.55,26.23s17,30.64,17.22,38"/><path class="cls-4" d="M210.28,72.55c.94-6,9.58-10.09,11.31-14S231.76,48.88,234.44,44s13.69-13.15,13.69-13.15,8.35-8.26,15.47-8.45c11.64-.31,14.75,6,15.68,7,9.81,10.22,12.88,16.42,15.47,18.75,3.54,3.2,11,15.66,12.5,19.22.89,2.11,5.28,9.33,5.06,10.86"/><path class="cls-3" d="M210.09,85.68c1.07-4.1,10.91-6.93,12.89-9.61s11.59-6.65,14.65-10,15.59-9,15.59-9,9.52-5.67,17.63-5.8c13.27-.21,16.81,4.13,17.88,4.8C299.9,63,303.4,67.3,306.35,68.9c4,2.19,12.54,10.75,14.25,13.19,1,1.46,6,6.41,5.76,7.47"/><path class="cls-5" d="M233.78,125.74c9.66-.75,19.2-2,28.4-3.56,21-3.59,31.1-18.07,29.52-32.27-1.87-16.89-18-27.08-42-28.83-10.15-.74-20.57-.15-30.4-2-5.71-1.1-11-3-16.74-4.17-24.52-5-53.59-1.87-67,14.57-6.86,8.41-7.64,19.26-1.17,27.83a58,58,0,0,0,9,8.73C166.6,125.57,199,128.44,233.78,125.74Z"/><path class="cls-6" d="M206.25,113.3c-2.05,1.35-7.51,8.63-10,9.08-3.38.62-72.42-.89-77.31-2a176.15,176.15,0,0,1,17.41-33.89,7.8,7.8,0,0,1,2-2.3,8,8,0,0,1,4.36-.91c16.8-.32,35.87.33,52.64-.06,7.13-.16,36.43.65,40.68,1.28,1,.15,1.14.63.47,1.35-1.56,1.66-3.12,3.32-4.7,5q-3.78,3.92-7.6,7.79a24.88,24.88,0,0,1-2.2,1.89c-3.43,2.75-7.35,4.87-10.33,8A31.31,31.31,0,0,1,206.25,113.3Z"/><path class="cls-7" d="M150.89,129.25c-3.21.16-6.44.1-9.66,0-3-.06-5.93-.17-8.88-.45-3.89-.36-7.78-.86-11.64-1.47a2.4,2.4,0,0,1-1.43-1.68,44.16,44.16,0,0,1-.33-5.28c0-.67.32-.86,1-.87,5.41-.12,10.77.51,16.15.92,5.13.39,10.28.47,15.42.62,3.57.1,7.14.15,10.71.11,2.36,0,4.72-.33,7.08-.36,3.49,0,7,0,10.47.07,2,0,4.06.37,6.09.37,3.42,0,6.85-.16,10.27-.27,1.17,0,1.38.24,1.33,1.39-.07,1.51,0,3,0,4.53a2.21,2.21,0,0,1-.65,1.39,6.33,6.33,0,0,1-4.74,1.35C188.17,129.48,154.61,129.07,150.89,129.25Z"/><path class="cls-8" d="M182.69,83.44c-.12.25-2.07.13-2.34.08-1.41-.28-3.36.74-4.34-.51-.56-.7-.69.88-1.34.72s-24.29-.28-24.28-.16c.24,3.18,4.83,9.66,5.22,10.12a27.92,27.92,0,0,1-3.18,3.93c-2.54.1-8.48-8.73-8.73-9.58a19.44,19.44,0,0,1,.63-11.24c1.95-4.77,4.09-5.61,6.57-6.5,3.34-1.2,4.21,2.16,5.75,2.74a26.82,26.82,0,0,0,4.78,1.46c3.6.62,9-2.13,12.53-3.33,1.42-.49,4.68,1.34,6.74,5.2C181.6,78.05,183,82.84,182.69,83.44Z"/><path class="cls-9" d="M196.22,116a41.16,41.16,0,0,1-4.42.23c-1.71-.08-3.41-.41-5.12-.63a13.37,13.37,0,0,0-1.66-.18c-1.84,0-3.68,0-5.52.09-1.67.05-3.34.15-5,.22a19.82,19.82,0,0,0-3,.07c-3.19.62-6.35,1.37-9.53,2a13.59,13.59,0,0,1-9.64-1.63,14.94,14.94,0,0,0-11.25-1.72,9.17,9.17,0,0,1-4.62.42,4.19,4.19,0,0,1-3.28-3.14,2.53,2.53,0,0,1,.81-2.94c1.58-1.06,3-2.26,5.35-1.79a13.65,13.65,0,0,0,5.91-.4,21.12,21.12,0,0,1,11.69-.31,28.71,28.71,0,0,1,5.35,2.4,4.89,4.89,0,0,0,1.94.57,36.61,36.61,0,0,0,10.07-.74,20.59,20.59,0,0,1,8.91-.1c3,.67,6.12,1.26,9.12.52s5.62.23,8.37.73a5,5,0,0,1,2.57,1.44c1.35,1.44.24,4.4-1.78,4.79-1.71.33-3.47.41-5.21.6Zm-42-5.76,0,.34c.67,0,1.35,0,2,.07q3.3.3,6.58.65a2.9,2.9,0,0,1,1.27.3c2.64,1.92,5.82,1.42,8.74,1.82,2.74.37,5.6-.19,8.4-.32a25.19,25.19,0,0,1,3,0c2.21.16,4.41.4,6.62.59a10.74,10.74,0,0,1,2.28.1c1.07.32,1.75,0,2.56-1.12a5.72,5.72,0,0,0-1.83-.48c-1.64.17-3.27,0-4.94.18a34.22,34.22,0,0,1-4.18,0c-2.26,0-4.6.27-6.81-.68-.28-.12-.73.21-1.11.22-1.42,0-2.85.12-4.27,0-.64,0-1.25-.46-1.9-.55-1.35-.2-2.71-.27-4.06-.43-.75-.09-1.54-.51-2.22-.36a16.11,16.11,0,0,1-6.34-.15A25.8,25.8,0,0,0,154.24,110.19Zm-15.31-.37-.05.51a35.51,35.51,0,0,0,13.44.53,83,83,0,0,0-8.26-1.31A34.07,34.07,0,0,0,138.93,109.82Z"/><path class="cls-9" d="M205.77,98.38c-1.6-.51-3.23-1-4.8-1.55a13.93,13.93,0,0,0-6.07-.7c-2.15.16-4.31.25-6.46.48a21.71,21.71,0,0,0-2.88.73,16.07,16.07,0,0,1-10.58-1,1.69,1.69,0,0,1-.62-.65c-.43-.66-.81-1.26-1.81-1-.66.16-1.8-1.05-1.93-1.86a2.4,2.4,0,0,1,1.49-2.61c.88-.26,1.85-.21,2.71-.49,2.14-.72,4.27-1.47,6.33-2.37a4.49,4.49,0,0,1,3.12-.18,20.88,20.88,0,0,0,11.06-.32,18.88,18.88,0,0,1,3.42-.62,101.5,101.5,0,0,1,11.64-.89c4.37.09,8.62,1.11,12.07,4.17.81.72.73,1.28.26,2.18a7,7,0,0,1-4.44,3.78c-2.26.62-4.58,1.11-6.79,1.88A16.26,16.26,0,0,1,205.77,98.38Zm-14-5.74.05-.38c-2.2-.52-4.37-1.13-6.59-1.52a50.3,50.3,0,0,0-5.61-.58c-.4,0-.81.33-1.22.52.35.37.66,1,1.06,1.06,1.19.2,2.41.15,3.61.27,2.07.22,4.12.54,6.19.73A17.56,17.56,0,0,0,191.73,92.64Zm20.76.72a12.17,12.17,0,0,0-2.33-.82,16.7,16.7,0,0,0-2.74,0c-1.42,0-2.84.13-4.26.11s-3-.13-4.59-.21C199.64,93.77,210.54,94.59,212.49,93.36Z"/><path class="cls-9" d="M188,106.55c-2.15-.22-4.31-.6-6.47-.62-2.59,0-5.2.24-7.79.4-2.8.17-5.59.48-8.39.49a7.44,7.44,0,0,1-3.55-1c-3.57-2-7.45-2.57-11.43-2.62a12.77,12.77,0,0,0-3.63.71,10.49,10.49,0,0,1-5,.55c-.85-.15-1.75,0-2.63-.12a5.16,5.16,0,0,1-4.33-4,2,2,0,0,1,.88-2.32c1.45-.87,2.89-1.75,4.38-2.55,1.65-.89,3.1.26,4.64.55a46.57,46.57,0,0,0,7,1.14,6.51,6.51,0,0,0,3.88-1.4c3.18-2.52,5-1.76,7.42-.26a38.94,38.94,0,0,0,5.44,2.63,3.09,3.09,0,0,0,2.33.06c1.45-.81,2.64-.06,3.75.46,2.47,1.17,5.1,1,7.69,1.29,3.19.32,6.13-1,9.2-1.46,1.59-.26,3.23-.51,4.63.88a3.25,3.25,0,0,1,.28,4.63,5.43,5.43,0,0,1-2.89,2.1A11.15,11.15,0,0,1,188,106.55Zm-1-3.19,0-.13c-1.35-.14-2.71-.27-4.07-.43-.37,0-.74-.19-1.12-.25a7.42,7.42,0,0,0-1.14-.15c-1.2,0-2.41.1-3.6,0-1.77-.19-3.53-.53-5.29-.81-.55-.09-1.09-.27-1.64-.31-1.72-.12-3.45-.21-5.18-.27-1.46,0-2.92,0-4.38-.07,0,1.56.12,1.68,1.31,1.71,2.09,0,4.19,0,6.26.2,2.67.24,5.33.69,8,1a9.65,9.65,0,0,0,1.08,0l3.44,0c1.34,0,2.68,0,4,0A16.16,16.16,0,0,0,186.93,103.36Zm-29.61-2.19-.08-.55-17.61-1.14c-.17,1.14-.09,1.87,1,1.84,3.51-.09,7,.86,10.52.3a40,40,0,0,1,5-.07A4.18,4.18,0,0,0,157.32,101.17Z"/><path class="cls-7" d="M196.28,129.19c0-2.16-.15-4.93,0-6.81,0-.38.6-.73.8-1.18a9.26,9.26,0,0,1,1.18-1.56A46.61,46.61,0,0,0,202.4,116c2.66-3,6.13-5.08,9.16-7.66,2.87-2.45,5.84-4.8,8.71-7.25,2.38-2,4.76-4.05,7-6.23,1.78-1.72,3.31-3.69,5-5.49,1.27-1.34,2.64-2.59,4-3.86.13-.12.36-.12.7-.22,0,1.71,0,3.32,0,4.93,0,.32-.12,4.48-.12,4.48s-7.69,7.32-8.89,8.38c-1.44,1.27-7.14,6.44-8.64,7.65-2.28,1.83-12.75,12.29-19.32,16.91C197.58,129.36,198,129.37,196.28,129.19Z"/><path class="cls-10" d="M177.2,86.24a18.66,18.66,0,0,1-2.69.09c-1-.1-1.17-.57-.53-1.54a7.77,7.77,0,0,1,4.33-3.25c1.88-.59,1.1-.69,2.39.51.42.39,2.5,2.11,2,2.33-1.79.81-3.63,1.5-5.45,2.23Z"/><path class="cls-10" d="M152.43,97.62c.8-1.22,1.48-2.32,2.22-3.36a1.38,1.38,0,0,1,1-.57,5.19,5.19,0,0,1,1.73.32,1.57,1.57,0,0,1,1.18,1.66c0,1.08-.42,2-1.08,2.22a15.68,15.68,0,0,1-4,.32C153.09,98.21,152.73,97.8,152.43,97.62Z"/><path class="cls-11" d="M154.24,110.19a25.8,25.8,0,0,1,3.84.21,16.11,16.11,0,0,0,6.34.15c.68-.15,1.47.27,2.22.36,1.35.16,2.71.23,4.06.43.65.09,1.26.52,1.9.55,1.42.07,2.85,0,4.27,0,.38,0,.83-.34,1.11-.22,2.21.95,4.55.66,6.81.68a34.22,34.22,0,0,0,4.18,0c1.67-.21,3.3,0,4.94-.18a5.72,5.72,0,0,1,1.83.48c-.81,1.1-1.49,1.44-2.56,1.12a10.74,10.74,0,0,0-2.28-.1c-2.21-.19-4.41-.43-6.62-.59a25.19,25.19,0,0,0-3,0c-2.8.13-5.66.69-8.4.32-2.92-.4-6.1.1-8.74-1.82a2.9,2.9,0,0,0-1.27-.3q-3.29-.34-6.58-.65c-.66-.07-1.34,0-2-.07Z"/><path class="cls-11" d="M138.93,109.82a34.07,34.07,0,0,1,5.13-.27,83,83,0,0,1,8.26,1.31,35.51,35.51,0,0,1-13.44-.53Z"/><path class="cls-11" d="M191.73,92.64a17.56,17.56,0,0,1-2.51.1c-2.07-.19-4.12-.51-6.19-.73-1.2-.12-2.42-.07-3.61-.27-.4-.07-.71-.69-1.06-1.06.41-.19.82-.55,1.22-.52a50.3,50.3,0,0,1,5.61.58c2.22.39,4.39,1,6.59,1.52Z"/><path class="cls-11" d="M212.49,93.36c-2,1.23-12.85.41-13.92-.94,1.6.08,3.1.2,4.59.21s2.84-.08,4.26-.11a16.7,16.7,0,0,1,2.74,0A12.17,12.17,0,0,1,212.49,93.36Z"/><path class="cls-11" d="M186.93,103.36a16.16,16.16,0,0,1-2.34.47c-1.34.08-2.68,0-4,0l-3.44,0a9.65,9.65,0,0,1-1.08,0c-2.67-.35-5.33-.8-8-1-2.07-.2-4.17-.17-6.26-.2-1.19,0-1.33-.15-1.31-1.71,1.46,0,2.92,0,4.38.07,1.73.06,3.46.15,5.18.27.55,0,1.09.22,1.64.31,1.76.28,3.52.62,5.29.81,1.19.12,2.4,0,3.6,0a7.42,7.42,0,0,1,1.14.15c.38.06.75.21,1.12.25,1.36.16,2.72.29,4.07.43Z"/><path class="cls-11" d="M157.32,101.17a4.18,4.18,0,0,1-1.2.38,40,40,0,0,0-5,.07c-3.54.56-7-.39-10.52-.3-1,0-1.12-.7-1-1.84l17.61,1.14Z"/><path class="cls-12" d="M177.69,75.5a24.4,24.4,0,0,1-.36,5.42"/><path class="cls-12" d="M150.72,75.07s-1.87,4.85-.49,7.63"/><path class="cls-7" d="M119.9,126.06s-2,12.14-1.09,13.87,4.12,3.47,5.64,2.39,3.68-16.69,3.68-16.69Z"/><path class="cls-7" d="M189.69,127.79s1.3,17.56,3.68,18,6.07-2.16,6.07-2.16-.22-4.34-.43-5-1.58-11.72-1.58-11.72Z"/><path class="cls-10" d="M180.76,62.09A2.61,2.61,0,0,0,179,59.78a3.16,3.16,0,0,0-2.38.49c-.1-2.09-.37-4.07-.81-4.73a1.36,1.36,0,0,0-1.09-.64,46.35,46.35,0,0,1-4.69-.61c-1.56-.25-3-.49-4.17-.58-.91-.06-1.82-.21-2.78-.36l-.69-.11c-.35-.05-.69-.12-1-.19a14.12,14.12,0,0,0-1.91-.3c-.38,0-.88-.12-1.45-.21-2.6-.41-6.16-1-7.51,1.22a13.08,13.08,0,0,0-1.42,7,3.05,3.05,0,0,0-2.26-.42A2.62,2.62,0,0,0,145,62.64c-.68,3.64,1.29,5.13,2.43,5.41l3.26.32A9.66,9.66,0,0,0,152,70.46,13.5,13.5,0,0,0,160.63,75a15.18,15.18,0,0,0,2.37.18,21.31,21.31,0,0,0,3.68-.35,12.73,12.73,0,0,0,6.1-2.62,10.92,10.92,0,0,0,2.93-4.46l2.46-.23.16,0C179.47,67.23,181.45,65.74,180.76,62.09Z"/><path class="cls-13" d="M148.28,58.81c.48-1.52,1.46-6.81,2.33-7.83.65-.77,3.58-3,4.25-3.76,3.53-4,12.85-1.31,17.6.61a9,9,0,0,1,2.67,1.85c1.27,1,1.8,4.73,2,6.37.06.5-.48,2.72-.93,2.71-.8,0-.84,4.07-10.08,4.8C152.94,64.61,148.67,58.86,148.28,58.81Z"/><path class="cls-13" d="M153.46,60.51c-.26.12-7,4.06-7,4.25-1.11.15-3.87-2.16-4-3.91a8.58,8.58,0,0,1,1.19-5.36A1,1,0,0,1,145,55C146,55.49,154.06,60.24,153.46,60.51Z"/><path class="cls-7" d="M235.14,95.28c1.17,1.4,1.08,19.07,1.08,19.07s-3.47,3.91-5.85,2.61-.65-15.39-1.08-15.18S235.14,95.28,235.14,95.28Z"/><path class="cls-14" d="M35.94,129.12c-15.34,11.88-18.49,34.74-16.25,52C21,191.43,26.3,210,55.28,214.65c31.58,5,58.44-10.22,67.49-.83,43.85,45.51,77.17,49.31,93.84,45.51,18.91-4.3,55.9-30.24,48.23-61.94-4.48-18.53-9.65-34.14-28.06-41.72s-65.78-6.32-78.93-10.12S94.7,83.61,35.94,129.12Z"/><path class="cls-5" d="M163.39,227.13c8.26-.64,16.4-1.69,24.26-3,17.9-3.07,26.56-15.43,25.21-27.56-1.6-14.42-15.34-23.13-35.85-24.62-8.67-.63-17.57-.13-26-1.75-4.88-.94-9.44-2.57-14.3-3.57C115.81,162.3,91,165,79.54,179c-5.87,7.18-6.53,16.45-1,23.76a49.28,49.28,0,0,0,7.65,7.46C106,227,133.66,229.43,163.39,227.13Z"/><path class="cls-15" d="M123,142.3c-3,.12-5.41.14-7.8.33a9,9,0,0,0-6.54,3.8,19.08,19.08,0,0,0-3.58,9.37c-.55,3.82,2.58,8.35,7,8,2.59-.21,5.2-.17,7.8-.23a5.91,5.91,0,0,1,5.88,4.18c.45,1.43.84,2.87,1.34,4.28,1.58,4.45,7.13,6.17,10.6,3.82a25.61,25.61,0,0,1,3.46-1.77,4.55,4.55,0,0,1,3.77.07c2.37.91,4.77,1.73,7.16,2.56a12.49,12.49,0,0,0,9.67-.5,9.23,9.23,0,0,0,5-10,16.74,16.74,0,0,1-.46-6.54,10.23,10.23,0,0,1,3.29-6.22c.94-.81,1.92-1.55,2.84-2.38a7.1,7.1,0,0,0,2.61-4c.28-1.56.22-3.43-1.81-4.52a11.49,11.49,0,0,0-2.45-1.18c-2.76-.71-5.56-1.29-8.33-1.94a18.59,18.59,0,0,1-4.66-1.24,12.54,12.54,0,0,1-4.07-3.85c-1.73-2.41-3-5.16-5.26-7.2a4.92,4.92,0,0,0-2.85-1.5,19.91,19.91,0,0,0-3.7-.06c-3.94.44-7.55,3.07-7.75,7.38a12.93,12.93,0,0,1-2.17,7.2c-.34.45-.73,1-1.22,1.19a21.84,21.84,0,0,1-4.14,1A28.54,28.54,0,0,1,123,142.3Z"/><path class="cls-16" d="M134.26,159.31l-2.42-1.12c.48-2,1.73-3.32,2.78-4.76a1.55,1.55,0,0,1,.85-.44,4,4,0,0,1,4.86,4.95c-2.1.57-2.1-1.69-3.37-2.47C135.24,155.93,135,157.68,134.26,159.31Z"/><path class="cls-16" d="M159,148.14a5.53,5.53,0,0,0-2.67,2.57c-.18.35-1,.77-1.12.67a2,2,0,0,1-.86-1.33c0-1.9,1.93-4.14,3.6-4.33,2.24-.26,3.65.91,4.63,3.08a1.16,1.16,0,0,1-.37,1.55,1.21,1.21,0,0,1-1.71-.36C160,149.42,159.53,148.81,159,148.14Z"/><path class="cls-16" d="M139.55,143.76c.08-2.67,2.13-5,4.24-5.27a3.62,3.62,0,0,1,3.72,3,1.06,1.06,0,0,1-1.53,1.09,3.08,3.08,0,0,1-.82-.76c-1-1.07-2-1-2.83.28a10,10,0,0,0-.73,1.79c-.25.63-.7,1-1.34.71C139.88,144.4,139.66,143.9,139.55,143.76Z"/><path class="cls-16" d="M117.88,152.64a5.08,5.08,0,0,1,4-4.35,4,4,0,0,1,3.81,2.78c.22.65.39,1.36-.32,1.73a1.1,1.1,0,0,1-1.69-.71,1.67,1.67,0,0,0-.27-.51c-1-1.4-1.93-1.38-2.85.08a15,15,0,0,0-.73,1.38c-.26.52-.69.92-1.22.61S118,152.84,117.88,152.64Z"/><path class="cls-16" d="M153.94,164.25a2.22,2.22,0,0,0-2.16,1.47c-.23.66-.62,1.17-1.44.91a1.5,1.5,0,0,1-1-1.66,3.63,3.63,0,0,1,3.71-3.46,4.26,4.26,0,0,1,3.63,2.76,1.72,1.72,0,0,1-.35,1.33c-.16.17-.87,0-1.19-.17A7.67,7.67,0,0,1,153.94,164.25Z"/><path class="cls-15" d="M108.71,131a21.27,21.27,0,0,1-4.14-1c-.48-.16-.87-.73-1.21-1.19a12.77,12.77,0,0,1-2.17-7.19c-.21-4.32-3.81-6.94-7.75-7.38a18.31,18.31,0,0,0-3.7.06,4.87,4.87,0,0,0-2.85,1.49c-2.28,2-3.53,4.79-5.26,7.21a12.61,12.61,0,0,1-4.07,3.84,18.17,18.17,0,0,1-4.66,1.24c-2.78.65-5.57,1.23-8.33,1.94a11.49,11.49,0,0,0-2.45,1.18c-2,1.09-2.09,3-1.81,4.52a7.1,7.1,0,0,0,2.61,4c.92.82,1.9,1.56,2.83,2.37a10.19,10.19,0,0,1,3.3,6.23,16.71,16.71,0,0,1-.47,6.53,9.24,9.24,0,0,0,5,10,12.52,12.52,0,0,0,9.68.51c2.39-.84,4.79-1.66,7.15-2.57a4.55,4.55,0,0,1,3.77-.07,25.15,25.15,0,0,1,3.47,1.77c3.47,2.35,9,.63,10.59-3.82.5-1.41.89-2.85,1.35-4.28a5.88,5.88,0,0,1,5.87-4.17c2.6.06,5.21,0,7.8.22,4.46.36,7.58-4.17,7-8a19.16,19.16,0,0,0-3.57-9.37,9,9,0,0,0-6.54-3.8c-2.39-.18-4.79-.21-7.81-.33A28.54,28.54,0,0,1,108.71,131Z"/><path class="cls-16" d="M101.14,148.07l2.41-1.13c-.47-2-1.73-3.32-2.77-4.76a1.62,1.62,0,0,0-.85-.44,4,4,0,0,0-4.87,5c2.11.56,2.11-1.69,3.37-2.47C100.16,144.68,100.42,146.43,101.14,148.07Z"/><path class="cls-16" d="M76.41,136.89a5.43,5.43,0,0,1,2.66,2.58c.19.34,1,.77,1.13.66a2.08,2.08,0,0,0,.86-1.33c0-1.9-1.93-4.14-3.61-4.33-2.23-.25-3.65.92-4.62,3.08a1.17,1.17,0,0,0,.36,1.56,1.24,1.24,0,0,0,1.72-.36C75.42,138.18,75.87,137.56,76.41,136.89Z"/><path class="cls-16" d="M95.85,132.52c-.09-2.67-2.14-5.05-4.25-5.28a3.62,3.62,0,0,0-3.72,3,1.07,1.07,0,0,0,1.54,1.09,3.45,3.45,0,0,0,.82-.76c1-1.08,2-1,2.83.27a10.83,10.83,0,0,1,.73,1.79c.24.64.7,1,1.34.71C95.52,133.16,95.74,132.65,95.85,132.52Z"/><path class="cls-16" d="M117.52,141.4a5.09,5.09,0,0,0-4-4.35,3.94,3.94,0,0,0-3.81,2.77c-.23.65-.4,1.37.31,1.73a1.1,1.1,0,0,0,1.7-.71,1.89,1.89,0,0,1,.26-.51c1-1.4,1.94-1.38,2.86.08.27.44.49.91.72,1.38s.7.93,1.23.61S117.38,141.59,117.52,141.4Z"/><path class="cls-16" d="M81.45,153a2.23,2.23,0,0,1,2.17,1.47c.23.66.61,1.17,1.43.91a1.48,1.48,0,0,0,1-1.66,3.63,3.63,0,0,0-3.71-3.46A4.29,4.29,0,0,0,78.74,153a1.72,1.72,0,0,0,.36,1.33c.16.17.87,0,1.19-.17A7.6,7.6,0,0,0,81.45,153Z"/><line class="cls-17" x1="78.97" y1="203.52" x2="81.1" y2="194.61"/><path class="cls-10" d="M115.37,156.71c0-.54-.34-.85-1-1.11a5.31,5.31,0,0,0-1.87-.36,7.05,7.05,0,0,0-1.54.09c-.93.22-1.82.52-2.73.8a9.61,9.61,0,0,0-1.34.46c-.91.43-1.8.89-2.66,1.37a18.57,18.57,0,0,0-1.65,1.06c-.5.34-1.13.6-1.42,1.11,0,0-.1.06-.15.08a2.71,2.71,0,0,0-.45.23c-.7.59-1.4,1.18-2.07,1.79-.5.45-1,.92-1.42,1.4a6.14,6.14,0,0,0-.88,1,8.13,8.13,0,0,0-.66,1.4c-1.26,3.31-2.93,6-6.91,8-2,1-6.14,3.42-8.55,1.4a3,3,0,0,1-.9-2c-.29-1.84-2.81-13.79-4.67-14.31a8.74,8.74,0,0,0-3-.2c-3.37.25-2.25.61-4.14,2.57-1.66,1.72-9.78,17.57-8.37,23.58.49,2.11,3.1,5.22,4.91,7a14.1,14.1,0,0,0,3.5,2.72,42.42,42.42,0,0,0,5.89,1.7c3.58.94,8.16.23,11.49-.64a10.26,10.26,0,0,0,2.54-.95,8.76,8.76,0,0,0,1.78-1.44c2.39-2.33,4.59-4.89,5.5-7.82.2-.66.79-6.83,1.19-6.82a7,7,0,0,0,1.2,0,5.85,5.85,0,0,0,.92-.31,7.73,7.73,0,0,0,2.52-1.46,2.92,2.92,0,0,0,.64-.56,4.79,4.79,0,0,0,.65-1.82.72.72,0,0,0-.14-.47,1,1,0,0,0-.9-.32c-.34,0-.51-.14-.54-.41a.4.4,0,0,0,0-.15c-.1-.32.06-.48.45-.5h.33a3,3,0,0,0,2-.42c.05,0,.19,0,.28,0a.9.9,0,0,0,.25,0l1.12-.55c.32-.15.66-.27,1-.41s.65-.3,1-.47a2,2,0,0,0,.36-.35.88.88,0,0,1,.15-.12l.59-.28a2.64,2.64,0,0,0,1.36-1.81.45.45,0,0,0-.15-.36,2.38,2.38,0,0,0-1.53-.18,2.77,2.77,0,0,1-.66.15.45.45,0,0,1-.32-.16c-.31-.43,0-.9.6-.93a1.21,1.21,0,0,0,.34-.06c.33-.13.65-.27,1-.39a4.91,4.91,0,0,0,.68-.22c.25-.13.44-.34.69-.49a6.9,6.9,0,0,0,1.79-1.33,2.45,2.45,0,0,0,.83-2.06.63.63,0,0,0-.75-.47c-.43.11-.84.25-1.24.39s-.74.28-1.07.41l-.33-.24c-.18-.13-.2-.71,0-.78.65-.23,1.3-.48,2-.67a2.74,2.74,0,0,0,1.38-.62,3.5,3.5,0,0,1,.55-.43c.64-.44,1.32-.85,1.92-1.32a3.29,3.29,0,0,0,.61-.83,1.17,1.17,0,0,0,.24-.47A2.91,2.91,0,0,0,115.37,156.71Z"/><path class="cls-18" d="M83.83,181.37a17.89,17.89,0,0,1,4.55,3.92c1.88,2.1,3.48,4.62,3.72,4.83s1.2,2.73.66,3.56-2.63,0-2.78-.18a1.67,1.67,0,0,1-.37-.55c-.24-.46-1.25-3.27-1.62-3.28s-.31,5.53-.5,5.85a1.74,1.74,0,0,1-1.65.46,3.24,3.24,0,0,1-1.62-.84c-.4-.37-.47-1.48-.59-2.2a11.59,11.59,0,0,0-.36-2.28,1,1,0,0,0-1.13.71,12.63,12.63,0,0,1-1,3.24,2.31,2.31,0,0,1-2.34.91c-.33-.21-1.8-.35-1.55-2.78,0-.27,1-5.42,1.08-5.77"/><path class="cls-19" d="M72.73,154.76c.57.13.57-.43.82-.67a3.33,3.33,0,0,1,.25-.28c.31-.25.34-.7.42-1.14.12-.64.14-1.38.58-1.79a4,4,0,0,1,.89-.55,2.35,2.35,0,0,1,.47-.15,1.48,1.48,0,0,1,1,.15,1.07,1.07,0,0,1,.37.39c.19.29.37.58.53.88a2,2,0,0,1,.23,1.51c-.07.28-.13.56-.21.83a1,1,0,0,1-.15.29.85.85,0,0,0,0,1c.12.19.58.29.7.14s.21-.38.33-.56a5.15,5.15,0,0,1,.82-1.19,4.39,4.39,0,0,0,.56-.76,3.67,3.67,0,0,1,.58-.71,15.54,15.54,0,0,1,1.32-1,5.19,5.19,0,0,1,.94-.54,2,2,0,0,1,1.48-.12.4.4,0,0,1,.18.1,3.9,3.9,0,0,1,.85,1.65,2.39,2.39,0,0,1-.26,1.68c-.16.2-.21.52-.35.74s-.39.45-.58.69-.31.4-.46.61c0,0,0,0,0,0-.51.1-.61.73-1.09.89-.16.05-.24.26-.37.4a.45.45,0,0,1-.13.1l-.62.45c-.09.06-.22.07-.29.14a8.25,8.25,0,0,1-1.16.8,14.12,14.12,0,0,1-1.77.92,11.54,11.54,0,0,1-1.16.44l-1.42.53c-.26.09-.54.14-.82.22l-1.41.41c-.24.06-.49.08-.73.12-.52.09-1,.23-1.56.27a2.65,2.65,0,0,1-1.08,0,1.86,1.86,0,0,0-.88,0,1.83,1.83,0,0,1-1.08-.37l-.4-.26a1.5,1.5,0,0,1-.66-1c0-.24.07-.45.07-.68a3.31,3.31,0,0,1,.28-1.07,12.52,12.52,0,0,0,.36-1.55c.13-.66.19-1.35.35-2a22.45,22.45,0,0,1,.7-2.28c.21-.58.51-1.09.74-1.64a5.44,5.44,0,0,1,.94-1.55,2.07,2.07,0,0,1,1.24-.68,1.16,1.16,0,0,1,1.09.77,3.46,3.46,0,0,1,.28,1.43,3.67,3.67,0,0,1-.57,1.77c-.11.28-.21.57-.33.84a1,1,0,0,1-.14.27c-.17.15-.17.38-.07.66a.62.62,0,0,0,.16.21A1.51,1.51,0,0,0,72.73,154.76Z"/><path class="cls-19" d="M65.7,174.1a4.94,4.94,0,0,1,2.09.61,3.24,3.24,0,0,1,1.54,2.5,7.68,7.68,0,0,1,.06,2.39,3.77,3.77,0,0,1-.3,1.21,5.47,5.47,0,0,1-.91,1,3.45,3.45,0,0,1-.54.46,2.92,2.92,0,0,1-1.73.63c-.59,0-1.29-.52-1.31-1s-.09-.66-.08-1,.1-.64.1-1a5.44,5.44,0,0,1,.4-1.55c.1-.33.2-.66.32-1a1.11,1.11,0,0,1,.28-.48c.28-.22.2-.54.3-.81a.45.45,0,0,0-.27-.58.85.85,0,0,0-.89,0,2.36,2.36,0,0,0-.36.53,10.33,10.33,0,0,1-.71,1.41,6,6,0,0,1-1.14,1.16,15.19,15.19,0,0,1-1.84,1.3c-1.14.65-3.16.62-4-.53a1.58,1.58,0,0,1-.11-1.58c.58-1.36,2.43-2.18,4.07-2.78A12.25,12.25,0,0,1,65.7,174.1Z"/><path class="cls-20" d="M68.56,171.4a5.12,5.12,0,0,1-.28.61,5.28,5.28,0,0,1-.57.77,1.09,1.09,0,0,1-.42.15,3.12,3.12,0,0,1-.9.22c-.7,0-1.2-.2-1.31-.9a1.06,1.06,0,0,1,.45-1.08.72.72,0,0,1,.4-.09c.22,0,.44,0,.66.07l1.5.1A2.43,2.43,0,0,1,68.56,171.4Z"/><path class="cls-20" d="M67.84,169c.35,0,.75,1.61.64,1.94a33.34,33.34,0,0,1-3.53-.07S67.35,168.91,67.84,169Z"/><line class="cls-17" x1="73.32" y1="196.53" x2="74.73" y2="203.84"/><path class="cls-21" d="M73.36,202.34s-4.71.48-4.77,1,2.12-.09,2.89.09-4.59,1.6-2.33,1.6A7,7,0,0,0,73,203.85s-1.35,1.4-.34,1.5S77.93,201.77,73.36,202.34Z"/><path class="cls-21" d="M78.53,202.8s-4.7.48-4.77,1,2.12-.09,2.89.09-4.58,1.6-2.33,1.6a7,7,0,0,0,3.88-1.23s-1.36,1.41-.34,1.51S83.11,202.23,78.53,202.8Z"/><path class="cls-22" d="M163.51,198.58a.88.88,0,0,1-.87-.54c-.23-.7-.07-1.7-.28-2.41-.09-.3-.24-1.95,0-1.94,1,.05,2.75.25,3.72.3.52,0,.15,2.59.11,3.17s-.21,1.39-.77,1.42C165.27,198.59,163.86,198.51,163.51,198.58Z"/><path class="cls-10" d="M165.56,205.72c0,.56.56,9,.63,9.56.1.9.22,7.5.14,8.62a2.65,2.65,0,0,1-.09.49c-.08.29-.33.26-.55.25s-1.08-.15-1.36-.15h-1.07c-.23,0-.46,0-.69,0s-.41-.05-.39-.37c0-.09,0-.19,0-.29-.07-.79-.13-1.58-.23-2.36-.06-.53-.18-1-.24-1.58s-.08-1.17-.13-1.76c-.07-.79-.14-1.59-.24-2.38-.16-1.24-1-9.36-1.2-10.6-.11-.73-.28-1.45-.39-2.18s-.17-1.34-.28-2-.44-2.89-.56-3.54c0-.24,3.16.09,3.54.08.69,0,2.86-.4,3.55-.42C166.17,197.08,165.58,205.3,165.56,205.72Z"/><path class="cls-23" d="M159.8,197.79,166,198a16.68,16.68,0,0,1-2.5,5.35c-1.63,2-2.56,10.14-2.56,10.14s-1.44-11.19-1.44-11.7-.59-4.38-.59-4.38Z"/><path class="cls-24" d="M192.24,142l-.14-.05a5.51,5.51,0,0,0-.65-.31,7.23,7.23,0,0,0-.81-.15c-.11,0-3.57-1.57-4-1.66,0,0-3.78.25-4,0a.33.33,0,0,1,0-.32,3.09,3.09,0,0,1,1.13-1.14c.35-.21.68-.46,1-.67s.49-.24.74-.35a4.62,4.62,0,0,1,1.54-.49,7.61,7.61,0,0,1,1.72,0,4.75,4.75,0,0,1,1.61.52,11.19,11.19,0,0,1,1.12.72q.38.27.72.57c.1.08.17.2.27.28a8.31,8.31,0,0,1,1.07,1.3.14.14,0,0,1,0,.15,2.37,2.37,0,0,1-.52.74.81.81,0,0,0-.27.35,1.83,1.83,0,0,1-.39.5S192.29,142,192.24,142Z"/><path class="cls-24" d="M205.3,129.9c.22,0,.44,0,.65,0a.34.34,0,0,1,.29.37,10.59,10.59,0,0,1-.18,1.24c-.14.63-.31,1.26-.48,1.88-.08.3-.19.58-.28.88s-.08.36-.13.54-.13.35-.17.53-.1.46-.16.69-.19.58-.26.87-.2.76-.28,1.15c0,.23-.05.48-.07.72s-.09.25-.28.18c-.36-.12-.72-.26-1.1-.36a8.13,8.13,0,0,0-1-.21.93.93,0,0,0-.33,0,1.06,1.06,0,0,1-.74-.07.15.15,0,0,0-.1,0c-.22,0-.28-.07-.31-.31,0-.39-.09-.78-.1-1.18a2.16,2.16,0,0,1,.1-.61,8.79,8.79,0,0,1,.72-2c.28-.52.55-1,.88-1.52a8.57,8.57,0,0,1,.6-.75l1.09-1.19A3.79,3.79,0,0,1,205.3,129.9Z"/><path class="cls-22" d="M154,199.74c-.62,0-1.24-.07-1.87-.13a1.22,1.22,0,0,1-.9-1c-.08-1-.12-1.89-.18-2.83,0-.31.07-.43.37-.39.71.11,1.41.17,2.12.27a4,4,0,0,1,.75.21,1.29,1.29,0,0,0,.83.18c.16-.05.31,0,.27.29-.07.42-.14.83-.2,1.26a2,2,0,0,0,0,.49c.16,1-.23,1.53-1.08,1.62H154Z"/><path class="cls-22" d="M193.11,194.83c-.05-.4-.08-.79-.15-1.18s0-.4.26-.41a7.31,7.31,0,0,1,2.19-.08,2.69,2.69,0,0,0,.49,0c.26,0,.46.22.37.44-.21.49,0,1,0,1.46s0,.8,0,1.2a.46.46,0,0,1-.49.45c-.68,0-1.35.08-2,.08-.09,0-.24-.16-.26-.27-.14-.57-.24-1.15-.35-1.72Z"/><path class="cls-22" d="M187.28,198.66c-.05.31-.6.76-1.62.82a2.44,2.44,0,0,1-2-.81,20.77,20.77,0,0,1-.07-3.13c.77,0,1.55,0,2.32,0a10.65,10.65,0,0,1,1.13,0c.51,0,.46-.28.54.23C187.57,195.86,187.36,198.24,187.28,198.66Z"/><path class="cls-10" d="M206.28,161.52c-.64.18-1.34.33-2,.59-2.34.9-1.21,4-1.94,6.25-.48,1.49-.92,3-1.5,4.48a7.14,7.14,0,0,0-.43,1.5c-.06.2-.06.42-.11.62-.17.68-.34,1.36-.52,2,0,.16-.1.3-.14.46a9.08,9.08,0,0,0-.07,2.33c0,.61-.08,1.22-.1,1.84s0,1.33,0,2c0,1,0,2,0,3,0,.51,0,1,0,1.51,0,1.22.08,2.44.09,3.66,0,1-.06,2-.1,3,0,.83-.09,1.65-.16,2.47,0,.33-.13.66-.19,1s-.09.66-.14,1l-.21,1.34c0,.17-.05.34-.09.51-.1.41-.22.81-.32,1.22s-.15.74-.23,1.11-.13.51-.21.77a4.29,4.29,0,0,0-.34,1.11c0,.76-1.47,9.67-1.45,10.43s-.12,1.65-.13,2.48.06,1.81.1,2.72.09,1.66.13,2.49c0,.19-.07.3-.29.31-.83,0-1.65.08-2.48.1-.43,0-.51-.08-.59-.49-.1-.58-.23-1.14-.34-1.71s-.28-1.39-.39-2.08c-.24-1.49-.45-3-.69-4.47-.11-.62.82-9.45.71-10.06a6.54,6.54,0,0,1-.08-.89s0-.09,0-.14c-.11-.77-.21-1.53-.34-2.3s-.3-1.68-.43-2.53c-.14-1-.26-2-.38-3.06a.57.57,0,0,1,0-.26,3.77,3.77,0,0,1,.6-1.51,16,16,0,0,0,1.47-1.9c.32-.46.53-1,.83-1.46a15.41,15.41,0,0,0,1-2.13c.22-.51.47-1,.7-1.52a.56.56,0,0,0-.12-.64.62.62,0,0,0-.41-.12c-.38,0-.57.26-.69.6s-.39.9-.58,1.35-.26.77-.43,1.14a9.35,9.35,0,0,1-.54,1,10.32,10.32,0,0,0-.6,1,2.64,2.64,0,0,1-.57.91,8.73,8.73,0,0,0-.78.93,11.74,11.74,0,0,0-.89,1.24,4.34,4.34,0,0,0-.82,1.92c0,.5-.1,1-.15,1.49-.07.68-.16,1.36-.21,2-.07.87-.06,1.76-.17,2.63a4.76,4.76,0,0,1-.2,1.5.28.28,0,0,0,0,.09c0,.66-1.15,9.55-1.18,10.21s-.07,1-.09,1.56a3.63,3.63,0,0,0,0,.57l.18,2.2c.05.67.11,1.33.15,2,0,.46.05.92.07,1.37s0,1,.05,1.46,0,1.24,0,1.87c0,.23-.15.32-.37.32h-1.75a3.37,3.37,0,0,1-.55,0,9.6,9.6,0,0,1-1.09-.25c-.08,0-.14-.21-.16-.32-.07-.63-.11-1.26-.18-1.89-.11-1-.21-2.06-.34-3.09a12.4,12.4,0,0,0-.36-1.93,17.47,17.47,0,0,1-.41-2c-.19-1,.73-10.21.53-11.2-.08-.37-.22-.74-.31-1.11-.12-.53-.2-1.06-.33-1.58-.22-.82-.47-1.64-.7-2.46-.16-.58-.32-1.17-.47-1.76-.06-.25-.11-.5-.18-.74s0-.45.27-.52a.8.8,0,0,0,.37-1.11.47.47,0,0,0-.39-.12,11.52,11.52,0,0,0-1.14.35c-.55.18-1.08.41-1.64.55a11.23,11.23,0,0,1-1.3.14c-.68.07-1.37.12-2,.21s-1.3.25-2,.35-1.12.11-1.68.16c-.23,0-.45.07-.68.09s-.67.06-1,.07l-2.14,0c-.92,0-1.83.05-2.74.1s-1.85.21-2.77.21c-.74,0-1.49-.23-2.24-.28a2.54,2.54,0,0,1-1.41-.78,1.54,1.54,0,0,0-.48-.18c-.09,0-.21,0-.28-.05a.84.84,0,0,0-.8.08c-.31.14-.37.81-.24,1a.63.63,0,0,0,.29.16c.38.15.39.15.31.54s-.23.94-.29,1.42-.09,1.23-.14,1.84-.07,1-.12,1.56c-.06.69-.11,1.39-.21,2.08s.41,8.34.27,9.06c0,0,0,.08,0,.11.17.33-.08.61-.11.92-.06.55-.07,1.11-.11,1.67,0,.23-.08.46-.11.68-.06.48-.1,1-.16,1.43,0,.22-.08.43-.12.64s-.06.57-.11.86c-.09.53-.24,1.07-.29,1.61s-.1,1.84-.1,1.84l-.2,1.89a6.9,6.9,0,0,1-1.47.2l-.73-.14c-.58-.08-1.16-.17-1.74-.23-.3,0-.44-.16-.42-.46s0-.86,0-1.29,0-.69,0-1c0-.6,0-1.2,0-1.79s.09-1.2.09-1.79,0-1.27-.06-1.9,0-1-.08-1.56c0-.28-.11-.55-.16-.83-.14-.66-.95-8.2-1.09-8.86-.23-1.07-.47-2.14-.7-3.21,0-.18,0-.42-.23-.5,0,0,0-.08,0-.1.21-.37-.05-.72-.06-1.07,0-.5-.15-1-.22-1.5s-.18-1.17-.21-1.76a4.91,4.91,0,0,1-.1-1.39,5.8,5.8,0,0,0-.12-1.48c0-.76-.09-1.53-.14-2.3,0-.52-.07-1-.1-1.56a16.24,16.24,0,0,1,0-2.61c.07-.62,0-1.26.06-1.89,0-.44.08-.88.13-1.33s.11-1.12.21-1.67.22-1,.36-1.5.31-1.07.47-1.6.32-1.18.55-1.74a8.06,8.06,0,0,1,.69-1.16,2.6,2.6,0,0,1,.25-.33l-.08,0c0-.09,0-.2,0-.27.18-.25.4-.47.57-.72.39-.6.75-1.21,1.14-1.81.1-.16.29-.27.42-.43.35-.41.68-.83,1-1.25.08-.09.2-.14.29-.23a5.19,5.19,0,0,1,.45-.48,4,4,0,0,1,.72-.42c.59-.27,1.18-.54,1.79-.75a11.83,11.83,0,0,1,1.75-.45c1-.18,1.94-.31,2.91-.46l1.88-.32a6.08,6.08,0,0,1,.61,0c.76-.06,1.53-.12,2.29-.16l1.4-.06,2.09-.1c1-.05,1.9-.09,2.85-.17.57,0,1.14-.15,1.7-.23l.31,0c.85-.07,1.69-.15,2.54-.2,4.46-.28,8.53-.76,11.56-4.44a9.53,9.53,0,0,0,1-1.32c1-1.76.32-4.31.26-6.25,0-.23.05-.46,0-.69,0-.77-.05-1.54-.08-2.3,0-.14-.06-.26-.08-.4,0-.75-.06-1.45,0-2.22-.77.09-1.5.66-2.3.8-.55.09-1.11.12-1.67.16a6.36,6.36,0,0,1-1.07,0,6,6,0,0,1-.92-.18,4.08,4.08,0,0,1-.6-.16c-.34-.12-.66-.25-1-.38l-1.07-.39s-.06-.08-.08-.12a.86.86,0,0,0-.13-.23,8.81,8.81,0,0,1-.93-.79,2.94,2.94,0,0,1-.56-.91c-.22-.57-.39-1.17-.57-1.75a2.53,2.53,0,0,1-.11-.6.41.41,0,0,1,.13-.28.58.58,0,0,1,.31-.13,13.37,13.37,0,0,1,1.54-.15c.72,0,1.45.08,2.17.12h1.68a3.06,3.06,0,0,1,.51.1c.46.09.92.18,1.38.29a1.88,1.88,0,0,1,.39.16c.32.14.63,0,.59-.36a2,2,0,0,1,.33-1.1c.22-.45.48-.88.72-1.31.12-.23.23-.45.36-.66a3.71,3.71,0,0,1,.27-.29c.06-.06.15-.14.15-.21,0-.3.19-.48.33-.68s.47-.62.7-.94c.1-.12.2-.19.36-.11a.22.22,0,0,0,.16,0,1.46,1.46,0,0,0,.51-.45,2.92,2.92,0,0,1,.57-.7,6.93,6.93,0,0,1,1.17-.8,11.64,11.64,0,0,1,1.52-.7c.43-.17.89-.29,1.34-.42s.64-.14,1-.21.9-.24,1.36-.33a.93.93,0,0,1,.74.08.76.76,0,0,0,.4,0,8.28,8.28,0,0,1,1-.09,3.66,3.66,0,0,1,1.25.28c.77.27,1.56.5,2.34.77a8.82,8.82,0,0,1,.93.45c.22.12.44.24.67.34a.74.74,0,0,0,.6-.18.11.11,0,0,0,0-.08.49.49,0,0,1,.43-.57,1.59,1.59,0,0,0,.29-.15c.36-.25.73-.49,1.06-.77a4.76,4.76,0,0,0,.63-.64,7.27,7.27,0,0,1,1.5-1.27,11.13,11.13,0,0,0,.92-.75.64.64,0,0,1,.59-.2.6.6,0,0,1,.26.22.57.57,0,0,1,.09.24c.09.41.21.83.27,1.25.1.77.16,1.54.24,2.31,0,.22.08.44.1.65a4.11,4.11,0,0,1-.95,3.23,7.65,7.65,0,0,1-.79.82,3,3,0,0,1-.62.38c-.35.19-.7.38-1.06.54a5.54,5.54,0,0,1-.82.24.37.37,0,0,1-.25-.09c-1.06-.82-.37,3.31-.35,3.65a24.8,24.8,0,0,0,.54,5.64,13.87,13.87,0,0,1,.6,2.16C209.35,159.05,209.17,160.75,206.28,161.52Z"/><path class="cls-23" d="M189,195.13a7.19,7.19,0,0,0,2.19-.38c.54-.33,2-2.84,3-3.88s.49-1.86,1.2-2.51a3.53,3.53,0,0,0,.93-1.58s-.6-.88-.82-.71a8.32,8.32,0,0,1-1.09.49s-3,6.1-3.33,6.49-1.09,1.21-1.09,1.21Z"/><path class="cls-23" d="M181.88,196.66s1.26,2.78,1.58,3.27,0,14.88.11,15-.46,5.36-.46,5.36l-1.34-18.77s-.38-2.18-.43-2.4l-.46-1.62Z"/><path class="cls-23" d="M180.68,195.51s1.75.55,2.62,0,2.13-1.26,2.13-1.26l.82-.22-1,1.42-2,1.15-2.42,1Z"/><path class="cls-23" d="M191.22,194.75l-.66-.11,1.15,7.75.34,1.71s1-6.65,1.42-7.68.85-2.87.85-2.87l1.43-1.86.6-4.91-2.08,2.73Z"/><path class="cls-23" d="M203.35,162.64s-1.16,7-1.61,7.57-1.58-1.68-2.36-2.81-2.81-4.89-3-5.3a23.85,23.85,0,0,1-.61-2.73l-1.11-3.24-.3-1,3.54,5.36s3,1.93,3.44,2.13A7.26,7.26,0,0,0,203.35,162.64Z"/><path class="cls-25" d="M205.61,157.25s2.56-1.14,2.13.06.07,2.7-1.63,2.93-3.14-1.76-3.14-1.76Z"/><path class="cls-22" d="M203.32,161.3s3.64-.21,5-2a2.62,2.62,0,0,1-1.42,2.43C205.34,162.41,203.93,161.5,203.32,161.3Z"/><path class="cls-26" d="M205.58,158a7.52,7.52,0,0,1,.81,3.14"/><path class="cls-27" d="M194.88,150.68c-.22.26-.2.38,0,.57a.9.9,0,0,1,.25.37c0,.25.29.25.43.35s.48.07.73.17a2.69,2.69,0,0,0,.81.1c.21,0,.35-.06.37-.28a1.17,1.17,0,0,0,0-.26s0-.11,0-.15a.57.57,0,0,0-.24-.59,4,4,0,0,0-.47-.34,1.1,1.1,0,0,0-1.07-.07,1.94,1.94,0,0,1-.33.07Z"/><path class="cls-27" d="M207.42,147.6h0a1.49,1.49,0,0,0,.14-.24,1.05,1.05,0,0,0,0-.9.39.39,0,0,0-.67-.07s0,.06-.08.07a1.23,1.23,0,0,0-.58.63,1.05,1.05,0,0,1-.17.29,1.16,1.16,0,0,0-.29.61,1.43,1.43,0,0,1-.15.44.37.37,0,0,0,.25.54c.13,0,.31,0,.37-.12a2.16,2.16,0,0,1,.65-.52.27.27,0,0,0,.08-.07Z"/><path class="cls-22" d="M190.47,151.32a25.81,25.81,0,0,1-4.28.24,10.12,10.12,0,0,1-3.35-.8A4,4,0,0,1,181,149l-2.09-2a3.81,3.81,0,0,0,.59,2.89c1,1.67,2.75,2.22,5.37,2.62S190.47,151.32,190.47,151.32Z"/><path class="cls-28" d="M206.28,148.34a4.43,4.43,0,0,1,1-1.31c.5-.36,0,.52,0,.52a4.07,4.07,0,0,0-.33.44C207,148.12,206.24,148.8,206.28,148.34Z"/><path class="cls-28" d="M197.1,151.86a4.12,4.12,0,0,0-1.41-.88c-.6-.17.14.49.14.49a3.75,3.75,0,0,1,.45.31C196.39,151.88,197.29,152.27,197.1,151.86Z"/><path class="cls-28" d="M171.32,211.78a.87.87,0,0,0,.87-.54c.23-.7.07-1.7.28-2.41.09-.3.25-2,0-1.94-1,.05-2.74.25-3.72.3-.51,0-.15,2.59-.11,3.18s.21,1.38.77,1.41C169.56,211.79,171,211.71,171.32,211.78Z"/><path class="cls-29" d="M169.27,218.92c0,.56-.56,9-.62,9.56-.11.9-.23,7.5-.15,8.62a2.65,2.65,0,0,0,.09.49c.09.29.33.26.55.25s1.08-.15,1.37-.15h1.06c.23,0,.47,0,.7,0s.4,0,.39-.37a1.43,1.43,0,0,1,0-.29c.07-.79.14-1.57.23-2.36.06-.53.19-1.05.24-1.58s.08-1.17.13-1.76c.07-.79.14-1.59.24-2.38.16-1.24,1-9.36,1.21-10.6.11-.73.27-1.45.38-2.18s.18-1.34.28-2,.45-2.89.56-3.54c0-.24-3.16.09-3.54.08-.68,0-2.86-.39-3.54-.42C168.66,210.28,169.25,218.5,169.27,218.92Z"/><path class="cls-30" d="M175,211l-6.17.23a16.56,16.56,0,0,0,2.49,5.35c1.64,2,2.56,10.14,2.56,10.14s1.44-11.19,1.44-11.7.59-4.38.59-4.38Z"/><path class="cls-28" d="M180.86,212.94c.62,0,1.25-.07,1.87-.13a1.2,1.2,0,0,0,.9-1c.08-.94.12-1.89.18-2.83,0-.31-.07-.43-.37-.39-.7.11-1.41.17-2.12.27a4.21,4.21,0,0,0-.75.21,1.27,1.27,0,0,1-.83.18c-.16-.05-.3.05-.26.29.06.42.14.84.19,1.26a1.61,1.61,0,0,1,0,.49c-.16,1,.23,1.53,1.08,1.62h.13Z"/><path class="cls-28" d="M141.37,219.35c0-.31.07-.63.12-.94s0-.33-.21-.33a6.12,6.12,0,0,0-1.76-.07,2.69,2.69,0,0,1-.4,0c-.2,0-.37.17-.29.35.16.39,0,.78,0,1.17s0,.65,0,1a.37.37,0,0,0,.39.37c.54,0,1.09.06,1.64.07.07,0,.18-.14.2-.22.11-.46.19-.92.28-1.39Z"/><path class="cls-28" d="M146.06,222.43c0,.25.48.62,1.3.66a2,2,0,0,0,1.63-.65,16.3,16.3,0,0,0,.06-2.51c-.62,0-1.25,0-1.87,0-.3,0-.6,0-.9,0s-.38-.22-.44.19C145.82,220.18,146,222.09,146.06,222.43Z"/><path class="cls-29" d="M141.28,175.07c1.54,2.69,1.75,6.17,3.41,8.78,2.46,3.89,9.86,5.81,14.3,4.16,2.44-.91,3.55-2.91,5.51-4.1s4-.74,6.3-.58c.2,0,.41,0,.61,0l1.87.32c1,.15,1.94.28,2.91.46a11.83,11.83,0,0,1,1.75.45c.61.21,1.2.48,1.79.75a3.67,3.67,0,0,1,.72.42,4.12,4.12,0,0,1,.45.48,3.36,3.36,0,0,1,.29.24c.35.41.68.83,1,1.25a5.7,5.7,0,0,1,.43.42c.39.6.75,1.21,1.13,1.81.17.25.39.47.57.72.05.07,0,.18,0,.27l-.08,0a2.6,2.6,0,0,1,.25.33,8.06,8.06,0,0,1,.69,1.16c.23.56.37,1.16.55,1.74s.33,1.06.48,1.6.27,1,.36,1.5.14,1.12.2,1.68.11.88.14,1.32c0,.63,0,1.27.06,1.89a16.23,16.23,0,0,1,0,2.61c0,.52-.07,1-.1,1.56-.05.77-.08,1.54-.14,2.3a6.29,6.29,0,0,0-.12,1.48,5.31,5.31,0,0,1-.09,1.39c0,.59-.14,1.17-.22,1.76s-.19,1-.21,1.5c0,.35-.28.7-.06,1.07,0,0,0,.1,0,.1-.27.09-.19.32-.23.51l-.69,3.2c-.14.66-1,8.2-1.09,8.86a6.07,6.07,0,0,0-.16.83c-.05.52-.07,1-.09,1.56s-.06,1.26-.06,1.9.08,1.19.09,1.79,0,1.19,0,1.79c0,.35,0,.7,0,1s0,.86,0,1.29-.13.42-.43.45c-.58.06-1.16.15-1.74.23l-.73.14a6.78,6.78,0,0,1-1.46-.2l-.21-1.88s0-1.24-.09-1.85-.2-1.07-.3-1.61c0-.29-.07-.57-.11-.85s-.1-.43-.12-.65c-.06-.47-.1-1-.16-1.42,0-.23-.09-.46-.1-.69,0-.56-.06-1.12-.12-1.67,0-.31-.28-.59-.11-.92,0,0,0-.07,0-.11-.14-.72.38-8.33.27-9.06s-.15-1.38-.21-2.08c-.05-.52-.08-1-.12-1.55-.11-1.58,0-4.31-2.34-2.94l-7,4c-5.36,3.1-8.82,2.73-14.48.85-.37-.12-.75-.26-1.14-.35a.49.49,0,0,0-.38.13.79.79,0,0,0,.37,1.11c.27.06.35.24.27.52s-.12.49-.19.73c-.15.59-.3,1.18-.47,1.77-.22.82-.48,1.63-.69,2.45-.14.52-.22,1.06-.34,1.58s-.23.74-.3,1.12c-.2,1,.72,10.21.53,11.2a19.7,19.7,0,0,1-.41,2,11.63,11.63,0,0,0-.36,1.94c-.14,1-.24,2.06-.35,3.09-.06.63-.11,1.26-.18,1.89,0,.11-.07.29-.15.31a8.56,8.56,0,0,1-1.09.25,3.44,3.44,0,0,1-.56,0H147c-.21,0-.37-.09-.37-.32,0-.62,0-1.24,0-1.87,0-.48,0-1,.05-1.45s0-.92.06-1.37c0-.67.1-1.34.16-2s.12-1.46.17-2.19a3.64,3.64,0,0,0,0-.57c0-.52-.07-1-.1-1.56s-1.15-9.55-1.17-10.22c0,0,0-.06,0-.08a4.83,4.83,0,0,1-.2-1.51c-.11-.87-.1-1.75-.17-2.63,0-.68-.14-1.36-.21-2-.05-.49-.11-1-.14-1.48a4.56,4.56,0,0,0-.83-1.93,10.68,10.68,0,0,0-.89-1.23,8.75,8.75,0,0,0-.77-.94,2.72,2.72,0,0,1-.58-.91,11.53,11.53,0,0,0-.59-1c-.19-.32-.39-.64-.55-1s-.28-.76-.43-1.13-.4-.9-.57-1.36-.31-.58-.69-.59a.56.56,0,0,0-.41.12.54.54,0,0,0-.12.64c.22.5.47,1,.7,1.51a15.53,15.53,0,0,0,1,2.14c.3.47.5,1,.82,1.46a16.89,16.89,0,0,0,1.47,1.9,3.75,3.75,0,0,1,.61,1.5.76.76,0,0,1,0,.26c-.13,1-.24,2-.39,3.07-.12.84-.29,1.68-.43,2.53s-.22,1.53-.34,2.29c0,.05,0,.1,0,.15,0,.29,0,.59-.08.88-.12.62.81,9.45.71,10.07-.25,1.48-.46,3-.69,4.46-.11.7-.26,1.39-.39,2.08s-.25,1.14-.35,1.71c-.07.41-.16.51-.59.5-.83,0-1.65-.08-2.48-.1a.26.26,0,0,1-.28-.31c0-.84.08-1.67.12-2.5s.11-1.81.1-2.72-.14-1.65-.12-2.47-1.43-9.67-1.46-10.43a4.75,4.75,0,0,0-.33-1.12c-.08-.25-.16-.51-.22-.77s-.14-.74-.23-1.1-.21-.82-.31-1.22c0-.17-.06-.35-.09-.52-.07-.45-.15-.89-.22-1.34s-.08-.67-.14-1-.16-.65-.19-1c-.07-.82-.12-1.65-.15-2.47-.05-1-.1-2-.1-3,0-1.22,0-2.44.09-3.65l0-1.51c0-1,0-2,0-3,0-.67,0-1.34,0-2s-.08-1.22-.09-1.84a10.08,10.08,0,0,0-.07-2.33c-.05-.15-.11-.3-.15-.45-.17-.68-.35-1.36-.52-2-.05-.21-.05-.42-.11-.62a7.14,7.14,0,0,0-.43-1.5c-.58-1.46-1-3-1.5-4.49"/><path class="cls-30" d="M145.18,216a6.79,6.79,0,0,1-2.18-.38c-.55-.33-2-2.84-3-3.87s-.49-1.86-1.2-2.52a3.41,3.41,0,0,1-.92-1.58s.6-.87.81-.71a7.15,7.15,0,0,0,1.1.49s3,6.1,3.33,6.5,1.09,1.2,1.09,1.2Z"/><path class="cls-30" d="M152.33,217.49s-1.25,2.79-1.58,3.28-.05,14.88-.11,15,.47,5.37.47,5.37l1.33-18.77s.38-2.19.44-2.41.46-1.61.46-1.61Z"/><path class="cls-30" d="M153.53,216.35s-1.74.54-2.62-.06a23.68,23.68,0,0,0-2.13-1.25l-.81-.22,1,1.42,2,1.14,2.43,1Z"/><path class="cls-30" d="M143,215.58l.65-.11-1.14,7.75-.34,1.72s-1-6.65-1.43-7.69-.84-2.87-.84-2.87l-1.43-1.86-.6-4.91,2.07,2.73Z"/><path class="cls-29" d="M142.38,166.79a33.27,33.27,0,0,1,2.45-3.28,42.07,42.07,0,0,1,6.71-3.22c.92-.16.64,1.17.64,2.25s-2.29,5.15-3.4,5.61-5.43,2.86-5.43,2.86l-.36-1-.12-1.74Z"/><path class="cls-24" d="M135.21,162.5c.1-.48,1.9-5,2-5.27a10.71,10.71,0,0,1,3.69-3.83,15.08,15.08,0,0,1,5.9-1.63,14.45,14.45,0,0,1,4.11.77l1.16.38,1.13.29s1,.53-.36.57c-1.59.05-3.42.21-3.93.67-.95.86-2.32,1.44-3.16,2.3a37.52,37.52,0,0,0-2.84,3.62,18.8,18.8,0,0,0-1,2.48c-.32.81-.69,1.66-.69,1.66l-2.53-2.92Z"/><path class="cls-24" d="M132.68,162.31s.08-8.55-1.05-9.58a6.74,6.74,0,0,0-4.64-2.21c-2.11-.09-4.32-.19-4.85-.19s-2,.1-2,.1-.64.19.1.57,4,1,4.53,1.63c1.43,1.48,1.1,1.18,1.38,1.73.66,1.33.63,2.68.94,3.06a12.82,12.82,0,0,1,.53,3.07s.42,2.39.63,2a14.37,14.37,0,0,1,1.27-1.49Z"/><path class="cls-30" d="M136.58,193.82l.63-2.3.42,1.92.43-2.88-.64-2a31.72,31.72,0,0,1-5.79,1.15c-1.8,0-4.22-2.68-4.22-2.68-.33,0-1.68,3.39-.53,4.31.73.58-.31,2.2,0,3.35a18.75,18.75,0,0,0,1.16,2.78l-.1-2,1.05,2.87h.84l.43,1.92.21,1.24,1.37-1.43,2-1.53-.53,1.53s1.69-1.63,1.69-2a7.09,7.09,0,0,1,.63-1.63l.74-1.34"/><path class="cls-28" d="M142.64,166l-2-2.44s.4-1.7-1.9-2a4.76,4.76,0,0,0-4,.86,1.36,1.36,0,0,1-2-.57,3,3,0,0,0-3.16-.87c-1.11.43-1.9,2.3-1.9,2.3s-1.9,3.59-2.37,4.31a7.61,7.61,0,0,0-.32,3.74c.16.57,1.11,3,1.27,4a27.47,27.47,0,0,0,1.1,4.46c.64,1.86.13,5.09,0,6.17a3.9,3.9,0,0,0,2.22,4c1.26.43,5.53.62,7.43-.24s3.79-6.47,3.79-6.47l1.74-6.75,1-4.74.21-3.74Z"/><path class="cls-29" d="M127.09,164.22,126,162.17l-1.45-1.53-2.74-2.11s-1.92-1.31-2.24-1,.4,3.08.5,3.56a15.24,15.24,0,0,0,1.48,3.07,5.81,5.81,0,0,0,1.26,1.53c.74.67,2.48,2,2.48,2Z"/><path class="cls-31" d="M141.69,165l-1.37,1.15c-.33.3-1,1-1.58,1.54-.75.72-3,1-3.05,2.29a25.72,25.72,0,0,1,0,2.78c-.21,1.44-.85,2.4,0,2.4s3.58-1.34,4.63-1.34a6.12,6.12,0,0,1,2.53.95,22.91,22.91,0,0,0,1-4.59,8.22,8.22,0,0,0-.43-3.17C143.17,166.62,141.69,165,141.69,165Z"/><path class="cls-31" d="M127.09,164.22a3.76,3.76,0,0,0,.53,2.68c.84,1.15,2.32,2.21,2.11,3a11.91,11.91,0,0,0-.84,2.59c-.16,1.25.47,2.39-.43,2.59a2.39,2.39,0,0,1-2.63-1.06c-.42-1-2-3.78-1.27-5.07a10.83,10.83,0,0,0,1-2.88Z"/><path class="cls-31" d="M128.73,178c.68-.61,1.05-2.2,2.63-1.92s1.22,1.41,3.1,2.21a3.9,3.9,0,0,1,2.33,2.82,3.47,3.47,0,0,1-.26,1.43l-.9,1.49s1.06,1,.75,2-3.37,2.78-6.07,2.33c-2.43-.59-3-2-3.12-2.82-.37-1.29.56-2,.46-2.57a19.12,19.12,0,0,0-.82-3.14C126.41,178.79,128.05,178.63,128.73,178Z"/><path class="cls-22" d="M128.46,184.91a7.91,7.91,0,0,0,2.17.57,12.58,12.58,0,0,0,3.22-.28,5.48,5.48,0,0,1-2.76,1.25c-1.26,0-1.18-.3-1.76-.55A2,2,0,0,1,128.46,184.91Z"/><path class="cls-25" d="M128,180.87s.34-.61,1.5.16,1.21.64,2,.45,2-1.14,2.3-.37-1.26,2.45-2.42,2.74a3.16,3.16,0,0,1-2.75-.73A2.56,2.56,0,0,1,128,180.87Z"/><path class="cls-32" d="M124.71,169.27c-.42.14-.48.28-.42.58a1.11,1.11,0,0,1,0,.54c-.11.29.16.44.27.63s.5.37.72.63a3.75,3.75,0,0,0,.87.61.41.41,0,0,0,.62-.08,1,1,0,0,0,.14-.29c0-.06,0-.15,0-.18a.66.66,0,0,0,.12-.77,4.29,4.29,0,0,0-.31-.65,1.49,1.49,0,0,0-1.2-.73,3.19,3.19,0,0,1-.44-.13Z"/><path class="cls-32" d="M141.68,172.16v0A2.4,2.4,0,0,0,142,172c.32-.27.66-.51.65-1a.54.54,0,0,0-.76-.5.21.21,0,0,1-.13,0,1.81,1.81,0,0,0-1.12.31,1.77,1.77,0,0,1-.41.21,1.56,1.56,0,0,0-.77.48,1.81,1.81,0,0,1-.49.37c-.27.16-.34.6-.07.75a.8.8,0,0,0,.53.11,3.1,3.1,0,0,1,1.13-.16.32.32,0,0,0,.14,0Z"/><path class="cls-28" d="M140.05,172a4.37,4.37,0,0,1,1.49-.68c.61-.1-.19.44-.19.44a4.15,4.15,0,0,0-.48.24C140.76,172.09,139.83,172.37,140.05,172Z"/><path class="cls-28" d="M126.54,171.49a4.32,4.32,0,0,0-1.41-.8c-.59-.15.14.45.14.45a4.73,4.73,0,0,1,.46.28C125.83,171.51,126.73,171.87,126.54,171.49Z"/><path class="cls-30" d="M170.8,183.33C178.45,184.06,159,188,159,188,158.76,187.39,162.61,182.55,170.8,183.33Z"/><polygon class="cls-33" points="358.09 269 0 269 0.91 0 359 0 358.09 269"/></g></g></svg>