<svg xmlns="http://www.w3.org/2000/svg" viewBox="0 0 120 120"><defs><style>.cls-1{fill:#37bef0;}.cls-2{fill:#5e5ba2;}.cls-3{fill:#804d63;}.cls-4{fill:#9bcb6c;stroke:#9bcb6c;stroke-miterlimit:10;stroke-width:2px;}.cls-5{fill:none;}</style></defs><g id="レイヤー_2" data-name="レイヤー 2"><g id="nav_1"><path class="cls-1" d="M37,96.56c-.77.65-1,.6-1.62.41s-.69-.94-.29-1.7a5.26,5.26,0,0,0,.38-1c.13-.4-.09-.73-.58-.71h-.33c-1,0-1,.61-1,1a20.62,20.62,0,0,1-.87,5.23c-.47,1.49-1.26,2.36-2.16,2.37a1.18,1.18,0,0,1-1.26-1.48c.13-.86,1-1.65,1.2-2.66a17.16,17.16,0,0,0,.36-3.27,1,1,0,0,0-1.2-1.09c-.36,0-.62,0-.81,0-1.33,0-2.13-.08-2.33-1.11s.34-1.68,2.25-1.68c2.23,0,6.69-.08,7.81,0a2,2,0,0,1,1.82,2A5.92,5.92,0,0,1,37,96.56Z"/><path class="cls-1" d="M44.84,96.21A1.22,1.22,0,0,1,42.94,95c.12-.8.63-1,1.33-2.59.63-1.44,1.12-2,2.35-1.89s4.5,0,5.31.15,1.63,1,1.21,3c-.68,3.36-1.78,6.18-3.83,8-1.46,1.31-2.12,1-2.63.49s-.39-1.37.44-2.22a11.85,11.85,0,0,0,2.34-3.32,8.16,8.16,0,0,0,.78-2.43c.14-.78-.74-.91-.74-.91H48a1.43,1.43,0,0,0-1.49.82A5.41,5.41,0,0,1,44.84,96.21Z"/><path class="cls-1" d="M69.6,100.64c.06.82-.44,1.51-1.65,1.65s-4.87.46-6.24-2.09a6.07,6.07,0,0,1-.63-3.14c0-.56-.13-.88-.83-.77s-1.86.21-2.13-.8.5-1.46,2.05-1.81a1.16,1.16,0,0,0,.86-1.1v-.74c0-1.09.46-1.69,1.28-1.75a1.35,1.35,0,0,1,1.51,1.43,3.33,3.33,0,0,1,0,.73c-.09.69.63.78,1,.72L68,92.5c.8-.1,2.22.27,2.17,1.51a4.12,4.12,0,0,1-1.29,2.85c-.5.36-1.74.27-1.79-.65a2.64,2.64,0,0,1,.09-.74c0-.28-.22-.34-.45-.3-.59.1-1.56.32-2.16.43a1.12,1.12,0,0,0-.76.91A5.93,5.93,0,0,0,64,98.62c.9,1.52,3.22.79,4.21.89S69.52,99.79,69.6,100.64Z"/><path class="cls-1" d="M85.26,102.21c-.73.4-1.33.1-2.26-.74-.4-.37-.78-.74-1.15-1.07a1.18,1.18,0,0,0-1.41,0c-.74.56-1.36,1-1.83,1.33a2.91,2.91,0,0,1-2.41.52A1.29,1.29,0,0,1,76,100c.84-.75,2.68-1.59,4-3.33a9.78,9.78,0,0,0,1.28-2.27c.2-.47-.05-.81-.57-.82l-3.64,0c-.88,0-1.65-.47-1.65-1.16S76,91,77.26,90.88a60.9,60.9,0,0,1,6.28.06,1.52,1.52,0,0,1,1.39,1.43,10.09,10.09,0,0,1-1.58,4.21,1.16,1.16,0,0,0,.21,1.56,26.23,26.23,0,0,1,1.93,2A1.34,1.34,0,0,1,85.26,102.21Z"/><path class="cls-2" d="M89.79,65.37a2.14,2.14,0,0,0,2.14-2.14l0-30.11A2.14,2.14,0,0,0,89.76,31H35.1a4.47,4.47,0,0,0-3.32,1.79L24.69,43.56a8.45,8.45,0,0,0-1.18,3.94V63.23a2.14,2.14,0,0,0,2.14,2.14Z"/><rect class="cls-1" x="39.87" y="39.12" width="10.26" height="9.92" rx="0.83"/><rect class="cls-1" x="56.13" y="39.12" width="10.26" height="9.92" rx="0.83"/><rect class="cls-1" x="72.39" y="39.12" width="10.26" height="9.92" rx="0.83"/><circle class="cls-3" cx="75.26" cy="63.54" r="5.95"/><circle class="cls-3" cx="40.63" cy="63.54" r="5.95"/><path class="cls-4" d="M97.56,54.44a.32.32,0,0,0-.43,0l0,0a5.22,5.22,0,0,1-.46.48,6.67,6.67,0,0,1-9.05,0A6,6,0,0,1,86.2,53a.6.6,0,0,1,.25-.85l.14,0c.58-.24.8,0,1,.37A5.05,5.05,0,0,0,94,55a5.13,5.13,0,0,0,1.57-1,4.8,4.8,0,0,0,1.06-1.48c.11-.26.14-.48.67-.48a.63.63,0,0,1,.67.48A4.8,4.8,0,0,0,99.05,54a5.15,5.15,0,0,0,7,0h0a4.76,4.76,0,0,0,1-1.48c.16-.35.34-.61,1-.37s.54.56.38.91a6.53,6.53,0,0,1-8.38,3.2,6.19,6.19,0,0,1-2-1.3A4.09,4.09,0,0,1,97.56,54.44Z"/><rect class="cls-5" width="120" height="120"/></g></g></svg>