<svg xmlns="http://www.w3.org/2000/svg" viewBox="0 0 120 120"><defs><style>.cls-1,.cls-4{fill:#37bef0;}.cls-2{fill:#5e5ba2;}.cls-3{fill:#804d63;}.cls-4{stroke:#37bef0;stroke-width:0.5px;}.cls-4,.cls-5{stroke-miterlimit:10;}.cls-5{fill:#9bcb6c;stroke:#9bcb6c;stroke-width:2px;}.cls-6{fill:none;}</style></defs><g id="レイヤー_2" data-name="レイヤー 2"><g id="nav_1"><path class="cls-1" d="M31.85,96.56c-.77.65-1.05.6-1.62.41s-.69-1-.28-1.7a6.08,6.08,0,0,0,.37-1c.13-.4-.09-.73-.58-.71h-.33c-1,0-1,.61-1,1a20.62,20.62,0,0,1-.87,5.23c-.47,1.49-1.26,2.36-2.16,2.37a1.18,1.18,0,0,1-1.26-1.48c.13-.86,1-1.65,1.2-2.66a17.16,17.16,0,0,0,.36-3.27,1,1,0,0,0-1.19-1.09c-.37,0-.63,0-.82,0-1.32,0-2.13-.08-2.33-1.11s.34-1.68,2.25-1.68c2.24,0,6.69-.08,7.81,0a2,2,0,0,1,1.83,2A6,6,0,0,1,31.85,96.56Z"/><path class="cls-1" d="M49,94.64a1.29,1.29,0,0,1-1.35,1.26c-.24,0-.92-.06-1.77,0a1,1,0,0,0-1,.79,14.59,14.59,0,0,1-.49,1.87c-.87,2.38-2.22,3.63-3.45,4a1.38,1.38,0,0,1-1.69-.66A1.71,1.71,0,0,1,40,100.1a6,6,0,0,0,1.92-3.38.67.67,0,0,0-.64-.87c-1.12,0-2,0-2.23,0-.88,0-1.46-.24-1.52-1.26s.86-1.33,1.71-1.36c.29,0,1,0,1.94,0a.93.93,0,0,0,1.07-1c0-.22,0-.42,0-.61A1.41,1.41,0,0,1,43.51,90c.63,0,1.24.41,1.45,1.54q0,.33.09.9a.81.81,0,0,0,.93.77,12.62,12.62,0,0,1,1.76.07A1.36,1.36,0,0,1,49,94.64Z"/><path class="cls-1" d="M64.9,94.45a10.29,10.29,0,0,1-1.12,4.93,6.52,6.52,0,0,1-3.31,3,1.63,1.63,0,0,1-1.9-.61c-.3-.54,0-1.39.85-1.94a3.92,3.92,0,0,0,2.36-2.6,7.36,7.36,0,0,0,.33-1.74c0-.74-.74-.85-.74-.85l-4.17,0s-1,0-1,.86a1.9,1.9,0,0,1,0,.35,1.3,1.3,0,0,1-1.23,1.15,1.25,1.25,0,0,1-1.35-1,15.27,15.27,0,0,1,0-2.64,1.78,1.78,0,0,1,2-1.42c.3,0,.82,0,1.48,0a.86.86,0,0,0,.84-.86,1.18,1.18,0,0,1,1.18-1.22,1.25,1.25,0,0,1,1.29,1.17c0,.71.34.9,1,.91s1.4,0,1.65.05A2.28,2.28,0,0,1,64.9,94.45Z"/><path class="cls-1" d="M69.86,92.45A1.4,1.4,0,0,1,72,91.84a29.22,29.22,0,0,1,3,2,1.25,1.25,0,0,1,.21,1.61,1.48,1.48,0,0,1-1.93.43,23.9,23.9,0,0,1-2.81-1.61A1.47,1.47,0,0,1,69.86,92.45Zm10.63-.11a1.54,1.54,0,0,1,.69,1.87A11.87,11.87,0,0,1,77.64,100c-2.28,1.89-4,2.24-5.42,2.16-1-.06-1.67-.62-1.62-1.43s.5-1.23,1.64-1.37a6.18,6.18,0,0,0,4.36-2.73,25.47,25.47,0,0,0,2-3.46A1.5,1.5,0,0,1,80.49,92.34Z"/><path class="cls-1" d="M96.19,102.21c-.72.4-1.32.1-2.25-.74-.41-.37-.78-.74-1.15-1.07a1.18,1.18,0,0,0-1.41,0c-.74.56-1.36,1-1.83,1.33a2.91,2.91,0,0,1-2.41.52A1.29,1.29,0,0,1,87,100c.84-.75,2.68-1.59,4-3.34a9.53,9.53,0,0,0,1.28-2.26c.2-.47,0-.81-.57-.82l-3.64,0c-.88,0-1.65-.47-1.65-1.16S87,91,88.19,90.88a61.06,61.06,0,0,1,6.29.06,1.51,1.51,0,0,1,1.38,1.43,10,10,0,0,1-1.57,4.21,1.17,1.17,0,0,0,.2,1.56,24.74,24.74,0,0,1,1.94,2A1.33,1.33,0,0,1,96.19,102.21Z"/><path class="cls-2" d="M50.31,27.18,75,39.44s3,2.56,6,.43c2.2-1.55,7.87-7.6,8.23-1.55.26,4.42-.21,14.2-.66,20.58-.24,3.51-4,1.28-4,1.28L79.81,56.3a12.85,12.85,0,0,0-7.7,1.14c-3.89,1.94-23,8.29-23,8.29S59.31,52.29,50.31,27.18Z"/><ellipse class="cls-3" cx="49.13" cy="46.34" rx="8.75" ry="19.39"/><path class="cls-4" d="M47.51,41.53a9.64,9.64,0,0,0-1.75-3,7.71,7.71,0,0,0-5.87-2.8h0A7.73,7.73,0,0,0,34,38.54l-.3.37-.3-.36a8.45,8.45,0,0,0-2.63-2,7.3,7.3,0,0,0-6-.22,8.85,8.85,0,0,0-4.87,5.23,1.54,1.54,0,0,0,.82,2.17A1.5,1.5,0,0,0,22,43.8a1.66,1.66,0,0,0,.83-1,6.33,6.33,0,0,1,1.13-1.93,4.77,4.77,0,0,1,3.6-1.72h0a4.76,4.76,0,0,1,3.6,1.74,6.29,6.29,0,0,1,1.15,2,1.42,1.42,0,0,0,1.42,1.08,1.32,1.32,0,0,0,1.4-1l0-.1a6.41,6.41,0,0,1,1.13-1.93,5.15,5.15,0,0,1,1.64-1.27,4.42,4.42,0,0,1,3.63-.13,5.58,5.58,0,0,1,3.07,3.33,1.65,1.65,0,0,0,.86,1,1.34,1.34,0,0,0,1.14-.08,1.91,1.91,0,0,0,.32-.16A1.65,1.65,0,0,0,47.51,41.53Z"/><path class="cls-5" d="M33.09,52.57a.34.34,0,0,0,.52.06l0-.06c.17-.24.36-.47.55-.69a6.87,6.87,0,0,1,10.7,0,9,9,0,0,1,1.62,2.77,1,1,0,0,1-.3,1.22.48.48,0,0,1-.16.08c-.68.35-1,0-1.13-.53-1.26-3.42-4.68-5-7.66-3.58a6.1,6.1,0,0,0-1.86,1.44,7.13,7.13,0,0,0-1.25,2.14c-.13.37-.17.69-.79.69s-.66-.34-.8-.69a6.73,6.73,0,0,0-1.25-2.14,5.31,5.31,0,0,0-8.25,0h0a6.88,6.88,0,0,0-1.25,2.13c-.18.51-.4.88-1.13.54s-.64-.8-.46-1.31c1.63-4.43,6.07-6.5,9.92-4.62a7.44,7.44,0,0,1,2.4,1.87A7.33,7.33,0,0,1,33.09,52.57Z"/><rect class="cls-6" width="120" height="120"/></g></g></svg>