<svg xmlns="http://www.w3.org/2000/svg" viewBox="0 0 120 120"><defs><style>.cls-1{fill:#548254;}.cls-2{fill:#37bef0;}.cls-3{fill:#9bcb6c;stroke:#9bcb6c;stroke-miterlimit:10;stroke-width:2px;}.cls-4{fill:none;}</style></defs><g id="レイヤー_2" data-name="レイヤー 2"><g id="nav_1"><path class="cls-1" d="M58.27,47.79a42.17,42.17,0,0,1-2.63,3.33,11.83,11.83,0,0,0-2,2.91c-.32,1.11-1.38,3.65-3.83,3.65a3,3,0,0,1-2.31-.92,3.45,3.45,0,0,1-.88-2.64c.23-3,1.62-5.31,4.53-7.72,1.75-1.48,2.73-4.3,1.25-6.38a4.12,4.12,0,0,0-3.15-1.25,5,5,0,0,0-1.15.14,5.93,5.93,0,0,0-2.59,3c-.65,1.48-1.76,3.23-4.12,3a3.06,3.06,0,0,1-2.26-1.25,4,4,0,0,1-.65-3,9.76,9.76,0,0,1,5.69-7.81,13.54,13.54,0,0,1,5.68-1.2c3.66,0,6.66,1.34,8.37,3.65A10.64,10.64,0,0,1,58.27,47.79ZM53.14,61.06a4.52,4.52,0,0,1,.42,3.37,4.19,4.19,0,0,1-4.07,3.47,4.37,4.37,0,0,1-4.35-4.35C45.14,61.66,46.35,59,49,59a6.36,6.36,0,0,1,1,.09A4.68,4.68,0,0,1,53.14,61.06Z"/><circle class="cls-2" cx="67.55" cy="66.07" r="3.58"/><path class="cls-3" d="M68.71,46.44a.29.29,0,0,0-.06.46l.06.05a7.52,7.52,0,0,1,.62.5,6.24,6.24,0,0,1,0,9.71,8,8,0,0,1-2.51,1.46.87.87,0,0,1-1.11-.26.51.51,0,0,1-.07-.15c-.32-.62,0-.86.48-1,3.11-1.13,4.56-4.24,3.25-6.94a5.32,5.32,0,0,0-1.31-1.69,6.49,6.49,0,0,0-1.94-1.14c-.34-.12-.63-.15-.63-.71s.31-.6.63-.72a6.49,6.49,0,0,0,1.94-1.14,4.82,4.82,0,0,0,0-7.49h0a6.34,6.34,0,0,0-1.94-1.13c-.46-.17-.79-.36-.48-1s.73-.59,1.18-.42c4,1.48,5.9,5.51,4.2,9A6.94,6.94,0,0,1,69.32,46,7.68,7.68,0,0,1,68.71,46.44Z"/><path class="cls-2" d="M32.54,90.51c.84.16,1.23.78,1.23,1.83s-.47,4.94.21,5.92a2.19,2.19,0,0,0,2.78.46,1.36,1.36,0,0,1,1.89,1.13c.06.9-.61,1.5-1.89,1.92a4.54,4.54,0,0,1-4.88-1c-1.28-1.43-1.29-5.71-1-8.66A1.59,1.59,0,0,1,32.54,90.51Z"/><path class="cls-2" d="M45.13,93.55c0-.91.82-1.6,2.09-1.74,1.64-.19,5.51-.74,7.25.86a5,5,0,0,1,.72,6,5.28,5.28,0,0,1-3.69,2.72,1.49,1.49,0,0,1-2-1.24c-.08-1,.75-1.43,1.68-1.89s2.16-1,1.69-2.84c-.37-1.33-2.26-.86-3.55-.83s-1.79.22-2.53.24C45.79,94.91,45.13,94.43,45.13,93.55Z"/><path class="cls-2" d="M70,101.84c-1,.53-4,1-5.56-1a5,5,0,0,1-.91-2.09.87.87,0,0,0-.86-.76c-1,0-1.58-.27-1.71-1.19s.79-1.5,1.83-1.44c.16,0,.55,0,.6-.3,0-.12-.11-.45-.57-.42a.9.9,0,0,1-.3,0,1.26,1.26,0,0,1-1.3-1.12c-.07-.77.83-1.24,1.43-1.24H63a.79.79,0,0,0,.88-.66,3.75,3.75,0,0,1,.12-.43c.37-1,1.11-1.43,1.89-1.13a1.42,1.42,0,0,1,.82,1.62.5.5,0,0,0,.49.65h.5a1.18,1.18,0,0,1,1.07,1.25,1.29,1.29,0,0,1-1.38,1h-.57c-.19,0-.63.13-.66.41s.35.33.52.33l1,0A1.17,1.17,0,0,1,69,96.45a1.33,1.33,0,0,1-1.29,1.35c-.17,0-.47,0-.82,0s-.66.21-.56.62a1.43,1.43,0,0,0,.81,1,3.44,3.44,0,0,0,2.48-.25,1.17,1.17,0,0,1,1.65.44C71.6,100.53,71.05,101.3,70,101.84Z"/><path class="cls-2" d="M82.61,90.18c1.2.43,1,1.45.73,2.44-.19.67-.65,2.29-.93,3.33-.16.52.12.78.74.85a4.53,4.53,0,0,1,1.48.39c1.23.54,1.26,1.56,2,2.09,1.13.86.85.48,1.26.89a1.27,1.27,0,0,1-.9,2.26c-2.22,0-2.27-1.43-3-2.2a1.87,1.87,0,0,0-3,.61c-.47,1-1.24,1.67-2.07,1.5-1.26-.27-1.25-1.32-.87-2.91.63-2.55,1.45-5.26,2.17-7.75C80.69,90.26,81.49,89.81,82.61,90.18Z"/><rect class="cls-4" width="120" height="120"/></g></g></svg>