<svg xmlns="http://www.w3.org/2000/svg" viewBox="0 0 120 120"><defs><style>.cls-1{fill:#804d63;}.cls-2{fill:#5e5ba2;}.cls-3,.cls-4{fill:#9bcb6c;}.cls-4{stroke:#9bcb6c;}.cls-4,.cls-5{stroke-miterlimit:10;}.cls-5,.cls-6{fill:#37bef0;}.cls-5{stroke:#37bef0;stroke-width:1.39px;}.cls-7{fill:none;}</style></defs><g id="レイヤー_2" data-name="レイヤー 2"><g id="nav_1"><path class="cls-1" d="M63,69.41c15.43-11,31.59,0,31.59,0V31.94s-16.16-11-31.59,0c-15.43-11-31.59,0-31.59,0V69.41S47.55,58.39,63,69.41Z"/><path class="cls-2" d="M58.27,64.7c15.43-11,31.6,0,31.6,0V27.23s-16.17-11-31.6,0c-15.43-11-31.59,0-31.59,0V64.7S42.84,53.68,58.27,64.7Z"/><path class="cls-3" d="M34.66,40.12a2.72,2.72,0,0,0,.52,1.51L41,48.87a.65.65,0,0,0,1.06,0l5.61-7.22a2.86,2.86,0,0,0,.52-1.52v-31a.85.85,0,0,0-.85-.85H36a.86.86,0,0,0-.86.85Z"/><path class="cls-4" d="M69.6,36.3a.31.31,0,0,0,.47.06l.05-.06a7.57,7.57,0,0,1,.49-.63,6.27,6.27,0,0,1,9.75,0,8.3,8.3,0,0,1,1.48,2.53.89.89,0,0,1-.27,1.11.51.51,0,0,1-.15.07c-.62.32-.86,0-1-.48-1.14-3.12-4.27-4.58-7-3.26A5.22,5.22,0,0,0,71.72,37a6.42,6.42,0,0,0-1.14,1.95c-.12.34-.15.63-.72.63s-.6-.32-.73-.63A6,6,0,0,0,68,37a4.83,4.83,0,0,0-7.51,0h0a6.28,6.28,0,0,0-1.14,1.94c-.17.47-.36.8-1,.49s-.59-.73-.42-1.19c1.49-4,5.53-5.92,9-4.21a7,7,0,0,1,2.19,1.7A7.87,7.87,0,0,1,69.6,36.3Z"/><path class="cls-5" d="M69.6,45.69a.31.31,0,0,0,.47.06l.05-.06a7.57,7.57,0,0,1,.49-.63,6.27,6.27,0,0,1,9.75,0,8.13,8.13,0,0,1,1.48,2.52.89.89,0,0,1-.27,1.11.51.51,0,0,1-.15.07c-.62.32-.86,0-1-.48-1.14-3.12-4.27-4.58-7-3.26a5.36,5.36,0,0,0-1.7,1.31,6.42,6.42,0,0,0-1.14,1.95c-.12.34-.15.63-.72.63s-.6-.31-.73-.63A6,6,0,0,0,68,46.34a4.83,4.83,0,0,0-7.51,0h0a6.22,6.22,0,0,0-1.14,1.95c-.17.46-.36.79-1,.48s-.59-.73-.42-1.19c1.49-4,5.53-5.92,9-4.21a7,7,0,0,1,2.19,1.7A7.87,7.87,0,0,1,69.6,45.69Z"/><path class="cls-6" d="M43.6,93.07c-.72.39-1.32.1-2.25-.74L40.2,91.26a1.18,1.18,0,0,0-1.42-.05c-.74.57-1.35,1.06-1.82,1.34a2.91,2.91,0,0,1-2.41.52,1.29,1.29,0,0,1-.16-2.22c.83-.76,2.68-1.59,4-3.34a9.68,9.68,0,0,0,1.27-2.27c.21-.47-.05-.8-.57-.81l-3.63-.05c-.89,0-1.66-.47-1.66-1.17s.54-1.34,1.75-1.48a60.58,60.58,0,0,1,6.28.07,1.5,1.5,0,0,1,1.39,1.43,10,10,0,0,1-1.57,4.2A1.16,1.16,0,0,0,41.9,89c.72.68,1.5,1.5,1.94,2A1.34,1.34,0,0,1,43.6,93.07Z"/><path class="cls-6" d="M49.56,85.15a12.71,12.71,0,0,0,1.27-2.52,2.26,2.26,0,0,1,2.24-1.78c1.2,0,3.64,0,4.83.11s2,.66,1.67,2.55a18,18,0,0,1-3.89,8.38c-.9,1-2.06,1.67-2.75,1.18a1.32,1.32,0,0,1-.18-2.19,16.92,16.92,0,0,0,1.63-1.79c.37-.49.22-.87-.13-1a1.52,1.52,0,0,1-1-1,1.24,1.24,0,0,1,1.07-1.4,3.34,3.34,0,0,1,.92.09.82.82,0,0,0,1-.34,9.52,9.52,0,0,0,.33-.9.79.79,0,0,0-.66-1c-.54,0-1.06,0-1.5,0a1.37,1.37,0,0,0-1.43.87c-.14.25-.3.52-.46.78a8.94,8.94,0,0,1-1.19,1.75,1.36,1.36,0,0,1-1.72.21C49,86.52,49.07,86.06,49.56,85.15Z"/><path class="cls-6" d="M76.71,86c-.1.44-.1,1.22-1.92,1.22h-1a1.18,1.18,0,0,0-1.15.81,8.17,8.17,0,0,1-2.4,4.67c-1,.78-1.7,1-2.36.17s.19-1.43,1.12-2.76A7.45,7.45,0,0,0,70,88c.15-.48-.25-.84-.8-.85l-1.8,0c-1.33,0-2-.14-2.15-.81s.08-1.64,1.65-1.72,7.61-.08,8.69.08S76.79,85.5,76.71,86Zm-9.51-3.6c0-.76.49-1.36,1.9-1.36s3.77.08,4.68.08c.13,0,.24,0,.35,0a1,1,0,0,0,.61,0c.47-.16.77.08,1.28.75.72,1,.74,1.47.22,1.74-.3.14-.65,0-1-.33a.7.7,0,0,0-.74-.07,1.85,1.85,0,0,1-.94.24H69.2C68.19,83.45,67.2,83.09,67.2,82.35Zm10.56.39c-.61.3-1.05-.31-1.49-1.09-.25-.45-.3-1.07.16-1.3s.91.12,1.35.85S78.3,82.47,77.76,82.74Z"/><path class="cls-6" d="M90.05,86.66a11.92,11.92,0,0,1-.88.88,1.05,1.05,0,0,0-.35.82c0,1.56-.08,3.45-.09,3.47a1,1,0,0,1-.93,1.1h0c-.6,0-1-.5-1-1.24V89.8a.29.29,0,0,0-.06-.19c-.07-.07-.14,0-.27,0a8.25,8.25,0,0,1-1.65.77,1.44,1.44,0,0,1-.46.08,1,1,0,0,1-1-.63.83.83,0,0,1,.35-1.14l.48-.26c.49-.27,1.25-.68,2-1.22a14.45,14.45,0,0,0,2-1.71l.46-.44a1,1,0,0,1,1.41,0A1,1,0,0,1,90.05,86.66Z"/><path class="cls-6" d="M43.63,105a1.61,1.61,0,0,1-1.85-.7,12.82,12.82,0,0,1-.87-2.39,1.22,1.22,0,0,1,.94-1.68c.92-.21,1.38.3,1.71,1a9,9,0,0,1,.83,2.44A1.07,1.07,0,0,1,43.63,105Zm8.85-1.61C52,104.87,50.41,109,46.53,111a1.62,1.62,0,0,1-2.28-.33c-.4-.55-.47-1.46.85-2.31a9.94,9.94,0,0,0,4.63-5.76c.45-1.31,1-2,2-1.86S52.89,101.94,52.48,103.34Zm-8-2a1.24,1.24,0,0,1,1-1.68c.91-.21,1.35.3,1.68,1a9.08,9.08,0,0,1,.85,2.44,1.09,1.09,0,0,1-.75,1.29,1.61,1.61,0,0,1-1.86-.7A14.39,14.39,0,0,1,44.48,101.34Z"/><path class="cls-6" d="M67.62,105.7c-.77.65-1.05.6-1.62.41s-.69-.94-.28-1.7a5.49,5.49,0,0,0,.37-1c.13-.4-.09-.73-.58-.71h-.33c-1,0-1,.61-1,1a20.55,20.55,0,0,1-.87,5.23c-.47,1.49-1.26,2.36-2.16,2.38a1.18,1.18,0,0,1-1.26-1.48c.13-.87,1-1.66,1.2-2.67a17.08,17.08,0,0,0,.36-3.27,1,1,0,0,0-1.19-1.09c-.37,0-.64,0-.82,0-1.33,0-2.13-.08-2.33-1.1s.34-1.69,2.25-1.69c2.23,0,6.69-.08,7.81,0A2,2,0,0,1,69,102,6,6,0,0,1,67.62,105.7Z"/><path class="cls-6" d="M84.57,105.18a1.14,1.14,0,0,1-.25.79,2.71,2.71,0,0,1-1.83.57c-.46,0-2.46,0-3.42,0-2.48,0-3.63,0-4.14,0-1.32-.06-1.53-.74-1.53-1.15A1.52,1.52,0,0,1,75,103.89h2.15c1.79,0,2.55,0,4.14,0h1.35C83.59,103.92,84.51,104.07,84.57,105.18Z"/><rect class="cls-7" width="120" height="120"/></g></g></svg>