<svg xmlns="http://www.w3.org/2000/svg" viewBox="0 0 60 60"><defs><style>.cls-1{fill:#4d4d4d;}.cls-2{fill:none;}</style></defs><g id="レイヤー_2" data-name="レイヤー 2"><g id="section_1-6"><path class="cls-1" d="M20.56,3.73c.31-1.09,1.18-1.36,2.4-1.35,4.72,0,9.45,0,14.18,0,1,0,1.79.09,2.19,1,.08.19.6.32.92.34,3,.11,4.57,1.44,4.57,4.06q0,10.4,0,20.78c0,2.65-1.62,4-4.71,4H37.67l8.88,8.94c-1.38,0-2.47,0-3.54,0a1.66,1.66,0,0,1-.86-.55c-2-2-4-4.07-6-6.14a2.74,2.74,0,0,0-2.29-.95c-2.68.07-5.37,0-8,0a2.64,2.64,0,0,0-1.61.62c-1.85,1.78-3.71,3.55-5.35,5.46a4.12,4.12,0,0,1-4,1.55,11.58,11.58,0,0,0-1.38,0l8.89-9H20c-3.26,0-4.85-1.38-4.85-4.22,0-4.42,0-8.83,0-13.24V8.52C15.16,5,16.36,3.91,20.56,3.73Zm9.57,16.56H40.46c1.28,0,1.71-.36,1.71-1.45,0-2.61,0-5.23,0-7.84,0-1.12-.45-1.5-1.8-1.5H19.83c-1.32,0-1.78.4-1.79,1.53q0,3.87,0,7.74c0,1.17.42,1.51,1.77,1.52Zm0-12.55c1.54,0,3.09,0,4.64,0,1,0,1.29-.37,1.28-1.19s-.14-1.25-1.21-1.24q-4.76,0-9.51,0c-1.09,0-1.18.55-1.19,1.28s.25,1.17,1.23,1.15C27,7.71,28.55,7.74,30.14,7.74ZM23.33,27a1.81,1.81,0,0,0-2-1.7,1.7,1.7,0,1,0,0,3.38A1.81,1.81,0,0,0,23.33,27Zm15.46-1.7a1.84,1.84,0,0,0-2,1.69,1.82,1.82,0,0,0,1.93,1.69,1.71,1.71,0,1,0,.11-3.38Z"/><path class="cls-1" d="M27.73,47.43A7.38,7.38,0,0,0,27.62,49V54.8a2.49,2.49,0,0,1-2.81,2.82,3.13,3.13,0,0,1-2.29-.83,3.88,3.88,0,0,1-.68-1.07l1.23-.48a2.42,2.42,0,0,0,.45.79,1.68,1.68,0,0,0,1.3.51,1.56,1.56,0,0,0,1.24-.48,2,2,0,0,0,.33-1.28V49a8.16,8.16,0,0,0-.11-1.52Z"/><path class="cls-1" d="M36.55,57.46a9.52,9.52,0,0,0-.75-2.18C35.06,53.49,34.55,53,33.52,53H31.27v2.94a8.18,8.18,0,0,0,.1,1.53H30a8.28,8.28,0,0,0,.11-1.53v-7A9.67,9.67,0,0,0,30,47.39c.46,0,.86,0,1.5,0h2.93c1.93,0,3,.91,3,2.58a2.44,2.44,0,0,1-.73,1.91,2.71,2.71,0,0,1-1.4.68c.52.17.84.52,1.31,1.43.29.56.6,1.24,1,2.2a11,11,0,0,0,.59,1.23Zm-2.33-5.54a2.06,2.06,0,0,0,1.41-.53,1.73,1.73,0,0,0,.47-1.27c0-1.06-.63-1.62-1.81-1.62h-3v3.42Z"/><rect class="cls-2" width="60" height="60"/></g></g></svg>