<svg xmlns="http://www.w3.org/2000/svg" viewBox="0 0 60 60"><defs><style>.cls-1{fill:#37bef0;}.cls-2{fill:#90c267;}.cls-3{fill:#9bcb6b;}.cls-4{fill:none;}</style></defs><g id="レイヤー_2" data-name="レイヤー 2"><g id="nav__sub"><path class="cls-1" d="M17,26.27a.33.33,0,0,0,.07-.52.2.2,0,0,0-.07-.06c-.24-.18-.48-.36-.7-.56a7,7,0,0,1,0-10.94,9.1,9.1,0,0,1,2.83-1.66,1,1,0,0,1,1.25.3.56.56,0,0,1,.09.17c.35.7,0,1-.55,1.16C16.42,15.44,14.78,19,16.26,22a6.12,6.12,0,0,0,1.48,1.9,7.08,7.08,0,0,0,2.18,1.28c.38.14.71.17.71.81s-.35.67-.71.81a7.08,7.08,0,0,0-2.18,1.28,5.43,5.43,0,0,0,0,8.44h0a6.78,6.78,0,0,0,2.18,1.28c.51.19.89.41.54,1.16s-.82.65-1.33.46c-4.54-1.66-6.65-6.2-4.73-10.14a7.76,7.76,0,0,1,1.91-2.46A7.56,7.56,0,0,1,17,26.27Z"/><path class="cls-1" d="M19.72,40.59a2.58,2.58,0,0,1-.95-.19,9.35,9.35,0,0,1-5.55-5.17,7.8,7.8,0,0,1,.24-6.41A8.68,8.68,0,0,1,15.63,26l.06-.05-.08-.06a8.07,8.07,0,0,1,0-12.52,10.16,10.16,0,0,1,3.16-1.85,2,2,0,0,1,2.48.71l.19.4a1.67,1.67,0,0,1,.09,1.4,2,2,0,0,1-1.26,1.08,5.36,5.36,0,0,0-3.21,2.94,4.2,4.2,0,0,0,.13,3.45,4.7,4.7,0,0,0,1.22,1.57,6,6,0,0,0,1.87,1.09A1.74,1.74,0,0,1,21.67,26a1.77,1.77,0,0,1-1.31,1.76,6.18,6.18,0,0,0-1.94,1.12,4.39,4.39,0,0,0,0,6.87,6,6,0,0,0,1.87,1.09,2,2,0,0,1,1.25,1,1.89,1.89,0,0,1-.13,1.54A1.81,1.81,0,0,1,19.72,40.59ZM18.1,25.44a1.43,1.43,0,0,1,.1.68,1.4,1.4,0,0,1-.11.4A10.4,10.4,0,0,1,19.14,26,9.29,9.29,0,0,1,18.1,25.44Z"/><path class="cls-1" d="M23.86,54.66a2,2,0,0,1-2-2V13.44a2,2,0,0,1,4.06,0V52.63A2,2,0,0,1,23.86,54.66Z"/><path class="cls-1" d="M39.25,54.66a2,2,0,0,1-2-2V13.44a2,2,0,0,1,4.06,0V52.63A2,2,0,0,1,39.25,54.66Z"/><ellipse class="cls-2" cx="39.25" cy="19.37" rx="7.06" ry="9.14"/><path class="cls-3" d="M39.25,29.56c-4.47,0-8.1-4.57-8.1-10.19s3.63-10.18,8.1-10.18,8.11,4.57,8.11,10.18S43.72,29.56,39.25,29.56Z"/><rect class="cls-4" width="60" height="60"/></g></g></svg>